<svg xmlns="http://www.w3.org/2000/svg" xmlns:xlink="http://www.w3.org/1999/xlink" width="48" height="48">
  <defs id="acyl-settings">
    <linearGradient x1="0%" y1="0%" x2="0%" y2="100%" id="acyl-gradient">
      <stop offset="0%" style="stop-color:#636EAE;stop-opacity:1.000000"/>
      <stop offset="50%" style="stop-color:#829C7F;stop-opacity:1.000000"/>
      <stop offset="100%" style="stop-color:#D73E7F;stop-opacity:1.000000"/>
    </linearGradient>
    <g id="acyl-filter">
  </g>
    <g id="acyl-drawing">
      <path d="m 11.420213,8.8895106 c -2.3374492,0 -4.2420215,1.3048124 -4.2420215,2.9255324 l 31.5372345,0 c 0,-1.620719 -1.904574,-2.9255324 -4.242022,-2.9255324 l -23.053191,0 z M 7.8803191,12.575681 C 4.6150646,12.575681 2,14.834536 2,17.636851 L 2,35.39483 c 0,2.802315 2.6150646,5.061169 5.8803191,5.06117 l 32.2393619,0 C 43.384935,40.456 46,38.197145 46,35.39483 l 0,-17.757979 c 0,-2.802315 -2.615065,-5.06117 -5.880319,-5.06117 l -32.2393619,0 z" id="path-main"/>
    </g>
  </defs>
  <g id="acyl-visual">
    <use id="visible1" transform="translate(24,24) scale(1.00) translate(-24,-24)" style="fill:rgb(0,0,0);fill-opacity:0.00;stroke:url(#acyl-gradient);stroke-width:1.00" xlink:href="#acyl-drawing"/>
  </g>
</svg>
