<?xml version="1.0" encoding="UTF-8" standalone="no"?>
<!-- Created with Inkscape (http://www.inkscape.org/) -->

<svg
   xmlns:dc="http://purl.org/dc/elements/1.1/"
   xmlns:cc="http://creativecommons.org/ns#"
   xmlns:rdf="http://www.w3.org/1999/02/22-rdf-syntax-ns#"
   xmlns:svg="http://www.w3.org/2000/svg"
   xmlns="http://www.w3.org/2000/svg"
   xmlns:sodipodi="http://sodipodi.sourceforge.net/DTD/sodipodi-0.dtd"
   xmlns:inkscape="http://www.inkscape.org/namespaces/inkscape"
   width="512"
   height="512"
   id="svg2"
   version="1.1"
   inkscape:version="0.48.5 r10040"
   sodipodi:docname="accessibility-directory.svg">
  <defs
     id="defs4" />
  <sodipodi:namedview
     id="base"
     pagecolor="#ffffff"
     bordercolor="#666666"
     borderopacity="1.0"
     inkscape:pageopacity="0.0"
     inkscape:pageshadow="2"
     inkscape:zoom="0.49497474"
     inkscape:cx="964.29517"
     inkscape:cy="287.7131"
     inkscape:document-units="px"
     inkscape:current-layer="layer1"
     showgrid="false"
     inkscape:window-width="1366"
     inkscape:window-height="716"
     inkscape:window-x="0"
     inkscape:window-y="0"
     inkscape:window-maximized="1" />
  <metadata
     id="metadata7">
    <rdf:RDF>
      <cc:Work
         rdf:about="">
        <dc:format>image/svg+xml</dc:format>
        <dc:type
           rdf:resource="http://purl.org/dc/dcmitype/StillImage" />
        <dc:title></dc:title>
      </cc:Work>
    </rdf:RDF>
  </metadata>
  <g
     inkscape:label="Layer 1"
     inkscape:groupmode="layer"
     id="layer1"
     transform="translate(0,-540.36218)">
    <g
       id="g4462"
       transform="matrix(2.5640076,0,0,2.5640076,-2060.4711,-1584.8867)">
      <rect
         ry="11.488368"
         rx="9.859148"
         y="873.56512"
         x="830.96252"
         height="145.28867"
         width="151.77051"
         id="rect2996"
         style="fill:#ebebeb;fill-opacity:1;stroke:none" />
      <rect
         ry="12.382351"
         rx="9.8244772"
         y="843.34729"
         x="830.91797"
         height="62.961273"
         width="151.80109"
         id="rect2996-3"
         style="fill:#394050;fill-opacity:1;stroke:none" />
      <rect
         ry="12.142858"
         rx="0"
         y="895.21936"
         x="830.91449"
         height="12.142858"
         width="151.76404"
         id="rect3784"
         style="fill:#394050;fill-opacity:1;stroke:none" />
      <rect
         ry="36.891598"
         rx="0"
         y="856.88715"
         x="841.33649"
         height="36.891598"
         width="129.0356"
         id="rect3784-6"
         style="fill:#aca793;fill-opacity:1;stroke:none" />
      <rect
         ry="3.6312299"
         rx="3.0734165"
         y="962.96368"
         x="947.99231"
         height="46.467018"
         width="19.697975"
         id="rect3815"
         style="fill:#394050;fill-opacity:1;stroke:none" />
      <rect
         ry="1.4998559"
         rx="3.0734165"
         y="938.33752"
         x="947.73975"
         height="19.1929"
         width="19.697975"
         id="rect3815-7"
         style="fill:#394050;fill-opacity:1;stroke:none" />
      <rect
         ry="1.4998559"
         rx="3.0734165"
         y="914.55145"
         x="948.00818"
         height="19.1929"
         width="19.697975"
         id="rect3815-7-5"
         style="fill:#394050;fill-opacity:1;stroke:none" />
      <rect
         ry="1.4998559"
         rx="3.0734165"
         y="989.73273"
         x="922.42859"
         height="19.1929"
         width="19.697975"
         id="rect3815-7-5-3"
         style="fill:#394050;fill-opacity:1;stroke:none" />
      <rect
         ry="1.4998559"
         rx="3.0734165"
         y="937.98615"
         x="922.42859"
         height="19.1929"
         width="19.697975"
         id="rect3815-7-56"
         style="fill:#666666;fill-opacity:1;stroke:none" />
      <rect
         ry="1.4998559"
         rx="3.0734165"
         y="914.16925"
         x="922.42859"
         height="19.1929"
         width="19.697975"
         id="rect3815-7-5-2"
         style="fill:#666666;fill-opacity:1;stroke:none" />
      <rect
         ry="1.4998559"
         rx="3.0734165"
         y="963.46875"
         x="922.42859"
         height="19.1929"
         width="19.697975"
         id="rect3815-7-5-3-9"
         style="fill:#666666;fill-opacity:1;stroke:none" />
      <rect
         ry="1.4998559"
         rx="3.0734165"
         y="989.75098"
         x="896.72705"
         height="19.1929"
         width="19.697975"
         id="rect3815-7-5-3-1"
         style="fill:#666666;fill-opacity:1;stroke:none" />
      <rect
         ry="1.4998559"
         rx="3.0734165"
         y="938.00439"
         x="896.72705"
         height="19.1929"
         width="19.697975"
         id="rect3815-7-56-2"
         style="fill:#666666;fill-opacity:1;stroke:none" />
      <rect
         ry="1.4998559"
         rx="3.0734165"
         y="914.1875"
         x="896.72705"
         height="19.1929"
         width="19.697975"
         id="rect3815-7-5-2-7"
         style="fill:#666666;fill-opacity:1;stroke:none" />
      <rect
         ry="1.4998559"
         rx="3.0734165"
         y="963.487"
         x="896.72705"
         height="19.1929"
         width="19.697975"
         id="rect3815-7-5-3-9-0"
         style="fill:#666666;fill-opacity:1;stroke:none" />
      <rect
         ry="1.4998559"
         rx="3.0734165"
         y="989.8241"
         x="871.57324"
         height="19.1929"
         width="19.697975"
         id="rect3815-7-5-3-93"
         style="fill:#666666;fill-opacity:1;stroke:none" />
      <rect
         ry="1.4998559"
         rx="3.0734165"
         y="938.07751"
         x="871.57324"
         height="19.1929"
         width="19.697975"
         id="rect3815-7-56-6"
         style="fill:#666666;fill-opacity:1;stroke:none" />
      <rect
         ry="1.4998559"
         rx="3.0734165"
         y="914.26062"
         x="871.57324"
         height="19.1929"
         width="19.697975"
         id="rect3815-7-5-2-0"
         style="fill:#666666;fill-opacity:1;stroke:none" />
      <rect
         ry="1.4998559"
         rx="3.0734165"
         y="963.56012"
         x="871.57324"
         height="19.1929"
         width="19.697975"
         id="rect3815-7-5-3-9-6"
         style="fill:#666666;fill-opacity:1;stroke:none" />
      <rect
         ry="1.4998559"
         rx="3.0734165"
         y="989.84235"
         x="845.8717"
         height="19.1929"
         width="19.697975"
         id="rect3815-7-5-3-1-2"
         style="fill:#f03916;fill-opacity:1;stroke:none" />
      <rect
         ry="1.4998559"
         rx="3.0734165"
         y="938.09576"
         x="845.8717"
         height="19.1929"
         width="19.697975"
         id="rect3815-7-56-2-6"
         style="fill:#394050;fill-opacity:1;stroke:none" />
      <rect
         ry="1.4998559"
         rx="3.0734165"
         y="914.27887"
         x="845.8717"
         height="19.1929"
         width="19.697975"
         id="rect3815-7-5-2-7-1"
         style="fill:#394050;fill-opacity:1;stroke:none" />
      <rect
         ry="1.4998559"
         rx="3.0734165"
         y="963.57837"
         x="845.8717"
         height="19.1929"
         width="19.697975"
         id="rect3815-7-5-3-9-0-8"
         style="fill:#394050;fill-opacity:1;stroke:none" />
      <path
         inkscape:connector-curvature="0"
         id="path3990"
         d="m 849.23193,875.82008 2.77792,2.14657 0,9.72272 -2.77792,2.52538 z"
         style="fill:#394050;stroke:none" />
      <path
         inkscape:connector-curvature="0"
         id="path3990-7"
         d="m 849.14677,860.70055 2.77792,2.14657 0,9.72272 -2.77792,2.52538 z"
         style="fill:#394050;stroke:none" />
      <path
         inkscape:connector-curvature="0"
         id="path3990-9"
         d="m 850.83839,890.53686 2.14657,-2.77792 9.72272,0 2.52538,2.77792 z"
         style="fill:#394050;stroke:none" />
      <path
         inkscape:connector-curvature="0"
         id="path3990-2"
         d="m 871.86792,876.4746 2.77792,2.14657 0,9.72272 -2.77792,2.52538 z"
         style="fill:#394050;stroke:none" />
      <path
         inkscape:connector-curvature="0"
         id="path3990-7-0"
         d="m 871.78276,861.35507 2.77792,2.14657 0,9.72272 -2.77792,2.52538 z"
         style="fill:#394050;stroke:none" />
      <path
         inkscape:connector-curvature="0"
         id="path3990-2-2"
         d="m 892.13356,876.45298 2.77792,2.14657 0,9.72272 -2.77792,2.52538 z"
         style="fill:#394050;stroke:none" />
      <path
         inkscape:connector-curvature="0"
         id="path3990-7-0-3"
         d="m 892.0484,861.33345 2.77792,2.14657 0,9.72272 -2.77792,2.52538 z"
         style="fill:#394050;stroke:none" />
      <path
         inkscape:connector-curvature="0"
         id="path3990-7-0-3-7"
         d="m 907.73307,860.61607 -2.14657,2.77792 -9.72272,0 -2.52538,-2.77792 z"
         style="fill:#394050;stroke:none" />
      <path
         inkscape:connector-curvature="0"
         id="path3990-2-2-5"
         d="m 909.20354,876.29604 -2.77792,2.14657 0,9.72272 2.77792,2.52538 z"
         style="fill:#394050;stroke:none" />
      <path
         inkscape:connector-curvature="0"
         id="path3990-7-0-3-9"
         d="m 909.2887,861.17651 -2.77792,2.14657 0,9.72272 2.77792,2.52538 z"
         style="fill:#394050;stroke:none" />
      <path
         inkscape:connector-curvature="0"
         id="path3990-2-2-2"
         d="m 918.60788,874.4982 2.77792,-2.14657 0,-9.72272 -2.77792,-2.52538 z"
         style="fill:#394050;stroke:none" />
      <path
         inkscape:connector-curvature="0"
         id="path3990-7-0-3-2"
         d="m 918.52272,889.61773 2.77792,-2.14657 0,-9.72272 -2.77792,-2.52538 z"
         style="fill:#394050;stroke:none" />
      <path
         inkscape:connector-curvature="0"
         id="path3990-7-0-3-7-8"
         d="m 934.20739,890.33511 -2.14657,-2.77792 -9.72272,0 -2.52538,2.77792 z"
         style="fill:#394050;stroke:none" />
      <path
         inkscape:connector-curvature="0"
         id="path3990-2-2-5-9"
         d="m 935.67786,874.65514 -2.77792,-2.14657 0,-9.72272 2.77792,-2.52538 z"
         style="fill:#394050;stroke:none" />
      <path
         inkscape:connector-curvature="0"
         id="path3990-7-0-3-9-7"
         d="m 935.76302,889.77467 -2.77792,-2.14657 0,-9.72272 2.77792,-2.52538 z"
         style="fill:#394050;stroke:none" />
      <path
         inkscape:connector-curvature="0"
         id="path3990-2-2-2-3"
         d="m 944.50074,874.4982 2.77792,-2.14657 0,-9.72272 -2.77792,-2.52538 z"
         style="fill:#394050;stroke:none" />
      <path
         inkscape:connector-curvature="0"
         id="path3990-7-0-3-2-6"
         d="m 944.41558,889.61773 2.77792,-2.14657 0,-9.72272 -2.77792,-2.52538 z"
         style="fill:#394050;stroke:none" />
      <path
         inkscape:connector-curvature="0"
         id="path3990-7-0-3-7-8-1"
         d="m 960.27882,876.22797 -2.14657,-2.77792 -9.72272,0 -2.52538,2.77792 z"
         style="fill:#394050;stroke:none" />
      <path
         inkscape:connector-curvature="0"
         id="path3990-2-2-5-9-2"
         d="m 961.57072,874.65514 -2.77792,-2.14657 0,-9.72272 2.77792,-2.52538 z"
         style="fill:#394050;stroke:none" />
      <path
         inkscape:connector-curvature="0"
         id="path3990-7-0-3-9-7-9"
         d="m 961.65588,889.77467 -2.77792,-2.14657 0,-9.72272 2.77792,-2.52538 z"
         style="fill:#394050;stroke:none" />
      <path
         sodipodi:nodetypes="cc"
         inkscape:connector-curvature="0"
         id="path4169"
         d="m 927.2385,997.0592 10.17857,0.0217"
         style="fill:none;stroke:#ffffff;stroke-width:2;stroke-linecap:butt;stroke-linejoin:miter;stroke-miterlimit:4;stroke-opacity:1;stroke-dasharray:none" />
      <path
         sodipodi:nodetypes="cc"
         inkscape:connector-curvature="0"
         id="path4169-3"
         d="m 927.4078,1001.5281 10.17857,0.022"
         style="fill:none;stroke:#ffffff;stroke-width:2;stroke-linecap:butt;stroke-linejoin:miter;stroke-miterlimit:4;stroke-opacity:1;stroke-dasharray:none" />
      <path
         sodipodi:nodetypes="cc"
         inkscape:connector-curvature="0"
         id="path4169-1"
         d="m 953.12502,986.81561 10.17857,0.0217"
         style="fill:none;stroke:#ffffff;stroke-width:2;stroke-linecap:butt;stroke-linejoin:miter;stroke-miterlimit:4;stroke-opacity:1;stroke-dasharray:none" />
      <path
         sodipodi:nodetypes="cc"
         inkscape:connector-curvature="0"
         id="path4169-1-9"
         d="m 958.09887,981.77865 -0.0217,10.17857"
         style="fill:none;stroke:#ffffff;stroke-width:2;stroke-linecap:butt;stroke-linejoin:miter;stroke-miterlimit:4;stroke-opacity:1;stroke-dasharray:none" />
      <path
         sodipodi:nodetypes="cc"
         inkscape:connector-curvature="0"
         id="path4169-1-4"
         d="m 952.41073,948.06562 10.17857,0.0217"
         style="fill:none;stroke:#ffffff;stroke-width:2;stroke-linecap:butt;stroke-linejoin:miter;stroke-miterlimit:4;stroke-opacity:1;stroke-dasharray:none" />
      <path
         sodipodi:nodetypes="cc"
         inkscape:connector-curvature="0"
         id="path4169-1-7"
         d="m 954.64832,920.51647 7.19056,7.20413"
         style="fill:none;stroke:#ffffff;stroke-width:2;stroke-linecap:butt;stroke-linejoin:miter;stroke-miterlimit:4;stroke-opacity:1;stroke-dasharray:none" />
      <path
         sodipodi:nodetypes="cc"
         inkscape:connector-curvature="0"
         id="path4169-1-9-8"
         d="m 961.72697,920.46342 -7.20414,7.19057"
         style="fill:none;stroke:#ffffff;stroke-width:2;stroke-linecap:butt;stroke-linejoin:miter;stroke-miterlimit:4;stroke-opacity:1;stroke-dasharray:none" />
      <path
         sodipodi:nodetypes="cc"
         inkscape:connector-curvature="0"
         id="path4169-1-4-4"
         d="m 850.47708,923.94949 10.17857,0.0217"
         style="fill:none;stroke:#ffffff;stroke-width:2;stroke-linecap:butt;stroke-linejoin:miter;stroke-miterlimit:4;stroke-opacity:1;stroke-dasharray:none" />
      <path
         sodipodi:open="true"
         sodipodi:end="6.2784904"
         sodipodi:start="0"
         transform="translate(1.0101526,540.36218)"
         d="m 854.96787,379.7963 c 0,0.27894 -0.2544,0.50507 -0.56821,0.50507 -0.31382,0 -0.56821,-0.22613 -0.56821,-0.50507 0,-0.27895 0.25439,-0.50508 0.56821,-0.50508 0.31277,0 0.56673,0.22469 0.5682,0.5027"
         sodipodi:ry="0.50507629"
         sodipodi:rx="0.56821084"
         sodipodi:cy="379.7963"
         sodipodi:cx="854.39966"
         id="path4282"
         style="fill:#394050;fill-opacity:1;stroke:#ffffff;stroke-width:2;stroke-linecap:round;stroke-linejoin:round;stroke-miterlimit:4;stroke-opacity:1;stroke-dasharray:none"
         sodipodi:type="arc" />
      <path
         sodipodi:open="true"
         sodipodi:end="6.2784904"
         sodipodi:start="0"
         transform="translate(1.0209894,548.06458)"
         d="m 854.96787,379.7963 c 0,0.27894 -0.2544,0.50507 -0.56821,0.50507 -0.31382,0 -0.56821,-0.22613 -0.56821,-0.50507 0,-0.27895 0.25439,-0.50508 0.56821,-0.50508 0.31277,0 0.56673,0.22469 0.5682,0.5027"
         sodipodi:ry="0.50507629"
         sodipodi:rx="0.56821084"
         sodipodi:cy="379.7963"
         sodipodi:cx="854.39966"
         id="path4282-5"
         style="fill:#394050;fill-opacity:1;stroke:#ffffff;stroke-width:2;stroke-linecap:round;stroke-linejoin:round;stroke-miterlimit:4;stroke-opacity:1;stroke-dasharray:none"
         sodipodi:type="arc" />
      <path
         sodipodi:nodetypes="cc"
         inkscape:connector-curvature="0"
         id="path4169-1-4-0"
         d="m 850.35715,953.1549 10.89286,-10.33544"
         style="fill:none;stroke:#ffffff;stroke-width:2;stroke-linecap:butt;stroke-linejoin:miter;stroke-miterlimit:4;stroke-opacity:1;stroke-dasharray:none" />
      <path
         sodipodi:open="true"
         sodipodi:end="6.2784904"
         sodipodi:start="0"
         transform="translate(-1.98893,564.6641)"
         d="m 856.21787,379.7963 c 0,1.01861 -0.81404,1.84436 -1.81821,1.84436 -1.00417,0 -1.81821,-0.82575 -1.81821,-1.84436 0,-1.01862 0.81404,-1.84437 1.81821,-1.84437 1.00084,0 1.81349,0.82048 1.81819,1.83571"
         sodipodi:ry="1.844362"
         sodipodi:rx="1.8182108"
         sodipodi:cy="379.7963"
         sodipodi:cx="854.39966"
         id="path4282-5-3"
         style="fill:#394050;fill-opacity:1;stroke:#ffffff;stroke-width:1;stroke-linecap:round;stroke-linejoin:round;stroke-miterlimit:4;stroke-opacity:1;stroke-dasharray:none"
         sodipodi:type="arc" />
      <path
         sodipodi:open="true"
         sodipodi:end="6.2784904"
         sodipodi:start="0"
         transform="translate(4.752142,571.44981)"
         d="m 856.21787,379.7963 c 0,1.01861 -0.81404,1.84436 -1.81821,1.84436 -1.00417,0 -1.81821,-0.82575 -1.81821,-1.84436 0,-1.01862 0.81404,-1.84437 1.81821,-1.84437 1.00084,0 1.81349,0.82048 1.81819,1.83571"
         sodipodi:ry="1.844362"
         sodipodi:rx="1.8182108"
         sodipodi:cy="379.7963"
         sodipodi:cx="854.39966"
         id="path4282-5-3-1"
         style="fill:#394050;fill-opacity:1;stroke:#ffffff;stroke-width:1;stroke-linecap:round;stroke-linejoin:round;stroke-miterlimit:4;stroke-opacity:1;stroke-dasharray:none"
         sodipodi:type="arc" />
      <path
         sodipodi:nodetypes="cccc"
         inkscape:connector-curvature="0"
         id="path4374"
         d="m 850.17858,973.07646 3.03571,4.82143 2.85715,-8.03571 6.07142,0"
         style="fill:none;stroke:#ffffff;stroke-width:2;stroke-linecap:butt;stroke-linejoin:miter;stroke-miterlimit:4;stroke-opacity:1;stroke-dasharray:none" />
      <path
         sodipodi:open="true"
         sodipodi:end="6.2784904"
         sodipodi:start="0"
         transform="translate(52.38607,623.63732)"
         d="m 854.96787,379.7963 c 0,0.27894 -0.2544,0.50507 -0.56821,0.50507 -0.31382,0 -0.56821,-0.22613 -0.56821,-0.50507 0,-0.27895 0.25439,-0.50508 0.56821,-0.50508 0.31277,0 0.56673,0.22469 0.5682,0.5027"
         sodipodi:ry="0.50507629"
         sodipodi:rx="0.56821084"
         sodipodi:cy="379.7963"
         sodipodi:cx="854.39966"
         id="path4282-5-0"
         style="fill:#394050;fill-opacity:1;stroke:#ffffff;stroke-width:2;stroke-linecap:round;stroke-linejoin:round;stroke-miterlimit:4;stroke-opacity:1;stroke-dasharray:none"
         sodipodi:type="arc" />
      <path
         sodipodi:open="true"
         sodipodi:end="6.2784904"
         sodipodi:start="0"
         transform="matrix(2.1304662,0,0,2.8920357,-938.90161,-98.950736)"
         d="m 856.21787,379.7963 c 0,1.01861 -0.81404,1.84436 -1.81821,1.84436 -1.00417,0 -1.81821,-0.82575 -1.81821,-1.84436 0,-1.01862 0.81404,-1.84437 1.81821,-1.84437 1.00084,0 1.81349,0.82048 1.81819,1.83571"
         sodipodi:ry="1.844362"
         sodipodi:rx="1.8182108"
         sodipodi:cy="379.7963"
         sodipodi:cx="854.39966"
         id="path4282-5-3-1-6"
         style="fill:#666666;fill-opacity:1;stroke:#ffffff;stroke-width:0.57945514;stroke-linecap:round;stroke-linejoin:round;stroke-miterlimit:4;stroke-opacity:1;stroke-dasharray:none"
         sodipodi:type="arc" />
      <path
         inkscape:connector-curvature="0"
         id="path4412"
         d="m 849.69073,1003.5132 2.65165,-7.07104 3.03046,7.00794"
         style="fill:none;stroke:#ffffff;stroke-width:1px;stroke-linecap:butt;stroke-linejoin:miter;stroke-opacity:1" />
      <path
         inkscape:connector-curvature="0"
         id="path4414"
         d="m 850.89029,1000.7353 3.21986,0.063"
         style="fill:none;stroke:#ffffff;stroke-width:1px;stroke-linecap:butt;stroke-linejoin:miter;stroke-opacity:1" />
      <path
         sodipodi:nodetypes="czzzc"
         inkscape:connector-curvature="0"
         id="path4416"
         d="m 861.66025,998.42046 c 0,0 -0.53084,-2.28961 -2.14286,-2.27678 -1.61202,0.0128 -2.74907,1.56805 -2.8125,3.48215 -0.0634,1.91407 1.11322,3.40707 2.63392,3.43747 1.5207,0.03 2.32143,-1.7857 2.32143,-1.7857"
         style="fill:none;stroke:#ffffff;stroke-width:1px;stroke-linecap:butt;stroke-linejoin:miter;stroke-opacity:1" />
      <path
         sodipodi:nodetypes="czcc"
         inkscape:connector-curvature="0"
         id="path4418"
         d="m 878.62716,970.59396 c 0,0 1.30643,-0.0942 1.96429,-0.44643 0.65786,-0.35227 1.78571,-1.69643 1.78571,-1.69643 l 0,9.46429"
         style="fill:none;stroke:#ffffff;stroke-width:1.5;stroke-linecap:butt;stroke-linejoin:bevel;stroke-miterlimit:4;stroke-opacity:1;stroke-dasharray:none" />
      <path
         sodipodi:nodetypes="ccczzc"
         inkscape:connector-curvature="0"
         id="path4420"
         d="m 910.5371,977.45397 -7.52199,0.0893 4.98763,-4.48255 c 0,0 1.49617,-1.19933 1.32583,-2.27284 -0.17034,-1.07351 -0.73977,-2.61775 -2.90419,-2.58852 -2.16442,0.0292 -2.71479,2.65165 -2.71479,2.65165"
         style="fill:none;stroke:#ffffff;stroke-width:1.5;stroke-linecap:butt;stroke-linejoin:bevel;stroke-miterlimit:4;stroke-opacity:1;stroke-dasharray:none" />
      <path
         sodipodi:nodetypes="czzczzc"
         inkscape:connector-curvature="0"
         id="path4422"
         d="m 929.75985,975.41539 c 0,0 1.08231,2.40583 2.85714,2.41071 1.77484,0.005 2.57433,-1.38265 2.61161,-2.76785 0.0373,-1.38521 -2.25447,-2.50001 -2.25447,-2.50001 0,0 2.15041,-0.90672 2.18751,-2.07589 0.0371,-1.16917 -0.62432,-2.62513 -2.54465,-2.65625 -1.92033,-0.0311 -2.94643,2.58929 -2.94643,2.58929"
         style="fill:none;stroke:#ffffff;stroke-width:1.5;stroke-linecap:butt;stroke-linejoin:bevel;stroke-miterlimit:4;stroke-opacity:1;stroke-dasharray:none" />
      <path
         inkscape:connector-curvature="0"
         id="path4424"
         d="m 884.89248,949.38861 -7.36608,0 5.17858,-6.60715 0,9.77679"
         style="fill:none;stroke:#ffffff;stroke-width:1.5;stroke-linecap:butt;stroke-linejoin:bevel;stroke-miterlimit:4;stroke-opacity:1;stroke-dasharray:none" />
      <path
         sodipodi:nodetypes="ccczzzc"
         inkscape:connector-curvature="0"
         id="path4426"
         d="m 910.32358,943.42046 -5.89285,0 0,3.08036 c 0,0 1.78774,0.14608 2.85714,0.35714 1.06939,0.21106 2.40201,0.72352 2.41072,2.72322 0.009,1.99969 -0.89851,3.18657 -2.81251,3.16964 -1.914,-0.0169 -2.8125,-2.20982 -2.8125,-2.20982"
         style="fill:none;stroke:#ffffff;stroke-width:1.5;stroke-linecap:butt;stroke-linejoin:bevel;stroke-miterlimit:4;stroke-opacity:1;stroke-dasharray:none" />
      <path
         sodipodi:nodetypes="czczzzzc"
         inkscape:connector-curvature="0"
         id="path4428"
         d="m 935.0893,945.17468 c 0,0 -0.30112,-2.04082 -2.8125,-2.09822 -2.51138,-0.0574 -2.94643,2.8125 -2.94643,2.8125 0,0 -0.0435,3.56617 0.0447,4.46429 0.0882,0.89812 0.96256,2.64641 2.94642,2.63393 1.98386,-0.0125 3.05396,-1.13966 3.08036,-2.85715 0.0264,-1.71749 -0.64874,-2.97523 -2.99107,-2.99107 -2.34233,-0.0158 -3.03571,2.90179 -3.03571,2.90179"
         style="fill:none;stroke:#ffffff;stroke-width:1.5;stroke-linecap:butt;stroke-linejoin:miter;stroke-miterlimit:4;stroke-opacity:1;stroke-dasharray:none" />
      <path
         sodipodi:nodetypes="czczzzzc"
         inkscape:connector-curvature="0"
         id="path4428-3"
         d="m 929.7285,926.58621 c 0,0 0.30112,2.04082 2.8125,2.09822 2.51138,0.0574 2.94643,-2.8125 2.94643,-2.8125 0,0 0.0435,-3.56617 -0.0447,-4.46429 -0.0882,-0.89812 -0.96256,-2.64641 -2.94642,-2.63393 -1.98386,0.0125 -3.05396,1.13966 -3.08036,2.85715 -0.0264,1.71749 0.64874,2.97523 2.99107,2.99107 2.34233,0.0158 3.03571,-2.90179 3.03571,-2.90179"
         style="fill:none;stroke:#ffffff;stroke-width:1.5;stroke-linecap:butt;stroke-linejoin:miter;stroke-miterlimit:4;stroke-opacity:1;stroke-dasharray:none" />
      <path
         style="font-size:10px;font-style:normal;font-weight:normal;line-height:125%;letter-spacing:0px;word-spacing:0px;fill:#ffffff;fill-opacity:1;stroke:none;font-family:Sans"
         id="path6802"
         inkscape:connector-curvature="0"
         d="m 910.36407,926.58 q 0,0.72972 -0.23512,1.34594 -0.22704,0.6081 -0.70539,1.05404 -0.47027,0.44594 -1.20809,0.69731 -0.73784,0.25133 -1.74324,0.25133 -1.0054,0 -1.74322,-0.25133 -0.72971,-0.25137 -1.21619,-0.68919 -0.47839,-0.44595 -0.71353,-1.05405 -0.22702,-0.61621 -0.22702,-1.33782 0,-0.62432 0.18649,-1.11081 0.19458,-0.48648 0.5108,-0.83513 0.32432,-0.35674 0.72974,-0.56756 0.41349,-0.21891 0.85133,-0.29189 l 0,-0.0324 q -0.47839,-0.11359 -0.85946,-0.36486 -0.37296,-0.25135 -0.63242,-0.59999 -0.25133,-0.35677 -0.38919,-0.7865 -0.12968,-0.4297 -0.12968,-0.90808 0,-0.6 0.22702,-1.12702 0.23514,-0.53514 0.68919,-0.93241 0.45406,-0.40543 1.12701,-0.63243 0.67298,-0.23515 1.55674,-0.23515 0.93244,0 1.6135,0.23515 0.68919,0.23513 1.13514,0.64052 0.45404,0.39731 0.67295,0.93243 0.21891,0.53513 0.21891,1.13513 0,0.47026 -0.13782,0.89999 -0.12968,0.42972 -0.38919,0.78647 -0.25135,0.34864 -0.63243,0.6 -0.37298,0.24323 -0.86756,0.34054 l 0,0.0324 q 0.49458,0.081 0.91621,0.3 0.42162,0.21081 0.72972,0.56756 0.3081,0.34864 0.48648,0.83512 0.17839,0.48649 0.17839,1.10269 z m -1.79996,-5.38373 q 0,-0.42973 -0.11359,-0.78646 -0.10544,-0.35676 -0.35675,-0.60811 -0.25135,-0.25946 -0.65675,-0.3973 -0.40539,-0.14596 -0.99728,-0.14596 -0.57568,0 -0.97297,0.14596 -0.39728,0.13783 -0.65674,0.3973 -0.25136,0.25135 -0.36487,0.60811 -0.11358,0.35673 -0.11358,0.78646 0,0.34054 0.0891,0.69731 0.0891,0.35674 0.32432,0.64863 0.23515,0.29189 0.64864,0.47838 0.4135,0.18648 1.06217,0.18648 0.68916,0 1.10268,-0.18648 0.42161,-0.18649 0.64053,-0.47838 0.22702,-0.29189 0.29188,-0.64863 0.0729,-0.35677 0.0729,-0.69731 z m 0.28378,5.24589 q 0,-0.4135 -0.11358,-0.79457 -0.11359,-0.3892 -0.38919,-0.68108 -0.27567,-0.29999 -0.74595,-0.47836 -0.46214,-0.1865 -1.15943,-0.1865 -0.64053,0 -1.09459,0.1865 -0.44594,0.17837 -0.72971,0.47836 -0.27569,0.30001 -0.4054,0.69728 -0.12969,0.3892 -0.12969,0.81081 0,0.52703 0.12969,0.96486 0.12967,0.42973 0.41349,0.74594 0.28379,0.3081 0.74595,0.47836 0.46216,0.17027 1.1189,0.17027 0.66486,0 1.11891,-0.17027 0.45404,-0.17026 0.72972,-0.47836 0.27568,-0.31621 0.38916,-0.75405 0.12156,-0.44594 0.12156,-0.98919 z" />
      <path
         sodipodi:nodetypes="ccczcczccc"
         inkscape:connector-curvature="0"
         id="path3993"
         d="m 877.62238,918.52227 0,2.16443 4.50736,0.0223 c 0,0 -1.73711,2.27786 -2.32062,3.99415 -0.58351,1.71627 -0.6471,4.15033 -0.6471,4.15033 l 2.18674,0.0223 c 0,0 0.037,-2.40714 0.62478,-4.15034 0.58782,-1.7432 2.72227,-4.10572 2.72227,-4.10572 l 0,-2.11979 z"
         style="fill:#ffffff;stroke:none" />
    </g>
  </g>
</svg>
