<?xml version="1.0" encoding="UTF-8" standalone="no"?>
<!-- Created with Inkscape (http://www.inkscape.org/) -->

<svg
   xmlns:dc="http://purl.org/dc/elements/1.1/"
   xmlns:cc="http://creativecommons.org/ns#"
   xmlns:rdf="http://www.w3.org/1999/02/22-rdf-syntax-ns#"
   xmlns:svg="http://www.w3.org/2000/svg"
   xmlns="http://www.w3.org/2000/svg"
   xmlns:sodipodi="http://sodipodi.sourceforge.net/DTD/sodipodi-0.dtd"
   xmlns:inkscape="http://www.inkscape.org/namespaces/inkscape"
   id="svg2"
   version="1.1"
   inkscape:version="0.48.5 r10040"
   width="500"
   height="500"
   sodipodi:docname="amarok.svg">
  <metadata
     id="metadata8">
    <rdf:RDF>
      <cc:Work
         rdf:about="">
        <dc:format>image/svg+xml</dc:format>
        <dc:type
           rdf:resource="http://purl.org/dc/dcmitype/StillImage" />
        <dc:title />
      </cc:Work>
    </rdf:RDF>
  </metadata>
  <defs
     id="defs6" />
  <sodipodi:namedview
     pagecolor="#ffffff"
     bordercolor="#666666"
     borderopacity="1"
     objecttolerance="10"
     gridtolerance="10"
     guidetolerance="10"
     inkscape:pageopacity="0"
     inkscape:pageshadow="2"
     inkscape:window-width="1366"
     inkscape:window-height="716"
     id="namedview4"
     showgrid="false"
     inkscape:zoom="0.3480826"
     inkscape:cx="499.53123"
     inkscape:cy="18.65955"
     inkscape:window-x="0"
     inkscape:window-y="0"
     inkscape:window-maximized="1"
     inkscape:current-layer="svg2" />
  <g
     id="g3779"
     transform="matrix(2.611061,0,0,2.611061,-833.42283,-424.87357)">
    <path
       sodipodi:nodetypes="czcccczc"
       inkscape:connector-curvature="0"
       id="path3771"
       d="m 341.87288,301.23252 c 0,0 9.97826,13.99093 14.36441,19.03284 4.38615,5.04191 12.03018,10.86309 12.03018,10.86309 l 19.93062,-21.9955 -2.15466,-38.42479 -25.13771,5.38665 c 0,0 -6.78515,15.4 -10.41419,19.39195 -3.62904,3.99195 -8.61865,5.74576 -8.61865,5.74576 z"
       style="fill:#216778;stroke:none" />
    <path
       sodipodi:nodetypes="ccccccc"
       inkscape:connector-curvature="0"
       id="path3763"
       d="m 492.49575,221.56659 -12.31556,-0.76179 0.88875,-30.59848 -10.79199,11.42682 -6.22127,28.81723 19.29862,0.1307 z"
       style="fill:#394050;stroke:none" />
    <path
       sodipodi:nodetypes="cczzzczczzzzcccccccc"
       inkscape:connector-curvature="0"
       id="path3765"
       d="m 366.20315,329.54682 -3.41264,-3.00226 c 0,0 12.17714,-9.27898 14.60093,-14.98183 2.42379,-5.70285 1.0108,-11.94878 0.50786,-16.25147 -0.50294,-4.30269 -2.45637,-6.25952 -2.53929,-9.39538 -0.0829,-3.13586 1.90447,-8.88752 1.90447,-8.88752 0,0 -14.47362,14.7185 -29.32883,6.85608 -14.85521,-7.86242 -19.17166,-18.91772 -19.17166,-18.91772 0,0 15.9768,-8.59329 21.45702,-13.33129 5.48022,-4.738 8.54026,-9.24976 13.45825,-12.1886 4.91799,-2.93885 7.99731,-1.27612 14.85486,-5.33252 6.85755,-4.0564 15.64372,-15.82037 24.12327,-20.31434 8.47956,-4.49397 24.63114,-7.23698 24.63114,-7.23698 l 33.13777,-22.34577 15.87058,-10.28414 3.55501,5.33252 -36.91351,59.83558 -20.82839,48.47988 -24.41949,12.20974 z"
       style="fill:#00bbf2;fill-opacity:1;stroke:none" />
    <path
       sodipodi:nodetypes="cccccccccccccccccccczczczccczzzzzcszc"
       inkscape:connector-curvature="0"
       id="path2993"
       d="m 462.27817,335.32689 0.12697,-4.18984 -11.93468,-2.41232 6.85609,-1.26965 -6.34823,-20.56827 3.9359,4.82466 0.88876,-22.34577 0.90216,3.45325 1.88533,-10.32442 2.24444,-4.75821 1.43644,2.69333 1.16711,-7.54131 2.33422,-1.97511 0,-5.38665 1.61599,-3.86044 0.26934,-4.48887 3.5911,5.38665 0,-12.03019 8.61864,-6.8231 15.35196,-9.42664 c 0,0 1.49597,-5.43073 0.89778,-7.72087 -0.59819,-2.29014 -3.77066,-5.20709 -3.77066,-5.20709 0,0 -5.22468,5.33328 -9.51642,6.82309 -4.29174,1.48981 -15.53152,0.71822 -15.53152,0.71822 0,0 2.41717,-13.80591 5.02755,-20.46928 2.61038,-6.66337 10.59375,-19.12262 10.59375,-19.12262 l -2.06489,-9.78575 -3.86043,-2.7831 c 0,0 -12.39673,19.22603 -19.54135,28.83246 -7.14462,9.60643 -16.50813,16.35993 -23.36149,28.694 -6.85336,12.33407 -7.09077,35.85462 -15.48969,45.07244 -8.39892,9.21782 -16.93067,4.37536 -24.7581,11.17289 -7.82743,6.79753 -13.65116,23.49075 -18.74688,29.60294 -5.09572,6.11219 -9.33687,9.11243 -9.33687,9.11243 0,0 1.18153,1.12281 3.4566,2.25057 7.63781,3.78608 26.67842,11.77721 46.81882,13.05649 20.1404,1.27928 46.24226,-9.20392 46.24226,-9.20392 z"
       style="fill:#216778;stroke:none" />
    <path
       sodipodi:nodetypes="czcczcc"
       inkscape:connector-curvature="0"
       id="path3769"
       d="m 398.89479,246.60267 c 0,0 -7.51107,14.29226 -7.1822,22.62394 0.32887,8.33168 5.92532,13.64618 5.92532,13.64618 l 5.38665,0 c 0,0 -3.10446,-11.56525 -3.40252,-17.57461 -0.29806,-6.00936 1.60697,-18.3364 1.60697,-18.3364 z"
       style="fill:#216778;stroke:none" />
    <path
       sodipodi:nodetypes="czczczc"
       inkscape:connector-curvature="0"
       id="path3767"
       d="m 397.7213,255.67128 c 0,0 -0.86835,-14.51472 4.48888,-20.82839 5.35723,-6.31367 26.39459,-10.4142 26.39459,-10.4142 0,0 -7.14321,4.45214 -8.97775,7.18221 -1.83454,2.73007 -2.33422,7.90042 -2.33422,7.90042 0,0 -8.51089,3.14598 -11.85063,5.92532 -3.33974,2.77934 -7.72087,10.23464 -7.72087,10.23464 z"
       style="fill:#ffffff;stroke:none" />
    <path
       sodipodi:nodetypes="czczczczczczczcszc"
       inkscape:connector-curvature="0"
       id="path3773"
       d="m 365.94405,329.5226 c 0,0 7.55671,4.87404 14.92022,7.30102 7.36351,2.42698 15.96393,4.63366 15.96393,4.63366 0,0 5.40959,0.74302 10.335,-0.7029 4.92541,-1.44592 10.32849,-3.233 10.32849,-3.233 0,0 -11.26345,-0.95546 -15.71445,-1.42997 -4.451,-0.47452 -10.49923,-2.93832 -10.49923,-2.93832 0,0 8.56604,0.45291 14.15615,-2.38022 5.59011,-2.83313 11.8036,-6.83671 11.8036,-6.83671 0,0 -7.66233,1.71814 -10.37864,1.82386 -2.71631,0.10572 -6.0152,0.0742 -6.0152,0.0742 0,0 11.32225,-4.95548 17.65354,-10.31459 6.3313,-5.35912 11.43676,-16.46856 11.43676,-16.46856 0,0 -16.51584,4.52058 -25.20924,5.00973 -8.6934,0.48915 -18.59355,-3.48616 -18.59355,-3.48616 0,0 -2.04402,3.86762 -4.71161,8.90583 -1.12543,2.12557 -2.32744,3.58338 -4.14384,7.49256 -1.81639,3.90918 -11.33193,12.54954 -11.33193,12.54954 z"
       style="fill:#0b2228;stroke:none" />
    <path
       sodipodi:nodetypes="cccc"
       inkscape:connector-curvature="0"
       id="path3775"
       d="m 465.75881,180.9289 15.12419,-1.55174 -5.60184,-7.08185 z"
       style="fill:#394050;stroke:none" />
    <path
       sodipodi:nodetypes="czczc"
       inkscape:connector-curvature="0"
       id="path3777"
       d="m 333.97498,265.81131 c 0,0 6.38534,11.99395 14.00529,14.36441 7.61995,2.37046 27.29238,-5.38665 27.29238,-5.38665 0,0 -14.15581,-8.50771 -21.36706,-9.87553 -7.21125,-1.36782 -19.93061,0.89777 -19.93061,0.89777 z"
       style="fill:#216778;stroke:none" />
  </g>
</svg>
