<?xml version="1.0" encoding="UTF-8" standalone="no"?>
<svg
   xmlns:dc="http://purl.org/dc/elements/1.1/"
   xmlns:cc="http://creativecommons.org/ns#"
   xmlns:rdf="http://www.w3.org/1999/02/22-rdf-syntax-ns#"
   xmlns:svg="http://www.w3.org/2000/svg"
   xmlns="http://www.w3.org/2000/svg"
   xmlns:sodipodi="http://sodipodi.sourceforge.net/DTD/sodipodi-0.dtd"
   xmlns:inkscape="http://www.inkscape.org/namespaces/inkscape"
   height="500"
   id="Layer_1"
   version="1.1"
   viewBox="0 0 500 500"
   width="500"
   xml:space="preserve"
   inkscape:version="0.48.5 r10040"
   sodipodi:docname="audacity.svg"><metadata
     id="metadata52"><rdf:RDF><cc:Work
         rdf:about=""><dc:format>image/svg+xml</dc:format><dc:type
           rdf:resource="http://purl.org/dc/dcmitype/StillImage" /><dc:title /></cc:Work></rdf:RDF></metadata><defs
     id="defs50" /><sodipodi:namedview
     pagecolor="#ffffff"
     bordercolor="#666666"
     borderopacity="1"
     objecttolerance="10"
     gridtolerance="10"
     guidetolerance="10"
     inkscape:pageopacity="0"
     inkscape:pageshadow="2"
     inkscape:window-width="1366"
     inkscape:window-height="716"
     id="namedview48"
     showgrid="false"
     inkscape:zoom="0.70710678"
     inkscape:cx="313.22811"
     inkscape:cy="248.30924"
     inkscape:window-x="0"
     inkscape:window-y="0"
     inkscape:window-maximized="1"
     inkscape:current-layer="Layer_1" /><path
     style="fill:#ffcc00;stroke:none"
     d="m 171.44981,260.80135 c 9.60221,-33.73142 22.58591,-64.1989 58.00338,-35.53829 0,0 9.34974,-31.07765 33.80623,-30.39624 24.45648,0.68143 29.69292,43.05746 29.69292,43.05746 0,0 5.42392,-15.62443 20.65063,-16.02295 15.2267,-0.39852 28.33458,23.05186 28.33458,23.05186 L 341.4573,371.2582 c 0,0 -17.71218,67.27953 -37.45928,69.15559 -19.7471,1.87606 -32.17656,-22.09137 -32.17656,-22.09137 0,0 -5.9068,57.47563 -25.93334,56.66917 -20.02655,-0.80646 -32.17656,-48.50497 -32.17656,-48.50497 0,0 -7.08446,29.85793 -22.09137,30.25557 -15.00692,0.39765 -20.17038,-42.26175 -20.17038,-42.26175 z"
     id="path2999"
     inkscape:connector-curvature="0"
     sodipodi:nodetypes="cczczcczczczcc" /><path
     style="fill:#f03916;fill-opacity:1;stroke:none"
     d="m 229.82339,397.44283 c -7.99704,-34.02431 -15.341,-64.34114 -16.32007,-67.37068 -2.0829,-6.44545 -5.05912,-7.28988 -6.13072,-1.73947 -0.8375,4.33797 -13.43068,101.45449 -13.49591,104.07827 -0.0966,3.87911 -2.55872,-2.67811 -12.62805,-33.62975 l -10.37469,-31.89024 0.091,-27.83154 0.091,-27.83153 6.31693,20.67168 c 3.47433,11.3694 6.92856,21.70747 7.67605,22.97346 2.47409,4.19035 4.36518,1.52014 5.92537,-8.3668 1.60882,-10.19554 9.97947,-88.85628 11.4359,-107.4663 0.46173,-5.8997 1.22696,-10.72675 1.70051,-10.72675 0.47347,0 4.45477,15.26387 8.84728,33.91968 9.35132,39.71706 22.94577,92.18257 24.63922,95.09097 1.60959,2.76427 3.45607,2.54832 4.95812,-0.57982 1.07461,-2.23794 14.33331,-96.18909 19.5156,-138.28782 l 1.71306,-13.91574 1.61911,6.37805 c 0.89057,3.50795 6.15006,25.94709 11.6878,49.86478 15.38788,66.46069 16.58993,70.73842 19.87823,70.73842 0.92268,0 1.98025,-0.91324 2.35019,-2.02937 1.04742,-3.16065 4.1726,-25.68701 8.48643,-61.17136 2.17102,-17.85854 4.35906,-33.41877 4.86228,-34.57832 0.61589,-1.41907 3.31135,5.28399 8.24579,20.50563 l 7.33085,22.61387 -0.0777,26.46004 -0.078,26.46004 -3.59763,-11.3912 c -3.69837,-11.71023 -5.56993,-14.87053 -7.64142,-12.90339 -1.20667,1.14583 -4.60351,23.1767 -12.23915,79.37779 -4.80565,35.37164 -5.86524,41.83154 -6.56233,40.00779 -0.24348,-0.63779 -5.61431,-26.46892 -11.93453,-57.40247 -14.02575,-68.64797 -13.97381,-68.42681 -16.26022,-69.22206 -3.88747,-1.35218 -2.98553,-6.60948 -14.46149,84.29748 -5.03225,39.86283 -9.5723,73.44111 -10.0891,74.61843 -0.59052,1.34531 -6.34113,-20.84128 -15.47955,-59.72177 z"
     id="path3380-3"
     inkscape:connector-curvature="0" /><g
     id="g18"
     transform="matrix(3.6420732,0,0,3.6420732,20.80247,255.53564)" /><g
     id="g20"
     transform="matrix(3.6420732,0,0,3.6420732,20.80247,255.53564)" /><g
     id="g22"
     transform="matrix(3.6420732,0,0,3.6420732,20.80247,255.53564)" /><g
     id="g24"
     transform="matrix(3.6420732,0,0,3.6420732,20.80247,255.53564)" /><g
     id="g26"
     transform="matrix(3.6420732,0,0,3.6420732,20.80247,255.53564)" /><g
     id="g28"
     transform="matrix(3.6420732,0,0,3.6420732,20.80247,255.53564)" /><g
     id="g30"
     transform="matrix(3.6420732,0,0,3.6420732,20.80247,255.53564)" /><g
     id="g32"
     transform="matrix(3.6420732,0,0,3.6420732,20.80247,255.53564)" /><g
     id="g34"
     transform="matrix(3.6420732,0,0,3.6420732,20.80247,255.53564)" /><g
     id="g36"
     transform="matrix(3.6420732,0,0,3.6420732,20.80247,255.53564)" /><g
     id="g38"
     transform="matrix(3.6420732,0,0,3.6420732,20.80247,255.53564)" /><g
     id="g40"
     transform="matrix(3.6420732,0,0,3.6420732,20.80247,255.53564)" /><g
     id="g42"
     transform="matrix(3.6420732,0,0,3.6420732,20.80247,255.53564)" /><g
     id="g44"
     transform="matrix(3.6420732,0,0,3.6420732,20.80247,255.53564)" /><g
     id="g46"
     transform="matrix(3.6420732,0,0,3.6420732,20.80247,255.53564)" /><path
     style="fill:#00bbf2;fill-opacity:1;stroke-width:3.64207315"
     clip-path="none"
     d="m 254.84777,25.000929 c -20.82144,-0.06577 -41.55991,3.344899 -62.41401,10.228114 -62.59262,20.65951 -108.428386,71.127447 -125.654735,138.362997 -6.368212,24.85748 -6.518459,27.19808 -6.40197,99.25433 0.0976,60.39934 0.242076,65.59167 2.022375,74.34338 6.333999,31.1362 26.732858,55.55795 55.70459,67.59302 3.13739,1.30328 6.36349,2.60569 9.6952,3.6075 1.26799,0.38131 2.74709,0.60897 4.02428,1.12733 2.7987,1.13582 5.20395,2.72191 6.3678,3.7305 8.34276,7.22989 22.47528,-5.6345 25.32428,-13.57987 0.0871,-0.24312 0.17665,-3.15494 0.25956,-6.49761 -0.87658,-4.83292 -1.39193,-9.80826 -1.36647,-14.90144 l 0.62881,-125.75811 c 0.0315,-6.0194 0.66434,-11.87908 1.87891,-17.52509 l -1.91309,-1.79692 c -3.96412,-3.72365 -0.0175,-11.6736 -8.48948,-11.71289 -7.00503,-0.0315 -8.70679,0.33513 -14.16355,3.04043 -3.41049,1.69067 -9.36955,3.98565 -13.2412,5.10379 -10.56864,3.05217 -23.19675,9.82172 -32.727223,17.53877 -4.684846,3.7934 -8.759434,6.89392 -9.052932,6.89392 -0.292799,0 -0.417404,-10.21024 -0.273208,-22.69728 l 0.259565,-22.70406 2.931134,-0.32113 c 1.611442,-0.17561 2.878906,-0.84104 3.231699,-1.2025 0.352757,-0.36148 1.70012,-5.48654 2.575822,-11.6629 C 105.75387,122.94559 154.27689,71.306479 231.32377,59.374745 c 14.48454,-2.243145 41.48532,-2.243005 54.20145,0 48.64451,8.580435 91.3591,41.104965 114.26513,87.010635 9.91726,19.87508 14.79266,36.71617 17.37482,60.05683 0.85845,7.75983 1.49981,9.78329 2.46646,10.63807 0.38008,0.33618 0.62922,0.73476 1.2845,0.81987 4.54985,0.59085 4.75919,2.15964 4.7417,23.64015 -0.007,11.04165 -0.41405,20.69396 -0.89506,21.45373 -0.68949,1.0891 -2.11633,0.25747 -6.75042,-3.93546 -8.60342,-7.7847 -20.94895,-14.76436 -32.61104,-18.43382 -5.51385,-1.73496 -12.35079,-4.26094 -15.18846,-5.61625 -10.01305,-4.7824 -17.91095,-7.04678 -24.0133,-1.34704 l -3.01995,2.82178 0.007,0.45777 c 1.02833,5.21647 1.57828,10.61117 1.57828,16.13814 l 0,145.87951 c 0,4.60649 -0.39362,9.11794 -1.11368,13.51449 0.16896,4.78647 0.45081,7.29527 0.90186,8.17156 0.69118,1.34265 3.38481,3.49369 5.9852,4.78266 3.8364,1.90169 -1.31658,2.96917 5.14906,2.95867 8.65154,-0.014 11.44731,-1.93796 15.98097,-5.59575 0.70146,-0.65562 4.72541,-2.27245 7.13303,-3.35472 2.20165,-0.98968 4.9373,-1.43024 7.57032,-2.32301 14.59848,-4.94997 24.26335,-11.06765 35.88377,-22.72456 11.53746,-11.57362 17.72887,-21.29507 22.86124,-35.89063 7.56921,-25.98869 3.62122,-54.78282 3.78522,-81.74971 0.30994,-78.68316 0.23053,-80.24776 -5.60256,-104.13267 -8.7105,-35.6664 -26.12323,-66.45813 -51.93995,-91.861646 C 370.40004,60.129514 345.33068,44.75885 317.75388,35.625318 296.57051,28.609278 275.66935,25.066695 254.84794,25.000929 z"
     id="path2992"
     inkscape:connector-curvature="0"
     sodipodi:nodetypes="cscsssccsccssccsssssccccssssssccsssscccssccsccsssccssssc" /><path
     style="fill:#164450;fill-opacity:1;stroke:#164450;stroke-width:7.07419348;stroke-miterlimit:4;stroke-opacity:1;stroke-dasharray:none"
     d="m 424.02042,220.59003 -0.29077,19.63011 -0.31142,19.39748 5.22645,5.36901 c 5.90298,6.06278 12.29827,14.64838 14.96645,20.76881 0.98789,2.2661 1.23967,3.77302 2.29993,4.25657 0.0105,0.004 0.0212,0.008 0.0281,0.008 0.002,0 0.003,-3.3e-4 0.004,-0.002 0.25502,-0.6389 0.33611,-15.72731 0.18009,-34.71287 l 0.002,0 -0.28515,-34.71473 -10.90874,0 -10.91062,0 z m -360.160983,0.41271 -0.187597,11.4659 -0.08629,23.27511 c -0.15019,19.10722 0.08856,34.51209 0.178217,34.73912 0.80104,2.02783 1.256121,-1.91946 2.239903,-4.26594 2.567815,-6.12501 8.605573,-14.83721 14.403663,-20.78382 l 5.01258,-5.14202 -0.281395,-19.64324 -0.27952,-19.64511 -10.499778,0 -10.499779,0 z m 285.159883,10.36847 c -8.0378,0.19985 -16.06907,2.62553 -18.29254,6.77786 -0.84948,1.58524 -0.84101,16.98718 0.0319,61.34407 0.64102,32.57458 1.2482,73.48305 1.34882,90.90929 l 0.18384,31.68505 2.60572,1.94538 c 1.67495,1.24955 4.11741,2.32751 5.9637,2.79519 l 0.27577,0.0525 c 0.46097,0.11683 0.82571,0.16464 1.58331,0.25138 2.27687,0.26059 5.63643,0.3724 8.54314,0.25137 8.50591,-0.35409 14.20899,-2.80381 15.36979,-6.57901 0.022,-0.072 0.0444,-0.1449 0.062,-0.21761 0.003,-0.007 0.005,-0.016 0.008,-0.03 0.0115,-0.0626 0.0252,-0.16551 0.0356,-0.30578 0.36772,-4.3167 0.70879,-44.89342 0.77103,-92.70834 l 0.11818,-90.34087 -2.57007,-2.02041 c -3.52967,-2.77494 -9.78601,-3.96553 -16.03763,-3.81008 z m -188.22687,1.14059 c -9.17619,-0.11687 -19.12508,2.28648 -20.18164,5.94305 -0.97085,3.36071 -1.08935,68.93054 -0.22324,124.1195 1.01755,64.83882 0.51053,60.69569 7.66707,62.69477 1.65771,0.46306 6.68336,0.88024 11.16762,0.92673 8.90347,0.0923 15.98315,-1.86113 17.72037,-4.88689 0.59891,-1.04302 1.02401,-14.56654 1.03554,-32.57239 0.007,-16.93436 0.4943,-57.06563 1.08243,-89.17965 1.20804,-65.95425 1.68831,-61.56386 -7.1418,-65.20481 -2.94304,-1.21349 -6.95537,-1.7872 -11.12635,-1.84031 z"
     id="path2991"
     inkscape:connector-curvature="0" /></svg>