<?xml version="1.0" encoding="UTF-8" standalone="no"?>
<!-- Created with Inkscape (http://www.inkscape.org/) -->

<svg
   xmlns:dc="http://purl.org/dc/elements/1.1/"
   xmlns:cc="http://creativecommons.org/ns#"
   xmlns:rdf="http://www.w3.org/1999/02/22-rdf-syntax-ns#"
   xmlns:svg="http://www.w3.org/2000/svg"
   xmlns="http://www.w3.org/2000/svg"
   xmlns:sodipodi="http://sodipodi.sourceforge.net/DTD/sodipodi-0.dtd"
   xmlns:inkscape="http://www.inkscape.org/namespaces/inkscape"
   id="svg2"
   version="1.1"
   inkscape:version="0.48.5 r10040"
   width="512"
   height="512"
   sodipodi:docname="Azureus.svg">
  <metadata
     id="metadata8">
    <rdf:RDF>
      <cc:Work
         rdf:about="">
        <dc:format>image/svg+xml</dc:format>
        <dc:type
           rdf:resource="http://purl.org/dc/dcmitype/StillImage" />
        <dc:title />
      </cc:Work>
    </rdf:RDF>
  </metadata>
  <defs
     id="defs6" />
  <sodipodi:namedview
     pagecolor="#ffffff"
     bordercolor="#666666"
     borderopacity="1"
     objecttolerance="10"
     gridtolerance="10"
     guidetolerance="10"
     inkscape:pageopacity="0"
     inkscape:pageshadow="2"
     inkscape:window-width="1366"
     inkscape:window-height="716"
     id="namedview4"
     showgrid="false"
     inkscape:zoom="0.4609375"
     inkscape:cx="1149.0958"
     inkscape:cy="443.91434"
     inkscape:window-x="0"
     inkscape:window-y="0"
     inkscape:window-maximized="1"
     inkscape:current-layer="svg2" />
  <path
     style="fill:#00bbf2;fill-opacity:1"
     d="m 284.69197,486.69165 c -1.44571,-0.2688 -9.55737,-3.73372 -18.02592,-7.69984 -21.99306,-10.30013 -30.80511,-12.31656 -53.86868,-12.32657 -34.89795,-0.0152 -41.76125,-2.94792 -57.65785,-24.63796 -5.2846,-7.21053 -5.91263,-7.70141 -12.86858,-10.05825 -12.73285,-4.31422 -23.9955,-13.62607 -29.59405,-24.46807 -2.81848,-5.45822 -3.3261,-9.38191 -2.14593,-16.5874 0.73756,-4.50319 0.62726,-4.91274 -1.32319,-4.91274 -4.66912,0 -13.855616,-4.4011 -18.545744,-8.88496 -5.372495,-5.13622 -9.978286,-13.95936 -10.7352,-20.56504 l -0.496253,-4.3309 -10.660408,0.45245 c -15.85911,0.6731 -25.838573,-2.18982 -34.545272,-9.91038 -6.101169,-5.41013 -9.211972,-12.48799 -9.224759,-20.98862 -0.0088,-5.86562 0.408881,-7.39363 2.968705,-10.85973 1.63844,-2.2185 3.849199,-4.73178 4.912799,-5.58504 3.047738,-2.44502 9.703516,-13.10923 12.077968,-19.35192 1.190549,-3.13007 3.359368,-11.34273 4.819598,-18.25035 1.460229,-6.90761 3.865333,-15.03664 5.344693,-18.06447 4.763577,-9.74979 16.623759,-15.84104 30.979493,-15.91073 10.817347,-0.0526 17.2087,2.16545 23.01767,7.98773 2.5445,2.55032 5.23163,4.63696 5.97138,4.63696 1.0395,0 6.229,-8.52391 9.59443,-15.75911 0.19504,-0.41928 -1.26403,-1.70177 -3.24238,-2.84996 -4.45732,-2.58694 -6.03203,-5.85035 -6.03203,-12.50059 0,-12.09267 6.48974,-17.83394 29.80995,-26.37192 7.43942,-2.72372 8.75704,-3.64092 13.32585,-9.27612 8.55921,-10.55699 19.0759,-27.78408 32.80288,-53.7335 7.22189,-13.65222 15.56479,-29.057367 18.53978,-34.233662 2.97498,-5.176291 7.52734,-14.950041 10.11635,-21.719444 6.47683,-16.934808 8.21632,-18.426995 27.5665,-23.64717 32.79883,-8.848275 42.22042,-10.327897 55.47984,-8.712889 22.7303,2.768571 35.03756,11.592511 45.27828,32.463166 8.57486,17.475632 10.32257,28.100742 7.31531,44.473149 -0.83587,4.55074 -1.53729,14.5572 -1.55871,22.23657 -0.0426,15.24774 -1.6819,25.16373 -5.3199,32.17839 -1.27582,2.45998 -8.05329,10.08024 -15.06106,16.93393 -7.00776,6.85368 -14.1111,14.43735 -15.78518,16.8526 l -3.04381,4.39137 1.85278,6.73295 c 2.52945,9.19199 8.00689,20.11487 12.58838,25.10325 2.09177,2.27753 6.8609,6.34919 10.59806,9.04812 4.88723,3.52949 8.57262,7.46037 13.12716,14.00162 8.81772,12.66401 16.25834,17.42226 28.60734,18.29425 6.92054,0.48866 7.13632,0.42702 10.66873,-3.04772 3.84257,-3.77983 5.08523,-7.09343 7.11387,-18.96943 1.19473,-6.99416 1.13069,-7.7424 -1.008,-11.7786 -4.06793,-7.67706 -2.83741,-10.58534 5.88605,-13.91132 8.94849,-3.41175 19.16723,-1.44762 19.16723,3.68412 0,1.19673 -2.8443,6.02676 -6.32067,10.73342 -7.68791,10.40867 -12.60304,20.32156 -12.60416,25.42022 -0.002,7.25474 8.79198,13.4275 16.51973,11.59625 6.21438,-1.47263 13.59531,-6.07851 21.27989,-13.27917 8.98787,-8.42187 13.45888,-10.4366 21.1676,-9.53853 7.53385,0.87771 11.47747,3.21151 11.47747,6.79229 0,7.17765 -7.8476,11.64533 -24.7085,14.06672 -14.98301,2.15171 -20.77763,4.79207 -28.5641,13.01545 -11.92155,12.59053 -14.48871,14.72246 -21.83867,18.13629 -10.84238,5.03592 -24.14582,7.06822 -39.49412,6.03328 -17.60415,-1.18704 -23.97049,-0.96949 -31.02959,1.06038 -8.79624,2.5294 -19.82481,2.66316 -22.2674,0.27005 -2.49479,-2.44421 -1.06177,-4.68807 4.99802,-7.82611 4.33418,-2.24444 5.51108,-2.37498 16.60508,-1.84199 13.98612,0.67195 18.54193,-0.52582 19.73138,-5.18759 1.738,-6.8117 -12.12854,-24.78035 -28.39225,-36.79148 -11.20195,-8.27289 -14.81627,-11.68582 -18.73282,-17.68912 -2.03116,-3.11333 -3.61506,-4.60849 -4.23548,-3.9982 -0.54507,0.53617 -1.90479,6.96279 -3.02159,14.28138 -3.67464,24.08057 -9.76856,41.20326 -20.04008,56.30865 -10.09891,14.85152 -20.36751,23.32547 -44.35953,36.60674 -2.8044,1.55243 -4.69697,3.16735 -4.2057,3.58871 0.49125,0.42136 4.20519,1.82676 8.25318,3.12312 7.66203,2.45375 34.36704,15.10038 42.58273,20.16581 16.90137,10.42064 31.87747,27.98684 34.18771,40.10046 0.93432,4.89902 -0.98871,10.49067 -4.55418,13.24231 l -2.82217,2.17801 3.72523,-0.49021 c 6.38237,-0.83988 19.06729,-6.73392 27.17355,-12.62618 6.61462,-4.80802 8.44818,-5.64596 12.35426,-5.64596 5.33938,0 8.79252,2.65964 8.79252,6.77207 0,4.08952 -4.43405,7.28773 -12.92254,9.32082 -4.16914,0.99855 -11.13502,3.30631 -15.47975,5.12834 -9.05021,3.79538 -21.82849,6.69462 -45.45141,10.31238 -17.66815,2.7058 -22.87745,4.48071 -22.87745,7.7948 0,3.20066 3.26969,5.65085 11.67977,8.75243 22.40179,8.26161 29.32583,12.04134 29.32583,16.00853 0,1.01746 -0.70997,2.42955 -1.57772,3.13794 -1.72187,1.40571 -8.965,2.17809 -13.14224,1.40147 z"
     id="path2982"
     inkscape:connector-curvature="0" />
</svg>
