<?xml version="1.0" encoding="UTF-8" standalone="no"?>
<!-- Created with Inkscape (http://www.inkscape.org/) -->

<svg
   xmlns:dc="http://purl.org/dc/elements/1.1/"
   xmlns:cc="http://creativecommons.org/ns#"
   xmlns:rdf="http://www.w3.org/1999/02/22-rdf-syntax-ns#"
   xmlns:svg="http://www.w3.org/2000/svg"
   xmlns="http://www.w3.org/2000/svg"
   xmlns:sodipodi="http://sodipodi.sourceforge.net/DTD/sodipodi-0.dtd"
   xmlns:inkscape="http://www.inkscape.org/namespaces/inkscape"
   width="500"
   height="500"
   id="svg5453"
   version="1.1"
   inkscape:version="0.91 r13725"
   sodipodi:docname="bluegriffon.svg">
  <defs
     id="defs5455">
    <linearGradient
       id="linearGradient4085">
      <stop
         style="stop-color:#f1c7c7;stop-opacity:1"
         offset="0"
         id="stop4087" />
      <stop
         style="stop-color:#fef6f6;stop-opacity:1"
         offset="1"
         id="stop4089" />
    </linearGradient>
  </defs>
  <sodipodi:namedview
     id="base"
     pagecolor="#ffffff"
     bordercolor="#666666"
     borderopacity="1.0"
     inkscape:pageopacity="0"
     inkscape:pageshadow="2"
     inkscape:zoom="1.016466"
     inkscape:cx="296.16854"
     inkscape:cy="243.90958"
     inkscape:document-units="px"
     inkscape:current-layer="layer1"
     showgrid="false"
     fit-margin-top="0"
     fit-margin-left="0"
     fit-margin-right="0"
     fit-margin-bottom="0"
     inkscape:window-width="1366"
     inkscape:window-height="715"
     inkscape:window-x="0"
     inkscape:window-y="24"
     inkscape:window-maximized="1"
     inkscape:showpageshadow="false"
     borderlayer="true"
     showguides="false"
     inkscape:object-nodes="true"
     inkscape:snap-global="false">
    <inkscape:grid
       type="xygrid"
       id="grid3358"
       empspacing="5"
       visible="true"
       enabled="true"
       snapvisiblegridlinesonly="true" />
  </sodipodi:namedview>
  <metadata
     id="metadata5458">
    <rdf:RDF>
      <cc:Work
         rdf:about="">
        <dc:format>image/svg+xml</dc:format>
        <dc:type
           rdf:resource="http://purl.org/dc/dcmitype/StillImage" />
        <dc:title />
      </cc:Work>
    </rdf:RDF>
  </metadata>
  <g
     inkscape:label="Capa 1"
     inkscape:groupmode="layer"
     id="layer1"
     transform="translate(-384.57143,-47.798)">
    <g
       id="g4158">
      <path
         sodipodi:nodetypes="zzczczccczccczzzczcczczczzczcazcczccczzczczzccczcczcczccczz"
         inkscape:connector-curvature="0"
         id="path2998"
         d="m 575.36532,418.87337 c -2.44186,-28.69947 10.7637,-68.73257 39.327,-104.57454 28.56324,-35.84197 80.44411,-23.32746 80.44411,-23.32746 0,0 6.33374,-27.37796 4.42858,-48.01041 -1.90517,-20.63245 -20.74982,-73.22388 -20.74982,-73.22388 0,0 12.51997,-3.94072 22.87091,1.84444 10.351,5.78515 20.24262,25.17647 20.24262,25.17647 l 2.72056,-1.10666 -8.64547,-24.66719 c 0,0 6.8724,-3.82968 16.04173,-2.08674 9.16939,1.74295 12.39,18.65019 12.39,18.65019 l 2.21719,26.86671 2.08673,11.47704 c 0,0 6.97262,-32.54826 6.39059,-46.56027 -0.58203,-14.01201 -1.94828,-24.03843 -8.08609,-36.25701 -6.13781,-12.21857 -17.73134,-25.91745 -6.56579,-38.14619 11.16554,-12.22874 27.9548,7.6277 27.9548,7.6277 0,0 15.506,18.79858 17.2156,40.16964 1.70955,21.37106 -10.17287,73.81823 -10.17287,73.81823 l -6.78188,31.8227 c 0,0 14.31993,-38.57965 19.04149,-61.8195 4.7215,-23.23986 0.78252,-52.95089 0.78252,-52.95089 0,0 -5.11189,-23.08315 6.52104,-26.86671 11.63288,-3.78357 21.12817,22.4324 21.12817,22.4324 0,0 7.98873,23.95142 4.43431,45.64731 -3.55437,21.6959 -21.9905,57.31943 -35.21362,78.51339 -13.22317,21.19396 -22.95411,49.82079 -22.95411,49.82079 0,0 30.21027,-47.33452 41.99555,-70.94898 11.78523,-23.61445 28.95342,-70.16645 28.95342,-70.16645 0,0 12.81072,19.35772 13.57691,30.4421 1.23135,17.81435 -5.61835,35.36163 -14.88112,51.46224 -9.26271,16.1006 -24.51911,44.60394 -24.51911,44.60394 l 47.73407,-70.94897 c 0,0 10.74684,27.98866 -1.82589,58.16772 -12.57279,30.17907 -51.6467,51.38585 -51.6467,51.38585 l 2.08674,4.17346 48.77743,-27.64923 c 0,0 -2.54049,31.00511 -18.37737,45.21243 -15.83695,14.20732 -55.23692,22.67022 -74.22151,25.21486 -18.98459,2.54464 -33.90941,10.69452 -33.90941,10.69452 0,0 16.7987,2.4001 33.38773,0 16.58908,-2.40011 64.42793,-19.04146 64.42793,-19.04146 0,0 -5.86339,20.95808 -19.90806,30.29698 -14.04462,9.33889 -39.96169,16.64239 -62.2571,17.0813 -22.29541,0.43891 -34.43115,-7.99116 -34.43115,-7.99116 l -2.60841,10.69451 79.03511,-0.52168 c 0,0 -14.89358,13.22433 -32.97411,17.44475 -18.08058,4.22043 -73.71022,-2.83761 -73.71022,-2.83761 l 47.99492,19.82398 c 0,0 -10.28424,12.96985 -28.17095,11.99872 -17.88666,-0.97113 -46.95149,-21.91072 -46.95149,-21.91072 l 17.99807,27.3884 c 0,0 -17.9302,2.51188 -26.08416,-2.86926 -8.15402,-5.38115 -18.78065,-22.4324 -18.78065,-22.4324 l -2.60842,1.04337 9.12946,24.25829 c 0,0 -21.55621,1.94384 -32.88906,-7.58474 -11.33285,-9.52857 -18.9689,-22.05486 -21.41075,-50.75432 z"
         style="fill:#00bbf2;stroke:none;fill-opacity:1" />
      <path
         sodipodi:nodetypes="cczczcczcczccczccccczczccc"
         inkscape:connector-curvature="0"
         id="path3000"
         d="m 671.2809,284.40557 -7.30357,-16.43303 c 0,0 -9.38759,10.92263 -19.56312,13.56377 -10.17553,2.64114 -20.34564,-5.99936 -20.34564,-5.99936 0,0 0.0467,13.40127 -14.60719,20.34566 -14.65385,6.94439 -39.64792,7.82526 -39.64792,7.82526 l 20.34564,-12.78125 c 0,0 25.90361,-10.62887 -1.56505,-32.08355 -27.46865,-21.45468 -41.9955,4.43431 -41.9955,4.43431 l -5.21683,0.78253 c 0,0 -7.70265,-25.31317 5.99936,-33.6486 13.70195,-8.33543 25.56248,6.52105 25.56248,6.52105 l -4.956,-17.4764 45.12566,-5.21684 c 0,0 -6.19546,-7.90317 4.4343,-18.78061 10.62971,-10.87743 32.34437,-7.56441 32.34437,-7.56441 l 0.78252,5.21684 -19.82396,16.43303 43.29971,-21.38903 -7.82525,31.30102 c 0,0 -5.7224,13.1636 -10.15973,17.29196 -4.43733,4.12836 -14.62023,7.22717 -14.62023,7.22717 0,0 2.32515,8.73553 14.08545,10.52318 11.7603,1.78765 23.47575,12.4309 23.47575,12.4309 l 6.52109,15.65051 z"
         style="fill:#00bbf2;stroke:none;fill-opacity:1" />
      <path
         sodipodi:nodetypes="ccczc"
         inkscape:connector-curvature="0"
         id="path3770"
         d="m 531.10889,299.15729 68.6014,-18.78062 -1.30421,-11.47703 c 0,0 -19.04558,0.41753 -38.60462,9.12946 -19.55898,8.71192 -28.69257,21.12819 -28.69257,21.12819 z"
         style="fill:#ff6600;stroke:none" />
      <path
         sodipodi:nodetypes="czczc"
         inkscape:connector-curvature="0"
         id="path3772"
         d="m 582.75553,234.3381 c 0,0 3.13174,4.74745 9.2599,5.21683 6.12816,0.46939 12.5204,-3.52136 12.5204,-3.52136 0,0 -3.1195,-5.88102 -10.04238,-6.26021 -6.92293,-0.37918 -11.73792,4.56474 -11.73792,4.56474 z"
         style="fill:#ff6600;stroke:none" />
      <path
         sodipodi:nodetypes="zzzczz"
         inkscape:connector-curvature="0"
         id="path3774"
         d="m 559.47227,436.07815 c 2.91847,0.0147 9.69187,-5.72789 10.60547,-14.66323 0.91367,-8.93533 -8.63678,-25.44945 -10.23656,-33.01529 -1.59978,-7.56584 -0.73777,-14.38656 -0.73777,-14.38656 0,0 -15.19361,18.1535 -13.27991,39.8397 1.91371,21.68619 10.7303,22.2107 13.64877,22.22538 z"
         style="fill:#b3b3b3;stroke:none;fill-opacity:1" />
      <path
         sodipodi:nodetypes="cczczzczzzzczczczzzzzzcc"
         inkscape:connector-curvature="0"
         id="path3776"
         d="m 473.85651,335.92567 11.80432,-62.34173 c 0,0 -17.33613,2.7255 -24.34646,13.64878 -7.01032,10.92328 -4.05776,49.79961 -4.05776,49.79961 0,0 -11.40067,-27.9689 -21.02652,-29.14199 -9.62579,-1.1731 -16.24106,1.55895 -15.49321,14.38655 0.74789,12.8276 15.49321,9.59104 15.49321,9.59104 0,0 8.32679,19.69248 16.23099,30.98642 7.90421,11.29395 12.16931,41.82905 11.89659,47.95519 -0.27272,6.12614 -5.11545,10.08029 -4.61105,15.95432 0.50434,5.87403 4.90068,12.28958 8.85324,16.41544 3.95255,4.12585 13.00321,7.83883 13.00321,7.83883 0,0 2.7641,-15.43167 2.39779,-25.08427 -0.36631,-9.65259 -5.71773,-32.09308 -5.71773,-32.09308 0,0 17.89101,11.67939 25.45314,20.65762 7.56212,8.97823 24.34645,21.0265 24.34645,21.0265 0,0 8.2299,4.68614 12.54214,0 4.31219,-4.68616 2.21617,-9.58653 -3.31999,-18.81318 -5.53616,-9.22666 -19.82232,-19.44616 -35.78191,-28.03535 -15.95965,-8.58918 -20.28122,-16.08901 -21.02652,-29.41866 -0.7453,-13.32963 12.45406,-14.60024 21.02652,-18.9054 8.5724,-4.30517 20.97412,-6.17172 19.64314,-15.95433 -1.33094,-9.78261 -25.54535,-10.97435 -25.54535,-10.97435 z"
         style="fill:#c87137;stroke:none;fill-opacity:1" />
      <path
         sodipodi:nodetypes="czczc"
         inkscape:connector-curvature="0"
         id="path3778"
         d="m 464.03128,450.45935 c 0,0 -9.25168,-1.25978 -12.81878,-4.88774 -3.5671,-3.62796 -3.87328,-11.89657 -3.87328,-11.89657 0,0 7.11675,1.85935 10.14435,4.70329 3.0276,2.84394 6.54771,12.08102 6.54771,12.08102 z"
         style="fill:#b3b3b3;stroke:none;fill-opacity:1" />
      <path
         sodipodi:nodetypes="czczc"
         inkscape:connector-curvature="0"
         id="path3778-3"
         d="m 442.43976,287.24888 c 0,0 0.87097,-9.29636 4.34623,-13.01237 3.47525,-3.71601 11.72382,-4.36846 11.72382,-4.36846 0,0 -1.55948,7.18842 -4.27406,10.33255 -2.71452,3.14413 -11.79599,7.04828 -11.79599,7.04828 z"
         style="fill:#b3b3b3;stroke:none;fill-opacity:1" />
      <path
         sodipodi:nodetypes="czczc"
         inkscape:connector-curvature="0"
         id="path3778-3-6"
         d="m 496.58144,289.59147 c 0,0 14.49148,0.40108 20.6495,5.6854 6.15801,5.28432 8.13169,18.72822 8.13169,18.72822 0,0 -11.30909,-1.76195 -16.493,-5.86296 -5.1839,-4.10091 -12.28819,-18.55066 -12.28819,-18.55066 z"
         style="fill:#b3b3b3;stroke:none;fill-opacity:1" />
      <path
         sodipodi:nodetypes="cczcc"
         inkscape:connector-curvature="0"
         id="path3816"
         d="m 415.68639,318.98126 2.34758,21.64988 c 0,0 -6.82717,-5.49434 -8.08609,-9.39031 -1.25898,-3.89597 1.04336,-12.12914 1.04336,-12.12914 z"
         style="fill:#b3b3b3;stroke:none;fill-opacity:1" />
    </g>
  </g>
</svg>
