<?xml version="1.0" encoding="UTF-8" standalone="no"?>
<!-- Generator: Adobe Illustrator 19.0.0, SVG Export Plug-In . SVG Version: 6.00 Build 0)  -->

<svg
   xmlns:dc="http://purl.org/dc/elements/1.1/"
   xmlns:cc="http://creativecommons.org/ns#"
   xmlns:rdf="http://www.w3.org/1999/02/22-rdf-syntax-ns#"
   xmlns:svg="http://www.w3.org/2000/svg"
   xmlns="http://www.w3.org/2000/svg"
   xmlns:sodipodi="http://sodipodi.sourceforge.net/DTD/sodipodi-0.dtd"
   xmlns:inkscape="http://www.inkscape.org/namespaces/inkscape"
   version="1.1"
   id="Layer_1"
   x="0px"
   y="0px"
   viewBox="0 0 500 500"
   xml:space="preserve"
   inkscape:version="0.91 r13725"
   width="100%"
   height="100%"
   sodipodi:docname="budgie.svg"><metadata
     id="metadata57"><rdf:RDF><cc:Work
         rdf:about=""><dc:format>image/svg+xml</dc:format><dc:type
           rdf:resource="http://purl.org/dc/dcmitype/StillImage" /></cc:Work></rdf:RDF></metadata><defs
     id="defs55" /><sodipodi:namedview
     pagecolor="#ffffff"
     bordercolor="#666666"
     borderopacity="1"
     objecttolerance="10"
     gridtolerance="10"
     guidetolerance="10"
     inkscape:pageopacity="0"
     inkscape:pageshadow="2"
     inkscape:window-width="1366"
     inkscape:window-height="715"
     id="namedview53"
     showgrid="false"
     inkscape:zoom="0.37165185"
     inkscape:cx="277.06296"
     inkscape:cy="-8.4076712"
     inkscape:window-x="0"
     inkscape:window-y="24"
     inkscape:window-maximized="1"
     inkscape:current-layer="Layer_1" /><g
     id="g23"
     transform="translate(0,39.767)" /><g
     id="g25"
     transform="translate(0,39.767)" /><g
     id="g27"
     transform="translate(0,39.767)" /><g
     id="g29"
     transform="translate(0,39.767)" /><g
     id="g31"
     transform="translate(0,39.767)" /><g
     id="g33"
     transform="translate(0,39.767)" /><g
     id="g35"
     transform="translate(0,39.767)" /><g
     id="g37"
     transform="translate(0,39.767)" /><g
     id="g39"
     transform="translate(0,39.767)" /><g
     id="g41"
     transform="translate(0,39.767)" /><g
     id="g43"
     transform="translate(0,39.767)" /><g
     id="g45"
     transform="translate(0,39.767)" /><g
     id="g47"
     transform="translate(0,39.767)" /><g
     id="g49"
     transform="translate(0,39.767)" /><g
     id="g51"
     transform="translate(0,39.767)" /><g
     id="g4156"><path
       transform="matrix(0.73249639,0.68077091,-0.68077091,0.73249639,0,0)"
       d="M 585.74152,13.644658 A 234.18796,234.18796 0 0 1 351.82843,247.83245 234.18796,234.18796 0 0 1 117.36625,14.194403 234.18796,234.18796 0 0 1 350.72894,-220.54185 a 234.18796,234.18796 0 0 1 235.01,233.087021"
       sodipodi:open="true"
       sodipodi:end="6.2784904"
       sodipodi:start="0"
       sodipodi:ry="234.18796"
       sodipodi:rx="234.18796"
       sodipodi:cy="13.644658"
       sodipodi:cx="351.55356"
       sodipodi:type="arc"
       id="path4218"
       style="opacity:1;fill:#394050;fill-opacity:1;stroke:none;stroke-width:1.5;stroke-linecap:round;stroke-miterlimit:4;stroke-dasharray:none;stroke-opacity:1" /><path
       sodipodi:nodetypes="czzzzzzzccczc"
       inkscape:connector-curvature="0"
       id="path4173"
       d="m 194.92915,358.53551 c 0,0 -3.01642,22.4954 11.95731,47.90339 14.97373,25.408 38.63164,37.12363 56.40305,41.81431 17.77141,4.69068 45.45975,4.91375 64.82139,-0.33633 19.36164,-5.25008 35.60108,-17.53933 47.51492,-29.93393 11.91384,-12.3946 17.01141,-23.71139 20.18018,-38.34234 3.16877,-14.63095 2.72934,-32.33674 -2.69069,-46.4144 -5.42003,-14.07766 -15.66721,-26.64872 -27.57957,-34.3063 -11.91236,-7.65758 -26.89798,-10.57477 -39.68769,-10.09009 -27.58974,2.7062 -44.36307,16.13249 -58.18617,39.68768 -7.38975,11.12674 -4.5051,30.42722 -32.62462,45.06906 -9.25517,3.72345 -17.38347,2.97647 -24.88888,0 -7.50541,-2.97647 -15.21923,-15.05105 -15.21923,-15.05105 z"
       style="fill:#ffffff;fill-rule:evenodd;stroke:none;stroke-width:1px;stroke-linecap:butt;stroke-linejoin:miter;stroke-opacity:1" /><path
       sodipodi:nodetypes="czzzzzzzccczc"
       inkscape:connector-curvature="0"
       id="path4173-3"
       d="m 373.21791,247.32501 c 0,0 20.93833,-8.75949 35.30313,-34.51658 14.3649,-25.75712 12.5261,-52.09285 7.5977,-69.79983 -4.9283,-17.70697 -18.72163,-41.71608 -33.03262,-55.774305 -14.31094,-14.058144 -33.12003,-21.86604 -49.83507,-25.887625 -16.71511,-4.021458 -29.05689,-2.704663 -43.28479,1.950861 -14.22781,4.6556 -29.28686,13.978328 -38.69886,25.766937 -9.41194,11.788692 -15.08541,26.982322 -15.67713,41.131302 -0.59173,14.14898 4.46008,28.55583 11.33868,39.34917 16.27166,22.4444 36.33171,30.13877 63.64333,30.17067 13.33563,0.75742 28.53584,-11.48119 55.37619,5.39151 7.88848,6.1069 11.34951,13.49936 12.57181,21.48037 1.2222,7.98103 -5.30237,20.73752 -5.30237,20.73752 z"
       style="fill:#ffffff;fill-rule:evenodd;stroke:none;stroke-width:1px;stroke-linecap:butt;stroke-linejoin:miter;stroke-opacity:1" /><path
       sodipodi:nodetypes="czzzzzzzccczc"
       inkscape:connector-curvature="0"
       id="path4173-3-6"
       d="m 190.71501,149.87292 c 0,0 -16.54688,-15.53522 -45.92461,-18.1283 -29.3778,-2.59317 -52.666193,9.84077 -66.816443,21.57093 -14.15027,11.73007 -30.43271,34.12596 -37.42053,52.93044 -6.98775,18.8044 -6.43322,39.16215 -3.27775,56.06211 3.15563,16.89997 9.39797,27.62781 19.4582,38.71379 10.06026,11.08585 24.72018,21.02442 39.32471,24.80129 14.604593,3.77676 30.790413,2.75047 43.947333,-2.48782 13.1569,-5.23829 24.24438,-15.73334 31.28736,-26.42014 13.84202,-24.0191 12.67297,-45.47234 1.54806,-70.41552 -4.75486,-12.48215 -22.13406,-21.35872 -17.69416,-52.74948 2.35276,-9.69468 7.68715,-15.873 14.47306,-20.24815 6.78597,-4.37507 21.09477,-3.62915 21.09477,-3.62915 z"
       style="fill:#ffffff;fill-rule:evenodd;stroke:none;stroke-width:1px;stroke-linecap:butt;stroke-linejoin:miter;stroke-opacity:1" /></g></svg>