<?xml version="1.0" encoding="UTF-8" standalone="no"?>
<!-- Generator: flash2svg, http://dissentgraphics.com/tools/flash2svg -->

<svg
   xmlns:dc="http://purl.org/dc/elements/1.1/"
   xmlns:cc="http://creativecommons.org/ns#"
   xmlns:rdf="http://www.w3.org/1999/02/22-rdf-syntax-ns#"
   xmlns:svg="http://www.w3.org/2000/svg"
   xmlns="http://www.w3.org/2000/svg"
   xmlns:sodipodi="http://sodipodi.sourceforge.net/DTD/sodipodi-0.dtd"
   xmlns:inkscape="http://www.inkscape.org/namespaces/inkscape"
   id="Calibre"
   image-rendering="optimizeSpeed"
   version="1.1"
   x="0px"
   y="0px"
   width="500"
   height="500"
   viewBox="0 0 500 500"
   enable-background="new 0 0 1024 1024"
   inkscape:version="0.91 r13725"
   sodipodi:docname="calibre-ebook-edit.svg">
  <metadata
     id="metadata53">
    <rdf:RDF>
      <cc:Work
         rdf:about="">
        <dc:format>image/svg+xml</dc:format>
        <dc:type
           rdf:resource="http://purl.org/dc/dcmitype/StillImage" />
      </cc:Work>
    </rdf:RDF>
  </metadata>
  <sodipodi:namedview
     pagecolor="#ffffff"
     bordercolor="#666666"
     borderopacity="1"
     objecttolerance="10"
     gridtolerance="10"
     guidetolerance="10"
     inkscape:pageopacity="0"
     inkscape:pageshadow="2"
     inkscape:window-width="1366"
     inkscape:window-height="715"
     id="namedview51"
     showgrid="false"
     inkscape:zoom="0.32593203"
     inkscape:cx="119.47916"
     inkscape:cy="286.54807"
     inkscape:window-x="0"
     inkscape:window-y="24"
     inkscape:window-maximized="1"
     inkscape:current-layer="Calibre" />
  <defs
     transform="matrix(1 0 0 1 0 0) "
     id="defs3" />
  <g
     id="g4205">
    <g
       style="fill:#f03916;fill-opacity:1"
       transform="matrix(0.58434032,0,0,0.58434032,-47.020754,-52.757732)"
       id="Calque.__211">
      <g
         style="fill:#f03916;fill-opacity:1"
         id="shape44">
        <path
           style="fill:#f03916;fill-opacity:1"
           inkscape:connector-curvature="0"
           d="m 354,240.1 q 0,-20 -20,-20 l -130.55,0 c -13.35,0 -20,6.65 -20,20 l 0,464.1 c 0,13.35 6.65,20 20,20 l 130.55,0 c 13.35,0 20,-6.65 20,-20 l 0,-464.1 z"
           id="path31" />
      </g>
    </g>
    <g
       style="fill:#ffffff;fill-opacity:1"
       transform="matrix(0.58434032,0,0,0.58434032,-56.528664,-74.942852)"
       id="shape45">
      <path
         id="path32"
         d="m 307.7,323.4 c -3.9,-3.9 -8.6,-5.85 -14.15,-5.85 l -18,0 c -5.55,0 -10.25,1.95 -14.15,5.85 -3.9,3.9 -5.85,8.6 -5.85,14.15 l 0,18 c 0,5.55 1.95,10.25 5.85,14.15 3.9,3.9 8.6,5.85 14.15,5.85 l 18,0 c 5.55,0 10.25,-1.95 14.15,-5.85 3.9,-3.9 5.85,-8.6 5.85,-14.15 l 0,-18 c 0,-5.55 -1.95,-10.25 -5.85,-14.15 z m 0,116 c -3.9,-3.9 -8.6,-5.85 -14.15,-5.85 l -18,0 c -5.55,0 -10.25,1.95 -14.15,5.85 -3.9,3.9 -5.85,8.6 -5.85,14.15 l 0,18 c 0,5.55 1.95,10.25 5.85,14.15 3.9,3.9 8.6,5.85 14.15,5.85 l 18,0 c 5.55,0 10.25,-1.95 14.15,-5.85 3.9,-3.9 5.85,-8.6 5.85,-14.15 l 0,-18 c 0,-5.55 -1.95,-10.25 -5.85,-14.15 z m 5.85,130.15 c 0,-5.55 -1.95,-10.25 -5.85,-14.15 -3.9,-3.9 -8.6,-5.85 -14.15,-5.85 l -18,0 c -5.55,0 -10.25,1.95 -14.15,5.85 -3.9,3.9 -5.85,8.6 -5.85,14.15 l 0,18 c 0,5.55 1.95,10.25 5.85,14.15 3.9,3.9 8.6,5.85 14.15,5.85 l 18,0 c 5.55,0 10.25,-1.95 14.15,-5.85 3.9,-3.9 5.85,-8.6 5.85,-14.15 l 0,-18 z m 0,116 c 0,-5.55 -1.95,-10.25 -5.85,-14.15 -3.9,-3.9 -8.6,-5.85 -14.15,-5.85 l -18,0 c -5.55,0 -10.25,1.95 -14.15,5.85 -3.9,3.9 -5.85,8.6 -5.85,14.15 l 0,18 c 0,5.55 1.95,10.25 5.85,14.15 3.9,3.9 8.6,5.85 14.15,5.85 l 18,0 c 5.55,0 10.25,-1.95 14.15,-5.85 3.9,-3.9 5.85,-8.6 5.85,-14.15 l 0,-18 z"
         inkscape:connector-curvature="0"
         style="fill:#ffffff;fill-opacity:1" />
    </g>
    <g
       style="fill:#394050;fill-opacity:1"
       transform="matrix(0.58434032,0,0,0.58434032,-52.091639,-52.757732)"
       id="Calque.__212">
      <g
         style="fill:#394050;fill-opacity:1"
         id="shape46">
        <path
           style="fill:#394050;fill-opacity:1"
           inkscape:connector-curvature="0"
           d="m 530,332 c 0,-13.35 -6.65,-20 -20,-20 l -126,0 q -20,0 -20,20 l 0,372.2 c 0,13.35 6.65,20 20,20 l 126,0 c 13.35,0 20,-6.65 20,-20 L 530,332 Z"
           id="path33" />
      </g>
    </g>
    <g
       transform="matrix(0.58434032,0,0,0.58434032,-52.091639,-52.757732)"
       style="fill:#b3b3b3;fill-opacity:1"
       id="Calque.__213">
      <g
         style="fill:#b3b3b3;fill-opacity:1"
         id="shape47">
        <path
           style="fill:#b3b3b3;fill-opacity:1"
           inkscape:connector-curvature="0"
           d="m 530.5,379.1 0,-26 -166,0 0,26 166,0 z m 0,303 0,-26 -166,0 0,26 166,0 z"
           id="path34" />
      </g>
    </g>
    <path
       style="fill:#00bbf2;fill-opacity:1"
       inkscape:connector-curvature="0"
       d="m 401.49837,184.78446 -3.87359,-9.84146 c -2.85742,-7.25926 -7.89619,-9.4517 -15.15545,-6.59486 l -48.93616,19.26219 c -7.25868,2.85684 -9.45112,7.89619 -6.59428,15.15487 l 3.87359,9.84146 70.68589,-27.8222 z m 52.92429,166.36753 c 7.25868,-2.85683 9.45112,-7.89619 6.59428,-15.15486 l -55.23827,-140.33809 -70.68531,27.82219 55.23769,140.33809 c 2.85742,7.25926 7.89619,9.45171 15.15545,6.59487 l 48.93616,-19.2622 z m -27.11281,-51.8117 c 7.16051,3.11629 12.19402,8.3251 15.06196,15.61124 2.86736,7.28614 2.7353,14.52845 -0.3804,21.68954 -3.11571,7.16051 -8.3251,12.19402 -15.61124,15.06137 -7.28614,2.86795 -14.52845,2.73588 -21.68896,-0.37982 -7.16109,-3.1157 -12.19401,-8.32509 -15.06196,-15.61123 -2.86794,-7.28614 -2.73588,-14.52846 0.38041,-21.68896 3.1157,-7.16109 8.3251,-12.19402 15.61065,-15.06196 7.28614,-2.86794 14.52845,-2.73588 21.68954,0.37982 z"
       id="path35" />
    <path
       style="fill:#004455;fill-opacity:1"
       inkscape:connector-curvature="0"
       d="m 405.77867,195.65904 -4.2803,-10.87458 -70.68589,27.8222 4.28088,10.87457 70.68531,-27.82219 z"
       id="path36" />
    <path
       style="fill:#004455;fill-opacity:1"
       inkscape:connector-curvature="0"
       d="m 427.30985,299.34029 c -7.16109,-3.1157 -14.4034,-3.24776 -21.68954,-0.37982 -7.28555,2.86794 -12.49495,7.90087 -15.61065,15.06196 -3.11629,7.1605 -3.24835,14.40282 -0.38041,21.68896 2.86795,7.28614 7.90087,12.49553 15.06196,15.61123 7.16051,3.1157 14.40282,3.24777 21.68896,0.37982 7.28614,-2.86735 12.49553,-7.90086 15.61124,-15.06137 3.1157,-7.16109 3.24776,-14.4034 0.3804,-21.68954 -2.86794,-7.28614 -7.90145,-12.49495 -15.06196,-15.61124 z"
       id="path37" />
    <path
       style="fill:#b3b3b3;fill-opacity:1"
       inkscape:connector-curvature="0"
       d="m 274.68945,96.101062 c -2.54714,-1.973901 -5.41508,-2.759255 -8.63246,-2.351385 l -2.31866,0.293923 q -4.81204,0.609467 -7.77348,4.430468 c -1.9739,2.547142 -2.75925,5.415082 -2.35138,8.632462 l 26.16325,206.46146 25.50704,-3.23199 -26.16325,-206.46146 c -0.40787,-3.21738 -1.88392,-5.798992 -4.43106,-7.773478 z"
       id="path38" />
    <path
       style="fill:#394050;fill-opacity:1"
       inkscape:connector-curvature="0"
       d="m 301.03911,369.80432 c 3.21738,-0.40729 5.79899,-1.88333 7.77348,-4.43047 1.9739,-2.54714 2.75926,-5.41508 2.35139,-8.63246 l -5.88022,-46.40539 -25.50704,3.23199 5.88022,46.40538 c 0.40787,3.21738 1.88391,5.799 4.43105,7.77348 2.54714,1.9739 5.41508,2.75926 8.63246,2.35139 l 2.31866,-0.29392 z"
       id="path39" />
    <path
       style="fill:#b3b3b3;fill-opacity:1"
       inkscape:connector-curvature="0"
       d="m 300.09017,100.25965 c -2.73705,-1.701599 -5.67102,-2.187185 -8.8288,-1.450332 l -2.27658,0.531165 q -4.72323,1.101477 -7.27563,5.207057 c -1.7016,2.73763 -2.18718,5.67102 -1.45033,8.82938 l 47.28424,202.66968 25.03839,-5.84165 -47.28365,-202.66968 c -0.73685,-3.15836 -2.47059,-5.57402 -5.20764,-7.27562 z"
       id="path40" />
    <path
       style="fill:#394050;fill-opacity:1"
       inkscape:connector-curvature="0"
       d="m 354.48349,369.79422 c 3.15836,-0.73685 5.57402,-2.47001 7.27562,-5.20706 1.7016,-2.73763 2.18719,-5.67102 1.45034,-8.82938 l -10.62799,-45.55283 -25.03839,5.84165 10.62739,45.55283 c 0.73686,3.15836 2.47059,5.57402 5.20764,7.27562 2.73705,1.7016 5.67103,2.18719 8.8288,1.45033 l 2.27659,-0.53116 z"
       id="path41" />
    <rect
       ry="24.203188"
       y="371.59363"
       x="25"
       height="48.406376"
       width="450"
       id="rect3836"
       style="fill:#c87137;fill-opacity:1;stroke:none" />
  </g>
</svg>
