<?xml version="1.0" encoding="UTF-8" standalone="no"?>
<!-- Generator: Adobe Illustrator 19.0.0, SVG Export Plug-In . SVG Version: 6.00 Build 0)  -->

<svg
   xmlns:dc="http://purl.org/dc/elements/1.1/"
   xmlns:cc="http://creativecommons.org/ns#"
   xmlns:rdf="http://www.w3.org/1999/02/22-rdf-syntax-ns#"
   xmlns:svg="http://www.w3.org/2000/svg"
   xmlns="http://www.w3.org/2000/svg"
   xmlns:sodipodi="http://sodipodi.sourceforge.net/DTD/sodipodi-0.dtd"
   xmlns:inkscape="http://www.inkscape.org/namespaces/inkscape"
   version="1.1"
   id="Capa_1"
   x="0px"
   y="0px"
   viewBox="0 0 500 500"
   xml:space="preserve"
   inkscape:version="0.91 r13725"
   width="100%"
   height="100%"
   sodipodi:docname="brutalchess.svg"><metadata
     id="metadata69"><rdf:RDF><cc:Work
         rdf:about=""><dc:format>image/svg+xml</dc:format><dc:type
           rdf:resource="http://purl.org/dc/dcmitype/StillImage" /></cc:Work></rdf:RDF></metadata><defs
     id="defs67" /><sodipodi:namedview
     pagecolor="#ffffff"
     bordercolor="#666666"
     borderopacity="1"
     objecttolerance="10"
     gridtolerance="10"
     guidetolerance="10"
     inkscape:pageopacity="0"
     inkscape:pageshadow="2"
     inkscape:window-width="1366"
     inkscape:window-height="715"
     id="namedview65"
     showgrid="false"
     inkscape:zoom="0.51754386"
     inkscape:cx="697.17628"
     inkscape:cy="176.74688"
     inkscape:window-x="0"
     inkscape:window-y="24"
     inkscape:window-maximized="1"
     inkscape:current-layer="Capa_1" /><g
     id="g4180"><polygon
       transform="matrix(7.9678701,0,0,7.9678701,30.357765,-14.462324)"
       id="polygon3"
       points="8.682,34 20.318,34 19.5,25 9.5,25 "
       style="fill:#394050;fill-opacity:1" /><polygon
       transform="matrix(7.9678701,0,0,7.9678701,30.357765,-22.95867)"
       id="polygon5"
       points="20.864,40 8.136,40 7.5,47 21.5,47 "
       style="fill:#394050;fill-opacity:1" /><polygon
       transform="matrix(7.9678701,0,0,7.9678701,30.357765,-18.710498)"
       id="polygon7"
       points="8.5,36 8.318,38 20.682,38 20.5,36 "
       style="fill:#394050;fill-opacity:1" /><polygon
       transform="matrix(7.9678701,0,0,7.9678701,30.357765,-20.834584)"
       id="polygon9"
       points="8.318,38 8.136,40 20.864,40 20.682,38 "
       style="fill:#394050;fill-opacity:1" /><polygon
       transform="matrix(7.9678701,0,0,7.9678701,30.357765,-16.586411)"
       id="polygon11"
       points="8.682,34 8.5,36 20.5,36 20.318,34 "
       style="fill:#394050;fill-opacity:1" /><path
       sodipodi:nodetypes="csczcccczc"
       inkscape:connector-curvature="0"
       id="path15"
       d="m 182.76718,15.813547 c 0,0 -0.88062,31.356201 -37.91322,31.993309 -36.93273,0.63544 -35.83739,-31.993309 -35.83739,-31.993309 0,0 -11.368541,9.543601 -10.931914,23.245221 0.436638,13.701715 13.348684,18.2763 23.422514,24.772983 l 0.48111,15.724765 47.80721,0 -0.4811,-15.724765 c 10.09961,-4.718962 22.97912,-11.34855 23.42249,-22.719093 0.44338,-11.370557 -0.0868,-18.31591 -9.9697,-25.299111 z"
       style="fill:#394050;fill-opacity:1" /><path
       inkscape:connector-curvature="0"
       id="path17"
       d="m 193.69911,149.14326 -95.614454,0 L 85.359974,91.878177 C 83.710625,84.460081 89.351875,77.43243 96.945254,77.43243 l 97.893256,0 c 7.59338,0 13.23462,7.027651 11.58528,14.445747 l -12.72468,57.265083 z"
       style="fill:#394050;fill-opacity:1" /><path
       inkscape:connector-curvature="0"
       id="path27"
       d="m 197.68304,186.85852 -103.582313,0 c -11.00363,0 -19.919676,-8.91605 -19.919676,-19.91968 l 0,0 c 0,-11.00362 8.916046,-19.91967 19.919676,-19.91967 l 103.582313,0 c 11.00362,0 19.91967,8.91605 19.91967,19.91967 l 0,0 c 0,11.00363 -8.91605,19.91968 -19.91967,19.91968 z"
       style="fill:#394050;fill-opacity:1" /><path
       inkscape:connector-curvature="0"
       id="path29"
       d="m 193.69911,399.33845 -95.614454,0 c -13.202756,0 -23.903605,-10.70085 -23.903605,-23.90361 l 0,0 c 0,-13.20277 10.700849,-23.9036 23.903605,-23.9036 l 95.614454,0 c 13.20276,0 23.9036,10.70083 23.9036,23.9036 l 0,0 c 0,13.20276 -10.70084,23.90361 -23.9036,23.90361 z"
       style="fill:#394050" /><path
       inkscape:connector-curvature="0"
       id="path31"
       d="m 225.57058,431.20993 -159.357399,0 c -8.804497,0 -15.93574,-7.13125 -15.93574,-15.93574 l 0,0 c 0,-8.8045 7.131243,-15.93574 15.93574,-15.93574 l 159.357399,0 c 8.8045,0 15.93575,7.13124 15.93575,15.93574 l 0,0 c 0,8.80449 -7.13125,15.93574 -15.93575,15.93574 z"
       style="fill:#394050;fill-opacity:1" /><path
       inkscape:connector-curvature="0"
       id="path13"
       d="m 331.16117,425.30071 -1.97596,-95.59404 c -0.18112,-8.76278 6.84023,-16.08052 15.60302,-16.26165 l 0,0 c 8.76279,-0.18112 16.08054,6.84022 16.26167,15.60301 l 1.97595,95.59403 c 0.18113,8.76278 -6.84023,16.08052 -15.60302,16.26165 l 0,0 c -8.76278,0.18113 -16.08053,-6.84022 -16.26166,-15.603 z"
       style="fill:#b3b3b3;fill-opacity:1" /><polygon
       transform="matrix(0.16466286,7.9661687,-7.9661687,0.16466286,486.91125,43.614429)"
       id="polygon19"
       points="34.5,47 36.5,25 46.5,25 48.5,47 "
       style="fill:#b3b3b3;fill-opacity:1" /><path
       inkscape:connector-curvature="0"
       id="path21"
       d="M 74.649865,430.73458 72.67391,335.14055 c -0.272846,-13.19994 10.204573,-24.11964 23.404515,-24.39249 l 0,0 c 13.199945,-0.27284 24.119645,10.20457 24.392485,23.40452 l 1.97597,95.59403 c 0.27283,13.19993 -10.20458,24.11964 -23.404526,24.39248 l 0,0 c -13.19994,0.27285 -24.119643,-10.20456 -24.392489,-23.40451 z"
       style="fill:#b3b3b3;fill-opacity:1" /><path
       inkscape:connector-curvature="0"
       id="path23"
       d="M 45.567924,463.25791 42.274666,303.93453 c -0.181952,-8.80262 6.800398,-16.07971 15.603014,-16.26166 l 0,0 c 8.802617,-0.18196 16.079713,6.80038 16.261665,15.603 l 3.293258,159.3234 c 0.181952,8.80261 -6.800398,16.07969 -15.603014,16.26165 l 0,0 c -8.802617,0.18195 -16.079712,-6.80039 -16.261665,-15.60301 z"
       style="fill:#b3b3b3;fill-opacity:1" /><path
       inkscape:connector-curvature="0"
       id="path25"
       d="m 293.53676,430.10711 -2.14063,-103.5602 c -0.22739,-11.00128 8.50249,-20.09967 19.50377,-20.32708 l 0,0 c 11.00127,-0.22739 20.09968,8.50247 20.32707,19.50377 l 2.14062,103.56019 c 0.2274,11.00129 -8.50248,20.09968 -19.50376,20.32707 l 0,0 c -11.00128,0.22741 -20.09968,-8.50246 -20.32707,-19.50375 z"
       style="fill:#b3b3b3;fill-opacity:1" /><path
       inkscape:connector-curvature="0"
       id="path33"
       d="m 449.02361,446.72926 -38.23607,-21.88308 c -1.29836,-0.73824 -2.1077,-2.10821 -2.1385,-3.59789 l -0.50189,-24.28087 c -0.0553,-2.67664 2.3566,-4.74279 4.9963,-4.27137 l 34.89218,6.2362 -0.98797,-47.79701 -34.60485,7.66476 c -2.61797,0.58011 -5.11304,-1.37666 -5.16837,-4.05328 l -0.50189,-24.28088 c -0.0308,-1.48968 0.72124,-2.89193 1.98798,-3.68318 l 37.29915,-23.44443 -0.65866,-31.86467 -86.80454,41.64214 2.63461,127.45869 88.45117,38.01956 -0.65865,-31.86469 z"
       style="fill:#b3b3b3;fill-opacity:1" /></g><g
     id="g35"
     transform="translate(0,443)" /><g
     id="g37"
     transform="translate(0,443)" /><g
     id="g39"
     transform="translate(0,443)" /><g
     id="g41"
     transform="translate(0,443)" /><g
     id="g43"
     transform="translate(0,443)" /><g
     id="g45"
     transform="translate(0,443)" /><g
     id="g47"
     transform="translate(0,443)" /><g
     id="g49"
     transform="translate(0,443)" /><g
     id="g51"
     transform="translate(0,443)" /><g
     id="g53"
     transform="translate(0,443)" /><g
     id="g55"
     transform="translate(0,443)" /><g
     id="g57"
     transform="translate(0,443)" /><g
     id="g59"
     transform="translate(0,443)" /><g
     id="g61"
     transform="translate(0,443)" /><g
     id="g63"
     transform="translate(0,443)" /></svg>