<?xml version="1.0" encoding="UTF-8" standalone="no"?>
<!-- Created with Inkscape (http://www.inkscape.org/) -->

<svg
   xmlns:dc="http://purl.org/dc/elements/1.1/"
   xmlns:cc="http://creativecommons.org/ns#"
   xmlns:rdf="http://www.w3.org/1999/02/22-rdf-syntax-ns#"
   xmlns:svg="http://www.w3.org/2000/svg"
   xmlns="http://www.w3.org/2000/svg"
   xmlns:sodipodi="http://sodipodi.sourceforge.net/DTD/sodipodi-0.dtd"
   xmlns:inkscape="http://www.inkscape.org/namespaces/inkscape"
   id="svg2"
   version="1.1"
   inkscape:version="0.48.5 r10040"
   width="500"
   height="500"
   viewBox="0 0 500 500"
   sodipodi:docname="crashplan.svg">
  <metadata
     id="metadata8">
    <rdf:RDF>
      <cc:Work
         rdf:about="">
        <dc:format>image/svg+xml</dc:format>
        <dc:type
           rdf:resource="http://purl.org/dc/dcmitype/StillImage" />
        <dc:title />
      </cc:Work>
    </rdf:RDF>
  </metadata>
  <defs
     id="defs6">
    <clipPath
       clipPathUnits="userSpaceOnUse"
       id="clipPath4158">
      <rect
         style="fill:#ffffff;fill-opacity:1;stroke:none"
         id="rect4160"
         width="119.32204"
         height="119.32204"
         x="165.87489"
         y="1.4488579"
         ry="24.569" />
    </clipPath>
    <clipPath
       clipPathUnits="userSpaceOnUse"
       id="clipPath3339">
      <rect
         style="fill:#ffffff;fill-opacity:1;stroke:none"
         id="rect3341"
         width="103.72881"
         height="103.72881"
         x="173.22034"
         y="10.033895"
         ry="14.885" />
    </clipPath>
    <clipPath
       clipPathUnits="userSpaceOnUse"
       id="clipPath3379">
      <rect
         style="fill:#ffffff;fill-opacity:1;stroke:none"
         id="rect3381"
         width="117.83937"
         height="121.19556"
         x="202.60519"
         y="7.4722543"
         ry="27.027935" />
    </clipPath>
  </defs>
  <sodipodi:namedview
     pagecolor="#ffffff"
     bordercolor="#666666"
     borderopacity="1"
     objecttolerance="10"
     gridtolerance="10"
     guidetolerance="10"
     inkscape:pageopacity="0"
     inkscape:pageshadow="2"
     inkscape:window-width="1366"
     inkscape:window-height="716"
     id="namedview4"
     showgrid="false"
     inkscape:zoom="0.7375"
     inkscape:cx="117.57076"
     inkscape:cy="179.22005"
     inkscape:window-x="0"
     inkscape:window-y="0"
     inkscape:window-maximized="1"
     inkscape:current-layer="svg2" />
  <g
     id="g3827"
     transform="matrix(5.2553442,0,0,5.2553442,-75.118758,-72.351514)">
    <rect
       ry="0"
       y="53.762711"
       x="30.677967"
       height="43.728813"
       width="63.559322"
       id="rect2993"
       style="fill:#45d03f;fill-opacity:1;stroke:none" />
    <path
       inkscape:connector-curvature="0"
       id="path3763"
       d="M 23.050847,63.423729 62.542373,30.711864 100.67797,62.40678"
       style="fill:#45d03f;fill-opacity:1;stroke:#45d03f;stroke-width:8;stroke-linecap:round;stroke-linejoin:miter;stroke-miterlimit:4;stroke-opacity:1;stroke-dasharray:none" />
    <path
       transform="matrix(8.8497899,0,0,17.699581,-1504.2353,-1060.2896)"
       sodipodi:open="true"
       sodipodi:end="12.513357"
       sodipodi:start="6.2321105"
       d="m 178.30464,63.923552 c 0.01,0.09349 -0.13427,0.173145 -0.32124,0.177924 -0.18697,0.0048 -0.34629,-0.06713 -0.35585,-0.160618 -0.01,-0.09349 0.13427,-0.173144 0.32124,-0.177923 0.18671,-0.0048 0.34591,0.06694 0.35581,0.160289"
       sodipodi:ry="0.16949153"
       sodipodi:rx="0.33898306"
       sodipodi:cy="63.932205"
       sodipodi:cx="177.96609"
       id="path3765"
       style="fill:#ffffff;fill-opacity:1;stroke:none"
       sodipodi:type="arc" />
    <path
       transform="matrix(8.8497899,0,0,17.699581,-1495.6405,-1060.1696)"
       sodipodi:open="true"
       sodipodi:end="12.513357"
       sodipodi:start="6.2321105"
       d="m 178.30464,63.923552 c 0.01,0.09349 -0.13427,0.173145 -0.32124,0.177924 -0.18697,0.0048 -0.34629,-0.06713 -0.35585,-0.160618 -0.01,-0.09349 0.13427,-0.173144 0.32124,-0.177923 0.18671,-0.0048 0.34591,0.06694 0.35581,0.160289"
       sodipodi:ry="0.16949153"
       sodipodi:rx="0.33898306"
       sodipodi:cy="63.932205"
       sodipodi:cx="177.96609"
       id="path3765-3"
       style="fill:#ffffff;fill-opacity:1;stroke:none"
       sodipodi:type="arc" />
    <path
       transform="matrix(8.8497899,0,0,17.699581,-1486.9964,-1060.2792)"
       sodipodi:open="true"
       sodipodi:end="12.513357"
       sodipodi:start="6.2321105"
       d="m 178.30464,63.923552 c 0.01,0.09349 -0.13427,0.173145 -0.32124,0.177924 -0.18697,0.0048 -0.34629,-0.06713 -0.35585,-0.160618 -0.01,-0.09349 0.13427,-0.173144 0.32124,-0.177923 0.18671,-0.0048 0.34591,0.06694 0.35581,0.160289"
       sodipodi:ry="0.16949153"
       sodipodi:rx="0.33898306"
       sodipodi:cy="63.932205"
       sodipodi:cx="177.96609"
       id="path3765-6"
       style="fill:#ffffff;fill-opacity:1;stroke:none"
       sodipodi:type="arc" />
    <path
       transform="matrix(8.8497899,0,0,17.699581,-1504.0905,-1052.5631)"
       sodipodi:open="true"
       sodipodi:end="12.513357"
       sodipodi:start="6.2321105"
       d="m 178.30464,63.923552 c 0.01,0.09349 -0.13427,0.173145 -0.32124,0.177924 -0.18697,0.0048 -0.34629,-0.06713 -0.35585,-0.160618 -0.01,-0.09349 0.13427,-0.173144 0.32124,-0.177923 0.18671,-0.0048 0.34591,0.06694 0.35581,0.160289"
       sodipodi:ry="0.16949153"
       sodipodi:rx="0.33898306"
       sodipodi:cy="63.932205"
       sodipodi:cx="177.96609"
       id="path3765-7"
       style="fill:#ffffff;fill-opacity:1;stroke:none"
       sodipodi:type="arc" />
    <path
       transform="matrix(8.8497899,0,0,17.699581,-1495.4957,-1052.4431)"
       sodipodi:open="true"
       sodipodi:end="12.513357"
       sodipodi:start="6.2321105"
       d="m 178.30464,63.923552 c 0.01,0.09349 -0.13427,0.173145 -0.32124,0.177924 -0.18697,0.0048 -0.34629,-0.06713 -0.35585,-0.160618 -0.01,-0.09349 0.13427,-0.173144 0.32124,-0.177923 0.18671,-0.0048 0.34591,0.06694 0.35581,0.160289"
       sodipodi:ry="0.16949153"
       sodipodi:rx="0.33898306"
       sodipodi:cy="63.932205"
       sodipodi:cx="177.96609"
       id="path3765-3-5"
       style="fill:#ffffff;fill-opacity:1;stroke:none"
       sodipodi:type="arc" />
    <path
       transform="matrix(8.8497899,0,0,17.699581,-1486.8516,-1052.5527)"
       sodipodi:open="true"
       sodipodi:end="12.513357"
       sodipodi:start="6.2321105"
       d="m 178.30464,63.923552 c 0.01,0.09349 -0.13427,0.173145 -0.32124,0.177924 -0.18697,0.0048 -0.34629,-0.06713 -0.35585,-0.160618 -0.01,-0.09349 0.13427,-0.173144 0.32124,-0.177923 0.18671,-0.0048 0.34591,0.06694 0.35581,0.160289"
       sodipodi:ry="0.16949153"
       sodipodi:rx="0.33898306"
       sodipodi:cy="63.932205"
       sodipodi:cx="177.96609"
       id="path3765-6-3"
       style="fill:#ffffff;fill-opacity:1;stroke:none"
       sodipodi:type="arc" />
    <path
       transform="matrix(8.8497899,0,0,17.699581,-1503.921,-1045.2749)"
       sodipodi:open="true"
       sodipodi:end="12.513357"
       sodipodi:start="6.2321105"
       d="m 178.30464,63.923552 c 0.01,0.09349 -0.13427,0.173145 -0.32124,0.177924 -0.18697,0.0048 -0.34629,-0.06713 -0.35585,-0.160618 -0.01,-0.09349 0.13427,-0.173144 0.32124,-0.177923 0.18671,-0.0048 0.34591,0.06694 0.35581,0.160289"
       sodipodi:ry="0.16949153"
       sodipodi:rx="0.33898306"
       sodipodi:cy="63.932205"
       sodipodi:cx="177.96609"
       id="path3765-5"
       style="fill:#ffffff;fill-opacity:1;stroke:none"
       sodipodi:type="arc" />
    <path
       transform="matrix(8.8497899,0,0,17.699581,-1495.3262,-1045.1549)"
       sodipodi:open="true"
       sodipodi:end="12.513357"
       sodipodi:start="6.2321105"
       d="m 178.30464,63.923552 c 0.01,0.09349 -0.13427,0.173145 -0.32124,0.177924 -0.18697,0.0048 -0.34629,-0.06713 -0.35585,-0.160618 -0.01,-0.09349 0.13427,-0.173144 0.32124,-0.177923 0.18671,-0.0048 0.34591,0.06694 0.35581,0.160289"
       sodipodi:ry="0.16949153"
       sodipodi:rx="0.33898306"
       sodipodi:cy="63.932205"
       sodipodi:cx="177.96609"
       id="path3765-3-6"
       style="fill:#ffffff;fill-opacity:1;stroke:none"
       sodipodi:type="arc" />
    <path
       transform="matrix(8.8497899,0,0,17.699581,-1486.6821,-1045.2645)"
       sodipodi:open="true"
       sodipodi:end="12.513357"
       sodipodi:start="6.2321105"
       d="m 178.30464,63.923552 c 0.01,0.09349 -0.13427,0.173145 -0.32124,0.177924 -0.18697,0.0048 -0.34629,-0.06713 -0.35585,-0.160618 -0.01,-0.09349 0.13427,-0.173144 0.32124,-0.177923 0.18671,-0.0048 0.34591,0.06694 0.35581,0.160289"
       sodipodi:ry="0.16949153"
       sodipodi:rx="0.33898306"
       sodipodi:cy="63.932205"
       sodipodi:cx="177.96609"
       id="path3765-6-2"
       style="fill:#ffffff;fill-opacity:1;stroke:none"
       sodipodi:type="arc" />
  </g>
</svg>
