<?xml version="1.0" encoding="UTF-8" standalone="no"?>
<!-- Created with Inkscape (http://www.inkscape.org/) -->

<svg
   xmlns:osb="http://www.openswatchbook.org/uri/2009/osb"
   xmlns:dc="http://purl.org/dc/elements/1.1/"
   xmlns:cc="http://creativecommons.org/ns#"
   xmlns:rdf="http://www.w3.org/1999/02/22-rdf-syntax-ns#"
   xmlns:svg="http://www.w3.org/2000/svg"
   xmlns="http://www.w3.org/2000/svg"
   xmlns:sodipodi="http://sodipodi.sourceforge.net/DTD/sodipodi-0.dtd"
   xmlns:inkscape="http://www.inkscape.org/namespaces/inkscape"
   width="512"
   height="512"
   id="svg859"
   version="1.1"
   inkscape:version="0.48.5 r10040"
   sodipodi:docname="application-x-vnc.svg"
   viewBox="0 0 512 512">
  <defs
     id="defs861">
    <linearGradient
       id="linearGradient4241"
       osb:paint="solid">
      <stop
         style="stop-color:#ba174e;stop-opacity:1;"
         offset="0"
         id="stop4243" />
    </linearGradient>
  </defs>
  <sodipodi:namedview
     id="base"
     pagecolor="#ffffff"
     bordercolor="#666666"
     borderopacity="1.0"
     inkscape:pageopacity="0.0"
     inkscape:pageshadow="2"
     inkscape:zoom="0.39111328"
     inkscape:cx="1263.8847"
     inkscape:cy="659.51939"
     inkscape:document-units="px"
     inkscape:current-layer="layer1"
     showgrid="false"
     width="0px"
     height="0px"
     fit-margin-top="0"
     fit-margin-left="0"
     fit-margin-right="0"
     fit-margin-bottom="0"
     inkscape:window-width="1366"
     inkscape:window-height="716"
     inkscape:window-x="0"
     inkscape:window-y="0"
     inkscape:window-maximized="1" />
  <metadata
     id="metadata864">
    <rdf:RDF>
      <cc:Work
         rdf:about="">
        <dc:format>image/svg+xml</dc:format>
        <dc:type
           rdf:resource="http://purl.org/dc/dcmitype/StillImage" />
        <dc:title />
      </cc:Work>
    </rdf:RDF>
  </metadata>
  <g
     inkscape:label="Capa 1"
     inkscape:groupmode="layer"
     id="layer1"
     transform="translate(0,-540.3622)">
    <rect
       style="fill:#cc00ff;fill-opacity:1;stroke:none;stroke-width:3.6536231"
       id="rect907"
       width="323.16217"
       height="244.78796"
       x="35.699371"
       y="632.22827" />
    <rect
       y="632.22827"
       x="35.699371"
       height="28.798595"
       width="323.16211"
       id="rect920"
       style="fill:#37353a;fill-opacity:1;stroke:none;stroke-width:3.6536231" />
    <rect
       style="fill:none;stroke:none;stroke-width:3.6536231"
       id="rect914"
       width="35.438808"
       height="25.59746"
       x="65.077751"
       y="689.82526" />
    <ellipse
       style="fill:none;stroke:none;stroke-width:7.27176142"
       id="path3290"
       cx="50.378387"
       cy="728.06671"
       rx="14.699369"
       ry="14.399741"
       d="m 65.077757,728.06671 c 0,7.95276 -6.581132,14.39974 -14.69937,14.39974 -8.118237,0 -14.699369,-6.44698 -14.699369,-14.39974 0,-7.95276 6.581132,-14.39974 14.699369,-14.39974 8.118238,0 14.69937,6.44698 14.69937,14.39974 z" />
    <ellipse
       id="path3292"
       style="fill:none;stroke:none;stroke-width:7.27176142"
       cx="50.378387"
       cy="675.42719"
       rx="14.699369"
       ry="14.399741"
       d="m 65.077757,675.42719 c 0,7.95275 -6.581132,14.39974 -14.69937,14.39974 -8.118237,0 -14.699369,-6.44699 -14.699369,-14.39974 0,-7.95276 6.581132,-14.39975 14.699369,-14.39975 8.118238,0 14.69937,6.44699 14.69937,14.39975 z" />
    <ellipse
       style="fill:none;stroke:none;stroke-width:7.27176142"
       id="path3294"
       cx="82.792076"
       cy="725.82477"
       rx="7.3496847"
       ry="7.1998706"
       d="m 90.141761,725.82477 c 0,3.97638 -3.290566,7.19987 -7.349685,7.19987 -4.059119,0 -7.349685,-3.22349 -7.349685,-7.19987 0,-3.97638 3.290566,-7.19987 7.349685,-7.19987 4.059119,0 7.349685,3.22349 7.349685,7.19987 z" />
    <ellipse
       id="path3296"
       style="fill:none;stroke:none;stroke-width:7.27176142"
       cx="82.792076"
       cy="769.02264"
       rx="7.3496847"
       ry="7.1998706"
       d="m 90.141761,769.02264 c 0,3.97638 -3.290566,7.19987 -7.349685,7.19987 -4.059119,0 -7.349685,-3.22349 -7.349685,-7.19987 0,-3.97637 3.290566,-7.19987 7.349685,-7.19987 4.059119,0 7.349685,3.2235 7.349685,7.19987 z" />
    <rect
       style="fill:#ffffff;fill-opacity:1;stroke:none;stroke-width:3.6536231"
       id="rect825"
       width="17.585278"
       height="17.238228"
       x="279.62332"
       y="638.008" />
    <rect
       y="638.008"
       x="311.8978"
       height="17.238228"
       width="17.585278"
       id="rect827"
       style="fill:#ffffff;fill-opacity:1;stroke:none;stroke-width:3.6536231" />
    <ellipse
       style="fill:none;stroke:none;stroke-width:7.27176142"
       id="path3303"
       cx="344.16208"
       cy="646.6286"
       rx="14.699369"
       ry="14.399741"
       d="m 358.86145,646.6286 c 0,7.95276 -6.58113,14.39974 -14.69937,14.39974 -8.11824,0 -14.69937,-6.44698 -14.69937,-14.39974 0,-7.95276 6.58113,-14.39974 14.69937,-14.39974 8.11824,0 14.69937,6.44698 14.69937,14.39974 z" />
    <ellipse
       id="path3305"
       style="fill:none;stroke:none;stroke-width:7.27176142"
       cx="304.5481"
       cy="646.6286"
       rx="7.3496847"
       ry="7.1998706"
       d="m 311.89778,646.6286 c 0,3.97638 -3.29057,7.19987 -7.34968,7.19987 -4.05912,0 -7.34969,-3.22349 -7.34969,-7.19987 0,-3.97638 3.29057,-7.19987 7.34969,-7.19987 4.05911,0 7.34968,3.22349 7.34968,7.19987 z" />
    <ellipse
       style="fill:none;stroke:none;stroke-width:7.27176142"
       id="path3307"
       cx="272.27362"
       cy="646.6286"
       rx="7.3496847"
       ry="7.1998706"
       d="m 279.62331,646.6286 c 0,3.97638 -3.29057,7.19987 -7.34969,7.19987 -4.05912,0 -7.34968,-3.22349 -7.34968,-7.19987 0,-3.97638 3.29056,-7.19987 7.34968,-7.19987 4.05912,0 7.34969,3.22349 7.34969,7.19987 z" />
    <rect
       y="638.008"
       x="247.34885"
       height="17.238228"
       width="17.585278"
       id="rect3309"
       style="fill:#ffffff;fill-opacity:1;stroke:none;stroke-width:3.6536231" />
    <ellipse
       style="fill:none;stroke:none;stroke-width:9.78940296"
       id="path3311"
       cx="254.46877"
       cy="994.41821"
       rx="34.63007"
       ry="33.924175"
       d="m 289.09883,994.41821 c 0,18.73579 -15.50441,33.92419 -34.63006,33.92419 -19.12566,0 -34.63007,-15.1884 -34.63007,-33.92419 0,-18.7358 15.50441,-33.92417 34.63007,-33.92417 19.12565,0 34.63006,15.18837 34.63006,33.92417 z" />
    <ellipse
       id="path3313"
       style="fill:none;stroke:none;stroke-width:9.78940296"
       cx="258.28864"
       cy="598.30621"
       rx="34.63007"
       ry="33.924175"
       d="m 292.9187,598.30621 c 0,18.73581 -15.50441,33.92418 -34.63006,33.92418 -19.12566,0 -34.63007,-15.18837 -34.63007,-33.92418 0,-18.7358 15.50441,-33.92417 34.63007,-33.92417 19.12565,0 34.63006,15.18837 34.63006,33.92417 z" />
    <ellipse
       id="path3315"
       style="fill:none;stroke:none;stroke-width:7.27176142"
       cx="28.349686"
       cy="754.62335"
       rx="7.3496847"
       ry="7.1998706"
       d="m 35.69937,754.62335 c 0,3.97638 -3.290566,7.19987 -7.349684,7.19987 -4.059119,0 -7.349685,-3.22349 -7.349685,-7.19987 0,-3.97638 3.290566,-7.19987 7.349685,-7.19987 4.059118,0 7.349684,3.22349 7.349684,7.19987 z" />
    <ellipse
       style="fill:none;stroke:none;stroke-width:7.27176142"
       id="path3317"
       cx="366.20108"
       cy="754.62335"
       rx="7.3496847"
       ry="7.1998706"
       d="m 373.55077,754.62335 c 0,3.97638 -3.29057,7.19987 -7.34969,7.19987 -4.05912,0 -7.34968,-3.22349 -7.34968,-7.19987 0,-3.97638 3.29056,-7.19987 7.34968,-7.19987 4.05912,0 7.34969,3.22349 7.34969,7.19987 z" />
    <rect
       y="689.82526"
       x="65.077751"
       height="28.798595"
       width="44.067574"
       id="rect3369"
       style="fill:#ebebeb;fill-opacity:1;stroke:none;stroke-width:3.6536231" />
    <rect
       style="fill:#ebebeb;fill-opacity:1;stroke:none;stroke-width:3.6536231"
       id="rect3453"
       width="44.067574"
       height="28.798595"
       x="65.077751"
       y="733.02295" />
    <rect
       y="776.2215"
       x="65.077751"
       height="28.798595"
       width="44.067574"
       id="rect3455"
       style="fill:#ebebeb;fill-opacity:1;stroke:none;stroke-width:3.6536231" />
    <rect
       style="fill:#2980b9;fill-opacity:1;stroke:none;stroke-width:3.6536231"
       id="rect907-7"
       width="323.16217"
       height="244.78796"
       x="153.14857"
       y="740.22198" />
    <rect
       y="740.22198"
       x="153.13431"
       height="28.798595"
       width="323.17636"
       id="rect920-2"
       style="fill:#37353a;fill-opacity:1;stroke:none;stroke-width:3.6536231" />
    <rect
       style="fill:none;stroke:none;stroke-width:3.6536231"
       id="rect914-9"
       width="35.438808"
       height="25.59746"
       x="182.52698"
       y="797.81897" />
    <ellipse
       style="fill:none;stroke:none;stroke-width:7.27176142"
       id="path3290-8"
       cx="167.82761"
       cy="836.06049"
       rx="14.699369"
       ry="14.399741"
       d="m 182.52698,836.06049 c 0,7.95275 -6.58114,14.39974 -14.69937,14.39974 -8.11824,0 -14.69937,-6.44699 -14.69937,-14.39974 0,-7.95276 6.58113,-14.39975 14.69937,-14.39975 8.11823,0 14.69937,6.44699 14.69937,14.39975 z" />
    <ellipse
       id="path3292-9"
       style="fill:none;stroke:none;stroke-width:7.27176142"
       cx="167.82761"
       cy="783.42096"
       rx="14.699369"
       ry="14.399741"
       d="m 182.52698,783.42096 c 0,7.95276 -6.58114,14.39974 -14.69937,14.39974 -8.11824,0 -14.69937,-6.44698 -14.69937,-14.39974 0,-7.95276 6.58113,-14.39974 14.69937,-14.39974 8.11823,0 14.69937,6.44698 14.69937,14.39974 z" />
    <ellipse
       style="fill:none;stroke:none;stroke-width:7.27176142"
       id="path3294-5"
       cx="200.24129"
       cy="833.81854"
       rx="7.3496847"
       ry="7.1998706"
       d="m 207.59097,833.81854 c 0,3.97638 -3.29056,7.19987 -7.34968,7.19987 -4.05912,0 -7.34969,-3.22349 -7.34969,-7.19987 0,-3.97638 3.29057,-7.19987 7.34969,-7.19987 4.05912,0 7.34968,3.22349 7.34968,7.19987 z" />
    <ellipse
       id="path3296-1"
       style="fill:none;stroke:none;stroke-width:7.27176142"
       cx="200.24129"
       cy="877.01642"
       rx="7.3496847"
       ry="7.1998706"
       d="m 207.59097,877.01642 c 0,3.97638 -3.29056,7.19987 -7.34968,7.19987 -4.05912,0 -7.34969,-3.22349 -7.34969,-7.19987 0,-3.97638 3.29057,-7.19987 7.34969,-7.19987 4.05912,0 7.34968,3.22349 7.34968,7.19987 z" />
    <rect
       style="fill:#ffffff;fill-opacity:1;stroke:none;stroke-width:3.6536231"
       id="rect825-5"
       width="17.585278"
       height="17.238228"
       x="397.07248"
       y="746.00171" />
    <rect
       y="746.00171"
       x="429.34695"
       height="17.238228"
       width="17.585278"
       id="rect827-8"
       style="fill:#ffffff;fill-opacity:1;stroke:none;stroke-width:3.6536231" />
    <ellipse
       style="fill:none;stroke:none;stroke-width:7.27176142"
       id="path3303-0"
       cx="461.6113"
       cy="754.62238"
       rx="14.699369"
       ry="14.399741"
       d="m 476.31067,754.62238 c 0,7.95275 -6.58113,14.39974 -14.69937,14.39974 -8.11824,0 -14.69937,-6.44699 -14.69937,-14.39974 0,-7.95276 6.58113,-14.39975 14.69937,-14.39975 8.11824,0 14.69937,6.44699 14.69937,14.39975 z" />
    <ellipse
       id="path3305-6"
       style="fill:none;stroke:none;stroke-width:7.27176142"
       cx="421.99731"
       cy="754.62238"
       rx="7.3496847"
       ry="7.1998706"
       d="m 429.347,754.62238 c 0,3.97637 -3.29057,7.19987 -7.34969,7.19987 -4.05911,0 -7.34968,-3.2235 -7.34968,-7.19987 0,-3.97638 3.29057,-7.19988 7.34968,-7.19988 4.05912,0 7.34969,3.2235 7.34969,7.19988 z" />
    <ellipse
       style="fill:none;stroke:none;stroke-width:7.27176142"
       id="path3307-6"
       cx="389.72284"
       cy="754.62238"
       rx="7.3496847"
       ry="7.1998706"
       d="m 397.07252,754.62238 c 0,3.97637 -3.29056,7.19987 -7.34968,7.19987 -4.05912,0 -7.34969,-3.2235 -7.34969,-7.19987 0,-3.97638 3.29057,-7.19988 7.34969,-7.19988 4.05912,0 7.34968,3.2235 7.34968,7.19988 z" />
    <rect
       y="746.00171"
       x="364.79807"
       height="17.238228"
       width="17.585278"
       id="rect3309-5"
       style="fill:#ffffff;fill-opacity:1;stroke:none;stroke-width:3.6536231" />
    <ellipse
       id="path3315-9"
       style="fill:none;stroke:none;stroke-width:7.27176142"
       cx="145.79889"
       cy="862.61713"
       rx="7.3496847"
       ry="7.1998706"
       d="m 153.14857,862.61713 c 0,3.97638 -3.29056,7.19987 -7.34968,7.19987 -4.05912,0 -7.34969,-3.22349 -7.34969,-7.19987 0,-3.97638 3.29057,-7.19987 7.34969,-7.19987 4.05912,0 7.34968,3.22349 7.34968,7.19987 z" />
    <ellipse
       style="fill:none;stroke:none;stroke-width:7.27176142"
       id="path3317-2"
       cx="483.6503"
       cy="862.61713"
       rx="7.3496847"
       ry="7.1998706"
       d="m 490.99998,862.61713 c 0,3.97638 -3.29056,7.19987 -7.34968,7.19987 -4.05912,0 -7.34969,-3.22349 -7.34969,-7.19987 0,-3.97638 3.29057,-7.19987 7.34969,-7.19987 4.05912,0 7.34968,3.22349 7.34968,7.19987 z" />
    <rect
       y="797.81897"
       x="182.52698"
       height="28.798595"
       width="44.067574"
       id="rect3369-2"
       style="fill:#1abc9c;fill-opacity:1;stroke:none;stroke-width:3.6536231" />
    <rect
       style="fill:#1abc9c;fill-opacity:1;stroke:none;stroke-width:3.6536231"
       id="rect3453-4"
       width="44.067574"
       height="28.798595"
       x="182.52698"
       y="841.01642" />
    <rect
       y="884.21521"
       x="182.52698"
       height="28.798595"
       width="44.067574"
       id="rect3455-1"
       style="fill:#1abc9c;fill-opacity:1;stroke:none;stroke-width:3.6536231" />
    <rect
       style="fill:#f03916;fill-opacity:1;stroke:none;stroke-width:7.45818853000000015"
       id="rect907-4-6"
       width="328.16025"
       height="253.57831"
       x="34.854572"
       y="630.47632" />
    <rect
       y="630.47632"
       x="34.854572"
       height="29.832754"
       width="328.16016"
       id="rect920-4-1"
       style="fill:#394050;fill-opacity:1;stroke:none;stroke-width:7.45818853" />
    <path
       inkscape:connector-curvature="0"
       style="fill:#ffffff;fill-opacity:1;stroke:none;stroke-width:7.45818853"
       d="m 249.77744,636.46362 0,17.85763 17.85762,0 0,-17.85763 -17.85762,0 z m 32.77375,0 0,17.85763 17.85762,0 0,-17.85763 -17.85762,0 z m 32.77375,0 0,17.85763 17.85762,0 0,-17.85763 -17.85762,0 z"
       id="rect825-50-0" />
    <rect
       y="690.14093"
       x="64.687325"
       height="29.832754"
       width="44.74913"
       id="rect3369-22-9"
       style="fill:#f2f2f2;fill-opacity:1;stroke:none;stroke-width:7.45818853" />
    <rect
       style="fill:#f2f2f2;fill-opacity:1;stroke:none;stroke-width:7.45818853"
       id="rect3453-1-3"
       width="44.74913"
       height="29.832754"
       x="64.687325"
       y="734.89001" />
    <rect
       y="779.64008"
       x="64.687325"
       height="29.832754"
       width="44.74913"
       id="rect3455-4-4"
       style="fill:#f2f2f2;fill-opacity:1;stroke:none;stroke-width:7.45818853" />
    <rect
       style="fill:#00bbf2;fill-opacity:1;stroke:none;stroke-width:7.45818853000000015"
       id="rect907-4"
       width="328.16025"
       height="253.57831"
       x="148.01688"
       y="733.66492" />
    <rect
       y="733.66492"
       x="148.01688"
       height="29.832754"
       width="328.16016"
       id="rect920-4"
       style="fill:#394050;fill-opacity:1;stroke:none;stroke-width:7.45818853" />
    <path
       inkscape:connector-curvature="0"
       style="fill:#ffffff;fill-opacity:1;stroke:none;stroke-width:7.45818853"
       d="m 362.93974,739.65221 0,17.85763 17.85762,0 0,-17.85763 -17.85762,0 z m 32.77374,0 0,17.85763 17.85762,0 0,-17.85763 -17.85762,0 z m 32.77376,0 0,17.85763 17.85762,0 0,-17.85763 -17.85762,0 z"
       id="rect825-50" />
    <rect
       y="793.32953"
       x="177.84962"
       height="29.832754"
       width="44.74913"
       id="rect3369-22"
       style="fill:#f2f2f2;fill-opacity:1;stroke:none;stroke-width:7.45818853" />
    <rect
       style="fill:#f2f2f2;fill-opacity:1;stroke:none;stroke-width:7.45818853"
       id="rect3453-1"
       width="44.74913"
       height="29.832754"
       x="177.84962"
       y="838.07861" />
    <rect
       y="882.82867"
       x="177.84962"
       height="29.832754"
       width="44.74913"
       id="rect3455-4"
       style="fill:#f2f2f2;fill-opacity:1;stroke:none;stroke-width:7.45818853" />
  </g>
</svg>
