<?xml version="1.0" encoding="UTF-8" standalone="no"?>
<!-- Generator: Adobe Illustrator 19.0.0, SVG Export Plug-In . SVG Version: 6.00 Build 0)  -->

<svg
   xmlns:dc="http://purl.org/dc/elements/1.1/"
   xmlns:cc="http://creativecommons.org/ns#"
   xmlns:rdf="http://www.w3.org/1999/02/22-rdf-syntax-ns#"
   xmlns:svg="http://www.w3.org/2000/svg"
   xmlns="http://www.w3.org/2000/svg"
   xmlns:sodipodi="http://sodipodi.sourceforge.net/DTD/sodipodi-0.dtd"
   xmlns:inkscape="http://www.inkscape.org/namespaces/inkscape"
   version="1.1"
   id="Layer_1"
   x="0px"
   y="0px"
   viewBox="0 0 500 500"
   xml:space="preserve"
   inkscape:version="0.92.1 r15371"
   width="100%"
   height="100%"
   sodipodi:docname="cxmenu-cxoffice-0-cxrun.svg"><metadata
     id="metadata57"><rdf:RDF><cc:Work
         rdf:about=""><dc:format>image/svg+xml</dc:format><dc:type
           rdf:resource="http://purl.org/dc/dcmitype/StillImage" /></cc:Work></rdf:RDF></metadata><defs
     id="defs55" /><sodipodi:namedview
     pagecolor="#ffffff"
     bordercolor="#666666"
     borderopacity="1"
     objecttolerance="10"
     gridtolerance="10"
     guidetolerance="10"
     inkscape:pageopacity="0"
     inkscape:pageshadow="2"
     inkscape:window-width="1366"
     inkscape:window-height="709"
     id="namedview53"
     showgrid="false"
     inkscape:zoom="0.52559509"
     inkscape:cx="74.708287"
     inkscape:cy="179.76509"
     inkscape:window-x="0"
     inkscape:window-y="0"
     inkscape:window-maximized="1"
     inkscape:current-layer="Layer_1" /><g
     id="g23"
     transform="translate(0,39.767)" /><g
     id="g25"
     transform="translate(0,39.767)" /><g
     id="g27"
     transform="translate(0,39.767)" /><g
     id="g29"
     transform="translate(0,39.767)" /><g
     id="g31"
     transform="translate(0,39.767)" /><g
     id="g33"
     transform="translate(0,39.767)" /><g
     id="g35"
     transform="translate(0,39.767)" /><g
     id="g37"
     transform="translate(0,39.767)" /><g
     id="g39"
     transform="translate(0,39.767)" /><g
     id="g41"
     transform="translate(0,39.767)" /><g
     id="g43"
     transform="translate(0,39.767)" /><g
     id="g45"
     transform="translate(0,39.767)" /><g
     id="g47"
     transform="translate(0,39.767)" /><g
     id="g49"
     transform="translate(0,39.767)" /><g
     id="g51"
     transform="translate(0,39.767)" /><g
     id="g839"><path
       sodipodi:nodetypes="cczcczc"
       inkscape:connector-curvature="0"
       id="path4521"
       d="M 118.35662,437.63396 88.838901,394.78567 c 0,0 50.502819,-29.84379 70.937659,-42.84822 20.43483,-13.00444 51.89403,-34.75473 51.89403,-34.75473 l 34.27861,36.65905 c 0,0 -32.09251,22.63191 -53.32224,36.65913 -21.22973,14.02722 -74.27034,47.13306 -74.27034,47.13306 z"
       style="fill:#f03916;fill-opacity:1;stroke:none;stroke-width:8.007411px;stroke-linecap:butt;stroke-linejoin:miter;stroke-opacity:1" /><path
       sodipodi:nodetypes="cczcczc"
       inkscape:connector-curvature="0"
       id="path4521-3"
       d="m 387.49869,54.968742 29.51772,42.848299 c 0,0 -50.50282,29.843779 -70.93766,42.848219 -20.43483,13.00444 -51.89403,34.75473 -51.89403,34.75473 l -34.2786,-36.65905 c 0,0 32.0925,-22.63191 53.32223,-36.65913 21.22973,-14.027226 74.27034,-47.133068 74.27034,-47.133068 z"
       style="fill:#cccccc;fill-opacity:1;stroke:none;stroke-width:8.007411px;stroke-linecap:butt;stroke-linejoin:miter;stroke-opacity:1" /><path
       sodipodi:nodetypes="cczzzzzcczzzzzzc"
       inkscape:connector-curvature="0"
       id="path4523-6"
       d="m 232.37151,164.24084 35.01145,35.68471 c 0,0 -20.19325,24.22042 -24.57531,37.03123 -4.38206,12.81082 -5.83636,22.72031 -2.69321,36.69461 3.14315,13.97429 7.85086,27.09043 24.23867,42.75429 16.38781,15.66386 49.27681,29.92618 77.42895,39.38782 28.15213,9.46163 69.56566,13.90607 89.88503,16.15911 20.31937,2.25305 31.30826,1.34661 31.30826,1.34661 l 2.01987,51.84374 c 0,0 -46.03077,-1.56392 -71.03271,-5.38634 -25.00194,-3.82242 -55.25114,-9.85705 -78.43892,-18.17899 -23.18778,-8.32194 -42.87352,-17.66619 -60.26001,-29.96165 -17.38649,-12.29546 -32.95282,-26.54561 -43.42756,-42.08103 -10.47473,-15.53542 -16.62074,-29.69588 -19.52559,-48.14064 -2.90485,-18.44475 -2.21301,-39.71612 4.37645,-59.9233 6.58946,-20.20718 35.68463,-57.23017 35.68463,-57.23017 z"
       style="fill:#cccccc;fill-opacity:1;stroke:none;stroke-width:8.007411px;stroke-linecap:butt;stroke-linejoin:miter;stroke-opacity:1" /><path
       sodipodi:nodetypes="czczzzzzcczzzzzzc"
       inkscape:connector-curvature="0"
       id="path4523"
       d="m 274.85259,324.73163 c 0,0 -8.54895,-5.01713 -19.60022,-17.39811 -11.05119,-12.38098 -11.54301,-21.08359 -11.54301,-21.08359 0,0 14.95625,-17.79319 19.3383,-30.60401 4.38206,-12.81081 5.83636,-22.72031 2.69322,-36.6946 -3.14315,-13.9743 -7.85087,-27.09043 -24.23868,-42.75429 -16.38781,-15.66386 -49.27681,-29.92618 -77.42894,-39.38782 -28.15214,-9.46164 -69.565672,-13.90607 -89.885039,-16.15912 -20.319367,-2.25304 -31.308258,-1.3466 -31.308258,-1.3466 l -2.01987,-51.843747 c 0,0 46.030765,1.563928 71.032707,5.386346 25.00194,3.822418 55.25114,9.857043 78.43892,18.178986 23.18778,8.321942 42.87352,17.666195 60.26001,29.961655 17.3865,12.29546 32.95282,26.54561 43.42756,42.08103 10.47473,15.53541 16.62074,29.69588 19.52559,48.14063 2.90485,18.44475 2.21301,39.71612 -4.37645,59.92331 -6.58946,20.20718 -34.31584,53.59993 -34.31584,53.59993 z"
       style="fill:#f03916;fill-opacity:1;stroke:none;stroke-width:8.007411px;stroke-linecap:butt;stroke-linejoin:miter;stroke-opacity:1" /></g></svg>