<?xml version="1.0" encoding="UTF-8" standalone="no"?>
<!-- Created with Inkscape (http://www.inkscape.org/) -->

<svg
   xmlns:dc="http://purl.org/dc/elements/1.1/"
   xmlns:cc="http://creativecommons.org/ns#"
   xmlns:rdf="http://www.w3.org/1999/02/22-rdf-syntax-ns#"
   xmlns:svg="http://www.w3.org/2000/svg"
   xmlns="http://www.w3.org/2000/svg"
   xmlns:sodipodi="http://sodipodi.sourceforge.net/DTD/sodipodi-0.dtd"
   xmlns:inkscape="http://www.inkscape.org/namespaces/inkscape"
   id="svg2"
   version="1.1"
   inkscape:version="0.92.1 r15371"
   width="512"
   height="512"
   sodipodi:docname="doublecmd.svg">
  <metadata
     id="metadata8">
    <rdf:RDF>
      <cc:Work
         rdf:about="">
        <dc:format>image/svg+xml</dc:format>
        <dc:type
           rdf:resource="http://purl.org/dc/dcmitype/StillImage" />
        <dc:title />
      </cc:Work>
    </rdf:RDF>
  </metadata>
  <defs
     id="defs6" />
  <sodipodi:namedview
     pagecolor="#ffffff"
     bordercolor="#666666"
     borderopacity="1"
     objecttolerance="10"
     gridtolerance="10"
     guidetolerance="10"
     inkscape:pageopacity="0"
     inkscape:pageshadow="2"
     inkscape:window-width="1149"
     inkscape:window-height="685"
     id="namedview4"
     showgrid="false"
     inkscape:zoom="0.4609375"
     inkscape:cx="462.45716"
     inkscape:cy="156.6475"
     inkscape:window-x="90"
     inkscape:window-y="28"
     inkscape:window-maximized="0"
     inkscape:current-layer="svg2" />
  <g
     id="g826">
    <rect
       y="85.731232"
       x="25"
       height="352.88492"
       width="449.96539"
       id="rect822"
       style="opacity:1;fill:#ffffff;fill-opacity:1;stroke:none;stroke-width:1.00157475;stroke-linecap:round;stroke-miterlimit:4;stroke-dasharray:none;stroke-opacity:1;paint-order:stroke fill markers" />
    <path
       inkscape:connector-curvature="0"
       id="path4487"
       d="m 52.29267,485.90571 c -10.29372,-2.7898 -19.15433,-10.42013 -23.74543,-20.44842 -2.0164,-4.40438 -2.61975,-7.63079 -3.0247,-16.1743 l -0.50586,-10.67243 12.07307,0.35644 c 56.904697,1.68002 111.44798,-24.95473 145.96237,-71.27682 16.34247,-21.93339 27.18972,-47.0547 32.5158,-75.30385 1.30378,-6.91519 1.75296,-14.60878 1.77094,-30.33234 0.0206,-18.01382 -0.30789,-22.71494 -2.26645,-32.43707 C 202.17498,165.59558 157.70657,114.9696 96.504097,94.630342 78.50621,88.649152 67.33531,86.833352 44.95175,86.250632 L 25,85.731232 l 0.54267,-9.84835 c 0.41779,-7.58184 1.1239,-11.1179 3.06817,-15.36475 3.23581,-7.06794 10.27232,-14.08636 17.53642,-17.49134 l 5.71469,-2.67871 H 249.9928 448.12368 l 5.71463,2.67871 c 7.2641,3.40498 14.30059,10.4234 17.53646,17.49134 1.95237,4.26466 2.65022,7.78085 3.07532,15.49584 L 475,85.993412 h -15.31577 c -17.06311,0 -31.80526,1.80549 -46.17075,5.65459 -66.04041,17.694818 -114.9862,70.209368 -128.59293,137.968918 -1.92528,9.5876 -2.28639,14.59388 -2.30357,31.93547 -0.0215,21.68995 0.71967,28.15495 5.23285,45.64533 13.61859,52.77744 53.19989,98.15504 103.28204,118.40673 23.86928,9.65201 40.06187,12.83106 65.89829,12.93769 l 17.93523,0.074 -0.51135,10.82276 c -0.44918,9.50749 -0.89149,11.59501 -3.63971,17.17726 -3.72737,7.57144 -10.13863,13.79885 -18.0006,17.48439 l -5.69328,2.66889 -195.12126,0.18946 C 99.497407,487.107 55.87639,486.877 52.29267,485.90569 Z M 31.79807,373.99228 25.77891,373.40854 25.52374,262.3952 25.26858,151.38187 l 8.77855,-0.73125 c 5.07451,-0.4227 13.01306,-0.26756 18.81427,0.36767 68.6349,7.51562 114.19723,73.51172 96.74676,140.1357 -4.68298,17.87911 -13.86609,34.21931 -27.00768,48.05681 -18.98382,19.98909 -42.24524,31.55185 -69.73533,34.66394 -9.42389,1.06686 -11.17765,1.07665 -21.06708,0.11754 z m 414.40022,-0.10264 c -27.01946,-3.30779 -49.49719,-14.5831 -68.40367,-34.31277 -9.60107,-10.01905 -16.4077,-20.04281 -21.52946,-31.7053 -24.5087,-55.80721 -0.48486,-120.52766 54.4242,-146.6194 16.83231,-7.99841 37.91914,-12.04512 55.24474,-10.6019 l 8.77416,0.73088 v 110.70369 c 0,60.88702 -0.33858,110.90504 -0.7524,111.15112 -1.66213,0.98843 -21.25442,1.44981 -27.75757,0.65368 z"
       style="fill:#f03916;fill-opacity:1;stroke-width:1.00319409" />
  </g>
</svg>
