<?xml version="1.0" encoding="UTF-8" standalone="no"?>
<svg
   xmlns:dc="http://purl.org/dc/elements/1.1/"
   xmlns:cc="http://creativecommons.org/ns#"
   xmlns:rdf="http://www.w3.org/1999/02/22-rdf-syntax-ns#"
   xmlns:svg="http://www.w3.org/2000/svg"
   xmlns="http://www.w3.org/2000/svg"
   xmlns:sodipodi="http://sodipodi.sourceforge.net/DTD/sodipodi-0.dtd"
   xmlns:inkscape="http://www.inkscape.org/namespaces/inkscape"
   viewBox="0 0 511.99999 511.99999"
   height="512"
   width="512"
   version="1.1"
   id="svg2"
   inkscape:version="0.91 r13725"
   sodipodi:docname="eqonomize.svg">
  <sodipodi:namedview
     pagecolor="#ffffff"
     bordercolor="#666666"
     borderopacity="1"
     objecttolerance="10"
     gridtolerance="10"
     guidetolerance="10"
     inkscape:pageopacity="0"
     inkscape:pageshadow="2"
     inkscape:window-width="1366"
     inkscape:window-height="715"
     id="namedview18"
     showgrid="false"
     inkscape:zoom="0.40625"
     inkscape:cx="-224.16586"
     inkscape:cy="492.95321"
     inkscape:window-x="0"
     inkscape:window-y="24"
     inkscape:window-maximized="1"
     inkscape:current-layer="svg2"
     showguides="true"
     inkscape:guide-bbox="true" />
  <metadata
     id="metadata8">
    <rdf:RDF>
      <cc:Work
         rdf:about="">
        <dc:format>image/svg+xml</dc:format>
        <dc:type
           rdf:resource="http://purl.org/dc/dcmitype/StillImage" />
        <dc:title />
      </cc:Work>
    </rdf:RDF>
  </metadata>
  <defs
     id="defs6">
    <filter
       height="1.096"
       y="-0.048"
       width="1.096"
       x="-0.048"
       id="filter4329"
       style="color-interpolation-filters:sRGB">
      <feGaussianBlur
         id="feGaussianBlur4331"
         stdDeviation="2.1324205" />
    </filter>
    <filter
       height="1.0327445"
       y="-0.016372267"
       width="1.0399742"
       x="-0.019987123"
       id="filter4376"
       style="color-interpolation-filters:sRGB">
      <feGaussianBlur
         id="feGaussianBlur4378"
         stdDeviation="1.1736058" />
    </filter>
    <filter
       height="1.0570984"
       y="-0.0285492"
       width="1.0632123"
       x="-0.031606145"
       id="filter4436"
       style="color-interpolation-filters:sRGB">
      <feGaussianBlur
         id="feGaussianBlur4438"
         stdDeviation="0.63519096" />
    </filter>
  </defs>
  <g
     id="g4167">
    <path
       inkscape:connector-curvature="0"
       id="path17"
       d="m 270.48982,471.93959 -37.49955,0 c -5.1773,0 -9.37543,-4.19813 -9.37543,-9.37542 l 0,-149.99931 c 0,-5.1773 4.19813,-9.37541 9.37543,-9.37541 l 37.49955,0 c 5.17729,0 9.37542,4.19811 9.37542,9.37541 l 0,149.99931 c 0,5.17729 -4.19813,9.37542 -9.37542,9.37542 z"
       style="fill:#ffcc00" />
    <path
       inkscape:connector-curvature="0"
       id="path21"
       d="m 186.11528,471.93959 -37.49956,0 c -5.17729,0 -9.37542,-4.19813 -9.37542,-9.37542 l 0,-103.12432 c 0,-5.1773 4.19813,-9.37543 9.37542,-9.37543 l 37.49956,0 c 5.17729,0 9.37542,4.19813 9.37542,9.37543 l 0,103.12432 c 0,5.17729 -4.19813,9.37542 -9.37542,9.37542 z"
       style="fill:#f03916;fill-opacity:1" />
    <path
       inkscape:connector-curvature="0"
       id="path25"
       d="m 101.74075,471.93959 -37.499549,0 c -5.1773,0 -9.37543,-4.19813 -9.37543,-9.37542 l 0,-56.25041 c 0,-5.17729 4.19813,-9.37542 9.37543,-9.37542 l 37.499549,0 c 5.17728,0 9.37541,4.19813 9.37541,9.37542 l 0,56.25041 c -10e-4,5.17729 -4.19813,9.37542 -9.37541,9.37542 z"
       style="fill:#892ca0;fill-opacity:1" />
    <path
       inkscape:connector-curvature="0"
       id="path29"
       d="m 354.86434,471.93959 -37.49953,0 c -5.1773,0 -9.37543,-4.19813 -9.37543,-9.37542 l 0,-103.12432 c 0,-5.1773 4.19813,-9.37543 9.37543,-9.37543 l 37.49953,0 c 5.1773,0 9.37543,4.19813 9.37543,9.37543 l 0,103.12432 c 0,5.17729 -4.19813,9.37542 -9.37543,9.37542 z"
       style="fill:#45d03f;fill-opacity:1" />
    <path
       inkscape:connector-curvature="0"
       id="path33"
       d="m 439.23993,471.93959 -37.49955,0 c -5.17728,0 -9.37541,-4.19813 -9.37541,-9.37542 l 0,-206.2497 c 0,-5.1773 4.19813,-9.37541 9.37541,-9.37541 l 37.49955,0 c 5.1773,0 9.37543,4.19811 9.37543,9.37541 l 0,206.2497 c -0.001,5.17729 -4.19813,9.37542 -9.37543,9.37542 z"
       style="fill:#00bbf2;fill-opacity:1" />
    <path
       inkscape:connector-curvature="0"
       id="path37"
       d="m 467.36407,481.31288 -431.248069,0 c -5.1773,0 -9.37543,-4.19813 -9.37543,-9.37543 l 0,0 c 0,-5.17729 4.19813,-9.37541 9.37543,-9.37541 l 431.249139,0 c 5.17729,0 9.37542,4.19812 9.37542,9.37541 l 0,0 c -0.001,5.17943 -4.19813,9.37543 -9.37649,9.37543 z"
       style="fill:#394050" />
    <path
       inkscape:connector-curvature="0"
       id="path2998"
       d="M 50.476545,378.84635 261.08557,265.70927 334.18953,331.85095 427.31006,145.6099"
       style="fill:none;stroke:#394050;stroke-width:10;stroke-linecap:butt;stroke-linejoin:miter;stroke-miterlimit:4;stroke-dasharray:none;stroke-opacity:1" />
    <path
       inkscape:connector-curvature="0"
       id="path3768"
       d="m 430.89523,143.06322 -37.52475,16.30149"
       style="fill:none;stroke:#394050;stroke-width:10;stroke-linecap:butt;stroke-linejoin:miter;stroke-miterlimit:4;stroke-dasharray:none;stroke-opacity:1" />
    <path
       inkscape:connector-curvature="0"
       id="path3770"
       d="M 441.15385,178.80118 424.31391,140.52265"
       style="fill:none;stroke:#394050;stroke-width:10;stroke-linecap:butt;stroke-linejoin:miter;stroke-miterlimit:4;stroke-dasharray:none;stroke-opacity:1" />
    <g
       id="flowRoot21"
       style="font-style:normal;font-weight:normal;font-size:40px;line-height:1.25;font-family:sans-serif;letter-spacing:0px;word-spacing:0px;fill:#394050;fill-opacity:1;stroke:none"
       transform="matrix(3.2023323,0,0,3.2023323,-80.27219,-465.62824)"
       aria-label="€">
      <path
         id="path874"
         d="m 69.789062,212.39648 0,4.16016 q -1.777343,-2.05078 -3.4375,-2.92969 -1.640625,-0.8789 -3.632812,-0.8789 -3.066406,0 -5.039063,1.95312 -1.972656,1.95313 -2.597656,5.60547 l 11.269531,0 -1.074218,2.40234 -10.507813,0 q -0.03906,0.46875 -0.05859,0.91797 0,0.44922 0,1.13282 0,0.625 0,1.07421 0.01953,0.44922 0.05859,0.91797 l 8.710938,0 -1.09375,2.40235 -7.304688,0 q 0.625,3.65234 2.597656,5.625 1.972657,1.97265 5.039063,1.97265 1.992187,0 3.632812,-0.8789 1.660157,-0.87891 3.4375,-2.92969 l 0,4.12109 q -1.738281,1.40625 -3.554687,2.10938 -1.796875,0.70312 -3.671875,0.70312 -4.628906,0 -7.65625,-2.83203 -3.007813,-2.83203 -3.789063,-7.89062 l -4.121093,0 1.074218,-2.40235 2.714844,0 q 0,-0.44922 -0.01953,-0.89843 0,-0.46875 0,-1.09375 0,-0.6836 0,-1.13282 0.01953,-0.46875 0.01953,-0.91797 l -3.789062,0 1.074218,-2.40234 3.046875,0 q 0.78125,-5.01953 3.808594,-7.85156 3.027344,-2.83203 7.636719,-2.83203 1.914062,0 3.710937,0.70312 1.816407,0.6836 3.515625,2.07031 z"
         inkscape:connector-curvature="0" />
    </g>
    <g
       id="flowRoot21-3"
       style="font-style:normal;font-weight:normal;font-size:40px;line-height:1.25;font-family:sans-serif;letter-spacing:0px;word-spacing:0px;fill:#394050;fill-opacity:1;stroke:none"
       transform="matrix(3.8632543,0,0,3.8632543,27.313411,-681.51993)"
       aria-label="$">
      <path
         inkscape:connector-curvature="0"
         id="path871"
         d="m 60.511719,245.18945 -1.953125,0 -0.01953,-5.8789 q -2.050781,-0.0391 -4.101562,-0.46875 -2.050781,-0.44922 -4.121094,-1.32813 l 0,-3.51562 q 1.992188,1.25 4.023438,1.89453 2.050781,0.625 4.21875,0.64453 l 0,-8.90625 q -4.316407,-0.70313 -6.289063,-2.38281 -1.953125,-1.67969 -1.953125,-4.60938 0,-3.18359 2.128906,-5.01953 2.128907,-1.83594 6.113282,-2.10937 l 0,-4.58985 1.953125,0 0,4.53125 q 1.816406,0.0781 3.515625,0.39063 1.699218,0.29297 3.320312,0.82031 l 0,3.41797 q -1.621094,-0.82031 -3.339844,-1.26953 -1.699218,-0.44922 -3.496093,-0.52735 l 0,8.33985 q 4.433593,0.68359 6.523437,2.4414 2.089844,1.75782 2.089844,4.80469 0,3.30078 -2.226563,5.21484 -2.207031,1.89454 -6.386718,2.1875 z m -1.953125,-20.91797 0,-8.00781 q -2.265625,0.25391 -3.457032,1.28906 -1.191406,1.03516 -1.191406,2.75391 0,1.67969 1.09375,2.61719 1.113281,0.9375 3.554688,1.34765 z m 1.953125,3.75 0,8.45704 q 2.480468,-0.33204 3.730468,-1.40625 1.269532,-1.07422 1.269532,-2.83204 0,-1.71875 -1.210938,-2.73437 -1.191406,-1.01563 -3.789062,-1.48438 z" />
    </g>
    <path
       sodipodi:nodetypes="ccccscssccccscscccccccccscscsssscccccsssccccsccsccc"
       inkscape:connector-curvature="0"
       id="path869"
       d="m 335.213,161.2392 -1.2896,-0.1212 -0.47924,-58.55111 -21.58544,8.01766 c -0.12654,0 -0.23009,-2.11964 -0.23009,-4.7103 l 0,-4.7103 7.27184,-2.653894 c 3.99952,-1.459637 9.01415,-3.285144 11.14365,-4.056685 l 3.8718,-1.402797 0.003,-2.514563 c 0,-1.38301 -0.10985,-2.514563 -0.24654,-2.514563 l -22.03355,7.868709 c 0,0 -0.009,-1.662551 -0.009,-4.59701 0,-4.118403 0.0509,-4.637784 0.47573,-4.854737 0.26165,-0.13362 5.27719,-1.991444 11.14563,-4.128496 l 10.6699,-3.885552 0,-17.455233 0,-17.455236 5.85358,0.03048 5.85358,0.03048 -0.0133,15.322015 c -0.0125,14.539014 0.0111,15.312271 0.46682,15.131347 0.45004,-0.178735 12.69794,-4.655418 28.20823,-10.310289 l 7.40776,-2.517164 c -0.11213,-0.06821 -0.20388,1.996005 -0.20388,4.587141 l 0,4.711157 -17.46602,6.355342 c -9.60631,3.495441 -17.68009,6.463641 -17.94174,6.596002 -0.39981,0.20225 -0.47573,0.62962 -0.47573,2.677697 0,1.550001 0.10588,2.437038 0.29093,2.437038 0.16,0 8.18344,-2.874757 17.82988,-6.388348 9.64643,-3.513592 17.59218,-6.388349 17.65723,-6.388349 0.065,0 0.0848,2.108071 0.0439,4.684603 l -0.0744,4.684606 -17.87379,6.511334 -17.87378,6.511334 c 0,0 -0.0459,26.289331 0,33.608121 0,12.40356 0.0853,17.39806 0.2971,17.39806 0.82532,0 6.07023,-1.21131 8.3692,-1.93285 3.50176,-1.09905 9.63224,-4.17603 12.80942,-6.42924 3.30447,-2.34347 8.58458,-7.62117 10.94392,-10.93888 2.22342,-3.12661 5.33569,-9.26882 6.45131,-12.73202 0.44966,-1.39582 1.05786,-3.72009 1.35159,-5.16505 0.53874,-2.65024 1.16192,-8.96378 0.92296,-9.35043 -0.071,-0.11485 2.58832,-0.20881 5.90953,-0.20881 l 6.03855,0 -0.17436,3.33009 c -0.40807,7.79327 -2.44518,15.59549 -5.91041,22.63698 -8.53964,17.35295 -24.92584,29.38786 -44.02369,32.33344 -2.82308,0.43541 -10.89819,0.74286 -13.38152,0.50947 z"
       style="fill:#394050;fill-opacity:1;stroke-width:0.27184463" />
  </g>
</svg>
