<?xml version="1.0" encoding="UTF-8" standalone="no"?>
<svg
   xmlns:dc="http://purl.org/dc/elements/1.1/"
   xmlns:cc="http://creativecommons.org/ns#"
   xmlns:rdf="http://www.w3.org/1999/02/22-rdf-syntax-ns#"
   xmlns:svg="http://www.w3.org/2000/svg"
   xmlns="http://www.w3.org/2000/svg"
   xmlns:sodipodi="http://sodipodi.sourceforge.net/DTD/sodipodi-0.dtd"
   xmlns:inkscape="http://www.inkscape.org/namespaces/inkscape"
   viewBox="0 0 511.99999 511.99999"
   height="512"
   width="512"
   version="1.1"
   id="svg2"
   inkscape:version="0.91 r13725"
   sodipodi:docname="etherape.svg">
  <sodipodi:namedview
     pagecolor="#ffffff"
     bordercolor="#666666"
     borderopacity="1"
     objecttolerance="10"
     gridtolerance="10"
     guidetolerance="10"
     inkscape:pageopacity="0"
     inkscape:pageshadow="2"
     inkscape:window-width="1366"
     inkscape:window-height="715"
     id="namedview18"
     showgrid="false"
     inkscape:zoom="0.40624999"
     inkscape:cx="-144.35802"
     inkscape:cy="395.44859"
     inkscape:window-x="0"
     inkscape:window-y="24"
     inkscape:window-maximized="1"
     inkscape:current-layer="svg2" />
  <metadata
     id="metadata8">
    <rdf:RDF>
      <cc:Work
         rdf:about="">
        <dc:format>image/svg+xml</dc:format>
        <dc:type
           rdf:resource="http://purl.org/dc/dcmitype/StillImage" />
        <dc:title />
      </cc:Work>
    </rdf:RDF>
  </metadata>
  <defs
     id="defs6">
    <filter
       height="1.096"
       y="-0.048"
       width="1.096"
       x="-0.048"
       id="filter4329"
       style="color-interpolation-filters:sRGB">
      <feGaussianBlur
         id="feGaussianBlur4331"
         stdDeviation="2.1324205" />
    </filter>
    <filter
       height="1.0327445"
       y="-0.016372267"
       width="1.0399742"
       x="-0.019987123"
       id="filter4376"
       style="color-interpolation-filters:sRGB">
      <feGaussianBlur
         id="feGaussianBlur4378"
         stdDeviation="1.1736058" />
    </filter>
    <filter
       height="1.0570984"
       y="-0.0285492"
       width="1.0632123"
       x="-0.031606145"
       id="filter4436"
       style="color-interpolation-filters:sRGB">
      <feGaussianBlur
         id="feGaussianBlur4438"
         stdDeviation="0.63519096" />
    </filter>
    <clipPath
       clipPathUnits="userSpaceOnUse"
       id="clipPath1972">
      <path
         d="M 0,800 H 800 V 0 H 0 Z"
         id="path1970"
         inkscape:connector-curvature="0" />
    </clipPath>
    <clipPath
       clipPathUnits="userSpaceOnUse"
       id="clipPath1960">
      <path
         d="m 395.167,443.667 c 0.166,-1.501 8.667,-15.167 24.833,-21.833 v 0 c 16.167,-6.668 31,-6.001 36,-4.334 v 0 c 5,1.667 8.25,3.25 8.25,3.25 v 0 l 2.5,8.916 c 0,0 -14.416,-4.5 -34.083,1 v 0 c -19.667,5.501 -25.834,12.001 -28.833,14.667 v 0 c -3.001,2.667 -7.182,8.219 -7.182,8.219 v 0 c 0,0 -1.652,-8.385 -1.485,-9.885"
         id="path1958"
         inkscape:connector-curvature="0" />
    </clipPath>
    <clipPath
       clipPathUnits="userSpaceOnUse"
       id="clipPath1752">
      <path
         d="m 365.666,463 c -8.015,-29.121 -16.06,-60.833 -16,-91.482 v 0 c 0.033,-16.568 -2.033,-26.075 -1.333,-42.185 v 0 c 0.333,-7.667 -0.233,-20.738 3,-25.667 v 0 c 5.121,-7.805 -1.886,-13.928 6,-10.333 v 0 C 380,303.666 409,297.667 422.667,290.667 v 0 c 11.819,-6.054 19.666,-13.667 26.666,-21.334 v 0 c 4.744,8.372 7.917,13.163 12.315,21.924 v 0 c 8.129,16.196 14.591,33.167 22.18,49.756 v 0 c 10.155,22.197 18.181,45.723 23.14,69.594 v 0 c 2.543,12.243 5.177,24.224 -2.954,34.779 v 0 c -18.475,23.984 -53.569,32.892 -82.498,33.04 v 0 c -0.197,0.001 -0.397,0.001 -0.593,0.001 v 0 C 398.946,478.428 379.375,472.141 365.666,463"
         id="path1750"
         inkscape:connector-curvature="0" />
    </clipPath>
    <clipPath
       clipPathUnits="userSpaceOnUse"
       id="clipPath1676">
      <path
         d="M 0,800 H 800 V 0 H 0 Z"
         id="path1674"
         inkscape:connector-curvature="0" />
    </clipPath>
  </defs>
  <g
     id="g4469">
    <path
       d="m 161.06711,309.37463 c 0,0 -0.6432,-6.1896 -1.24688,-8.30095 -0.60369,-2.11136 -0.78201,-7.32276 -0.74971,-8.93694 0.0323,-1.61419 0.57792,-4.67145 0.57792,-4.67145 0,0 -4.41719,-3.19693 -6.0927,-4.19935 -1.67551,-1.00243 -6.94824,-1.79423 -8.73353,-1.3455 -1.78529,0.44872 -3.79495,0.005 -5.20573,-2.1227 -1.41077,-2.12751 -4.48899,-5.66099 -8.13705,-4.92657 -3.64807,0.73442 -9.27675,3.60923 -11.82396,5.81903 -2.5472,2.2098 -7.24613,7.04101 -7.24613,7.04101 0,0 9.00788,7.81031 12.71968,9.94349 3.71179,2.13317 14.46546,5.41652 18.86409,7.52307 4.39864,2.10655 17.074,4.17686 17.074,4.17686"
       style="fill:#fbcba4;fill-opacity:1;fill-rule:nonzero;stroke:none"
       id="path1820"
       inkscape:connector-curvature="0" />
    <path
       d="m 150.98722,322.85863 c 0,0 3.75217,0.11545 6.393,-2.73841 2.64083,-2.85385 2.73206,-5.39538 2.73206,-5.39538 l -4.0346,-6.17671 -8.69075,-1.46576 c 0,0 -0.40201,7.98536 0.14275,11.02407 0.54476,3.03871 0.11699,4.24127 3.45754,4.75219"
       style="fill:#fbcba4;fill-opacity:1;fill-rule:nonzero;stroke:none"
       id="path1824"
       inkscape:connector-curvature="0" />
    <path
       d="m 159.56716,285.87584 c -1.44022,5.15479 -0.97365,10.34191 -0.17267,15.56997 0.49563,3.23473 1.18281,6.51593 0.96649,9.80521 -0.11382,1.73366 -0.38155,3.47652 -1.07669,5.08035 -1.4437,3.32737 -6.47606,8.63281 -10.50871,3.94049 -0.57032,-0.66348 -1.61435,0.218 -1.03709,0.87419 4.30194,4.8889 10.78245,0.4725 12.8513,-4.35029 1.54509,-3.6002 1.28628,-7.61338 0.75684,-11.40203 -0.91663,-6.56648 -2.21173,-12.69968 -0.97479,-19.3487 0.0847,-0.45757 -0.67976,-0.61787 -0.80468,-0.16919"
       style="fill:#c87137;fill-opacity:1;fill-rule:nonzero;stroke:none"
       id="path1828"
       inkscape:connector-curvature="0" />
    <path
       d="m 155.43518,316.44794 c 0,0 0.79421,-3.37525 0.89351,-6.32033 0.0993,-2.94508 -0.90467,-9.26301 -2.64959,-10.83201 -1.74492,-1.569 -4.15571,-0.12352 -4.90955,1.234 -0.75384,1.35752 -2.5996,-5.25984 -5.41634,-5.71991 -2.81675,-0.46007 -4.25502,2.82156 -4.25502,2.82156 0,0 -1.70454,-3.58674 -4.57214,-3.523 l -2.8676,0.0637 c 0,0 1.37934,-2.35427 -2.2792,-3.11378 -3.65854,-0.75951 -11.48741,7.158 -13.74892,11.23056 -2.26151,4.07257 -3.74015,9.37192 -2.54326,12.10071 1.1969,2.72879 1.95314,3.26874 3.32681,3.21549 1.37367,-0.0533 6.21141,-3.75131 6.21141,-3.75131 0,0 -0.6925,2.32765 1.81914,5.93053 2.51163,3.60288 3.97086,3.30911 5.63589,2.81761 1.66504,-0.49151 3.10571,-1.87566 4.06536,-3.43091 0.95965,-1.55526 2.17595,-3.83206 2.17595,-3.83206 0,0 0.78768,5.02174 3.09918,6.52133 2.3115,1.4996 3.53021,1.12028 4.60204,0.0114 1.07183,-1.10894 3.24778,-4.94099 3.24778,-4.94099 0,0 0.6755,4.57541 3.38814,4.18561 2.71264,-0.3898 4.77641,-4.66818 4.77641,-4.66818"
       style="fill:#fbcba4;fill-opacity:1;fill-rule:nonzero;stroke:none"
       id="path1836"
       inkscape:connector-curvature="0" />
    <path
       d="m 209.02681,128.13219 c -12.47192,19.49763 -17.66078,51.51362 -18.54547,61.86442 -2.3865,13.00906 -9.99982,16.7245 -11.38322,24.17219 -1.51282,8.13754 -5.90124,14.68862 -9.8339,21.85051 -4.44581,8.09565 -8.34902,16.49702 -12.70129,24.74407 -2.13399,4.04315 -4.49514,8.46285 -6.90213,12.20405 -2.17865,3.38566 -6.09252,6.46078 -7.87888,10.07811 2.96529,1.52625 6.49122,-1.98167 7.0187,2.54977 0.83881,-0.81034 2.04778,-1.07391 2.86857,-1.90366 -0.0671,1.64514 0.75173,2.62138 1.37366,4.06295 3.227,-3.83751 4.83705,0.63032 7.82862,2.13449 2.36074,-5.60984 3.60829,-11.96572 6.61187,-17.24393 3.42871,-6.02544 8.90737,-11.13527 13.12755,-16.67108 9.09943,-11.93723 20.63274,-22.6001 29.15212,-34.79569 -1.50573,0.18077 -3.43062,-0.0444 -4.91971,0.36987 0.79304,-2.78393 1.9648,-5.46565 3.23823,-7.98223 -1.5391,0.41166 -3.54645,0.75647 -4.99878,0.85111 -0.41952,-9.84691 7.97946,-23.28832 12.21568,-31.67528 16.58037,-32.82781 29.86794,-73.04024 25.20381,-84.491313 z"
       style="fill:#c87137;fill-opacity:1;fill-rule:nonzero;stroke:none"
       id="path1840"
       inkscape:connector-curvature="0"
       sodipodi:nodetypes="cccccccccccccccccccc" />
    <path
       d="m 151.97226,299.11579 c 4.92862,1.78353 3.43885,10.54486 3.73189,14.57456 0.0373,0.52266 0.85048,0.54312 0.9977,0.0774 0.96215,-3.05216 0.61138,-6.61794 0.0325,-9.72838 -0.5173,-2.78076 -1.37164,-5.34218 -4.27036,-6.3061 -0.89543,-0.29793 -1.38187,1.06043 -0.49176,1.38247"
       style="fill:#c87137;fill-opacity:1;fill-rule:nonzero;stroke:none"
       id="path1844"
       inkscape:connector-curvature="0" />
    <path
       d="m 148.85498,320.42431 c -1.13498,-2.82056 -1.50569,-21.85359 3.30642,-21.22021 0.99469,0.13165 1.12667,-1.52511 0.11356,-1.55927 -3.61247,-0.12428 -4.38386,3.04667 -4.72481,6.0922 -0.58221,5.1923 -1.91296,12.28482 0.10882,17.25567 0.32197,0.79189 1.5129,0.21953 1.19601,-0.56839"
       style="fill:#c87137;fill-opacity:1;fill-rule:nonzero;stroke:none"
       id="path1848"
       inkscape:connector-curvature="0" />
    <path
       d="m 141.13624,295.70571 c 1.83786,-0.59043 3.84626,1.03003 4.82685,2.44745 0.95485,1.38009 0.95891,2.90424 1.49802,4.41715 0.17095,0.47915 0.77977,0.30013 0.95696,-0.0487 1.9412,-3.81802 -3.69184,-9.74832 -7.60289,-8.5092 -1.04465,0.33178 -0.73375,2.03228 0.32106,1.69328"
       style="fill:#c87137;fill-opacity:1;fill-rule:nonzero;stroke:none"
       id="path1852"
       inkscape:connector-curvature="0" />
    <path
       d="m 138.49292,319.61635 c -1.49247,-3.77465 -0.91609,-8.19195 -0.37171,-12.12319 0.43868,-3.16791 0.94606,-9.46303 3.40447,-11.98077 0.76034,-0.77864 -0.32094,-2.08665 -1.10037,-1.30613 -2.86637,2.8755 -3.20244,8.42089 -3.77471,12.29343 -0.66311,4.49049 -1.28771,9.46071 0.50153,13.75385 0.36984,0.88587 1.69001,0.24568 1.34079,-0.63719"
       style="fill:#c87137;fill-opacity:1;fill-rule:nonzero;stroke:none"
       id="path1856"
       inkscape:connector-curvature="0" />
    <path
       d="m 146.86386,316.11528 c -0.95384,1.79792 -1.20763,3.92507 -2.99575,5.17695 -2.02989,1.42275 -4.2501,0.30026 -5.36767,-1.6796 -0.47473,-0.84081 -1.8427,-0.18511 -1.35514,0.64401 1.25817,2.13608 3.64865,3.78841 6.19246,2.86169 2.5962,-0.94602 4.08,-4.17893 4.16394,-6.77616 0.009,-0.31309 -0.46365,-0.55509 -0.63784,-0.22689"
       style="fill:#c87137;fill-opacity:1;fill-rule:nonzero;stroke:none"
       id="path1860"
       inkscape:connector-curvature="0" />
    <path
       d="m 126.27478,320.86769 c -4.70266,-3.4242 -1.56982,-10.449 0.10551,-14.63471 1.13304,-2.8288 6.2776,-16.13056 11.66011,-8.92924 0.49036,0.65671 1.38006,-0.0499 1.13138,-0.72793 -0.93021,-2.53097 -3.46256,-4.04952 -6.20765,-3.24859 -3.02543,0.8822 -4.60502,4.46362 -5.9092,6.99961 -2.86344,5.56975 -8.60016,16.91057 -1.71405,21.87443 0.85133,0.61388 1.78001,-0.71722 0.9339,-1.33357"
       style="fill:#c87137;fill-opacity:1;fill-rule:nonzero;stroke:none"
       id="path1864"
       inkscape:connector-curvature="0" />
    <path
       d="m 136.06888,313.63657 c -0.86743,1.85359 -1.28914,3.88306 -2.50344,5.57533 -1.74652,2.43284 -4.64556,3.21261 -7.28649,1.64893 -0.9068,-0.53715 -1.8553,0.81615 -0.94192,1.34697 6.18494,3.59274 11.06999,-2.50207 11.53653,-8.40204 0.0386,-0.4924 -0.61473,-0.57523 -0.80468,-0.16919"
       style="fill:#c87137;fill-opacity:1;fill-rule:nonzero;stroke:none"
       id="path1868"
       inkscape:connector-curvature="0" />
    <path
       d="m 113.74784,314.55429 c -1.07495,-5.09466 1.76538,-10.36483 4.65278,-14.37191 1.52409,-2.11529 10.43913,-13.37572 13.30138,-6.16701 0.1691,0.42647 0.83426,0.36937 0.97117,-0.049 0.63502,-1.9406 -0.51156,-3.61648 -2.50967,-4.21777 -2.84534,-0.85499 -5.44418,1.25624 -7.41549,2.99569 -5.80347,5.1211 -12.53791,13.88309 -10.70965,22.13399 0.24206,1.08969 1.94132,0.77618 1.70948,-0.32396"
       style="fill:#c87137;fill-opacity:1;fill-rule:nonzero;stroke:none"
       id="path1872"
       inkscape:connector-curvature="0" />
    <path
       d="m 122.13696,313.33778 c -1.27022,1.14566 -2.34126,2.554 -4.00222,3.16508 -1.87833,0.692 -3.74664,0.0274 -4.37138,-1.95163 -0.38178,-1.20874 -2.09484,-0.67363 -1.66998,0.54502 0.74804,2.14428 2.56051,3.46854 4.86633,3.25049 2.55045,-0.24157 4.62675,-2.22438 6.00664,-4.25116 0.35404,-0.51999 -0.34261,-1.19698 -0.82939,-0.7578"
       style="fill:#c87137;fill-opacity:1;fill-rule:nonzero;stroke:none"
       id="path1876"
       inkscape:connector-curvature="0" />
    <path
       d="m 114.58179,286.60269 c 3.8193,-4.09501 10.19933,-9.31664 15.71938,-10.60334 6.84682,-1.59507 7.60361,6.37441 13.00772,7.63779 1.0036,0.23453 1.49401,-1.08014 0.54001,-1.51812 -3.36281,-1.54518 -4.21605,-5.40458 -7.25502,-7.23556 -2.24661,-1.35297 -4.95027,-1.25042 -7.3698,-0.51468 -5.82852,1.77306 -11.77553,6.7889 -15.73967,11.23014 -0.56065,0.62857 0.51783,1.62454 1.09738,1.00377"
       style="fill:#c87137;fill-opacity:1;fill-rule:nonzero;stroke:none"
       id="path1880"
       inkscape:connector-curvature="0" />
    <path
       d="m 318.75862,431.10632 c 0,0 -7.00448,7.01716 -10.76913,10.4659 -3.76464,3.44874 -8.82017,9.41831 -10.12767,11.77046 -1.3076,2.35113 -3.02022,4.05879 -0.46597,5.68909 2.55415,1.62929 5.6891,0.46597 7.02991,-1.54779 1.34091,-2.01274 3.08988,-5.09169 5.15557,-4.95338 2.0657,0.13831 3.60174,3.57823 3.31043,5.83034 -0.2913,2.25211 -2.33461,9.29285 -4.08348,12.37281 -1.74897,3.07896 -3.5195,9.4095 -3.2057,14.33746 0.31389,4.92898 2.03826,6.8113 3.90196,6.62782 1.86268,-0.18337 5.28011,-8.89948 6.43168,-9.35452 1.15248,-0.45615 2.58554,3.67828 2.71596,6.74356 0.13143,3.06518 1.17507,6.72492 3.17404,6.18543 1.99907,-0.53847 4.1894,-4.34524 4.39737,-7.44384 0.20798,-3.09859 1.34881,-7.14371 2.48165,-6.05888 1.13293,1.08586 1.84791,10.07848 3.55567,11.79212 1.70766,1.71261 3.79007,2.02063 4.68951,0.73469 0.89954,-1.28492 1.34587,-5.43302 0.72396,-8.27959 -0.62282,-2.84546 0.01,-6.84056 0.68467,-5.19761 0.67487,1.64397 5.50958,7.32425 8.38845,7.04084 2.87989,-0.28352 4.59544,-3.70188 2.5347,-7.26047 -2.06084,-3.5596 -5.15943,-3.76758 -6.50613,-8.7652 -1.34669,-4.99762 -1.60561,-12.83878 -2.80022,-18.0217 -1.19471,-5.18393 -4.47952,-15.97565 -5.10245,-18.82212 -0.62181,-2.84556 -0.55214,-3.87845 -4.88372,-6.18847 -4.33147,-2.30901 -11.23106,2.30305 -11.23106,2.30305"
       style="fill:#fbcba4;fill-opacity:1;fill-rule:nonzero;stroke:none"
       id="path1732"
       inkscape:connector-curvature="0" />
    <path
       d="m 307.1653,283.8138 c 3.05055,30.98672 17.21385,65.97269 36.67563,90.09867 -9.74968,7.32435 -15.0585,17.12034 -20.44958,28.00895 -5.65739,11.42477 -4.80816,21.78112 -8.07043,33.52211 1.90582,-1.07925 4.04951,-2.5041 5.72615,-3.80601 0.26808,1.61835 1.47817,3.87348 1.35506,5.89561 1.19701,-1.52557 3.53364,-2.61645 5.0084,-3.79075 0.23414,1.15894 1.71083,3.08925 1.93149,4.28851 2.14468,-3.71814 4.86389,-2.7156 6.77635,0.73344 5.49528,-20.63805 29.42834,-37.01502 27.68743,-59.9203 1.44201,1.02567 3.7088,1.41403 5.16324,2.81606 2.65963,-6.37703 -0.34524,-18.83797 -1.49786,-25.68926 -2.08677,-12.40049 -6.46409,-24.74273 -11.94802,-36.12133 -4.81498,-9.99262 -31.22964,-64.81656 -48.35786,-36.0357"
       style="fill:#c87137;fill-opacity:1;fill-rule:nonzero;stroke:none"
       id="path1736"
       inkscape:connector-curvature="0" />
    <path
       d="m 317.3937,431.87047 c -1.83362,2.56298 -5.36289,4.588 -7.70724,6.66362 -3.71196,3.28554 -7.42235,6.67045 -10.50877,10.56749 -1.76147,2.22241 -4.46697,5.59048 -3.81099,8.67892 0.43214,2.03417 2.86431,3.96685 5.01257,3.59941 1.55282,-0.26676 2.86632,-1.96386 3.93007,-2.99818 0.97656,-0.95083 2.08071,-2.61706 3.33059,-3.17823 2.92109,-1.31361 3.73037,0.60134 3.68446,3.03245 -0.12133,6.41751 -3.92052,12.77745 -5.72802,18.83665 -1.33392,4.47045 -2.33302,9.44455 0.22393,13.67662 1.57998,2.61476 3.81029,3.73726 5.98265,1.11323 1.17276,-1.4175 1.78621,-3.37812 2.46993,-5.05221 0.88699,-2.17326 2.3177,-6.28591 2.91954,-1.62127 0.38716,3.00512 -0.54665,9.72629 3.20216,11.08816 3.02194,1.09689 4.74971,-2.20776 5.47688,-4.51406 0.68102,-2.16017 0.85295,-4.41591 1.29304,-6.62623 0.0684,-0.34738 0.35576,-2.67092 0.7272,-2.72288 0.74289,-0.10392 1.49488,4.30379 1.52333,4.43643 0.56579,2.67254 0.79765,8.7485 4.28119,9.37516 3.53473,0.63599 5.27583,-3.07525 5.31452,-5.90272 0.0319,-2.36509 -0.95146,-4.59944 -1.05466,-6.92968 -0.11138,-2.49668 -0.0224,-1.39526 1.29053,0.28952 0.98423,1.26364 2.10667,2.5034 3.44869,3.39938 3.07392,2.05214 6.64827,1.76695 7.82988,-2.10366 0.77487,-2.54083 -0.1123,-4.67384 -1.6431,-6.69526 -2.68178,-3.54055 -5.82486,-5.67002 -6.18449,-10.45905 -0.38425,-5.10161 -1.16488,-10.0503 -2.268,-15.06472 -1.34185,-6.09494 -2.91769,-12.2007 -5.14226,-18.03841 -0.83992,-2.20539 -2.25625,-7.37879 -5.24843,-7.67316 -0.95626,-0.0936 -1.21609,1.3838 -0.25456,1.47896 2.78393,0.27383 4.92495,10.4948 5.50872,12.50583 1.80052,6.20984 3.3114,12.53131 4.42992,18.90064 0.70022,3.98598 0.17522,9.21096 2.08517,12.78029 1.48494,2.77495 4.19034,4.49194 5.88253,7.07924 1.744,2.66531 0.96085,8.2071 -3.14111,6.3639 -2.76638,-1.24209 -4.55374,-4.45207 -5.9784,-6.97952 -0.24856,-0.44032 -0.91677,-0.46381 -1.28944,-0.20549 -1.56759,1.08597 -1.34452,2.90369 -1.12939,4.59908 0.18361,1.44814 0.60492,2.86158 0.82287,4.30429 0.30135,1.98753 0.20311,9.51499 -4.0637,5.39277 -1.9549,-1.88938 -0.7382,-13.11605 -5.10513,-12.78361 -3.17244,0.24049 -3.02219,9.23946 -3.88666,11.37049 -1.15015,2.83532 -3.04014,2.87671 -4.25056,0.045 -0.65057,-1.52221 -0.39861,-3.8197 -0.55013,-5.4526 -0.13802,-1.49572 -0.089,-5.03115 -1.98943,-5.73158 -3.29629,-1.21558 -4.89937,6.56572 -5.83021,8.31441 -3.42784,6.43214 -5.34054,-4.33562 -4.88362,-7.17758 0.72804,-4.52777 2.54939,-8.82047 4.07762,-13.12023 1.31924,-3.7128 5.16926,-12.46431 1.01377,-15.76846 -4.73088,-3.76052 -8.2622,7.85305 -12.699,6.444 -8.49643,-2.69724 17.37705,-23.82496 19.24269,-27.12574 0.21762,-0.38464 -0.39923,-0.7723 -0.65715,-0.41139"
       style="fill:#c87137;fill-opacity:1;fill-rule:nonzero;stroke:none"
       id="path1740"
       inkscape:connector-curvature="0" />
    <path
       d="m 221.05731,117.86404 c -5.2325,30.39444 -10.23526,63.42473 -7.10711,94.56388 1.69101,16.83296 0.54173,26.70169 2.86564,43.00139 1.10531,7.75681 1.83798,21.0981 5.61623,25.78144 5.98483,7.42008 -0.52408,14.34331 7.13097,9.90108 21.99917,-12.76885 52.06897,-9.57289 66.65754,-3.82681 12.61602,4.96964 21.3527,11.92078 29.23305,19.01163 3.98226,-8.98205 6.72825,-14.16917 10.31998,-23.5119 6.64046,-17.27045 11.50929,-35.1627 17.56159,-52.77951 8.09882,-23.57232 13.90212,-48.28328 16.55242,-73.03577 1.35937,-12.69564 2.83733,-25.13515 -6.48014,-35.0467 -21.17454,-22.523982 -57.72691,-28.065476 -87.14013,-25.321687 -22.58813,2.106764 -42.07777,10.506957 -55.21004,21.262957"
       style="fill:#c87137;fill-opacity:1;fill-rule:nonzero;stroke:none"
       id="path1744"
       inkscape:connector-curvature="0" />
    <g
       style="fill:#a05a2c;fill-opacity:1"
       transform="matrix(1.0161914,-0.10004098,-0.10004098,-1.0161914,-104.21107,624.94233)"
       id="g1748"
       clip-path="url(#clipPath1752)">
      <g
         style="fill:#a05a2c;fill-opacity:1"
         id="g1754"
         transform="translate(371.5,293.5)">
        <path
           d="m 0,0 c -6.888,17.698 -9.005,36.818 -6.98,55.994 1.114,10.555 4.579,21.104 8.091,31.004 3.604,10.159 -1.062,19.337 -0.611,29.991 0.561,13.255 7.563,31.014 22.428,34.437 4.047,0.932 8.982,0.065 13.144,0.451 6.523,0.605 12.922,0.975 19.466,0.127 C 70.771,150.03 81.413,141.479 92.1,131.65 103.958,120.744 111.566,111.042 107.75,94.307 104.403,79.631 95.329,66.66 92.375,52.387 90.256,42.153 88.705,32.568 84.212,23.004 79.744,13.492 73.669,0.25 66,-7.167 58.725,-14.202 52.129,-13.304 43.879,-8.987 34.56,-4.111 24.106,-0.189 13.527,0.769 8.918,1.186 3.845,1.426 0,0"
           style="fill:#a05a2c;fill-opacity:1;fill-rule:nonzero;stroke:none"
           id="path1756"
           inkscape:connector-curvature="0" />
      </g>
    </g>
    <path
       d="m 223.44967,268.96945 c -13.11085,-1.18922 -26.55979,-11.19064 -37.87249,-17.51265 -15.13245,-8.45669 -26.27524,-17.70117 -38.3417,-29.99133 -27.40554,-27.91084 -46.0153,-70.51143 -28.26232,-109.46542 8.93643,-19.60808 30.4415,-30.788202 50.84981,-22.978134 16.80239,6.430026 27.92503,24.745664 17.7689,42.397104 -3.2855,5.71016 -11.36446,9.56722 -19.36987,7.94926 -7.68617,-1.55396 -12.37355,-12.39741 -1.77124,-11.50915 9.8419,0.82462 13.76499,0.18394 13.84742,-10.59965 0.094,-12.33404 -14.06249,-21.392651 -24.99018,-19.343141 -20.14876,3.779151 -25.92358,23.974791 -27.36341,37.322701 -2.26265,20.96723 6.91348,43.04409 17.51515,60.86208 17.69803,29.74378 45.07306,48.62128 76.02335,63.31455 2.99228,1.42096 7.09243,8.26936 1.96658,9.55378"
       style="fill:#c87137;fill-opacity:1;fill-rule:nonzero;stroke:none"
       id="path1768"
       inkscape:connector-curvature="0" />
    <path
       d="m 276.41534,249.39057 c 0,0 0.6297,-2.28542 2.83179,-2.50221 2.20208,-0.21679 3.65377,2.37675 3.65377,2.37675 z m 0.45111,15.00452 c 0,0 -0.31683,-3.21828 0.7023,-5.02902 1.01821,-1.80962 6.03052,-1.27703 6.03052,-1.27703 z m 38.46722,-17.4682 c -2.43254,-3.86468 -4.86803,-6.01867 -6.30594,-6.7318 -1.43904,-0.71405 -4.72293,-1.07411 -4.72293,-1.07411 0,0 -4.7142,4.22557 -11.2508,3.84303 -6.53558,-0.38263 -11.43894,-5.03011 -15.89314,-5.10462 -4.45318,-0.0746 -6.28548,2.15784 -7.03486,4.96807 -0.74938,2.81022 -1.3488,7.14371 -1.3488,7.14371 0,0 -2.81508,2.67192 -2.75139,5.0594 0.0647,2.38738 0.66697,6.77495 1.89793,10.58657 1.22995,3.81173 2.89641,10.31693 3.8077,12.622 0.91018,2.30415 3.4291,5.30563 5.8665,5.74902 2.43852,0.44431 5.20064,-1.02501 5.20064,-1.02501 0,0 4.08533,8.49051 7.13097,9.90108 3.04554,1.40956 4.31781,0.42962 5.01423,-1.178 0.69643,-1.60762 1.36056,-3.55374 1.36056,-3.55374 0,0 6.13046,-0.26185 10.38649,-3.93031 4.25613,-3.66745 6.0217,-6.57772 4.23061,-9.13784 -1.791,-2.5591 -4.36783,-0.93771 -5.72534,0.90634 -1.35762,1.84304 -4.07266,5.53115 -7.10159,4.29027 -3.02995,-1.24077 -5.41248,-4.59735 -2.63071,-7.60766 2.78176,-3.01031 6.73282,-6.30605 8.92022,-8.40212 2.18831,-2.09719 4.12267,-5.02305 6.03831,-6.40902 1.91563,-1.38598 4.20409,-2.46596 4.12076,-3.31245 -0.0834,-0.84751 3.22313,-3.73813 0.79058,-7.60281"
       style="fill:#fbcba4;fill-opacity:1;fill-rule:nonzero;stroke:none"
       id="path1772"
       inkscape:connector-curvature="0" />
    <path
       d="m 368.32263,145.94687 c 4.1069,5.23891 9.44553,23.36469 11.43088,32.73399 2.87484,13.56852 2.46282,24.48511 -1.57952,36.0669 -6.96688,19.95798 -30.91499,24.25892 -50.96759,24.51237 -7.9665,0.10094 -17.34594,-1.02879 -25.1741,-1.03382 2.76097,2.38563 4.78333,3.21976 7.48086,5.16942 -1.56636,0.68159 -3.50857,2.56884 -4.96158,3.60966 2.42498,0.52567 5.05676,0.82783 6.67339,2.01176 -1.20859,1.06396 -2.19039,2.58682 -3.13837,3.78621 4.54466,0.77461 3.41175,4.23308 1.61048,6.96833 7.79491,-7.05496 29.66814,-4.06272 39.01016,-3.7091 7.7508,0.29275 15.51517,-0.2459 23.25338,-0.15403 5.82544,0.0688 12.16652,1.66489 17.96023,0.76516 -0.21629,-0.87342 0.11654,-2.04714 -0.14732,-2.91382 2.63139,-0.62945 5.61723,1.61195 8.23849,2.15113 0.72048,-2.71812 -0.17516,-5.5521 -0.51692,-8.02302 5.03045,1.02946 9.19126,3.44966 13.15294,6.32758 4.3828,-12.69881 -6.60938,-57.24569 -10.17843,-68.33981 -3.77765,-11.74358 -15.22187,-45.18628 -26.78797,-53.48822 -6.84836,-4.91464 -6.55703,2.85971 -5.35901,13.55931"
       style="fill:#c87137;fill-opacity:1;fill-rule:nonzero;stroke:none"
       id="path1776"
       inkscape:connector-curvature="0" />
    <path
       d="m 304.5733,238.77791 c -2.28343,1.04768 -4.51899,2.35229 -6.93169,3.08744 -4.23754,1.29239 -7.98676,0.25992 -11.82776,-1.53818 -3.08166,-1.44294 -6.36034,-3.20918 -9.88839,-2.90187 -7.24024,0.63069 -6.69787,7.23425 -7.82055,12.75611 -0.12767,0.63127 0.90307,0.98125 1.1038,0.34176 1.05933,-3.37222 0.0948,-8.31307 3.36562,-10.76411 4.67947,-3.50494 10.56451,0.88994 14.94371,2.62069 6.3082,2.49198 11.88585,0.70034 17.42507,-2.92002 0.36634,-0.23922 0.0356,-0.86845 -0.36981,-0.68182"
       style="fill:#c87137;fill-opacity:1;fill-rule:nonzero;stroke:none"
       id="path1780"
       inkscape:connector-curvature="0" />
    <path
       d="m 283.48547,248.4723 c -1.05288,-1.74219 -7.31774,-2.88715 -7.40388,0.0733 -0.008,0.26964 0.30283,0.36624 0.50693,0.31331 0.50131,-0.12938 0.75158,-0.47414 1.23806,-0.67081 0.63267,-0.25416 1.35395,-0.25437 2.01904,-0.17928 1.17464,0.13369 2.23354,0.80103 3.39,0.86468 0.22696,0.0126 0.37116,-0.2007 0.24985,-0.40115"
       style="fill:#c87137;fill-opacity:1;fill-rule:nonzero;stroke:none"
       id="path1784"
       inkscape:connector-curvature="0" />
    <path
       d="m 266.4843,251.72929 c -1.52577,3.49099 -0.88854,6.81625 -0.0529,10.43696 1.26548,5.47554 2.48369,11.3046 4.47038,16.57062 1.86698,4.94641 6.712,7.76097 11.74391,4.99086 0.79898,-0.44085 0.0586,-1.82289 -0.7697,-1.41917 -7.15908,3.48741 -9.64706,-4.76532 -11.08491,-9.94891 -1.62902,-5.8748 -5.52097,-14.12065 -2.97303,-20.01676 0.37524,-0.86803 -0.95533,-1.48092 -1.33372,-0.6136"
       style="fill:#c87137;fill-opacity:1;fill-rule:nonzero;stroke:none"
       id="path1788"
       inkscape:connector-curvature="0" />
    <path
       d="m 287.00595,247.13241 c -1.94069,0.4332 -3.80426,1.12866 -5.77059,1.45767 -2.65468,0.44501 -5.18388,0.0384 -7.83307,-0.0446 -2.97045,-0.0944 -5.0624,0.58457 -6.81881,3.02503 -0.54954,0.76515 0.5882,1.70175 1.1351,0.93071 2.92258,-4.12306 8.20467,-1.95484 12.32419,-2.35116 2.57665,-0.2475 5.08871,-0.84879 7.21414,-2.35495 0.27717,-0.19658 0.11748,-0.74518 -0.25096,-0.66274"
       style="fill:#c87137;fill-opacity:1;fill-rule:nonzero;stroke:none"
       id="path1792"
       inkscape:connector-curvature="0" />
    <path
       d="m 284.91958,256.76537 c -1.62498,0.48215 -3.24081,0.62994 -4.91049,0.84562 -1.03951,0.13414 -2.27673,0.26107 -3.13306,0.93227 -1.64421,1.28743 -1.49539,4.54995 -0.99237,6.34525 0.28789,1.02746 1.89252,0.43239 1.564,-0.60132 -0.32579,-1.0268 -0.52089,-2.66465 -0.13371,-3.70316 0.54634,-1.46459 2.09566,-1.5063 3.40874,-1.67559 1.66867,-0.21557 3.23955,-0.34047 4.5516,-1.48952 0.32028,-0.27983 0.064,-0.77788 -0.35471,-0.65355"
       style="fill:#c87137;fill-opacity:1;fill-rule:nonzero;stroke:none"
       id="path1796"
       inkscape:connector-curvature="0" />
    <path
       d="m 290.02834,253.91597 c 0.065,-0.006 0.055,-0.10802 -0.01,-0.10162 -0.065,0.006 -0.055,0.10802 0.01,0.10162"
       style="fill:#c87137;fill-opacity:1;fill-rule:nonzero;stroke:none"
       id="path1800"
       inkscape:connector-curvature="0" />
    <path
       d="m 290.2631,253.12088 c -5.24772,2.5687 -12.84603,8.23352 -15.77563,13.49412 -2.60521,4.67871 3.04,8.90943 5.3046,12.50643 2.62685,4.17081 5.26957,12.55709 10.27692,14.59229 3.78248,1.53709 6.21903,-2.15541 6.76557,-5.4002 0.0906,-0.53836 -0.6973,-0.79836 -0.92182,-0.28581 -4.33784,9.8933 -9.73045,-0.62011 -11.83703,-4.49842 -1.5615,-2.87514 -3.18144,-5.66656 -5.16194,-8.28498 -2.15723,-2.85036 -4.68148,-4.43642 -2.32209,-9.02731 0.70266,-1.36711 2.49396,-2.70289 3.5619,-3.74685 3.27667,-3.20472 7.01887,-5.735 10.42664,-8.76487 0.25945,-0.23075 0.0519,-0.7654 -0.31712,-0.5844"
       style="fill:#c87137;fill-opacity:1;fill-rule:nonzero;stroke:none"
       id="path1804"
       inkscape:connector-curvature="0" />
    <path
       d="m 295.0926,276.81924 c -1.01176,-4.96185 5.68744,-7.57597 8.63248,-10.58491 2.98605,-3.05094 4.81283,-6.91324 8.67163,-9.01995 0.62213,-0.34033 0.0518,-1.30817 -0.58156,-1.07139 -4.95197,1.85214 -7.37706,7.94342 -11.35861,11.17957 -3.41043,2.77362 -7.83864,4.4326 -6.77746,9.63584 0.18162,0.88606 1.59615,0.75706 1.41352,-0.13916"
       style="fill:#c87137;fill-opacity:1;fill-rule:nonzero;stroke:none"
       id="path1808"
       inkscape:connector-curvature="0" />
    <path
       d="m 311.46611,274.87837 c -1.23924,-1.99883 -3.20538,-2.58506 -5.19729,-1.15053 -1.09803,0.79042 -1.62309,1.96049 -2.32444,3.06994 -2.2164,3.51076 -7.12404,4.35404 -8.89546,-0.16365 -0.33297,-0.84961 -1.66019,-0.34445 -1.3258,0.50913 1.0152,2.58931 3.13389,4.27686 6.01552,4.05268 1.24337,-0.0957 2.47881,-0.58468 3.45073,-1.3637 1.49684,-1.20008 4.76347,-8.11295 7.20413,-4.17622 0.44889,0.72431 1.52028,-0.0553 1.07261,-0.77765"
       style="fill:#c87137;fill-opacity:1;fill-rule:nonzero;stroke:none"
       id="path1812"
       inkscape:connector-curvature="0" />
    <path
       d="m 294.24536,260.47369 c -4.07782,3.20664 -9.25446,7.25816 -9.26812,12.90375 -0.0116,4.75991 2.89654,11.41273 6.98601,14.04618 6.74062,4.34143 22.49079,-3.42898 19.58479,-12.39469 -0.26241,-0.81039 -1.49712,-0.33486 -1.23674,0.47573 1.8223,5.6598 -5.69751,9.96456 -9.76457,11.06061 -5.67539,1.52833 -9.73678,-1.05967 -12.19783,-6.01633 -2.06064,-4.15165 -2.88316,-8.61911 -0.15106,-12.69674 1.70771,-2.54956 4.60645,-4.45505 6.60097,-6.79069 0.2962,-0.34724 -0.18581,-0.87642 -0.55345,-0.58782"
       style="fill:#c87137;fill-opacity:1;fill-rule:nonzero;stroke:none"
       id="path1816"
       inkscape:connector-curvature="0" />
    <path
       d="m 254.25686,54.519039 c -2.10354,-8.037145 -6.58122,-20.387973 -14.42187,-24.824265 -11.55875,-6.538908 -20.59382,0.237985 -26.53973,10.649729 -4.20624,7.363461 -7.83038,15.908047 -9.16191,24.311068 -1.28763,8.129876 -2.17728,17.842742 -0.18257,25.952163 1.89536,7.704683 5.74569,14.537666 13.36013,17.478716 5.72116,2.20913 10.35341,1.92444 15.50759,-1.06291 6.53051,-3.78567 11.70893,-8.465295 15.71239,-15.116216 3.55811,-5.911423 5.48022,-13.359883 5.45922,-20.253832 -0.0164,-5.137822 1.7328,-11.059952 0.26675,-17.134453"
       style="fill:#fbcba4;fill-opacity:1;fill-rule:nonzero;stroke:none"
       id="path1884"
       inkscape:connector-curvature="0" />
    <path
       d="m 255.21018,54.15247 c -3.09746,-11.515046 -8.90392,-26.576166 -22.68472,-27.973379 -14.92073,-1.511746 -23.20242,17.430613 -27.00965,28.81586 -4.53021,13.546466 -6.5451,32.100683 1.01476,44.96173 3.3078,5.626419 8.96038,9.619399 15.50574,10.445339 7.01204,0.88671 13.3196,-3.14173 18.4581,-7.4973 6.13277,-5.199385 10.68051,-12.043431 12.89387,-19.785281 1.37754,-4.819488 1.37868,-9.529125 1.77013,-14.463925 0.38617,-4.873745 1.04742,-9.371336 0.11496,-14.236339 -0.24604,-1.279874 -2.28074,-1.092903 -2.03238,0.200082 0.93941,4.904334 0.17954,9.577853 -0.15539,14.492724 -0.25894,3.800294 -0.26455,7.516138 -1.10406,11.255592 -2.01193,8.964555 -7.20179,16.790121 -14.49135,22.339377 -7.95676,6.05717 -17.62383,8.29039 -25.62192,0.78532 -6.20848,-5.825147 -7.97518,-15.130805 -8.06963,-23.281603 -0.10529,-9.032126 1.28379,-18.382717 4.45069,-26.850483 2.86736,-7.664641 6.77412,-16.44431 13.33006,-21.639185 7.58564,-6.012421 17.3566,-3.594567 23.1136,3.720714 4.3861,5.573615 6.7907,12.67718 8.61018,19.44435 0.34107,1.26539 2.24656,0.526816 1.90701,-0.733593"
       style="fill:#c87137;fill-opacity:1;fill-rule:nonzero;stroke:none"
       id="path1888"
       inkscape:connector-curvature="0" />
    <path
       d="m 248.72811,62.800394 c -0.0874,-7.266022 -3.85917,-15.750453 -11.28326,-18.196194 -6.69574,-2.20758 -15.67211,0.423462 -19.63179,6.289257 -4.69157,6.946444 -6.14209,16.475459 -5.51684,24.681736 0.5323,7.001622 2.50007,17.036495 9.07405,20.92543 0.42493,0.251615 0.88573,-0.362176 0.59733,-0.727783 -8.54382,-10.859848 -10.36357,-24.914954 -5.59477,-37.945211 2.71998,-7.431586 7.61499,-11.759084 15.75143,-12.291269 10.12756,-0.661513 15.1442,8.482209 15.98499,17.324959 0.0378,0.404644 0.62384,0.33361 0.61886,-0.06093"
       style="fill:#c87137;fill-opacity:1;fill-rule:nonzero;stroke:none"
       id="path1892"
       inkscape:connector-curvature="0" />
    <path
       d="m 227.72667,85.702894 c 2.00277,2.208898 4.76806,3.168937 7.75056,2.624965 1.91201,-0.34932 3.13823,-1.380135 4.73115,-2.354707 3.56792,-2.184785 6.93122,-1.726866 10.88563,-1.986885 0.65967,-0.04237 0.66472,-1.012475 0.042,-1.136882 -2.80096,-0.561502 -5.8024,-0.585118 -8.5296,0.373892 -4.69379,1.650243 -8.83474,7.394343 -13.91046,1.777806 -0.51131,-0.566312 -1.48717,0.131017 -0.96926,0.701811"
       style="fill:#c87137;fill-opacity:1;fill-rule:nonzero;stroke:none"
       id="path1896"
       inkscape:connector-curvature="0" />
    <path
       d="m 233.84506,60.838504 c -7.66482,2.998529 0.57861,14.94477 3.58103,18.365509 0.20819,-0.334464 0.4174,-0.669029 0.62559,-1.003493 -3.05135,-0.540957 -6.74455,-1.327563 -9.23652,1.072448 -1.6879,1.625198 -2.40284,4.368416 -1.082,6.424875 0.41092,0.640837 1.36157,-0.05196 0.95584,-0.692281 0.73679,-4.866194 2.92413,-6.858633 6.56202,-5.977316 0.86395,0.125286 1.72563,0.269262 2.58383,0.429999 0.51378,0.09101 1.00076,-0.569475 0.62458,-1.003393 -2.33974,-2.703108 -10.25696,-13.701597 -4.09866,-16.275808 0.84945,-0.355526 0.34976,-1.679175 -0.51571,-1.34054"
       style="fill:#c87137;fill-opacity:1;fill-rule:nonzero;stroke:none"
       id="path1900"
       inkscape:connector-curvature="0" />
    <path
       d="m 252.69881,77.419851 c -3.24073,0.182577 -6.04241,-0.573803 -8.39083,-2.916943 -2.33604,-2.332045 -2.61696,-5.185511 -3.57995,-8.161645 -1.08131,-3.344122 -2.96576,-5.716521 -6.69589,-5.554509 -0.93278,0.04053 -0.78792,1.57456 0.14226,1.445024 5.78098,-0.810239 5.55136,6.320772 6.98665,9.66493 0.62324,1.453079 1.5236,2.740361 2.69386,3.809203 2.43385,2.220839 5.79062,3.289894 8.97897,2.283434 0.32834,-0.104147 0.18633,-0.587796 -0.13507,-0.569494"
       style="fill:#c87137;fill-opacity:1;fill-rule:nonzero;stroke:none"
       id="path1904"
       inkscape:connector-curvature="0" />
    <path
       d="m 367.58803,78.557061 c 4.59561,-6.920581 12.83495,-17.15282 21.69095,-18.807534 13.05424,-2.439447 19.40474,6.90232 21.65372,18.678402 1.59161,8.329688 2.24968,17.58853 0.78549,25.967671 -1.41796,8.10885 -3.72522,17.58574 -8.24184,24.61039 -4.29155,6.67415 -10.14768,11.89042 -18.30572,12.20311 -6.12798,0.23493 -10.4167,-1.5355 -14.32447,-6.03372 -4.95031,-5.69763 -8.33195,-11.80312 -9.9626,-19.39329 -1.44906,-6.74618 -0.85274,-14.41503 1.40242,-20.929743 1.68088,-4.854481 1.94661,-11.02457 5.30205,-16.295286"
       style="fill:#fbcba4;fill-opacity:1;fill-rule:nonzero;stroke:none"
       id="path1908"
       inkscape:connector-curvature="0" />
    <path
       d="m 368.3773,79.204867 c 4.44483,-6.586638 9.89829,-13.839974 17.33488,-17.218242 7.3638,-3.346476 15.64358,-1.35948 20.07475,5.432738 4.31155,6.609046 5.22897,15.500684 5.62721,23.193716 0.4821,9.326442 -1.11904,18.815901 -4.09612,27.658981 -2.69362,8.00152 -7.44595,16.72797 -15.51744,20.35856 -9.29658,4.18316 -17.55335,-0.0819 -23.09191,-7.78392 -5.67179,-7.88799 -8.45687,-17.52227 -7.34371,-27.22636 0.44972,-3.915527 1.739,-7.567926 2.73039,-11.35927 1.20479,-4.604455 2.00613,-9.096344 4.42027,-13.27708 0.65831,-1.140099 -1.2038,-1.98282 -1.85601,-0.853583 -1.98188,3.433293 -2.99376,7.006055 -3.89193,10.837473 -0.98337,4.19584 -2.50648,8.266284 -3.1761,12.53282 -1.30559,8.31222 -0.0186,16.83093 3.7303,24.3634 5.87486,11.80595 17.32311,21.22454 30.69379,13.93258 13.4136,-7.31466 18.26317,-26.28851 19.34279,-40.345859 0.9066,-11.823048 0.21157,-31.1396 -11.09582,-38.53332 -14.15634,-9.255622 -28.26644,6.325662 -35.46369,16.991929 -0.72976,1.081466 0.84238,2.386749 1.57835,1.295437"
       style="fill:#c87137;fill-opacity:1;fill-rule:nonzero;stroke:none"
       id="path1912"
       inkscape:connector-curvature="0" />
    <path
       d="m 370.69898,88.442657 c 3.40171,-7.541794 10.25663,-14.358516 19.19672,-11.698802 8.70224,2.588733 12.45104,9.30756 12.47711,18.05609 0.0397,13.587025 -6.28098,25.924595 -17.61945,33.254535 -0.38973,0.25178 -0.14395,0.9766 0.33374,0.87827 7.23294,-1.49698 12.22844,-9.8585 15.03934,-16.08524 3.41954,-7.57946 5.20076,-16.959418 3.28405,-25.183227 -1.67011,-7.167665 -9.21779,-12.890725 -16.607,-13.03336 -7.80243,-0.150181 -14.29592,6.648403 -16.66984,13.551369 -0.12758,0.371673 0.39782,0.632892 0.56533,0.260365"
       style="fill:#c87137;fill-opacity:1;fill-rule:nonzero;stroke:none"
       id="path1916"
       inkscape:connector-curvature="0" />
    <path
       d="m 381.8795,115.68397 c -3.86373,2.14003 -7.52329,0.0275 -9.80839,-3.05852 -0.87807,-1.18585 -1.64336,-2.29969 -2.8228,-3.21167 -2.21659,-1.71279 -5.12421,-2.75321 -7.88515,-3.04368 -0.62517,-0.0657 -0.95957,0.81065 -0.33819,1.08807 2.40596,1.07236 5.13499,1.4973 7.32002,3.05622 2.13215,1.52205 3.12846,4.04447 5.23824,5.57898 2.72623,1.9807 6.0932,2.16327 8.99808,0.55986 0.67248,-0.37094 -0.0343,-1.33868 -0.70181,-0.96926"
       style="fill:#c87137;fill-opacity:1;fill-rule:nonzero;stroke:none"
       id="path1920"
       inkscape:connector-curvature="0" />
    <path
       d="m 383.93174,92.258331 c 1.47175,1.306957 0.055,5.717836 -0.91419,7.108114 -0.78214,1.122535 -1.73849,2.080605 -2.7403,3.004175 -1.68861,1.55549 -3.52926,2.80686 -5.5123,3.9563 -0.48742,0.2809 -0.24284,1.06636 0.26566,1.14558 0.86395,0.12529 1.72462,0.26937 2.58292,0.43112 3.7326,0.34256 5.15583,2.93889 4.27052,7.78687 -0.58952,0.47359 0.0946,1.43022 0.6933,0.95574 1.92753,-1.52566 2.13486,-4.33896 1.05072,-6.43 -1.5934,-3.07414 -5.31608,-3.52438 -8.38073,-4.00247 0.0889,0.38217 0.17785,0.76434 0.26677,1.14651 4.01322,-2.28916 15.60501,-10.891704 9.32828,-16.211474 -0.70756,-0.600347 -1.5999,0.497125 -0.91065,1.109535"
       style="fill:#c87137;fill-opacity:1;fill-rule:nonzero;stroke:none"
       id="path1924"
       inkscape:connector-curvature="0" />
    <path
       d="m 361.32747,101.22268 c 2.79948,1.92218 6.16333,2.08352 9.2747,0.72244 4.15311,-1.81659 8.20294,-12.259187 13.48181,-9.581734 0.83798,0.424366 1.47547,-0.979427 0.60677,-1.319713 -2.91031,-1.14071 -5.2373,-0.243673 -7.31177,2.019815 -1.51501,1.651271 -2.36938,3.822347 -3.90205,5.460992 -3.15104,3.36576 -7.71923,3.88423 -11.83921,2.20183 -0.29508,-0.12075 -0.59962,0.2981 -0.31025,0.49637"
       style="fill:#c87137;fill-opacity:1;fill-rule:nonzero;stroke:none"
       id="path1928"
       inkscape:connector-curvature="0" />
    <path
       d="m 312.98218,58.02532 c -7.52919,-27.390743 -38.5882,-17.768472 -57.42016,-9.764437 -5.15956,2.192701 -11.6618,5.431786 -15.35271,9.233406 4.5314,1.734233 9.00316,3.331716 12.72513,6.953518 -4.21583,1.314873 -9.99265,3.386733 -14.05261,5.617905 2.53653,2.315386 7.57815,5.063393 11.69329,6.790381 -4.84781,1.513553 -8.40645,3.146441 -13.59302,5.658847 2.91923,1.814967 6.64993,3.524396 9.13551,6.333194 -5.94709,2.124533 -13.63499,4.805209 -17.92977,13.385036 4.2599,-2.420153 9.19467,-3.394361 12.3144,-3.982624 -3.00106,4.420124 -11.36595,12.188894 -9.91739,18.596524 5.57707,0.3077 11.5229,-3.11157 16.78801,-4.63851 13.03518,-3.77963 26.11091,-4.92735 39.5281,-3.34659 14.9369,1.75948 31.99765,4.43544 46.35706,9.21908 11.32972,3.77473 18.99864,12.38647 27.09948,19.93478 2.2447,-5.66207 -0.56914,-14.17104 -3.40233,-19.14545 3.36472,1.18114 8.5574,4.6089 10.12776,7.53242 0.30558,-6.44283 -2.38932,-10.36685 -6.12676,-14.8962 2.51556,1.09134 6.76215,5.34176 8.068,7.69416 -0.21806,-6.39436 -2.49574,-12.32329 -7.23539,-18.57007 4.19873,2.13841 6.0563,4.94645 8.92985,8.19416 0.38516,-5.34255 -3.41926,-13.157864 -6.13785,-17.729032 4.83059,3.209979 8.71275,6.916561 12.17045,11.397522 1.63154,-8.909662 -4.2388,-14.54134 -6.74529,-22.252551 3.77945,1.131074 6.54416,2.668831 9.74076,4.883324 0.11556,-27.904277 -47.95448,-52.292998 -66.76452,-27.098793"
       style="fill:#c87137;fill-opacity:1;fill-rule:nonzero;stroke:none"
       id="path1932"
       inkscape:connector-curvature="0" />
    <path
       d="m 306.05403,81.451309 c -9.17525,-6.788947 -14.24637,-15.725176 -26.04279,-17.955942 -4.86053,-0.918962 -10.62541,-1.59191 -15.14813,0.805892 -6.26613,3.323576 -6.81547,9.645736 -6.44263,16.017678 0.52778,9.019263 6.1273,14.276419 10.99064,21.498073 -11.72608,-1.52665 -25.04831,11.52073 -25.16266,21.45893 -0.10742,9.33112 3.86421,17.95902 10.14521,22.61349 8.33633,6.17794 20.55621,12.06384 32.01318,14.08793 10.4337,1.84369 21.61289,1.55678 32.05241,0.28074 8.46559,-1.03451 17.49789,-0.99207 24.43557,-6.91608 6.86096,-5.85899 9.81727,-14.67335 8.60387,-23.69488 -0.8601,-6.39169 -8.93066,-17.11345 -16.46687,-17.87365 8.07774,-0.75316 17.76262,-6.17194 20.71129,-13.854844 2.84982,-7.4259 1.75143,-17.1657 -5.66938,-20.818388 -13.28479,-6.541359 -36.66802,2.601259 -44.01971,4.351051"
       style="fill:#fbcba4;fill-opacity:1;fill-rule:nonzero;stroke:none"
       id="path1936"
       inkscape:connector-curvature="0" />
    <path
       d="m 293.98658,104.78464 c 0,0 -9.03779,-3.21442 -22.53523,2.98806 -11.51842,5.29352 -16.8369,13.97002 -16.8369,13.97002 0,0 9.6591,12.1311 32.94463,16.76448 23.28554,4.63338 39.31951,0.7463 39.31951,0.7463 0,0 2.91035,-9.52088 -5.02438,-19.76966 -7.93474,-10.24878 -16.13535,-12.77609 -27.86763,-14.6992"
       style="fill:#fbcba4;fill-opacity:1;fill-rule:nonzero;stroke:none"
       id="path1940"
       inkscape:connector-curvature="0" />
    <path
       d="m 253.98195,128.34599 c 0,0 6.265,14.13256 29.92963,20.01117 23.66464,5.87861 42.49641,-8.67257 42.49641,-8.67257 0,0 -4.97966,41.19632 -40.9655,37.25098 -42.5267,-4.66297 -31.46054,-48.58958 -31.46054,-48.58958"
       style="fill:#fbcba4;fill-opacity:1;fill-rule:nonzero;stroke:none"
       id="path1944"
       inkscape:connector-curvature="0" />
    <path
       d="m 293.08556,112.56866 c -0.57532,-2.3525 -2.67229,-8.24895 -6.05881,-7.48359 -3.8573,0.87121 0.46526,6.13301 1.99501,7.4558 1.7754,1.53563 4.65877,2.09004 4.0638,0.0278"
       style="fill:#604645;fill-opacity:1;fill-rule:nonzero;stroke:none"
       id="path1948"
       inkscape:connector-curvature="0" />
    <path
       d="m 253.48867,124.365 c 0,0 -0.83879,8.68695 -0.52004,10.19463 0.31977,1.50758 10.32455,14.5445 27.42029,19.70209 17.09473,5.15768 32.10218,2.99588 37.01637,0.80168 4.91429,-2.19318 8.05845,-4.12796 8.05845,-4.12796 l 1.64851,-9.31046 c 0,0 -14.20025,6.01515 -34.73591,2.3936 -20.53464,-3.62165 -27.45176,-9.60994 -30.76715,-12.02 -3.31538,-2.41006 -8.12052,-7.63358 -8.12052,-7.63358"
       style="fill:#a05a2c;fill-opacity:1;fill-rule:nonzero;stroke:none"
       id="path1952"
       inkscape:connector-curvature="0" />
    <g
       transform="matrix(1.0161914,-0.10004098,-0.10004098,-1.0161914,-104.21107,624.94233)"
       id="g1956"
       clip-path="url(#clipPath1960)">
      <g
         id="g1962"
         transform="translate(398.625,454.875)">
        <path
           d="m 0,0 c -1.992,-1.707 -2.557,-6.484 -0.5,-8.188 2.267,-1.877 4.717,-0.239 5.846,1.929 -0.332,-2.686 -2.032,-5.5 0.279,-7.938 2.657,-2.804 6.183,-0.328 8.386,1.475 -0.5,-3.004 -1.673,-6.11 1.365,-8.623 2.955,-2.445 7.796,-0.775 9.298,2.431 -0.335,-3.887 -0.092,-6.995 4.068,-8.468 3.769,-1.335 7.612,0.921 8.933,4.472 0.14,-2.391 0.674,-6.717 3.533,-7.632 4.167,-1.333 6.989,1.968 7.508,5.306 -0.023,-3.387 1.222,-6.532 5.167,-6.313 3.519,0.196 6.094,3.523 6.163,6.955 -0.074,-2.682 1.504,-5.832 5.017,-4.531 1.981,0.734 3.937,5.813 2.375,8.313"
           style="fill:#ffffff;fill-opacity:1;fill-rule:nonzero;stroke:none"
           id="path1964"
           inkscape:connector-curvature="0" />
      </g>
    </g>
    <g
       style="fill:#c87137;fill-opacity:1"
       transform="matrix(1.0161914,-0.10004098,-0.10004098,-1.0161914,-104.21107,624.94233)"
       id="g1968"
       clip-path="url(#clipPath1972)">
      <g
         style="fill:#c87137;fill-opacity:1"
         id="g1974"
         transform="translate(442.375,456.75)">
        <path
           d="M 0,0 C 0.094,2.047 6.702,3.635 8.378,3.031 9.884,2.487 10.193,0.626 9.165,-0.437 8.012,-1.63 5.773,-1.904 4.244,-1.652 2.999,-1.447 0.681,-1.065 0,0"
           style="fill:#c87137;fill-opacity:1;fill-rule:nonzero;stroke:none"
           id="path1976"
           inkscape:connector-curvature="0" />
      </g>
      <g
         style="fill:#c87137;fill-opacity:1"
         id="g1978"
         transform="translate(466.25,431.9167)">
        <path
           d="m 0,0 c -0.073,-0.455 -0.108,-1.033 -0.101,-1.54 -0.072,0.005 -0.148,0.002 -0.232,-0.024 -11.435,-3.555 -26.082,-2.098 -37.214,1.945 -12.704,4.614 -23.678,10.509 -32.052,21.255 0.033,0.038 0.067,0.066 0.099,0.114 6.75,9.99 16.031,13.927 26.094,16.427 -0.844,-4.781 1.878,-9.667 4.323,-11.844 0.724,-0.644 1.547,-0.218 1.055,0.669 -1.159,2.089 -3.086,4.281 -3.805,6.581 -2.084,6.667 4.059,8.331 7.583,7.084 2.605,-0.922 6.245,-4.703 7.749,-6.975 0.536,-0.81 0.669,-1.933 1.653,-2.229 2.098,-0.63 4.098,0.704 6.348,0.87 2.837,0.21 5.354,-0.335 7.167,-1.833 2.107,-1.741 3.583,-5.417 0.833,-8.417 -1.713,-1.869 -3.917,-2.083 -6.583,-2.333 -0.936,-0.088 -0.779,-0.729 0.166,-0.917 3.937,-0.779 8,1.917 9.084,5.5 4.583,-2.75 6.214,-6.643 7.25,-10.916 C 0.75,7.917 0.775,4.83 0,0 m -7.417,25.917 c -0.134,0.084 0.064,1.605 -0.583,3 -1.427,3.074 -4,4.5 -8,4.916 -2.958,0.308 -7.167,-1.092 -7.833,-1.25 -0.274,0.711 -2.197,3.425 -2.667,3.917 -1.326,1.389 -2.417,3.167 -5,4.583 -2.656,1.457 -5.211,1.907 -8.154,0.881 -1.649,-0.576 -2.736,-1.547 -3.391,-2.741 -10.596,-1.35 -21.927,-8.122 -27.205,-16.952 -0.072,-0.12 -0.111,-0.23 -0.135,-0.334 -0.077,-0.091 -0.104,-0.225 -0.027,-0.377 5.885,-11.513 19.576,-17.388 30.997,-21.732 11.822,-4.496 27.198,-6.733 39.415,-2.597 0.046,0.015 0.077,0.044 0.116,0.067 0.094,-0.062 0.22,0.053 0.384,0.452 3.25,7.917 0.368,23.005 -7.917,28.167"
           style="fill:#c87137;fill-opacity:1;fill-rule:nonzero;stroke:none"
           id="path1980"
           inkscape:connector-curvature="0" />
      </g>
      <g
         style="fill:#c87137;fill-opacity:1"
         id="g1982"
         transform="translate(447.5094,403.3755)">
        <path
           d="m 0,0 c -8.232,-4.801 -17.829,-4.941 -26.914,-2.919 -9.166,2.041 -18.17,7.507 -22.632,16.049 -2.344,4.486 -3.631,9.569 -3.788,14.621 -0.123,3.941 0.576,7.835 0.78,11.757 4.748,-12.099 17.673,-19.741 29.545,-23.759 6.893,-2.332 13.854,-3.772 21.133,-3.732 6.134,0.035 12.663,0.888 17.712,4.644 C 10.991,10.654 6.869,4.006 0,0 m 17.291,18.148 c 0.041,0.51 -0.947,0.535 -1.925,-0.274 -5.241,-4.331 -14.155,-4.182 -20.625,-3.875 -6.193,0.295 -12.64,1.318 -18.459,3.459 -11.709,4.309 -22.655,12.429 -28.583,23.625 -0.064,0.12 -0.13,0.219 -0.197,0.303 0,0.044 0.003,0.088 0.003,0.132 -0.001,0.305 -0.433,0.386 -0.551,0.125 -0.092,-0.063 -0.144,-0.203 -0.113,-0.437 -2.057,-9.614 -2.085,-19.821 2.479,-28.739 4.183,-8.176 12.859,-14.155 21.607,-16.36 9.298,-2.343 19.043,-2.554 27.837,1.632 7.992,3.803 14.766,12.14 18.767,19.884 0.114,0.219 -0.043,0.468 -0.24,0.525"
           style="fill:#c87137;fill-opacity:1;fill-rule:nonzero;stroke:none"
           id="path1984"
           inkscape:connector-curvature="0" />
      </g>
      <g
         style="fill:#c87137;fill-opacity:1"
         id="g1986"
         transform="translate(440.1934,473.7172)">
        <path
           d="m 0,0 c 0.771,4.066 -1.041,8.66 -5.354,9.774 -3.288,0.849 -8.086,-1.686 -8.322,-5.316 -0.023,-0.348 0.408,-0.575 0.693,-0.398 2.351,1.462 3.536,4.424 6.862,3.837 C -2.327,7.228 -1.28,3.264 -0.783,0 -0.723,-0.395 -0.072,-0.381 0,0"
           style="fill:#c87137;fill-opacity:1;fill-rule:nonzero;stroke:none"
           id="path1988"
           inkscape:connector-curvature="0" />
      </g>
      <g
         style="fill:#c87137;fill-opacity:1"
         id="g1990"
         transform="translate(448.6607,470.2133)">
        <path
           d="m 0,0 c 2.136,2.12 4.532,5.104 7.847,4.961 4.786,-0.208 4.057,-5.922 4.183,-9.185 0.013,-0.339 0.442,-0.448 0.626,-0.169 C 14.944,-0.932 14.101,4.858 9.849,6.46 5.212,8.206 1.44,4.06 -0.577,0.445 -0.778,0.083 -0.3,-0.298 0,0"
           style="fill:#c87137;fill-opacity:1;fill-rule:nonzero;stroke:none"
           id="path1992"
           inkscape:connector-curvature="0" />
      </g>
    </g>
    <path
       d="m 215.26275,419.49692 c 0,0 6.66181,7.34327 10.25768,10.96764 3.59586,3.62438 8.36091,9.82829 9.55473,12.24013 1.19397,2.41082 2.82319,4.19823 0.19408,5.70484 -2.62895,1.5056 -5.70484,0.19408 -6.94808,-1.88134 -1.24338,-2.0744 -2.8435,-5.23327 -4.91344,-5.19365 -2.06994,0.0396 -3.76831,3.40237 -3.58475,5.66581 0.18355,2.26344 1.88872,9.39363 3.48869,12.55351 1.60012,3.15886 3.06668,9.56665 2.5182,14.47404 -0.54864,4.90839 -2.36083,6.70632 -4.21365,6.43416 -1.85181,-0.27201 -4.84962,-9.14119 -5.97818,-9.65064 -1.12941,-0.51061 -2.75804,3.55076 -3.03451,6.60633 -0.27749,3.05543 -1.49449,6.66123 -3.46546,6.02701 -1.97111,-0.63321 -3.97738,-4.54012 -4.03732,-7.64511 -0.0599,-3.10499 -1.00653,-7.19992 -2.18983,-6.17035 -1.18344,1.03058 -2.32652,9.97887 -4.11407,11.6091 -1.78741,1.62921 -3.88213,1.83755 -4.71922,0.51018 -0.83723,-1.32636 -1.0852,-5.49103 -0.32822,-8.3047 0.75783,-2.81251 0.31637,-6.83325 -0.43599,-5.22435 -0.75251,1.60991 -5.85265,7.05312 -8.71473,6.63272 -2.86308,-0.42056 -4.41364,-3.91685 -2.18551,-7.3731 2.22828,-3.45726 5.33327,-3.5172 6.9168,-8.44491 1.58353,-4.9277 2.21615,-12.74758 3.65662,-17.86762 1.4406,-5.12105 5.23641,-15.74381 5.9944,-18.55733 0.75682,-2.81266 0.7365,-3.8477 5.17333,-5.94849 4.43668,-2.09978 11.10843,2.83612 11.10843,2.83612"
       style="fill:#fbcba4;fill-opacity:1;fill-rule:nonzero;stroke:none"
       id="path1732-6"
       inkscape:connector-curvature="0" />
    <path
       d="m 233.86828,272.92501 c -4.52505,30.80596 -20.34096,65.07656 -40.93132,88.24681 9.38923,7.78104 14.22477,17.8191 19.09036,28.95245 5.10602,11.68161 3.76379,21.98567 6.46234,33.8689 -1.85217,-1.16893 -3.92547,-2.6944 -5.5381,-4.0748 -0.34496,1.60372 -1.66124,3.79857 -1.63472,5.82427 -1.12288,-1.58093 -3.40482,-2.78202 -4.82189,-4.02533 -0.28915,1.14646 -1.85623,3.00414 -2.13384,4.19151 -1.9649,-3.8162 -4.72883,-2.9445 -6.80363,0.40939 -4.50465,-20.87666 -27.62933,-38.37653 -24.79789,-61.17271 -1.48929,0.95573 -3.77203,1.23553 -5.29168,2.56659 -2.35244,-6.49663 1.24336,-18.80006 2.72146,-25.58858 2.67586,-12.28684 7.63687,-24.40625 13.6573,-35.51034 5.28611,-9.75158 34.28564,-63.25323 50.02161,-33.68816"
       style="fill:#c87137;fill-opacity:1;fill-rule:nonzero;stroke:none"
       id="path1736-5"
       inkscape:connector-curvature="0" />
    <path
       d="m 216.58967,420.3253 c 1.70929,2.64752 5.13796,4.83857 7.38063,7.02364 3.55103,3.45886 7.09575,7.01689 9.99278,11.05671 1.65346,2.3039 4.19523,5.79718 3.39269,8.85082 -0.52867,2.01123 -3.05025,3.82571 -5.17855,3.35622 -1.53832,-0.34052 -2.76938,-2.09834 -3.78259,-3.18222 -0.93009,-0.99633 -1.95351,-2.71332 -3.1752,-3.33347 -2.85512,-1.45144 -3.75481,0.42273 -3.82491,2.85326 -0.18491,6.41599 3.30661,12.9499 4.82305,19.08842 1.11918,4.52898 1.87989,9.54508 -0.87601,13.65037 -1.7029,2.53643 -3.98421,3.55127 -6.02894,0.82661 -1.10381,-1.47182 -1.62305,-3.45947 -2.22615,-5.16427 -0.78232,-2.21309 -2.01524,-6.3893 -2.83888,-1.75868 -0.53006,2.98324 0.0821,9.7413 -3.72739,10.92282 -3.07082,0.9515 -4.639,-2.4318 -5.25534,-4.77016 -0.57721,-2.19019 -0.64135,-4.45157 -0.97552,-6.68036 -0.0518,-0.35025 -0.22796,-2.68485 -0.5965,-2.75447 -0.73708,-0.13923 -1.69845,4.2276 -1.7332,4.35873 -0.69261,2.64251 -1.21401,8.70049 -4.72348,9.16029 -3.56104,0.46667 -5.12314,-3.3234 -5.02693,-6.1495 0.081,-2.36391 1.16976,-4.54882 1.38399,-6.87148 0.23033,-2.48853 0.089,-1.3926 -1.30288,0.22763 -1.04337,1.21526 -2.22367,2.40008 -3.6069,3.23102 -3.1683,1.90319 -6.72498,1.44784 -7.72063,-2.47472 -0.6528,-2.5749 0.3351,-4.66317 1.96058,-6.60928 2.84759,-3.4086 6.08867,-5.38573 6.67631,-10.15216 0.62714,-5.07748 1.64292,-9.9833 2.98396,-14.9394 1.63104,-6.024 3.4963,-12.04765 5.99679,-17.77261 0.94415,-2.16281 2.60562,-7.26277 5.60844,-7.41409 0.95963,-0.0479 1.14871,1.44023 0.18373,1.48942 -2.79382,0.14073 -5.41992,10.24795 -6.09895,12.22885 -2.09466,6.11689 -3.90533,12.3591 -5.32637,18.66783 -0.88955,3.94804 -0.61436,9.19212 -2.69238,12.66629 -1.61561,2.70096 -4.39983,4.28696 -6.2135,6.79061 -1.86914,2.57909 -1.35121,8.15192 2.834,6.50647 2.82248,-1.10873 4.7609,-4.2298 6.3045,-6.68642 0.26927,-0.42797 0.93784,-0.41955 1.29777,-0.14376 1.51401,1.1595 1.20449,2.96452 0.90874,4.64772 -0.25247,1.43773 -0.74071,2.82947 -1.02724,4.26014 -0.3958,1.97089 -0.65671,9.49448 3.80187,5.58046 2.04279,-1.79399 1.36295,-13.06591 5.70906,-12.52556 3.15736,0.39153 2.57805,9.3731 3.33989,11.54293 1.01361,2.88695 2.89948,3.01844 4.24358,0.24767 0.72243,-1.48945 0.58035,-3.79634 0.80958,-5.42016 0.2092,-1.48743 0.32886,-5.02118 2.26054,-5.63017 3.35052,-1.05697 4.58063,6.79194 5.427,8.58304 3.11715,6.58832 5.54126,-4.07596 5.22042,-6.93648 -0.51126,-4.55734 -2.12578,-8.93203 -3.44719,-13.29978 -1.14065,-3.77151 -4.56887,-12.69669 -0.26051,-15.79887 4.90487,-3.53059 7.87823,8.23819 12.37719,7.04236 8.61541,-2.28891 -16.22089,-24.62668 -17.92697,-28.01268 -0.19903,-0.39459 0.43561,-0.75238 0.67602,-0.37958"
       style="fill:#c87137;fill-opacity:1;fill-rule:nonzero;stroke:none"
       id="path1740-5"
       inkscape:connector-curvature="0" />
  </g>
</svg>
