<?xml version="1.0" encoding="UTF-8" standalone="no"?>
<svg
   xmlns:dc="http://purl.org/dc/elements/1.1/"
   xmlns:cc="http://creativecommons.org/ns#"
   xmlns:rdf="http://www.w3.org/1999/02/22-rdf-syntax-ns#"
   xmlns:svg="http://www.w3.org/2000/svg"
   xmlns="http://www.w3.org/2000/svg"
   xmlns:sodipodi="http://sodipodi.sourceforge.net/DTD/sodipodi-0.dtd"
   xmlns:inkscape="http://www.inkscape.org/namespaces/inkscape"
   viewBox="0 0 512 512"
   id="svg2"
   version="1.1"
   inkscape:version="0.92.1 r15371"
   width="512"
   height="512"
   sodipodi:docname="fatrat.svg">
  <metadata
     id="metadata61">
    <rdf:RDF>
      <cc:Work
         rdf:about="">
        <dc:format>image/svg+xml</dc:format>
        <dc:type
           rdf:resource="http://purl.org/dc/dcmitype/StillImage" />
        <dc:title />
      </cc:Work>
    </rdf:RDF>
  </metadata>
  <sodipodi:namedview
     pagecolor="#ffffff"
     bordercolor="#666666"
     borderopacity="1"
     objecttolerance="10"
     gridtolerance="10"
     guidetolerance="10"
     inkscape:pageopacity="0"
     inkscape:pageshadow="2"
     inkscape:window-width="1366"
     inkscape:window-height="709"
     id="namedview59"
     showgrid="false"
     inkscape:zoom="0.15364583"
     inkscape:cx="226.58727"
     inkscape:cy="-161.34475"
     inkscape:window-x="0"
     inkscape:window-y="0"
     inkscape:window-maximized="1"
     inkscape:current-layer="svg2" />
  <defs
     id="defs4">
    <linearGradient
       id="linearGradient3764"
       x1="1"
       x2="47"
       gradientUnits="userSpaceOnUse"
       gradientTransform="rotate(-90,23.999998,24)">
      <stop
         stop-color="#a80000"
         stop-opacity="1"
         id="stop7" />
      <stop
         offset="1"
         stop-color="#b00"
         stop-opacity="1"
         id="stop9" />
    </linearGradient>
    <clipPath
       id="clipPath-400042892">
      <g
         transform="translate(0,-1004.3622)"
         id="g12">
        <path
           d="m -24,13 c 0,1.105 -0.672,2 -1.5,2 -0.828,0 -1.5,-0.895 -1.5,-2 0,-1.105 0.672,-2 1.5,-2 0.828,0 1.5,0.895 1.5,2 z"
           transform="matrix(15.333333,0,0,11.5,414.99999,878.8622)"
           id="path14"
           inkscape:connector-curvature="0"
           style="fill:#1890d0" />
      </g>
    </clipPath>
    <clipPath
       id="clipPath-411038796">
      <g
         transform="translate(0,-1004.3622)"
         id="g17">
        <path
           d="m -24,13 c 0,1.105 -0.672,2 -1.5,2 -0.828,0 -1.5,-0.895 -1.5,-2 0,-1.105 0.672,-2 1.5,-2 0.828,0 1.5,0.895 1.5,2 z"
           transform="matrix(15.333333,0,0,11.5,414.99999,878.8622)"
           id="path19"
           inkscape:connector-curvature="0"
           style="fill:#1890d0" />
      </g>
    </clipPath>
  </defs>
  <g
     id="g33"
     transform="matrix(3.9021162,0,0,3.9021162,4.1481354,317.37561)" />
  <g
     id="g841">
    <rect
       rx="56.730766"
       y="31"
       x="31"
       height="450"
       width="450"
       id="rect3038"
       style="fill:#f03916;fill-opacity:1;fill-rule:evenodd;stroke:none;stroke-width:0;stroke-linecap:butt;stroke-linejoin:miter;stroke-miterlimit:4;stroke-dasharray:none;stroke-opacity:1" />
    <path
       sodipodi:nodetypes="cccccccsscccscccccscccscccsccccccccssccccssccccccccscsssccccccccccccsccsccccccccscscsscsccccccscccccccccccccscccccccccsssc"
       inkscape:connector-curvature="0"
       id="path837"
       d="m 245.66092,458.07187 c -7.70897,-1.99756 -11.79374,-7.94893 -12.03076,-17.5281 -0.10417,-4.19347 -0.78697,-9.75426 -1.51809,-12.3573 -1.23468,-4.39515 -1.47152,-4.48107 -3.31996,-1.20465 -1.67616,2.97096 -2.64922,3.17563 -6.16133,1.29596 -3.44964,-1.84612 -5.31701,-1.55595 -10.79796,1.67794 -9.04966,5.33939 -9.55853,4.96583 -3.69952,-2.7158 2.77966,-3.64424 4.47476,-6.6259 3.76673,-6.6259 -0.70783,0 -7.19062,2.12952 -14.40604,4.73227 -15.50008,5.59121 -15.33614,3.58543 0.41515,-5.07382 6.22571,-3.42265 11.03611,-7.08871 10.68967,-8.14679 -1.18623,-3.62329 -14.92002,-3.12236 -28.45352,1.03783 -19.11991,5.8774 -31.5168,9.12547 -31.5168,8.25759 0,-1.78124 19.36981,-10.11909 35.02265,-15.0757 l 17.03805,-5.39523 -7.57247,-2.32785 c -4.16485,-1.28029 -18.22123,-2.40635 -31.23641,-2.50232 -25.2519,-0.18608 -35.10822,-2.46818 -19.75144,-4.57303 4.90676,-0.67256 19.48565,-1.2228 32.39765,-1.2228 h 23.47633 l -4.33618,-4.65988 c -3.09335,-3.32439 -9.76165,-6.0704 -23.26733,-9.58162 -25.68504,-6.67766 -42.59512,-12.2624 -42.59512,-14.06757 0,-1.35059 20.45758,2.5682 52.52715,10.06192 11.46187,2.67833 15.48419,1.78943 12.65036,-2.79567 -0.71786,-1.16143 -15.03739,-8.69101 -31.82137,-16.73244 -28.49632,-13.6529 -42.82172,-22.6189 -42.82172,-26.80122 0,-0.97191 13.05759,5.06329 29.01655,13.41151 19.25205,10.07078 32.10952,15.60255 38.2082,16.43845 l 9.19182,1.25989 -4.27447,-6.00276 c -3.86271,-5.4248 -20.59596,-20.35566 -52.26437,-46.63506 -13.95152,-11.57744 -21.01927,-19.11229 -24.89108,-26.53596 -2.31463,-4.43809 -0.33205,-3.1567 9.07143,5.86316 6.61853,6.34838 14.07741,13.34536 16.57556,15.54884 4.94502,4.36178 26.3162,19.29 27.61546,19.29 0.44128,0 -1.38936,-5.75033 -4.06812,-12.77852 -2.67877,-7.02821 -6.56288,-18.74187 -8.63148,-26.03036 -4.09254,-14.41903 -9.66587,-25.01749 -15.31189,-29.11742 -1.97964,-1.4376 -4.78826,-5.45918 -6.24141,-8.93686 -3.76825,-9.01872 1.12469,-61.86737 7.88918,-85.20994 4.9007,-16.91159 4.87344,-25.34538 -0.0814,-25.34538 -3.59637,0 -12.33745,-12.97425 -12.33745,-18.31233 0,-2.29987 -0.94996,-4.7687 -2.11101,-5.48625 -1.51999,-0.93941 0.10407,5.44739 0.62259,20.59399 0.49125,14.35733 10.21873,35.80214 8.99388,32.91879 -0.98632,-2.32355 -15.05151,-26.9211 -15.08427,-43.05991 -0.053,-26.157428 1.53126,-37.746788 5.14768,-45.340879 3.54769,-7.449837 4.07359,-7.895499 4.1904,-3.55097 0.37465,13.914551 9.83815,29.541374 21.69719,35.827549 l 7.77995,4.12399 21.77084,-6.70456 c 29.30979,-9.026291 52.7424,-12.665405 81.26426,-12.620461 29.68918,0.04682 44.19801,2.109466 67.62666,9.614323 13.78737,4.416488 20.74248,5.682788 27.59556,5.024288 14.48403,-1.39174 22.57957,-10.841267 25.07526,-29.269614 l 1.33541,-9.860709 4.34792,4.18136 c 17.95034,17.263097 27.33073,55.060213 18.13718,73.081243 -3.60618,7.0685 -15.0071,20.00039 -16.40251,18.60497 -0.30746,-0.30744 2.13504,-6.0654 5.42794,-12.79549 4.9628,-10.14352 5.99359,-14.5032 6.02596,-25.48834 0.0246,-8.07013 -1.01659,-15.10242 -2.66114,-17.98461 l -2.70052,-4.73279 -1.70097,8.51903 c -2.04192,10.22585 -4.73791,13.54017 -14.65007,18.00989 -4.13401,1.86419 -7.49599,4.3249 -7.47138,5.46829 0.0246,1.14338 2.21211,7.19029 4.86058,13.43757 9.91633,23.38906 16.03185,43.21293 18.55726,60.15329 2.96103,19.86255 2.24713,22.54606 -8.82873,33.18838 -7.17509,6.89415 -9.99338,12.55419 -24.03537,48.2706 -10.95432,27.86255 -11.5359,30.9076 -5.27024,27.59797 7.71046,-4.0728 25.98717,-18.85104 37.4657,-30.29385 11.86662,-11.82994 12.97448,-12.32287 8.57525,-3.81556 -2.82718,5.46714 -16.22685,17.81328 -51.24702,47.21792 -20.3368,17.07567 -28.88366,26.06813 -26.77794,28.17384 2.51444,2.51453 16.03393,-2.32989 39.44931,-14.13592 13.85496,-6.9857 27.59369,-13.79835 30.53067,-15.13918 l 5.33953,-2.43793 -3.42049,4.53479 c -4.37101,5.79478 -12.97333,10.79341 -42.28141,24.56885 -22.8287,10.72998 -32.33935,16.92578 -29.83115,19.43387 0.6571,0.65719 15.51806,-1.78995 33.02426,-5.43807 17.50621,-3.64813 32.17332,-6.3031 32.5934,-5.89994 1.55368,1.49076 -14.56033,7.02647 -38.55217,13.24395 -22.30279,5.77977 -29.41731,9.19697 -29.41731,14.12941 0,0.69107 11.71365,1.32423 26.03034,1.40706 31.32501,0.18118 48.1849,3.72706 19.40443,4.08099 -20.08084,0.24696 -44.08233,2.94546 -48.57867,5.46175 -2.14584,1.20091 0.47858,2.51182 9.63275,4.81122 13.4803,3.38618 40.70388,14.80235 37.69231,15.80626 -0.99938,0.33309 -10.17588,-1.96739 -20.39227,-5.11219 -19.41049,-5.97497 -38.01017,-7.67961 -36.56761,-3.35145 0.4339,1.30153 5.64526,5.24793 11.58132,8.76978 5.93586,3.52187 10.44602,6.74976 10.02272,7.17311 -0.4233,0.42335 -4.49899,-0.61123 -9.05705,-2.29903 -4.55805,-1.68781 -10.41706,-3.54155 -13.02009,-4.11944 l -4.73279,-1.05067 3.97783,4.51878 c 7.46511,8.48024 7.20973,9.92968 -0.94221,5.34798 -6.88414,-3.86907 -8.48191,-4.13403 -11.93288,-1.97884 -3.4254,2.13912 -4.24096,2.03041 -5.81054,-0.77451 -2.66627,-4.76414 -5.1046,-0.0773 -5.14095,9.88084 -0.0454,12.33021 -3.11664,17.06407 -13.25825,20.43256 -9.22041,3.06254 -15.80845,3.20157 -26.04284,0.5496 z M 224.0154,309.39346 c -5.27668,-9.11062 -14.76005,-25.50974 -21.07415,-36.44249 -10.17626,-17.62007 -29.40426,-47.32789 -30.63233,-47.32789 -0.2516,0 -0.0416,5.8142 0.46703,12.92044 0.62775,8.77346 -0.0606,16.31032 -2.14584,23.48204 -4.77407,16.42191 -4.07305,26.01113 2.5716,35.18398 6.39324,8.82564 10.71409,11.39627 36.00649,21.42226 25.99041,10.30257 26.08922,10.24092 14.8072,-9.23834 z m 79.6447,9.61074 c 18.2928,-7.8064 28.28051,-13.60677 34.3824,-19.9675 11.09651,-11.56718 14.27863,-31.54728 7.42859,-46.64344 -4.81552,-10.6126 -4.72124,-13.09527 0.98802,-26.0052 5.133,-11.60653 5.65133,-14.01679 3.01384,-14.01679 -1.99383,0 -16.91159,25.33323 -41.80454,70.99185 -9.65035,17.70062 -19.19752,34.5257 -21.21616,37.38904 -4.87363,6.913 -2.52938,6.67488 17.20785,-1.74796 z"
       style="fill:#ffffff;stroke-width:1.89311588" />
  </g>
</svg>
