<?xml version="1.0" encoding="UTF-8" standalone="no"?>
<!-- Created with Inkscape (http://www.inkscape.org/) -->

<svg
   xmlns:dc="http://purl.org/dc/elements/1.1/"
   xmlns:cc="http://creativecommons.org/ns#"
   xmlns:rdf="http://www.w3.org/1999/02/22-rdf-syntax-ns#"
   xmlns:svg="http://www.w3.org/2000/svg"
   xmlns="http://www.w3.org/2000/svg"
   xmlns:sodipodi="http://sodipodi.sourceforge.net/DTD/sodipodi-0.dtd"
   xmlns:inkscape="http://www.inkscape.org/namespaces/inkscape"
   id="svg2"
   version="1.1"
   inkscape:version="0.92.1 r15371"
   width="512"
   height="512"
   sodipodi:docname="flush.svg">
  <metadata
     id="metadata8">
    <rdf:RDF>
      <cc:Work
         rdf:about="">
        <dc:format>image/svg+xml</dc:format>
        <dc:type
           rdf:resource="http://purl.org/dc/dcmitype/StillImage" />
        <dc:title />
      </cc:Work>
    </rdf:RDF>
  </metadata>
  <defs
     id="defs6" />
  <sodipodi:namedview
     pagecolor="#ffffff"
     bordercolor="#666666"
     borderopacity="1"
     objecttolerance="10"
     gridtolerance="10"
     guidetolerance="10"
     inkscape:pageopacity="0"
     inkscape:pageshadow="2"
     inkscape:window-width="1366"
     inkscape:window-height="709"
     id="namedview4"
     showgrid="false"
     inkscape:zoom="0.4609375"
     inkscape:cx="303.45298"
     inkscape:cy="137.39215"
     inkscape:window-x="0"
     inkscape:window-y="0"
     inkscape:window-maximized="1"
     inkscape:current-layer="svg2" />
  <path
     style="fill:#00bbf2;fill-opacity:1;stroke-width:0.8999601"
     d="m 231.82714,406.77259 c 37.49805,-41.65123 64.00381,-72.19729 63.2778,-72.9233 -0.68712,-0.68714 -16.77055,-1.41952 -35.74088,-1.62751 l -34.49155,-0.37816 -0.70482,-74.71113 -0.70482,-74.71112 h -58.50021 -58.50023 l -0.70482,74.71112 -0.70483,74.71113 -35.24107,0.70483 c -22.867663,0.45733 -35.241107,1.21646 -35.241107,2.16209 0,2.82543 128.233567,144.36962 130.503497,144.04972 1.22424,-0.17253 31.26312,-32.56698 66.75304,-71.98767 z"
     id="path2982"
     inkscape:connector-curvature="0" />
  <path
     style="fill:#00bbf2;fill-opacity:1;stroke-width:0.8999601"
     d="m 420.16411,110.22843 c 37.49805,41.65123 64.00381,72.19729 63.2778,72.9233 -0.68713,0.68714 -16.77055,1.41952 -35.74088,1.62751 l -34.49155,0.37815 -0.70482,74.71114 -0.70482,74.71112 H 353.29962 294.7994 l -0.70482,-74.71112 -0.70483,-74.71114 -35.24107,-0.70482 c -22.86767,-0.45733 -35.24111,-1.21646 -35.24111,-2.16209 0,-2.82543 128.23357,-144.36962 130.5035,-144.04972 1.22424,0.172531 31.26312,32.566983 66.75304,71.98767 z"
     id="path2982-3"
     inkscape:connector-curvature="0" />
</svg>
