<?xml version="1.0" encoding="UTF-8" standalone="no"?>
<svg
   xmlns:dc="http://purl.org/dc/elements/1.1/"
   xmlns:cc="http://creativecommons.org/ns#"
   xmlns:rdf="http://www.w3.org/1999/02/22-rdf-syntax-ns#"
   xmlns:svg="http://www.w3.org/2000/svg"
   xmlns="http://www.w3.org/2000/svg"
   xmlns:xlink="http://www.w3.org/1999/xlink"
   xmlns:sodipodi="http://sodipodi.sourceforge.net/DTD/sodipodi-0.dtd"
   xmlns:inkscape="http://www.inkscape.org/namespaces/inkscape"
   viewBox="0 0 512 512"
   version="1.0"
   id="svg2"
   height="512"
   width="512"
   inkscape:version="0.48.5 r10040"
   sodipodi:docname="footnote.svg">
  <sodipodi:namedview
     pagecolor="#ffffff"
     bordercolor="#666666"
     borderopacity="1"
     objecttolerance="10"
     gridtolerance="10"
     guidetolerance="10"
     inkscape:pageopacity="0"
     inkscape:pageshadow="2"
     inkscape:window-width="1366"
     inkscape:window-height="716"
     id="namedview30"
     showgrid="false"
     inkscape:zoom="0.41308596"
     inkscape:cx="476.06909"
     inkscape:cy="194.73794"
     inkscape:window-x="0"
     inkscape:window-y="0"
     inkscape:window-maximized="1"
     inkscape:current-layer="svg2" />
  <defs
     id="defs4">
    <linearGradient
       id="linearGradient4132">
      <stop
         id="stop4134"
         offset="0"
         style="stop-color:#f2f2f2;stop-opacity:1;" />
      <stop
         id="stop4136"
         offset="1"
         style="stop-color:#f2f2f2;stop-opacity:0;" />
    </linearGradient>
    <linearGradient
       id="linearGradient3155">
      <stop
         id="stop3157"
         offset="0"
         style="stop-color:#303030;stop-opacity:1;" />
      <stop
         id="stop3159"
         offset="1"
         style="stop-color:#303030;stop-opacity:0;" />
    </linearGradient>
    <linearGradient
       id="linearGradient6067">
      <stop
         id="stop6069"
         offset="0"
         style="stop-color:#ffffff;stop-opacity:1;" />
      <stop
         id="stop6071"
         offset="1"
         style="stop-color:#ffffff;stop-opacity:0;" />
    </linearGradient>
    <linearGradient
       id="linearGradient3142">
      <stop
         id="stop3144"
         offset="0"
         style="stop-color:#303030;stop-opacity:1;" />
      <stop
         id="stop3146"
         offset="1"
         style="stop-color:#303030;stop-opacity:0;" />
    </linearGradient>
    <linearGradient
       gradientTransform="matrix(1.6258627,0,0,1.6258627,-28.787153,-52.145846)"
       gradientUnits="userSpaceOnUse"
       y2="110.71667"
       x2="92.804863"
       y1="75.855133"
       x1="92.804863"
       id="linearGradient3148"
       xlink:href="#linearGradient3142" />
    <linearGradient
       gradientUnits="userSpaceOnUse"
       y2="119.78299"
       x2="29.731594"
       y1="96.211563"
       x1="29.731594"
       id="linearGradient6073"
       xlink:href="#linearGradient6067" />
    <linearGradient
       gradientUnits="userSpaceOnUse"
       y2="124.82345"
       x2="100.75668"
       y1="85.389313"
       x1="100.75668"
       id="linearGradient3161"
       xlink:href="#linearGradient3155" />
    <linearGradient
       gradientTransform="translate(-2.2728432)"
       gradientUnits="userSpaceOnUse"
       y2="-115.67227"
       x2="96.899597"
       y1="-101.65641"
       x1="96.899597"
       id="linearGradient4138"
       xlink:href="#linearGradient4132" />
    <filter
       style="color-interpolation-filters:sRGB"
       height="1"
       width="1"
       y="0"
       x="0"
       id="filter3004">
      <feColorMatrix
         result="result2"
         type="saturate"
         in="SourceGraphic"
         values="1"
         id="feColorMatrix3006" />
      <feFlood
         result="result1"
         flood-opacity="1"
         flood-color="rgb(254,102,0)"
         id="feFlood3008" />
      <feBlend
         result="result3"
         in="result1"
         mode="multiply"
         in2="result2"
         id="feBlend3010" />
      <feComposite
         result="result4"
         operator="in"
         in2="SourceGraphic"
         id="feComposite3012" />
    </filter>
  </defs>
  <metadata
     id="metadata7">
    <rdf:RDF>
      <cc:Work
         rdf:about="">
        <dc:format>image/svg+xml</dc:format>
        <dc:type
           rdf:resource="http://purl.org/dc/dcmitype/StillImage" />
        <dc:title />
      </cc:Work>
    </rdf:RDF>
  </metadata>
  <path
     style="fill:#00bbf2;fill-opacity:1;stroke:none"
     d="m 218.24756,294.93167 c 24.9695,-12.3651 58.6306,-53.16913 100.7685,-15.11527 42.1379,38.05386 15.307,142.57381 30.2306,164.25258 14.9236,21.67878 33.7881,36.90858 75.1588,26.66784 41.3709,-10.24075 54.1222,-32.4245 49.794,-75.0367 -4.3282,-42.61219 -40.5178,-100.56867 -64.4918,-144.09888 -23.974,-43.53022 -77.5917,-116.89141 -77.5917,-116.89141 0,0 -6.8239,-15.38518 -35.2689,-17.63448 -28.4451,-2.2493 -69.1669,4.74024 -118.9068,48.8727 -49.74,44.13246 -53.0759,77.1338 -50.3842,100.76846 4.7747,34.34871 66.7511,39.19785 90.6915,28.21516 z"
     id="path3018"
     inkscape:connector-curvature="0"
     sodipodi:nodetypes="czzzzzczzcc" />
  <path
     style="fill:#00bbf2;fill-opacity:1;stroke:none"
     d="m 109.91296,213.16029 c -16.108401,11.96231 -47.808901,-0.54307 -62.703501,-11.40065 -14.8946,-10.85757 -23.3323,-28.08575 -22.0888,-41.32735 5.8409,-24.8181 43.5388,-41.73666 64.1287,-35.62703 13.685701,4.56521 22.314701,16.33215 27.076501,32.06432 4.7618,15.73218 9.6957,44.3284 -6.4129,56.29071 z"
     id="path3788"
     inkscape:connector-curvature="0"
     sodipodi:nodetypes="zzcczz" />
  <path
     style="fill:#00bbf2;fill-opacity:1;stroke:none"
     d="m 125.48216,136.27559 c 9.3747,8.8292 28.9983,17.02772 38.292,8.06148 9.2938,-8.96624 2.9894,-28.29193 -6.5499,-37.78817 -9.5394,-9.496242 -32.8144,-17.010127 -41.819,-7.053791 -9.0045,9.956331 0.7022,27.951281 10.0769,36.780481 z"
     id="path3790"
     inkscape:connector-curvature="0"
     sodipodi:nodetypes="zzzzz" />
  <path
     style="fill:#00bbf2;fill-opacity:1;stroke:none"
     d="m 173.42996,109.35538 c 8.0373,7.5696 24.8613,14.59848 32.8291,6.9114 7.9679,-7.68708 2.563,-24.255695 -5.6155,-32.397173 -8.1784,-8.141478 -28.1329,-14.583398 -35.8529,-6.047472 -7.7199,8.535926 0.602,23.963655 8.6393,31.533245 z"
     id="path3790-3"
     inkscape:connector-curvature="0"
     sodipodi:nodetypes="zzzzz" />
  <path
     style="fill:#00bbf2;fill-opacity:1;stroke:none"
     d="m 255.75076,103.56358 c -4.7402,3.57318 -27.2151,-2.31683 -33.8457,-10.688106 -6.6307,-8.371286 -9.6435,-21.922933 -2.1377,-28.501628 7.5058,-6.578686 23.2082,-1.358066 30.6393,6.412865 7.4311,7.77094 10.0843,29.20369 5.3441,32.776869 z"
     id="path3810"
     inkscape:connector-curvature="0"
     sodipodi:nodetypes="zzzzz" />
  <path
     style="fill:#00bbf2;fill-opacity:1;stroke:none"
     d="m 300.51756,94.166015 c 6.2713,-5.521177 3.4578,-17.754053 -1.7813,-23.513839 -5.2391,-5.759786 -16.8783,-8.592962 -22.8012,-3.918975 -5.923,4.673988 -6.3478,15.638219 -1.4251,22.088755 4.9226,6.45054 19.7364,10.865236 26.0076,5.344059 z"
     id="path3812"
     inkscape:connector-curvature="0"
     sodipodi:nodetypes="zzzzz" />
  <path
     style="fill:#e9ddaf;stroke:none"
     d="m 195.58054,456.4592 41.7846,-36.16489 -34.25304,-17.67017 z"
     id="path3868"
     inkscape:connector-curvature="0"
     sodipodi:nodetypes="cccc" />
  <path
     style="fill:#394050;stroke:none"
     d="m 195.5405,456.45475 11.56194,-10.00696 -9.42385,-5.14589 z"
     id="path3868-3"
     inkscape:connector-curvature="0"
     sodipodi:nodetypes="cccc" />
  <path
     style="fill:#45d03f;fill-opacity:1;stroke:none"
     d="M 203.13782,402.70461 379.2171,98.218106 411.89546,118.59409 236.58521,420.67779 z"
     id="path3888"
     inkscape:connector-curvature="0"
     sodipodi:nodetypes="ccccc" />
  <path
     style="fill:#c83737;fill-opacity:1;stroke:none"
     d="m 381.58308,94.056386 20.88346,-36.307933 c 0,0 1.14214,-2.504031 2.44766,-2.844287 1.30552,-0.340256 4.07869,1.490243 4.07869,1.490243 l 24.79483,15.236247 c 0,0 2.3383,1.32702 2.71855,2.53023 0.38027,1.20324 -0.80056,3.77344 -0.80056,3.77344 l -20.77138,35.633054 z"
     id="path3888-6-0"
     inkscape:connector-curvature="0"
     sodipodi:nodetypes="cczcczccc" />
  <path
     style="fill:#ebebeb;fill-opacity:1;stroke:none"
     d="m 369.27644,115.30294 23.1633,-40.271454 33.15909,20.37597 -22.97114,39.406474 z"
     id="path3888-6"
     inkscape:connector-curvature="0"
     sodipodi:nodetypes="ccccc" />
</svg>
