<?xml version="1.0" encoding="UTF-8" standalone="no"?>
<svg
   xmlns:dc="http://purl.org/dc/elements/1.1/"
   xmlns:cc="http://creativecommons.org/ns#"
   xmlns:rdf="http://www.w3.org/1999/02/22-rdf-syntax-ns#"
   xmlns:svg="http://www.w3.org/2000/svg"
   xmlns="http://www.w3.org/2000/svg"
   xmlns:sodipodi="http://sodipodi.sourceforge.net/DTD/sodipodi-0.dtd"
   xmlns:inkscape="http://www.inkscape.org/namespaces/inkscape"
   version="1.1"
   x="0px"
   y="0px"
   width="500"
   height="500"
   viewBox="0 0 500 500"
   enable-background="new 0 0 512 512"
   xml:space="preserve"
   id="svg2"
   inkscape:version="0.48.5 r10040"
   sodipodi:docname="git.svg"><metadata
     id="metadata12"><rdf:RDF><cc:Work
         rdf:about=""><dc:format>image/svg+xml</dc:format><dc:type
           rdf:resource="http://purl.org/dc/dcmitype/StillImage" /></cc:Work></rdf:RDF></metadata><defs
     id="defs10" /><sodipodi:namedview
     pagecolor="#ffffff"
     bordercolor="#666666"
     borderopacity="1"
     objecttolerance="10"
     gridtolerance="10"
     guidetolerance="10"
     inkscape:pageopacity="0"
     inkscape:pageshadow="2"
     inkscape:window-width="1366"
     inkscape:window-height="716"
     id="namedview8"
     showgrid="false"
     inkscape:zoom="0.4609375"
     inkscape:cx="798.10133"
     inkscape:cy="358.44861"
     inkscape:window-x="0"
     inkscape:window-y="0"
     inkscape:window-maximized="1"
     inkscape:current-layer="5151e0c8492e5103c096af88a5006e1e" /><g
     id="5151e0c8492e5103c096af88a5006e1e"
     style="fill:#ba174e;fill-opacity:1;stroke:#000000;stroke-width:20;stroke-linejoin:round;stroke-miterlimit:6.80000019;stroke-opacity:1;stroke-dasharray:none"
     transform="matrix(0.96029956,0,0,0.96029956,10.163327,-1.842529)"><g
       id="g5"
       style="fill:#ba174e;fill-opacity:1;stroke:#000000;stroke-width:20;stroke-linejoin:round;stroke-miterlimit:6.80000019;stroke-opacity:1;stroke-dasharray:none" /><path
       id="XMLID_1_"
       display="inline"
       d="m 21.376671,268.98832 c 20.715726,-5.17297 48.882328,-12.21852 98.230509,-13.52896 -1.36362,-2.72725 -2.5952,-5.55078 -3.68554,-8.46236 -19.202634,-0.1669 -78.341952,2.56035 -98.60008,7.56551 -0.114628,0.0358 -0.237511,0.044 -0.360393,0.044 -0.677685,0 -1.302183,-0.46586 -1.469083,-1.1518 -0.193494,-0.80056 0.298952,-1.62681 1.107773,-1.82947 20.073805,-4.96114 77.78714,-7.71498 98.230513,-7.66179 -4.60075,-13.52896 -6.63289,-29.02862 -6.63289,-46.33115 0,-30.73521 9.57106,-42.32923 22.43058,-58.70832 -9.83424,-35.02782 3.52782,-58.971495 3.52782,-58.971495 0,0 20.66345,-4.283451 59.72805,23.688735 21.17332,-9.069426 77.62391,-9.825066 104.3306,-2.0138 16.39651,-10.837466 46.37516,-26.21332 58.47905,-21.912446 3.27197,5.277513 10.3276,20.645116 4.2752,54.423946 4.11655,7.40685 25.45769,23.18804 25.54481,67.79425 -0.35214,16.4497 -2.05873,30.33905 -5.22524,42.0908 50.93189,-0.43101 80.89312,3.77358 101.52907,7.57376 0.80973,0.1669 1.35537,0.95004 1.21415,1.76803 -0.14031,0.72171 -0.77398,1.24075 -1.47734,1.24075 -0.10546,0 -0.19349,-0.008 -0.29895,-0.0174 -20.60202,-3.8176 -50.6146,-8.00476 -101.84636,-7.53891 -0.89778,2.98219 -1.90009,5.81489 -2.99136,8.51555 17.43551,0.58048 65.32286,2.44572 104.3792,14.39096 0.80974,0.24669 1.249,1.09035 1.00323,1.90009 -0.19349,0.64192 -0.79139,1.06376 -1.44249,1.06376 -0.1403,0 -0.29895,-0.0174 -0.43925,-0.0697 -39.60198,-12.10389 -88.52833,-13.76646 -104.80104,-14.30384 -14.16262,31.11394 -43.20866,42.72446 -90.1643,47.55355 15.21812,9.5793 19.58136,21.59424 19.58136,54.10757 0,32.51149 -0.43926,36.87472 -0.3338,44.35036 0.15864,12.27262 18.13795,18.14712 17.47035,22.09677 -0.66851,3.94232 -15.04206,3.30773 -21.76206,0.96014 -19.03572,-6.63197 -17.13655,-22.46726 -17.13655,-22.46726 l -0.63275,-43.47093 c 0,0 1.30218,-23.39896 -7.33625,-23.39896 0,4.70529 0,54.32674 0,71.15426 0,15.46389 10.82005,20.16184 10.82005,25.87953 0,9.82598 -19.77394,-0.93171 -25.86211,-7.06389 -9.29319,-9.32437 -8.23677,-29.09739 -8.00843,-44.73735 0.21092,-15.10442 -0.1403,-48.13495 -0.1403,-48.13495 l -6.30642,0.13297 c 0,0 2.58602,72.15749 -3.32516,85.30679 -7.64345,16.88071 -30.69944,22.68734 -30.69944,14.99804 0,-5.17297 5.68192,-3.5269 8.82275,-15.12 2.68232,-9.86175 1.76804,-83.42688 1.76804,-83.42688 0,0 -7.38852,4.3724 -7.38852,18.14712 0,6.30642 -0.17607,42.32831 -0.17607,53.05207 0,13.48494 -19.15035,21.16324 -28.35184,21.16324 -4.66218,0 -10.45874,-0.22743 -10.45874,-2.69883 0,-6.23672 17.51438,-9.89751 17.51438,-22.87166 0,-11.25014 -0.24669,-40.1898 -0.24669,-40.1898 0,0 -8.83192,1.51127 -21.42826,1.51127 -31.75494,0 -41.80101,-20.26638 -46.57783,-31.60547 -6.2193,-14.76878 -14.2855,-21.70887 -22.85332,-27.2514 -5.260092,-3.40402 -6.474241,-7.42428 -0.38699,-8.56782 28.11342,-5.29494 35.30019,31.87874 54.07181,37.79818 13.3969,4.23209 30.62057,2.4017 39.18839,-3.13992 1.13529,-11.35742 9.31612,-21.17332 16.13333,-26.34538 -47.74705,-4.58332 -76.05487,-21.16415 -90.72737,-47.81857 -49.946999,1.19673 -78.288754,8.28629 -99.065921,13.47577 -1.513101,0.37873 -2.990438,0.74738 -4.415504,1.10869 -0.122882,0.0257 -0.246681,0.0349 -0.369563,0.0349 -0.677686,0 -1.293014,-0.4576 -1.469084,-1.14354 -0.202663,-0.80882 0.298952,-1.63598 1.108691,-1.83865 1.430568,-0.35214 2.899651,-0.71161 4.403582,-1.0986 z"
       style="fill:#ba174e;fill-opacity:1;stroke:none;display:inline"
       inkscape:connector-curvature="0" /></g></svg>