<?xml version="1.0" encoding="UTF-8" standalone="no"?>
<!-- Generator: Adobe Illustrator 19.0.0, SVG Export Plug-In . SVG Version: 6.00 Build 0)  -->

<svg
   xmlns:dc="http://purl.org/dc/elements/1.1/"
   xmlns:cc="http://creativecommons.org/ns#"
   xmlns:rdf="http://www.w3.org/1999/02/22-rdf-syntax-ns#"
   xmlns:svg="http://www.w3.org/2000/svg"
   xmlns="http://www.w3.org/2000/svg"
   xmlns:sodipodi="http://sodipodi.sourceforge.net/DTD/sodipodi-0.dtd"
   xmlns:inkscape="http://www.inkscape.org/namespaces/inkscape"
   version="1.1"
   id="Layer_1"
   x="0px"
   y="0px"
   viewBox="0 0 500 500"
   xml:space="preserve"
   inkscape:version="0.92.2 (5c3e80d, 2017-08-06)"
   width="100%"
   height="100%"
   sodipodi:docname="gmlive.svg"><metadata
     id="metadata57"><rdf:RDF><cc:Work
         rdf:about=""><dc:format>image/svg+xml</dc:format><dc:type
           rdf:resource="http://purl.org/dc/dcmitype/StillImage" /></cc:Work></rdf:RDF></metadata><defs
     id="defs55" /><sodipodi:namedview
     pagecolor="#ffffff"
     bordercolor="#666666"
     borderopacity="1"
     objecttolerance="10"
     gridtolerance="10"
     guidetolerance="10"
     inkscape:pageopacity="0"
     inkscape:pageshadow="2"
     inkscape:window-width="1366"
     inkscape:window-height="715"
     id="namedview53"
     showgrid="false"
     inkscape:zoom="0.13139877"
     inkscape:cx="-410.01802"
     inkscape:cy="1060.6478"
     inkscape:window-x="0"
     inkscape:window-y="24"
     inkscape:window-maximized="1"
     inkscape:current-layer="Layer_1" /><g
     id="g23"
     transform="translate(0,39.767)" /><g
     id="g25"
     transform="translate(0,39.767)" /><g
     id="g27"
     transform="translate(0,39.767)" /><g
     id="g29"
     transform="translate(0,39.767)" /><g
     id="g31"
     transform="translate(0,39.767)" /><g
     id="g33"
     transform="translate(0,39.767)" /><g
     id="g35"
     transform="translate(0,39.767)" /><g
     id="g37"
     transform="translate(0,39.767)" /><g
     id="g39"
     transform="translate(0,39.767)" /><g
     id="g41"
     transform="translate(0,39.767)" /><g
     id="g43"
     transform="translate(0,39.767)" /><g
     id="g45"
     transform="translate(0,39.767)" /><g
     id="g47"
     transform="translate(0,39.767)" /><g
     id="g49"
     transform="translate(0,39.767)" /><g
     id="g51"
     transform="translate(0,39.767)" /><g
     id="g888"><rect
       ry="48.623211"
       y="17.704378"
       x="21.689285"
       height="456.08572"
       width="457.00662"
       id="rect2986-6-3"
       style="fill:#00bbf2;fill-opacity:1;fill-rule:evenodd;stroke:none;stroke-width:1.01963007" /><path
       id="path61"
       d="M 453.18164 23.503906 C 396.81629 37.576705 259.76377 78.92751 173.13672 165.14062 C 86.085883 251.7755 42.52662 391.88121 27.707031 448.66992 C 35.968919 463.66836 51.91272 473.79102 70.3125 473.79102 L 430.07227 473.79102 C 457.00952 473.79102 478.69531 452.10327 478.69531 425.16602 L 478.69531 66.328125 C 478.69531 47.766627 468.39804 31.701675 453.18164 23.503906 z "
       style="fill:#45d03f;fill-opacity:1;stroke:none;stroke-width:1px;stroke-linecap:butt;stroke-linejoin:miter;stroke-opacity:1" /><path
       sodipodi:nodetypes="csccscsc"
       inkscape:connector-curvature="0"
       id="path874"
       d="M 453.18164,23.503906 C 396.81629,37.576705 259.76377,78.927515 173.13672,165.14062 86.085882,251.77551 42.52662,391.88121 27.707031,448.66992 c 2.337553,4.24354 5.291161,8.09537 8.740235,11.43946 C 74.506503,425.27837 151.19649,311.75916 256.96077,242.70996 329.35437,195.44712 432.72861,170.25312 478.69531,161.50348 V 66.328125 c 0,-18.561498 -10.29727,-34.62645 -25.51367,-42.824219 z"
       style="fill:#ffcc00;fill-opacity:1;stroke:none;stroke-width:1px;stroke-linecap:butt;stroke-linejoin:miter;stroke-opacity:1" /><path
       id="path879"
       d="M 478.69531 327.7207 C 440.43945 330.10949 365.07944 336.77575 290.59375 354.70312 C 206.19663 375.01599 85.78443 438.45847 40.261719 463.4375 C 48.52133 469.92531 58.947195 473.79102 70.3125 473.79102 L 430.07227 473.79102 C 457.00952 473.79102 478.69531 452.10327 478.69531 425.16602 L 478.69531 327.7207 z "
       style="fill:#394050;stroke:none;stroke-width:1px;stroke-linecap:butt;stroke-linejoin:miter;stroke-opacity:1;fill-opacity:1" /></g></svg>