<?xml version="1.0" encoding="UTF-8" standalone="no"?>
<!-- Generator: Adobe Illustrator 19.0.0, SVG Export Plug-In . SVG Version: 6.00 Build 0)  -->

<svg
   xmlns:dc="http://purl.org/dc/elements/1.1/"
   xmlns:cc="http://creativecommons.org/ns#"
   xmlns:rdf="http://www.w3.org/1999/02/22-rdf-syntax-ns#"
   xmlns:svg="http://www.w3.org/2000/svg"
   xmlns="http://www.w3.org/2000/svg"
   xmlns:sodipodi="http://sodipodi.sourceforge.net/DTD/sodipodi-0.dtd"
   xmlns:inkscape="http://www.inkscape.org/namespaces/inkscape"
   version="1.1"
   id="Layer_1"
   x="0px"
   y="0px"
   viewBox="0 0 500 500"
   xml:space="preserve"
   inkscape:version="0.92.1 r15371"
   width="100%"
   height="100%"
   sodipodi:docname="2048.svg"><metadata
     id="metadata57"><rdf:RDF><cc:Work
         rdf:about=""><dc:format>image/svg+xml</dc:format><dc:type
           rdf:resource="http://purl.org/dc/dcmitype/StillImage" /></cc:Work></rdf:RDF></metadata><defs
     id="defs55" /><sodipodi:namedview
     pagecolor="#ffffff"
     bordercolor="#666666"
     borderopacity="1"
     objecttolerance="10"
     gridtolerance="10"
     guidetolerance="10"
     inkscape:pageopacity="0"
     inkscape:pageshadow="2"
     inkscape:window-width="1366"
     inkscape:window-height="714"
     id="namedview53"
     showgrid="false"
     inkscape:zoom="0.52559509"
     inkscape:cx="303.40022"
     inkscape:cy="245.81586"
     inkscape:window-x="0"
     inkscape:window-y="0"
     inkscape:window-maximized="1"
     inkscape:current-layer="Layer_1" /><g
     id="g23"
     transform="translate(0,39.767)" /><g
     id="g25"
     transform="translate(0,39.767)" /><g
     id="g27"
     transform="translate(0,39.767)" /><g
     id="g29"
     transform="translate(0,39.767)" /><g
     id="g31"
     transform="translate(0,39.767)" /><g
     id="g33"
     transform="translate(0,39.767)" /><g
     id="g35"
     transform="translate(0,39.767)" /><g
     id="g37"
     transform="translate(0,39.767)" /><g
     id="g39"
     transform="translate(0,39.767)" /><g
     id="g41"
     transform="translate(0,39.767)" /><g
     id="g43"
     transform="translate(0,39.767)" /><g
     id="g45"
     transform="translate(0,39.767)" /><g
     id="g47"
     transform="translate(0,39.767)" /><g
     id="g49"
     transform="translate(0,39.767)" /><g
     id="g51"
     transform="translate(0,39.767)" /><g
     id="g4673"
     transform="matrix(2.2477036,0,0,2.2477036,-1026.6396,-272.84428)"><rect
       ry="9.6544456"
       y="241.03845"
       x="576.73767"
       height="90.558701"
       width="90.741554"
       id="rect2986"
       style="fill:#f03916;fill-opacity:1;fill-rule:evenodd;stroke:none;stroke-width:0.20245399" /><rect
       ry="9.6544456"
       y="242.15611"
       x="473.25977"
       height="90.558701"
       width="90.741554"
       id="rect2986-3"
       style="fill:#ffcc00;fill-opacity:1;fill-rule:evenodd;stroke:none;stroke-width:0.20245399" /><rect
       ry="9.6544456"
       y="133.18317"
       x="576.85132"
       height="90.558701"
       width="90.741554"
       id="rect2986-6"
       style="fill:#00bbf2;fill-opacity:1;fill-rule:evenodd;stroke:none;stroke-width:0.20245399" /><rect
       ry="9.6544456"
       y="132.51048"
       x="473.93243"
       height="90.558701"
       width="90.741554"
       id="rect2986-7"
       style="fill:#45d03f;fill-opacity:1;fill-rule:evenodd;stroke:none;stroke-width:0.20245399" /><g
       id="flowRoot4569"
       style="font-style:normal;font-weight:normal;font-size:40px;line-height:1.25;font-family:sans-serif;letter-spacing:0px;word-spacing:0px;fill:#ffffff;fill-opacity:1;stroke:none"
       transform="matrix(0.88536386,0,0,0.88536386,88.735816,24.980024)"
       aria-label="0"><path
         id="path4652"
         style="font-style:normal;font-variant:normal;font-weight:bold;font-stretch:normal;font-size:74.66666412px;font-family:sans-serif;-inkscape-font-specification:'sans-serif Bold';fill:#ffffff"
         d="m 611.19531,171.97526 q 0,-10.20833 -1.93229,-14.36458 -1.89583,-4.19271 -6.41667,-4.19271 -4.52083,0 -6.45312,4.19271 -1.93229,4.15625 -1.93229,14.36458 0,10.31771 1.93229,14.54687 1.93229,4.22917 6.45312,4.22917 4.48438,0 6.41667,-4.22917 1.93229,-4.22916 1.93229,-14.54687 z m 14.03646,0.10937 q 0,13.52605 -5.83333,20.89063 -5.83334,7.32812 -16.55209,7.32812 -10.7552,0 -16.58854,-7.32812 -5.83333,-7.36458 -5.83333,-20.89063 0,-13.5625 5.83333,-20.89062 5.83334,-7.36458 16.58854,-7.36458 10.71875,0 16.55209,7.36458 5.83333,7.32812 5.83333,20.89062 z"
         inkscape:connector-curvature="0" /></g><g
       id="flowRoot4569-5"
       style="font-style:normal;font-weight:normal;font-size:40px;line-height:1.25;font-family:sans-serif;letter-spacing:0px;word-spacing:0px;fill:#ffffff;fill-opacity:1;stroke:none"
       transform="matrix(0.88536386,0,0,0.88536386,-14.419022,25.448469)"
       aria-label="2"><path
         id="path4655"
         style="font-style:normal;font-variant:normal;font-weight:bold;font-stretch:normal;font-size:74.66666412px;font-family:sans-serif;-inkscape-font-specification:'sans-serif Bold';fill:#ffffff"
         d="m 598.36198,188.92838 h 23.95312 v 10.31771 h -39.55729 v -10.31771 l 19.86979,-17.53645 q 2.66146,-2.40625 3.9375,-4.70313 1.27604,-2.29687 1.27604,-4.77604 0,-3.82813 -2.58854,-6.16146 -2.55208,-2.33333 -6.8177,-2.33333 -3.28125,0 -7.1823,1.42187 -3.90104,1.38542 -8.34895,4.15625 v -11.95833 q 4.73958,-1.56771 9.36979,-2.36979 4.63021,-0.83854 9.07812,-0.83854 9.77083,0 15.16667,4.30208 5.43229,4.30208 5.43229,11.99479 0,4.44792 -2.29688,8.3125 -2.29687,3.82813 -9.66145,10.28125 z"
         inkscape:connector-curvature="0" /></g><g
       id="flowRoot4569-5-2"
       style="font-style:normal;font-weight:normal;font-size:40px;line-height:1.25;font-family:sans-serif;letter-spacing:0px;word-spacing:0px;fill:#ffffff;fill-opacity:1;stroke:none"
       transform="matrix(0.88536386,0,0,0.88536386,-17.524153,136.23481)"
       aria-label="4"><path
         id="path4658"
         style="font-style:normal;font-variant:normal;font-weight:bold;font-stretch:normal;font-size:74.66666412px;font-family:sans-serif;-inkscape-font-specification:'sans-serif Bold';fill:#ffffff"
         d="m 604.34114,156.37109 -15.38541,22.78646 h 15.38541 z m -2.33333,-11.55729 h 15.60417 v 34.34375 h 7.76562 v 10.17188 h -7.76562 v 9.91666 h -13.27084 v -9.91666 h -24.13541 v -12.03125 z"
         inkscape:connector-curvature="0" /></g><g
       id="flowRoot4569-5-2-7"
       style="font-style:normal;font-weight:normal;font-size:40px;line-height:1.25;font-family:sans-serif;letter-spacing:0px;word-spacing:0px;fill:#ffffff;fill-opacity:1;stroke:none"
       transform="matrix(0.88536386,0,0,0.88536386,88.532159,134.4537)"
       aria-label="8"><path
         id="path4649"
         style="font-style:normal;font-variant:normal;font-weight:bold;font-stretch:normal;font-size:74.66666412px;font-family:sans-serif;-inkscape-font-specification:'sans-serif Bold';fill:#ffffff"
         d="m 602.84635,174.89193 q -3.9375,0 -6.05208,2.15104 -2.11458,2.15104 -2.11458,6.16146 0,4.01041 2.11458,6.16145 2.11458,2.11459 6.05208,2.11459 3.90104,0 5.97917,-2.11459 2.07812,-2.15104 2.07812,-6.16145 0,-4.04688 -2.07812,-6.16146 -2.07813,-2.15104 -5.97917,-2.15104 z m -10.24479,-4.63021 q -4.95833,-1.49479 -7.47396,-4.59375 -2.51562,-3.09896 -2.51562,-7.72917 0,-6.89062 5.14062,-10.5 5.14063,-3.60937 15.09375,-3.60937 9.88021,0 15.02084,3.60937 5.14062,3.57292 5.14062,10.5 0,4.63021 -2.55208,7.72917 -2.51563,3.09896 -7.47396,4.59375 5.54167,1.53125 8.34896,4.99479 2.84375,3.42708 2.84375,8.67708 0,8.09375 -5.39584,12.25 -5.35937,4.11979 -15.93229,4.11979 -10.60937,0 -16.04166,-4.11979 -5.39584,-4.15625 -5.39584,-12.25 0,-5.25 2.8073,-8.67708 2.84375,-3.46354 8.38541,-4.99479 z m 3.28125,-10.90104 q 0,3.24479 1.78646,4.99479 1.82292,1.75 5.17708,1.75 3.28125,0 5.06771,-1.75 1.78646,-1.75 1.78646,-4.99479 0,-3.2448 -1.78646,-4.95834 -1.78646,-1.75 -5.06771,-1.75 -3.35416,0 -5.17708,1.75 -1.78646,1.75 -1.78646,4.95834 z"
         inkscape:connector-curvature="0" /></g></g></svg>