<?xml version="1.0" encoding="UTF-8" standalone="no"?>
<!-- Created with Inkscape (http://www.inkscape.org/) -->

<svg
   xmlns:dc="http://purl.org/dc/elements/1.1/"
   xmlns:cc="http://creativecommons.org/ns#"
   xmlns:rdf="http://www.w3.org/1999/02/22-rdf-syntax-ns#"
   xmlns:svg="http://www.w3.org/2000/svg"
   xmlns="http://www.w3.org/2000/svg"
   xmlns:sodipodi="http://sodipodi.sourceforge.net/DTD/sodipodi-0.dtd"
   xmlns:inkscape="http://www.inkscape.org/namespaces/inkscape"
   id="svg3007"
   version="1.1"
   inkscape:version="0.48.5 r10040"
   width="513"
   height="513"
   sodipodi:docname="gnome-nettool.svg"
   viewBox="0 0 513 513">
  <metadata
     id="metadata3013">
    <rdf:RDF>
      <cc:Work
         rdf:about="">
        <dc:format>image/svg+xml</dc:format>
        <dc:type
           rdf:resource="http://purl.org/dc/dcmitype/StillImage" />
        <dc:title />
      </cc:Work>
    </rdf:RDF>
  </metadata>
  <defs
     id="defs3011" />
  <sodipodi:namedview
     pagecolor="#ffffff"
     bordercolor="#666666"
     borderopacity="1"
     objecttolerance="10"
     gridtolerance="10"
     guidetolerance="10"
     inkscape:pageopacity="0"
     inkscape:pageshadow="2"
     inkscape:window-width="1366"
     inkscape:window-height="716"
     id="namedview3009"
     showgrid="false"
     inkscape:zoom="0.65059338"
     inkscape:cx="163.1253"
     inkscape:cy="301.44241"
     inkscape:window-x="0"
     inkscape:window-y="0"
     inkscape:window-maximized="1"
     inkscape:current-layer="svg3007"
     inkscape:document-units="px" />
  <path
     inkscape:connector-curvature="0"
     d="m 251.35703,21.954732 c -124.06456,0 -224.999987,100.934338 -224.999987,224.999988 0,124.06456 100.935427,225.00001 224.999987,225.00001 124.06456,0 225.00001,-100.93545 225.00001,-225.00001 0,-124.06565 -100.93545,-224.999988 -225.00001,-224.999988 z M 365.61773,125.2756 C 336.87451,96.986762 299.9625,78.980225 254.08872,77.231545 l 0,-45.976442 c 58.98058,1.179593 107.32498,23.79757 145.08567,59.998534 L 365.61773,125.2756 z m -111.53012,16.18361 c 27.30583,1.10316 48.97684,11.39855 66.72997,27.68266 l -66.72997,66.7278 0,-94.41046 z m -9.83009,102.76494 -98.396,0 c 2.3494,-54.61165 48.15329,-100.41554 98.396,-102.76494 l 0,102.76494 z m 0,9.8301 0,98.396 c -50.24271,-2.34941 -96.0466,-48.15329 -98.396,-98.396 l 98.396,0 z m 9.83009,0 102.76495,0 c -2.34941,50.24271 -48.15329,96.04659 -102.76495,98.396 l 0,-98.396 z m 74.14951,-91.40242 C 308.81614,144.71081 285.76238,133.392 254.08761,132.27573 l 0,-45.86069 c 40.41263,1.742118 77.49503,18.72414 104.57149,45.34952 l -30.42198,30.88727 z m -83.9796,-30.3761 c -54.61165,2.36141 -105.21918,52.96783 -107.57949,111.94842 l -45.977537,0 C 91.927053,157.93773 162.34004,87.524747 244.25752,86.299275 l 0,45.976455 z M 136.67803,254.05425 c 2.36031,54.61165 52.96784,105.21699 107.57949,107.57949 l 0,41.3858 C 162.34004,401.8137 94.407513,335.97173 90.818443,254.05425 l 45.859587,0 z m 117.40958,107.57949 c 58.9806,-2.3625 109.58593,-52.96784 111.94843,-107.57949 l 41.26784,0 c -3.52463,77.54854 -71.29878,145.32379 -153.21627,148.84732 l 0,-41.26783 z m -9.83009,-330.378637 0,45.859583 C 156.87887,78.343456 82.745753,152.47657 81.516983,244.22415 l -45.85849,0 C 38.086523,125.17075 129.57306,33.683133 244.25752,31.255103 z M 35.658493,254.05425 l 45.97646,0 c 3.59891,87.37865 75.245017,156.94185 162.623657,158.14879 l 0,50.45132 C 129.57306,460.22414 38.086523,368.73871 35.658493,254.05425 z m 218.429117,208.60011 0,-50.56929 c 86.28643,-3.53774 158.86201,-76.11445 162.40086,-158.03191 l 50.56929,0 c -2.43131,114.68555 -93.91674,206.17098 -212.97015,208.6012 z"
     id="path3340"
     style="fill:#00bbf2;fill-opacity:1" />
</svg>
