<?xml version="1.0" encoding="UTF-8" standalone="no"?>
<!-- Created with Inkscape (http://www.inkscape.org/) -->

<svg
   xmlns:dc="http://purl.org/dc/elements/1.1/"
   xmlns:cc="http://creativecommons.org/ns#"
   xmlns:rdf="http://www.w3.org/1999/02/22-rdf-syntax-ns#"
   xmlns:svg="http://www.w3.org/2000/svg"
   xmlns="http://www.w3.org/2000/svg"
   xmlns:sodipodi="http://sodipodi.sourceforge.net/DTD/sodipodi-0.dtd"
   xmlns:inkscape="http://www.inkscape.org/namespaces/inkscape"
   id="svg2"
   version="1.1"
   inkscape:version="0.91 r13725"
   width="512"
   height="512"
   sodipodi:docname="gnome-cups-manager.svg"
   viewBox="0 0 512 512">
  <metadata
     id="metadata8">
    <rdf:RDF>
      <cc:Work
         rdf:about="">
        <dc:format>image/svg+xml</dc:format>
        <dc:type
           rdf:resource="http://purl.org/dc/dcmitype/StillImage" />
        <dc:title />
      </cc:Work>
    </rdf:RDF>
  </metadata>
  <defs
     id="defs6" />
  <sodipodi:namedview
     pagecolor="#ffffff"
     bordercolor="#666666"
     borderopacity="1"
     objecttolerance="10"
     gridtolerance="10"
     guidetolerance="10"
     inkscape:pageopacity="0"
     inkscape:pageshadow="2"
     inkscape:window-width="1366"
     inkscape:window-height="715"
     id="namedview4"
     showgrid="false"
     showguides="true"
     inkscape:guide-bbox="true"
     inkscape:snap-global="false"
     inkscape:zoom="0.85141425"
     inkscape:cx="270.10458"
     inkscape:cy="259.89838"
     inkscape:window-x="0"
     inkscape:window-y="24"
     inkscape:window-maximized="1"
     inkscape:current-layer="svg2"
     inkscape:document-units="px" />
  <g
     id="g4176">
    <path
       style="fill:#b3b3b3;stroke-width:0.94224596;fill-opacity:1"
       d="m 161.05802,442.60221 c -0.44149,-1.14683 -0.57997,-3.23812 -0.30767,-4.64738 0.44728,-2.31493 2.2772,-2.56227 18.95569,-2.56227 l 18.46062,0 0,4.25059 0,4.25061 -18.15293,0.39676 c -14.92734,0.32623 -18.29557,0.0262 -18.95571,-1.68831 z"
       id="path3027"
       inkscape:connector-curvature="0" />
    <path
       style="fill:#b3b3b3;stroke-width:0.94224596;fill-opacity:1"
       d="m 217.90889,442.57393 c -0.43551,-1.1312 -0.56906,-3.20974 -0.29677,-4.619 0.46914,-2.42798 3.95892,-2.56228 66.57744,-2.56228 l 66.08234,0 0,4.25059 0,4.25062 -65.7856,0.3684 c -56.42687,0.31595 -65.89821,0.0757 -66.57741,-1.68833 z"
       id="path3025"
       inkscape:connector-curvature="0" />
    <path
       style="fill:#b3b3b3;stroke-width:0.94224596;fill-opacity:1"
       d="m 160.49572,407.76372 0,-4.29407 40.8694,0.37597 40.86941,0.37596 0,3.54214 0,3.54216 -40.86941,0.37597 -40.8694,0.37594 0,-4.29407 z"
       id="path3023"
       inkscape:connector-curvature="0" />
    <path
       style="fill:#b3b3b3;stroke-width:0.94224596;fill-opacity:1"
       d="m 260.51789,409.889 c -0.45003,-1.16889 -0.45003,-3.08167 0,-4.25057 0.7033,-1.82677 7.09156,-2.12532 45.47571,-2.12532 41.33744,0 44.70544,0.18434 45.30269,2.47952 1.56284,6.00607 1.4455,6.02169 -45.25535,6.02169 -38.42623,0 -44.8197,-0.29849 -45.52305,-2.12533 z"
       id="path3021"
       inkscape:connector-curvature="0" />
    <path
       style="fill:#b0b0af;stroke-width:0.94224596"
       d="m 41.46079,385.14162 c -6.913,-1.65113 -14.59721,-8.20449 -17.62813,-15.03386 -2.58735,-5.82981 -2.68415,-10.63189 -2.31879,-115.02423 l 0.38127,-108.94039 3.38939,-4.92955 c 1.86417,-2.71124 5.70233,-6.46542 8.52928,-8.34264 4.83031,-3.20757 6.89508,-3.48469 34.28154,-4.60127 16.0279,-0.65347 112.62185,-0.97973 214.6532,-0.72506 204.73191,0.51106 190.72902,-0.14726 199.76177,9.39142 2.31696,2.44674 4.96747,6.52269 5.89003,9.05765 1.22942,3.37817 1.70623,33.19039 1.78551,111.6363 l 0.10816,107.0273 -3.1985,6.30296 c -1.86858,3.68226 -5.76013,8.07813 -9.35951,10.57245 l -6.16101,4.26957 -47.00779,0.44325 c -37.63372,0.35487 -47.24377,0.0723 -48.19127,-1.41686 -0.65093,-1.02305 -1.1933,-9.03664 -1.20526,-17.80795 l -0.0217,-15.94781 -119.05435,0.3623 -119.05433,0.36231 -0.71077,17.00239 -0.71078,17.00237 -44.77864,0.21908 c -24.62826,0.12056 -46.84893,-0.27538 -49.37928,-0.87973 z"
       id="path3019"
       inkscape:connector-curvature="0" />
    <path
       style="fill:#b0b0af;stroke-width:0.94224596"
       d="m 334.69952,190.33931 c 6.63562,-6.61378 3.28014,-17.76793 -6.04701,-20.10123 -7.51762,-1.88056 -16.00739,6.58126 -14.1206,14.07413 2.34097,9.29644 13.53199,12.64091 20.16761,6.0271 z"
       id="path3017"
       inkscape:connector-curvature="0" />
    <path
       style="fill:#b3b3b3;stroke-width:0.94224596;fill-opacity:1"
       d="m 161.04734,378.81548 c -0.43563,-1.1315 -0.56929,-3.2103 -0.29699,-4.61956 0.46876,-2.42599 3.85851,-2.56228 63.73436,-2.56228 l 63.23923,0 0,4.25061 0,4.25058 -62.94226,0.36899 c -53.95032,0.31626 -63.05542,0.0753 -63.73434,-1.68833 z"
       id="path3015"
       inkscape:connector-curvature="0" />
    <path
       style="fill:#b3b3b3;stroke-width:0.94224596;fill-opacity:1"
       d="m 307.475,378.83772 c -0.44035,-1.14379 -0.57788,-3.23262 -0.30558,-4.64188 0.45218,-2.34025 2.40271,-2.56228 22.50956,-2.56228 l 22.01445,0 0,4.25061 0,4.2506 -21.70889,0.39128 c -18.02749,0.3249 -21.84466,0.0387 -22.50954,-1.68832 z"
       id="path3013"
       inkscape:connector-curvature="0" />
    <path
       style="fill:#13b4e5;stroke-width:0.94224596"
       d="m 41.79397,385.76719 c -4.2769,-1.71936 -9.58785,-3.85191 -12.93527,-7.55939 -2.54857,-2.82271 -4.31129,-6.28312 -5.60457,-9.73973 -2.95592,-7.90035 -1.32233,-9.76986 -1.34053,-113.18693 l -0.22716,-109.36493 2.87231,-3.87217 c 3.14394,-4.23838 10.71199,-12.02815 18.72703,-12.72544 8.01138,-0.69697 417.79349,-2.48222 425.90676,-0.32442 11.15598,2.39165 15.55054,7.73303 18.24886,14.51115 l 3.49842,9.50678 -0.31307,103.0679 0,106.61584 -4.4142,7.88961 c -2.33979,4.18201 -5.51486,8.26561 -9.13419,10.66161 l -5.76349,3.81545 -46.30605,0 -46.30604,0 -0.40444,-16.26124 c -0.22386,-8.99943 -1.0951,-17.0934 -1.95099,-18.12468 -1.25311,-1.50988 -23.96769,-1.85933 -119.71604,-1.84171 -64.99325,0.0124 -118.94766,0.51626 -119.89873,1.12057 -1.1606,0.73748 -1.86177,6.69029 -2.13231,18.10293 l -0.40312,17.00413 -45.48942,0.2755 c -27.49226,0.1665 -44.79158,1.2823 -46.91376,0.42917 z M 335.79049,191.29931 c 5.62742,-5.87376 5.38484,-14.34498 -0.55387,-19.34209 -6.11936,-5.1491 -13.03394,-4.97135 -18.48036,0.47506 -5.44642,5.4464 -5.62418,12.361 -0.47506,18.48036 3.03996,3.61276 4.7249,4.3737 9.68484,4.3737 4.72325,0 6.81978,-0.85083 9.82445,-3.98703 z"
       id="path2999"
       inkscape:connector-curvature="0"
       sodipodi:nodetypes="sssscsscccccsscccssscscssssssss" />
    <path
       style="fill:#000000;fill-opacity:0;stroke-width:0.94224596"
       d="m 39.87082,384.26265 c -6.7731,-2.73328 -12.00708,-7.62491 -14.71977,-13.75694 -1.53049,-3.45961 -2.47316,-6.59973 -2.09482,-6.97802 0.37834,-0.37832 1.41927,1.52814 2.3132,4.2365 2.14713,6.50547 5.36794,10.03705 12.20992,13.38829 4.94061,2.41992 7.88363,2.68296 23.76365,2.12381 l 18.12469,-0.63823 0,-32.64024 c 0,-19.78146 0.57973,-33.72337 1.47157,-35.38966 1.4425,-2.69518 4.88748,-2.74942 174.56564,-2.74942 132.73335,0 173.49185,0.39773 174.79994,1.70571 1.23079,1.2307 1.70586,11.08629 1.70586,35.38968 l 0,33.68394 18.12469,0.59188 c 13.56096,0.44287 19.14228,0.0954 22.16604,-1.38004 2.22274,-1.08461 4.39998,-1.6134 4.83829,-1.17511 0.43831,0.43826 -1.54147,1.77384 -4.39954,2.96789 -4.35551,1.81974 -12.38504,2.1103 -49.61693,1.79546 l -44.42047,-0.37561 -0.40444,-16.25995 c -0.22386,-8.99875 -1.0951,-17.09206 -1.95099,-18.12329 -1.25311,-1.50975 -23.96769,-1.85916 -119.71604,-1.84153 -64.99325,0.0124 -118.94766,0.5162 -119.89873,1.12048 -1.1606,0.73742 -1.86177,6.68978 -2.13231,18.1015 l -0.40312,17.00279 -45.48942,0.27551 c -26.15749,0.15839 -46.91202,-0.29863 -48.83691,-1.0754 z m 439.05085,-5.24845 c 0,-0.78181 1.05863,-2.29933 2.3525,-3.37231 6.90576,-5.72661 6.86012,-5.0099 7.29588,-114.59385 0.28446,-71.52653 -0.0574,-103.56319 -1.12622,-105.56025 -0.98961,-1.84896 -1.0592,-3.71674 -0.19599,-5.25914 2.70049,-4.82513 3.22502,16.80357 2.78219,114.72279 l -0.44678,98.7896 -3.2696,6.63678 c -3.23126,6.55895 -7.39198,11.42012 -7.39198,8.63638 z M 21.85559,255.71211 l 0.0396,-105.18607 3.18536,-5.95874 c 3.83953,-7.18251 10.43011,-12.4311 18.20526,-14.49828 8.11571,-2.15773 416.75,-2.16902 424.86325,-0.0124 7.37685,1.96149 14.39685,7.25848 17.33431,13.07973 2.11334,4.18812 1.88635,4.07713 -2.88238,-1.40965 -2.84703,-3.2757 -7.23841,-7.03115 -9.75864,-8.34543 -4.28612,-2.23555 -26.61616,-4.79589 -26.61616,-3.05215 0,0.42908 2.19811,5.14869 4.88472,10.48802 7.47517,14.8562 9.71303,25.57143 9.0037,43.11154 -0.42715,10.56273 -1.54286,17.62555 -3.81716,24.16437 -8.79015,25.27242 -28.56081,45.07543 -54.13915,54.22785 -7.8737,2.81734 -11.97269,3.30625 -27.72011,3.30625 -15.7474,0 -19.84641,-0.48891 -27.72011,-3.30625 -12.64777,-4.5256 -23.84761,-11.5752 -33.12035,-20.84723 l -7.7954,-7.79479 -92.91029,-0.003 -92.91029,-0.003 -8.52928,-4.42598 C 99.1521,222.86361 92.88112,216.20627 86.17074,202.40703 l -5.87539,-12.08216 -0.58807,-30.20547 -0.58807,-30.20545 -15.10732,0.009 c -17.93254,0.0112 -24.14253,1.49391 -30.83753,7.37173 -5.4283,4.76574 -7.76912,8.40422 -8.96085,13.92838 -0.42322,1.96128 -1.1358,49.94072 -1.58347,106.62036 l -0.81397,103.05394 0.0396,-105.18609 z m 313.9349,-64.39762 c 5.62742,-5.87333 5.38484,-14.34388 -0.55387,-19.34059 -6.11936,-5.14871 -13.03394,-4.97099 -18.48036,0.47502 -5.44642,5.44598 -5.62418,12.36004 -0.47506,18.47891 3.03996,3.6125 4.7249,4.37334 9.68484,4.37334 4.72325,0 6.81978,-0.85074 9.82445,-3.98668 z"
       id="path2997"
       inkscape:connector-curvature="0" />
    <rect
       style="fill:#00bbf2;fill-opacity:1;fill-rule:evenodd;stroke:none;stroke-width:0.94224596"
       id="rect3838"
       width="470"
       height="259.62701"
       x="20.999998"
       y="127.04215"
       rx="24.929049" />
    <path
       style="fill:#394050;stroke-width:0.94224596"
       d="m 81.35133,347.46379 -0.20909,-34.85183 174.00667,0.59828 173.41634,-1.19658 0.3812,37.24589 0.76279,37.31848 -26.45899,0.12965 -27.50255,-0.082 -0.36349,-19.72644 c -0.13945,-7.57022 0.23569,-14.2278 -1.09009,-15.34299 -1.35092,-1.13634 -25.92019,-0.14514 -119.85111,0.0493 l -117.42837,0.24297 -0.29335,13.99074 -0.39771,20.97118 -27.38464,-0.028 -27.58721,-0.0309 z"
       id="path3014"
       inkscape:connector-curvature="0" />
    <g
       id="g3858"
       transform="matrix(1.4215444,0,0,1.4215444,-27.14813,-32.160755)"
       style="fill:#ebebeb;fill-opacity:1">
      <rect
         rx="1.3801507"
         y="269.91525"
         x="114.9038"
         height="79.728813"
         width="168.43777"
         id="rect3800"
         style="fill:#ebebeb;fill-opacity:1;fill-rule:evenodd;stroke:none" />
      <rect
         rx="1.3801507"
         y="269.5"
         x="114.89552"
         height="28.652542"
         width="168.43777"
         id="rect3800-2"
         style="fill:#ebebeb;fill-opacity:1;fill-rule:evenodd;stroke:none" />
    </g>
    <path
       style="fill:#b3b3b3;fill-opacity:1;fill-rule:evenodd;stroke:none;stroke-width:0.94224596"
       d="m 324.44531,372.06055 c -0.83217,0 -1.50195,0.66978 -1.50195,1.50195 l 0,4.20508 c 0,0.83217 0.66978,1.50195 1.50195,1.50195 l 37.90039,0 c 0.83217,0 1.50196,-0.66978 1.50196,-1.50195 l 0,-4.20508 c 0,-0.83217 -0.66979,-1.50195 -1.50196,-1.50195 l -37.90039,0 z m -169.83203,0.30273 c -1.18032,0 -2.13086,0.95054 -2.13086,2.13086 l 0,2.94922 c 0,1.18032 0.95054,2.13086 2.13086,2.13086 l 53.75781,0 c 1.18033,0 2.13086,-0.95054 2.13086,-2.13086 l 0,-2.94922 c 0,-1.18032 -0.95053,-2.13086 -2.13086,-2.13086 l -53.75781,0 z m 71.38086,0 c -1.87663,0 -3.38672,1.51009 -3.38672,3.38672 l 0,0.43555 c 0,1.87663 1.51009,3.38867 3.38672,3.38867 l 85.47266,0 c 1.87663,0 3.38672,-1.51204 3.38672,-3.38867 l 0,-0.43555 c 0,-1.87663 -1.51009,-3.38672 -3.38672,-3.38672 l -85.47266,0 z m 68.16797,31.98828 c -1.48602,0 -2.68164,1.19758 -2.68164,2.6836 l 0,1.84375 c 0,1.48602 1.19562,2.68359 2.68164,2.68359 l 67.68164,0 c 1.48602,0 2.68164,-1.19757 2.68164,-2.68359 l 0,-1.84375 c 0,-1.48602 -1.19562,-2.6836 -2.68164,-2.6836 l -67.68164,0 z m -136.90234,0.41797 c -2.53048,0 -4.56836,1.60836 -4.56836,3.60547 0,1.99711 2.03788,3.60352 4.56836,3.60352 l 115.25195,0 c 2.53048,0 4.5664,-1.60641 4.5664,-3.60352 0,-1.99711 -2.03592,-3.60547 -4.5664,-3.60547 l -115.25195,0 z m 58.08398,35.47852 c -0.83217,0 -1.50195,0.67173 -1.50195,1.5039 l 0,4.20508 c 0,0.83217 0.66978,1.50195 1.50195,1.50195 l 37.90234,0 c 0.83218,0 1.50196,-0.66978 1.50196,-1.50195 l 0,-4.20508 c 0,-0.83217 -0.66978,-1.5039 -1.50196,-1.5039 l -37.90234,0 z m 53.16211,0 c -2.07194,0 -3.74024,1.60836 -3.74024,3.60547 0,1.9971 1.6683,3.60546 3.74024,3.60546 l 94.36719,0 c 2.07193,0 3.74023,-1.60836 3.74023,-3.60546 0,-1.99711 -1.6683,-3.60547 -3.74023,-3.60547 l -94.36719,0 z M 155.6543,440.25 c -0.83217,0 -1.50196,0.66978 -1.50196,1.50195 l 0,4.20508 c 0,0.83217 0.66979,1.50195 1.50196,1.50195 l 37.90234,0 c 0.83217,0 1.50195,-0.66978 1.50195,-1.50195 l 0,-4.20508 c 0,-0.83217 -0.66978,-1.50195 -1.50195,-1.50195 l -37.90234,0 z"
       id="rect3862"
       inkscape:connector-curvature="0" />
    <rect
       style="fill:#394050;fill-opacity:1;fill-rule:evenodd;stroke:none;stroke-width:0.94224596"
       id="rect3016"
       width="346.50186"
       height="65.791496"
       x="82.397614"
       y="159.72659"
       rx="50.021095" />
    <rect
       style="fill:#ebebeb;fill-opacity:1;fill-rule:evenodd;stroke:none;stroke-width:0.94224596"
       id="rect3800-1-0"
       width="240.6571"
       height="57.242302"
       x="135.80484"
       y="70.719223"
       rx="1.9719034" />
    <rect
       style="fill:#394050;fill-opacity:1;fill-rule:evenodd;stroke:none;stroke-width:0.94224596"
       id="rect3016-0"
       width="346.50186"
       height="65.597649"
       x="82.443268"
       y="127.00758" />
    <ellipse
       style="fill:#f03916;fill-opacity:1;fill-rule:evenodd;stroke:#33475c;stroke-width:0;stroke-linecap:round;stroke-linejoin:miter;stroke-miterlimit:4;stroke-dasharray:none;stroke-opacity:1"
       id="path3003-5"
       cx="389.62808"
       cy="169.96059"
       rx="15.652754"
       ry="15.026644" />
    <path
       style="fill:#394050;stroke-width:0.94224596"
       id="path68"
       inkscape:connector-curvature="0"
       d="m 136.43626,73.764294 239.66527,0 0,53.276216 29.95817,0 0,-53.276216 c 0,-14.697575 -13.39972,-26.638104 -29.95817,-26.638104 l -239.66527,0 c -16.52939,0 -29.95814,11.940529 -29.95814,26.638104 l 0,53.276216 29.95814,0 0,-53.276216" />
  </g>
</svg>
