<?xml version="1.0" encoding="UTF-8" standalone="no"?>
<!-- Created with Inkscape (http://www.inkscape.org/) -->

<svg
   xmlns:dc="http://purl.org/dc/elements/1.1/"
   xmlns:cc="http://creativecommons.org/ns#"
   xmlns:rdf="http://www.w3.org/1999/02/22-rdf-syntax-ns#"
   xmlns:svg="http://www.w3.org/2000/svg"
   xmlns="http://www.w3.org/2000/svg"
   xmlns:sodipodi="http://sodipodi.sourceforge.net/DTD/sodipodi-0.dtd"
   xmlns:inkscape="http://www.inkscape.org/namespaces/inkscape"
   version="1.1"
   width="360"
   height="360"
   id="svg2"
   inkscape:version="0.91 r13725"
   sodipodi:docname="google-spreadsheets.svg">
  <sodipodi:namedview
     pagecolor="#ffffff"
     bordercolor="#666666"
     borderopacity="1"
     objecttolerance="10"
     gridtolerance="10"
     guidetolerance="10"
     inkscape:pageopacity="0"
     inkscape:pageshadow="2"
     inkscape:window-width="1366"
     inkscape:window-height="715"
     id="namedview6"
     showgrid="false"
     inkscape:zoom="0.70710678"
     inkscape:cx="108.33851"
     inkscape:cy="179.44687"
     inkscape:window-x="0"
     inkscape:window-y="24"
     inkscape:window-maximized="1"
     inkscape:current-layer="svg2"
     showguides="true"
     inkscape:guide-bbox="true" />
  <metadata
     id="metadata8">
    <rdf:RDF>
      <cc:Work
         rdf:about="">
        <dc:format>image/svg+xml</dc:format>
        <dc:type
           rdf:resource="http://purl.org/dc/dcmitype/StillImage" />
        <dc:title />
      </cc:Work>
    </rdf:RDF>
  </metadata>
  <defs
     id="defs6" />
  <g
     id="g4156">
    <path
       id="rect3017"
       d="m 63.46875,20.09375 c -7.78481,0 -14.03125,6.277686 -14.03125,14.0625 l 0,289.1875 c 0,7.78481 6.24644,14.03125 14.03125,14.03125 l 235.8125,0 c 7.78481,0 14.03125,-6.24644 14.03125,-14.03125 l 0,-226.375 -8.28125,-8.1875 -44.75,-44.375 -24.5,-24.28125 -0.0312,-0.03125 -172.28125,0 z"
       style="fill:#45d03f;fill-opacity:1;fill-rule:evenodd;stroke:none"
       inkscape:connector-curvature="0" />
    <path
       sodipodi:nodetypes="cccc"
       inkscape:connector-curvature="0"
       d="m 235.69845,96.807047 77.63081,0.132387 -77.57553,-76.844438 z"
       style="fill:#9ce697;fill-opacity:1;stroke:none"
       inkscape:label="Triangle"
       id="path3800" />
    <path
       sodipodi:nodetypes="cccc"
       inkscape:connector-curvature="0"
       d="m 313.32503,96.936654 -0.0278,77.503756 -77.60354,-77.635631 z"
       style="opacity:0.79032258;fill:#2fa929;fill-opacity:1;stroke:none"
       inkscape:label="Triangle"
       id="path3800-6" />
    <g
       transform="matrix(1.9299935,0,0,1.9299935,-117.40335,-185.35081)"
       id="g4243">
      <rect
         style="fill:#ffffff;fill-opacity:1;stroke:none"
         id="rect4151"
         width="10.253048"
         height="66.29126"
         x="112.26245"
         y="177.79782" />
      <rect
         style="fill:#ffffff;fill-opacity:1;stroke:none"
         id="rect4151-3"
         width="10.253048"
         height="64.29126"
         x="140.54669"
         y="178.37234" />
      <rect
         style="fill:#ffffff;fill-opacity:1;stroke:none"
         id="rect4151-3-6"
         width="10.253048"
         height="66.29126"
         x="187.39252"
         y="177.84203" />
      <rect
         style="fill:#ffffff;fill-opacity:1;stroke:none"
         id="rect4151-3-6-7"
         width="10.253048"
         height="66.29126"
         x="-188.09117"
         y="122.45312"
         transform="matrix(0,-1,1,0,0,0)" />
      <rect
         style="fill:#ffffff;fill-opacity:1;stroke:none"
         id="rect4151-3-6-7-5"
         width="10.253048"
         height="66.29126"
         x="-244.11136"
         y="121.85437"
         transform="matrix(0,-1,1,0,0,0)" />
      <rect
         style="fill:#ffffff;fill-opacity:1;stroke:none"
         id="rect4151-3-6-7-5-3"
         width="10.253048"
         height="66.29126"
         x="-225.62653"
         y="121.60437"
         transform="matrix(0,-1,1,0,0,0)" />
      <rect
         style="fill:#ffffff;fill-opacity:1;stroke:none"
         id="rect4151-3-6-7-5-3-5"
         width="10.253048"
         height="66.29126"
         x="-206.37653"
         y="121.35437"
         transform="matrix(0,-1,1,0,0,0)" />
    </g>
  </g>
</svg>
