<?xml version="1.0" encoding="UTF-8" standalone="no"?>
<!-- Creator: CorelDRAW X5 -->

<svg
   xmlns:dc="http://purl.org/dc/elements/1.1/"
   xmlns:cc="http://creativecommons.org/ns#"
   xmlns:rdf="http://www.w3.org/1999/02/22-rdf-syntax-ns#"
   xmlns:svg="http://www.w3.org/2000/svg"
   xmlns="http://www.w3.org/2000/svg"
   xmlns:sodipodi="http://sodipodi.sourceforge.net/DTD/sodipodi-0.dtd"
   xmlns:inkscape="http://www.inkscape.org/namespaces/inkscape"
   style="clip-rule:evenodd;fill-rule:evenodd;image-rendering:optimizeQuality;shape-rendering:geometricPrecision;text-rendering:geometricPrecision"
   xml:space="preserve"
   height="512mm"
   width="512mm"
   viewBox="0 0 56363.757 56362.64"
   id="svg2"
   version="1.1"
   inkscape:version="0.91 r13725"
   sodipodi:docname="google-translate.svg"><metadata
     id="metadata17"><rdf:RDF><cc:Work
         rdf:about=""><dc:format>image/svg+xml</dc:format><dc:type
           rdf:resource="http://purl.org/dc/dcmitype/StillImage" /><dc:title /></cc:Work></rdf:RDF></metadata><sodipodi:namedview
     pagecolor="#ffffff"
     bordercolor="#666666"
     borderopacity="1"
     objecttolerance="10"
     gridtolerance="10"
     guidetolerance="10"
     inkscape:pageopacity="0"
     inkscape:pageshadow="2"
     inkscape:window-width="1366"
     inkscape:window-height="715"
     id="namedview15"
     showgrid="false"
     inkscape:zoom="0.088388348"
     inkscape:cx="-1644.9081"
     inkscape:cy="1808.1339"
     inkscape:window-x="0"
     inkscape:window-y="24"
     inkscape:window-maximized="1"
     inkscape:current-layer="svg2"
     inkscape:snap-bbox="true" /><defs
     id="defs4"><style
       type="text/css"
       id="style6">
    .fil0 {fill:red}
    .fil1 {fill:black;fill-rule:nonzero}
   </style></defs><g
     id="g4154"><path
       id="rect4148-3"
       d="m 48238.42,52641.495 c 2118.955,0 3824.848,-1705.882 3824.848,-3824.846 l 0,-31797.056 c 0,-2118.969 -1705.893,-3824.852 -3824.848,-3824.852 l -29364.024,0 c -549.59,0 -1071.095,115.444 -1542.557,322.396 l 12716.962,39124.358 18189.619,0 z"
       style="clip-rule:evenodd;fill:#ebebeb;fill-opacity:1;fill-rule:evenodd;stroke:none;image-rendering:optimizeQuality;shape-rendering:geometricPrecision;text-rendering:geometricPrecision"
       inkscape:connector-curvature="0" /><path
       class="fil1"
       d="m 43477.328,23151.111 c 399.869,0 794.759,47.012 1185.225,136.354 385.766,164.539 578.511,366.945 578.511,606.706 -75.218,404.57 -1335.937,884.362 -3776.901,1434.67 -1472.267,310.546 -2680.995,540.896 -3640.57,686.609 -291.743,1547.491 -456.278,2793.822 -493.888,3748.701 1669.713,-639.626 3188.99,-1001.89 4548.429,-1072.407 -37.609,-348.146 -112.825,-644.304 -220.949,-884.334 -94.022,-239.762 -136.333,-395.184 -136.333,-465.7 0,-277.629 117.528,-413.955 357.56,-413.955 329.351,0 686.632,230.348 1072.396,686.635 202.148,296.428 338.757,653.717 413.97,1077.085 1561.588,108.142 2874.02,540.895 3941.725,1293.34 1542.772,1067.7 2314.03,2417.761 2314.03,4049.862 0,1858.012 -1157.025,3546.536 -3471.33,5075.229 -2041.375,1321.822 -4251.989,2008.457 -6641.517,2064.855 2036.671,-771.514 3729.889,-1646.194 5070.524,-2619.87 1947.349,-1411.165 2939.837,-2921.032 2977.444,-4520.214 37.617,-1392.366 -413.975,-2488.249 -1350.039,-3278.321 -757.153,-493.884 -1693.22,-799.456 -2812.629,-907.866 -202.144,1100.617 -681.931,2229.42 -1434.657,3391.409 -733.644,1119.418 -1716.723,2191.823 -2949.235,3221.897 315.252,531.511 681.935,983.091 1105.308,1350.035 235.052,296.455 385.765,550.308 437.474,771.271 -51.709,366.945 -437.474,578.495 -1157.017,634.918 -385.765,-56.423 -809.138,-404.569 -1265.143,-1048.9 -112.824,-145.74 -268.236,-385.77 -470.381,-714.847 -1599.197,992.503 -2958.638,1476.974 -4078.047,1462.883 -1655.609,-18.8 -2478.851,-921.96 -2478.851,-2704.506 0,-1138.218 569.11,-2314.031 1707.321,-3527.739 714.84,-771.27 1655.609,-1486.387 2812.627,-2149.49 32.907,-1063.02 235.052,-2497.662 606.713,-4299.009 l -470.381,0 c -498.591,0 -1067.701,-79.929 -1707.321,-244.467 -884.356,-220.937 -1326.534,-507.979 -1326.534,-856.151 0,-112.82 305.846,-164.511 912.562,-164.511 809.139,0 1782.813,-103.434 2921.03,-305.867 l 827.939,-3800.39 c 0,-550.309 -141.03,-983.091 -413.971,-1298.345 -258.835,-253.854 -385.763,-437.46 -385.763,-550.282 0,-239.761 301.146,-357.558 907.86,-357.558 277.638,0 691.337,301.135 1241.637,907.84 550.303,587.934 832.643,1058.314 851.448,1406.458 -253.86,517.391 -512.695,1039.488 -771.253,1570.998 -183.342,423.368 -385.764,1030.075 -606.715,1820.413 352.856,-94.023 884.355,-230.348 1599.194,-413.956 2111.891,-531.51 3334.724,-799.752 3668.776,-799.752 z m -7831.437,8734.613 c -696.036,442.167 -1312.431,968.971 -1843.928,1570.997 -973.676,1030.075 -1462.866,1947.354 -1462.866,2756.197 0,1142.922 460.982,1721.443 1378.245,1740.242 846.749,-56.424 1956.755,-587.908 3334.723,-1599.209 -70.516,-150.419 -253.859,-578.494 -550.301,-1298.047 -475.087,-1119.417 -761.851,-2177.704 -856.15,-3170.18 z m 6204.037,-2064.883 c -1378.244,108.116 -2765.617,460.994 -4162.664,1048.902 -75.217,18.798 -192.745,61.102 -357.559,136.326 56.413,1655.607 385.765,3066.772 992.48,4242.584 0,18.799 9.401,37.598 28.206,56.425 1834.525,-1599.208 3000.947,-3429.036 3499.537,-5484.504 z"
       id="path11"
       inkscape:connector-curvature="0"
       style="fill:#394050;fill-opacity:1;fill-rule:nonzero" /><path
       inkscape:connector-curvature="0"
       id="path4173"
       d="m 25683.272,39210.633 4356.401,13403.564 8124.493,-9662.385 -12480.894,-3741.179 z"
       style="fill:#0092bc;fill-opacity:1;fill-rule:evenodd;stroke:none;stroke-width:31.06856537px;stroke-linecap:butt;stroke-linejoin:miter;stroke-opacity:1" /><path
       inkscape:connector-curvature="0"
       id="rect4148"
       d="m 7266.5522,3808.8529 c -2118.9666,0 -3824.8487,1705.8826 -3824.8487,3824.8488 l 0,31797.0553 c 0,2118.966 1705.8821,3824.85 3824.8487,3824.85 l 29364.0168,0 c 549.585,0 1071.095,-115.443 1542.559,-322.392 L 25456.161,3808.8529 l -18189.6088,0 z"
       style="fill:#00bbf2;fill-opacity:1;stroke:none" /><g
       transform="matrix(34.870714,0,0,34.870714,7190.9071,13871.824)"
       id="g4151"><path
         style="fill:#ffffff;fill-opacity:1;fill-rule:evenodd"
         inkscape:connector-curvature="0"
         id="path6"
         d="m 482.56,261.36 c 0,-16.73 -1.5,-32.83 -4.29,-48.27 l -222.27,0 0,91.29 127.01,0 c -5.47,29.5 -22.1,54.49 -47.09,71.23 l 0,59.21 76.27,0 c 44.63,-41.09 70.37,-101.59 70.37,-173.46 z" /><path
         style="fill:#ffffff;fill-opacity:1;fill-rule:evenodd"
         inkscape:connector-curvature="0"
         id="path8"
         d="m 256,492 c 63.72,0 117.14,-21.13 156.19,-57.18 l -76.27,-59.21 c -21.13,14.16 -48.17,22.53 -79.92,22.53 -61.47,0 -113.49,-41.51 -132.05,-97.3 l -78.85,0 0,61.15 C 83.93,439.12 163.74,492 256,492 Z" /><path
         style="fill:#ffffff;fill-opacity:1;fill-rule:evenodd"
         inkscape:connector-curvature="0"
         id="path10"
         d="m 123.95,300.84 c -4.72,-14.16 -7.4,-29.29 -7.4,-44.84 0,-15.55 2.68,-30.68 7.4,-44.84 l 0,-61.15 -78.85,0 C 29.12,181.87 20,217.92 20,256 c 0,38.08 9.12,74.13 25.1,105.99 l 78.85,-61.15 z" /><path
         style="fill:#ffffff;fill-opacity:1;fill-rule:evenodd"
         inkscape:connector-curvature="0"
         id="path12"
         d="m 256,113.86 c 34.65,0 65.76,11.91 90.22,35.29 L 413.91,81.46 C 373.03,43.39 319.61,20 256,20 163.75,20 83.93,72.89 45.1,150.01 l 78.85,61.15 c 18.56,-55.78 70.59,-97.3 132.05,-97.3 z" /><path
         style="fill:none"
         inkscape:connector-curvature="0"
         id="path14"
         d="m 20,20 472,0 0,472 -472,0 0,-472 z" /></g></g></svg>