<?xml version="1.0" encoding="UTF-8" standalone="no"?>
<svg
   xmlns:dc="http://purl.org/dc/elements/1.1/"
   xmlns:cc="http://creativecommons.org/ns#"
   xmlns:rdf="http://www.w3.org/1999/02/22-rdf-syntax-ns#"
   xmlns:svg="http://www.w3.org/2000/svg"
   xmlns="http://www.w3.org/2000/svg"
   xmlns:xlink="http://www.w3.org/1999/xlink"
   xmlns:sodipodi="http://sodipodi.sourceforge.net/DTD/sodipodi-0.dtd"
   xmlns:inkscape="http://www.inkscape.org/namespaces/inkscape"
   viewBox="0 0 512 512"
   version="1.0"
   id="svg2"
   height="512"
   width="512"
   inkscape:version="0.91 r13725"
   sodipodi:docname="gopchop.svg">
  <sodipodi:namedview
     pagecolor="#ffffff"
     bordercolor="#666666"
     borderopacity="1"
     objecttolerance="10"
     gridtolerance="10"
     guidetolerance="10"
     inkscape:pageopacity="0"
     inkscape:pageshadow="2"
     inkscape:window-width="1366"
     inkscape:window-height="715"
     id="namedview30"
     showgrid="false"
     inkscape:zoom="0.58419177"
     inkscape:cx="407.35073"
     inkscape:cy="147.47002"
     inkscape:window-x="0"
     inkscape:window-y="24"
     inkscape:window-maximized="1"
     inkscape:current-layer="svg2" />
  <defs
     id="defs4">
    <linearGradient
       id="linearGradient4132">
      <stop
         id="stop4134"
         offset="0"
         style="stop-color:#f2f2f2;stop-opacity:1;" />
      <stop
         id="stop4136"
         offset="1"
         style="stop-color:#f2f2f2;stop-opacity:0;" />
    </linearGradient>
    <linearGradient
       id="linearGradient3155">
      <stop
         id="stop3157"
         offset="0"
         style="stop-color:#303030;stop-opacity:1;" />
      <stop
         id="stop3159"
         offset="1"
         style="stop-color:#303030;stop-opacity:0;" />
    </linearGradient>
    <linearGradient
       id="linearGradient6067">
      <stop
         id="stop6069"
         offset="0"
         style="stop-color:#ffffff;stop-opacity:1;" />
      <stop
         id="stop6071"
         offset="1"
         style="stop-color:#ffffff;stop-opacity:0;" />
    </linearGradient>
    <linearGradient
       id="linearGradient3142">
      <stop
         id="stop3144"
         offset="0"
         style="stop-color:#303030;stop-opacity:1;" />
      <stop
         id="stop3146"
         offset="1"
         style="stop-color:#303030;stop-opacity:0;" />
    </linearGradient>
    <linearGradient
       gradientTransform="matrix(1.6258627,0,0,1.6258627,-28.787153,-52.145846)"
       gradientUnits="userSpaceOnUse"
       y2="110.71667"
       x2="92.804863"
       y1="75.855133"
       x1="92.804863"
       id="linearGradient3148"
       xlink:href="#linearGradient3142" />
    <linearGradient
       gradientUnits="userSpaceOnUse"
       y2="119.78299"
       x2="29.731594"
       y1="96.211563"
       x1="29.731594"
       id="linearGradient6073"
       xlink:href="#linearGradient6067" />
    <linearGradient
       gradientUnits="userSpaceOnUse"
       y2="124.82345"
       x2="100.75668"
       y1="85.389313"
       x1="100.75668"
       id="linearGradient3161"
       xlink:href="#linearGradient3155" />
    <linearGradient
       gradientTransform="translate(-2.2728432)"
       gradientUnits="userSpaceOnUse"
       y2="-115.67227"
       x2="96.899597"
       y1="-101.65641"
       x1="96.899597"
       id="linearGradient4138"
       xlink:href="#linearGradient4132" />
    <filter
       style="color-interpolation-filters:sRGB"
       height="1"
       width="1"
       y="0"
       x="0"
       id="filter3004">
      <feColorMatrix
         result="result2"
         type="saturate"
         in="SourceGraphic"
         values="1"
         id="feColorMatrix3006" />
      <feFlood
         result="result1"
         flood-opacity="1"
         flood-color="rgb(254,102,0)"
         id="feFlood3008" />
      <feBlend
         result="result3"
         in="result1"
         mode="multiply"
         in2="result2"
         id="feBlend3010" />
      <feComposite
         result="result4"
         operator="in"
         in2="SourceGraphic"
         id="feComposite3012" />
    </filter>
  </defs>
  <metadata
     id="metadata7">
    <rdf:RDF>
      <cc:Work
         rdf:about="">
        <dc:format>image/svg+xml</dc:format>
        <dc:type
           rdf:resource="http://purl.org/dc/dcmitype/StillImage" />
        <dc:title />
      </cc:Work>
    </rdf:RDF>
  </metadata>
  <g
     id="g4216">
    <path
       inkscape:connector-curvature="0"
       id="path4214"
       d="M 113.83248,385.32927 98.426584,137.97898 403.97693,120.86132 417.67107,345.95863 Z"
       style="fill:#ffffff;fill-rule:evenodd;stroke:none;stroke-width:1px;stroke-linecap:butt;stroke-linejoin:miter;stroke-opacity:1" />
    <g
       transform="matrix(5.064685,0,0,5.064685,-3294.0709,-169.90587)"
       id="g4209">
      <path
         style="fill:#394050;fill-opacity:1"
         d="m 687.42797,80.959976 c -3.98906,-1.60723 -5.71018,-7.59054 -2.86312,-9.95339 1.93435,-1.60537 6.74101,-2.11068 6.24372,-0.65639 -0.21003,0.61422 -1.35255,0.97597 -2.53892,0.8039 -1.7866,-0.25913 -2.15705,0.18655 -2.15705,2.59501 0,1.63788 0.87349,3.69837 2,4.71785 1.93956,1.75528 2,1.74663 2,-0.286 0,-1.15278 -0.45734,-2.37862 -1.01631,-2.72408 -1.41172,-0.87249 -0.22132,-2.48992 1.83253,-2.48992 1.39903,0 1.63514,0.79275 1.34029,4.5 -0.36745,4.62015 -0.96808,5.05351 -4.84114,3.49302 z m 9.1645,-2.02559 c -3.52806,-5.70853 -1.73904,-11.96743 3.42074,-11.96743 4.90182,0 7.60306,6.05616 4.68657,10.50728 -1.70255,2.59843 -6.83277,3.52239 -8.10731,1.46015 z m 6.52013,-4.08988 c 0,-2.37034 -1.22283,-2.39379 -3.33136,-0.0639 -1.24722,1.37816 -1.36218,2.0928 -0.47878,2.9762 1.5009,1.5009 3.81014,-0.26417 3.81014,-2.9123 z m -3.30556,-2.29422 c -0.10694,-0.59583 0.32619,-0.98479 0.96253,-0.86434 1.56784,0.29676 0.99918,-3.00027 -0.61,-3.53667 -0.70305,-0.23435 -1.66934,0.19126 -2.14731,0.9458 -1.34553,2.12409 -1.05571,4.53855 0.54478,4.53855 0.79445,0 1.35695,-0.4875 1.25,-1.08334 z m 9.64964,4.90887 c -0.63575,-1.37071 -0.80867,-2.4922 -0.38427,-2.4922 0.4244,0 0.44474,-1.78768 0.0452,-3.97261 -0.84167,-4.60275 -0.59152,-5.02739 2.96166,-5.02739 5.28692,0 6.60805,4.172 2.53333,8 -1.375,1.29174 -2.5,3.17019 -2.5,4.17431 0,2.58287 -1.29595,2.25004 -2.65592,-0.68211 z m 4.65592,-5.61023 c 0,-0.55 -0.45,-0.72189 -1,-0.38197 -0.55,0.33992 -1,1.06803 -1,1.61803 0,0.55 0.45,0.72189 1,0.38197 0.55,-0.33992 1,-1.06803 1,-1.61803 z m -1.5,-2.88197 c 0.33992,-0.55 0.14148,-1 -0.44098,-1 -0.58246,0 -1.05902,0.45 -1.05902,1 0,0.55 0.19844,1 0.44098,1 0.24254,0 0.7191,-0.45 1.05902,-1 z"
         id="path4168"
         inkscape:connector-curvature="0"
         sodipodi:nodetypes="ssssssssssssssssssscsssscsssssssssssssssss" />
      <path
         style="fill:#394050;fill-opacity:1"
         d="m 655.78322,85.84556 -0.76839,-26.61057 c 0.14971,0.14971 20.19494,-0.88006 44.54496,-2.28837 l 46.81249,-2.512177 2.13373,52.594667 c 0,0 -12.17337,0.64669 -21.79798,0.94673 -9.62462,0.30005 -28.91551,1.68723 -42.86867,3.08263 -13.95315,1.3954 -25.45282,2.53709 -25.55483,2.53709 -0.10201,0 -1.2276,-12.4875 -2.50131,-27.75 z m 11.92551,17.18664 c 0,-2.2896 -0.34708,-2.52989 -3.25,-2.25 -2.49095,0.24017 -3.32463,0.83886 -3.56955,2.56336 -0.28018,1.97279 0.12023,2.25 3.25,2.25 3.16438,0 3.56955,-0.29096 3.56955,-2.56336 z m 46.32288,-1.4888 c 12.25944,-1.42609 15.54438,-2.570787 16.32713,-5.689517 0.72145,-2.87445 -1.08223,-30.639793 -2.17428,-33.470253 -0.36327,-0.94157 -1.51967,-1.98463 -2.56977,-2.31792 -1.89643,-0.6019 -35.5805,0.98847 -45.68434,2.15696 -3.69468,0.42728 -5.57675,1.16794 -6.27283,2.46858 -1.50053,2.80376 0.78221,33.740913 2.71115,36.74325 1.49437,2.32594 1.58147,2.33528 15.67139,1.67893 7.79277,-0.36301 17.68897,-1.06952 21.99155,-1.57003 z m -35.64278,-9.57581 c -0.3453,-4.32962 -0.92405,-11.96707 -1.28612,-16.97212 l -0.65831,-9.10009 7.38217,-0.63149 c 4.06019,-0.34731 12.78216,-0.83957 19.38216,-1.0939 9.74191,-0.3754 8.62577,-0.19419 -5.93145,0.96303 -9.8623,0.784 -18.27389,1.77129 -18.69241,2.19399 -0.41852,0.4227 -0.35065,6.39355 0.15082,13.26855 0.50148,6.875 0.92557,13.797503 0.94241,15.383333 l 0.0306,2.88333 17.75,-0.66419 c 9.7625,-0.3653 20.1666,-0.93391 23.12021,-1.26357 l 5.37021,-0.59939 -0.65049,-11.119753 c -0.35777,-6.11587 -0.91069,-13.45801 -1.2287,-16.31586 -0.56888,-5.11231 -0.63693,-5.20233 -4.21972,-5.5819 l -3.64151,-0.38579 4.18261,-0.16811 c 3.21997,-0.12941 4.29588,0.23467 4.67476,1.5819 0.27068,0.9625 0.79624,8.79181 1.16791,17.39846 l 0.67577,15.648473 -2.85052,0.55595 c -1.56779,0.30577 -12.34375,0.85637 -23.94658,1.22356 l -21.09604,0.66762 -0.62781,-7.872033 z m 64.3199,6.570363 c 0,-2.40843 -1.55922,-3.26984 -4.55683,-2.51748 -2.86215,0.71835 -3.3689,4.230017 -0.69317,4.803537 2.95066,0.63245 5.25,-0.36878 5.25,-2.286057 z m -75.5,-8.442393 c 0,-1.45954 -0.77606,-2.08868 -2.87182,-2.32818 -3.35723,-0.38364 -5.15383,1.01598 -4.26784,3.32483 0.96518,2.515213 7.13966,1.65329 7.13966,-0.99665 z m 74.5,-4 c 0,-2.19048 -0.43333,-2.5 -3.5,-2.5 -3.06667,0 -3.5,0.30952 -3.5,2.5 0,2.19048 0.43333,2.5 3.5,2.5 3.06667,0 3.5,-0.30952 3.5,-2.5 z m -75,-8 c 0,-2.19048 -0.43333,-2.5 -3.5,-2.5 -3.06667,0 -3.5,0.30952 -3.5,2.5 0,2.19048 0.43333,2.5 3.5,2.5 3.06667,0 3.5,-0.30952 3.5,-2.5 z m 74.80287,-4.12272 c 0.34213,-2.39784 -1.59495,-3.50592 -4.70642,-2.69225 -2.03243,0.53149 -2.83254,3.24554 -1.38387,4.69421 1.5307,1.5307 5.78582,0.13199 6.09029,-2.00196 z M 665.70873,65.0322 c 0,-2.2896 -0.34708,-2.52989 -3.25,-2.25 -2.49095,0.24017 -3.32463,0.83886 -3.56955,2.56336 -0.28018,1.97279 0.12023,2.25 3.25,2.25 3.16438,0 3.56955,-0.29096 3.56955,-2.56336 z m 74.15134,-2.43664 c 0.54327,0 0.84396,-1.0125 0.66821,-2.25 -0.39271,-2.76511 -3.57336,-3.41249 -6.32681,-1.28774 -1.982,1.52945 -1.98212,1.54594 -0.0214,3.05981 1.08422,0.83713 2.58353,1.28713 3.33179,1 0.74827,-0.28714 1.80498,-0.52207 2.34825,-0.52207 z"
         id="path4168-3"
         inkscape:connector-curvature="0"
         sodipodi:nodetypes="cccccssscsssssssssssssscscsssssscsscssscssscsscccssssssssssssssssssssssssssscsssscc" />
      <path
         style="fill:#394050;fill-opacity:1"
         d="m 714.183,91.15488 c 0,-2.70502 -0.285,-5.66076 -0.6332,-6.56831 -0.5326,-1.38798 -0.016,-1.59953 3.25,-1.33179 3.3529,0.27484 3.9249,0.67799 4.1884,2.95229 0.216,1.86358 -0.4421,3.22186 -2.25,4.64392 -1.4054,1.10547 -2.5552,2.73268 -2.5552,3.61602 0,0.88334 -0.45,1.606084 -1,1.606084 -0.55,0 -1,-2.213204 -1,-4.918214 z m 4,-3.58179 c 0,-1.375 -0.36,-2.5 -0.8,-2.5 -0.44,0 -0.8,1.125 -0.8,2.5 0,1.375 0.36,2.5 0.8,2.5 0.44,0 0.8,-1.125 0.8,-2.5 z m -34.04,4.66872 c -1.7506,-1.4176 -2.1102,-2.43415 -1.5917,-4.5 0.5323,-2.12078 1.2626,-2.66872 3.5571,-2.66872 2.4061,0 2.7992,0.33724 2.3582,2.0233 -0.5007,1.91484 -0.6012,1.92824 -1.8745,0.25 -1.2285,-1.6191 -1.3483,-1.52603 -1.3773,1.07032 -0.023,2.0184 0.5486,2.9954 1.9682,3.36663 1.1,0.28766 2,0.92053 2,1.40638 0,1.48473 -2.6517,0.986 -5.04,-0.94791 z m 8.54,-4.14028 c 0,-4.15012 0.3887,-6.02372 1.25,-6.02564 0.6875,-0.002 1.25,0.8472 1.25,1.88609 0,1.16909 0.6511,1.83596 1.7087,1.75 1.2343,-0.10032 1.8848,0.90245 2.3426,3.61111 0.4709,2.78598 0.2887,3.75 -0.7087,3.75 -0.7568,0 -1.3426,-1.06509 -1.3426,-2.44098 0,-1.34254 -0.4558,-2.72269 -1.0129,-3.06699 -0.6226,-0.38476 -0.9116,0.63731 -0.75,2.6522 0.1812,2.25986 -0.2031,3.37587 -1.2371,3.59263 -1.2021,0.25199 -1.5,-0.88169 -1.5,-5.70842 z m 10.5,2.97156 c -2.4075,-2.40751 -2.4466,-2.91734 -0.4433,-5.77749 1.8919,-2.70109 3.5953,-2.81697 5.7883,-0.39377 2.151,2.37688 2.0954,4.46269 -0.1738,6.51627 -2.3294,2.1081 -2.7459,2.08031 -5.1712,-0.34501 z m 3.7097,-2.99779 c -0.1153,-1.64879 -0.6597,-2.84879 -1.2097,-2.66667 -0.8915,0.29521 -1.0362,1.37491 -0.625,4.66446 0.3146,2.51719 2.0207,0.65956 1.8347,-1.99779 z"
         id="path4168-6"
         inkscape:connector-curvature="0"
         sodipodi:nodetypes="scscssssssssscsscccsscscsscssccsssscsscscc" />
    </g>
  </g>
</svg>
