<?xml version="1.0" encoding="UTF-8" standalone="no"?>
<svg
   xmlns:dc="http://purl.org/dc/elements/1.1/"
   xmlns:cc="http://creativecommons.org/ns#"
   xmlns:rdf="http://www.w3.org/1999/02/22-rdf-syntax-ns#"
   xmlns:svg="http://www.w3.org/2000/svg"
   xmlns="http://www.w3.org/2000/svg"
   xmlns:sodipodi="http://sodipodi.sourceforge.net/DTD/sodipodi-0.dtd"
   xmlns:inkscape="http://www.inkscape.org/namespaces/inkscape"
   viewBox="0 0 512 512"
   id="svg2"
   version="1.1"
   inkscape:version="0.91 r13725"
   width="512"
   height="512"
   sodipodi:docname="grub-customizer.svg">
  <metadata
     id="metadata126">
    <rdf:RDF>
      <cc:Work
         rdf:about="">
        <dc:format>image/svg+xml</dc:format>
        <dc:type
           rdf:resource="http://purl.org/dc/dcmitype/StillImage" />
        <dc:title />
      </cc:Work>
    </rdf:RDF>
  </metadata>
  <sodipodi:namedview
     pagecolor="#ffffff"
     bordercolor="#666666"
     borderopacity="1"
     objecttolerance="10"
     gridtolerance="10"
     guidetolerance="10"
     inkscape:pageopacity="0"
     inkscape:pageshadow="2"
     inkscape:window-width="1366"
     inkscape:window-height="715"
     id="namedview124"
     showgrid="false"
     inkscape:zoom="0.50000001"
     inkscape:cx="-149.86331"
     inkscape:cy="305.34861"
     inkscape:window-x="0"
     inkscape:window-y="24"
     inkscape:window-maximized="1"
     inkscape:current-layer="svg2">
    <inkscape:grid
       type="xygrid"
       id="grid3103"
       empspacing="5"
       visible="true"
       enabled="true"
       snapvisiblegridlinesonly="true" />
  </sodipodi:namedview>
  <defs
     id="defs4">
    <linearGradient
       id="linearGradient3764"
       x1="1"
       x2="47"
       gradientUnits="userSpaceOnUse"
       gradientTransform="rotate(-90,23.999998,24)">
      <stop
         stop-color="#e4e4e4"
         stop-opacity="1"
         id="stop7" />
      <stop
         offset="1"
         stop-color="#eee"
         stop-opacity="1"
         id="stop9" />
    </linearGradient>
    <clipPath
       id="clipPath-417599645">
      <g
         transform="translate(0,-1004.3622)"
         id="g17">
        <path
           d="m -24,13 c 0,1.105 -0.672,2 -1.5,2 -0.828,0 -1.5,-0.895 -1.5,-2 0,-1.105 0.672,-2 1.5,-2 0.828,0 1.5,0.895 1.5,2 z"
           transform="matrix(15.333333,0,0,11.5,414.99999,878.8622)"
           id="path19"
           inkscape:connector-curvature="0"
           style="fill:#1890d0" />
      </g>
    </clipPath>
  </defs>
  <g
     id="g4157">
    <path
       style="fill:#45d03f;stroke-width:0.9451862;fill-opacity:1"
       d="m 137.48974,455.90648 c -3.03446,-3.25726 -5.20306,-9.2199 -5.17509,-14.22913 0.0144,-2.5817 2.67535,-11.40093 7.60553,-25.20725 4.17086,-11.67994 7.63878,-22.28517 7.70649,-23.56717 0.0898,-1.70049 -1.93595,-4.19947 -7.48996,-9.2396 -4.18721,-3.79981 -10.2727,-10.04114 -13.52332,-13.86961 -3.25063,-3.82847 -6.81027,-7.34246 -7.91032,-7.80881 -1.23379,-0.52304 -10.30892,2.10387 -23.686966,6.85648 -11.927774,4.23741 -23.377028,7.82777 -25.44278,7.97865 -4.252157,0.31063 -12.23415,-2.72938 -15.651578,-5.96089 -2.717283,-2.56942 -22.590924,-50.67671 -23.026542,-55.73936 -0.432066,-5.02127 3.052306,-12.59437 7.457991,-16.20947 2.005518,-1.64564 12.860067,-7.15892 24.121234,-12.25171 12.122206,-5.48222 20.807909,-10.0453 21.291274,-11.18544 0.449032,-1.05924 0.54989,-6.02637 0.22416,-11.03813 -0.325785,-5.01175 -0.293203,-13.70673 0.0724,-19.32212 0.365564,-5.61543 0.119416,-10.86833 -0.547034,-11.67314 -0.666446,-0.80481 -10.320507,-5.93146 -21.453482,-11.39249 -12.947671,-6.35116 -21.475344,-11.06639 -23.66496,-13.08503 -4.172752,-3.84698 -7.283266,-12.28173 -6.249849,-16.94771 0.419137,-1.89247 5.797619,-14.94947 11.952178,-29.01553 l 11.190105,-25.57465 4.523567,-2.4502 c 7.994067,-4.33 10.72653,-3.94697 36.310199,5.08967 14.480363,5.1147 23.448933,7.83248 24.466903,7.41426 0.88389,-0.363 5.05463,-4.31636 9.26832,-8.78497 4.21369,-4.46856 10.36215,-10.42137 13.66324,-13.22835 3.3011,-2.80701 6.33423,-5.88736 6.74029,-6.84521 0.40607,-0.95784 -2.4196,-10.71865 -6.27925,-21.690653 -3.85967,-10.97204 -7.45605,-21.69229 -7.99196,-23.822867 -1.50731,-5.992308 -0.28537,-12.103352 3.40579,-17.032789 2.78707,-3.722045 5.61976,-5.179464 28.03707,-14.424667 13.71522,-5.656328 26.89773,-10.431088 29.29448,-10.610512 5.56184,-0.416377 12.83413,2.628191 16.38701,6.860522 1.49603,1.782125 6.88068,12.381083 11.96589,23.553293 5.0852,11.172131 9.67411,20.87249 10.19759,21.55628 0.55166,0.72066 5.7041,1.04632 12.2568,0.77475 6.21778,-0.25786 15.3177,-0.16351 20.22206,0.20949 6.64982,0.50565 9.43864,0.20988 10.9687,-1.16394 1.12844,-1.0131 6.53701,-10.943533 12.01904,-22.067609 10.54292,-21.393531 12.76251,-24.540844 19.28394,-27.344021 7.25416,-3.118129 10.32871,-2.322795 38.3017,9.907928 l 25.47855,11.140068 2.88064,4.349948 c 4.95612,7.484068 4.58753,10.674597 -4.13063,35.755196 -4.22005,12.140293 -7.84819,23.083863 -8.06253,24.318963 -0.30164,1.73823 1.31624,3.79377 7.1605,9.09728 4.15263,3.76842 10.5551,10.38747 14.22772,14.70908 3.67263,4.3216 7.05139,8.01594 7.50834,8.20968 0.45695,0.19389 10.71846,-3.16363 22.80334,-7.46068 12.08488,-4.29714 23.93864,-7.97193 26.34172,-8.16623 5.68051,-0.45935 12.59248,2.49702 16.63424,7.11479 1.91909,2.1925 6.95707,13.13548 12.84839,27.9078 10.11274,25.35744 10.64014,27.99163 7.22481,36.08605 -2.41555,5.72501 -6.55337,8.39818 -28.82299,18.6207 -12.10871,5.5583 -22.17875,10.4903 -22.37788,10.95996 -0.1991,0.46967 -0.11115,6.26621 0.19589,12.88122 0.30664,6.61497 0.1883,15.64673 -0.26346,20.07056 -0.56114,5.49573 -0.32063,8.56157 0.75955,9.67961 0.8695,0.89996 11.11249,6.39849 22.76228,12.21893 23.11917,11.55081 26.53022,14.14961 28.13776,21.43775 1.5197,6.88978 0.27545,11.04308 -11.01606,36.77077 l -10.80117,24.6106 -4.65674,2.89949 c -8.31526,5.17754 -9.78571,5 -36.86052,-4.44982 -13.22935,-4.6174 -24.37488,-8.26521 -24.76788,-8.10621 -0.39299,0.15911 -3.73542,3.59595 -7.4276,7.6377 -3.6922,4.04176 -10.26497,10.36741 -14.60617,14.05707 -4.34123,3.68962 -8.0056,7.3429 -8.1431,8.11837 -0.13748,0.7755 3.13297,10.93425 7.26768,22.57501 4.1347,11.64076 7.67766,23.50372 7.87324,26.36211 0.41545,6.07155 -1.59278,11.46266 -5.80304,15.57841 -3.71553,3.63213 -48.50958,22.18059 -54.71385,22.65609 -5.18765,0.39779 -13.03778,-2.65137 -16.67042,-6.47468 -1.39177,-1.46482 -6.91186,-12.2468 -12.26687,-23.95996 -5.355,-11.71316 -10.43131,-21.59362 -11.28069,-21.95655 -0.8493,-0.363 -6.61494,-0.47638 -12.81235,-0.25186 -6.19743,0.22428 -15.18001,0.0836 -19.9613,-0.31264 -6.60852,-0.54782 -9.00972,-0.28624 -10.01293,1.09002 -0.72581,0.99586 -6.05781,11.19872 -11.84888,22.67304 -12.73724,25.23731 -14.92333,27.63175 -25.9079,28.37731 -3.18517,0.21629 -7.62149,-1.39469 -29.56652,-10.7358 -19.42219,-8.26725 -26.40001,-11.61378 -28.16383,-13.50712 z m 86.9615,-99.16496 c 24.34084,7.43753 47.75271,6.39749 71.36543,-3.1703 17.99689,-7.29229 32.16612,-18.02858 44.66033,-33.83994 7.83273,-9.91229 18.31495,-34.68864 20.03423,-47.35417 5.21764,-38.43616 -8.69281,-74.26111 -38.43223,-98.97822 -6.92956,-5.75932 -8.99034,-6.90054 -24.40749,-13.51604 -14.76685,-6.33636 -17.96386,-7.37772 -25.98125,-8.46238 -40.03133,-5.4157 -79.69381,11.78052 -102.35944,44.37937 -20.36376,29.28814 -24.42263,66.27315 -10.95309,99.80605 7.05254,17.55755 19.15459,33.37695 34.54031,45.14996 4.38729,3.35712 10.96217,7.29841 20.57227,12.33187 0.76775,0.40218 5.70016,2.04634 10.96093,3.6538 z m -6.77208,-50.55006 c -21.75479,-17.08732 -30.08909,-45.30012 -20.98094,-71.02341 6.3683,-17.98544 18.30001,-30.42836 36.00906,-37.55191 32.25094,-12.97308 68.5493,2.1654 81.47438,33.97947 10.6458,26.20379 3.98459,54.22929 -17.19184,72.33066 -18.03683,15.4177 -40.88712,19.34147 -63.28037,10.8663 -7.62355,-2.8853 -11.18825,-4.79795 -16.03029,-8.60111 z m 37.80613,-12.65062 c 7.86619,0.33782 21.69075,-3.75599 28.03711,-9.24816 4.47834,-3.87556 5.45923,-5.38188 9.10597,-13.98343 3.87935,-9.15029 1.51502,-10.0207 0.83107,-17.13401 -1.38061,-14.35894 -8.26503,-24.25692 -21.24915,-30.55066 -10.43025,-5.05581 -17.76672,-5.50269 -28.44199,-1.73251 -13.53492,4.78011 -22.67099,15.52923 -24.72256,29.08748 -1.77574,11.73539 0.9226,21.35883 8.51081,30.35321 7.0791,8.39094 16.19924,12.70403 27.92874,13.20808 z"
       id="path2986"
       inkscape:connector-curvature="0"
       sodipodi:nodetypes="ssssssssssssssssssssscsssssssssssssssssssscssssssssssssssssssscsscsscsssssscssssssssssssssssscsssssssssssssssss" />
    <path
       d="m 392.42087,314.04221 c -5.31336,20.49678 -32.11551,63.25585 -46.44141,82.10481 -14.25864,18.91623 -12.54356,35.93244 -38.89175,29.29073 -26.28093,-6.57445 -33.62887,-5.38062 -60.88502,-3.93458 -26.93672,1.51331 -21.15253,-0.723 -38.03423,6.43993 -16.81443,7.09566 -73.36132,-86.76241 -77.96846,-104.29985 -4.47261,-17.47018 -6.6417,-15.36838 5.12841,-34.21734 11.61877,-18.91623 13.40107,-37.63068 28.83672,-60.49829 15.43565,-22.98531 33.35983,-34.68814 32.0483,-52.20877 -5.1284,-65.08862 -9.06298,-97.674967 21.74101,-112.707059 29.29073,-14.325883 53.85662,-5.784161 63.50808,-0.924794 4.20362,2.101806 12.74534,6.238147 19.05074,13.401094 6.30541,7.028421 12.02229,17.604695 15.23387,31.005779 6.57445,26.86945 -2.75757,17.99144 4.72484,48.79545 7.36471,30.73676 22.32954,45.85293 40.59002,70.14976 18.32769,24.29684 37.37844,64.43287 31.32526,87.61995 m 0,0"
       id="SVGCleanerId_0"
       inkscape:connector-curvature="0"
       style="fill:#394050;fill-opacity:1;fill-rule:nonzero;stroke:none;stroke-width:2.87465072" />
    <path
       d="m 218.47571,154.6247 c 4.7921,-1.76551 4.00184,-2.03455 7.23018,-8.60898 2.5558,-5.06114 4.79211,-7.2302 4.72485,-14.9144 0,-7.48241 -2.48854,-10.05502 -6.23815,-14.98164 -3.6151,-4.6576 -9.33197,-4.92663 -12.99751,-4.33813 -2.10184,0.33633 -4.7921,2.82483 -6.64172,6.50719 -1.24426,2.48853 -2.16904,5.64964 -2.30356,8.92845 -0.20156,8.92846 0.52122,12.27453 2.75757,18.32772 2.5558,7.09569 8.79394,10.77805 13.46834,9.06297 m 0,0"
       id="path88"
       inkscape:connector-curvature="0"
       style="fill:#f9f9f9;fill-opacity:1;fill-rule:nonzero;stroke:none;stroke-width:2.87465072" />
    <path
       d="m 214.01991,123.87113 c 2.37083,0 5.38058,1.44604 6.89388,3.48058 1.58058,2.03454 2.62306,4.92662 2.62306,8.20544 0,4.79211 -0.52128,10.12228 -3.61509,11.75328 -0.99205,0.38675 -3.09388,0.99204 -4.27089,0.99204 -2.69031,0 -2.9593,-1.71506 -5.5151,-4.2036 -0.92483,-0.85754 -3.54788,-5.26291 -3.54788,-8.8612 0,-2.23632 -0.52122,-5.44787 1.58057,-8.33995 1.44604,-2.10181 3.27884,-3.09385 5.85145,-3.09385 m 0,0.0673"
       id="SVGCleanerId_1"
       inkscape:connector-curvature="0"
       style="fill:#394050;fill-opacity:1;fill-rule:nonzero;stroke:none;stroke-width:2.87465072" />
    <path
       d="m 268.19596,155.23001 c 12.08956,-1.177 16.29317,-5.58238 18.46222,-13.19931 1.90001,-6.7594 1.96727,-14.25863 -3.34605,-23.11983 -5.06114,-8.40721 -7.95324,-9.71873 -15.23387,-10.30724 -11.23203,-0.85754 -16.54539,6.50718 -19.05074,11.75328 -2.62305,5.7169 -2.10184,4.92662 -1.90006,12.15683 0.20157,7.61693 4.72489,9.71873 7.48242,14.51084 2.82484,4.59034 12.22411,8.33995 13.53564,8.27269 m 0.0674,-0.0673"
       id="path91"
       inkscape:connector-curvature="0"
       style="fill:#f9f9f9;fill-opacity:1;fill-rule:nonzero;stroke:none;stroke-width:2.87465072" />
    <path
       d="m 267.22069,123.53483 c 6.03642,0 9.51699,5.06114 10.71081,11.50107 0.45384,2.95934 -0.20156,6.30541 -2.10179,8.67624 -2.16909,2.75756 -6.03641,4.33812 -9.13024,4.33812 -3.02661,0 -6.3054,0.45402 -8.1382,-1.76552 -1.76548,-2.37082 -2.10178,-7.48241 -2.10178,-11.23202 0,-4.13635 1.31153,-7.09569 3.48057,-9.39927 1.71509,-1.71507 4.72484,-2.1018 7.29745,-2.1018 m 0,0"
       id="SVGCleanerId_2"
       inkscape:connector-curvature="0"
       style="fill:#394050;fill-opacity:1;fill-rule:nonzero;stroke:none;stroke-width:2.87465072" />
    <path
       d="m 231.35556,190.23764 c -10.44177,0.38675 -26.93672,-27.0544 -27.39072,-15.63741 -0.26895,9.65148 0.26895,9.46651 0.26895,18.78171 0,6.23815 -3.02657,6.75939 -9.58421,16.15865 -3.41331,4.92663 -6.03636,10.30725 -8.07094,15.77193 -1.31152,3.21155 -2.48853,6.57443 -3.48057,9.92051 -0.38692,1.64781 -1.10974,3.41332 -1.58057,5.06114 -3.21153,11.36654 -14.98164,25.4234 -17.67195,36.78995 -2.75758,11.29929 -5.96911,18.52949 -5.5151,33.62884 0.38692,15.1666 0.52122,10.77804 5.38058,14.5781 4.8594,3.74962 9.78602,7.29746 17.40296,13.60286 8.07089,6.69214 24.70036,17.99143 26.93667,21.60652 2.37082,3.61509 2.37082,11.68603 0.92483,14.3259 -1.44605,2.55579 -13.98961,4.00184 -13.98961,4.00184 0,0 10.96299,14.3763 13.1993,16.36043 2.10178,1.96727 11.09751,11.50107 47.61843,5.06114 20.6313,-3.74962 36.52091,-14.51086 48.07242,-24.88533 14.91439,-13.72061 7.36471,-17.60469 9.26477,-24.43137 2.82483,-9.92051 11.95503,-13.60287 13.9896,-24.76764 0.26895,-1.58056 0.79026,-2.75756 2.37083,-5.26292 2.30356,-3.1611 1.76553,-9.85324 1.76553,-15.77192 0,-15.77192 -1.90005,-31.59429 -5.78419,-43.34758 -3.54783,-11.03025 -9.13024,-18.71444 -13.92234,-28.63495 -9.5842,-19.77376 -9.13024,-28.70221 -17.73922,-41.31303 -9.71871,-14.5781 -4.92662,-24.29684 -17.92418,-23.70833 -16.15865,0.85753 -29.22342,21.67379 -44.52455,22.26229 m 0,0"
       id="path100"
       inkscape:connector-curvature="0"
       style="fill:#f9f9f9;fill-opacity:1;fill-rule:nonzero;stroke:none;stroke-width:2.87465072" />
    <path
       sodipodi:nodetypes="ccccccscccccccscccccccccccccscscccsccccccccsccccccs"
       inkscape:connector-curvature="0"
       id="path102"
       d="m 236.87256,138.45059 c -4.13631,0.45401 -6.70265,0.0649 -10.7045,1.96497 -4.27088,2.03455 -10.59279,6.82864 -14.0061,9.65347 -6.55764,5.39743 -11.22478,7.61574 -10.95583,14.25743 0.18489,6.30541 5.64933,11.23223 11.61844,15.82256 5.90189,4.60716 10.96221,10.32719 14.57731,11.5042 3.74961,1.32835 10.26245,1.06245 14.92004,1.06245 10.3745,1e-5 23.83268,-12.28259 31.38235,-14.45165 9.39928,-2.82482 12.689,-7.54384 13.41205,-18.18737 0.65574,-8.87801 -13.20639,-10.46325 -23.64816,-13.6748 -3.14427,-0.90798 -5.57751,-2.21028 -8.99087,-4.58111 -3.68235,-2.55579 -11.75328,-3.8774 -17.60473,-3.22163 z m -94.48978,177.95519 c -6.5744,-0.13454 -10.24679,3.17129 -14.38311,7.10587 -4.13635,3.93457 -9.12929,13.92206 -16.35948,18.78143 l -0.0228,0 c -7.16297,4.85937 -25.49095,4.46747 -30.148531,10.16756 -4.539925,5.71688 0.202791,13.99192 0.06855,29.36026 0,6.57445 -1.174701,11.50084 -1.964964,15.50268 -1.177006,5.06114 -1.898383,8.60883 0.388446,12.22392 4.136358,6.37267 10.636649,8.02912 48.267357,15.37701 20.09324,3.93458 39.14222,14.04892 51.8203,15.09141 12.74533,0.85756 15.50827,-3.16182 23.25972,-9.58493 7.68419,-6.50719 10.17988,-4.53832 9.92766,-18.71289 -0.26895,-14.19138 -9.9205,-18.39746 -20.88349,-34.74107 -10.96303,-16.36043 -12.75746,-19.37175 -20.0381,-30.21708 -7.29749,-10.71079 -21.72601,-30.15239 -29.93147,-30.35417 z m 180.73127,7.63138 c -5.1284,0 -6.1036,0.12886 -10.44174,2.68469 -2.35421,1.37878 -2.55903,10.30723 -2.55903,20.88349 0,8.33993 0.0591,17.73347 -0.73115,25.35036 -1.83279,17.73922 -5.69569,28.04832 -6.03199,39.48213 -0.40365,11.417 3.73197,19.10212 7.41432,22.12873 3.61509,3.07701 9.07569,5.44936 20.96346,5.44936 11.95507,0 19.36081,-2.50108 27.24678,-9.91624 5.06114,-4.74165 10.44151,-9.20493 25.94442,-19.1927 12.35859,-7.86911 30.93301,-16.54605 34.61541,-20.02667 1.83275,-1.69823 5.12329,-3.33663 5.39223,-9.64204 0.20157,-5.44789 -4.4782,-7.23933 -7.75705,-9.13938 -4.59032,-2.48854 -16.49087,-11.49677 -22.46002,-20.35798 -3.61529,-5.38061 1.50949,-14.26118 -3.48439,-21.02058 l 0,0.0914 c -2.95936,-4.0691 -8.27925,-2.3077 -9.0023,-2.3077 -0.85751,0 -5.45591,7.47299 -7.28866,9.64205 -1.98407,2.30357 -7.15923,6.17063 -10.84158,8.33969 -3.66559,2.23631 -6.56567,3.423 -14.45165,2.90175 -7.81876,-0.58851 -10.05527,-3.09365 -12.54381,-5.06093 -2.43808,-2.03455 -4.92068,-3.6187 -4.46686,-8.54533 0.53777,-4.92662 1.19225,-8.41306 -0.38845,-9.8591 -1.71507,-1.63101 -3.99954,-1.88503 -9.12794,-1.88503 z"
       style="fill:#ffcc00;fill-opacity:1;fill-rule:nonzero;stroke:none;stroke-width:2.87465072" />
  </g>
</svg>
