<?xml version="1.0" encoding="UTF-8" standalone="no"?>
<svg
   xmlns:dc="http://purl.org/dc/elements/1.1/"
   xmlns:cc="http://creativecommons.org/ns#"
   xmlns:rdf="http://www.w3.org/1999/02/22-rdf-syntax-ns#"
   xmlns:svg="http://www.w3.org/2000/svg"
   xmlns="http://www.w3.org/2000/svg"
   xmlns:xlink="http://www.w3.org/1999/xlink"
   xmlns:sodipodi="http://sodipodi.sourceforge.net/DTD/sodipodi-0.dtd"
   xmlns:inkscape="http://www.inkscape.org/namespaces/inkscape"
   width="500"
   height="500"
   version="1.1"
   id="svg2"
   inkscape:version="0.91 r13725"
   sodipodi:docname="half-life.svg"
   viewBox="0 0 500 500">
  <sodipodi:namedview
     pagecolor="#ffffff"
     bordercolor="#666666"
     borderopacity="1"
     objecttolerance="10"
     gridtolerance="10"
     guidetolerance="10"
     inkscape:pageopacity="0"
     inkscape:pageshadow="2"
     inkscape:window-width="1366"
     inkscape:window-height="715"
     id="namedview17"
     showgrid="false"
     inkscape:zoom="0.4609375"
     inkscape:cx="971.22097"
     inkscape:cy="176.65144"
     inkscape:window-x="0"
     inkscape:window-y="24"
     inkscape:window-maximized="1"
     inkscape:current-layer="svg2"
     inkscape:document-units="px" />
  <title
     id="title4">Double Dice Icon</title>
  <desc
     id="desc6">This icon is a part of Clarity icon theme for gtk</desc>
  <metadata
     id="metadata8">
    <rdf:RDF>
      <cc:Work
         rdf:about="">
        <dc:title>Double Dice Icon</dc:title>
        <dc:description>This icon is a part of Clarity icon theme for gtk</dc:description>
        <dc:creator>
          <cc:Agent>
            <dc:title>Jakub Jankiewicz</dc:title>
          </cc:Agent>
        </dc:creator>
        <dc:rights>
          <cc:Agent>
            <dc:title>Jakub Jankiewicz</dc:title>
          </cc:Agent>
        </dc:rights>
        <dc:date>2010</dc:date>
        <dc:format>image/svg+xml</dc:format>
        <dc:type
           rdf:resource="http://purl.org/dc/dcmitype/StillImage" />
        <cc:license
           rdf:resource="http://www.gnu.org/copyleft/gpl.html" />
      </cc:Work>
    </rdf:RDF>
  </metadata>
  <defs
     id="defs10">
    <linearGradient
       x1="0"
       y1="128"
       x2="128"
       y2="0"
       id="gradient"
       gradientUnits="userSpaceOnUse">
      <stop
         id="start"
         style="stop-color:#dbdbdb;stop-opacity:1"
         offset="0" />
      <stop
         id="stop"
         style="stop-color:#757575;stop-opacity:1"
         offset="1" />
    </linearGradient>
    <linearGradient
       x1="127.99561"
       y1="241.00548"
       x2="127.99561"
       y2="85.001923"
       id="linearGradient3698"
       xlink:href="#linearGradient6204"
       gradientUnits="userSpaceOnUse"
       gradientTransform="matrix(2.047213,0,0,2.047213,-39.036471,-69.894362)" />
    <linearGradient
       id="linearGradient6204">
      <stop
         id="stop6206"
         style="stop-color:#e51d00;stop-opacity:1"
         offset="0" />
      <stop
         id="stop6208"
         style="stop-color:#ffb276;stop-opacity:1"
         offset="1" />
    </linearGradient>
  </defs>
  <g
     id="g3415">
    <ellipse
       ry="180.06779"
       rx="183.32204"
       cy="252.67796"
       cx="211.52542"
       id="path3413"
       style="fill:#ffffff;fill-opacity:1;stroke:none;stroke-width:1;stroke-miterlimit:4;stroke-dasharray:none;stroke-opacity:1" />
    <path
       inkscape:connector-curvature="0"
       id="path3411"
       d="M 186.54338,457.22393 C 159.6274,453.57142 131.17085,443.41134 108.27024,429.2774 55.671099,396.81395 21.039426,344.34084 11.958093,283.34745 c -2.1802685,-14.64345 -2.1802685,-42.35655 0,-57 9.082964,-61.00434 43.711361,-113.46534 96.334327,-145.943676 15.24989,-9.41206 32.09084,-16.6626 54.70679,-23.5529 20.1946,-6.1526 17.02453,-6.0279 152.54406,-6.00057 118.75954,0.024 123.81194,0.0993 130.25981,1.94326 19.22843,5.49883 34.68171,21.59734 40.84835,42.55389 0.48553,1.65 1.27261,6.765376 1.74906,11.367496 1.02849,9.93426 -0.19661,16.94003 -4.91952,28.1325 -1.74064,4.125 -14.41277,35.625 -28.16029,70 -30.58718,76.48172 -51.75696,127.86491 -57.06176,138.5 -17.67754,35.44009 -45.10404,65.82995 -77.03934,85.36324 -25.18021,15.40152 -55.23697,25.78331 -84.22805,29.09292 -12.4165,1.41746 -37.88766,1.12478 -50.44815,-0.57968 z m 51.70892,-37.93158 c 37.92215,-6.05518 69.3873,-22.26193 95.2977,-49.08497 24.47253,-25.33453 38.66044,-53.77261 45.08105,-90.35993 0.75235,-4.28722 1.31615,-14.99649 1.31615,-25 0,-22.28745 -2.56845,-37.45926 -9.64957,-57 -7.98803,-22.0434 -19.82356,-40.83974 -36.74763,-58.35993 -31.72138,-32.8387 -73.61584,-50.640066 -119.17838,-50.640066 -83.42812,0 -152.588229,60.180616 -164.909423,143.498196 -1.521151,10.28624 -1.521151,34.71736 0,45.0036 9.808056,66.3234 56.524013,119.88339 120.021623,137.60519 20.56743,5.74024 48.82336,7.52262 68.76848,4.33791 z m 15.48852,-52.11734 c -0.49725,-1.00516 -9.86926,-24.88229 -20.82669,-53.06029 -10.95743,-28.178 -20.1476,-51.23418 -20.4226,-51.23596 -0.275,-0.002 -13.98786,21.81544 -30.47302,48.48272 l -29.97303,48.48597 -24.31216,0 -24.31216,0 1.20248,-2.25 c 1.10908,-2.07522 82.78033,-141.4804 86.85304,-148.25 l 1.80485,-3 -5.26211,-13.5 -5.26212,-13.5 -15.13289,-0.27605 -15.13288,-0.27604 0,-18.9882 0,-18.9882 31.14237,0.26424 31.14238,0.26425 34.31156,88 c 18.87135,48.4 34.45538,88.3693 34.63118,88.82067 0.17579,0.45137 6.74574,-1.51192 14.59988,-4.36285 7.85414,-2.85094 14.42063,-5.02024 14.5922,-4.82067 0.95349,1.10914 12.22884,37.95757 11.70651,38.25754 -0.34434,0.19775 -15.54064,4.91057 -33.76955,10.47293 -18.22891,5.56237 -33.8319,10.37757 -34.67331,10.70045 -0.91325,0.35044 -1.89422,-0.14953 -2.43393,-1.24051 z"
       style="fill:#ff6600;fill-opacity:1" />
  </g>
</svg>
