<?xml version="1.0" encoding="UTF-8" standalone="no"?>
<!-- Created with Inkscape (http://www.inkscape.org/) -->

<svg
   xmlns:dc="http://purl.org/dc/elements/1.1/"
   xmlns:cc="http://creativecommons.org/ns#"
   xmlns:rdf="http://www.w3.org/1999/02/22-rdf-syntax-ns#"
   xmlns:svg="http://www.w3.org/2000/svg"
   xmlns="http://www.w3.org/2000/svg"
   xmlns:sodipodi="http://sodipodi.sourceforge.net/DTD/sodipodi-0.dtd"
   xmlns:inkscape="http://www.inkscape.org/namespaces/inkscape"
   version="1.1"
   width="100%"
   height="100%"
   viewBox="0 0 512 512"
   id="svg2"
   inkscape:version="0.48.5 r10040"
   sodipodi:docname="hplip.svg">
  <sodipodi:namedview
     pagecolor="#ffffff"
     bordercolor="#666666"
     borderopacity="1"
     objecttolerance="10"
     gridtolerance="10"
     guidetolerance="10"
     inkscape:pageopacity="0"
     inkscape:pageshadow="2"
     inkscape:window-width="1366"
     inkscape:window-height="716"
     id="namedview37"
     showgrid="false"
     inkscape:zoom="0.4609375"
     inkscape:cx="261.79009"
     inkscape:cy="256"
     inkscape:window-x="0"
     inkscape:window-y="0"
     inkscape:window-maximized="1"
     inkscape:current-layer="svg2" />
  <metadata
     id="metadata72">
    <rdf:RDF>
      <cc:Work
         rdf:about="">
        <dc:format>image/svg+xml</dc:format>
        <dc:type
           rdf:resource="http://purl.org/dc/dcmitype/StillImage" />
      </cc:Work>
    </rdf:RDF>
  </metadata>
  <defs
     id="defs70" />
  <path
     d="m 493.64491,257.3878 c 0,130.4858 -105.78092,236.25593 -236.25593,236.25593 -130.4858,0 -236.255929,-105.78092 -236.255929,-236.25593 0,-130.4858 105.780919,-236.255938 236.255929,-236.255938 130.4858,0 236.25593,105.780928 236.25593,236.255938"
     inkscape:connector-curvature="0"
     id="path4"
     style="fill:#00bbf2;fill-rule:evenodd;fill-opacity:1" />
  <text
     x="729.64001"
     y="231.36"
     id="text20"
     style="font-size:129.22999573px;line-height:125%;letter-spacing:0;word-spacing:0;font-family:Gentium Book Basic">
    <tspan
       x="729.64001"
       y="231.36"
       id="tspan22" />
  </text>
  <text
     x="378.91"
     y="579.25"
     transform="scale(4.0128,0.2492)"
     id="text24"
     style="font-size:46.95399857px;text-anchor:middle;font-family:Arial" />
  <text
     x="1310.91"
     y="151.36"
     id="text26"
     style="font-size:129.22999573px;line-height:125%;letter-spacing:0;word-spacing:0;font-family:Gentium Book Basic">
    <tspan
       x="1310.91"
       y="151.36"
       id="tspan28" />
  </text>
  <text
     x="523.76001"
     y="258.22"
     transform="scale(4.0128,0.2492)"
     id="text30"
     style="font-size:46.95399857px;text-anchor:middle;font-family:Arial" />
  <text
     x="239.33"
     y="-29.900999"
     id="text32"
     style="font-size:129.22999573px;line-height:125%;letter-spacing:0;word-spacing:0;font-family:Gentium Book Basic">
    <tspan
       x="239.33"
       y="-29.900999"
       id="tspan34" />
  </text>
  <text
     x="256.72"
     y="-469.14001"
     transform="scale(4.0128,0.2492)"
     id="text36"
     style="font-size:46.95399857px;text-anchor:middle;font-family:Arial" />
  <text
     x="1337.38"
     y="-246.37"
     id="text38"
     style="font-size:129.22999573px;line-height:125%;letter-spacing:0;word-spacing:0;font-family:Gentium Book Basic">
    <tspan
       x="1337.38"
       y="-246.37"
       id="tspan40" />
  </text>
  <text
     x="530.35999"
     y="-1337.8101"
     transform="scale(4.0128,0.2492)"
     id="text42"
     style="font-size:46.95399857px;text-anchor:middle;font-family:Arial" />
  <text
     x="1918.65"
     y="-326.38"
     id="text44"
     style="font-size:129.22999573px;line-height:125%;letter-spacing:0;word-spacing:0;font-family:Gentium Book Basic">
    <tspan
       x="1918.65"
       y="-326.38"
       id="tspan46" />
  </text>
  <text
     x="675.21002"
     y="-1658.85"
     transform="scale(4.0128,0.2492)"
     id="text48"
     style="font-size:46.95399857px;text-anchor:middle;font-family:Arial" />
  <text
     x="1529.53"
     y="-798.78003"
     id="text50"
     style="font-size:129.22999573px;line-height:125%;letter-spacing:0;word-spacing:0;font-family:Gentium Book Basic">
    <tspan
       x="1529.53"
       y="-798.78003"
       id="tspan52" />
  </text>
  <text
     x="578.23999"
     y="-3554.51"
     transform="scale(4.0128,0.2492)"
     id="text54"
     style="font-size:46.95399857px;text-anchor:middle;font-family:Arial" />
  <text
     x="2110.79"
     y="-878.78003"
     id="text56"
     style="font-size:129.22999573px;line-height:125%;letter-spacing:0;word-spacing:0;font-family:Gentium Book Basic">
    <tspan
       x="2110.79"
       y="-878.78003"
       id="tspan58" />
  </text>
  <text
     x="723.09003"
     y="-3875.54"
     transform="scale(4.0128,0.2492)"
     id="text60"
     style="font-size:46.95399857px;text-anchor:middle;font-family:Arial" />
  <text
     x="277.98999"
     y="535.94"
     id="text62"
     style="font-size:208.33000183px;line-height:125%;letter-spacing:0;word-spacing:0;font-family:Gentium Book Basic">
    <tspan
       x="277.98999"
       y="535.94"
       id="tspan64" />
  </text>
  <path
     d="m 217.13158,71.05968 c -31.53677,87.3262 -62.20363,174.82292 -93.72529,262.16962 2.01179,0.61087 4.00415,0.38315 6.07099,0.40473 11.49009,-0.055 23.01364,0.0453 34.50373,0 1.56496,-0.0108 1.36745,-2.23952 2.02366,-3.23786 13.84617,-39.03781 27.93195,-77.88135 41.82237,-116.89758 0.83321,-2.41976 1.72147,-4.98846 2.83313,-7.28519 7.201,0.12196 14.31782,-0.11116 21.51883,0 -15.10139,42.29726 -30.14125,84.79959 -45.45957,127.02129 1.60058,0.64326 3.1785,0.3702 4.85679,0.40474 12.06858,-0.11225 24.05407,0.16621 36.12266,0 13.63463,-38.43018 27.74846,-76.83445 41.42303,-115.24627 2.92163,-7.85721 3.02524,-17.10454 -1.61893,-24.35196 -4.05596,-6.4142 -11.7448,-9.85281 -19.09043,-10.15177 -10.046,-0.29896 -19.96141,0.177 -30.01821,0 13.82243,-39.17812 28.07226,-78.08642 41.78892,-117.307712 -42.98153,4.490913 -34.62353,3.536823 -43.03657,4.485517 m 89.72113,112.008415 c -0.31084,0.64325 -0.50079,2.20066 -0.80947,2.83313 -31.27126,87.71365 -62.77133,175.30859 -94.16779,262.97908 39.63358,5.74936 11.05406,1.80133 39.76525,5.69971 13.70155,-38.49709 27.59413,-76.81286 41.42304,-115.27865 15.04526,-0.27737 29.98151,-0.12735 45.02677,-0.40473 9.60242,-0.3335 19.17138,-6.09258 22.32829,-15.4133 12.72372,-35.77836 25.41721,-71.21891 37.74159,-107.15162 2.02258,-5.42881 3.23031,-11.35086 1.61893,-17.03222 -2.18016,-7.20209 -8.73143,-12.69566 -15.81803,-14.60384 -6.15625,-1.90926 -12.31682,-1.10303 -18.65116,-1.21419 -19.31384,-0.0561 -39.14574,-0.21586 -58.45419,-0.40474 m 35.38011,22.59811 c 0.912,-0.009 1.86501,0.23205 2.76622,0.10146 5.57883,0.10037 11.04866,-0.12196 16.62749,0 -12.99461,37.03034 -26.17271,74.12543 -38.95147,111.23132 -7.22259,0.5105 -14.68909,0.0443 -21.92355,0 13.18996,-36.7929 26.17271,-73.59658 39.36051,-110.38948 0.29897,-0.33889 0.85264,-0.72636 1.24766,-0.84292 0.29572,-0.0874 0.5731,-0.0982 0.87746,-0.10145"
     inkscape:connector-curvature="0"
     id="path66"
     style="fill:#ffffff" />
</svg>
