<?xml version="1.0" encoding="UTF-8" standalone="no"?>
<!-- Created with Inkscape (http://www.inkscape.org/) -->

<svg
   xmlns:dc="http://purl.org/dc/elements/1.1/"
   xmlns:cc="http://creativecommons.org/ns#"
   xmlns:rdf="http://www.w3.org/1999/02/22-rdf-syntax-ns#"
   xmlns:svg="http://www.w3.org/2000/svg"
   xmlns="http://www.w3.org/2000/svg"
   xmlns:sodipodi="http://sodipodi.sourceforge.net/DTD/sodipodi-0.dtd"
   xmlns:inkscape="http://www.inkscape.org/namespaces/inkscape"
   id="svg2"
   version="1.1"
   inkscape:version="0.91 r13725"
   width="300"
   height="300"
   sodipodi:docname="gnome-iagno.svg"
   inkscape:export-filename="/home/steph/.icons/ultra-flat-icons/apps/scalable/gnome-sudoku.png"
   inkscape:export-xdpi="90"
   inkscape:export-ydpi="90"
   viewBox="0 0 300 300">
  <metadata
     id="metadata8">
    <rdf:RDF>
      <cc:Work
         rdf:about="">
        <dc:format>image/svg+xml</dc:format>
        <dc:type
           rdf:resource="http://purl.org/dc/dcmitype/StillImage" />
        <dc:title />
      </cc:Work>
    </rdf:RDF>
  </metadata>
  <defs
     id="defs6" />
  <sodipodi:namedview
     pagecolor="#ffffff"
     bordercolor="#666666"
     borderopacity="1"
     objecttolerance="10"
     gridtolerance="10"
     guidetolerance="10"
     inkscape:pageopacity="0"
     inkscape:pageshadow="2"
     inkscape:window-width="1366"
     inkscape:window-height="708"
     id="namedview4"
     showgrid="false"
     inkscape:zoom="0.17867752"
     inkscape:cx="728.29849"
     inkscape:cy="427.82317"
     inkscape:window-x="0"
     inkscape:window-y="0"
     inkscape:window-maximized="1"
     inkscape:current-layer="svg2"
     inkscape:snap-global="false"
     inkscape:document-units="px" />
  <path
     style="fill:#394050;fill-opacity:1;stroke:none;stroke-width:27;stroke-miterlimit:4;stroke-dasharray:none;stroke-opacity:1"
     id="path4202-3-6-9-1-2-7"
     sodipodi:type="arc"
     sodipodi:cx="77.5"
     sodipodi:cy="87.5"
     sodipodi:rx="62.5"
     sodipodi:ry="62.5"
     sodipodi:start="0"
     sodipodi:end="6.2784904"
     sodipodi:open="true"
     d="M 140,87.5 A 62.5,62.5 0 0 1 77.573358,149.99996 62.5,62.5 0 0 1 15.000172,87.646716 62.5,62.5 0 0 1 77.279927,25.000387 62.5,62.5 0 0 1 139.99931,87.206569" />
  <path
     style="fill:#cccccc;fill-opacity:1;stroke:none;stroke-width:27;stroke-miterlimit:4;stroke-dasharray:none;stroke-opacity:1"
     id="path4202-3-6-9-1-2-7-3"
     sodipodi:type="arc"
     sodipodi:cx="217.5"
     sodipodi:cy="87.5"
     sodipodi:rx="62.5"
     sodipodi:ry="62.5"
     sodipodi:start="0"
     sodipodi:end="6.2784904"
     sodipodi:open="true"
     d="m 280,87.5 a 62.5,62.5 0 0 1 -62.42664,62.49996 62.5,62.5 0 0 1 -62.57319,-62.353244 62.5,62.5 0 0 1 62.27976,-62.646329 62.5,62.5 0 0 1 62.71938,62.206182" />
  <path
     style="fill:#cccccc;fill-opacity:1;stroke:none;stroke-width:27;stroke-miterlimit:4;stroke-dasharray:none;stroke-opacity:1"
     id="path4202-3-6-9-1-2-7-6"
     sodipodi:type="arc"
     sodipodi:cx="77.5"
     sodipodi:cy="222.5"
     sodipodi:rx="62.5"
     sodipodi:ry="62.5"
     sodipodi:start="0"
     sodipodi:end="6.2784904"
     sodipodi:open="true"
     d="M 140,222.5 A 62.5,62.5 0 0 1 77.573358,284.99996 62.5,62.5 0 0 1 15.000172,222.64672 62.5,62.5 0 0 1 77.279927,160.00039 62.5,62.5 0 0 1 139.99931,222.20657" />
  <path
     style="fill:#394050;fill-opacity:1;stroke:none;stroke-width:27;stroke-miterlimit:4;stroke-dasharray:none;stroke-opacity:1"
     id="path4202-3-6-9-1-2-7-3-7"
     sodipodi:type="arc"
     sodipodi:cx="217.49997"
     sodipodi:cy="222.5"
     sodipodi:rx="62.5"
     sodipodi:ry="62.5"
     sodipodi:start="0"
     sodipodi:end="6.2784904"
     sodipodi:open="true"
     d="m 279.99997,222.5 a 62.5,62.5 0 0 1 -62.42664,62.49996 62.5,62.5 0 0 1 -62.57319,-62.35324 62.5,62.5 0 0 1 62.27976,-62.64633 62.5,62.5 0 0 1 62.71938,62.20618" />
</svg>
