<?xml version="1.0" encoding="UTF-8" standalone="no"?>
<!-- Generator: flash2svg, http://dissentgraphics.com/tools/flash2svg -->

<svg
   xmlns:dc="http://purl.org/dc/elements/1.1/"
   xmlns:cc="http://creativecommons.org/ns#"
   xmlns:rdf="http://www.w3.org/1999/02/22-rdf-syntax-ns#"
   xmlns:svg="http://www.w3.org/2000/svg"
   xmlns="http://www.w3.org/2000/svg"
   xmlns:sodipodi="http://sodipodi.sourceforge.net/DTD/sodipodi-0.dtd"
   xmlns:inkscape="http://www.inkscape.org/namespaces/inkscape"
   id="Intellij-Idea"
   image-rendering="optimizeSpeed"
   version="1.1"
   style="background-color:#FFFFFF"
   x="0px"
   y="0px"
   width="1024px"
   height="1024px"
   viewBox="0 0 1024 1024"
   enable-background="new 0 0 1024 1024"
   inkscape:version="0.91 r13725"
   sodipodi:docname="idea-ultimate.svg">
  <metadata
     id="metadata26">
    <rdf:RDF>
      <cc:Work
         rdf:about="">
        <dc:format>image/svg+xml</dc:format>
        <dc:type
           rdf:resource="http://purl.org/dc/dcmitype/StillImage" />
      </cc:Work>
    </rdf:RDF>
  </metadata>
  <sodipodi:namedview
     pagecolor="#ffffff"
     bordercolor="#666666"
     borderopacity="1"
     objecttolerance="10"
     gridtolerance="10"
     guidetolerance="10"
     inkscape:pageopacity="0"
     inkscape:pageshadow="2"
     inkscape:window-width="1366"
     inkscape:window-height="715"
     id="namedview24"
     showgrid="false"
     inkscape:zoom="0.23046875"
     inkscape:cx="26.788147"
     inkscape:cy="261.56765"
     inkscape:window-x="0"
     inkscape:window-y="24"
     inkscape:window-maximized="1"
     inkscape:current-layer="Intellij-Idea" />
  <defs
     transform="matrix(1 0 0 1 0 0) "
     id="defs3" />
  <g
     id="g4140">
    <g
       style="fill:#004455"
       transform="matrix(1.0405113,0,0,1.0405113,-27.65435,-31.993333)"
       id="circle">
      <g
         style="fill:#004455"
         id="shape2">
        <path
           style="fill:#004455;fill-opacity:1"
           inkscape:connector-curvature="0"
           d="m 966.05,378.4 c -2.5,-8.75 -5.35,-17.6 -8.45,-26.35 C 951.15,333.8 943.45,316 934.45,298.4 930.65,291 926.5,283.45 922.15,276 901.85,241.5 876.35,208.8 845.8,178.25 773.2,105.65 688.65,61.6 592.15,46.2 575.9,43.6 559.35,41.8 542.1,40.85 532.4,40.3 522.25,40 512,40 c -9.35,0 -18.6,0.25 -27.9,0.75 -118.35,6.1 -220.3,51.95 -305.85,137.5 Q 40,316.5 40,512 c 0,130.35 46.1,241.65 138.25,333.8 78.5,78.45 170.8,123.55 276.7,135.15 9.75,1.1 19.4,1.85 29.15,2.35 0.15,0 0.25,0 0.4,0 8.5,0.45 16.6,0.7 24.5,0.7 1.2,0 2.1,0 3,0 10.3,0 20.5,-0.3 30.1,-0.8 2.5,-0.15 4.75,-0.3 6.95,-0.45 20.2,-1.45 39.9,-4.05 58.7,-7.7 7.95,-1.55 15.8,-3.3 23.4,-5.15 80.8,-20.3 152.15,-61.6 214.65,-124.1 48.6,-48.6 84.4,-102.5 107.35,-161.8 18.45,-47.65 28.65,-98.8 30.55,-153.5 0.2,-6.05 0.3,-12.25 0.3,-18.5 0,-0.65 0,-1.35 0,-2 0,-0.35 0,-0.65 0,-1 -0.1,-16.85 -0.95,-33.35 -2.6,-49.7 -2.3,-22.9 -6.2,-45.35 -11.7,-67.3 -1.1,-4.35 -2.35,-9 -3.65,-13.6 z"
           id="path1" />
      </g>
    </g>
    <path
       style="fill:#00bbf2;fill-opacity:1"
       inkscape:connector-curvature="0"
       d="m 713.1897,193.48547 c -18.26098,0 -33.81662,6.45117 -46.66694,19.35351 -12.90234,12.85031 -19.35351,28.40595 -19.35351,46.66693 l 0,184.27455 132.09291,132.09291 0,-316.36746 q -0.052,-27.36545 -19.35351,-46.66693 C 747.00631,199.93664 731.45067,193.48547 713.1897,193.48547 z M 568.45457,212.6829 c -12.90234,-12.90234 -28.45798,-19.35351 -46.71895,-19.35351 l -125.01744,0 191.0899,191.0899 0,-125.06946 c -0.052,-18.26097 -6.50319,-33.81662 -19.35351,-46.66693 z"
       id="path11" />
    <path
       style="fill:#00bbf2;fill-opacity:1"
       inkscape:connector-curvature="0"
       d="m 759.90865,783.14322 c 12.85032,-12.90234 19.30149,-28.45798 19.35351,-46.71896 l 0,-160.55089 -132.09291,-132.09291 0,292.6438 c 0,18.26098 6.45117,33.81662 19.35351,46.71896 12.85032,12.85031 28.40596,19.30148 46.66694,19.35351 18.26097,-0.052 33.81661,-6.5032 46.71895,-19.35351 z m -172.10057,-300.86384 0,-97.86009 -191.0899,-191.0899 -114.24814,0 c -18.26097,0 -33.81661,6.45117 -46.66693,19.35351 -12.90234,12.85031 -19.35351,28.40596 -19.35351,46.66693 0,18.26097 6.45117,33.81662 19.35351,46.71896 12.85032,12.85031 28.40596,19.30148 46.66693,19.35351 l 173.24513,0 0,158.78202 c -0.052,1.19659 0,2.4452 0.10406,3.79787 3.95394,68.72577 -7.17953,118.82639 -33.34839,150.40591 -28.77014,25.12835 -72.88782,34.28484 -132.40506,27.41747 -18.05288,-2.08102 -34.1808,2.54925 -48.48783,13.89083 -14.30703,11.34157 -22.52707,26.0648 -24.66012,44.11768 -2.13305,18.05287 2.49723,34.23282 13.8388,48.53985 11.34157,14.30703 26.06481,22.52707 44.16971,24.66012 110.7104,12.74626 191.5061,-9.46866 242.43913,-66.7488 53.27418,-50.51683 76.73771,-133.18545 70.44261,-248.00587 z"
       id="path12" />
    <g
       style="fill:#ff6600"
       transform="matrix(1.0405113,0,0,1.0405113,-27.65435,-31.993333)"
       id="Calque.__205">
      <g
         style="fill:#ff6600"
         id="shape19">
        <path
           style="fill:#ff6600;fill-opacity:1"
           inkscape:connector-curvature="0"
           d="M 363.15,455.8 C 348.6,441.25 331.05,434 310.5,434 c -20.55,0 -38.15,7.25 -52.7,21.8 Q 236,477.65 236,508.5 c 0,20.55 7.25,38.1 21.8,52.65 14.55,14.55 32.15,21.85 52.7,21.85 20.55,0 38.1,-7.3 52.65,-21.85 C 377.7,546.6 385,529.05 385,508.5 c 0,-20.55 -7.3,-38.15 -21.85,-52.7 z"
           id="path13" />
      </g>
    </g>
  </g>
</svg>
