<?xml version="1.0" encoding="UTF-8" standalone="no"?>
<!-- Generator: Adobe Illustrator 19.0.0, SVG Export Plug-In . SVG Version: 6.00 Build 0)  -->

<svg
   xmlns:dc="http://purl.org/dc/elements/1.1/"
   xmlns:cc="http://creativecommons.org/ns#"
   xmlns:rdf="http://www.w3.org/1999/02/22-rdf-syntax-ns#"
   xmlns:svg="http://www.w3.org/2000/svg"
   xmlns="http://www.w3.org/2000/svg"
   xmlns:sodipodi="http://sodipodi.sourceforge.net/DTD/sodipodi-0.dtd"
   xmlns:inkscape="http://www.inkscape.org/namespaces/inkscape"
   version="1.1"
   id="Layer_1"
   x="0px"
   y="0px"
   viewBox="0 0 500 500"
   xml:space="preserve"
   inkscape:version="0.91 r13725"
   width="100%"
   height="100%"
   sodipodi:docname="kde-gtk-config.svg"><metadata
     id="metadata57"><rdf:RDF><cc:Work
         rdf:about=""><dc:format>image/svg+xml</dc:format><dc:type
           rdf:resource="http://purl.org/dc/dcmitype/StillImage" /></cc:Work></rdf:RDF></metadata><defs
     id="defs55" /><sodipodi:namedview
     pagecolor="#ffffff"
     bordercolor="#666666"
     borderopacity="1"
     objecttolerance="10"
     gridtolerance="10"
     guidetolerance="10"
     inkscape:pageopacity="0"
     inkscape:pageshadow="2"
     inkscape:window-width="1366"
     inkscape:window-height="715"
     id="namedview53"
     showgrid="false"
     inkscape:zoom="0.18582593"
     inkscape:cx="-654.5729"
     inkscape:cy="418.78887"
     inkscape:window-x="0"
     inkscape:window-y="24"
     inkscape:window-maximized="1"
     inkscape:current-layer="Layer_1" /><path
     inkscape:connector-curvature="0"
     id="path2986"
     d="m 217.79621,477.47789 c -4.01781,-1.79337 -8.29134,-6.3826 -10.1983,-10.95164 -0.98282,-2.35479 -1.96363,-11.40649 -2.80338,-25.87165 -0.7104,-12.23731 -1.64588,-23.22549 -2.0788,-24.41818 -0.57425,-1.58203 -3.38167,-3.07455 -10.37995,-5.51834 -5.27604,-1.8424 -13.22133,-5.17416 -17.65617,-7.40397 -4.43487,-2.22981 -9.02959,-4.0542 -10.2105,-4.0542 -1.32446,0 -8.56913,5.89129 -18.90928,15.37679 -9.21919,8.45725 -18.25255,16.14112 -20.07411,17.07531 -3.74952,1.92293 -12.18554,2.2359 -16.54189,0.61368 -3.46384,-1.28986 -40.106373,-37.39916 -42.455755,-41.83794 -2.330239,-4.4025 -2.08101,-12.63791 0.533412,-17.6271 1.190112,-2.27111 8.940514,-11.47533 17.22313,-20.45381 8.915919,-9.66494 15.059316,-17.16785 15.059316,-18.39184 0,-1.13705 -1.824374,-5.69588 -4.054183,-10.13075 -2.229808,-4.43484 -5.554389,-12.35951 -7.387985,-17.61035 -1.833577,-5.25087 -4.083987,-9.93588 -5.000895,-10.41114 -0.916908,-0.47526 -11.67944,-1.41607 -23.916746,-2.09067 -14.231959,-0.78456 -23.810807,-1.78555 -26.582013,-2.77775 -5.281105,-1.89091 -11.365433,-8.3663 -12.22501,-13.01083 -0.348661,-1.88376 -0.491392,-15.84002 -0.317221,-31.01386 l 0.316722,-27.58879 3.171091,-3.97464 c 5.603955,-7.02399 8.23814,-7.72956 35.004404,-9.37589 15.149706,-0.93184 24.359211,-1.91855 25.124206,-2.69181 0.664206,-0.67141 2.934418,-5.87762 5.044892,-11.56941 2.110434,-5.69177 5.408943,-13.48046 7.329975,-17.30819 1.921012,-3.82773 3.492763,-7.80081 3.492763,-8.82906 0,-1.02826 -6.336651,-8.82018 -14.081463,-17.3154 -7.744792,-8.49519 -15.1529,-16.86291 -16.462466,-18.5949 -3.683244,-4.87134 -4.928751,-10.90354 -3.471543,-16.81308 1.100261,-4.46209 3.115715,-6.88102 19.948142,-23.9417 10.298329,-10.437965 20.452007,-19.868194 22.563767,-20.956059 4.90044,-2.524472 12.69246,-2.559426 17.55815,-0.07865 2.04881,1.044547 11.03739,8.612014 19.97461,16.816597 8.93722,8.204563 16.85503,15.261253 17.59517,15.681583 0.77999,0.44292 5.59415,-1.248344 11.45213,-4.023323 5.55854,-2.633087 13.87551,-6.057718 18.48217,-7.610326 6.24616,-2.105144 8.66973,-3.450283 9.53212,-5.290507 0.63602,-1.357197 1.7268,-12.479988 2.42392,-24.717275 1.34075,-23.534468 2.14637,-27.254682 6.99928,-32.321232 5.39814,-5.635795 8.50268,-6.098122 38.67533,-5.759682 l 27.48203,0.308278 4.29936,2.847043 c 7.39699,4.898348 8.2924,7.943776 10.03445,34.129397 0.84325,12.675219 1.76343,24.033067 2.04486,25.239648 0.39607,1.698113 2.66123,2.944419 10.02524,5.515922 5.23248,1.827169 13.61191,5.380417 18.62099,7.896126 5.0091,2.515728 9.5088,4.574041 9.99935,4.574041 0.49054,0 8.53299,-7.013594 17.87213,-15.585743 9.33912,-8.572169 18.708,-16.488896 20.81973,-17.592731 4.9919,-2.609351 12.42202,-2.585576 17.88127,0.05729 2.59206,1.25481 11.39793,9.269053 22.45746,20.438636 18.98431,19.173206 20.48044,21.366786 20.49517,30.049906 0.01,6.1414 -2.72359,10.17013 -19.04465,28.06317 -8.87427,9.72899 -16.13504,18.10161 -16.13504,18.60582 0,0.50417 2.31624,5.74485 5.14724,11.64592 2.83099,5.90108 6.20725,14.16539 7.50279,18.36515 1.60946,5.21741 3.01109,7.9144 4.42526,8.51508 1.13837,0.48353 12.58028,1.53554 25.42651,2.33787 25.49357,1.59219 29.60002,2.64115 33.87436,8.65293 4.04071,5.68321 4.51066,9.94256 4.16074,37.70974 l -0.33472,26.56147 -3.11893,4.43488 c -5.56926,7.91912 -6.97583,8.32484 -35.25835,10.17039 -13.81948,0.9018 -25.3687,1.88201 -25.665,2.17829 -0.29628,0.2963 -2.01188,4.7132 -3.81248,9.81536 -1.80058,5.10218 -5.34133,13.39388 -7.86832,18.42604 -2.52703,5.03213 -4.45215,9.77008 -4.27812,10.52877 0.17407,0.75869 7.06895,8.74115 15.32202,17.7388 8.25305,8.99764 16.05336,18.42575 17.33402,20.95132 2.72024,5.36463 2.97255,11.04506 0.72906,16.41442 -1.97982,4.73843 -35.58542,38.89697 -41.04765,41.72307 -4.56719,2.363 -12.88672,2.6169 -17.66721,0.53917 -1.83154,-0.79604 -11.01396,-8.47779 -20.40538,-17.07054 -9.3914,-8.59277 -17.82221,-15.62537 -18.73515,-15.62796 -0.91292,-0.004 -6.20312,2.11834 -11.75602,4.71319 -5.55289,2.5949 -13.78103,5.932 -18.28472,7.41582 -6.22484,2.05084 -8.30901,3.21503 -8.69091,4.85455 -0.27629,1.1862 -1.1923,12.52734 -2.03555,25.20256 -1.8547,27.87866 -2.92024,30.90085 -12.62821,35.81677 -2.81498,1.42544 -7.4733,1.67102 -31.046,1.63659 -20.86273,-0.0306 -28.50328,-0.38384 -30.83867,-1.42627 z m 40.87721,-123.78348 c 25.01847,-2.62203 45.92121,-12.59996 63.71699,-30.41535 13.5634,-13.57832 22.31519,-28.81396 27.58496,-48.02162 3.30368,-12.04144 3.2842,-38.63076 -0.0373,-50.81916 -10.07954,-36.98831 -36.55765,-64.22154 -73.15453,-75.24074 -8.52741,-2.56757 -10.84288,-2.81103 -27.42398,-2.88346 -15.88168,-0.0693 -19.19257,0.21638 -26.90652,2.32224 -38.51627,10.51472 -67.97397,41.46314 -76.02333,79.87056 -7.23186,34.50686 3.34233,69.72768 28.53503,95.0453 13.1907,13.2561 30.30574,22.98261 48.84783,27.76033 5.28736,1.36238 12.79069,2.41242 23.47726,3.28545 0.85379,0.0697 5.97637,-0.33684 11.38354,-0.90355 z m -25.66293,-43.38629 c -26.3878,-7.15657 -44.85528,-29.61409 -46.49041,-56.535 -1.14328,-18.82277 4.91408,-34.74829 18.28065,-48.06202 24.34261,-24.24643 63.21275,-24.47366 87.24693,-0.51008 19.79589,19.73772 24.54574,47.80962 12.25889,72.45038 -10.46523,20.98758 -29.74452,33.37294 -53.39104,34.29943 -8.05019,0.31543 -12.03177,-0.0499 -17.90502,-1.64271 z m 29.52204,-26.09599 c 7.28835,-2.72693 15.98179,-10.80735 19.63807,-18.25327 2.58005,-5.25423 2.89154,-7.00329 2.89174,-16.23721 2e-4,-9.82295 -0.17986,-10.68097 -3.54642,-16.88998 -6.79553,-12.53353 -16.87842,-18.88455 -31.1214,-19.60277 -11.44155,-0.57695 -18.28986,1.84657 -26.54956,9.39547 -10.47228,9.57106 -14.63913,22.87677 -11.27564,36.00573 2.91128,11.36382 9.07907,19.07987 19.45382,24.33714 9.67868,4.90455 19.64154,5.31107 30.50939,1.24489 z"
     style="fill:#869094" /><g
     id="g23"
     transform="translate(0,39.767)" /><g
     id="g25"
     transform="translate(0,39.767)" /><g
     id="g27"
     transform="translate(0,39.767)" /><g
     id="g29"
     transform="translate(0,39.767)" /><g
     id="g31"
     transform="translate(0,39.767)" /><g
     id="g33"
     transform="translate(0,39.767)" /><g
     id="g35"
     transform="translate(0,39.767)" /><g
     id="g37"
     transform="translate(0,39.767)" /><g
     id="g39"
     transform="translate(0,39.767)" /><g
     id="g41"
     transform="translate(0,39.767)" /><g
     id="g43"
     transform="translate(0,39.767)" /><g
     id="g45"
     transform="translate(0,39.767)" /><g
     id="g47"
     transform="translate(0,39.767)" /><g
     id="g49"
     transform="translate(0,39.767)" /><g
     id="g51"
     transform="translate(0,39.767)" /><g
     id="g4201"
     transform="matrix(1.1052911,0,0,1.1052911,-19.303139,-106.50174)"><path
       inkscape:connector-curvature="0"
       id="path4199"
       d="M 235.43539,454.93094 346.42636,391.02705 364.58852,263.89193 235.43539,321.74177 Z"
       style="fill:#45d03f;fill-opacity:1;fill-rule:evenodd;stroke:none;stroke-width:1px;stroke-linecap:butt;stroke-linejoin:miter;stroke-opacity:1" /><path
       inkscape:connector-curvature="0"
       id="path4197"
       d="M 233.41738,457.62163 126.46244,389.6817 125.78977,261.20124 238.12608,323.75979 Z"
       style="fill:#f03916;fill-opacity:1;fill-rule:evenodd;stroke:none;stroke-width:1px;stroke-linecap:butt;stroke-linejoin:miter;stroke-opacity:1" /><path
       inkscape:connector-curvature="0"
       id="path3395"
       d="m 235.43539,323.08712 -105.60959,-61.2132 127.13512,-56.5045 106.28226,57.17717 z"
       style="fill:#00bbf2;fill-opacity:1;fill-rule:evenodd;stroke:none;stroke-width:1px;stroke-linecap:butt;stroke-linejoin:miter;stroke-opacity:1" /><path
       inkscape:connector-curvature="0"
       id="path3393"
       d="m 223.85118,457.2343 c -4.3533,-2.66003 -23.4401,-15.20338 -42.4151,-27.8741 -33.57986,-22.42324 -50.29372,-32.7966 -54.62182,-33.90068 -1.167,-0.29769 -2.61304,-1.51946 -3.21342,-2.71503 -2.5439,-5.06581 -3.11239,-118.47021 -0.64167,-128.00232 1.74427,-6.72944 7.59281,-10.08252 52.97691,-30.3727 42.58764,-19.03993 74.05823,-31.3007 80.32968,-31.29598 4.28526,0.003 43.08417,18.81192 75.94921,36.81819 22.33596,12.23753 29.17165,16.51 34.58816,21.61843 3.42447,3.2297 3.58438,3.66453 3.0285,8.23518 -1.01948,8.38244 -5.30021,35.62135 -11.36629,72.32544 -3.2269,19.525 -6.16016,38.2 -6.51837,41.5 -1.13235,10.43179 -1.22408,10.53573 -18.87563,21.39117 -23.86387,14.67593 -98.39254,57.10883 -100.30529,57.10883 -0.54987,0 -4.56157,-2.17639 -8.91487,-4.83643 z m 8.43161,-75.16357 c 0.49942,-26.675 0.57527,-48.95 0.16855,-49.5 -0.40672,-0.55 -1.04134,-2.26235 -1.41028,-3.80521 -1.11621,-4.66789 -22.4836,-18.05042 -62.595,-39.20365 -11.26951,-5.94311 -24.09451,-12.94122 -28.5,-15.55136 -7.79629,-4.61909 -8.032,-4.68826 -8.83547,-2.59274 -1.11642,2.91175 -1.24526,45.10396 -0.25604,83.846 l 0.80923,31.69305 8.50797,4.77509 c 4.67939,2.62631 26.79066,17.02316 49.13615,31.99302 l 40.62818,27.21792 0.71934,-10.18606 c 0.39563,-5.60233 1.12795,-32.01105 1.62737,-58.68606 z m -54.93671,11.08095 -7.41,-3.91905 0,-7.33095 c 0,-4.03202 0.37395,-15.51708 0.83099,-25.52236 l 0.831,-18.19141 -9.581,-4.75758 -9.58099,-4.75758 0.0239,-5.55101 c 0.023,-5.35589 1.25548,-12.66368 2.31431,-13.72251 0.28218,-0.28218 7.85903,2.93075 16.83744,7.13984 8.97842,4.20909 22.33823,10.42136 29.68849,13.80504 l 13.36409,6.15215 -0.6054,5.03723 c -0.33297,2.77048 -0.60931,6.94974 -0.6141,9.28724 -0.0109,5.31922 -0.69893,5.36219 -12.00869,0.75 -9.86568,-4.02329 -9.60387,-3.97468 -10.38894,-1.92882 -1.14348,2.97987 -3.61106,25.88809 -3.61106,33.52396 0,8.2014 -0.806,13.90486 -1.965,13.90486 -0.39326,0 -4.04951,-1.76357 -8.125,-3.91905 z m 100.34167,33.85991 c 19.38658,-11.06634 41.83207,-24.16198 49.87887,-29.10141 l 14.63055,-8.98079 0.65148,-5.17933 c 0.35832,-2.84863 4.21812,-27.00433 8.57735,-53.67933 4.35922,-26.675 8.22931,-50.87398 8.60019,-53.77552 l 0.67432,-5.27551 -2.56508,0.97524 c -7.9939,3.03927 -24.64076,10.52057 -50.27326,22.5934 -15.90935,7.49325 -36.65136,17.25216 -46.09337,21.68648 l -17.16727,8.06239 -0.57428,5.61676 c -0.70183,6.8643 -3.33269,72.39381 -3.97239,98.94437 -0.39634,16.44955 -0.25347,19.24618 0.95944,18.78075 0.78381,-0.30078 17.28686,-9.60114 36.67345,-20.66749 z m -16.85101,-38.13661 c 0.78771,-21.16697 2.16372,-40.60463 3.75039,-52.97852 l 1.11229,-8.67427 4.93235,-0.67837 c 2.7128,-0.37311 5.10127,-0.50946 5.30772,-0.30301 0.20645,0.20644 0.69509,8.35263 1.08587,18.10264 0.39077,9.75 1.04458,17.72728 1.4529,17.72728 1.20762,0 11.10584,-11.07276 24.87347,-27.82501 17.4425,-21.22377 17.37353,-21.16532 28.66769,-24.29409 l 9.45436,-2.61911 -2.74737,3.61911 c -1.51105,1.9905 -10.31539,13.23153 -19.5652,24.98005 -9.2498,11.74852 -16.66708,21.81319 -16.48284,22.36593 0.18425,0.55273 6.6176,3.79376 14.29635,7.20229 7.67875,3.40852 15.51377,7.0144 17.41116,8.01307 l 3.4498,1.81576 -2.41236,1.95342 c -1.32681,1.07438 -4.34404,3.08545 -6.70496,4.46904 l -4.29259,2.51563 -14.7547,-7.01872 c -8.11509,-3.8603 -15.97891,-7.32598 -17.47516,-7.70151 -1.96908,-0.49421 -4.47776,0.13954 -9.08298,2.29459 l -6.36252,2.97738 -0.6963,12.32078 c -0.38297,6.77643 -1.21109,12.94106 -1.84027,13.69917 -1.43781,1.73246 -7.36642,4.72891 -11.16802,5.64457 l -2.89026,0.69616 0.68118,-18.30426 z M 247.24089,313.1849 c 3.68236,-1.58721 21.99519,-10.1805 40.69519,-19.0962 32.08677,-15.29818 48.03862,-22.74341 61.20047,-28.56421 l 5.70484,-2.52295 -5.81964,-3.50571 c -21.52794,-12.96827 -89.02673,-47.4251 -92.90283,-47.4251 -3.44254,0 -13.71088,3.70768 -36.68284,13.24538 -33.80209,14.03425 -81,35.38336 -81,36.63887 0,0.77221 6.31163,4.63448 19.5,11.93263 8.63904,4.78065 81.46493,42.08171 82.30481,42.15612 0.16765,0.0148 3.31765,-1.27163 7,-2.85883 z m -13.30481,-16.46635 c -13.23882,-2.78937 -31.81276,-11.728 -36.39095,-17.51299 -11.61969,-14.68262 -6.08958,-34.45432 11.08136,-39.61897 12.21211,-3.67313 42.03433,-6.2481 53.34321,-4.60586 15.2948,2.22107 27.27241,7.6976 29.60854,13.53794 0.67145,1.67863 2.48915,4.53022 4.03933,6.33686 1.55018,1.80663 2.81851,4.16913 2.81851,5.25 0,1.71137 -0.6781,1.95776 -5.25,1.90757 -9.72144,-0.10671 -12.58192,-1.07585 -14.50789,-4.91533 -2.17,-4.32598 -8.98278,-9.57877 -14.53416,-11.20615 -6.2051,-1.819 -28.64395,-1.54291 -37.56402,0.4622 -11.42993,2.56929 -14.3026,4.34691 -16.44245,10.17465 -2.41214,6.56929 -2.55813,15.93819 -0.28745,18.44727 2.52098,2.78564 12.03869,7.59195 20.96628,10.58766 7.13337,2.39364 8.34388,2.53308 12.77088,1.47106 7.18146,-1.72281 7.70767,-3.62421 2.80284,-10.12774 -2.98267,-3.95486 -3.95049,-6.11249 -3.73916,-8.33599 0.27297,-2.87208 0.47702,-2.99369 4.78513,-2.85214 5.07985,0.16692 17.41719,4.21079 22.57855,7.40069 6.80436,4.20533 5.87421,10.40091 -2.35496,15.68597 -12.18581,7.82616 -22.5711,10.26308 -33.72359,7.9133 z"
       style="fill:#394050;fill-opacity:1" /></g></svg>