<?xml version="1.0" encoding="UTF-8" standalone="no"?>
<svg
   xmlns:dc="http://purl.org/dc/elements/1.1/"
   xmlns:cc="http://creativecommons.org/ns#"
   xmlns:rdf="http://www.w3.org/1999/02/22-rdf-syntax-ns#"
   xmlns:svg="http://www.w3.org/2000/svg"
   xmlns="http://www.w3.org/2000/svg"
   xmlns:xlink="http://www.w3.org/1999/xlink"
   xmlns:sodipodi="http://sodipodi.sourceforge.net/DTD/sodipodi-0.dtd"
   xmlns:inkscape="http://www.inkscape.org/namespaces/inkscape"
   viewBox="0 0 512 512"
   version="1.0"
   id="svg2"
   height="512"
   width="512"
   inkscape:version="0.91 r13725"
   sodipodi:docname="key-mon.svg">
  <sodipodi:namedview
     pagecolor="#ffffff"
     bordercolor="#666666"
     borderopacity="1"
     objecttolerance="10"
     gridtolerance="10"
     guidetolerance="10"
     inkscape:pageopacity="0"
     inkscape:pageshadow="2"
     inkscape:window-width="1366"
     inkscape:window-height="715"
     id="namedview30"
     showgrid="false"
     inkscape:zoom="0.29209588"
     inkscape:cx="-249.88743"
     inkscape:cy="201.88391"
     inkscape:window-x="0"
     inkscape:window-y="24"
     inkscape:window-maximized="1"
     inkscape:current-layer="svg2" />
  <defs
     id="defs4">
    <linearGradient
       id="linearGradient4132">
      <stop
         id="stop4134"
         offset="0"
         style="stop-color:#f2f2f2;stop-opacity:1;" />
      <stop
         id="stop4136"
         offset="1"
         style="stop-color:#f2f2f2;stop-opacity:0;" />
    </linearGradient>
    <linearGradient
       id="linearGradient3155">
      <stop
         id="stop3157"
         offset="0"
         style="stop-color:#303030;stop-opacity:1;" />
      <stop
         id="stop3159"
         offset="1"
         style="stop-color:#303030;stop-opacity:0;" />
    </linearGradient>
    <linearGradient
       id="linearGradient6067">
      <stop
         id="stop6069"
         offset="0"
         style="stop-color:#ffffff;stop-opacity:1;" />
      <stop
         id="stop6071"
         offset="1"
         style="stop-color:#ffffff;stop-opacity:0;" />
    </linearGradient>
    <linearGradient
       id="linearGradient3142">
      <stop
         id="stop3144"
         offset="0"
         style="stop-color:#303030;stop-opacity:1;" />
      <stop
         id="stop3146"
         offset="1"
         style="stop-color:#303030;stop-opacity:0;" />
    </linearGradient>
    <linearGradient
       gradientTransform="matrix(1.6258627,0,0,1.6258627,-28.787153,-52.145846)"
       gradientUnits="userSpaceOnUse"
       y2="110.71667"
       x2="92.804863"
       y1="75.855133"
       x1="92.804863"
       id="linearGradient3148"
       xlink:href="#linearGradient3142" />
    <linearGradient
       gradientUnits="userSpaceOnUse"
       y2="119.78299"
       x2="29.731594"
       y1="96.211563"
       x1="29.731594"
       id="linearGradient6073"
       xlink:href="#linearGradient6067" />
    <linearGradient
       gradientUnits="userSpaceOnUse"
       y2="124.82345"
       x2="100.75668"
       y1="85.389313"
       x1="100.75668"
       id="linearGradient3161"
       xlink:href="#linearGradient3155" />
    <linearGradient
       gradientTransform="translate(-2.2728432)"
       gradientUnits="userSpaceOnUse"
       y2="-115.67227"
       x2="96.899597"
       y1="-101.65641"
       x1="96.899597"
       id="linearGradient4138"
       xlink:href="#linearGradient4132" />
    <filter
       style="color-interpolation-filters:sRGB"
       height="1"
       width="1"
       y="0"
       x="0"
       id="filter3004">
      <feColorMatrix
         result="result2"
         type="saturate"
         in="SourceGraphic"
         values="1"
         id="feColorMatrix3006" />
      <feFlood
         result="result1"
         flood-opacity="1"
         flood-color="rgb(254,102,0)"
         id="feFlood3008" />
      <feBlend
         result="result3"
         in="result1"
         mode="multiply"
         in2="result2"
         id="feBlend3010" />
      <feComposite
         result="result4"
         operator="in"
         in2="SourceGraphic"
         id="feComposite3012" />
    </filter>
  </defs>
  <metadata
     id="metadata7">
    <rdf:RDF>
      <cc:Work
         rdf:about="">
        <dc:format>image/svg+xml</dc:format>
        <dc:type
           rdf:resource="http://purl.org/dc/dcmitype/StillImage" />
        <dc:title />
      </cc:Work>
    </rdf:RDF>
  </metadata>
  <g
     id="g4184">
    <rect
       ry="35.666451"
       rx="29.142105"
       y="243.03218"
       x="20.729401"
       height="241.39137"
       width="241.39137"
       id="rect4444"
       style="fill:#b3b3b3;fill-opacity:1;fill-rule:nonzero;stroke:none;stroke-width:3.86228538" />
    <rect
       ry="27.740574"
       rx="22.666082"
       y="270.55377"
       x="46.850349"
       height="187.74883"
       width="187.74883"
       id="rect4444-3"
       style="fill:#ebebeb;fill-opacity:1;fill-rule:nonzero;stroke:none" />
    <path
       d="m 189.13202,417.06743 -41.5669,-101.06734 -11.39962,0 -41.844927,101.06734 14.319027,0 12.92883,-33.22572 39.89866,0 13.20688,33.22572 14.45805,0 z m -32.66964,-44.48632 -30.02825,0 15.43118,-41.42786 14.59707,41.42786 z"
       style="font-style:normal;font-variant:normal;font-weight:bold;font-stretch:normal;font-size:230.9047699px;line-height:125%;font-family:Laksaman;-inkscape-font-specification:'Laksaman, Bold';text-align:start;letter-spacing:0px;word-spacing:0px;writing-mode:lr-tb;text-anchor:start;fill:#394050;fill-opacity:1;stroke:none"
       id="path4167"
       inkscape:connector-curvature="0" />
    <g
       style="fill:#ebebeb;fill-opacity:1"
       transform="matrix(2.8320714,0,0,-2.8320714,481.25414,295.24898)"
       id="g310">
      <path
         inkscape:connector-curvature="0"
         id="path312"
         style="fill:#ebebeb;fill-opacity:1;fill-rule:nonzero;stroke:none"
         d="m 0,0 c 0,0 6,57.667 -2,67 -8,9.333 -24.666,11.667 -24.666,11.667 l -0.834,0 0,-33.167 c 0,-2.201 -1.8,-4 -4,-4 l -7.833,0 c -2.2,0 -4,1.799 -4,4 l 0,33.167 C -43.333,78.667 -60,76.333 -68,67 -76,57.667 -70,0 -70,0 -70,0 -89.334,-66.001 -35,-66.001 19.334,-66.001 0,0 0,0" />
    </g>
    <g
       style="fill:#394050"
       transform="matrix(2.8320714,0,0,-2.8320714,311.55389,461.82425)"
       id="g314">
      <path
         inkscape:connector-curvature="0"
         id="path316"
         style="fill:#394050;fill-opacity:1;fill-rule:nonzero;stroke:none"
         d="M 0,0 C 15.079,27.85 -10.079,58.817 -10.079,58.817 -10.079,58.817 -22.296,17.102 0,0" />
    </g>
    <g
       style="fill:#394050"
       transform="matrix(2.8320714,0,0,-2.8320714,452.71225,461.82425)"
       id="g318">
      <path
         inkscape:connector-curvature="0"
         id="path320"
         style="fill:#394050;fill-opacity:1;fill-rule:nonzero;stroke:none"
         d="M 0,0 C -15.078,27.85 10.08,58.817 10.08,58.817 10.08,58.817 22.297,17.102 0,0" />
    </g>
    <g
       style="fill:#394050"
       transform="matrix(2.8320714,0,0,-2.8320714,403.37216,166.74517)"
       id="g322">
      <path
         inkscape:connector-curvature="0"
         id="path324"
         style="fill:#394050;fill-opacity:1;fill-rule:nonzero;stroke:none"
         d="m 0,0 c 0,-2.2 -1.8,-4 -4,-4 l -7.833,0 c -2.2,0 -4,1.8 -4,4 l 0,29.292 c 0,2.199 1.8,4 4,4 l 7.833,0 c 2.2,0 4,-1.801 4,-4 L 0,0 Z" />
    </g>
    <g
       transform="matrix(2.8320714,0,0,-2.8320714,393.40187,145.46866)"
       id="g326">
      <path
         inkscape:connector-curvature="0"
         id="path328"
         style="fill:#ffffff;fill-opacity:1;fill-rule:nonzero;stroke:none"
         d="m 0,0 c 0,-1.222 -0.999,-2.221 -2.221,-2.221 l -4.35,0 c -1.221,0 -2.221,0.999 -2.221,2.221 l 0,16.266 c 0,1.222 1,2.221 2.221,2.221 l 4.35,0 C -0.999,18.487 0,17.488 0,16.266 L 0,0 Z" />
    </g>
    <path
       sodipodi:open="true"
       sodipodi:end="6.2784904"
       sodipodi:start="0"
       d="m 413.04216,457.30792 a 30.854202,10.783992 0 0 1 -30.81799,10.78399 30.854202,10.783992 0 0 1 -30.89033,-10.75867 30.854202,10.783992 0 0 1 30.74547,-10.80924 30.854202,10.783992 0 0 1 30.96251,10.73329"
       sodipodi:ry="10.783992"
       sodipodi:rx="30.854202"
       sodipodi:cy="457.30792"
       sodipodi:cx="382.18796"
       id="path3767"
       style="fill:#394050;fill-opacity:1;stroke:#394050;stroke-width:5.93089294;stroke-linecap:round;stroke-linejoin:bevel;stroke-miterlimit:4;stroke-dasharray:none;stroke-opacity:1"
       sodipodi:type="arc" />
    <path
       sodipodi:nodetypes="cc"
       inkscape:connector-curvature="0"
       id="path3769"
       d="m 380.62356,177.29968 -0.0558,60.31994"
       style="fill:none;stroke:#394050;stroke-width:4.55233431;stroke-linecap:butt;stroke-linejoin:miter;stroke-miterlimit:4;stroke-dasharray:none;stroke-opacity:1" />
  </g>
</svg>
