<?xml version="1.0" encoding="UTF-8" standalone="no"?>
<!-- Created with Inkscape (http://www.inkscape.org/) -->

<svg
   xmlns:dc="http://purl.org/dc/elements/1.1/"
   xmlns:cc="http://creativecommons.org/ns#"
   xmlns:rdf="http://www.w3.org/1999/02/22-rdf-syntax-ns#"
   xmlns:svg="http://www.w3.org/2000/svg"
   xmlns="http://www.w3.org/2000/svg"
   xmlns:sodipodi="http://sodipodi.sourceforge.net/DTD/sodipodi-0.dtd"
   xmlns:inkscape="http://www.inkscape.org/namespaces/inkscape"
   version="1.0"
   width="500"
   height="500"
   id="svg2408"
   inkscape:version="0.91 r13725"
   sodipodi:docname="kmouth.svg">
  <sodipodi:namedview
     pagecolor="#ffffff"
     bordercolor="#666666"
     borderopacity="1"
     objecttolerance="10"
     gridtolerance="10"
     guidetolerance="10"
     inkscape:pageopacity="0"
     inkscape:pageshadow="2"
     inkscape:window-width="1366"
     inkscape:window-height="715"
     id="namedview128"
     showgrid="false"
     inkscape:zoom="0.3535534"
     inkscape:cx="-197.65908"
     inkscape:cy="417.21608"
     inkscape:window-x="0"
     inkscape:window-y="24"
     inkscape:window-maximized="1"
     inkscape:current-layer="svg2408"
     showguides="false"
     inkscape:guide-bbox="true" />
  <defs
     id="defs2410">
    <linearGradient
       x1="45.447727"
       y1="92.539597"
       x2="45.447727"
       y2="7.0165396"
       id="ButtonShadow"
       gradientUnits="userSpaceOnUse"
       gradientTransform="scale(1.0058652,0.994169)">
      <stop
         id="stop3750"
         style="stop-color:#000000;stop-opacity:1"
         offset="0" />
      <stop
         id="stop3752"
         style="stop-color:#000000;stop-opacity:0.58823532"
         offset="1" />
    </linearGradient>
    <filter
       color-interpolation-filters="sRGB"
       id="filter3174">
      <feGaussianBlur
         id="feGaussianBlur3176"
         stdDeviation="1.71" />
    </filter>
    <mask
       maskUnits="userSpaceOnUse"
       x="122.963"
       y="97.149"
       width="576.609"
       height="587.491"
       id="XMLID_23_">
      <g
         id="g31"
         style="filter:url(#Adobe_OpacityMaskFilter)">
        <radialGradient
           id="XMLID_24_"
           cx="88.977501"
           cy="-20.899401"
           r="673.11609"
           fx="88.977501"
           fy="-20.899401"
           gradientUnits="userSpaceOnUse">
          <stop
             offset="0.309"
             style="stop-color: rgb(255, 255, 255);"
             id="stop34" />
          <stop
             offset="1"
             style="stop-color: rgb(0, 0, 0);"
             id="stop36" />
        </radialGradient>
        <ellipse
           cx="295.89499"
           cy="286.172"
           rx="512.93402"
           ry="349.10599"
           id="ellipse38"
           style="fill:url(#XMLID_24_) #000000"
           sodipodi:cx="295.89499"
           sodipodi:cy="286.172"
           sodipodi:rx="512.93402"
           sodipodi:ry="349.10599" />
      </g>
    </mask>
    <mask
       maskUnits="userSpaceOnUse"
       x="243.061"
       y="279.317"
       width="252.506"
       height="187.183"
       id="XMLID_13_">
      <g
         id="g193"
         style="filter:url(#Adobe_OpacityMaskFilter_4_)">
        <linearGradient
           id="XMLID_14_"
           gradientUnits="userSpaceOnUse"
           x1="340.0488"
           y1="266.93359"
           x2="372.38071"
           y2="417.81519">
          <stop
             offset="0"
             style="stop-color: rgb(255, 255, 255);"
             id="stop196" />
          <stop
             offset="0.0867"
             style="stop-color: rgb(248, 248, 248);"
             id="stop198" />
          <stop
             offset="0.2156"
             style="stop-color: rgb(228, 228, 228);"
             id="stop200" />
          <stop
             offset="0.3708"
             style="stop-color: rgb(194, 194, 194);"
             id="stop202" />
          <stop
             offset="0.5465"
             style="stop-color: rgb(148, 148, 148);"
             id="stop204" />
          <stop
             offset="0.7394"
             style="stop-color: rgb(89, 89, 89);"
             id="stop206" />
          <stop
             offset="0.9438"
             style="stop-color: rgb(21, 21, 21);"
             id="stop208" />
          <stop
             offset="0.9944"
             style="stop-color: rgb(0, 0, 0);"
             id="stop210" />
        </linearGradient>
        <ellipse
           cx="363.052"
           cy="374.28201"
           rx="215.32401"
           ry="183.32201"
           id="ellipse212"
           style="fill:url(#XMLID_14_) #000000"
           sodipodi:cx="363.052"
           sodipodi:cy="374.28201"
           sodipodi:rx="215.32401"
           sodipodi:ry="183.32201" />
      </g>
    </mask>
    <mask
       maskUnits="userSpaceOnUse"
       x="191.541"
       y="217.631"
       width="447.197"
       height="527.73"
       id="XMLID_10_">
      <g
         id="g159">
        <radialGradient
           id="XMLID_11_"
           cx="657.2124"
           cy="155.23289"
           r="606.95343"
           fx="657.2124"
           fy="155.23289"
           gradientTransform="matrix(0.931,0,0,0.9299,28.7459,21.6629)"
           gradientUnits="userSpaceOnUse">
          <stop
             offset="0"
             style="stop-color: rgb(201, 201, 200);"
             id="stop162" />
          <stop
             offset="0.0881"
             style="stop-color: rgb(196, 196, 196);"
             id="stop164" />
          <stop
             offset="0.2192"
             style="stop-color: rgb(184, 184, 183);"
             id="stop166" />
          <stop
             offset="0.3769"
             style="stop-color: rgb(161, 160, 160);"
             id="stop168" />
          <stop
             offset="0.5556"
             style="stop-color: rgb(127, 127, 126);"
             id="stop170" />
          <stop
             offset="0.7517"
             style="stop-color: rgb(79, 79, 78);"
             id="stop172" />
          <stop
             offset="0.9595"
             style="stop-color: rgb(18, 18, 18);"
             id="stop174" />
          <stop
             offset="1"
             style="stop-color: rgb(0, 0, 0);"
             id="stop176" />
        </radialGradient>
        <circle
           cx="408.427"
           cy="444.22601"
           r="302.95401"
           id="circle178"
           style="fill:url(#XMLID_11_) #000000"
           sodipodi:cx="408.427"
           sodipodi:cy="444.22601"
           sodipodi:rx="302.95401"
           sodipodi:ry="302.95401" />
      </g>
    </mask>
    <mask
       maskUnits="userSpaceOnUse"
       x="101.57"
       y="425.034"
       width="156.907"
       height="127.553"
       id="XMLID_2_">
      <g
         id="g86">
        <linearGradient
           id="XMLID_3_"
           gradientUnits="userSpaceOnUse"
           x1="206.09081"
           y1="397.62061"
           x2="186.92191"
           y2="563.47321">
          <stop
             offset="0"
             style="stop-color: rgb(255, 255, 255);"
             id="stop89" />
          <stop
             offset="0.1111"
             style="stop-color: rgb(203, 203, 203);"
             id="stop91" />
          <stop
             offset="0.2396"
             style="stop-color: rgb(150, 150, 150);"
             id="stop93" />
          <stop
             offset="0.3698"
             style="stop-color: rgb(104, 104, 104);"
             id="stop95" />
          <stop
             offset="0.4991"
             style="stop-color: rgb(66, 66, 66);"
             id="stop97" />
          <stop
             offset="0.6273"
             style="stop-color: rgb(37, 37, 37);"
             id="stop99" />
          <stop
             offset="0.7542"
             style="stop-color: rgb(17, 17, 17);"
             id="stop101" />
          <stop
             offset="0.8792"
             style="stop-color: rgb(4, 4, 4);"
             id="stop103" />
          <stop
             offset="1"
             style="stop-color: rgb(0, 0, 0);"
             id="stop105" />
        </linearGradient>
        <ellipse
           cx="194.76401"
           cy="495.62299"
           rx="160.94"
           ry="123.604"
           id="ellipse107"
           style="fill:url(#XMLID_3_) #000000"
           sodipodi:cx="194.76401"
           sodipodi:cy="495.62299"
           sodipodi:rx="160.94"
           sodipodi:ry="123.604" />
      </g>
    </mask>
    <mask
       maskUnits="userSpaceOnUse"
       x="155.705"
       y="461.543"
       width="93.126"
       height="44.813"
       id="XMLID_26_">
      <g
         id="g69">
        <linearGradient
           id="XMLID_1_"
           gradientUnits="userSpaceOnUse"
           x1="211.7222"
           y1="562.85791"
           x2="200.0733"
           y2="466.75449">
          <stop
             offset="0"
             style="stop-color: rgb(255, 255, 255);"
             id="stop72" />
          <stop
             offset="1"
             style="stop-color: rgb(0, 0, 0);"
             id="stop74" />
        </linearGradient>
        <ellipse
           cx="203.617"
           cy="495.98801"
           rx="80.542"
           ry="59.682999"
           id="ellipse76"
           style="fill:url(#XMLID_1_) #000000"
           sodipodi:cx="203.617"
           sodipodi:cy="495.98801"
           sodipodi:rx="80.542"
           sodipodi:ry="59.682999" />
      </g>
    </mask>
    <linearGradient
       id="linearGradient3382">
      <stop
         id="stop3384"
         offset="0"
         style="stop-color:#b5b5b5;stop-opacity:1" />
      <stop
         id="stop3386"
         offset="1"
         style="stop-color:#dbdbdb;stop-opacity:1" />
    </linearGradient>
    <linearGradient
       id="linearGradient3992-5">
      <stop
         id="stop3994-3"
         offset="0"
         style="stop-color:#b5b5b5;stop-opacity:1" />
      <stop
         id="stop3996-0"
         offset="1"
         style="stop-color:#dbdbdb;stop-opacity:1" />
    </linearGradient>
    <linearGradient
       id="linearGradient3992">
      <stop
         id="stop3994"
         offset="0"
         style="stop-color:#b5b5b5;stop-opacity:1" />
      <stop
         id="stop3996"
         offset="1"
         style="stop-color:#dbdbdb;stop-opacity:1" />
    </linearGradient>
  </defs>
  <metadata
     id="metadata2413">
    <rdf:RDF>
      <cc:Work
         rdf:about="">
        <dc:format>image/svg+xml</dc:format>
        <dc:type
           rdf:resource="http://purl.org/dc/dcmitype/StillImage" />
        <dc:title />
      </cc:Work>
    </rdf:RDF>
  </metadata>
  <g
     id="layer2"
     style="display:none"
     transform="translate(0,404)">
    <path
       d="M 11,7 C 7.676,7 5,9.676 5,13 l 0,33.6875 c 2.2377507,0.124029 4.660506,0.235683 5.875,0.4375 0.66093,0.10983 -0.08406,0.240848 -1.125,0.34375 C 8.7090622,47.571654 7.3545491,47.665119 6.84375,47.75 6.2216014,47.853382 5.6264179,47.903999 5,48 l 0,1.0625 c 0.3803657,0.03607 0.7183843,0.03125 0.9375,0.03125 0.80883,10e-7 1.1599727,0.215701 1.3125,0.5625 0.1525272,0.346797 0.09375,0.839723 0.09375,1.40625 0,0.424828 -0.9420178,0.663014 -1.15625,1.375 C 6.110939,52.691968 5.5510552,52.945524 5,53.1875 l 0,2.21875 c 0.7355867,0.02497 1.4332639,0.05671 1.84375,0.3125 C 7.1254716,55.894306 6.0687957,56.124098 5,56.3125 l 0,7.5625 c 1.1379643,0.180337 3.3100715,0.925679 3.96875,1.0625 1.090152,0.226446 1.224723,0.33476 0.875,0.4375 -0.3497231,0.102744 -1.173581,0.175172 -2,0.3125 C 6.8656638,65.850029 5.90816,66.141998 5,66.34375 L 5,86 c 0,3.324 2.676,6 6,6 l 13,0 c 0.0954,-0.438237 0.150955,-0.931178 0.25,-1.4375 0.140364,-0.717512 0.25498,-1.34159 0.375,-1.59375 0.03001,-0.06304 0.05815,-0.114053 0.09375,-0.125 0.106804,-0.03285 0.238198,0.191956 0.46875,0.78125 0.304338,0.777871 0.540174,1.646782 0.6875,2.375 l 0.75,0 c 0.276152,-0.493694 0.578538,-1.138496 0.8125,-1.4375 0.09907,-0.126629 0.275237,0.131501 0.53125,0.375 0.256014,0.2435 0.588904,0.486378 0.9375,0.375 0.648614,-0.207227 1.602807,-0.726227 2.03125,-1 0.139883,-0.08938 0.300164,-0.157976 0.40625,-0.1875 0.106087,-0.02952 0.174331,-0.01774 0.25,0 0.151339,0.03548 0.232196,0.144559 0.34375,0.28125 0.223098,0.27338 0.466785,0.656251 1.0625,0.65625 0.478344,0 0.657185,-0.0325 0.78125,0.0625 0.124065,0.095 0.197087,0.314551 0.40625,0.875 l 8.875,0 c -0.04778,-0.593879 1.040547,-2.151517 1.21875,-3.0625 0.19092,-0.975995 0.214078,-1.242419 0.28125,-1.0625 0.06717,0.179919 0.192504,0.793906 0.46875,1.5 0.110448,0.282298 0.213887,0.358235 0.3125,0.28125 0.09861,-0.07699 0.168895,-0.293948 0.25,-0.5625 0.162213,-0.537107 0.285649,-1.296709 0.34375,-1.59375 0.131129,-0.670335 0.128655,-1.786501 0.125,-2.28125 -9.11e-4,-0.123687 -0.0059,-0.217815 0,-0.25 0.01779,-0.09656 0.08067,0.312079 0.28125,1.59375 0.163819,1.046767 0.54767,2.687946 0.71875,3.5625 0.169798,0.867992 0.298106,1.322124 0.40625,1.875 l 28.21875,0 c 0.03877,-0.494956 0.03519,-1.098589 0.0625,-1.5 0.02049,-0.301057 0.06649,-0.487005 0.15625,-0.46875 0.02992,0.0061 0.05077,0.03882 0.09375,0.09375 0.233449,0.298339 0.630596,1.164908 0.96875,1.875 L 85,92 c 3.324,0 6,-2.676 6,-6 l 0,-7.21875 c -0.16942,0.0045 -0.290112,-4e-6 -0.5,0 -1.330307,0 -2.638456,-4e-6 -3.96875,0 -1.226564,0 -2.05394,-9.64e-4 -2.25,-0.0625 -0.19606,-0.06154 0.232972,-0.183183 1.46875,-0.5 C 86.405034,78.050819 89.092469,77.290673 91,76.875 L 91,38.46875 C 90.34725,38.202412 89.792969,37.980093 89.25,37.5625 89.107486,37.452886 88.801155,37.170028 88.28125,37 87.761349,36.829972 87.007124,36.743855 86,36.9375 c -1.533473,0.294852 -1.685602,0.283469 -1.25,0.15625 0.4356,-0.127221 1.468635,-0.381012 2.25,-0.53125 1.152717,-0.221645 2.722214,-1.204246 4,-1.84375 l 0,-4.5625 c -0.69831,-0.257978 -1.422206,-0.558272 -1.75,-1.0625 -0.209707,-0.322576 -0.321618,-0.513018 -0.3125,-0.625 0.0091,-0.111981 0.13299,-0.149124 0.25,-0.1875 0.117011,-0.03837 0.261032,-0.05449 0.375,-0.15625 0.11397,-0.101759 0.187497,-0.291619 0.1875,-0.59375 0,-0.32292 0.08246,-0.887065 0.0625,-1.40625 -0.01,-0.259593 -0.03562,-0.49724 -0.125,-0.6875 -0.08939,-0.19026 -0.219089,-0.333004 -0.4375,-0.375 -0.574572,-0.110478 -0.848143,-0.233682 -0.90625,-0.34375 -0.05811,-0.110067 0.07208,-0.18937 0.28125,-0.28125 0.418339,-0.18376 1.132532,-0.339398 1.125,-0.34375 -0.668701,-0.385725 -5.247169,-0.921226 -5,-0.96875 0.332574,-0.06395 0.667437,-0.123553 1,-0.1875 1.047644,-0.201439 2.43278,-0.309227 3.75,-0.5625 0.573261,-0.110227 0.911769,-0.250569 1.125,-0.4375 0.213229,-0.18693 0.294201,-0.423258 0.375,-0.625 L 91,13 C 91,9.676 88.324,7 85,7 L 33.625,7 C 33.72158,8.3975706 33.82658,9.959362 33.53125,9.1875 33.320827,8.6375466 33.210422,8.0499534 33,7.5 32.946762,7.3608606 32.903941,7.1705291 32.84375,7 L 30.8125,7 C 30.571803,7.4923127 30.362863,7.9708281 30.03125,8.1875 29.524321,8.5187294 29.245447,8.6821159 29,8.59375 28.754552,8.5053839 28.523162,8.1669814 28.15625,7.6875 27.992502,7.4735174 27.721718,7.2560338 27.40625,7 l -6.8125,0 -1.3125,5.5625 L 17.53125,7 17.3125,7 15.5625,15.9375 14.15625,7 11,7 z"
       inkscape:connector-curvature="0"
       id="rect3745"
       style="opacity:0.9;fill:url(#ButtonShadow);fill-opacity:1;fill-rule:nonzero;stroke:none;filter:url(#filter3174)" />
  </g>
  <g
     id="g4226">
    <path
       inkscape:connector-curvature="0"
       id="path4571"
       d="m 204.59675,432.33146 c -15.59568,-6.94354 -36.63528,-28.7843 -74.3533,-77.18453 -52.089949,-66.84249 -71.911518,-85.07981 -97.736153,-89.92456 -4.678827,-0.87776 -8.506971,-2.27413 -8.506971,-3.10303 0,-0.8289 11.183797,-12.88773 24.852874,-26.79738 13.669075,-13.90962 41.374705,-44.45804 61.56809,-67.88532 42.7165,-49.5574 81.31518,-92.101073 83.54964,-92.088884 0.85843,0.0044 4.95583,6.480276 9.10528,14.390218 11.46797,21.860976 23.78404,33.952416 34.58319,33.952416 16.4897,0 37.06605,-22.76624 55.45213,-61.353715 l 7.7848,-16.338238 10.3882,15.24601 C 341.52245,105.62237 387.38611,160.43446 430.43314,203.64 l 34.92355,35.05214 -12.8834,3.69478 c -16.39907,4.70302 -29.58002,12.25176 -49.32101,28.2461 -14.81855,12.00611 -29.44251,27.69299 -87.31546,93.66186 -40.31839,45.95853 -74.93326,72.72858 -93.57004,72.36405 -4.57356,-0.0893 -12.52508,-2.03679 -17.67003,-4.32747 z m 56.22522,-114.11602 c 16.06583,-7.479 39.42078,-31.02115 57.07268,-57.53017 14.01685,-21.05002 28.44661,-45.42668 28.44661,-48.05581 0,-0.7956 -2.59505,-1.44656 -5.76677,-1.44656 -3.17173,0 -16.77307,-5.74608 -30.22515,-12.76909 -28.06459,-14.6518 -45.75011,-20.01939 -59.34798,-18.01224 -11.24969,1.66052 -35.5101,15.32273 -66.98178,37.72063 -12.66341,9.01233 -25.87363,16.96591 -29.35606,17.6746 -3.48242,0.70868 -6.33169,1.80994 -6.33169,2.44726 0,2.53417 15.20911,27.77508 23.92727,39.70949 30.10352,41.20913 58.65025,54.18685 88.56287,40.26189 z"
       style="fill:#f03916;fill-opacity:1;stroke-width:2.30243516" />
    <circle
       r="106.91318"
       cy="369.50104"
       cx="368.08682"
       id="path881"
       style="opacity:1;fill:#892ca0;fill-opacity:1;stroke:none;stroke-width:0.49781582;stroke-linecap:round;stroke-miterlimit:4;stroke-dasharray:none;stroke-opacity:1" />
    <path
       sodipodi:nodetypes="cczcccczc"
       inkscape:connector-curvature="0"
       id="path4041"
       d="m 359.71095,433.0626 0,-124.59599 c 0,0 0.53524,-3.2216 -2.52559,-4.48995 -3.06081,-1.26834 -6.45433,2.24497 -6.45433,2.24497 l -34.51639,35.91955 0.28061,55.84369 36.20013,35.91957 c 0,0 2.33595,2.63025 4.91093,1.75385 2.57494,-0.87635 2.10464,-2.59569 2.10464,-2.59569 z"
       style="fill:#ffffff;stroke:none;stroke-width:0.45106363" />
    <path
       sodipodi:nodetypes="ccczcczcc"
       inkscape:connector-curvature="0"
       id="path4043"
       d="m 314.03016,398.03066 -0.19844,-55.95708 -22.62093,-0.19842 c 0,0 -4.53719,0.35997 -6.54816,2.97642 -2.01103,2.61646 -1.9843,5.35759 -1.9843,5.35759 l 0,37.90003 c 0,0 -0.11454,4.84421 2.18268,7.14345 2.29727,2.29925 5.75445,2.77801 5.75445,2.77801 z"
       style="fill:#ffffff;stroke:none;stroke-width:0.45106363" />
    <path
       inkscape:connector-curvature="0"
       id="path3000"
       d="m 426.71875,298.3418 -8.99219,8.99218 c 16.91376,16.91376 26.41211,39.84792 26.41211,63.76758 0,23.91966 -9.49835,46.85383 -26.41211,63.76758 l 8.99219,8.99219 c 19.2953,-19.2953 30.13672,-45.47209 30.13672,-72.75977 0,-27.28767 -10.84142,-53.46446 -30.13672,-72.75976 z"
       style="color:#000000;font-style:normal;font-variant:normal;font-weight:normal;font-stretch:normal;font-size:medium;line-height:normal;font-family:sans-serif;text-indent:0;text-align:start;text-decoration:none;text-decoration-line:none;text-decoration-style:solid;text-decoration-color:#000000;letter-spacing:normal;word-spacing:normal;text-transform:none;direction:ltr;block-progression:tb;writing-mode:lr-tb;baseline-shift:baseline;text-anchor:start;white-space:normal;clip-rule:nonzero;display:inline;overflow:visible;visibility:visible;opacity:1;isolation:auto;mix-blend-mode:normal;color-interpolation:sRGB;color-interpolation-filters:linearRGB;solid-color:#000000;solid-opacity:1;fill:#ffffff;fill-opacity:1;fill-rule:nonzero;stroke:none;stroke-width:12.7175436;stroke-linecap:butt;stroke-linejoin:round;stroke-miterlimit:4;stroke-dasharray:none;stroke-dashoffset:0;stroke-opacity:1;marker:none;color-rendering:auto;image-rendering:auto;shape-rendering:auto;text-rendering:auto;enable-background:accumulate" />
    <path
       inkscape:connector-curvature="0"
       id="path3770"
       d="m 404.57812,320.48047 -8.99218,8.99414 c 11.04201,11.04201 17.24218,26.01119 17.24218,41.62695 10e-6,15.61576 -6.20017,30.58494 -17.24218,41.62696 l 8.99218,8.99218 c 13.42356,-13.42355 20.96876,-31.63536 20.96876,-50.61914 -10e-6,-18.98378 -7.5452,-37.19753 -20.96876,-50.62109 z"
       style="color:#000000;font-style:normal;font-variant:normal;font-weight:normal;font-stretch:normal;font-size:medium;line-height:normal;font-family:sans-serif;text-indent:0;text-align:start;text-decoration:none;text-decoration-line:none;text-decoration-style:solid;text-decoration-color:#000000;letter-spacing:normal;word-spacing:normal;text-transform:none;direction:ltr;block-progression:tb;writing-mode:lr-tb;baseline-shift:baseline;text-anchor:start;white-space:normal;clip-rule:nonzero;display:inline;overflow:visible;visibility:visible;opacity:1;isolation:auto;mix-blend-mode:normal;color-interpolation:sRGB;color-interpolation-filters:linearRGB;solid-color:#000000;solid-opacity:1;fill:#ffffff;fill-opacity:1;fill-rule:nonzero;stroke:none;stroke-width:12.71754265;stroke-linecap:butt;stroke-linejoin:round;stroke-miterlimit:4;stroke-dasharray:none;stroke-dashoffset:0;stroke-opacity:1;marker:none;color-rendering:auto;image-rendering:auto;shape-rendering:auto;text-rendering:auto;enable-background:accumulate" />
    <path
       inkscape:connector-curvature="0"
       id="path3772"
       d="m 382.43945,342.62109 -8.99218,8.99219 c 5.17027,5.17027 8.07226,12.17641 8.07226,19.48828 0,7.31187 -2.90199,14.31801 -8.07226,19.48828 l 8.99218,8.99219 c 7.55182,-7.55182 11.79688,-17.80058 11.79688,-28.48047 0,-10.67988 -4.24506,-20.92865 -11.79688,-28.48047 z"
       style="color:#000000;font-style:normal;font-variant:normal;font-weight:normal;font-stretch:normal;font-size:medium;line-height:normal;font-family:sans-serif;text-indent:0;text-align:start;text-decoration:none;text-decoration-line:none;text-decoration-style:solid;text-decoration-color:#000000;letter-spacing:normal;word-spacing:normal;text-transform:none;direction:ltr;block-progression:tb;writing-mode:lr-tb;baseline-shift:baseline;text-anchor:start;white-space:normal;clip-rule:nonzero;display:inline;overflow:visible;visibility:visible;opacity:1;isolation:auto;mix-blend-mode:normal;color-interpolation:sRGB;color-interpolation-filters:linearRGB;solid-color:#000000;solid-opacity:1;fill:#ffffff;fill-opacity:1;fill-rule:nonzero;stroke:none;stroke-width:12.7175436;stroke-linecap:butt;stroke-linejoin:round;stroke-miterlimit:4;stroke-dasharray:none;stroke-dashoffset:0;stroke-opacity:1;marker:none;color-rendering:auto;image-rendering:auto;shape-rendering:auto;text-rendering:auto;enable-background:accumulate" />
  </g>
</svg>
