<?xml version="1.0" encoding="UTF-8" standalone="no"?>
<!-- Created with Inkscape (http://www.inkscape.org/) -->

<svg
   xmlns:dc="http://purl.org/dc/elements/1.1/"
   xmlns:cc="http://creativecommons.org/ns#"
   xmlns:rdf="http://www.w3.org/1999/02/22-rdf-syntax-ns#"
   xmlns:svg="http://www.w3.org/2000/svg"
   xmlns="http://www.w3.org/2000/svg"
   xmlns:sodipodi="http://sodipodi.sourceforge.net/DTD/sodipodi-0.dtd"
   xmlns:inkscape="http://www.inkscape.org/namespaces/inkscape"
   id="svg2"
   version="1.1"
   inkscape:version="0.91 r13725"
   width="512"
   height="512"
   sodipodi:docname="libreoffice-base.svg"
   viewBox="0 0 512 512">
  <metadata
     id="metadata8">
    <rdf:RDF>
      <cc:Work
         rdf:about="">
        <dc:format>image/svg+xml</dc:format>
        <dc:type
           rdf:resource="http://purl.org/dc/dcmitype/StillImage" />
        <dc:title />
      </cc:Work>
    </rdf:RDF>
  </metadata>
  <defs
     id="defs6" />
  <sodipodi:namedview
     pagecolor="#ffffff"
     bordercolor="#666666"
     borderopacity="1"
     objecttolerance="10"
     gridtolerance="10"
     guidetolerance="10"
     inkscape:pageopacity="0"
     inkscape:pageshadow="2"
     inkscape:window-width="1366"
     inkscape:window-height="715"
     id="namedview4"
     showgrid="false"
     inkscape:zoom="0.35355339"
     inkscape:cx="24.72828"
     inkscape:cy="4.4601525"
     inkscape:window-x="0"
     inkscape:window-y="24"
     inkscape:window-maximized="1"
     inkscape:current-layer="svg2" />
  <g
     id="g4177">
    <path
       sodipodi:nodetypes="csscccssscsssscsscssscscc"
       style="fill:#f03916;fill-opacity:1;stroke:none;stroke-width:0.44932496999999999;stroke-opacity:1"
       d="M 108.63515,480.36629 C 105.33731,479.48008 98.641923,476.28521 95.1003,473.90778 88.161564,469.2499 81.397437,460.60659 78.117231,452.20655 L 76.508407,448.08664 76.38643,257.34815 76.264453,66.609693 l 1.181368,-3.81565 c 3.758232,-12.138521 12.246918,-21.93893 23.775459,-27.449381 8.09833,-3.870871 0.42584,-3.558694 87.2339,-3.549294 l 77.21905,0.0084 34.1487,34.333082 c 18.78178,18.883191 50.37495,50.63158 70.20704,70.55197 19.83208,19.92039 36.05832,36.32524 36.05832,36.45523 0,0.12996 6.167,6.39948 13.70443,13.93225 l 13.70441,13.69592 0.10099,55.13515 c 0.0555,30.32433 0.1061,86.67776 0.11235,125.22985 l 0.0112,70.09469 -2.09053,4.34869 c -2.64912,5.5107 -4.2224,7.78456 -8.44552,12.20651 -5.48679,5.74507 -11.13166,9.24954 -19.31531,11.99132 l -3.98056,1.3336 -144.39174,-0.0409 c -125.88851,-0.0355 -144.70835,-0.12578 -146.86296,-0.70478 z"
       id="path4306"
       inkscape:connector-curvature="0" />
    <path
       sodipodi:nodetypes="cczcczcczc"
       inkscape:connector-curvature="0"
       id="path2983"
       d="M 428.94185,138.7564 C 398.76997,104.22802 330.03003,37.884033 330.03003,37.884033 c 0,0 -3.23022,-2.311031 -3.17669,-4.619121 0.0535,-2.308089 2.24711,-2.369487 2.24711,-2.369487 l 63.45263,-0.05439 c 0,0 16.38843,-0.504035 30.06234,13.466661 13.67391,13.970696 12.92307,32 12.92307,32 l -0.0151,60.925707 c 0,0 0.004,2.20437 -1.97175,3.15479 -1.97535,0.95043 -4.60979,-1.63179 -4.60979,-1.63179 z"
       style="fill:#f03916;stroke:none;stroke-width:1px;stroke-linecap:butt;stroke-linejoin:miter;stroke-opacity:1" />
    <path
       sodipodi:nodetypes="csscccssscsssscsscssscscc"
       style="fill:#ffffff;fill-opacity:1;stroke:none"
       d="m 122.20088,460.23037 c -2.94726,-0.792 -8.93089,-3.64723 -12.09601,-5.77192 -6.20111,-4.16272 -12.246166,-11.88719 -15.177665,-19.39425 L 93.489409,431.38226 93.380399,260.9205 93.271389,90.458761 94.32717,87.048739 c 3.358708,-10.848117 10.94499,-19.606681 21.24798,-24.531334 7.23742,-3.459372 0.38057,-3.180388 77.96037,-3.171987 l 69.01017,0.0071 30.51848,30.683262 c 16.78515,16.87578 45.01977,45.24912 62.74358,63.05184 17.7238,17.80273 32.22509,32.46363 32.22509,32.57981 0,0.11614 5.5114,5.71917 12.24756,12.45116 l 12.24754,12.23995 0.0903,49.27393 c 0.0496,27.10066 0.0948,77.46336 0.10041,111.91711 l 0.01,62.64318 -1.86829,3.8864 c -2.3675,4.92487 -3.77353,6.95701 -7.54771,10.90887 -4.90351,5.13434 -9.94829,8.26626 -17.26197,10.71657 l -3.5574,1.19183 -129.04197,-0.0365 c -112.50575,-0.0314 -129.32492,-0.11205 -131.25048,-0.6295 z"
       id="path4306-3"
       inkscape:connector-curvature="0" />
    <path
       style="fill:#f03916;fill-opacity:1"
       d="m 220.70163,407.27804 c -12.55086,-1.3444 -26.57323,-3.78851 -35.30481,-6.15359 -18.26675,-4.9478 -33.2438,-12.99882 -38.16181,-20.51412 -2.44299,-3.73321 -2.5368,-4.3682 -2.5368,-17.17215 0,-7.43519 0.39118,-13.29558 0.88751,-13.29558 0.48812,0 2.02609,1.47949 3.41776,3.28778 12.85315,16.7013 58.58262,27.79954 108.474,26.32591 46.16756,-1.36363 82.77358,-11.94336 92.77422,-26.81322 1.31213,-1.95099 2.79958,-3.54727 3.30542,-3.54727 1.66697,0 2.23494,5.15921 1.79288,16.28575 -0.39543,9.95293 -0.66991,11.31904 -2.95513,14.70755 -7.97557,11.82627 -30.93794,20.97041 -64.94175,25.86133 -14.22831,2.04654 -51.83483,2.62547 -66.75149,1.02761 z m 5.39381,-36.31472 c -30.29126,-2.3173 -58.35585,-10.1873 -71.58406,-20.07394 -8.72788,-6.52312 -9.27087,-7.83907 -9.62991,-23.33719 -0.20648,-8.91299 0.0303,-13.25552 0.72321,-13.25552 0.56666,0 2.12855,1.3248 3.47086,2.94402 8.51982,10.27733 30.73052,18.87959 59.76005,23.14515 57.879,8.50469 125.60491,-2.82172 140.98852,-23.57874 1.63212,-2.20222 3.33961,-4.004 3.79445,-4.004 1.49328,0 2.18514,6.68912 1.73569,16.78083 -0.39641,8.90075 -0.71666,10.35002 -3.11032,14.0756 -12.34362,19.21209 -69.68551,31.62327 -126.14849,27.30379 z m 2.94205,-36.58867 c -38.86104,-2.6143 -71.93135,-13.64568 -81.18274,-27.08048 -2.47421,-3.59301 -2.65568,-4.53903 -2.98059,-15.53854 -0.42284,-14.31561 0.20725,-15.68182 4.74749,-10.29395 8.25764,9.7992 27.67805,17.33047 55.80017,21.63939 61.7049,9.4545 130.73079,-2.14201 145.61457,-24.46361 0.89009,-1.33488 1.97966,-2.42707 2.42129,-2.42707 1.24776,0 2.14854,20.14922 1.11663,24.9773 -4.68952,21.94135 -63.11351,37.38635 -125.53682,33.18696 z m 4.79898,-36.5836 c -40.43071,-1.9575 -77.30498,-13.94671 -85.84462,-27.91134 -11.70106,-19.13443 23.63147,-37.81708 79.94831,-42.27396 15.85118,-1.25448 46.57711,-0.5053 60.49364,1.47496 16.34392,2.32569 27.20371,4.93049 39.38693,9.44734 17.8516,6.61832 26.74502,14.51712 26.74502,23.75395 0,22.02548 -56.42828,38.62224 -120.72928,35.50905 z"
       id="path3026"
       inkscape:connector-curvature="0" />
  </g>
</svg>
