<?xml version="1.0" encoding="UTF-8" standalone="no"?>
<svg
   xmlns:dc="http://purl.org/dc/elements/1.1/"
   xmlns:cc="http://creativecommons.org/ns#"
   xmlns:rdf="http://www.w3.org/1999/02/22-rdf-syntax-ns#"
   xmlns:svg="http://www.w3.org/2000/svg"
   xmlns="http://www.w3.org/2000/svg"
   xmlns:sodipodi="http://sodipodi.sourceforge.net/DTD/sodipodi-0.dtd"
   xmlns:inkscape="http://www.inkscape.org/namespaces/inkscape"
   height="128"
   width="128"
   version="1.1"
   id="svg2"
   inkscape:version="0.91 r13725"
   sodipodi:docname="librecad.svg">
  <metadata
     id="metadata43">
    <rdf:RDF>
      <cc:Work
         rdf:about="">
        <dc:format>image/svg+xml</dc:format>
        <dc:type
           rdf:resource="http://purl.org/dc/dcmitype/StillImage" />
      </cc:Work>
    </rdf:RDF>
  </metadata>
  <sodipodi:namedview
     pagecolor="#ffffff"
     bordercolor="#666666"
     borderopacity="1"
     objecttolerance="10"
     gridtolerance="10"
     guidetolerance="10"
     inkscape:pageopacity="0"
     inkscape:pageshadow="2"
     inkscape:window-width="1366"
     inkscape:window-height="715"
     id="namedview41"
     showgrid="false"
     inkscape:zoom="1.2291667"
     inkscape:cx="-163.31375"
     inkscape:cy="118.41162"
     inkscape:window-x="0"
     inkscape:window-y="24"
     inkscape:window-maximized="1"
     inkscape:current-layer="svg2" />
  <defs
     id="defs4">
    <linearGradient
       id="linearGradient12443"
       y2="3"
       gradientUnits="userSpaceOnUse"
       x2="27.5"
       y1="0.5"
       x1="27.5"
       gradientTransform="matrix(2.402228,0,0,2.402228,6.3280064,6.9402887)">
      <stop
         stop-color="#fff"
         offset="0"
         id="stop7" />
      <stop
         stop-color="#fff"
         stop-opacity="0"
         offset="1"
         id="stop9" />
    </linearGradient>
    <filter
       id="filter4549"
       height="1.4594001"
       width="1.5025001"
       y="-0.22969"
       x="-0.25127"
       color-interpolation-filters="sRGB">
      <feGaussianBlur
         stdDeviation="2.8192388"
         id="feGaussianBlur12" />
    </filter>
    <clipPath
       id="clipPath4571"
       clipPathUnits="userSpaceOnUse">
      <path
         d="m 16.562,9.2812 c -0.74132,0.048211 -1.4937,0.22542 -2.125,0.5 -1.676,0.7268 -2.965,2.6818 -3.593,5.4688 -0.44683,1.9819 -0.41916,7.4073 0.03125,9.5 0.44637,2.0716 1.3217,3.7905 2.4062,4.875 l 0.407,0.375 2.5312,2.5312 c 0.30041,0.8334 0.62131,1.3713 1,1.75 l 0.343,0.313 13.407,13.406 h 15.031 c 1.108,0 2,-0.892 2,-2 v -16.031 l -19.094,-19.063 -0.031,-0.031 c -0.078,-0.045 -0.553,-0.117 -1.063,-0.156 l -0.90625,-0.0625 -0.34375,1.3125 c -0.17758,0.7241 -0.37237,1.5281 -0.4375,1.8125 -0.10143,0.4425 -0.18982,0.53125 -0.75,0.53125 H 24.7814 l -3.25,-3.25 c -0.843,-0.845 -1.941,-1.3838 -3.28,-1.6568 -0.31525,-0.064 -0.63979,-0.1093 -0.96875,-0.125 -0.24672,-0.01175 -0.47164,-0.01607 -0.71875,0 z"
         id="path15"
         inkscape:connector-curvature="0"
         style="opacity:0.35985;fill:#364e59" />
    </clipPath>
  </defs>
  <g
     id="g4148">
    <path
       inkscape:connector-curvature="0"
       id="path4152"
       d="M 63.105469,3.5039062 C 30.277744,3.6194991 3.5752818,30.480756 3.6523438,63.308594 3.7294057,96.136432 30.558813,122.87056 63.386719,122.83203 96.214625,122.7935 122.98047,95.995897 122.98047,63.167969 l -16.27149,0 c 0,24.040701 -19.301108,43.364361 -43.341792,43.392581 -24.040685,0.0282 -43.386925,-19.250384 -43.44336,-43.291019 -0.05643,-24.040634 19.199683,-43.407536 43.240234,-43.492187 24.040552,-0.08465 43.430098,19.147064 43.542968,43.1875 l 16.27149,-0.07617 C 122.82439,30.061105 95.933194,3.3883134 63.105469,3.5039062 Z"
       style="color:#000000;font-style:normal;font-variant:normal;font-weight:normal;font-stretch:normal;font-size:medium;line-height:normal;font-family:sans-serif;text-indent:0;text-align:start;text-decoration:none;text-decoration-line:none;text-decoration-style:solid;text-decoration-color:#000000;letter-spacing:normal;word-spacing:normal;text-transform:none;direction:ltr;block-progression:tb;writing-mode:lr-tb;baseline-shift:baseline;text-anchor:start;white-space:normal;clip-rule:nonzero;display:inline;overflow:visible;visibility:visible;opacity:1;isolation:auto;mix-blend-mode:normal;color-interpolation:sRGB;color-interpolation-filters:linearRGB;solid-color:#000000;solid-opacity:1;fill:#ffcc00;fill-opacity:1;fill-rule:nonzero;stroke:none;stroke-width:16.27188683;stroke-linecap:butt;stroke-linejoin:miter;stroke-miterlimit:4;stroke-dasharray:none;stroke-dashoffset:0;stroke-opacity:1;color-rendering:auto;image-rendering:auto;shape-rendering:auto;text-rendering:auto;enable-background:accumulate" />
    <rect
       ry="0"
       y="51.190376"
       x="2.2633419"
       height="27.138197"
       width="30.447735"
       id="rect4154"
       style="fill:#394050;fill-opacity:1;stroke:none;stroke-width:35;stroke-miterlimit:4;stroke-dasharray:none;stroke-opacity:1" />
    <rect
       ry="0"
       y="58.581673"
       x="31.828522"
       height="12.796874"
       width="94.652748"
       id="rect4154-3"
       style="fill:#394050;fill-opacity:1;stroke:none;stroke-width:35;stroke-miterlimit:4;stroke-dasharray:none;stroke-opacity:1" />
  </g>
</svg>
