<?xml version="1.0" encoding="UTF-8" standalone="no"?>
<!-- Created with Inkscape (http://www.inkscape.org/) -->

<svg
   xmlns:osb="http://www.openswatchbook.org/uri/2009/osb"
   xmlns:dc="http://purl.org/dc/elements/1.1/"
   xmlns:cc="http://creativecommons.org/ns#"
   xmlns:rdf="http://www.w3.org/1999/02/22-rdf-syntax-ns#"
   xmlns:svg="http://www.w3.org/2000/svg"
   xmlns="http://www.w3.org/2000/svg"
   xmlns:sodipodi="http://sodipodi.sourceforge.net/DTD/sodipodi-0.dtd"
   xmlns:inkscape="http://www.inkscape.org/namespaces/inkscape"
   id="svg2"
   version="1.1"
   inkscape:version="0.91 r13725"
   width="512"
   height="512"
   viewBox="0 0 511.99999 511.99999"
   sodipodi:docname="firefox-3.0.svg">
  <metadata
     id="metadata8">
    <rdf:RDF>
      <cc:Work
         rdf:about="">
        <dc:format>image/svg+xml</dc:format>
        <dc:type
           rdf:resource="http://purl.org/dc/dcmitype/StillImage" />
        <dc:title />
      </cc:Work>
    </rdf:RDF>
  </metadata>
  <defs
     id="defs6">
    <linearGradient
       id="linearGradient6575"
       osb:paint="solid">
      <stop
         style="stop-color:#ec8840;stop-opacity:1;"
         offset="0"
         id="stop6577" />
    </linearGradient>
    <linearGradient
       id="linearGradient6569"
       osb:paint="solid">
      <stop
         style="stop-color:#ec8840;stop-opacity:1;"
         offset="0"
         id="stop6571" />
    </linearGradient>
    <linearGradient
       id="linearGradient5117"
       osb:paint="solid">
      <stop
         style="stop-color:#655041;stop-opacity:1;"
         offset="0"
         id="stop5119" />
    </linearGradient>
    <linearGradient
       id="linearGradient5109"
       osb:paint="solid">
      <stop
         style="stop-color:#b02222;stop-opacity:1;"
         offset="0"
         id="stop5111" />
    </linearGradient>
    <clipPath
       clipPathUnits="userSpaceOnUse"
       id="clipPath6662">
      <circle
         style="opacity:1;fill:#333333;fill-opacity:0.6707355;stroke:none;stroke-width:4.18520069;stroke-linecap:butt;stroke-linejoin:miter;stroke-miterlimit:4;stroke-dasharray:8.37040105, 8.37040105;stroke-dashoffset:0;stroke-opacity:1"
         id="circle6664"
         cx="104.66113"
         cy="103.60957"
         r="86.010262" />
    </clipPath>
    <clipPath
       clipPathUnits="userSpaceOnUse"
       id="clipPath6658">
      <circle
         style="opacity:1;fill:#333333;fill-opacity:0.6707355;stroke:none;stroke-width:4.18520069;stroke-linecap:butt;stroke-linejoin:miter;stroke-miterlimit:4;stroke-dasharray:8.37040105, 8.37040105;stroke-dashoffset:0;stroke-opacity:1"
         id="circle6660"
         cx="104.66113"
         cy="103.60957"
         r="86.010262" />
    </clipPath>
  </defs>
  <sodipodi:namedview
     pagecolor="#ffffff"
     bordercolor="#666666"
     borderopacity="1"
     objecttolerance="10"
     gridtolerance="10"
     guidetolerance="10"
     inkscape:pageopacity="0"
     inkscape:pageshadow="2"
     inkscape:window-width="1366"
     inkscape:window-height="715"
     id="namedview4"
     inkscape:document-units="px"
     showgrid="false"
     inkscape:zoom="0.36621093"
     inkscape:cx="-3.5837896"
     inkscape:cy="303.36055"
     inkscape:window-x="0"
     inkscape:window-y="24"
     inkscape:window-maximized="1"
     inkscape:current-layer="svg2" />
  <g
     id="g4149">
    <path
       d="M 468.26808,267.09818 A 217.28108,217.28108 0 0 1 251.24203,484.37911 217.28108,217.28108 0 0 1 33.706516,267.60823 217.28108,217.28108 0 0 1 250.22192,49.81844 217.28108,217.28108 0 0 1 468.26569,266.07806"
       sodipodi:open="true"
       sodipodi:end="6.2784904"
       sodipodi:start="0"
       sodipodi:ry="217.28108"
       sodipodi:rx="217.28108"
       sodipodi:cy="267.09818"
       sodipodi:cx="250.987"
       sodipodi:type="arc"
       id="path4163"
       style="fill:#00bbf2;fill-opacity:1;stroke:none;stroke-width:70;stroke-linecap:round;stroke-miterlimit:4;stroke-dasharray:none;stroke-opacity:1" />
    <path
       sodipodi:nodetypes="zzzczzczczczczczczczczczczzzzzczczzczczzczczzzczczzczzzzzzzzzzzczzzzzzzzzzzzzzcczczczczzzz"
       inkscape:connector-curvature="0"
       id="path4161"
       d="m 203.57098,213.04541 c 2.60931,-5.85498 22.31369,-11.21725 30.35282,-15.93181 8.03912,-4.71457 14.16061,-6.36611 18.12928,-11.8115 3.96869,-5.44538 4.94436,-18.12928 4.94436,-18.12928 0,0 -12.12919,-4.76107 -19.64005,-6.3178 -7.51086,-1.55673 -17.97641,1.54046 -25.27115,-2.47217 -7.29473,-4.01264 -15.10773,-19.36538 -15.10773,-19.36538 0,0 9.76127,-18.46045 15.79446,-25.54582 6.03318,-7.08538 19.50272,-16.893189 19.50272,-16.893189 0,0 -28.71777,-0.88949 -39.55482,3.02155 -10.83705,3.911039 -24.03504,17.030539 -24.03504,17.030539 0,0 -22.38978,-6.54617 -31.37226,-7.15411 -8.98248,-0.60796 -21.75404,1.94231 -21.75404,1.94231 0,0 -11.31876,-11.858089 -15.15013,-19.811703 -3.831367,-7.953616 -6.79814,-27.192553 -6.79814,-27.192553 0,0 -22.277035,30.528607 -26.998309,44.479246 -4.721274,13.95062 -3.884668,36.12723 -3.884668,36.12723 0,0 -16.840565,21.36908 -23.502114,34.57338 -6.661547,13.20431 -15.538606,44.28501 -15.538606,44.28501 0,0 5.30177,-9.81034 7.672195,-13.49916 2.370423,-3.68882 6.312545,-8.74046 6.312545,-8.74046 0,0 -8.87062,24.51038 -11.548617,38.05023 -2.677997,13.53985 -4.120293,42.85105 -4.120293,42.85105 0,0 2.285749,-8.36721 3.364911,-12.08621 1.079163,-3.719 3.09022,-10.23205 3.09022,-10.23205 0,0 -0.816075,45.0987 7.077231,70.48446 7.893306,25.38577 23.974488,54.77239 42.731144,77.693 18.756654,22.92059 42.945611,43.20931 67.981361,57.49281 25.03575,14.28349 52.29576,23.09227 79.24685,27.58102 26.9511,4.48873 53.77609,5.4181 80.02378,-0.38847 26.24771,-5.80658 73.85125,-33.92133 73.85125,-33.92133 0,0 -21.40258,7.30876 -30.49017,9.06464 -9.0876,1.75589 -23.62301,2.19749 -23.62301,2.19749 0,0 51.73307,-15.49515 72.24247,-27.19393 20.5094,-11.69878 40.06824,-27.14264 50.26759,-40.37888 10.19936,-13.23623 14.55836,-32.68767 14.55836,-32.68767 0,0 -9.70671,15.16483 -16.20647,20.87617 -6.49977,5.71132 -21.97491,12.91024 -21.97491,12.91024 0,0 40.4984,-46.49929 51.64101,-71.6931 11.14261,-25.19381 14.99508,-57.21848 15.9318,-75.26401 0.9367,-18.04553 -3.29624,-31.31422 -3.29624,-31.31422 0,0 -1.05587,22.89584 -3.02154,34.33576 -1.96568,11.43993 -8.78995,34.0611 -8.78995,34.0611 0,0 6.4144,-41.35784 3.29622,-64.82596 -3.11817,-23.46811 -12.26716,-48.1624 -23.89769,-73.34121 -11.63053,-25.17881 -37.81186,-59.357639 -46.69666,-76.088065 -8.88482,-16.730411 -10.07489,-22.206236 -10.07489,-22.206236 0,0 -4.38794,7.485779 -5.92409,11.362598 -1.53614,3.876809 -3.30195,11.751055 -3.30195,11.751055 0,0 -29.30281,-29.26388 -37.29262,-39.040721 -7.98981,-9.776843 -10.0656,-12.854718 -12.43089,-17.869389 -2.36529,-5.01467 -3.10772,-11.071246 -3.10772,-11.071246 0,0 -14.30143,16.168243 -20.78287,28.357935 -6.48144,12.189697 -13.72187,28.076016 -16.12131,44.8677 -2.39944,16.791689 -1.9347,36.793139 3.30197,53.996629 5.23666,17.20349 18.27014,35.27172 27.19254,46.42156 8.92242,11.14983 15.95871,10.88191 23.30789,21.75403 7.34919,10.87212 14.94424,25.0424 16.89823,43.70231 1.95398,18.6599 -2.56965,47.50474 -10.48855,64.87366 -7.91889,17.36891 -18.39208,27.60626 -31.27142,37.48685 -12.87935,9.8806 -27.93239,17.26254 -44.09078,20.39442 -16.15839,3.13189 -36.04857,0.85149 -50.11199,-2.52502 -14.0634,-3.37652 -24.49494,-8.58717 -33.40798,-14.9559 -8.91303,-6.36874 -19.87109,-21.2927 -19.87109,-21.2927 0,0 24.30392,6.54082 35.57186,6.31777 11.26794,-0.22304 20.8176,-3.19507 30.76486,-6.7298 9.94726,-3.53473 21.53095,-12.85187 28.43002,-14.35235 6.89908,-1.50048 7.04079,0.83155 10.50675,0.41202 3.46596,-0.41953 7.85619,-0.57476 10.02604,-2.8842 2.16985,-2.30943 3.27431,-3.50886 1.85413,-8.37793 -1.42018,-4.86908 -9.18849,-11.64829 -15.4511,-15.45111 -6.2626,-3.80282 -11.93291,-6.25393 -21.08217,-6.66113 -9.14926,-0.4072 -22.34448,5.9612 -32.06961,7.07317 -9.72513,1.11196 -16.21887,3.51428 -25.88917,0.27469 -9.67029,-3.2396 -22.26452,-15.17268 -27.94933,-21.56287 -5.68481,-6.39019 -7.33404,-7.41521 -8.24058,-13.73432 -0.90655,-6.31911 2.85294,-17.66416 5.63107,-21.56286 2.77812,-3.8987 3.13314,-3.64148 5.35638,-3.57093 2.22324,0.0705 5.49371,4.18898 5.49371,4.18898 l -2.26615,-4.80702 c 0,0 5.43554,2.97088 8.24058,4.87569 2.80504,1.90481 8.51528,6.59247 8.51528,6.59247 0,0 0.21086,-3.38896 -0.54936,-5.15036 -0.76023,-1.76141 -4.1203,-4.80702 -4.1203,-4.80702 0,0 3.30977,1.35954 4.46365,2.26617 1.15387,0.90661 2.47217,2.8842 2.47217,2.8842 0,0 1.3071,-7.48755 1.37343,-11.39949 0.0663,-3.91194 -2.49946,-9.9519 -1.03007,-11.94885 1.46937,-1.99694 2.19737,0.38377 2.81554,-0.61804 0.61817,-1.00181 -3.63938,1.80335 -1.03008,-4.05161 z"
       style="fill:#ff6600;fill-opacity:1;fill-rule:evenodd;stroke:none;stroke-width:1px;stroke-linecap:butt;stroke-linejoin:miter;stroke-opacity:1" />
  </g>
</svg>
