<?xml version="1.0" encoding="UTF-8" standalone="no"?>
<!-- Generator: flash2svg, http://dissentgraphics.com/tools/flash2svg -->

<svg
   xmlns:dc="http://purl.org/dc/elements/1.1/"
   xmlns:cc="http://creativecommons.org/ns#"
   xmlns:rdf="http://www.w3.org/1999/02/22-rdf-syntax-ns#"
   xmlns:svg="http://www.w3.org/2000/svg"
   xmlns="http://www.w3.org/2000/svg"
   xmlns:sodipodi="http://sodipodi.sourceforge.net/DTD/sodipodi-0.dtd"
   xmlns:inkscape="http://www.inkscape.org/namespaces/inkscape"
   id="Mplayer"
   image-rendering="optimizeSpeed"
   version="1.1"
   x="0px"
   y="0px"
   width="500"
   height="500"
   viewBox="0 0 500 500"
   enable-background="new 0 0 1024 1024"
   inkscape:version="0.91 r13725"
   sodipodi:docname="mscore.svg">
  <metadata
     id="metadata26">
    <rdf:RDF>
      <cc:Work
         rdf:about="">
        <dc:format>image/svg+xml</dc:format>
        <dc:type
           rdf:resource="http://purl.org/dc/dcmitype/StillImage" />
      </cc:Work>
    </rdf:RDF>
  </metadata>
  <sodipodi:namedview
     pagecolor="#ffffff"
     bordercolor="#666666"
     borderopacity="1"
     objecttolerance="10"
     gridtolerance="10"
     guidetolerance="10"
     inkscape:pageopacity="0"
     inkscape:pageshadow="2"
     inkscape:window-width="1366"
     inkscape:window-height="715"
     id="namedview24"
     showgrid="false"
     inkscape:zoom="0.32593203"
     inkscape:cx="-526.99466"
     inkscape:cy="501.69353"
     inkscape:window-x="0"
     inkscape:window-y="24"
     inkscape:window-maximized="1"
     inkscape:current-layer="Mplayer" />
  <defs
     transform="matrix(1 0 0 1 0 0) "
     id="defs3" />
  <g
     id="g4151">
    <rect
       transform="matrix(0.70516114,-0.70904708,0.70904708,0.70516114,0,0)"
       ry="0"
       y="290.34061"
       x="-267.04831"
       height="127.93066"
       width="530.78552"
       id="rect4197"
       style="fill:#00bbf2;fill-opacity:1;stroke:none;stroke-width:3;stroke-miterlimit:4;stroke-dasharray:none;stroke-opacity:1" />
    <g
       transform="matrix(2.2218581,-2.2341021,2.2341021,2.2218581,-765.53973,49.318431)"
       id="flowRoot4151"
       style="font-style:normal;font-weight:normal;font-size:40px;line-height:125%;font-family:sans-serif;letter-spacing:0px;word-spacing:0px;fill:#004455;fill-opacity:1;stroke:none;stroke-width:1px;stroke-linecap:butt;stroke-linejoin:miter;stroke-opacity:1">
      <path
         inkscape:connector-curvature="0"
         id="path4195"
         style="font-style:normal;font-variant:normal;font-weight:bold;font-stretch:normal;font-family:sans-serif;-inkscape-font-specification:'sans-serif Bold';fill:#004455;fill-opacity:1"
         d="m 105.28125,258.54379 9.57031,0 6.64063,15.60547 6.67968,-15.60547 9.55079,0 0,29.16016 -7.10938,0 0,-21.32812 -6.71875,15.72265 -4.76562,0 -6.71875,-15.72265 0,21.32812 -7.12891,0 0,-29.16016 z" />
    </g>
    <g
       id="flowRoot4151-3"
       style="font-style:normal;font-weight:normal;font-size:40px;line-height:125%;font-family:sans-serif;letter-spacing:0px;word-spacing:0px;fill:#ffffff;fill-opacity:1;stroke:none;stroke-width:1px;stroke-linecap:butt;stroke-linejoin:miter;stroke-opacity:1"
       transform="matrix(2.2218581,-2.2341021,2.2341021,2.2218581,-682.50013,-38.759488)">
      <path
         inkscape:connector-curvature="0"
         id="path4184"
         style="font-style:normal;font-variant:normal;font-weight:bold;font-stretch:normal;font-family:sans-serif;-inkscape-font-specification:'sans-serif Bold';fill:#ffffff;fill-opacity:1"
         d="m 122.05859,266.51254 0,5.3125 q -2.24609,-0.9375 -4.33593,-1.40625 -2.08985,-0.46875 -3.94532,-0.46875 -1.99218,0 -2.96875,0.50782 -0.95703,0.48828 -0.95703,1.52343 0,0.83985 0.72266,1.28907 0.74219,0.44922 2.63672,0.66406 l 1.23047,0.17578 q 5.37109,0.68359 7.22656,2.24609 1.85547,1.5625 1.85547,4.90235 0,3.49609 -2.57813,5.2539 -2.57812,1.75782 -7.69531,1.75782 -2.16797,0 -4.49219,-0.35157 -2.30468,-0.33203 -4.74609,-1.01562 l 0,-5.3125 q 2.08984,1.01562 4.27734,1.52344 2.20703,0.50781 4.47266,0.50781 2.05078,0 3.08594,-0.56641 1.03515,-0.5664 1.03515,-1.67968 0,-0.9375 -0.72265,-1.38672 -0.70313,-0.46875 -2.83203,-0.72266 l -1.23047,-0.15625 q -4.66797,-0.58594 -6.54297,-2.16797 -1.875,-1.58203 -1.875,-4.80469 0,-3.47656 2.38281,-5.15625 2.38281,-1.67968 7.30469,-1.67968 1.93359,0 4.0625,0.29297 2.1289,0.29296 4.6289,0.91796 z" />
      <path
         inkscape:connector-curvature="0"
         id="path4186"
         style="font-style:normal;font-variant:normal;font-weight:bold;font-stretch:normal;font-family:sans-serif;-inkscape-font-specification:'sans-serif Bold';fill:#ffffff;fill-opacity:1"
         d="m 146.47266,266.51254 0,5.70313 q -1.42579,-0.97656 -2.8711,-1.44531 -1.42578,-0.46875 -2.96875,-0.46875 -2.92969,0 -4.57031,1.71875 -1.62109,1.69922 -1.62109,4.76562 0,3.06641 1.62109,4.78516 1.64062,1.69922 4.57031,1.69922 1.64063,0 3.10547,-0.48828 1.48438,-0.48829 2.73438,-1.44532 l 0,5.72266 q -1.64063,0.60547 -3.33985,0.89844 -1.67969,0.3125 -3.3789,0.3125 -5.91797,0 -9.25782,-3.02735 -3.33984,-3.04687 -3.33984,-8.45703 0,-5.41015 3.33984,-8.4375 3.33985,-3.04687 9.25782,-3.04687 1.71875,0 3.3789,0.3125 1.67969,0.29297 3.33985,0.89843 z" />
      <path
         inkscape:connector-curvature="0"
         id="path4188"
         style="font-style:normal;font-variant:normal;font-weight:bold;font-stretch:normal;font-family:sans-serif;-inkscape-font-specification:'sans-serif Bold';fill:#ffffff;fill-opacity:1"
         d="m 162.95703,270.30161 q -2.32422,0 -3.55469,1.67968 -1.21093,1.66016 -1.21093,4.80469 0,3.14453 1.21093,4.82422 1.23047,1.66016 3.55469,1.66016 2.28516,0 3.49609,-1.66016 1.21094,-1.67969 1.21094,-4.82422 0,-3.14453 -1.21094,-4.80469 -1.21093,-1.67968 -3.49609,-1.67968 z m 0,-5 q 5.64453,0 8.80859,3.04687 3.1836,3.04688 3.1836,8.4375 0,5.39063 -3.1836,8.4375 -3.16406,3.04688 -8.80859,3.04688 -5.66406,0 -8.86719,-3.04688 -3.18359,-3.04687 -3.18359,-8.4375 0,-5.39062 3.18359,-8.4375 3.20313,-3.04687 8.86719,-3.04687 z" />
      <path
         inkscape:connector-curvature="0"
         id="path4190"
         style="font-style:normal;font-variant:normal;font-weight:bold;font-stretch:normal;font-family:sans-serif;-inkscape-font-specification:'sans-serif Bold';fill:#ffffff;fill-opacity:1"
         d="m 196.29687,271.78598 q -0.91796,-0.42969 -1.83593,-0.625 -0.89844,-0.21484 -1.81641,-0.21484 -2.69531,0 -4.16016,1.73828 -1.44531,1.71875 -1.44531,4.94141 l 0,10.07812 -6.99219,0 0,-21.875 6.99219,0 0,3.59375 q 1.34766,-2.14844 3.08594,-3.125 1.75781,-0.99609 4.19922,-0.99609 0.35156,0 0.76172,0.0391 0.41015,0.0195 1.1914,0.11719 l 0.0195,6.32812 z" />
      <path
         inkscape:connector-curvature="0"
         id="path4192"
         style="font-style:normal;font-variant:normal;font-weight:bold;font-stretch:normal;font-family:sans-serif;-inkscape-font-specification:'sans-serif Bold';fill:#ffffff;fill-opacity:1"
         d="m 221.64844,276.70786 0,1.99218 -16.34766,0 q 0.25391,2.46094 1.77734,3.69141 1.52344,1.23047 4.25782,1.23047 2.20703,0 4.51172,-0.64453 2.32421,-0.66406 4.76562,-1.99219 l 0,5.39063 q -2.48047,0.9375 -4.96094,1.40625 -2.48047,0.48828 -4.96093,0.48828 -5.9375,0 -9.23829,-3.00782 -3.28125,-3.02734 -3.28125,-8.47656 0,-5.35156 3.22266,-8.41797 3.24219,-3.0664 8.90625,-3.0664 5.15625,0 8.24219,3.10547 3.10547,3.10546 3.10547,8.30078 z m -7.1875,-2.32422 q 0,-1.99219 -1.17188,-3.20313 -1.15234,-1.23047 -3.02734,-1.23047 -2.03125,0 -3.30078,1.15235 -1.26953,1.13281 -1.58203,3.28125 l 9.08203,0 z" />
    </g>
  </g>
</svg>
