<?xml version="1.0" encoding="UTF-8" standalone="no"?>
<!-- Created with Inkscape (http://www.inkscape.org/) -->

<svg
   xmlns:dc="http://purl.org/dc/elements/1.1/"
   xmlns:cc="http://creativecommons.org/ns#"
   xmlns:rdf="http://www.w3.org/1999/02/22-rdf-syntax-ns#"
   xmlns:svg="http://www.w3.org/2000/svg"
   xmlns="http://www.w3.org/2000/svg"
   xmlns:sodipodi="http://sodipodi.sourceforge.net/DTD/sodipodi-0.dtd"
   xmlns:inkscape="http://www.inkscape.org/namespaces/inkscape"
   id="svg2987"
   version="1.1"
   inkscape:version="0.91 r13725"
   width="512"
   height="512"
   sodipodi:docname="MusicBrainz.svg"
   viewBox="0 0 512 512">
  <metadata
     id="metadata2993">
    <rdf:RDF>
      <cc:Work
         rdf:about="">
        <dc:format>image/svg+xml</dc:format>
        <dc:type
           rdf:resource="http://purl.org/dc/dcmitype/StillImage" />
        <dc:title />
      </cc:Work>
    </rdf:RDF>
  </metadata>
  <defs
     id="defs2991" />
  <sodipodi:namedview
     pagecolor="#ffffff"
     bordercolor="#666666"
     borderopacity="1"
     objecttolerance="10"
     gridtolerance="10"
     guidetolerance="10"
     inkscape:pageopacity="0"
     inkscape:pageshadow="2"
     inkscape:window-width="1366"
     inkscape:window-height="715"
     id="namedview2989"
     showgrid="false"
     inkscape:zoom="0.71953639"
     inkscape:cx="21.806719"
     inkscape:cy="200.0329"
     inkscape:window-x="0"
     inkscape:window-y="24"
     inkscape:window-maximized="1"
     inkscape:current-layer="svg2987"
     inkscape:document-units="px" />
  <g
     id="g4145">
    <polygon
       style="fill:#892ca0;fill-opacity:1"
       transform="matrix(16.382261,0,0,16.382261,53.464672,27.04291)"
       id="polygon8"
       points="0,7 0,21 12,28 12,0 12,0 "
       class="a" />
    <polygon
       style="fill:#ff6600;fill-opacity:1"
       transform="matrix(16.382261,0,0,16.382261,53.464672,27.04291)"
       id="polygon10"
       points="25,7 25,21 13,28 13,0 13,0 "
       class="b" />
    <g
       id="flowRoot4147"
       style="font-style:normal;font-weight:normal;font-size:40px;line-height:125%;font-family:sans-serif;letter-spacing:0px;word-spacing:0px;fill:#ffffff;fill-opacity:1;stroke:none;stroke-width:1px;stroke-linecap:butt;stroke-linejoin:miter;stroke-opacity:1"
       transform="translate(-18.226562,-6.9793021)">
      <path
         id="path4183"
         style="font-style:normal;font-variant:normal;font-weight:bold;font-stretch:normal;font-size:180px;font-family:sans-serif;-inkscape-font-specification:'sans-serif Bold';fill:#ffffff"
         d="m 93.226562,202.7586 43.066408,0 29.88281,70.22461 30.05859,-70.22461 42.97852,0 0,131.2207 -31.99219,0 0,-95.97656 -30.23437,70.75195 -21.44531,0 -30.23438,-70.75195 0,95.97656 -32.080078,0 0,-131.2207 z"
         inkscape:connector-curvature="0" />
    </g>
    <g
       id="flowRoot4147-3"
       style="font-style:normal;font-weight:normal;font-size:40px;line-height:125%;font-family:sans-serif;letter-spacing:0px;word-spacing:0px;fill:#ffffff;fill-opacity:1;stroke:none;stroke-width:1px;stroke-linecap:butt;stroke-linejoin:miter;stroke-opacity:1"
       transform="translate(217.29583,-6.9793021)">
      <path
         id="path4180"
         style="font-style:normal;font-variant:normal;font-weight:bold;font-stretch:normal;font-size:180px;font-family:sans-serif;-inkscape-font-specification:'sans-serif Bold';fill:#ffffff"
         d="m 145.78516,253.55938 q 7.99804,0 12.1289,-3.51562 4.13086,-3.51563 4.13086,-10.3711 0,-6.76758 -4.13086,-10.2832 -4.13086,-3.60352 -12.1289,-3.60352 l -18.72071,0 0,27.77344 18.72071,0 z m 1.14257,57.39258 q 10.19532,0 15.29297,-4.30664 5.18555,-4.30664 5.18555,-13.00781 0,-8.5254 -5.09766,-12.74415 -5.09765,-4.30664 -15.38086,-4.30664 l -19.86328,0 0,34.36524 19.86328,0 z m 31.46485,-47.19727 q 10.89844,3.16407 16.875,11.68946 5.97656,8.52539 5.97656,20.91796 0,18.98438 -12.83203,28.30079 -12.83203,9.3164 -39.02344,9.3164 l -56.162108,0 0,-131.2207 50.800778,0 q 27.33399,0 39.55078,8.26172 12.30469,8.26172 12.30469,26.45508 0,9.58007 -4.48242,16.34765 -4.48242,6.67969 -13.00781,9.93164 z"
         inkscape:connector-curvature="0" />
    </g>
  </g>
</svg>
