<?xml version="1.0" encoding="UTF-8" standalone="no"?>
<!-- Created with Inkscape (http://www.inkscape.org/) -->

<svg
   xmlns:dc="http://purl.org/dc/elements/1.1/"
   xmlns:cc="http://creativecommons.org/ns#"
   xmlns:rdf="http://www.w3.org/1999/02/22-rdf-syntax-ns#"
   xmlns:svg="http://www.w3.org/2000/svg"
   xmlns="http://www.w3.org/2000/svg"
   xmlns:sodipodi="http://sodipodi.sourceforge.net/DTD/sodipodi-0.dtd"
   xmlns:inkscape="http://www.inkscape.org/namespaces/inkscape"
   version="1.1"
   width="100%"
   height="100%"
   viewBox="0 0 512 512"
   id="svg2"
   inkscape:version="0.91 r13725"
   sodipodi:docname="nvclock.svg">
  <sodipodi:namedview
     pagecolor="#ffffff"
     bordercolor="#666666"
     borderopacity="1"
     objecttolerance="10"
     gridtolerance="10"
     guidetolerance="10"
     inkscape:pageopacity="0"
     inkscape:pageshadow="2"
     inkscape:window-width="1366"
     inkscape:window-height="715"
     id="namedview44"
     showgrid="false"
     inkscape:zoom="0.32593203"
     inkscape:cx="72.055537"
     inkscape:cy="150.78702"
     inkscape:window-x="0"
     inkscape:window-y="24"
     inkscape:window-maximized="1"
     inkscape:current-layer="svg2" />
  <metadata
     id="metadata86">
    <rdf:RDF>
      <cc:Work
         rdf:about="">
        <dc:format>image/svg+xml</dc:format>
        <dc:type
           rdf:resource="http://purl.org/dc/dcmitype/StillImage" />
      </cc:Work>
    </rdf:RDF>
  </metadata>
  <defs
     id="defs84" />
  <text
     x="-1160.48"
     y="549.52002"
     id="text16"
     style="font-size:208.33000183px;line-height:125%;letter-spacing:0;word-spacing:0;font-family:Gentium Book Basic">
    <tspan
       x="-1160.48"
       y="549.52002"
       id="tspan18" />
  </text>
  <text
     x="28.534"
     y="1642.24"
     transform="scale(4.0128,0.2492)"
     id="text20"
     style="font-size:75.69999695px;text-anchor:middle;font-family:Arial" />
  <text
     x="729.64001"
     y="231.36"
     id="text34"
     style="font-size:129.22999573px;line-height:125%;letter-spacing:0;word-spacing:0;font-family:Gentium Book Basic">
    <tspan
       x="729.64001"
       y="231.36"
       id="tspan36" />
  </text>
  <text
     x="378.91"
     y="579.25"
     transform="scale(4.0128,0.2492)"
     id="text38"
     style="font-size:46.95399857px;text-anchor:middle;font-family:Arial" />
  <text
     x="1310.91"
     y="151.36"
     id="text40"
     style="font-size:129.22999573px;line-height:125%;letter-spacing:0;word-spacing:0;font-family:Gentium Book Basic">
    <tspan
       x="1310.91"
       y="151.36"
       id="tspan42" />
  </text>
  <text
     x="523.76001"
     y="258.22"
     transform="scale(4.0128,0.2492)"
     id="text44"
     style="font-size:46.95399857px;text-anchor:middle;font-family:Arial" />
  <text
     x="239.33"
     y="-29.900999"
     id="text46"
     style="font-size:129.22999573px;line-height:125%;letter-spacing:0;word-spacing:0;font-family:Gentium Book Basic">
    <tspan
       x="239.33"
       y="-29.900999"
       id="tspan48" />
  </text>
  <text
     x="256.72"
     y="-469.14001"
     transform="scale(4.0128,0.2492)"
     id="text50"
     style="font-size:46.95399857px;text-anchor:middle;font-family:Arial" />
  <text
     x="1337.38"
     y="-246.37"
     id="text52"
     style="font-size:129.22999573px;line-height:125%;letter-spacing:0;word-spacing:0;font-family:Gentium Book Basic">
    <tspan
       x="1337.38"
       y="-246.37"
       id="tspan54" />
  </text>
  <text
     x="530.35999"
     y="-1337.8101"
     transform="scale(4.0128,0.2492)"
     id="text56"
     style="font-size:46.95399857px;text-anchor:middle;font-family:Arial" />
  <text
     x="1918.65"
     y="-326.38"
     id="text58"
     style="font-size:129.22999573px;line-height:125%;letter-spacing:0;word-spacing:0;font-family:Gentium Book Basic">
    <tspan
       x="1918.65"
       y="-326.38"
       id="tspan60" />
  </text>
  <text
     x="675.21002"
     y="-1658.85"
     transform="scale(4.0128,0.2492)"
     id="text62"
     style="font-size:46.95399857px;text-anchor:middle;font-family:Arial" />
  <text
     x="1529.53"
     y="-798.78003"
     id="text64"
     style="font-size:129.22999573px;line-height:125%;letter-spacing:0;word-spacing:0;font-family:Gentium Book Basic">
    <tspan
       x="1529.53"
       y="-798.78003"
       id="tspan66" />
  </text>
  <text
     x="578.23999"
     y="-3554.51"
     transform="scale(4.0128,0.2492)"
     id="text68"
     style="font-size:46.95399857px;text-anchor:middle;font-family:Arial" />
  <text
     x="2110.79"
     y="-878.78003"
     id="text70"
     style="font-size:129.22999573px;line-height:125%;letter-spacing:0;word-spacing:0;font-family:Gentium Book Basic">
    <tspan
       x="2110.79"
       y="-878.78003"
       id="tspan72" />
  </text>
  <text
     x="723.09003"
     y="-3875.54"
     transform="scale(4.0128,0.2492)"
     id="text74"
     style="font-size:46.95399857px;text-anchor:middle;font-family:Arial" />
  <text
     x="277.98999"
     y="535.94"
     id="text76"
     style="font-size:208.33000183px;line-height:125%;letter-spacing:0;word-spacing:0;font-family:Gentium Book Basic">
    <tspan
       x="277.98999"
       y="535.94"
       id="tspan78" />
  </text>
  <g
     id="g4162">
    <path
       d="m 471.95,253.05 c 0,120.9 -98.01,218.9 -218.9,218.9 -120.9,0 -218.9,-98.01 -218.9,-218.9 0,-120.9 98.01,-218.9 218.9,-218.9 120.9,0 218.9,98.01 218.9,218.9"
       inkscape:connector-curvature="0"
       id="path6"
       style="fill:#ffffff;fill-rule:evenodd" />
    <path
       style="fill:#45d03f;fill-rule:evenodd;fill-opacity:1"
       id="path10"
       inkscape:connector-curvature="0"
       d="m 255.99715,20.142415 c -86.24837,0 -161.6473,46.331847 -202.780848,115.419225 -20.990374,35.25598 -33.076655,76.41783 -33.076655,120.43827 0,130.25938 105.598123,235.8575 235.857503,235.8575 0.13868,0 0.27453,0 0.41322,0 V 20.142415 c -0.13774,0 -0.27548,0 -0.41322,0 m 25.59525,1.385898 c 0.88494,0.09529 1.77176,0.18963 2.65387,0.295294 -0.87928,-0.104721 -1.77176,-0.200007 -2.65387,-0.295294 m 18.63275,2.741608 c 1.88686,0.358503 3.75768,0.7755 5.63133,1.179288 -1.87648,-0.403788 -3.73881,-0.819841 -5.63133,-1.179288 m 8.54747,1.828367 c 0.7755,0.177365 1.55666,0.345296 2.32933,0.531151 -0.77078,-0.184912 -1.55572,-0.353786 -2.32933,-0.531151 m 43.42608,14.505237 c 0.73116,0.32737 1.45477,0.667948 2.18216,1.002866 -0.72644,-0.333974 -1.45194,-0.675496 -2.18216,-1.002866 m 6.45684,3.036901 c 1.51609,0.734932 3.04256,1.474581 4.54073,2.240646 -1.49911,-0.767009 -3.02275,-1.504771 -4.54073,-2.240646 m 64.23815,378.994704 c -2.66236,2.66707 -5.37944,5.27471 -8.16633,7.81254 2.785,-2.53594 5.50585,-5.14735 8.16633,-7.81254 m -85.53137,54.80384 c -1.80289,0.66324 -3.60107,1.29628 -5.42472,1.91611 1.81705,-0.61795 3.62749,-1.2557 5.42472,-1.91611 m -5.42472,1.91611 c -1.4425,0.49058 -2.90859,0.95286 -4.36336,1.41515 1.45854,-0.46417 2.91708,-0.92362 4.36336,-1.41515 m -5.80775,1.88686 c -3.5907,1.11702 -7.21724,2.14819 -10.8787,3.09539 3.65768,-0.94343 7.29272,-1.98026 10.8787,-3.09539 m -39.74671,8.66824 c -1.96422,0.25283 -3.91712,0.4736 -5.89644,0.67832 1.97271,-0.20378 3.93882,-0.42643 5.89644,-0.67832 m -5.89644,0.67832 c -1.66609,0.17171 -3.33597,0.33492 -5.01244,0.47172 1.67836,-0.13774 3.34351,-0.29907 5.01244,-0.47172" />
    <path
       style="fill:#394050;fill-rule:evenodd"
       id="path12"
       inkscape:connector-curvature="0"
       d="M 256.41226,20.142415 V 491.85741 c 130.07069,-0.22359 235.44239,-105.73963 235.44239,-235.8575 0,-44.01383 -12.08912,-85.17286 -33.07666,-120.43827 C 417.71331,66.578039 342.49081,20.283929 256.41226,20.142415" />
    <path
       style="fill:#ffffff;fill-rule:evenodd"
       id="path80"
       inkscape:connector-curvature="0"
       d="m 256.59,133.03 v 2.938 c 0,-0.977 0.078,-1.923 0.156,-2.875 -0.045,-0.015 -0.112,-0.048 -0.156,-0.063 m 10.25,27.16 c -1.274,0.008 -2.556,0.019 -3.844,0.063 -2.14,0.073 -4.278,0.273 -6.406,0.438 -0.017,0.002 -0.014,-0.001 -0.031,0 -72.49,5.838 -135.19,67.25 -135.19,67.25 0,0 35.495,102.74 135.22,112.16 4.787,0.462 9.742,0.875 14.813,0.875 52.607,0 145.4,-26.947 185.22,-60.28 -5.843,-5.923 -34.31,-19.44 -41.25,-25 -41.875,36.15 -85.17,66.69 -144.97,66.69 -4.791,0 -9.384,-0.313 -13.813,-0.875 -73.18,-9.208 -98.19,-89.91 -98.19,-89.91 0,0 32.732,-48.34 98.19,-53.34 2.106,-0.147 4.239,-0.213 6.406,-0.281 0.926,-0.029 1.834,-0.06 2.75,-0.063 57.716,-0.18 95.47,50.906 95.47,50.906 0,0 -41.998,58.41 -87.03,58.41 -6.481,0 -12.364,-1.179 -17.594,-2.938 -31.18,-10.477 -41.25,-46.75 -41.25,-46.75 0,0 18.1,-21.653 41.25,-18.875 23.07,2.788 27.846,13.03 41.719,36.16 l 30.781,-26.16 c 0,0 -22.471,-29.469 -60.44,-29.469 -4.13,0 -8.186,0.304 -12.06,0.719 -44.11,4.769 -70.59,34.13 -70.59,34.13 0,0 15.284,57.55 70.59,67.41 5.179,0.916 10.673,1.469 16.563,1.469 64.26,0 125.94,-74.969 125.94,-74.969 0,0 -52,-68.27 -132.25,-67.75" />
  </g>
</svg>
