<?xml version="1.0" encoding="UTF-8" standalone="no"?>
<!-- Created with Inkscape (http://www.inkscape.org/) -->

<svg
   xmlns:dc="http://purl.org/dc/elements/1.1/"
   xmlns:cc="http://creativecommons.org/ns#"
   xmlns:rdf="http://www.w3.org/1999/02/22-rdf-syntax-ns#"
   xmlns:svg="http://www.w3.org/2000/svg"
   xmlns="http://www.w3.org/2000/svg"
   xmlns:sodipodi="http://sodipodi.sourceforge.net/DTD/sodipodi-0.dtd"
   xmlns:inkscape="http://www.inkscape.org/namespaces/inkscape"
   id="svg2"
   version="1.1"
   inkscape:version="0.91 r13725"
   width="512"
   height="512"
   sodipodi:docname="ooo-printeradmin.svg">
  <metadata
     id="metadata8">
    <rdf:RDF>
      <cc:Work
         rdf:about="">
        <dc:format>image/svg+xml</dc:format>
        <dc:type
           rdf:resource="http://purl.org/dc/dcmitype/StillImage" />
        <dc:title />
      </cc:Work>
    </rdf:RDF>
  </metadata>
  <defs
     id="defs6" />
  <sodipodi:namedview
     pagecolor="#ffffff"
     bordercolor="#666666"
     borderopacity="1"
     objecttolerance="10"
     gridtolerance="10"
     guidetolerance="10"
     inkscape:pageopacity="0"
     inkscape:pageshadow="2"
     inkscape:window-width="1366"
     inkscape:window-height="715"
     id="namedview4"
     showgrid="false"
     inkscape:zoom="0.46093753"
     inkscape:cx="-31.466977"
     inkscape:cy="244.48625"
     inkscape:window-x="0"
     inkscape:window-y="24"
     inkscape:window-maximized="1"
     inkscape:current-layer="svg2" />
  <g
     id="g4187">
    <g
       id="g4144"
       transform="translate(15.907202,-543.48239)">
      <rect
         style="fill:#b3b3b3;fill-opacity:1;stroke:none"
         id="rect2997-36"
         width="401.3519"
         height="96.2145"
         x="50.687302"
         y="812.25421" />
      <rect
         style="fill:#394050;fill-opacity:1;stroke:none"
         id="rect2997-3-6-75"
         width="313.3844"
         height="125.07886"
         x="92.609268"
         y="652.12567" />
      <path
         style="fill:#e6e6e6;stroke:none"
         d="m 117.37236,699.82323 0,-71.92157 61.23053,-49.5676 201.18603,-0.97191 0.97194,123.43298 z"
         id="path3841-3"
         inkscape:connector-curvature="0"
         sodipodi:nodetypes="cccccc" />
      <rect
         style="fill:#394050;fill-opacity:1;stroke:none"
         id="rect2997-3-5"
         width="401.3519"
         height="125.07886"
         x="50"
         y="691.29865" />
      <rect
         style="fill:#e6e6e6;fill-opacity:1;stroke:none"
         id="rect2997-3-6-5-6"
         width="313.3844"
         height="153.94321"
         x="99.481766"
         y="873.41895" />
      <rect
         style="fill:#394050;fill-opacity:1;stroke:none"
         id="rect2997-3-6-7-2"
         width="313.3844"
         height="31.613338"
         x="99.481766"
         y="844.55475" />
      <path
         sodipodi:type="arc"
         style="fill:#45d03f;fill-opacity:1;stroke:none"
         id="path3053-9"
         sodipodi:cx="704.07635"
         sodipodi:cy="228.90475"
         sodipodi:rx="8.0812206"
         sodipodi:ry="8.3337584"
         d="m 712.15758,228.90475 a 8.0812206,8.3337584 0 0 1 -8.07174,8.33376 8.0812206,8.3337584 0 0 1 -8.09068,-8.31419 8.0812206,8.3337584 0 0 1 8.05274,-8.35327 8.0812206,8.3337584 0 0 1 8.10959,8.29458"
         transform="matrix(1.9379362,0,0,1.9379362,-953.79631,285.83818)"
         sodipodi:start="0"
         sodipodi:end="6.2784904"
         sodipodi:open="true" />
      <path
         style="fill:#cccccc;stroke:none"
         d="m 117.00789,628.26612 61.595,0 0.12132,-50.17503 z"
         id="path3843-1"
         inkscape:connector-curvature="0"
         sodipodi:nodetypes="cccc" />
      <rect
         style="fill:#b3b3b3;fill-opacity:1;stroke:none"
         id="rect2997-3-6-7-3-2"
         width="274.84592"
         height="15.090812"
         x="119.10197"
         y="892.97791" />
      <rect
         style="fill:#b3b3b3;fill-opacity:1;stroke:none"
         id="rect2997-3-6-7-3-5-7"
         width="274.84592"
         height="15.090812"
         x="116.98921"
         y="967.32928" />
      <rect
         style="fill:#b3b3b3;fill-opacity:1;stroke:none"
         id="rect2997-3-6-7-3-6-0"
         width="274.84592"
         height="15.090812"
         x="116.98912"
         y="928.45276" />
    </g>
    <path
       sodipodi:nodetypes="czczczczc"
       inkscape:connector-curvature="0"
       id="path4170"
       d="m 330.16333,273.8066 c 0,0 -32.67777,-22.61971 -78.00681,-20.6718 -45.32905,1.94792 -102.969,39.39345 -102.969,39.39345 0,0 35.97276,-59.16329 84.24735,-67.86594 48.27459,-8.70264 81.12708,-0.78007 81.12708,-0.78007 0,0 13.95096,-21.51042 45.24395,-35.8831 31.29302,-14.37268 109.20953,-12.48111 109.20953,-12.48111 0,0 -86.64999,26.81722 -108.42946,46.80409 -21.77947,19.98688 -30.42264,51.48448 -30.42264,51.48448 z"
       style="fill:#e6e6e6;fill-rule:evenodd;stroke:none;stroke-width:1px;stroke-linecap:butt;stroke-linejoin:miter;stroke-opacity:1" />
    <path
       sodipodi:nodetypes="czczczczc"
       inkscape:connector-curvature="0"
       id="path4170-6"
       d="m 184.18206,223.44206 c 0,0 -21.7737,-15.07189 -51.97712,-13.77396 -30.2035,1.29793 -68.609878,26.24848 -68.609878,26.24848 0,0 23.96922,-39.42139 56.135318,-45.2201 32.16614,-5.79876 54.05626,-0.51977 54.05626,-0.51977 0,0 9.29572,-14.33278 30.14675,-23.90951 20.85104,-9.57669 72.76802,-8.31635 72.76802,-8.31635 0,0 -57.73624,17.86876 -72.24825,31.18629 -14.51197,13.31757 -20.2711,34.30492 -20.2711,34.30492 z"
       style="fill:#e6e6e6;fill-rule:evenodd;stroke:none;stroke-width:1px;stroke-linecap:butt;stroke-linejoin:miter;stroke-opacity:1" />
  </g>
</svg>
