<?xml version="1.0" encoding="UTF-8" standalone="no"?>
<!-- Created with Inkscape (http://www.inkscape.org/) -->

<svg
   xmlns:dc="http://purl.org/dc/elements/1.1/"
   xmlns:cc="http://creativecommons.org/ns#"
   xmlns:rdf="http://www.w3.org/1999/02/22-rdf-syntax-ns#"
   xmlns:svg="http://www.w3.org/2000/svg"
   xmlns="http://www.w3.org/2000/svg"
   xmlns:sodipodi="http://sodipodi.sourceforge.net/DTD/sodipodi-0.dtd"
   xmlns:inkscape="http://www.inkscape.org/namespaces/inkscape"
   id="svg2"
   version="1.1"
   inkscape:version="0.91 r13725"
   width="512"
   height="512"
   sodipodi:docname="opera-widget-manager.svg">
  <metadata
     id="metadata8">
    <rdf:RDF>
      <cc:Work
         rdf:about="">
        <dc:format>image/svg+xml</dc:format>
        <dc:type
           rdf:resource="http://purl.org/dc/dcmitype/StillImage" />
        <dc:title />
      </cc:Work>
    </rdf:RDF>
  </metadata>
  <defs
     id="defs6" />
  <sodipodi:namedview
     pagecolor="#ffffff"
     bordercolor="#666666"
     borderopacity="1"
     objecttolerance="10"
     gridtolerance="10"
     guidetolerance="10"
     inkscape:pageopacity="0"
     inkscape:pageshadow="2"
     inkscape:window-width="1020"
     inkscape:window-height="678"
     id="namedview4"
     showgrid="false"
     inkscape:zoom="0.23046875"
     inkscape:cx="-6.5581278"
     inkscape:cy="-163.77974"
     inkscape:window-x="171"
     inkscape:window-y="30"
     inkscape:window-maximized="0"
     inkscape:current-layer="svg2" />
  <g
     id="g4153">
    <g
       id="g4134"
       transform="translate(1.722444,-1.8026907)">
      <path
         inkscape:connector-curvature="0"
         id="path2986-3"
         d="M 238,486.38354 C 192.8036,482.24213 152.23387,466.7204 116.08977,439.74142 103.7773,430.55105 81.448954,408.2227 72.258581,395.91023 53.10176,370.24558 39.888637,342.86271 32.425323,313.35981 26.946052,291.69995 25.57414,280.21396 25.57414,256 c 0,-24.21396 1.371912,-35.69995 6.851183,-57.35981 C 42.903902,157.21778 65.567942,118.58177 96.818122,88.868021 131.61404,55.782866 174.51392,34.886725 223.14019,27.337705 c 15.82095,-2.456135 49.94764,-2.448187 65.82416,0.01533 50.86575,7.892705 94.08302,29.69745 130.07732,65.62893 30.21266,30.159925 50.30684,65.233595 60.53301,105.658225 5.47927,21.65986 6.85118,33.14585 6.85118,57.35981 0,24.21396 -1.37191,35.69995 -6.85118,57.35981 -16.24852,64.23129 -59.76831,118.33521 -119.47554,148.53232 -22.64204,11.45127 -45.3351,18.7525 -70.15873,22.57273 -10.09746,1.55395 -42.75526,2.76033 -51.94041,1.91868 z m 46.39286,-38.30973 C 322.08595,438.13141 355.43158,404.33619 375.24178,356 392.48999,313.915 397.65474,261.13832 389.38262,211.5 379.27176,150.82796 346.20903,98.220591 305.23869,77.615397 288.97521,69.436009 278.06432,66.760821 261,66.76872 250.80962,66.77342 246.69344,67.247902 238.72265,69.336592 202.83206,78.741466 173.13698,106.3236 152.4183,149.5 c -15.80126,32.92879 -23.38845,68.16317 -23.40923,108.71078 -0.0238,46.38386 10.00289,87.4122 29.95262,122.56388 21.17162,37.30469 49.89036,60.81756 83.53831,68.39525 10.70956,2.41185 30.56304,1.89239 41.89286,-1.0961 z"
         style="fill:#00a2d1;fill-opacity:1" />
      <path
         inkscape:connector-curvature="0"
         id="path2984"
         d="m 242.78904,461.92345 c -17.25629,-2.10257 -33.70734,-7.44926 -50.727,-16.48654 -12.81618,-6.80527 -22.87432,-14.19855 -34.57896,-25.41741 -17.55369,-16.82516 -28.78926,-32.38761 -40.36063,-55.90369 -29.234603,-59.41246 -31.529875,-133.19424 -6.07063,-195.14104 5.67746,-13.81423 7.9042,-18.2666 14.93166,-29.85595 18.86902,-31.11782 46.12261,-56.149088 75.44092,-69.289284 20.01706,-8.971462 34.32986,-12.034915 56.34118,-12.059041 22.61682,-0.0248 38.09189,3.324411 57.76072,12.5009 18.24839,8.513786 31.49115,17.952511 46.74946,33.320505 31.78978,32.01828 51.4986,74.15258 58.39775,124.84505 1.95157,14.33944 2.22027,46.36196 0.50058,59.65933 -4.41851,34.16604 -14.91034,66.07195 -29.84244,90.75159 -27.11395,44.81369 -65.47,73.4913 -109.20506,81.64914 -10.3496,1.9305 -29.50111,2.62496 -39.33755,1.42644 z m 37.68291,-15.27238 c 28.49592,-6.98659 53.13779,-25.89468 73.10039,-56.09108 36.94241,-55.88089 46.13222,-139.6162 22.96284,-209.23196 -14.83309,-44.5682 -40.16741,-78.17706 -71.78543,-95.231607 -30.6297,-16.521451 -66.02948,-15.210124 -95.91572,3.553037 -75.63739,47.48661 -102.09305,181.65084 -55.04064,279.1269 9.83505,20.37475 19.4459,34.08193 33.88327,48.32499 18.4034,18.15573 38.11704,28.1219 62.84221,31.76973 5.81523,0.85794 22.41816,-0.3726 29.95308,-2.22001 z"
         style="fill:#00bbf2;fill-opacity:1" />
    </g>
    <ellipse
       ry="60.745762"
       rx="57.491524"
       cy="398.10168"
       cx="398.10168"
       id="path4151"
       style="opacity:1;fill:#ffffff;fill-opacity:1;stroke:none;stroke-width:5;stroke-linecap:round;stroke-miterlimit:4;stroke-dasharray:none;stroke-opacity:1" />
    <path
       style="fill:#869094"
       d="m 378.34207,507.4287 c -1.97198,-0.88022 -4.0695,-3.13268 -5.00546,-5.37523 -0.48238,-1.15576 -0.96377,-5.59847 -1.37595,-12.69819 -0.34867,-6.00625 -0.80782,-11.39942 -1.02031,-11.98481 -0.28184,-0.77648 -1.65977,-1.50903 -5.09463,-2.70848 -2.58955,-0.90427 -6.48921,-2.53957 -8.6659,-3.63398 -2.1767,-1.09441 -4.43186,-1.98985 -5.01146,-1.98985 -0.65008,0 -4.20587,2.89152 -9.28096,7.54715 -4.52493,4.15094 -8.95863,7.9223 -9.85268,8.38081 -1.84031,0.9438 -5.98084,1.09742 -8.11901,0.3012 -1.70009,-0.63308 -19.68479,-18.35605 -20.83791,-20.53467 -1.14371,-2.16082 -1.02139,-6.20288 0.26181,-8.65165 0.58412,-1.1147 4.38814,-5.63227 8.45337,-10.03903 4.37607,-4.74371 7.39133,-8.42624 7.39133,-9.02699 0,-0.55808 -0.89543,-2.79562 -1.98985,-4.97232 -1.09443,-2.17669 -2.72617,-6.06624 -3.62613,-8.64344 -0.89995,-2.5772 -2.00448,-4.87666 -2.45451,-5.10993 -0.45004,-0.23326 -5.73244,-0.69502 -11.73869,-1.02613 -6.98527,-0.38508 -11.68671,-0.87637 -13.04686,-1.36337 -2.59204,-0.92808 -5.57832,-4.1063 -6.00022,-6.38589 -0.17112,-0.92459 -0.24119,-7.77453 -0.15568,-15.22207 l 0.15545,-13.541 1.55641,-1.95081 c 2.7505,-3.44748 4.0434,-3.79377 17.18069,-4.60183 7.4357,-0.45735 11.95585,-0.94164 12.33133,-1.32117 0.32601,-0.32954 1.44025,-2.88483 2.47609,-5.67844 1.03585,-2.7936 2.6548,-6.61641 3.59767,-8.49512 0.94287,-1.87871 1.7143,-3.82875 1.7143,-4.33344 0,-0.50468 -3.11012,-4.32907 -6.91138,-8.49865 -3.80127,-4.16958 -7.43728,-8.27656 -8.08003,-9.12665 -1.80779,-2.39092 -2.41911,-5.35162 -1.70389,-8.25212 0.54004,-2.19006 1.52924,-3.3773 9.79085,-11.75093 5.05458,-5.12312 10.03816,-9.75161 11.07462,-10.28554 2.40521,-1.23906 6.22966,-1.25621 8.61781,-0.0386 1.0056,0.51267 5.41733,4.22691 9.80384,8.25383 4.38652,4.02693 8.2727,7.49045 8.63597,7.69674 0.38283,0.2174 2.7457,-0.6127 5.62088,-1.97469 2.7282,-1.29235 6.81031,-2.97322 9.07132,-3.73527 3.06571,-1.03323 4.25523,-1.69343 4.67851,-2.59664 0.31216,-0.66615 0.84753,-6.12536 1.1897,-12.13161 0.65806,-11.55107 1.05346,-13.37701 3.43534,-15.86375 2.64949,-2.76612 4.17325,-2.99304 18.98242,-2.82693 l 13.48861,0.1513 2.11017,1.39737 c 3.63056,2.40418 4.07004,3.89892 4.92507,16.75121 0.41388,6.22119 0.86551,11.79579 1.00364,12.38801 0.19439,0.83345 1.30618,1.44516 4.92054,2.7073 2.56817,0.89679 6.68093,2.64078 9.13946,3.87553 2.45854,1.23475 4.66706,2.245 4.90783,2.245 0.24076,0 4.18811,-3.44238 8.7719,-7.64972 4.58379,-4.20734 9.18218,-8.09299 10.21864,-8.63478 2.45009,-1.28069 6.09691,-1.26902 8.77639,0.0281 1.27223,0.61588 5.59427,4.54938 11.02246,10.03158 9.31778,9.41049 10.0521,10.48713 10.05933,14.74895 0.005,3.01428 -1.33678,4.99165 -9.34739,13.77381 -4.35563,4.77514 -7.91932,8.88456 -7.91932,9.13202 0,0.24745 1.13685,2.81966 2.52634,5.71599 1.38948,2.89633 3.04661,6.95258 3.68248,9.01389 0.78995,2.56079 1.47788,3.8845 2.17198,4.17932 0.55873,0.23732 6.17459,0.75368 12.47972,1.14747 12.51262,0.78146 14.52813,1.29631 16.62603,4.24699 1.98324,2.78941 2.21391,4.87995 2.04215,18.50849 l -0.16429,13.03677 -1.53081,2.17672 c -2.73348,3.8868 -3.42384,4.08594 -17.30532,4.99177 -6.78281,0.44261 -12.45135,0.92372 -12.59676,1.06913 -0.14542,0.14543 -0.98747,2.31331 -1.87122,4.81753 -0.88375,2.50422 -2.62162,6.57392 -3.86189,9.04377 -1.2403,2.46985 -2.18518,4.7953 -2.09977,5.16767 0.0854,0.37239 3.46955,4.29029 7.52028,8.70647 4.05073,4.41618 7.87923,9.04364 8.50779,10.28323 1.33513,2.63303 1.45897,5.42107 0.35784,8.05644 -0.97173,2.32569 -17.46586,19.09121 -20.1468,20.47829 -2.24164,1.15981 -6.32499,1.28442 -8.67133,0.26464 -0.89895,-0.39071 -5.40581,-4.16102 -10.01526,-8.37848 -4.60945,-4.21746 -8.74742,-7.66915 -9.19549,-7.67043 -0.44807,-0.002 -3.04459,1.03971 -5.77003,2.31331 -2.72545,1.27361 -6.76394,2.91151 -8.97442,3.63979 -3.05525,1.00659 -4.07819,1.57799 -4.26562,2.38268 -0.13562,0.58221 -0.5852,6.14861 -0.99908,12.3698 -0.91032,13.68326 -1.43331,15.16659 -6.19811,17.5794 -1.38165,0.69963 -3.66802,0.82016 -15.23784,0.80326 -10.23975,-0.0149 -13.98983,-0.18839 -15.1361,-0.70003 z m 20.06317,-60.75477 c 12.27942,-1.28693 22.5388,-6.18426 31.27325,-14.92831 6.65711,-6.66444 10.95261,-14.14233 13.53909,-23.56973 1.62149,-5.91011 1.61193,-18.96054 -0.0183,-24.9428 -4.9472,-18.15441 -17.94305,-31.52088 -35.90534,-36.92927 -4.18538,-1.2602 -5.32185,-1.37969 -13.46009,-1.41524 -7.79497,-0.034 -9.42,0.1062 -13.20613,1.13979 -18.90436,5.16077 -33.36263,20.35072 -37.31336,39.20166 -3.54953,16.93647 1.64045,34.22338 14.0054,46.64964 6.47419,6.50629 14.87451,11.28021 23.97525,13.62519 2.5951,0.66867 6.27785,1.18405 11.52298,1.61254 0.41905,0.0343 2.93329,-0.16533 5.58721,-0.44347 z m -12.59575,-21.29465 c -12.95153,-3.51255 -22.01565,-14.53502 -22.81819,-27.74821 -0.56114,-9.2385 2.4119,-17.05498 8.97241,-23.58956 11.94771,-11.9005 31.02576,-12.01203 42.8221,-0.25035 9.71611,9.68757 12.04741,23.46566 6.01683,35.55973 -5.13649,10.301 -14.59904,16.37994 -26.2051,16.83467 -3.95116,0.15481 -5.90538,-0.0245 -8.78805,-0.80628 z m 14.48985,-12.8083 c 3.57723,-1.33841 7.84411,-5.3044 9.63865,-8.95896 1.26633,-2.57886 1.41922,-3.43732 1.41931,-7.96947 10e-5,-4.82125 -0.0883,-5.24238 -1.74063,-8.28985 -3.33535,-6.15165 -8.28419,-9.26882 -15.27486,-9.62133 -5.61567,-0.28318 -8.97692,0.90632 -13.03091,4.61143 -5.13994,4.69762 -7.1851,11.22826 -5.53425,17.67215 1.42889,5.57752 4.45615,9.36468 9.54822,11.94502 4.75044,2.40724 9.64036,2.60676 14.97447,0.61101 z"
       id="path2986-6"
       inkscape:connector-curvature="0" />
  </g>
</svg>
