<?xml version="1.0" encoding="UTF-8" standalone="no"?>
<!-- Created with Inkscape (http://www.inkscape.org/) -->

<svg
   xmlns:dc="http://purl.org/dc/elements/1.1/"
   xmlns:cc="http://creativecommons.org/ns#"
   xmlns:rdf="http://www.w3.org/1999/02/22-rdf-syntax-ns#"
   xmlns:svg="http://www.w3.org/2000/svg"
   xmlns="http://www.w3.org/2000/svg"
   xmlns:sodipodi="http://sodipodi.sourceforge.net/DTD/sodipodi-0.dtd"
   xmlns:inkscape="http://www.inkscape.org/namespaces/inkscape"
   id="svg2"
   version="1.1"
   inkscape:version="0.91 r13725"
   width="512"
   height="512"
   sodipodi:docname="orca.svg"
   viewBox="0 0 512 512">
  <metadata
     id="metadata8">
    <rdf:RDF>
      <cc:Work
         rdf:about="">
        <dc:format>image/svg+xml</dc:format>
        <dc:type
           rdf:resource="http://purl.org/dc/dcmitype/StillImage" />
        <dc:title />
      </cc:Work>
    </rdf:RDF>
  </metadata>
  <defs
     id="defs6" />
  <sodipodi:namedview
     pagecolor="#ffffff"
     bordercolor="#666666"
     borderopacity="1"
     objecttolerance="10"
     gridtolerance="10"
     guidetolerance="10"
     inkscape:pageopacity="0"
     inkscape:pageshadow="2"
     inkscape:window-width="1366"
     inkscape:window-height="715"
     id="namedview4"
     showgrid="false"
     inkscape:zoom="0.65186406"
     inkscape:cx="30.485994"
     inkscape:cy="242.81835"
     inkscape:window-x="0"
     inkscape:window-y="24"
     inkscape:window-maximized="1"
     inkscape:current-layer="svg2"
     inkscape:document-units="px" />
  <g
     id="g4134">
    <path
       sodipodi:nodetypes="ccssccccccsssssssssssssssc"
       inkscape:connector-curvature="0"
       id="path2990"
       d="m 131.17651,484.11588 c 13.85012,-11.75615 31.83058,-43.1615 42.20824,-56.3976 3.96701,-1.46082 3.74221,-3.94868 -0.92521,-10.2388 -2.14212,-2.88684 -4.98474,-9.23119 -6.31696,-14.09854 -1.3322,-4.86736 -3.73796,-12.64952 -5.34615,-17.29372 3.27871,2.60979 9.65786,-1.11125 12.63986,1.80794 23.3892,22.35308 43.21711,27.62026 48.3968,27.61506 56.90245,-0.49467 118.9897,-41.32487 124.39091,-94.87721 1.99919,-21.41532 -4.61277,-53.09314 -18.46701,-69.14488 -20.68605,-29.2403 -61.24565,-39.43243 -109.30531,-18.4523 -21.90598,9.99314 -60.66534,35.32654 -78.90447,52.05581 -38.81107,35.59827 -43.211274,2.24994 -54.575338,-19.88567 -4.286343,-8.34918 -10.256039,20.31748 -10.135477,-6.64745 0.106993,-23.92774 0.983377,-32.56277 4.600125,-45.32424 12.076586,-42.61129 44.32784,-85.33334 80.209,-106.24992 20.48942,-11.944081 40.40863,-16.950617 75.2345,-18.909543 62.97853,-3.542492 98.12884,-10.991234 133.06878,-33.317255 20.73311,-13.248102 28.72378,-17.006802 35.00281,-10.348682 7.05796,7.484061 -5.99201,13.77546 -24.84732,41.084594 -20.16304,29.203176 -10.26589,39.633676 13.98291,68.916136 24.20988,29.23549 35.57542,56.22161 38.73288,91.96662 7.37809,83.52654 -28.79919,143.30993 -103.53099,171.08622 -9.03555,3.35833 -25.66919,8.22068 -36.96363,10.8052 -11.29444,2.58455 -28.85216,6.59582 -39.01716,8.91394 -38.54309,8.78977 -80.18667,25.23119 -106.73055,42.13861 -11.50207,7.32636 -13.40124,8.00599 -13.40124,4.79568 z"
       style="fill:#ebebeb;stroke-width:1.85047793;fill-opacity:1" />
    <path
       sodipodi:nodetypes="ccssccccsssccsssssssssssccscc"
       inkscape:connector-curvature="0"
       id="path2984"
       d="m 165.43259,437.42811 c 16.41356,-23.59613 12.49926,-5.40081 7.24572,-15.33228 -6.55023,-8.29088 -18.51118,-48.52454 -15.33258,-51.5748 0.72974,-0.70031 8.61497,5.835 17.52273,14.52286 18.76379,18.30066 33.74335,26.06242 57.48048,29.78398 91.72414,-0.90083 137.02762,-73.87587 137.49096,-130.67116 0.81971,-28.17657 -14.88831,-92.75826 -46.29834,-93.19969 -23.31828,3.96535 -30.68068,43.14452 -25.26617,61.25867 3.24958,9.54915 4.71184,29.20344 1.69895,32.09468 -3.81911,3.6649 -19.21673,-2.01302 -32.68483,-15.97281 -11.84009,-12.27234 -13.67465,-14.68841 -12.76544,-30.95222 0.72958,-13.0508 -3.74053,-32.09495 -13.4264,-37.76132 -41.0291,-22.83382 -124.52643,-4.99507 -126.00142,40.35791 -0.26407,16.04016 8.2721,31.39858 24.25594,40.93744 4.5671,2.7256 4.0193,2.49234 -17.2552,17.95411 -31.191484,22.66924 -48.493023,13.12582 -51.658835,-26.32891 -2.498823,-31.14244 5.822265,-68.64871 21.593681,-97.33099 21.472794,-39.05084 53.720874,-68.52581 87.878534,-80.321548 18.65699,-6.442873 26.90764,-7.750229 61.44317,-9.736027 57.44669,-3.303192 90.42885,-12.059651 125.8862,-33.421625 23.37608,-14.08338 31.4728,-17.028223 36.28379,-13.196682 2.6915,2.143556 3.31384,5.122735 2.58685,12.383365 -0.76111,7.600915 -3.85354,13.682527 -15.08603,29.668277 -7.77078,11.059142 -15.08215,23.26108 -16.24749,27.11543 -3.81511,12.61848 0.48045,23.35561 17.30248,43.24917 91.05579,124.45424 36.01314,250.83565 -113.51451,283.16361 -62.6988,13.68843 -94.74515,24.52297 -125.97919,42.59225 C 142.04051,482.81028 130.34322,487 129.65453,487 c 9.54297,-19.46591 24.80223,-34.34126 35.77806,-49.57189 z"
       style="fill:#394050;fill-opacity:1;stroke-width:1.85047793" />
  </g>
</svg>
