<?xml version="1.0" encoding="UTF-8" standalone="no"?>
<!-- Created using Karbon, part of Calligra: http://www.calligra.org/karbon -->

<svg
   xmlns:dc="http://purl.org/dc/elements/1.1/"
   xmlns:cc="http://creativecommons.org/ns#"
   xmlns:rdf="http://www.w3.org/1999/02/22-rdf-syntax-ns#"
   xmlns:svg="http://www.w3.org/2000/svg"
   xmlns="http://www.w3.org/2000/svg"
   xmlns:sodipodi="http://sodipodi.sourceforge.net/DTD/sodipodi-0.dtd"
   xmlns:inkscape="http://www.inkscape.org/namespaces/inkscape"
   width="512"
   height="512"
   id="svg2"
   version="1.1"
   inkscape:version="0.91 r13725"
   sodipodi:docname="Othman.svg"
   viewBox="0 0 512 512">
  <metadata
     id="metadata11">
    <rdf:RDF>
      <cc:Work
         rdf:about="">
        <dc:format>image/svg+xml</dc:format>
        <dc:type
           rdf:resource="http://purl.org/dc/dcmitype/StillImage" />
        <dc:title />
      </cc:Work>
    </rdf:RDF>
  </metadata>
  <sodipodi:namedview
     pagecolor="#ffffff"
     bordercolor="#666666"
     borderopacity="1"
     objecttolerance="10"
     gridtolerance="10"
     guidetolerance="10"
     inkscape:pageopacity="0"
     inkscape:pageshadow="2"
     inkscape:window-width="1366"
     inkscape:window-height="715"
     id="namedview9"
     showgrid="false"
     inkscape:showpageshadow="false"
     borderlayer="true"
     inkscape:zoom="0.43457603"
     inkscape:cx="-23.785258"
     inkscape:cy="57.845771"
     inkscape:window-x="0"
     inkscape:window-y="24"
     inkscape:window-maximized="1"
     inkscape:current-layer="svg2"
     inkscape:snap-global="false"
     inkscape:document-units="px" />
  <defs
     id="defs4" />
  <g
     id="g4137">
    <path
       inkscape:connector-curvature="0"
       id="path4146"
       d="m 98.998073,56.584547 -4.431005,61.049703 -0.984674,64.00371 0,118.16071 4.431006,149.17788 13.29307,18.70875 23.63216,6.4004 157.05527,3.44633 96.00558,-5.90804 20.67809,-20.18578 0,-377.129591 -7.38503,-25.601458 -19.69346,-14.277788 -250.59915,0 -24.12447,7.385074 z"
       style="fill:#45d03f;fill-opacity:1;fill-rule:evenodd;stroke:#000000;stroke-width:4.84130669px;stroke-linecap:butt;stroke-linejoin:miter;stroke-opacity:1" />
    <path
       sodipodi:nodetypes="sscsssssccssssssscccssssssssssssssssscssssssssssssssssscscc"
       inkscape:connector-curvature="0"
       id="path4144"
       d="M 117.11468,474.65058 C 108.67047,470.97744 99.411473,463.58084 96.539125,458.21377 89.29382,444.67583 89.30176,63.64264 96.548808,50.103636 c 10.978102,-20.515037 30.677422,-23.4784 156.073652,-23.4784 75.5908,0 123.71562,1.976753 133.81221,5.496432 28.35742,9.885463 29.24948,16.657628 29.24948,222.044972 0,205.38735 -0.89206,212.15951 -29.24948,222.04497 -24.13299,8.41279 -249.39284,7.10714 -269.31999,-1.56103 z m 277.6819,-13.15165 11.20496,-10.52655 0,-196.12728 c 0,-194.705388 -0.0765,-196.208565 -10.5265,-207.33229 C 384.97787,36.339123 384.5849,36.307849 254.75883,36.307849 c -75.66323,0 -133.89834,1.984838 -139.04474,4.739106 -4.87031,2.606511 -11.26287,11.645957 -14.20565,20.087646 -7.138171,20.476548 -7.399408,366.010709 -0.29097,385.158809 9.45173,25.46106 11.04893,25.73202 151.68612,25.73202 127.51755,0 130.9601,-0.25562 141.89323,-10.5265 z M 205.08732,426.59805 C 129.7426,390.97877 116.46299,301.09512 178.67746,247.84181 c 11.49379,-9.83826 28.12915,-20.50264 36.96744,-23.69858 18.19039,-6.57774 20.32865,-11.54409 6.8168,-15.83257 -12.57365,-3.99074 -33.81759,-32.72898 -37.38699,-50.57616 -4.33786,-21.68925 1.89954,-46.67548 15.76533,-63.154072 34.66821,-41.200777 108.33537,-17.971559 108.33537,34.161032 0,42.63293 -49.36724,65.22489 -76.51627,35.0162 -14.12112,-15.71251 -12.36102,-33.84058 4.50241,-46.37303 10.4856,-7.79257 14.56018,-8.45428 23.29003,-3.78222 13.09496,7.00822 11.79996,25.88801 -1.95579,28.51277 -7.8617,1.50013 -8.50419,0.58401 -3.67296,-5.23727 3.22054,-3.8805 4.422,-8.48894 2.66998,-10.24101 -6.18181,-6.18182 -15.81795,-3.06799 -21.11076,6.82174 -7.73035,14.44433 5.60793,33.56448 23.41469,33.56448 41.31905,0 52.4956,-55.90368 15.04804,-75.268563 -29.45814,-15.233413 -60.56823,-4.258752 -74.30955,26.214073 -12.70359,28.17162 -7.39727,49.08141 18.04273,71.09764 l 20.3985,17.65334 37.3914,-3.00621 c 20.56524,-1.6534 40.71718,-4.28247 44.78208,-5.84229 4.06486,-1.55982 7.39069,-0.76488 7.39069,1.76654 0,2.53142 -18.62562,13.20656 -42.36143,12.86863 -44.02213,-0.62675 -76.7699,16.57518 -98.67778,33.32242 -30.5501,23.35364 -44.10857,52.10718 -41.90379,88.86547 3.25133,54.20661 42.1825,92.19688 99.42858,97.0256 23.83002,2.01006 31.63857,0.3752 54.21934,-11.35185 35.91034,-18.64963 46.23966,-33.95605 46.23966,-68.51984 0,-30.05526 -9.01452,-47.11385 -32.21546,-60.96303 -16.43769,-9.81198 -53.59404,-9.86083 -72.47848,-0.0954 -25.33315,13.10029 -33.38516,49.89122 -14.61939,66.79812 14.37631,12.95224 31.71293,14.27009 44.57919,3.38867 11.70918,-9.90294 11.72497,-10.03472 2.11454,-17.67744 -9.62854,-7.65716 -9.62883,-7.69066 -0.0557,-5.99925 13.55339,2.39455 14.6437,16.04936 2.26961,28.4235 -12.55157,12.55152 -34.39773,10.19874 -51.1134,-5.50481 -33.68058,-31.64128 -0.69425,-81.78661 53.82719,-81.82723 54.67898,-0.0387 92.59217,58.68492 68.12401,105.52073 -24.96381,47.78452 -88.99314,67.19201 -140.83012,42.68604 z"
       style="fill:#394050;fill-opacity:1" />
  </g>
</svg>
