<?xml version="1.0" encoding="UTF-8" standalone="no"?>
<svg
   xmlns:dc="http://purl.org/dc/elements/1.1/"
   xmlns:cc="http://creativecommons.org/ns#"
   xmlns:rdf="http://www.w3.org/1999/02/22-rdf-syntax-ns#"
   xmlns:svg="http://www.w3.org/2000/svg"
   xmlns="http://www.w3.org/2000/svg"
   xmlns:sodipodi="http://sodipodi.sourceforge.net/DTD/sodipodi-0.dtd"
   xmlns:inkscape="http://www.inkscape.org/namespaces/inkscape"
   viewBox="0 0 128 128"
   id="svg2"
   version="1.1"
   inkscape:version="0.92.1 r15371"
   width="100%"
   height="100%"
   sodipodi:docname="elforkane.svg">
  <metadata
     id="metadata40">
    <rdf:RDF>
      <cc:Work
         rdf:about="">
        <dc:format>image/svg+xml</dc:format>
        <dc:type
           rdf:resource="http://purl.org/dc/dcmitype/StillImage" />
        <dc:title />
      </cc:Work>
    </rdf:RDF>
  </metadata>
  <sodipodi:namedview
     pagecolor="#ffffff"
     bordercolor="#666666"
     borderopacity="1"
     objecttolerance="10"
     gridtolerance="10"
     guidetolerance="10"
     inkscape:pageopacity="0"
     inkscape:pageshadow="2"
     inkscape:window-width="1366"
     inkscape:window-height="709"
     id="namedview38"
     showgrid="false"
     inkscape:zoom="2.4583334"
     inkscape:cx="141.7369"
     inkscape:cy="45.430391"
     inkscape:window-x="0"
     inkscape:window-y="0"
     inkscape:window-maximized="1"
     inkscape:current-layer="svg2" />
  <defs
     id="defs4">
    <clipPath
       id="clipPath6">
      <g
         transform="translate(0,-1004.3622)"
         id="g8">
        <path
           d="m -24,13 c 0,1.105 -0.672,2 -1.5,2 -0.828,0 -1.5,-0.895 -1.5,-2 0,-1.105 0.672,-2 1.5,-2 0.828,0 1.5,0.895 1.5,2 z"
           transform="matrix(15.333333,0,0,11.5,414.99999,878.8622)"
           id="path10"
           inkscape:connector-curvature="0"
           style="fill:#1890d0" />
      </g>
    </clipPath>
    <clipPath
       id="clipPath12">
      <g
         transform="translate(0,-1004.3622)"
         id="g14">
        <path
           d="m -24,13 c 0,1.105 -0.672,2 -1.5,2 -0.828,0 -1.5,-0.895 -1.5,-2 0,-1.105 0.672,-2 1.5,-2 0.828,0 1.5,0.895 1.5,2 z"
           transform="matrix(15.333333,0,0,11.5,414.99999,878.8622)"
           id="path16"
           inkscape:connector-curvature="0"
           style="fill:#1890d0" />
      </g>
    </clipPath>
  </defs>
  <path
     style="fill:#394050;stroke:#000000;stroke-width:1px;stroke-linecap:butt;stroke-linejoin:miter;stroke-opacity:1;fill-opacity:1"
     d="m 34.30067,94.670103 -3.451639,-1.474138 -0.359546,-9.887509 -7.226871,-3.415686 -1.905593,-5.141505 -0.07191,-5.716778 3.883095,-5.249369 -5.213414,-9.527964 2.51682,-5.680824 7.76619,-4.746005 0.791001,-10.426828 5.680823,-4.31455 8.305509,-0.287636 5.141505,-8.16169 6.651597,-1.042683 8.521236,3.703322 9.168418,-4.386459 5.501051,2.51682 4.853869,7.838099 11.577375,0.755046 2.301093,3.703322 0.575273,10.103237 9.096508,5.465097 0.21573,7.406644 -3.81119,6.975188 4.56624,9.240328 -1.25841,4.674095 -8.485287,5.716779 -0.719091,11.325693 -3.45164,3.235912 -10.894238,0.46741 -5.213414,8.665049 -5.285324,1.5101 -9.096509,-4.85387 -8.593145,4.42241 -6.507779,-1.15054 -4.925778,-9.096514 -10.354919,-0.07191 z"
     id="path848"
     inkscape:connector-curvature="0" />
  <path
     inkscape:connector-curvature="0"
     id="path630"
     style="fill:#394050;fill-opacity:1;fill-rule:nonzero;stroke:none;stroke-width:0.14158137"
     d="m 24.079776,74.666966 c -0.649827,-0.518185 -1.287053,-1.034959 -1.938264,-1.551733 -0.872206,-2.525809 1.965126,-5.491943 3.226563,-7.389138 0.443234,-0.659769 0.872205,-1.323789 1.287053,-1.994883 -0.414848,-0.671096 -0.843819,-1.336528 -1.287053,-1.994872 -1.261437,-1.897194 -4.098769,-4.861916 -3.226563,-7.387725 0.651211,-0.516774 1.288437,-1.03496 1.938264,-1.553146 -0.30449,-0.773034 -0.594717,-1.546069 -0.900453,-2.319104 0.512468,-2.620672 4.44563,-3.773136 6.480129,-4.785443 0.720722,-0.351125 1.427181,-0.710738 2.119517,-1.081692 -0.0277,-0.790024 -0.06924,-1.582874 -0.12462,-2.371487 -0.138744,-2.276623 -1.107184,-6.259314 0.900453,-8.014913 0.829696,-0.121713 1.646652,-0.244935 2.46347,-0.370954 0.124622,-0.821166 0.249242,-1.642333 0.375247,-2.463512 1.757011,-2.011874 5.736836,-1.043448 8.016284,-0.896202 0.792864,0.04957 1.571603,0.09056 2.364467,0.120328 0.382308,-0.700824 0.73623,-1.405899 1.090153,-2.116637 1.005272,-2.04303 2.152058,-5.976164 4.785427,-6.491511 0.764618,0.305818 1.529095,0.61021 2.307834,0.911779 0.523821,-0.648443 1.047643,-1.298297 1.557341,-1.948151 2.534366,-0.865074 5.493412,1.963728 7.390551,3.228045 0.665474,0.440326 1.330948,0.87215 1.996282,1.292647 0.665474,-0.420497 1.330947,-0.852321 1.996283,-1.292647 1.897278,-1.264317 4.856322,-4.093119 7.39055,-3.228045 0.509699,0.649854 1.019397,1.299708 1.543356,1.948151 0.778602,-0.301569 1.557341,-0.605961 2.32182,-0.911779 2.633511,0.515347 3.78029,4.448481 4.785562,6.491511 0.353923,0.710738 0.707844,1.415813 1.07589,2.116637 0.792868,-0.02977 1.585734,-0.07075 2.378591,-0.120328 2.279455,-0.147246 6.257892,-1.115672 8.013515,0.896202 0.127393,0.821179 0.254922,1.642346 0.368192,2.463512 0.821103,0.126005 1.642353,0.249186 2.463467,0.370954 2.010409,1.755599 1.047643,5.73829 0.906126,8.014913 -0.05681,0.788613 -0.0997,1.581463 -0.127382,2.371487 0.69372,0.370954 1.401565,0.730567 2.123662,1.081692 2.03879,1.012307 5.96061,2.164771 6.48442,4.785443 -0.31142,0.773035 -0.59458,1.54607 -0.90613,2.319104 0.65136,0.518186 1.28844,1.036372 1.93965,1.553146 0.87788,2.525809 -1.96789,5.490531 -3.22795,7.387725 -0.43894,0.658344 -0.87788,1.323776 -1.28843,1.994872 0.41055,0.671094 0.84949,1.335114 1.28843,1.994883 1.26006,1.897195 4.10583,4.863329 3.22795,7.389138 -0.65121,0.516774 -1.28829,1.033548 -1.93965,1.551733 0.31155,0.774447 0.59471,1.547483 0.90613,2.320517 -0.52381,2.619247 -4.44563,3.773136 -6.48442,4.78403 -0.722097,0.351126 -1.429942,0.710739 -2.123662,1.081678 0.02773,0.791451 0.07062,1.581459 0.127382,2.372913 0.141517,2.275207 1.104283,6.256481 -0.906126,8.013505 -0.821114,0.123229 -1.642364,0.244931 -2.463467,0.370933 -0.11355,0.819753 -0.240799,1.642353 -0.368192,2.463529 -1.755623,2.01187 -5.73406,1.043448 -8.013515,0.897611 -0.792857,-0.05099 -1.585723,-0.09056 -2.378591,-0.120321 -0.368046,0.699415 -0.721967,1.405897 -1.07589,2.115232 -1.005272,2.043017 -2.152051,5.976147 -4.785562,6.490087 -0.764479,-0.30441 -1.543218,-0.60738 -2.32182,-0.91036 -0.523959,0.64985 -1.033657,1.29829 -1.543356,1.94956 -2.534228,0.86365 -5.493272,-1.96656 -7.39055,-3.23088 -0.665336,-0.4389 -1.330809,-0.86931 -1.996283,-1.28981 -0.665334,0.4205 -1.330808,0.85091 -1.996282,1.28981 -1.897139,1.26432 -4.856185,4.09453 -7.390551,3.23088 -0.509698,-0.65127 -1.03352,-1.29971 -1.557341,-1.94956 -0.778739,0.30298 -1.543216,0.60595 -2.307834,0.91036 -2.633369,-0.51394 -3.780155,-4.44707 -4.785427,-6.490087 -0.353923,-0.709335 -0.707845,-1.415817 -1.090153,-2.115232 -0.792864,0.0298 -1.571603,0.06937 -2.364467,0.120321 -2.279448,0.145837 -6.259273,1.114259 -8.016284,-0.897611 -0.126005,-0.821176 -0.250625,-1.643776 -0.375247,-2.463529 -0.816818,-0.126002 -1.633774,-0.247756 -2.46347,-0.370933 -2.007637,-1.757024 -1.039197,-5.738298 -0.900453,-8.013505 0.05538,-0.791454 0.09692,-1.581462 0.12462,-2.372913 -0.692336,-0.370939 -1.398795,-0.730552 -2.119517,-1.081678 -2.034499,-1.010894 -5.967661,-2.164783 -6.480129,-4.78403 0.305736,-0.773034 0.595963,-1.54607 0.900453,-2.320517 z m 0.318475,12.444989 c 1.425796,0.0094 2.852978,-0.02274 4.264513,-0.09211 -0.06924,2.086916 0.06924,4.154007 0.996688,5.787855 -0.48422,-0.07363 -0.968441,-0.145837 -1.454045,-0.219456 -3.419171,-0.522431 -6.839728,-1.100088 -10.232037,-1.762696 1.121307,-3.271932 2.326111,-6.518401 3.586163,-9.742205 0.17987,-0.458728 0.361122,-0.917442 0.540853,-1.374758 0.941578,1.628194 2.671726,2.780658 4.513617,3.758984 -0.775832,1.194954 -1.509153,2.409714 -2.215752,3.644309 z m 17.114412,17.117195 c 1.245928,-0.70366 2.449348,-1.4413 3.652766,-2.2115 0.976887,1.8448 2.137935,3.56502 3.751909,4.51078 -0.453065,0.18123 -0.906129,0.36105 -1.373318,0.54227 -3.213825,1.26007 -6.456174,2.46492 -9.740756,3.58908 -0.665474,-3.39512 -1.233189,-6.81006 -1.759918,-10.23208 -0.06924,-0.485627 -0.151484,-0.974079 -0.220856,-1.461127 1.626714,0.937266 3.693891,1.074597 5.789315,0.999566 -0.07062,1.418651 -0.0997,2.840131 -0.0997,4.263011 z m 23.389195,6.26356 c 0.722107,-1.22608 1.401705,-2.472 2.052916,-3.73634 1.769888,1.10859 3.624518,2.02321 5.507534,2.02746 -0.311411,0.38652 -0.608702,0.77163 -0.920252,1.1553 -2.152059,2.70422 -4.374873,5.37018 -6.640198,7.97953 -2.279447,-2.60935 -4.488139,-5.27531 -6.65432,-7.97953 -0.297289,-0.38367 -0.608703,-0.76878 -0.90613,-1.1553 1.883017,-0.004 3.737785,-0.91887 5.507535,-2.02746 0.651349,1.26434 1.330947,2.51026 2.052915,3.73634 z m 23.389337,-6.26356 c 0,-1.42288 -0.02908,-2.84436 -0.0997,-4.263011 2.095421,0.07506 4.148337,-0.06235 5.7907,-0.999566 -0.07062,0.487048 -0.155775,0.9755 -0.226539,1.461127 -0.523822,3.42202 -1.09015,6.83696 -1.755623,10.23208 -3.284716,-1.12416 -6.526927,-2.32901 -9.755014,-3.58908 -0.453069,-0.18122 -0.906137,-0.36104 -1.373318,-0.54227 1.628229,-0.94576 2.789142,-2.66598 3.751908,-4.51078 1.217678,0.7702 2.421096,1.50784 3.667021,2.2115 z M 105.39411,87.111955 c -0.69372,-1.234584 -1.42996,-2.449343 -2.20856,-3.644301 1.84051,-0.978326 3.56776,-2.130789 4.51639,-3.758985 0.18402,0.457317 0.35392,0.916031 0.53794,1.37476 1.26019,3.223806 2.46361,6.470265 3.58201,9.742208 -3.38371,0.662607 -6.80995,1.240264 -10.22206,1.762684 -0.49557,0.07363 -0.97689,0.145838 -1.45834,0.219458 0.92025,-1.633838 1.06191,-3.700939 0.99101,-5.787846 1.41583,0.06937 2.84592,0.101878 4.26161,0.09211 z m 6.27215,-23.380743 c -1.21768,-0.717815 -2.49186,-1.40165 -3.7519,-2.051504 1.11839,-1.768352 2.02452,-3.627316 2.03879,-5.511772 0.39642,0.307231 0.76447,0.614463 1.14678,0.921694 2.70413,2.163371 5.38001,4.370621 7.98513,6.641582 -2.60512,2.272385 -5.281,4.479635 -7.98513,6.64158 -0.38231,0.307232 -0.75036,0.614463 -1.14678,0.921708 -0.0138,-1.883044 -0.9204,-3.742008 -2.03879,-5.511773 1.26004,-0.649854 2.53422,-1.333688 3.7519,-2.051515 z m -6.27215,-23.380749 c -1.41569,-0.0083 -2.84578,0.0241 -4.26147,0.09208 0.0706,-2.085497 -0.0706,-4.154003 -0.99115,-5.786436 0.48145,0.07215 0.96277,0.144409 1.45834,0.219444 3.41211,0.521025 6.83835,1.100095 10.22206,1.761275 -1.1184,3.273366 -2.32182,6.518415 -3.58201,9.742223 -0.18402,0.458715 -0.35392,0.917443 -0.53794,1.376171 -0.94863,-1.628195 -2.67588,-2.782084 -4.51639,-3.758984 0.7786,-1.194959 1.51484,-2.41113 2.20856,-3.645731 z M 88.291195,23.234693 c -1.245935,0.703662 -2.449354,1.441304 -3.667032,2.211501 -0.962766,-1.846225 -2.123669,-3.567843 -3.751908,-4.513617 0.467192,-0.179799 0.920249,-0.361025 1.373318,-0.539427 3.228087,-1.260065 6.470298,-2.466337 9.755014,-3.590496 0.665474,3.396531 1.231812,6.810068 1.755633,10.230665 0.07062,0.488457 0.155777,0.975502 0.226529,1.462547 -1.642363,-0.937271 -3.695278,-1.076029 -5.7907,-0.998154 0.07062,-1.420066 0.0997,-2.842956 0.0997,-4.263019 z M 64.901858,16.968301 c -0.721968,1.227513 -1.401566,2.474839 -2.052915,3.73917 -1.76975,-1.109994 -3.624518,-2.023201 -5.507535,-2.028863 0.297427,-0.385106 0.608841,-0.771623 0.90613,-1.155302 2.166181,-2.70421 4.374873,-5.370189 6.65432,-7.9809483 2.265325,2.6107593 4.488139,5.2767383 6.640198,7.9809483 0.31155,0.383679 0.608841,0.770196 0.920252,1.155302 -1.883016,0.0055 -3.737646,0.918869 -5.507534,2.028863 -0.651211,-1.264331 -1.330809,-2.511657 -2.052916,-3.73917 z m -23.389195,6.266392 c 0,1.420063 0.0277,2.842953 0.0997,4.263019 -2.095426,-0.07781 -4.162604,0.06093 -5.789316,0.998154 0.06924,-0.487045 0.151482,-0.97409 0.220855,-1.462547 0.526729,-3.420597 1.094446,-6.834134 1.759919,-10.230665 3.28458,1.124159 6.52693,2.330431 9.740755,3.590496 0.467189,0.178402 0.920253,0.359628 1.373318,0.539427 -1.613974,0.945774 -2.775022,2.667392 -3.751909,4.513617 -1.203419,-0.770197 -2.406837,-1.507839 -3.652765,-2.211501 z m -17.114412,17.11577 c 0.706599,1.234601 1.43992,2.450772 2.215752,3.645731 -1.841891,0.9769 -3.572039,2.130789 -4.513617,3.758985 -0.179731,-0.458728 -0.360983,-0.917456 -0.540853,-1.376171 -1.260052,-3.223809 -2.464856,-6.468858 -3.586163,-9.742224 3.392309,-0.66118 6.812866,-1.24025 10.232037,-1.761275 0.485604,-0.07505 0.969825,-0.147232 1.454045,-0.219444 -0.927316,1.632433 -1.06606,3.700939 -0.996688,5.786436 -1.411535,-0.068 -2.838717,-0.100524 -4.264513,-0.09208 z m -6.25789,23.380749 c 1.217681,0.717827 2.477734,1.401661 3.737785,2.051515 -1.107184,1.769765 -2.02176,3.628729 -2.035883,5.511773 -0.386602,-0.307245 -0.76171,-0.614476 -1.148309,-0.921708 -2.699974,-2.161945 -5.372946,-4.369195 -7.976684,-6.64158 2.603738,-2.270961 5.27671,-4.478211 7.976684,-6.641582 0.386599,-0.307231 0.761707,-0.614463 1.148309,-0.921694 0.01384,1.884456 0.928699,3.74342 2.035883,5.511772 -1.260051,0.649854 -2.520104,1.333689 -3.737785,2.051504 z m 10.67527,20.832285 c -0.01384,0.239272 -0.0277,0.481378 -0.05538,0.723474 -0.428972,0.02119 -0.857942,0.03821 -1.288299,0.0539 0.22224,-0.366697 0.457219,-0.730568 0.692336,-1.094428 0.22224,0.107588 0.443096,0.212384 0.651212,0.317149 z m 15.259646,15.249735 c 0.0997,0.216618 0.212409,0.433228 0.297289,0.654098 -0.353923,0.23361 -0.707845,0.4644 -1.090153,0.69234 0.01384,-0.43182 0.04292,-0.86224 0.05678,-1.294056 0.254917,-0.01709 0.481451,-0.0354 0.73623,-0.05238 z m 20.826581,5.582548 c 0.198286,0.13308 0.396433,0.27043 0.594717,0.40776 -0.198284,0.38368 -0.382307,0.76594 -0.594717,1.1468 -0.21227,-0.38086 -0.396431,-0.76312 -0.594577,-1.1468 0.198146,-0.13735 0.396431,-0.27467 0.594577,-0.40776 z m 20.826724,-5.582548 c 0.240652,0.01699 0.481305,0.0354 0.736227,0.05238 0.01381,0.431818 0.04289,0.862238 0.05681,1.294058 -0.382305,-0.22794 -0.736227,-0.45873 -1.104419,-0.69234 0.0997,-0.22087 0.212416,-0.43748 0.311552,-0.6541 z M 100.99099,84.563497 c 0.19815,-0.104816 0.42467,-0.209539 0.63709,-0.317149 0.24065,0.363872 0.48145,0.727732 0.69371,1.094438 -0.42467,-0.01568 -0.84948,-0.03251 -1.2883,-0.0539 -0.0278,-0.242096 -0.0278,-0.484213 -0.0429,-0.723484 z m 5.57829,-20.832285 c 0.12739,-0.198203 0.26903,-0.397844 0.39643,-0.600297 0.3823,0.198215 0.77874,0.396431 1.14679,0.600297 -0.36805,0.202466 -0.76449,0.403507 -1.14679,0.60031 -0.1274,-0.20104 -0.26904,-0.402095 -0.39643,-0.60031 z m -5.57829,-20.832274 c 0.0138,-0.239271 0.0138,-0.479969 0.0429,-0.722065 0.43879,-0.02271 0.86361,-0.0396 1.28829,-0.05387 -0.21227,0.365277 -0.45305,0.729141 -0.69372,1.091593 -0.2124,-0.106204 -0.43893,-0.209543 -0.63708,-0.315719 z M 85.728582,27.649208 c -0.0997,-0.215206 -0.212416,-0.434663 -0.311551,-0.652693 0.368181,-0.233608 0.722102,-0.465804 1.104408,-0.693748 -0.01381,0.431823 -0.04289,0.862221 -0.05681,1.294045 -0.254911,0.01703 -0.495574,0.03545 -0.736227,0.05234 z M 64.901858,22.068064 c -0.198146,-0.134452 -0.396431,-0.271838 -0.594577,-0.407758 0.198146,-0.383679 0.382307,-0.767372 0.594577,-1.148226 0.21241,0.380854 0.396433,0.764547 0.594717,1.148226 -0.198284,0.135975 -0.396431,0.273251 -0.594717,0.407758 z m -20.826581,5.581144 c -0.25478,-0.01703 -0.481312,-0.03545 -0.736231,-0.05234 -0.01384,-0.431825 -0.04292,-0.862223 -0.05678,-1.294046 0.382308,0.227944 0.73623,0.46014 1.090153,0.693749 -0.08446,0.218029 -0.198148,0.437486 -0.297291,0.652693 z m -15.259646,15.24973 c -0.208115,0.106205 -0.42897,0.209528 -0.65121,0.31572 -0.235117,-0.362453 -0.470096,-0.726317 -0.692337,-1.091593 0.430357,0.01413 0.859329,0.03116 1.288299,0.05387 0.0263,0.242096 0.04154,0.482795 0.05538,0.722066 z m -5.58106,20.832274 c -0.137082,0.198215 -0.276103,0.39927 -0.400723,0.60031 -0.387985,-0.196803 -0.775833,-0.397844 -1.149694,-0.60031 0.373861,-0.203866 0.761709,-0.402082 1.149694,-0.600297 0.12462,0.202453 0.263364,0.402094 0.400723,0.600297 z m -18.6760742,0 c 2.7948507,2.491841 5.6745542,4.898721 8.5967662,7.237641 2.091271,1.662175 4.209266,3.29743 6.327399,4.931289 -1.025072,2.47909 -2.034637,4.953928 -3.004461,7.434432 -1.370411,3.488574 -2.658848,7.011107 -3.835404,10.567642 3.669797,0.757454 7.366457,1.405896 11.063117,1.967976 2.6306,0.397841 5.289587,0.754619 7.948435,1.107161 0.345477,2.658906 0.705075,5.312137 1.107184,7.945547 0.567716,3.70236 1.204805,7.39479 1.966512,11.0646 3.556531,-1.17795 7.081908,-2.46353 10.564774,-3.82837 2.477733,-0.97125 4.955466,-1.98779 7.43306,-3.01143 1.642361,2.12513 3.270596,4.24319 4.927081,6.32443 2.350204,2.92649 4.757042,5.80058 7.248898,8.60108 2.491857,-2.8005 4.898696,-5.67459 7.234915,-8.60108 1.670606,-2.08124 3.298843,-4.1993 4.941064,-6.32443 2.477734,1.02364 4.955466,2.04018 7.433057,3.01143 3.482873,1.36484 7.008243,2.65042 10.562005,3.82837 0.764485,-3.66981 1.40171,-7.36224 1.968039,-11.0646 0.396428,-2.63341 0.764474,-5.286641 1.104272,-7.945547 2.66176,-0.352542 5.32351,-0.70932 7.94276,-1.107161 3.7094,-0.56208 7.40467,-1.210522 11.07157,-1.967976 -1.17504,-3.556535 -2.46348,-7.079068 -3.8368,-10.567642 -0.97688,-2.480504 -1.98215,-4.955342 -3.00155,-7.434432 2.10954,-1.633859 4.23336,-3.269114 6.32865,-4.931289 2.91666,-2.33892 5.7907,-4.7458 8.5941,-7.237641 -2.8034,-2.490417 -5.67744,-4.898709 -8.5941,-7.236217 -2.09529,-1.663587 -4.21911,-3.29743 -6.32865,-4.932701 1.0194,-2.47909 2.02467,-4.953929 3.00155,-7.434432 1.37332,-3.48857 2.66176,-7.009695 3.8368,-10.566227 -3.6669,-0.75887 -7.36217,-1.405899 -11.07157,-1.967979 -2.61925,-0.40067 -5.281,-0.756046 -7.94276,-1.109995 -0.339798,-2.656066 -0.707844,-5.309307 -1.104272,-7.942717 -0.566329,-3.705177 -1.203554,-7.397627 -1.968039,-11.067411 -3.553762,1.179368 -7.079132,2.464925 -10.562005,3.829769 -2.477591,0.969839 -4.955323,1.98922 -7.433057,3.012854 -1.642221,-2.125141 -3.270458,-4.24603 -4.941064,-6.325849 C 69.800554,9.0638146 67.393715,6.18972 64.901858,3.3906466 62.410002,6.18972 60.003164,9.0638146 57.65296,11.990307 c -1.656485,2.079819 -3.28472,4.200708 -4.927081,6.325849 -2.477594,-1.023634 -4.955327,-2.043015 -7.43306,-3.012854 -3.482866,-1.364844 -7.008243,-2.650401 -10.564774,-3.829769 -0.761707,3.669784 -1.398796,7.362234 -1.966512,11.067411 -0.402109,2.63341 -0.761707,5.286651 -1.107184,7.942717 -2.658848,0.353949 -5.317835,0.709325 -7.948435,1.109995 -3.69666,0.56208 -7.39332,1.209109 -11.063117,1.967979 1.176556,3.556532 2.464993,7.077657 3.835404,10.566227 0.969824,2.480503 1.979389,4.955342 3.004461,7.434432 -2.118133,1.635271 -4.236128,3.269114 -6.327399,4.932701 -2.922212,2.337508 -5.8019155,4.7458 -8.5967662,7.236217"
     sodipodi:nodetypes="cccccccccccccccccccccccccccccccccccccccccccccccccccccccccccccccccccccccccccccccccccccccccccccccccccccccccccccccccccccccccccccccccccccccccccccccccccccccccccccccccccccccccccccccccccccccccccccccccccccccccccccccccccccccccccccccccccccccccccccccccccccccccccccccccccccccccccccccccccccccccccccccccccccccccccccccccc" />
  <path
     style="fill:#ffd42a;fill-opacity:1;stroke-width:0.34321064"
     d="m 57.591021,98.622441 c -1.600007,-0.937897 -2.313789,-1.967479 -2.869557,-4.139149 l -0.46225,-1.80622 -1.680401,0.156192 c -4.985113,0.463359 -7.924135,-0.220415 -9.715122,-2.260232 -1.240968,-1.41338 -2.089992,-4.080653 -2.089992,-6.565846 0,-1.00396 -0.115833,-1.819098 -0.257408,-1.811419 -0.141574,0.0081 -0.79213,0.470998 -1.445681,1.029623 -2.23124,1.907172 -5.228818,0.994226 -6.816284,-2.075977 -1.141714,-2.208107 -0.828404,-4.937002 1.103007,-9.607128 0.146108,-0.353284 -0.18276,-0.730191 -1.048142,-1.201237 -0.69358,-0.377532 -1.736978,-1.280039 -2.318659,-2.005572 -0.951138,-1.186363 -1.055345,-1.549119 -1.035211,-3.603712 0.01911,-1.95083 0.229202,-2.710721 1.438121,-5.201851 1.226456,-2.527266 1.390178,-3.129807 1.224602,-4.506843 -0.246339,-2.04871 0.276686,-3.578396 2.193511,-6.415365 1.194555,-1.767982 1.569688,-2.655321 1.642235,-3.884544 0.209668,-3.55262 0.372134,-3.733563 5.762161,-6.417433 7.510509,-3.739725 14.450039,-6.296247 23.381839,-8.613867 4.101343,-1.064213 5.00529,-1.078847 6.121037,-0.09909 1.50745,1.323721 -0.137435,4.948926 -4.547541,10.022443 -1.604509,1.845876 -2.966674,3.312882 -3.027035,3.260016 -0.35281,-0.309006 1.623678,-3.173358 4.025017,-5.833108 2.799394,-3.100639 3.268855,-4.133877 2.25904,-4.971946 -1.470462,-1.220378 -9.052892,0.651574 -20.074343,4.955959 -5.737789,2.240871 -12.782862,5.613096 -12.630951,6.045986 0.05707,0.162629 3.625623,2.747304 7.930119,5.743721 l 7.826352,5.448034 1.783546,-0.616277 c 0.980947,-0.338954 2.594377,-0.621321 3.585398,-0.627485 0.99102,-0.0061 1.801855,-0.164023 1.801855,-0.350802 0,-0.186779 -0.460883,-1.980946 -1.024185,-3.987044 -1.325922,-4.722035 -1.614384,-7.472009 -0.950206,-9.058572 l 0.502869,-1.201236 1.241265,2.525871 c 1.126394,2.292117 1.176207,2.508857 0.538275,2.342034 -0.649272,-0.169788 -0.686129,-0.07431 -0.482293,1.249446 0.683175,4.436757 2.192944,7.448492 4.66564,9.307163 1.233087,0.926885 1.343217,1.1438 1.343217,2.645704 v 1.636041 l -1.757253,-1.092368 c -1.413784,-0.87886 -2.202002,-1.116289 -4.032725,-1.214753 -1.25151,-0.06731 -2.640799,0.01593 -3.08731,0.184943 -0.768655,0.290984 -0.659119,0.432775 2.059264,2.665611 1.579105,1.297051 4.492772,3.767893 6.474813,5.490755 3.685214,3.203326 5.096012,4.290484 5.567737,4.290484 0.464059,0 0.302342,-1.945827 -1.125404,-13.541146 -1.344274,-10.9174 -1.44294,-13.087513 -0.581983,-12.800527 0.484014,0.161337 2.520285,4.128071 2.863105,5.577429 l 0.243539,1.029632 -0.73781,-0.653813 c -0.732474,-0.64908 -0.737814,-0.647621 -0.737814,0.201499 0,1.104682 2.355602,19.878883 2.565153,20.444333 0.340485,0.918761 3.149133,0.291785 4.543388,-1.014228 0.617638,-0.578551 0.727205,-0.974121 0.58781,-2.122205 -0.647494,-5.332841 -4.001441,-30.270879 -4.286543,-31.87227 -0.339449,-1.906651 -0.150604,-4.374718 0.33473,-4.374718 0.339057,0 3.119675,5.439424 3.119675,6.102692 0,0.43213 -0.09152,0.464072 -0.411853,0.143742 -0.226519,-0.226519 -0.58176,-0.411853 -0.789418,-0.411853 -0.507987,0 -0.242764,2.54653 1.872199,17.975802 1.912775,13.954258 1.912847,14.303464 0.0036,16.478033 -0.55698,0.634367 -1.78604,1.486078 -2.731243,1.892693 l -1.718538,0.739304 v 3.405672 c 0,1.87312 -0.185553,4.224106 -0.41234,5.224425 l -0.412337,1.818741 -0.231872,-2.230867 c -0.127531,-1.226979 -0.34234,-3.586879 -0.477355,-5.244226 L 71.942562,72.20818 70.215637,71.333079 c -0.949808,-0.481306 -3.522512,-2.528227 -5.717114,-4.548715 -3.866604,-3.559839 -6.532211,-5.809554 -7.593899,-6.409081 -0.566899,-0.320123 -0.437957,-0.119016 1.326773,2.069343 1.304365,1.61748 2.105333,3.839021 2.105333,5.83928 0,3.196791 -1.614161,4.439742 -9.132204,7.032074 -4.477958,1.544064 -6.386151,2.538907 -8.455128,4.408101 -1.363801,1.232115 -1.370034,1.249285 -1.204068,3.31687 0.317645,3.957202 2.287918,6.255425 6.052252,7.059638 1.665567,0.355827 4.037757,0.26104 6.094972,-0.243554 0.548288,-0.134477 1.002123,-0.883724 1.787632,-2.951259 l 1.052782,-2.77102 -0.846101,-1.005537 c -0.465351,-0.55303 -0.744351,-1.1855 -0.619993,-1.405477 0.526809,-0.931865 1.244369,-1.543951 1.634507,-1.394238 0.439066,0.16849 4.32177,-3.676461 4.32177,-4.279746 0,-0.191639 -0.154445,-0.443885 -0.34321,-0.560549 -0.572479,-0.353813 -0.390475,-2.424921 0.265246,-3.018339 0.972433,-0.88004 1.542715,-0.187952 1.826191,2.216237 0.266475,2.259998 0.187584,2.703591 -0.379891,2.136116 -0.219562,-0.219561 -1.118952,0.427387 -2.591309,1.863991 l -2.255034,2.200264 0.702494,0.747773 0.70249,0.747762 -1.162231,1.725816 c -1.169058,1.735946 -2.19325,4.428047 -1.824803,4.796496 0.108946,0.108946 1.871194,-0.660715 3.916109,-1.710355 3.631065,-1.863801 7.523452,-4.588267 7.879042,-5.514935 0.09777,-0.254763 -0.767354,-2.52415 -1.922484,-5.043072 -1.675949,-3.654641 -2.059518,-4.80277 -1.898682,-5.683256 0.110857,-0.606868 0.3132,-1.172397 0.449657,-1.256731 0.136458,-0.08433 1.090535,0.784817 2.12017,1.931449 1.702081,1.895484 1.787417,2.063537 0.939841,1.850812 -0.517661,-0.129927 -0.932225,-0.09087 -0.932225,0.08781 0,0.176979 0.540556,1.449735 1.201237,2.828344 1.934122,4.035838 1.52784,6.432906 -1.601929,9.451388 -1.866894,1.800514 -5.847599,4.258062 -8.509808,5.253661 -1.181379,0.441806 -2.086415,0.998519 -2.157027,1.326842 -0.181967,0.846089 0.284635,2.698224 0.926568,3.677935 1.621057,2.474046 3.917609,1.691386 7.776004,-2.650052 5.897196,-6.63548 6.568616,-7.146421 13.176089,-10.026886 2.076425,-0.905195 3.902169,-1.767752 4.057211,-1.916794 0.155038,-0.149042 0.0978,-1.487805 -0.127211,-2.975023 -0.648875,-4.28889 0.555705,-7.337383 2.899299,-7.337383 1.968179,0 3.295415,2.086867 3.295415,5.181526 0,2.100534 -0.721501,3.900941 -2.162459,5.39612 l -1.098041,1.139352 1.12085,1.005709 c 0.92449,0.829531 1.42246,1.00571 2.842512,1.00571 1.92202,0 3.645126,-0.606878 4.494209,-1.582877 0.698736,-0.803176 0.519144,-2.688785 -2.610899,-27.413176 C 88.156231,41.078941 87.922295,38.626915 88.300585,37.736037 l 0.437209,-1.029632 1.227672,2.57408 c 0.675223,1.415744 1.337832,3.037415 1.47247,3.603712 0.222949,0.937731 0.193025,0.986974 -0.335242,0.551711 -0.319021,-0.262857 -0.635582,-0.417302 -0.703468,-0.343212 -0.219113,0.239143 0.756782,9.766235 2.355489,22.995234 1.741197,14.408081 1.771429,14.9136 1.039382,17.378675 -1.20258,4.049518 -6.623979,5.659288 -9.284009,2.756689 -0.591894,-0.645875 -1.241001,-1.468834 -1.442455,-1.828821 -0.352303,-0.62952 -0.475437,-0.610469 -3.225748,0.499091 -1.572705,0.634483 -4.187599,1.831965 -5.810879,2.661088 -3.01848,1.541744 -2.898195,1.434059 -10.239466,9.166536 -2.672002,2.814382 -3.965906,3.211139 -6.200519,1.901253 z M 36.763537,82.132491 c 0.412313,-0.215899 1.912813,-1.498007 3.334442,-2.849138 3.099467,-2.945756 5.089478,-4.129243 10.384075,-6.175557 4.026938,-1.556378 7.406434,-3.148268 8.622549,-4.061596 0.642285,-0.482372 0.639996,-0.524474 -0.113204,-2.080379 -0.898828,-1.856731 -2.983801,-4.255959 -5.875499,-6.76108 l -2.061127,-1.785588 -1.279417,0.847527 c -0.703678,0.466139 -2.901088,2.353503 -4.883129,4.194145 -4.234014,3.931961 -7.173047,6.214165 -9.14044,7.097695 -1.281958,0.575708 -1.50452,0.869761 -2.316672,3.060834 -0.529824,1.42939 -0.898471,3.133908 -0.898471,4.154291 0,3.515492 1.965891,5.542748 4.226893,4.358846 z m -0.565978,-3.954802 c -0.375298,-0.375294 -0.210186,-2.601697 0.288465,-3.889719 l 0.46505,-1.201237 -0.191988,1.611182 c -0.244699,2.053553 0.03975,2.928609 0.758173,2.33237 0.411488,-0.341505 0.510755,-0.329005 0.510755,0.06431 0,0.938475 -1.240854,1.672698 -1.830455,1.083094 z m 6.113494,-5.018374 c -0.381434,-0.606217 -0.883379,-1.121519 -1.115434,-1.145115 -0.232056,-0.02358 -0.559839,-0.06221 -0.72841,-0.08581 -0.722338,-0.101114 -0.759598,-2.102165 -0.03914,-2.102165 0.147042,0 0.814292,0.563106 1.482777,1.251342 l 1.215429,1.251343 0.226526,-1.337145 c 0.372988,-2.201686 0.542874,-2.582458 1.102952,-2.472098 0.644975,0.127087 1.364633,1.179227 1.033253,1.510611 -0.130338,0.130333 -0.458626,0.05301 -0.729532,-0.171812 -0.647168,-0.537101 -0.772351,-0.268109 -1.063126,2.28443 -0.134397,1.179788 -0.345026,2.139119 -0.468067,2.131847 -0.123037,-0.0073 -0.53579,-0.509218 -0.917224,-1.115435 z m 5.54732,-5.05228 c -1.247426,-1.095257 -1.247725,-1.096194 -0.660227,-2.09075 0.727816,-1.232092 1.004746,-1.238389 2.250985,-0.05117 l 0.990752,0.94383 0.756976,-0.94383 c 0.95175,-1.186689 1.234117,-1.180425 2.416378,0.05359 1.003469,1.047393 1.009523,1.965682 0.0184,2.788255 -0.404639,0.33582 -0.74174,0.231718 -1.756871,-0.542562 l -1.256166,-0.958122 -0.75611,0.948253 -0.75611,0.948254 -1.247989,-1.095748 z m 37.790118,10.883168 c 0.424722,-0.386847 0.771646,-1.10116 0.770939,-1.587359 -0.0017,-1.094427 -1.095988,-2.943241 -2.041911,-3.449484 -0.590181,-0.315857 -0.855651,-0.229851 -1.60572,0.520219 -0.787082,0.787081 -0.872723,1.087706 -0.689882,2.421693 0.114818,0.837682 0.448323,1.986322 0.741126,2.552533 0.472652,0.914014 0.617656,0.985529 1.292792,0.637616 0.418237,-0.215522 1.107933,-0.708368 1.532656,-1.095218 z m -23.595732,-4.66021 c 0,-0.165651 -0.231668,-0.493451 -0.514816,-0.728444 -0.417519,-0.346509 -0.514816,-0.332829 -0.514816,0.07238 0,0.274802 0.102963,0.602603 0.228808,0.728445 0.32594,0.325943 0.800824,0.283022 0.800824,-0.07238 z M 36.742468,67.092879 C 39.127171,65.497893 48.683339,56.997698 48.654337,56.497293 48.642192,56.287884 37.52112,47.716465 36.406409,47.057377 c -0.574408,-0.339627 -1.101026,0.245719 -2.333585,2.593819 -1.505929,2.86889 -0.891651,5.80666 0.879079,4.204172 0.3705,-0.3353 0.673637,-0.498321 0.673637,-0.362272 0,0.58715 -0.870077,1.854575 -2.260275,3.292498 -3.468131,3.587186 -4.47697,10.283682 -1.74802,11.603021 1.458737,0.70524 2.543568,0.430981 5.125223,-1.295736 z m 0.170112,-6.299107 c 1.934849,-2.021757 3.517909,-3.839243 3.517909,-4.038854 0,-0.199612 -0.231667,-0.594599 -0.514816,-0.877748 -1.129822,-1.129822 -0.328858,-3.424864 1.098947,-3.148862 0.472203,0.09128 0.625776,0.465226 0.654022,1.592543 0.02032,0.810289 0.213357,1.649697 0.429013,1.865349 0.215653,0.215657 0.392097,0.694038 0.392097,1.063075 0,0.635746 -0.03398,0.640214 -0.647387,0.08509 -0.618195,-0.559461 -0.680638,-0.532074 -1.384866,0.607389 -0.786113,1.271957 -4.036341,4.418151 -5.922792,5.733211 -0.627019,0.437099 0.443023,-0.859438 2.377873,-2.881199 z m 4.204331,-6.240414 c 0,-0.283149 -0.250579,-0.514815 -0.55684,-0.514815 -0.456054,0 -0.479509,0.09318 -0.129582,0.514815 0.234992,0.283149 0.485571,0.514817 0.556842,0.514817 0.07127,0 0.12958,-0.231668 0.12958,-0.514817 z m 27.65677,43.781974 c -0.550725,-0.10682 -1.06443,-0.425888 -1.141563,-0.70904 -0.100127,-0.367554 -0.05563,-0.39579 0.155571,-0.09866 0.47303,0.665384 1.904352,0.131547 1.703776,-0.63545 -0.092,-0.351799 -0.02722,-0.553081 0.143936,-0.447298 0.171163,0.105783 0.311203,0.492103 0.311203,0.858498 0,0.953561 0.573144,0.821709 1.096705,-0.252322 0.24626,-0.505164 0.679409,-0.977464 0.962558,-1.049549 0.343929,-0.08758 0.31386,-0.0041 -0.09059,0.251794 -0.527412,0.333541 -0.541625,0.446637 -0.110319,0.877946 0.691704,0.691708 1.230537,0.616795 1.230537,-0.171083 0,-0.366385 0.18069,-0.777839 0.401536,-0.914329 0.269987,-0.166863 0.329736,-0.06103 0.182376,0.322962 -0.163063,0.424932 -0.02427,0.574991 0.542293,0.586281 0.634222,0.01261 0.560741,0.119413 -0.439784,0.63904 -1.368106,0.710535 -3.477492,1.02652 -4.948239,0.741253 z M 50.935133,97.083403 c -0.314357,-0.819196 -0.240295,-2.651039 0.130692,-3.232427 0.240906,-0.377533 0.316735,-0.185985 0.28437,0.718296 -0.0542,1.514463 0.25226,2.064941 0.991635,1.781209 0.431224,-0.165469 0.509171,-0.07486 0.332221,0.38627 -0.127156,0.331364 -0.23119,0.667062 -0.23119,0.746012 0,0.415564 -1.330219,0.06327 -1.507728,-0.39936 z M 68.058946,96.59666 c 0.116664,-0.188762 0.280223,-0.343204 0.363466,-0.343204 0.08324,0 0.151349,0.154442 0.151349,0.343204 0,0.188771 -0.163561,0.343214 -0.363467,0.343214 -0.199907,0 -0.268012,-0.154443 -0.151348,-0.343214 z m 9.791476,-1.348761 c -0.237985,-0.574553 -0.917817,-1.243436 -1.586086,-1.560551 -0.861943,-0.409023 -1.169573,-0.776445 -1.169573,-1.396923 0,-0.531111 0.196104,-0.841919 0.531205,-0.841919 0.62337,0 2.101774,1.506683 2.399814,2.445719 0.316756,0.99802 0.844298,0.408118 0.844298,-0.944091 0,-2.247661 1.255709,-3.346296 2.074996,-1.815447 0.481948,0.900527 0.148494,1.267909 -0.680761,0.750031 -0.809603,-0.505601 -1.051024,-0.247756 -1.051024,1.122538 0,1.493714 -0.371251,3.2462 -0.687685,3.2462 -0.142267,0 -0.446101,-0.452507 -0.675184,-1.005557 z M 70.976236,94.19419 c 0,-0.188771 0.145329,-0.343214 0.322954,-0.343214 0.177625,0 0.418408,0.154443 0.535072,0.343214 0.116664,0.188761 -0.02865,0.343204 -0.322954,0.343204 -0.294289,0 -0.535072,-0.154443 -0.535072,-0.343204 z m 12.927601,-0.915235 c -0.125845,-0.12584 -0.20409,-1.013897 -0.17388,-1.973459 0.04347,-1.38077 0.08436,-1.494111 0.196072,-0.543418 0.189089,1.60922 0.68843,2.072488 1.316553,1.221445 0.575039,-0.779121 0.623089,-0.582049 0.156994,0.643871 -0.319754,0.841025 -1.006935,1.140369 -1.495739,0.651561 z M 38.268688,88.485876 c -0.337813,-0.337813 -0.256118,-2.222354 0.131933,-3.043564 0.273202,-0.578154 0.296513,-0.541852 0.14779,0.230139 -0.231818,1.20332 0.127276,2.089047 0.750063,1.850059 0.334444,-0.128343 0.458193,0.0031 0.380785,0.405342 -0.120134,0.623803 -0.997651,0.970943 -1.410571,0.558024 z m 11.653771,-1.692677 c -0.517534,-0.648601 -1.166051,-1.179275 -1.441151,-1.179275 -0.304724,0 -0.500185,-0.335301 -0.500185,-0.85803 0,-1.165544 0.421335,-1.078954 1.670014,0.343214 0.580085,0.660675 1.136643,1.201235 1.236791,1.201235 0.100148,0 0.18209,-0.68237 0.18209,-1.516376 0,-2.465675 0.692648,-3.320461 1.703578,-2.102372 0.603453,0.727114 0.136279,1.306682 -0.694775,0.861916 -0.626802,-0.335453 -0.665592,-0.22668 -0.665592,1.866476 0,1.222473 -0.123706,2.299138 -0.274902,2.392583 -0.151198,0.09348 -0.698337,-0.36077 -1.215868,-1.009371 z m -4.63439,-3.495948 c -0.352402,-0.672504 -0.02705,-1.804807 0.681201,-2.370826 0.392623,-0.313768 4.547661,-2.187123 9.152203,-4.126387 1.076895,-0.453548 1.116577,-0.44481 0.785921,0.17303 -0.191532,0.357883 -1.165241,0.99791 -2.163795,1.422283 -0.998555,0.424373 -3.173618,1.398211 -4.83347,2.164089 -2.920033,1.347327 -3.010987,1.42405 -2.80422,2.365455 0.238782,1.087173 -0.311893,1.337888 -0.81784,0.372356 z M 61.44462,81.144632 c 0.09109,-0.947976 0.268199,-1.826177 0.393573,-1.95155 0.466372,-0.466372 2.097341,0.447766 2.416118,1.354203 0.426745,1.21345 -0.506232,2.320956 -1.955203,2.320956 -1.017898,0 -1.019744,-0.0041 -0.854488,-1.723609 z m 1.829581,0.522364 c 0.659482,-0.509609 0.659482,-0.520014 0,-1.029633 -0.96226,-0.743582 -1.564653,-0.633466 -1.564653,0.28601 0,1.330514 0.498545,1.567457 1.564653,0.743623 z m 26.121006,-0.400409 c -0.125845,-0.12584 -0.222764,-0.936676 -0.215375,-1.801857 l 0.01342,-1.573048 0.500411,1.152529 c 0.341835,0.787301 0.663859,1.089799 1.016199,0.9546 0.608468,-0.233495 0.640946,-0.065 0.160502,0.832724 -0.355102,0.663513 -1.043645,0.866575 -1.47517,0.435052 z M 75.781185,79.480608 c 0,-0.137721 0.181685,-0.43209 0.403742,-0.654148 0.309518,-0.309517 0.250194,-0.573415 -0.254192,-1.130755 -0.652337,-0.720821 -0.649719,-0.734082 0.307517,-1.557462 0.530998,-0.456745 1.108722,-0.741905 1.283824,-0.633684 0.55237,0.341385 0.345476,0.842675 -0.347793,0.842675 -0.366391,0 -0.756831,0.146695 -0.867639,0.325992 -0.317199,0.513237 0.925971,1.00225 2.017481,0.793596 0.653266,-0.124881 0.914186,-0.06489 0.765332,0.17596 -0.300988,0.487009 -3.308272,2.157636 -3.308272,1.837826 z m 22.306717,-1.760532 c -0.01261,-0.09438 -0.240707,-2.797166 -0.506995,-6.006186 -0.266278,-3.209019 -1.119363,-10.304833 -1.89574,-15.768473 -1.67725,-11.803374 -1.578536,-13.552521 0.548306,-9.715705 1.771654,3.196049 2.236274,5.060877 1.006671,4.040396 -0.446843,-0.370846 -0.523111,-0.298189 -0.523111,0.498359 0,0.512876 0.490054,4.277073 1.089008,8.364883 1.196424,8.165458 1.539343,16.73366 0.72329,18.071911 -0.23022,0.377531 -0.428868,0.609199 -0.441429,0.514815 z m -11.657317,-10.512284 -1.072427,-0.90239 -0.777883,0.730785 c -1.014795,0.953349 -1.277506,0.924651 -2.416258,-0.263953 -0.927448,-0.968046 -0.937318,-1.018694 -0.367953,-1.887658 0.738881,-1.127675 1.088908,-1.119976 2.314609,0.05091 l 0.988018,0.94383 0.689637,-0.94383 c 0.875434,-1.198111 1.162073,-1.184206 2.375938,0.115241 0.946352,1.013071 0.966854,1.102506 0.472096,2.059263 -0.634803,1.227569 -0.851701,1.237185 -2.205777,0.09781 z m -12.88027,-2.092987 c 1.008848,-1.021183 4.077339,-2.715638 3.887743,-2.146855 -0.08651,0.259522 -1.151084,1.005065 -2.365724,1.656763 -1.534635,0.823384 -1.99901,0.972914 -1.522019,0.490092 z m -7.039788,-1.985964 c -0.467608,-0.563432 -0.262433,-3.196815 0.329132,-4.224368 0.237439,-0.412443 0.275142,-0.215944 0.132884,0.69261 -0.109231,0.697627 -0.09617,1.676536 0.02904,2.175355 0.187722,0.747945 0.315406,0.834097 0.728303,0.491426 0.398852,-0.33102 0.500676,-0.316238 0.500676,0.07268 0,0.505834 -0.648988,1.311902 -1.056251,1.311902 -0.127898,0 -0.426598,-0.23382 -0.663774,-0.5196 z m 18.204571,-1.562433 c -0.01,-1.817969 -0.582325,-5.690642 -0.922615,-6.242198 -0.08781,-0.142326 -0.652107,0.105166 -1.253992,0.549985 -1.993406,1.473225 -2.143271,1.371098 -0.495744,-0.337823 l 1.628219,-1.688888 -0.677292,-5.310039 c -0.372511,-2.920519 -1.012956,-7.483639 -1.423209,-10.140262 -0.703403,-4.554915 -0.692919,-6.667332 0.03309,-6.667332 0.385284,0 2.643603,4.566568 2.970258,6.006186 l 0.233627,1.029632 -0.737811,-0.653812 c -0.952622,-0.844163 -0.955392,-0.986392 0.124916,6.413471 1.155624,7.915768 1.09966,7.697915 1.798121,6.999454 0.520022,-0.520022 0.516957,-0.655289 -0.04141,-1.826192 -0.598359,-1.254776 -0.596496,-1.271106 0.240766,-2.108364 l 0.843794,-0.843797 0.60228,0.919196 c 0.503706,0.768748 0.540041,1.121994 0.222008,2.15824 -0.209151,0.681472 -0.300569,1.368003 -0.203155,1.525623 0.09741,0.157619 -0.0459,0.28658 -0.318483,0.28658 -0.272582,0 -0.779345,0.424723 -1.126143,0.943829 -0.526396,0.787933 -0.632121,1.652439 -0.640091,5.233963 -0.0061,2.754989 -0.159329,4.535755 -0.428124,4.976554 -0.361882,0.593449 -0.419991,0.42766 -0.429013,-1.224006 z m 2.511935,-12.858623 c -0.106337,-0.277102 -0.331257,-0.503823 -0.499829,-0.503823 -0.352168,0 -0.414097,0.807619 -0.08702,1.134706 0.366123,0.36612 0.793231,-0.09304 0.586842,-0.630883 z m 12.25892,13.268022 c -0.429081,-0.801761 -0.426101,-2.599625 0.0061,-3.818737 0.267834,-0.755059 0.285349,-0.724167 0.14597,0.257408 -0.23679,1.667658 0.158339,3.251718 0.754097,3.023109 0.32662,-0.125337 0.45569,0.0036 0.38234,0.38176 -0.16488,0.85016 -0.871563,0.935953 -1.288744,0.15646 z M 87.321927,61.749559 c -0.295899,-0.771094 -0.209043,-3.239775 0.15055,-4.27891 0.220842,-0.63819 0.249424,-0.490888 0.111567,0.574923 -0.206798,1.598774 0.349154,3.008738 1.076329,2.729698 0.357272,-0.137099 0.403704,0.0013 0.192352,0.573999 -0.34181,0.925928 -1.239059,1.16055 -1.530798,0.40029 z M 73.712469,57.287656 c -0.591949,-0.713257 -0.845389,-3.702525 -0.381146,-4.495569 0.296205,-0.505999 0.335111,-0.315537 0.184506,0.903245 -0.137023,1.108879 -0.03992,1.738032 0.34431,2.230869 0.455629,0.584413 0.58436,0.611392 0.866229,0.181545 0.473033,-0.721367 0.833559,-0.199347 0.574679,0.832104 -0.246964,0.983991 -0.935483,1.134737 -1.588578,0.347806 z M 64.97005,50.388415 c -0.566298,-0.661954 -1.301476,-1.240487 -1.633724,-1.285626 -0.814281,-0.110627 -1.413867,-0.753542 -1.130444,-1.212134 0.359775,-0.582123 0.761931,-0.452742 2.016414,0.648706 1.273305,1.117977 1.60578,1.050269 1.60578,-0.327004 0,-1.216026 0.7781,-2.237621 1.494817,-1.962591 0.854758,0.328002 0.675448,0.924564 -0.277899,0.924564 -0.79655,0 -0.847863,0.120082 -0.943828,2.208818 l -0.101481,2.208818 z M 52.271256,50.017652 c -0.420145,-0.779398 -1.019267,-1.350136 -1.544448,-1.471293 -0.614529,-0.141767 -0.888847,-0.46193 -0.966626,-1.128195 -0.159685,-1.367852 0.69514,-1.184938 2.092697,0.447794 l 1.179556,1.378048 0.208165,-1.757598 c 0.23225,-1.961002 0.689386,-2.714553 1.646762,-2.714553 0.45913,0 0.644394,0.247522 0.644394,0.860934 0,0.768343 -0.07215,0.815881 -0.670811,0.442008 -0.368948,-0.230411 -0.765837,-0.323905 -0.881979,-0.207767 -0.116143,0.116143 -0.299902,1.384467 -0.40836,2.818497 -0.108454,1.43403 -0.290729,2.606912 -0.40506,2.606404 -0.114327,-3.43e-4 -0.516758,-0.573937 -0.89429,-1.274279 z m -8.263291,-4.463036 c -0.441145,-0.441146 -0.512111,-0.92881 -0.332348,-2.283913 0.125708,-0.94765 0.380151,-1.962845 0.565422,-2.25599 0.235169,-0.372089 0.272328,-0.09701 0.123093,0.91118 -0.252366,1.704913 0.03744,2.845962 0.722829,2.845962 0.645809,0 0.635469,0.901018 -0.01321,1.149935 -0.277688,0.106556 -0.757294,-0.05867 -1.065799,-0.367174 z m 34.885271,-0.05307 c -0.201502,-0.376509 -0.34845,-1.273885 -0.326554,-1.994167 0.0231,-0.760296 0.112467,-1.021687 0.213024,-0.623181 0.487311,1.931188 0.767772,2.322404 1.33026,1.855581 0.471706,-0.391481 0.526671,-0.341075 0.423327,0.388203 -0.149187,1.052771 -1.15406,1.281655 -1.640057,0.373564 z M 50.45224,44.016792 c -0.509218,-0.509217 -0.528295,-2.415518 -0.04171,-4.167872 0.471983,-1.699772 0.777626,-1.422044 0.380442,0.345696 -0.34687,1.543805 0.01356,2.861186 0.782805,2.861186 0.289231,0 0.525874,0.123556 0.525874,0.274568 0,0.32048 -0.729181,1.098275 -1.029632,1.098275 -0.113259,0 -0.39126,-0.185334 -0.617778,-0.411853 z m 20.346542,-3.840115 c -0.482791,-0.353026 -0.569692,-0.732237 -0.40308,-1.758936 0.277922,-1.712633 0.616512,-2.00821 1.722961,-1.504077 1.077981,0.49116 1.436115,1.396542 0.927984,2.345991 -0.567674,1.06071 -1.520032,1.449226 -2.247865,0.917022 z m 1.350619,-0.761307 c 0.744971,-0.28587 0.681871,-1.065984 -0.12097,-1.495652 -0.966355,-0.517176 -1.052195,-0.462161 -1.052195,0.674346 0,1.047783 0.20641,1.192287 1.173165,0.821306 z M 61.708907,39.10719 c -0.41554,-1.092944 -0.405713,-2.503721 0.02389,-3.430416 0.242647,-0.523415 0.271597,-0.423366 0.121905,0.4213 -0.288926,1.630339 0.09655,2.574463 0.941612,2.30625 0.604453,-0.191846 0.642624,-0.13327 0.313685,0.481358 -0.599099,1.119427 -1.03359,1.188119 -1.401096,0.221508 z M 44.922271,33.238099 c 0.251515,-0.303057 1.312929,-0.930093 2.358695,-1.393411 2.92156,-1.294371 11.047487,-4.296756 11.204414,-4.13983 0.392519,0.392519 -1.650878,1.40971 -7.295914,3.631858 -3.426474,1.34882 -6.341225,2.452398 -6.477225,2.452398 -0.136001,0 -0.04149,-0.247956 0.21003,-0.551015 z"
     id="path39"
     inkscape:connector-curvature="0" />
</svg>
