<?xml version="1.0" encoding="UTF-8" standalone="no"?>
<!-- Created with Inkscape (http://www.inkscape.org/) -->

<svg
   xmlns:dc="http://purl.org/dc/elements/1.1/"
   xmlns:cc="http://creativecommons.org/ns#"
   xmlns:rdf="http://www.w3.org/1999/02/22-rdf-syntax-ns#"
   xmlns:svg="http://www.w3.org/2000/svg"
   xmlns="http://www.w3.org/2000/svg"
   xmlns:sodipodi="http://sodipodi.sourceforge.net/DTD/sodipodi-0.dtd"
   xmlns:inkscape="http://www.inkscape.org/namespaces/inkscape"
   id="svg2"
   version="1.1"
   inkscape:version="0.92.1 r15371"
   width="512"
   height="512"
   sodipodi:docname="pdf-editor.svg">
  <metadata
     id="metadata8">
    <rdf:RDF>
      <cc:Work
         rdf:about="">
        <dc:format>image/svg+xml</dc:format>
        <dc:type
           rdf:resource="http://purl.org/dc/dcmitype/StillImage" />
        <dc:title />
      </cc:Work>
    </rdf:RDF>
  </metadata>
  <defs
     id="defs6" />
  <sodipodi:namedview
     pagecolor="#ffffff"
     bordercolor="#666666"
     borderopacity="1"
     objecttolerance="10"
     gridtolerance="10"
     guidetolerance="10"
     inkscape:pageopacity="0"
     inkscape:pageshadow="2"
     inkscape:window-width="1149"
     inkscape:window-height="685"
     id="namedview4"
     showgrid="false"
     inkscape:zoom="0.32593203"
     inkscape:cx="-22.18771"
     inkscape:cy="500.08415"
     inkscape:window-x="90"
     inkscape:window-y="28"
     inkscape:window-maximized="0"
     inkscape:current-layer="svg2" />
  <g
     id="g844">
    <rect
       ry="47.687111"
       y="32.152515"
       x="34.033897"
       height="447.30508"
       width="448.20831"
       id="rect2986"
       style="fill:#f03916;fill-rule:evenodd;stroke:none;fill-opacity:1" />
    <path
       style="fill:#ffffff"
       id="path70"
       inkscape:connector-curvature="0"
       d="m 195.78329,79.317544 c -17.1203,-0.299437 -31.89528,16.728532 -28.27573,33.740676 2.43633,25.99505 19.19784,47.08973 32.2778,68.55507 1.47078,7.99361 -2.74499,15.77485 -3.02728,23.71041 -8.52782,46.5898 -21.53788,92.92898 -41.55357,135.68028 -24.76698,11.40209 -52.81582,22.66174 -67.299287,47.23614 -9.19397,17.05038 3.751458,40.06169 22.754087,41.85959 17.62944,2.41128 30.71468,-12.69612 40.35186,-25.35398 10.06192,-13.61551 16.68369,-29.82828 25.05588,-44.46081 50.66573,-20.40481 103.96963,-34.66535 158.38156,-40.08016 22.00089,15.74583 45.31031,34.32239 73.52274,35.44492 16.39876,-0.24403 29.66868,-16.16265 27.87209,-32.33058 -1.05658,-14.72089 -14.1339,-25.044 -27.68215,-27.80614 -21.85051,-6.58219 -45.25755,-2.97715 -67.484,-2.81755 -42.77239,-34.17729 -82.25764,-73.50029 -113.36016,-118.4927 2.30838,-27.35369 6.94362,-57.61069 -7.29977,-82.495082 -5.40821,-7.848507 -14.57579,-13.23034 -24.23539,-12.383493 m 0.81518,24.842185 c 4.81596,0.92863 5.13649,8.10177 6.48459,11.93764 1.26895,7.81818 1.13045,15.79596 1.03812,23.69195 -5.73535,-10.72014 -13.1855,-21.9191 -11.85851,-34.62578 1.51166,-0.0593 2.85053,-0.82574 4.3358,-1.00117 m 26.53983,106.67377 c 25.49248,31.69741 53.8091,60.88859 84.71112,87.34927 -40.7476,6.21417 -81.22876,16.62433 -119.99643,30.66855 14.86865,-38.86001 26.18896,-79.00745 33.64833,-119.98325 0.54346,0.65557 1.08692,1.30984 1.63038,1.96543 m 159.01475,106.55504 c 9.88385,0.95369 21.2899,0.3812 29.20437,7.19292 0.74264,6.14822 -6.77874,7.04519 -10.78346,4.81991 -8.35635,-2.78985 -16.62301,-6.29727 -23.717,-11.64217 1.76756,-0.10949 3.52853,-0.33636 5.30269,-0.37066 m -246.99718,64.66115 c -4.69987,8.74153 -11.54193,16.98313 -18.67681,23.17355 -2.37434,3.8438 -8.89056,-3.2634 -5.89229,-6.26561 6.1904,-9.68994 16.99891,-14.82643 26.56618,-20.61454 -0.66745,1.23597 -1.33226,2.47194 -2.00104,3.70792" />
    <path
       sodipodi:nodetypes="cccc"
       inkscape:connector-curvature="0"
       id="path3868"
       d="m 249.54119,479.37258 40.61317,-35.151 -33.29271,-17.17479 z"
       style="fill:#e9ddaf;stroke:none" />
    <path
       sodipodi:nodetypes="cccc"
       inkscape:connector-curvature="0"
       id="path3868-3"
       d="m 249.50223,479.36826 11.23781,-9.72642 -9.15966,-5.00161 z"
       style="fill:#394050;stroke:none" />
    <path
       sodipodi:nodetypes="ccccc"
       inkscape:connector-curvature="0"
       id="path3888"
       d="M 256.88652,427.125 428.02943,131.17482 459.79175,150.97955 289.39621,444.59431 Z"
       style="fill:#45d03f;fill-opacity:1;stroke:none" />
    <path
       sodipodi:nodetypes="cczcczccc"
       inkscape:connector-curvature="0"
       id="path3888-6-0"
       d="m 430.32914,127.12976 20.29805,-35.290033 c 0,0 1.11006,-2.433827 2.37899,-2.764543 1.26892,-0.330717 3.96432,1.448462 3.96432,1.448462 l 24.09972,14.809094 c 0,0 2.27276,1.28982 2.64236,2.45931 0.3696,1.16949 -0.77814,3.66764 -0.77814,3.66764 l -20.18907,34.63407 z"
       style="fill:#ffdd55;fill-opacity:1;stroke:none" />
    <path
       sodipodi:nodetypes="ccccc"
       inkscape:connector-curvature="0"
       id="path3888-6"
       d="m 418.36757,147.78066 22.51386,-39.14243 32.22939,19.80473 -22.32703,38.3017 z"
       style="fill:#ebebeb;fill-opacity:1;stroke:none" />
  </g>
</svg>
