<?xml version="1.0" encoding="UTF-8" standalone="no"?>
<!-- Created with Inkscape (http://www.inkscape.org/) -->

<svg
   xmlns:dc="http://purl.org/dc/elements/1.1/"
   xmlns:cc="http://creativecommons.org/ns#"
   xmlns:rdf="http://www.w3.org/1999/02/22-rdf-syntax-ns#"
   xmlns:svg="http://www.w3.org/2000/svg"
   xmlns="http://www.w3.org/2000/svg"
   xmlns:sodipodi="http://sodipodi.sourceforge.net/DTD/sodipodi-0.dtd"
   xmlns:inkscape="http://www.inkscape.org/namespaces/inkscape"
   version="1.1"
   width="100%"
   height="100%"
   viewBox="0 0 512 512"
   id="svg2"
   inkscape:version="0.91 r13725"
   sodipodi:docname="pet.svg">
  <sodipodi:namedview
     pagecolor="#ffffff"
     bordercolor="#666666"
     borderopacity="1"
     objecttolerance="10"
     gridtolerance="10"
     guidetolerance="10"
     inkscape:pageopacity="0"
     inkscape:pageshadow="2"
     inkscape:window-width="1366"
     inkscape:window-height="715"
     id="namedview78"
     showgrid="false"
     inkscape:zoom="0.65186406"
     inkscape:cx="663.37461"
     inkscape:cy="214.28822"
     inkscape:window-x="0"
     inkscape:window-y="24"
     inkscape:window-maximized="1"
     inkscape:current-layer="svg2" />
  <metadata
     id="metadata70">
    <rdf:RDF>
      <cc:Work
         rdf:about="">
        <dc:format>image/svg+xml</dc:format>
        <dc:type
           rdf:resource="http://purl.org/dc/dcmitype/StillImage" />
        <dc:title />
      </cc:Work>
    </rdf:RDF>
  </metadata>
  <defs
     id="defs68">
    <clipPath
       id="clipPath3429">
      <path
         d="m 471.9456,253.05189 c 0,120.89699 -98.00565,218.90724 -218.90724,218.90724 -120.89698,0 -218.90723,-98.00566 -218.90723,-218.90724 0,-120.89698 98.00565,-218.907232 218.90723,-218.907232 120.89699,0 218.90724,98.005652 218.90724,218.907232"
         inkscape:connector-curvature="0"
         id="path3431"
         style="fill:#0e65aa;fill-opacity:1;fill-rule:evenodd" />
    </clipPath>
  </defs>
  <text
     x="729.64001"
     y="231.35997"
     id="text20"
     style="font-size:129.22999573px;line-height:125%;letter-spacing:0;word-spacing:0;font-family:Gentium Book Basic">
    <tspan
       x="729.64001"
       y="231.35997"
       id="tspan22" />
  </text>
  <text
     x="378.90805"
     y="579.25812"
     transform="scale(4.0128205,0.24920128)"
     id="text24"
     style="font-size:46.95375824px;text-anchor:middle;font-family:Arial" />
  <text
     x="1310.91"
     y="151.35997"
     id="text26"
     style="font-size:129.22999573px;line-height:125%;letter-spacing:0;word-spacing:0;font-family:Gentium Book Basic">
    <tspan
       x="1310.91"
       y="151.35997"
       id="tspan28" />
  </text>
  <text
     x="523.75732"
     y="258.21997"
     transform="scale(4.0128205,0.24920128)"
     id="text30"
     style="font-size:46.95375824px;text-anchor:middle;font-family:Arial" />
  <text
     x="239.33"
     y="-29.900009"
     id="text32"
     style="font-size:129.22999573px;line-height:125%;letter-spacing:0;word-spacing:0;font-family:Gentium Book Basic">
    <tspan
       x="239.33"
       y="-29.900009"
       id="tspan34" />
  </text>
  <text
     x="256.71869"
     y="-469.1264"
     transform="scale(4.0128205,0.24920128)"
     id="text36"
     style="font-size:46.95375824px;text-anchor:middle;font-family:Arial" />
  <text
     x="1337.38"
     y="-246.37001"
     id="text38"
     style="font-size:129.22999573px;line-height:125%;letter-spacing:0;word-spacing:0;font-family:Gentium Book Basic">
    <tspan
       x="1337.38"
       y="-246.37001"
       id="tspan40" />
  </text>
  <text
     x="530.3573"
     y="-1337.802"
     transform="scale(4.0128205,0.24920128)"
     id="text42"
     style="font-size:46.95375824px;text-anchor:middle;font-family:Arial" />
  <text
     x="1918.65"
     y="-326.37"
     id="text44"
     style="font-size:129.22999573px;line-height:125%;letter-spacing:0;word-spacing:0;font-family:Gentium Book Basic">
    <tspan
       x="1918.65"
       y="-326.37"
       id="tspan46" />
  </text>
  <text
     x="675.20654"
     y="-1658.8303"
     transform="scale(4.0128205,0.24920128)"
     id="text48"
     style="font-size:46.95375824px;text-anchor:middle;font-family:Arial" />
  <text
     x="1529.53"
     y="-798.77002"
     id="text50"
     style="font-size:129.22999573px;line-height:125%;letter-spacing:0;word-spacing:0;font-family:Gentium Book Basic">
    <tspan
       x="1529.53"
       y="-798.77002"
       id="tspan52" />
  </text>
  <text
     x="578.237"
     y="-3554.4807"
     transform="scale(4.0128205,0.24920128)"
     id="text54"
     style="font-size:46.95375824px;text-anchor:middle;font-family:Arial" />
  <text
     x="2110.79"
     y="-878.78003"
     id="text56"
     style="font-size:129.22999573px;line-height:125%;letter-spacing:0;word-spacing:0;font-family:Gentium Book Basic">
    <tspan
       x="2110.79"
       y="-878.78003"
       id="tspan58" />
  </text>
  <text
     x="723.0863"
     y="-3875.519"
     transform="scale(4.0128205,0.24920128)"
     id="text60"
     style="font-size:46.95375824px;text-anchor:middle;font-family:Arial" />
  <text
     x="277.98999"
     y="535.94006"
     id="text62"
     style="font-size:208.33000183px;line-height:125%;letter-spacing:0;word-spacing:0;font-family:Gentium Book Basic">
    <tspan
       x="277.98999"
       y="535.94006"
       id="tspan64" />
  </text>
  <g
     id="g3366">
    <path
       sodipodi:nodetypes="cccccsscscccscssssssscscsccscsccsssscccsccsssscsssccsscsccsscscssccscscsscsccccsccssccsssccsccsssscccsscccsssssscsccssccscccccscsc"
       inkscape:connector-curvature="0"
       id="path3390-3"
       d="m 288.66774,464.89689 c -0.93868,-0.3275 -2.79904,-0.626 -4.13416,-0.6634 -2.48835,-0.07 -10.95464,-2.6291 -11.56741,-3.4968 -0.18774,-0.2658 -1.09502,-0.7189 -2.01622,-1.0067 -0.92114,-0.2879 -2.03035,-0.8669 -2.46488,-1.2867 -2.59137,-2.5036 -5.15653,-4.518 -5.75312,-4.518 -0.37875,0 -0.68862,-0.2472 -0.68862,-0.5493 0,-0.3021 -1.00346,-1.6448 -2.22989,-2.9838 -2.27352,-2.482 -6.64491,-10.2883 -6.64491,-11.8662 0,-0.4792 -0.34946,-0.9877 -0.77661,-1.1301 -2.00025,-0.6667 -3.05607,-22.2367 -1.47991,-30.234 0.67544,-3.4274 4.41344,-11.839 6.3435,-14.2747 1.91041,-2.4111 8.40758,-8.595 9.03039,-8.595 0.33922,0 0.42688,-0.3072 0.19483,-0.68267 -0.23204,-0.37548 -0.0491,-0.68268 0.40729,-0.68268 0.45603,0 1.82282,-0.75789 3.0373,-1.6842 3.01613,-2.30052 11.53738,-5.41739 17.37495,-6.35533 4.1078,-0.66002 20.64764,-0.61257 24.90229,0.0714 3.54957,0.57065 9.72821,2.02395 12.64707,2.97474 2.46589,0.80325 7.50944,3.78285 7.50944,4.43638 0,0.30633 0.59373,0.55697 1.31935,0.55697 0.72561,0 1.51438,0.61441 1.7527,1.36539 0.23832,0.7509 0.7005,1.3653 1.02702,1.3653 0.75661,0 5.44462,4.9203 5.45247,5.7227 0.007,0.3314 0.54799,1.0994 1.21053,1.7067 1.52967,1.4021 4.28782,7.3977 4.43344,9.6375 0.0608,0.9387 0.47419,2.0139 0.91806,2.3894 0.88516,0.7487 1.44701,4.7346 2.078,14.7421 0.35527,5.6339 0.25956,6.6089 -0.68459,6.9712 -0.60369,0.2317 -15.69324,0.4588 -33.53241,0.5047 -17.83917,0.046 -32.57503,0.3104 -32.74638,0.5876 -0.54601,0.8835 0.89703,9.2511 1.63801,9.4981 0.39145,0.1305 0.71176,0.7167 0.71176,1.3027 0,1.1983 4.0592,5.0628 7.16811,6.8242 1.46318,0.829 3.60959,1.1568 7.51621,1.1477 4.73764,-0.011 5.95765,-0.2791 9.13149,-2.0065 2.01485,-1.0966 4.10384,-2.6662 4.64227,-3.4879 1.43383,-2.1883 2.32834,-2.3378 9.62998,-1.6099 3.64502,0.3633 8.16331,0.7975 10.04068,0.9648 1.87736,0.1672 4.74296,0.5227 6.36801,0.79 2.6806,0.4409 4.17355,0.6355 6.82923,0.89 1.08818,0.1043 -1.29798,4.3506 -3.77104,6.7106 -0.86646,0.8269 -1.57542,1.8319 -1.57542,2.2334 0,0.4014 -0.76801,1.0798 -1.70669,1.5075 -0.93868,0.4277 -1.70669,1.1891 -1.70669,1.692 0,0.503 -0.48061,0.9145 -1.06812,0.9145 -0.58744,0 -1.84357,0.9216 -2.79133,2.048 -0.94783,1.1264 -2.28553,2.048 -2.97272,2.048 -0.68711,0 -2.11903,0.4324 -3.18202,0.9609 -8.03791,3.9962 -10.8799,4.5454 -25.14368,4.8593 -7.13398,0.157 -13.73888,0.017 -14.67756,-0.31 z m 27.98976,-56.7008 c 0,-3.4113 -0.36489,-4.6791 -2.21044,-7.6801 -2.64346,-4.2985 -5.11578,-6.6154 -7.09056,-6.6448 -0.79757,-0.012 -2.6408,-0.4405 -4.09606,-0.9526 -2.22539,-0.7831 -3.13403,-0.7848 -5.7179,-0.01 -1.68962,0.5064 -3.58002,0.9254 -4.20092,0.9311 -1.80172,0.016 -6.0277,4.1643 -7.81235,7.6678 -1.08573,2.1314 -1.64027,4.3773 -1.64027,6.6433 l 0,3.4232 15.5309,0.197 c 8.542,0.1083 15.91491,0.2677 16.38425,0.3541 0.60513,0.1115 0.85335,-1.0312 0.85335,-3.9286 z m 106.52248,37.8617 c -4.0235,-1.2536 -7.7277,-3.1618 -8.49094,-4.3741 -0.33847,-0.5375 -1.45601,-1.7991 -2.48351,-2.8035 -2.29693,-2.2453 -5.11072,-7.1851 -5.74957,-10.0938 -0.26195,-1.1925 -0.74514,-2.1682 -1.07372,-2.1682 -0.32864,0 -0.80016,-1.152 -1.04784,-2.5601 -0.42585,-2.4208 -0.84822,-3.9443 -4.30578,-15.5309 -0.78433,-2.6283 -2.32315,-8.3116 -3.4196,-12.6295 -1.62081,-6.3826 -2.91626,-10.4403 -3.87398,-12.13402 -0.058,-0.10295 -2.81291,0.44402 -6.12157,1.21552 -3.30866,0.7715 -6.22219,1.1629 -6.47451,0.8698 -0.43077,-0.5003 -2.55833,-7.37863 -4.17682,-13.50365 -0.39684,-1.50189 -1.28473,-4.51545 -1.97308,-6.69682 -0.90611,-2.87162 -1.02988,-4.0276 -0.44845,-4.18895 0.4417,-0.12256 3.22067,-0.78932 6.17557,-1.48168 2.95483,-0.69236 5.53207,-1.67495 5.72725,-2.18353 0.46183,-1.20357 -1.05508,-8.14447 -2.28861,-10.47206 -0.52818,-0.99661 -0.96032,-3.22385 -0.96032,-4.94941 0,-2.68226 0.19805,-3.13739 1.36536,-3.13739 0.75094,0 1.28855,-0.27291 1.19468,-0.60647 -0.2631,-0.93505 6.93423,-7.7053 7.69295,-7.23639 0.36838,0.2277 0.66985,-0.22615 0.66985,-1.00854 0,-0.83255 0.63707,-1.68508 1.53602,-2.05555 0.84481,-0.34816 4.76167,-3.70904 8.70413,-7.46864 6.45615,-6.15669 7.25584,-6.71934 8.05109,-5.66486 0.48565,0.64393 1.03923,1.93878 1.23011,2.87746 0.19095,0.93869 0.77129,2.62831 1.28965,3.75473 0.51835,1.12642 1.09201,3.12325 1.27483,4.4374 0.378,2.71673 5.00607,20.26258 5.59686,21.21844 0.52593,0.85098 5.08581,0.80126 5.08581,-0.0554 0,-0.37547 0.6243,-0.68268 1.38726,-0.68268 0.76303,0 2.45402,-0.4457 3.7578,-0.99046 1.30378,-0.54475 4.17157,-1.19423 6.37293,-1.44328 l 4.0024,-0.45282 0.47944,2.63797 c 0.26372,1.45088 1.26582,5.18383 2.22703,8.29545 0.96114,3.11162 1.57494,5.83008 1.36399,6.04102 -0.21095,0.21094 0.24221,1.58397 1.00695,3.05118 0.76473,1.46722 1.23271,3.07867 1.03999,3.58101 -0.19279,0.50235 -1.8377,1.29153 -3.6554,1.75375 -1.81762,0.46222 -4.3137,1.27798 -5.54668,1.81281 -1.23305,0.53484 -3.13492,0.97243 -4.22645,0.97243 -1.09154,0 -2.18737,0.32814 -2.43525,0.72921 -0.24788,0.40107 -0.84304,0.57868 -1.32248,0.39469 -0.47945,-0.18399 -1.16799,-0.0383 -1.53009,0.32381 -0.63748,0.63748 -0.40592,1.82051 2.08872,10.66982 0.50279,1.7835 1.76882,6.4683 2.81338,10.4108 1.04457,3.9425 2.16921,7.46 2.49928,7.8167 0.33001,0.3567 0.60001,1.4557 0.60001,2.4423 0,2.3998 3.25132,10.2919 4.67108,11.3384 1.99308,1.469 5.45288,1.7724 7.09506,0.6222 0.82973,-0.5811 2.24062,-1.0566 3.13547,-1.0566 0.89479,0 2.53963,-0.768 3.65519,-1.7067 2.49703,-2.1011 3.06549,-2.1275 3.67622,-0.1707 0.26365,0.8448 0.66834,1.6897 0.89936,1.8774 0.51098,0.4153 2.04837,4.3692 2.78716,7.1681 0.29731,1.1264 1.03644,2.9696 1.64252,4.0961 0.60608,1.1264 1.10389,2.5172 1.10614,3.0908 0,0.5735 0.5228,1.7831 1.15653,2.6879 0.90216,1.288 0.95773,1.7101 0.256,1.944 -0.49296,0.1643 -1.47226,0.8747 -2.1763,1.5787 -0.70398,0.7041 -2.02612,1.2801 -2.93797,1.2801 -0.91186,0 -2.07411,0.4162 -2.58284,0.9249 -1.98182,1.9818 -17.86676,6.9849 -25.19973,7.9368 -6.39068,0.8296 -7.11691,0.8064 -10.81258,-0.345 z"
       style="fill:#ff6600" />
    <path
       sodipodi:nodetypes="csccccssssssscssssccscsccscccsccsscccscsccsssccscssssscsssssscccsssscccsscssscsscsssccsscscsssscsccssscscccssccccssscsccsccssssscscscsscscscccccccssccscssccscscscssccscccccscccccsccscscssccsscsscsccscsscccsscccccscsccscsssssssccsccccscssccccscssscccssssssccccccscscsscccsccscssssccsscccsccsccsccccccsscscccscsscsssscccsccscccscssssssscsssccccsccscssccccscsccccsccscscc"
       inkscape:connector-curvature="0"
       id="path3390-6"
       d="m 86.487004,479.81497 c -0.5632,-0.1647 -1.48482,-0.4775 -2.04803,-0.695 -0.56321,-0.2175 -1.945629,-0.5078 -3.072046,-0.6451 -4.391186,-0.5352 -18.159622,-7.3496 -22.114507,-10.9453 -0.737019,-0.67 -1.748883,-1.5254 -2.248602,-1.9009 -3.920478,-2.9456 -7.04946,-6.1206 -13.792262,-13.9948 -2.497096,-2.9162 -7.242658,-10.3477 -7.242658,-11.342 0,-0.5204 -0.307204,-0.9462 -0.682677,-0.9462 -0.375472,0 -0.682677,-0.5768 -0.682677,-1.2818 0,-0.705 -0.460807,-1.6642 -1.024016,-2.1316 -0.563208,-0.4674 -1.024015,-1.1337 -1.024015,-1.4805 0,-0.3469 -1.026064,-2.8437 -2.280142,-5.5485 -1.254078,-2.7048 -2.828399,-6.6075 -3.498515,-8.6726 -0.670116,-2.0651 -1.640883,-4.9938 -2.15726,-6.5082 -0.516377,-1.5145 -0.938885,-3.7417 -0.938885,-4.9495 0,-1.2077 -0.24276,-2.1958 -0.53952,-2.1958 -0.638849,0 -3.588561,-16.7691 -4.623226,-26.2831 -0.687183,-6.319 -0.440463,-36.7414 0.333693,-41.1394 0.379227,-2.1545 0.85908,-5.4533 1.066341,-7.3307 0.840785,-7.6143 1.143757,-9.3545 2.654317,-15.2447 0.609631,-2.377 1.108395,-5.12 1.108395,-6.0956 0,-0.9756 0.290752,-2.7172 0.646085,-3.8703 0.355334,-1.153 1.143279,-3.9397 1.75093,-6.1925 2.655478,-9.8447 3.885525,-13.6586 4.534546,-14.0597 0.381958,-0.236 0.70739,-0.7021 0.723092,-1.0355 0.05257,-1.1175 0.599527,-2.6349 1.94051,-5.3851 0.732307,-1.5019 1.330606,-3.064 1.329582,-3.4713 0,-0.7302 4.194368,-9.8988 5.441346,-11.889 0.352944,-0.5632 1.415121,-2.56 2.360424,-4.4374 0.945371,-1.8773 1.986181,-3.8742 2.31291,-4.4374 0.326729,-0.5632 1.003467,-1.792 1.503869,-2.7307 0.500471,-0.9387 1.240971,-2.3211 1.645593,-3.072 2.840825,-5.2722 10.148337,-16.7256 10.671199,-16.7256 0.35151,0 0.639122,-0.4472 0.639122,-0.9937 0,-0.9307 1.771616,-3.9672 4.585064,-7.8588 0.669707,-0.9263 1.445501,-2.2517 1.723897,-2.9452 0.29751,-0.7409 0.837986,-1.0559 1.31074,-0.7637 0.548872,0.3392 0.661241,0.124 0.353695,-0.6775 -0.300993,-0.7844 0.147253,-1.729 1.349038,-2.8427 0.989882,-0.9174 1.572478,-1.668 1.294697,-1.668 -0.277781,0 0.662743,-1.6128 2.090016,-3.5841 1.427273,-1.9712 3.63744,-5.1201 4.911452,-6.9974 1.274012,-1.8774 2.669543,-3.4134 3.101063,-3.4134 0.431588,0 0.784669,-0.4608 0.784669,-1.024 0,-0.5632 0.225761,-1.3312 0.501699,-1.7067 0.275938,-0.3755 1.201307,-1.6043 2.056292,-2.7307 0.855052,-1.1264 2.704422,-3.7623 4.109722,-5.8576 1.40529,-2.0952 3.32163,-4.5296 4.25847,-5.4097 0.93683,-0.8801 1.70587,-1.9307 1.70894,-2.3346 0.007,-0.4039 1.53917,-2.3712 3.41339,-4.3717 1.87429,-2.0006 3.407786,-3.9602 3.407786,-4.3547 0,-0.3945 1.07521,-1.9074 2.38937,-3.362 1.31415,-1.4546 2.38937,-2.9511 2.38937,-3.3255 0,-0.3744 0.4608,-0.6807 1.02401,-0.6807 0.56321,0 0.94722,-0.2488 0.85335,-0.5529 -0.1932,-0.6257 3.14222,-5.1093 5.46141,-7.3414 0.84482,-0.8131 1.53603,-1.6955 1.53603,-1.9609 0,-0.2653 0.384,-0.8727 0.85334,-1.3496 0.46934,-0.4769 1.62136,-1.895 2.56004,-3.1512 0.93868,-1.2562 2.39791,-2.8963 3.24272,-3.6446 0.84481,-0.7483 1.53602,-1.6539 1.53602,-2.0125 0,-0.3586 0.69121,-1.327 1.53603,-2.152 0.84481,-0.8251 2.50897,-2.7035 3.69813,-4.1744 0,0 18.42546,-21.9758 25.46412,-29.8218 3.91133,-4.3557 5.46101,-6.1134 8.89699,-10.0918 2.0651,-2.3911 6.28917,-6.9466 9.38681,-10.1232 3.09765,-3.1766 5.63209,-5.8488 5.63209,-5.9382 0,-0.304 4.42259,-5.1582 9.55748,-10.4902 2.81604,-2.9242 6.76342,-7.169 8.77185,-9.433 2.39763,-2.7026 4.34743,-4.2555 5.67735,-4.5214 1.11406,-0.2228 1.85197,-0.686 1.63979,-1.0293 -0.43316,-0.7008 3.36813,-2.2355 3.99196,-1.6117 0.21961,0.2196 0.39936,0.1058 0.39936,-0.253 0,-0.3587 1.76643,-1.522 3.9254,-2.5849 2.15896,-1.063 4.74078,-2.3567 5.73742,-2.8749 0.99664,-0.5182 2.30226,-0.9422 2.90138,-0.9422 0.59911,0 1.08934,-0.3072 1.08934,-0.6827 0,-0.3754 0.69121,-0.6838 1.53603,-0.6852 0.84481,0 2.45763,-0.5517 3.58405,-1.2229 1.12642,-0.6712 3.43045,-1.6285 5.12008,-2.1273 1.68963,-0.4988 4.23028,-1.3309 5.64588,-1.8491 1.41566,-0.5182 3.33569,-0.9422 4.26673,-0.9422 0.9311,0 1.6929,-0.2412 1.6929,-0.5359 0,-0.2947 1.61282,-0.8828 3.58405,-1.3069 1.97123,-0.4241 5.12008,-1.1197 6.99744,-1.5457 17.73275,-4.0243 53.49786,-4.5748 68.95039,-1.0614 2.25284,0.5123 5.22166,1.085 6.59739,1.2728 3.10079,0.4233 14.47795,3.9003 23.09039,7.0568 9.32565,3.4179 29.87539,13.9842 31.12312,16.003 0.57474,0.93 1.65406,0.703 1.65406,-0.3479 0,-0.52 0.76801,-1.4487 1.70669,-2.0638 0.93868,-0.615 1.70669,-1.572 1.70669,-2.1265 0,-0.5546 0.27648,-1.0083 0.61441,-1.0083 0.33793,0 1.68246,-0.9984 2.9878,-2.2187 3.32451,-3.1079 4.42164,-3.9254 5.26781,-3.9254 0.40449,0 1.41588,-0.4436 2.24751,-0.9858 0.83157,-0.5422 2.89442,-1.3189 4.58404,-1.726 1.68963,-0.4071 3.68646,-0.893 4.4374,-1.08 5.88769,-1.4654 18.01067,0.5345 21.55806,3.5564 0.59284,0.5049 1.43765,0.9181 1.87736,0.9181 0.43978,0 0.79962,0.3072 0.79962,0.6827 0,0.3754 0.33554,0.6826 0.74569,0.6826 0.90557,0 4.46805,2.7194 3.61314,2.7581 -0.33226,0.015 0.26494,0.4983 1.32712,1.074 1.14799,0.6222 1.78506,1.4275 1.57084,1.9858 -0.19839,0.5169 0.16569,1.1059 0.80993,1.3104 1.12922,0.3584 5.34714,7.2637 5.95451,9.7483 0.16323,0.6679 0.71879,2.7504 1.23456,4.6278 0.89028,3.2405 0.96694,8.906 0.17087,12.6295 -1.13782,5.322 -1.95061,7.9443 -2.74757,8.8647 -0.49248,0.5688 -1.20431,1.9557 -1.58183,3.0821 -0.37752,1.1265 -0.98442,1.9871 -1.34856,1.9127 -0.36421,-0.074 -1.34849,1.0858 -2.18737,2.5784 -1.43171,2.5473 -8.01326,8.1385 -9.58021,8.1385 -1.22684,0 -0.79163,1.8477 1.67754,7.1215 1.31416,2.8069 2.38937,5.5273 2.38937,6.0453 0,0.518 0.21894,1.1607 0.48648,1.4283 0.94762,0.9476 2.86956,6.791 2.45456,7.4625 -0.2317,0.3749 -0.0863,0.4747 0.32305,0.2216 0.47883,-0.2959 0.90263,0.7014 1.18813,2.7959 0.24406,1.7908 0.87737,4.4848 1.40741,5.9867 0.53003,1.5019 1.11412,3.8059 1.29797,5.12 0.18384,1.3142 0.67462,3.9254 1.09071,5.8028 0.41603,1.8774 0.82379,9.9064 0.90612,17.8423 0.16309,15.7305 0.38674,16.6329 4.12159,16.6329 1.50237,0 4.81854,1.3638 10.09639,4.1524 0.65202,0.3445 1.51827,0.6263 1.92508,0.6263 0.40674,0 2.02373,0.8699 3.59327,1.9331 1.56954,1.0632 3.39134,2.1288 4.04841,2.368 0.65708,0.2391 1.19469,0.7698 1.19469,1.1792 0,0.4094 0.30761,0.5543 0.68349,0.322 0.81703,-0.505 12.43032,11.1102 15.40536,15.4079 1.15168,1.6637 2.80465,4.4073 3.67335,6.0969 0.86864,1.6896 1.98639,3.8644 2.48379,4.8328 0.49746,0.9685 1.08354,2.7772 1.30241,4.0195 0.21886,1.2422 0.69326,2.8105 1.05426,3.4851 0.361,0.6745 0.65639,3.9732 0.65639,7.3304 0,4.9549 -0.30686,6.7948 -1.63003,9.7731 -1.65706,3.7297 -6.76977,10.1544 -8.08085,10.1544 -0.39609,0 -1.06115,0.4551 -1.47806,1.0113 -0.41684,0.5562 -1.37232,1.1108 -2.12326,1.2324 -0.75095,0.1217 -2.34855,0.7419 -3.55013,1.3781 -3.29733,1.746 -15.35163,1.6216 -20.1656,-0.2081 -1.97526,-0.7507 -4.15887,-1.3651 -4.85247,-1.3653 -1.11808,-3e-4 -11.86274,-5.1591 -12.73377,-6.1138 -0.18773,-0.2058 -1.13822,-0.784 -2.11213,-1.2848 -0.97398,-0.5008 -3.08645,-2.1131 -4.69436,-3.5829 -1.60798,-1.4699 -3.05812,-2.6724 -3.22265,-2.6724 -0.16452,0 -1.08047,-0.9286 -2.0354,-2.0634 -3.15697,-3.7519 -3.86859,-3.7367 -5.95561,0.1276 -1.7996,3.332 -2.29563,4.0627 -4.50819,6.6398 -0.56321,0.656 -1.78083,2.2463 -2.70579,3.5339 -6.30794,8.7814 -25.82595,27.944 -28.46224,27.944 -0.50478,0 -0.91779,0.4608 -0.91779,1.024 0,0.9377 -0.83362,1.3373 -2.26943,1.0879 -0.30952,-0.054 -0.36817,0.2171 -0.13039,0.6019 0.23778,0.3847 0.16849,0.6996 -0.15401,0.6996 -0.3225,0 -2.48624,1.3824 -4.8083,3.072 -2.32199,1.6896 -4.55585,3.072 -4.96409,3.072 -0.40817,0 -1.17038,0.384 -1.69372,0.8534 -2.61684,2.3467 -3.3017,2.7307 -4.87042,2.7307 -0.93404,0 -1.87818,0.4688 -2.09807,1.0418 -0.51413,1.3397 -18.00309,9.7104 -20.28807,9.7104 -0.95268,0 -1.73216,0.2818 -1.73216,0.6263 0,0.8564 -19.59625,7.0946 -24.63522,7.8422 -1.34652,0.1998 -2.88254,0.5177 -3.41339,0.7064 -2.3323,0.829 -7.48453,1.6356 -19.22678,3.0098 -7.07131,0.8276 -31.77104,0.53 -39.4246,-0.4749 -9.72897,-1.2775 -22.58733,-4.0658 -23.26769,-5.0455 -0.21886,-0.3153 -1.21728,-0.2617 -2.2187,0.1191 -1.69679,0.6451 -1.82418,0.9837 -1.87142,4.9758 -0.028,2.356 -0.18057,5.0517 -0.33915,5.9904 -0.15866,0.9386 -0.59946,3.7035 -0.97951,6.1441 -0.38004,2.4405 -0.86352,5.5126 -1.07433,6.8267 -0.21088,1.3142 -0.96155,4.5398 -1.66825,7.1681 -0.70664,2.6283 -1.64751,6.1612 -2.0907,7.8508 -0.44327,1.6897 -1.0447,3.6865 -1.33655,4.4374 -0.29184,0.751 -1.04593,3.055 -1.67563,5.1201 -0.62977,2.0651 -1.53957,4.6763 -2.02188,5.8028 -3.37878,7.8918 -5.29553,12.6885 -5.5359,13.8538 -0.10022,0.4856 -1.00702,2.4604 -2.01506,4.3883 -1.00811,1.9279 -2.07069,3.9882 -2.36138,4.5785 -4.35131,8.8362 -5.95758,11.6411 -6.67003,11.6472 -0.46934,0 -0.85334,0.3327 -0.85334,0.7303 0,0.3977 0.30952,0.5317 0.68786,0.2979 0.39787,-0.2459 0.35165,0.3128 -0.10957,1.325 -0.43862,0.9626 -0.98933,1.7502 -1.22383,1.7502 -0.2345,0 -1.33723,1.6886 -2.45047,3.7524 -1.11324,2.0637 -2.25447,3.7534 -2.53608,3.7547 -0.2816,0.001 -0.51201,0.4632 -0.51201,1.0264 0,0.5632 -0.2588,1.024 -0.57515,1.024 -0.31636,0 -1.15427,1.0752 -1.86194,2.3894 -0.70773,1.3141 -1.52414,2.3893 -1.81421,2.3893 -0.29007,0 -0.52744,0.4705 -0.52744,1.0455 0,0.575 -0.4608,1.2222 -1.02401,1.4384 -0.56321,0.2161 -1.02402,0.6802 -1.02402,1.0314 0,0.3511 -0.31642,1.0095 -0.70309,1.463 -0.38673,0.4535 -1.84596,2.3728 -3.24271,4.2651 -3.32225,4.5008 -3.93359,5.1769 -12.81713,14.1746 -8.50172,8.6111 -13.67853,13.185 -14.64424,12.9389 -0.35909,-0.091 -1.15304,0.5971 -1.76445,1.5302 -0.61134,0.933 -1.36419,1.5404 -1.6729,1.3496 -0.30871,-0.1908 -0.96626,0.2269 -1.46134,0.9282 -0.49501,0.7013 -1.82165,1.791 -2.94807,2.4216 -1.12642,0.6305 -2.96965,1.753 -4.09606,2.4945 -3.53818,2.3289 -16.48584,8.3945 -17.92028,8.3951 -0.46934,2e-4 -0.85334,0.2563 -0.85334,0.5692 0,0.3129 -0.23041,0.5201 -0.51201,0.4605 -0.28161,-0.06 -0.97282,0.066 -1.53602,0.2793 -0.56321,0.2132 -3.74524,1.0411 -7.07124,1.8397 -4.96532,1.1924 -7.89666,1.4306 -16.384246,1.3316 -5.68534,-0.066 -10.79784,-0.2553 -11.36105,-0.4201 z M 297.43422,301.04907 c 2.0651,-0.2121 5.18726,-0.7997 6.93805,-1.3058 1.75086,-0.5062 3.34806,-0.7556 3.54924,-0.5544 0.20118,0.2012 1.37996,0 2.61943,-0.4549 3.63253,-1.323 12.41947,-3.3487 12.99169,-2.995 0.28932,0.1788 0.526,0.027 0.526,-0.3379 0,-0.3646 1.22882,-0.8706 2.73071,-1.1243 1.50189,-0.2538 2.73071,-0.7416 2.73071,-1.084 0,-0.3425 0.63427,-0.6227 1.40945,-0.6227 1.55637,0 6.63808,-1.9099 11.91361,-4.4775 1.8833,-0.9166 3.95693,-1.6666 4.60807,-1.6666 0.65107,0 1.18383,-0.246 1.18383,-0.5466 0,-0.3007 1.30562,-1.216 2.90137,-2.034 1.59576,-0.818 4.1302,-2.2584 5.63209,-3.2008 1.50189,-0.9424 3.49872,-2.0445 4.4374,-2.4489 0.93868,-0.4045 2.3979,-1.383 3.24272,-2.1743 0.84481,-0.7914 1.53602,-1.2198 1.53602,-0.952 0,0.2678 0.69121,-0.1655 1.53602,-0.9629 0.84482,-0.7975 2.34363,-1.8733 3.33065,-2.3907 0.98708,-0.5175 1.99273,-1.457 2.23481,-2.0879 0.24208,-0.6308 0.60697,-0.9801 0.81088,-0.7761 0.20392,0.2039 1.41526,-0.6738 2.69187,-1.9504 1.27661,-1.2766 2.56174,-2.3308 2.85591,-2.3426 0.83724,-0.034 4.28947,-3.2497 4.28947,-3.9958 0,-0.3682 0.5376,-0.8564 1.19468,-1.0849 0.65708,-0.2285 2.1163,-1.6174 3.24272,-3.0864 1.12641,-1.4691 2.43203,-2.6852 2.90137,-2.7026 0.46934,-0.017 0.77655,-0.2966 0.68268,-0.6206 -0.14821,-0.5114 4.24468,-5.9734 7.85079,-9.7615 0.65707,-0.6903 1.19468,-1.4538 1.19468,-1.6967 0,-0.2429 1.07522,-1.7539 2.38937,-3.3576 1.31416,-1.6038 2.38937,-3.3439 2.38937,-3.867 0,-0.5231 0.61441,-1.6106 1.36536,-2.4166 0.75094,-0.806 1.36535,-1.6185 1.36535,-1.8054 0,-0.1869 0.95165,-1.9539 2.11487,-3.9266 1.16314,-1.9727 2.22805,-4.1749 2.3665,-4.8937 0.13844,-0.7189 0.68991,-1.9758 1.22547,-2.7932 0.92277,-1.4083 1.62149,-3.2047 4.66637,-11.9974 4.18317,-12.0797 5.8784,-26.7251 4.82038,-41.6433 -0.38612,-5.4444 -0.9128,-10.9741 -1.17038,-12.2882 -0.75647,-3.8594 -4.43467,-16.6212 -5.16233,-17.911 -0.36783,-0.652 -0.66875,-1.7426 -0.66875,-2.4235 0,-0.681 -0.26912,-1.53 -0.5981,-1.8867 -0.32898,-0.3567 -1.47062,-2.6453 -2.53696,-5.0859 -2.68483,-6.1447 -5.37649,-9.7444 -7.4519,-9.9656 -2.507,-0.2673 -4.56267,-0.9641 -6.47997,-2.1963 -0.93868,-0.6033 -2.10599,-1.1608 -2.59397,-1.2388 -1.2977,-0.2076 -2.90602,-1.6862 -2.51764,-2.3146 0.18411,-0.2979 -0.22099,-0.3963 -0.90018,-0.2187 -1.62634,0.4253 -7.80123,-5.9024 -10.53719,-10.798 -2.20519,-3.9459 -4.60043,-10.9005 -4.60882,-13.382 0,-0.8484 -0.6635,-2.0773 -1.4681,-2.7307 -0.8046,-0.6534 -1.94809,-1.7256 -2.54106,-2.3827 -0.59304,-0.657 -1.32064,-1.1946 -1.61692,-1.1946 -0.29622,0 -2.30158,-1.1813 -4.45631,-2.625 -2.15474,-1.4437 -6.68252,-3.9562 -10.06178,-5.5832 -3.37925,-1.6271 -7.21931,-3.4915 -8.53346,-4.1431 -3.36532,-1.6687 -18.00718,-6.514 -22.69901,-7.5117 -2.15897,-0.459 -3.9254,-1.0612 -3.9254,-1.3381 0,-0.2769 -1.63747,-0.523 -3.63887,-0.5469 -2.0014,-0.024 -4.50137,-0.3713 -5.55535,-0.7721 -5.59775,-2.1282 -37.22591,-2.2972 -46.69109,-0.2494 -2.38875,0.5168 -5.6144,0.9801 -7.16811,1.0296 -1.5537,0.049 -3.90013,0.4904 -5.21429,0.9799 -1.31415,0.4895 -4.5398,1.388 -7.1681,1.9967 -5.07148,1.1745 -7.54796,1.9568 -11.02599,3.4831 -1.18315,0.5192 -2.53594,0.9439 -3.00617,0.9439 -0.4703,0 -2.47539,0.7666 -4.4559,1.7035 -1.98045,0.937 -4.16051,1.8272 -4.84462,1.9785 -2.57308,0.5688 -4.31575,1.2722 -4.31575,1.7419 0,0.2672 -3.67075,2.2482 -8.1573,4.4021 -7.57731,3.6378 -8.11362,4.0223 -7.54297,5.4079 0.33785,0.8205 1.26261,5.639 2.05499,10.7079 0.79245,5.0688 1.71932,9.9841 2.05971,10.9228 0.34045,0.9387 0.77798,2.9355 0.97233,4.4374 0.19436,1.5019 0.63954,4.2667 0.9892,6.1441 0.34974,1.8774 1.26282,7.407 2.02912,12.2882 0.76638,4.8811 1.84146,11.0252 2.3891,13.6535 0.54764,2.6283 0.99657,5.854 0.99773,7.1681 0,1.3142 0.33868,3.8641 0.75027,5.6664 0.41151,1.8024 0.9057,4.5672 1.09815,6.1441 0.19245,1.5769 0.79095,5.4783 1.32999,8.6699 0.53911,3.1915 1.31375,9.182 1.72137,13.3122 0.72603,7.3548 2.47566,21.5399 3.073,24.9139 0.16583,0.9366 0.77184,7.5415 1.34672,14.6776 0.57495,7.136 1.18806,14.357 1.36256,16.0466 0.17449,1.6897 0.48538,5.9905 0.69087,9.5575 0.20555,3.567 0.53795,7.7806 0.73879,9.3636 0.20084,1.5829 0.37117,11.2599 0.37848,21.5043 0.0137,18.9657 0.21087,20.5186 2.64073,20.7876 0.56321,0.062 1.94563,0.4194 3.07204,0.7935 2.85312,0.9476 11.86903,3.0114 14.33622,3.2816 1.12642,0.1234 4.04486,0.5418 6.48543,0.9299 2.44058,0.388 5.51262,0.8281 6.82678,0.9778 3.07341,0.3504 30.57649,-0.1836 35.4992,-0.6892 z m -30.97763,-173.0011 c -1.08006,-0.3377 -2.55123,-1.2445 -3.26927,-2.0152 -0.71804,-0.7707 -1.61883,-1.4013 -2.00188,-1.4013 -0.38299,0 -0.50648,-0.3072 -0.27444,-0.6827 0.23204,-0.3754 0.0809,-0.6826 -0.33588,-0.6826 -0.99718,0 -2.73617,-4.2229 -2.73617,-6.6443 0,-2.1489 2.22867,-6.7253 4.17451,-8.5719 0.70779,-0.6717 1.28691,-0.997 1.28691,-0.7229 0,0.2742 0.43609,-0.098 0.96913,-0.8267 0.79784,-1.091 1.7669,-1.3163 5.48326,-1.2752 3.83023,0.042 4.67183,0.2751 5.55501,1.536 0.5725,0.8173 1.4939,1.4861 2.04762,1.4861 0.55372,0 1.19742,0.5376 1.43042,1.1947 0.233,0.657 0.79559,1.6554 1.25018,2.2187 1.29122,1.5996 1.76582,5.4 1.0202,8.169 -1.01419,3.7665 -5.83614,8.0045 -9.63353,8.4668 -1.65119,0.201 -3.88594,0.089 -4.96607,-0.2485 z m 209.87371,124.2264 c 1.47185,-0.7508 3.21104,-2.206 3.86498,-3.2338 0.65387,-1.0277 1.41027,-2.0303 1.68082,-2.228 1.07542,-0.7859 0.85771,-15.0008 -0.22972,-15.0008 -0.31465,0 -0.57202,-0.4031 -0.57202,-0.8958 0,-1.292 -2.65438,-6.5999 -4.53448,-9.0674 -0.88529,-1.1619 -1.60961,-2.4452 -1.60961,-2.8519 0,-0.4066 -0.76801,-1.3434 -1.70669,-2.0818 -0.93869,-0.7384 -1.7067,-1.5382 -1.7067,-1.7773 0,-0.2392 -1.1144,-1.4238 -2.47648,-2.6325 -1.36207,-1.2087 -3.11068,-2.893 -3.88586,-3.7428 -1.57951,-1.7319 -13.59565,-8.3536 -15.15878,-8.3536 -0.55399,0 -1.00722,-0.3072 -1.00722,-0.6827 0,-0.3755 -0.77764,-0.6827 -1.72813,-0.6827 -0.95042,0 -1.90494,-0.4608 -2.12108,-1.024 -0.53515,-1.3946 -2.96432,-1.2928 -4.07524,0.1707 -0.49883,0.6571 -0.9167,2.1749 -0.92864,3.3731 -0.0116,1.1981 -0.32892,2.3683 -0.70439,2.6003 -0.37547,0.2321 -0.68268,1.4609 -0.68268,2.7307 0,1.2698 -0.3072,2.4987 -0.68267,2.7307 -0.37548,0.2321 -0.67995,1.095 -0.67661,1.9177 0.007,1.2021 1.24432,2.1136 6.31477,4.6438 3.46977,1.7314 6.23188,3.4978 6.13802,3.9254 -0.0939,0.4275 0.31949,0.7773 0.91861,0.7773 1.12204,0 5.00771,2.4521 5.89771,3.7218 0.73395,1.0471 0.64158,1.523 -0.52129,2.6859 -1.18001,1.1799 -2.57697,0.8283 -4.94265,-1.2441 -0.88448,-0.7749 -2.80956,-2.0571 -4.278,-2.8495 -1.46837,-0.7923 -2.47327,-1.6371 -2.23303,-1.8773 0.24023,-0.2403 -0.16753,-0.4368 -0.90626,-0.4368 -1.61617,0 -5.01583,-1.5016 -5.02327,-2.2187 0,-0.2816 -0.77996,-0.512 -1.72663,-0.512 -1.23735,0 -1.93641,0.5279 -2.4861,1.8773 -0.4206,1.0326 -1.37847,3.2598 -2.12852,4.9495 -3.30273,7.4395 -3.31542,7.4862 -2.38842,8.8048 0.48047,0.6833 2.17918,2.6997 3.77493,4.4807 1.59576,1.7811 2.90138,3.5322 2.90138,3.8915 0,0.3592 0.2883,0.4749 0.64069,0.2572 0.3524,-0.2178 0.89001,0.01 1.19469,0.5057 0.53979,0.8785 11.14525,7.3191 12.05218,7.3191 0.25048,0 1.91355,0.7035 3.69575,1.5632 1.78219,0.8598 4.61319,1.6442 6.29107,1.7432 1.67782,0.099 3.21343,0.3504 3.41236,0.5586 0.7689,0.8046 9.8014,-0.5379 12.34321,-1.8347 z"
       style="fill:#00bbf2;fill-opacity:1" />
    <circle
       r="15"
       cy="117.31961"
       cx="269.6543"
       id="path3422"
       style="fill:#ff6600;fill-opacity:1;stroke:none;stroke-width:50;stroke-miterlimit:4;stroke-dasharray:none;stroke-opacity:1" />
  </g>
</svg>
