<?xml version="1.0" encoding="UTF-8" standalone="no"?>
<!-- Created with Inkscape (http://www.inkscape.org/) -->

<svg
   xmlns:dc="http://purl.org/dc/elements/1.1/"
   xmlns:cc="http://creativecommons.org/ns#"
   xmlns:rdf="http://www.w3.org/1999/02/22-rdf-syntax-ns#"
   xmlns:svg="http://www.w3.org/2000/svg"
   xmlns="http://www.w3.org/2000/svg"
   xmlns:sodipodi="http://sodipodi.sourceforge.net/DTD/sodipodi-0.dtd"
   xmlns:inkscape="http://www.inkscape.org/namespaces/inkscape"
   id="svg2"
   version="1.1"
   inkscape:version="0.91 r13725"
   width="500"
   height="500"
   sodipodi:docname="pixlr-touch-up.svg">
  <metadata
     id="metadata8">
    <rdf:RDF>
      <cc:Work
         rdf:about="">
        <dc:format>image/svg+xml</dc:format>
        <dc:type
           rdf:resource="http://purl.org/dc/dcmitype/StillImage" />
        <dc:title />
      </cc:Work>
    </rdf:RDF>
  </metadata>
  <defs
     id="defs6">
    <clipPath
       clipPathUnits="userSpaceOnUse"
       id="clipPath3341">
      <circle
         style="fill:none;stroke:#000000;stroke-width:11.24822521;stroke-miterlimit:4;stroke-opacity:1;stroke-dasharray:none;stroke-dashoffset:0"
         id="circle3343"
         cx="515.44489"
         cy="510.69141"
         r="435.84955"
         sodipodi:cx="515.44489"
         sodipodi:cy="510.69141"
         sodipodi:rx="435.84955"
         sodipodi:ry="435.84955" />
    </clipPath>
  </defs>
  <sodipodi:namedview
     pagecolor="#ffffff"
     bordercolor="#666666"
     borderopacity="1"
     objecttolerance="10"
     gridtolerance="10"
     guidetolerance="10"
     inkscape:pageopacity="0"
     inkscape:pageshadow="2"
     inkscape:window-width="1366"
     inkscape:window-height="715"
     id="namedview4"
     showgrid="false"
     inkscape:zoom="0.521"
     inkscape:cx="900.82938"
     inkscape:cy="370.69616"
     inkscape:window-x="0"
     inkscape:window-y="24"
     inkscape:window-maximized="1"
     inkscape:current-layer="svg2" />
  <g
     id="g4243">
    <path
       d="M 460.09444,248.91603 A 212.40347,210.36766 0 0 1 247.94027,459.28355 212.40347,210.36766 0 0 1 35.288076,249.40986 212.40347,210.36766 0 0 1 246.94305,38.549675 212.40347,210.36766 0 0 1 460.0921,247.92838"
       sodipodi:open="true"
       sodipodi:end="6.2784904"
       sodipodi:start="0"
       sodipodi:ry="210.36766"
       sodipodi:rx="212.40347"
       sodipodi:cy="248.91603"
       sodipodi:cx="247.69096"
       sodipodi:type="arc"
       id="path3441"
       style="fill:#394050;fill-opacity:1;stroke:none;stroke-width:50;stroke-miterlimit:4;stroke-dasharray:none;stroke-opacity:1" />
    <path
       sodipodi:nodetypes="sssscssssssccscsccccssssscssccsssss"
       inkscape:connector-curvature="0"
       id="path3350-3-6-7-5"
       d="m 160.56155,64.810833 c 5.29922,-2.993618 25.65856,-10.463509 37.05154,-13.594307 32.27036,-8.867895 72.91115,-9.12211 105.2273,-0.658127 19.78058,5.180829 42.30598,14.858715 57.38726,24.656016 8.83894,5.742172 23.38811,16.302893 24.46013,17.75473 2.76804,3.748987 0.41718,47.306935 -3.43663,63.673815 -5.243,22.26688 -6.80771,27.11995 -16.68246,51.7449 -2.49502,6.22189 -15.56647,29.44258 -18.17265,32.28271 -1.22001,1.32939 -2.17926,2.92237 -2.13185,3.54001 0.0474,0.6176 -0.8113,1.77941 -1.90813,2.58166 -1.0969,0.80232 -2.13161,2.06941 -2.29943,2.81581 -0.44797,1.99283 -11.47062,14.73874 -12.59657,14.56589 -0.52835,-0.0812 -1.1812,-1.714 -1.45081,-3.62849 -0.83086,-5.90053 -3.12824,-16.25799 -4.6314,-20.87972 -0.78719,-2.42034 -1.39007,-5.01293 -1.33958,-5.76144 0.0506,-0.74851 -0.53114,-2.21264 -1.2926,-3.25361 -0.7614,-1.04099 -1.30311,-2.41134 -1.20383,-3.04523 0.16366,-1.04473 -2.39548,-7.99726 -5.3652,-14.57524 -0.63544,-1.40777 -1.39644,-3.60892 -1.69104,-4.8915 -4.391,-13.20446 -11.32625,-18.61424 -16.53231,-32.16815 -2.62744,-7.13573 -36.12248,-48.12894 -41.25809,-50.4941 -1.09115,-0.50255 -2.8467,-2.09329 -3.90124,-3.53497 -1.05452,-1.44171 -2.49826,-2.57514 -3.20829,-2.51872 -0.71005,0.0564 -2.2786,-1.2476 -3.48568,-2.89786 -1.20709,-1.65027 -2.72116,-2.95869 -3.36476,-2.90751 -0.64351,0.0512 -2.90512,-1.70138 -5.02585,-3.89448 -2.12066,-2.19317 -4.2187,-3.7221 -4.66214,-3.39775 -0.44353,0.32443 -1.47809,-0.32837 -2.299,-1.45073 -0.82091,-1.12231 -2.08865,-2.18675 -2.81732,-2.36535 -0.72857,-0.17869 -3.02137,-1.53518 -5.09504,-3.014528 -3.3294,-2.37548 -14.61684,-8.858064 -22.42326,-12.878813 -6.50344,-3.349624 -15.11884,-6.968987 -28.02278,-11.772489 -7.59754,-2.828257 -13.97575,-5.363848 -14.17382,-5.634616 -0.36815,-0.503339 0.42654,-1.054119 6.34548,-4.397808 z"
       style="fill:#f03916;fill-opacity:1" />
    <path
       inkscape:connector-curvature="0"
       id="path3367-6"
       d="M 249.20764,25.001798 A 225,225 0 0 0 25.000617,250.52718 225,225 0 0 0 250.26428,474.99984 a 225,225 0 0 0 224.73633,-225 l -0.002,-1.05664 A 225,225 0 0 0 249.20764,25.001798 Z m 0.0703,20 A 205,205 0 0 1 454.99866,249.03695 l 0.002,0.96289 a 205,205 0 0 1 -204.75977,205 A 205,205 0 0 1 45.000617,250.48031 205,205 0 0 1 249.27795,45.001798 Z"
       style="opacity:1;fill:#d3d3d3;fill-opacity:1;stroke:none;stroke-width:0.2;stroke-miterlimit:4;stroke-dasharray:none;stroke-opacity:0.23529412" />
    <path
       sodipodi:nodetypes="sssscssssssccscsccccssssscssccsssss"
       inkscape:connector-curvature="0"
       id="path3350-3"
       d="m 214.33107,451.89735 c -6.0445,-0.71222 -26.88722,-6.70253 -37.93121,-10.90161 -31.28183,-11.89378 -64.2345,-35.68161 -85.321099,-61.59159 -12.907,-15.85945 -25.37451,-36.96907 -31.76312,-53.78031 -3.74421,-9.85293 -9.25264,-26.96621 -9.26079,-28.77094 -0.0209,-4.66008 27.59177,-38.42933 40.36479,-49.36443 17.377459,-14.87706 21.505479,-17.87042 44.013509,-31.91631 5.68704,-3.54892 29.94619,-14.57418 33.72646,-15.32793 1.7695,-0.3528 3.48421,-1.07222 3.81057,-1.5987 0.32637,-0.52647 1.70535,-0.95724 3.06426,-0.95724 1.35902,0 2.9422,-0.41186 3.5183,-0.91526 1.53808,-1.34402 17.9596,-5.12426 18.76637,-4.32002 0.37851,0.37745 -0.0585,2.08078 -0.97115,3.78519 -2.81287,5.25302 -7.0733,14.9692 -8.58856,19.58698 -0.79352,2.41825 -1.83754,4.86674 -2.32013,5.44108 -0.4827,0.57432 -0.87754,2.09947 -0.87754,3.38921 0,1.28973 -0.37178,2.7156 -0.82615,3.16863 -0.74887,0.7466 -2.78785,7.86906 -4.27432,14.93161 -0.31821,1.5114 -1.00346,3.73729 -1.52288,4.94642 -4.25136,13.25009 -1.84745,21.71085 -5.64725,35.72417 -2.092,7.31064 0.74192,60.17207 3.49073,65.11298 0.58403,1.0498 1.0619,3.37015 1.0619,5.15635 0,1.78622 0.49615,3.55337 1.10257,3.92702 0.60641,0.37363 1.10256,2.35221 1.10256,4.39681 0,2.04462 0.44963,3.99455 0.99926,4.33319 0.54963,0.33862 1.34039,3.08835 1.75738,6.1105 0.41688,3.02213 1.20764,5.49479 1.75705,5.49479 0.54953,0 0.99915,1.13769 0.99915,2.52818 0,1.39051 0.39484,2.99809 0.87754,3.57242 0.48259,0.57433 1.53234,3.02282 2.33269,5.44107 1.28517,3.88282 6.56824,15.77898 10.49535,23.63291 3.27165,6.54301 8.08866,14.55057 15.66805,26.04573 4.46252,6.76813 8.11368,12.58017 8.11368,12.91566 0,0.6236 -0.96662,0.59898 -7.71797,-0.19655 z"
       style="fill:#00bbf2;fill-opacity:1" />
    <path
       sodipodi:nodetypes="sssscssssssccscsccccssssscssccsssss"
       inkscape:connector-curvature="0"
       id="path3350-3-6"
       d="m 431.48545,347.05871 c -2.57237,5.516 -14.79843,23.42762 -22.24992,32.59698 -21.10619,25.97199 -54.0302,49.79946 -85.24702,61.6941 -19.10772,7.28062 -43.06277,12.49702 -61.02951,13.28969 -10.53013,0.46449 -28.50757,0.32666 -30.22375,-0.23172 -4.43143,-1.44197 -27.83447,-38.25392 -34.21089,-53.81245 -8.67507,-21.1671 -10.22242,-26.02574 -16.49888,-51.80373 -1.58584,-6.51324 -4.44481,-33.00643 -3.9747,-36.83234 0.22014,-1.79086 0.0749,-3.64469 -0.32267,-4.11974 -0.39752,-0.47503 -0.37398,-1.91954 0.0523,-3.20987 0.42629,-1.29041 0.53185,-2.92289 0.23461,-3.62782 -0.7937,-1.88204 0.76809,-18.66052 1.78481,-19.17429 0.47713,-0.241 1.95739,0.70827 3.28949,2.10951 4.10553,4.31869 11.99485,11.41193 15.90423,14.29924 2.04728,1.51205 4.04468,3.27144 4.43865,3.90984 0.39391,0.63849 1.71824,1.49182 2.94288,1.89639 1.22463,0.40458 2.4619,1.20487 2.74953,1.77841 0.47402,0.94528 6.59737,5.11557 12.83717,8.74244 1.33529,0.77626 3.23387,2.12516 4.21904,2.99765 11.24771,8.19318 20.0355,8.56463 32.14957,16.56845 6.28541,4.27967 57.36768,18.17076 62.92147,17.1106 1.18002,-0.22524 3.53316,0.0489 5.2292,0.60918 1.69605,0.56031 3.52966,0.64354 4.07466,0.18495 0.545,-0.45861 2.57935,-0.30907 4.52076,0.33227 1.94142,0.64137 3.93397,0.82611 4.42794,0.4104 0.49393,-0.41566 3.35293,-0.30395 6.35333,0.24811 3.00037,0.55218 5.59629,0.57697 5.76863,0.0553 0.17237,-0.52179 1.39368,-0.59183 2.71399,-0.15565 1.32032,0.43618 2.97062,0.56555 3.66737,0.28738 0.69673,-0.27807 3.35093,-0.50677 5.89818,-0.50815 4.08998,-0.002 17.04292,-1.28705 25.73233,-2.55226 7.23904,-1.05405 16.35347,-3.11606 29.64598,-6.707 7.82635,-2.1142 14.49036,-3.7579 14.80892,-3.65267 0.59212,0.19563 0.26553,1.10572 -2.60766,7.26676 z"
       style="fill:#9932cc;fill-opacity:1" />
    <path
       sodipodi:nodetypes="sssscssssssccscsccccssssscssccsssss"
       inkscape:connector-curvature="0"
       id="path3350-3-6-7"
       d="m 399.11534,108.12792 c 4.43988,4.16304 17.65031,21.3615 24.04139,31.2991 18.10257,28.14804 30.48509,66.85737 32.06078,100.22636 0.96442,20.42504 -1.54299,44.8129 -6.38801,62.13219 -2.8397,10.15065 -8.57224,27.19017 -9.63756,28.64693 -2.75097,3.76152 -45.02244,14.5293 -61.79324,15.74043 -22.81638,1.64777 -27.91528,1.60419 -54.36564,-0.46394 -6.68312,-0.52255 -32.74823,-6.06089 -36.23719,-7.6997 -1.63312,-0.7672 -3.43991,-1.20682 -4.01519,-0.97706 -0.57525,0.22972 -1.94051,-0.24274 -3.03377,-1.04985 -1.09335,-0.80715 -2.61167,-1.41612 -3.37412,-1.35333 -2.03566,0.16777 -17.49222,-6.54426 -17.66361,-7.67044 -0.0803,-0.52848 1.28291,-1.63926 3.02945,-2.46844 5.38294,-2.55549 14.58127,-7.84188 18.54296,-10.65698 2.07469,-1.47423 4.36886,-2.82399 5.09824,-2.99943 0.72944,-0.17535 1.95294,-1.16786 2.71894,-2.20548 0.76603,-1.0376 1.912,-1.96391 2.5466,-2.05852 1.04592,-0.15588 6.91657,-4.67498 12.30713,-9.47404 1.15368,-1.02695 3.02701,-2.41071 4.16303,-3.07498 11.28995,-8.13486 14.38109,-16.36943 25.76106,-25.38653 6.02508,-4.63901 35.14129,-48.84995 35.8644,-54.45759 0.15366,-1.19145 1.14736,-3.34203 2.20822,-4.77906 1.06088,-1.43703 1.7113,-3.15343 1.44536,-3.81419 -0.26597,-0.66076 0.51,-2.54724 1.72434,-4.19216 1.21436,-1.64493 2.01076,-3.48072 1.76967,-4.07964 -0.24107,-0.59884 0.75591,-3.28071 2.21538,-5.95972 1.45957,-2.67896 2.29198,-5.13792 1.84998,-5.46423 -0.4421,-0.32637 -0.12815,-1.5087 0.69775,-2.62738 0.82586,-1.11868 1.46301,-2.64651 1.41579,-3.39525 -0.0471,-0.74869 0.56256,-3.34201 1.35495,-5.76289 1.27249,-3.88698 4.0874,-16.5955 5.5927,-25.24655 1.25403,-7.20709 2.13462,-16.51028 2.86424,-30.25994 0.42965,-8.09549 0.94422,-14.93991 1.14346,-15.20982 0.37039,-0.50169 1.13341,0.0922 6.09249,4.74208 z"
       style="fill:#ffcc00;fill-opacity:1" />
    <path
       sodipodi:nodetypes="sssscssssssccscsccccssssscssccsssss"
       inkscape:connector-curvature="0"
       id="path3350-3-6-7-5-3"
       d="m 47.052013,280.87415 c -1.249471,-5.9567 -2.207492,-27.62198 -1.743489,-39.42819 1.314296,-33.44081 13.371564,-72.25268 31.218812,-100.4918 10.924283,-17.28503 26.965434,-35.82518 40.867494,-47.234146 8.14791,-6.686619 22.61656,-17.357396 24.32475,-17.939758 4.4109,-1.503635 45.21472,13.919395 59.64774,22.545762 19.63593,11.736002 23.78787,14.696062 44.26952,31.560242 5.17502,4.26102 23.35081,23.74701 25.26901,27.09051 0.89783,1.56512 2.1258,2.96149 2.72882,3.10323 0.60298,0.14173 1.45043,1.31177 1.88312,2.59996 0.43272,1.28827 1.32724,2.65794 1.98786,3.04378 1.7638,1.03006 10.57608,15.39324 10.07057,16.41408 -0.23728,0.479 -1.99109,0.60708 -3.8974,0.28464 -5.87527,-0.99385 -16.44229,-1.93879 -21.30221,-1.90485 -2.54507,0.0178 -5.19853,-0.19266 -5.89667,-0.46688 -0.69809,-0.27476 -2.26962,-0.16342 -3.49222,0.24731 -1.2226,0.41065 -2.69263,0.51223 -3.26675,0.22576 -0.94621,-0.47216 -8.3472,-0.13715 -15.51546,0.70253 -1.53406,0.1796 -3.8623,0.23876 -5.17389,0.13138 -13.91413,0.18887 -21.1691,5.16167 -35.66297,6.02163 -7.59627,0.34466 -56.80405,19.86272 -60.61253,24.0417 -0.80922,0.88788 -2.85666,2.07968 -4.54988,2.64846 -1.69324,0.56875 -3.21045,1.60177 -3.37156,2.29557 -0.16113,0.69382 -1.87869,1.79416 -3.81687,2.44521 -1.9382,0.65104 -3.64348,1.69813 -3.78947,2.32704 -0.14596,0.62882 -2.5008,2.25397 -5.23288,3.61153 -2.73212,1.35747 -4.8243,2.8944 -4.64937,3.41521 0.17499,0.52091 -0.76029,1.30939 -2.07847,1.75214 -1.31811,0.44274 -2.71631,1.3289 -3.10706,1.96934 -0.39081,0.64033 -2.377578,2.41508 -4.415131,3.94379 -3.271694,2.45435 -12.866315,11.25056 -19.061051,17.47406 -5.160748,5.18472 -11.217752,12.30073 -19.701252,23.1458 -4.994951,6.38531 -9.341941,11.69704 -9.659956,11.80388 -0.591152,0.19855 -0.875597,-0.72556 -2.27117,-7.37887 z"
       style="fill:#45d03f;fill-opacity:1" />
  </g>
</svg>
