<?xml version="1.0" encoding="UTF-8" standalone="no"?>
<svg
   xmlns:dc="http://purl.org/dc/elements/1.1/"
   xmlns:cc="http://creativecommons.org/ns#"
   xmlns:rdf="http://www.w3.org/1999/02/22-rdf-syntax-ns#"
   xmlns:svg="http://www.w3.org/2000/svg"
   xmlns="http://www.w3.org/2000/svg"
   xmlns:sodipodi="http://sodipodi.sourceforge.net/DTD/sodipodi-0.dtd"
   xmlns:inkscape="http://www.inkscape.org/namespaces/inkscape"
   viewBox="0 0 500 500"
   id="svg2"
   version="1.1"
   inkscape:version="0.91 r13725"
   width="100%"
   height="100%"
   sodipodi:docname="preferences-web-browser-cookies.svg">
  <metadata
     id="metadata113">
    <rdf:RDF>
      <cc:Work
         rdf:about="">
        <dc:format>image/svg+xml</dc:format>
        <dc:type
           rdf:resource="http://purl.org/dc/dcmitype/StillImage" />
      </cc:Work>
    </rdf:RDF>
  </metadata>
  <sodipodi:namedview
     pagecolor="#ffffff"
     bordercolor="#666666"
     borderopacity="1"
     objecttolerance="10"
     gridtolerance="10"
     guidetolerance="10"
     inkscape:pageopacity="0"
     inkscape:pageshadow="2"
     inkscape:window-width="1366"
     inkscape:window-height="715"
     id="namedview111"
     showgrid="false"
     inkscape:zoom="0.43457605"
     inkscape:cx="-190.20529"
     inkscape:cy="341.40694"
     inkscape:window-x="0"
     inkscape:window-y="24"
     inkscape:window-maximized="1"
     inkscape:current-layer="svg2" />
  <defs
     id="defs4">
    <linearGradient
       id="linearGradient3764"
       x1="1"
       x2="47"
       gradientUnits="userSpaceOnUse"
       gradientTransform="matrix(0,-1,1,0,-1.5e-6,47.999998)">
      <stop
         stop-color="#e4e4e4"
         stop-opacity="1"
         id="stop7" />
      <stop
         offset="1"
         stop-color="#eee"
         stop-opacity="1"
         id="stop9" />
    </linearGradient>
    <clipPath
       id="clipPath-012105678">
      <g
         transform="translate(0,-1004.3622)"
         id="g12">
        <path
           d="m -24,13 c 0,1.105 -0.672,2 -1.5,2 -0.828,0 -1.5,-0.895 -1.5,-2 0,-1.105 0.672,-2 1.5,-2 0.828,0 1.5,0.895 1.5,2 z"
           transform="matrix(15.333333,0,0,11.5,414.99999,878.8622)"
           id="path14"
           inkscape:connector-curvature="0"
           style="fill:#1890d0" />
      </g>
    </clipPath>
    <clipPath
       id="clipPath-024200665">
      <g
         transform="translate(0,-1004.3622)"
         id="g17">
        <path
           d="m -24,13 c 0,1.105 -0.672,2 -1.5,2 -0.828,0 -1.5,-0.895 -1.5,-2 0,-1.105 0.672,-2 1.5,-2 0.828,0 1.5,0.895 1.5,2 z"
           transform="matrix(15.333333,0,0,11.5,414.99999,878.8622)"
           id="path19"
           inkscape:connector-curvature="0"
           style="fill:#1890d0" />
      </g>
    </clipPath>
  </defs>
  <g
     id="g33"
     transform="translate(0,452)" />
  <g
     id="g4206">
    <g
       style="fill:#ebebeb;fill-opacity:1"
       transform="matrix(9.5744681,0,0,9.5744681,15.425532,15.425531)"
       id="g29">
      <path
         style="fill:#ebebeb;fill-opacity:1"
         inkscape:connector-curvature="0"
         id="path31"
         d="M 24,1 C 36.703,1 47,11.297 47,24 47,36.703 36.703,47 24,47 11.297,47 1,36.703 1,24 1,11.297 11.297,1 24,1 z" />
    </g>
    <path
       d="m 388.82979,245.21277 c 0,79.32446 -64.29256,143.61702 -143.61702,143.61702 -79.32447,0 -143.61703,-64.29256 -143.61703,-143.61702 0,-79.32447 64.29256,-143.61703 143.61703,-143.61703 79.32446,0 143.61702,64.29256 143.61702,143.61703 m 0,0"
       id="path79"
       inkscape:connector-curvature="0"
       style="fill:#c87137;fill-opacity:1;fill-rule:nonzero;stroke:none" />
    <path
       d="m 167.83192,179.05319 0,19.14894 38.29787,-9.57447 m -38.29787,-9.57447"
       id="path81"
       inkscape:connector-curvature="0"
       style="fill:#ffffff;fill-opacity:1;fill-rule:nonzero;stroke:none" />
    <path
       d="m 263.5383,131.18085 0,19.14894 28.7234,-9.57447 m -28.7234,-9.57447"
       id="path83"
       inkscape:connector-curvature="0"
       style="fill:#ffffff;fill-opacity:1;fill-rule:nonzero;stroke:none" />
    <path
       d="m 244.38936,188.62766 9.57447,28.7234 19.11064,-19.14893 m -28.68511,-9.57447"
       id="path85"
       inkscape:connector-curvature="0"
       style="fill:#ffffff;fill-opacity:1;fill-rule:nonzero;stroke:none" />
    <path
       d="m 330.55958,179.05319 -9.57447,38.29787 28.7234,-9.57446 m -19.14893,-28.72341"
       id="path87"
       inkscape:connector-curvature="0"
       style="fill:#ffffff;fill-opacity:1;fill-rule:nonzero;stroke:none" />
    <path
       d="m 177.36809,226.92553 0,38.29787 19.14893,-28.7234 m -19.14893,-9.57447"
       id="path89"
       inkscape:connector-curvature="0"
       style="fill:#ffffff;fill-opacity:1;fill-rule:nonzero;stroke:none" />
    <path
       d="m 225.24043,284.37234 0,19.11064 28.7234,-9.57447 -19.14894,-28.7234 m -9.57446,19.14893"
       id="path91"
       inkscape:connector-curvature="0"
       style="fill:#ffffff;fill-opacity:1;fill-rule:nonzero;stroke:none" />
    <path
       d="m 206.12979,140.75532 0,9.57447 9.57447,9.53617 m -9.57447,-19.11064"
       id="path93"
       inkscape:connector-curvature="0"
       style="fill:#ffffff;fill-opacity:1;fill-rule:nonzero;stroke:none" />
    <path
       d="m 301.87447,245.97872 -28.72341,9.57447 19.14894,19.14894 9.57447,-19.14894 0,-9.57447 m 0.0383,0"
       id="path95"
       inkscape:connector-curvature="0"
       style="fill:#ffffff;fill-opacity:1;fill-rule:nonzero;stroke:none" />
    <path
       d="m 340.17234,245.97872 -19.14894,47.87234 9.57447,-19.03404 28.72341,-9.57447 m -19.14894,-19.14893"
       id="path97"
       inkscape:connector-curvature="0"
       style="fill:#ffffff;fill-opacity:1;fill-rule:nonzero;stroke:none" />
    <path
       d="m 292.3,313.09574 -19.14894,19.11064 28.72341,19.14894 19.14893,-19.14894 M 292.3,313.09574"
       id="path99"
       inkscape:connector-curvature="0"
       style="fill:#ffffff;fill-opacity:1;fill-rule:nonzero;stroke:none" />
    <path
       d="m 215.70426,332.14894 -19.14894,0 28.7234,19.14893 9.57447,-9.57447 m -19.14893,-9.57446"
       id="path101"
       inkscape:connector-curvature="0"
       style="fill:#ffffff;fill-opacity:1;fill-rule:nonzero;stroke:none" />
    <path
       d="m 158.21915,293.85106 38.29787,-9.45957 0,19.03404 -28.7234,0 m -9.57447,-9.57447"
       id="path103"
       inkscape:connector-curvature="0"
       style="fill:#ffffff;fill-opacity:1;fill-rule:nonzero;stroke:none" />
    <path
       d="m 129.53404,226.92553 9.53617,38.29787 0,-38.29787 m -9.53617,0"
       id="path105"
       inkscape:connector-curvature="0"
       style="fill:#ffffff;fill-opacity:1;fill-rule:nonzero;stroke:none" />
  </g>
</svg>
