<?xml version="1.0" encoding="UTF-8" standalone="no"?>
<!-- Created with Inkscape (http://www.inkscape.org/) -->

<svg
   xmlns:dc="http://purl.org/dc/elements/1.1/"
   xmlns:cc="http://creativecommons.org/ns#"
   xmlns:rdf="http://www.w3.org/1999/02/22-rdf-syntax-ns#"
   xmlns:svg="http://www.w3.org/2000/svg"
   xmlns="http://www.w3.org/2000/svg"
   xmlns:sodipodi="http://sodipodi.sourceforge.net/DTD/sodipodi-0.dtd"
   xmlns:inkscape="http://www.inkscape.org/namespaces/inkscape"
   width="64"
   height="64"
   viewBox="0 0 64 64.000003"
   id="svg2"
   version="1.1"
   inkscape:version="0.91 r13725"
   sodipodi:docname="preferences-desktop-filetype-association.svg">
  <defs
     id="defs4" />
  <sodipodi:namedview
     id="base"
     pagecolor="#ffffff"
     bordercolor="#666666"
     borderopacity="1.0"
     inkscape:pageopacity="0.0"
     inkscape:pageshadow="2"
     inkscape:zoom="1.4473592"
     inkscape:cx="-117.61441"
     inkscape:cy="116.33856"
     inkscape:document-units="px"
     inkscape:current-layer="layer1"
     showgrid="true"
     units="px"
     inkscape:showpageshadow="false"
     borderlayer="true"
     inkscape:window-width="1366"
     inkscape:window-height="715"
     inkscape:window-x="0"
     inkscape:window-y="24"
     inkscape:window-maximized="1">
    <inkscape:grid
       type="xygrid"
       id="grid4136" />
    <sodipodi:guide
       position="5,59.000069"
       orientation="54,0"
       id="guide4142" />
    <sodipodi:guide
       position="5,5.0000688"
       orientation="0,54"
       id="guide4144" />
    <sodipodi:guide
       position="59,5.0000688"
       orientation="-54,0"
       id="guide4146" />
    <sodipodi:guide
       position="59,59.000069"
       orientation="0,-54"
       id="guide4148" />
    <sodipodi:guide
       position="0,64.000069"
       orientation="64,0"
       id="guide4150" />
    <sodipodi:guide
       position="0,6.875e-05"
       orientation="0,64"
       id="guide4152" />
    <sodipodi:guide
       position="64,6.875e-05"
       orientation="-64,0"
       id="guide4154" />
    <sodipodi:guide
       position="64,64.000069"
       orientation="0,-64"
       id="guide4156" />
    <sodipodi:guide
       position="10,35"
       orientation="38,0"
       id="guide4155" />
    <sodipodi:guide
       position="54,37"
       orientation="-38,0"
       id="guide4159" />
    <sodipodi:guide
       position="51,50.999947"
       orientation="0,-38"
       id="guide4161" />
  </sodipodi:namedview>
  <metadata
     id="metadata7">
    <rdf:RDF>
      <cc:Work
         rdf:about="">
        <dc:format>image/svg+xml</dc:format>
        <dc:type
           rdf:resource="http://purl.org/dc/dcmitype/StillImage" />
        <dc:title />
      </cc:Work>
    </rdf:RDF>
  </metadata>
  <g
     inkscape:label="Capa 1"
     inkscape:groupmode="layer"
     id="layer1"
     transform="translate(0,-1058.5196)">
    <g
       id="g4149">
      <path
         transform="translate(0,1058.5196)"
         id="rect4148"
         d="M 10 5 L 10 59 L 40 59 L 40 45 L 54 45 L 54 5 L 10 5 z "
         style="fill:#00bbf2;fill-opacity:1;stroke:none" />
      <path
         sodipodi:nodetypes="cccc"
         inkscape:connector-curvature="0"
         id="path4159"
         d="m 40,1117.5196 14,-14 -14,0 z"
         style="fill:#004455;fill-opacity:1;fill-rule:evenodd;stroke:none;stroke-width:1px;stroke-linecap:butt;stroke-linejoin:miter;stroke-opacity:1" />
      <path
         id="path10"
         d="m 37.44424,1081.5197 c -0.57525,0 -1.0677,0.3023 -1.3368,0.75 l -5.6632,0 c 0,0 -1.127,-0.019 -2.2847,0.5391 -1.1577,0.5581 -2.3819,1.8359 -2.3819,3.9609 0,2.125 1.2242,3.4027 2.3819,3.9609 0.54918,0.2647 1.0886,0.3766 1.5069,0.4453 l 0,0.3281 -2.1389,2.0625 c -0.06583,-0.017 -0.12285,-0.047 -0.19444,-0.047 -0.42956,0 -0.77778,0.3358 -0.77778,0.75 0,0.4142 0.34822,0.75 0.77778,0.75 0.42956,0 0.77778,-0.3358 0.77778,-0.75 0,-0.069 -0.0305,-0.124 -0.04861,-0.1875 l 2.1389,-2.0625 2.5764,0 0,-0.75 0.77778,0 c 0,0 0.81746,0.019 1.6042,0.3985 0.78671,0.3793 1.5069,0.9765 1.5069,2.6016 0,1.625 -0.72023,2.2222 -1.5069,2.6016 -0.78671,0.3793 -1.6042,0.3984 -1.6042,0.3984 l -5.6632,0 c -0.269,-0.4481 -0.761,-0.75 -1.336,-0.75 -0.85911,0 -1.5556,0.6715 -1.5556,1.5 0,0.8284 0.69645,1.5 1.5556,1.5 0.57525,0 1.0677,-0.3023 1.3368,-0.75 l 5.6632,0 c 0,0 1.127,0.019 2.2847,-0.539 1.1577,-0.5582 2.3819,-1.8359 2.3819,-3.9609 0,-2.125 -1.2242,-3.4028 -2.3819,-3.9609 -1.1577,-0.5582 -2.2847,-0.5391 -2.2847,-0.5391 l -0.77778,0 0,-0.2344 2.1389,-2.0625 c 0.06583,0.017 0.12285,0.047 0.19444,0.047 0.42956,0 0.77778,-0.3359 0.77778,-0.75 0,-0.4142 -0.34822,-0.75 -0.77778,-0.75 -0.42956,0 -0.77778,0.3358 -0.77778,0.75 0,0.069 0.0305,0.124 0.04861,0.1875 l -2.1389,2.0625 -2.5764,0 0,0.6328 c -0.25629,-0.059 -0.5357,-0.1411 -0.82639,-0.2812 -0.78671,-0.3794 -1.5069,-0.9766 -1.5069,-2.6016 0,-1.6251 0.72023,-2.2223 1.5069,-2.6016 0.786,-0.379 1.603,-0.398 1.603,-0.398 l 5.6632,0 c 0.26914,0.4476 0.76156,0.75 1.3368,0.75 0.85911,0 1.5556,-0.6716 1.5556,-1.5 0,-0.8285 -0.69644,-1.5 -1.5556,-1.5 z"
         inkscape:connector-curvature="0"
         style="fill:#ffffff" />
      <path
         style="fill:#000000;fill-opacity:0;fill-rule:evenodd;stroke:none;stroke-width:1px;stroke-linecap:butt;stroke-linejoin:miter;stroke-opacity:1"
         d="m 40,1117.5196 14,-14 -14,0 z"
         id="path4160"
         inkscape:connector-curvature="0"
         sodipodi:nodetypes="cccc" />
    </g>
  </g>
</svg>
