<?xml version="1.0" encoding="UTF-8" standalone="no"?>
<!-- Generator: Adobe Illustrator 19.0.0, SVG Export Plug-In . SVG Version: 6.00 Build 0)  -->

<svg
   xmlns:dc="http://purl.org/dc/elements/1.1/"
   xmlns:cc="http://creativecommons.org/ns#"
   xmlns:rdf="http://www.w3.org/1999/02/22-rdf-syntax-ns#"
   xmlns:svg="http://www.w3.org/2000/svg"
   xmlns="http://www.w3.org/2000/svg"
   xmlns:sodipodi="http://sodipodi.sourceforge.net/DTD/sodipodi-0.dtd"
   xmlns:inkscape="http://www.inkscape.org/namespaces/inkscape"
   version="1.1"
   id="Layer_1"
   x="0px"
   y="0px"
   viewBox="0 0 500 500"
   xml:space="preserve"
   inkscape:version="0.91 r13725"
   width="100%"
   height="100%"
   sodipodi:docname="psi.svg"><metadata
     id="metadata57"><rdf:RDF><cc:Work
         rdf:about=""><dc:format>image/svg+xml</dc:format><dc:type
           rdf:resource="http://purl.org/dc/dcmitype/StillImage" /></cc:Work></rdf:RDF></metadata><defs
     id="defs55" /><sodipodi:namedview
     pagecolor="#ffffff"
     bordercolor="#666666"
     borderopacity="1"
     objecttolerance="10"
     gridtolerance="10"
     guidetolerance="10"
     inkscape:pageopacity="0"
     inkscape:pageshadow="2"
     inkscape:window-width="1366"
     inkscape:window-height="715"
     id="namedview53"
     showgrid="false"
     inkscape:zoom="0.18582593"
     inkscape:cx="2197.0798"
     inkscape:cy="22.667287"
     inkscape:window-x="0"
     inkscape:window-y="24"
     inkscape:window-maximized="1"
     inkscape:current-layer="Layer_1" /><g
     id="g23"
     transform="translate(0,39.767)" /><g
     id="g25"
     transform="translate(0,39.767)" /><g
     id="g27"
     transform="translate(0,39.767)" /><g
     id="g29"
     transform="translate(0,39.767)" /><g
     id="g31"
     transform="translate(0,39.767)" /><g
     id="g33"
     transform="translate(0,39.767)" /><g
     id="g35"
     transform="translate(0,39.767)" /><g
     id="g37"
     transform="translate(0,39.767)" /><g
     id="g39"
     transform="translate(0,39.767)" /><g
     id="g41"
     transform="translate(0,39.767)" /><g
     id="g43"
     transform="translate(0,39.767)" /><g
     id="g45"
     transform="translate(0,39.767)" /><g
     id="g47"
     transform="translate(0,39.767)" /><g
     id="g49"
     transform="translate(0,39.767)" /><g
     id="g51"
     transform="translate(0,39.767)" /><g
     id="g4179"><path
       sodipodi:nodetypes="ccczcczcccczscczzcc"
       inkscape:connector-curvature="0"
       id="path3371"
       d="m 254.27493,58.102064 71.99064,0 -71.99064,298.066566 c 0,0 54.27352,-17.35072 73.33608,-72.43011 19.06247,-55.07938 7.49552,-130.91185 7.49552,-130.91185 l 69.4647,0 c 0,0 7.45436,147.67765 -46.73082,209.65688 -54.1851,61.97933 -125.03639,65.67581 -125.03639,65.67581 l -10.10393,46.73073 -70.72767,3.789 10.10403,-56.83475 c 0,0 -60.616,-15.57043 -74.516662,-69.46471 C 73.659106,298.48546 123.02632,219.06245 117.87166,205.87233 113.3414,194.27986 79.981781,224.81732 79.981781,224.81732 L 61.036906,165.45653 c 0,0 70.787034,-45.19341 107.354464,2.52603 36.56743,47.71945 -28.11691,122.45588 -16.41884,155.34826 11.69805,32.89251 31.57473,32.83781 31.57473,32.83781 z"
       style="fill:#00bbf2;fill-opacity:1;fill-rule:evenodd;stroke:none;stroke-width:1px;stroke-linecap:butt;stroke-linejoin:miter;stroke-opacity:1" /><path
       inkscape:connector-curvature="0"
       style="fill:#ff6600;fill-opacity:1;stroke:none"
       d="m 343.48619,25.509825 0,20.735285 20.73531,0 c 34.4622,0 62.20598,27.74389 62.20598,62.206 l 0,20.73539 20.7354,0 0,-20.73539 c 0,-45.949443 -36.99185,-82.941285 -82.94138,-82.941285 l -20.73531,0 z m 0,41.470698 0,20.735397 20.73531,0 c 11.48733,0 20.73528,9.247856 20.73528,20.73519 l 0,20.73539 20.73541,0 0,-20.73539 c 0,-22.974666 -18.49603,-41.470587 -41.47069,-41.470587 l -20.73531,0 z m 12.09561,38.014657 c -6.70089,0 -12.09561,5.3947 -12.09561,12.09572 0,6.70089 5.39472,12.0956 12.09561,12.0956 6.70101,0 12.09562,-5.39471 12.09562,-12.0956 0,-6.70102 -5.39461,-12.09572 -12.09562,-12.09572 z"
       id="rect4116-7" /></g></svg>