<?xml version="1.0" encoding="UTF-8" standalone="no"?>
<svg
   xmlns:dc="http://purl.org/dc/elements/1.1/"
   xmlns:cc="http://creativecommons.org/ns#"
   xmlns:rdf="http://www.w3.org/1999/02/22-rdf-syntax-ns#"
   xmlns:svg="http://www.w3.org/2000/svg"
   xmlns="http://www.w3.org/2000/svg"
   xmlns:sodipodi="http://sodipodi.sourceforge.net/DTD/sodipodi-0.dtd"
   xmlns:inkscape="http://www.inkscape.org/namespaces/inkscape"
   viewBox="0 0 128 128"
   id="svg2"
   version="1.1"
   inkscape:version="0.91 r13725"
   width="100%"
   height="100%"
   sodipodi:docname="pstree.svg">
  <metadata
     id="metadata40">
    <rdf:RDF>
      <cc:Work
         rdf:about="">
        <dc:format>image/svg+xml</dc:format>
        <dc:type
           rdf:resource="http://purl.org/dc/dcmitype/StillImage" />
        <dc:title />
      </cc:Work>
    </rdf:RDF>
  </metadata>
  <sodipodi:namedview
     pagecolor="#ffffff"
     bordercolor="#666666"
     borderopacity="1"
     objecttolerance="10"
     gridtolerance="10"
     guidetolerance="10"
     inkscape:pageopacity="0"
     inkscape:pageshadow="2"
     inkscape:window-width="1081"
     inkscape:window-height="659"
     id="namedview38"
     showgrid="false"
     inkscape:zoom="1.7383042"
     inkscape:cx="103.86527"
     inkscape:cy="82.05726"
     inkscape:window-x="15"
     inkscape:window-y="39"
     inkscape:window-maximized="0"
     inkscape:current-layer="svg2" />
  <defs
     id="defs4">
    <clipPath
       id="clipPath6">
      <g
         transform="translate(0,-1004.3622)"
         id="g8">
        <path
           d="m -24,13 c 0,1.105 -0.672,2 -1.5,2 -0.828,0 -1.5,-0.895 -1.5,-2 0,-1.105 0.672,-2 1.5,-2 0.828,0 1.5,0.895 1.5,2 z"
           transform="matrix(15.333333,0,0,11.5,414.99999,878.8622)"
           id="path10"
           inkscape:connector-curvature="0"
           style="fill:#1890d0" />
      </g>
    </clipPath>
    <clipPath
       id="clipPath12">
      <g
         transform="translate(0,-1004.3622)"
         id="g14">
        <path
           d="m -24,13 c 0,1.105 -0.672,2 -1.5,2 -0.828,0 -1.5,-0.895 -1.5,-2 0,-1.105 0.672,-2 1.5,-2 0.828,0 1.5,0.895 1.5,2 z"
           transform="matrix(15.333333,0,0,11.5,414.99999,878.8622)"
           id="path16"
           inkscape:connector-curvature="0"
           style="fill:#1890d0" />
      </g>
    </clipPath>
  </defs>
  <g
     id="g4200">
    <rect
       ry="8.2989693"
       y="5.9068837"
       x="7.3772492"
       height="115.00002"
       width="115.00002"
       id="rect4503"
       style="opacity:1;fill:#394050;fill-opacity:1;stroke:none;stroke-width:7.19598007;stroke-linecap:round;stroke-miterlimit:4;stroke-dasharray:none;stroke-opacity:1" />
    <g
       id="flowRoot4149"
       style="font-style:normal;font-weight:normal;font-size:40px;line-height:125%;font-family:sans-serif;letter-spacing:0px;word-spacing:0px;fill:#ffffff;fill-opacity:1;stroke:none;stroke-width:1px;stroke-linecap:butt;stroke-linejoin:miter;stroke-opacity:1"
       transform="matrix(0.9264225,0,0,0.9264225,-0.66253888,1.462355)">
      <path
         id="path4166"
         style="font-size:25px;fill:#ffffff"
         d="m 14.451172,38.069608 6.57959,0 0,2.001953 -6.57959,0 0,-2.001953 z" />
      <path
         id="path4168"
         style="font-size:25px;fill:#ffffff"
         d="m 35.14209,29.719999 0,6.848144 3.100586,0 q 1.721191,0 2.661133,-0.891113 0.939941,-0.891113 0.939941,-2.539063 0,-1.635742 -0.939941,-2.526855 -0.939942,-0.891113 -2.661133,-0.891113 l -3.100586,0 z m -2.46582,-2.026368 5.566406,0 q 3.063965,0 4.626465,1.391602 1.574707,1.379394 1.574707,4.052734 0,2.697754 -1.574707,4.077149 -1.5625,1.379394 -4.626465,1.379394 l -3.100586,0 0,7.324219 -2.46582,0 0,-18.225098 z" />
      <path
         id="path4170"
         style="font-size:25px;fill:#ffffff"
         d="m 55.149414,34.346463 q -0.378418,-0.219726 -0.830078,-0.317382 -0.439453,-0.109864 -0.976563,-0.109864 -1.904296,0 -2.929687,1.245117 -1.013184,1.232911 -1.013184,3.552247 l 0,7.202148 -2.2583,0 0,-13.671875 2.2583,0 0,2.124023 q 0.708008,-1.245117 1.843262,-1.843261 1.135254,-0.610352 2.758789,-0.610352 0.231934,0 0.512695,0.03662 0.280762,0.02441 0.622559,0.08545 l 0.01221,2.307129 z" />
      <path
         id="path4172"
         style="font-size:25px;fill:#ffffff"
         d="m 62.290527,33.821561 q -1.80664,0 -2.856445,1.416016 -1.049805,1.403808 -1.049805,3.857422 0,2.453613 1.037598,3.869628 1.049805,1.403809 2.868652,1.403809 1.794434,0 2.844239,-1.416016 1.049804,-1.416015 1.049804,-3.857421 0,-2.4292 -1.049804,-3.845215 -1.049805,-1.428223 -2.844239,-1.428223 z m 0,-1.904297 q 2.929688,0 4.602051,1.904297 1.672363,1.904297 1.672363,5.273438 0,3.356933 -1.672363,5.273437 -1.672363,1.904297 -4.602051,1.904297 -2.941894,0 -4.614257,-1.904297 -1.660157,-1.916504 -1.660157,-5.273437 0,-3.369141 1.660157,-5.273438 1.672363,-1.904297 4.614257,-1.904297 z" />
      <path
         id="path4174"
         style="font-size:25px;fill:#ffffff"
         d="m 82.114746,32.771756 0,2.09961 q -0.952148,-0.524903 -1.916504,-0.78125 -0.952148,-0.268555 -1.928711,-0.268555 -2.185058,0 -3.393554,1.391602 -1.208497,1.379394 -1.208497,3.881836 0,2.502441 1.208497,3.894043 1.208496,1.379394 3.393554,1.379394 0.976563,0 1.928711,-0.256348 0.964356,-0.268554 1.916504,-0.793457 l 0,2.075196 q -0.939941,0.439453 -1.953125,0.659179 -1.000976,0.219727 -2.13623,0.219727 -3.088379,0 -4.907227,-1.940918 -1.818848,-1.940918 -1.818848,-5.236816 0,-3.344727 1.831055,-5.261231 1.843262,-1.916504 5.041504,-1.916504 1.037598,0 2.026367,0.219727 0.98877,0.207519 1.916504,0.634765 z" />
      <path
         id="path4176"
         style="font-size:25px;fill:#ffffff"
         d="m 97.739746,38.521268 0,1.098633 -10.327148,0 q 0.146484,2.319336 1.391601,3.540039 1.257324,1.208496 3.491211,1.208496 1.293945,0 2.502442,-0.317383 1.220703,-0.317383 2.416992,-0.952148 l 0,2.124023 q -1.208496,0.512696 -2.478028,0.78125 -1.269531,0.268555 -2.575683,0.268555 -3.271485,0 -5.187988,-1.904297 -1.904297,-1.904297 -1.904297,-5.151367 0,-3.356934 1.80664,-5.322266 1.818848,-1.977539 4.89502,-1.977539 2.758789,0 4.35791,1.782227 1.611328,1.770019 1.611328,4.821777 z m -2.246094,-0.65918 q -0.02441,-1.843261 -1.037597,-2.941894 -1.000977,-1.098633 -2.661133,-1.098633 -1.879883,0 -3.015137,1.062012 -1.123047,1.062011 -1.293945,2.990722 l 8.007812,-0.01221 z" />
      <path
         id="path4178"
         style="font-size:25px;fill:#ffffff"
         d="m 110.14209,32.649686 0,2.124023 q -0.95215,-0.488281 -1.97754,-0.732421 -1.02539,-0.244141 -2.12402,-0.244141 -1.67237,0 -2.51465,0.512695 -0.83008,0.512696 -0.83008,1.538086 0,0.78125 0.59815,1.23291 0.59814,0.439454 2.40478,0.842286 l 0.76904,0.170898 q 2.39258,0.512695 3.39356,1.452637 1.01318,0.927734 1.01318,2.600097 0,1.904297 -1.51367,3.015137 -1.50146,1.11084 -4.13818,1.11084 -1.09864,0 -2.29493,-0.219727 -1.18408,-0.207519 -2.50244,-0.634765 l 0,-2.319336 q 1.24512,0.646972 2.45362,0.976562 1.20849,0.317383 2.39257,0.317383 1.58692,0 2.44141,-0.537109 0.85449,-0.549317 0.85449,-1.538086 0,-0.915528 -0.62256,-1.403809 -0.61035,-0.488281 -2.69775,-0.939941 l -0.78125,-0.183106 q -2.0874,-0.439453 -3.01514,-1.342773 -0.92773,-0.915527 -0.92773,-2.502442 0,-1.92871 1.36719,-2.978515 1.36718,-1.049805 3.88183,-1.049805 1.24512,0 2.34375,0.183106 1.09864,0.183105 2.02637,0.549316 z" />
      <path
         id="path4180"
         style="font-size:25px;fill:#ffffff"
         d="m 123.1792,32.649686 0,2.124023 q -0.95215,-0.488281 -1.97754,-0.732421 -1.02539,-0.244141 -2.12402,-0.244141 -1.67237,0 -2.51465,0.512695 -0.83008,0.512696 -0.83008,1.538086 0,0.78125 0.59814,1.23291 0.59815,0.439454 2.40479,0.842286 l 0.76904,0.170898 q 2.39258,0.512695 3.39356,1.452637 1.01318,0.927734 1.01318,2.600097 0,1.904297 -1.51367,3.015137 -1.50147,1.11084 -4.13818,1.11084 -1.09864,0 -2.29493,-0.219727 -1.18408,-0.207519 -2.50244,-0.634765 l 0,-2.319336 q 1.24512,0.646972 2.45362,0.976562 1.20849,0.317383 2.39257,0.317383 1.58692,0 2.44141,-0.537109 0.85449,-0.549317 0.85449,-1.538086 0,-0.915528 -0.62256,-1.403809 -0.61035,-0.488281 -2.69775,-0.939941 l -0.78125,-0.183106 q -2.0874,-0.439453 -3.01514,-1.342773 -0.92773,-0.915527 -0.92773,-2.502442 0,-1.92871 1.36719,-2.978515 1.36718,-1.049805 3.88183,-1.049805 1.24512,0 2.34375,0.183106 1.09863,0.183105 2.02637,0.549316 z" />
      <path
         id="path4182"
         style="font-size:25px;fill:#ffffff"
         d="m 18.479492,58.064725 0,25 -2.075195,0 0,-25 2.075195,0 z" />
      <path
         id="path4184"
         style="font-size:25px;fill:#ffffff"
         d="m 14.451172,100.56961 6.57959,0 0,2.00195 -6.57959,0 0,-2.00195 z" />
      <path
         id="path4186"
         style="font-size:25px;fill:#ffffff"
         d="m 35.14209,92.219999 0,6.848144 3.100586,0 q 1.721191,0 2.661133,-0.891113 0.939941,-0.891113 0.939941,-2.539063 0,-1.635742 -0.939941,-2.526855 -0.939942,-0.891113 -2.661133,-0.891113 l -3.100586,0 z m -2.46582,-2.026368 5.566406,0 q 3.063965,0 4.626465,1.391602 1.574707,1.379394 1.574707,4.052734 0,2.697754 -1.574707,4.077149 -1.5625,1.379394 -4.626465,1.379394 l -3.100586,0 0,7.32422 -2.46582,0 0,-18.225099 z" />
      <path
         id="path4188"
         style="font-size:25px;fill:#ffffff"
         d="m 55.149414,96.846463 q -0.378418,-0.219726 -0.830078,-0.317382 -0.439453,-0.109864 -0.976563,-0.109864 -1.904296,0 -2.929687,1.245117 -1.013184,1.232911 -1.013184,3.552246 l 0,7.20215 -2.2583,0 0,-13.671876 2.2583,0 0,2.124023 q 0.708008,-1.245117 1.843262,-1.843261 1.135254,-0.610352 2.758789,-0.610352 0.231934,0 0.512695,0.03662 0.280762,0.02441 0.622559,0.08545 l 0.01221,2.307129 z" />
      <path
         id="path4190"
         style="font-size:25px;fill:#ffffff"
         d="m 62.290527,96.321561 q -1.80664,0 -2.856445,1.416016 -1.049805,1.403808 -1.049805,3.857423 0,2.45361 1.037598,3.86963 1.049805,1.40381 2.868652,1.40381 1.794434,0 2.844239,-1.41602 1.049804,-1.41602 1.049804,-3.85742 0,-2.429201 -1.049804,-3.845216 -1.049805,-1.428223 -2.844239,-1.428223 z m 0,-1.904297 q 2.929688,0 4.602051,1.904297 1.672363,1.904297 1.672363,5.273439 0,3.35693 -1.672363,5.27344 -1.672363,1.90429 -4.602051,1.90429 -2.941894,0 -4.614257,-1.90429 -1.660157,-1.91651 -1.660157,-5.27344 0,-3.369142 1.660157,-5.273439 1.672363,-1.904297 4.614257,-1.904297 z" />
      <path
         id="path4192"
         style="font-size:25px;fill:#ffffff"
         d="m 82.114746,95.271756 0,2.09961 q -0.952148,-0.524903 -1.916504,-0.78125 -0.952148,-0.268555 -1.928711,-0.268555 -2.185058,0 -3.393554,1.391602 -1.208497,1.379394 -1.208497,3.881837 0,2.50244 1.208497,3.89404 1.208496,1.3794 3.393554,1.3794 0.976563,0 1.928711,-0.25635 0.964356,-0.26856 1.916504,-0.79346 l 0,2.0752 q -0.939941,0.43945 -1.953125,0.65918 -1.000976,0.21972 -2.13623,0.21972 -3.088379,0 -4.907227,-1.94092 -1.818848,-1.94091 -1.818848,-5.23681 0,-3.344728 1.831055,-5.261232 1.843262,-1.916504 5.041504,-1.916504 1.037598,0 2.026367,0.219727 0.98877,0.207519 1.916504,0.634765 z" />
      <path
         id="path4194"
         style="font-size:25px;fill:#ffffff"
         d="m 97.739746,101.02127 0,1.09863 -10.327148,0 q 0.146484,2.31934 1.391601,3.54004 1.257324,1.2085 3.491211,1.2085 1.293945,0 2.502442,-0.31739 1.220703,-0.31738 2.416992,-0.95215 l 0,2.12403 q -1.208496,0.51269 -2.478028,0.78125 -1.269531,0.26855 -2.575683,0.26855 -3.271485,0 -5.187988,-1.90429 -1.904297,-1.9043 -1.904297,-5.15137 0,-3.356935 1.80664,-5.322267 1.818848,-1.977539 4.89502,-1.977539 2.758789,0 4.35791,1.782227 1.611328,1.770019 1.611328,4.821779 z m -2.246094,-0.65918 q -0.02441,-1.843263 -1.037597,-2.941896 -1.000977,-1.098633 -2.661133,-1.098633 -1.879883,0 -3.015137,1.062012 -1.123047,1.062011 -1.293945,2.990727 l 8.007812,-0.0122 z" />
      <path
         id="path4196"
         style="font-size:25px;fill:#ffffff"
         d="m 110.14209,95.149686 0,2.124023 q -0.95215,-0.488281 -1.97754,-0.732421 -1.02539,-0.244141 -2.12402,-0.244141 -1.67237,0 -2.51465,0.512695 -0.83008,0.512696 -0.83008,1.538086 0,0.78125 0.59815,1.23291 0.59814,0.439452 2.40478,0.842282 l 0.76904,0.1709 q 2.39258,0.5127 3.39356,1.45264 1.01318,0.92773 1.01318,2.6001 0,1.90429 -1.51367,3.01513 -1.50146,1.11084 -4.13818,1.11084 -1.09864,0 -2.29493,-0.21972 -1.18408,-0.20752 -2.50244,-0.63477 l 0,-2.31934 q 1.24512,0.64698 2.45362,0.97657 1.20849,0.31738 2.39257,0.31738 1.58692,0 2.44141,-0.53711 0.85449,-0.54932 0.85449,-1.53809 0,-0.91552 -0.62256,-1.4038 -0.61035,-0.48829 -2.69775,-0.93995 l -0.78125,-0.1831 q -2.0874,-0.43945 -3.01514,-1.34277 -0.92773,-0.91553 -0.92773,-2.502446 0,-1.92871 1.36719,-2.978515 1.36718,-1.049805 3.88183,-1.049805 1.24512,0 2.34375,0.183106 1.09864,0.183105 2.02637,0.549316 z" />
      <path
         id="path4198"
         style="font-size:25px;fill:#ffffff"
         d="m 123.1792,95.149686 0,2.124023 q -0.95215,-0.488281 -1.97754,-0.732421 -1.02539,-0.244141 -2.12402,-0.244141 -1.67237,0 -2.51465,0.512695 -0.83008,0.512696 -0.83008,1.538086 0,0.78125 0.59814,1.23291 0.59815,0.439452 2.40479,0.842282 l 0.76904,0.1709 q 2.39258,0.5127 3.39356,1.45264 1.01318,0.92773 1.01318,2.6001 0,1.90429 -1.51367,3.01513 -1.50147,1.11084 -4.13818,1.11084 -1.09864,0 -2.29493,-0.21972 -1.18408,-0.20752 -2.50244,-0.63477 l 0,-2.31934 q 1.24512,0.64698 2.45362,0.97657 1.20849,0.31738 2.39257,0.31738 1.58692,0 2.44141,-0.53711 0.85449,-0.54932 0.85449,-1.53809 0,-0.91552 -0.62256,-1.4038 -0.61035,-0.48829 -2.69775,-0.93995 l -0.78125,-0.1831 q -2.0874,-0.43945 -3.01514,-1.34277 -0.92773,-0.91553 -0.92773,-2.502446 0,-1.92871 1.36719,-2.978515 1.36718,-1.049805 3.88183,-1.049805 1.24512,0 2.34375,0.183106 1.09863,0.183105 2.02637,0.549316 z" />
    </g>
  </g>
  <text
     xml:space="preserve"
     style="font-style:normal;font-weight:normal;font-size:40px;line-height:125%;font-family:sans-serif;letter-spacing:0px;word-spacing:0px;fill:#000000;fill-opacity:1;stroke:none;stroke-width:1px;stroke-linecap:butt;stroke-linejoin:miter;stroke-opacity:1"
     x="204.22202"
     y="65.870483"
     id="text4161"
     sodipodi:linespacing="125%"><tspan
       sodipodi:role="line"
       id="tspan4163"
       x="204.22202"
       y="65.870483" /></text>
</svg>
