<?xml version="1.0" encoding="UTF-8" standalone="no"?>
<!-- Created with Inkscape (http://www.inkscape.org/) -->

<svg
   xmlns:dc="http://purl.org/dc/elements/1.1/"
   xmlns:cc="http://creativecommons.org/ns#"
   xmlns:rdf="http://www.w3.org/1999/02/22-rdf-syntax-ns#"
   xmlns:svg="http://www.w3.org/2000/svg"
   xmlns="http://www.w3.org/2000/svg"
   xmlns:xlink="http://www.w3.org/1999/xlink"
   xmlns:sodipodi="http://sodipodi.sourceforge.net/DTD/sodipodi-0.dtd"
   xmlns:inkscape="http://www.inkscape.org/namespaces/inkscape"
   width="500"
   height="500"
   id="svg2"
   version="1.1"
   inkscape:version="0.91 r13725"
   sodipodi:docname="qreator.svg"
   inkscape:export-filename="/home/alecive/Scrivania/firefoxTest1.png"
   inkscape:export-xdpi="100"
   inkscape:export-ydpi="100">
  <sodipodi:namedview
     id="base"
     pagecolor="#ffffff"
     bordercolor="#666666"
     borderopacity="1.0"
     inkscape:pageopacity="0.0"
     inkscape:pageshadow="2"
     inkscape:zoom="0.64859152"
     inkscape:cx="-61.545068"
     inkscape:cy="224.38222"
     inkscape:document-units="px"
     inkscape:current-layer="svg2"
     showgrid="false"
     inkscape:window-width="1366"
     inkscape:window-height="715"
     inkscape:window-x="0"
     inkscape:window-y="24"
     inkscape:window-maximized="1"
     inkscape:object-paths="false"
     inkscape:snap-intersection-paths="false"
     inkscape:object-nodes="true"
     inkscape:snap-smooth-nodes="true"
     inkscape:snap-nodes="true" />
  <defs
     id="defs4">
    <linearGradient
       x1="19.244999"
       y1="21.030804"
       x2="19.360001"
       gradientUnits="userSpaceOnUse"
       y2="44.984001"
       id="linearGradient2460">
      <stop
         offset="0"
         style="stop-color:#00bdf0;stop-opacity:1;"
         id="stop3602" />
      <stop
         offset="1"
         style="stop-color:#0093dc;stop-opacity:1;"
         id="stop3604" />
    </linearGradient>
    <linearGradient
       inkscape:collect="always"
       xlink:href="#ButtonShadow-0-1-1-5-9"
       id="linearGradient4114-2-6"
       gradientUnits="userSpaceOnUse"
       gradientTransform="matrix(1.0317796,0,0,1.0317796,-830.86406,592.67791)"
       x1="1012.5133"
       y1="484.41721"
       x2="1006.8082"
       y2="20.625916" />
    <linearGradient
       x1="45.447727"
       y1="92.539597"
       x2="45.447727"
       y2="7.0165396"
       id="ButtonShadow-0-1-1-5-9"
       gradientUnits="userSpaceOnUse"
       gradientTransform="matrix(1.0058652,0,0,0.994169,100,0)">
      <stop
         id="stop3750-8-9-3-6-4"
         style="stop-color:#000000;stop-opacity:1"
         offset="0" />
      <stop
         id="stop3752-5-6-4-2-9"
         style="stop-color:#000000;stop-opacity:0.58823532"
         offset="1" />
    </linearGradient>
    <linearGradient
       inkscape:collect="always"
       xlink:href="#ButtonShadow-0-1-1-5-9"
       id="linearGradient4112-2-6"
       gradientUnits="userSpaceOnUse"
       gradientTransform="matrix(1.0402541,0,0,1.0402541,-837.95116,592.51825)"
       x1="1012.5133"
       y1="484.41721"
       x2="1006.8082"
       y2="20.625916" />
    <linearGradient
       inkscape:collect="always"
       xlink:href="#ButtonShadow-0-1-1-5-9"
       id="linearGradient4110-6-7"
       gradientUnits="userSpaceOnUse"
       gradientTransform="matrix(1.023305,0,0,1.023305,-823.77704,592.83757)"
       x1="1012.5133"
       y1="484.41721"
       x2="1006.8082"
       y2="20.625916" />
    <linearGradient
       inkscape:collect="always"
       xlink:href="#ButtonShadow-0-1-1-5-9"
       id="linearGradient4116-6-3"
       gradientUnits="userSpaceOnUse"
       gradientTransform="matrix(1.0148305,0,0,1.0148305,-816.68996,592.99723)"
       x1="1012.5133"
       y1="484.41721"
       x2="1006.8082"
       y2="20.625916" />
    <linearGradient
       y2="20.625916"
       x2="1006.8082"
       y1="484.41721"
       x1="1012.5133"
       gradientTransform="matrix(1.0074153,0,0,1.0074153,-810.48879,593.1369)"
       gradientUnits="userSpaceOnUse"
       id="linearGradient5342-3"
       xlink:href="#ButtonShadow-0-1-1-5-9"
       inkscape:collect="always" />
    <linearGradient
       inkscape:collect="always"
       xlink:href="#linearGradient3737-9"
       id="linearGradient4084-8"
       gradientUnits="userSpaceOnUse"
       gradientTransform="translate(778.59979,-360.55963)"
       x1="993.43896"
       y1="51.511765"
       x2="988.78552"
       y2="363.73825" />
    <linearGradient
       id="linearGradient3737-9">
      <stop
         id="stop3739-7"
         style="stop-color:#ffffff;stop-opacity:1"
         offset="0" />
      <stop
         id="stop3741-4"
         style="stop-color:#ffffff;stop-opacity:0"
         offset="1" />
    </linearGradient>
    <linearGradient
       inkscape:collect="always"
       xlink:href="#linearGradient4046-3"
       id="linearGradient4086-12"
       gradientUnits="userSpaceOnUse"
       x1="1764.6487"
       y1="155.59685"
       x2="1763.6903"
       y2="-55.941216" />
    <linearGradient
       id="linearGradient4046-3">
      <stop
         id="stop4048-7"
         style="stop-color:#000000;stop-opacity:1;"
         offset="0" />
      <stop
         id="stop4050-73"
         style="stop-color:#ffffff;stop-opacity:0.2"
         offset="1" />
    </linearGradient>
    <linearGradient
       y2="32"
       x2="272"
       y1="288"
       x1="272"
       gradientTransform="translate(0,-4)"
       gradientUnits="userSpaceOnUse"
       id="linearGradient3876"
       xlink:href="#outerBackgroundGradient"
       inkscape:collect="always" />
    <linearGradient
       id="outerBackgroundGradient">
      <stop
         id="stop3864-8-6"
         offset="0"
         style="stop-color:#007dbb;stop-opacity:1;" />
      <stop
         id="stop3866-9-1"
         offset="1"
         style="stop-color:#00abd7;stop-opacity:1;" />
    </linearGradient>
    <linearGradient
       inkscape:collect="always"
       xlink:href="#outerBackgroundGradient"
       id="linearGradient5589"
       gradientUnits="userSpaceOnUse"
       gradientTransform="translate(571.12383,-178.05409)"
       x1="272"
       y1="288"
       x2="272"
       y2="32" />
    <linearGradient
       y2="32"
       x2="272"
       y1="288"
       x1="272"
       gradientTransform="translate(571.12383,-178.05409)"
       gradientUnits="userSpaceOnUse"
       id="linearGradient5614"
       xlink:href="#outerBackgroundGradient"
       inkscape:collect="always" />
    <radialGradient
       gradientUnits="userSpaceOnUse"
       r="236"
       fy="151.78598"
       fx="256"
       cy="151.78598"
       cx="256"
       id="radialGradient6124"
       xlink:href="#linearGradient2460"
       inkscape:collect="always" />
    <linearGradient
       inkscape:collect="always"
       xlink:href="#linearGradient3737-9"
       id="linearGradient7749"
       gradientUnits="userSpaceOnUse"
       gradientTransform="translate(778.59979,-360.55963)"
       x1="993.43896"
       y1="51.511765"
       x2="988.78552"
       y2="363.73825" />
    <linearGradient
       inkscape:collect="always"
       xlink:href="#linearGradient4046-3"
       id="linearGradient7751"
       gradientUnits="userSpaceOnUse"
       x1="1764.6487"
       y1="155.59685"
       x2="1763.6903"
       y2="-55.941216" />
    <linearGradient
       inkscape:collect="always"
       xlink:href="#linearGradient2460-9"
       id="linearGradient3157"
       gradientUnits="userSpaceOnUse"
       gradientTransform="matrix(12.102564,0,0,12.102564,-34.468255,-46.187105)"
       x1="18.930269"
       y1="6.2951212"
       x2="19.360001"
       y2="36.643665" />
    <linearGradient
       id="linearGradient2460-9"
       y2="44.984001"
       gradientUnits="userSpaceOnUse"
       x2="19.360001"
       y1="21.030804"
       x1="19.244999">
      <stop
         id="stop3602-6"
         style="stop-color:#fafafa;stop-opacity:1;"
         offset="0" />
      <stop
         id="stop3604-4"
         style="stop-color:#f0f0f0;stop-opacity:1;"
         offset="1" />
    </linearGradient>
    <radialGradient
       gradientUnits="userSpaceOnUse"
       r="236"
       fy="151.78598"
       fx="256"
       cy="151.78598"
       cx="256"
       id="radialGradient6124-5"
       xlink:href="#linearGradient2460-7"
       inkscape:collect="always" />
    <linearGradient
       x1="19.244999"
       y1="21.030804"
       x2="19.360001"
       gradientUnits="userSpaceOnUse"
       y2="44.984001"
       id="linearGradient2460-7">
      <stop
         offset="0"
         style="stop-color:#00bdf0;stop-opacity:1;"
         id="stop3602-2" />
      <stop
         offset="1"
         style="stop-color:#0093dc;stop-opacity:1;"
         id="stop3604-5" />
    </linearGradient>
    <radialGradient
       gradientTransform="translate(-20,-20)"
       r="236"
       fy="151.78598"
       fx="256"
       cy="151.78598"
       cx="256"
       gradientUnits="userSpaceOnUse"
       id="radialGradient8295"
       xlink:href="#linearGradient2460-7"
       inkscape:collect="always" />
    <linearGradient
       y2="363.73825"
       x2="988.78552"
       y1="51.511765"
       x1="993.43896"
       gradientTransform="translate(778.59979,-360.55963)"
       gradientUnits="userSpaceOnUse"
       id="linearGradient4084-8-0"
       xlink:href="#linearGradient3737-9-9"
       inkscape:collect="always" />
    <linearGradient
       id="linearGradient3737-9-9">
      <stop
         offset="0"
         style="stop-color:#ffffff;stop-opacity:1"
         id="stop3739-7-4" />
      <stop
         offset="1"
         style="stop-color:#ffffff;stop-opacity:0"
         id="stop3741-4-1" />
    </linearGradient>
    <linearGradient
       y2="-55.941216"
       x2="1763.6903"
       y1="155.59685"
       x1="1764.6487"
       gradientUnits="userSpaceOnUse"
       id="linearGradient4086-12-7"
       xlink:href="#linearGradient4046-3-0"
       inkscape:collect="always" />
    <linearGradient
       id="linearGradient4046-3-0">
      <stop
         offset="0"
         style="stop-color:#000000;stop-opacity:1;"
         id="stop4048-7-4" />
      <stop
         offset="1"
         style="stop-color:#ffffff;stop-opacity:0.2"
         id="stop4050-73-8" />
    </linearGradient>
  </defs>
  <metadata
     id="metadata7">
    <rdf:RDF>
      <cc:Work
         rdf:about="">
        <dc:format>image/svg+xml</dc:format>
        <dc:type
           rdf:resource="http://purl.org/dc/dcmitype/StillImage" />
        <dc:title />
      </cc:Work>
    </rdf:RDF>
  </metadata>
  <g
     id="layer1"
     inkscape:groupmode="layer"
     inkscape:label="Livello 1"
     transform="translate(0,-552.36218)" />
  <g
     id="g2036"
     transform="matrix(1.1,0,0,0.44444,95.081063,244.39254)">
    <g
       id="g3712"
       style="opacity:0.4"
       transform="matrix(1.0526,0,0,1.2857,-1.2632,-13.429)" />
  </g>
  <g
     transform="translate(97.481063,219.28154)"
     id="g3541" />
  <g
     transform="translate(97.481063,219.28154)"
     id="g3536" />
  <g
     id="g4103"
     transform="translate(-11.985071,-604.11719)" />
  <g
     id="g4076"
     transform="translate(-605.51932,-365.96833)">
    <g
       transform="translate(-926.66758,684.38448)"
       id="g4038" />
  </g>
  <g
     id="g4205">
    <path
       inkscape:connector-curvature="0"
       id="path3387"
       d="m 25,427.27273 0,-47.72727 47.727274,0 47.727266,0 0,47.72727 0,47.72727 -47.727266,0 L 25,475 25,427.27273 z m 81.81817,0 0,-34.0909 -34.090896,0 -34.090915,0 0,34.0909 0,34.09091 34.090915,0 34.090896,0 0,-34.09091 z m -54.545446,0 0,-20.45454 20.45455,0 20.45454,0 0,20.45454 0,20.45455 -20.45454,0 -20.45455,0 0,-20.45455 z m 81.818176,34.09091 0,-13.63636 6.81818,0 6.81818,0 0,-6.81819 0,-6.81818 6.81818,0 6.81817,0 0,-6.81818 0,-6.81818 -13.63635,0 -13.63636,0 0,-13.63636 0,-13.63636 20.45454,0 20.45455,0 0,-6.81819 0,-6.81818 6.81818,0 6.81818,0 0,-6.81818 0,-6.81818 -6.81818,0 -6.81818,0 0,-6.81818 0,-6.81817 6.81818,0 6.81818,0 0,-6.81818 0,-6.81818 6.81817,0 6.81818,0 0,6.81818 0,6.81818 20.45455,0 20.45454,0 0,6.81817 0,6.81818 6.81818,0 6.81818,0 0,-13.63635 0,-13.63636 -13.63636,0 -13.63636,0 0,-13.63638 0,-13.63635 -6.81818,0 -6.81819,0 0,6.81818 0,6.81817 -6.81818,0 -6.81818,0 0,-6.81817 0,-6.81818 -6.81818,0 -6.81817,0 0,-6.81818 0,-6.81818 -13.63636,0 -13.63638,0 0,6.81818 0,6.81818 -6.81817,0 -6.81818,0 0,-6.81818 0,-6.81818 -6.81818,0 -6.81818,0 0,6.81818 0,6.81818 -13.63636,0 -13.63637,0 0,6.81818 0,6.81817 6.81819,0 6.81818,0 0,6.81818 0,6.8182 -6.81818,0 -6.81819,0 0,6.81818 0,6.81818 6.81819,0 6.81818,0 0,6.81817 0,6.81818 -13.63637,0 -13.636356,0 0,-13.63635 0,-13.63636 -13.63636,0 -13.63636,0 0,13.63636 0,13.63635 -20.45456,0 -20.454534,0 0,-6.81818 0,-6.81817 13.636359,0 13.636365,0 0,-6.81818 0,-6.81818 6.81819,0 6.81818,0 0,-6.8182 0,-6.81818 -20.45456,0 -20.454534,0 0,-40.90907 0,-40.90909 6.818179,0 6.81818,0 0,13.63636 0,13.63636 13.636365,0 13.63637,0 0,6.81818 0,6.81819 13.63636,0 13.63636,0 0,6.81818 0,6.81818 -20.45454,0 -20.45455,0 0,6.81818 0,6.81818 6.81819,0 6.81818,0 0,6.81818 0,6.81817 13.63636,0 13.63636,0 0,-6.81817 0,-6.81818 6.81818,0 6.818176,0 0,-6.81818 0,-6.81818 6.81819,0 6.81818,0 0,-6.81818 0,-6.81818 -6.81818,0 -6.81819,0 0,-6.81819 0,-6.81818 6.81819,0 6.81818,0 0,6.81818 0,6.81819 20.45454,0 20.45453,0 0,-6.81819 0,-6.81818 -13.63635,0 -13.63636,0 0,-6.81818 0,-6.81818 -20.45454,0 -20.454546,0 0,6.81818 0,6.81818 -6.81818,0 -6.81818,0 0,-6.81818 0,-6.81818 6.81818,0 6.81818,0 0,-6.81818 0,-6.81818 -6.81818,0 -6.81818,0 0,-6.81818 0,-6.81818 -6.81818,0 -6.81818,0 0,6.81818 0,6.81818 -6.81818,0 -6.81819,0 0,-6.81818 0,-6.81818 6.81819,0 6.81818,0 0,-6.81818 0,-6.81819 -13.63637,0 -13.636365,0 0,-6.81818 0,-6.81818 6.818175,0 6.81819,0 0,-6.81818 0,-6.81818 -6.81819,0 -6.818175,0 0,-13.63636 0,-13.63637 40.909095,0 40.909086,0 0,-6.81818 0,-6.81818 -20.454546,0 -20.45454,0 0,-6.81818 0,-6.81818 20.45454,0 20.454546,0 0,6.81818 0,6.81818 6.81818,0 6.81818,0 0,6.81818 0,6.81818 6.81818,0 6.81818,0 0,-6.81818 0,-6.81818 13.63635,0 13.63638,0 0,-6.81818 0,-6.81818 6.81818,0 6.81818,0 0,-13.63636 0,-13.63637 -6.81818,0 -6.81818,0 0,6.8182 0,6.81817 -6.81818,0 -6.8182,0 0,6.81818 0,6.81818 -6.81817,0 -6.81818,0 0,-6.81818 0,-6.81818 -6.81818,0 -6.81818,0 0,-13.63637 0,-13.63636 6.81818,0 6.81818,0 0,13.63636 0,13.63637 6.81818,0 6.81817,0 0,-6.81817 0,-6.8182 6.8182,0 6.81818,0 0,-6.81818 0,-6.81818 13.63636,0 13.63635,0 0,-13.636354 0,-13.636359 13.63636,0 13.63637,0 0,6.818179 0,6.81818 6.81818,0 6.81818,0 0,-6.81818 0,-6.818179 6.81818,0 6.81818,0 0,-6.818182 0,-6.818192 6.81818,0 6.81818,0 0,-13.636359 0,-13.636359 6.81818,0 6.81819,0 0,6.81818 0,6.818179 13.63636,0 13.63636,0 0,-6.818179 0,-6.81818 6.81815,0 6.81822,0 0,6.81818 0,6.818179 6.81822,0 6.81809,0 0,-6.818179 0,-6.81818 6.81822,0 6.81822,0 0,6.81818 0,6.818179 -6.81822,0 -6.81822,0 0,6.818179 0,6.81818 13.63644,0 13.6363,0 0,6.818192 0,6.818182 -6.81822,0 -6.81808,0 0,13.636359 0,13.636354 6.81808,0 6.81822,0 0,20.45456 0,20.45453 -20.45452,0 -20.45453,0 0,13.63636 0,13.63636 -6.81822,0 -6.81815,0 0,-13.63636 0,-13.63636 -6.81818,0 -6.81818,0 0,6.81818 0,6.81818 -6.81818,0 -6.81818,0 0,13.63636 0,13.63637 -6.81819,0 -6.81818,0 0,13.63636 0,13.63636 6.81818,0 6.81819,0 0,13.63636 0,13.63637 -6.81819,0 -6.81818,0 0,13.63636 0,13.63636 6.81818,0 6.81819,0 0,-6.81818 0,-6.81818 6.81818,0 6.81818,0 0,-13.63636 0,-13.63637 6.81818,0 6.81818,0 0,6.81819 0,6.81818 6.81815,0 6.81822,0 0,-13.63637 0,-13.63636 -13.63637,0 -13.63636,0 0,-13.63636 0,-13.63636 13.63636,0 13.63637,0 0,6.81818 0,6.81818 13.63631,0 13.63644,0 0,-6.81818 0,-6.81818 -6.81822,0 -6.81822,0 0,-13.63637 0,-13.63636 6.81822,0 6.81822,0 0,13.63636 0,13.63637 6.81808,0 6.81822,0 0,-13.63637 0,-13.63636 6.81822,0 6.81822,0 0,6.81818 0,6.81818 6.81809,0 6.81821,0 0,-13.63636 0,-13.63636 6.81822,0 6.81809,0 0,13.63636 0,13.63636 -6.81809,0 -6.81822,0 0,20.45455 0,20.45454 6.81822,0 6.81809,0 0,-6.81818 0,-6.81818 6.81822,0 6.81822,0 0,-13.63636 0,-13.63637 13.6363,0 13.63644,0 0,6.81819 0,6.81818 -6.81822,0 -6.81822,0 0,6.81818 0,6.81818 -6.81808,0 -6.81822,0 0,6.81818 0,6.81818 6.81822,0 6.81808,0 0,6.81818 0,6.81818 13.63644,0 13.63631,0 0,6.81819 0,6.81818 -13.63631,0 -13.63644,0 0,6.81818 0,6.81818 -6.81808,0 -6.81822,0 0,6.81818 0,6.81818 6.81822,0 6.81808,0 0,6.81818 0,6.81818 13.63644,0 13.63631,0 0,6.81818 0,6.81819 -13.63631,0 -13.63644,0 0,-6.81819 0,-6.81818 -6.81808,0 -6.81822,0 0,6.81818 0,6.81819 -6.81822,0 -6.81822,0 0,-6.81819 0,-6.81818 -6.81809,0 -6.81822,0 0,20.45455 0,20.45454 -6.81821,0 -6.81809,0 0,6.81818 0,6.81817 6.81809,0 6.81821,0 0,13.63638 0,13.63636 6.81822,0 6.81809,0 0,-13.63636 0,-13.63638 6.81822,0 6.81822,0 0,-6.81817 0,-6.81818 -6.81822,0 -6.81822,0 0,-6.81818 0,-6.81818 6.81822,0 6.81822,0 0,6.81818 0,6.81818 13.6363,0 13.63644,0 0,6.81818 0,6.81817 6.81809,0 6.81822,0 0,6.81818 0,6.8182 -13.63631,0 -13.63644,0 0,-6.8182 0,-6.81818 -6.81808,0 -6.81822,0 0,20.45456 0,20.45453 6.81822,0 6.81808,0 0,6.81818 0,6.81818 6.81822,0 6.81822,0 0,-13.63636 0,-13.63635 6.81809,0 6.81822,0 0,20.45453 0,20.45455 -20.45453,0 -20.45452,0 0,13.63636 0,13.63636 6.81822,0 6.81808,0 0,6.81818 0,6.81818 6.81822,0 6.81822,0 0,-13.63636 0,-13.63636 13.63631,0 13.63644,0 0,13.63636 0,13.63636 -6.81822,0 -6.81822,0 0,6.81818 0,6.81819 -13.63631,0 -13.63644,0 0,-6.81819 0,-6.81818 -6.81808,0 -6.81822,0 0,20.45455 0,20.45454 -13.63644,0 -13.63631,0 0,-6.81818 0,-6.81818 6.81822,0 6.81809,0 0,-20.45455 0,-20.45454 -6.81809,0 -6.81822,0 0,13.63636 0,13.63637 -13.6363,0 -13.63644,0 0,6.81818 0,6.81818 6.81822,0 6.81822,0 0,6.81818 0,6.81818 -34.09096,0 -34.0909,0 0,-13.63636 0,-13.63636 27.27268,0 27.27274,0 0,-6.81819 0,-6.81818 6.81822,0 6.81822,0 0,-6.81818 0,-6.81818 -13.63644,0 -13.6363,0 0,6.81818 0,6.81818 -6.81822,0 -6.81822,0 0,-6.81818 0,-6.81818 6.81822,0 6.81822,0 0,-6.81818 0,-6.81818 -6.81822,0 -6.81822,0 0,-6.81818 0,-6.81818 6.81822,0 6.81822,0 0,-13.63637 0,-13.63636 -6.81822,0 -6.81822,0 0,6.81818 0,6.81818 -6.81809,0 -6.81822,0 0,-6.81818 0,-6.81818 -6.81822,0 -6.81815,0 0,-13.63635 0,-13.63636 6.81815,0 6.81822,0 0,6.81818 0,6.81818 13.63631,0 13.63644,0 0,-6.81818 0,-6.81818 -6.81822,0 -6.81822,0 0,-13.63638 0,-13.63635 -6.81809,0 -6.81822,0 0,6.81818 0,6.81817 -13.63637,0 -13.63636,0 0,-13.63635 0,-13.63636 -13.63636,0 -13.63637,0 0,6.81818 0,6.81818 -6.81818,0 -6.81818,0 0,6.81818 0,6.81817 13.63636,0 13.63637,0 0,6.81818 0,6.8182 -6.81819,0 -6.81818,0 0,6.81818 0,6.81818 13.63637,0 13.63636,0 0,6.81817 0,6.81818 -6.81818,0 -6.81818,0 0,20.45454 0,20.45455 -13.63637,0 -13.63636,0 0,-13.63636 0,-13.63637 -6.81818,0 -6.81818,0 0,6.81818 0,6.81819 -6.81818,0 -6.81818,0 0,-13.63637 0,-13.63636 -13.63637,0 -13.63636,0 0,6.81818 0,6.81818 -6.81818,0 -6.81817,0 0,13.63637 0,13.63636 6.81817,0 6.81818,0 0,-6.81818 0,-6.81818 6.81818,0 6.81818,0 0,6.81818 0,6.81818 13.63637,0 13.63636,0 0,6.81818 0,6.81818 20.45454,0 20.45455,0 0,6.81818 0,6.81818 -6.81819,0 -6.81818,0 0,6.81818 0,6.81819 6.81818,0 6.81819,0 0,6.81818 0,6.81818 6.81818,0 6.81818,0 0,6.81818 0,6.81818 -6.81818,0 -6.81818,0 0,-6.81818 0,-6.81818 -6.81819,0 -6.81818,0 0,6.81818 0,6.81818 -6.81818,0 -6.81818,0 0,-6.81818 0,-6.81818 -6.81818,0 -6.81818,0 0,-6.81818 0,-6.81818 -6.81818,0 -6.81818,0 0,6.81818 0,6.81818 -6.81818,0 -6.81819,0 0,-6.81818 0,-6.81818 -6.81818,0 -6.81818,0 0,6.81818 0,6.81818 -6.81818,0 -6.81817,0 0,-6.81818 0,-6.81818 -6.81818,0 -6.81818,0 0,6.81818 0,6.81818 -6.81818,0 -6.8182,0 0,-6.81818 0,-6.81818 -6.81817,0 -6.81818,0 0,13.63636 0,13.63636 -6.81818,0 -6.81818,0 0,-13.63636 z m 122.72725,-20.45455 0,-6.81818 -6.81818,0 -6.81818,0 0,6.81818 0,6.81819 6.81818,0 6.81818,0 0,-6.81819 z m -54.54545,-13.63636 0,-6.81818 6.81818,0 6.81818,0 0,-6.81818 0,-6.81818 -6.81818,0 -6.81818,0 0,6.81818 0,6.81818 -6.81818,0 -6.81817,0 0,-6.81818 0,-6.81818 -13.63636,0 -13.63638,0 0,6.81818 0,6.81818 6.8182,0 6.81818,0 0,6.81818 0,6.81818 13.63636,0 13.63635,0 0,-6.81818 z m 204.54537,-40.90909 0,-20.45454 -20.45452,0 -20.45453,0 0,20.45454 0,20.45455 20.45453,0 20.45452,0 0,-20.45455 z m -27.27261,0 0,-6.81818 6.81809,0 6.81821,0 0,6.81818 0,6.81819 -6.81821,0 -6.81809,0 0,-6.81819 z m -13.63644,-68.1818 0,-6.81818 6.81822,0 6.81822,0 0,-13.63636 0,-13.63636 -20.45466,0 -20.45452,0 0,13.63636 0,13.63636 6.81822,0 6.81822,0 0,6.81818 0,6.81817 6.81808,0 6.81822,0 0,-6.81817 z m -13.6363,-13.63636 0,-6.81818 6.81808,0 6.81822,0 0,6.81818 0,6.81818 -6.81822,0 -6.81808,0 0,-6.81818 z m -109.09093,-6.81818 0,-13.63636 6.81818,0 6.81818,0 0,-6.81819 0,-6.81818 6.81818,0 6.81818,0 0,6.81818 0,6.81819 13.63637,0 13.63636,0 0,-6.81819 0,-6.81818 6.81818,0 6.81818,0 0,-13.63636 0,-13.63636 -6.81818,0 -6.81818,0 0,13.63636 0,13.63636 -13.63636,0 -13.63637,0 0,-6.81818 0,-6.81818 -13.63636,0 -13.63636,0 0,13.63636 0,13.63637 -6.81818,0 -6.81818,0 0,13.63636 0,13.63636 6.81818,0 6.81818,0 0,-13.63636 z m -190.909066,-6.81818 0,-6.81818 -6.81819,0 -6.818175,0 0,6.81818 0,6.81818 6.818175,0 6.81819,0 0,-6.81818 z m 163.636336,-6.81818 0,-13.63637 6.81819,0 6.81818,0 0,-6.81818 0,-6.81818 -6.81818,0 -6.81819,0 0,-6.81818 0,-6.81818 20.45455,0 20.45454,0 0,-13.63636 0,-13.63637 -6.81818,0 -6.81818,0 0,6.81819 0,6.81818 -13.63636,0 -13.63637,0 0,-6.81818 0,-6.81819 6.81819,0 6.81818,0 0,-6.81818 0,-6.81818 13.63636,0 13.63636,0 0,-6.81818 0,-6.81818 -6.81818,0 -6.81818,0 0,-6.81818 0,-6.81818 13.63636,0 13.63636,0 0,-13.63637 0,-13.63636 6.81818,0 6.81819,0 0,-6.81818 0,-6.81818 6.81818,0 6.81818,0 0,-13.63636 0,-13.63637 -6.81818,0 -6.81818,0 0,-6.81818 0,-6.81818 13.63636,0 13.63636,0 0,13.63636 0,13.63637 6.81815,0 6.81822,0 0,-20.45455 0,-20.454534 6.81822,0 6.81809,0 0,-6.81818 0,-6.818179 -13.63631,0 -13.63637,0 0,-6.818182 0,-6.818192 -6.81818,0 -6.81818,0 0,6.818192 0,6.818182 -20.45455,0 -20.45454,0 0,6.818179 0,6.81818 13.63636,0 13.63637,0 0,6.818179 0,6.818175 -13.63637,0 -13.63636,0 0,13.63636 0,13.63637 -6.81818,0 -6.81818,0 0,-13.63637 0,-13.63636 -13.63636,0 -13.63637,0 0,6.81818 0,6.81818 -6.81818,0 -6.81818,0 0,13.63637 0,13.63636 -6.81818,0 -6.81817,0 0,6.81818 0,6.81818 -6.81818,0 -6.81818,0 0,6.81818 0,6.81818 -13.63638,0 -13.63635,0 0,6.81819 0,6.81818 -20.45454,0 -20.45455,0 0,6.81818 0,6.81818 -6.818176,0 -6.81818,0 0,-6.81818 0,-6.81818 -13.63636,0 -13.63636,0 0,6.81818 0,6.81818 6.81818,0 6.81818,0 0,6.81818 0,6.81818 -6.81818,0 -6.81818,0 0,6.81818 0,6.81818 6.81818,0 6.81818,0 0,6.81819 0,6.81818 6.81818,0 6.81818,0 0,-6.81818 0,-6.81819 -6.81818,0 -6.81818,0 0,-6.81818 0,-6.81818 13.63636,0 13.636356,0 0,6.81818 0,6.81818 6.81819,0 6.81818,0 0,6.81819 0,6.81818 -6.81818,0 -6.81819,0 0,6.81818 0,6.81818 6.81819,0 6.81818,0 0,-6.81818 0,-6.81818 6.81818,0 6.81818,0 0,13.63636 0,13.63636 6.81818,0 6.81818,0 0,-6.81818 0,-6.81818 20.45455,0 20.45454,0 0,6.81818 0,6.81818 -13.63636,0 -13.63638,0 0,6.81818 0,6.81818 13.63638,0 13.63636,0 0,-6.81818 0,-6.81818 6.81817,0 6.81818,0 0,13.63636 0,13.63637 -6.81818,0 -6.81817,0 0,6.81818 0,6.81818 13.63635,0 13.63636,0 0,-13.63636 z m -27.27271,-47.72727 0,-6.81818 6.81817,0 6.81818,0 0,6.81818 0,6.81818 -6.81818,0 -6.81817,0 0,-6.81818 z m -40.90909,-13.63636 0,-6.81819 -6.81818,0 -6.81818,0 0,-13.63636 0,-13.63636 6.81818,0 6.81818,0 0,13.63636 0,13.63636 13.63635,0 13.63638,0 0,6.81819 0,6.81818 -13.63638,0 -13.63635,0 0,-6.81818 z m 54.54544,-13.63637 0,-6.81818 -6.81818,0 -6.81817,0 0,-6.81818 0,-6.81818 -6.81818,0 -6.81818,0 0,6.81818 0,6.81818 -6.81818,0 -6.8182,0 0,-13.63636 0,-13.63636 6.8182,0 6.81818,0 0,-6.81818 0,-6.81819 6.81818,0 6.81818,0 0,-6.81818 0,-6.81818 6.81817,0 6.81818,0 0,6.81818 0,6.81818 6.81818,0 6.81818,0 0,-6.81818 0,-6.81818 6.81819,0 6.81818,0 0,-6.81818 0,-6.81818 -6.81818,0 -6.81819,0 0,-13.63636 0,-13.63637 6.81819,0 6.81818,0 0,13.63637 0,13.63636 6.81818,0 6.81818,0 0,6.81818 0,6.81818 6.81818,0 6.81818,0 0,6.81818 0,6.81818 -6.81818,0 -6.81818,0 0,6.81819 0,6.81818 -27.27273,0 -27.27271,0 0,6.81818 0,6.81818 6.81817,0 6.81818,0 0,6.81818 0,6.81818 6.81818,0 6.81818,0 0,6.81818 0,6.81818 -6.81818,0 -6.81818,0 0,-6.81818 z m -95.45453,-13.63636 0,-6.81818 6.81819,0 6.81818,0 0,6.81818 0,6.81818 -6.81818,0 -6.81819,0 0,-6.81818 z m 149.99998,-68.18181 0,-6.81818 6.81818,0 6.81818,0 0,-6.81817 0,-6.8182 6.81818,0 6.81819,0 0,13.63637 0,13.63636 -13.63637,0 -13.63636,0 0,-6.81818 z m 40.90909,-54.545444 0,-6.818179 6.81818,0 6.81818,0 0,6.818179 0,6.81818 -6.81818,0 -6.81818,0 0,-6.81818 z m 40.90904,190.909064 0,-6.81818 -6.81809,0 -6.81822,0 0,6.81818 0,6.81818 6.81822,0 6.81809,0 0,-6.81818 z m 27.27274,0 0,-6.81818 -6.81822,0 -6.81808,0 0,6.81818 0,6.81818 6.81808,0 6.81822,0 0,-6.81818 z m 27.27274,0 0,-6.81818 6.81822,0 6.81809,0 0,6.81818 0,6.81818 6.81822,0 6.81822,0 0,-6.81818 0,-6.81818 -6.81822,0 -6.81822,0 0,-6.81818 0,-6.81818 6.81822,0 6.81822,0 0,-6.81818 0,-6.81818 6.81822,0 6.81808,0 0,-6.81818 0,-6.81819 -6.81808,0 -6.81822,0 0,-6.81818 0,-6.81818 -6.81822,0 -6.81822,0 0,6.81818 0,6.81818 6.81822,0 6.81822,0 0,6.81819 0,6.81818 -13.63644,0 -13.63631,0 0,13.63636 0,13.63636 -6.81821,0 -6.81809,0 0,6.81818 0,6.81818 6.81809,0 6.81821,0 0,-6.81818 z m -40.90904,-27.27272 0,-6.81818 -13.63644,0 -13.63631,0 0,6.81818 0,6.81818 13.63631,0 13.63644,0 0,-6.81818 z m 27.27274,-13.63636 0,-6.81819 6.81809,0 6.81821,0 0,-6.81818 0,-6.81818 -6.81821,0 -6.81809,0 0,-6.81818 0,-6.81818 -6.81822,0 -6.81822,0 0,6.81818 0,6.81818 -6.81822,0 -6.81808,0 0,6.81818 0,6.81818 6.81808,0 6.81822,0 0,6.81819 0,6.81818 6.81822,0 6.81822,0 0,-6.81818 z m -13.63644,-13.63637 0,-6.81818 6.81822,0 6.81822,0 0,6.81818 0,6.81818 -6.81822,0 -6.81822,0 0,-6.81818 z m -13.6363,-102.27272 0,-13.63636 -6.81822,0 -6.81822,0 0,13.63636 0,13.63637 6.81822,0 6.81822,0 0,-13.63637 z m 109.09084,361.3636 0,-6.81818 6.81822,0 6.81822,0 0,6.81818 0,6.81818 -6.81822,0 -6.81822,0 0,-6.81818 z m -149.99996,-40.90909 0,-6.81818 -6.81818,0 -6.81818,0 0,-6.81818 0,-6.81818 6.81818,0 6.81818,0 0,-6.81818 0,-6.81818 6.81815,0 6.81822,0 0,20.45454 0,20.45454 -6.81822,0 -6.81815,0 0,-6.81818 z m -177.2727,-54.54545 0,-6.81818 13.63636,0 13.63635,0 0,6.81818 0,6.81818 -13.63635,0 -13.63636,0 0,-6.81818 z m 13.63636,-27.27271 0,-6.81818 -6.81818,0 -6.81818,0 0,-6.8182 0,-6.81818 6.81818,0 6.81818,0 0,6.81818 0,6.8182 6.81818,0 6.81817,0 0,-6.8182 0,-6.81818 6.8182,0 6.81818,0 0,6.81818 0,6.8182 -6.81818,0 -6.8182,0 0,6.81818 0,6.81818 -6.81817,0 -6.81818,0 0,-6.81818 z m 313.6363,-40.90909 0,-6.81818 6.81822,0 6.81822,0 0,6.81818 0,6.81818 -6.81822,0 -6.81822,0 0,-6.81818 z m 0,-54.54545 0,-6.81818 6.81822,0 6.81822,0 0,6.81818 0,6.81818 -6.81822,0 -6.81822,0 0,-6.81818 z m -13.63631,-54.54545 0,-6.81818 13.63631,0 13.63644,0 0,6.81818 0,6.81818 -13.63644,0 -13.63631,0 0,-6.81818 z M 25,140.90913 l 0,-6.81818 13.636359,0 13.636365,0 0,6.81818 0,6.81818 -13.636365,0 -13.636359,0 0,-6.81818 z m 395.45451,0 0,-6.81818 27.27274,0 27.27275,0 0,6.81818 0,6.81818 -27.27275,0 -27.27274,0 0,-6.81818 z M 25,72.727326 l 0,-47.727271 47.727274,0 47.727266,0 0,47.727271 0,47.727274 -47.727266,0 -47.727274,0 0,-47.727274 z m 81.81817,0 0,-34.090912 -34.090896,0 -34.090915,0 0,34.090912 0,34.090894 34.090915,0 34.090896,0 0,-34.090894 z m -54.545446,0 0,-20.454553 20.45455,0 20.45454,0 0,20.454553 0,20.454534 -20.45454,0 -20.45455,0 0,-20.454534 z m 327.272736,0 0,-47.727271 47.72727,0 47.72727,0 0,47.727271 0,47.727274 -47.72727,0 -47.72727,0 0,-47.727274 z m 81.8181,0 0,-34.090912 -34.09083,0 -34.09097,0 0,34.090912 0,34.090894 34.09097,0 34.09083,0 0,-34.090894 z m -54.54549,0 0,-20.454553 20.45466,0 20.45452,0 0,20.454553 0,20.454534 -20.45452,0 -20.45466,0 0,-20.454534 z M 134.0909,52.272773 l 0,-27.272718 20.45454,0 20.45455,0 0,13.636359 0,13.636359 6.81818,0 6.81818,0 0,13.636374 0,13.636359 -6.81818,0 -6.81818,0 0,-6.81818 0,-6.818179 -6.81818,0 -6.8182,0 0,6.818179 0,6.81818 -13.63635,0 -13.63636,0 0,-27.272733 z m 27.27271,6.818192 0,-6.818192 -6.81817,0 -6.81818,0 0,6.818192 0,6.818182 6.81818,0 6.81817,0 0,-6.818182 z m 40.90909,-13.636372 0,-6.818179 -6.81818,0 -6.81817,0 0,-6.818179 0,-6.81818 13.63635,0 13.63636,0 0,13.636359 0,13.636359 -6.81818,0 -6.81818,0 0,-6.81818 z m 27.27273,-13.636358 0,-6.81818 13.63636,0 13.63636,0 0,6.81818 0,6.818179 -13.63636,0 -13.63636,0 0,-6.818179 z"
       style="fill:#ff6600" />
    <rect
       transform="matrix(0.81550735,-0.57874672,0.57874672,0.81550735,0,0)"
       ry="0"
       y="319.77072"
       x="-194.43486"
       height="114.473"
       width="472.06482"
       id="rect3394"
       style="fill:#ebebeb;fill-opacity:1;stroke:none;stroke-width:15;stroke-linecap:round;stroke-miterlimit:4;stroke-dasharray:none;stroke-opacity:1" />
    <g
       id="flowRoot3386"
       style="font-style:normal;font-weight:normal;font-size:40px;line-height:125%;font-family:sans-serif;letter-spacing:0px;word-spacing:0px;fill:#ff6600;fill-opacity:1;stroke:none;stroke-width:1px;stroke-linecap:butt;stroke-linejoin:miter;stroke-opacity:1"
       transform="matrix(2.4920678,-1.7685629,1.7685629,2.4920678,-839.52295,-952.0602)">
      <path
         id="path3397"
         d="m -3.8613281,522.10825 q -4.296875,0 -6.8359379,3.20312 -2.519531,3.20313 -2.519531,8.73047 0,5.50781 2.519531,8.71094 2.5390629,3.20312 6.8359379,3.20312 4.29687498,0 6.796875,-3.20312 2.5195312,-3.20313 2.5195312,-8.71094 0,-5.52734 -2.5195312,-8.73047 -2.50000002,-3.20312 -6.796875,-3.20312 z m 5.5273437,25.95703 5.1953125,5.68359 -4.765625,0 -4.3164062,-4.66797 q -0.6445313,0.0391 -0.9960938,0.0586 -0.3320312,0.0195 -0.6445312,0.0195 -6.1523439,0 -9.8437499,-4.10156 -3.671875,-4.1211 -3.671875,-11.01563 0,-6.91406 3.671875,-11.01562 3.691406,-4.1211 9.8437499,-4.1211 6.1328125,0 9.8046875,4.1211 3.671875,4.10156 3.671875,11.01562 0,5.07813 -2.0507813,8.69141 -2.03125,3.61328 -5.8984375,5.33203 z"
         inkscape:connector-curvature="0" />
      <path
         id="path3399"
         d="m 28.306641,530.077 q -0.605469,-0.35156 -1.328125,-0.50781 -0.703125,-0.17579 -1.5625,-0.17579 -3.046875,0 -4.6875,1.99219 -1.621094,1.97266 -1.621094,5.6836 l 0,11.52343 -3.613281,0 0,-21.875 3.613281,0 0,3.39844 q 1.132812,-1.99219 2.949219,-2.94922 1.816406,-0.97656 4.414062,-0.97656 0.371094,0 0.820313,0.0586 0.449218,0.0391 0.996093,0.13672 l 0.01953,3.69141 z"
         inkscape:connector-curvature="0" />
      <path
         id="path3401"
         d="m 49.966797,536.75669 0,1.75781 -16.523438,0 q 0.234375,3.71094 2.226563,5.66406 2.011719,1.93359 5.585937,1.93359 2.070313,0 4.003907,-0.50781 1.953125,-0.50781 3.867187,-1.52344 l 0,3.39844 q -1.933594,0.82031 -3.964844,1.25 -2.03125,0.42969 -4.121093,0.42969 -5.234375,0 -8.300782,-3.04688 -3.046875,-3.04687 -3.046875,-8.24218 0,-5.3711 2.890625,-8.51563 2.910157,-3.16406 7.832032,-3.16406 4.414062,0 6.972656,2.85156 2.578125,2.83203 2.578125,7.71485 z m -3.59375,-1.05469 q -0.03906,-2.94922 -1.660156,-4.70703 -1.601563,-1.75782 -4.257813,-1.75782 -3.007812,0 -4.824219,1.69922 -1.796875,1.69922 -2.070312,4.78516 l 12.8125,-0.0195 z"
         inkscape:connector-curvature="0" />
      <path
         id="path3403"
         d="m 65.806641,537.59653 q -4.355469,0 -6.035157,0.99609 -1.679687,0.9961 -1.679687,3.39844 0,1.91406 1.25,3.04688 1.269531,1.11328 3.4375,1.11328 2.988281,0 4.785156,-2.10938 1.816406,-2.1289 1.816406,-5.64453 l 0,-0.80078 -3.574218,0 z m 7.167968,-1.48438 0,12.48047 -3.59375,0 0,-3.32031 q -1.230468,1.99219 -3.066406,2.94922 -1.835937,0.9375 -4.492187,0.9375 -3.359375,0 -5.351563,-1.875 -1.972656,-1.89453 -1.972656,-5.05859 0,-3.69141 2.460937,-5.56641 2.480469,-1.875 7.382813,-1.875 l 5.039062,0 0,-0.35156 q 0,-2.48047 -1.640625,-3.82813 -1.621093,-1.36719 -4.570312,-1.36719 -1.875,0 -3.652344,0.44922 -1.777344,0.44922 -3.417969,1.34766 l 0,-3.32031 q 1.972657,-0.76172 3.828125,-1.13282 1.855469,-0.39062 3.613282,-0.39062 4.746093,0 7.089843,2.46094 2.34375,2.46093 2.34375,7.46093 z"
         inkscape:connector-curvature="0" />
      <path
         id="path3405"
         d="m 83.951172,520.50669 0,6.21093 7.402344,0 0,2.79297 -7.402344,0 0,11.875 q 0,2.67578 0.722656,3.4375 0.742188,0.76172 2.988281,0.76172 l 3.691407,0 0,3.00781 -3.691407,0 q -4.160156,0 -5.742187,-1.54297 -1.582031,-1.5625 -1.582031,-5.66406 l 0,-11.875 -2.636719,0 0,-2.79297 2.636719,0 0,-6.21093 3.613281,0 z"
         inkscape:connector-curvature="0" />
      <path
         id="path3407"
         d="m 104.57617,529.23715 q -2.89062,0 -4.57031,2.26563 -1.679688,2.24609 -1.679688,6.17187 0,3.92579 1.660156,6.19141 1.679692,2.24609 4.589842,2.24609 2.8711,0 4.55078,-2.26562 1.67969,-2.26563 1.67969,-6.17188 0,-3.88671 -1.67969,-6.15234 -1.67968,-2.28516 -4.55078,-2.28516 z m 0,-3.04687 q 4.6875,0 7.36328,3.04687 2.67578,3.04688 2.67578,8.4375 0,5.3711 -2.67578,8.4375 -2.67578,3.04688 -7.36328,3.04688 -4.707029,0 -7.382811,-3.04688 -2.65625,-3.0664 -2.65625,-8.4375 0,-5.39062 2.65625,-8.4375 2.675782,-3.04687 7.382811,-3.04687 z"
         inkscape:connector-curvature="0" />
      <path
         id="path3409"
         d="m 133.22852,530.077 q -0.60547,-0.35156 -1.32813,-0.50781 -0.70312,-0.17579 -1.5625,-0.17579 -3.04687,0 -4.6875,1.99219 -1.62109,1.97266 -1.62109,5.6836 l 0,11.52343 -3.61328,0 0,-21.875 3.61328,0 0,3.39844 q 1.13281,-1.99219 2.94922,-2.94922 1.8164,-0.97656 4.41406,-0.97656 0.37109,0 0.82031,0.0586 0.44922,0.0391 0.99609,0.13672 l 0.0195,3.69141 z"
         inkscape:connector-curvature="0" />
    </g>
  </g>
</svg>
