<?xml version="1.0" encoding="UTF-8" standalone="no"?>
<!-- Created using Karbon, part of Calligra: http://www.calligra.org/karbon -->

<svg
   xmlns:dc="http://purl.org/dc/elements/1.1/"
   xmlns:cc="http://creativecommons.org/ns#"
   xmlns:rdf="http://www.w3.org/1999/02/22-rdf-syntax-ns#"
   xmlns:svg="http://www.w3.org/2000/svg"
   xmlns="http://www.w3.org/2000/svg"
   xmlns:sodipodi="http://sodipodi.sourceforge.net/DTD/sodipodi-0.dtd"
   xmlns:inkscape="http://www.inkscape.org/namespaces/inkscape"
   width="500"
   height="500"
   id="svg2"
   version="1.1"
   inkscape:version="0.91 r13725"
   sodipodi:docname="quiterss.svg">
  <metadata
     id="metadata11">
    <rdf:RDF>
      <cc:Work
         rdf:about="">
        <dc:format>image/svg+xml</dc:format>
        <dc:type
           rdf:resource="http://purl.org/dc/dcmitype/StillImage" />
        <dc:title />
      </cc:Work>
    </rdf:RDF>
  </metadata>
  <sodipodi:namedview
     pagecolor="#ffffff"
     bordercolor="#666666"
     borderopacity="1"
     objecttolerance="10"
     gridtolerance="10"
     guidetolerance="10"
     inkscape:pageopacity="0"
     inkscape:pageshadow="2"
     inkscape:window-width="1366"
     inkscape:window-height="715"
     id="namedview9"
     showgrid="false"
     inkscape:showpageshadow="false"
     borderlayer="true"
     inkscape:zoom="0.43457602"
     inkscape:cx="239.05019"
     inkscape:cy="309.28719"
     inkscape:window-x="0"
     inkscape:window-y="24"
     inkscape:window-maximized="1"
     inkscape:current-layer="svg2"
     showguides="false">
    <sodipodi:guide
       position="9.5367432e-07,48.000001"
       orientation="47.999999,0"
       id="guide4069" />
    <sodipodi:guide
       position="9.5367432e-07,1.9073486e-06"
       orientation="0,47.999999"
       id="guide4071" />
    <sodipodi:guide
       position="48,1.9073486e-06"
       orientation="-47.999999,0"
       id="guide4073" />
    <sodipodi:guide
       position="48,48.000001"
       orientation="0,-47.999999"
       id="guide4075" />
    <sodipodi:guide
       position="4.000001,44.000001"
       orientation="39.999999,0"
       id="guide4077" />
    <sodipodi:guide
       position="4.000001,4.0000019"
       orientation="0,39.999999"
       id="guide4079" />
    <sodipodi:guide
       position="44,4.0000019"
       orientation="-39.999999,0"
       id="guide4081" />
    <sodipodi:guide
       position="44,44.000001"
       orientation="0,-39.999999"
       id="guide4083" />
  </sodipodi:namedview>
  <defs
     id="defs4" />
  <g
     id="g4147">
    <rect
       ry="14.838787"
       y="25"
       x="25"
       height="450"
       width="450"
       id="rect2990"
       style="fill:#45d03f;fill-opacity:1;stroke:none" />
    <path
       inkscape:connector-curvature="0"
       style="fill:#ffffff;fill-opacity:1;stroke:none"
       d="m 34.809812,153.42956 0,62.4778 62.477863,0 c 103.838195,0 187.433645,83.59558 187.433645,187.43382 l 0,62.47789 62.47788,0 0,-62.47789 c 0,-138.45094 -111.4606,-249.91162 -249.911525,-249.91162 l -62.477863,0 z m 0,124.95585 0,62.47788 62.477863,0 c 34.612705,0 62.477885,27.86519 62.477885,62.47789 l 0,62.47789 62.4779,0 0,-62.47789 c 0,-69.22554 -55.73037,-124.95577 -124.955785,-124.95577 l -62.477863,0 z m 36.445434,114.54271 c -20.190816,0 -36.445434,16.25463 -36.445434,36.44548 0,20.19085 16.254618,36.44547 36.445434,36.44547 20.190753,0 36.445404,-16.25462 36.445404,-36.44547 0,-20.19085 -16.254651,-36.44548 -36.445404,-36.44548 z"
       id="rect4116-7" />
    <path
       inkscape:transform-center-x="4.2899268e-05"
       transform="matrix(9.2821911,0,0,-9.7598726,-3379.9444,-5042.9779)"
       inkscape:transform-center-y="-32.724743"
       d="m 400.45013,-521.02831 -3.94159,-7.98655 -8.81369,-1.2807 6.37764,-6.21666 -1.50555,-8.77807 7.88319,4.14444 7.8832,-4.14444 -1.50555,8.77807 6.37764,6.21666 -8.81369,1.2807 z"
       inkscape:randomized="0"
       inkscape:rounded="0"
       inkscape:flatsided="false"
       sodipodi:arg2="2.1991148"
       sodipodi:arg1="1.5707963"
       sodipodi:r2="6.7058487"
       sodipodi:r1="13.411697"
       sodipodi:cy="-534.44"
       sodipodi:cx="400.45013"
       sodipodi:sides="5"
       id="path4131"
       style="opacity:1;fill:#ffcc00;fill-opacity:1;stroke:none"
       sodipodi:type="star" />
  </g>
</svg>
