<?xml version="1.0" encoding="UTF-8" standalone="no"?>
<!-- Generator: Adobe Illustrator 19.0.0, SVG Export Plug-In . SVG Version: 6.00 Build 0)  -->

<svg
   xmlns:dc="http://purl.org/dc/elements/1.1/"
   xmlns:cc="http://creativecommons.org/ns#"
   xmlns:rdf="http://www.w3.org/1999/02/22-rdf-syntax-ns#"
   xmlns:svg="http://www.w3.org/2000/svg"
   xmlns="http://www.w3.org/2000/svg"
   xmlns:sodipodi="http://sodipodi.sourceforge.net/DTD/sodipodi-0.dtd"
   xmlns:inkscape="http://www.inkscape.org/namespaces/inkscape"
   version="1.1"
   id="Layer_1"
   x="0px"
   y="0px"
   viewBox="0 0 500 500"
   xml:space="preserve"
   inkscape:version="0.91 r13725"
   width="100%"
   height="100%"
   sodipodi:docname="rawstudio.svg"><metadata
     id="metadata57"><rdf:RDF><cc:Work
         rdf:about=""><dc:format>image/svg+xml</dc:format><dc:type
           rdf:resource="http://purl.org/dc/dcmitype/StillImage" /></cc:Work></rdf:RDF></metadata><defs
     id="defs55" /><sodipodi:namedview
     pagecolor="#ffffff"
     bordercolor="#666666"
     borderopacity="1"
     objecttolerance="10"
     gridtolerance="10"
     guidetolerance="10"
     inkscape:pageopacity="0"
     inkscape:pageshadow="2"
     inkscape:window-width="1366"
     inkscape:window-height="715"
     id="namedview53"
     showgrid="false"
     inkscape:zoom="0.26279755"
     inkscape:cx="958.04226"
     inkscape:cy="-46.635858"
     inkscape:window-x="0"
     inkscape:window-y="24"
     inkscape:window-maximized="1"
     inkscape:current-layer="Layer_1" /><g
     id="g23"
     transform="translate(0,39.767)" /><g
     id="g25"
     transform="translate(0,39.767)" /><g
     id="g27"
     transform="translate(0,39.767)" /><g
     id="g29"
     transform="translate(0,39.767)" /><g
     id="g31"
     transform="translate(0,39.767)" /><g
     id="g33"
     transform="translate(0,39.767)" /><g
     id="g35"
     transform="translate(0,39.767)" /><g
     id="g37"
     transform="translate(0,39.767)" /><g
     id="g39"
     transform="translate(0,39.767)" /><g
     id="g41"
     transform="translate(0,39.767)" /><g
     id="g43"
     transform="translate(0,39.767)" /><g
     id="g45"
     transform="translate(0,39.767)" /><g
     id="g47"
     transform="translate(0,39.767)" /><g
     id="g49"
     transform="translate(0,39.767)" /><g
     id="g51"
     transform="translate(0,39.767)" /><g
     id="g4336"
     transform="matrix(2.9445868,0,0,2.9445868,-253.99467,-877.9644)"><g
       id="g4290"><path
         style="fill:#394050;fill-opacity:1;stroke:none;stroke-width:15;stroke-linecap:round;stroke-miterlimit:4;stroke-dasharray:none;stroke-opacity:1"
         d="m 116.11914,398.42578 c -3.02786,0 -5.46484,2.43893 -5.46484,5.4668 l 0,53.875 c 0,3.02787 2.43698,5.46484 5.46484,5.46484 l 61.4668,0 2.73242,-2.68945 2.73242,2.68945 61.4668,0 c 3.02786,0 5.46484,-2.43697 5.46484,-5.46484 l 0,-53.875 c 0,-3.02787 -2.43698,-5.4668 -5.46484,-5.4668 l -128.39844,0 z m -1.01172,3.35156 7.61133,0 0,6.42188 -7.61133,0 0,-6.42188 z m 12,0 7.61133,0 0,6.42188 -7.61133,0 0,-6.42188 z m 12,0 7.61133,0 0,6.42188 -7.61133,0 0,-6.42188 z m 12,0 7.61133,0 0,6.42188 -7.61133,0 0,-6.42188 z m 12,0 7.61133,0 0,6.42188 -7.61133,0 0,-6.42188 z m 12,0 7.61133,0 0,6.42188 -7.61133,0 0,-6.42188 z m 12,0 7.61133,0 0,6.42188 -7.61133,0 0,-6.42188 z m 12,0 7.61133,0 0,6.42188 -7.61133,0 0,-6.42188 z m 12,0 7.61133,0 0,6.42188 -7.61133,0 0,-6.42188 z m 12,0 7.61133,0 0,6.42188 -7.61133,0 0,-6.42188 z m 12,0 7.61133,0 0,6.42188 -7.61133,0 0,-6.42188 z m -120,50 7.61133,0 0,6.42188 -7.61133,0 0,-6.42188 z m 12,0 7.61133,0 0,6.42188 -7.61133,0 0,-6.42188 z m 12,0 7.61133,0 0,6.42188 -7.61133,0 0,-6.42188 z m 12,0 7.61133,0 0,6.42188 -7.61133,0 0,-6.42188 z m 12,0 7.61133,0 0,6.42188 -7.61133,0 0,-6.42188 z m 12,0 7.61133,0 0,6.42188 -7.61133,0 0,-6.42188 z m 12,0 7.61133,0 0,6.42188 -7.61133,0 0,-6.42188 z m 12,0 7.61133,0 0,6.42188 -7.61133,0 0,-6.42188 z m 12,0 7.61133,0 0,6.42188 -7.61133,0 0,-6.42188 z m 12,0 7.61133,0 0,6.42188 -7.61133,0 0,-6.42188 z m 12,0 7.61133,0 0,6.42188 -7.61133,0 0,-6.42188 z"
         id="rect4194"
         inkscape:connector-curvature="0" /><rect
         style="fill:#45d03f;fill-opacity:1;stroke:none;stroke-width:15;stroke-linecap:round;stroke-miterlimit:4;stroke-dasharray:none;stroke-opacity:1"
         id="rect4197"
         width="63.23122"
         height="38.342335"
         x="144.79277"
         y="411.38837"
         ry="0" /><path
         style="fill:#f03916;fill-opacity:1;stroke:none;stroke-width:15;stroke-linecap:round;stroke-miterlimit:4;stroke-dasharray:none;stroke-opacity:1"
         d="m 210.85547,411.38867 0,38.3418 39.12695,0 0,-38.3418 -39.12695,0 z"
         id="rect4197-3"
         inkscape:connector-curvature="0" /><path
         style="fill:#00bbf2;fill-opacity:1;stroke:none;stroke-width:15;stroke-linecap:round;stroke-miterlimit:4;stroke-dasharray:none;stroke-opacity:1"
         d="m 110.6543,411.38867 0,38.3418 31.36914,0 0,-38.3418 -31.36914,0 z"
         id="rect4214"
         inkscape:connector-curvature="0" /></g><g
       transform="translate(155.06233,-0.95130268)"
       id="g4296"><path
         style="fill:#e6e6e6;fill-opacity:1;stroke:none;stroke-width:15;stroke-linecap:round;stroke-miterlimit:4;stroke-dasharray:none;stroke-opacity:1"
         id="path3371"
         sodipodi:type="arc"
         sodipodi:cx="3.7160637"
         sodipodi:cy="374.45682"
         sodipodi:rx="38.5"
         sodipodi:ry="38.5"
         sodipodi:start="0"
         sodipodi:end="6.2784904"
         sodipodi:open="true"
         d="M 42.216064,374.45682 A 38.5,38.5 0 0 1 3.7612522,412.95679 38.5,38.5 0 0 1 -34.78383,374.54719 38.5,38.5 0 0 1 3.5804986,335.95706 a 38.5,38.5 0 0 1 38.6351404,38.319" /><path
         style="fill:#394050;fill-opacity:1;fill-rule:evenodd;stroke:none;stroke-width:1px;stroke-linecap:butt;stroke-linejoin:miter;stroke-opacity:1"
         d="m 4.6957976,336.00835 0,76.91602 a 38.5,38.5 0 0 0 37.5195404,-38.4668 l 0,-0.18164 A 38.5,38.5 0 0 0 4.6957976,336.00835 Z"
         id="path3373"
         inkscape:connector-curvature="0" /><rect
         style="fill:#394050;fill-opacity:1;stroke:none;stroke-width:15;stroke-linecap:round;stroke-miterlimit:4;stroke-dasharray:none;stroke-opacity:1"
         id="rect4178"
         width="10.930929"
         height="27.747744"
         x="-0.73546678"
         y="306.7002"
         ry="5.4654646"
         inkscape:transform-center-y="-54.224251" /><rect
         inkscape:transform-center-y="-38.33324"
         ry="5.4654646"
         y="200.20663"
         x="-268.21591"
         height="27.747744"
         width="10.930929"
         id="rect4180"
         style="fill:#394050;fill-opacity:1;stroke:none;stroke-width:15;stroke-linecap:round;stroke-miterlimit:4;stroke-dasharray:none;stroke-opacity:1"
         transform="matrix(0.70693912,-0.7072744,0.7072744,0.70693912,0,0)"
         inkscape:transform-center-x="38.351423" /><rect
         inkscape:transform-center-x="54.216951"
         transform="matrix(0.01639612,-0.99986557,0.99986557,0.01639612,0,0)"
         style="fill:#394050;fill-opacity:1;stroke:none;stroke-width:15;stroke-linecap:round;stroke-miterlimit:4;stroke-dasharray:none;stroke-opacity:1"
         id="rect4182"
         width="10.930929"
         height="27.747744"
         x="-381.33264"
         y="-57.679611"
         ry="5.4654646"
         inkscape:transform-center-y="-0.88905412" /><rect
         inkscape:transform-center-y="37.225501"
         ry="5.4654646"
         y="-322.77802"
         x="-282.10074"
         height="27.747744"
         width="10.930929"
         id="rect4184"
         style="fill:#394050;fill-opacity:1;stroke:none;stroke-width:15;stroke-linecap:round;stroke-miterlimit:4;stroke-dasharray:none;stroke-opacity:1"
         transform="matrix(-0.68651011,-0.72712026,0.72712026,-0.68651011,0,0)"
         inkscape:transform-center-x="39.427531" /><rect
         inkscape:transform-center-x="0.88835845"
         transform="matrix(-0.99986578,-0.0163833,0.0163833,-0.99986578,0,0)"
         style="fill:#394050;fill-opacity:1;stroke:none;stroke-width:15;stroke-linecap:round;stroke-miterlimit:4;stroke-dasharray:none;stroke-opacity:1"
         id="rect4186"
         width="10.930929"
         height="27.747744"
         x="-16.354746"
         y="-443.95758"
         ry="5.4654646"
         inkscape:transform-center-y="54.216947" /><rect
         inkscape:transform-center-y="38.018373"
         ry="5.4654646"
         y="-335.08783"
         x="259.30881"
         height="27.747744"
         width="10.930929"
         id="rect4188"
         style="fill:#394050;fill-opacity:1;stroke:none;stroke-width:15;stroke-linecap:round;stroke-miterlimit:4;stroke-dasharray:none;stroke-opacity:1"
         transform="matrix(-0.70113275,0.71303076,-0.71303076,-0.70113275,0,0)"
         inkscape:transform-center-x="-38.663552" /><rect
         inkscape:transform-center-x="-54.220594"
         transform="matrix(0.01156834,0.99993308,-0.99993308,0.01156834,0,0)"
         style="fill:#394050;fill-opacity:1;stroke:none;stroke-width:15;stroke-linecap:round;stroke-miterlimit:4;stroke-dasharray:none;stroke-opacity:1"
         id="rect4190"
         width="10.930929"
         height="27.747744"
         x="370.55154"
         y="-68.478218"
         ry="5.4654646"
         inkscape:transform-center-y="-0.62729394" /><rect
         inkscape:transform-center-y="-38.786867"
         ry="5.4654646"
         y="197.54222"
         x="260.6626"
         height="27.747744"
         width="10.930929"
         id="rect4192"
         style="fill:#394050;fill-opacity:1;stroke:none;stroke-width:15;stroke-linecap:round;stroke-miterlimit:4;stroke-dasharray:none;stroke-opacity:1"
         transform="matrix(0.715305,0.69881239,-0.69881239,0.715305,0,0)"
         inkscape:transform-center-x="-37.892551" /></g><path
       d="m 154.56154,388.59915 a 8.5,8.5 0 0 1 -8.49002,8.5 8.5,8.5 0 0 1 -8.50996,-8.48005 8.5,8.5 0 0 1 8.47005,-8.5199 8.5,8.5 0 0 1 8.52984,8.46005"
       sodipodi:open="true"
       sodipodi:end="6.2784904"
       sodipodi:start="0"
       sodipodi:ry="8.5"
       sodipodi:rx="8.5"
       sodipodi:cy="388.59915"
       sodipodi:cx="146.06154"
       sodipodi:type="arc"
       id="path4308"
       style="fill:#394050;fill-opacity:1;stroke:none;stroke-width:15;stroke-linecap:round;stroke-miterlimit:4;stroke-dasharray:none;stroke-opacity:1" /><path
       style="fill:#e6e6e6;fill-opacity:1;stroke:none;stroke-width:15;stroke-linecap:round;stroke-miterlimit:4;stroke-dasharray:none;stroke-opacity:1"
       id="path4310"
       sodipodi:type="arc"
       sodipodi:cx="172.96843"
       sodipodi:cy="388.26282"
       sodipodi:rx="8.5"
       sodipodi:ry="8.5"
       sodipodi:start="0"
       sodipodi:end="6.2784904"
       sodipodi:open="true"
       d="m 181.46843,388.26282 a 8.5,8.5 0 0 1 -8.49002,8.49999 8.5,8.5 0 0 1 -8.50996,-8.48004 8.5,8.5 0 0 1 8.47005,-8.5199 8.5,8.5 0 0 1 8.52984,8.46004" /><path
       style="fill:#394050;fill-opacity:1;stroke:none;stroke-width:15;stroke-linecap:round;stroke-miterlimit:4;stroke-dasharray:none;stroke-opacity:1"
       id="path4310-6"
       sodipodi:type="arc"
       sodipodi:cx="159.72241"
       sodipodi:cy="354.04807"
       sodipodi:rx="8.5"
       sodipodi:ry="8.5"
       sodipodi:start="0"
       sodipodi:end="6.2784904"
       sodipodi:open="true"
       d="m 168.22241,354.04807 a 8.5,8.5 0 0 1 -8.49002,8.49999 8.5,8.5 0 0 1 -8.50995,-8.48004 8.5,8.5 0 0 1 8.47004,-8.5199 8.5,8.5 0 0 1 8.52984,8.46004" /><path
       id="path4327"
       d="m 159.81836,345.55469 0,16.99023 a 8.5,8.5 0 0 0 8.4043,-8.49609 l 0,-0.041 a 8.5,8.5 0 0 0 -8.4043,-8.45312 z"
       style="fill:#e6e6e6;fill-opacity:1;fill-rule:evenodd;stroke:none;stroke-width:1px;stroke-linecap:butt;stroke-linejoin:miter;stroke-opacity:1"
       inkscape:connector-curvature="0" /></g></svg>