<?xml version="1.0" encoding="UTF-8" standalone="no"?>
<!-- Created with Inkscape (http://www.inkscape.org/) -->

<svg
   xmlns:dc="http://purl.org/dc/elements/1.1/"
   xmlns:cc="http://creativecommons.org/ns#"
   xmlns:rdf="http://www.w3.org/1999/02/22-rdf-syntax-ns#"
   xmlns:svg="http://www.w3.org/2000/svg"
   xmlns="http://www.w3.org/2000/svg"
   xmlns:sodipodi="http://sodipodi.sourceforge.net/DTD/sodipodi-0.dtd"
   xmlns:inkscape="http://www.inkscape.org/namespaces/inkscape"
   id="svg2"
   version="1.1"
   inkscape:version="0.91 r13725"
   width="512"
   height="512"
   sodipodi:docname="smartshine.svg">
  <sodipodi:namedview
     pagecolor="#ffffff"
     bordercolor="#666666"
     borderopacity="1"
     objecttolerance="10"
     gridtolerance="10"
     guidetolerance="10"
     inkscape:pageopacity="0"
     inkscape:pageshadow="2"
     inkscape:window-width="1366"
     inkscape:window-height="715"
     id="namedview4"
     showgrid="false"
     inkscape:zoom="0.5"
     inkscape:cx="261.54599"
     inkscape:cy="188.29908"
     inkscape:window-x="0"
     inkscape:window-y="24"
     inkscape:window-maximized="1"
     inkscape:current-layer="svg2" />
  <metadata
     id="metadata8">
    <rdf:RDF>
      <cc:Work
         rdf:about="">
        <dc:format>image/svg+xml</dc:format>
        <dc:type
           rdf:resource="http://purl.org/dc/dcmitype/StillImage" />
        <dc:title />
      </cc:Work>
    </rdf:RDF>
  </metadata>
  <defs
     id="defs6">
    <clipPath
       id="clipPath3919"
       clipPathUnits="userSpaceOnUse">
      <g
         clip-path="none"
         transform="translate(-892.82097,-182.60403)"
         id="g3921">
        <path
           sodipodi:type="arc"
           style="fill:none;stroke:#6d6555;stroke-width:45.84608078;stroke-miterlimit:4;stroke-opacity:1;stroke-dasharray:none"
           id="path3923"
           sodipodi:cx="322.71185"
           sodipodi:cy="171.93221"
           sodipodi:rx="138.30508"
           sodipodi:ry="138.30508"
           d="M 461.01694,171.93221 A 138.30508,138.30508 0 0 1 322.71185,310.23729 138.30508,138.30508 0 0 1 184.40677,171.93221 138.30508,138.30508 0 0 1 322.71185,33.627121 138.30508,138.30508 0 0 1 461.01694,171.93221 Z"
           transform="matrix(0.89019607,0,0,0.89019607,32.689264,13.794084)" />
        <rect
           style="fill:#6d6555;fill-opacity:1;fill-rule:evenodd;stroke:none"
           id="rect3925"
           width="45.559322"
           height="208.27118"
           x="154.5797"
           y="411.63419"
           ry="20.9"
           transform="matrix(0.85401398,-0.52025005,0.52025005,0.85401398,0,0)" />
      </g>
    </clipPath>
  </defs>
  <g
     id="g4147">
    <rect
       transform="matrix(0.99999983,5.9020721e-4,-5.9020721e-4,0.99999983,0,0)"
       y="79.711235"
       x="32.299076"
       height="361.97424"
       width="435.70969"
       id="rect2997"
       style="fill:#00bbf2;fill-opacity:1;stroke:#ffffff;stroke-width:14.0767746;stroke-linecap:round;stroke-linejoin:round;stroke-miterlimit:4;stroke-dasharray:none;stroke-opacity:1" />
    <path
       sodipodi:open="true"
       sodipodi:end="6.2784904"
       sodipodi:start="0"
       transform="matrix(0.99999983,5.9019847e-4,-5.9021192e-4,0.99999983,0,0)"
       d="m 169.7152,185.2869 a 44.408875,43.570969 0 0 1 -44.35675,43.57093 44.408875,43.570969 0 0 1 -44.460874,-43.46865 44.408875,43.570969 0 0 1 44.252384,-43.67298 44.408875,43.570969 0 0 1 44.56475,43.36613"
       sodipodi:ry="43.570969"
       sodipodi:rx="44.408875"
       sodipodi:cy="185.2869"
       sodipodi:cx="125.30633"
       id="path3767"
       style="fill:#ffffff;fill-opacity:1;stroke:none"
       sodipodi:type="arc" />
    <path
       sodipodi:nodetypes="cccczzc"
       inkscape:connector-curvature="0"
       id="path3787"
       d="m 39.137545,301.00154 -0.671466,133.90161 423.035991,-0.34274 -1.11961,-110.79573 c 0,0 -59.73368,21.35439 -111.39626,14.7464 -51.66256,-6.60797 -130.42661,-72.85719 -185.40403,-75.35529 -54.97739,-2.49806 -124.444625,37.84575 -124.444625,37.84575 z"
       style="fill:#004455;fill-opacity:1;stroke:none;stroke-width:0.58653224px;stroke-linecap:butt;stroke-linejoin:miter;stroke-opacity:1" />
    <path
       inkscape:connector-curvature="0"
       id="path4148"
       d="M 460.67713,87.811227 41.23145,433.11835 l 0,1.33432 419.24085,0.24618 0.20483,-346.887623 z"
       style="fill:#009fce;fill-opacity:1;fill-rule:evenodd;stroke:none;stroke-width:1px;stroke-linecap:butt;stroke-linejoin:miter;stroke-opacity:1" />
    <path
       id="path3343"
       d="M 223.98242,282.05078 38.921875,434.90234 461.50195,434.56055 460.38281,323.76562 c 0,0 -59.7339,21.35409 -111.39648,14.7461 -34.60721,-4.42648 -81.37078,-35.59958 -125.00391,-56.46094 z"
       style="fill:#003846;fill-opacity:1;fill-rule:evenodd;stroke:none;stroke-width:1px;stroke-linecap:butt;stroke-linejoin:miter;stroke-opacity:1"
       inkscape:connector-curvature="0" />
  </g>
</svg>
