<?xml version="1.0" encoding="UTF-8" standalone="no"?>
<!-- Generator: flash2svg, http://dissentgraphics.com/tools/flash2svg -->

<svg
   xmlns:dc="http://purl.org/dc/elements/1.1/"
   xmlns:cc="http://creativecommons.org/ns#"
   xmlns:rdf="http://www.w3.org/1999/02/22-rdf-syntax-ns#"
   xmlns:svg="http://www.w3.org/2000/svg"
   xmlns="http://www.w3.org/2000/svg"
   xmlns:sodipodi="http://sodipodi.sourceforge.net/DTD/sodipodi-0.dtd"
   xmlns:inkscape="http://www.inkscape.org/namespaces/inkscape"
   id="Messages"
   version="1.1"
   style="image-rendering:optimizeSpeed"
   x="0px"
   y="0px"
   width="512"
   height="512"
   viewBox="0 0 512 512"
   enable-background="new 0 0 1024 1024"
   inkscape:version="0.48.5 r10040"
   sodipodi:docname="empathy.svg">
  <metadata
     id="metadata25">
    <rdf:RDF>
      <cc:Work
         rdf:about="">
        <dc:format>image/svg+xml</dc:format>
        <dc:type
           rdf:resource="http://purl.org/dc/dcmitype/StillImage" />
        <dc:title />
      </cc:Work>
    </rdf:RDF>
  </metadata>
  <sodipodi:namedview
     pagecolor="#ffffff"
     bordercolor="#666666"
     borderopacity="1"
     objecttolerance="10"
     gridtolerance="10"
     guidetolerance="10"
     inkscape:pageopacity="0"
     inkscape:pageshadow="2"
     inkscape:window-width="1366"
     inkscape:window-height="716"
     id="namedview23"
     showgrid="false"
     inkscape:zoom="0.65186406"
     inkscape:cx="416.83645"
     inkscape:cy="170.22987"
     inkscape:window-x="0"
     inkscape:window-y="0"
     inkscape:window-maximized="1"
     inkscape:current-layer="Messages" />
  <defs
     transform="matrix(1 0 0 1 0 0) "
     id="defs3" />
  <path
     id="path14"
     d="m 475,184.36051 c 0,-5.90128 -2.11016,-10.97997 -6.29471,-15.16452 -4.18454,-4.18455 -9.26323,-6.2947 -15.16452,-6.2947 l -90.45064,0 -147.49642,0 c -5.90129,0 -10.97998,2.11015 -15.16452,6.2947 -4.18455,4.18455 -6.29471,9.26324 -6.29471,15.16452 l 0,161.62375 0,37.23176 c 0,5.90129 2.11016,10.97998 6.29471,15.16452 4.18454,4.18455 9.26323,6.29471 15.16452,6.29471 l 112.94706,0 72.28184,72.28183 c 3.36194,3.36195 7.4392,5.04292 12.19599,5.04292 4.75679,0 8.83405,-1.68097 12.19599,-5.04292 3.36195,-3.36194 5.04292,-7.4392 5.04292,-12.19599 l 0,-60.08584 23.28326,0 c 5.90129,0 10.97998,-2.11016 15.16452,-6.29471 C 472.88984,394.196 475,389.11731 475,383.21602 l 0,-198.85551 z M 264.73534,305.06867 c -6.83119,0 -12.62518,-2.43205 -17.45351,-7.26037 -4.82833,-4.82833 -7.22461,-10.62232 -7.22461,-17.45351 0,-6.79542 2.39628,-12.62518 7.22461,-17.45351 4.82833,-4.82832 10.62232,-7.2246 17.45351,-7.2246 6.83118,0 12.62518,2.39628 17.4535,7.2246 4.82833,4.82833 7.22461,10.65809 7.22461,17.45351 0,6.83119 -2.39628,12.62518 -7.22461,17.45351 -4.82832,4.82832 -10.62232,7.26037 -17.4535,7.26037 z m 94.77825,-24.71388 c 0,6.83119 -2.43204,12.62518 -7.26037,17.45351 -4.82833,4.82832 -10.62231,7.26037 -17.41774,7.26037 -6.83118,0 -12.66095,-2.43205 -17.48927,-7.26037 -4.82833,-4.82833 -7.22461,-10.62232 -7.22461,-17.45351 0,-6.79542 2.39628,-12.62518 7.22461,-17.45351 4.82832,-4.82832 10.65809,-7.2246 17.48927,-7.2246 6.79543,0 12.58941,2.39628 17.41774,7.2246 4.82833,4.82833 7.26037,10.65809 7.26037,17.45351 z m 70.10015,0 c 0,6.83119 -2.43205,12.62518 -7.26037,17.45351 -4.82833,4.82832 -10.62233,7.26037 -17.45351,7.26037 -6.79543,0 -12.62518,-2.43205 -17.45351,-7.26037 -4.82832,-4.82833 -7.2246,-10.62232 -7.2246,-17.45351 0,-6.79542 2.39628,-12.62518 7.2246,-17.45351 4.82833,-4.82832 10.65808,-7.2246 17.45351,-7.2246 6.83118,0 12.62518,2.39628 17.45351,7.2246 4.82832,4.82833 7.26037,10.65809 7.26037,17.45351 z"
     inkscape:connector-curvature="0"
     style="fill:#ebebeb;fill-opacity:1;stroke-width:0.73994905000000000" />
  <path
     id="path15"
     d="m 264.73534,305.06867 c 6.83118,0 12.62518,-2.43205 17.4535,-7.26037 4.82833,-4.82833 7.22461,-10.62232 7.22461,-17.45351 0,-6.79542 -2.39628,-12.62518 -7.22461,-17.45351 -4.82832,-4.82832 -10.62232,-7.2246 -17.4535,-7.2246 -6.83119,0 -12.62518,2.39628 -17.45351,7.2246 -4.82833,4.82833 -7.22461,10.65809 -7.22461,17.45351 0,6.83119 2.39628,12.62518 7.22461,17.45351 4.82833,4.82832 10.62232,7.26037 17.45351,7.26037 z"
     inkscape:connector-curvature="0"
     style="fill:#394050;fill-opacity:1;stroke-width:0.73994905000000000" />
  <path
     id="path16"
     d="m 359.51359,280.35479 c 0,-6.79542 -2.43204,-12.62518 -7.26037,-17.45351 -4.82833,-4.82832 -10.62231,-7.2246 -17.41774,-7.2246 -6.83118,0 -12.66095,2.39628 -17.48927,7.2246 -4.82833,4.82833 -7.22461,10.65809 -7.22461,17.45351 0,6.83119 2.39628,12.62518 7.22461,17.45351 4.82832,4.82832 10.65809,7.26037 17.48927,7.26037 6.79543,0 12.58941,-2.43205 17.41774,-7.26037 4.82833,-4.82833 7.26037,-10.62232 7.26037,-17.45351 z"
     inkscape:connector-curvature="0"
     style="fill:#394050;fill-opacity:1;stroke-width:0.73994905000000000" />
  <path
     id="path17"
     d="m 429.61374,280.35479 c 0,-6.79542 -2.43205,-12.62518 -7.26037,-17.45351 -4.82833,-4.82832 -10.62233,-7.2246 -17.45351,-7.2246 -6.79543,0 -12.62518,2.39628 -17.45351,7.2246 -4.82832,4.82833 -7.2246,10.65809 -7.2246,17.45351 0,6.83119 2.39628,12.62518 7.2246,17.45351 4.82833,4.82832 10.65808,7.26037 17.45351,7.26037 6.83118,0 12.62518,-2.43205 17.45351,-7.26037 4.82832,-4.82833 7.26037,-10.62232 7.26037,-17.45351 z"
     inkscape:connector-curvature="0"
     style="fill:#394050;fill-opacity:1;stroke-width:0.73994905000000000" />
  <path
     id="path18"
     d="m 363.09013,68.444919 c 0,-5.901287 -2.11016,-10.979971 -6.2947,-15.164521 -4.18456,-4.184549 -9.26324,-6.294706 -15.16452,-6.294706 l -295.171682,0 c -5.901287,0 -10.979972,2.110157 -15.164521,6.294706 C 27.110158,57.464948 25,62.543632 25,68.444919 l 0,256.080111 c 0,5.90129 2.110158,10.97998 6.294707,15.16452 4.184549,4.18455 9.263234,6.29471 15.164521,6.29471 l 23.283262,0 0,60.08584 c 0,4.75679 1.680972,8.83405 5.042919,12.19599 3.361945,3.36195 7.439199,5.04292 12.195994,5.04292 4.756795,0 8.834048,-1.68097 12.195994,-5.04292 l 72.281823,-72.28183 22.67526,0 0,-161.62375 c 0,-5.90128 2.11016,-10.97997 6.29471,-15.16452 4.18454,-4.18455 9.26323,-6.2947 15.16452,-6.2947 l 147.49642,0 0,-94.456371 z"
     inkscape:connector-curvature="0"
     style="fill:#00bbf2;fill-opacity:1;stroke-width:0.73994905" />
</svg>
