<?xml version="1.0" encoding="UTF-8" standalone="no"?>
<!-- Generator: Adobe Illustrator 19.0.0, SVG Export Plug-In . SVG Version: 6.00 Build 0)  -->

<svg
   xmlns:dc="http://purl.org/dc/elements/1.1/"
   xmlns:cc="http://creativecommons.org/ns#"
   xmlns:rdf="http://www.w3.org/1999/02/22-rdf-syntax-ns#"
   xmlns:svg="http://www.w3.org/2000/svg"
   xmlns="http://www.w3.org/2000/svg"
   xmlns:sodipodi="http://sodipodi.sourceforge.net/DTD/sodipodi-0.dtd"
   xmlns:inkscape="http://www.inkscape.org/namespaces/inkscape"
   version="1.1"
   id="Layer_1"
   x="0px"
   y="0px"
   viewBox="0 0 500 500"
   xml:space="preserve"
   inkscape:version="0.91 r13725"
   width="100%"
   height="100%"
   sodipodi:docname="sweet-home3d-furniture-editor.svg"><metadata
     id="metadata57"><rdf:RDF><cc:Work
         rdf:about=""><dc:format>image/svg+xml</dc:format><dc:type
           rdf:resource="http://purl.org/dc/dcmitype/StillImage" /></cc:Work></rdf:RDF></metadata><defs
     id="defs55" /><sodipodi:namedview
     pagecolor="#ffffff"
     bordercolor="#666666"
     borderopacity="1"
     objecttolerance="10"
     gridtolerance="10"
     guidetolerance="10"
     inkscape:pageopacity="0"
     inkscape:pageshadow="2"
     inkscape:window-width="1366"
     inkscape:window-height="715"
     id="namedview53"
     showgrid="false"
     inkscape:zoom="0.18582593"
     inkscape:cx="-536.56931"
     inkscape:cy="117.06206"
     inkscape:window-x="0"
     inkscape:window-y="24"
     inkscape:window-maximized="1"
     inkscape:current-layer="Layer_1" /><g
     id="g23"
     transform="translate(0,39.767)" /><g
     id="g25"
     transform="translate(0,39.767)" /><g
     id="g27"
     transform="translate(0,39.767)" /><g
     id="g29"
     transform="translate(0,39.767)" /><g
     id="g31"
     transform="translate(0,39.767)" /><g
     id="g33"
     transform="translate(0,39.767)" /><g
     id="g35"
     transform="translate(0,39.767)" /><g
     id="g37"
     transform="translate(0,39.767)" /><g
     id="g39"
     transform="translate(0,39.767)" /><g
     id="g41"
     transform="translate(0,39.767)" /><g
     id="g43"
     transform="translate(0,39.767)" /><g
     id="g45"
     transform="translate(0,39.767)" /><g
     id="g47"
     transform="translate(0,39.767)" /><g
     id="g49"
     transform="translate(0,39.767)" /><g
     id="g51"
     transform="translate(0,39.767)" /><g
     id="g4247"><rect
       ry="50.647488"
       y="9.3885565"
       x="11.196871"
       height="475.07343"
       width="476.03268"
       id="rect2986-6"
       style="fill:#00bbf2;fill-opacity:1;fill-rule:evenodd;stroke:none;stroke-width:0.20245399" /><rect
       ry="0"
       y="171.73579"
       x="329.60956"
       height="234.09004"
       width="142.60658"
       id="rect3377"
       style="fill:#e6e6e6;fill-opacity:1;stroke:none;stroke-width:50;stroke-linecap:round;stroke-miterlimit:4;stroke-dasharray:none;stroke-opacity:1" /><path
       id="rect3372"
       d="M 11.197266 395.0625 L 11.197266 433.81445 C 11.197266 461.87316 33.785042 484.46289 61.84375 484.46289 L 436.58203 484.46289 C 464.64074 484.46289 487.23047 461.87316 487.23047 433.81445 L 487.23047 395.0625 L 11.197266 395.0625 z "
       style="fill:#ffcc00;fill-opacity:1;stroke:none;stroke-width:50;stroke-linecap:round;stroke-miterlimit:4;stroke-dasharray:none;stroke-opacity:1" /><rect
       ry="0"
       y="186.03534"
       x="343.46469"
       height="84.735527"
       width="115.0844"
       id="rect3377-3"
       style="fill:#b3b3b3;fill-opacity:1;stroke:none;stroke-width:50;stroke-linecap:round;stroke-miterlimit:4;stroke-dasharray:none;stroke-opacity:1" /><rect
       ry="0"
       y="302.56992"
       x="343.465"
       height="84.735527"
       width="115.0844"
       id="rect3377-3-6"
       style="fill:#b3b3b3;fill-opacity:1;stroke:none;stroke-width:50;stroke-linecap:round;stroke-miterlimit:4;stroke-dasharray:none;stroke-opacity:1" /><circle
       r="9"
       cy="285.83487"
       cx="456.32724"
       id="path3409"
       style="fill:#666666;fill-opacity:1;stroke:none;stroke-width:50;stroke-linecap:round;stroke-miterlimit:4;stroke-dasharray:none;stroke-opacity:1" /><rect
       y="137.5537"
       x="37.100803"
       height="176.94229"
       width="191.21184"
       id="rect3411"
       style="fill:#e6e6e6;fill-opacity:1;stroke:none;stroke-width:50;stroke-linecap:round;stroke-miterlimit:4;stroke-dasharray:none;stroke-opacity:1" /><rect
       y="149.92062"
       x="49.386124"
       height="150.30582"
       width="166.47797"
       id="rect3411-7"
       style="fill:#b3b3b3;fill-opacity:1;stroke:none;stroke-width:50;stroke-linecap:round;stroke-miterlimit:4;stroke-dasharray:none;stroke-opacity:1" /><rect
       y="146.84691"
       x="146.64261"
       height="160.09607"
       width="11.435433"
       id="rect3428"
       style="fill:#e6e6e6;fill-opacity:1;stroke:none;stroke-width:50;stroke-linecap:round;stroke-miterlimit:4;stroke-dasharray:none;stroke-opacity:1" /><g
       transform="matrix(0.6795872,0,0,0.6795872,91.431913,41.627968)"
       id="g4242"><path
         inkscape:connector-curvature="0"
         style="fill:#ff6600"
         d="m 362.1861,77.434967 c 0.003,0 0.0582,0.03582 0.0582,0.03891 l 0,65.963643 -108.05306,0 0,-65.963643 c 0,-0.0031 0.0384,-0.03891 0.0415,-0.03891 l 107.95334,0 0,0 z"
         id="path9" /><path
         style="fill:#803300;stroke:none;stroke-width:0.14236757px;stroke-linecap:butt;stroke-linejoin:miter;stroke-opacity:1"
         d="m 254.03865,113.91665 -0.17293,30.69891 108.71227,-0.0775 -0.28741,-25.40155 c 0,0 -15.35048,4.89567 -28.62677,3.38056 -13.27629,-1.51511 -33.51698,-16.70391 -47.64515,-17.27677 -14.12814,-0.57286 -31.98001,8.67639 -31.98001,8.67639 z"
         id="path3787"
         inkscape:connector-curvature="0"
         sodipodi:nodetypes="cccczzc" /><path
         sodipodi:type="arc"
         style="fill:#faec6d;fill-opacity:1;stroke:none"
         id="path3767"
         sodipodi:cx="268.54825"
         sodipodi:cy="236.87292"
         sodipodi:rx="5.3671885"
         sodipodi:ry="5.2659206"
         d="m 273.91544,236.87292 a 5.3671885,5.2659206 0 0 1 -5.36089,5.26592 5.3671885,5.2659206 0 0 1 -5.37348,-5.25355 5.3671885,5.2659206 0 0 1 5.34828,-5.27825 5.3671885,5.2659206 0 0 1 5.38603,5.24116"
         transform="matrix(0.89137186,-0.45327278,0.45327279,0.89137185,0,0)"
         sodipodi:start="0"
         sodipodi:end="6.2784904"
         sodipodi:open="true" /></g></g></svg>