<?xml version="1.0" encoding="UTF-8" standalone="no"?>
<!-- Generator: Adobe Illustrator 19.0.0, SVG Export Plug-In . SVG Version: 6.00 Build 0)  -->

<svg
   xmlns:dc="http://purl.org/dc/elements/1.1/"
   xmlns:cc="http://creativecommons.org/ns#"
   xmlns:rdf="http://www.w3.org/1999/02/22-rdf-syntax-ns#"
   xmlns:svg="http://www.w3.org/2000/svg"
   xmlns="http://www.w3.org/2000/svg"
   xmlns:sodipodi="http://sodipodi.sourceforge.net/DTD/sodipodi-0.dtd"
   xmlns:inkscape="http://www.inkscape.org/namespaces/inkscape"
   version="1.1"
   id="Layer_1"
   x="0px"
   y="0px"
   viewBox="0 0 500 500"
   xml:space="preserve"
   inkscape:version="0.91 r13725"
   width="100%"
   height="100%"
   sodipodi:docname="texstudio.svg"><metadata
     id="metadata57"><rdf:RDF><cc:Work
         rdf:about=""><dc:format>image/svg+xml</dc:format><dc:type
           rdf:resource="http://purl.org/dc/dcmitype/StillImage" /></cc:Work></rdf:RDF></metadata><defs
     id="defs55" /><sodipodi:namedview
     pagecolor="#ffffff"
     bordercolor="#666666"
     borderopacity="1"
     objecttolerance="10"
     gridtolerance="10"
     guidetolerance="10"
     inkscape:pageopacity="0"
     inkscape:pageshadow="2"
     inkscape:window-width="1366"
     inkscape:window-height="715"
     id="namedview53"
     showgrid="false"
     inkscape:zoom="0.26279755"
     inkscape:cx="-314.24451"
     inkscape:cy="73.911474"
     inkscape:window-x="0"
     inkscape:window-y="24"
     inkscape:window-maximized="1"
     inkscape:current-layer="Layer_1" /><g
     id="g23"
     transform="translate(0,39.767)" /><g
     id="g25"
     transform="translate(0,39.767)" /><g
     id="g27"
     transform="translate(0,39.767)" /><g
     id="g29"
     transform="translate(0,39.767)" /><g
     id="g31"
     transform="translate(0,39.767)" /><g
     id="g33"
     transform="translate(0,39.767)" /><g
     id="g35"
     transform="translate(0,39.767)" /><g
     id="g37"
     transform="translate(0,39.767)" /><g
     id="g39"
     transform="translate(0,39.767)" /><g
     id="g41"
     transform="translate(0,39.767)" /><g
     id="g43"
     transform="translate(0,39.767)" /><g
     id="g45"
     transform="translate(0,39.767)" /><g
     id="g47"
     transform="translate(0,39.767)" /><g
     id="g49"
     transform="translate(0,39.767)" /><g
     id="g51"
     transform="translate(0,39.767)" /><g
     id="g4271"><rect
       ry="51.052341"
       y="9.3885508"
       x="11.196897"
       height="478.87097"
       width="479.83789"
       id="rect2986-6"
       style="fill:#00bbf2;fill-opacity:1;fill-rule:evenodd;stroke:none;stroke-width:0.20245399" /><path
       sodipodi:nodetypes="ccccssc"
       inkscape:connector-curvature="0"
       id="path3465"
       d="m 491.03516,182.23828 -343.58399,-58.95508 -37.09961,37.10157 83.09766,327.875 246.5332,0 c 28.283,0 51.05274,-22.76974 51.05274,-51.05274 z"
       style="fill:#ffcc00;fill-opacity:1;fill-rule:evenodd;stroke:none;stroke-width:1px;stroke-linecap:butt;stroke-linejoin:miter;stroke-opacity:1" /><g
       id="flowRoot3383"
       style="font-style:normal;font-weight:normal;font-size:230.06260681px;line-height:125%;font-family:sans-serif;letter-spacing:0px;word-spacing:0px;fill:#ffffff;fill-opacity:1;stroke:none;stroke-width:1px;stroke-linecap:butt;stroke-linejoin:miter;stroke-opacity:1"
       transform="translate(-45.741734,-88.792777)"><path
         id="path3446"
         style="font-style:normal;font-variant:normal;font-weight:500;font-stretch:normal;font-family:'Century Schoolbook L';-inkscape-font-specification:'Century Schoolbook L Medium';fill:#ffffff;fill-opacity:1"
         d="m 233.49682,315.6876 -137.807504,0 -3.450939,63.9574 9.892693,0 c 1.61044,-11.50313 3.681,-20.24551 6.21169,-27.60751 5.98163,-16.79457 17.02463,-25.53695 32.66889,-25.53695 7.59207,0 10.81294,2.53069 10.81294,8.28225 l 0,118.71231 0,6.67181 c 0,9.66263 -2.07056,10.81295 -20.70563,10.81295 l -5.98163,0 0,10.81294 78.91147,0 0,-10.81294 -5.98162,0 c -18.40501,0 -20.47558,-1.15032 -20.47558,-10.81295 l 0,-6.67181 0,-118.71231 c 0,-5.75156 3.22088,-8.28225 10.81295,-8.28225 14.03382,0 25.30688,7.82213 31.05845,21.62588 3.45094,8.51232 5.75156,18.40501 7.59206,31.51858 l 9.8927,0 -3.45094,-63.9574 z" /></g><g
       id="flowRoot3383-9"
       style="font-style:normal;font-weight:normal;font-size:230.06260681px;line-height:125%;font-family:sans-serif;letter-spacing:0px;word-spacing:0px;fill:#ffffff;fill-opacity:1;stroke:none;stroke-width:1px;stroke-linecap:butt;stroke-linejoin:miter;stroke-opacity:1"
       transform="translate(69.496982,-14.439877)"><path
         id="path3443"
         style="font-style:normal;font-variant:normal;font-weight:500;font-stretch:normal;font-family:'Century Schoolbook L';-inkscape-font-specification:'Century Schoolbook L Medium';fill:#ffffff;fill-opacity:1"
         d="m 232.80663,315.6876 -138.267627,0 0,10.81294 4.141127,0 c 18.63507,0 20.70563,1.15031 20.70563,10.81294 l 0,6.67182 0,109.5098 0,6.67181 c 0,9.66263 -2.07056,10.81295 -20.70563,10.81295 l -4.141127,0 0,10.81294 141.258437,0 4.60126,-61.42672 -10.12276,0 c -2.99081,16.10438 -8.28225,30.36827 -13.80376,37.04008 -7.13194,9.20251 -20.2455,13.5737 -39.57076,13.5737 l -15.18414,0 c -6.90187,0 -12.65344,-1.38038 -14.724,-3.45094 -1.61044,-1.38038 -1.8405,-2.76075 -1.8405,-7.59207 l 0,-58.66596 4.60125,0 c 14.03382,0 19.78538,1.38037 24.38664,6.21169 5.98162,5.98162 8.28225,13.34363 8.74237,26.91732 l 10.81295,0 0,-75.46053 -10.81295,0 c -1.15031,22.54613 -10.35281,31.51857 -32.20876,31.51857 l -5.5215,0 0,-52.45427 c 0,-9.89269 2.07056,-11.50313 14.49394,-11.50313 l 11.96326,0 c 20.24551,0 30.1382,2.07056 37.96033,8.51232 7.59206,5.98162 13.11357,18.86513 16.5645,39.57076 l 9.8927,0 -3.22088,-58.89602 z" /></g><g
       id="flowRoot3383-9-7"
       style="font-style:normal;font-weight:normal;font-size:230.06260681px;line-height:125%;font-family:sans-serif;letter-spacing:0px;word-spacing:0px;fill:#ffffff;fill-opacity:1;stroke:none;stroke-width:1px;stroke-linecap:butt;stroke-linejoin:miter;stroke-opacity:1"
       transform="translate(225.37192,-100.54196)"><path
         id="path3440"
         style="font-style:normal;font-variant:normal;font-weight:500;font-stretch:normal;font-family:'Century Schoolbook L';-inkscape-font-specification:'Century Schoolbook L Medium';fill:#ffffff;fill-opacity:1"
         d="m 177.36154,389.76776 30.59833,-41.64134 c 12.8835,-17.25469 19.32526,-21.62588 31.51858,-21.62588 l 3.681,0 0,-10.81294 -63.26722,0 0,10.81294 3.22088,0 c 11.043,0 15.87432,2.76075 15.87432,8.97244 0,2.53069 -0.69019,4.14113 -3.22088,7.82213 l -24.84676,36.11983 -30.59833,-44.17202 c -1.61044,-2.30063 -2.53069,-4.60125 -2.53069,-5.75157 0,-2.30062 2.30063,-2.99081 11.04301,-2.99081 l 8.74238,0 0,-10.81294 -71.089348,0 0,10.81294 3.911064,0 c 11.273064,0 14.033824,1.15031 19.325264,8.74238 l 45.32233,65.56784 -37.27014,51.76409 c -8.97245,12.8835 -18.405012,18.40501 -30.138205,18.40501 l -0.920251,0 0,10.81294 65.337776,0 0,-10.81294 -5.75156,0 c -9.2025,0 -14.95407,-4.14113 -14.95407,-11.04301 0,-2.99081 1.38038,-6.67181 3.681,-10.12275 l 26.68726,-38.65052 34.27933,48.54321 c 1.8405,2.76075 2.99082,5.29144 2.99082,7.13194 0,3.681 -0.92025,3.91106 -15.4142,4.14113 l -6.44175,0 0,10.81294 75.46053,0 0,-10.81294 -2.76075,0 c -14.724,0 -16.33444,-0.69019 -24.15657,-11.96326 l -48.31315,-69.24884 z" /></g><rect
       ry="0"
       y="8.7112103"
       x="90.654579"
       height="102.24623"
       width="22.870867"
       id="rect3448"
       style="fill:#394050;fill-opacity:1;stroke:none;stroke-width:40;stroke-linecap:round;stroke-miterlimit:4;stroke-dasharray:none;stroke-opacity:1" /><rect
       transform="matrix(0.69405737,-0.71991969,0.71991969,0.69405737,0,0)"
       ry="0"
       y="96.047226"
       x="-42.916592"
       height="102.24623"
       width="62.558548"
       id="rect3448-4"
       style="fill:#394050;fill-opacity:1;stroke:none;stroke-width:40;stroke-linecap:round;stroke-miterlimit:4;stroke-dasharray:none;stroke-opacity:1" /></g></svg>