<?xml version="1.0" encoding="UTF-8" standalone="no"?>
<svg
   xmlns:dc="http://purl.org/dc/elements/1.1/"
   xmlns:cc="http://creativecommons.org/ns#"
   xmlns:rdf="http://www.w3.org/1999/02/22-rdf-syntax-ns#"
   xmlns:svg="http://www.w3.org/2000/svg"
   xmlns="http://www.w3.org/2000/svg"
   xmlns:xlink="http://www.w3.org/1999/xlink"
   xmlns:sodipodi="http://sodipodi.sourceforge.net/DTD/sodipodi-0.dtd"
   xmlns:inkscape="http://www.inkscape.org/namespaces/inkscape"
   viewBox="0 0 128 128"
   id="svg2"
   version="1.1"
   inkscape:version="0.48.5 r10040"
   width="100%"
   height="100%"
   sodipodi:docname="tomahawk.svg">
  <metadata
     id="metadata65">
    <rdf:RDF>
      <cc:Work
         rdf:about="">
        <dc:format>image/svg+xml</dc:format>
        <dc:type
           rdf:resource="http://purl.org/dc/dcmitype/StillImage" />
        <dc:title />
      </cc:Work>
    </rdf:RDF>
  </metadata>
  <sodipodi:namedview
     pagecolor="#ffffff"
     bordercolor="#666666"
     borderopacity="1"
     objecttolerance="10"
     gridtolerance="10"
     guidetolerance="10"
     inkscape:pageopacity="0"
     inkscape:pageshadow="2"
     inkscape:window-width="1209"
     inkscape:window-height="664"
     id="namedview63"
     showgrid="false"
     inkscape:zoom="3.4766083"
     inkscape:cx="65.908049"
     inkscape:cy="59.358794"
     inkscape:window-x="155"
     inkscape:window-y="51"
     inkscape:window-maximized="0"
     inkscape:current-layer="svg2" />
  <defs
     id="defs4">
    <linearGradient
       id="linearGradient3764"
       x1="1"
       x2="47"
       gradientUnits="userSpaceOnUse"
       gradientTransform="matrix(0,-1,1,0,-1.5e-6,47.999998)">
      <stop
         stop-color="#d8d8d8"
         stop-opacity="1"
         id="stop7" />
      <stop
         offset="1"
         stop-color="#e2e2e2"
         stop-opacity="1"
         id="stop9" />
    </linearGradient>
    <clipPath
       id="clipPath-360917236">
      <g
         transform="translate(0,-1004.3622)"
         id="g12">
        <path
           d="m -24,13 c 0,1.105 -0.672,2 -1.5,2 -0.828,0 -1.5,-0.895 -1.5,-2 0,-1.105 0.672,-2 1.5,-2 0.828,0 1.5,0.895 1.5,2 z"
           transform="matrix(15.333333,0,0,11.5,414.99999,878.8622)"
           id="path14"
           inkscape:connector-curvature="0"
           style="fill:#1890d0" />
      </g>
    </clipPath>
    <clipPath
       id="clipPath-368322014">
      <g
         transform="translate(0,-1004.3622)"
         id="g17">
        <path
           d="m -24,13 c 0,1.105 -0.672,2 -1.5,2 -0.828,0 -1.5,-0.895 -1.5,-2 0,-1.105 0.672,-2 1.5,-2 0.828,0 1.5,0.895 1.5,2 z"
           transform="matrix(15.333333,0,0,11.5,414.99999,878.8622)"
           id="path19"
           inkscape:connector-curvature="0"
           style="fill:#1890d0" />
      </g>
    </clipPath>
    <linearGradient
       inkscape:collect="always"
       xlink:href="#linearGradient3764"
       id="linearGradient3042"
       gradientUnits="userSpaceOnUse"
       gradientTransform="matrix(0,-1,1,0,-1.5e-6,47.999998)"
       x1="1"
       x2="47" />
  </defs>
  <g
     id="g33"
     transform="translate(0,80)" />
  <rect
     style="fill:#f03916;fill-rule:evenodd;stroke:#000000;stroke-width:0;stroke-linecap:butt;stroke-linejoin:miter;stroke-miterlimit:4;stroke-opacity:1;stroke-dasharray:none"
     id="rect3044"
     width="114.09984"
     height="114.15891"
     x="7.2456555"
     y="7.289247"
     ry="15" />
  <path
     style="fill:#ffffff;fill-opacity:1;stroke:none"
     d="m 64.43073,17.657873 c -25.996149,0 -47.062225,21.066134 -47.062225,47.062062 0,25.995929 21.066076,47.062065 47.062225,47.062065 25.996145,0 47.06223,-21.066136 47.06223,-47.062065 0,-25.995928 -21.066085,-47.062062 -47.06223,-47.062062 z m 0,10.141229 c 20.395227,0 36.92087,16.525427 36.92087,36.920833 0,12.847243 -6.528443,24.127866 -16.4797,30.741264 l 0,-53.083944 -12.993612,0 0,17.430489 -9.58675,-6.259149 -16.955079,-10.933707 0,21.946258 0,21.946992 16.955079,-10.933707 9.58675,-6.259148 0,31.612597 c -2.403754,0.4914 -4.898147,0.7129 -7.447558,0.7129 -20.395231,0 -36.920872,-16.525438 -36.920872,-36.920845 0,-20.395406 16.525641,-36.920833 36.920872,-36.920833 z"
     id="path893"
     inkscape:connector-curvature="0" />
</svg>
