<?xml version="1.0" encoding="UTF-8" standalone="no"?>
<!-- Created using Karbon, part of Calligra: http://www.calligra.org/karbon -->

<svg
   xmlns:dc="http://purl.org/dc/elements/1.1/"
   xmlns:cc="http://creativecommons.org/ns#"
   xmlns:rdf="http://www.w3.org/1999/02/22-rdf-syntax-ns#"
   xmlns:svg="http://www.w3.org/2000/svg"
   xmlns="http://www.w3.org/2000/svg"
   xmlns:sodipodi="http://sodipodi.sourceforge.net/DTD/sodipodi-0.dtd"
   xmlns:inkscape="http://www.inkscape.org/namespaces/inkscape"
   width="512"
   height="512"
   id="svg2"
   version="1.1"
   inkscape:version="0.91 r13725"
   sodipodi:docname="tovid_bw.svg"
   viewBox="0 0 512 512">
  <metadata
     id="metadata12">
    <rdf:RDF>
      <cc:Work
         rdf:about="">
        <dc:format>image/svg+xml</dc:format>
        <dc:type
           rdf:resource="http://purl.org/dc/dcmitype/StillImage" />
        <dc:title />
      </cc:Work>
    </rdf:RDF>
  </metadata>
  <sodipodi:namedview
     pagecolor="#ffffff"
     bordercolor="#666666"
     borderopacity="1"
     objecttolerance="10"
     gridtolerance="10"
     guidetolerance="10"
     inkscape:pageopacity="0"
     inkscape:pageshadow="2"
     inkscape:window-width="1366"
     inkscape:window-height="715"
     id="namedview10"
     showgrid="false"
     inkscape:zoom="0.57452426"
     inkscape:cx="148.64058"
     inkscape:cy="234.98816"
     inkscape:window-x="0"
     inkscape:window-y="24"
     inkscape:window-maximized="1"
     inkscape:current-layer="svg2"
     inkscape:showpageshadow="false"
     borderlayer="true"
     units="px"
     showguides="false"
     inkscape:document-units="px">
    <sodipodi:guide
       position="1.9073486e-06,48.000002"
       orientation="47.999998,0"
       id="guide4062" />
    <sodipodi:guide
       position="1.9073486e-06,3.8146973e-06"
       orientation="0,47.999998"
       id="guide4064" />
    <sodipodi:guide
       position="48,3.8146973e-06"
       orientation="-47.999998,0"
       id="guide4066" />
    <sodipodi:guide
       position="48,48.000002"
       orientation="0,-47.999998"
       id="guide4068" />
    <sodipodi:guide
       position="4.0000019,44.000002"
       orientation="39.999998,0"
       id="guide4072" />
    <sodipodi:guide
       position="4.0000019,4.0000038"
       orientation="0,39.999998"
       id="guide4074" />
    <sodipodi:guide
       position="44,4.0000038"
       orientation="-39.999998,0"
       id="guide4076" />
    <sodipodi:guide
       position="44,44.000002"
       orientation="0,-39.999998"
       id="guide4078" />
    <sodipodi:guide
       position="15.000002,33.000002"
       orientation="17.999998,0"
       id="guide4080" />
    <sodipodi:guide
       position="15.000002,15.000004"
       orientation="0,17.999998"
       id="guide4082" />
    <sodipodi:guide
       position="33,15.000004"
       orientation="-17.999998,0"
       id="guide4084" />
    <sodipodi:guide
       position="33,33.000002"
       orientation="0,-17.999998"
       id="guide4086" />
    <inkscape:grid
       type="xygrid"
       id="grid3359" />
  </sodipodi:namedview>
  <defs
     id="defs4">
    <inkscape:path-effect
       effect="spiro"
       id="path-effect3794"
       is_visible="true" />
    <inkscape:path-effect
       effect="spiro"
       id="path-effect3794-1"
       is_visible="true" />
  </defs>
  <g
     id="g4172">
    <path
       sodipodi:end="6.2669817"
       sodipodi:start="6.2786748"
       d="M 456.11291,255.65219 A 199.96678,199.9668 0 0 1 257.63466,456.51541 199.96678,199.9668 0 0 1 56.192106,258.62517 199.96678,199.9668 0 0 1 253.49262,56.604975 199.96678,199.9668 0 0 1 456.08869,253.3141 l -199.94053,3.24004 z"
       sodipodi:ry="199.9668"
       sodipodi:rx="199.96678"
       sodipodi:cy="256.55414"
       sodipodi:cx="256.14816"
       id="path3793-2"
       style="fill:#ebebeb;fill-opacity:1;stroke:#ebebeb;stroke-width:57.70410538;stroke-linecap:butt;stroke-linejoin:bevel;stroke-miterlimit:4;stroke-dasharray:none;stroke-opacity:1"
       sodipodi:type="arc" />
    <path
       sodipodi:end="6.2669817"
       sodipodi:start="6.2786748"
       d="m 321.69909,258.8492 a 62.432579,62.432583 0 0 1 -61.96783,62.71246 62.432579,62.432583 0 0 1 -62.89334,-61.78426 62.432579,62.432583 0 0 1 61.60013,-63.07368 62.432579,62.432583 0 0 1 63.25348,61.41549 l -62.42438,1.01159 z"
       sodipodi:ry="62.432583"
       sodipodi:rx="62.432579"
       sodipodi:cy="259.1308"
       sodipodi:cx="259.26715"
       id="path3793-7-7"
       style="fill:#394050;fill-opacity:1;stroke:#394050;stroke-width:18.01607323;stroke-linecap:butt;stroke-linejoin:bevel;stroke-miterlimit:4;stroke-dasharray:none;stroke-opacity:1"
       sodipodi:type="arc" />
    <path
       sodipodi:nodetypes="ccczcc"
       inkscape:connector-curvature="0"
       id="path3847-0"
       d="m 195.86228,185.37265 55.2413,-20.81558 -8.00598,-98.473638 c 0,0 -27.18237,1.613919 -56.04192,12.008973 -28.85953,10.395059 -48.83652,32.824545 -48.83652,32.824545 z"
       style="fill:#b3b3b3;stroke:none;fill-opacity:1" />
    <path
       sodipodi:nodetypes="ccczcc"
       inkscape:connector-curvature="0"
       id="path3867-9"
       d="m 195.57991,185.2536 55.76173,-21.22911 -2.54751,-25.47488 c 0,0 -15.40793,-2.70727 -36.54246,6.95078 -21.13451,9.65804 -29.69226,23.05298 -29.69226,23.05298 z"
       style="fill:#394050;stroke:none" />
    <path
       sodipodi:nodetypes="ccczcc"
       inkscape:connector-curvature="0"
       id="path3847-3-6"
       d="m 243.21833,356.91173 -49.45428,-32.23608 -74.6736,64.69164 c 0,0 17.37667,20.96517 42.8262,38.08975 25.44952,17.1246 55.35051,19.96941 55.35051,19.96941 z"
       style="fill:#b3b3b3;stroke:none;fill-opacity:1" />
    <path
       sodipodi:nodetypes="ccczcc"
       inkscape:connector-curvature="0"
       id="path3867-5-0"
       d="m 243.2893,357.20984 -50.0955,-32.4112 -19.03616,17.11972 c 0,0 6.9289,14.02585 27.21566,25.35692 20.28675,11.33106 36.14922,10.31039 36.14922,10.31039 z"
       style="fill:#394050;stroke:none" />
    <path
       sodipodi:nodetypes="ccczcc"
       inkscape:connector-curvature="0"
       id="path3847-3-2-2"
       d="m 359.90124,244.83504 -13.71642,57.41734 86.04535,48.55255 c 0,0 13.89596,-23.41771 21.45896,-53.14532 7.56302,-29.72761 0.18105,-58.84236 0.18105,-58.84236 z"
       style="fill:#b3b3b3;stroke:none;fill-opacity:1" />
    <path
       sodipodi:nodetypes="ccczcc"
       inkscape:connector-curvature="0"
       id="path3867-5-9-6"
       d="m 360.15809,244.66791 -13.66557,58.08008 22.52668,12.16589 c 0,0 10.87664,-11.24423 14.72107,-34.16073 3.84442,-22.9165 -2.45404,-37.51064 -2.45404,-37.51064 z"
       style="fill:#394050;stroke:none" />
  </g>
</svg>
