<?xml version="1.0" encoding="UTF-8" standalone="no"?>
<!-- Created with Inkscape (http://www.inkscape.org/) -->

<svg
   xmlns:dc="http://purl.org/dc/elements/1.1/"
   xmlns:cc="http://creativecommons.org/ns#"
   xmlns:rdf="http://www.w3.org/1999/02/22-rdf-syntax-ns#"
   xmlns:svg="http://www.w3.org/2000/svg"
   xmlns="http://www.w3.org/2000/svg"
   xmlns:sodipodi="http://sodipodi.sourceforge.net/DTD/sodipodi-0.dtd"
   xmlns:inkscape="http://www.inkscape.org/namespaces/inkscape"
   id="svg2"
   version="1.1"
   inkscape:version="0.91 r13725"
   width="512"
   height="512"
   sodipodi:docname="tuxmath.svg">
  <metadata
     id="metadata8">
    <rdf:RDF>
      <cc:Work
         rdf:about="">
        <dc:format>image/svg+xml</dc:format>
        <dc:type
           rdf:resource="http://purl.org/dc/dcmitype/StillImage" />
        <dc:title />
      </cc:Work>
    </rdf:RDF>
  </metadata>
  <defs
     id="defs6" />
  <sodipodi:namedview
     pagecolor="#ffffff"
     bordercolor="#666666"
     borderopacity="1"
     objecttolerance="10"
     gridtolerance="10"
     guidetolerance="10"
     inkscape:pageopacity="0"
     inkscape:pageshadow="2"
     inkscape:window-width="1366"
     inkscape:window-height="715"
     id="namedview4"
     showgrid="false"
     inkscape:zoom="0.32593203"
     inkscape:cx="1492.7895"
     inkscape:cy="214.30347"
     inkscape:window-x="0"
     inkscape:window-y="24"
     inkscape:window-maximized="1"
     inkscape:current-layer="svg2" />
  <g
     id="g3402">
    <path
       inkscape:connector-curvature="0"
       id="path827"
       d="m 440.61859,124.54272 c -49.90845,38.06707 -56.15091,54.51786 -39.27458,103.50164 16.7203,48.53125 7.4339,108.20552 -23.30985,149.78869 -10.54129,14.25784 -22.29904,35.79474 -26.1283,47.85983 -6.41998,20.22747 -11.36443,21.47922 -63.46195,16.06639 -49.21436,-5.11322 -58.93893,-3.16475 -75.41713,15.11088 -27.81082,30.84439 -63.64102,27.65719 -71.13658,-6.32792 -15.22766,-69.04284 -20.37156,-76.65905 -59.11618,-87.52969 -21.08856,-5.91691 -39.98365,-15.68039 -41.98912,-21.69671 -2.00547,-6.0164 5.82843,-29.51071 17.4085,-52.2096 22.8401,-44.77026 24.21776,-38.8612 -24.50822,-105.122 -15.26897,-20.76382 1.38789,-27.6556 34.09614,-14.1074 58.48917,24.227 79.68378,-26.66731 35.32473,-84.8251 C 83.88226,59.84807 81.25455,50.58726 91.02598,42.47781 c 18.01148,-14.94822 32.56257,-2.25116 51.41397,44.8631 19.43641,48.57653 38.84919,59.06703 70.69319,38.20202 30.37507,-19.90245 46.58436,-19.08745 93.18292,4.68542 45.93234,23.43284 70.03663,17.33957 113.68334,-28.73753 16.04186,-16.93502 35.03394,-30.79097 42.20474,-30.79097 24.1937,0 13.2645,27.26145 -21.58555,53.84287 z"
       style="fill:#00bbf2;fill-opacity:1;stroke-width:9.9305191" />
    <g
       id="flowRoot3381"
       style="font-style:normal;font-weight:normal;font-size:40px;line-height:125%;font-family:sans-serif;letter-spacing:0px;word-spacing:0px;fill:#004455;fill-opacity:1;stroke:none;stroke-width:1px;stroke-linecap:butt;stroke-linejoin:miter;stroke-opacity:1"
       transform="matrix(2.2276219,-0.37521119,0.37521119,2.2276219,-211.88206,-180.36263)">
      <path
         id="path3390"
         style="font-style:normal;font-variant:normal;font-weight:bold;font-stretch:normal;font-family:sans-serif;-inkscape-font-specification:'sans-serif Bold';fill:#004455;fill-opacity:1"
         d="m 85.542969,223.56723 18.691411,0 0,5.52735 -12.695318,0 0,4.51171 q 0.859375,-0.23437 1.71875,-0.35156 0.878907,-0.13672 1.816407,-0.13672 5.332031,0 8.300781,2.67578 2.96875,2.65625 2.96875,7.42188 0,4.72656 -3.24219,7.40234 -3.222654,2.67578 -8.964841,2.67578 -2.480469,0 -4.921875,-0.48828 -2.421875,-0.46875 -4.824219,-1.44531 l 0,-5.91797 q 2.382812,1.36719 4.511719,2.05078 2.148437,0.6836 4.042968,0.6836 2.734375,0 4.296875,-1.32813 1.582032,-1.34765 1.582032,-3.63281 0,-2.30469 -1.582032,-3.63281 -1.5625,-1.32813 -4.296875,-1.32813 -1.621093,0 -3.457031,0.42969 -1.835937,0.41016 -3.945312,1.28906 l 0,-16.40625 z" />
      <path
         id="path3392"
         style="font-style:normal;font-variant:normal;font-weight:bold;font-stretch:normal;font-family:sans-serif;-inkscape-font-specification:'sans-serif Bold';fill:#004455;fill-opacity:1"
         d="m 123.84375,229.75864 -8.24219,12.20703 8.24219,0 0,-12.20703 z m -1.25,-6.19141 8.35937,0 0,18.39844 4.16016,0 0,5.44922 -4.16016,0 0,5.3125 -7.10937,0 0,-5.3125 -12.92969,0 0,-6.44531 11.67969,-17.40235 z" />
      <path
         id="path3394"
         style="font-style:normal;font-variant:normal;font-weight:bold;font-stretch:normal;font-family:sans-serif;-inkscape-font-specification:'sans-serif Bold';fill:#004455;fill-opacity:1"
         d="m 141.40234,230.85239 7.05078,0 0,7.55859 -7.05078,0 0,-7.55859 z m 0,14.3164 7.05078,0 0,7.5586 -7.05078,0 0,-7.5586 z" />
      <path
         id="path3396"
         style="font-style:normal;font-variant:normal;font-weight:bold;font-stretch:normal;font-family:sans-serif;-inkscape-font-specification:'sans-serif Bold';fill:#004455;fill-opacity:1"
         d="m 166.79297,242.88364 -7.05078,0 0,-0.95703 q 0,-1.60157 0.64453,-2.83203 0.64453,-1.25 2.71484,-3.16407 l 1.25,-1.13281 q 1.11328,-1.01562 1.6211,-1.91406 0.52734,-0.89844 0.52734,-1.79688 0,-1.36718 -0.9375,-2.1289 -0.9375,-0.78125 -2.61719,-0.78125 -1.58203,0 -3.41797,0.66406 -1.83593,0.64453 -3.82812,1.93359 l 0,-6.13281 q 2.36328,-0.82031 4.3164,-1.21094 1.95313,-0.39062 3.76954,-0.39062 4.76562,0 7.26562,1.95312 2.5,1.9336 2.5,5.66407 0,1.91406 -0.76172,3.4375 -0.76172,1.5039 -2.59765,3.24218 l -1.25,1.11328 q -1.32813,1.21094 -1.73829,1.95313 -0.41015,0.72266 -0.41015,1.60156 l 0,0.87891 z m -7.05078,2.89062 7.05078,0 0,6.95313 -7.05078,0 0,-6.95313 z" />
      <path
         id="path3398"
         style="font-style:normal;font-variant:normal;font-weight:bold;font-stretch:normal;font-family:sans-serif;-inkscape-font-specification:'sans-serif Bold';fill:#004455;fill-opacity:1"
         d="m 180.38672,233.45004 25.03906,0 0,4.58985 -25.03906,0 0,-4.58985 z m 0,8.88672 25.03906,0 0,4.62891 -25.03906,0 0,-4.62891 z" />
      <path
         id="path3400"
         style="font-style:normal;font-variant:normal;font-weight:bold;font-stretch:normal;font-family:sans-serif;-inkscape-font-specification:'sans-serif Bold';fill:#004455;fill-opacity:1"
         d="m 224.13672,238.33286 q -1.97266,0 -2.96875,1.28906 -0.97656,1.26953 -0.97656,3.82812 0,2.5586 0.97656,3.84766 0.99609,1.26953 2.96875,1.26953 1.99219,0 2.96875,-1.26953 0.99609,-1.28906 0.99609,-3.84766 0,-2.55859 -0.99609,-3.82812 -0.97656,-1.28906 -2.96875,-1.28906 z m 9.29687,-14.00391 0,5.39063 q -1.85547,-0.87891 -3.49609,-1.28907 -1.64063,-0.42968 -3.20313,-0.42968 -3.35937,0 -5.23437,1.875 -1.875,1.85546 -2.1875,5.52734 1.28906,-0.95703 2.79297,-1.42578 1.5039,-0.48828 3.28125,-0.48828 4.47265,0 7.20703,2.61718 2.75391,2.61719 2.75391,6.85547 0,4.6875 -3.06641,7.51953 -3.06641,2.8125 -8.22266,2.8125 -5.68359,0 -8.80859,-3.82812 -3.10547,-3.84766 -3.10547,-10.89844 0,-7.22656 3.63281,-11.34765 3.65235,-4.14063 10,-4.14063 2.01172,0 3.90625,0.3125 1.89453,0.3125 3.75,0.9375 z" />
    </g>
  </g>
</svg>
