<?xml version="1.0" encoding="UTF-8" standalone="no"?>
<!-- Generator: Adobe Illustrator 19.0.0, SVG Export Plug-In . SVG Version: 6.00 Build 0)  -->

<svg
   xmlns:dc="http://purl.org/dc/elements/1.1/"
   xmlns:cc="http://creativecommons.org/ns#"
   xmlns:rdf="http://www.w3.org/1999/02/22-rdf-syntax-ns#"
   xmlns:svg="http://www.w3.org/2000/svg"
   xmlns="http://www.w3.org/2000/svg"
   xmlns:sodipodi="http://sodipodi.sourceforge.net/DTD/sodipodi-0.dtd"
   xmlns:inkscape="http://www.inkscape.org/namespaces/inkscape"
   version="1.1"
   id="Layer_1"
   x="0px"
   y="0px"
   viewBox="0 0 500 500"
   xml:space="preserve"
   inkscape:version="0.91 r13725"
   width="100%"
   height="100%"
   sodipodi:docname="warsow.svg"><metadata
     id="metadata57"><rdf:RDF><cc:Work
         rdf:about=""><dc:format>image/svg+xml</dc:format><dc:type
           rdf:resource="http://purl.org/dc/dcmitype/StillImage" /></cc:Work></rdf:RDF></metadata><defs
     id="defs55" /><sodipodi:namedview
     pagecolor="#ffffff"
     bordercolor="#666666"
     borderopacity="1"
     objecttolerance="10"
     gridtolerance="10"
     guidetolerance="10"
     inkscape:pageopacity="0"
     inkscape:pageshadow="2"
     inkscape:window-width="1366"
     inkscape:window-height="715"
     id="namedview53"
     showgrid="false"
     inkscape:zoom="0.092912963"
     inkscape:cx="2468.4862"
     inkscape:cy="1249.8209"
     inkscape:window-x="0"
     inkscape:window-y="24"
     inkscape:window-maximized="1"
     inkscape:current-layer="Layer_1" /><g
     id="g23"
     transform="translate(0,39.767)" /><g
     id="g25"
     transform="translate(0,39.767)" /><g
     id="g27"
     transform="translate(0,39.767)" /><g
     id="g29"
     transform="translate(0,39.767)" /><g
     id="g31"
     transform="translate(0,39.767)" /><g
     id="g33"
     transform="translate(0,39.767)" /><g
     id="g35"
     transform="translate(0,39.767)" /><g
     id="g37"
     transform="translate(0,39.767)" /><g
     id="g39"
     transform="translate(0,39.767)" /><g
     id="g41"
     transform="translate(0,39.767)" /><g
     id="g43"
     transform="translate(0,39.767)" /><g
     id="g45"
     transform="translate(0,39.767)" /><g
     id="g47"
     transform="translate(0,39.767)" /><g
     id="g49"
     transform="translate(0,39.767)" /><g
     id="g51"
     transform="translate(0,39.767)" /><g
     id="g4185"><path
       d="M 492.61041,249.88957 A 242.5,242.5 0 0 1 250.39504,492.38941 242.5,242.5 0 0 1 7.6110808,250.45883 242.5,242.5 0 0 1 249.25653,7.3910755 242.5,242.5 0 0 1 492.60774,248.75106"
       sodipodi:open="true"
       sodipodi:end="6.2784904"
       sodipodi:start="0"
       sodipodi:ry="242.5"
       sodipodi:rx="242.5"
       sodipodi:cy="249.88957"
       sodipodi:cx="250.11041"
       sodipodi:type="arc"
       id="path3360"
       style="fill:#ff6600;fill-opacity:1;stroke:none;stroke-width:35;stroke-linecap:round;stroke-miterlimit:4;stroke-dasharray:none;stroke-opacity:1" /><path
       id="path3362"
       d="M 422.35156 79.289062 L 79.166016 421.66211 A 242.5 242.5 0 0 0 250.39453 492.38867 A 242.5 242.5 0 0 0 492.61133 249.88867 L 492.60742 248.75195 A 242.5 242.5 0 0 0 422.35156 79.289062 z "
       style="fill:#00bbf2;fill-rule:evenodd;stroke:none;stroke-width:1px;stroke-linecap:butt;stroke-linejoin:miter;stroke-opacity:1;fill-opacity:1" /><path
       inkscape:connector-curvature="0"
       id="path4180"
       d="m 488.85156,85.291016 -355.05275,4.343272 -30.14451,81.430692 57.64501,51.54044 -42.10142,111.26097 169.72254,0.56643 21.90035,22.96911 -281.423841,-4.5934 -23.0724751,61.06629 365.6638961,4.19237 31.84379,-81.62088 -53.86817,-50.1554 43.35831,-113.71479 -174.94646,-1.19693 -24.92059,-22.71691 272.29904,-2.51789 23.09728,-60.853374 z m -191.32935,139.197664 -18.1545,51.61901 -65.5026,0 16.37461,-51.26345 67.28249,-0.35556 z"
       style="fill:#ffffff;fill-rule:evenodd;stroke:none;stroke-width:1px;stroke-linecap:butt;stroke-linejoin:miter;stroke-opacity:1" /></g></svg>