<?xml version="1.0" encoding="UTF-8" standalone="no"?>
<!-- Generator: Adobe Illustrator 19.0.0, SVG Export Plug-In . SVG Version: 6.00 Build 0)  -->

<svg
   xmlns:dc="http://purl.org/dc/elements/1.1/"
   xmlns:cc="http://creativecommons.org/ns#"
   xmlns:rdf="http://www.w3.org/1999/02/22-rdf-syntax-ns#"
   xmlns:svg="http://www.w3.org/2000/svg"
   xmlns="http://www.w3.org/2000/svg"
   xmlns:sodipodi="http://sodipodi.sourceforge.net/DTD/sodipodi-0.dtd"
   xmlns:inkscape="http://www.inkscape.org/namespaces/inkscape"
   version="1.1"
   id="Layer_1"
   x="0px"
   y="0px"
   viewBox="0 0 500 500"
   xml:space="preserve"
   inkscape:version="0.91 r13725"
   width="100%"
   height="100%"
   sodipodi:docname="webissues.svg"><metadata
     id="metadata57"><rdf:RDF><cc:Work
         rdf:about=""><dc:format>image/svg+xml</dc:format><dc:type
           rdf:resource="http://purl.org/dc/dcmitype/StillImage" /></cc:Work></rdf:RDF></metadata><defs
     id="defs55" /><sodipodi:namedview
     pagecolor="#ffffff"
     bordercolor="#666666"
     borderopacity="1"
     objecttolerance="10"
     gridtolerance="10"
     guidetolerance="10"
     inkscape:pageopacity="0"
     inkscape:pageshadow="2"
     inkscape:window-width="1366"
     inkscape:window-height="715"
     id="namedview53"
     showgrid="false"
     inkscape:zoom="0.5"
     inkscape:cx="-16.54998"
     inkscape:cy="281.93305"
     inkscape:window-x="0"
     inkscape:window-y="24"
     inkscape:window-maximized="1"
     inkscape:current-layer="Layer_1" /><g
     id="g23"
     transform="translate(0,39.767)" /><g
     id="g25"
     transform="translate(0,39.767)" /><g
     id="g27"
     transform="translate(0,39.767)" /><g
     id="g29"
     transform="translate(0,39.767)" /><g
     id="g31"
     transform="translate(0,39.767)" /><g
     id="g33"
     transform="translate(0,39.767)" /><g
     id="g35"
     transform="translate(0,39.767)" /><g
     id="g37"
     transform="translate(0,39.767)" /><g
     id="g39"
     transform="translate(0,39.767)" /><g
     id="g41"
     transform="translate(0,39.767)" /><g
     id="g43"
     transform="translate(0,39.767)" /><g
     id="g45"
     transform="translate(0,39.767)" /><g
     id="g47"
     transform="translate(0,39.767)" /><g
     id="g49"
     transform="translate(0,39.767)" /><g
     id="g51"
     transform="translate(0,39.767)" /><g
     id="g3369"><path
       inkscape:connector-curvature="0"
       d="m 403.61967,31.880076 -307.434343,0 c -36.732663,0 -66.51013,29.777466 -66.51013,66.510131 l 0,307.398733 c 0,36.73267 29.777467,66.50826 66.51013,66.50826 l 307.432473,0 c 36.73267,0 66.51013,-29.77746 66.51013,-66.50826 l 0,-307.396859 c 0.002,-36.732664 -29.77746,-66.512005 -66.50826,-66.512005 z"
       inkscape:export-ydpi="7.7063322"
       inkscape:export-xdpi="7.7063322"
       inkscape:export-filename="C:\Documents and Settings\Molumen\Desktop\path3511111.png"
       id="rect1942"
       style="fill:#00bbf2;fill-opacity:1" /><g
       id="flowRoot3356"
       style="font-style:normal;font-weight:normal;font-size:40px;line-height:125%;font-family:sans-serif;letter-spacing:0px;word-spacing:0px;fill:#000000;fill-opacity:1;stroke:none;stroke-width:1px;stroke-linecap:butt;stroke-linejoin:miter;stroke-opacity:1"
       transform="matrix(8.6420631,0,0,8.6420631,-496.12909,-524.07776)"><path
         inkscape:connector-curvature="0"
         id="path3365"
         style="fill:#ffffff"
         d="m 63.328125,76.70981 3.984375,0 6.132812,24.64844 6.113282,-24.64844 4.433593,0 6.132813,24.64844 6.113281,-24.64844 4.003909,0 -7.324221,29.16016 -4.960938,0 -6.152344,-25.312504 -6.210937,25.312504 -4.960938,0 -7.304687,-29.16016 z" /><path
         inkscape:connector-curvature="0"
         id="path3367"
         style="fill:#ffffff"
         d="m 104.44141,83.994966 3.59375,0 0,21.875004 -3.59375,0 0,-21.875004 z m 0,-8.515625 3.59375,0 0,4.550782 -3.59375,0 0,-4.550782 z" /></g></g></svg>