<?xml version="1.0" encoding="UTF-8" standalone="no"?>
<!-- Generator: Adobe Illustrator 16.0.4, SVG Export Plug-In . SVG Version: 6.00 Build 0)  -->

<svg
   xmlns:dc="http://purl.org/dc/elements/1.1/"
   xmlns:cc="http://creativecommons.org/ns#"
   xmlns:rdf="http://www.w3.org/1999/02/22-rdf-syntax-ns#"
   xmlns:svg="http://www.w3.org/2000/svg"
   xmlns="http://www.w3.org/2000/svg"
   xmlns:sodipodi="http://sodipodi.sourceforge.net/DTD/sodipodi-0.dtd"
   xmlns:inkscape="http://www.inkscape.org/namespaces/inkscape"
   version="1.1"
   id="Capa_1"
   x="0px"
   y="0px"
   width="500"
   height="500"
   viewBox="0 0 500 500"
   enable-background="new 0 0 23.334 23.303"
   xml:space="preserve"
   inkscape:version="0.48.5 r10040"
   sodipodi:docname="wine-internet-explorer.svg"><metadata
     id="metadata11"><rdf:RDF><cc:Work
         rdf:about=""><dc:format>image/svg+xml</dc:format><dc:type
           rdf:resource="http://purl.org/dc/dcmitype/StillImage" /></cc:Work></rdf:RDF></metadata><defs
     id="defs9"><linearGradient
       id="SVGID_2_"
       gradientUnits="userSpaceOnUse"
       x1="237.8817"
       y1="64.2799"
       x2="234.5647"
       y2="79.694397"><stop
         offset="0"
         style="stop-color:#FFB700"
         id="stop31" /><stop
         offset="0.8599"
         style="stop-color:#FFB700;stop-opacity:0"
         id="stop33" /></linearGradient><filter
       color-interpolation-filters="sRGB"
       id="AI_GaussianBlur_4"><feGaussianBlur
         stdDeviation="4"
         id="feGaussianBlur7" /></filter><linearGradient
       id="SVGID_3_"
       gradientUnits="userSpaceOnUse"
       x1="66.431"
       y1="235.12711"
       x2="87.932899"
       y2="226.49921"><stop
         offset="0"
         style="stop-color:#FFB700"
         id="stop44" /><stop
         offset="1"
         style="stop-color:#FFB700;stop-opacity:0"
         id="stop46" /></linearGradient><radialGradient
       id="SVGID_1_"
       cx="143.5159"
       cy="115.7612"
       r="104.4259"
       fx="138.9545"
       fy="113.5903"
       gradientTransform="matrix(0.6237,0.7816,-0.7859,0.6271,144.9713,-69.0107)"
       gradientUnits="userSpaceOnUse"><stop
         offset="0"
         style="stop-color:#89EAFE"
         id="stop11" /><stop
         offset="0.2624"
         style="stop-color:#86E8FD"
         id="stop13" /><stop
         offset="0.4357"
         style="stop-color:#7DDFF9"
         id="stop15" /><stop
         offset="0.5832"
         style="stop-color:#6ED2F2"
         id="stop17" /><stop
         offset="0.7163"
         style="stop-color:#59BEE9"
         id="stop19" /><stop
         offset="0.8397"
         style="stop-color:#3EA5DD"
         id="stop21" /><stop
         offset="0.9544"
         style="stop-color:#1C87CF"
         id="stop23" /><stop
         offset="1"
         style="stop-color:#0D79C8"
         id="stop25" /></radialGradient><linearGradient
       id="SVGID_2_-3"
       gradientUnits="userSpaceOnUse"
       x1="237.8817"
       y1="64.2799"
       x2="234.5647"
       y2="79.694397"><stop
         offset="0"
         style="stop-color:#FFB700"
         id="stop31-6" /><stop
         offset="0.8599"
         style="stop-color:#FFB700;stop-opacity:0"
         id="stop33-7" /></linearGradient><filter
       color-interpolation-filters="sRGB"
       id="AI_GaussianBlur_4-5"><feGaussianBlur
         stdDeviation="4"
         id="feGaussianBlur7-3" /></filter><linearGradient
       id="SVGID_3_-5"
       gradientUnits="userSpaceOnUse"
       x1="66.431"
       y1="235.12711"
       x2="87.932899"
       y2="226.49921"><stop
         offset="0"
         style="stop-color:#FFB700"
         id="stop44-6" /><stop
         offset="1"
         style="stop-color:#FFB700;stop-opacity:0"
         id="stop46-2" /></linearGradient><radialGradient
       id="SVGID_1_-9"
       cx="143.5159"
       cy="115.7612"
       r="104.4259"
       fx="138.9545"
       fy="113.5903"
       gradientTransform="matrix(0.6237,0.7816,-0.7859,0.6271,144.9713,-69.0107)"
       gradientUnits="userSpaceOnUse"><stop
         offset="0"
         style="stop-color:#89EAFE"
         id="stop11-1" /><stop
         offset="0.2624"
         style="stop-color:#86E8FD"
         id="stop13-2" /><stop
         offset="0.4357"
         style="stop-color:#7DDFF9"
         id="stop15-7" /><stop
         offset="0.5832"
         style="stop-color:#6ED2F2"
         id="stop17-0" /><stop
         offset="0.7163"
         style="stop-color:#59BEE9"
         id="stop19-9" /><stop
         offset="0.8397"
         style="stop-color:#3EA5DD"
         id="stop21-3" /><stop
         offset="0.9544"
         style="stop-color:#1C87CF"
         id="stop23-6" /><stop
         offset="1"
         style="stop-color:#0D79C8"
         id="stop25-0" /></radialGradient><radialGradient
       gradientUnits="userSpaceOnUse"
       gradientTransform="matrix(0.6237,0.7816,-0.7859,0.6271,144.9713,-69.0107)"
       fy="113.5903"
       fx="138.9545"
       r="104.4259"
       cy="115.7612"
       cx="143.5159"
       id="radialGradient3124"><stop
         id="stop3126"
         style="stop-color:#89EAFE"
         offset="0" /><stop
         id="stop3128"
         style="stop-color:#86E8FD"
         offset="0.2624" /><stop
         id="stop3130"
         style="stop-color:#7DDFF9"
         offset="0.4357" /><stop
         id="stop3132"
         style="stop-color:#6ED2F2"
         offset="0.5832" /><stop
         id="stop3134"
         style="stop-color:#59BEE9"
         offset="0.7163" /><stop
         id="stop3136"
         style="stop-color:#3EA5DD"
         offset="0.8397" /><stop
         id="stop3138"
         style="stop-color:#1C87CF"
         offset="0.9544" /><stop
         id="stop3140"
         style="stop-color:#0D79C8"
         offset="1" /></radialGradient></defs><sodipodi:namedview
     pagecolor="#ffffff"
     bordercolor="#666666"
     borderopacity="1"
     objecttolerance="10"
     gridtolerance="10"
     guidetolerance="10"
     inkscape:pageopacity="0"
     inkscape:pageshadow="2"
     inkscape:window-width="1366"
     inkscape:window-height="716"
     id="namedview7"
     showgrid="false"
     inkscape:zoom="0.31648286"
     inkscape:cx="-124.05375"
     inkscape:cy="591.07433"
     inkscape:window-x="0"
     inkscape:window-y="0"
     inkscape:window-maximized="1"
     inkscape:current-layer="Capa_1" /><path
     id="path27"
     d="m 186.32741,235.93073 c 5.1232,-45.91175 41.37969,-82.75937 86.50325,-82.75937 50.64086,0 85.51803,35.4683 88.67076,82.75937 H 186.32741 z m 165.91285,96.9467 c -12.808,26.40418 -39.40923,43.54719 -79.60664,44.53242 -55.76406,1.37933 -85.12393,-46.10879 -86.50325,-86.89734 h 165.51875 9.65526 112.11925 c 0.98523,-8.27594 1.57636,-16.55187 1.57636,-25.2219 0,-111.13402 -90.05008,-201.184103 -201.18409,-201.184103 -111.13402,0 -201.184103,90.050083 -201.184103,201.184103 0,111.13401 90.050083,201.18409 201.184103,201.18409 87.48848,0 161.77487,-55.76405 189.55837,-133.59727 H 352.24026 z"
     class="st0"
     inkscape:connector-curvature="0"
     style="fill:#00bbf2;fill-opacity:1" /><g
     transform="matrix(1.9704613,0,0,1.9704613,-11.703947,3.8103914)"
     id="halo"
     style="fill:#ffcc00"><linearGradient
       id="linearGradient3144"
       gradientUnits="userSpaceOnUse"
       x1="237.8817"
       y1="64.2799"
       x2="234.5647"
       y2="79.694397"><stop
         offset="0"
         style="stop-color:#FFB700"
         id="stop3146" /><stop
         offset="0.8599"
         style="stop-color:#FFB700;stop-opacity:0"
         id="stop3148" /></linearGradient><path
       inkscape:connector-curvature="0"
       class="st1"
       d="m 235.5,63.7 c -0.8,3.1 -1.6,5.8 -2.1,8.1 -0.4,1.8 -0.6,7.1 -0.6,7.1 0,0 3.8,-2.4 4.7,-3.6 0.8,-1.1 1.9,-5.8 2.9,-10.5 l -4.9,-1.1 z"
       id="path35"
       style="fill:#ffcc00" /><path
       inkscape:connector-curvature="0"
       class="st2"
       d="m 240.6,65 c 0.7,-3.1 1.3,-6.3 1.6,-8.5 1.3,-8.1 4,-51.3 -53.7,-39 C 111.1,33.9 68.3,94.6 61.5,103 48.6,119 10.2,180.8 20.3,218.8 26.2,241 49.8,240.9 67,237.4 l -1.2,-6.1 C 36.6,236 32.2,213.8 36.2,196.5 41.1,174.9 57,139.4 108.4,89.4 154,45 202.4,20.2 227.6,32.5 241,39 238.4,53.1 235.5,63.9 l 5.1,1.1 z"
       id="path37"
       style="fill:#ffcc00" /><g
       class="st3"
       id="g39"
       style="fill:#ffcc00"><path
         inkscape:connector-curvature="0"
         class="st4"
         d="M 188.5,17.5 C 111.1,33.9 68.3,94.6 61.5,103 c -8.1,10 -26.1,38 -36,66.8 -0.6,2.3 -1.3,4.6 -2.1,6.6 0,0 0,0 0,0 C 55.2,94.9 134.2,37.2 191.6,16.9 c -1,0.2 -2.1,0.4 -3.1,0.6 z"
         id="path41"
         style="fill:#ffcc00" /></g><linearGradient
       id="linearGradient3154"
       gradientUnits="userSpaceOnUse"
       x1="66.431"
       y1="235.12711"
       x2="87.932899"
       y2="226.49921"><stop
         offset="0"
         style="stop-color:#FFB700"
         id="stop3156" /><stop
         offset="1"
         style="stop-color:#FFB700;stop-opacity:0"
         id="stop3158" /></linearGradient><path
       inkscape:connector-curvature="0"
       class="st5"
       d="m 67,237.3 c 9.4,-2 17.1,-5 18.8,-5.9 1.6,-0.9 7.1,-3.9 12.1,-6.9 L 93.5,222 c -2.4,0.9 -5.2,2 -8.3,3.3 -7.3,3 -13.9,4.9 -19.4,5.7 l 1.2,6.3 z"
       id="path48"
       style="fill:#ffcc00" /></g></svg>