<?xml version="1.0" encoding="UTF-8" standalone="no"?>
<!-- Created with Inkscape (http://www.inkscape.org/) -->

<svg
   xmlns:dc="http://purl.org/dc/elements/1.1/"
   xmlns:cc="http://creativecommons.org/ns#"
   xmlns:rdf="http://www.w3.org/1999/02/22-rdf-syntax-ns#"
   xmlns:svg="http://www.w3.org/2000/svg"
   xmlns="http://www.w3.org/2000/svg"
   xmlns:sodipodi="http://sodipodi.sourceforge.net/DTD/sodipodi-0.dtd"
   xmlns:inkscape="http://www.inkscape.org/namespaces/inkscape"
   id="svg2"
   version="1.1"
   inkscape:version="0.91 r13725"
   xml:space="preserve"
   width="512"
   height="512"
   viewBox="0 0 512 512"
   sodipodi:docname="winecfg.svg"><metadata
     id="metadata8"><rdf:RDF><cc:Work
         rdf:about=""><dc:format>image/svg+xml</dc:format><dc:type
           rdf:resource="http://purl.org/dc/dcmitype/StillImage" /><dc:title /></cc:Work></rdf:RDF></metadata><defs
     id="defs6"><clipPath
       clipPathUnits="userSpaceOnUse"
       id="clipPath16"><path
         d="m 0,0 656.967,0 0,490.475 L 0,490.475 0,0 Z"
         id="path18"
         inkscape:connector-curvature="0" /></clipPath><linearGradient
       x1="0"
       y1="0"
       x2="1"
       y2="0"
       gradientUnits="userSpaceOnUse"
       gradientTransform="matrix(-6.31e-5,1444.0616,-1444.0616,-6.31e-5,328.48291,-628.00391)"
       spreadMethod="pad"
       id="linearGradient24"><stop
         style="stop-opacity:1;stop-color:#ffffff"
         offset="0"
         id="stop26" /><stop
         style="stop-opacity:1;stop-color:#ffffff"
         offset="0.05086908"
         id="stop28" /><stop
         style="stop-opacity:1;stop-color:#f87d32"
         offset="0.460674"
         id="stop30" /><stop
         style="stop-opacity:1;stop-color:#ff1200"
         offset="1"
         id="stop32" /></linearGradient><clipPath
       clipPathUnits="userSpaceOnUse"
       id="clipPath40"><path
         d="m 0,490.475 656.967,0 L 656.967,0 0,0 0,490.475 Z"
         id="path42"
         inkscape:connector-curvature="0" /></clipPath></defs><sodipodi:namedview
     pagecolor="#ffffff"
     bordercolor="#666666"
     borderopacity="1"
     objecttolerance="10"
     gridtolerance="10"
     guidetolerance="10"
     inkscape:pageopacity="0"
     inkscape:pageshadow="2"
     inkscape:window-width="1366"
     inkscape:window-height="715"
     id="namedview4"
     showgrid="false"
     inkscape:zoom="0.70710678"
     inkscape:cx="112.47487"
     inkscape:cy="238.3248"
     inkscape:window-x="0"
     inkscape:window-y="24"
     inkscape:window-maximized="1"
     inkscape:current-layer="g36"><sodipodi:guide
       position="0,0"
       orientation="0,821.20875"
       id="guide3378"
       inkscape:locked="false" /><sodipodi:guide
       position="821.20875,0"
       orientation="-613.09375,0"
       id="guide3380"
       inkscape:locked="false" /><sodipodi:guide
       position="821.20875,613.09375"
       orientation="0,-821.20875"
       id="guide3382"
       inkscape:locked="false" /><sodipodi:guide
       position="0,613.09375"
       orientation="613.09375,0"
       id="guide3384"
       inkscape:locked="false" /><sodipodi:guide
       position="0,0"
       orientation="0,0"
       id="guide3386"
       inkscape:locked="false" /></sodipodi:namedview><g
     id="g10"
     inkscape:groupmode="layer"
     inkscape:label="FreeVector-Wine-Glass-Icon"
     transform="matrix(1.25,0,0,-1.25,0,512)"><g
       id="g36"
       transform="matrix(0.7234644,0,0,0.7234644,-34.605998,21.311566)"><g
         id="g4154"><g
           style="fill:#f03916"
           id="g44"
           transform="matrix(1.0176645,0.4191149,-0.4191149,1.0176645,399.85642,412.82408)"><path
             d="m 0,0 c 9.067,-66.741 -61.878,-98.854 -130.405,-82.552 -37.209,8.852 -60.527,47.425 -47.855,89.73 C -117.202,28.167 -65.639,-14.318 0,0"
             style="fill:#f03916;fill-opacity:1;fill-rule:evenodd;stroke:none"
             id="path46"
             inkscape:connector-curvature="0" /></g><path
           inkscape:connector-curvature="0"
           id="path50"
           style="fill:#394050;fill-opacity:1;fill-rule:nonzero;stroke:none"
           d="m 420.50168,412.82617 c -17.74359,35.61848 -42.90163,64.33881 -70.62658,91.03191 -2.78961,2.68976 -8.1522,-0.79474 -12.77582,-2.50135 22.62831,-29.71933 57.63575,-57.52322 73.75135,-95.26668 25.60233,-59.96056 -8.15432,-105.53962 -63.65384,-131.37579 -57.59862,-20.74217 -113.66105,-12.15418 -137.71042,48.44594 -15.13864,38.14582 -9.8659,82.53869 -14.72884,119.57451 -4.48448,-2.04447 -10.74667,-3.34752 -10.83298,-7.2217 -0.88465,-38.47568 1.47872,-76.58376 13.96607,-114.36697 2.66502,-8.06635 6.33545,-18.02775 10.6954,-25.96978 28.94635,-52.73078 87.76268,-34.86154 128.60625,-57.48973 24.31298,-13.46627 83.96324,-156.047532 85.76876,-181.439955 1.39239,-19.533839 -19.81082,-34.080649 -38.18844,-44.722573 -6.70036,-3.8807095 -19.22522,-6.439393 -19.51085,-16.3208363 21.65466,3.91315971 53.99968,15.6082163 85.25945,28.6262623 31.36119,12.77177 62.56119,27.247086 80.6911,39.718804 -7.16062,6.81478 -17.85581,-0.189481 -25.34577,-2.15291 -20.54194,-5.386706 -45.83888,-9.990514 -58.60773,4.858041 -16.60033,19.29933 -74.65998,162.535667 -66.88192,189.218307 13.0611,44.82829 67.40397,73.56253 50.8202,131.38472 -2.49863,8.70858 -6.90687,18.36613 -10.69539,25.96978" /><path
           style="fill:#45d03f;stroke-width:2.25216627;fill-opacity:1"
           d="m 200.48159,-4.6756814 c -2.10113,0.9375757 -4.33602,3.3377077 -5.33327,5.7272484 -0.51398,1.2312687 -1.0269,5.9650951 -1.46608,13.529674 -0.37149,6.399746 -0.86072,12.14616 -1.08711,12.769779 -0.30032,0.827451 -1.7685,1.607814 -5.4283,2.885701 -2.75914,0.963932 -6.9142,2.706209 -9.23343,3.872139 -2.31926,1.165951 -4.72212,2.120207 -5.33967,2.120207 -0.69266,0 -4.48132,-3.080757 -9.8888,-8.041595 -4.82127,-4.422576 -9.54534,-8.441113 -10.49794,-8.929616 -1.96084,-1.005582 -6.37254,-1.169312 -8.65073,-0.320699 -1.81143,0.67429 -20.97398,19.558252 -22.2026,21.879114 -1.21863,2.302615 -1.0883,6.609651 0.27894,9.218565 0.62237,1.187785 4.67554,6.001124 9.007,10.69666 4.66265,5.054098 7.87539,8.97803 7.87539,9.61788 0,0.594799 -0.95407,2.978943 -2.12016,5.298218 -1.1661,2.319051 -2.90472,6.463272 -3.86361,9.209562 -0.9589,2.745842 -2.13577,5.195975 -2.61527,5.444391 -0.4795,0.247724 -6.10787,0.740728 -12.50747,1.093425 -7.44275,0.410334 -12.45209,0.93397 -13.90131,1.452861 -2.7618,0.988717 -5.943647,4.375059 -6.393187,6.803806 -0.182287,0.985101 -0.257002,8.283931 -0.165791,16.219211 l 0.165583,14.42781 1.658345,2.07854 c 2.93064,3.67328 4.30822,4.04218 18.30588,4.90318 7.92267,0.48738 12.73884,1.00334 13.13892,1.40761 0.34738,0.35132 1.53459,3.07375 2.63826,6.05045 1.10369,2.97668 2.82867,7.04972 3.83327,9.05145 1.00463,2.00173 1.82658,4.07958 1.82658,4.61717 0,0.5378 -3.31379,4.61266 -7.364,9.05528 -4.05023,4.44262 -7.92436,8.81858 -8.60921,9.7244 -1.92619,2.54742 -2.57755,5.70203 -1.81549,8.79246 0.5754,2.33348 1.6294,3.59851 10.43207,12.52069 5.38562,5.45857 10.69558,10.39014 11.79992,10.95905 2.56272,1.32021 6.63763,1.33846 9.1822,0.0405 1.07146,-0.54614 5.77211,-4.50365 10.44591,-8.79425 4.67379,-4.29083 8.81449,-7.98123 9.20154,-8.20081 0.40791,-0.23176 2.92552,0.65267 5.989,2.10397 2.90689,1.37697 7.25633,3.16789 9.66542,3.97981 3.26648,1.10085 4.5339,1.80443 4.98491,2.76678 0.33261,0.70966 0.90303,6.52654 1.26763,12.92607 0.70115,12.30765 1.12244,14.25307 3.66032,16.90274 2.82299,2.94719 4.44655,3.18906 20.22559,3.01205 l 14.372,-0.16212 2.24838,-1.48891 c 3.86832,-2.5616 4.33659,-4.15434 5.24762,-17.84819 0.44097,-6.6288 0.9222,-12.56843 1.06935,-13.19949 0.20713,-0.88804 1.39174,-1.5398 5.2428,-2.88458 2.73637,-0.95537 7.11848,-2.81363 9.73803,-4.12935 2.61954,-1.31549 4.97271,-2.39203 5.22925,-2.39203 0.25653,0 4.46238,3.66788 9.34639,8.15082 4.88397,4.48295 9.78354,8.62287 10.88786,9.20032 2.61053,1.36459 6.49621,1.35198 9.35118,-0.0293 1.35553,-0.65628 5.96063,-4.84732 11.74432,-10.68855 9.92801,-10.02688 10.71043,-11.17412 10.71812,-15.71496 0.006,-3.21179 -1.42432,-5.3187 -9.95957,-14.67601 -4.64085,-5.08763 -8.43794,-9.4663 -8.43794,-9.73004 0,-0.26348 1.21129,-3.00415 2.69178,-6.09029 1.48044,-3.08593 3.24614,-7.40783 3.92368,-9.60415 0.84166,-2.72849 1.57464,-4.13881 2.3142,-4.45322 0.59535,-0.25269 6.57898,-0.80288 13.29703,-1.22247 13.3321,-0.83261 15.4796,-1.38124 17.71488,-4.52503 2.11314,-2.97219 2.35891,-5.19959 2.17592,-19.72067 l -0.17496,-13.890682 -1.63109,-2.319042 c -2.91249,-4.141517 -3.64806,-4.353659 -18.43866,-5.318955 -7.22701,-0.471374 -13.26681,-0.983972 -13.42173,-1.139148 -0.15499,-0.15316 -1.05212,-2.464756 -1.99379,-5.132898 -0.94162,-2.668366 -2.79334,-7.004689 -4.11481,-9.636129 -1.32151,-2.631644 -2.3283,-5.109252 -2.23727,-5.506307 0.0911,-0.396831 3.69678,-4.571237 8.01279,-9.276672 4.31602,-4.705455 8.39525,-9.635681 9.06498,-10.956564 1.42257,-2.805537 1.55451,-5.775905 0.38127,-8.584131 -1.03538,-2.478076 -18.60972,-20.341568 -21.46626,-21.81944 -2.38841,-1.235994 -6.73918,-1.368644 -9.23922,-0.281982 -0.95779,0.416424 -5.75983,4.433393 -10.67116,8.926909 -4.91134,4.493984 -9.32031,8.171536 -9.79771,8.172901 -0.47743,0 -3.24399,-1.107845 -6.14794,-2.464777 -2.90393,-1.357157 -7.20691,-3.102142 -9.56215,-3.878228 -3.25535,-1.072263 -4.34527,-1.681238 -4.54499,-2.538649 -0.1444,-0.620236 -0.62351,-6.551319 -1.0645,-13.17991 -0.96994,-14.57938885 -1.52718,-16.1595035 -6.60402,-18.7307999 -1.47216,-0.7452499 -3.90825,-0.8738473 -16.2358,-0.8558224 -10.91036,0.024848 -14.90604,0.2004115 -16.1274,0.7461256 z m 21.37712,64.7337824 c 13.08364,1.371129 24.01491,6.589161 33.3214,15.905936 7.09308,7.100841 11.6699,15.06834 14.42578,25.113223 1.72768,6.29727 1.71747,20.2026 -0.0204,26.57646 -5.27119,19.3434 -19.11816,33.58521 -38.25683,39.34784 -4.45948,1.34274 -5.67036,1.46999 -14.3416,1.50803 -8.30548,0.036 -10.03693,-0.11263 -14.07101,-1.21458 -20.14245,-5.49868 -35.54761,-21.68342 -39.75707,-41.7689 -3.78199,-18.0457 1.74787,-36.464834 14.92263,-49.704867 6.8982,-6.93263 15.84866,-12.018908 25.54543,-14.517474 2.76505,-0.712805 6.68898,-1.261655 12.27763,-1.718162 0.44649,-0.03381 3.1254,0.175767 5.95312,0.472494 z m -13.42064,22.68899 c -13.79977,3.742889 -23.4575,15.48725 -24.31259,29.565779 -0.5979,9.84377 2.56985,18.17183 9.56002,25.13439 12.73018,12.67993 33.05767,12.79885 45.62658,0.26689 10.35243,-10.32212 12.8364,-25.00241 6.41089,-37.888655 -5.47289,-10.975465 -15.55518,-17.452709 -27.92132,-17.937139 -4.20993,-0.166602 -6.29213,0.02485 -9.36358,0.858735 z m 15.43879,13.647461 c 3.81151,1.426072 8.35784,5.651808 10.26992,9.545828 1.34925,2.74763 1.51215,3.66223 1.51224,8.49134 1.1e-4,5.13672 -0.0941,5.58559 -1.85462,8.83254 -3.5538,6.5547 -8.82672,9.87597 -16.27522,10.25162 -5.98345,0.30158 -9.56483,-0.96572 -13.88433,-4.91354 -5.47657,-5.00523 -7.65566,-11.96352 -5.89671,-18.82946 1.52248,-5.94279 4.74801,-9.977993 10.17356,-12.727216 5.06156,-2.565007 10.27173,-2.777598 15.95516,-0.651112 z"
           id="path2986-6"
           inkscape:connector-curvature="0" /></g></g></g></svg>