<?xml version="1.0" encoding="UTF-8" standalone="no"?>
<svg
   xmlns:dc="http://purl.org/dc/elements/1.1/"
   xmlns:cc="http://creativecommons.org/ns#"
   xmlns:rdf="http://www.w3.org/1999/02/22-rdf-syntax-ns#"
   xmlns:svg="http://www.w3.org/2000/svg"
   xmlns="http://www.w3.org/2000/svg"
   xmlns:xlink="http://www.w3.org/1999/xlink"
   xmlns:sodipodi="http://sodipodi.sourceforge.net/DTD/sodipodi-0.dtd"
   xmlns:inkscape="http://www.inkscape.org/namespaces/inkscape"
   width="128"
   height="128"
   version="1.1"
   id="svg2"
   inkscape:version="0.92.1 r15371"
   sodipodi:docname="mathematica.svg">
  <sodipodi:namedview
     pagecolor="#ffffff"
     bordercolor="#666666"
     borderopacity="1"
     objecttolerance="10"
     gridtolerance="10"
     guidetolerance="10"
     inkscape:pageopacity="0"
     inkscape:pageshadow="2"
     inkscape:window-width="1366"
     inkscape:window-height="714"
     id="namedview17"
     showgrid="false"
     inkscape:zoom="1.84375"
     inkscape:cx="81.773467"
     inkscape:cy="66.599924"
     inkscape:window-x="0"
     inkscape:window-y="0"
     inkscape:window-maximized="1"
     inkscape:current-layer="svg2" />
  <title
     id="title4">Unison Icon</title>
  <desc
     id="desc6">This icon is a part of Clarity icon theme for gtk</desc>
  <metadata
     id="metadata8">
    <rdf:RDF>
      <cc:Work
         rdf:about="">
        <dc:title>Unison Icon</dc:title>
        <dc:description>This icon is a part of Clarity icon theme for gtk</dc:description>
        <dc:creator>
          <cc:Agent>
            <dc:title>Jakub Jankiewicz</dc:title>
          </cc:Agent>
        </dc:creator>
        <dc:rights>
          <cc:Agent>
            <dc:title>Jakub Jankiewicz</dc:title>
          </cc:Agent>
        </dc:rights>
        <dc:date>2010</dc:date>
        <dc:format>image/svg+xml</dc:format>
        <dc:type
           rdf:resource="http://purl.org/dc/dcmitype/StillImage" />
        <cc:license
           rdf:resource="http://www.gnu.org/copyleft/gpl.html" />
      </cc:Work>
    </rdf:RDF>
  </metadata>
  <defs
     id="defs10">
    <linearGradient
       x1="0"
       y1="128"
       x2="128"
       y2="0"
       id="gradient"
       gradientUnits="userSpaceOnUse">
      <stop
         id="start"
         style="stop-color:#dbdbdb;stop-opacity:1"
         offset="0" />
      <stop
         id="stop"
         style="stop-color:#757575;stop-opacity:1"
         offset="1" />
    </linearGradient>
    <linearGradient
       x1="56"
       y1="80"
       x2="56"
       y2="16"
       id="linearGradient3842"
       xlink:href="#linearGradient5105-8"
       gradientUnits="userSpaceOnUse"
       gradientTransform="translate(23.59322,18.254236)" />
    <linearGradient
       id="linearGradient5105-8">
      <stop
         id="stop5107-4"
         style="stop-color:#f5f5f5;stop-opacity:1"
         offset="0" />
      <stop
         id="stop5109-4"
         style="stop-color:#ebebeb;stop-opacity:1"
         offset="1" />
    </linearGradient>
  </defs>
  <path
     style="fill:#f03916;fill-opacity:1;stroke-width:1.2098999"
     d="m 57.050656,113.56074 c -3.236563,-5.65412 -6.049814,-10.28021 -6.251667,-10.28021 -0.201853,0 -2.862192,1.08891 -5.911863,2.4198 -3.049671,1.33089 -8.060014,3.51727 -11.134098,4.85862 l -5.589229,2.43882 0.833342,-10.00069 C 29.455487,97.496693 29.928946,91.942952 30.049258,90.65543 30.237918,88.636573 28.68656,87.984334 18.77397,85.914965 12.452244,84.595229 7.0657329,83.347393 6.8039461,83.141993 6.542173,82.936593 9.9939564,78.672457 14.474591,73.666136 l 8.146608,-9.102405 -8.146608,-9.102406 C 9.9939564,50.455004 6.542173,46.189601 6.8039461,45.982653 7.0657329,45.775707 12.180016,44.625759 18.16902,43.427213 c 5.989005,-1.198545 11.229106,-2.513805 11.644671,-2.922802 0.415576,-0.408996 0.263782,-5.099268 -0.337297,-10.422828 -1.66164,-14.716367 -2.060423,-14.352609 9.865875,-8.999355 5.656283,2.538889 10.630555,4.649582 11.053938,4.690431 0.423383,0.04085 3.417886,-4.551816 6.654449,-10.205927 3.236565,-5.6541082 6.156889,-10.2801993 6.489611,-10.2801993 0.332724,0 3.253048,4.6260911 6.489613,10.2801993 3.236563,5.654111 6.049814,10.280201 6.251667,10.280201 0.201853,0 2.862191,-1.08891 5.911863,-2.4198 3.049671,-1.33089 8.060013,-3.517271 11.134094,-4.858623 l 5.589237,-2.438824 -0.833352,10.000699 c -0.458344,5.500383 -0.931796,11.054123 -1.052114,12.341646 -0.188661,2.018857 1.362703,2.671096 11.275295,4.740465 6.32172,1.319736 11.70823,2.567573 11.97002,2.772972 0.26177,0.2054 -3.19002,4.469536 -7.67066,9.475857 l -8.1466,9.102406 8.1466,9.102405 c 4.48064,5.006321 7.93243,9.271724 7.67066,9.478671 -0.26179,0.206948 -5.37607,1.356896 -11.36508,2.555441 -5.989,1.198545 -11.229104,2.513806 -11.644671,2.922803 -0.415568,0.408996 -0.263778,5.099268 0.337307,10.422827 1.661632,14.716372 2.060417,14.352612 -9.86588,8.999352 -5.656282,-2.53889 -10.630554,-4.64958 -11.053937,-4.69043 -0.423384,-0.0408 -3.417886,4.55182 -6.654449,10.20594 -3.236565,5.6541 -6.156889,10.28018 -6.489613,10.28018 -0.332722,0 -3.253046,-4.62608 -6.489611,-10.28018 z m 0.809311,-19.757728 -3.393949,-4.436333 -0.364606,4.9899 c -0.27454,3.75729 0.472637,6.380961 3.02475,10.621261 l 3.389356,5.63135 0.3692,-6.18492 c 0.312687,-5.238213 -0.150305,-6.863983 -3.024751,-10.621258 z m 12.356809,11.363878 c 2.345488,-4.00228 3.053006,-6.685662 2.773277,-10.518139 l -0.375535,-5.145091 -3.327226,5.047644 c -2.394861,3.63318 -3.327225,6.580596 -3.327225,10.518136 0,3.00877 0.249277,5.47049 0.553949,5.47049 0.304672,0 1.970913,-2.41787 3.70276,-5.37304 z m -28.534456,-2.64946 7.339149,-3.182899 v -7.787733 c 0,-7.52418 -0.09213,-7.758652 -2.722276,-6.928416 -10.897205,3.439831 -11.162657,3.627401 -12.028498,8.49948 -0.96602,5.435797 -1.22316,12.582468 -0.45272,12.582468 0.288851,0 3.827814,-1.43231 7.864345,-3.1829 z m 52.035719,-0.74928 c -0.03835,-2.162692 -0.447527,-6.05832 -0.909285,-8.656947 -0.785545,-4.42081 -1.261309,-4.868133 -7.395156,-6.953091 -3.605577,-1.225575 -6.689714,-2.093928 -6.853636,-1.929675 -0.163922,0.164254 -0.448345,3.546354 -0.632051,7.51578 l -0.334009,7.217136 7.189506,3.309907 c 3.954229,1.82045 7.597849,3.33672 8.096932,3.36949 0.499085,0.0328 0.87605,-1.7099 0.837699,-3.8726 z M 68.781553,87.352486 73.155996,81.103643 69.04672,75.555962 c -2.260103,-3.051225 -4.738006,-5.547682 -5.506453,-5.547682 -0.768445,0 -3.246348,2.496457 -5.506451,5.547682 l -4.109276,5.547681 4.374443,6.248843 c 2.405944,3.436864 4.764522,6.248843 5.241284,6.248843 0.476764,0 2.835342,-2.811979 5.241286,-6.248843 z m -29.317354,-4.882165 4.11272,-1.451809 -6.620262,-2.013039 c -5.953829,-1.810393 -7.150964,-1.832207 -11.892175,-0.216714 -5.435003,1.851892 -5.517736,3.314572 -0.241011,4.261204 5.833543,1.046526 10.564701,0.859214 14.640728,-0.579642 z m 66.767721,-0.829195 c 0.60147,-0.601459 -1.21329,-1.829288 -4.21586,-2.852367 -4.745043,-1.616797 -5.933553,-1.594035 -11.892182,0.227772 l -6.620261,2.024096 3.629699,1.41838 c 3.906451,1.526527 17.329014,0.951718 19.098604,-0.817881 z M 55.457934,71.800611 c 3.108817,-4.16414 4.045326,-6.248683 2.980533,-6.634279 -6.795937,-2.461017 -12.30807,-4.232301 -13.17068,-4.232301 -0.566307,0 -3.289437,2.858388 -6.0514,6.351974 l -5.021758,6.351975 6.505997,2.043408 c 3.578296,1.123875 7.342572,2.076671 8.365058,2.117326 1.022487,0.04066 3.898999,-2.658492 6.39225,-5.998103 z m 30.921975,3.880777 6.505992,-2.043408 -5.021752,-6.351975 c -2.761963,-3.493586 -5.485093,-6.351974 -6.0514,-6.351974 -0.862611,0 -6.374743,1.771284 -13.17068,4.232301 -2.070748,0.749882 6.820929,12.733843 9.372782,12.632382 1.022486,-0.04066 4.786763,-0.993451 8.365058,-2.117326 z M 32.733192,68.631356 c 3.75628,-4.924744 3.438122,-5.847085 -1.389946,-4.029443 -3.451228,1.299297 -12.569276,9.295661 -12.569276,11.023026 0,2.385897 11.013901,-3.132079 13.959222,-6.993583 z m 71.860978,2.424429 c -3.98621,-4.186718 -11.631203,-8.490354 -12.874212,-7.247346 -1.518022,1.518021 6.270749,9.216832 10.929022,10.802787 2.77895,0.946122 5.28764,1.514376 5.57488,1.262789 0.28725,-0.25159 -1.34613,-2.419793 -3.62969,-4.81823 z M 39.013082,56.826919 c 0.733314,-0.733313 -3.872323,-8.375932 -6.223413,-10.327162 -1.274629,-1.057844 -3.623058,-1.040077 -9.664583,0.07312 -4.389445,0.808792 -7.980814,1.944197 -7.980814,2.523127 0,0.57893 2.503488,3.729027 5.563301,7.000214 l 5.563289,5.947615 6.068507,-2.30585 c 3.337677,-1.268218 6.340848,-2.578195 6.673713,-2.911059 z m 72.923178,-7.7473 c 0,-0.629869 -2.04171,-1.472554 -4.53712,-1.872629 -2.49542,-0.400079 -6.26056,-1.072967 -8.366979,-1.49531 -3.473379,-0.696421 -4.177222,-0.288366 -7.561873,4.384009 -2.052612,2.833548 -3.732022,5.576622 -3.732022,6.095719 0,0.519095 2.858389,2.041727 6.351974,3.383624 l 6.35198,2.439811 5.74702,-5.895004 c 3.16086,-3.242253 5.74702,-6.410351 5.74702,-7.04022 z m -50.815792,3.928325 v -7.926085 l -4.298969,-1.796226 c -2.364434,-0.987923 -5.903391,-2.117108 -7.864349,-2.5093 -3.558773,-0.711754 -3.56535,-0.702143 -3.54886,5.185187 0.02637,9.413772 0.769704,10.772718 7.03353,12.858481 8.801467,2.93076 8.678648,3.013012 8.678648,-5.812057 z m 13.913849,5.614601 6.0495,-2.123941 0.352773,-8.537285 0.352773,-8.537282 -7.612173,2.751783 -7.612173,2.751783 -0.357754,8.003213 c -0.404302,9.044486 -0.516446,8.972176 8.827054,5.691729 z M 41.229763,41.033372 C 40.764331,37.929655 39.061954,34.31744 36.877618,31.798708 l -3.587691,-4.136925 0.737469,6.65445 c 0.817263,7.374498 6.637154,18.291592 7.502971,14.074263 0.255116,-1.242663 0.119839,-4.553369 -0.300604,-7.357124 z m 48.175089,4.474435 c 1.706716,-2.660276 3.215884,-7.289837 3.648288,-11.191574 l 0.737469,-6.65445 -3.499771,4.03161 c -1.924873,2.217386 -3.831106,5.688286 -4.236071,7.713112 -0.882341,4.411708 -0.969269,10.638426 -0.148517,10.638426 0.323281,0 1.897652,-2.041706 3.498602,-4.537124 z M 53.270231,34.112356 c -3.155916,-3.750593 -11.965593,-8.717895 -14.162637,-7.985548 -2.244258,0.748086 6.091269,8.626284 11.173952,10.560893 2.966905,1.129287 5.598233,1.897363 5.847397,1.70684 0.249163,-0.190524 -1.037256,-2.117509 -2.858712,-4.282185 z m 14.907141,0.274823 c 2.107708,-2.62276 3.832196,-5.301599 3.832196,-5.952978 0,-1.454031 -7.628054,-14.638559 -8.469301,-14.638559 -0.841245,0 -8.469299,13.184528 -8.469299,14.638559 0,1.435273 7.335539,10.721631 8.469299,10.721631 0.442702,0 2.5294,-2.145894 4.637105,-4.768653 z m 17.391197,-3.795677 c 1.83119,-2.19347 3.074047,-4.24352 2.761902,-4.555663 -1.980337,-1.980338 -17.263846,8.594406 -17.481632,12.095637 -0.129151,2.076277 11.787826,-4.028027 14.71973,-7.539974 z"
     id="path27"
     inkscape:connector-curvature="0" />
</svg>
