<?xml version="1.0" encoding="UTF-8" standalone="no"?>
<!-- Created with Inkscape (http://www.inkscape.org/) -->

<svg
   xmlns:dc="http://purl.org/dc/elements/1.1/"
   xmlns:cc="http://creativecommons.org/ns#"
   xmlns:rdf="http://www.w3.org/1999/02/22-rdf-syntax-ns#"
   xmlns:svg="http://www.w3.org/2000/svg"
   xmlns="http://www.w3.org/2000/svg"
   xmlns:xlink="http://www.w3.org/1999/xlink"
   xmlns:sodipodi="http://sodipodi.sourceforge.net/DTD/sodipodi-0.dtd"
   xmlns:inkscape="http://www.inkscape.org/namespaces/inkscape"
   version="1.0"
   width="128"
   height="128"
   id="svg2408"
   inkscape:version="0.91 r13725"
   sodipodi:docname="x-gish.svg">
  <sodipodi:namedview
     pagecolor="#ffffff"
     bordercolor="#666666"
     borderopacity="1"
     objecttolerance="10"
     gridtolerance="10"
     guidetolerance="10"
     inkscape:pageopacity="0"
     inkscape:pageshadow="2"
     inkscape:window-width="1133"
     inkscape:window-height="643"
     id="namedview116"
     showgrid="false"
     inkscape:zoom="1.7383041"
     inkscape:cx="58.345291"
     inkscape:cy="102.10333"
     inkscape:window-x="15"
     inkscape:window-y="39"
     inkscape:window-maximized="0"
     inkscape:current-layer="svg2408" />
  <defs
     id="defs2410">
    <linearGradient
       id="linearGradient4411">
      <stop
         id="stop4413"
         style="stop-color:#806451;stop-opacity:1"
         offset="0" />
      <stop
         id="stop4415"
         style="stop-color:#c5a590;stop-opacity:1"
         offset="1" />
    </linearGradient>
    <linearGradient
       id="linearGradient4137">
      <stop
         id="stop4139"
         style="stop-color:#fad34b;stop-opacity:1"
         offset="0" />
      <stop
         id="stop4141"
         style="stop-color:#fabc37;stop-opacity:1"
         offset="1" />
    </linearGradient>
    <linearGradient
       id="linearGradient4096">
      <stop
         id="stop4098"
         style="stop-color:#74686c;stop-opacity:1"
         offset="0" />
      <stop
         id="stop4100"
         style="stop-color:#e4e1e2;stop-opacity:1"
         offset="1" />
    </linearGradient>
    <linearGradient
       id="linearGradient4072">
      <stop
         id="stop4074"
         style="stop-color:#3d566e;stop-opacity:1"
         offset="0" />
      <stop
         id="stop4076"
         style="stop-color:#3d566e;stop-opacity:0"
         offset="1" />
    </linearGradient>
    <linearGradient
       id="linearGradient4015">
      <stop
         id="stop4017"
         style="stop-color:#ffffff;stop-opacity:1"
         offset="0" />
      <stop
         id="stop4019"
         style="stop-color:#ffffff;stop-opacity:0"
         offset="1" />
    </linearGradient>
    <linearGradient
       x1="45.447727"
       y1="92.539597"
       x2="45.447727"
       y2="7.0165396"
       id="ButtonShadow"
       gradientUnits="userSpaceOnUse"
       gradientTransform="scale(1.0058652,0.994169)">
      <stop
         id="stop3750"
         style="stop-color:#000000;stop-opacity:1"
         offset="0" />
      <stop
         id="stop3752"
         style="stop-color:#000000;stop-opacity:0.58823532"
         offset="1" />
    </linearGradient>
    <linearGradient
       id="linearGradient3737">
      <stop
         id="stop3739"
         style="stop-color:#ffffff;stop-opacity:1"
         offset="0" />
      <stop
         id="stop3741"
         style="stop-color:#ffffff;stop-opacity:0"
         offset="1" />
    </linearGradient>
    <filter
       id="filter3174"
       style="color-interpolation-filters:sRGB">
      <feGaussianBlur
         id="feGaussianBlur3176"
         stdDeviation="1.71" />
    </filter>
    <linearGradient
       x1="36.357143"
       y1="6"
       x2="36.357143"
       y2="63.893143"
       id="linearGradient3188"
       xlink:href="#linearGradient3737"
       gradientUnits="userSpaceOnUse" />
    <filter
       x="-0.192"
       y="-0.192"
       width="1.3839999"
       height="1.3839999"
       id="filter3794"
       style="color-interpolation-filters:sRGB">
      <feGaussianBlur
         id="feGaussianBlur3796"
         stdDeviation="5.28" />
    </filter>
    <linearGradient
       x1="48"
       y1="20.220806"
       x2="48"
       y2="138.66119"
       id="linearGradient3613"
       xlink:href="#linearGradient3737"
       gradientUnits="userSpaceOnUse" />
    <radialGradient
       cx="48"
       cy="90.171875"
       r="42"
       fx="48"
       fy="90.171875"
       id="radialGradient3619"
       xlink:href="#linearGradient3737"
       gradientUnits="userSpaceOnUse"
       gradientTransform="matrix(1.1573129,0,0,0.99590774,-7.5510206,0.19713193)" />
    <clipPath
       id="clipPath3613">
      <rect
         width="84"
         height="84"
         rx="6"
         ry="6"
         x="6"
         y="6"
         id="rect3615"
         style="fill:#ffffff;fill-opacity:1;fill-rule:nonzero;stroke:none" />
    </clipPath>
    <linearGradient
       x1="48"
       y1="90"
       x2="48"
       y2="5.9877172"
       id="linearGradient3617"
       xlink:href="#linearGradient4411"
       gradientUnits="userSpaceOnUse" />
    <linearGradient
       x1="45.447727"
       y1="92.539597"
       x2="45.447727"
       y2="7.0165396"
       id="ButtonShadow-0"
       gradientUnits="userSpaceOnUse"
       gradientTransform="matrix(1.0058652,0,0,0.994169,100,0)">
      <stop
         id="stop3750-8"
         style="stop-color:#000000;stop-opacity:1"
         offset="0" />
      <stop
         id="stop3752-5"
         style="stop-color:#000000;stop-opacity:0.58823532"
         offset="1" />
    </linearGradient>
    <linearGradient
       x1="32.251034"
       y1="6.1317081"
       x2="32.251034"
       y2="90.238609"
       id="linearGradient3780"
       xlink:href="#ButtonShadow-0"
       gradientUnits="userSpaceOnUse"
       gradientTransform="matrix(1.0238095,0,0,1.0119048,-1.1428571,-98.071429)" />
    <linearGradient
       x1="32.251034"
       y1="6.1317081"
       x2="32.251034"
       y2="90.238609"
       id="linearGradient3772"
       xlink:href="#ButtonShadow-0"
       gradientUnits="userSpaceOnUse"
       gradientTransform="matrix(1.0238095,0,0,1.0119048,-1.1428571,-98.071429)" />
    <linearGradient
       x1="32.251034"
       y1="6.1317081"
       x2="32.251034"
       y2="90.238609"
       id="linearGradient3725"
       xlink:href="#ButtonShadow-0"
       gradientUnits="userSpaceOnUse"
       gradientTransform="matrix(1.0238095,0,0,1.0119048,-1.1428571,-98.071429)" />
    <linearGradient
       x1="32.251034"
       y1="6.1317081"
       x2="32.251034"
       y2="90.238609"
       id="linearGradient3721"
       xlink:href="#ButtonShadow-0"
       gradientUnits="userSpaceOnUse"
       gradientTransform="translate(0,-97)" />
    <linearGradient
       x1="32.251034"
       y1="6.1317081"
       x2="32.251034"
       y2="90.238609"
       id="linearGradient3026"
       xlink:href="#ButtonShadow-0"
       gradientUnits="userSpaceOnUse"
       gradientTransform="matrix(1.0238095,0,0,1.0119048,-1.1428571,-98.071429)" />
    <radialGradient
       cx="-495.98746"
       cy="-87.834587"
       r="88.03125"
       fx="-495.98746"
       fy="-87.834587"
       id="radialGradient4289"
       xlink:href="#linearGradient4072"
       gradientUnits="userSpaceOnUse"
       gradientTransform="matrix(1,0,0,1.020044,1.2060786,30.129498)" />
    <radialGradient
       cx="-174.5798"
       cy="109.85793"
       r="8.8871508"
       fx="-174.5798"
       fy="109.85793"
       id="radialGradient4291"
       xlink:href="#linearGradient4015"
       gradientUnits="userSpaceOnUse"
       gradientTransform="matrix(1.4045539,-0.00938817,0.00459488,0.78380632,70.122153,22.111605)" />
    <radialGradient
       cx="-174.5798"
       cy="109.85793"
       r="8.8871508"
       fx="-174.5798"
       fy="109.85793"
       id="radialGradient4293"
       xlink:href="#linearGradient4015"
       gradientUnits="userSpaceOnUse"
       gradientTransform="matrix(1.5221657,0.05440008,-0.01699086,0.54206939,93.026167,59.804466)" />
    <radialGradient
       cx="-174.5798"
       cy="109.85793"
       r="8.8871508"
       fx="-174.5798"
       fy="109.85793"
       id="radialGradient4295"
       xlink:href="#linearGradient4015"
       gradientUnits="userSpaceOnUse"
       gradientTransform="matrix(1.3664816,-0.03305183,0.01875702,0.76369477,61.919675,20.189822)" />
    <radialGradient
       cx="-174.5798"
       cy="109.85793"
       r="8.8871508"
       fx="-174.5798"
       fy="109.85793"
       id="radialGradient4297"
       xlink:href="#linearGradient4015"
       gradientUnits="userSpaceOnUse"
       gradientTransform="matrix(1.3664816,-0.03305183,0.01875702,0.76369477,61.919675,20.189822)" />
    <radialGradient
       cx="-174.5798"
       cy="109.85793"
       r="8.8871508"
       fx="-174.5798"
       fy="109.85793"
       id="radialGradient4299"
       xlink:href="#linearGradient4015"
       gradientUnits="userSpaceOnUse"
       gradientTransform="matrix(1.0744883,0.00593562,0.00544351,0.60648574,12.406137,44.266902)" />
    <linearGradient
       x1="-516.70276"
       y1="20.883038"
       x2="-518.81342"
       y2="29.600176"
       id="linearGradient4301"
       xlink:href="#linearGradient4096"
       gradientUnits="userSpaceOnUse"
       gradientTransform="translate(1.2060786,10.653694)" />
    <linearGradient
       x1="-130.89725"
       y1="16.472939"
       x2="-128.05614"
       y2="38.053318"
       id="linearGradient4303"
       xlink:href="#linearGradient4096"
       gradientUnits="userSpaceOnUse"
       gradientTransform="translate(-248.79392,10.653694)" />
    <radialGradient
       cx="-500.14664"
       cy="-15.092947"
       r="26.649689"
       fx="-500.14664"
       fy="-15.092947"
       id="radialGradient4305"
       xlink:href="#linearGradient4137"
       gradientUnits="userSpaceOnUse"
       gradientTransform="matrix(1,0,0,0.33422727,1.2060786,0.60522158)" />
    <radialGradient
       cx="-400.11536"
       cy="-16.508318"
       r="15.88463"
       fx="-400.11536"
       fy="-16.508318"
       id="radialGradient4307"
       xlink:href="#linearGradient4137"
       gradientUnits="userSpaceOnUse"
       gradientTransform="matrix(1,0,0,0.5352161,1.2060786,2.9808942)" />
    <clipPath
       id="clipPath4401">
      <rect
         width="84"
         height="84"
         rx="6"
         ry="6"
         x="-87.640152"
         y="7.9819665"
         transform="matrix(0,-1,1,0,0,0)"
         id="rect4403"
         style="fill:#ff00ff;fill-opacity:1;fill-rule:nonzero;stroke:none" />
    </clipPath>
    <radialGradient
       inkscape:collect="always"
       xlink:href="#linearGradient4137"
       id="radialGradient3081"
       gradientUnits="userSpaceOnUse"
       gradientTransform="matrix(0.47177088,0,0,0.25249938,283.83756,54.642192)"
       cx="-400.11536"
       cy="-16.508318"
       fx="-400.11536"
       fy="-16.508318"
       r="15.88463" />
    <radialGradient
       inkscape:collect="always"
       xlink:href="#linearGradient4137"
       id="radialGradient3084"
       gradientUnits="userSpaceOnUse"
       gradientTransform="matrix(0.47177088,0,0,0.15767869,283.83756,53.521418)"
       cx="-500.14664"
       cy="-15.092947"
       fx="-500.14664"
       fy="-15.092947"
       r="26.649689" />
    <radialGradient
       inkscape:collect="always"
       xlink:href="#linearGradient4072"
       id="radialGradient3102"
       gradientUnits="userSpaceOnUse"
       gradientTransform="matrix(0.33727458,0,0,0.34403491,196.87177,37.820509)"
       cx="-495.98746"
       cy="-87.834587"
       fx="-495.98746"
       fy="-87.834587"
       r="88.03125" />
  </defs>
  <metadata
     id="metadata2413">
    <rdf:RDF>
      <cc:Work
         rdf:about="">
        <dc:format>image/svg+xml</dc:format>
        <dc:type
           rdf:resource="http://purl.org/dc/dcmitype/StillImage" />
        <dc:title />
      </cc:Work>
    </rdf:RDF>
  </metadata>
  <g
     id="layer2"
     style="display:none"
     transform="translate(0,32)">
    <rect
       width="86"
       height="85"
       rx="6"
       ry="6"
       x="5"
       y="7"
       id="rect3745"
       style="opacity:0.9;fill:url(#ButtonShadow);fill-opacity:1;fill-rule:nonzero;stroke:none;filter:url(#filter3174)" />
  </g>
  <g
     id="g4221">
    <path
       style="fill:#00bbf2;fill-opacity:1;stroke:none"
       id="path4199"
       inkscape:connector-curvature="0"
       d="M 57.303852,13.941286 C 51.203879,16.19826 44.374183,19.201522 41.17978,25.876634 38.508765,31.458061 32.921421,35.79287 28.277653,39.584589 22.516445,42.767155 15.834692,50.640376 11.943521,55.624832 c -3.7704257,5.663467 -4.0958533,7.69289 -5.6930433,14.544681 -1.5658644,6.595576 2.432479,13.679539 5.4682393,18.970273 3.698231,4.078304 10.585637,6.318961 13.297731,9.822417 -3.371336,0.02554 -5.745071,4.309167 -1.067958,4.552317 4.465128,0.59585 12.052331,1.99007 14.568177,-1.81115 -3.85368,-4.473023 2.739016,1.43876 5.159809,0.85778 5.914955,2.31154 11.874535,-0.4945 17.90445,0.0627 2.477643,-0.18402 8.200813,1.20899 2.658453,0.62676 -2.889828,-1.37111 -8.530975,1.76701 -3.572395,3.61431 6.387532,-1.00191 11.448313,2.06178 16.81372,4.46412 8.108946,1.44118 13.618752,0.29223 21.297862,-0.0842 3.837404,-1.9559 9.905474,-1.07477 12.685274,-4.62196 -5.91799,-2.91354 -11.45645,-6.27584 -18.000075,-7.940117 -5.158631,-1.515507 -13.17267,6.244267 -14.164728,6.228677 5.25632,-4.08983 10.817206,-10.028102 18.199878,-7.083978 6.362905,1.671331 11.684735,5.161768 18.776085,5.012168 6.70059,-0.14136 7.02184,-7.473995 0.39865,-7.180866 -2.7766,-0.687675 -9.85707,1.290131 -9.87513,1.020657 6.36081,-1.902155 8.28736,-8.798102 9.93615,-13.910389 -0.0937,-6.514236 -0.243,-13.23642 -3.03056,-19.180069 -4.1828,-4.68797 -7.05408,-11.087494 -11.46213,-15.625231 C 99.777978,42.863192 97.842053,37.482971 94.803245,32.570401 92.103106,28.473966 89.830138,22.227584 85.187979,20.286191 80.952075,17.222787 76.512518,13.935068 71.373211,13.101789 66.649756,12.558122 61.761407,12.292002 57.303852,13.941286 Z" />
    <path
       style="fill:#394050;stroke:none;fill-opacity:1"
       id="path4219"
       inkscape:connector-curvature="0"
       d="M 64.84368,67.878526 C 56.002708,68.880552 46.128019,66.463312 37.504062,64.8572 31.896414,63.81284 25.129668,62.570228 23.81973,68.844728 c -0.976599,4.677831 1.51738,8.21885 5.778901,9.339551 6.622667,1.741639 15.899975,-1.7117 24.079016,-3.296198 4.54371,-0.880235 10.459599,-2.078022 15.547166,-2.4591 6.667076,-0.499388 13.17491,-1.367853 20.041894,-0.928045 7.516792,0.481426 15.018893,2.232018 22.712283,5.034074 4.27463,1.556885 2.95372,-9.105538 -0.0807,-11.76864 -2.83912,-2.491706 -6.76682,-2.506001 -10.51414,-1.000775 -11.455898,4.601618 -24.24747,2.719657 -36.54046,4.112931 z" />
    <path
       style="fill:#394050;stroke:none;fill-opacity:1"
       id="path4225"
       inkscape:connector-curvature="0"
       d="m 40.885843,66.490432 c -1.929854,-0.148824 -3.93556,-0.139066 -5.866918,-0.11677 -1.427217,0.202207 -2.70337,0.357006 -2.532132,1.824558 0.121651,1.600319 1.406585,3.518564 2.547544,4.540147 1.172125,1.015411 2.31195,1.774979 3.852486,2.088448 1.3027,0.20596 2.885393,-0.628063 4.052045,-1.113995 1.52181,-0.716429 3.606664,-1.979129 4.618967,-3.355019 0.568753,-0.806884 0.446111,-1.261936 -0.10916,-2.168702 -0.53773,-0.729478 -1.949796,-0.438081 -2.730809,-0.825315 -1.305728,-0.558091 -2.416,-0.762902 -3.832025,-0.873352 z" />
    <path
       style="fill:#e6e6e6;fill-opacity:1;stroke:none"
       id="path4227"
       inkscape:connector-curvature="0"
       d="m 35.134371,66.935808 c -2.929484,0.945411 2.395964,5.494689 4.542871,6.355783 1.637459,-0.371729 5.767767,-2.906459 5.900858,-4.778275 -3.713497,-2.139009 -6.094949,-1.610341 -10.443729,-1.577508 z" />
    <path
       style="fill:#394050;stroke:none;fill-opacity:1"
       id="path4229"
       inkscape:connector-curvature="0"
       d="m 107.37044,64.355817 c 0,0 -1.07887,-0.0396 -2.74757,0.290183 -1.6687,0.329779 -3.33612,0.440345 -4.870527,1.59115 -0.476669,0.35481 -1.482484,0.53869 -1.36497,1.121178 0.414988,2.037213 1.967177,3.254574 3.213937,3.951081 1.24676,0.696506 2.40308,0.973027 2.40308,0.973027 0.30018,0.07534 0.62256,0.05974 0.91406,-0.04423 0,0 1.30922,-0.457404 2.43257,-1.636455 1.12335,-1.17905 2.08554,-3.28671 1.53325,-5.956108 -0.15387,-0.743329 -0.75699,-0.348096 -1.51383,-0.289827 z" />
    <path
       style="fill:#e6e6e6;fill-opacity:1;stroke:none"
       id="path4231"
       inkscape:connector-curvature="0"
       d="m 99.933168,67.047463 c 2.230832,-1.673126 7.402312,-2.078731 7.402312,-2.078731 0.91261,4.410965 -2.94065,5.779885 -2.94065,5.779885 0,0 -3.90395,-0.963315 -4.461662,-3.701154 z" />
    <path
       inkscape:connector-curvature="0"
       style="fill:#394050;fill-opacity:1"
       id="path4233"
       d="m 97.945088,44.875496 c -1.678646,-0.01606 -3.444197,0.525153 -5.115765,1.592227 -1.308132,0.835068 -2.847143,2.209092 -4.157482,3.538281 -0.653997,0.663408 -1.250522,1.302126 -1.710169,1.887085 -0.229936,0.292621 -0.423075,0.569663 -0.589713,0.855084 -0.138227,0.236747 -0.383315,0.588539 -0.383315,1.253141 0,0.220112 0.0094,0.455162 0.07372,0.7224 0.03207,0.133135 0.08268,0.298313 0.2064,0.515999 0.05187,0.09126 0.154486,0.276749 0.368571,0.457028 0.237645,0.20012 0.630833,0.39592 1.105713,0.383313 0.290233,-0.0084 0.355809,-0.03255 0.235885,-0.01474 0.02302,-0.0034 0.05301,-0.0067 0.103201,-0.01474 0.08896,-0.01424 0.208495,-0.03475 0.353829,-0.05897 0.294767,-0.04913 0.70642,-0.12077 1.208912,-0.206399 1.006703,-0.171549 2.369781,-0.405524 3.862625,-0.663429 1.477213,-0.255203 2.960597,-0.495106 4.142737,-0.663427 0.588992,-0.08387 1.140941,-0.146827 1.547998,-0.191657 0.203532,-0.02241 0.365364,-0.0475 0.486515,-0.05897 0.121148,-0.01147 0.251746,-0.0149 0.191657,-0.01474 1.252187,-0.0032 2.436467,-0.341579 3.287657,-1.179426 0.86986,-0.85623 1.17178,-2.173046 0.86982,-3.37611 -0.73516,-2.929122 -3.27436,-4.735008 -6.088789,-4.761939 z" />
    <path
       style="fill:#57250f;fill-opacity:1"
       id="path4235"
       inkscape:connector-curvature="0"
       d="m 98.19497,46.835044 c -2.721848,-0.03347 -5.689104,0.200233 -7.630313,1.993566 -1.529146,1.371088 -2.616743,2.371407 -3.756117,4.091506 -0.498803,0.844514 -0.547415,1.359453 -0.398524,2.384939 0.64945,0.237732 3.620096,-0.398705 4.242805,-0.619922 4.713275,-1.674392 4.930718,-1.01021 8.534161,-1.338184 1.480698,0.0155 2.549728,-0.28118 3.056268,-1.781593 0.55945,-1.646754 -1.71658,-1.769313 -2.836955,-2.976903 -1.104001,-1.146786 0.377105,-1.750017 -1.211325,-1.753409 z" />
    <path
       inkscape:connector-curvature="0"
       style="fill:#394050;fill-opacity:1"
       id="path4237"
       d="m 46.065034,44.787039 c -3.459888,0 -4.854132,0.404037 -7.68102,2.240913 -1.571875,1.021383 -2.858228,2.05259 -3.788909,3.081253 -0.462105,0.510752 -0.869249,1.051473 -1.149942,1.695427 -0.297673,0.682915 -0.51857,1.780298 0.103201,2.786397 0.221063,0.357693 0.464241,0.607693 0.751885,0.766627 0.287644,0.158933 0.56177,0.223026 0.368571,0.147428 0.161076,0.06303 0.32136,0.100572 0.457027,0.132688 0.251875,0.05963 0.484982,0.09474 0.751886,0.132687 0.550858,0.07832 1.271568,0.163102 2.122968,0.235885 1.700857,0.145403 3.96398,0.282129 6.427879,0.383315 4.842577,0.198866 10.235702,0.539738 11.263529,0.67817 1.933398,0.260397 2.955065,0.421312 3.833139,0.427542 0.423579,0.0031 0.965224,-0.03002 1.533256,-0.294856 0.654337,-0.305069 1.011957,-0.748422 1.223654,-1.09097 0.566645,-0.916839 0.213765,-1.937206 0.117945,-2.152455 C 62.256916,53.635445 62.070699,53.404775 61.972561,53.27892 61.720484,52.955647 61.434374,52.651016 61.102733,52.335377 60.442698,51.707192 59.578687,50.989808 58.611194,50.227152 56.67463,48.700595 54.387513,47.068151 52.6256,46.113899 50.801871,45.12617 49.011141,44.787043 46.065037,44.787043 Z" />
    <path
       style="fill:#57250f;fill-opacity:1"
       id="path4239"
       inkscape:connector-curvature="0"
       d="m 38.788854,47.089294 c -2.048419,1.284203 -3.89676,2.59276 -5.108524,4.749744 -0.994077,1.707859 0.720871,3.003529 2.094748,2.965879 2.167581,0.358884 5.078713,-0.894842 7.268273,-0.746548 5.481812,0.294187 10.183763,1.682883 15.623522,2.483735 1.037288,0.102111 2.38893,0.09012 2.882577,-1.029689 0.608788,-1.330821 -0.930898,-2.251419 -1.701409,-3.090377 -2.2461,-1.888889 -4.298289,-3.565202 -6.799288,-5.103832 -3.454835,-1.242823 -8.73464,-1.226908 -14.259899,-0.228912 z" />
    <path
       style="fill:url(#radialGradient3084);fill-opacity:1"
       id="path4241"
       inkscape:connector-curvature="0"
       d="m 60.443879,54.976045 c 0.313233,-0.506819 -5.792918,-5.322221 -8.8447,-6.975067 -1.54245,-0.835388 -2.722523,-1.061483 -5.540302,-1.061483 -3.381936,0 -3.742284,0.105188 -6.500922,1.897716 -2.917795,1.895943 -4.655454,3.820897 -4.165204,4.614136 0.142875,0.231182 4.247891,0.58411 9.122255,0.784287 4.874361,0.200171 10.030109,0.521212 11.457216,0.713421 3.865752,0.520651 4.165444,0.522458 4.471657,0.02698 z" />
    <path
       style="fill:url(#radialGradient3081);fill-opacity:1"
       id="path4243"
       inkscape:connector-curvature="0"
       d="m 93.242122,53.544287 c 2.983951,-0.51551 5.968605,-0.938692 6.632565,-0.940414 1.934133,-0.005 2.998163,-1.047809 2.617343,-2.565094 -0.9216,-3.671963 -4.948759,-4.69303 -8.803717,-2.232146 -2.197871,1.403051 -6.107442,5.371158 -6.107442,6.198884 0,0.265274 0.05307,0.480906 0.117945,0.479184 0.06488,-0.0018 2.559358,-0.424906 5.543309,-0.940414 z" />
    <path
       style="fill:#394050;stroke:none;fill-opacity:1"
       id="path4245"
       inkscape:connector-curvature="0"
       d="m 40.004882,46.310858 c -3.764641,1.221183 -7.160783,3.565932 -9.820958,6.454981 -1.669611,2.226119 3.277416,5.250893 3.261163,2.815578 -2.442792,-2.156729 0.805827,-4.931337 2.578671,-6.256718 1.284939,-1.06545 2.88521,-1.729425 3.981124,-3.013841 z" />
    <path
       style="fill:#394050;stroke:none;fill-opacity:1"
       id="path4247"
       inkscape:connector-curvature="0"
       d="m 58.307851,50.164115 c 2.518587,1.071104 4.478266,3.551485 5.019077,6.225938 0.637376,1.415007 -2.418426,3.556956 -1.039859,1.173241 0.378742,-3.093227 -2.848393,-4.86305 -3.979218,-7.399179 z" />
    <path
       style="fill:#394050;stroke:none;fill-opacity:1"
       id="path4253"
       inkscape:connector-curvature="0"
       d="m 90.59862,47.205833 c 1.420964,-4.22293 7.053682,-5.31699 7.96453,-9.840046 1.310636,-0.71436 0.5784,4.147664 -0.859132,4.595297 -1.784917,2.368778 -4.262069,4.331651 -7.105398,5.244749 z" />
    <path
       style="fill:#394050;stroke:none;fill-opacity:1"
       id="path4255"
       inkscape:connector-curvature="0"
       d="m 99.882467,54.321576 c 1.951283,-0.654447 7.441053,1.647741 6.880343,-2.604558 -2.36675,-0.09791 -4.73669,1.516112 -6.880343,2.604558 z" />
  </g>
</svg>
