<?xml version="1.0" encoding="UTF-8" standalone="no"?>
<!-- Created with Inkscape (http://www.inkscape.org/) -->

<svg
   xmlns:dc="http://purl.org/dc/elements/1.1/"
   xmlns:cc="http://creativecommons.org/ns#"
   xmlns:rdf="http://www.w3.org/1999/02/22-rdf-syntax-ns#"
   xmlns:svg="http://www.w3.org/2000/svg"
   xmlns="http://www.w3.org/2000/svg"
   xmlns:sodipodi="http://sodipodi.sourceforge.net/DTD/sodipodi-0.dtd"
   xmlns:inkscape="http://www.inkscape.org/namespaces/inkscape"
   id="svg2"
   version="1.1"
   inkscape:version="0.91 r13725"
   width="500"
   height="500"
   sodipodi:docname="xfce4-fsguard-plugin.svg">
  <metadata
     id="metadata8">
    <rdf:RDF>
      <cc:Work
         rdf:about="">
        <dc:format>image/svg+xml</dc:format>
        <dc:type
           rdf:resource="http://purl.org/dc/dcmitype/StillImage" />
        <dc:title />
      </cc:Work>
    </rdf:RDF>
  </metadata>
  <defs
     id="defs6" />
  <sodipodi:namedview
     pagecolor="#ffffff"
     bordercolor="#666666"
     borderopacity="1"
     objecttolerance="10"
     gridtolerance="10"
     guidetolerance="10"
     inkscape:pageopacity="0"
     inkscape:pageshadow="2"
     inkscape:window-width="1366"
     inkscape:window-height="715"
     id="namedview4"
     showgrid="false"
     inkscape:zoom="0.546"
     inkscape:cx="538.38388"
     inkscape:cy="162.22796"
     inkscape:window-x="0"
     inkscape:window-y="24"
     inkscape:window-maximized="1"
     inkscape:current-layer="svg2" />
  <g
     id="g4148">
    <g
       transform="matrix(0.46702559,0,0,0.4763699,5.63116,-2.8228282)"
       id="Calque.__202">
      <g
         id="shape">
        <path
           style="fill:#000000;fill-opacity:0.09803922"
           inkscape:connector-curvature="0"
           d="M 919.15,109.8 Q 918.7,89.9 904.5,75.7 C 894.75,65.95 882.95,61.05 869.15,61.05 l -674.2,0 c -13.8,0 -25.6,4.9 -35.35,14.65 -9.45,9.45 -14.35,20.85 -14.65,34.1 l 0,843.25 c 0,13.8 4.9,25.6 14.65,35.35 9.75,9.75 21.55,14.65 35.35,14.65 l 674.2,0 c 13.8,0 25.6,-4.9 35.35,-14.65 9.75,-9.75 14.65,-21.55 14.65,-35.35 l 0,-843.25 z"
           id="path" />
      </g>
    </g>
    <path
       style="fill:#ebebeb;fill-opacity:1"
       inkscape:connector-curvature="0"
       d="m 431.82676,31.978822 c -4.64461,-4.64461 -10.26577,-6.97882 -16.83968,-6.97882 l -321.168584,0 c -6.573906,0 -12.195066,2.33421 -16.839676,6.97882 -4.5017,4.50169 -6.83591,9.93231 -6.97882,16.24421 l 0,-0.0119 0,345.165718 q 0.21818,9.45976 6.97882,16.2204 c 4.64461,4.6446 10.26577,6.97882 16.839676,6.97882 l 321.168584,0 c 6.57391,0 12.19507,-2.33422 16.83968,-6.97882 4.50169,-4.5017 6.8359,-9.9085 6.97882,-16.2204 l 0,-345.165718 0,0.0119 c -0.14292,-6.3119 -2.47713,-11.74252 -6.97882,-16.24421 z"
       id="path1" />
    <path
       style="fill:#5d6a7b;fill-opacity:0.98823529"
       inkscape:connector-curvature="0"
       d="M 76.97882,409.59724 Q 70.21818,402.8366 70,393.37684 l 0,56.54511 c 0,6.5739 2.33421,12.19507 6.97882,16.83968 4.64461,4.6446 10.26577,6.9788 16.839676,6.9788 l 321.168584,0 c 6.57391,0 12.19507,-2.3342 16.83968,-6.9788 4.6446,-4.64461 6.97882,-10.26578 6.97882,-16.83968 l 0,-56.54511 c -0.14292,6.3119 -2.47713,11.7187 -6.97882,16.2204 -4.64461,4.6446 -10.26577,6.97882 -16.83968,6.97882 l -321.168584,0 c -6.573906,0 -12.195066,-2.33422 -16.839676,-6.97882 z"
       id="path2" />
    <g
       style="fill:#394050"
       id="Calque.__204"
       transform="matrix(0.4763699,0,0,0.4763699,4.2767,-2.8228282)">
      <g
         style="fill:#394050;overflow:visible"
         overflow="visible"
         id="Symbole.__2026_1">
        <g
           style="fill:#394050"
           id="Calque.__208">
          <g
             style="fill:#394050"
             id="shape17">
            <path
               style="fill:#394050;fill-opacity:1"
               d="m 518,918 q 0,-8.3 -5.85,-14.15 C 508.25,899.95 503.55,898 498,898 l -302,0 c -5.55,0 -10.25,1.95 -14.15,5.85 -3.9,3.9 -5.85,8.6 -5.85,14.15 l 0,8.2 c 0,5.55 1.95,10.25 5.85,14.15 3.9,3.9 8.6,5.85 14.15,5.85 l 302,0 c 5.55,0 10.25,-1.95 14.15,-5.85 3.9,-3.9 5.85,-8.6 5.85,-14.15 l 0,-8.2 z"
               id="path11"
               inkscape:connector-curvature="0" />
          </g>
        </g>
      </g>
    </g>
    <path
       style="fill:#ffffff;fill-opacity:0.09803922"
       inkscape:connector-curvature="0"
       d="m 339.35528,303.00665 q 37.75232,-37.75232 37.75232,-91.15338 c 0,-35.60865 -12.57617,-65.97723 -37.75232,-91.15338 -25.17614,-25.176148 -55.54472,-37.752318 -91.15338,-37.752318 -35.60865,0 -65.97723,12.57617 -91.15337,37.752318 -25.17615,25.17615 -37.75232,55.54473 -37.75232,91.15338 0,35.60865 12.57617,65.97723 37.75232,91.15338 25.17614,25.17615 55.54472,37.75231 91.15337,37.75231 35.60866,0 65.97724,-12.57616 91.15338,-37.75231 z"
       id="path6" />
    <path
       style="fill:#ffcc00;fill-opacity:1"
       inkscape:connector-curvature="0"
       d="m 399.21116,445.20306 c 2.9535,0 5.47826,-1.04801 7.55047,-3.14404 2.09602,-2.07221 3.14404,-4.59697 3.14404,-7.55046 0,-2.95349 -1.04802,-5.47826 -3.14404,-7.57428 -2.07221,-2.07221 -4.59697,-3.12023 -7.55047,-3.12023 -2.95349,0 -5.47825,1.04802 -7.57428,3.12023 -2.07221,2.09602 -3.12022,4.62079 -3.12022,7.57428 0,2.95349 1.04801,5.47825 3.12022,7.55046 2.09603,2.09603 4.62079,3.14404 7.57428,3.14404 z m -23.34212,-10.6945 c 0,-2.95349 -1.04802,-5.47826 -3.14404,-7.57428 -2.07221,-2.07221 -4.59697,-3.12023 -7.55047,-3.12023 -2.95349,0 -5.47825,1.04802 -7.57428,3.12023 -2.07221,2.09602 -3.12022,4.62079 -3.12022,7.57428 0,2.95349 1.04801,5.47825 3.12022,7.55046 2.09603,2.09603 4.62079,3.14404 7.57428,3.14404 2.9535,0 5.47826,-1.04801 7.55047,-3.14404 2.09602,-2.07221 3.14404,-4.59697 3.14404,-7.55046 z"
       id="path7" />
    <path
       style="fill:#5d6a7b;fill-opacity:0.98823529"
       d="m 232.42199,326.94933 c -2.03659,-0.90905 -4.20281,-3.23529 -5.16943,-5.5513 -0.49818,-1.19362 -0.99535,-5.78186 -1.42102,-13.11414 -0.36009,-6.203 -0.83428,-11.77282 -1.05373,-12.37739 -0.29108,-0.80192 -1.71414,-1.55847 -5.26151,-2.7972 -2.67438,-0.93389 -6.70179,-2.62275 -8.94978,-3.75302 -2.248,-1.13027 -4.57702,-2.05504 -5.17561,-2.05504 -0.67138,0 -4.34364,2.98624 -9.58498,7.79438 -4.67314,4.28691 -9.25208,8.18181 -10.17541,8.65534 -1.9006,0.97472 -6.17676,1.13335 -8.38496,0.31106 -1.75579,-0.65381 -20.32961,-18.95734 -21.5205,-21.20731 -1.18117,-2.23161 -1.05485,-6.40606 0.27039,-8.93505 0.60326,-1.15121 4.53188,-5.81676 8.73028,-10.36788 4.5194,-4.89909 7.63344,-8.70225 7.63344,-9.32268 0,-0.57636 -0.92476,-2.8872 -2.05503,-5.1352 -1.13027,-2.24799 -2.81548,-6.26495 -3.74491,-8.92656 -0.92943,-2.66162 -2.07014,-5.03641 -2.53492,-5.27732 -0.46477,-0.2409 -5.92022,-0.71779 -12.12321,-1.05975 -7.21408,-0.39769 -12.06952,-0.90507 -13.47423,-1.40802 -2.67694,-0.95848 -5.76103,-4.24081 -6.19676,-6.59508 -0.17673,-0.95487 -0.24908,-8.02919 -0.16078,-15.72069 l 0.16054,-13.98455 1.6074,-2.01471 c 2.84059,-3.56041 4.17585,-3.91805 17.74346,-4.75257 7.67927,-0.47234 12.3475,-0.97249 12.73526,-1.36446 0.33669,-0.34033 1.48744,-2.97932 2.55721,-5.86444 1.06978,-2.88511 2.74176,-6.83314 3.71552,-8.77339 0.97375,-1.94025 1.77045,-3.95417 1.77045,-4.47538 0,-0.52122 -3.212,-4.47089 -7.13778,-8.77704 -3.92578,-4.30615 -7.68089,-8.54768 -8.3447,-9.42562 -1.867,-2.46923 -2.49835,-5.52691 -1.7597,-8.52242 0.55773,-2.2618 1.57933,-3.48794 10.11157,-12.13586 5.22014,-5.29093 10.36696,-10.07104 11.43738,-10.62247 2.484,-1.27963 6.43372,-1.29735 8.9001,-0.0399 1.03853,0.52947 5.59477,4.36536 10.12498,8.52419 4.5302,4.15884 8.54368,7.73582 8.91885,7.94887 0.39537,0.22452 2.83564,-0.63277 5.805,-2.03937 2.81758,-1.3347 7.03339,-3.07063 9.36847,-3.85762 3.16614,-1.06709 4.39462,-1.74892 4.83176,-2.68172 0.32239,-0.68795 0.87529,-6.32601 1.22867,-12.529 0.67961,-11.92944 1.08797,-13.81519 3.54787,-16.383375 2.73628,-2.85675 4.30995,-3.09111 19.60423,-2.91955 l 13.93044,0.15626 2.1793,1.44314 c 3.74949,2.48293 4.20335,4.026645 5.08639,17.299935 0.42744,6.42497 0.89387,12.18218 1.03652,12.79379 0.20076,0.86076 1.34897,1.4925 5.08172,2.79598 2.6523,0.92617 6.89977,2.72729 9.43884,4.00249 2.53907,1.2752 4.81994,2.31854 5.06859,2.31854 0.24865,0 4.32531,-3.55514 9.05925,-7.9003 4.73393,-4.34516 9.48294,-8.35809 10.55337,-8.91762 2.53034,-1.32265 6.29662,-1.3106 9.06386,0.029 1.3139,0.63605 5.77752,4.69841 11.38352,10.36018 9.623,9.71875 10.38137,10.83066 10.38884,15.23207 0.005,3.11303 -1.38057,5.15517 -9.65358,14.225 -4.4983,4.93156 -8.17873,9.17558 -8.17873,9.43115 0,0.25557 1.17409,2.91202 2.6091,5.90323 1.435,2.99121 3.1464,7.18033 3.8031,9.30916 0.81583,2.64466 1.5263,4.01174 2.24314,4.31622 0.57702,0.24509 6.37685,0.77836 12.8885,1.18505 12.92249,0.80707 15.00402,1.33877 17.17065,4.38611 2.0482,2.88077 2.28642,5.0398 2.10904,19.11477 l -0.16967,13.46381 -1.58096,2.24801 c -2.82301,4.01413 -3.53598,4.21979 -17.87218,5.15529 -7.00499,0.45711 -12.85921,0.95397 -13.00939,1.10416 -0.15018,0.15018 -1.01981,2.38908 -1.93252,4.97533 -0.9127,2.58625 -2.70748,6.78925 -3.98839,9.34001 -1.28093,2.55075 -2.25676,4.95238 -2.16854,5.33695 0.0882,0.38458 3.58319,4.43082 7.76661,8.99166 4.18341,4.56084 8.13733,9.33988 8.78648,10.62007 1.37887,2.71929 1.50676,5.59865 0.36956,8.32035 -1.00356,2.40187 -18.03798,19.71657 -20.80674,21.14909 -2.31508,1.1978 -6.53218,1.32649 -8.95537,0.2733 -0.92839,-0.4035 -5.58289,-4.29732 -10.34333,-8.65292 -4.76044,-4.35561 -9.03395,-7.92037 -9.49671,-7.9217 -0.46275,-10e-4 -3.14432,1.07377 -5.95903,2.3891 -2.81473,1.31533 -6.9855,3.00688 -9.26839,3.75901 -3.15533,1.03956 -4.21178,1.62968 -4.40535,2.46074 -0.14006,0.60127 -0.60437,6.35001 -1.03181,12.77498 -0.94013,14.13147 -1.48025,15.6634 -6.40114,18.15524 -1.4269,0.72256 -3.78816,0.84703 -15.73698,0.82958 -10.57516,-0.0154 -14.44809,-0.19457 -15.63189,-0.72297 z m 20.72036,-62.74489 c 12.68165,-1.32909 23.2771,-6.38683 32.29764,-15.4173 6.87519,-6.88275 11.3114,-14.60559 13.9826,-24.3418 1.67461,-6.10371 1.66474,-19.58163 -0.0189,-25.75984 -5.10925,-18.74909 -18.5308,-32.5534 -37.08147,-38.13895 -4.32248,-1.30148 -5.49617,-1.42489 -13.901,-1.4616 -8.05031,-0.0351 -9.72857,0.10967 -13.63871,1.17712 -19.5236,5.32983 -34.45548,21.01735 -38.53564,40.48578 -3.66578,17.49125 1.6942,35.34442 14.46418,48.17772 6.68626,6.71942 15.36175,11.64972 24.7606,14.07151 2.68011,0.69058 6.48349,1.22283 11.90044,1.66536 0.43277,0.0354 3.02937,-0.17074 5.77023,-0.458 z M 240.134,242.21225 c -13.37577,-3.6276 -22.7368,-15.01114 -23.56563,-28.65714 -0.57952,-9.54113 2.49091,-17.61364 9.26632,-24.36228 12.33908,-12.29032 32.04205,-12.40551 44.2248,-0.25855 10.03438,10.0049 12.44205,24.23432 6.21393,36.72455 -5.30475,10.63843 -15.07727,16.91649 -27.0635,17.38611 -4.08058,0.15989 -6.09882,-0.0253 -9.07592,-0.83269 z m 14.9645,-13.22785 c 3.69441,-1.38226 8.10105,-5.47816 9.95437,-9.25243 1.30781,-2.66333 1.46571,-3.54992 1.46581,-8.23052 10e-5,-4.97918 -0.0912,-5.4141 -1.79766,-8.56141 -3.44459,-6.35315 -8.55554,-9.57243 -15.7752,-9.93648 -5.79962,-0.29245 -9.27098,0.936 -13.45776,4.76249 -5.30832,4.8515 -7.42046,11.59606 -5.71554,18.25102 1.47571,5.76023 4.60212,9.67144 9.861,12.33631 4.90604,2.48608 9.95613,2.69214 15.46498,0.63102 z"
       id="path2986"
       inkscape:connector-curvature="0" />
  </g>
</svg>
