/* XPM */
static char * Title_xpm[] = {
"21 21 84 1",
" 	c None",
".	c #318995",
"+	c #3A8593",
"@	c #418192",
"#	c #4A7C90",
"$	c #52798F",
"%	c #59758E",
"&	c #62708C",
"*	c #6A6C8B",
"=	c #726889",
"-	c #7B6388",
";	c #826087",
">	c #8B5C85",
",	c #935784",
"'	c #9B5483",
")	c #A45081",
"!	c #A94C81",
"~	c #B2487F",
"{	c #BA447E",
"]	c #C2407D",
"^	c #CA3C7B",
"/	c #D2387A",
"(	c #398593",
"_	c #418191",
":	c #497C90",
"<	c #5A748E",
"[	c #6B6D8B",
"}	c #7A6488",
"|	c #836086",
"1	c #9B5482",
"2	c #A94D81",
"3	c #B1487F",
"4	c #B9447E",
"5	c #C2417C",
"6	c #318994",
"7	c #4A7D90",
"8	c #5A758D",
"9	c #62708D",
"0	c #736889",
"a	c #7B6488",
"b	c #835F87",
"c	c #935884",
"d	c #A44F81",
"e	c #AA4C81",
"f	c #C1417C",
"g	c #428191",
"h	c #497D91",
"i	c #51798F",
"j	c #5A748D",
"k	c #836087",
"l	c #A35081",
"m	c #A94C80",
"n	c #BA447D",
"o	c #C1407D",
"p	c #D2397A",
"q	c #428192",
"r	c #4A7C91",
"s	c #52788F",
"t	c #63708D",
"u	c #6B6C8B",
"v	c #935885",
"w	c #9B5382",
"x	c #D13879",
"y	c #398493",
"z	c #62718C",
"A	c #72698A",
"B	c #9B5383",
"C	c #A45082",
"D	c #BA457E",
"E	c #4A7D91",
"F	c #73688A",
"G	c #A34F81",
"H	c #C2417D",
"I	c #D23879",
"J	c #6B6C8A",
"K	c #8B5B86",
"L	c #A15082",
"M	c #BA457D",
"N	c #C2407C",
"O	c #62718D",
"P	c #A25182",
"Q	c #AA4D80",
"R	c #B1497F",
"S	c #0F1013",
".+@#$%&*=-;>,')!~{]^/",
".(_:$<&[=}|>,1)2345^/",
"6(@7$89*0ab>c'de~{f^/",
"6+ghij&*0ak>c'lm3no^p",
"6+qrs<tu0a;>vw)!345^x",
"6y@7ijzuA};>cBCm3D]^/",
".(qEs<&uFab>,'Ge~4H^I",
"6(_#ij&JFakKc'Lm~MN^/",
"6(_r$%Ou0}k>c'PQRnN^/",
"SSSSSSSSSSSSSSSSSSSSS",
"SSSSSSSSSSSSSSSSSSSSS",
"SSSSSSSSSSSSSSSSSSSSS",
"SSSSSSSSSSSSSSSSSSSSS",
"SSSSSSSSSSSSSSSSSSSSS",
"SSSSSSSSSSSSSSSSSSSSS",
"SSSSSSSSSSSSSSSSSSSSS",
"SSSSSSSSSSSSSSSSSSSSS",
"SSSSSSSSSSSSSSSSSSSSS",
"SSSSSSSSSSSSSSSSSSSSS",
"SSSSSSSSSSSSSSSSSSSSS",
"SSSSSSSSSSSSSSSSSSSSS"};
