/* XPM */
static char * Close_xpm[] = {
"21 21 18 1",
" 	c None",
".	c #F22C42",
"+	c #000000",
"@	c #5F0B14",
"#	c #BC2031",
"$	c #E72A3F",
"%	c #280204",
"&	c #B01D2D",
"*	c #F12C42",
"=	c #B51E2F",
"-	c #6D0E18",
";	c #78101C",
">	c #FFFFFF",
",	c #DA273B",
"'	c #A01928",
")	c #4B060E",
"!	c #8B1522",
"~	c #170102",
".....................",
".....................",
"+@#$.............$#@+",
"+%&*.............*&%+",
"+++=.............=+++",
"+++-.............-+++",
"+++;.............;+++",
"++++.............++++",
"++++.............++++",
"++++....>...>....++++",
"++++.....>.>.....++++",
"++++......>......++++",
"++++.....>.>.....++++",
"++++....>...>....++++",
"++++.............++++",
"++++,...........,++++",
"++++'...........'++++",
"++++)...........)++++",
"+++++!.........!+++++",
"+++++~!.......!~+++++",
"+++++++)',.,')+++++++"};
