/* XPM */
static char * Minimize_xpm[] = {
"21 21 3 1",
" 	c #F22C42",
".	c #000000",
"+	c #FFFFFF",
"                     ",
"                     ",
".....................",
".....................",
".....................",
".....................",
".....................",
".....................",
".....................",
".....................",
".....................",
"........+++++........",
".....................",
".....................",
".....................",
".....................",
".....................",
".....................",
".....................",
".....................",
"....................."};
