/* XPM */
static char * unfocus_task_xpm[] = {
"128 26 19 1",
" 	c #000000",
".	c #0C0C0C",
"+	c #171717",
"@	c #1D1D1D",
"#	c #232323",
"$	c #222222",
"%	c #1C1C1C",
"&	c #0E0E0E",
"*	c #101010",
"=	c #1E1E1E",
"-	c #1F1F1F",
";	c #060606",
">	c #191919",
",	c #0F0F0F",
"'	c #0A0A0A",
")	c #0B0B0B",
"!	c #212121",
"~	c #141414",
"{	c #161616",
"            .+@########################################################################################################$$%&     ",
"          *@#=###########################################################################################################@-&    ",
"        ;>#%,                                                                                             ;              '@%    ",
"       )%!~                                                                                                               ##    ",
"      ;%-*                                                                                                                ##    ",
"      >!*                                                                                                                 ##    ",
"     *#~                                                                                                                  ##    ",
"     @%                                                                                                                   ##    ",
"    .#,                                                                                                                   ##    ",
"    +=                                                                                                                    ##    ",
"    @{                                                                                                                    ##    ",
"    !#                                                                                                                    ##    ",
"    ##                                                                                                                    ##    ",
"    ##                                                                                                                    ##    ",
"    !#                                                                                                                    ##    ",
"    ##                                                                                                                    #@    ",
"    ##                                                                                                                    =+    ",
"    ##                                                                                                                   ,#.    ",
"    ##                                                                                                                   %@     ",
"    ##                                                                                                                  ~#*     ",
"    ##                                                                                                                 *!>      ",
"    $#                                                                                                                *-%;      ",
"    $#                                                                                                               ~!%)       ",
"    %@'                                                                                                            ,%#>;        ",
"    &-@##########################################################################################################{=#@*          ",
"     &%#########################################################################################################!@+.            "};
