<?xml version="1.0" encoding="UTF-8" standalone="no"?>
<!-- Created with Inkscape (http://www.inkscape.org/) -->

<svg
   xmlns:dc="http://purl.org/dc/elements/1.1/"
   xmlns:cc="http://creativecommons.org/ns#"
   xmlns:rdf="http://www.w3.org/1999/02/22-rdf-syntax-ns#"
   xmlns:svg="http://www.w3.org/2000/svg"
   xmlns="http://www.w3.org/2000/svg"
   xmlns:sodipodi="http://sodipodi.sourceforge.net/DTD/sodipodi-0.dtd"
   xmlns:inkscape="http://www.inkscape.org/namespaces/inkscape"
   width="500"
   height="500"
   id="svg2"
   version="1.1"
   inkscape:version="0.48.5 r10040"
   sodipodi:docname="Yeni belge 1">
  <defs
     id="defs4" />
  <sodipodi:namedview
     id="base"
     pagecolor="#ffffff"
     bordercolor="#666666"
     borderopacity="1.0"
     inkscape:pageopacity="0.0"
     inkscape:pageshadow="2"
     inkscape:zoom="0.4289781"
     inkscape:cx="468.26615"
     inkscape:cy="143.63642"
     inkscape:document-units="px"
     inkscape:current-layer="layer1"
     showgrid="false"
     inkscape:window-width="1366"
     inkscape:window-height="716"
     inkscape:window-x="0"
     inkscape:window-y="0"
     inkscape:window-maximized="1" />
  <metadata
     id="metadata7">
    <rdf:RDF>
      <cc:Work
         rdf:about="">
        <dc:format>image/svg+xml</dc:format>
        <dc:type
           rdf:resource="http://purl.org/dc/dcmitype/StillImage" />
        <dc:title></dc:title>
      </cc:Work>
    </rdf:RDF>
  </metadata>
  <g
     inkscape:label="Layer 1"
     inkscape:groupmode="layer"
     id="layer1"
     transform="translate(0,-552.36218)">
    <g
       id="g3906"
       transform="matrix(2.25,0,0,2.2499999,-580.71273,-710.8751)">
      <path
         sodipodi:open="true"
         sodipodi:end="6.2784904"
         sodipodi:start="0"
         transform="matrix(1.039317,0,0,1.0075822,224.0613,538.98785)"
         d="m 235.87063,132.55701 c 0,54.81287 -43.07783,99.24749 -96.21704,99.24749 -53.139195,0 -96.217028,-44.43462 -96.217028,-99.24749 0,-54.812878 43.077833,-99.247493 96.217028,-99.247493 52.96288,0 95.96732,44.15114 96.21598,98.781533"
         sodipodi:ry="99.24749"
         sodipodi:rx="96.217033"
         sodipodi:cy="132.55701"
         sodipodi:cx="139.65359"
         id="path2996"
         style="fill:#45d03f;fill-opacity:1;stroke:none"
         sodipodi:type="arc" />
      <path
         sodipodi:nodetypes="cczczczczc"
         inkscape:connector-curvature="0"
         id="path3766"
         d="M 320.21836,715.60257 420.476,714.84496 c 0,0 22.41881,-3.01229 21.97081,-26.39024 -0.44799,-23.37795 -22.60216,-25.63262 -22.60216,-25.63262 0,0 4.02764,-30.85097 -25.50635,-40.53237 -29.53399,-9.68139 -43.18402,22.8547 -43.18402,22.8547 0,0 -11.04762,-8.69775 -21.33947,-1.13642 -10.29185,7.56133 -7.70242,18.30901 -7.70242,18.30901 0,0 -24.53143,5.0793 -23.86485,27.90547 0.66658,22.82617 21.97082,25.38008 21.97082,25.38008 z"
         style="fill:#ffffff;stroke:none" />
      <rect
         y="654.61462"
         x="346.73486"
         height="51.012703"
         width="51.51778"
         id="rect3768"
         style="fill:#45d03f;fill-opacity:1;stroke:none" />
      <rect
         y="659.66541"
         x="360.62445"
         height="18.940359"
         width="23.486048"
         id="rect3768-3"
         style="fill:#ffffff;fill-opacity:1;stroke:none" />
      <rect
         y="682.26752"
         x="361.00327"
         height="18.940359"
         width="23.486048"
         id="rect3768-3-6"
         style="fill:#ffffff;fill-opacity:1;stroke:none" />
      <rect
         y="696.1015"
         x="350.41986"
         height="4.922502"
         width="6.0753336"
         id="rect3768-3-6-7"
         style="fill:#ffffff;fill-opacity:1;stroke:none" />
      <rect
         y="689.30206"
         x="350.59689"
         height="4.922502"
         width="6.0753336"
         id="rect3768-3-6-7-5"
         style="fill:#ffffff;fill-opacity:1;stroke:none" />
      <rect
         y="682.15924"
         x="350.5076"
         height="4.922502"
         width="6.0753336"
         id="rect3768-3-6-7-3"
         style="fill:#ffffff;fill-opacity:1;stroke:none" />
      <rect
         y="696.05817"
         x="388.11853"
         height="4.922502"
         width="6.0753336"
         id="rect3768-3-6-7-56"
         style="fill:#ffffff;fill-opacity:1;stroke:none" />
      <rect
         y="689.25873"
         x="388.29556"
         height="4.922502"
         width="6.0753336"
         id="rect3768-3-6-7-5-2"
         style="fill:#ffffff;fill-opacity:1;stroke:none" />
      <rect
         y="682.11591"
         x="388.20627"
         height="4.922502"
         width="6.0753336"
         id="rect3768-3-6-7-3-9"
         style="fill:#ffffff;fill-opacity:1;stroke:none" />
      <rect
         y="673.35144"
         x="350.6445"
         height="4.922502"
         width="6.0753336"
         id="rect3768-3-6-7-1"
         style="fill:#ffffff;fill-opacity:1;stroke:none" />
      <rect
         y="666.552"
         x="350.82153"
         height="4.922502"
         width="6.0753336"
         id="rect3768-3-6-7-5-27"
         style="fill:#ffffff;fill-opacity:1;stroke:none" />
      <rect
         y="659.40918"
         x="350.73224"
         height="4.922502"
         width="6.0753336"
         id="rect3768-3-6-7-3-0"
         style="fill:#ffffff;fill-opacity:1;stroke:none" />
      <rect
         y="673.30811"
         x="388.34317"
         height="4.922502"
         width="6.0753336"
         id="rect3768-3-6-7-56-9"
         style="fill:#ffffff;fill-opacity:1;stroke:none" />
      <rect
         y="666.50867"
         x="388.5202"
         height="4.922502"
         width="6.0753336"
         id="rect3768-3-6-7-5-2-3"
         style="fill:#ffffff;fill-opacity:1;stroke:none" />
      <rect
         y="659.36584"
         x="388.43091"
         height="4.922502"
         width="6.0753336"
         id="rect3768-3-6-7-3-9-6"
         style="fill:#ffffff;fill-opacity:1;stroke:none" />
    </g>
  </g>
</svg>
