<?xml version="1.0" encoding="UTF-8" standalone="no"?>
<svg
   xmlns:dc="http://purl.org/dc/elements/1.1/"
   xmlns:cc="http://creativecommons.org/ns#"
   xmlns:rdf="http://www.w3.org/1999/02/22-rdf-syntax-ns#"
   xmlns:svg="http://www.w3.org/2000/svg"
   xmlns="http://www.w3.org/2000/svg"
   xmlns:xlink="http://www.w3.org/1999/xlink"
   xmlns:sodipodi="http://sodipodi.sourceforge.net/DTD/sodipodi-0.dtd"
   xmlns:inkscape="http://www.inkscape.org/namespaces/inkscape"
   viewBox="0 0 511.99999 511.99999"
   height="512"
   width="512"
   version="1.1"
   id="svg2"
   inkscape:version="0.92.1 r15371"
   sodipodi:docname="accessories-document-viewer.svg">
  <sodipodi:namedview
     pagecolor="#ffffff"
     bordercolor="#666666"
     borderopacity="1"
     objecttolerance="10"
     gridtolerance="10"
     guidetolerance="10"
     inkscape:pageopacity="0"
     inkscape:pageshadow="2"
     inkscape:window-width="1366"
     inkscape:window-height="714"
     id="namedview18"
     showgrid="false"
     inkscape:zoom="0.57452426"
     inkscape:cx="535.51066"
     inkscape:cy="239.99306"
     inkscape:window-x="0"
     inkscape:window-y="0"
     inkscape:window-maximized="1"
     inkscape:current-layer="svg2" />
  <metadata
     id="metadata8">
    <rdf:RDF>
      <cc:Work
         rdf:about="">
        <dc:format>image/svg+xml</dc:format>
        <dc:type
           rdf:resource="http://purl.org/dc/dcmitype/StillImage" />
        <dc:title />
      </cc:Work>
    </rdf:RDF>
  </metadata>
  <defs
     id="defs6">
    <filter
       height="1.096"
       y="-0.048"
       width="1.096"
       x="-0.048"
       id="filter4329"
       style="color-interpolation-filters:sRGB">
      <feGaussianBlur
         id="feGaussianBlur4331"
         stdDeviation="2.1324205" />
    </filter>
    <filter
       height="1.0327445"
       y="-0.016372267"
       width="1.0399742"
       x="-0.019987123"
       id="filter4376"
       style="color-interpolation-filters:sRGB">
      <feGaussianBlur
         id="feGaussianBlur4378"
         stdDeviation="1.1736058" />
    </filter>
    <filter
       height="1.0570984"
       y="-0.0285492"
       width="1.0632123"
       x="-0.031606145"
       id="filter4436"
       style="color-interpolation-filters:sRGB">
      <feGaussianBlur
         id="feGaussianBlur4438"
         stdDeviation="0.63519096" />
    </filter>
    <linearGradient
       x1="16.541649"
       y1="144.70755"
       x2="-24.629177"
       y2="-0.77768874"
       id="linearGradient3504"
       xlink:href="#linearGradient3526"
       gradientUnits="userSpaceOnUse"
       gradientTransform="matrix(0.6969214,-0.3124156,0.3124156,0.6969214,29.229254,21.999738)" />
    <linearGradient
       id="linearGradient3526">
      <stop
         id="stop3528"
         style="stop-color:#006e29;stop-opacity:1"
         offset="0" />
      <stop
         id="stop3530"
         style="stop-color:#77b753;stop-opacity:1"
         offset="1" />
    </linearGradient>
  </defs>
  <rect
     style="fill:#a05a2c;fill-opacity:1;stroke:none"
     id="rect3003"
     width="381.21548"
     height="450"
     x="60"
     y="36.999992"
     ry="35.583622"
     rx="31.491711" />
  <path
     style="fill:#ffffff;stroke:none"
     d="m 80.407525,52.216648 c -2.691647,3.309991 -2.262269,7.680306 -2.262269,7.680306 l 0.07919,374.090416 0.0054,27.42556 c 0,0 -0.176685,4.28946 1.814739,6.52615 1.991585,2.23668 6.733317,2.44649 6.733317,2.44649 l 328.436238,-0.0162 c 0,0 5.50157,0.3022 7.97608,-1.86521 2.47451,-2.16736 2.25797,-6.98472 2.25797,-6.98472 L 425.32287,71.748593 c 0,0 1.30008,-10.663618 -5.0487,-16.876529 -6.34877,-6.212909 -17.70398,-4.682984 -17.70398,-4.682984 l -315.015,-0.749513 c 0,0 -4.456342,-0.530054 -7.147934,2.779667 z"
     id="path3773"
     inkscape:connector-curvature="0"
     sodipodi:nodetypes="cccczcczcczcczc" />
  <path
     inkscape:connector-curvature="0"
     d="m 273.57542,49.638876 -32.00153,0.785482 c 4.96346,5.368015 7.99868,11.735513 10.05345,20.723869 3.25249,14.227749 2.06818,33.326533 -3.06094,55.434563 -6.58151,27.25007 -18.1341,55.74172 -45.33148,110.63748 -2.46762,-15.10507 -4.13074,-25.31868 -4.94387,-28.87565 l -8.56948,-46.03691 c -2.92634,-15.67493 -6.36344,-35.03428 -10.22027,-57.65345 -1.30008,-8.561087 -2.60554,-17.056937 -4.21657,-25.54112 L 158.94839,91.015686 C 150.41227,119.774 115.42095,216.50717 99.64254,255.25558 97.075077,228.21795 92.920578,154.15328 91.512023,113.50532 c 6.011681,-3.87796 9.221537,-7.08708 13.798267,-14.368195 -11.263908,2.913135 -18.874667,4.906575 -26.596165,6.927285 l 0.334393,198.12955 18.071608,-11.06834 c 30.032734,-79.85297 38.164944,-101.6272 60.657504,-165.60865 8.24854,38.95664 23.33332,120.57238 27.26182,150.68978 l 18.33897,-11.66991 c 6.7271,-19.42843 9.15101,-25.891 23.20955,-56.35646 40.49177,-87.13704 53.01564,-129.14249 46.98745,-160.541504 z"
     id="text3399"
     style="font-style:normal;font-weight:normal;font-size:169.21452332px;font-family:'URW Chancery L';fill:#00bbf2;fill-opacity:1;stroke:none;stroke-width:0.60331315" />
  <path
     d="m 272.36717,242.88297 c -10.93282,-0.1941 -20.36797,10.84357 -18.05656,21.87096 1.55581,16.8502 12.25953,30.52392 20.61224,44.43794 0.93923,5.18151 -1.75292,10.22536 -1.93318,15.36926 -5.44577,30.19987 -13.75386,60.23728 -26.53564,87.94899 -15.81592,7.39091 -33.7276,14.68951 -42.97657,30.61882 -5.87117,11.05218 2.39563,25.9683 14.53049,27.13369 11.25796,1.56302 19.61405,-8.22972 25.76825,-16.43462 6.42544,-8.82568 10.65402,-19.33493 16.0004,-28.81984 32.35458,-13.22656 66.39384,-22.47035 101.14069,-25.98027 14.04951,10.20657 28.93465,22.24804 46.95079,22.97567 10.47206,-0.15818 18.94607,-10.47676 17.79882,-20.95694 -0.67473,-9.54217 -9.02577,-16.2337 -17.67752,-18.02414 -13.95349,-4.26663 -28.90097,-1.92982 -43.09453,-1.82635 -27.31395,-22.15398 -52.52878,-47.64346 -72.39053,-76.80787 1.47412,-17.73087 4.43414,-37.3437 -4.66154,-53.47394 -3.45361,-5.08748 -9.30793,-8.57602 -15.47644,-8.02709 m 0.52057,16.1029 c 3.07541,0.60193 3.28009,5.25162 4.14098,7.73807 0.81034,5.06779 0.72188,10.23907 0.66292,15.35729 -3.66252,-6.94887 -8.4201,-14.20812 -7.5727,-22.44468 0.96533,-0.0385 1.82032,-0.53525 2.7688,-0.64897 m 16.94802,69.14676 c 16.27922,20.54649 34.3619,39.46845 54.09558,56.62046 -26.02097,4.02806 -51.87176,10.77601 -76.62838,19.87959 9.49496,-25.18936 16.72397,-51.21323 21.48746,-77.77406 0.34703,0.42493 0.69409,0.84905 1.04113,1.27401 m 101.54504,69.06979 c 6.31172,0.61817 13.59548,0.24708 18.64957,4.66248 0.47424,3.98533 -4.32882,4.56676 -6.8862,3.12432 -5.33626,-1.80841 -10.61526,-4.08195 -15.14541,-7.54655 1.12875,-0.071 2.2533,-0.21802 3.38624,-0.24025 m -157.72962,41.91384 c -3.00128,5.66634 -7.37054,11.0086 -11.9268,15.02128 -1.51622,2.49157 -5.67742,-2.11538 -3.76275,-4.06142 3.95313,-6.28109 10.85532,-9.61061 16.96486,-13.3625 -0.42623,0.80115 -0.85076,1.60233 -1.27784,2.40351"
     inkscape:connector-curvature="0"
     id="path70"
     style="fill:#f03916;fill-opacity:1;stroke-width:0.64338017" />
</svg>
