<?xml version="1.0" encoding="UTF-8" standalone="no"?>
<!-- Created with Inkscape (http://www.inkscape.org/) -->

<svg
   xmlns:dc="http://purl.org/dc/elements/1.1/"
   xmlns:cc="http://creativecommons.org/ns#"
   xmlns:rdf="http://www.w3.org/1999/02/22-rdf-syntax-ns#"
   xmlns:svg="http://www.w3.org/2000/svg"
   xmlns="http://www.w3.org/2000/svg"
   xmlns:sodipodi="http://sodipodi.sourceforge.net/DTD/sodipodi-0.dtd"
   xmlns:inkscape="http://www.inkscape.org/namespaces/inkscape"
   id="svg2"
   version="1.1"
   inkscape:version="0.48.5 r10040"
   width="512"
   height="512"
   sodipodi:docname="acdlabs.svg">
  <metadata
     id="metadata8">
    <rdf:RDF>
      <cc:Work
         rdf:about="">
        <dc:format>image/svg+xml</dc:format>
        <dc:type
           rdf:resource="http://purl.org/dc/dcmitype/StillImage" />
        <dc:title />
      </cc:Work>
    </rdf:RDF>
  </metadata>
  <defs
     id="defs6" />
  <sodipodi:namedview
     pagecolor="#ffffff"
     bordercolor="#666666"
     borderopacity="1"
     objecttolerance="10"
     gridtolerance="10"
     guidetolerance="10"
     inkscape:pageopacity="0"
     inkscape:pageshadow="2"
     inkscape:window-width="1366"
     inkscape:window-height="716"
     id="namedview4"
     showgrid="false"
     inkscape:zoom="1.3037281"
     inkscape:cx="268.21971"
     inkscape:cy="209.96236"
     inkscape:window-x="0"
     inkscape:window-y="0"
     inkscape:window-maximized="1"
     inkscape:current-layer="svg2"
     showguides="true"
     inkscape:guide-bbox="true" />
  <path
     style="fill:none;stroke:#00bbf2;stroke-width:11.64253235;stroke-linecap:butt;stroke-linejoin:miter;stroke-miterlimit:4;stroke-opacity:1;stroke-dasharray:none"
     d="m 299.63833,340.93119 39.00862,25.79561"
     id="path4054-8"
     inkscape:connector-curvature="0" />
  <path
     style="fill:none;stroke:#00bbf2;stroke-width:11.64253235;stroke-linecap:butt;stroke-linejoin:miter;stroke-miterlimit:4;stroke-opacity:1;stroke-dasharray:none"
     d="m 292.25546,345.77561 9.57216,-45.77625"
     id="path4054-9"
     inkscape:connector-curvature="0" />
  <path
     style="fill:#00bbf2;fill-opacity:1;stroke:none"
     d="M 316.69684,169.76682 C -0.63891077,183.35046 -92.275202,439.51027 209.34877,357.31027 -4.2056428,353.98504 121.19805,222.60288 316.69684,169.76682 z"
     id="path3003-9"
     inkscape:connector-curvature="0"
     sodipodi:nodetypes="ccc" />
  <path
     style="fill:none;stroke:#00bbf2;stroke-width:11.64253235;stroke-linecap:butt;stroke-linejoin:miter;stroke-miterlimit:4;stroke-opacity:1;stroke-dasharray:none"
     d="M 265.78437,371.50983 304.3034,344.98857"
     id="path4054-2"
     inkscape:connector-curvature="0" />
  <path
     style="fill:none;stroke:#00bbf2;stroke-width:11.64253235;stroke-linecap:butt;stroke-linejoin:miter;stroke-miterlimit:4;stroke-opacity:1;stroke-dasharray:none"
     d="m 252.20794,325.41332 38.51903,-26.52127"
     id="path4054"
     inkscape:connector-curvature="0" />
  <path
     style="fill:none;stroke:#00bbf2;stroke-width:11.64253235;stroke-linecap:butt;stroke-linejoin:miter;stroke-miterlimit:4;stroke-opacity:1;stroke-dasharray:none"
     d="m 227.52481,286.6997 38.51894,-26.52126"
     id="path4054-29"
     inkscape:connector-curvature="0" />
  <path
     style="fill:#00bbf2;fill-opacity:1;stroke:none"
     d="M 183.30316,382.31704 C 500.63891,368.7334 592.27521,112.57358 290.65123,194.77359 c 213.55441,3.32523 88.15072,134.70739 -107.34807,187.54345 z"
     id="path3003"
     inkscape:connector-curvature="0"
     sodipodi:nodetypes="ccc" />
  <path
     transform="matrix(4.6570129,0,0,4.6570129,-3686.8356,-2742.8478)"
     sodipodi:type="arc"
     style="fill:#006680;fill-opacity:1;stroke:none"
     id="path3827-6-9-9-0"
     sodipodi:cx="836.67798"
     sodipodi:cy="627.11865"
     sodipodi:rx="3.4576271"
     sodipodi:ry="3.2542374"
     d="m 840.13561,627.11865 a 3.4576271,3.2542374 0 1 1 -6.91526,0 3.4576271,3.2542374 0 1 1 6.91526,0 z" />
  <path
     transform="matrix(4.6570129,0,0,4.6570129,-3668.839,-2764.3174)"
     sodipodi:type="arc"
     style="fill:#00bbf2;fill-opacity:1;stroke:none"
     id="path3827-62"
     sodipodi:cx="836.67798"
     sodipodi:cy="627.11865"
     sodipodi:rx="3.4576271"
     sodipodi:ry="3.2542374"
     d="m 840.13561,627.11865 a 3.4576271,3.2542374 0 1 1 -6.91526,0 3.4576271,3.2542374 0 1 1 6.91526,0 z" />
  <path
     transform="matrix(4.6570129,0,0,4.6570129,-3677.9952,-2713.8007)"
     sodipodi:type="arc"
     style="fill:#006680;fill-opacity:1;stroke:none"
     id="path3827-6-9-3-9"
     sodipodi:cx="836.67798"
     sodipodi:cy="627.11865"
     sodipodi:rx="3.4576271"
     sodipodi:ry="3.2542374"
     d="m 840.13561,627.11865 a 3.4576271,3.2542374 0 1 1 -6.91526,0 3.4576271,3.2542374 0 1 1 6.91526,0 z" />
  <path
     transform="matrix(6.3919784,0,0,6.3919784,-5096.4513,-3796.8153)"
     sodipodi:type="arc"
     style="fill:#00bbf2;fill-opacity:1;stroke:none"
     id="path3827-5-6"
     sodipodi:cx="836.67798"
     sodipodi:cy="627.11865"
     sodipodi:rx="3.4576271"
     sodipodi:ry="3.2542374"
     d="m 840.13561,627.11865 a 3.4576271,3.2542374 0 1 1 -6.91526,0 3.4576271,3.2542374 0 1 1 6.91526,0 z" />
  <path
     transform="matrix(7.305118,0,0,7.305118,-5850.6671,-4325.1416)"
     sodipodi:type="arc"
     style="fill:#00bbf2;fill-opacity:1;stroke:none"
     id="path3827-5-3-1"
     sodipodi:cx="836.67798"
     sodipodi:cy="627.11865"
     sodipodi:rx="3.4576271"
     sodipodi:ry="3.2542374"
     d="m 840.13561,627.11865 a 3.4576271,3.2542374 0 1 1 -6.91526,0 3.4576271,3.2542374 0 1 1 6.91526,0 z" />
  <path
     transform="matrix(7.305118,0,0,7.305118,-5815.3055,-4286.7039)"
     sodipodi:type="arc"
     style="fill:#00bbf2;fill-opacity:1;stroke:none"
     id="path3827-5-3-5-8"
     sodipodi:cx="836.67798"
     sodipodi:cy="627.11865"
     sodipodi:rx="3.4576271"
     sodipodi:ry="3.2542374"
     d="m 840.13561,627.11865 a 3.4576271,3.2542374 0 1 1 -6.91526,0 3.4576271,3.2542374 0 1 1 6.91526,0 z" />
  <path
     transform="matrix(4.6570129,0,0,4.6570129,-3665.9975,-2635.4997)"
     sodipodi:type="arc"
     style="fill:#006680;fill-opacity:1;stroke:none"
     id="path3827-6-7"
     sodipodi:cx="836.67798"
     sodipodi:cy="627.11865"
     sodipodi:rx="3.4576271"
     sodipodi:ry="3.2542374"
     d="m 840.13561,627.11865 a 3.4576271,3.2542374 0 1 1 -6.91526,0 3.4576271,3.2542374 0 1 1 6.91526,0 z" />
  <path
     transform="matrix(4.6570129,0,0,4.6570129,-3563.0696,-2643.0772)"
     sodipodi:type="arc"
     style="fill:#00bbf2;fill-opacity:1;stroke:none"
     id="path3827-6-2-9"
     sodipodi:cx="836.67798"
     sodipodi:cy="627.11865"
     sodipodi:rx="3.4576271"
     sodipodi:ry="3.2542374"
     d="m 840.13561,627.11865 a 3.4576271,3.2542374 0 1 1 -6.91526,0 3.4576271,3.2542374 0 1 1 6.91526,0 z" />
  <path
     transform="matrix(4.6570129,0,0,4.6570129,-3645.7908,-2594.4548)"
     sodipodi:type="arc"
     style="fill:#006680;fill-opacity:1;stroke:none"
     id="path3827-6-9-20"
     sodipodi:cx="836.67798"
     sodipodi:cy="627.11865"
     sodipodi:rx="3.4576271"
     sodipodi:ry="3.2542374"
     d="m 840.13561,627.11865 a 3.4576271,3.2542374 0 1 1 -6.91526,0 3.4576271,3.2542374 0 1 1 6.91526,0 z" />
  <path
     transform="matrix(6.3919784,0,0,6.3919784,-5050.0386,-3666.0661)"
     sodipodi:type="arc"
     style="fill:#006680;fill-opacity:1;stroke:none"
     id="path3827-5-1-2"
     sodipodi:cx="836.67798"
     sodipodi:cy="627.11865"
     sodipodi:rx="3.4576271"
     sodipodi:ry="3.2542374"
     d="m 840.13561,627.11865 a 3.4576271,3.2542374 0 1 1 -6.91526,0 3.4576271,3.2542374 0 1 1 6.91526,0 z" />
  <path
     transform="matrix(4.6570129,0,0,4.6570129,-3626.2156,-2553.41)"
     sodipodi:type="arc"
     style="fill:#006680;fill-opacity:1;stroke:none"
     id="path3827-6-9-2-3"
     sodipodi:cx="836.67798"
     sodipodi:cy="627.11865"
     sodipodi:rx="3.4576271"
     sodipodi:ry="3.2542374"
     d="m 840.13561,627.11865 a 3.4576271,3.2542374 0 1 1 -6.91526,0 3.4576271,3.2542374 0 1 1 6.91526,0 z" />
  <path
     transform="matrix(4.6570129,0,0,4.6570129,-3562.4382,-2560.9875)"
     sodipodi:type="arc"
     style="fill:#00bbf2;fill-opacity:1;stroke:none"
     id="path3827-6-9-7-7"
     sodipodi:cx="836.67798"
     sodipodi:cy="627.11865"
     sodipodi:rx="3.4576271"
     sodipodi:ry="3.2542374"
     d="m 840.13561,627.11865 a 3.4576271,3.2542374 0 1 1 -6.91526,0 3.4576271,3.2542374 0 1 1 6.91526,0 z" />
  <path
     transform="matrix(4.6570129,0,0,4.6570129,-3713.3569,-2730.2186)"
     sodipodi:type="arc"
     style="fill:#006680;fill-opacity:1;stroke:none"
     id="path3827-6-9-0-5"
     sodipodi:cx="836.67798"
     sodipodi:cy="627.11865"
     sodipodi:rx="3.4576271"
     sodipodi:ry="3.2542374"
     d="m 840.13561,627.11865 a 3.4576271,3.2542374 0 1 1 -6.91526,0 3.4576271,3.2542374 0 1 1 6.91526,0 z" />
  <path
     transform="matrix(4.6570129,0,0,4.6570129,-3606.6403,-2724.5355)"
     sodipodi:type="arc"
     style="fill:#00bbf2;fill-opacity:1;stroke:none"
     id="path3827-6-9-6-2"
     sodipodi:cx="836.67798"
     sodipodi:cy="627.11865"
     sodipodi:rx="3.4576271"
     sodipodi:ry="3.2542374"
     d="m 840.13561,627.11865 a 3.4576271,3.2542374 0 1 1 -6.91526,0 3.4576271,3.2542374 0 1 1 6.91526,0 z" />
  <path
     style="fill:none;stroke:#00bbf2;stroke-width:11.64253235;stroke-linecap:butt;stroke-linejoin:miter;stroke-miterlimit:4;stroke-opacity:1;stroke-dasharray:none"
     d="m 291.67419,303.94366 38.51903,-26.52127"
     id="path4054-7"
     inkscape:connector-curvature="0" />
  <path
     style="fill:none;stroke:#00bbf2;stroke-width:11.64253235;stroke-linecap:butt;stroke-linejoin:miter;stroke-miterlimit:4;stroke-opacity:1;stroke-dasharray:none"
     d="m 261.92245,265.00153 34.87643,31.15639"
     id="path4054-3"
     inkscape:connector-curvature="0" />
  <path
     style="fill:none;stroke:#00bbf2;stroke-width:11.64253235;stroke-linecap:butt;stroke-linejoin:miter;stroke-miterlimit:4;stroke-opacity:1;stroke-dasharray:none"
     d="m 249.99088,211.88443 12.01154,45.19748"
     id="path4054-6"
     inkscape:connector-curvature="0" />
  <path
     style="fill:none;stroke:#00bbf2;stroke-width:11.64253235;stroke-linecap:butt;stroke-linejoin:miter;stroke-miterlimit:4;stroke-opacity:1;stroke-dasharray:none"
     d="m 248.10354,222.48542 38.51894,-26.52126"
     id="path4054-1"
     inkscape:connector-curvature="0" />
</svg>
