<?xml version="1.0" encoding="UTF-8" standalone="no"?>
<!-- Generator: Adobe Illustrator 19.0.0, SVG Export Plug-In . SVG Version: 6.00 Build 0)  -->

<svg
   xmlns:dc="http://purl.org/dc/elements/1.1/"
   xmlns:cc="http://creativecommons.org/ns#"
   xmlns:rdf="http://www.w3.org/1999/02/22-rdf-syntax-ns#"
   xmlns:svg="http://www.w3.org/2000/svg"
   xmlns="http://www.w3.org/2000/svg"
   xmlns:sodipodi="http://sodipodi.sourceforge.net/DTD/sodipodi-0.dtd"
   xmlns:inkscape="http://www.inkscape.org/namespaces/inkscape"
   version="1.1"
   id="Layer_1"
   x="0px"
   y="0px"
   viewBox="0 0 500 500"
   xml:space="preserve"
   inkscape:version="0.91 r13725"
   width="100%"
   height="100%"
   sodipodi:docname="applications-graphics.svg"><metadata
     id="metadata73"><rdf:RDF><cc:Work
         rdf:about=""><dc:format>image/svg+xml</dc:format><dc:type
           rdf:resource="http://purl.org/dc/dcmitype/StillImage" /></cc:Work></rdf:RDF></metadata><defs
     id="defs71" /><sodipodi:namedview
     pagecolor="#ffffff"
     bordercolor="#666666"
     borderopacity="1"
     objecttolerance="10"
     gridtolerance="10"
     guidetolerance="10"
     inkscape:pageopacity="0"
     inkscape:pageshadow="2"
     inkscape:window-width="1366"
     inkscape:window-height="715"
     id="namedview69"
     showgrid="false"
     inkscape:zoom="0.32593203"
     inkscape:cx="-213.03521"
     inkscape:cy="345.4823"
     inkscape:window-x="0"
     inkscape:window-y="24"
     inkscape:window-maximized="1"
     inkscape:current-layer="Layer_1" /><g
     id="g4160"><path
       inkscape:connector-curvature="0"
       id="path3"
       d="m 249.99956,25.000881 0,0 c -4.28466,0 -7.75897,3.47431 -7.75897,7.758969 V 56.035 h 15.51706 V 32.75985 c 8.8e-4,-4.284659 -3.47343,-7.758969 -7.75809,-7.758969 z"
       style="fill:#c87137;fill-opacity:1" /><rect
       id="rect5"
       height="15.51706"
       width="155.17235"
       style="fill:#97552a;fill-opacity:1"
       y="358.62073"
       x="172.41338" /><g
       style="fill:#c87137;fill-opacity:1"
       transform="matrix(0.87890453,0,0,0.87890453,25,22.831389)"
       id="g7"><path
         inkscape:connector-curvature="0"
         id="path9"
         d="m 123.698,505.833 34.012,-161.557 26.483,0 -33.886,160.959 c -0.83,3.943 -4.309,6.765 -8.338,6.765 l -13.267,0 c -3.249,0 -5.673,-2.989 -5.004,-6.167 z"
         style="fill:#c87137;fill-opacity:1" /><path
         inkscape:connector-curvature="0"
         id="path11"
         d="m 388.302,505.833 -34.012,-161.557 -26.483,0 33.886,160.959 c 0.83,3.943 4.309,6.765 8.338,6.765 l 13.267,0 c 3.248,0 5.673,-2.989 5.004,-6.167 z"
         style="fill:#c87137;fill-opacity:1" /></g><path
       inkscape:connector-curvature="0"
       id="path13"
       d="M 467.24015,71.552938 H 32.758969 C 28.47431,71.552938 25,68.078629 25,63.793969 V 56.035 c 0,-4.28466 3.47431,-7.758969 7.758969,-7.758969 H 467.24103 c 4.28466,0 7.75897,3.474309 7.75897,7.758969 v 7.758969 c -8.8e-4,4.28466 -3.47519,7.758969 -7.75985,7.758969 z"
       style="fill:#394050" /><path
       inkscape:connector-curvature="0"
       id="path15"
       d="M 467.24015,71.552938 H 32.758969 V 319.82853 c 0,8.57019 6.946862,15.51706 15.51706,15.51706 H 451.72309 c 8.5702,0 15.51706,-6.94687 15.51706,-15.51706 V 71.552938 z"
       style="fill:#e6e6e6" /><path
       inkscape:connector-curvature="0"
       id="path17"
       d="M 265.51662,296.5525 H 234.4825 c -4.28466,0 -7.75897,-3.47431 -7.75897,-7.75897 V 164.65617 c 0,-4.28466 3.47431,-7.75897 7.75897,-7.75897 h 31.03412 c 4.28466,0 7.75897,3.47431 7.75897,7.75897 v 124.13736 c 0,4.28466 -3.47431,7.75897 -7.75897,7.75897 z"
       style="fill:#ffcc00" /><path
       inkscape:connector-curvature="0"
       id="path21"
       d="m 195.68941,296.5525 h -31.03412 c -4.28466,0 -7.75897,-3.47431 -7.75897,-7.75897 v -85.34427 c 0,-4.28466 3.47431,-7.75897 7.75897,-7.75897 h 31.03412 c 4.28466,0 7.75897,3.47431 7.75897,7.75897 v 85.34427 c 0,4.28466 -3.47431,7.75897 -7.75897,7.75897 z"
       style="fill:#f03916;fill-opacity:1" /><path
       inkscape:connector-curvature="0"
       id="path25"
       d="M 125.86221,296.5525 H 94.828086 c -4.284659,0 -7.758969,-3.47431 -7.758969,-7.75897 v -46.55206 c 0,-4.28466 3.47431,-7.75897 7.758969,-7.75897 h 31.034124 c 4.28465,0 7.75896,3.47431 7.75896,7.75897 v 46.55206 c -8.7e-4,4.28466 -3.47431,7.75897 -7.75896,7.75897 z"
       style="fill:#892ca0;fill-opacity:1" /><path
       inkscape:connector-curvature="0"
       id="path29"
       d="m 335.34383,296.5525 h -31.03412 c -4.28466,0 -7.75897,-3.47431 -7.75897,-7.75897 v -85.34427 c 0,-4.28466 3.47431,-7.75897 7.75897,-7.75897 h 31.03412 c 4.28466,0 7.75897,3.47431 7.75897,7.75897 v 85.34427 c 0,4.28466 -3.47431,7.75897 -7.75897,7.75897 z"
       style="fill:#45d03f;fill-opacity:1" /><path
       inkscape:connector-curvature="0"
       id="path33"
       d="m 405.17191,296.5525 h -31.03412 c -4.28465,0 -7.75896,-3.47431 -7.75896,-7.75897 V 118.10412 c 0,-4.28466 3.47431,-7.75897 7.75896,-7.75897 h 31.03412 c 4.28466,0 7.75897,3.47431 7.75897,7.75897 v 170.68941 c -8.8e-4,4.28466 -3.47431,7.75897 -7.75897,7.75897 z"
       style="fill:#00bbf2;fill-opacity:1" /><path
       inkscape:connector-curvature="0"
       id="path37"
       d="M 428.44706,304.30971 H 71.552058 c -4.28466,0 -7.75897,-3.47431 -7.75897,-7.75897 l 0,0 c 0,-4.28466 3.47431,-7.75897 7.75897,-7.75897 H 428.44794 c 4.28466,0 7.75897,3.47431 7.75897,7.75897 l 0,0 c -8.8e-4,4.28642 -3.47431,7.75897 -7.75985,7.75897 z"
       style="fill:#394050" /></g><g
     id="g39"
     transform="translate(0,-12)" /><g
     id="g41"
     transform="translate(0,-12)" /><g
     id="g43"
     transform="translate(0,-12)" /><g
     id="g45"
     transform="translate(0,-12)" /><g
     id="g47"
     transform="translate(0,-12)" /><g
     id="g49"
     transform="translate(0,-12)" /><g
     id="g51"
     transform="translate(0,-12)" /><g
     id="g53"
     transform="translate(0,-12)" /><g
     id="g55"
     transform="translate(0,-12)" /><g
     id="g57"
     transform="translate(0,-12)" /><g
     id="g59"
     transform="translate(0,-12)" /><g
     id="g61"
     transform="translate(0,-12)" /><g
     id="g63"
     transform="translate(0,-12)" /><g
     id="g65"
     transform="translate(0,-12)" /><g
     id="g67"
     transform="translate(0,-12)" /></svg>