<?xml version="1.0" encoding="UTF-8" standalone="no"?>
<!-- Created with Inkscape (http://www.inkscape.org/) -->

<svg
   xmlns:dc="http://purl.org/dc/elements/1.1/"
   xmlns:cc="http://creativecommons.org/ns#"
   xmlns:rdf="http://www.w3.org/1999/02/22-rdf-syntax-ns#"
   xmlns:svg="http://www.w3.org/2000/svg"
   xmlns="http://www.w3.org/2000/svg"
   xmlns:sodipodi="http://sodipodi.sourceforge.net/DTD/sodipodi-0.dtd"
   xmlns:inkscape="http://www.inkscape.org/namespaces/inkscape"
   width="512"
   height="512"
   id="svg2"
   version="1.1"
   inkscape:version="0.91 r13725"
   sodipodi:docname="arista.svg">
  <defs
     id="defs4" />
  <sodipodi:namedview
     id="base"
     pagecolor="#ffffff"
     bordercolor="#666666"
     borderopacity="1.0"
     inkscape:pageopacity="0.0"
     inkscape:pageshadow="2"
     inkscape:zoom="0.49497475"
     inkscape:cx="-15.556105"
     inkscape:cy="161.86667"
     inkscape:document-units="px"
     inkscape:current-layer="layer1"
     showgrid="false"
     inkscape:window-width="1366"
     inkscape:window-height="715"
     inkscape:window-x="0"
     inkscape:window-y="24"
     inkscape:window-maximized="1" />
  <metadata
     id="metadata7">
    <rdf:RDF>
      <cc:Work
         rdf:about="">
        <dc:format>image/svg+xml</dc:format>
        <dc:type
           rdf:resource="http://purl.org/dc/dcmitype/StillImage" />
        <dc:title />
      </cc:Work>
    </rdf:RDF>
  </metadata>
  <g
     inkscape:label="Layer 1"
     inkscape:groupmode="layer"
     id="layer1"
     transform="translate(0,-540.36218)">
    <g
       id="g4206">
      <g
         id="g4171"
         transform="translate(1.4074647,3.7636298)">
        <rect
           style="fill:#00bbf2;fill-opacity:1;stroke:none"
           id="rect2997-3"
           width="425.30334"
           height="252.7326"
           x="40.794899"
           y="768.32782"
           ry="21.153845" />
        <path
           style="fill:#004455;fill-opacity:1;stroke:none"
           d="m 41.062631,791.71329 433.782559,1.57452 0,-47.23584 -433.782559,0 z"
           id="path2999-6"
           inkscape:connector-curvature="0"
           sodipodi:nodetypes="ccccc" />
        <path
           style="fill:#ffffff;stroke:none"
           d="m 148.80589,792.09094 -43.58122,-0.15497 44.89988,-45.87922 43.55539,0.17348 z"
           id="path3769-7"
           inkscape:connector-curvature="0"
           sodipodi:nodetypes="ccccc" />
        <path
           style="fill:#ffffff;stroke:none"
           d="m 238.54111,792.13985 -43.5812,-0.15496 44.90006,-45.87923 43.55532,0.17349 z"
           id="path3769-3-5"
           inkscape:connector-curvature="0"
           sodipodi:nodetypes="ccccc" />
        <path
           style="fill:#ffffff;stroke:none"
           d="m 329.98989,791.99994 -43.58133,-0.15496 44.89997,-45.87923 43.55532,0.17349 z"
           id="path3769-6-3"
           inkscape:connector-curvature="0"
           sodipodi:nodetypes="ccccc" />
        <path
           style="fill:#ffffff;stroke:none"
           d="m 419.72502,792.04886 -43.58111,-0.15497 44.89997,-45.87922 43.55532,0.17348 z"
           id="path3769-3-7-5"
           inkscape:connector-curvature="0"
           sodipodi:nodetypes="ccccc" />
        <path
           style="fill:#004455;fill-opacity:1;stroke:none"
           d="M 27.41616,702.47407 440.81699,571.0604 454.96342,616.12816 41.091048,746.03958 Z"
           id="path2999-3-6"
           inkscape:connector-curvature="0"
           sodipodi:nodetypes="ccccc" />
        <path
           style="fill:#ffffff;stroke:none"
           d="M 130.10101,669.84625 88.566534,683.04603 145.1457,713.3726 186.64998,700.16289 Z"
           id="path3769-5-2"
           inkscape:connector-curvature="0"
           sodipodi:nodetypes="ccccc" />
        <path
           style="fill:#ffffff;stroke:none"
           d="m 215.70282,642.92522 -41.53445,13.19977 56.57933,30.32652 41.50422,-13.20969 z"
           id="path3769-3-6-9"
           inkscape:connector-curvature="0"
           sodipodi:nodetypes="ccccc" />
        <path
           style="fill:#ffffff;stroke:none"
           d="m 302.9961,615.67116 -41.53458,13.19981 56.57924,30.32654 41.50423,-13.20969 z"
           id="path3769-6-2-1"
           inkscape:connector-curvature="0"
           sodipodi:nodetypes="ccccc" />
        <path
           style="fill:#ffffff;stroke:none"
           d="m 388.59783,588.75015 -41.53438,13.19975 56.57925,30.32654 41.50422,-13.20969 z"
           id="path3769-3-7-9-2"
           inkscape:connector-curvature="0"
           sodipodi:nodetypes="ccccc" />
        <path
           style="fill:#00bbf2;fill-opacity:1;stroke:none"
           d="m 40.837368,792.50388 68.193292,0 c 0,0 9.05758,-28.45342 8.96253,-28.83602 l -35.070817,-62.63752 -42.864349,0.0946 z"
           id="path3861-7"
           inkscape:connector-curvature="0"
           sodipodi:nodetypes="cccccc" />
        <path
           sodipodi:type="arc"
           style="fill:#ffffff;fill-opacity:1;stroke:none"
           id="path3863-0"
           sodipodi:cx="53.826439"
           sodipodi:cy="712.66858"
           sodipodi:rx="6.2348132"
           sodipodi:ry="6.2348132"
           d="m 60.061252,712.66858 a 6.2348132,6.2348132 0 0 1 -6.227495,6.23481 6.2348132,6.2348132 0 0 1 -6.242114,-6.22017 6.2348132,6.2348132 0 0 1 6.212842,-6.24942 6.2348132,6.2348132 0 0 1 6.256698,6.20551"
           sodipodi:start="0"
           sodipodi:end="6.2784904"
           sodipodi:open="true" />
        <path
           sodipodi:type="arc"
           style="fill:#ffffff;fill-opacity:1;stroke:none"
           id="path3863-1-9"
           sodipodi:cx="54.216141"
           sodipodi:cy="778.13409"
           sodipodi:rx="6.2348132"
           sodipodi:ry="6.2348132"
           d="m 60.450954,778.13409 a 6.2348132,6.2348132 0 0 1 -6.227495,6.23481 6.2348132,6.2348132 0 0 1 -6.242114,-6.22017 6.2348132,6.2348132 0 0 1 6.212842,-6.24941 6.2348132,6.2348132 0 0 1 6.256698,6.2055"
           sodipodi:start="0"
           sodipodi:end="6.2784904"
           sodipodi:open="true" />
        <path
           sodipodi:type="arc"
           style="fill:#ffffff;fill-opacity:1;stroke:none"
           id="path3863-2-3"
           sodipodi:cx="100.19794"
           sodipodi:cy="780.08252"
           sodipodi:rx="6.2348132"
           sodipodi:ry="6.2348132"
           d="m 106.43275,780.08252 a 6.2348132,6.2348132 0 0 1 -6.2275,6.23481 6.2348132,6.2348132 0 0 1 -6.242109,-6.22017 6.2348132,6.2348132 0 0 1 6.212839,-6.24942 6.2348132,6.2348132 0 0 1 6.2567,6.20551"
           sodipodi:start="0"
           sodipodi:end="6.2784904"
           sodipodi:open="true" />
      </g>
      <path
         inkscape:connector-curvature="0"
         id="path3353"
         d="m 294.89442,925.81722 c -8.0488,0.86083 -11.36526,-0.40334 -14.53341,-5.53979 -3.19575,-5.18123 -2.95803,-8.00234 1.07326,-12.73815 6.15495,-7.2306 19.62969,-8.6292 22.57416,-2.34311 2.04076,4.35678 -4.01959,8.37908 -8.35388,5.54456 -4.21008,-2.7533 -12.98723,2.33261 -11.07412,6.41688 2.13682,4.56189 8.74896,4.05881 20.79115,-1.58187 18.59246,-8.70888 15.84989,-23.83379 -3.69206,-20.36135 -20.41094,3.62687 -25.76405,3.3066 -31.89006,-1.90811 -4.7062,-4.00613 -5.62604,-6.66599 -4.65482,-13.46031 2.08907,-14.61467 18.99504,-23.35077 34.39752,-17.77479 9.5034,3.44039 11.22501,7.17791 4.71181,10.22877 -2.88801,1.35277 -5.93304,0.69316 -6.96435,-1.50857 -4.0324,-8.6087 -25.85141,-0.42469 -25.14403,9.43119 0.51482,7.17267 7.60141,8.92407 23.16922,5.72596 15.95849,-3.27832 27.1974,1.33994 29.24441,12.01706 2.34646,12.23906 -12.3007,25.99561 -29.6547,27.85162 z M 411.5763,872.2244 c -6.70188,0.23506 -15.77565,-4.85364 -18.31274,-10.27003 -0.73455,-1.56817 0.17107,-7.01289 2.01248,-12.09937 3.64223,-10.06098 16.74176,-18.20295 28.29409,-17.58617 5.94147,0.31722 6.0252,-0.33337 1.13583,-8.82555 -7.52248,-13.06558 -20.98338,-15.62912 -32.53065,-6.19525 -4.59641,3.75517 -8.13727,8.63234 -7.86855,10.83814 0.33658,2.76307 1.76208,2.8475 4.5828,0.27145 2.25184,-2.05651 6.03323,-3.49922 8.4031,-3.20603 6.32912,0.78303 1.40421,9.93173 -6.67937,12.40779 -7.21164,2.209 -14.32362,-6.04301 -12.20904,-14.16611 1.95326,-7.50333 15.47041,-16.1055 27.59015,-17.55807 14.80487,-1.77437 23.32173,4.23547 31.13593,21.97095 3.53521,8.02353 8.38707,15.51081 10.78198,16.63834 6.24476,2.94 4.71281,8.1738 -3.4533,11.79813 -3.87149,1.7183 -11.34082,5.96399 -16.59845,9.43501 -5.25764,3.47102 -12.58554,6.41706 -16.28426,6.54677 z m 21.30807,-26.50444 c -1.31675,-7.29546 -2.29405,-7.76695 -12.8576,-6.20326 -9.94582,1.47226 -11.81752,2.6101 -14.39296,8.74994 -5.72237,13.64193 4.03263,19.22907 18.92653,10.84009 8.26287,-4.65401 9.53187,-6.69483 8.32403,-13.38677 z M 180.41708,966.37231 c -2.24803,-7.22019 -7.79777,-21.04898 -12.33276,-30.73065 -7.44416,-15.89248 -7.74676,-17.83666 -3.11366,-20.00684 2.82246,-1.32206 5.69165,-1.2085 6.37593,0.25239 0.85764,1.83096 2.39952,1.10872 4.96309,-2.32476 6.03395,-8.08156 18.79899,-12.58647 27.12452,-9.57247 4.22011,1.52778 7.50651,4.21233 7.30306,5.96573 -0.45451,3.91689 -7.38224,7.46836 -8.77369,4.49779 -0.55492,-1.1847 -4.57951,-2.11642 -8.9435,-2.07047 -6.37866,0.0672 -9.10597,1.60704 -13.90833,7.85276 l -5.97372,7.76916 11.24295,21.05324 c 6.1836,11.57924 10.3897,21.45283 9.34687,21.94134 -1.04282,0.48845 -3.54471,2.60089 -5.55971,4.69422 -3.27647,3.40385 -4.09577,2.41851 -7.75105,-9.32144 z M 351.834,893.7797 c -3.27757,-2.44713 -7.84078,-11.21552 -12.43721,-23.89842 l -7.26016,-20.03313 -6.76863,3.17048 c -4.30596,2.01697 -7.42454,1.77017 -8.57144,-0.67833 -1.20188,-2.56586 0.76305,-5.05071 5.89483,-7.45447 7.69765,-3.60565 7.69765,-3.60565 0.48635,-19.00094 -5.60878,-11.97413 -6.35603,-15.79591 -3.36247,-17.19812 3.00117,-1.40579 5.46594,1.64954 11.1916,13.87321 l 7.34279,15.67599 8.48951,-5.25501 c 6.92386,-4.28589 8.88827,-4.40365 10.65189,-0.63849 1.72159,3.67537 0.07,5.59662 -8.10109,9.42406 l -10.26352,4.80753 9.54413,20.37563 c 5.33431,11.38815 11.06774,20.55241 12.99835,20.77643 4.68554,0.54369 12.62387,-12.83417 10.41452,-17.55086 -0.9763,-2.0843 -3.38356,-3.03625 -5.34941,-2.11545 -1.96586,0.92083 -5.05018,0.25355 -6.85407,-1.48278 -5.18475,-4.99075 8.16127,-9.788 14.35826,-5.16112 6.7633,5.04969 6.30015,14.23304 -1.21047,24.00105 -7.76659,10.10083 -15.02817,12.96613 -21.19375,8.36271 z M 86.394443,981.22128 c -9.201038,-39.79015 -10.771825,-56.02406 -6.642371,-68.64834 8.188883,-25.03473 31.742718,-12.09653 70.697458,38.83435 8.92069,11.6633 17.8232,22.94343 19.78334,25.06702 2.74285,2.97161 2.12133,4.53684 -2.6958,6.79319 -5.31199,2.48818 -7.22964,1.50399 -12.66636,-6.50077 -9.05837,-13.33702 -28.22752,-21.27699 -39.08738,-16.19011 -9.32483,4.36783 -13.74794,14.41135 -9.93322,22.5553 1.36456,2.91319 4.4849,5.15288 6.93404,4.97713 4.47553,-0.32122 9.55789,-9.84724 7.54569,-14.14308 -0.5931,-1.26615 0.96491,-2.44871 3.46231,-2.62801 10.79701,-0.77486 7.9946,16.15991 -3.57065,21.57722 -14.96477,7.0095 -25.606435,-7.44571 -18.9722,-25.77135 4.63785,-12.81117 9.30603,-15.63993 24.94694,-15.11693 l 11.38666,0.38064 -10.79315,-13.70072 c -5.93624,-7.53542 -15.42482,-17.73257 -21.08574,-22.66032 -13.755245,-11.97373 -20.707032,-7.86482 -21.188417,12.52363 -0.35519,15.04332 9.446661,55.90154 17.572247,73.24887 4.07167,8.6925 3.9046,10.2766 -1.34321,12.7347 l -5.993251,2.8072 -8.356936,-36.13962 z M 242.9706,916.25798 c -9.07401,-21.5876 -11.67255,-25.94755 -14.0994,-23.65698 -1.63636,1.54448 -2.16965,5.48845 -1.18503,8.76445 2.17615,7.24065 -2.09921,10.08325 -5.20215,3.4588 -2.89735,-6.18549 2.34184,-18.47827 8.05005,-18.88795 6.31608,-0.45331 17.65926,13.7375 27.16159,33.98032 7.66393,16.3281 7.79332,17.4693 2.26308,20.05973 -5.79052,2.71233 -6.00313,2.41551 -16.98814,-23.71837 z M 211.0632,880.137 c -8.61501,-4.05592 -9.18901,-14.24582 -1.35058,-23.97629 13.3587,-16.58322 28.35966,-8.16493 19.78332,11.10208 -1.64516,3.69586 -4.96787,6.86158 -7.38388,7.03499 -5.75813,0.41327 -9.56443,-7.93747 -5.52879,-12.12998 1.95718,-2.03326 3.85486,-1.78993 4.99306,0.63998 1.00982,2.15585 2.65642,2.66528 3.65914,1.13205 2.74972,-4.20467 -2.33016,-12.9884 -6.40717,-11.07868 -1.96051,0.9183 -5.24398,5.18057 -7.29657,9.4717 -3.22965,6.75181 -2.96837,8.3084 1.94106,11.56373 3.12021,2.06897 5.95087,4.35473 6.29034,5.07949 1.24603,2.66013 -4.02223,3.36313 -8.69986,1.16091 z m -31.7226,-15.03717 c -10.62877,-5.75282 -10.34177,-6.2167 4.22725,-6.83303 5.85182,-0.24755 11.47854,1.34081 12.50382,3.52966 3.12273,6.66667 -6.87141,8.63991 -16.73107,3.30337 z m 18.66823,-16.69017 c -1.95308,-1.87995 -5.53064,-7.65561 -7.9502,-12.83481 l -4.39845,-9.41702 9.29422,6.15926 c 9.66069,6.40207 13.2426,13.20979 9.04647,17.19353 -1.34221,1.27425 -4.03833,0.77866 -5.99135,-1.10128 z m 20.55903,-8.27903 c -1.69841,-1.11073 -0.8466,-8.19765 1.8929,-15.74872 l 4.98093,-13.72925 1.56328,14.12981 c 1.49786,13.53832 -1.86113,19.6487 -8.43711,15.34816 z"
         style="fill:#ffffff" />
    </g>
  </g>
</svg>
