<?xml version="1.0" encoding="UTF-8" standalone="no"?>
<!-- Generator: Adobe Illustrator 19.0.0, SVG Export Plug-In . SVG Version: 6.00 Build 0)  -->

<svg
   xmlns:dc="http://purl.org/dc/elements/1.1/"
   xmlns:cc="http://creativecommons.org/ns#"
   xmlns:rdf="http://www.w3.org/1999/02/22-rdf-syntax-ns#"
   xmlns:svg="http://www.w3.org/2000/svg"
   xmlns="http://www.w3.org/2000/svg"
   xmlns:sodipodi="http://sodipodi.sourceforge.net/DTD/sodipodi-0.dtd"
   xmlns:inkscape="http://www.inkscape.org/namespaces/inkscape"
   version="1.1"
   id="Layer_1"
   x="0px"
   y="0px"
   viewBox="0 0 500 500"
   xml:space="preserve"
   inkscape:version="0.91 r13725"
   width="100%"
   height="100%"
   sodipodi:docname="basex.svg"><metadata
     id="metadata57"><rdf:RDF><cc:Work
         rdf:about=""><dc:format>image/svg+xml</dc:format><dc:type
           rdf:resource="http://purl.org/dc/dcmitype/StillImage" /></cc:Work></rdf:RDF></metadata><defs
     id="defs55" /><sodipodi:namedview
     pagecolor="#ffffff"
     bordercolor="#666666"
     borderopacity="1"
     objecttolerance="10"
     gridtolerance="10"
     guidetolerance="10"
     inkscape:pageopacity="0"
     inkscape:pageshadow="2"
     inkscape:window-width="1366"
     inkscape:window-height="715"
     id="namedview53"
     showgrid="false"
     inkscape:zoom="0.37165185"
     inkscape:cx="321.88277"
     inkscape:cy="536.30524"
     inkscape:window-x="0"
     inkscape:window-y="24"
     inkscape:window-maximized="1"
     inkscape:current-layer="Layer_1" /><g
     id="g23"
     transform="translate(0,39.767)" /><g
     id="g25"
     transform="translate(0,39.767)" /><g
     id="g27"
     transform="translate(0,39.767)" /><g
     id="g29"
     transform="translate(0,39.767)" /><g
     id="g31"
     transform="translate(0,39.767)" /><g
     id="g33"
     transform="translate(0,39.767)" /><g
     id="g35"
     transform="translate(0,39.767)" /><g
     id="g37"
     transform="translate(0,39.767)" /><g
     id="g39"
     transform="translate(0,39.767)" /><g
     id="g41"
     transform="translate(0,39.767)" /><g
     id="g43"
     transform="translate(0,39.767)" /><g
     id="g45"
     transform="translate(0,39.767)" /><g
     id="g47"
     transform="translate(0,39.767)" /><g
     id="g49"
     transform="translate(0,39.767)" /><g
     id="g51"
     transform="translate(0,39.767)" /><path
     style="fill:#f03916;fill-opacity:1"
     d="m 42.026985,425.00245 0,-28.93276 12.055318,-0.0129 c 18.166143,-0.0193 28.670407,-8.31531 68.674797,-54.24543 l 36.60831,-42.03008 90.6567,-0.0771 90.65673,-0.0772 23.16013,28.12908 c 45.75315,55.56933 60.65365,68.31347 79.8723,68.31347 l 9.8039,0 0,28.93276 0,28.93277 -98.04992,0 -98.04992,0 0,-28.93277 0,-28.93276 17.68113,0 c 16.36858,0 17.68113,-0.55561 17.68113,-7.4843 0,-6.92023 -51.21973,-79.59474 -57.71321,-81.88795 -2.95738,-1.04437 -54.50688,60.43441 -60.99701,72.746 -6.27799,11.90921 -2.2692,16.62625 14.12989,16.62625 l 14.56729,0 0,28.93276 0,28.93277 -80.36878,0 -80.368785,0 0,-28.93277 z M 132.04002,154.46673 C 113.47483,131.26429 94.842524,110.02166 90.634927,107.26089 86.4273,104.50013 77.024152,101.4457 69.739043,100.47323 l -13.245676,-1.768076 -0.928839,-28.129077 -0.92887,-28.129075 96.567722,0 96.56769,0 0,26.786595 0,26.786597 -15.24509,2.94986 c -10.58103,2.047376 -15.57515,4.693986 -16.32393,8.650696 -0.86914,4.59276 42.19262,69.84582 46.09263,69.84582 1.72982,0 45.24946,-55.84564 49.04209,-62.93224 4.78635,-8.9434 1.334,-12.8782 -13.33167,-15.194576 -6.84951,-1.08186 -12.93886,-2.45225 -13.53188,-3.04527 -0.59303,-0.59303 -2.06844,-12.951343 -3.27863,-27.462859 l -2.2004,-26.384623 80.83097,0 80.831,0 0,28.932763 0,28.932765 -9.96209,0 c -18.78396,0 -31.74143,9.89645 -69.88844,53.37829 l -37.4879,42.73054 -78.76141,0.11573 -78.76141,0.11573 -33.75489,-42.18628 z"
     id="path4171"
     inkscape:connector-curvature="0"
     sodipodi:nodetypes="ccsscccsscccccccsscssccccccccsscccccccssssssscccccssccccc" /><g
     transform="translate(39.015008,-17.489487)"
     style="font-style:normal;font-weight:normal;font-size:120.99446106px;line-height:125%;font-family:sans-serif;letter-spacing:0px;word-spacing:0px;fill:#394050;fill-opacity:1;stroke:none;stroke-width:1px;stroke-linecap:butt;stroke-linejoin:miter;stroke-opacity:1"
     id="flowRoot4173"><path
       d="m 78.014476,255.3287 q 5.376219,0 8.152947,-2.36317 2.776728,-2.36318 2.776728,-6.97136 0,-4.54911 -2.776728,-6.91228 -2.776728,-2.42226 -8.152947,-2.42226 l -12.583897,0 0,18.66907 12.583897,0 z m 0.768031,38.5788 q 6.853202,0 10.279803,-2.89489 3.48568,-2.89488 3.48568,-8.74374 0,-5.73069 -3.426601,-8.5665 -3.426601,-2.89489 -10.338882,-2.89489 l -13.351928,0 0,23.10002 13.351928,0 z m 21.150399,-31.7256 q 7.325834,2.12686 11.343234,7.85755 4.01739,5.7307 4.01739,14.06088 0,12.76114 -8.62558,19.02355 -8.625582,6.2624 -26.231222,6.2624 l -37.75169,0 0,-88.20543 34.147851,0 q 18.373671,0 26.585701,5.55346 8.2711,5.55345 8.2711,17.78287 0,6.43965 -3.01304,10.98876 -3.01305,4.49003 -8.743744,6.67596 z"
       style="font-style:normal;font-variant:normal;font-weight:bold;font-stretch:normal;font-family:'DejaVu Sans';-inkscape-font-specification:'DejaVu Sans Bold';fill:#394050;fill-opacity:1"
       id="path4182"
       inkscape:connector-curvature="0" /><path
       d="m 188.37466,293.31671 -35.56576,0 -5.61253,16.06957 -22.8637,0 32.67087,-88.20543 27.11741,0 32.67086,88.20543 -22.8637,0 -5.55345,-16.06957 z m -29.89414,-16.36498 24.16344,0 -12.05218,-35.09312 -12.11126,35.09312 z"
       style="font-style:normal;font-variant:normal;font-weight:bold;font-stretch:normal;font-family:'DejaVu Sans';-inkscape-font-specification:'DejaVu Sans Bold';fill:#394050;fill-opacity:1"
       id="path4184"
       inkscape:connector-curvature="0" /><path
       d="m 289.81385,223.95758 0,18.66906 q -7.26676,-3.24936 -14.17904,-4.90358 -6.91228,-1.65422 -13.05653,-1.65422 -8.15295,0 -12.05218,2.24501 -3.89924,2.24502 -3.89924,6.97136 0,3.54476 2.59949,5.55346 2.65857,1.94962 9.57085,3.36752 l 9.68901,1.94962 q 14.71076,2.95397 20.91409,8.98006 6.20332,6.02609 6.20332,17.133 0,14.5926 -8.68466,21.7412 -8.62558,7.08951 -26.40846,7.08951 -8.38926,0 -16.8376,-1.59514 -8.44835,-1.59514 -16.89669,-4.72634 l 0,-19.20078 q 8.44834,4.49002 16.30589,6.79412 7.91663,2.24501 15.24247,2.24501 7.44399,0 11.40231,-2.48133 3.95831,-2.48133 3.95831,-7.08952 0,-4.13555 -2.71764,-6.38057 -2.65857,-2.24501 -10.69336,-4.01739 l -8.80282,-1.94962 q -13.23377,-2.83581 -19.37802,-9.03914 -6.08517,-6.20332 -6.08517,-16.71944 0,-13.17469 8.50742,-20.26421 8.50742,-7.08952 24.45884,-7.08952 7.26676,0 14.94707,1.1225 7.68031,1.06343 15.89234,3.24937 z"
       style="font-style:normal;font-variant:normal;font-weight:bold;font-stretch:normal;font-family:'DejaVu Sans';-inkscape-font-specification:'DejaVu Sans Bold';fill:#394050;fill-opacity:1"
       id="path4186"
       inkscape:connector-curvature="0" /><path
       d="m 315.63151,221.18085 61.38342,0 0,17.19208 -38.63788,0 0,16.42406 36.33379,0 0,17.19208 -36.33379,0 0,20.20513 39.93763,0 0,17.19208 -62.68317,0 0,-88.20543 z"
       style="font-style:normal;font-variant:normal;font-weight:bold;font-stretch:normal;font-family:'DejaVu Sans';-inkscape-font-specification:'DejaVu Sans Bold';fill:#394050;fill-opacity:1"
       id="path4188"
       inkscape:connector-curvature="0" /></g></svg>