<?xml version="1.0" encoding="UTF-8" standalone="no"?>
<!-- Created with Inkscape (http://www.inkscape.org/) -->

<svg
   xmlns:dc="http://purl.org/dc/elements/1.1/"
   xmlns:cc="http://creativecommons.org/ns#"
   xmlns:rdf="http://www.w3.org/1999/02/22-rdf-syntax-ns#"
   xmlns:svg="http://www.w3.org/2000/svg"
   xmlns="http://www.w3.org/2000/svg"
   xmlns:sodipodi="http://sodipodi.sourceforge.net/DTD/sodipodi-0.dtd"
   xmlns:inkscape="http://www.inkscape.org/namespaces/inkscape"
   id="svg2"
   version="1.1"
   inkscape:version="0.91 r13725"
   width="1024"
   height="1024"
   sodipodi:docname="bitstormlite.svg">
  <metadata
     id="metadata8">
    <rdf:RDF>
      <cc:Work
         rdf:about="">
        <dc:format>image/svg+xml</dc:format>
        <dc:type
           rdf:resource="http://purl.org/dc/dcmitype/StillImage" />
        <dc:title />
      </cc:Work>
    </rdf:RDF>
  </metadata>
  <defs
     id="defs6" />
  <sodipodi:namedview
     pagecolor="#ffffff"
     bordercolor="#666666"
     borderopacity="1"
     objecttolerance="10"
     gridtolerance="10"
     guidetolerance="10"
     inkscape:pageopacity="0"
     inkscape:pageshadow="2"
     inkscape:window-width="1366"
     inkscape:window-height="715"
     id="namedview4"
     showgrid="false"
     inkscape:zoom="0.16296602"
     inkscape:cx="141.12392"
     inkscape:cy="577.96353"
     inkscape:window-x="0"
     inkscape:window-y="24"
     inkscape:window-maximized="1"
     inkscape:current-layer="svg2" />
  <g
     id="g4184"
     transform="translate(-1323.1718,54.083107)">
    <ellipse
       ry="474.50458"
       rx="474.50461"
       cy="447.53394"
       cx="1836.9408"
       id="path3333"
       style="fill:#892ca0;fill-opacity:1;stroke:none;stroke-width:0.99082142;stroke-linecap:round;stroke-miterlimit:4;stroke-dasharray:none;stroke-opacity:1" />
    <path
       inkscape:connector-curvature="0"
       id="path4135"
       d="m 1813.834,84.752287 a 35.0035,35.0035 0 0 0 -9.3671,0.97656 c 0,0 -73.1019,16.613713 -146.1192,71.492193 -73.0173,54.87848 -148.2594,151.9198 -151.8379,303.41797 l -0.01,0.45117 0,0.45117 c 0.1459,68.44447 16.4455,161.54547 74.0019,242.15039 57.5565,80.60492 158.0942,145.40562 312.1699,152.64648 l 0.752,0.0352 181.9726,0.72266 a 474.50461,474.50458 0 0 0 92.5625,-69.63282 l -272.5058,-1.08203 c -136.3216,-6.5298 -211.938,-58.88422 -257.9824,-123.36718 -45.9917,-64.40899 -60.7634,-144.18256 -60.9551,-201.19141 3.2019,-129.41947 63.2575,-203.07328 123.8887,-248.64258 60.7066,-45.62601 119.6679,-59.21289 119.6679,-59.21289 a 35.0035,35.0035 0 0 0 -6.2383,-69.214843 z"
       style="color:#000000;font-style:normal;font-variant:normal;font-weight:normal;font-stretch:normal;font-size:medium;line-height:normal;font-family:sans-serif;text-indent:0;text-align:start;text-decoration:none;text-decoration-line:none;text-decoration-style:solid;text-decoration-color:#000000;letter-spacing:normal;word-spacing:normal;text-transform:none;direction:ltr;block-progression:tb;writing-mode:lr-tb;baseline-shift:baseline;text-anchor:start;white-space:normal;clip-rule:nonzero;display:inline;overflow:visible;visibility:visible;opacity:1;isolation:auto;mix-blend-mode:normal;color-interpolation:sRGB;color-interpolation-filters:linearRGB;solid-color:#000000;solid-opacity:1;fill:#ffffff;fill-opacity:1;fill-rule:evenodd;stroke:none;stroke-width:70;stroke-linecap:round;stroke-linejoin:miter;stroke-miterlimit:4;stroke-dasharray:none;stroke-dashoffset:0;stroke-opacity:1;color-rendering:auto;image-rendering:auto;shape-rendering:auto;text-rendering:auto;enable-background:accumulate" />
    <path
       inkscape:connector-curvature="0"
       id="path4135-3"
       d="m 1865.3438,177.72299 a 35.0035,35.0035 0 0 0 -5.9355,0.22266 c 0,0 -61.7766,6.50248 -123.9766,45.90234 -62.2,39.39986 -126.6343,116.20028 -130.2676,242.72656 l -0.016,0.54688 0,0.54492 c 0.1501,60.6896 17.3384,137.03619 73.4765,198.04297 55.9452,60.79707 149.45,102.02597 288.2403,96.98437 l 223.3417,0.88672 a 474.50461,474.50458 0 0 0 51.6465,-69.79687 l -275.5293,-1.0918 -0.7441,0.0273 c -125.1072,4.8219 -194.4327,-29.84065 -235.4453,-74.41015 -40.8778,-44.423 -54.7597,-102.98266 -54.9668,-150.33594 3.1797,-104.36553 50.1569,-154.8615 97.7207,-184.99023 47.6595,-30.18938 94.082,-35.44532 94.082,-35.44532 a 35.0035,35.0035 0 0 0 -1.6289,-69.81445 z"
       style="color:#000000;font-style:normal;font-variant:normal;font-weight:normal;font-stretch:normal;font-size:medium;line-height:normal;font-family:sans-serif;text-indent:0;text-align:start;text-decoration:none;text-decoration-line:none;text-decoration-style:solid;text-decoration-color:#000000;letter-spacing:normal;word-spacing:normal;text-transform:none;direction:ltr;block-progression:tb;writing-mode:lr-tb;baseline-shift:baseline;text-anchor:start;white-space:normal;clip-rule:nonzero;display:inline;overflow:visible;visibility:visible;opacity:1;isolation:auto;mix-blend-mode:normal;color-interpolation:sRGB;color-interpolation-filters:linearRGB;solid-color:#000000;solid-opacity:1;fill:#cccccc;fill-opacity:1;fill-rule:evenodd;stroke:none;stroke-width:70;stroke-linecap:round;stroke-linejoin:miter;stroke-miterlimit:4;stroke-dasharray:none;stroke-dashoffset:0;stroke-opacity:1;color-rendering:auto;image-rendering:auto;shape-rendering:auto;text-rendering:auto;enable-background:accumulate" />
    <path
       inkscape:connector-curvature="0"
       id="path4135-3-6"
       d="m 1912.0704,273.15463 a 35.0035,35.0035 0 0 0 -2.4453,0.0391 c 0,0 -47.2946,1.36876 -96.7832,22.96094 -49.4887,21.59218 -106.0069,70.18047 -110.0235,152.33203 l -0.084,1.7207 0.086,1.72071 c 2.4536,49.50228 12.4881,110.74659 62.8476,154.82812 50.1898,43.9329 131.8968,65.59502 264.8262,58.28516 l 227.25,0.90039 a 474.50461,474.50458 0 0 0 29.4785,-69.88086 l -258.2929,-1.02734 -1.0528,0.0605 c -124.4541,7.00922 -186.1259,-14.76729 -216.1035,-41.00781 -29.5265,-25.84563 -36.6446,-61.14543 -38.9102,-103.70508 3.1308,-52.5784 32.8983,-74.76325 67.9727,-90.0664 35.4217,-15.45469 71.377,-17.16797 71.377,-17.16797 a 35.0035,35.0035 0 0 0 -0.1426,-69.99219 z"
       style="color:#000000;font-style:normal;font-variant:normal;font-weight:normal;font-stretch:normal;font-size:medium;line-height:normal;font-family:sans-serif;text-indent:0;text-align:start;text-decoration:none;text-decoration-line:none;text-decoration-style:solid;text-decoration-color:#000000;letter-spacing:normal;word-spacing:normal;text-transform:none;direction:ltr;block-progression:tb;writing-mode:lr-tb;baseline-shift:baseline;text-anchor:start;white-space:normal;clip-rule:nonzero;display:inline;overflow:visible;visibility:visible;opacity:1;isolation:auto;mix-blend-mode:normal;color-interpolation:sRGB;color-interpolation-filters:linearRGB;solid-color:#000000;solid-opacity:1;fill:#999999;fill-opacity:1;fill-rule:evenodd;stroke:none;stroke-width:70;stroke-linecap:round;stroke-linejoin:miter;stroke-miterlimit:4;stroke-dasharray:none;stroke-dashoffset:0;stroke-opacity:1;color-rendering:auto;image-rendering:auto;shape-rendering:auto;text-rendering:auto;enable-background:accumulate" />
  </g>
</svg>
