<?xml version="1.0" encoding="UTF-8" standalone="no"?>
<svg
   xmlns:dc="http://purl.org/dc/elements/1.1/"
   xmlns:cc="http://creativecommons.org/ns#"
   xmlns:rdf="http://www.w3.org/1999/02/22-rdf-syntax-ns#"
   xmlns:svg="http://www.w3.org/2000/svg"
   xmlns="http://www.w3.org/2000/svg"
   xmlns:sodipodi="http://sodipodi.sourceforge.net/DTD/sodipodi-0.dtd"
   xmlns:inkscape="http://www.inkscape.org/namespaces/inkscape"
   viewBox="0 0 500 500"
   id="svg2"
   version="1.1"
   inkscape:version="0.48.5 r10040"
   width="100%"
   height="100%"
   sodipodi:docname="boinc.svg">
  <metadata
     id="metadata65">
    <rdf:RDF>
      <cc:Work
         rdf:about="">
        <dc:format>image/svg+xml</dc:format>
        <dc:type
           rdf:resource="http://purl.org/dc/dcmitype/StillImage" />
        <dc:title />
      </cc:Work>
    </rdf:RDF>
  </metadata>
  <sodipodi:namedview
     pagecolor="#ffffff"
     bordercolor="#666666"
     borderopacity="1"
     objecttolerance="10"
     gridtolerance="10"
     guidetolerance="10"
     inkscape:pageopacity="0"
     inkscape:pageshadow="2"
     inkscape:window-width="991"
     inkscape:window-height="621"
     id="namedview63"
     showgrid="false"
     inkscape:zoom="0.43457604"
     inkscape:cx="-238.35386"
     inkscape:cy="8.7599153"
     inkscape:window-x="15"
     inkscape:window-y="39"
     inkscape:window-maximized="0"
     inkscape:current-layer="svg2" />
  <defs
     id="defs4">
    <linearGradient
       id="linearGradient3764"
       x1="1"
       x2="47"
       gradientUnits="userSpaceOnUse"
       gradientTransform="matrix(0,-1,1,0,-1.5e-6,47.999998)">
      <stop
         stop-color="#a2c7d4"
         stop-opacity="1"
         id="stop7" />
      <stop
         offset="1"
         stop-color="#b0d0da"
         stop-opacity="1"
         id="stop9" />
    </linearGradient>
    <clipPath
       id="clipPath-151847698">
      <g
         transform="translate(0,-1004.3622)"
         id="g12">
        <path
           d="m -24,13 c 0,1.105 -0.672,2 -1.5,2 -0.828,0 -1.5,-0.895 -1.5,-2 0,-1.105 0.672,-2 1.5,-2 0.828,0 1.5,0.895 1.5,2 z"
           transform="matrix(15.333333,0,0,11.5,414.99999,878.8622)"
           id="path14"
           inkscape:connector-curvature="0"
           style="fill:#1890d0" />
      </g>
    </clipPath>
    <clipPath
       id="clipPath-161400002">
      <g
         transform="translate(0,-1004.3622)"
         id="g17">
        <path
           d="m -24,13 c 0,1.105 -0.672,2 -1.5,2 -0.828,0 -1.5,-0.895 -1.5,-2 0,-1.105 0.672,-2 1.5,-2 0.828,0 1.5,0.895 1.5,2 z"
           transform="matrix(15.333333,0,0,11.5,414.99999,878.8622)"
           id="path19"
           inkscape:connector-curvature="0"
           style="fill:#1890d0" />
      </g>
    </clipPath>
  </defs>
  <g
     id="g33"
     transform="translate(0,452)" />
  <g
     id="g3773"
     transform="matrix(3.7866901,0,0,3.7866901,6.5799974,6.9651036)">
    <path
       d="m 85.167902,64.179072 c 0,11.531344 -9.355791,20.887135 -20.887135,20.887135 -11.531344,0 -20.887136,-9.355791 -20.887136,-20.887135 0,-11.531344 9.355792,-20.887136 20.887136,-20.887136 11.531344,0 20.887135,9.355792 20.887135,20.887136 m 0,0"
       id="path55"
       inkscape:connector-curvature="0"
       style="fill:#ffcc00;fill-opacity:1;fill-rule:nonzero;stroke:none" />
    <path
       d="m 12.254888,4.7627122 -7.3904808,7.3904808 26.4402798,26.458562 0,0.105121 7.408763,7.390482 c 5.676548,-8.016639 14.995775,-13.281842 25.567317,-13.281842 4.090588,0 7.961792,0.872963 11.531344,2.285244 L 83.6505,27.290653 c -5.804521,-3.08965 -12.33575,-4.908705 -19.369733,-4.908705 -9.639162,0 -18.49677,3.336457 -25.567317,8.821044 M 116.30665,4.7627122 89.848083,31.202992 c -0.03656,-0.03656 -0.05485,-0.07313 -0.105121,-0.105121 l -7.390481,7.390481 c 8.053202,5.676548 13.26356,15.105467 13.26356,25.69072 0,4.122581 -0.84097,8.03492 -2.285245,11.641036 l 7.838394,7.838389 c 3.10793,-5.818233 4.9087,-12.42716 4.9087,-19.479425 0,-9.639162 -3.33646,-18.49677 -8.821044,-25.567317 L 123.69713,12.171475 116.28836,4.7627122 M 27.396919,44.699647 c -3.126215,5.818233 -4.908705,12.408878 -4.908705,19.479425 0,9.639162 3.336457,18.49677 8.821044,25.567316 l -26.4402803,26.440282 7.3904813,7.40876 7.838389,-7.83839 -0.105122,-0.10512 L 46.00338,89.641267 C 38.096434,83.946438 32.936352,74.663774 32.936352,64.16536 c 0,-4.104299 0.859252,-8.03492 2.285244,-11.641036 l -7.820107,-7.838389 m 62.451165,37.564851 c -5.676548,8.016638 -14.995775,13.26356 -25.567317,13.26356 -4.213991,0 -8.194887,-0.891246 -11.855849,-2.390366 l -7.838389,7.83839 c 5.873079,3.17649 12.550564,5.00011 19.694238,5.00011 9.639162,0 18.49677,-3.32274 25.567317,-8.802758 L 116.29293,123.6 123.7017,116.19124 108.13461,100.51446 97.261417,89.750959 c 0.01828,-0.01828 -0.01828,-0.09141 0,-0.105121 l -7.408763,-7.408763 m 0,0.01828"
       id="path57"
       inkscape:connector-curvature="0"
       style="fill:#00bbf2;fill-opacity:1;fill-rule:nonzero;stroke:none" />
  </g>
</svg>
