<?xml version="1.0" encoding="UTF-8" standalone="no"?>
<!-- Generator: Adobe Illustrator 13.0.0, SVG Export Plug-In . SVG Version: 6.00 Build 14948)  -->

<svg
   xmlns:dc="http://purl.org/dc/elements/1.1/"
   xmlns:cc="http://creativecommons.org/ns#"
   xmlns:rdf="http://www.w3.org/1999/02/22-rdf-syntax-ns#"
   xmlns:svg="http://www.w3.org/2000/svg"
   xmlns="http://www.w3.org/2000/svg"
   xmlns:sodipodi="http://sodipodi.sourceforge.net/DTD/sodipodi-0.dtd"
   xmlns:inkscape="http://www.inkscape.org/namespaces/inkscape"
   version="1.1"
   id="Layer_1"
   x="0px"
   y="0px"
   width="500"
   height="500"
   viewBox="0 0 500 500"
   enable-background="new 0 0 128 128"
   xml:space="preserve"
   inkscape:version="0.91 r13725"
   sodipodi:docname="bovo.svg"><metadata
     id="metadata45"><rdf:RDF><cc:Work
         rdf:about=""><dc:format>image/svg+xml</dc:format><dc:type
           rdf:resource="http://purl.org/dc/dcmitype/StillImage" /><dc:title /></cc:Work></rdf:RDF></metadata><defs
     id="defs43" /><sodipodi:namedview
     pagecolor="#ffffff"
     bordercolor="#666666"
     borderopacity="1"
     objecttolerance="10"
     gridtolerance="10"
     guidetolerance="10"
     inkscape:pageopacity="0"
     inkscape:pageshadow="2"
     inkscape:window-width="1366"
     inkscape:window-height="715"
     id="namedview41"
     showgrid="false"
     inkscape:zoom="0.4609375"
     inkscape:cx="250.83532"
     inkscape:cy="61.458672"
     inkscape:window-x="0"
     inkscape:window-y="24"
     inkscape:window-maximized="1"
     inkscape:current-layer="g20" /><g
     id="g3"
     transform="translate(0,372)"><radialGradient
       id="SVGID_1_"
       cx="63.974602"
       cy="64"
       r="62.054699"
       gradientUnits="userSpaceOnUse"><stop
         offset="0"
         style="stop-color:#FAFAFA"
         id="stop6" /><stop
         offset="0.3109"
         style="stop-color:#F4F4F4"
         id="stop8" /><stop
         offset="0.7262"
         style="stop-color:#E3E3E3"
         id="stop10" /><stop
         offset="1"
         style="stop-color:#D4D4D4"
         id="stop12" /></radialGradient><g
       id="g20"><g
         id="g22"><g
           id="g24"><linearGradient
             id="SVGID_2_"
             gradientUnits="userSpaceOnUse"
             x1="-348.6196"
             y1="838.53607"
             x2="-348.6196"
             y2="921.44427"
             gradientTransform="translate(412.6201,-813.9912)"><stop
               offset="0"
               style="stop-color:#EC008C"
               id="stop27" /><stop
               offset="1"
               style="stop-color:#C4008C"
               id="stop29" /></linearGradient></g></g><g
         id="g4150"><path
           inkscape:connector-curvature="0"
           style="fill:#f03916;fill-opacity:1"
           id="path31"
           d="M 461.40415,-48.977959 H 350.18555 V -195.02249 h 111.2186 c 7.50181,0 13.59113,-6.07987 13.59113,-13.58169 0,-7.51127 -6.08932,-13.59115 -13.59113,-13.59115 h -111.2186 v -111.21398 c 0,-7.50181 -6.07987,-13.58169 -13.58168,-13.58169 -7.51126,0 -13.59113,6.07988 -13.59113,13.58169 V -222.1906 H 176.96836 v -111.21871 c 0,-7.50181 -6.07987,-13.58169 -13.58168,-13.58169 -7.51126,0 -13.59113,6.07988 -13.59113,13.58169 V -222.1906 H 38.581679 C 31.079868,-222.1906 25,-216.11073 25,-208.59946 c 0,7.50182 6.079868,13.58169 13.581679,13.58169 H 149.80028 V -48.973235 H 38.581679 C 31.079868,-48.973235 25,-42.893361 25,-35.391542 c 0,7.511266 6.079868,13.59114 13.581679,13.59114 H 149.80028 V 89.41831 c 0,7.50181 6.07987,13.58169 13.59112,13.58169 7.50182,0 13.58168,-6.07988 13.58168,-13.58169 V -21.805126 H 323.01747 V 89.41359 c 0,7.50181 6.07987,13.58169 13.59113,13.58169 7.50181,0 13.58167,-6.07988 13.58167,-13.58169 V -21.805126 h 111.2186 c 7.50181,0 13.59113,-6.079874 13.59113,-13.59114 -0.005,-7.501819 -6.09404,-13.581693 -13.59585,-13.581693 z m -284.43579,0 V -195.02249 H 323.01274 V -48.977959 H 176.96836 z" /><path
           inkscape:connector-curvature="0"
           style="fill:#394050"
           id="path33"
           d="M 116.85939,72.638422 99.455945,72.610077 84.395635,48.021308 69.108569,72.543941 51.809053,72.638422 76.473383,35.932421 52.805831,0.780639 H 70.228172 L 84.499564,24.197838 98.459168,0.799535 115.86261,0.780635 92.341508,35.922969 116.85939,72.638418 z" /><path
           inkscape:connector-curvature="0"
           style="fill:#394050"
           id="path35"
           d="m 276.69331,-86.217779 -17.39399,-0.02835 -15.06031,-24.588771 -15.28707,24.522634 -17.29952,0.09448 24.65489,-36.696554 -23.66756,-35.15651 h 17.42707 l 14.27139,23.41721 13.95488,-23.39831 17.41289,-0.0189 -23.5211,35.13762 24.50843,36.715444 z" /><path
           inkscape:connector-curvature="0"
           style="fill:#394050"
           id="path37"
           d="m 443.07951,36.636307 c 0,13.13763 -2.79664,22.55742 -8.36631,28.278265 -5.58384,5.711397 -12.80694,8.560009 -21.68345,8.560009 -8.70172,0 -15.84923,-2.867508 -21.48031,-8.645042 -5.61691,-5.768086 -8.423,-15.168979 -8.423,-28.207404 0,-13.047873 2.78719,-22.410974 8.36631,-28.13182 5.57439,-5.711396 12.7408,-8.560009 21.537,-8.560009 8.80093,0 15.99095,2.876957 21.61731,8.645043 5.60746,5.768085 8.43245,15.126463 8.43245,28.060958 z m -14.46035,0 c 0,-9.826059 -1.65343,-16.387789 -4.96499,-19.69936 -2.73996,-2.739959 -6.28301,-4.105214 -10.62914,-4.105214 -4.25166,0 -7.75219,1.365255 -10.4827,4.105214 -3.31156,3.311571 -4.96499,9.873301 -4.96499,19.69936 0,9.826059 1.65343,16.397236 4.96499,19.699359 2.83444,2.843888 6.33025,4.251661 10.4827,4.251661 4.25165,0 7.7947,-1.412497 10.62914,-4.251661 3.31629,-3.302123 4.96499,-9.8733 4.96499,-19.699359 z" /><path
           inkscape:connector-curvature="0"
           style="fill:#394050"
           id="path39"
           d="m 443.07951,-291.16197 c 0,13.13762 -2.79664,22.55741 -8.36631,28.27825 -5.58384,5.7114 -12.80694,8.56001 -21.68345,8.56001 -8.70172,0 -15.84923,-2.87695 -21.48031,-8.64504 -5.61691,-5.75863 -8.423,-15.15953 -8.423,-28.19795 0,-13.03843 2.78719,-22.41098 8.36631,-28.13182 5.57439,-5.72085 12.7408,-8.56946 21.537,-8.56946 8.80093,0 15.99095,2.87696 21.61731,8.64505 5.60746,5.76808 8.43245,15.12645 8.43245,28.06096 z m -14.46035,0 c 0,-9.82606 -1.65343,-16.3878 -4.96499,-19.69936 -2.73996,-2.73997 -6.28301,-4.10522 -10.62914,-4.10522 -4.25166,0 -7.75219,1.36525 -10.4827,4.10522 -3.31156,3.31156 -4.96499,9.8733 -4.96499,19.69936 0,9.82606 1.65343,16.39723 4.96499,19.69936 2.83444,2.84388 6.33025,4.25165 10.4827,4.25165 4.25165,0 7.7947,-1.42194 10.62914,-4.25165 3.31629,-3.30213 4.96499,-9.8733 4.96499,-19.69936 z" /></g></g></g></svg>