<?xml version="1.0" encoding="UTF-8" standalone="no"?>
<svg
   xmlns:dc="http://purl.org/dc/elements/1.1/"
   xmlns:cc="http://creativecommons.org/ns#"
   xmlns:rdf="http://www.w3.org/1999/02/22-rdf-syntax-ns#"
   xmlns:svg="http://www.w3.org/2000/svg"
   xmlns="http://www.w3.org/2000/svg"
   xmlns:sodipodi="http://sodipodi.sourceforge.net/DTD/sodipodi-0.dtd"
   xmlns:inkscape="http://www.inkscape.org/namespaces/inkscape"
   viewBox="0 0 500 500"
   id="svg2"
   version="1.1"
   inkscape:version="0.91 r13725"
   width="100%"
   height="100%"
   sodipodi:docname="cs-notifications.svg">
  <metadata
     id="metadata65">
    <rdf:RDF>
      <cc:Work
         rdf:about="">
        <dc:format>image/svg+xml</dc:format>
        <dc:type
           rdf:resource="http://purl.org/dc/dcmitype/StillImage" />
        <dc:title />
      </cc:Work>
    </rdf:RDF>
  </metadata>
  <sodipodi:namedview
     pagecolor="#ffffff"
     bordercolor="#666666"
     borderopacity="1"
     objecttolerance="10"
     gridtolerance="10"
     guidetolerance="10"
     inkscape:pageopacity="0"
     inkscape:pageshadow="2"
     inkscape:window-width="1366"
     inkscape:window-height="715"
     id="namedview63"
     showgrid="false"
     inkscape:zoom="0.61458334"
     inkscape:cx="-32.628983"
     inkscape:cy="323.24999"
     inkscape:window-x="0"
     inkscape:window-y="24"
     inkscape:window-maximized="1"
     inkscape:current-layer="svg2" />
  <defs
     id="defs4">
    <linearGradient
       id="linearGradient3764"
       x1="1"
       x2="47"
       gradientUnits="userSpaceOnUse"
       gradientTransform="matrix(0,-1,1,0,-1.5e-6,47.999998)">
      <stop
         stop-color="#3d3d3d"
         stop-opacity="1"
         id="stop7" />
      <stop
         offset="1"
         stop-color="#474747"
         stop-opacity="1"
         id="stop9" />
    </linearGradient>
    <clipPath
       id="clipPath-156864852">
      <g
         transform="translate(0,-1004.3622)"
         id="g12">
        <path
           d="m -24,13 c 0,1.105 -0.672,2 -1.5,2 -0.828,0 -1.5,-0.895 -1.5,-2 0,-1.105 0.672,-2 1.5,-2 0.828,0 1.5,0.895 1.5,2 z"
           transform="matrix(15.333333,0,0,11.5,414.99999,878.8622)"
           id="path14"
           inkscape:connector-curvature="0"
           style="fill:#1890d0" />
      </g>
    </clipPath>
    <clipPath
       id="clipPath-165128749">
      <g
         transform="translate(0,-1004.3622)"
         id="g17">
        <path
           d="m -24,13 c 0,1.105 -0.672,2 -1.5,2 -0.828,0 -1.5,-0.895 -1.5,-2 0,-1.105 0.672,-2 1.5,-2 0.828,0 1.5,0.895 1.5,2 z"
           transform="matrix(15.333333,0,0,11.5,414.99999,878.8622)"
           id="path19"
           inkscape:connector-curvature="0"
           style="fill:#1890d0" />
      </g>
    </clipPath>
  </defs>
  <g
     id="g33"
     transform="translate(0,452)" />
  <g
     id="g4147">
    <rect
       ry="51.428574"
       y="49.689491"
       x="25"
       height="294.10715"
       width="450"
       id="rect2998"
       style="fill:#ff6600;fill-opacity:1;stroke:none" />
    <path
       sodipodi:nodetypes="cccc"
       inkscape:connector-curvature="0"
       id="path3768"
       d="M 99.254238,331.59322 48.813559,465.83051 224.54237,335.66102 z"
       style="fill:#ff6600;stroke:none;fill-opacity:1" />
    <rect
       ry="42.3256"
       y="78.045143"
       x="55.388878"
       height="242.04951"
       width="389.90823"
       id="rect2998-3"
       style="fill:#ffffff;fill-opacity:1;stroke:none" />
    <path
       sodipodi:nodetypes="ccczcccccczcczccc"
       inkscape:connector-curvature="0"
       id="path3779"
       d="m 209.97477,182.83877 68.28275,-0.19694 0.50199,91.21725 c 0,0 -0.18854,2.36554 1.57018,4.28922 1.75872,1.92366 3.50861,1.9771 3.50861,1.9771 l 15.23634,0.0697 0.13917,11.07049 -86.75671,-0.2089 -0.13916,-11.20972 17.74094,0.0697 c 0,0 2.46337,-0.30023 3.87449,-2.31924 1.41112,-2.01901 1.06516,-4.22558 1.06516,-4.22558 l -0.0696,-73.73355 c 0,0 0.23968,-1.84119 -2.28145,-3.9951 -2.52116,-2.15392 -4.8845,-1.92308 -4.8845,-1.92308 l -17.67135,-0.20885 z"
       style="fill:#ff6600;stroke:none;fill-opacity:1" />
    <path
       sodipodi:open="true"
       sodipodi:end="6.2784904"
       sodipodi:start="0"
       transform="matrix(1.9260799,0,0,1.9275559,-923.49713,-363.06071)"
       d="m 624.27428,263.50247 a 12.879445,13.131983 0 1 1 -1.4e-4,-0.0617"
       sodipodi:ry="13.131983"
       sodipodi:rx="12.879445"
       sodipodi:cy="263.50247"
       sodipodi:cx="611.39484"
       id="path2997-3"
       style="fill:#ff6600;fill-opacity:1;stroke:none"
       sodipodi:type="arc" />
  </g>
</svg>
