<?xml version="1.0" encoding="UTF-8" standalone="no"?>
<svg
   xmlns:dc="http://purl.org/dc/elements/1.1/"
   xmlns:cc="http://creativecommons.org/ns#"
   xmlns:rdf="http://www.w3.org/1999/02/22-rdf-syntax-ns#"
   xmlns:svg="http://www.w3.org/2000/svg"
   xmlns="http://www.w3.org/2000/svg"
   xmlns:sodipodi="http://sodipodi.sourceforge.net/DTD/sodipodi-0.dtd"
   xmlns:inkscape="http://www.inkscape.org/namespaces/inkscape"
   viewBox="0 0 128 128"
   id="svg2"
   version="1.1"
   inkscape:version="0.91 r13725"
   width="100%"
   height="100%"
   sodipodi:docname="darktable.svg">
  <metadata
     id="metadata85">
    <rdf:RDF>
      <cc:Work
         rdf:about="">
        <dc:format>image/svg+xml</dc:format>
        <dc:type
           rdf:resource="http://purl.org/dc/dcmitype/StillImage" />
        <dc:title />
      </cc:Work>
    </rdf:RDF>
  </metadata>
  <sodipodi:namedview
     pagecolor="#ffffff"
     bordercolor="#666666"
     borderopacity="1"
     objecttolerance="10"
     gridtolerance="10"
     guidetolerance="10"
     inkscape:pageopacity="0"
     inkscape:pageshadow="2"
     inkscape:window-width="1366"
     inkscape:window-height="715"
     id="namedview83"
     showgrid="false"
     inkscape:zoom="1.7383042"
     inkscape:cx="17.512568"
     inkscape:cy="55.159557"
     inkscape:window-x="0"
     inkscape:window-y="24"
     inkscape:window-maximized="1"
     inkscape:current-layer="svg2" />
  <defs
     id="defs4">
    <linearGradient
       id="linearGradient3764"
       x1="1"
       x2="47"
       gradientUnits="userSpaceOnUse"
       gradientTransform="matrix(0,-1,1,0,-1.5e-6,47.999998)">
      <stop
         stop-color="#333"
         stop-opacity="1"
         id="stop7" />
      <stop
         offset="1"
         stop-color="#3d3d3d"
         stop-opacity="1"
         id="stop9" />
    </linearGradient>
    <clipPath
       id="clipPath-250150028">
      <g
         transform="translate(0,-1004.3622)"
         id="g12">
        <path
           d="m -24,13 c 0,1.105 -0.672,2 -1.5,2 -0.828,0 -1.5,-0.895 -1.5,-2 0,-1.105 0.672,-2 1.5,-2 0.828,0 1.5,0.895 1.5,2 z"
           transform="matrix(15.333333,0,0,11.5,414.99999,878.8622)"
           id="path14"
           inkscape:connector-curvature="0"
           style="fill:#1890d0" />
      </g>
    </clipPath>
    <clipPath
       id="clipPath-258929573">
      <g
         transform="translate(0,-1004.3622)"
         id="g17">
        <path
           d="m -24,13 c 0,1.105 -0.672,2 -1.5,2 -0.828,0 -1.5,-0.895 -1.5,-2 0,-1.105 0.672,-2 1.5,-2 0.828,0 1.5,0.895 1.5,2 z"
           transform="matrix(15.333333,0,0,11.5,414.99999,878.8622)"
           id="path19"
           inkscape:connector-curvature="0"
           style="fill:#1890d0" />
      </g>
    </clipPath>
  </defs>
  <g
     id="g33"
     transform="translate(0,80)" />
  <g
     id="g4151">
    <g
       style="fill:#394050"
       transform="matrix(2.4780168,0,0,2.4780168,4.521559,5.1259405)"
       id="g29">
      <path
         inkscape:connector-curvature="0"
         style="fill:#394050;fill-opacity:1"
         id="path31"
         d="M 24,1 C 36.703,1 47,11.297 47,24 47,36.703 36.703,47 24,47 11.297,47 1,36.703 1,24 1,11.297 11.297,1 24,1 z" />
    </g>
    <path
       d="M 76.11864,7.8937489 61.838109,48.06442 118.16094,38.714213 C 109.84349,22.918181 94.482715,11.292744 76.11864,7.8937489 m 0,0"
       id="path65"
       inkscape:connector-curvature="0"
       style="fill:#ff6600;fill-opacity:1;fill-rule:nonzero;stroke:none" />
    <path
       d="M 119.92177,46.703239 77.432338,54.5696 113.83206,98.016603 c 9.72216,-15.024433 12.22689,-33.974132 6.04222,-51.317321 m 0.0475,0"
       id="path67"
       inkscape:connector-curvature="0"
       style="fill:#ffcc00;fill-opacity:1;fill-rule:nonzero;stroke:none" />
    <path
       d="M 107.73445,103.52464 79.557205,71.220327 59.574749,124.02149 c 18.067306,0.7716 35.968421,-6.55266 48.100341,-20.49685 m 0.0475,0"
       id="path69"
       inkscape:connector-curvature="0"
       style="fill:#45d03f;fill-opacity:1;fill-rule:nonzero;stroke:none" />
    <path
       d="M 51.751914,121.53259 66.064101,81.361918 9.7096182,90.712125 C 18.054767,106.52399 33.435322,118.14942 51.751914,121.53259 m 0,0"
       id="path71"
       inkscape:connector-curvature="0"
       style="fill:#00bbf2;fill-opacity:1;fill-rule:nonzero;stroke:none" />
    <path
       d="M 7.9487879,82.750798 50.422389,74.884437 14.022663,31.437434 C 4.3163335,46.477694 1.7957742,65.411566 7.9804432,82.754755 m -0.031655,0"
       id="path73"
       inkscape:connector-curvature="0"
       style="fill:#892ca0;fill-opacity:1;fill-rule:nonzero;stroke:none" />
    <path
       d="M 20.112366,25.961054 48.289608,58.265365 68.272064,5.4641988 C 50.216629,4.692599 32.303643,12.01686 20.187548,25.961054 m -0.06331,0"
       id="path75"
       inkscape:connector-curvature="0"
       style="fill:#f03916;fill-opacity:1;fill-rule:nonzero;stroke:none" />
    <path
       d="m 72.201287,64.711191 c 0,4.49902 -3.695765,8.147302 -8.254139,8.147302 -4.558374,0 -8.269967,-3.648282 -8.269967,-8.147302 0,-4.499021 3.711593,-8.147303 8.269967,-8.147303 4.558374,0 8.254139,3.648282 8.254139,8.147303 m 0,0"
       id="path77"
       inkscape:connector-curvature="0"
       style="fill:#f9f9f9;fill-opacity:1;fill-rule:nonzero;stroke:none" />
  </g>
</svg>
