<?xml version="1.0" encoding="UTF-8" standalone="no"?>
<svg
   xmlns:dc="http://purl.org/dc/elements/1.1/"
   xmlns:cc="http://creativecommons.org/ns#"
   xmlns:rdf="http://www.w3.org/1999/02/22-rdf-syntax-ns#"
   xmlns:svg="http://www.w3.org/2000/svg"
   xmlns="http://www.w3.org/2000/svg"
   xmlns:sodipodi="http://sodipodi.sourceforge.net/DTD/sodipodi-0.dtd"
   xmlns:inkscape="http://www.inkscape.org/namespaces/inkscape"
   viewBox="0 0 500 500"
   id="svg2"
   version="1.1"
   inkscape:version="0.48.5 r10040"
   width="100%"
   height="100%"
   sodipodi:docname="docky.svg">
  <metadata
     id="metadata61">
    <rdf:RDF>
      <cc:Work
         rdf:about="">
        <dc:format>image/svg+xml</dc:format>
        <dc:type
           rdf:resource="http://purl.org/dc/dcmitype/StillImage" />
        <dc:title />
      </cc:Work>
    </rdf:RDF>
  </metadata>
  <sodipodi:namedview
     pagecolor="#ffffff"
     bordercolor="#666666"
     borderopacity="1"
     objecttolerance="10"
     gridtolerance="10"
     guidetolerance="10"
     inkscape:pageopacity="0"
     inkscape:pageshadow="2"
     inkscape:window-width="1366"
     inkscape:window-height="716"
     id="namedview59"
     showgrid="false"
     inkscape:zoom="0.86915207"
     inkscape:cx="2.0729326"
     inkscape:cy="204.02072"
     inkscape:window-x="0"
     inkscape:window-y="0"
     inkscape:window-maximized="1"
     inkscape:current-layer="svg2" />
  <defs
     id="defs4">
    <linearGradient
       id="linearGradient3764"
       x1="1"
       x2="47"
       gradientUnits="userSpaceOnUse"
       gradientTransform="matrix(0,-1,1,0,-1.5e-6,47.999998)">
      <stop
         stop-color="#5eb6e8"
         stop-opacity="1"
         id="stop7" />
      <stop
         offset="1"
         stop-color="#70bdea"
         stop-opacity="1"
         id="stop9" />
    </linearGradient>
    <clipPath
       id="clipPath-926608780">
      <g
         transform="translate(0,-1004.3622)"
         id="g12">
        <path
           d="m -24,13 c 0,1.105 -0.672,2 -1.5,2 -0.828,0 -1.5,-0.895 -1.5,-2 0,-1.105 0.672,-2 1.5,-2 0.828,0 1.5,0.895 1.5,2 z"
           transform="matrix(15.333333,0,0,11.5,414.99999,878.8622)"
           id="path14"
           inkscape:connector-curvature="0"
           style="fill:#1890d0" />
      </g>
    </clipPath>
    <clipPath
       id="clipPath-934514917">
      <g
         transform="translate(0,-1004.3622)"
         id="g17">
        <path
           d="m -24,13 c 0,1.105 -0.672,2 -1.5,2 -0.828,0 -1.5,-0.895 -1.5,-2 0,-1.105 0.672,-2 1.5,-2 0.828,0 1.5,0.895 1.5,2 z"
           transform="matrix(15.333333,0,0,11.5,414.99999,878.8622)"
           id="path19"
           inkscape:connector-curvature="0"
           style="fill:#1890d0" />
      </g>
    </clipPath>
  </defs>
  <g
     id="g33"
     transform="translate(0,452)" />
  <rect
     style="fill:#00bbf2;fill-opacity:1;fill-rule:evenodd;stroke:#000000;stroke-width:0;stroke-linecap:butt;stroke-linejoin:miter;stroke-miterlimit:4;stroke-opacity:1;stroke-dasharray:none"
     id="rect3038"
     width="450"
     height="450"
     x="25"
     y="25.000002"
     rx="52.678574" />
  <g
     id="g47"
     style="fill:#ffffff"
     transform="matrix(11.31694,0,0,11.536687,-21.862998,-19.991424)">
    <g
       clip-path="url(#clipPath-934514917)"
       id="g49"
       style="fill:#ffffff">
      <!-- color: #70bdea -->
      <g
         id="g51"
         style="fill:#ffffff">
        <path
           d="m 24,11 c -1.66,0 -3,1.293 -3,2.887 0,1.203 0.914,2.195 2,2.629 l 0,2.48 -4.629,0 c -0.199,0 -0.375,0.254 -0.375,0.457 l 0,1.082 c 0,0.207 0.168,0.504 0.375,0.457 l 4.629,0 0,11.668 c 0,0.375 -0.77,0.379 -1.133,0.418 -0.535,0 -0.863,-0.133 -1.371,-0.266 -1.156,-0.328 -2.258,-0.777 -3.316,-1.324 -0.449,-0.238 -0.883,-0.469 -1.281,-0.777 -0.168,-0.145 -0.367,-0.344 -0.352,-0.574 0.023,-0.18 0.117,-0.363 0.316,-0.395 0.18,-0.027 0.344,0.066 0.504,0.125 0.137,0.055 0.234,-0.105 0.211,-0.215 -0.02,-0.289 -0.121,-0.559 -0.277,-0.809 -0.328,-0.52 -0.832,-0.902 -1.352,-1.23 -0.555,-0.34 -1.148,-0.715 -1.504,-1.266 -0.07,-0.098 -0.148,-0.27 -0.305,-0.215 -0.219,0.066 -0.34,0.273 -0.445,0.449 -0.301,0.547 -0.449,1.145 -0.586,1.75 -0.109,0.48 -0.129,0.988 -0.09,1.477 0.039,0.488 0.074,0.984 0.277,1.445 0.133,0.301 0.359,0.543 0.586,0.781 0.145,-0.148 0.297,-0.309 0.445,-0.449 0.191,-0.188 0.434,-0.309 0.719,-0.27 0.383,0.047 0.73,0.273 1.031,0.484 0.426,0.313 0.82,0.645 1.254,0.961 0.684,0.504 1.438,0.871 2.215,1.227 0.645,0.289 1.309,0.574 1.98,0.813 0.121,0.051 0.25,0.047 0.375,0.09 1.207,0.477 2.227,1.047 3.063,2.055 0,0.016 0,0.043 0,0.059 0.008,-0.012 0.023,-0.027 0.035,-0.035 0.008,0.012 0.023,0.027 0.035,0.035 0.008,-0.031 -0.008,-0.066 0,-0.094 0.832,-0.996 1.859,-1.539 3.059,-2.02 0.125,-0.043 0.258,-0.039 0.379,-0.09 0.668,-0.234 1.336,-0.523 1.98,-0.813 0.773,-0.355 1.531,-0.727 2.215,-1.227 0.43,-0.316 0.828,-0.648 1.254,-0.961 0.301,-0.211 0.648,-0.441 1.031,-0.484 0.281,-0.035 0.52,0.086 0.715,0.27 0.148,0.145 0.301,0.305 0.445,0.449 0.227,-0.234 0.457,-0.48 0.586,-0.781 0.207,-0.457 0.242,-0.953 0.281,-1.445 0.039,-0.488 0.016,-1 -0.094,-1.477 -0.133,-0.605 -0.289,-1.199 -0.586,-1.75 -0.105,-0.176 -0.23,-0.383 -0.445,-0.449 -0.156,-0.055 -0.234,0.113 -0.305,0.215 -0.355,0.547 -0.945,0.922 -1.504,1.266 -0.523,0.328 -1.023,0.711 -1.355,1.23 -0.156,0.25 -0.258,0.52 -0.281,0.809 -0.02,0.109 0.074,0.273 0.223,0.219 0.148,-0.059 0.313,-0.152 0.5,-0.125 0.203,0.031 0.297,0.219 0.313,0.395 0.023,0.23 -0.18,0.434 -0.352,0.574 -0.398,0.305 -0.832,0.539 -1.277,0.777 -1.059,0.547 -2.16,0.996 -3.313,1.32 -0.52,0.137 -0.844,0.27 -1.371,0.27 -0.461,0.078 -1.145,-0.16 -1.145,-0.418 l 0,-11.668 4.629,0 c 0.184,0 0.375,-0.238 0.375,-0.457 l 0,-1.082 c 0,-0.211 -0.18,-0.414 -0.375,-0.457 l -4.629,0 0,-2.48 c 1.102,-0.434 2,-1.426 2,-2.629 0,-1.598 -1.344,-2.891 -3,-2.891 m -0.063,1.41 c 0.805,0 1.469,0.609 1.469,1.387 0,0.773 -0.66,1.41 -1.469,1.41 -0.805,0 -1.477,-0.637 -1.477,-1.41 0,-0.773 0.668,-1.387 1.477,-1.387 m 0,0"
           id="path53"
           style="fill:#ffffff;fill-opacity:1;fill-rule:nonzero;stroke:none"
           inkscape:connector-curvature="0" />
      </g>
    </g>
  </g>
</svg>
