<?xml version="1.0" encoding="UTF-8" standalone="no"?>
<!-- Created with Inkscape (http://www.inkscape.org/) -->

<svg
   xmlns:dc="http://purl.org/dc/elements/1.1/"
   xmlns:cc="http://creativecommons.org/ns#"
   xmlns:rdf="http://www.w3.org/1999/02/22-rdf-syntax-ns#"
   xmlns:svg="http://www.w3.org/2000/svg"
   xmlns="http://www.w3.org/2000/svg"
   xmlns:sodipodi="http://sodipodi.sourceforge.net/DTD/sodipodi-0.dtd"
   xmlns:inkscape="http://www.inkscape.org/namespaces/inkscape"
   id="svg2"
   version="1.1"
   inkscape:version="0.91 r13725"
   width="512"
   height="512"
   sodipodi:docname="ExpoBlending.svg">
  <sodipodi:namedview
     pagecolor="#ffffff"
     bordercolor="#666666"
     borderopacity="1"
     objecttolerance="10"
     gridtolerance="10"
     guidetolerance="10"
     inkscape:pageopacity="0"
     inkscape:pageshadow="2"
     inkscape:window-width="1366"
     inkscape:window-height="711"
     id="namedview4"
     showgrid="false"
     inkscape:zoom="0.35355339"
     inkscape:cx="400.23672"
     inkscape:cy="480.40928"
     inkscape:window-x="0"
     inkscape:window-y="0"
     inkscape:window-maximized="1"
     inkscape:current-layer="svg2" />
  <metadata
     id="metadata8">
    <rdf:RDF>
      <cc:Work
         rdf:about="">
        <dc:format>image/svg+xml</dc:format>
        <dc:type
           rdf:resource="http://purl.org/dc/dcmitype/StillImage" />
        <dc:title />
      </cc:Work>
    </rdf:RDF>
  </metadata>
  <defs
     id="defs6">
    <clipPath
       id="clipPath3919"
       clipPathUnits="userSpaceOnUse">
      <g
         clip-path="none"
         transform="translate(-892.82097,-182.60403)"
         id="g3921">
        <path
           sodipodi:type="arc"
           style="fill:none;stroke:#6d6555;stroke-width:45.84608078;stroke-miterlimit:4;stroke-opacity:1;stroke-dasharray:none"
           id="path3923"
           sodipodi:cx="322.71185"
           sodipodi:cy="171.93221"
           sodipodi:rx="138.30508"
           sodipodi:ry="138.30508"
           d="M 461.01694,171.93221 A 138.30508,138.30508 0 0 1 322.71185,310.23729 138.30508,138.30508 0 0 1 184.40677,171.93221 138.30508,138.30508 0 0 1 322.71185,33.627121 138.30508,138.30508 0 0 1 461.01694,171.93221 Z"
           transform="matrix(0.89019607,0,0,0.89019607,32.689264,13.794084)" />
        <rect
           style="fill:#6d6555;fill-opacity:1;fill-rule:evenodd;stroke:none"
           id="rect3925"
           width="45.559322"
           height="208.27118"
           x="154.5797"
           y="411.63419"
           ry="20.9"
           transform="matrix(0.85401398,-0.52025005,0.52025005,0.85401398,0,0)" />
      </g>
    </clipPath>
  </defs>
  <g
     id="g4170">
    <path
       sodipodi:nodetypes="cccc"
       inkscape:connector-curvature="0"
       id="path4151-3"
       d="M 454.99199,468.86648 184.23254,51.673477 452.16357,47.430843 Z"
       style="fill:#ff6600;fill-opacity:1;fill-rule:evenodd;stroke:none;stroke-width:1px;stroke-linecap:butt;stroke-linejoin:miter;stroke-opacity:1" />
    <path
       inkscape:connector-curvature="0"
       id="path4153"
       d="m 459.61941,468.15938 -415.778789,-229.1026 0,-196.575683 147.078209,-4.242641 z"
       style="fill:#ffdd55;fill-rule:evenodd;stroke:none;stroke-width:1px;stroke-linecap:butt;stroke-linejoin:miter;stroke-opacity:1" />
    <path
       sodipodi:nodetypes="cccc"
       inkscape:connector-curvature="0"
       id="path4151"
       d="M 456.94048,453.99517 34.090621,228.49054 l 1.414213,222.6762 z"
       style="fill:#45d03f;fill-opacity:1;fill-rule:evenodd;stroke:none;stroke-width:1px;stroke-linecap:butt;stroke-linejoin:miter;stroke-opacity:1" />
    <path
       sodipodi:nodetypes="ccccccccccsssssssssscccccccccccccccccc"
       id="rect4082"
       d="m 27.355339,27.573575 0,450.000015 450.000001,0 0,-450.000015 z m 28.124989,28.125 393.750022,0 0,393.750025 -393.750022,0 z m 98.437502,28.12501 c -38.95313,0 -70.312492,31.359365 -70.312492,70.312495 0,38.95312 31.359362,70.31251 70.312492,70.31251 38.95312,0 70.3125,-31.35939 70.3125,-70.31251 0,-38.95313 -31.35938,-70.312495 -70.3125,-70.312495 z m 0,28.124995 c 23.37188,0 42.18751,18.81562 42.18751,42.1875 0,23.37188 -18.81563,42.18751 -42.18751,42.18751 -23.37188,0 -42.1875,-18.81563 -42.1875,-42.18751 0,-23.37188 18.81562,-42.1875 42.1875,-42.1875 z m 182.64769,112.50001 -94.09781,94.04297 -37.73814,-37.79297 -0.16873,0.225 -0.22501,-0.225 -160.337759,161.75197 19.885219,19.88521 140.61735,-142.03128 18.07256,18.07228 19.88523,19.88522 19.88522,-19.88522 74.37741,-74.37739 113.98725,113.98725 19.88522,-19.88523 -133.65281,-133.65281 -0.22501,0.225 -0.16875,-0.225 z"
       style="fill:#ffffff;fill-opacity:1;stroke:none"
       inkscape:connector-curvature="0" />
  </g>
</svg>
