<?xml version="1.0" encoding="UTF-8" standalone="no"?>
<svg
   xmlns:dc="http://purl.org/dc/elements/1.1/"
   xmlns:cc="http://creativecommons.org/ns#"
   xmlns:rdf="http://www.w3.org/1999/02/22-rdf-syntax-ns#"
   xmlns:svg="http://www.w3.org/2000/svg"
   xmlns="http://www.w3.org/2000/svg"
   xmlns:sodipodi="http://sodipodi.sourceforge.net/DTD/sodipodi-0.dtd"
   xmlns:inkscape="http://www.inkscape.org/namespaces/inkscape"
   viewBox="0 0 512 512"
   id="svg2"
   version="1.1"
   inkscape:version="0.92.1 r15371"
   width="512"
   height="512"
   sodipodi:docname="ffado-mixer-qt4.svg">
  <metadata
     id="metadata61">
    <rdf:RDF>
      <cc:Work
         rdf:about="">
        <dc:format>image/svg+xml</dc:format>
        <dc:type
           rdf:resource="http://purl.org/dc/dcmitype/StillImage" />
        <dc:title />
      </cc:Work>
    </rdf:RDF>
  </metadata>
  <sodipodi:namedview
     pagecolor="#ffffff"
     bordercolor="#666666"
     borderopacity="1"
     objecttolerance="10"
     gridtolerance="10"
     guidetolerance="10"
     inkscape:pageopacity="0"
     inkscape:pageshadow="2"
     inkscape:window-width="1366"
     inkscape:window-height="709"
     id="namedview59"
     showgrid="false"
     inkscape:zoom="0.30729167"
     inkscape:cx="556.02931"
     inkscape:cy="38.638008"
     inkscape:window-x="0"
     inkscape:window-y="0"
     inkscape:window-maximized="1"
     inkscape:current-layer="svg2" />
  <defs
     id="defs4">
    <linearGradient
       id="linearGradient3764"
       x1="1"
       x2="47"
       gradientUnits="userSpaceOnUse"
       gradientTransform="rotate(-90,23.999998,24)">
      <stop
         stop-color="#a80000"
         stop-opacity="1"
         id="stop7" />
      <stop
         offset="1"
         stop-color="#b00"
         stop-opacity="1"
         id="stop9" />
    </linearGradient>
    <clipPath
       id="clipPath-400042892">
      <g
         transform="translate(0,-1004.3622)"
         id="g12">
        <path
           d="m -24,13 c 0,1.105 -0.672,2 -1.5,2 -0.828,0 -1.5,-0.895 -1.5,-2 0,-1.105 0.672,-2 1.5,-2 0.828,0 1.5,0.895 1.5,2 z"
           transform="matrix(15.333333,0,0,11.5,414.99999,878.8622)"
           id="path14"
           inkscape:connector-curvature="0"
           style="fill:#1890d0" />
      </g>
    </clipPath>
    <clipPath
       id="clipPath-411038796">
      <g
         transform="translate(0,-1004.3622)"
         id="g17">
        <path
           d="m -24,13 c 0,1.105 -0.672,2 -1.5,2 -0.828,0 -1.5,-0.895 -1.5,-2 0,-1.105 0.672,-2 1.5,-2 0.828,0 1.5,0.895 1.5,2 z"
           transform="matrix(15.333333,0,0,11.5,414.99999,878.8622)"
           id="path19"
           inkscape:connector-curvature="0"
           style="fill:#1890d0" />
      </g>
    </clipPath>
  </defs>
  <g
     id="g33"
     transform="matrix(3.9021162,0,0,3.9021162,4.1481354,317.37561)" />
  <g
     id="g845">
    <path
       inkscape:connector-curvature="0"
       id="path841"
       d="m 36.817492,383.13878 -18.408746,-71.33389 3.45164,-123.10849 63.280065,-32.21531 347.673109,-3.66753 59.38983,63.8644 -74.0339,177.35594 z"
       style="fill:#ffcc00;stroke:none;stroke-width:1px;stroke-linecap:butt;stroke-linejoin:miter;stroke-opacity:1;fill-opacity:1" />
    <path
       sodipodi:nodetypes="cscccccccccccccccccccccccsssccccsssssssscccscsssscccsscccccsssscscssccccccccssscssscssscsscccccccccccccsccccccc"
       inkscape:connector-curvature="0"
       id="path837"
       d="M 26.927427,397.44038 C 8.344715,389.94133 7.7118603,385.84501 7.7118603,273.06053 V 168.24214 l 8.6553267,-10.0643 8.655327,-10.06427 205.384396,-0.98352 205.38443,-0.98352 35.25685,35.25689 35.25689,35.25689 v 56.99832 56.99831 l -35.17012,35.17012 -35.17012,35.17012 -200.67523,-0.22741 C 124.91821,400.64458 31.155247,399.14647 26.927427,397.44035 Z M 416.63004,372.30117 v -10.76101 h -35.87001 -35.87002 v 10.76101 10.761 h 35.87002 35.87001 z M 54.342881,314.90914 c 0,-14.00638 0.298797,-14.348 12.554505,-14.348 10.913094,0 12.554506,-1.14275 12.554506,-8.74023 0,-7.2389 -2.002516,-8.93332 -11.657756,-9.86426 -9.848112,-0.94955 -11.840441,-2.72253 -12.834578,-11.42169 -2.284167,-19.98724 1.875284,-27.10597 17.27708,-29.56881 11.162979,-1.4737 24.621922,-8.92798 25.150262,-19.81725 0,-2.82404 -6.725951,-3.4753 -21.787018,-2.10962 -36.555671,3.31475 -42.825391,14.8447 -39.99826,73.55631 1.717385,35.66459 1.996203,36.66156 10.253337,36.66156 7.511253,0 8.487922,-1.65099 8.487922,-14.34801 z m 57.392019,0 c 0,-14.00638 0.2988,-14.348 12.55451,-14.348 11.00015,0 12.55451,-1.11025 12.55451,-8.96751 0,-7.85725 -1.55436,-8.9675 -12.55451,-8.9675 -12.38728,0 -12.55379,-0.20303 -12.49959,-15.24476 0.0735,-20.43891 3.29176,-24.38999 21.84689,-26.82273 10.08514,-1.32228 18.6684,-5.16643 23.83246,-10.67385 4.43892,-4.73401 8.07076,-9.33122 8.07076,-10.21599 0,-3.0982 -34.20461,-1.53312 -47.56171,2.17627 -22.83994,6.34289 -25.245276,13.43282 -24.575367,72.43881 0.39518,34.80762 0.439515,34.97327 9.364547,34.97327 8.07075,0 8.9675,-1.4348 8.9675,-14.34801 z m 57.39203,0 v -14.348 h 19.72851 19.72851 v 14.348 c 0,12.91321 0.89676,14.34801 8.96751,14.34801 h 8.9675 l 0.59785,-48.42452 c 0.32893,-26.63349 0.73232,-51.24929 0.89675,-54.70178 0.25109,-5.27131 -2.69588,-6.19988 -18.38948,-5.7944 -22.15871,0.57248 -38.94362,9.32254 -50.34921,26.24731 -7.02736,10.42788 -8.08295,16.60943 -8.08295,47.33382 0,35.3042 0.007,35.33957 8.96751,35.33957 8.07075,0 8.9675,-1.4348 8.9675,-14.34801 z m 0,-37.43 c 0,-11.43088 7.63066,-23.93319 18.74233,-30.70796 18.53362,-11.29995 20.71469,-9.79079 20.71469,14.33294 v 21.52201 h -19.72851 c -14.74731,0 -19.72851,-1.29954 -19.72851,-5.14699 z m 117.50709,44.62338 c 47.1615,-28.75474 26.66972,-100.39842 -28.72879,-100.442 l -17.03826,-0.0143 v 53.80502 53.80503 l 17.03826,-0.0144 c 10.66795,-0.007 21.40912,-2.67838 28.72879,-7.14122 z m -24.24504,-46.31458 c 0,-33.83801 0.34435,-35.44413 7.21651,-33.64704 10.12808,2.64853 25.0665,21.45644 25.0665,31.55944 0,14.54619 -6.45387,26.30417 -17.60278,32.06948 -5.90535,3.0538 -11.62421,5.55232 -12.7086,5.55232 -1.08439,0 -1.97163,-15.99038 -1.97163,-35.5342 z m 146.20309,46.31458 c 46.25001,-28.19897 26.7613,-100.39516 -27.11342,-100.442 -18.58096,-0.0143 -32.5232,6.67401 -45.12886,21.65498 -18.66252,22.17915 -10.18471,62.46946 16.57819,78.78702 15.34749,9.35748 40.31661,9.35748 55.66409,0 z m -46.16862,-16.15959 c -17.9472,-9.75413 -22.17114,-39.87067 -7.45931,-53.18469 18.46452,-16.71019 45.27926,-12.93763 56.04715,7.88517 6.74224,13.03803 6.98325,18.65043 1.3334,31.05044 -7.99668,17.55088 -31.50166,24.2599 -49.92124,14.24908 z m 98.11149,-110.26572 -22.33723,-22.33723 -9.8871,9.94676 -9.88707,9.94672 22.6578,21.957 22.6578,21.95704 9.56653,-9.56653 9.5665,-9.56653 z m -132.16357,-17.34573 -14.62966,-14.6297 -49.88863,-1.99961 c -27.43873,-1.09981 -49.08155,-1.22919 -48.09512,-0.28768 20.34561,19.42208 58.7789,49.6869 65.1412,51.29632 4.61579,1.1676 12.42771,5.20994 17.35983,8.98296 l 8.96751,6.86 17.88726,-17.79637 17.8873,-17.79641 z"
       style="fill:#f03916;fill-opacity:1;stroke-width:3.58700156" />
  </g>
</svg>
