<?xml version="1.0" encoding="UTF-8" standalone="no"?>
<!-- Created with Inkscape (http://www.inkscape.org/) -->

<svg
   xmlns:dc="http://purl.org/dc/elements/1.1/"
   xmlns:cc="http://creativecommons.org/ns#"
   xmlns:rdf="http://www.w3.org/1999/02/22-rdf-syntax-ns#"
   xmlns:svg="http://www.w3.org/2000/svg"
   xmlns="http://www.w3.org/2000/svg"
   xmlns:sodipodi="http://sodipodi.sourceforge.net/DTD/sodipodi-0.dtd"
   xmlns:inkscape="http://www.inkscape.org/namespaces/inkscape"
   id="svg2"
   version="1.1"
   inkscape:version="0.91 r13725"
   width="512"
   height="512"
   sodipodi:docname="fotowall.svg">
  <sodipodi:namedview
     pagecolor="#ffffff"
     bordercolor="#666666"
     borderopacity="1"
     objecttolerance="10"
     gridtolerance="10"
     guidetolerance="10"
     inkscape:pageopacity="0"
     inkscape:pageshadow="2"
     inkscape:window-width="1230"
     inkscape:window-height="711"
     id="namedview4"
     showgrid="false"
     inkscape:zoom="0.5"
     inkscape:cx="358.90535"
     inkscape:cy="186.7053"
     inkscape:window-x="39"
     inkscape:window-y="24"
     inkscape:window-maximized="0"
     inkscape:current-layer="svg2" />
  <metadata
     id="metadata8">
    <rdf:RDF>
      <cc:Work
         rdf:about="">
        <dc:format>image/svg+xml</dc:format>
        <dc:type
           rdf:resource="http://purl.org/dc/dcmitype/StillImage" />
        <dc:title />
      </cc:Work>
    </rdf:RDF>
  </metadata>
  <defs
     id="defs6">
    <clipPath
       id="clipPath3919"
       clipPathUnits="userSpaceOnUse">
      <g
         clip-path="none"
         transform="translate(-892.82097,-182.60403)"
         id="g3921">
        <path
           sodipodi:type="arc"
           style="fill:none;stroke:#6d6555;stroke-width:45.84608078;stroke-miterlimit:4;stroke-opacity:1;stroke-dasharray:none"
           id="path3923"
           sodipodi:cx="322.71185"
           sodipodi:cy="171.93221"
           sodipodi:rx="138.30508"
           sodipodi:ry="138.30508"
           d="M 461.01694,171.93221 A 138.30508,138.30508 0 0 1 322.71185,310.23729 138.30508,138.30508 0 0 1 184.40677,171.93221 138.30508,138.30508 0 0 1 322.71185,33.627121 138.30508,138.30508 0 0 1 461.01694,171.93221 Z"
           transform="matrix(0.89019607,0,0,0.89019607,32.689264,13.794084)" />
        <rect
           style="fill:#6d6555;fill-opacity:1;fill-rule:evenodd;stroke:none"
           id="rect3925"
           width="45.559322"
           height="208.27118"
           x="154.5797"
           y="411.63419"
           ry="20.9"
           transform="matrix(0.85401398,-0.52025005,0.52025005,0.85401398,0,0)" />
      </g>
    </clipPath>
  </defs>
  <g
     id="g4164">
    <rect
       transform="matrix(0.98222261,0.18771988,-0.18771988,0.98222261,0,0)"
       y="168.69334"
       x="284.04593"
       height="194.78461"
       width="234.46292"
       id="rect2997"
       style="fill:#ffcc00;fill-opacity:1;stroke:#ffffff;stroke-width:7.57495594;stroke-linecap:round;stroke-linejoin:round;stroke-miterlimit:4;stroke-dasharray:none;stroke-opacity:1" />
    <path
       sodipodi:open="true"
       sodipodi:end="6.2784904"
       sodipodi:start="0"
       transform="matrix(0.98222261,0.18771985,-0.18771986,0.98222261,0,0)"
       d="m 357.99191,225.50545 a 23.897184,23.446293 0 0 1 -23.86913,23.44627 23.897184,23.446293 0 0 1 -23.92517,-23.39123 23.897184,23.446293 0 0 1 23.81297,-23.50119 23.897184,23.446293 0 0 1 23.98107,23.33607"
       sodipodi:ry="23.446293"
       sodipodi:rx="23.897184"
       sodipodi:cy="225.50545"
       sodipodi:cx="334.09473"
       id="path3767"
       style="fill:#faec6d;fill-opacity:1;stroke:none"
       sodipodi:type="arc" />
    <path
       sodipodi:nodetypes="cccczzc"
       inkscape:connector-curvature="0"
       id="path3787"
       d="m 228.68623,336.67519 -13.83928,70.71418 223.65579,42.41997 10.56567,-58.68054 c 0,0 -33.72631,5.27277 -60.37025,-3.42288 -26.64393,-8.69563 -61.60792,-51.64747 -90.418,-58.5044 -28.81006,-6.85691 -69.59393,7.47367 -69.59393,7.47367 z"
       style="fill:#c87137;stroke:none;stroke-width:0.31562316px;stroke-linecap:butt;stroke-linejoin:miter;stroke-opacity:1;fill-opacity:1" />
    <rect
       transform="matrix(0.9960536,-0.08875374,0.08875374,0.9960536,0,0)"
       y="260.68494"
       x="9.1304646"
       height="194.78461"
       width="234.46292"
       id="rect2997-6"
       style="fill:#45d03f;fill-opacity:1;stroke:#ffffff;stroke-width:7.57495642;stroke-linecap:round;stroke-linejoin:round;stroke-miterlimit:4;stroke-dasharray:none;stroke-opacity:1" />
    <path
       sodipodi:open="true"
       sodipodi:end="6.2784904"
       sodipodi:start="0"
       transform="matrix(0.9960536,-0.08875375,0.08875375,0.9960536,0,0)"
       d="M 83.076456,317.49704 A 23.897184,23.446293 0 0 1 59.20732,340.94332 23.897184,23.446293 0 0 1 35.282153,317.55208 23.897184,23.446293 0 0 1 59.095126,294.05089 23.897184,23.446293 0 0 1 83.076193,317.38696"
       sodipodi:ry="23.446293"
       sodipodi:rx="23.897184"
       sodipodi:cy="317.49704"
       sodipodi:cx="59.179272"
       id="path3767-7"
       style="fill:#ffffff;fill-opacity:1;stroke:none;stroke-width:0.37703115"
       sodipodi:type="arc" />
    <path
       sodipodi:nodetypes="cccczzc"
       inkscape:connector-curvature="0"
       id="path3787-5"
       d="m 46.559493,377.10854 6.077607,71.79891 226.71619,-20.52169 -5.92672,-59.32885 c 0,0 -30.98854,14.31698 -58.99559,13.25907 -28.00703,-1.05789 -73.40685,-32.7785 -102.99295,-31.4743 -29.586073,1.30424 -64.878537,26.26686 -64.878537,26.26686 z"
       style="fill:#30902b;fill-opacity:1;stroke:none;stroke-width:0.36620498px;stroke-linecap:butt;stroke-linejoin:miter;stroke-opacity:1" />
    <rect
       transform="matrix(0.98222261,0.18771986,-0.18771986,0.98222261,0,0)"
       y="52.731461"
       x="75.266426"
       height="194.78461"
       width="234.46292"
       id="rect2997-5"
       style="fill:#00bbf2;fill-opacity:1;stroke:#ffffff;stroke-width:7.57495642;stroke-linecap:round;stroke-linejoin:round;stroke-miterlimit:4;stroke-dasharray:none;stroke-opacity:1" />
    <path
       sodipodi:open="true"
       sodipodi:end="6.2784904"
       sodipodi:start="0"
       transform="matrix(0.98222261,0.18771985,-0.18771985,0.98222261,0,0)"
       d="m 149.21242,109.54356 a 23.897184,23.446293 0 0 1 -23.86913,23.44627 23.897184,23.446293 0 0 1 -23.92517,-23.39123 23.897184,23.446293 0 0 1 23.81297,-23.501191 23.897184,23.446293 0 0 1 23.98107,23.336071"
       sodipodi:ry="23.446293"
       sodipodi:rx="23.897184"
       sodipodi:cy="109.54356"
       sodipodi:cx="125.31524"
       id="path3767-6"
       style="fill:#ffffff;fill-opacity:1;stroke:none;stroke-width:0.37703115"
       sodipodi:type="arc" />
    <path
       sodipodi:nodetypes="cccczzc"
       inkscape:connector-curvature="0"
       id="path3787-2"
       d="m 45.386654,183.58276 -13.839284,70.71418 223.6558,42.41996 10.56566,-58.68054 c 0,0 -33.7263,5.27278 -60.37025,-3.42287 -26.64393,-8.69563 -61.60791,-51.64747 -90.41798,-58.50441 -28.810068,-6.85691 -69.593946,7.47368 -69.593946,7.47368 z"
       style="fill:#007ea2;fill-opacity:1;stroke:none;stroke-width:0.36620498px;stroke-linecap:butt;stroke-linejoin:miter;stroke-opacity:1" />
    <rect
       transform="matrix(0.93205326,-0.36232129,0.36232129,0.93205326,0,0)"
       y="192.64647"
       x="145.02075"
       height="194.78462"
       width="234.46294"
       id="rect2997-6-1"
       style="fill:#ff5599;fill-opacity:1;stroke:#ffffff;stroke-width:7.57495689;stroke-linecap:round;stroke-linejoin:round;stroke-miterlimit:4;stroke-dasharray:none;stroke-opacity:1" />
    <path
       sodipodi:open="true"
       sodipodi:end="6.2784904"
       sodipodi:start="0"
       transform="matrix(0.93205325,-0.36232131,0.36232131,0.93205325,0,0)"
       d="m 218.96675,249.45856 a 23.897184,23.446293 0 0 1 -23.86914,23.44627 23.897184,23.446293 0 0 1 -23.92516,-23.39123 23.897184,23.446293 0 0 1 23.81297,-23.50119 23.897184,23.446293 0 0 1 23.98107,23.33607"
       sodipodi:ry="23.446293"
       sodipodi:rx="23.897184"
       sodipodi:cy="249.45856"
       sodipodi:cx="195.06956"
       id="path3767-7-2"
       style="fill:#ffffff;fill-opacity:1;stroke:none;stroke-width:0.31413606"
       sodipodi:type="arc" />
    <path
       sodipodi:nodetypes="cccczzc"
       inkscape:connector-curvature="0"
       id="path3787-5-7"
       d="m 251.6267,236.62216 25.80992,67.27458 212.05976,-82.77699 -22.1962,-55.33866 c 0,0 -25.78297,22.37196 -52.97893,29.14647 -27.19593,6.77453 -79.6276,-11.06536 -107.68321,-1.58272 -28.05558,9.48267 -55.01134,43.27732 -55.01134,43.27732 z"
       style="fill:#ff2a7f;fill-opacity:1;stroke:none;stroke-width:0.30511588px;stroke-linecap:butt;stroke-linejoin:miter;stroke-opacity:1" />
  </g>
</svg>
