<?xml version="1.0" encoding="UTF-8" standalone="no"?>
<svg
   xmlns:dc="http://purl.org/dc/elements/1.1/"
   xmlns:cc="http://creativecommons.org/ns#"
   xmlns:rdf="http://www.w3.org/1999/02/22-rdf-syntax-ns#"
   xmlns:svg="http://www.w3.org/2000/svg"
   xmlns="http://www.w3.org/2000/svg"
   xmlns:sodipodi="http://sodipodi.sourceforge.net/DTD/sodipodi-0.dtd"
   xmlns:inkscape="http://www.inkscape.org/namespaces/inkscape"
   viewBox="0 0 128 128"
   id="svg2"
   version="1.1"
   inkscape:version="0.92.2 (5c3e80d, 2017-08-06)"
   width="100%"
   height="100%"
   sodipodi:docname="fritzing.svg">
  <metadata
     id="metadata61">
    <rdf:RDF>
      <cc:Work
         rdf:about="">
        <dc:format>image/svg+xml</dc:format>
        <dc:type
           rdf:resource="http://purl.org/dc/dcmitype/StillImage" />
        <dc:title />
      </cc:Work>
    </rdf:RDF>
  </metadata>
  <sodipodi:namedview
     pagecolor="#ffffff"
     bordercolor="#666666"
     borderopacity="1"
     objecttolerance="10"
     gridtolerance="10"
     guidetolerance="10"
     inkscape:pageopacity="0"
     inkscape:pageshadow="2"
     inkscape:window-width="1366"
     inkscape:window-height="715"
     id="namedview59"
     showgrid="false"
     inkscape:zoom="0.86915207"
     inkscape:cx="-55.982903"
     inkscape:cy="14.89283"
     inkscape:window-x="0"
     inkscape:window-y="24"
     inkscape:window-maximized="1"
     inkscape:current-layer="svg2" />
  <defs
     id="defs4">
    <linearGradient
       id="linearGradient3764"
       x1="1"
       x2="47"
       gradientUnits="userSpaceOnUse"
       gradientTransform="matrix(0,-1,1,0,-1.5e-6,47.999998)">
      <stop
         stop-color="#ea791e"
         stop-opacity="1"
         id="stop7" />
      <stop
         offset="1"
         stop-color="#ec8430"
         stop-opacity="1"
         id="stop9" />
    </linearGradient>
    <clipPath
       id="clipPath-296880936">
      <g
         transform="translate(0,-1004.3622)"
         id="g12">
        <path
           d="m -24,13 c 0,1.105 -0.672,2 -1.5,2 -0.828,0 -1.5,-0.895 -1.5,-2 0,-1.105 0.672,-2 1.5,-2 0.828,0 1.5,0.895 1.5,2 z"
           transform="matrix(15.333333,0,0,11.5,414.99999,878.8622)"
           id="path14"
           inkscape:connector-curvature="0"
           style="fill:#1890d0" />
      </g>
    </clipPath>
    <clipPath
       id="clipPath-304821512">
      <g
         transform="translate(0,-1004.3622)"
         id="g17">
        <path
           d="m -24,13 c 0,1.105 -0.672,2 -1.5,2 -0.828,0 -1.5,-0.895 -1.5,-2 0,-1.105 0.672,-2 1.5,-2 0.828,0 1.5,0.895 1.5,2 z"
           transform="matrix(15.333333,0,0,11.5,414.99999,878.8622)"
           id="path19"
           inkscape:connector-curvature="0"
           style="fill:#1890d0" />
      </g>
    </clipPath>
  </defs>
  <g
     id="g33"
     transform="translate(0,80)" />
  <g
     id="g923">
    <rect
       ry="15.457627"
       y="5.9661002"
       x="6.5084748"
       height="116.33898"
       width="115.52543"
       id="rect837"
       style="fill:#f03916;fill-opacity:1;stroke:none;stroke-width:2;stroke-miterlimit:4;stroke-dasharray:none;stroke-opacity:1" />
    <g
       transform="matrix(1.0298629,0,0,1.0298629,-2.908816,-0.42288849)"
       id="g907">
      <ellipse
         style="fill:#1a1a1a;fill-opacity:1;stroke:none;stroke-width:2.18668914;stroke-miterlimit:4;stroke-dasharray:none;stroke-opacity:1"
         id="path839"
         cx="39.316334"
         cy="100.09924"
         rx="1.8876156"
         ry="1.8696383" />
      <ellipse
         style="fill:#1a1a1a;fill-opacity:1;stroke:none;stroke-width:2.18668914;stroke-miterlimit:4;stroke-dasharray:none;stroke-opacity:1"
         id="path839-3"
         cx="35.868839"
         cy="72.351028"
         rx="1.8876156"
         ry="1.8696383" />
      <ellipse
         style="fill:#1a1a1a;fill-opacity:1;stroke:none;stroke-width:2.18668914;stroke-miterlimit:4;stroke-dasharray:none;stroke-opacity:1"
         id="path839-3-6"
         cx="76.232437"
         cy="61.987385"
         rx="1.8876156"
         ry="1.8696383" />
      <ellipse
         style="fill:#1a1a1a;fill-opacity:1;stroke:none;stroke-width:2.18668914;stroke-miterlimit:4;stroke-dasharray:none;stroke-opacity:1"
         id="path839-3-6-7"
         cx="67.237785"
         cy="39.842846"
         rx="1.8876156"
         ry="1.8696383" />
      <ellipse
         style="fill:#1a1a1a;fill-opacity:1;stroke:none;stroke-width:2.18668914;stroke-miterlimit:4;stroke-dasharray:none;stroke-opacity:1"
         id="path839-3-6-7-5"
         cx="96.861641"
         cy="40.19891"
         rx="1.8876156"
         ry="1.8696383" />
      <path
         style="fill:#ffffff;stroke-width:0.41766581"
         d="m 109.88892,41.813095 c -0.9262,0.400938 -2.15422,-0.06394 -2.74803,-1.040273 -0.59875,-0.984495 0.14273,-2.364271 2.68144,-4.989736 2.89703,-2.996018 3.12162,-4.044885 1.25305,-5.851708 l -1.34183,-1.297487 -0.42685,1.423383 c -0.65614,2.18803 -3.48316,4.532825 -6.08954,5.050817 -3.06216,0.608571 -4.036637,0.170218 -7.877097,-3.543333 L 92.023225,28.35752 91.864184,26.025032 c -0.258242,-3.787541 1.459953,-6.712788 4.782842,-8.142886 1.366417,-0.588072 1.500772,-0.727027 1.311596,-1.356418 -0.250624,-0.833765 1.090723,-2.347838 2.094938,-2.364706 0.51393,-0.0086 2.80043,2.010723 8.32002,7.347918 8.56708,8.283997 8.66931,8.434804 8.09454,11.947119 -0.31843,1.945882 -0.5729,2.366725 -3.06367,5.06663 -1.49403,1.619463 -3.07602,3.100144 -3.51554,3.290408 z M 105.39921,26.76841 c 0.07,-2.065572 -0.05,-2.373959 -1.45075,-3.728462 -1.31092,-1.267598 -1.79863,-1.476327 -3.44516,-1.474382 -1.584595,0.0019 -2.135327,0.226951 -3.167624,1.294503 -1.908547,1.973768 -1.718591,3.162634 0.911668,5.705987 2.336386,2.25918 3.478516,2.771208 4.834096,2.167169 1.68169,-0.749352 2.24122,-1.706465 2.31777,-3.964815 z M 77.014311,65.262325 c -0.803639,0.120698 -1.873753,1.013972 -4.706423,3.928673 -3.17485,3.266825 -3.804287,3.767904 -4.695865,3.738436 -2.278693,-0.07531 -2.693255,-1.259909 -3.057455,-8.736639 l -0.344634,-7.074987 -2.284607,2.353907 c -2.627624,2.707254 -4.128606,3.409013 -5.310896,2.483087 -1.683794,-1.318683 -1.490049,-1.734639 3.131714,-6.723554 4.896228,-5.285186 5.929307,-5.871538 7.562502,-4.29231 0.738008,0.713621 0.971261,2.216407 1.283921,8.271893 l 0.382074,7.39984 1.834258,-1.916044 c 1.152933,-1.204338 1.879846,-2.290871 1.956997,-2.925142 0.140813,-1.157685 1.409772,-2.612567 2.616876,-3.000303 1.818319,-0.584057 4.229354,1.473017 4.076903,3.478376 -0.102467,1.347893 -1.31707,2.845361 -2.445318,3.014809 z m -0.226559,-3.886542 c -0.504947,-0.719493 -1.761187,-0.257013 -1.746071,0.64281 0.01511,0.899821 1.286179,1.319845 1.766678,0.583794 0.22271,-0.341152 0.213437,-0.893124 -0.02061,-1.226604 z M 40.204131,102.87344 c -2.120276,0.57799 -4.000366,-0.46996 -4.300786,-2.39722 -0.120329,-0.77184 -1.149687,-1.96899 -4.445685,-5.170271 -2.363608,-2.295629 -4.414918,-4.557516 -4.569337,-5.03826 -0.542706,-1.689567 2.018022,-3.257145 3.298349,-2.019126 0.495134,0.478775 0.578889,0.340391 0.768052,-1.269044 0.408356,-3.474343 3.624088,-6.103785 5.383795,-4.402223 0.879911,0.850835 0.82458,1.791258 -0.197138,3.3507 -0.436359,0.666014 -0.88027,2.499506 -0.986468,4.074434 l -0.193081,2.863506 1.862595,1.782578 c 1.157182,1.107481 2.244769,1.829062 2.871698,1.905316 1.360417,0.16548 2.601922,1.43976 2.7541,2.82682 0.152444,1.3897 -0.977597,3.14699 -2.246094,3.49279 z m -0.02109,-3.5408 c -0.07283,-0.28685 -0.537067,-0.5147 -1.031503,-0.50646 -1.07637,0.0181 -1.354421,0.8483 -0.545929,1.63008 0.637739,0.61666 1.807674,-0.2167 1.577432,-1.12362 z M 96.773743,43.385638 c -2.008505,0.03375 -2.692167,-0.443549 -3.315236,-2.314493 -0.447357,-1.343359 -2.78488,-3.816511 -5.459867,-5.776667 -2.189765,-1.604605 -3.094836,-1.003488 -3.959554,2.629821 l -0.645831,2.713619 3.623974,3.79982 c 3.869711,4.057477 4.353491,5.019897 3.149303,6.265238 -1.469174,1.519375 -2.061346,1.172586 -8.301783,-4.86164 -6.381516,-6.170649 -6.793435,-6.821646 -5.16048,-8.155466 0.74626,-0.609558 1.794019,-0.686237 2.876346,-0.210505 0.05932,0.02608 0.367389,-0.932283 0.684567,-2.129693 0.488822,-1.845364 0.85874,-2.429513 2.427567,-3.833455 3.246967,-2.905694 5.303768,-2.391634 10.495683,2.6232 2.336625,2.256438 3.230279,2.918029 3.85174,2.849728 1.098703,-0.120729 2.742874,1.551544 2.895753,2.945361 0.06921,0.625507 -0.210812,1.652107 -0.620997,2.281198 -0.624147,0.957243 -1.038603,1.148719 -2.541204,1.173956 z m 0.617656,-3.918428 c -0.504943,-0.719496 -1.761195,-0.257012 -1.746072,0.642805 0.01516,0.899816 1.286153,1.319868 1.766678,0.583798 0.222711,-0.341153 0.213431,-0.893122 -0.02061,-1.226603 z M 31.667541,110.48 c -0.490981,0.008 -2.155836,-1.3874 -5.419291,-4.54302 l -4.71059,-4.55494 -1.209097,0.85727 c -1.11418,0.78996 -2.470202,0.81394 -3.252502,0.0575 -0.578238,-0.55912 -0.373565,-2.65739 0.330199,-3.38521 0.626725,-0.64814 0.550637,-0.87238 -0.831218,-2.449646 -1.107194,-1.263766 -1.544295,-2.140752 -1.606359,-3.222952 -0.251615,-4.387405 4.741754,-9.092224 6.554945,-6.176164 0.706246,1.135816 0.247871,2.527586 -1.390472,4.221916 -1.175281,1.215444 -1.133467,1.833282 0.21214,3.134416 0.629632,0.608827 0.861049,0.562496 1.742236,-0.348804 1.039323,-1.074837 3.010672,-1.446247 3.771496,-0.710563 0.809927,0.783165 0.669988,2.215841 -0.351822,3.601887 l -1.053979,1.42967 4.484007,4.33584 c 2.516753,2.43359 4.606947,4.71858 4.764225,5.20824 0.317593,0.98873 -0.910928,2.52572 -2.033908,2.54458 z M 51.760495,89.429904 C 51.111764,89.38125 49.58722,88.176591 46.202761,85.038282 l -4.663781,-4.324588 -1.158391,0.667713 c -1.431317,0.825028 -2.515823,0.632679 -3.269819,-0.579932 -0.655672,-1.054476 -0.257344,-1.981455 1.747524,-4.066799 0.992713,-1.032639 1.703326,-1.435681 2.556149,-1.450007 1.093356,-0.01838 1.581509,0.367265 6.566189,5.187235 6.115511,5.913436 6.760614,6.866928 5.516452,8.153606 -0.463449,0.479286 -1.244915,0.841262 -1.736589,0.804394 z m 8.743634,-8.730284 c -1.810141,0.660659 -2.844638,0.09815 -7.247995,-3.941092 l -4.2074,-3.859495 -0.969237,0.60267 c -1.351971,0.840645 -2.209144,0.86271 -3.020918,0.07776 -0.752789,-0.727914 -0.658564,-2.584084 0.174939,-3.446068 0.447253,-0.462538 0.224718,-0.815417 -1.669029,-2.646587 -2.469134,-2.387545 -3.043091,-3.896339 -1.922898,-5.054813 1.120193,-1.158475 2.647416,-0.635518 5.11655,1.752027 l 2.18509,2.112887 1.142428,-1.181467 c 1.833185,-1.89583 3.074067,-2.294257 4.088958,-1.312903 1.155323,1.117148 1.015179,2.16344 -0.553464,4.132034 l -1.298732,1.629866 3.564843,3.447048 3.56484,3.447044 1.248426,-1.291089 c 0.686637,-0.710099 1.567344,-1.296446 1.95713,-1.302995 1.122982,-0.01886 2.402438,1.47599 2.118234,2.47484 -0.31388,1.103147 -3.078086,3.924669 -4.271777,4.360323 z M 83.346624,57.034899 c -0.490929,0.0082 -2.154924,-1.386527 -5.415175,-4.539049 l -4.706474,-4.550956 -1.10535,0.764023 c -1.450443,1.002559 -2.399939,1.075439 -3.253835,0.249757 -1.025052,-0.991182 -0.582238,-2.663018 1.191101,-4.496956 1.145116,-1.184247 1.830642,-1.589597 2.713395,-1.604427 1.096344,-0.01842 1.581507,0.367265 6.755599,5.370388 3.268405,3.160407 5.69035,5.751119 5.85465,6.262623 0.317593,0.988742 -0.910932,2.525726 -2.033911,2.544592 z M 37.093392,75.54692 c -1.129931,0.507823 -3.003621,0.208003 -3.857004,-0.617181 -0.866466,-0.837837 -1.028199,-3.198282 -0.30234,-4.412549 0.844821,-1.413261 3.674449,-1.622633 4.972066,-0.367886 1.5702,1.518314 1.116653,4.530506 -0.812724,5.397625 z m -0.456967,-3.282162 c -0.398878,-0.826159 -1.210304,-1.001509 -1.802142,-0.389447 -0.543889,0.562475 0.07951,1.647851 0.938182,1.633422 0.641768,-0.01077 1.12407,-0.705228 0.86396,-1.243975 z m 31.81282,-29.145201 c -1.118035,0.502478 -3.000943,0.210586 -3.833255,-0.594219 -0.878353,-0.849328 -1.122738,-3.075611 -0.463275,-4.220229 0.624442,-1.083822 2.7635,-1.947047 3.766988,-1.520186 2.779196,1.182216 3.112853,5.17362 0.529536,6.334635 z m -0.515414,-3.426151 c -0.369486,-0.793491 -1.040424,-0.972762 -1.574337,-0.420605 -0.522455,0.540309 -0.30517,1.345466 0.449763,1.666603 0.797498,0.339238 1.500194,-0.43933 1.124579,-1.245994 z"
         id="path835"
         inkscape:connector-curvature="0"
         sodipodi:nodetypes="ccsscccscscssscsccscsssccccsccssssccccscccsccccccsssssccsccccsccscscsssscscccccccsccssccsssccssssccscscscsccsssccsccssssscssscccsscscsscssssscssscsscscccsccccscc" />
    </g>
    <path
       id="path909"
       d="M 122.0332 36.232422 L 38.693359 122.30469 L 106.57617 122.30469 C 115.1397 122.30469 122.0332 115.41118 122.0332 106.84766 L 122.0332 36.232422 z "
       style="fill:#c22e12;stroke:none;stroke-width:1px;stroke-linecap:butt;stroke-linejoin:miter;stroke-opacity:1;fill-opacity:1" />
  </g>
</svg>
