<?xml version="1.0" encoding="UTF-8" standalone="no"?>
<svg
   xmlns:dc="http://purl.org/dc/elements/1.1/"
   xmlns:cc="http://creativecommons.org/ns#"
   xmlns:rdf="http://www.w3.org/1999/02/22-rdf-syntax-ns#"
   xmlns:svg="http://www.w3.org/2000/svg"
   xmlns="http://www.w3.org/2000/svg"
   xmlns:sodipodi="http://sodipodi.sourceforge.net/DTD/sodipodi-0.dtd"
   xmlns:inkscape="http://www.inkscape.org/namespaces/inkscape"
   viewBox="0 0 500 500"
   id="svg2"
   version="1.1"
   inkscape:version="0.91 r13725"
   width="100%"
   height="100%"
   sodipodi:docname="gajim.svg">
  <metadata
     id="metadata65">
    <rdf:RDF>
      <cc:Work
         rdf:about="">
        <dc:format>image/svg+xml</dc:format>
        <dc:type
           rdf:resource="http://purl.org/dc/dcmitype/StillImage" />
        <dc:title />
      </cc:Work>
    </rdf:RDF>
  </metadata>
  <sodipodi:namedview
     pagecolor="#ffffff"
     bordercolor="#666666"
     borderopacity="1"
     objecttolerance="10"
     gridtolerance="10"
     guidetolerance="10"
     inkscape:pageopacity="0"
     inkscape:pageshadow="2"
     inkscape:window-width="1366"
     inkscape:window-height="708"
     id="namedview63"
     showgrid="false"
     inkscape:zoom="0.21728802"
     inkscape:cx="804.66432"
     inkscape:cy="157.39903"
     inkscape:window-x="0"
     inkscape:window-y="0"
     inkscape:window-maximized="1"
     inkscape:current-layer="svg2" />
  <defs
     id="defs4">
    <linearGradient
       id="linearGradient3764"
       x1="1"
       x2="47"
       gradientUnits="userSpaceOnUse"
       gradientTransform="matrix(0,-1,1,0,-1.5e-6,47.999998)">
      <stop
         stop-color="#3d3d3d"
         stop-opacity="1"
         id="stop7" />
      <stop
         offset="1"
         stop-color="#474747"
         stop-opacity="1"
         id="stop9" />
    </linearGradient>
    <clipPath
       id="clipPath-156864852">
      <g
         transform="translate(0,-1004.3622)"
         id="g12">
        <path
           d="m -24,13 c 0,1.105 -0.672,2 -1.5,2 -0.828,0 -1.5,-0.895 -1.5,-2 0,-1.105 0.672,-2 1.5,-2 0.828,0 1.5,0.895 1.5,2 z"
           transform="matrix(15.333333,0,0,11.5,414.99999,878.8622)"
           id="path14"
           inkscape:connector-curvature="0"
           style="fill:#1890d0" />
      </g>
    </clipPath>
    <clipPath
       id="clipPath-165128749">
      <g
         transform="translate(0,-1004.3622)"
         id="g17">
        <path
           d="m -24,13 c 0,1.105 -0.672,2 -1.5,2 -0.828,0 -1.5,-0.895 -1.5,-2 0,-1.105 0.672,-2 1.5,-2 0.828,0 1.5,0.895 1.5,2 z"
           transform="matrix(15.333333,0,0,11.5,414.99999,878.8622)"
           id="path19"
           inkscape:connector-curvature="0"
           style="fill:#1890d0" />
      </g>
    </clipPath>
  </defs>
  <g
     id="g33"
     transform="translate(0,452)" />
  <g
     id="g4151">
    <rect
       ry="51.428574"
       y="49.689491"
       x="25"
       height="294.10715"
       width="450"
       id="rect2998"
       style="fill:#45d03f;fill-opacity:1;stroke:none" />
    <path
       sodipodi:nodetypes="cccc"
       inkscape:connector-curvature="0"
       id="path3768"
       d="M 99.254238,331.59322 48.813559,465.83051 224.54237,335.66102 z"
       style="fill:#45d03f;stroke:none;fill-opacity:1" />
    <path
       d="m 79.974607,75.039271 c -1.422853,-0.04601 -2.951312,-0.0368 -4.311354,0.143477 -4.337059,0.569975 -8.719649,0.476535 -13.077777,1.149702 -8.348445,1.289224 -16.324109,3.913464 -24.143603,7.041882 -2.847288,1.138983 -5.719871,2.401211 -8.479001,3.736503 -1.026816,0.49685 -2.479846,0.783458 -3.305374,1.580837 -0.429526,0.415731 -0.37894,1.456016 -0.430905,2.011961 -0.145322,1.563725 -0.423548,3.17978 -0.574847,4.742505 -0.583999,6.030462 -1.007319,12.223962 -0.143484,18.251392 0.279607,1.94736 0.91194,5.37483 3.305375,5.74848 3.680772,0.576 6.528934,-3.82199 8.335289,-6.32331 4.218876,-5.84216 9.033114,-11.32855 15.952026,-13.940068 8.145169,-3.074327 17.5385,-3.864031 26.155554,-4.455065 24.176084,-1.65689 50.597674,2.743915 68.406864,20.550803 2.53274,2.5324 4.85939,5.23746 6.89817,8.19157 7.97387,11.54603 12.19671,24.72489 14.22748,38.51479 0.9548,6.47426 1.62048,12.95394 0.14348,19.40111 -2.56276,11.18539 -9.2366,21.02885 -16.958,29.31723 -5.28487,5.67283 -11.3433,10.71608 -17.53285,15.37717 -3.45544,2.60153 -7.24193,4.91651 -10.49097,7.76045 -3.74198,3.27566 -6.83213,7.27007 -9.19756,11.64066 -6.36586,11.76843 -8.19572,25.95284 -6.32333,39.08963 0.38354,2.69268 0.82701,5.39226 1.43712,8.04787 0.18211,0.79439 0.20465,2.22512 0.71856,2.87424 0.96179,1.21412 3.5602,1.79711 5.02992,1.86825 1.53286,0.0741 2.49857,-1.0687 2.87424,-2.44309 0.64318,-2.35509 0.3725,-4.96021 0,-7.32932 -0.76345,-4.8524 -1.50983,-9.73308 -1.29341,-14.65861 0.39872,-9.09478 3.89981,-17.55216 10.20354,-24.1436 6.41098,-6.70364 15.13349,-10.62368 22.41907,-16.23943 14.68334,-11.31766 27.71491,-26.5239 32.76631,-44.6944 1.80538,-6.49828 2.40534,-13.43006 1.58082,-20.11968 -1.04194,-8.46166 -4.12643,-16.89334 -7.04188,-24.86216 -8.88553,-24.29016 -24.08106,-47.378474 -48.2872,-58.490732 -9.60689,-4.409634 -19.63338,-6.455642 -30.035781,-7.904164 -4.878062,-0.679191 -9.747351,-1.078048 -14.658615,-1.293406 -1.363997,-0.05976 -2.744737,-0.09799 -4.167638,-0.143477 z M 64.884856,175.78131 c -1.939026,0.18717 -3.754021,0.82949 -5.461043,1.86825 -3.06771,1.86826 -4.786694,5.13017 -5.748476,8.47901 -1.909558,6.64951 -1.047921,14.30437 0.28742,20.98193 0.426773,2.13572 0.837987,4.22669 1.437122,6.32333 0.216601,0.75632 0.370199,1.81398 0.86227,2.4431 0.858494,1.09989 2.882334,1.50978 4.16765,1.29341 3.85621,-0.6481 2.861767,-7.07275 2.730516,-9.77241 -0.307652,-6.32397 -2.092758,-12.39261 -0.287419,-18.68255 0.764456,-2.66163 2.19822,-5.74218 4.886205,-6.89817 2.426545,-1.04479 4.931413,0.21661 5.892191,2.58681 1.555814,3.83768 1.179865,8.3663 2.155677,12.35923 0.331564,1.35738 0.681258,2.61505 1.293406,3.88022 0.177512,0.36559 0.348128,1.19577 0.862271,1.14969 1.249345,-0.11401 3.087296,-2.24461 4.023934,-3.01795 3.025633,-2.50031 6.145203,-5.19166 9.628692,-7.04188 1.639052,-0.87051 4.36167,-2.19913 6.035897,-0.71856 0.426773,0.37756 0.70045,0.8156 1.005986,1.29341 1.967685,3.08234 -0.01374,5.40421 -1.293401,8.33529 -1.65607,3.79357 -3.348882,7.5322 -5.748482,10.9221 -2.062822,2.91507 -4.818875,5.58191 -6.467026,8.76643 -1.060985,2.05055 -1.732228,4.29673 -1.293409,6.61075 0.355478,1.87124 1.827961,2.88187 3.736505,2.4431 1.428656,-0.32835 2.347165,-1.45685 3.161659,-2.58682 1.451707,-2.01551 2.868682,-4.1561 4.311356,-6.17961 2.791238,-3.91379 6.131653,-7.57709 8.479013,-11.78437 2.82925,-5.07181 4.17076,-10.74984 4.16764,-16.52687 -0.003,-4.72121 -1.68624,-11.94436 -7.1856,-12.93407 -1.034817,-0.18533 -2.277448,-0.17936 -3.305372,0 -1.277266,0.22257 -2.569329,0.72845 -3.736506,1.2934 -3.1268,1.51264 -5.868231,3.75486 -8.191587,6.32333 -1.449572,1.60078 -2.73484,3.57192 -4.455067,4.8862 0,-3.48702 -0.561049,-7.27945 -2.586812,-10.20355 -2.538473,-3.66323 -6.960022,-5.73259 -11.353236,-5.89218 -0.658958,-0.0229 -1.365611,-0.0625 -2.011974,0 z m -25.436999,56.47878 c -0.500807,-0.0368 -1.014536,0.0625 -1.580831,0.14348 -4.717797,0.6752 -6.188947,4.35633 -5.31734,8.62271 1.116078,5.45949 5.517572,9.65435 9.77241,12.93406 10.901312,8.40258 24.9299,12.9603 38.658498,12.35923 5.356977,-0.23452 11.179601,-1.17613 16.095736,-3.44909 2.635928,-1.21811 5.45798,-5.59478 1.868258,-7.47301 -0.491938,-0.25753 -1.176418,-0.34077 -1.72455,-0.43091 -1.567814,-0.25661 -3.256802,0.43551 -4.742493,0.86227 -2.619882,0.75232 -5.350813,1.43551 -8.047869,1.86826 -8.058026,1.29424 -16.753583,-0.54306 -23.425037,-5.31734 -5.392939,-3.86071 -9.67854,-8.93687 -13.796345,-14.08377 -2.205521,-2.75664 -4.254833,-5.76599 -7.760437,-6.03589 z m -5.748476,26.5867 c -0.713363,0.01 -1.443879,0.0689 -2.011966,0.14348 -1.200236,0.1582 -2.564879,0.10803 -3.592798,0.86227 -2.143998,1.5737 0.165096,4.74512 1.293407,6.17961 3.271021,4.15619 7.629975,7.59342 11.928087,10.63468 11.982262,8.47569 25.498309,13.37046 40.095618,14.37119 4.196717,0.28743 8.495925,-0.0276 12.646658,-0.71856 1.517727,-0.25338 3.483568,-0.35089 4.886201,-1.00599 3.969302,-1.8562 2.823972,-9.25521 -0.718564,-10.9221 -1.546891,-0.72725 -4.126431,0.20557 -5.748479,0.43091 -3.836167,0.53492 -7.638756,0.52531 -11.496951,0.43091 -10.111838,-0.24742 -20.937929,-3.27705 -29.748365,-8.19159 -3.463436,-1.93337 -6.511319,-4.28063 -9.484981,-6.89816 -1.808379,-1.59177 -3.690614,-4.22555 -6.0359,-5.02992 -0.546014,-0.18717 -1.298604,-0.29478 -2.011967,-0.28742 z m 0.430906,22.70648 c -1.709091,0.1913 -3.043519,1.03118 -4.167646,2.29938 -0.774433,0.8735 -1.423413,1.62862 -1.868253,2.73053 -2.452577,6.06653 3.963596,11.79362 8.479001,14.65862 5.025272,3.1875 10.646043,5.62628 16.23945,7.61673 12.615511,4.48979 27.281618,7.31933 40.383033,3.30536 3.894249,-1.19209 7.803398,-3.37719 10.634688,-6.32332 1.59485,-1.65988 2.63795,-4.1108 -0.28742,-5.17363 -1.73324,-0.62911 -3.745382,0.94772 -5.317343,1.58085 -3.710894,1.49657 -7.657245,2.67979 -11.640669,3.16165 -5.246799,0.6361 -9.889585,-0.60308 -14.946036,-1.86825 -4.319038,-1.07989 -8.758189,-2.17983 -12.934074,-3.73652 -3.562623,-1.3283 -7.085847,-2.82406 -10.203545,-5.02991 -0.931714,-0.65914 -1.967075,-1.29718 -2.730528,-2.15568 -2.495662,-2.80788 -4.365893,-6.09577 -7.041878,-8.76643 -1.156133,-1.15401 -2.829353,-2.49671 -4.59878,-2.29938 z"
       inkscape:connector-curvature="0"
       id="path4201"
       style="fill:#ffffff;fill-opacity:1;stroke:none" />
  </g>
</svg>
