<?xml version="1.0" encoding="UTF-8" standalone="no"?>
<!-- Generator: Adobe Illustrator 15.1.0, SVG Export Plug-In . SVG Version: 6.00 Build 0)  -->

<svg
   xmlns:dc="http://purl.org/dc/elements/1.1/"
   xmlns:cc="http://creativecommons.org/ns#"
   xmlns:rdf="http://www.w3.org/1999/02/22-rdf-syntax-ns#"
   xmlns:svg="http://www.w3.org/2000/svg"
   xmlns="http://www.w3.org/2000/svg"
   xmlns:sodipodi="http://sodipodi.sourceforge.net/DTD/sodipodi-0.dtd"
   xmlns:inkscape="http://www.inkscape.org/namespaces/inkscape"
   version="1.1"
   id="Layer_1"
   x="0px"
   y="0px"
   width="500"
   height="500"
   viewBox="0 0 500 500"
   enable-background="new 0 0 128 128"
   xml:space="preserve"
   inkscape:version="0.91 r13725"
   sodipodi:docname="gmusicbrowser.svg"><metadata
     id="metadata59"><rdf:RDF><cc:Work
         rdf:about=""><dc:format>image/svg+xml</dc:format><dc:type
           rdf:resource="http://purl.org/dc/dcmitype/StillImage" /></cc:Work></rdf:RDF></metadata><defs
     id="defs57" /><sodipodi:namedview
     pagecolor="#ffffff"
     bordercolor="#666666"
     borderopacity="1"
     objecttolerance="10"
     gridtolerance="10"
     guidetolerance="10"
     inkscape:pageopacity="0"
     inkscape:pageshadow="2"
     inkscape:window-width="1366"
     inkscape:window-height="715"
     id="namedview55"
     showgrid="false"
     inkscape:zoom="0.65186406"
     inkscape:cx="92.475649"
     inkscape:cy="287.60094"
     inkscape:window-x="0"
     inkscape:window-y="24"
     inkscape:window-maximized="1"
     inkscape:current-layer="Layer_1" /><g
     id="g4163"><ellipse
       transform="matrix(4.7911605,0,0,4.7911605,-65.275511,-20.824883)"
       style="fill:#f2c179"
       sodipodi:ry="12.477"
       sodipodi:rx="11.583"
       sodipodi:cy="91.139"
       sodipodi:cx="64"
       id="ellipse11"
       ry="12.477"
       rx="11.583"
       cy="91.139"
       cx="64" /><path
       style="fill:#e6b773"
       inkscape:connector-curvature="0"
       id="path13"
       d="m 241.35876,356.05738 c -30.64906,0 -55.49601,26.76821 -55.49601,59.77931 0,11.91083 3.27236,22.9832 8.84927,32.302 17.1284,4.3935 32.77154,3.6317 46.65153,-6.54951 13.87999,10.18121 29.52313,10.94301 46.65153,6.54951 5.57691,-9.3188 8.84927,-20.39117 8.84927,-32.302 -0.01,-33.0111 -24.86133,-59.77931 -55.50559,-59.77931 z" /><path
       style="fill:#f2cb91"
       inkscape:connector-curvature="0"
       id="path23"
       d="m 363.53335,144.53723 c -23.35691,-3.59337 -56.89503,-40.12597 -122.17459,-38.92818 -65.27956,-1.19779 -98.81769,35.33481 -122.17459,38.92818 -23.356911,3.59337 -54.499454,29.94475 -50.307188,61.68619 4.192265,31.74144 38.329288,48.5105 37.131498,62.28509 -1.19779,13.77458 -1.79669,126.96575 36.53259,147.32818 38.32929,20.36243 71.86741,35.9337 98.81769,16.17017 26.95028,19.76353 60.4884,4.19226 98.81768,-16.17017 38.32929,-20.36243 37.73039,-133.5536 36.5326,-147.32818 -1.19779,-13.77459 32.93923,-30.54365 37.13149,-62.28509 4.19227,-31.74144 -26.95027,-58.09282 -50.30718,-61.68619 z" /><path
       style="fill:#e6c18a"
       inkscape:connector-curvature="0"
       id="path35"
       d="m 234.32054,427.46484 c -6.6645,4.89177 -21.07152,12.13601 -28.51698,13.16611 10.47347,1.41339 23.95101,0.14852 35.70372,-8.88282 -2.4387,-1.20258 -4.84386,-2.55848 -7.18674,-4.28329 z" /><path
       style="fill:#e6c18a"
       inkscape:connector-curvature="0"
       id="path37"
       d="m 363.53335,144.53723 c -23.35691,-3.59337 -56.89503,-40.12597 -122.17459,-38.92818 -2.47224,-0.0431 -4.80554,0.0623 -7.18674,0.11978 60.52673,1.49963 92.5221,35.34918 114.98785,38.8084 23.35691,3.59337 54.49945,29.94475 50.30718,61.68619 -4.19226,31.74144 -38.32928,48.5105 -37.13149,62.28509 1.19779,13.77458 1.79668,126.96575 -36.5326,147.32818 -22.94007,12.18392 -44.14575,22.59032 -63.26727,24.79905 22.6574,3.12383 48.79318,-9.47213 77.64075,-24.79905 38.32929,-20.36243 37.73039,-133.5536 36.5326,-147.32818 -1.19779,-13.77459 32.93923,-30.54365 37.13149,-62.28509 4.19227,-31.74144 -26.95027,-58.09282 -50.30718,-61.68619 z" /><path
       style="fill:#f2c179"
       inkscape:connector-curvature="0"
       id="path49"
       d="m 291.66594,230.77812 c 0,-69.47183 -39.52707,-106.60332 -50.30718,-106.60332 -10.78011,0 -50.30719,37.13149 -50.30719,106.60332 -12.57679,12.57679 -24.55469,22.75801 -19.76353,36.5326 4.79116,13.77458 8.98342,20.96132 6.58784,35.9337 -2.39558,14.97238 -24.5547,142.53702 63.48288,126.36686 88.03757,16.17016 65.87845,-111.39448 63.48287,-126.36686 -2.39558,-14.97238 1.79669,-22.15912 6.58785,-35.9337 4.79116,-13.77459 -7.18674,-23.95581 -19.76354,-36.5326 z" /><path
       style="fill:#e6b773"
       inkscape:connector-curvature="0"
       id="path51"
       d="m 291.66594,230.77812 c 0,-69.47183 -39.52707,-106.60332 -50.30718,-106.60332 -1.72961,0 -4.25455,1.06364 -7.18674,2.95614 15.32213,9.90812 43.12044,45.32917 43.12044,103.64718 12.5768,12.57679 24.5547,22.75801 19.76354,36.5326 -4.79116,13.77458 -8.98343,20.96132 -6.58785,35.9337 2.17519,13.59731 20.63553,120.04252 -41.93702,127.36821 79.60034,8.0204 58.63901,-112.81746 56.3105,-127.36821 -2.39558,-14.97238 1.79669,-22.15912 6.58785,-35.9337 4.79116,-13.77459 -7.18674,-23.95581 -19.76354,-36.5326 z" /><path
       style="fill:#394050;fill-opacity:1"
       inkscape:connector-curvature="0"
       id="path53"
       d="m 303.52407,258.50935 c -1.55234,-5.05946 -6.89448,-7.88625 -11.97791,-6.34828 l -50.1874,15.40837 -50.18741,-15.41316 c -5.06905,-1.54276 -10.41598,1.29361 -11.9779,6.34349 -1.55233,5.06426 1.28882,10.42557 6.34829,11.97311 l 46.2347,14.20579 v 101.51511 c 0,5.28944 4.29288,9.58232 9.58232,9.58232 5.28944,0 9.58232,-4.29288 9.58232,-9.58232 V 284.67867 l 46.2347,-14.19621 c 5.05946,-1.55233 7.90062,-6.91843 6.34829,-11.97311 z" /><path
       sodipodi:nodetypes="czcczcc"
       inkscape:connector-curvature="0"
       id="path3807"
       d="m 68.752728,219.01342 c 0,0 8.351855,-164.67453 173.698892,-166.022427 165.34715,-1.347897 165.97905,170.334717 165.97905,170.334717 l 37.82777,20.12393 c 0,0 3.64478,-218.243209 -204.57879,-218.488421 C 33.456162,24.715912 32.468934,252.79288 32.468934,252.79288 z"
       style="fill:#b3b3b3;stroke:none;fill-opacity:1" /><path
       sodipodi:nodetypes="czcc"
       inkscape:connector-curvature="0"
       id="path3777-6"
       d="m 410.57525,147.16843 c 0,0 55.87431,9.24276 56.63526,65.81936 0.76094,56.5766 -58.16595,71.17676 -58.16595,71.17676 z"
       style="fill:#b3b3b3;stroke:none;fill-opacity:1" /><path
       sodipodi:nodetypes="cczcczc"
       inkscape:connector-curvature="0"
       id="path3775-7"
       d="m 377.66556,153.29116 1.53068,123.91966 c 0,0 -2.47753,11.95241 16.00651,11.90523 18.48405,-0.0472 15.3725,-11.45691 15.3725,-11.45691 l 0.76533,-123.21997 c 0,0 2.85704,-12.68206 -16.74864,-12.60492 -19.60568,0.0771 -16.92638,11.45691 -16.92638,11.45691 z"
       style="fill:#394050;stroke:none" /><g
       transform="matrix(4.7911605,0,0,4.7911605,-65.275511,-20.824883)"
       id="g39"><g
         id="g41"><path
           style="fill:#f5f5f5"
           inkscape:connector-curvature="0"
           id="path43"
           d="m 97.75,53.889 c 0,-2.259 -1.203,-4.23 -2.999,-5.33 -4.565,1.231 -7.194,3.732 -9.31,3.815 l 0,0 c 2.416,-0.095 0.539,5.812 4.424,7.541 0.521,0.142 1.068,0.224 1.634,0.224 3.453,0 6.251,-2.798 6.251,-6.25 z" /><circle
           style="fill:#242424"
           sodipodi:ry="2"
           sodipodi:rx="2"
           sodipodi:cy="53.889"
           sodipodi:cx="91.5"
           id="circle45"
           r="2"
           cy="53.889"
           cx="91.5" /></g><path
         style="fill:#cc803d"
         inkscape:connector-curvature="0"
         id="path47"
         d="m 97.75,52.78 c -3.708,-7.281 -9.375,-0.488 -12.309,-0.406 -2.525,1.126 -9.274,1.569 -10.941,0.14 -1.667,-1.097 -3,-0.518 -2.75,-1.224 10.958,2.124 20.27,-4.798 23,-4.457 3,0.375 3.958,4.083 5.33,5.833 0.774,0.986 -2.33,0.114 -2.33,0.114 z" /></g><path
       sodipodi:nodetypes="czcc"
       inkscape:connector-curvature="0"
       id="path3777-6-6"
       d="m 73.860385,156.43578 c 0,0 -55.874318,9.24276 -56.63526,65.81936 -0.760942,56.5766 58.165942,71.17676 58.165942,71.17676 z"
       style="fill:#b3b3b3;stroke:none;fill-opacity:1" /><path
       sodipodi:nodetypes="cczcczc"
       inkscape:connector-curvature="0"
       id="path3775-7-7"
       d="m 106.77007,162.55851 -1.53068,123.91966 c 0,0 2.47753,11.95241 -16.006513,11.90523 C 70.748829,298.3362 73.860385,286.92649 73.860385,286.92649 L 73.095048,163.70652 c 0,0 -2.857037,-12.68206 16.748644,-12.60492 19.605678,0.0771 16.926378,11.45691 16.926378,11.45691 z"
       style="fill:#394050;stroke:none" /><g
       transform="matrix(4.7911605,0,0,4.7911605,-65.275511,-20.824883)"
       id="g25"><g
         id="g27"><path
           style="fill:#f5f5f5"
           inkscape:connector-curvature="0"
           id="path29"
           d="m 30.25,53.889 c 0,-2.259 1.203,-4.23 2.999,-5.33 4.565,1.231 7.195,3.732 9.309,3.815 l 0,0 c -2.416,-0.095 -0.538,5.812 -4.423,7.541 -0.522,0.142 -1.068,0.224 -1.634,0.224 -3.453,0 -6.251,-2.798 -6.251,-6.25 z" /><circle
           style="fill:#242424"
           sodipodi:ry="2"
           sodipodi:rx="2"
           sodipodi:cy="53.889"
           sodipodi:cx="36.5"
           id="circle31"
           r="2"
           cy="53.889"
           cx="36.5" /></g><path
         style="fill:#cc803d"
         inkscape:connector-curvature="0"
         id="path33"
         d="m 30.25,52.78 c 3.708,-7.281 9.375,-0.488 12.308,-0.406 2.526,1.126 9.275,1.569 10.942,0.14 1.667,-1.097 3,-0.518 2.75,-1.224 -10.958,2.124 -20.27,-4.798 -23,-4.457 -3,0.375 -3.958,4.083 -5.33,5.833 -0.773,0.986 2.33,0.114 2.33,0.114 z" /></g><path
       sodipodi:nodetypes="zzzcccczczccz"
       inkscape:connector-curvature="0"
       id="path3834"
       d="m 51.366133,123.81312 c -8.003985,4.29364 -20.185666,2.79574 -23.433673,-4.11117 -3.248007,-6.90692 2.028686,-14.42396 10.676575,-19.2623 8.647888,-4.838346 17.073821,-1.29356 17.073821,-1.29356 l 0.616684,-61.462002 6.225683,2.00472 4.069849,9.738584 c 0,0 15.057692,8.03431 18.532364,26.454025 3.474671,18.419722 -18.31433,32.849523 -18.31433,32.849523 0,0 18.355708,-19.280834 13.833361,-33.466199 C 76.12411,61.079383 62.16184,59.602014 62.16184,59.602014 l 0.399722,50.546096 c 0,0 -3.191444,9.37136 -11.195429,13.66501 z"
       style="fill:#00bbf2;fill-opacity:1;stroke:none" /><path
       sodipodi:nodetypes="zzzcccczczccz"
       inkscape:connector-curvature="0"
       id="path3834-5"
       d="m 446.8075,119.43046 c -6.41971,3.44377 -16.1902,2.24237 -18.79531,-3.29742 -2.60511,-5.53979 1.62714,-11.56894 8.5633,-15.4496 6.93617,-3.880669 13.69431,-1.037518 13.69431,-1.037518 l 0.49462,-49.296477 4.99339,1.607914 3.26429,7.810966 c 0,0 12.07723,6.444034 14.86413,21.217832 2.78692,14.7738 -14.68926,26.347423 -14.68926,26.347423 0,0 14.72246,-15.464461 11.09524,-26.84204 -3.62722,-11.377568 -14.82586,-12.562513 -14.82586,-12.562513 l 0.3206,40.541223 c 0,0 -2.55973,7.51643 -8.97945,10.96021 z"
       style="fill:#00bbf2;fill-opacity:1;stroke:none" /></g></svg>