<?xml version="1.0" encoding="UTF-8" standalone="no"?>
<svg
   xmlns:dc="http://purl.org/dc/elements/1.1/"
   xmlns:cc="http://creativecommons.org/ns#"
   xmlns:rdf="http://www.w3.org/1999/02/22-rdf-syntax-ns#"
   xmlns:svg="http://www.w3.org/2000/svg"
   xmlns="http://www.w3.org/2000/svg"
   xmlns:sodipodi="http://sodipodi.sourceforge.net/DTD/sodipodi-0.dtd"
   xmlns:inkscape="http://www.inkscape.org/namespaces/inkscape"
   width="48"
   height="48"
   viewBox="0 0 48 48"
   id="svg2"
   version="1.1"
   inkscape:version="0.48.5 r10040"
   sodipodi:docname="force-exit.svg">
  <metadata
     id="metadata12">
    <rdf:RDF>
      <cc:Work
         rdf:about="">
        <dc:format>image/svg+xml</dc:format>
        <dc:type
           rdf:resource="http://purl.org/dc/dcmitype/StillImage" />
      </cc:Work>
    </rdf:RDF>
  </metadata>
  <defs
     id="defs10" />
  <sodipodi:namedview
     pagecolor="#ffffff"
     bordercolor="#666666"
     borderopacity="1"
     objecttolerance="10"
     gridtolerance="10"
     guidetolerance="10"
     inkscape:pageopacity="0"
     inkscape:pageshadow="2"
     inkscape:window-width="1366"
     inkscape:window-height="716"
     id="namedview8"
     showgrid="false"
     inkscape:zoom="4.9166667"
     inkscape:cx="24"
     inkscape:cy="24"
     inkscape:window-x="0"
     inkscape:window-y="0"
     inkscape:window-maximized="1"
     inkscape:current-layer="svg2" />
  <path
     style="fill:#f03916"
     d="M 13.394531 38.847656 L 9.152344 34.605469 L 34.605469 9.152344 L 38.847656 13.394531 Z "
     id="path4" />
  <path
     style="fill:#f03916;fill-rule:evenodd"
     d="M 9.859375 38.140625 C 17.667969 45.953125 30.332031 45.953125 38.140625 38.140625 C 45.953125 30.332031 45.953125 17.667969 38.140625 9.859375 C 30.332031 2.046875 17.667969 2.046875 9.859375 9.859375 C 2.046875 17.667969 2.046875 30.332031 9.859375 38.140625 Z M 14.101562 33.898438 C 8.632812 28.433594 8.632812 19.566406 14.101562 14.101562 C 19.566406 8.632812 28.433594 8.632812 33.898438 14.101562 C 39.367188 19.566406 39.367188 28.433594 33.898438 33.898438 C 28.433594 39.367188 19.566406 39.367188 14.101562 33.898438 Z "
     id="path6" />
</svg>
