<?xml version="1.0" encoding="UTF-8" standalone="no"?>
<!-- Generator: Adobe Illustrator 19.0.0, SVG Export Plug-In . SVG Version: 6.00 Build 0)  -->

<svg
   xmlns:dc="http://purl.org/dc/elements/1.1/"
   xmlns:cc="http://creativecommons.org/ns#"
   xmlns:rdf="http://www.w3.org/1999/02/22-rdf-syntax-ns#"
   xmlns:svg="http://www.w3.org/2000/svg"
   xmlns="http://www.w3.org/2000/svg"
   xmlns:sodipodi="http://sodipodi.sourceforge.net/DTD/sodipodi-0.dtd"
   xmlns:inkscape="http://www.inkscape.org/namespaces/inkscape"
   version="1.1"
   id="Layer_1"
   x="0px"
   y="0px"
   viewBox="0 0 500 500"
   xml:space="preserve"
   inkscape:version="0.92.2 (5c3e80d, 2017-08-06)"
   width="100%"
   height="100%"
   sodipodi:docname="gnome-log-out.svg"><metadata
     id="metadata57"><rdf:RDF><cc:Work
         rdf:about=""><dc:format>image/svg+xml</dc:format><dc:type
           rdf:resource="http://purl.org/dc/dcmitype/StillImage" /></cc:Work></rdf:RDF></metadata><defs
     id="defs55" /><sodipodi:namedview
     pagecolor="#ffffff"
     bordercolor="#666666"
     borderopacity="1"
     objecttolerance="10"
     gridtolerance="10"
     guidetolerance="10"
     inkscape:pageopacity="0"
     inkscape:pageshadow="2"
     inkscape:window-width="1366"
     inkscape:window-height="715"
     id="namedview53"
     showgrid="false"
     inkscape:zoom="0.7311484"
     inkscape:cx="187.29691"
     inkscape:cy="247.37103"
     inkscape:window-x="0"
     inkscape:window-y="24"
     inkscape:window-maximized="1"
     inkscape:current-layer="Layer_1" /><g
     id="g23"
     transform="translate(0,39.767)" /><g
     id="g25"
     transform="translate(0,39.767)" /><g
     id="g27"
     transform="translate(0,39.767)" /><g
     id="g29"
     transform="translate(0,39.767)" /><g
     id="g31"
     transform="translate(0,39.767)" /><g
     id="g33"
     transform="translate(0,39.767)" /><g
     id="g35"
     transform="translate(0,39.767)" /><g
     id="g37"
     transform="translate(0,39.767)" /><g
     id="g39"
     transform="translate(0,39.767)" /><g
     id="g41"
     transform="translate(0,39.767)" /><g
     id="g43"
     transform="translate(0,39.767)" /><g
     id="g45"
     transform="translate(0,39.767)" /><g
     id="g47"
     transform="translate(0,39.767)" /><g
     id="g49"
     transform="translate(0,39.767)" /><g
     id="g51"
     transform="translate(0,39.767)" /><g
     id="g842"><path
       id="path3811"
       d="m 249.99996,45.455336 c 32.67607,0 63.45054,7.692089 90.90909,21.306819 V 92.330337 C 314.22262,76.867173 283.06838,68.182609 249.99996,68.182609 c -100.41541,0 -181.818187,81.402771 -181.818187,181.818181 0,100.41541 81.402777,181.81819 181.818187,181.81819 33.06842,0 64.22266,-8.68457 90.90909,-24.14773 v 25.56818 c -27.45855,13.61473 -58.23302,21.30682 -90.90909,21.30682 -112.96735,0 -204.54546,-91.57811 -204.54546,-204.54546 0,-112.96734 91.57811,-204.545454 204.54546,-204.545454 z"
       style="fill:#ffcc00;fill-opacity:1;stroke:none;stroke-width:22.72727394"
       inkscape:connector-curvature="0" /><path
       inkscape:connector-curvature="0"
       id="path4017"
       d="m 377.47897,147.90307 a 11.364773,11.364773 0 0 1 6.39204,4.26137 l 68.18182,90.9091 a 11.364773,11.364773 0 0 1 0,14.20455 l -68.18182,90.90909 A 11.648594,11.648594 0 1 1 365.4051,333.98264 l 63.21023,-83.80682 -63.21023,-83.80684 a 11.364773,11.364773 0 0 1 12.07387,-18.46591 z"
       style="color:#000000;font-style:normal;font-variant:normal;font-weight:normal;font-stretch:normal;font-size:medium;line-height:normal;font-family:Sans;-inkscape-font-specification:Sans;text-indent:0;text-align:start;text-decoration:none;text-decoration-line:none;letter-spacing:normal;word-spacing:normal;text-transform:none;writing-mode:lr-tb;direction:ltr;baseline-shift:baseline;text-anchor:start;display:inline;overflow:visible;visibility:visible;fill:#ffcc00;fill-opacity:1;stroke:none;stroke-width:22.72727394px;marker:none;enable-background:accumulate" /><path
       sodipodi:nodetypes="ccccc"
       inkscape:connector-curvature="0"
       id="path4027"
       d="m 431.81814,238.63716 v 22.72727 H 318.18178 v -22.72727 z"
       style="color:#000000;font-style:normal;font-variant:normal;font-weight:normal;font-stretch:normal;font-size:medium;line-height:normal;font-family:Sans;-inkscape-font-specification:Sans;text-indent:0;text-align:start;text-decoration:none;text-decoration-line:none;letter-spacing:normal;word-spacing:normal;text-transform:none;writing-mode:lr-tb;direction:ltr;baseline-shift:baseline;text-anchor:start;display:inline;overflow:visible;visibility:visible;fill:#ffcc00;fill-opacity:1;stroke:none;stroke-width:22.72727394px;marker:none;enable-background:accumulate" /><path
       id="path4031"
       d="m 249.99996,170.45534 c 43.93174,0 79.54545,35.61371 79.54545,79.54545 0,43.93175 -35.61371,79.54546 -79.54545,79.54546 -43.93175,0 -79.54546,-35.61371 -79.54546,-79.54546 0,-43.93174 35.61371,-79.54545 79.54546,-79.54545 z m 0,22.72727 c -31.37982,0 -56.81819,25.43837 -56.81819,56.81818 0,31.37982 25.43837,56.81819 56.81819,56.81819 31.37981,0 56.81818,-25.43837 56.81818,-56.81819 0,-31.37981 -25.43837,-56.81818 -56.81818,-56.81818 z"
       style="fill:#ffcc00;fill-opacity:1;stroke:none;stroke-width:22.72727394"
       inkscape:connector-curvature="0" /><rect
       transform="scale(-1,1)"
       y="-5.9999998e-06"
       x="-500"
       height="500"
       width="500"
       id="rect4036"
       style="fill:#566060;fill-opacity:0;stroke:none;stroke-width:22.72727394" /></g></svg>