<?xml version="1.0" encoding="UTF-8" standalone="no"?>
<svg
   xmlns:dc="http://purl.org/dc/elements/1.1/"
   xmlns:cc="http://creativecommons.org/ns#"
   xmlns:rdf="http://www.w3.org/1999/02/22-rdf-syntax-ns#"
   xmlns:svg="http://www.w3.org/2000/svg"
   xmlns="http://www.w3.org/2000/svg"
   xmlns:sodipodi="http://sodipodi.sourceforge.net/DTD/sodipodi-0.dtd"
   xmlns:inkscape="http://www.inkscape.org/namespaces/inkscape"
   viewBox="0 0 511.99999 511.99999"
   height="512"
   width="512"
   version="1.1"
   id="svg2"
   inkscape:version="0.91 r13725"
   sodipodi:docname="gphpedit.svg">
  <sodipodi:namedview
     pagecolor="#ffffff"
     bordercolor="#666666"
     borderopacity="1"
     objecttolerance="10"
     gridtolerance="10"
     guidetolerance="10"
     inkscape:pageopacity="0"
     inkscape:pageshadow="2"
     inkscape:window-width="1366"
     inkscape:window-height="715"
     id="namedview18"
     showgrid="false"
     inkscape:zoom="0.40625"
     inkscape:cx="10.458766"
     inkscape:cy="372.39698"
     inkscape:window-x="0"
     inkscape:window-y="24"
     inkscape:window-maximized="1"
     inkscape:current-layer="svg2" />
  <metadata
     id="metadata8">
    <rdf:RDF>
      <cc:Work
         rdf:about="">
        <dc:format>image/svg+xml</dc:format>
        <dc:type
           rdf:resource="http://purl.org/dc/dcmitype/StillImage" />
        <dc:title />
      </cc:Work>
    </rdf:RDF>
  </metadata>
  <defs
     id="defs6">
    <filter
       height="1.096"
       y="-0.048"
       width="1.096"
       x="-0.048"
       id="filter4329"
       style="color-interpolation-filters:sRGB">
      <feGaussianBlur
         id="feGaussianBlur4331"
         stdDeviation="2.1324205" />
    </filter>
    <filter
       height="1.0327445"
       y="-0.016372267"
       width="1.0399742"
       x="-0.019987123"
       id="filter4376"
       style="color-interpolation-filters:sRGB">
      <feGaussianBlur
         id="feGaussianBlur4378"
         stdDeviation="1.1736058" />
    </filter>
    <filter
       height="1.0570984"
       y="-0.0285492"
       width="1.0632123"
       x="-0.031606145"
       id="filter4436"
       style="color-interpolation-filters:sRGB">
      <feGaussianBlur
         id="feGaussianBlur4438"
         stdDeviation="0.63519096" />
    </filter>
  </defs>
  <g
     id="g4191">
    <rect
       rx="32.418919"
       ry="36.631306"
       y="30.03776"
       x="71.772804"
       height="463.24927"
       width="392.43954"
       id="rect3003"
       style="fill:#c87137;fill-opacity:1;stroke:none" />
    <path
       sodipodi:nodetypes="cccczcczcccczc"
       inkscape:connector-curvature="0"
       id="path3773"
       d="m 92.781189,45.702438 c -2.770897,3.407446 -2.328878,7.906436 -2.328878,7.906436 l 0.08152,385.104706 0.0056,28.23305 c 0,0 -0.181887,4.41575 1.86817,6.7183 2.050223,2.30253 6.931566,2.51852 6.931566,2.51852 l 338.106332,-0.0167 c 0,0 5.66356,0.31109 8.21092,-1.92013 2.54737,-2.23118 2.32445,-7.19038 2.32445,-7.19038 L 447.14934,157.83522 332.40348,43.263929 100.1393,42.843592 c 0,0 -4.587548,-0.545661 -7.358389,2.861508 z"
       style="fill:#ffffff;stroke:none" />
    <path
       sodipodi:nodetypes="czzczzcc"
       inkscape:connector-curvature="0"
       id="path3775"
       d="m 332.18754,43.133613 c 0,0 8.65551,13.520319 12.79693,26.660338 4.14143,13.140019 4.71382,36.199099 4.69219,48.628369 -0.0222,12.42927 -2.55939,25.59386 -2.55939,25.59386 0,0 22.61084,-2.72492 37.75101,-1.06642 15.14012,1.6585 27.36959,3.89016 38.17751,7.03836 10.80799,3.14816 24.74077,8.53124 24.74077,8.53124 z"
       style="fill:#cccccc;stroke:none" />
    <circle
       r="19.408695"
       id="path3777"
       style="fill:#394050;fill-opacity:1;stroke:none"
       cx="119.49707"
       cy="82.243851" />
    <path
       sodipodi:nodetypes="cczcczc"
       inkscape:connector-curvature="0"
       id="path3779"
       d="m 49.814221,94.400903 70.383129,0 c 0,0 10.35121,-0.893631 10.13095,-11.090737 -0.22015,-10.197051 -10.66413,-11.517175 -10.66413,-11.517175 l -70.7031,0.426436 c 0,0 -9.158186,1.982238 -8.957833,11.517231 0.200186,9.534992 9.810984,10.664356 9.810984,10.664356 z"
       style="fill:#b3b3b3;stroke:none;fill-opacity:1" />
    <circle
       r="19.408695"
       id="path3777-3"
       style="fill:#394050;fill-opacity:1;stroke:none"
       cx="119.94467"
       cy="131.9946" />
    <path
       sodipodi:nodetypes="cczcczc"
       inkscape:connector-curvature="0"
       id="path3779-6"
       d="m 50.26173,144.15165 70.38313,0 c 0,0 10.35122,-0.89363 10.13096,-11.09073 -0.22016,-10.19706 -10.66414,-11.51718 -10.66414,-11.51718 l -70.703101,0.42643 c 0,0 -9.158186,1.98224 -8.957833,11.51724 0.200186,9.53499 9.810984,10.66436 9.810984,10.66436 z"
       style="fill:#b3b3b3;stroke:none;fill-opacity:1" />
    <circle
       r="19.408695"
       id="path3777-7"
       style="fill:#394050;fill-opacity:1;stroke:none"
       cx="120.32412"
       cy="181.31932" />
    <path
       sodipodi:nodetypes="cczcczc"
       inkscape:connector-curvature="0"
       id="path3779-5"
       d="m 50.641198,193.47641 70.383132,0 c 0,0 10.35121,-0.89364 10.13095,-11.09074 -0.22015,-10.19705 -10.66413,-11.51718 -10.66413,-11.51718 l -70.703103,0.42645 c 0,0 -9.158186,1.98223 -8.957833,11.51722 0.200186,9.535 9.810984,10.66436 9.810984,10.66436 z"
       style="fill:#b3b3b3;stroke:none;fill-opacity:1" />
    <circle
       r="19.408695"
       id="path3777-3-3"
       style="fill:#394050;fill-opacity:1;stroke:none"
       cx="120.77171"
       cy="231.07021" />
    <path
       sodipodi:nodetypes="cczcczc"
       inkscape:connector-curvature="0"
       id="path3779-6-5"
       d="m 51.088707,243.22716 70.383133,0 c 0,0 10.35122,-0.89363 10.13095,-11.09073 -0.22015,-10.19706 -10.66413,-11.51718 -10.66413,-11.51718 l -70.703104,0.42643 c 0,0 -9.158186,1.98224 -8.957833,11.51724 0.200186,9.53498 9.810984,10.66435 9.810984,10.66435 z"
       style="fill:#b3b3b3;stroke:none;fill-opacity:1" />
    <circle
       r="19.408695"
       id="path3777-6"
       style="fill:#394050;fill-opacity:1;stroke:none"
       cx="120.55186"
       cy="280.70966" />
    <path
       sodipodi:nodetypes="cczcczc"
       inkscape:connector-curvature="0"
       id="path3779-2"
       d="m 50.86889,292.86673 70.38313,0 c 0,0 10.35121,-0.89364 10.13095,-11.09075 -0.22015,-10.19704 -10.66413,-11.51716 -10.66413,-11.51716 l -70.703102,0.42643 c 0,0 -9.158186,1.98224 -8.957833,11.51722 0.200187,9.535 9.810985,10.66437 9.810985,10.66437 z"
       style="fill:#b3b3b3;stroke:none;fill-opacity:1" />
    <circle
       r="19.408695"
       id="path3777-3-9"
       style="fill:#394050;fill-opacity:1;stroke:none"
       cx="120.99945"
       cy="330.46051" />
    <path
       sodipodi:nodetypes="cczcczc"
       inkscape:connector-curvature="0"
       id="path3779-6-1"
       d="m 51.316398,342.61747 70.383132,0 c 0,0 10.35122,-0.89363 10.13095,-11.09073 -0.22015,-10.19706 -10.66413,-11.51718 -10.66413,-11.51718 L 50.463248,320.436 c 0,0 -9.158187,1.98223 -8.957834,11.51723 0.200187,9.53499 9.810984,10.66435 9.810984,10.66435 z"
       style="fill:#b3b3b3;stroke:none;fill-opacity:1" />
    <circle
       r="19.408695"
       id="path3777-7-2"
       style="fill:#394050;fill-opacity:1;stroke:none"
       cx="121.37891"
       cy="379.78525" />
    <path
       sodipodi:nodetypes="cczcczc"
       inkscape:connector-curvature="0"
       id="path3779-5-7"
       d="m 51.695867,391.94224 70.383133,0 c 0,0 10.35121,-0.89364 10.13095,-11.09075 -0.22015,-10.19704 -10.66413,-11.51717 -10.66413,-11.51717 l -70.703105,0.42644 c 0,0 -9.158186,1.98224 -8.957833,11.51722 0.200186,9.535 9.810985,10.66436 9.810985,10.66436 z"
       style="fill:#b3b3b3;stroke:none;fill-opacity:1" />
    <circle
       r="19.408695"
       id="path3777-3-3-0"
       style="fill:#394050;fill-opacity:1;stroke:none"
       cx="121.8265"
       cy="429.53601" />
    <path
       sodipodi:nodetypes="cczcczc"
       inkscape:connector-curvature="0"
       id="path3779-6-5-9"
       d="m 52.143375,441.69298 70.383135,0 c 0,0 10.35121,-0.89363 10.13095,-11.09074 -0.22015,-10.19705 -10.66413,-11.51717 -10.66413,-11.51717 l -70.703106,0.42643 c 0,0 -9.158186,1.98224 -8.957833,11.51724 0.200187,9.53499 9.810984,10.66435 9.810984,10.66435 z"
       style="fill:#b3b3b3;stroke:none;fill-opacity:1" />
    <path
       style="fill:#00bbf2;fill-opacity:1;fill-rule:nonzero;stroke:none"
       id="path3474"
       d="m 296.35212,454.81202 c 74.61577,0 135.10563,-30.65461 135.10563,-68.46874 0,-37.8136 -60.48986,-68.46867 -135.10563,-68.46867 -74.61576,0 -135.10563,30.65507 -135.10563,68.46867 0,37.81413 60.48987,68.46874 135.10563,68.46874"
       inkscape:connector-curvature="0" />
    <g
       style="fill:#ffffff"
       id="g3484"
       transform="matrix(0.50852767,0,0,-0.50852767,232.14257,394.83255)">
      <path
         inkscape:connector-curvature="0"
         d="m 0,0 c 12.065,0 21.072,2.225 26.771,6.611 5.638,4.341 9.532,11.862 11.573,22.353 1.903,9.806 1.178,16.653 -2.154,20.348 C 32.783,53.086 25.417,55 14.297,55 L -4.984,55 -15.673,0 0,0 Z m -63.063,-67.75 c -0.895,0 -1.745,0.4 -2.314,1.092 -0.57,0.691 -0.801,1.601 -0.63,2.48 L -37.679,81.573 C -37.405,82.982 -36.17,84 -34.734,84 L 26.32,84 C 45.508,84 59.79,78.79 68.767,68.513 77.792,58.182 80.579,43.741 77.05,25.592 75.614,18.198 73.144,11.331 69.709,5.183 66.27,-0.972 61.725,-6.667 56.198,-11.747 49.582,-17.939 42.094,-22.429 33.962,-25.071 25.959,-27.678 15.681,-29 3.414,-29 l -24.722,0 -7.06,-36.322 c -0.274,-1.41 -1.508,-2.428 -2.944,-2.428 l -31.751,0 z"
         id="path3486"
         style="fill:#ffffff;fill-opacity:1;fill-rule:nonzero;stroke:none" />
    </g>
    <g
       style="fill:#ffffff"
       id="g3492"
       transform="matrix(0.50852767,0,0,-0.50852767,308.34472,409.57985)">
      <path
         inkscape:connector-curvature="0"
         d="m 0,0 c -0.896,0 -1.745,0.4 -2.314,1.092 -0.571,0.691 -0.802,1.6 -0.631,2.48 L 9.586,68.061 C 10.778,74.194 10.484,78.596 8.759,80.456 7.703,81.593 4.531,83.5 -4.848,83.5 L -27.55,83.5 -43.305,2.428 C -43.579,1.018 -44.814,0 -46.25,0 l -31.5,0 c -0.896,0 -1.745,0.4 -2.315,1.092 -0.57,0.691 -0.801,1.601 -0.63,2.48 l 28.328,145.751 c 0.274,1.409 1.509,2.427 2.945,2.427 l 31.5,0 c 0.896,0 1.745,-0.4 2.315,-1.091 0.57,-0.692 0.801,-1.601 0.63,-2.481 L -21.813,113 2.609,113 c 18.605,0 31.221,-3.28 38.569,-10.028 7.49,-6.884 9.827,-17.891 6.947,-32.719 L 34.945,2.428 C 34.671,1.018 33.437,0 32,0 L 0,0 Z"
         id="path3494"
         style="fill:#ffffff;fill-opacity:1;fill-rule:nonzero;stroke:none" />
    </g>
    <g
       style="fill:#ffffff"
       id="g3500"
       transform="matrix(0.50852767,0,0,-0.50852767,358.16356,394.83255)">
      <path
         inkscape:connector-curvature="0"
         d="m 0,0 c 12.065,0 21.072,2.225 26.771,6.611 5.638,4.34 9.532,11.861 11.574,22.353 1.903,9.806 1.178,16.653 -2.155,20.348 C 32.783,53.086 25.417,55 14.297,55 L -4.984,55 -15.673,0 0,0 Z m -63.062,-67.75 c -0.895,0 -1.745,0.4 -2.314,1.092 -0.57,0.691 -0.802,1.601 -0.631,2.48 L -37.679,81.573 C -37.404,82.982 -36.17,84 -34.733,84 L 26.32,84 C 45.509,84 59.79,78.79 68.768,68.513 77.793,58.183 80.579,43.742 77.051,25.592 75.613,18.198 73.144,11.331 69.709,5.183 66.27,-0.972 61.725,-6.667 56.198,-11.747 49.582,-17.939 42.094,-22.429 33.962,-25.071 25.959,-27.678 15.681,-29 3.414,-29 l -24.723,0 -7.057,-36.322 c -0.275,-1.41 -1.509,-2.428 -2.946,-2.428 l -31.75,0 z"
         id="path3502"
         style="fill:#ffffff;fill-opacity:1;fill-rule:nonzero;stroke:none" />
    </g>
  </g>
</svg>
