<?xml version="1.0" encoding="UTF-8" standalone="no"?>
<svg
   xmlns:dc="http://purl.org/dc/elements/1.1/"
   xmlns:cc="http://creativecommons.org/ns#"
   xmlns:rdf="http://www.w3.org/1999/02/22-rdf-syntax-ns#"
   xmlns:svg="http://www.w3.org/2000/svg"
   xmlns="http://www.w3.org/2000/svg"
   xmlns:xlink="http://www.w3.org/1999/xlink"
   xmlns:sodipodi="http://sodipodi.sourceforge.net/DTD/sodipodi-0.dtd"
   xmlns:inkscape="http://www.inkscape.org/namespaces/inkscape"
   width="500"
   height="500"
   version="1.1"
   id="svg2"
   inkscape:version="0.91 r13725"
   sodipodi:docname="haguichi.svg"
   viewBox="0 0 500 500">
  <sodipodi:namedview
     pagecolor="#ffffff"
     bordercolor="#666666"
     borderopacity="1"
     objecttolerance="10"
     gridtolerance="10"
     guidetolerance="10"
     inkscape:pageopacity="0"
     inkscape:pageshadow="2"
     inkscape:window-width="1366"
     inkscape:window-height="708"
     id="namedview17"
     showgrid="false"
     inkscape:zoom="0.4609375"
     inkscape:cx="138.45344"
     inkscape:cy="286.15652"
     inkscape:window-x="0"
     inkscape:window-y="0"
     inkscape:window-maximized="1"
     inkscape:current-layer="svg2"
     inkscape:document-units="px" />
  <title
     id="title4">Double Dice Icon</title>
  <desc
     id="desc6">This icon is a part of Clarity icon theme for gtk</desc>
  <metadata
     id="metadata8">
    <rdf:RDF>
      <cc:Work
         rdf:about="">
        <dc:title>Double Dice Icon</dc:title>
        <dc:description>This icon is a part of Clarity icon theme for gtk</dc:description>
        <dc:creator>
          <cc:Agent>
            <dc:title>Jakub Jankiewicz</dc:title>
          </cc:Agent>
        </dc:creator>
        <dc:rights>
          <cc:Agent>
            <dc:title>Jakub Jankiewicz</dc:title>
          </cc:Agent>
        </dc:rights>
        <dc:date>2010</dc:date>
        <dc:format>image/svg+xml</dc:format>
        <dc:type
           rdf:resource="http://purl.org/dc/dcmitype/StillImage" />
        <cc:license
           rdf:resource="http://www.gnu.org/copyleft/gpl.html" />
      </cc:Work>
    </rdf:RDF>
  </metadata>
  <defs
     id="defs10">
    <linearGradient
       x1="0"
       y1="128"
       x2="128"
       y2="0"
       id="gradient"
       gradientUnits="userSpaceOnUse">
      <stop
         id="start"
         style="stop-color:#dbdbdb;stop-opacity:1"
         offset="0" />
      <stop
         id="stop"
         style="stop-color:#757575;stop-opacity:1"
         offset="1" />
    </linearGradient>
    <linearGradient
       x1="127.99561"
       y1="241.00548"
       x2="127.99561"
       y2="85.001923"
       id="linearGradient3698"
       xlink:href="#linearGradient6204"
       gradientUnits="userSpaceOnUse"
       gradientTransform="matrix(2.047213,0,0,2.047213,-39.036471,-69.894362)" />
    <linearGradient
       id="linearGradient6204">
      <stop
         id="stop6206"
         style="stop-color:#e51d00;stop-opacity:1"
         offset="0" />
      <stop
         id="stop6208"
         style="stop-color:#ffb276;stop-opacity:1"
         offset="1" />
    </linearGradient>
  </defs>
  <path
     d="m 335.8594,11.994208 c -18.34867,0.398709 -36.70865,6.909802 -51.69209,19.832392 -48.18646,41.558626 -10.75954,84.73706 -52.7797,120.97748 -42.02016,36.24049 -79.2526,-7.07584 -127.43906,34.48278 l 0,0.0648 c -10.702462,9.2304 -18.425102,20.66005 -23.095082,33.01128 -0.0288,0.0813 -0.0359,0.17489 -0.0648,0.25621 -0.94043,2.51182 -1.74412,5.03327 -2.43107,7.6131 -0.30514,1.1454 -0.64053,2.29872 -0.89566,3.45469 -0.0288,0.12595 -0.0359,0.25765 -0.0648,0.38361 -0.52539,2.43797 -0.91395,4.88544 -1.21557,7.35716 -0.002,0.0216 0.002,0.0431 0,0.0648 -0.0144,0.12882 -0.0504,0.25477 -0.0648,0.38359 -0.13387,1.15123 -0.23462,2.29894 -0.31955,3.45463 -0.0648,0.86895 -0.15402,1.75311 -0.19216,2.623 -0.0216,0.44262 -0.0504,0.90034 -0.0648,1.34346 -0.004,0.14754 0.004,0.30012 0,0.44765 -0.0216,1.15958 -0.0287,2.29447 0,3.45469 0.0144,0.59375 0.0359,1.1983 0.0648,1.79133 0.0359,0.86989 0.12666,1.75404 0.19216,2.623 0.0965,1.28711 0.22598,2.55536 0.38359,3.8385 0.002,0.0216 -0.002,0.0432 0,0.0648 0.30156,2.47164 0.6902,4.91913 1.21558,7.35716 0.0287,0.12739 0.0359,0.25622 0.0648,0.3836 0.25838,1.16297 0.58512,2.30088 0.89567,3.45469 0.6873,2.57984 1.49062,5.10129 2.43106,7.61303 0.0288,0.0821 0.0359,0.17345 0.0648,0.25621 4.66998,12.35123 12.39262,23.78096 23.095082,33.01136 l 0,0.0648 c 48.18645,41.55862 85.4189,-1.75779 127.43905,34.4827 42.02016,36.24048 4.59325,79.41893 52.77971,120.97754 34.24793,29.53723 85.9383,25.67519 115.4756,-8.57274 29.5373,-34.24794 25.73917,-85.93831 -8.50877,-115.4756 -48.18637,-41.55855 -85.41882,1.82169 -127.43898,-34.41879 -21.22695,-18.30723 -22.15681,-38.43189 -24.11869,-59.17724 1.96188,-20.74533 2.89174,-40.86994 24.11869,-59.17722 42.02016,-36.2405 79.25261,7.13981 127.43898,-34.41879 34.24796,-29.53695 38.04609,-81.227322 8.50879,-115.475261 -16.61471,-19.264481 -40.1922,-28.917499 -63.7835,-28.405068 z"
     inkscape:connector-curvature="0"
     id="path3984-0-3-4-7"
     style="color:#000000;display:inline;overflow:visible;visibility:visible;fill:#ff6600;fill-opacity:1;fill-rule:evenodd;stroke:none;stroke-width:1;marker:none;enable-background:accumulate" />
</svg>
