<?xml version="1.0" encoding="UTF-8" standalone="no"?>
<svg
   xmlns:dc="http://purl.org/dc/elements/1.1/"
   xmlns:cc="http://creativecommons.org/ns#"
   xmlns:rdf="http://www.w3.org/1999/02/22-rdf-syntax-ns#"
   xmlns:svg="http://www.w3.org/2000/svg"
   xmlns="http://www.w3.org/2000/svg"
   xmlns:sodipodi="http://sodipodi.sourceforge.net/DTD/sodipodi-0.dtd"
   xmlns:inkscape="http://www.inkscape.org/namespaces/inkscape"
   height="500"
   id="Layer_1"
   version="1.1"
   viewBox="0 0 500 500"
   width="500"
   xml:space="preserve"
   inkscape:version="0.91 r13725"
   sodipodi:docname="imageshack-uploader.svg"><metadata
     id="metadata52"><rdf:RDF><cc:Work
         rdf:about=""><dc:format>image/svg+xml</dc:format><dc:type
           rdf:resource="http://purl.org/dc/dcmitype/StillImage" /></cc:Work></rdf:RDF></metadata><defs
     id="defs50" /><sodipodi:namedview
     pagecolor="#ffffff"
     bordercolor="#666666"
     borderopacity="1"
     objecttolerance="10"
     gridtolerance="10"
     guidetolerance="10"
     inkscape:pageopacity="0"
     inkscape:pageshadow="2"
     inkscape:window-width="1366"
     inkscape:window-height="715"
     id="namedview48"
     showgrid="false"
     inkscape:zoom="0.23046515"
     inkscape:cx="1072.3109"
     inkscape:cy="634.16355"
     inkscape:window-x="0"
     inkscape:window-y="24"
     inkscape:window-maximized="1"
     inkscape:current-layer="Layer_1" /><g
     id="g18"
     transform="translate(0,435.999)" /><g
     id="g20"
     transform="translate(0,435.999)" /><g
     id="g22"
     transform="translate(0,435.999)" /><g
     id="g24"
     transform="translate(0,435.999)" /><g
     id="g26"
     transform="translate(0,435.999)" /><g
     id="g28"
     transform="translate(0,435.999)" /><g
     id="g30"
     transform="translate(0,435.999)" /><g
     id="g32"
     transform="translate(0,435.999)" /><g
     id="g34"
     transform="translate(0,435.999)" /><g
     id="g36"
     transform="translate(0,435.999)" /><g
     id="g38"
     transform="translate(0,435.999)" /><g
     id="g40"
     transform="translate(0,435.999)" /><g
     id="g42"
     transform="translate(0,435.999)" /><g
     id="g44"
     transform="translate(0,435.999)" /><g
     id="g46"
     transform="translate(0,435.999)" /><g
     id="g4166"><path
       inkscape:connector-curvature="0"
       id="path4167"
       d="m 420.45515,439.89121 c -7.55336,-3.4409 -8.31515,-3.54743 -27.92041,-3.90429 -13.11825,-0.23876 -25.66538,0.26898 -35.93754,1.45428 -8.68031,1.00163 -18.79549,1.82115 -22.47818,1.82115 -8.29488,0 -19.62931,-3.40933 -27.30084,-8.21193 -6.36377,-3.98389 -32.94515,-29.62347 -40.33597,-38.90681 -2.54719,-3.19942 -10.24624,-11.57607 -17.109,-18.61481 -6.86277,-7.03871 -14.2838,-15.1409 -16.49116,-18.00487 -2.20736,-2.86394 -6.36932,-7.6013 -9.2488,-10.52742 -6.50597,-6.61139 -8.7755,-9.86606 -14.12235,-20.25243 l -4.23322,-8.22314 -13.79987,-0.0256 c -8.24969,-0.0152 -14.73571,-0.56498 -16.12672,-1.36668 -1.27977,-0.73758 -4.49098,-2.13719 -7.13601,-3.11021 -6.27077,-2.30684 -7.38044,-1.37059 -11.54167,9.73791 -1.79775,4.79913 -4.12065,9.77278 -5.16198,11.05254 -6.8925,8.47061 -4.37195,12.67343 7.40629,12.34939 9.21344,-0.25346 12.24532,1.07097 15.53451,6.78606 2.60206,4.52117 14.07284,15.18559 16.33382,15.18559 2.12571,0 14.23239,12.20916 14.23239,14.35286 0,4.24854 -3.31487,8.58973 -7.14375,9.35548 -2.06502,0.41301 -4.05104,0.2918 -4.41339,-0.26935 -1.11394,-1.7251 -5.89424,-2.79894 -5.89424,-1.32408 0,1.27635 15.51416,17.44156 16.73911,17.44156 1.54439,0 10.77419,7.09308 12.12663,9.31928 2.12584,3.49928 0.73441,8.6876 -2.75645,10.27815 -4.36764,1.99002 -13.38444,-2.89246 -23.93902,-12.96268 -11.70152,-11.16455 -19.34854,-15.98743 -30.79852,-19.42422 -5.48833,-1.64735 -8.56753,-0.97874 -14.7492,3.20258 -5.26979,3.56452 -15.22562,15.93472 -18.29863,22.73624 -3.53065,7.81436 -5.12612,9.2892 -9.10388,8.41554 -4.90495,-1.07732 -7.86434,-9.1629 -10.02202,-27.38202 -2.86047,-24.15333 -6.07511,-32.23541 -14.410774,-36.2308 C 77.414071,357.47745 68.097219,348.22233 60.696797,333.1907 51.646939,314.80879 43.660046,300.00308 40.793481,296.29494 c -1.179702,-1.52602 -2.140645,-3.35843 -2.135444,-4.07199 0.0047,-0.71356 -1.768931,-5.48571 -3.942524,-10.60479 -4.498839,-10.59529 -6.794103,-21.12707 -5.24456,-24.0646 0.568508,-1.07772 1.033646,-3.06616 1.033646,-4.41873 0,-2.92513 6.995422,-14.19178 11.27314,-18.15623 3.552125,-3.29201 9.250921,-6.30337 11.883265,-6.27938 5.565886,0.0507 20.156744,7.60162 21.511646,11.13244 1.275092,3.32283 4.232834,1.49649 7.222407,-4.45967 1.686188,-3.35939 5.44667,-8.34624 8.35663,-11.08189 l 5.29083,-4.9739 -1.356462,-5.87655 c -1.80709,-7.8287 -1.710189,-12.22959 0.427804,-19.42897 1.122542,-3.78003 2.740577,-6.53136 4.362846,-7.41866 1.418215,-0.7757 8.261175,-2.0691 15.206575,-2.87425 13.03898,-1.51153 18.43616,-3.46473 26.34675,-9.53473 5.06845,-3.88915 9.27737,-5.28687 23.26851,-7.72712 6.0789,-1.06024 13.24766,-2.41398 15.93058,-3.00829 2.68292,-0.59433 6.6795,-1.08059 8.88128,-1.08059 2.83621,0 6.23226,-1.52624 11.64937,-5.23542 4.20535,-2.87948 8.03377,-5.23541 8.50756,-5.23541 0.47381,0 2.722,-1.28791 4.99598,-2.862 2.98034,-2.06303 7.38233,-3.36359 15.76878,-4.65882 13.77059,-2.12676 24.9139,-4.95812 27.3405,-6.94682 1.62301,-1.33013 5.84275,-3.43235 12.81516,-6.38435 1.5901,-0.67322 6.03234,-3.09323 9.87164,-5.3778 20.76488,-12.35608 39.00671,-19.86433 55.26272,-22.74589 9.04383,-1.60312 16.31612,-5.530179 18.69412,-10.094903 3.79634,-7.287337 12.79397,-14.371471 21.12931,-16.635811 5.76765,-1.56682 18.14559,-0.785522 27.82473,1.756307 4.7449,1.246052 7.64955,1.414796 10.46316,0.607867 7.29278,-2.091537 20.00205,-1.307365 30.29765,1.869415 5.3233,1.642536 11.28653,3.474932 13.25161,4.07199 1.96509,0.597047 5.1591,1.085546 7.0978,1.085546 10.10395,0 13.98323,5.016552 12.50375,16.169419 -1.87682,14.14812 -27.08539,44.99651 -76.25331,93.31319 -8.09362,7.9535 -12.19159,12.98229 -14.22116,17.45139 -1.56815,3.45303 -7.09261,11.18174 -12.27659,17.17492 -8.12873,9.39757 -9.41899,11.47831 -9.3787,15.12453 0.0516,4.6775 3.0008,11.97462 9.46689,23.42438 4.97058,8.80159 8.44088,18.62145 10.30564,29.16169 0.72843,4.11741 1.763,9.92261 2.29902,12.90043 0.53603,2.97782 1.7917,6.99432 2.79039,8.92559 2.40951,4.65948 16.22133,12.20859 26.86377,14.68289 4.47919,1.04138 9.97638,2.38956 12.21597,2.99594 2.2396,0.60638 6.16616,1.62443 8.72569,2.26235 2.55954,0.63791 9.58469,3.65649 15.61145,6.70794 15.57633,7.88657 19.18314,13.92204 10.12433,16.94166 -2.48718,0.82905 -3.72602,0.58969 -5.66311,-1.09418 -2.45413,-2.13335 -2.45335,-2.11773 0.0768,1.52783 3.9095,5.63294 4.42474,10.13559 1.49508,13.06526 -3.56352,3.56351 -8.29587,3.12363 -12.69802,-1.1803 -2.04107,-1.99556 -3.71109,-3.97068 -3.71109,-4.38912 0,-2.07834 -19.14317,-9.43393 -24.55206,-9.43393 -1.93772,0 -4.55255,-0.55092 -5.81073,-1.22427 -1.25818,-0.67337 -5.35587,-1.23897 -9.10597,-1.2569 -7.98684,-0.0382 -15.13823,3.69404 -18.11753,9.4554 -1.36855,2.64646 -2.61488,3.49661 -5.12612,3.49661 -4.1809,0 -5.45119,-1.61703 -6.25893,-7.96748 -1.1497,-9.03894 -7.6813,-12.96893 -14.79531,-8.90219 -7.86481,4.49594 -10.88565,-0.0605 -4.70618,-7.09853 1.89079,-2.15349 4.05952,-5.99057 4.81941,-8.52682 2.16186,-7.21569 -2.02108,-18.94202 -18.81689,-52.75064 -6.89652,-13.88212 -10.4962,-18.74577 -15.36762,-20.76357 -7.46917,-3.09382 -13.11478,-0.21887 -28.43946,14.4824 -11.80542,11.32514 -19.19741,21.32302 -23.0684,31.20058 -3.34542,8.53647 -3.4927,11.75659 -0.94179,20.5907 1.75272,6.06991 14.05501,26.49721 18.85929,31.31484 1.10894,1.11202 3.55375,4.1044 5.43293,6.64971 1.87916,2.54532 5.1166,6.12041 7.19432,7.94465 2.0777,1.82425 5.45131,6.24209 7.49689,9.8174 5.12531,8.9581 20.52614,24.72884 24.14881,24.72884 1.8454,0 4.7165,-2.05261 8.54362,-6.10799 17.0212,-18.03646 19.98443,-20.60022 23.83946,-20.62582 4.47232,-0.0297 5.67787,2.91129 4.5541,11.11006 l -0.70629,5.15292 3.75888,-0.0849 c 11.21401,-0.25339 34.32992,-6.29623 42.3049,-11.05915 8.05557,-4.81104 13.82369,-6.35415 19.51611,-5.22103 10.48591,2.08731 13.23014,4.52585 11.17531,9.93044 -1.13038,2.97313 -5.61477,4.6551 -19.79186,7.42335 -17.21295,3.36106 -24.55863,5.33929 -30.2827,8.15532 -7.30928,3.59589 -9.31286,6.10767 -6.84248,8.57805 2.17451,2.17451 6.13925,3.05132 19.6738,4.35086 13.97032,1.34138 19.96898,2.65511 27.62982,6.05101 5.16342,2.28885 6.10669,3.18631 6.10798,5.81141 0.001,2.28128 -1.05565,3.75791 -3.98518,5.56845 -5.22939,3.23194 -10.47116,2.8059 -20.24225,-1.64528 z"
       style="fill:#ffcc00;fill-opacity:1" /><g
       transform="matrix(0.52532041,0,0,0.52532041,-8.044179,-25.223432)"
       id="g4160"><rect
         style="fill:#00bbf2;fill-opacity:1;fill-rule:evenodd;stroke:none"
         id="rect2998"
         width="455.59323"
         height="449.08475"
         x="56.411213"
         y="88.878441"
         ry="224.54237" /><path
         inkscape:connector-curvature="0"
         style="display:inline;opacity:1;fill:#000000;fill-opacity:0.2745098;stroke:none"
         d="m 283.86887,132.84454 c -99.41124,0 -180,80.58876 -180,180 0,99.41124 80.58876,180 180,180 99.41124,0 180,-80.58876 180,-180 0,-99.41124 -80.58876,-180 -180,-180 z m 0,24 c 86.1564,0 155.99997,69.8436 155.99997,156 0,86.1564 -69.84357,156 -155.99997,156 -86.1564,0 -156,-69.8436 -156,-156 0,-86.1564 69.8436,-156 156,-156 z"
         id="path3836" /><path
         inkscape:connector-curvature="0"
         style="display:inline;fill:#ffffff;fill-opacity:1;stroke:none"
         d="m 283.86887,132.84454 0,24 c 86.1564,0 155.99997,69.8436 155.99997,156 0,86.1564 -69.84357,156 -155.99997,156 -86.1564,0 -156,-69.8436 -156,-156 l -24,0 c 0,99.41124 80.58876,180 180,180 99.41124,0 180,-80.58876 180,-180 0,-99.41124 -80.58876,-180 -180,-180 z"
         id="path3917" /><polygon
         id="polygon3780"
         points="16,10 2,10 2,22 16,22 16,30 30,16 16,2.001 "
         transform="matrix(0,-6.4918953,-6.4918953,0,387.74244,416.71487)"
         style="fill:#ffffff" /></g></g></svg>