<?xml version="1.0" encoding="UTF-8" standalone="no"?>
<!-- Created with Inkscape (http://www.inkscape.org/) -->

<svg
   xmlns:dc="http://purl.org/dc/elements/1.1/"
   xmlns:cc="http://creativecommons.org/ns#"
   xmlns:rdf="http://www.w3.org/1999/02/22-rdf-syntax-ns#"
   xmlns:svg="http://www.w3.org/2000/svg"
   xmlns="http://www.w3.org/2000/svg"
   xmlns:sodipodi="http://sodipodi.sourceforge.net/DTD/sodipodi-0.dtd"
   xmlns:inkscape="http://www.inkscape.org/namespaces/inkscape"
   id="svg2987"
   version="1.1"
   inkscape:version="0.91 r13725"
   width="512"
   height="512"
   sodipodi:docname="jack_mixer.svg"
   viewBox="0 0 512 512">
  <metadata
     id="metadata2993">
    <rdf:RDF>
      <cc:Work
         rdf:about="">
        <dc:format>image/svg+xml</dc:format>
        <dc:type
           rdf:resource="http://purl.org/dc/dcmitype/StillImage" />
        <dc:title />
      </cc:Work>
    </rdf:RDF>
  </metadata>
  <defs
     id="defs2991" />
  <sodipodi:namedview
     pagecolor="#ffffff"
     bordercolor="#666666"
     borderopacity="1"
     objecttolerance="10"
     gridtolerance="10"
     guidetolerance="10"
     inkscape:pageopacity="0"
     inkscape:pageshadow="2"
     inkscape:window-width="1366"
     inkscape:window-height="715"
     id="namedview2989"
     showgrid="false"
     inkscape:zoom="0.92187499"
     inkscape:cx="208.56181"
     inkscape:cy="270.52728"
     inkscape:window-x="0"
     inkscape:window-y="24"
     inkscape:window-maximized="1"
     inkscape:current-layer="svg2987"
     inkscape:document-units="px" />
  <g
     id="g4197">
    <g
       transform="matrix(0.96351131,-0.94737715,0.94737715,0.96351131,-314.8712,167.35834)"
       style="fill:#ebebeb;fill-opacity:1"
       id="g4184">
      <rect
         style="fill:#ebebeb;fill-opacity:1;stroke:none;stroke-width:1.5;stroke-miterlimit:4;stroke-dasharray:none;stroke-opacity:1"
         id="rect3350"
         width="226.65768"
         height="68.649292"
         x="35.535343"
         y="312.48901"
         ry="13.039522" />
      <rect
         style="fill:#ebebeb;fill-opacity:1;stroke:none;stroke-width:1.5;stroke-miterlimit:4;stroke-dasharray:none;stroke-opacity:1"
         id="rect3350-3"
         width="226.65768"
         height="52.158123"
         x="221.34863"
         y="317.66647"
         ry="9.9071236" />
      <rect
         style="fill:#ebebeb;fill-opacity:1;stroke:none;stroke-width:1.5;stroke-miterlimit:4;stroke-dasharray:none;stroke-opacity:1"
         id="rect3350-3-6"
         width="47.939442"
         height="34.899925"
         x="428.44702"
         y="325.52853"
         ry="6.6290317" />
      <path
         style="fill:#ebebeb;fill-opacity:1;fill-rule:evenodd;stroke:none;stroke-width:1px;stroke-linecap:butt;stroke-linejoin:miter;stroke-opacity:1"
         d="m 463.72882,364.0678 -0.54238,-39.72881 c 0,0 0.10632,-3.76594 3.66102,-5.83051 3.5547,-2.06457 7.18644,0.13559 7.18644,0.13559 l 26.71186,14.23729 c 0,0 4.88435,3.31401 5.01695,9.22034 0.1326,5.90633 -3.66101,8.27118 -3.66101,8.27118 L 476.61017,368 c 0,0 -6.06846,3.03558 -9.76271,0.94916 -3.69425,-2.08642 -3.11864,-4.88136 -3.11864,-4.88136 z"
         id="path3382"
         inkscape:connector-curvature="0"
         sodipodi:nodetypes="cczcczcczc" />
    </g>
    <rect
       transform="matrix(0.71305166,-0.70111149,0.70111149,0.71305166,0,0)"
       ry="0"
       rx="0"
       y="327.78967"
       x="231.34334"
       height="70.471489"
       width="15.546765"
       id="rect4190"
       style="fill:#394050;fill-opacity:1;stroke:none;stroke-width:1.5;stroke-miterlimit:4;stroke-dasharray:none;stroke-opacity:1" />
    <rect
       transform="matrix(0.71305166,-0.70111149,0.70111149,0.71305166,0,0)"
       rx="16.340641"
       y="303.8588"
       x="-228.25966"
       height="123.85698"
       width="225.72751"
       id="rect4192"
       style="fill:#394050;fill-opacity:1;stroke:none;stroke-width:1.5;stroke-miterlimit:4;stroke-dasharray:none;stroke-opacity:1" />
    <g
       id="flowRoot4194"
       style="font-style:normal;font-weight:normal;font-size:40px;line-height:125%;font-family:sans-serif;letter-spacing:0px;word-spacing:0px;fill:#000000;fill-opacity:1;stroke:none;stroke-width:1px;stroke-linecap:butt;stroke-linejoin:miter;stroke-opacity:1"
       transform="matrix(0.96351131,-0.94737715,0.94737715,0.96351131,-304.27079,139.46267)">
      <path
         id="path4250"
         style="font-size:50px;fill:#ffffff"
         d="m 96.026367,321.45562 4.931643,0 0,33.91113 q 0,6.5918 -2.514651,9.57032 -2.490234,2.97851 -8.032226,2.97851 l -1.879883,0 0,-4.15039 1.538086,0 q 3.271484,0 4.614258,-1.83105 1.342773,-1.83106 1.342773,-6.56739 l 0,-33.91113 z"
         inkscape:connector-curvature="0" />
      <path
         id="path4252"
         style="font-size:50px;fill:#ffffff"
         d="m 122.07617,326.31402 -6.68945,18.13965 13.40332,0 -6.71387,-18.13965 z m -2.7832,-4.8584 5.59082,0 13.8916,36.4502 -5.12695,0 -3.32032,-9.35059 -16.43066,0 -3.32031,9.35059 -5.2002,0 13.91602,-36.4502 z"
         inkscape:connector-curvature="0" />
      <path
         id="path4254"
         style="font-size:50px;fill:#ffffff"
         d="m 170.48926,324.26324 0,5.20019 q -2.49024,-2.31933 -5.32227,-3.46679 -2.80762,-1.14746 -5.98144,-1.14746 -6.25,0 -9.57032,3.833 -3.32031,3.8086 -3.32031,11.03516 0,7.20215 3.32031,11.03516 3.32032,3.80859 9.57032,3.80859 3.17382,0 5.98144,-1.14746 2.83203,-1.14746 5.32227,-3.4668 l 0,5.15137 q -2.58789,1.75781 -5.49317,2.63672 -2.88086,0.87891 -6.10351,0.87891 -8.27637,0 -13.03711,-5.05372 -4.76074,-5.07812 -4.76074,-13.84277 0,-8.78906 4.76074,-13.84277 4.76074,-5.07813 13.03711,-5.07813 3.27148,0 6.15234,0.87891 2.90528,0.85449 5.44434,2.58789 z"
         inkscape:connector-curvature="0" />
      <path
         id="path4256"
         style="font-size:50px;fill:#ffffff"
         d="m 178.15527,321.45562 4.93164,0 0,15.40528 16.35743,-15.40528 6.34765,0 -18.09082,16.99219 19.38477,19.45801 -6.49414,0 -17.50489,-17.55371 0,17.55371 -4.93164,0 0,-36.4502 z"
         inkscape:connector-curvature="0" />
    </g>
    <path
       sodipodi:nodetypes="cc"
       inkscape:connector-curvature="0"
       id="path4202"
       d="M 120.33411,427.04543 257.11946,292.66599"
       style="fill:none;fill-rule:evenodd;stroke:#ffffff;stroke-width:2.70250058;stroke-linecap:butt;stroke-linejoin:miter;stroke-miterlimit:4;stroke-dasharray:none;stroke-opacity:1" />
    <g
       id="flowRoot4204"
       style="font-style:normal;font-weight:normal;font-size:40px;line-height:125%;font-family:sans-serif;letter-spacing:0px;word-spacing:0px;fill:#ffffff;fill-opacity:1;stroke:none;stroke-width:1px;stroke-linecap:butt;stroke-linejoin:miter;stroke-opacity:1"
       transform="matrix(0.96351131,-0.94737715,0.94737715,0.96351131,-317.50161,172.00033)">
      <path
         id="path4213"
         style="font-size:15px;fill:#ffffff"
         d="m 97.873047,367.77839 -2.006836,5.44189 4.020996,0 -2.01416,-5.44189 z m -0.834961,-1.45752 1.677246,0 4.167478,10.93505 -1.53808,0 -0.9961,-2.80517 -4.929196,0 -0.996094,2.80517 -1.560059,0 4.174805,-10.93505 z"
         inkscape:connector-curvature="0" />
      <path
         id="path4215"
         style="font-size:15px;fill:#ffffff"
         d="m 104.27441,374.01862 0,-4.96582 1.34766,0 0,4.91455 q 0,1.16455 0.4541,1.75049 0.4541,0.57861 1.36231,0.57861 1.09131,0 1.72119,-0.6958 0.63721,-0.6958 0.63721,-1.89697 l 0,-4.65088 1.34765,0 0,8.20312 -1.34765,0 0,-1.25976 q -0.49073,0.74707 -1.14258,1.11328 -0.64453,0.35889 -1.50147,0.35889 -1.41357,0 -2.14599,-0.87891 -0.73243,-0.87891 -0.73243,-2.5708 z m 3.39112,-5.16357 0,0 z"
         inkscape:connector-curvature="0" />
      <path
         id="path4217"
         style="font-size:15px;fill:#ffffff"
         d="m 119.33301,370.29792 0,-4.43848 1.34765,0 0,11.39648 -1.34765,0 0,-1.23046 q -0.42481,0.73242 -1.07666,1.0913 -0.64453,0.35157 -1.55274,0.35157 -1.48681,0 -2.42431,-1.18653 -0.93018,-1.18652 -0.93018,-3.12011 0,-1.9336 0.93018,-3.12012 0.9375,-1.18652 2.42431,-1.18652 0.90821,0 1.55274,0.35888 0.65185,0.35157 1.07666,1.08399 z m -4.59229,2.86377 q 0,1.48681 0.60791,2.33642 0.61524,0.84229 1.68457,0.84229 1.06934,0 1.68457,-0.84229 0.61524,-0.84961 0.61524,-2.33642 0,-1.48682 -0.61524,-2.3291 -0.61523,-0.84961 -1.68457,-0.84961 -1.06933,0 -1.68457,0.84961 -0.60791,0.84228 -0.60791,2.3291 z"
         inkscape:connector-curvature="0" />
      <path
         id="path4219"
         style="font-size:15px;fill:#ffffff"
         d="m 123.45654,369.0528 1.34766,0 0,8.20312 -1.34766,0 0,-8.20312 z m 0,-3.19336 1.34766,0 0,1.70654 -1.34766,0 0,-1.70654 z"
         inkscape:connector-curvature="0" />
      <path
         id="path4221"
         style="font-size:15px;fill:#ffffff"
         d="m 130.79541,369.99762 q -1.08398,0 -1.71387,0.84961 -0.62988,0.84229 -0.62988,2.31446 0,1.47216 0.62256,2.32177 0.62988,0.84229 1.72119,0.84229 1.07666,0 1.70654,-0.84961 0.62989,-0.84961 0.62989,-2.31445 0,-1.45752 -0.62989,-2.30713 -0.62988,-0.85694 -1.70654,-0.85694 z m 0,-1.14257 q 1.75781,0 2.76123,1.14257 1.00342,1.14258 1.00342,3.16407 0,2.01416 -1.00342,3.16406 -1.00342,1.14258 -2.76123,1.14258 -1.76514,0 -2.76855,-1.14258 -0.9961,-1.1499 -0.9961,-3.16406 0,-2.02149 0.9961,-3.16407 1.00341,-1.14257 2.76855,-1.14257 z"
         inkscape:connector-curvature="0" />
      <path
         id="path4223"
         style="font-size:15px;fill:#ffffff"
         d="m 149.80908,367.16315 0,1.56006 q -0.74707,-0.6958 -1.59668,-1.04004 -0.84228,-0.34424 -1.79443,-0.34424 -1.875,0 -2.8711,1.14991 -0.99609,1.14257 -0.99609,3.31054 0,2.16065 0.99609,3.31055 0.9961,1.14258 2.8711,1.14258 0.95215,0 1.79443,-0.34424 0.84961,-0.34424 1.59668,-1.04004 l 0,1.54541 q -0.77637,0.52734 -1.64795,0.79102 -0.86426,0.26367 -1.83105,0.26367 -2.48291,0 -3.91113,-1.51612 -1.42823,-1.52343 -1.42823,-4.15283 0,-2.63672 1.42823,-4.15283 1.42822,-1.52344 3.91113,-1.52344 0.98144,0 1.8457,0.26367 0.87158,0.25635 1.6333,0.77637 z"
         inkscape:connector-curvature="0" />
      <path
         id="path4225"
         style="font-size:15px;fill:#ffffff"
         d="m 155.229,369.99762 q -1.08398,0 -1.71386,0.84961 -0.62989,0.84229 -0.62989,2.31446 0,1.47216 0.62256,2.32177 0.62989,0.84229 1.72119,0.84229 1.07666,0 1.70655,-0.84961 0.62988,-0.84961 0.62988,-2.31445 0,-1.45752 -0.62988,-2.30713 -0.62989,-0.85694 -1.70655,-0.85694 z m 0,-1.14257 q 1.75782,0 2.76123,1.14257 1.00342,1.14258 1.00342,3.16407 0,2.01416 -1.00342,3.16406 -1.00341,1.14258 -2.76123,1.14258 -1.76513,0 -2.76855,-1.14258 -0.99609,-1.1499 -0.99609,-3.16406 0,-2.02149 0.99609,-3.16407 1.00342,-1.14257 2.76855,-1.14257 z"
         inkscape:connector-curvature="0" />
      <path
         id="path4227"
         style="font-size:15px;fill:#ffffff"
         d="m 168.03906,372.30475 0,4.95117 -1.34765,0 0,-4.90722 q 0,-1.16455 -0.45411,-1.74317 -0.4541,-0.57861 -1.3623,-0.57861 -1.09131,0 -1.72119,0.6958 -0.62988,0.6958 -0.62988,1.89697 l 0,4.63623 -1.35498,0 0,-8.20312 1.35498,0 0,1.27441 q 0.48339,-0.73974 1.13525,-1.10595 0.65918,-0.36621 1.51611,-0.36621 1.41358,0 2.13867,0.8789 0.7251,0.87158 0.7251,2.5708 z"
         inkscape:connector-curvature="0" />
      <path
         id="path4229"
         style="font-size:15px;fill:#ffffff"
         d="m 177.56055,372.30475 0,4.95117 -1.34766,0 0,-4.90722 q 0,-1.16455 -0.4541,-1.74317 -0.4541,-0.57861 -1.36231,-0.57861 -1.0913,0 -1.72119,0.6958 -0.62988,0.6958 -0.62988,1.89697 l 0,4.63623 -1.35498,0 0,-8.20312 1.35498,0 0,1.27441 q 0.4834,-0.73974 1.13525,-1.10595 0.65918,-0.36621 1.51612,-0.36621 1.41357,0 2.13867,0.8789 0.7251,0.87158 0.7251,2.5708 z"
         inkscape:connector-curvature="0" />
      <path
         id="path4231"
         style="font-size:15px;fill:#ffffff"
         d="m 187.27979,372.81745 0,0.65918 -6.19629,0 q 0.0879,1.3916 0.83496,2.12402 0.75439,0.7251 2.09472,0.7251 0.77637,0 1.50147,-0.19043 0.73242,-0.19043 1.45019,-0.57129 l 0,1.27441 q -0.72509,0.30762 -1.48681,0.46875 -0.76172,0.16114 -1.54541,0.16114 -1.96289,0 -3.1128,-1.14258 -1.14257,-1.14258 -1.14257,-3.09082 0,-2.01416 1.08398,-3.19336 1.09131,-1.18652 2.93701,-1.18652 1.65528,0 2.61475,1.06933 0.9668,1.06201 0.9668,2.89307 z m -1.34766,-0.39551 q -0.0146,-1.10596 -0.62256,-1.76514 -0.60059,-0.65918 -1.59668,-0.65918 -1.12793,0 -1.80908,0.63721 -0.67383,0.63721 -0.77637,1.79443 l 4.80469,-0.007 z"
         inkscape:connector-curvature="0" />
      <path
         id="path4233"
         style="font-size:15px;fill:#ffffff"
         d="m 195.39502,369.36774 0,1.25977 q -0.57129,-0.31494 -1.1499,-0.46875 -0.57129,-0.16114 -1.15723,-0.16114 -1.31103,0 -2.03613,0.83497 -0.7251,0.82763 -0.7251,2.3291 0,1.50146 0.7251,2.33642 0.7251,0.82764 2.03613,0.82764 0.58594,0 1.15723,-0.15381 0.57861,-0.16113 1.1499,-0.47607 l 0,1.24511 q -0.56397,0.26368 -1.17188,0.39551 -0.60058,0.13184 -1.28173,0.13184 -1.85303,0 -2.94434,-1.16455 -1.09131,-1.16455 -1.09131,-3.14209 0,-2.00684 1.09863,-3.15674 1.10596,-1.1499 3.02491,-1.1499 0.62256,0 1.21582,0.13183 0.59326,0.12451 1.1499,0.38086 z"
         inkscape:connector-curvature="0" />
      <path
         id="path4235"
         style="font-size:15px;fill:#ffffff"
         d="m 199.08643,366.7237 0,2.3291 2.77587,0 0,1.04736 -2.77587,0 0,4.45313 q 0,1.00342 0.27099,1.28906 0.27832,0.28565 1.12061,0.28565 l 1.38427,0 0,1.12792 -1.38427,0 q -1.56006,0 -2.15332,-0.57861 -0.59326,-0.58594 -0.59326,-2.12402 l 0,-4.45313 -0.98877,0 0,-1.04736 0.98877,0 0,-2.3291 1.35498,0 z"
         inkscape:connector-curvature="0" />
      <path
         id="path4237"
         style="font-size:15px;fill:#ffffff"
         d="m 203.64209,369.0528 1.34766,0 0,8.20312 -1.34766,0 0,-8.20312 z m 0,-3.19336 1.34766,0 0,1.70654 -1.34766,0 0,-1.70654 z"
         inkscape:connector-curvature="0" />
      <path
         id="path4239"
         style="font-size:15px;fill:#ffffff"
         d="m 210.98096,369.99762 q -1.08399,0 -1.71387,0.84961 -0.62988,0.84229 -0.62988,2.31446 0,1.47216 0.62256,2.32177 0.62988,0.84229 1.72119,0.84229 1.07666,0 1.70654,-0.84961 0.62988,-0.84961 0.62988,-2.31445 0,-1.45752 -0.62988,-2.30713 -0.62988,-0.85694 -1.70654,-0.85694 z m 0,-1.14257 q 1.75781,0 2.76123,1.14257 1.00342,1.14258 1.00342,3.16407 0,2.01416 -1.00342,3.16406 -1.00342,1.14258 -2.76123,1.14258 -1.76514,0 -2.76856,-1.14258 -0.99609,-1.1499 -0.99609,-3.16406 0,-2.02149 0.99609,-3.16407 1.00342,-1.14257 2.76856,-1.14257 z"
         inkscape:connector-curvature="0" />
      <path
         id="path4241"
         style="font-size:15px;fill:#ffffff"
         d="m 223.79102,372.30475 0,4.95117 -1.34766,0 0,-4.90722 q 0,-1.16455 -0.4541,-1.74317 -0.4541,-0.57861 -1.36231,-0.57861 -1.09131,0 -1.72119,0.6958 -0.62988,0.6958 -0.62988,1.89697 l 0,4.63623 -1.35498,0 0,-8.20312 1.35498,0 0,1.27441 q 0.4834,-0.73974 1.13525,-1.10595 0.65918,-0.36621 1.51612,-0.36621 1.41357,0 2.13867,0.8789 0.7251,0.87158 0.7251,2.5708 z"
         inkscape:connector-curvature="0" />
      <path
         id="path4243"
         style="font-size:15px;fill:#ffffff"
         d="m 231.32764,366.32087 1.47949,0 0,4.62158 4.90723,-4.62158 1.90429,0 -5.42724,5.09765 5.81543,5.8374 -1.94825,0 -5.25146,-5.26611 0,5.26611 -1.47949,0 0,-10.93505 z"
         inkscape:connector-curvature="0" />
      <path
         id="path4245"
         style="font-size:15px;fill:#ffffff"
         d="m 241.11279,369.0528 1.34766,0 0,8.20312 -1.34766,0 0,-8.20312 z m 0,-3.19336 1.34766,0 0,1.70654 -1.34766,0 0,-1.70654 z"
         inkscape:connector-curvature="0" />
      <path
         id="path4247"
         style="font-size:15px;fill:#ffffff"
         d="m 246.60596,366.7237 0,2.3291 2.77588,0 0,1.04736 -2.77588,0 0,4.45313 q 0,1.00342 0.27099,1.28906 0.27832,0.28565 1.12061,0.28565 l 1.38428,0 0,1.12792 -1.38428,0 q -1.56006,0 -2.15332,-0.57861 -0.59326,-0.58594 -0.59326,-2.12402 l 0,-4.45313 -0.98877,0 0,-1.04736 0.98877,0 0,-2.3291 1.35498,0 z"
         inkscape:connector-curvature="0" />
    </g>
  </g>
</svg>
