<?xml version="1.0" encoding="UTF-8" standalone="no"?>
<!-- Generator: Adobe Illustrator 19.0.0, SVG Export Plug-In . SVG Version: 6.00 Build 0)  -->

<svg
   xmlns:dc="http://purl.org/dc/elements/1.1/"
   xmlns:cc="http://creativecommons.org/ns#"
   xmlns:rdf="http://www.w3.org/1999/02/22-rdf-syntax-ns#"
   xmlns:svg="http://www.w3.org/2000/svg"
   xmlns="http://www.w3.org/2000/svg"
   xmlns:sodipodi="http://sodipodi.sourceforge.net/DTD/sodipodi-0.dtd"
   xmlns:inkscape="http://www.inkscape.org/namespaces/inkscape"
   version="1.1"
   id="Layer_1"
   x="0px"
   y="0px"
   viewBox="0 0 500 500"
   xml:space="preserve"
   inkscape:version="0.91 r13725"
   width="100%"
   height="100%"
   sodipodi:docname="jupiter.svg"><metadata
     id="metadata57"><rdf:RDF><cc:Work
         rdf:about=""><dc:format>image/svg+xml</dc:format><dc:type
           rdf:resource="http://purl.org/dc/dcmitype/StillImage" /></cc:Work></rdf:RDF></metadata><defs
     id="defs55" /><sodipodi:namedview
     pagecolor="#ffffff"
     bordercolor="#666666"
     borderopacity="1"
     objecttolerance="10"
     gridtolerance="10"
     guidetolerance="10"
     inkscape:pageopacity="0"
     inkscape:pageshadow="2"
     inkscape:window-width="1366"
     inkscape:window-height="715"
     id="namedview53"
     showgrid="false"
     inkscape:zoom="0.52559509"
     inkscape:cx="432.76385"
     inkscape:cy="206.80265"
     inkscape:window-x="0"
     inkscape:window-y="24"
     inkscape:window-maximized="1"
     inkscape:current-layer="Layer_1" /><g
     id="g23"
     transform="translate(0,39.767)" /><g
     id="g25"
     transform="translate(0,39.767)" /><g
     id="g27"
     transform="translate(0,39.767)" /><g
     id="g29"
     transform="translate(0,39.767)" /><g
     id="g31"
     transform="translate(0,39.767)" /><g
     id="g33"
     transform="translate(0,39.767)" /><g
     id="g35"
     transform="translate(0,39.767)" /><g
     id="g37"
     transform="translate(0,39.767)" /><g
     id="g39"
     transform="translate(0,39.767)" /><g
     id="g41"
     transform="translate(0,39.767)" /><g
     id="g43"
     transform="translate(0,39.767)" /><g
     id="g45"
     transform="translate(0,39.767)" /><g
     id="g47"
     transform="translate(0,39.767)" /><g
     id="g49"
     transform="translate(0,39.767)" /><g
     id="g51"
     transform="translate(0,39.767)" /><g
     id="g4175"><path
       inkscape:connector-curvature="0"
       id="path4171"
       d="M 119.93749,492.6006 437.20123,231.16439 324.63841,189.4072 444.00946,65.497319 276.98077,8.7620235 120.39137,231.16439 266.99535,276.09874 Z"
       style="fill:#ffcc00;fill-opacity:1;fill-rule:evenodd;stroke:none;stroke-width:1px;stroke-linecap:butt;stroke-linejoin:miter;stroke-opacity:1" /><path
       inkscape:connector-curvature="0"
       id="path4173"
       d="m 265.70539,204.09163 c -3.07192,-2.03963 -29.06163,-29.95736 -30.13887,-32.37471 -4.07433,-9.1429 -3.6177,-16.5759 1.49098,-24.27021 5.68477,-8.56198 13.49046,-10.16461 21.94613,-4.50592 13.16185,8.8081 14.53825,28.57144 2.61992,37.6176 -2.19683,1.66743 -3.41136,1.82041 -5.27661,0.66466 -2.44815,-1.5169 1.43514,2.94927 10.30721,11.85434 l 4.44913,4.46569 -2.3346,3.5162 c -1.28402,1.93388 -2.6625,3.29845 -3.06329,3.03235 z M 251.75773,176.1873 c 0.10216,-0.15374 1.55305,-1.03358 3.22435,-1.95522 9.05938,-4.99567 9.15678,-17.59953 0.18208,-23.55834 -4.31575,-2.86547 -9.76553,-1.80725 -12.58841,2.44435 -3.96762,5.97573 -0.58512,16.02582 7.80743,23.19745 2.03609,1.73988 3.13656,2.48571 2.44549,1.65734 -0.69109,-0.82833 -1.17301,-1.63184 -1.07092,-1.7856 z m -15.11583,40.38759 c -2.20676,1.0311 -5.13076,1.25321 -7.59882,0.57717 -4.17646,-1.14395 -6.49246,-3.1051 -18.75869,-15.88465 l -5.14472,-5.36002 2.32908,-3.50791 c 1.281,-1.92935 2.6215,-3.29286 2.97888,-3.03005 0.35739,0.26282 4.42745,4.38353 9.04458,9.15713 9.682,10.01009 12.78579,11.36127 16.35709,7.12081 4.71296,-5.59603 2.85192,-10.30584 -8.69876,-22.01439 l -8.28511,-8.39832 2.29925,-3.46297 c 1.26461,-1.90464 2.64099,-3.23611 3.05863,-2.95882 2.33739,1.55194 18.00065,18.58769 19.37344,21.07108 5.10083,9.22734 1.5908,22.69799 -6.95485,26.69094 z m 72.5459,-108.8429 c -6.89956,4.01421 -16.6543,0.69998 -22.16973,-7.53232 -3.19563,-4.769743 -5.31267,-15.136869 -4.03996,-19.783446 2.37156,-8.658235 9.57905,-15.743517 15.96886,-15.698076 7.49655,0.05331 7.48462,0.01403 5.31083,17.487128 -1.10906,8.914669 -2.18879,16.20382 -2.39937,16.198111 -0.2106,-0.0057 -1.71514,-0.188609 -3.34345,-0.406454 -2.93224,-0.392283 -2.93166,-0.383835 0.0589,0.882242 4.00019,1.693505 8.1394,0.364193 10.65268,-3.421117 2.90707,-4.37841 3.09316,-8.936091 0.56661,-13.877595 -2.00561,-3.922645 -1.98146,-4.527181 0.28809,-7.208962 2.87422,-3.396208 3.35052,-3.22798 6.4519,2.278616 5.70165,10.123467 2.03897,25.621953 -7.34544,31.081863 z M 296.79419,84.256199 c 1.06471,-9.273028 0.97066,-10.016464 -1.12437,-8.890159 -4.70073,2.527136 -6.53722,8.905971 -4.41725,15.342878 1.12724,3.422701 3.21149,5.710429 3.97905,4.367539 0.2204,-0.385547 0.92354,-5.254679 1.56257,-10.820258 z M 215.68804,247.72598 c -0.53107,-0.65657 -1.91188,-2.17175 -3.06852,-3.36703 -1.93493,-1.99962 -1.87707,-2.51344 0.72442,-6.43161 5.28075,-7.95347 4.63536,-9.14943 -16.62089,-30.79999 l -11.73054,-11.94817 2.60964,-3.93045 c 2.20987,-3.32836 2.80103,-3.69812 3.85908,-2.41373 0.68719,0.83419 7.13202,7.5133 14.32183,14.84244 7.18981,7.32916 14.26173,15.3062 15.71539,17.72677 3.90297,6.4991 3.55286,13.17235 -1.1088,21.1344 -2.97386,5.07929 -3.93307,6.13762 -4.70161,5.18737 z m 62.24962,-96.88926 c -1.17371,-1.16956 -7.31132,-7.43747 -13.63909,-13.92871 l -11.50509,-11.80226 2.21265,-3.92879 c 1.63808,-2.90858 2.44864,-3.62507 3.12141,-2.7592 0.49981,0.64328 6.11246,6.4408 12.47256,12.88339 6.3601,6.44258 12.13788,12.3785 12.83952,13.19095 0.93654,1.08443 0.6584,2.4069 -1.04612,4.97412 -2.21604,3.33763 -2.41903,3.40007 -4.45584,1.3705 z m 13.91535,-18.64085 c -2.10642,0.82587 -3.5965,0.47781 -6.65874,-1.55538 -3.17565,-2.1085 -19.46126,-17.98836 -27.57286,-26.88588 -1.38296,-1.51697 -1.26935,-2.45772 0.64499,-5.340958 2.49732,-3.761298 2.45019,-3.775359 7.80252,2.328068 1.12019,1.2774 1.74458,0.77099 4.88931,-3.965348 3.85438,-5.80518 4.44393,-5.907182 8.37632,-1.449177 1.49195,1.691359 1.29008,2.426533 -2.04595,7.451005 l -3.7012,5.57448 5.75433,5.95363 c 9.61729,9.9504 10.6259,10.15814 15.28074,3.14738 2.40915,-3.62849 3.0979,-3.6418 6.20443,-0.12003 1.50651,1.70786 1.29958,2.41221 -2.30249,7.83736 -2.6204,3.94666 -4.87469,6.3204 -6.6714,7.02485 z m 35.02667,-52.532519 c -0.70993,-0.471363 -6.84471,-6.575415 -13.63284,-13.564557 -6.78814,-6.989142 -12.52021,-12.825811 -12.73793,-12.970375 -0.21773,-0.144563 0.67364,-1.873676 1.98083,-3.842473 1.3072,-1.968796 2.73197,-3.343759 3.16617,-3.055471 0.43419,0.28829 1.2532,-1.343821 1.81999,-3.626913 1.65916,-6.68313 2.70184,-7.733705 5.15722,-5.196272 1.15662,1.195284 2.46548,2.609269 2.90858,3.142195 0.44307,0.532935 0.13044,2.562859 -0.69476,4.510963 -2.72653,6.43667 1.07243,12.995971 14.91822,25.757939 2.8754,2.650323 2.90627,2.922958 0.70608,6.23673 -1.60816,2.422077 -2.68937,3.207255 -3.59156,2.608234 z M 250.3796,120.91708 c -2.23595,0.45155 -4.08886,-1.08526 -5.17288,-4.29042 -0.78171,-2.31131 2.39664,-6.64568 4.52469,-6.17042 2.78632,0.62224 3.37743,1.27874 4.02111,4.466 0.71996,3.56502 -0.2977,5.37379 -3.37292,5.99484 z"
       style="fill:#ffffff" /></g></svg>