<?xml version="1.0" encoding="UTF-8" standalone="no"?>
<svg
   xmlns:dc="http://purl.org/dc/elements/1.1/"
   xmlns:cc="http://creativecommons.org/ns#"
   xmlns:rdf="http://www.w3.org/1999/02/22-rdf-syntax-ns#"
   xmlns:svg="http://www.w3.org/2000/svg"
   xmlns="http://www.w3.org/2000/svg"
   xmlns:sodipodi="http://sodipodi.sourceforge.net/DTD/sodipodi-0.dtd"
   xmlns:inkscape="http://www.inkscape.org/namespaces/inkscape"
   viewBox="0 0 511.99999 511.99999"
   height="512"
   width="512"
   version="1.1"
   id="svg2"
   inkscape:version="0.91 r13725"
   sodipodi:docname="kamoso.svg">
  <sodipodi:namedview
     pagecolor="#ffffff"
     bordercolor="#666666"
     borderopacity="1"
     objecttolerance="10"
     gridtolerance="10"
     guidetolerance="10"
     inkscape:pageopacity="0"
     inkscape:pageshadow="2"
     inkscape:window-width="1366"
     inkscape:window-height="715"
     id="namedview18"
     showgrid="false"
     inkscape:zoom="0.40625"
     inkscape:cx="2.5820913"
     inkscape:cy="258.64692"
     inkscape:window-x="0"
     inkscape:window-y="24"
     inkscape:window-maximized="1"
     inkscape:current-layer="svg2" />
  <metadata
     id="metadata8">
    <rdf:RDF>
      <cc:Work
         rdf:about="">
        <dc:format>image/svg+xml</dc:format>
        <dc:type
           rdf:resource="http://purl.org/dc/dcmitype/StillImage" />
        <dc:title />
      </cc:Work>
    </rdf:RDF>
  </metadata>
  <defs
     id="defs6">
    <filter
       height="1.096"
       y="-0.048"
       width="1.096"
       x="-0.048"
       id="filter4329"
       style="color-interpolation-filters:sRGB">
      <feGaussianBlur
         id="feGaussianBlur4331"
         stdDeviation="2.1324205" />
    </filter>
    <filter
       height="1.0327445"
       y="-0.016372267"
       width="1.0399742"
       x="-0.019987123"
       id="filter4376"
       style="color-interpolation-filters:sRGB">
      <feGaussianBlur
         id="feGaussianBlur4378"
         stdDeviation="1.1736058" />
    </filter>
    <filter
       height="1.0570984"
       y="-0.0285492"
       width="1.0632123"
       x="-0.031606145"
       id="filter4436"
       style="color-interpolation-filters:sRGB">
      <feGaussianBlur
         id="feGaussianBlur4438"
         stdDeviation="0.63519096" />
    </filter>
  </defs>
  <g
     id="g4159">
    <ellipse
       ry="84.626587"
       rx="75.197464"
       cy="234.57175"
       cx="276.09262"
       id="path1109"
       style="opacity:1;fill:#00bbf2;fill-opacity:1;stroke:none;stroke-width:19.51214409;stroke-linecap:round;stroke-miterlimit:4;stroke-dasharray:none;stroke-opacity:1" />
    <path
       sodipodi:nodetypes="ccccccc"
       inkscape:connector-curvature="0"
       id="path864-3-9-6"
       d="m 245.71338,352.90001 95.52936,-111.27284 10.04739,77.57117 -29.605,24.07784 -30.58904,8.20798 -28.84241,2.53794 z"
       style="fill:#282c38;fill-opacity:1;stroke:none;stroke-width:4.87803602px;stroke-linecap:butt;stroke-linejoin:miter;stroke-opacity:1" />
    <path
       sodipodi:nodetypes="ccccccc"
       inkscape:connector-curvature="0"
       id="path864-2-1-0"
       d="m 351.55545,319.72897 -34.64699,-138.81252 67.75607,36.90059 2.08204,30.91153 -9.56104,33.52113 -14.96621,24.78589 z"
       style="fill:#394050;fill-opacity:1;stroke:none;stroke-width:4.87803602px;stroke-linecap:butt;stroke-linejoin:miter;stroke-opacity:1" />
    <path
       sodipodi:nodetypes="ccccccc"
       inkscape:connector-curvature="0"
       id="path864-3-9-2-6"
       d="m 383.69429,227.8918 -127.08762,-62.20926 70.02601,-25.72749 26.8431,16.12396 15.20235,27.78392 12.1988,27.69174 z"
       style="fill:#282c38;fill-opacity:1;stroke:none;stroke-width:4.87803602px;stroke-linecap:butt;stroke-linejoin:miter;stroke-opacity:1" />
    <path
       sodipodi:nodetypes="ccccccc"
       inkscape:connector-curvature="0"
       id="path864-2-7-2"
       d="m 326.63268,139.95505 -127.26186,78.21336 12.63645,-73.52454 27.36549,-15.22052 43.29594,-0.81595 28.39939,5.63925 z"
       style="fill:#282c38;fill-opacity:1;stroke:none;stroke-width:4.87803602px;stroke-linecap:butt;stroke-linejoin:miter;stroke-opacity:1" />
    <path
       inkscape:connector-curvature="0"
       id="path864-3-9-2-0-6"
       d="m 234.24419,124.53888 -24.56447,136.57073 -44.36472,-59.9777 7.9331,-30.29182 22.39385,-22.39584 23.71457,-16.61168 z"
       style="fill:#394050;fill-opacity:1;stroke:none;stroke-width:4.87803602px;stroke-linecap:butt;stroke-linejoin:miter;stroke-opacity:1" />
    <path
       sodipodi:nodetypes="ccccccc"
       inkscape:connector-curvature="0"
       id="path864-2-9-1"
       d="m 165.315,201.13191 90.05923,111.3324 -74.24141,-7.33198 -22.39678,-27.70461 -1.58711,-31.63134 3.58843,-28.73065 z"
       style="fill:#282c38;fill-opacity:1;stroke:none;stroke-width:4.87803602px;stroke-linecap:butt;stroke-linejoin:miter;stroke-opacity:1" />
    <path
       sodipodi:nodetypes="ccccccc"
       inkscape:connector-curvature="0"
       id="path864-2-3"
       d="m 164.72652,298.826 137.40335,-7.95988 -56.41649,62.03389 -25.3052,-5.78394 -27.06369,-16.45044 -21.75711,-19.10381 z"
       style="fill:#394050;fill-opacity:1;stroke:none;stroke-width:4.87803602px;stroke-linecap:butt;stroke-linejoin:miter;stroke-opacity:1" />
    <path
       sodipodi:nodetypes="ccccccccccccccccccccccccsszzzc"
       inkscape:connector-curvature="0"
       id="path860"
       d="M 215.77233,109.7005 216.0377,69.900992 191.09669,84.228808 119.98819,34.877375 78.59669,78.391555 122.6415,149.50005 104.59906,189.83024 25,205.75005 l 0,56.25 77.47639,19.10375 18.57312,46.69813 -44.044815,67.9245 39.799555,39.79956 70.04714,-41.92219 44.04481,17.51181 13.79718,75.88439 58.37263,0 19.63444,-76.41507 44.04481,-18.04244 68.98587,44.04481 L 475,396.78775 l -23.34906,-40.86082 -13.79718,1.59194 -32.90094,-52.00469 c 0,0 -21.19458,33.85664 -52.09162,54.74039 -23.48575,15.8743 -54.81801,19.77205 -73.67488,21.67468 -43.66443,4.40569 -81.70291,-11.80568 -109.31606,-39.26883 -27.61315,-27.46314 -41.34243,-73.29273 -40.33019,-110.37737 1.01224,-37.08463 24.04745,-77.00726 41.3915,-96.58018 17.34406,-19.57293 44.84076,-26.00237 44.84076,-26.00237 z"
       style="fill:#b3b3b3;fill-opacity:1;stroke:none;stroke-width:4.87803602px;stroke-linecap:butt;stroke-linejoin:miter;stroke-opacity:1" />
    <circle
       r="119.21169"
       cy="241.00854"
       cx="271.17944"
       id="path862"
       style="opacity:1;fill:none;fill-opacity:1;stroke:#394050;stroke-width:19.51214409;stroke-linecap:round;stroke-miterlimit:4;stroke-dasharray:none;stroke-opacity:1" />
  </g>
</svg>
