<?xml version="1.0" encoding="UTF-8" standalone="no"?>
<!-- Created with Inkscape (http://www.inkscape.org/) -->

<svg
   xmlns:dc="http://purl.org/dc/elements/1.1/"
   xmlns:cc="http://creativecommons.org/ns#"
   xmlns:rdf="http://www.w3.org/1999/02/22-rdf-syntax-ns#"
   xmlns:svg="http://www.w3.org/2000/svg"
   xmlns="http://www.w3.org/2000/svg"
   xmlns:sodipodi="http://sodipodi.sourceforge.net/DTD/sodipodi-0.dtd"
   xmlns:inkscape="http://www.inkscape.org/namespaces/inkscape"
   id="svg2"
   version="1.1"
   inkscape:version="0.91 r13725"
   width="512"
   height="512"
   sodipodi:docname="kcm-gtk.svg">
  <metadata
     id="metadata8">
    <rdf:RDF>
      <cc:Work
         rdf:about="">
        <dc:format>image/svg+xml</dc:format>
        <dc:type
           rdf:resource="http://purl.org/dc/dcmitype/StillImage" />
        <dc:title />
      </cc:Work>
    </rdf:RDF>
  </metadata>
  <defs
     id="defs6" />
  <sodipodi:namedview
     pagecolor="#ffffff"
     bordercolor="#666666"
     borderopacity="1"
     objecttolerance="10"
     gridtolerance="10"
     guidetolerance="10"
     inkscape:pageopacity="0"
     inkscape:pageshadow="2"
     inkscape:window-width="1149"
     inkscape:window-height="708"
     id="namedview4"
     showgrid="false"
     inkscape:zoom="0.4609375"
     inkscape:cx="55.544655"
     inkscape:cy="462.04395"
     inkscape:window-x="15"
     inkscape:window-y="24"
     inkscape:window-maximized="0"
     inkscape:current-layer="svg2" />
  <path
     inkscape:connector-curvature="0"
     id="path2986"
     d="m 222.26198,498.97616 c -4.30086,-1.91972 -8.8755,-6.83229 -10.9168,-11.72322 -1.05206,-2.5207 -2.10198,-12.21014 -3.0009,-27.69445 -0.76045,-13.09948 -1.76183,-24.86184 -2.22527,-26.13857 -0.61471,-1.69349 -3.61992,-3.29116 -11.11126,-5.90712 -5.64776,-1.97219 -14.15283,-5.53872 -18.90014,-7.92563 -4.74732,-2.38689 -9.66575,-4.33982 -10.92986,-4.33982 -1.4178,0 -9.17289,6.30634 -20.24155,16.46016 -9.86873,9.05309 -19.53853,17.27834 -21.48843,18.27834 -4.01368,2.05841 -13.04408,2.39342 -17.70735,0.65691 -3.70788,-1.38073 -42.932049,-40.0341 -45.446969,-44.7856 -2.4944,-4.71271 -2.22763,-13.52832 0.57099,-18.86902 1.27397,-2.43114 9.57043,-12.28384 18.4366,-21.89489 9.54409,-10.3459 16.12031,-18.37742 16.12031,-19.68764 0,-1.21716 -1.95292,-6.09719 -4.33982,-10.84451 -2.38691,-4.74731 -5.94572,-13.23031 -7.90849,-18.85111 -1.96278,-5.6208 -4.37173,-10.63588 -5.35324,-11.14463 -0.98152,-0.50874 -12.50232,-1.51584 -25.6018,-2.23798 -15.23468,-0.83984 -25.48841,-1.91133 -28.45486,-2.97347 -5.65317,-2.02412 -12.16616,-8.95574 -13.08632,-13.92748 -0.37322,-2.0165 -0.52602,-16.95603 -0.33955,-33.19894 l 0.33904,-29.53257 3.3945,-4.25467 c 5.99876,-7.51887 8.81856,-8.27414 37.47063,-10.03647 16.21708,-0.99749 26.07544,-2.05371 26.89433,-2.88146 0.71101,-0.71871 3.14116,-6.29174 5.40032,-12.38453 2.25915,-6.09278 5.79004,-14.43022 7.84641,-18.52763 2.05637,-4.09742 3.73885,-8.35042 3.73885,-9.45112 0,-1.1007 -6.7831,-9.44161 -15.07356,-18.53535 -8.29046,-9.09373 -16.22051,-18.05098 -17.62234,-19.90501 -3.94274,-5.21453 -5.27601,-11.67174 -3.71614,-17.99765 1.17781,-4.77647 3.33524,-7.36582 21.35361,-25.62851 11.02389,-11.17337 21.892949,-21.268 24.153469,-22.43251 5.24571,-2.70234 13.58672,-2.73975 18.79521,-0.0843 2.19318,1.11814 11.81505,9.21877 21.38193,18.0014 9.56689,8.78262 18.04255,16.3365 18.83484,16.78642 0.83494,0.47414 5.9883,-1.3363 12.25898,-4.30676 5.95017,-2.81861 14.85312,-6.48454 19.78434,-8.14652 6.68624,-2.25347 9.28056,-3.69337 10.2037,-5.66325 0.68083,-1.45282 1.84845,-13.35926 2.59471,-26.45874 1.43521,-25.19258 2.29758,-29.1749 7.49239,-34.5984 5.77848,-6.03287 9.10175,-6.5277798 41.4002,-6.16549 l 29.4183,0.32999 4.60225,3.04763 c 7.91816,5.24345 8.87664,8.50345 10.74144,36.53398 0.90266,13.56824 1.88767,25.72631 2.18892,27.01791 0.42397,1.81775 2.84874,3.15187 10.73157,5.90455 5.60112,1.95589 14.57094,5.75949 19.93294,8.45245 5.36201,2.69297 10.17874,4.8963 10.70384,4.8963 0.5251,0 9.13419,-7.50774 19.13132,-16.68384 9.99711,-9.17612 20.02608,-17.65062 22.2866,-18.83223 5.34357,-2.79318 13.2972,-2.76773 19.14106,0.0613 2.7747,1.3432 12.20097,9.92209 24.03971,21.87862 20.32185,20.52405 21.92338,22.87219 21.93916,32.16709 0.0112,6.57408 -2.91549,10.88667 -20.38644,30.04035 -9.49951,10.41446 -17.27184,19.37698 -17.27184,19.91669 0,0.53971 2.47945,6.14961 5.5099,12.46644 3.03044,6.31683 6.64457,15.16341 8.03139,19.65907 1.72287,5.585 3.22323,8.472 4.73705,9.115 1.21856,0.51759 13.46663,1.64375 27.21794,2.50259 27.2897,1.70436 31.68548,2.82722 36.26096,9.26258 4.3254,6.08362 4.82847,10.64305 4.45389,40.36657 l -0.35831,28.43287 -3.33867,4.74734 c -5.96165,8.47704 -7.4673,8.91135 -37.74248,10.88694 -14.79312,0.96532 -27.15606,2.0146 -27.47321,2.33176 -0.31716,0.31716 -2.15365,5.04527 -4.08109,10.5069 -1.92745,5.46165 -5.71766,14.33754 -8.42269,19.72423 -2.70506,5.38668 -4.76583,10.45844 -4.57953,11.27058 0.18631,0.81214 7.56699,9.357 16.40153,18.98858 8.83453,9.63158 17.18441,19.72394 18.55528,22.42745 2.9119,5.74259 3.18198,11.82324 0.78045,17.57091 -2.11933,5.07227 -38.0926,41.63744 -43.93967,44.66265 -4.88898,2.5295 -13.79465,2.80128 -18.91195,0.57716 -1.96058,-0.85213 -11.78995,-9.07509 -21.84304,-18.27325 -10.05309,-9.19817 -19.0779,-16.72623 -20.05514,-16.72903 -0.97724,-0.003 -6.64017,2.26759 -12.58429,5.04529 -5.94413,2.77771 -14.75197,6.34993 -19.57297,7.93828 -6.66342,2.19535 -8.89443,3.44155 -9.30323,5.19658 -0.29576,1.26977 -1.2763,13.40995 -2.17896,26.9782 -1.98537,29.84285 -3.126,33.07797 -13.51793,38.34024 -3.01332,1.52589 -7.99984,1.78875 -33.23335,1.7519 -22.33262,-0.0326 -30.51147,-0.41089 -33.01142,-1.52676 z m 43.75724,-132.50462 c 26.78112,-2.80677 49.15657,-13.48771 68.20616,-32.55826 14.51901,-14.53499 23.8874,-30.84407 29.52845,-51.40499 3.53643,-12.88981 3.51558,-41.35248 -0.0399,-54.39963 -10.78971,-39.59432 -39.13333,-68.74625 -78.30863,-80.54181 -9.12821,-2.74847 -11.60682,-3.00909 -29.35613,-3.08662 -17.00063,-0.0742 -20.54479,0.23162 -28.80223,2.48586 -41.22993,11.25552 -72.76306,44.38443 -81.37953,85.49784 -7.7414,36.93802 3.5778,74.64033 30.54545,101.7417 14.12004,14.19006 32.44092,24.60186 52.28941,29.71619 5.65987,1.45837 13.69183,2.58238 25.13135,3.51692 0.91392,0.0747 6.39742,-0.36058 12.18556,-0.9672 z m -27.47101,-46.4431 c -28.24696,-7.66077 -48.01557,-31.70052 -49.7659,-60.51815 -1.22382,-20.14894 5.2603,-37.19647 19.56861,-51.44824 26.05766,-25.95469 67.66639,-26.19795 93.39392,-0.546 21.19059,21.12833 26.27511,51.17802 13.12257,77.55487 -11.20256,22.46624 -31.84016,35.72424 -57.15268,36.716 -8.61738,0.33764 -12.87949,-0.0534 -19.16652,-1.75848 z m 31.60201,-27.93457 c 7.80185,-2.91905 17.10779,-11.56877 21.02165,-19.53928 2.76183,-5.62442 3.09528,-7.49672 3.09548,-17.38121 2.1e-4,-10.51503 -0.19264,-11.43349 -3.79628,-18.07997 -7.2743,-13.41658 -18.06759,-20.21506 -33.31407,-20.98387 -12.24764,-0.6176 -19.57845,1.97666 -28.42009,10.05742 -11.2101,10.2454 -15.67052,24.48856 -12.07007,38.54251 3.11639,12.16444 9.71875,20.42413 20.82444,26.05181 10.36058,5.25011 21.02537,5.68526 32.65894,1.33259 z"
     style="fill:#45d03f;fill-opacity:1" />
</svg>
