<?xml version="1.0" encoding="UTF-8" standalone="no"?>
<!-- Generator: Adobe Illustrator 9.0, SVG Export Plug-In  -->

<svg
   xmlns:dc="http://purl.org/dc/elements/1.1/"
   xmlns:cc="http://creativecommons.org/ns#"
   xmlns:rdf="http://www.w3.org/1999/02/22-rdf-syntax-ns#"
   xmlns:svg="http://www.w3.org/2000/svg"
   xmlns="http://www.w3.org/2000/svg"
   xmlns:sodipodi="http://sodipodi.sourceforge.net/DTD/sodipodi-0.dtd"
   xmlns:inkscape="http://www.inkscape.org/namespaces/inkscape"
   width="544pt"
   height="544pt"
   viewBox="0 0 144 144"
   xml:space="preserve"
   id="svg2"
   sodipodi:version="0.32"
   inkscape:version="0.91 r13725"
   sodipodi:docname="klinkstatus.svg"
   version="1.1"><metadata
     id="metadata421"><rdf:RDF><cc:Work
         rdf:about=""><dc:format>image/svg+xml</dc:format><dc:type
           rdf:resource="http://purl.org/dc/dcmitype/StillImage" /></cc:Work></rdf:RDF></metadata><defs
     id="defs419"><clipPath
       clipPathUnits="userSpaceOnUse"
       id="clipPath5062"><circle
         style="opacity:1;fill:none;fill-opacity:1;stroke:#000000;stroke-width:0.51056468;stroke-miterlimit:4;stroke-dasharray:none;stroke-dashoffset:0;stroke-opacity:1"
         id="circle5064"
         cx="292.41159"
         cy="78.3964"
         r="43.65332" /></clipPath><linearGradient
       id="aigrd21"
       gradientUnits="userSpaceOnUse"
       x1="-28.083"
       y1="1.5566"
       x2="122.4775"
       y2="179.00301"
       gradientTransform="translate(3.0737088,3.230972)"><stop
         offset="0"
         style="stop-color:#FFFFFF"
         id="stop224" /><stop
         offset="1"
         style="stop-color:#8C8CA4"
         id="stop226" /></linearGradient><linearGradient
       id="aigrd22"
       gradientUnits="userSpaceOnUse"
       x1="40.394501"
       y1="96.763702"
       x2="89.714401"
       y2="134.94679"
       gradientTransform="translate(1.6941176,2.5411764)"><stop
         offset="0"
         style="stop-color:#FFFFFF"
         id="stop231" /><stop
         offset="1"
         style="stop-color:#545477"
         id="stop233" /></linearGradient><linearGradient
       id="aigrd23"
       gradientUnits="userSpaceOnUse"
       x1="16.2939"
       y1="53.110401"
       x2="151.1777"
       y2="213.9856"
       gradientTransform="translate(1.6941176,2.5411764)"><stop
         offset="0"
         style="stop-color:#FFFFFF"
         id="stop238" /><stop
         offset="0.178"
         style="stop-color:#FBFBFC"
         id="stop240" /><stop
         offset="0.367"
         style="stop-color:#EEEEF2"
         id="stop242" /><stop
         offset="0.5612"
         style="stop-color:#D9D9E1"
         id="stop244" /><stop
         offset="0.7589"
         style="stop-color:#BBBBC9"
         id="stop246" /><stop
         offset="0.9575"
         style="stop-color:#9595AB"
         id="stop248" /><stop
         offset="1"
         style="stop-color:#8C8CA4"
         id="stop250" /></linearGradient><linearGradient
       id="aigrd24"
       gradientUnits="userSpaceOnUse"
       x1="-32.7295"
       y1="5.5019999"
       x2="117.8273"
       y2="182.94389"
       gradientTransform="translate(3.0737088,3.230972)"><stop
         offset="0"
         style="stop-color:#FFFFFF"
         id="stop255" /><stop
         offset="1"
         style="stop-color:#8C8CA4"
         id="stop257" /></linearGradient><linearGradient
       id="aigrd25"
       gradientUnits="userSpaceOnUse"
       x1="-17.4727"
       y1="36.036098"
       x2="33.188202"
       y2="75.2575"
       gradientTransform="translate(1.6941176,2.5411764)"><stop
         offset="0"
         style="stop-color:#FFFFFF"
         id="stop262" /><stop
         offset="1"
         style="stop-color:#545477"
         id="stop264" /></linearGradient><linearGradient
       id="aigrd26"
       gradientUnits="userSpaceOnUse"
       x1="11.6523"
       y1="57.0117"
       x2="146.5186"
       y2="217.8661"
       gradientTransform="translate(1.6941176,2.5411764)"><stop
         offset="0"
         style="stop-color:#FFFFFF"
         id="stop269" /><stop
         offset="0.178"
         style="stop-color:#FBFBFC"
         id="stop271" /><stop
         offset="0.367"
         style="stop-color:#EEEEF2"
         id="stop273" /><stop
         offset="0.5612"
         style="stop-color:#D9D9E1"
         id="stop275" /><stop
         offset="0.7589"
         style="stop-color:#BBBBC9"
         id="stop277" /><stop
         offset="0.9575"
         style="stop-color:#9595AB"
         id="stop279" /><stop
         offset="1"
         style="stop-color:#8C8CA4"
         id="stop281" /></linearGradient><linearGradient
       id="aigrd27"
       gradientUnits="userSpaceOnUse"
       x1="-45.7183"
       y1="16.5156"
       x2="104.8478"
       y2="193.9686"
       gradientTransform="translate(3.0737088,3.230972)"><stop
         offset="0"
         style="stop-color:#FFFFFF"
         id="stop286" /><stop
         offset="1"
         style="stop-color:#8C8CA4"
         id="stop288" /></linearGradient><linearGradient
       id="aigrd28"
       gradientUnits="userSpaceOnUse"
       x1="4.2323999"
       y1="86.015602"
       x2="46.405998"
       y2="118.6661"
       gradientTransform="translate(1.6941176,2.5411764)"><stop
         offset="0"
         style="stop-color:#FFFFFF"
         id="stop293" /><stop
         offset="1"
         style="stop-color:#545477"
         id="stop295" /></linearGradient><linearGradient
       id="aigrd29"
       gradientUnits="userSpaceOnUse"
       x1="-0.7148"
       y1="67.377899"
       x2="134.1636"
       y2="228.2469"
       gradientTransform="translate(1.6941176,2.5411764)"><stop
         offset="0"
         style="stop-color:#FFFFFF"
         id="stop300" /><stop
         offset="0.178"
         style="stop-color:#FBFBFC"
         id="stop302" /><stop
         offset="0.367"
         style="stop-color:#EEEEF2"
         id="stop304" /><stop
         offset="0.5612"
         style="stop-color:#D9D9E1"
         id="stop306" /><stop
         offset="0.7589"
         style="stop-color:#BBBBC9"
         id="stop308" /><stop
         offset="0.9575"
         style="stop-color:#9595AB"
         id="stop310" /><stop
         offset="1"
         style="stop-color:#8C8CA4"
         id="stop312" /></linearGradient><linearGradient
       id="aigrd30"
       gradientUnits="userSpaceOnUse"
       x1="4.0088"
       y1="-25.6621"
       x2="154.5634"
       y2="151.7773"
       gradientTransform="translate(3.0737088,3.230972)"><stop
         offset="0"
         style="stop-color:#FFFFFF"
         id="stop317" /><stop
         offset="1"
         style="stop-color:#8C8CA4"
         id="stop319" /></linearGradient><linearGradient
       id="aigrd31"
       gradientUnits="userSpaceOnUse"
       x1="89.798798"
       y1="83.609398"
       x2="132.9068"
       y2="116.9833"
       gradientTransform="translate(1.6941176,2.5411764)"><stop
         offset="0"
         style="stop-color:#FFFFFF"
         id="stop324" /><stop
         offset="1"
         style="stop-color:#545477"
         id="stop326" /></linearGradient><linearGradient
       id="aigrd32"
       gradientUnits="userSpaceOnUse"
       x1="48.421902"
       y1="26.188499"
       x2="183.29131"
       y2="187.04671"
       gradientTransform="translate(1.6941176,2.5411764)"><stop
         offset="0"
         style="stop-color:#FFFFFF"
         id="stop331" /><stop
         offset="0.178"
         style="stop-color:#FBFBFC"
         id="stop333" /><stop
         offset="0.367"
         style="stop-color:#EEEEF2"
         id="stop335" /><stop
         offset="0.5612"
         style="stop-color:#D9D9E1"
         id="stop337" /><stop
         offset="0.7589"
         style="stop-color:#BBBBC9"
         id="stop339" /><stop
         offset="0.9575"
         style="stop-color:#9595AB"
         id="stop341" /><stop
         offset="1"
         style="stop-color:#8C8CA4"
         id="stop343" /></linearGradient><linearGradient
       id="aigrd33"
       gradientUnits="userSpaceOnUse"
       x1="-2.0176001"
       y1="-20.553699"
       x2="148.53819"
       y2="156.8871"
       gradientTransform="translate(3.0737088,3.230972)"><stop
         offset="0"
         style="stop-color:#FFFFFF"
         id="stop348" /><stop
         offset="1"
         style="stop-color:#8C8CA4"
         id="stop350" /></linearGradient><linearGradient
       id="aigrd34"
       gradientUnits="userSpaceOnUse"
       x1="2.0204999"
       y1="-0.65670002"
       x2="45.126999"
       y2="32.716"
       gradientTransform="translate(1.6941176,2.5411764)"><stop
         offset="0"
         style="stop-color:#FFFFFF"
         id="stop355" /><stop
         offset="1"
         style="stop-color:#545477"
         id="stop357" /></linearGradient><linearGradient
       id="aigrd35"
       gradientUnits="userSpaceOnUse"
       x1="42.288101"
       y1="31.3262"
       x2="177.1685"
       y2="192.1976"
       gradientTransform="translate(1.6941176,2.5411764)"><stop
         offset="0"
         style="stop-color:#FFFFFF"
         id="stop362" /><stop
         offset="0.178"
         style="stop-color:#FBFBFC"
         id="stop364" /><stop
         offset="0.367"
         style="stop-color:#EEEEF2"
         id="stop366" /><stop
         offset="0.5612"
         style="stop-color:#D9D9E1"
         id="stop368" /><stop
         offset="0.7589"
         style="stop-color:#BBBBC9"
         id="stop370" /><stop
         offset="0.9575"
         style="stop-color:#9595AB"
         id="stop372" /><stop
         offset="1"
         style="stop-color:#8C8CA4"
         id="stop374" /></linearGradient><linearGradient
       id="aigrd36"
       gradientUnits="userSpaceOnUse"
       x1="-9.1904001"
       y1="-14.3975"
       x2="141.2382"
       y2="162.8934"
       gradientTransform="translate(3.0737088,3.230972)"><stop
         offset="0"
         style="stop-color:#FFFFFF"
         id="stop379" /><stop
         offset="1"
         style="stop-color:#8C8CA4"
         id="stop381" /></linearGradient><linearGradient
       id="aigrd37"
       gradientUnits="userSpaceOnUse"
       x1="35.362301"
       y1="37.130901"
       x2="170.0874"
       y2="197.817"
       gradientTransform="translate(93.781827,-12.634326)"><stop
         offset="0"
         style="stop-color:#FFFFFF"
         id="stop388" /><stop
         offset="0.178"
         style="stop-color:#FBFBFC"
         id="stop390" /><stop
         offset="0.367"
         style="stop-color:#EEEEF2"
         id="stop392" /><stop
         offset="0.5612"
         style="stop-color:#D9D9E1"
         id="stop394" /><stop
         offset="0.7589"
         style="stop-color:#BBBBC9"
         id="stop396" /><stop
         offset="0.9575"
         style="stop-color:#9595AB"
         id="stop398" /><stop
         offset="1"
         style="stop-color:#8C8CA4"
         id="stop400" /></linearGradient><linearGradient
       id="aigrd38"
       gradientUnits="userSpaceOnUse"
       x1="-39.401402"
       y1="-8.9390001"
       x2="120.3301"
       y2="114.7241"
       gradientTransform="translate(1.6941176,2.5411764)"><stop
         offset="0"
         style="stop-color:#FFFFFF"
         id="stop405" /><stop
         offset="1"
         style="stop-color:#545477"
         id="stop407" /></linearGradient><linearGradient
       id="aigrd39"
       gradientUnits="userSpaceOnUse"
       x1="-25.284201"
       y1="-0.69919997"
       x2="115.9417"
       y2="108.6369"
       gradientTransform="translate(1.6941176,2.5411764)"><stop
         offset="0"
         style="stop-color:#FFFFFF"
         id="stop412" /><stop
         offset="1"
         style="stop-color:#545477"
         id="stop414" /></linearGradient></defs><sodipodi:namedview
     inkscape:cy="493.10696"
     inkscape:cx="-261.20866"
     inkscape:zoom="0.30699632"
     inkscape:window-height="711"
     inkscape:window-width="1272"
     inkscape:pageshadow="2"
     inkscape:pageopacity="0.0"
     borderopacity="1.0"
     bordercolor="#666666"
     pagecolor="#ffffff"
     id="base"
     inkscape:window-x="15"
     inkscape:window-y="24"
     inkscape:current-layer="svg2"
     showgrid="false"
     inkscape:window-maximized="0" /><g
     id="g4282"><circle
       r="44.258823"
       cy="67.665672"
       cx="77.713905"
       id="path4249"
       style="fill:#00bbf2;fill-opacity:1;stroke:none;stroke-width:1;stroke-miterlimit:4;stroke-dasharray:none;stroke-opacity:1" /><path
       style="clip-rule:nonzero;fill:none;fill-rule:nonzero;stroke:none;stroke-width:0;stroke-miterlimit:4"
       d="m 149.19137,146.80745 -144.0000142,0 0,-144.0000074 144.0000142,0 0,144.0000074 z"
       id="path5"
       inkscape:connector-curvature="0" /><g
       transform="translate(3.0737088,3.230972)"
       id="g191"
       style="clip-rule:nonzero;fill:#394050;fill-opacity:1;fill-rule:nonzero;stroke:none;stroke-width:0;stroke-miterlimit:4"><linearGradient
         y2="121.7395"
         x2="121.406"
         y1="114.6621"
         x1="128.4834"
         gradientUnits="userSpaceOnUse"
         id="aigrd17"><stop
           id="stop194"
           style="stop-color:#FFFFFF"
           offset="0" /><stop
           id="stop196"
           style="stop-color:#8C8CA4"
           offset="1" /></linearGradient><path
         inkscape:connector-curvature="0"
         id="path198"
         d="m 136.665,120.486 -5.028,5.027 -14.006,-14.004 5.028,-5.031 14.006,14.008 z"
         style="fill:#394050;fill-opacity:1" /><linearGradient
         y2="124.5975"
         x2="138.25661"
         y1="98.666"
         x1="104.7617"
         gradientUnits="userSpaceOnUse"
         id="aigrd18"><stop
           id="stop201"
           style="stop-color:#FFFFFF"
           offset="0" /><stop
           id="stop203"
           style="stop-color:#545477"
           offset="1" /></linearGradient><path
         inkscape:connector-curvature="0"
         id="path205"
         d="m 122.659,105.809 c -0.181,0 -0.351,0.07 -0.476,0.195 l -5.028,5.031 c -0.263,0.26 -0.263,0.686 0,0.949 l 14.005,14.004 c 0.266,0.264 0.688,0.264 0.952,0 l 5.028,-5.027 c 0.261,-0.262 0.261,-0.688 0,-0.951 l -14.007,-14.006 c -0.127,-0.125 -0.297,-0.195 -0.475,-0.195 z m 0,1.623 c 0.854,0.855 12.199,12.199 13.055,13.055 -0.699,0.697 -3.378,3.379 -4.077,4.078 -0.856,-0.857 -12.199,-12.201 -13.057,-13.055 0.699,-0.699 3.38,-3.381 4.079,-4.078 z"
         style="fill:#394050;fill-opacity:1" /></g><g
       transform="translate(3.0737088,3.230972)"
       id="g207"
       style="clip-rule:nonzero;fill:#394050;fill-opacity:1;fill-rule:nonzero;stroke:none;stroke-width:0;stroke-miterlimit:4"><linearGradient
         y2="16.8859"
         x2="16.554501"
         y1="9.8095999"
         x1="23.630899"
         gradientUnits="userSpaceOnUse"
         id="aigrd19"><stop
           id="stop210"
           style="stop-color:#FFFFFF"
           offset="0" /><stop
           id="stop212"
           style="stop-color:#8C8CA4"
           offset="1" /></linearGradient><path
         inkscape:connector-curvature="0"
         id="path214"
         d="M 31.813,15.633 26.785,20.661 12.777,6.656 17.804,1.628 31.812,15.633 Z"
         style="fill:#394050;fill-opacity:1" /><linearGradient
         y2="19.7453"
         x2="33.404099"
         y1="-6.1884999"
         x1="-0.093800001"
         gradientUnits="userSpaceOnUse"
         id="aigrd20"><stop
           id="stop217"
           style="stop-color:#FFFFFF"
           offset="0" /><stop
           id="stop219"
           style="stop-color:#545477"
           offset="1" /></linearGradient><path
         inkscape:connector-curvature="0"
         id="path221"
         d="m 17.805,0.955 c -0.178,0 -0.349,0.071 -0.475,0.197 L 12.303,6.18 c -0.263,0.263 -0.263,0.688 0,0.951 l 14.006,14.005 c 0.263,0.262 0.688,0.262 0.95,0 l 5.028,-5.027 c 0.264,-0.263 0.264,-0.688 0,-0.951 L 18.281,1.152 C 18.154,1.026 17.984,0.955 17.804,0.955 Z m 0,1.623 c 0.856,0.856 12.201,12.2 13.057,13.055 -0.698,0.699 -3.38,3.381 -4.077,4.078 C 25.929,18.856 14.585,7.512 13.729,6.656 14.426,5.958 17.108,3.276 17.805,2.578 Z"
         style="fill:#394050;fill-opacity:1" /></g><path
       inkscape:connector-curvature="0"
       id="path228"
       d="m 84.22271,139.75598 -14.688,0 -4.827,-23.215 25.166,0.102 -5.65,23.113 z"
       style="clip-rule:nonzero;fill:#b3b3b3;fill-opacity:1;fill-rule:nonzero;stroke:none;stroke-width:0;stroke-miterlimit:4" /><path
       inkscape:connector-curvature="0"
       id="path259"
       d="m 5.2197088,73.273972 0,-14.689 23.2130012,-4.826 -0.103,25.164 -23.1100012,-5.648 z"
       style="clip-rule:nonzero;fill:#b3b3b3;fill-opacity:1;fill-rule:nonzero;stroke:none;stroke-width:0;stroke-miterlimit:4" /><path
       inkscape:connector-curvature="0"
       id="path290"
       d="m 30.84871,123.59398 -10.387,-10.385 13.002,-19.830008 17.723,17.867008 -20.338,12.348 z"
       style="clip-rule:nonzero;fill:#b3b3b3;fill-opacity:1;fill-rule:nonzero;stroke:none;stroke-width:0;stroke-miterlimit:4" /><path
       inkscape:connector-curvature="0"
       id="path321"
       d="m 134.20872,113.78798 -10.388,10.389 -19.828,-13.002 17.867,-17.721008 12.349,20.334008 z"
       style="clip-rule:nonzero;fill:#b3b3b3;fill-opacity:1;fill-rule:nonzero;stroke:none;stroke-width:0;stroke-miterlimit:4" /><path
       inkscape:connector-curvature="0"
       id="path352"
       d="m 21.38071,20.235972 10.386,-10.3859998 19.828,13.0009998 -17.867,17.722 -12.347,-20.337 z"
       style="clip-rule:nonzero;fill:#b3b3b3;fill-opacity:1;fill-rule:nonzero;stroke:none;stroke-width:0;stroke-miterlimit:4" /><path
       inkscape:connector-curvature="0"
       id="path383"
       d="m 77.68871,112.51598 c -24.857,0 -45.008,-20.150008 -45.008,-45.008008 0,-19.181 12.004,-35.549 28.904,-42.027 l -1.415,-6.459 c -19.842,7.172 -34.026,26.17 -34.026,48.486 0,28.469 23.077,51.543008 51.545,51.543008 22.207,0 41.13201,-14.043 48.38201,-33.732008 l -6.34,-1.746 c -6.47,16.921998 -22.84701,28.943008 -42.04201,28.943008 z"
       style="clip-rule:nonzero;fill:#b3b3b3;fill-opacity:1;fill-rule:nonzero;stroke:none;stroke-width:0;stroke-miterlimit:4" /><path
       inkscape:connector-curvature="0"
       id="path385"
       d="m 77.60371,116.36198 c -26.937,0 -48.771,-21.836008 -48.771,-48.771008 0,-20.781 13.004,-38.515 31.313,-45.539 -0.187,-0.854 -0.363,-1.662 -0.462,-2.107 -19.684,7.456 -32.868,26.458 -32.868,47.563 0,28.051 22.82,50.871008 50.873,50.871008 20.982,0 39.95201,-13.082 47.47001,-32.615008 -0.426,-0.117 -1.225,-0.338 -2.07,-0.57 -7.063,18.232008 -24.76001,31.168008 -45.48401,31.168008 z"
       style="clip-rule:nonzero;fill:none;fill-rule:nonzero;stroke:none;stroke-width:0;stroke-miterlimit:4" /><path
       inkscape:connector-curvature="0"
       id="path416"
       d="m 60.14571,22.050972 c 0.271,1.234 0.563,2.563 0.664,3.03 -17.245,6.871 -28.801,23.835 -28.801,42.427 0,25.188 20.492,45.678008 45.68,45.678008 18.6,0 35.56101,-11.559 42.43001,-28.811008 0.479,0.133 1.773,0.49 2.97,0.818 0.098,-0.252 0.2,-0.5 0.293,-0.752 l -4.24,-1.168 c -0.012,0.02 -0.028,0.035 -0.038,0.059 -6.521,17.052998 -23.16301,28.510008 -41.41401,28.510008 -24.447,0 -44.335,-19.887008 -44.335,-44.334008 0,-18.234 11.442,-34.871 28.473,-41.4 0.055,-0.021 0.099,-0.055 0.146,-0.088 l -0.944,-4.307 c -0.297,0.107 -0.589,0.225 -0.882,0.338 z"
       style="clip-rule:nonzero;fill:#b3b3b3;fill-opacity:1;fill-rule:nonzero;stroke:#6e6e6e;stroke-width:0;stroke-miterlimit:4;stroke-opacity:1" /><path
       sodipodi:nodetypes="cccccc"
       inkscape:connector-curvature="0"
       id="path4251-3"
       d="M 71.02396,59.532535 58.829976,71.238752 74.682151,86.847044 97.606828,64.654005 65.658606,32.949659 43.221686,55.386579"
       style="fill:none;fill-rule:evenodd;stroke:#ff6600;stroke-width:8.47058773;stroke-linecap:butt;stroke-linejoin:miter;stroke-miterlimit:4;stroke-dasharray:none;stroke-opacity:1" /><path
       sodipodi:nodetypes="cccccc"
       inkscape:connector-curvature="0"
       id="path4251"
       d="M 85.525217,76.428026 97.719198,64.721809 81.867025,49.113516 58.942345,71.306555 90.890567,103.0109 113.32749,80.573979"
       style="fill:none;fill-rule:evenodd;stroke:#ffffff;stroke-width:8.47058773;stroke-linecap:butt;stroke-linejoin:miter;stroke-miterlimit:4;stroke-dasharray:none;stroke-opacity:1" /></g></svg>