<?xml version="1.0" encoding="UTF-8" standalone="no"?>
<svg
   xmlns:dc="http://purl.org/dc/elements/1.1/"
   xmlns:cc="http://creativecommons.org/ns#"
   xmlns:rdf="http://www.w3.org/1999/02/22-rdf-syntax-ns#"
   xmlns:svg="http://www.w3.org/2000/svg"
   xmlns="http://www.w3.org/2000/svg"
   xmlns:sodipodi="http://sodipodi.sourceforge.net/DTD/sodipodi-0.dtd"
   xmlns:inkscape="http://www.inkscape.org/namespaces/inkscape"
   viewBox="0 0 500 500"
   id="svg2"
   version="1.1"
   inkscape:version="0.91 r13725"
   width="100%"
   height="100%"
   sodipodi:docname="ktip.svg">
  <metadata
     id="metadata65">
    <rdf:RDF>
      <cc:Work
         rdf:about="">
        <dc:format>image/svg+xml</dc:format>
        <dc:type
           rdf:resource="http://purl.org/dc/dcmitype/StillImage" />
        <dc:title />
      </cc:Work>
    </rdf:RDF>
  </metadata>
  <sodipodi:namedview
     pagecolor="#ffffff"
     bordercolor="#666666"
     borderopacity="1"
     objecttolerance="10"
     gridtolerance="10"
     guidetolerance="10"
     inkscape:pageopacity="0"
     inkscape:pageshadow="2"
     inkscape:window-width="1366"
     inkscape:window-height="715"
     id="namedview63"
     showgrid="false"
     inkscape:zoom="0.43457604"
     inkscape:cx="768.61225"
     inkscape:cy="254.02073"
     inkscape:window-x="0"
     inkscape:window-y="24"
     inkscape:window-maximized="1"
     inkscape:current-layer="svg2" />
  <defs
     id="defs4">
    <linearGradient
       id="linearGradient3764"
       x1="1"
       x2="47"
       gradientUnits="userSpaceOnUse"
       gradientTransform="matrix(0,-1,1,0,-1.5e-6,47.999998)">
      <stop
         stop-color="#3d3d3d"
         stop-opacity="1"
         id="stop7" />
      <stop
         offset="1"
         stop-color="#474747"
         stop-opacity="1"
         id="stop9" />
    </linearGradient>
    <clipPath
       id="clipPath-156864852">
      <g
         transform="translate(0,-1004.3622)"
         id="g12">
        <path
           d="m -24,13 c 0,1.105 -0.672,2 -1.5,2 -0.828,0 -1.5,-0.895 -1.5,-2 0,-1.105 0.672,-2 1.5,-2 0.828,0 1.5,0.895 1.5,2 z"
           transform="matrix(15.333333,0,0,11.5,414.99999,878.8622)"
           id="path14"
           inkscape:connector-curvature="0"
           style="fill:#1890d0" />
      </g>
    </clipPath>
    <clipPath
       id="clipPath-165128749">
      <g
         transform="translate(0,-1004.3622)"
         id="g17">
        <path
           d="m -24,13 c 0,1.105 -0.672,2 -1.5,2 -0.828,0 -1.5,-0.895 -1.5,-2 0,-1.105 0.672,-2 1.5,-2 0.828,0 1.5,0.895 1.5,2 z"
           transform="matrix(15.333333,0,0,11.5,414.99999,878.8622)"
           id="path19"
           inkscape:connector-curvature="0"
           style="fill:#1890d0" />
      </g>
    </clipPath>
  </defs>
  <g
     id="g33"
     transform="translate(0,452)" />
  <g
     id="g4154">
    <rect
       ry="40.677967"
       y="19.999996"
       x="17.898306"
       height="455.59323"
       width="462.10168"
       id="rect4146"
       style="fill:#f03916;fill-opacity:1;stroke:none;stroke-width:1;stroke-miterlimit:4;stroke-dasharray:none;stroke-opacity:1" />
    <path
       id="rect4151"
       d="M 109.23828 31.875 C 107.31654 31.860294 105.35643 31.928478 103.56445 32.166016 C 95.945206 33.167337 88.246088 33.002942 80.589844 34.185547 C 65.923465 36.450428 51.91291 41.0607 38.175781 46.556641 C 33.173734 48.557573 28.126477 50.775287 23.279297 53.121094 C 21.766813 53.852947 19.735836 54.331835 18.261719 55.291016 C 18.030223 57.054185 17.898438 58.849387 17.898438 60.677734 L 17.898438 107.62305 C 18.716445 108.81419 19.79929 109.69943 21.261719 109.92773 C 27.728013 110.93962 32.730921 103.21263 35.904297 98.818359 C 43.315914 88.554979 51.772739 78.915981 63.927734 74.328125 C 78.236999 68.927206 94.73868 67.54028 109.87695 66.501953 C 152.34896 63.591166 198.76593 71.322717 230.05273 102.60547 C 234.50219 107.05434 238.59019 111.80636 242.17188 116.99609 C 256.1802 137.2799 263.59841 160.43239 267.16602 184.6582 C 268.84339 196.03204 270.01274 207.41593 267.41797 218.74219 C 262.91577 238.39244 251.19174 255.68524 237.62695 270.24609 C 228.34261 280.21201 217.69983 289.07125 206.82617 297.25977 C 200.75572 301.83008 194.10433 305.8964 188.39648 310.89258 C 181.82264 316.64719 176.39382 323.66559 172.23828 331.34375 C 161.05488 352.01828 157.83953 376.9372 161.12891 400.01562 C 161.80271 404.74606 162.58246 409.48899 163.6543 414.1543 C 163.97422 415.54987 164.01321 418.06275 164.91602 419.20312 C 166.60568 421.33607 171.16998 422.35939 173.75195 422.48438 C 176.44484 422.61455 178.14275 420.60785 178.80273 418.19336 C 179.93265 414.05598 179.45712 409.4784 178.80273 405.31641 C 177.46152 396.79181 176.1491 388.21752 176.5293 379.56445 C 177.22977 363.58693 183.38082 348.7301 194.45508 337.15039 C 205.71776 325.37358 221.0407 318.48673 233.83984 308.62109 C 259.63523 288.73847 282.53011 262.02506 291.4043 230.10352 C 294.57596 218.68748 295.62817 206.50998 294.17969 194.75781 C 292.34923 179.89254 286.9304 165.07953 281.80859 151.08008 C 266.19869 108.40764 239.50529 67.846008 196.98047 48.324219 C 180.10328 40.577477 162.48761 36.984186 144.21289 34.439453 C 135.64322 33.246266 127.08896 32.544353 118.46094 32.166016 C 116.06471 32.061027 113.64037 31.993973 111.14062 31.914062 L 111.13867 31.914062 C 110.51376 31.893855 109.87886 31.879902 109.23828 31.875 z M 86.388672 208.83984 C 85.79167 208.83115 85.198618 208.8416 84.630859 208.89648 C 81.224421 209.2253 78.035988 210.35286 75.037109 212.17773 C 69.647822 215.45985 66.627133 221.19105 64.9375 227.07422 C 61.582828 238.75593 63.0955 252.20259 65.441406 263.93359 C 66.191137 267.68558 66.914241 271.35963 67.966797 275.04297 C 68.347306 276.37165 68.61796 278.23071 69.482422 279.33594 C 70.990594 281.26819 74.544709 281.98754 76.802734 281.60742 C 83.57724 280.46886 81.830206 269.18216 81.599609 264.43945 C 81.059135 253.32963 77.924127 242.66917 81.095703 231.61914 C 82.438677 226.94325 84.957504 221.53081 89.679688 219.5 C 93.942601 217.66453 98.34337 219.88099 100.03125 224.04492 C 102.76448 230.78688 102.10409 238.74117 103.81836 245.75586 C 104.40084 248.14048 105.01445 250.34965 106.08984 252.57227 C 106.40171 253.21454 106.70222 254.6747 107.60547 254.59375 C 109.80029 254.39347 113.02835 250.64961 114.67383 249.29102 C 119.98918 244.89853 125.47011 240.17034 131.58984 236.91992 C 134.46928 235.39061 139.25211 233.05717 142.19336 235.6582 C 142.9431 236.32149 143.4242 237.09028 143.96094 237.92969 C 147.41774 243.34468 143.93561 247.42301 141.6875 252.57227 C 138.77815 259.23673 135.80539 265.80642 131.58984 271.76172 C 127.96591 276.88285 123.12395 281.56761 120.22852 287.16211 C 118.36459 290.76447 117.18613 294.71017 117.95703 298.77539 C 118.58152 302.06275 121.16665 303.83723 124.51953 303.06641 C 127.02937 302.48957 128.64335 300.50855 130.07422 298.52344 C 132.62456 294.98263 135.11396 291.22088 137.64844 287.66602 C 142.55201 280.79037 148.42112 274.35611 152.54492 266.96484 C 157.51528 258.0548 159.87072 248.07864 159.86523 237.92969 C 159.86023 229.63557 156.90336 216.94574 147.24219 215.20703 C 145.42424 214.88145 143.24138 214.89194 141.43555 215.20703 C 139.19167 215.59805 136.92156 216.48796 134.87109 217.48047 C 129.378 220.13783 124.56208 224.07566 120.48047 228.58789 C 117.93388 231.4001 115.67635 234.86299 112.6543 237.17188 C 112.6543 231.04595 111.66819 224.38504 108.10938 219.24805 C 103.64983 212.81257 95.881959 209.17684 88.164062 208.89648 C 87.58524 208.87638 86.985674 208.84854 86.388672 208.83984 z M 39.277344 308.10938 C 38.605713 308.13781 37.91215 308.2624 37.166016 308.36914 C 28.877883 309.55532 26.292997 316.02249 27.824219 323.51758 C 29.784906 333.10869 37.517383 340.47656 44.992188 346.23828 C 64.143378 360.99975 88.788165 369.00712 112.90625 367.95117 C 122.31729 367.53918 132.54704 365.88566 141.18359 361.89258 C 145.81433 359.75263 150.77117 352.0633 144.46484 348.76367 C 143.60061 348.31125 142.39849 348.16616 141.43555 348.00781 C 138.68124 347.557 135.71357 348.77176 133.10352 349.52148 C 128.50097 350.84314 123.70493 352.04445 118.9668 352.80469 C 104.81061 355.07839 89.532765 351.85025 77.8125 343.46289 C 68.338305 336.68048 60.810249 327.76267 53.576172 318.7207 C 49.701566 313.8779 46.10193 308.59134 39.943359 308.11719 C 39.723409 308.10101 39.501221 308.0999 39.277344 308.10938 z M 29.84375 354.82227 L 29.84375 354.82422 C 28.590536 354.84172 27.306595 354.94515 26.308594 355.07617 C 24.200049 355.35408 21.803867 355.26481 19.998047 356.58984 C 16.231507 359.3545 20.287349 364.92719 22.269531 367.44727 C 28.015988 374.74878 35.673776 380.7861 43.224609 386.12891 C 64.274787 401.01883 88.019808 409.61888 113.66406 411.37695 C 121.03677 411.88189 128.58893 411.32704 135.88086 410.11328 C 138.54716 409.66815 142.00071 409.49853 144.46484 408.34766 C 151.43802 405.08674 149.42657 392.08655 143.20312 389.1582 C 140.48558 387.88058 135.95309 389.52014 133.10352 389.91602 C 126.36424 390.85575 119.68427 390.83967 112.90625 390.67383 C 95.142004 390.23917 76.122527 384.91696 60.644531 376.2832 C 54.560034 372.8867 49.206478 368.76248 43.982422 364.16406 C 40.805491 361.36768 37.499038 356.74122 33.378906 355.32812 C 32.419674 354.99932 31.096964 354.80934 29.84375 354.82227 z M 31.181641 394.67969 C 30.988862 394.68096 30.795842 394.69122 30.601562 394.71289 C 27.599072 395.04897 25.254137 396.52595 23.279297 398.75391 C 21.918795 400.28845 20.779538 401.61495 19.998047 403.55078 C 15.68941 414.20832 26.960004 424.26956 34.892578 429.30273 C 43.720863 434.90247 53.5955 439.18681 63.421875 442.68359 C 85.584543 450.57117 111.35092 455.54188 134.36719 448.49023 C 141.20854 446.396 148.07488 442.55655 153.04883 437.38086 C 155.85063 434.46482 157.68415 430.16013 152.54492 428.29297 C 149.5 427.18777 145.9647 429.95805 143.20312 431.07031 C 136.6839 433.69946 129.74995 435.77653 122.75195 436.62305 C 113.5345 437.74054 105.37916 435.56441 96.496094 433.3418 C 88.908503 431.44467 81.109527 429.5121 73.773438 426.77734 C 67.514678 424.44382 61.324758 421.8166 55.847656 417.94141 C 54.210845 416.78346 52.392009 415.6625 51.050781 414.1543 C 46.666448 409.22148 43.380798 403.44567 38.679688 398.75391 C 36.775557 396.85327 34.073327 394.66062 31.181641 394.67969 z "
       style="fill:#ffffff;fill-opacity:1;stroke:none;stroke-width:1;stroke-miterlimit:4;stroke-dasharray:none;stroke-opacity:1" />
  </g>
</svg>
