<?xml version="1.0" encoding="UTF-8" standalone="no"?>
<!-- Created with Inkscape (http://www.inkscape.org/) -->

<svg
   xmlns:dc="http://purl.org/dc/elements/1.1/"
   xmlns:cc="http://creativecommons.org/ns#"
   xmlns:rdf="http://www.w3.org/1999/02/22-rdf-syntax-ns#"
   xmlns:svg="http://www.w3.org/2000/svg"
   xmlns="http://www.w3.org/2000/svg"
   xmlns:sodipodi="http://sodipodi.sourceforge.net/DTD/sodipodi-0.dtd"
   xmlns:inkscape="http://www.inkscape.org/namespaces/inkscape"
   id="svg2"
   version="1.1"
   inkscape:version="0.48.5 r10040"
   width="512"
   height="512"
   sodipodi:docname="ktorrent.svg">
  <metadata
     id="metadata8">
    <rdf:RDF>
      <cc:Work
         rdf:about="">
        <dc:format>image/svg+xml</dc:format>
        <dc:type
           rdf:resource="http://purl.org/dc/dcmitype/StillImage" />
        <dc:title />
      </cc:Work>
    </rdf:RDF>
  </metadata>
  <defs
     id="defs6" />
  <sodipodi:namedview
     pagecolor="#ffffff"
     bordercolor="#666666"
     borderopacity="1"
     objecttolerance="10"
     gridtolerance="10"
     guidetolerance="10"
     inkscape:pageopacity="0"
     inkscape:pageshadow="2"
     inkscape:window-width="1366"
     inkscape:window-height="716"
     id="namedview4"
     showgrid="false"
     inkscape:zoom="0.4609375"
     inkscape:cx="47.086881"
     inkscape:cy="364.87"
     inkscape:window-x="0"
     inkscape:window-y="0"
     inkscape:window-maximized="1"
     inkscape:current-layer="svg2" />
  <rect
     style="fill:#00bbf2;fill-opacity:1;fill-rule:evenodd;stroke:none"
     id="rect2998"
     width="455.59323"
     height="449.08475"
     x="28.542343"
     y="32.033897"
     ry="224.54237" />
  <path
     sodipodi:nodetypes="sscsccs"
     style="fill:#ffffff;fill-opacity:1"
     d="m 255.9986,380.99999 c -50.63355,0 -91.82557,-41.19201 -91.82557,-91.82276 0,-48.79294 82.93117,-151.28617 86.46087,-155.62675 1.31312,-1.61334 3.28279,-2.55048 5.3647,-2.55048 2.08191,0 4.05158,0.93714 5.3647,2.55048 3.5297,4.33777 86.46367,106.83381 86.46367,155.62675 -0.003,50.63075 -41.19482,91.82276 -91.82837,91.82276 z"
     id="path4"
     inkscape:connector-curvature="0" />
  <path
     style="fill:#00bbf2;fill-opacity:1"
     d="m 262.63433,343.37416 c -33.5434,0 -60.83265,-27.28926 -60.83265,-60.83265 0,-3.8187 3.0948,-6.91351 6.9135,-6.91351 3.8187,0 6.9135,3.09481 6.9135,6.91351 0,25.92002 21.08562,47.00283 47.00284,47.00283 3.8187,0 6.9135,3.09481 6.9135,6.91351 0,3.8187 -3.09199,6.91631 -6.91069,6.91631 z"
     id="path6"
     inkscape:connector-curvature="0" />
</svg>
