<?xml version="1.0" encoding="UTF-8" standalone="no"?>
<svg
   xmlns:dc="http://purl.org/dc/elements/1.1/"
   xmlns:cc="http://creativecommons.org/ns#"
   xmlns:rdf="http://www.w3.org/1999/02/22-rdf-syntax-ns#"
   xmlns:svg="http://www.w3.org/2000/svg"
   xmlns="http://www.w3.org/2000/svg"
   xmlns:xlink="http://www.w3.org/1999/xlink"
   xmlns:sodipodi="http://sodipodi.sourceforge.net/DTD/sodipodi-0.dtd"
   xmlns:inkscape="http://www.inkscape.org/namespaces/inkscape"
   id="Lager_1"
   version="1.1"
   viewBox="0 0 500 500"
   xml:space="preserve"
   inkscape:version="0.91 r13725"
   width="100%"
   height="100%"
   sodipodi:docname="kupfer.svg"><metadata
     id="metadata31"><rdf:RDF><cc:Work
         rdf:about=""><dc:format>image/svg+xml</dc:format><dc:type
           rdf:resource="http://purl.org/dc/dcmitype/StillImage" /></cc:Work></rdf:RDF></metadata><defs
     id="defs29"><linearGradient
       x1="373.00085"
       y1="597.83563"
       x2="375.79688"
       y2="477.87122"
       id="linearGradient4015-2"
       xlink:href="#linearGradient3798-1"
       gradientUnits="userSpaceOnUse"
       gradientTransform="matrix(0.21272098,0,0,0.21525868,455.92453,129.33261)" /><linearGradient
       id="linearGradient3798-1"><stop
         id="stop3800-64"
         style="stop-color:#ff9d60;stop-opacity:1"
         offset="0" /><stop
         id="stop3802-2"
         style="stop-color:#ffe1ba;stop-opacity:1"
         offset="1" /></linearGradient></defs><sodipodi:namedview
     pagecolor="#ffffff"
     bordercolor="#666666"
     borderopacity="1"
     objecttolerance="10"
     gridtolerance="10"
     guidetolerance="10"
     inkscape:pageopacity="0"
     inkscape:pageshadow="2"
     inkscape:window-width="1366"
     inkscape:window-height="715"
     id="namedview27"
     showgrid="false"
     inkscape:zoom="0.4609375"
     inkscape:cx="-38.498078"
     inkscape:cy="128.04085"
     inkscape:window-x="0"
     inkscape:window-y="24"
     inkscape:window-maximized="1"
     inkscape:current-layer="Lager_1" /><path
     style="color:#000000;font-style:normal;font-variant:normal;font-weight:normal;font-stretch:normal;font-size:medium;line-height:normal;font-family:'Andale Mono';-inkscape-font-specification:'Andale Mono';text-indent:0;text-align:start;text-decoration:none;text-decoration-line:none;letter-spacing:normal;word-spacing:normal;text-transform:none;direction:ltr;block-progression:tb;writing-mode:lr-tb;text-anchor:start;display:inline;overflow:visible;visibility:visible;fill:#c87137;fill-opacity:1;stroke:none;stroke-width:4.61774349;marker:none;enable-background:accumulate"
     id="path3939"
     inkscape:connector-curvature="0"
     d="m 257.80097,18.949157 c -41.686,0 -82.32434,17.09748 -111.80694,47.00881 -29.4826,29.91132 -46.502501,71.266843 -46.502501,113.576523 0,42.30969 17.019901,83.61677 46.502501,113.5281 24.97831,25.34154 57.96655,41.50939 92.81356,45.84693 l 0,7.83455 -57.07557,0 0,38.63333 57.07557,0 11.59936,108.57176 14.83583,0 11.59936,-108.57176 57.07549,0 0,-38.63333 -57.07549,0 0,-7.83455 c 34.90336,-4.33754 68.07448,-20.50539 93.05271,-45.84693 29.4826,-29.91133 46.26335,-71.21841 46.26335,-113.5281 0,-42.30968 -16.78075,-83.665203 -46.26335,-113.576523 -29.48253,-29.91133 -70.40788,-47.00881 -112.09388,-47.00881 z m 0,15.23231 c 31.27378,0 63.8667,12.52259 85.111,35.77708 48.51859,53.109533 46.50639,143.086833 0,195.992773 -20.79139,23.65248 -53.83722,35.7287 -85.111,35.7287 -31.20685,0 -62.72253,-13.38629 -84.82399,-35.7287 l -0.23966,0 c -47.65574,-53.93438 -45.19006,-141.86365 0,-195.992773 22.10773,-22.42929 53.78951,-35.77708 85.06329,-35.77708 l 7e-5,0 z" /></svg>