<?xml version="1.0" encoding="UTF-8" standalone="no"?>
<!-- Created with Inkscape (http://www.inkscape.org/) -->

<svg
   xmlns:dc="http://purl.org/dc/elements/1.1/"
   xmlns:cc="http://creativecommons.org/ns#"
   xmlns:rdf="http://www.w3.org/1999/02/22-rdf-syntax-ns#"
   xmlns:svg="http://www.w3.org/2000/svg"
   xmlns="http://www.w3.org/2000/svg"
   xmlns:sodipodi="http://sodipodi.sourceforge.net/DTD/sodipodi-0.dtd"
   xmlns:inkscape="http://www.inkscape.org/namespaces/inkscape"
   id="svg2"
   version="1.1"
   inkscape:version="0.48.5 r10040"
   width="512"
   height="512"
   sodipodi:docname="libreoffice3-writer.svg"
   viewBox="0 0 512 512">
  <metadata
     id="metadata8">
    <rdf:RDF>
      <cc:Work
         rdf:about="">
        <dc:format>image/svg+xml</dc:format>
        <dc:type
           rdf:resource="http://purl.org/dc/dcmitype/StillImage" />
        <dc:title />
      </cc:Work>
    </rdf:RDF>
  </metadata>
  <defs
     id="defs6" />
  <sodipodi:namedview
     pagecolor="#ffffff"
     bordercolor="#666666"
     borderopacity="1"
     objecttolerance="10"
     gridtolerance="10"
     guidetolerance="10"
     inkscape:pageopacity="0"
     inkscape:pageshadow="2"
     inkscape:window-width="1366"
     inkscape:window-height="716"
     id="namedview4"
     showgrid="false"
     inkscape:zoom="0.5"
     inkscape:cx="279.71656"
     inkscape:cy="292.36226"
     inkscape:window-x="0"
     inkscape:window-y="0"
     inkscape:window-maximized="1"
     inkscape:current-layer="svg2" />
  <path
     inkscape:connector-curvature="0"
     id="path4306"
     d="M 108.63515,480.36629 C 105.33731,479.48008 98.641923,476.28521 95.1003,473.90778 88.161564,469.2499 81.397437,460.60659 78.117231,452.20655 L 76.508407,448.08664 76.38643,257.34815 76.264453,66.609693 l 1.181368,-3.81565 c 3.758232,-12.138521 12.246918,-21.93893 23.775459,-27.449381 8.09833,-3.870871 0.42584,-3.558694 87.2339,-3.549294 l 77.21905,0.0084 34.1487,34.333082 c 18.78178,18.883191 50.37495,50.63158 70.20704,70.55197 19.83208,19.92039 36.05832,36.32524 36.05832,36.45523 0,0.12996 6.167,6.39948 13.70443,13.93225 l 13.70441,13.69592 0.10099,55.13515 c 0.0555,30.32433 0.1061,86.67776 0.11235,125.22985 l 0.0112,70.09469 -2.09053,4.34869 c -2.64912,5.5107 -4.2224,7.78456 -8.44552,12.20651 -5.48679,5.74507 -11.13166,9.24954 -19.31531,11.99132 l -3.98056,1.3336 -144.39174,-0.0409 c -125.88851,-0.0355 -144.70835,-0.12578 -146.86296,-0.70478 z"
     style="fill:#00bbf2;fill-opacity:1;stroke:none;stroke-width:0.44932496999999999;stroke-opacity:1"
     sodipodi:nodetypes="csscccssscsssscsscssscscc" />
  <path
     style="fill:#00bbf2;stroke:none;stroke-width:1px;stroke-linecap:butt;stroke-linejoin:miter;stroke-opacity:1;fill-opacity:1"
     d="M 428.94185,138.7564 C 398.76997,104.22802 330.03003,37.884033 330.03003,37.884033 c 0,0 -3.23022,-2.311031 -3.17669,-4.619121 0.0535,-2.308089 2.24711,-2.369487 2.24711,-2.369487 l 63.45263,-0.05439 c 0,0 16.38843,-0.504035 30.06234,13.466661 13.67391,13.970696 12.92307,32 12.92307,32 l -0.0151,60.925707 c 0,0 0.004,2.20437 -1.97175,3.15479 -1.97535,0.95043 -4.60979,-1.63179 -4.60979,-1.63179 z"
     id="path2983"
     inkscape:connector-curvature="0"
     sodipodi:nodetypes="cczcczcczc" />
  <path
     inkscape:connector-curvature="0"
     id="path4306-3"
     d="m 122.20088,460.23037 c -2.94726,-0.792 -8.93089,-3.64723 -12.09601,-5.77192 -6.20111,-4.16272 -12.246166,-11.88719 -15.177665,-19.39425 L 93.489409,431.38226 93.380399,260.9205 93.271389,90.458761 94.32717,87.048739 c 3.358708,-10.848117 10.94499,-19.606681 21.24798,-24.531334 7.23742,-3.459372 0.38057,-3.180388 77.96037,-3.171987 l 69.01017,0.0071 30.51848,30.683262 c 16.78515,16.87578 45.01977,45.24912 62.74358,63.05184 17.7238,17.80273 32.22509,32.46363 32.22509,32.57981 0,0.11614 5.5114,5.71917 12.24756,12.45116 l 12.24754,12.23995 0.0903,49.27393 c 0.0496,27.10066 0.0948,77.46336 0.10041,111.91711 l 0.01,62.64318 -1.86829,3.8864 c -2.3675,4.92487 -3.77353,6.95701 -7.54771,10.90887 -4.90351,5.13434 -9.94829,8.26626 -17.26197,10.71657 l -3.5574,1.19183 -129.04197,-0.0365 c -112.50575,-0.0314 -129.32492,-0.11205 -131.25048,-0.6295 z"
     style="fill:#ffffff;fill-opacity:1;stroke:none"
     sodipodi:nodetypes="csscccssscsssscsscssscscc" />
  <rect
     style="fill:#00bbf2;fill-opacity:1;stroke:none"
     id="rect2990-3"
     width="235.77461"
     height="9.6288958"
     x="130"
     y="313.05176" />
  <rect
     style="fill:#00bbf2;fill-opacity:1;stroke:none"
     id="rect2990-3-7"
     width="236.12816"
     height="9.6288958"
     x="130"
     y="337.18555" />
  <rect
     style="fill:#00bbf2;fill-opacity:1;stroke:none"
     id="rect2990-3-5"
     width="237.89592"
     height="9.6288958"
     x="130"
     y="359.18555" />
  <rect
     style="fill:#00bbf2;fill-opacity:1;stroke:none"
     id="rect2990-3-35"
     width="161.6741"
     height="9.6288958"
     x="130"
     y="380.18555" />
  <rect
     style="fill:#5fbcd3;fill-opacity:1;stroke:#00bbf2;stroke-width:3.57340741;stroke-linecap:round;stroke-linejoin:round;stroke-miterlimit:4;stroke-opacity:1;stroke-dasharray:none"
     id="rect2997"
     width="117.1287"
     height="86.770142"
     x="247.67445"
     y="211.58777"
     transform="matrix(0.99999986,5.2631278e-4,-6.6188717e-4,0.99999978,0,0)" />
  <path
     sodipodi:type="arc"
     style="fill:#faec6d;fill-opacity:1;stroke:none"
     id="path3767"
     sodipodi:cx="942.85712"
     sodipodi:cy="126.28571"
     sodipodi:rx="71.428574"
     sodipodi:ry="74.285713"
     d="m 1014.2857,126.28571 a 71.428574,74.285713 0 1 1 -8e-4,-0.34876"
     transform="matrix(0.17017625,1.0237233e-4,-9.4756073e-5,0.163631,181.62858,216.36829)"
     sodipodi:start="0"
     sodipodi:end="6.2784904"
     sodipodi:open="true" />
  <path
     style="fill:#00222b;stroke:#000000;stroke-width:0.14889197px;stroke-linecap:butt;stroke-linejoin:miter;stroke-opacity:1"
     d="m 249.38537,264.75981 -0.1805,32.09802 113.72173,-0.0821 -0.30097,-26.55924 c 0,0 -16.05778,5.11893 -29.94586,3.53491 -13.88808,-1.58403 -35.06165,-17.46486 -49.84084,-18.06369 -14.77917,-0.59882 -33.45356,9.07214 -33.45356,9.07214 z"
     id="path3787"
     inkscape:connector-curvature="0"
     sodipodi:nodetypes="cccczzc" />
  <rect
     style="fill:#00bbf2;fill-opacity:1;stroke:none"
     id="rect2990-3-35-6"
     width="103.6741"
     height="9.6288958"
     x="130"
     y="290.36932" />
  <rect
     style="fill:#00bbf2;fill-opacity:1;stroke:none"
     id="rect2990-3-35-6-2"
     width="103.6741"
     height="9.6288958"
     x="130"
     y="268.36932" />
  <rect
     style="fill:#00bbf2;fill-opacity:1;stroke:none"
     id="rect2990-3-35-6-9"
     width="103.6741"
     height="9.6288958"
     x="130"
     y="247.36931" />
  <rect
     style="fill:#00bbf2;fill-opacity:1;stroke:none"
     id="rect2990-3-35-6-1"
     width="103.6741"
     height="9.6288958"
     x="130"
     y="226.86931" />
  <rect
     style="fill:#00bbf2;fill-opacity:1;stroke:none"
     id="rect2990-3-35-6-27"
     width="81.674103"
     height="9.6288958"
     x="153.16295"
     y="207.36931" />
</svg>
