<?xml version="1.0" encoding="UTF-8" standalone="no"?>
<!-- Created using Karbon, part of Calligra: http://www.calligra.org/karbon -->

<svg
   xmlns:dc="http://purl.org/dc/elements/1.1/"
   xmlns:cc="http://creativecommons.org/ns#"
   xmlns:rdf="http://www.w3.org/1999/02/22-rdf-syntax-ns#"
   xmlns:svg="http://www.w3.org/2000/svg"
   xmlns="http://www.w3.org/2000/svg"
   xmlns:sodipodi="http://sodipodi.sourceforge.net/DTD/sodipodi-0.dtd"
   xmlns:inkscape="http://www.inkscape.org/namespaces/inkscape"
   width="512"
   height="512"
   id="svg2"
   version="1.1"
   inkscape:version="0.91 r13725"
   sodipodi:docname="livewallpaper-config.svg"
   viewBox="0 0 512 512">
  <metadata
     id="metadata12">
    <rdf:RDF>
      <cc:Work
         rdf:about="">
        <dc:format>image/svg+xml</dc:format>
        <dc:type
           rdf:resource="http://purl.org/dc/dcmitype/StillImage" />
        <dc:title />
      </cc:Work>
    </rdf:RDF>
  </metadata>
  <sodipodi:namedview
     pagecolor="#ffffff"
     bordercolor="#666666"
     borderopacity="1"
     objecttolerance="10"
     gridtolerance="10"
     guidetolerance="10"
     inkscape:pageopacity="0"
     inkscape:pageshadow="2"
     inkscape:window-width="1366"
     inkscape:window-height="715"
     id="namedview10"
     showgrid="false"
     inkscape:zoom="0.28726213"
     inkscape:cx="-438.69529"
     inkscape:cy="640.40673"
     inkscape:window-x="0"
     inkscape:window-y="24"
     inkscape:window-maximized="1"
     inkscape:current-layer="svg2"
     inkscape:showpageshadow="false"
     borderlayer="true"
     units="px"
     showguides="false"
     inkscape:document-units="px">
    <sodipodi:guide
       position="1.9073486e-06,48.000002"
       orientation="47.999998,0"
       id="guide4062" />
    <sodipodi:guide
       position="1.9073486e-06,3.8146973e-06"
       orientation="0,47.999998"
       id="guide4064" />
    <sodipodi:guide
       position="48,3.8146973e-06"
       orientation="-47.999998,0"
       id="guide4066" />
    <sodipodi:guide
       position="48,48.000002"
       orientation="0,-47.999998"
       id="guide4068" />
    <sodipodi:guide
       position="4.0000019,44.000002"
       orientation="39.999998,0"
       id="guide4072" />
    <sodipodi:guide
       position="4.0000019,4.0000038"
       orientation="0,39.999998"
       id="guide4074" />
    <sodipodi:guide
       position="44,4.0000038"
       orientation="-39.999998,0"
       id="guide4076" />
    <sodipodi:guide
       position="44,44.000002"
       orientation="0,-39.999998"
       id="guide4078" />
    <sodipodi:guide
       position="15.000002,33.000002"
       orientation="17.999998,0"
       id="guide4080" />
    <sodipodi:guide
       position="15.000002,15.000004"
       orientation="0,17.999998"
       id="guide4082" />
    <sodipodi:guide
       position="33,15.000004"
       orientation="-17.999998,0"
       id="guide4084" />
    <sodipodi:guide
       position="33,33.000002"
       orientation="0,-17.999998"
       id="guide4086" />
    <inkscape:grid
       type="xygrid"
       id="grid3359" />
  </sodipodi:namedview>
  <defs
     id="defs4" />
  <g
     id="g4154">
    <path
       id="rect4197"
       d="m 481.26377,48.141963 -450.52754,0 0,408.120297 450.52754,0 0,-408.120296 z m -33.78957,30.609029 0,30.609018 -33.78957,0 0,-30.609018 33.78957,0 z m 0,316.293188 0,30.60903 -33.78957,0 0,-30.60903 33.78957,0 z m -84.47389,-316.293202 0,30.609012 -33.78957,0 0,-30.609012 33.78957,0 z m 0,316.293202 0,30.60903 -33.78957,0 0,-30.60903 33.78957,0 z m -90.10553,-316.293202 0,30.609012 -33.78952,0 0,-30.609012 33.78952,0 z m 0,316.293202 0,30.60903 -33.78952,0 0,-30.60903 33.78952,0 z m -90.10547,-316.293202 0,30.609012 -33.78956,0 0,-30.609012 33.78956,0 z m 0,316.293202 0,30.60903 -33.78956,0 0,-30.60903 33.78956,0 z M 98.31535,78.750978 l 0,30.609012 -33.78956,0 0,-30.609012 33.78956,0 z m 0,316.293212 0,30.60903 -33.78956,0 0,-30.60903 33.78956,0 z"
       style="fill:#394050;fill-opacity:1;stroke:none;stroke-width:3.9848628"
       inkscape:connector-curvature="0" />
    <path
       id="path9"
       d="m 459.85561,125.45491 c 0.0117,0 0.22108,0.13599 0.22108,0.14772 l 0,250.43185 -410.224887,0 0,-250.43185 c 0,-0.0117 0.14577,-0.14772 0.1575,-0.14772 l 409.846307,0 0,0 z"
       style="fill:#00bbf2;fill-opacity:1"
       inkscape:connector-curvature="0" />
    <path
       sodipodi:nodetypes="cccczzc"
       inkscape:connector-curvature="0"
       id="path3787"
       d="m 49.272333,263.9581 -0.65651,116.54879 412.727597,-0.29434 -1.09114,-96.43732 c 0,0 -58.27833,18.58645 -108.68195,12.83433 C 301.16672,290.85743 224.32266,233.19293 170.68492,231.01806 117.04725,228.84322 49.272333,263.9581 49.272333,263.9581 Z"
       style="fill:#004455;fill-opacity:1;stroke:none;stroke-width:0.5405004px;stroke-linecap:butt;stroke-linejoin:miter;stroke-opacity:1" />
    <path
       sodipodi:open="true"
       sodipodi:end="6.2784904"
       sodipodi:start="0"
       transform="matrix(0.89137186,-0.45327278,0.45327279,0.89137185,0,0)"
       d="m 300.53929,334.23996 a 20.376604,19.992138 0 0 1 -20.35268,19.99212 20.376604,19.992138 0 0 1 -20.40047,-19.94519 20.376604,19.992138 0 0 1 20.3048,-20.03894 20.376604,19.992138 0 0 1 20.44813,19.89815"
       sodipodi:ry="19.992138"
       sodipodi:rx="20.376604"
       sodipodi:cy="334.23996"
       sodipodi:cx="280.16269"
       id="path3767"
       style="fill:#ffffff;fill-opacity:1;stroke:none"
       sodipodi:type="arc" />
  </g>
</svg>
