<?xml version="1.0" encoding="UTF-8" standalone="no"?>
<!-- Generator: Adobe Illustrator 19.0.0, SVG Export Plug-In . SVG Version: 6.00 Build 0)  -->

<svg
   xmlns:dc="http://purl.org/dc/elements/1.1/"
   xmlns:cc="http://creativecommons.org/ns#"
   xmlns:rdf="http://www.w3.org/1999/02/22-rdf-syntax-ns#"
   xmlns:svg="http://www.w3.org/2000/svg"
   xmlns="http://www.w3.org/2000/svg"
   xmlns:sodipodi="http://sodipodi.sourceforge.net/DTD/sodipodi-0.dtd"
   xmlns:inkscape="http://www.inkscape.org/namespaces/inkscape"
   version="1.1"
   id="Layer_1"
   x="0px"
   y="0px"
   viewBox="0 0 500 500"
   xml:space="preserve"
   inkscape:version="0.91 r13725"
   width="100%"
   height="100%"
   sodipodi:docname="mailru-mail.ru.svg"><metadata
     id="metadata57"><rdf:RDF><cc:Work
         rdf:about=""><dc:format>image/svg+xml</dc:format><dc:type
           rdf:resource="http://purl.org/dc/dcmitype/StillImage" /></cc:Work></rdf:RDF></metadata><defs
     id="defs55" /><sodipodi:namedview
     pagecolor="#ffffff"
     bordercolor="#666666"
     borderopacity="1"
     objecttolerance="10"
     gridtolerance="10"
     guidetolerance="10"
     inkscape:pageopacity="0"
     inkscape:pageshadow="2"
     inkscape:window-width="1366"
     inkscape:window-height="715"
     id="namedview53"
     showgrid="false"
     inkscape:zoom="0.7433037"
     inkscape:cx="234.30602"
     inkscape:cy="261.75762"
     inkscape:window-x="0"
     inkscape:window-y="24"
     inkscape:window-maximized="1"
     inkscape:current-layer="Layer_1" /><g
     id="g23"
     transform="translate(0,39.767)" /><g
     id="g25"
     transform="translate(0,39.767)" /><g
     id="g27"
     transform="translate(0,39.767)" /><g
     id="g29"
     transform="translate(0,39.767)" /><g
     id="g31"
     transform="translate(0,39.767)" /><g
     id="g33"
     transform="translate(0,39.767)" /><g
     id="g35"
     transform="translate(0,39.767)" /><g
     id="g37"
     transform="translate(0,39.767)" /><g
     id="g39"
     transform="translate(0,39.767)" /><g
     id="g41"
     transform="translate(0,39.767)" /><g
     id="g43"
     transform="translate(0,39.767)" /><g
     id="g45"
     transform="translate(0,39.767)" /><g
     id="g47"
     transform="translate(0,39.767)" /><g
     id="g49"
     transform="translate(0,39.767)" /><g
     id="g51"
     transform="translate(0,39.767)" /><g
     id="g4200"
     transform="matrix(3.2413856,0,0,3.2413856,-293.35262,-134.75586)"><rect
       ry="14.815838"
       y="49.38287"
       x="99.067886"
       height="138.97255"
       width="139.25317"
       id="rect2986-6"
       style="fill:#00bbf2;fill-opacity:1;fill-rule:evenodd;stroke:none;stroke-width:0.20245399" /><path
       sodipodi:nodetypes="ssssssscsssssssssssssssssssssssss"
       inkscape:connector-curvature="0"
       id="path4171-3"
       d="m 153.41169,165.4489 c -12.20966,-3.49322 -23.88719,-12.9463 -29.24488,-23.67405 -7.20466,-14.42593 -6.69434,-33.12722 1.27504,-46.725948 3.32446,-5.67276 13.48534,-15.05609 19.73077,-18.22089 19.51438,-9.88868 43.86879,-6.15129 59.37795,9.11204 16.44548,16.184818 18.09538,46.207398 3.45564,62.881138 -7.31732,8.33398 -18.80684,5.73972 -21.46379,-4.84637 l -0.65166,-2.59644 -2.82746,2.01333 c -10.66623,7.59502 -25.72702,6.38592 -35.29433,-2.83348 -11.65759,-11.23367 -12.26803,-27.9038 -1.45505,-39.73493 9.7836,-10.704808 23.98927,-12.497118 35.86031,-4.524428 4.21894,2.83347 4.38272,2.86197 5.69339,0.99073 1.63404,-2.33291 4.53248,-2.4874 6.66465,-0.35523 1.33094,1.33093 1.57143,4.855668 1.57143,23.031378 0,18.99167 0.18916,21.53255 1.64461,22.09105 3.77708,1.44941 8.58675,-10.81424 8.70419,-22.19386 0.0984,-9.53832 -1.26221,-14.65956 -5.61239,-21.124078 -7.048,-10.47354 -17.9013,-15.71633 -32.73641,-15.81362 -8.65185,-0.0567 -10.09381,0.21904 -16.15125,3.08895 -11.66436,5.52638 -18.55718,14.608548 -20.9523,27.607348 -2.19794,11.92863 1.9643,24.67126 10.68397,32.70876 10.03679,9.25159 20.54928,11.48895 39.58157,8.42409 3.18704,-0.51323 3.88774,-0.24519 5.40252,2.06666 1.67038,2.54931 1.65956,2.7648 -0.26825,5.3469 -1.10483,1.4798 -3.76096,3.21946 -5.90252,3.86591 -5.8636,1.77001 -19.91528,1.46654 -27.08575,-0.58496 z m 23.85897,-29.88013 c 6.92246,-4.27831 9.94125,-15.2244 6.482,-23.50357 -1.83062,-4.38128 -7.83196,-9.45836 -12.13425,-10.26548 -13.8999,-2.607638 -24.56835,8.32354 -21.71177,22.24645 1.3093,6.38146 3.54547,9.92469 7.59556,12.03517 6.73096,3.50748 13.54996,3.33068 19.76846,-0.51257 z"
       style="fill:#ffcc00;fill-opacity:1" /></g></svg>