<?xml version="1.0" encoding="UTF-8" standalone="no"?>
<svg
   xmlns:dc="http://purl.org/dc/elements/1.1/"
   xmlns:cc="http://creativecommons.org/ns#"
   xmlns:rdf="http://www.w3.org/1999/02/22-rdf-syntax-ns#"
   xmlns:svg="http://www.w3.org/2000/svg"
   xmlns="http://www.w3.org/2000/svg"
   xmlns:sodipodi="http://sodipodi.sourceforge.net/DTD/sodipodi-0.dtd"
   xmlns:inkscape="http://www.inkscape.org/namespaces/inkscape"
   height="500"
   id="Layer_1"
   version="1.1"
   viewBox="0 0 500 500"
   width="500"
   xml:space="preserve"
   inkscape:version="0.91 r13725"
   sodipodi:docname="mailnag.svg"><metadata
     id="metadata52"><rdf:RDF><cc:Work
         rdf:about=""><dc:format>image/svg+xml</dc:format><dc:type
           rdf:resource="http://purl.org/dc/dcmitype/StillImage" /></cc:Work></rdf:RDF></metadata><defs
     id="defs50" /><sodipodi:namedview
     pagecolor="#ffffff"
     bordercolor="#666666"
     borderopacity="1"
     objecttolerance="10"
     gridtolerance="10"
     guidetolerance="10"
     inkscape:pageopacity="0"
     inkscape:pageshadow="2"
     inkscape:window-width="1366"
     inkscape:window-height="715"
     id="namedview48"
     showgrid="false"
     inkscape:zoom="0.16296347"
     inkscape:cx="-1322.9809"
     inkscape:cy="500.79051"
     inkscape:window-x="0"
     inkscape:window-y="24"
     inkscape:window-maximized="1"
     inkscape:current-layer="Layer_1" /><g
     id="g18"
     transform="translate(0,435.999)" /><g
     id="g20"
     transform="translate(0,435.999)" /><g
     id="g22"
     transform="translate(0,435.999)" /><g
     id="g24"
     transform="translate(0,435.999)" /><g
     id="g26"
     transform="translate(0,435.999)" /><g
     id="g28"
     transform="translate(0,435.999)" /><g
     id="g30"
     transform="translate(0,435.999)" /><g
     id="g32"
     transform="translate(0,435.999)" /><g
     id="g34"
     transform="translate(0,435.999)" /><g
     id="g36"
     transform="translate(0,435.999)" /><g
     id="g38"
     transform="translate(0,435.999)" /><g
     id="g40"
     transform="translate(0,435.999)" /><g
     id="g42"
     transform="translate(0,435.999)" /><g
     id="g44"
     transform="translate(0,435.999)" /><g
     id="g46"
     transform="translate(0,435.999)" /><g
     id="g4176"><g
       id="g4160"
       transform="translate(-0.50457819,-0.62946806)"><polygon
         style="fill:#b3b3b3;fill-opacity:1"
         points="0,44 28,44 56,44 56,5 0,5 "
         id="polygon7-3"
         transform="matrix(8.0357143,0,0,8.0357143,27.169525,56.428571)" /><path
         style="fill:#c3c3c3;fill-opacity:1"
         d="m 275.99542,274.25268 c -13.15447,11.74821 -34.48929,11.74821 -47.65179,0 L 211.5731,259.44286 C 159.10792,306.26696 27.169525,410 27.169525,410 l 173.627675,0 102.75268,0 173.61965,0 c 0,0 -131.9384,-103.73304 -184.40358,-150.55714 l -16.77053,14.80982 z"
         id="path9-6"
         inkscape:connector-curvature="0" /><path
         style="fill:#ebebeb;fill-opacity:1"
         d="M 27.169525,96.60714 228.34363,274.25268 c 13.15447,11.74821 34.48929,11.74821 47.65179,0 l 201.17411,-177.64554 -450.000005,0 z"
         id="path11-7"
         inkscape:connector-curvature="0" /></g><path
       sodipodi:nodetypes="ccccccccc"
       inkscape:connector-curvature="0"
       id="path3350"
       d="M 27.706608,121.84777 253.12421,315.90966 476.33374,126.45003 476.74053,97.259853 442.58385,97.30239 256.95943,258.38143 62.537274,97.259853 27.935261,97.077728 Z"
       style="fill:#00bbf2;fill-opacity:1;fill-rule:evenodd;stroke:none;stroke-width:1px;stroke-linecap:butt;stroke-linejoin:miter;stroke-opacity:1" /><path
       sodipodi:nodetypes="ccccccc"
       inkscape:connector-curvature="0"
       id="path4152"
       d="M 113.90008,95.925891 254.37686,215.24979 391.05696,96.468273 336.51707,96.243611 254.24525,167.05962 172.84483,96.468273 Z"
       style="fill:#00bbf2;fill-opacity:1;fill-rule:evenodd;stroke:none;stroke-width:1px;stroke-linecap:butt;stroke-linejoin:miter;stroke-opacity:1" /><g
       id="g4158"><path
         style="fill:#ffd42a;fill-opacity:1;stroke:none;stroke-opacity:1"
         id="path4154"
         sodipodi:type="arc"
         sodipodi:cx="435.28293"
         sodipodi:cy="123.01234"
         sodipodi:rx="62.5"
         sodipodi:ry="62.5"
         sodipodi:start="0"
         sodipodi:end="6.2784904"
         sodipodi:open="true"
         d="m 497.78293,123.01234 a 62.5,62.5 0 0 1 -62.42664,62.49995 62.5,62.5 0 0 1 -62.57319,-62.35324 62.5,62.5 0 0 1 62.27976,-62.646326 62.5,62.5 0 0 1 62.71938,62.206186" /><path
         style="fill:none;fill-rule:evenodd;stroke:#ffffff;stroke-width:8;stroke-linecap:butt;stroke-linejoin:miter;stroke-miterlimit:4;stroke-dasharray:none;stroke-opacity:1"
         d="m 396.91137,123.81792 c -0.0747,9.55466 5.13373,22.67387 20.26597,19.94428 15.13224,-2.7296 26.60808,-35.30688 41.81866,-38.60184 15.21059,-3.29497 20.90756,10.2365 20.90933,19.94428 0.002,9.70777 -6.63558,23.67717 -21.23101,20.26597 -14.59543,-3.41121 -25.42416,-40.13148 -40.85362,-41.49698 -15.42945,-1.36551 -20.83471,10.38961 -20.90933,19.94429 z"
         id="path4156"
         inkscape:connector-curvature="0"
         sodipodi:nodetypes="zzzzzzz" /></g></g></svg>