<?xml version="1.0" encoding="UTF-8" standalone="no"?>
<!-- Created with Inkscape (http://www.inkscape.org/) -->

<svg
   xmlns:dc="http://purl.org/dc/elements/1.1/"
   xmlns:cc="http://creativecommons.org/ns#"
   xmlns:rdf="http://www.w3.org/1999/02/22-rdf-syntax-ns#"
   xmlns:svg="http://www.w3.org/2000/svg"
   xmlns="http://www.w3.org/2000/svg"
   xmlns:sodipodi="http://sodipodi.sourceforge.net/DTD/sodipodi-0.dtd"
   xmlns:inkscape="http://www.inkscape.org/namespaces/inkscape"
   id="svg2"
   version="1.1"
   inkscape:version="0.91 r13725"
   width="128"
   height="128"
   sodipodi:docname="manjaro.svg">
  <metadata
     id="metadata8">
    <rdf:RDF>
      <cc:Work
         rdf:about="">
        <dc:format>image/svg+xml</dc:format>
        <dc:type
           rdf:resource="http://purl.org/dc/dcmitype/StillImage" />
        <dc:title />
      </cc:Work>
    </rdf:RDF>
  </metadata>
  <defs
     id="defs6" />
  <sodipodi:namedview
     pagecolor="#ffffff"
     bordercolor="#666666"
     borderopacity="1"
     objecttolerance="10"
     gridtolerance="10"
     guidetolerance="10"
     inkscape:pageopacity="0"
     inkscape:pageshadow="2"
     inkscape:window-width="1366"
     inkscape:window-height="715"
     id="namedview4"
     showgrid="false"
     inkscape:zoom="0.65186408"
     inkscape:cx="-201.03778"
     inkscape:cy="239.24449"
     inkscape:window-x="0"
     inkscape:window-y="24"
     inkscape:window-maximized="1"
     inkscape:current-layer="svg2"
     showguides="true"
     inkscape:guide-bbox="true">
    <inkscape:grid
       type="xygrid"
       id="grid2985" />
  </sodipodi:namedview>
  <path
     style="fill:#45d03f;fill-opacity:1;stroke-width:0.23672076"
     d="m 20.1241,91.416727 0,-29.71569 13.456165,0 13.456163,0 0,29.71569 0,29.715693 -13.456163,0 -13.456165,0 z m 32.519067,-7.569112 0,-36.724097 13.456166,0 13.456164,0 0,36.724097 0,36.724115 -13.456164,0 -13.456166,0 z m 32.519061,-19.343218 0,-56.0673636 13.456165,0 13.456157,0 0,56.0673636 0,56.067333 -13.456157,0 -13.456165,0 z M 20.1241,32.265657 l 0,-23.8286236 29.715695,0 29.715702,0 0,16.5398786 0,16.539857 -16.259537,0 -16.259532,0 0,7.288772 0,7.288745 -13.456163,0 -13.456165,0 z"
     id="path903"
     inkscape:connector-curvature="0" />
</svg>
