<?xml version="1.0" encoding="UTF-8" standalone="no"?>
<!-- Created with Inkscape (http://www.inkscape.org/) -->

<svg
   xmlns:dc="http://purl.org/dc/elements/1.1/"
   xmlns:cc="http://creativecommons.org/ns#"
   xmlns:rdf="http://www.w3.org/1999/02/22-rdf-syntax-ns#"
   xmlns:svg="http://www.w3.org/2000/svg"
   xmlns="http://www.w3.org/2000/svg"
   xmlns:sodipodi="http://sodipodi.sourceforge.net/DTD/sodipodi-0.dtd"
   xmlns:inkscape="http://www.inkscape.org/namespaces/inkscape"
   id="svg2"
   version="1.1"
   inkscape:version="0.92.1 r15371"
   width="128"
   height="128"
   sodipodi:docname="mintupdate.svg">
  <metadata
     id="metadata8">
    <rdf:RDF>
      <cc:Work
         rdf:about="">
        <dc:format>image/svg+xml</dc:format>
        <dc:type
           rdf:resource="http://purl.org/dc/dcmitype/StillImage" />
        <dc:title />
      </cc:Work>
    </rdf:RDF>
  </metadata>
  <defs
     id="defs6" />
  <sodipodi:namedview
     pagecolor="#ffffff"
     bordercolor="#666666"
     borderopacity="1"
     objecttolerance="10"
     gridtolerance="10"
     guidetolerance="10"
     inkscape:pageopacity="0"
     inkscape:pageshadow="2"
     inkscape:window-width="1153"
     inkscape:window-height="657"
     id="namedview4"
     showgrid="false"
     inkscape:zoom="0.65186408"
     inkscape:cx="-25.15578"
     inkscape:cy="156.53496"
     inkscape:window-x="56"
     inkscape:window-y="56"
     inkscape:window-maximized="0"
     inkscape:current-layer="svg2"
     showguides="true"
     inkscape:guide-bbox="true">
    <inkscape:grid
       type="xygrid"
       id="grid2985" />
  </sodipodi:namedview>
  <g
     id="g832">
    <path
       sodipodi:nodetypes="cscsscscccsssscsccccccssssscssssccccccscscccsssscssscscccsscsssscccc"
       inkscape:connector-curvature="0"
       id="path3021"
       d="M 55.576087,89.791942 C 48.584998,87.956329 43.511858,83.466915 41.336313,77.190641 L 40.847569,75.118007 40.450501,62.482833 c -0.431679,-13.73649 -0.186817,-13.7879 -1.548434,-14.859955 -0.550232,-0.433214 -0.969109,-0.517162 -2.589258,-0.5189 -1.06306,-0.0012 -2.495524,-0.06972 -3.183258,-0.152404 l -1.250424,-0.150336 v -5.59593 -5.59593 l 22.567192,0.108095 c 24.617916,0.117915 23.828189,0.07437 27.504984,1.516643 4.636552,1.818758 8.69632,5.612007 10.670459,9.969964 1.512071,3.337939 1.480908,2.917841 1.595481,21.509431 0.09482,15.386537 0.06827,17.028765 -0.286475,17.715377 -0.664257,1.28576 -2.094866,2.684404 -3.341219,3.266573 l -1.190882,0.556257 -16.076887,-0.01095 c -14.819476,-0.0097 -16.207414,-0.04506 -17.745693,-0.448962 v 0 z m 23.255345,-7.38945 c 5.116316,-0.539 9.065627,-4.489877 9.763741,-9.767624 0.171489,-1.296485 0.225814,-4.839115 0.153534,-10.012785 -0.134353,-9.616426 -0.177526,-9.809577 -2.780745,-12.440597 -1.934258,-1.954908 -3.437261,-2.598633 -6.067417,-2.598633 -2.076667,0 -3.559966,0.409303 -5.124138,1.413973 l -1.156393,0.74275 -1.959096,-1.018764 c -1.947835,-1.012904 -1.973679,-1.018758 -4.495833,-1.018758 -2.185422,0 -2.69505,0.07802 -3.679876,0.563383 -1.693715,0.834732 -3.398976,2.624168 -4.285065,4.496588 l -0.764373,1.61522 -0.0693,7.330786 -0.0693,7.330785 h 2.748774 2.748775 l 9.87e-4,-6.734783 c 7.34e-4,-6.299758 0.03146,-6.784982 0.474174,-7.511772 1.073282,-1.761977 3.55837,-2.310337 4.993267,-1.101822 1.414552,1.191436 1.438716,1.33689 1.438716,8.661354 v 6.687023 h 2.714907 2.714907 l 0.08367,-6.896256 c 0.07969,-6.569045 0.107449,-6.928198 0.584911,-7.569194 1.539234,-2.06641 4.386345,-2.076593 5.851186,-0.02093 0.552314,0.775089 0.554991,0.814639 0.627977,9.303228 l 0.07329,8.524835 -0.65658,1.207483 c -0.737454,1.35622 -1.878293,2.358294 -3.579619,3.144238 -1.140386,0.52682 -1.241786,0.530995 -11.801262,0.486482 -11.827273,-0.04977 -11.44943,-0.0025 -13.179402,-1.683309 -0.483998,-0.470496 -1.133588,-1.400562 -1.443535,-2.066819 l -0.563533,-1.211369 -0.0023,-14.686195 -0.0023,-14.686198 -1.822258,-0.154181 c -1.002241,-0.0848 -2.181213,-0.154183 -2.619939,-0.154183 h -0.79768 l 0.01643,12.694783 c 0.0091,6.982129 0.09554,14.250338 0.192206,16.151572 0.167325,3.290691 0.213453,3.527542 0.960027,4.9291 0.903189,1.695568 2.969442,3.882643 4.538031,4.803398 2.295754,1.347575 3.234978,1.443891 14.18101,1.454297 5.501871,0.0051 10.928643,-0.088 12.059499,-0.207111 v 0 z"
       style="fill:#ffffff;fill-opacity:1;fill-rule:nonzero;stroke:#45d03f;stroke-width:2.03273249;stroke-miterlimit:4;stroke-dasharray:none;stroke-opacity:1" />
    <path
       inkscape:connector-curvature="0"
       id="path3031"
       d="m 59.862183,82.496602 c -3.910398,-0.0891 -4.991129,-0.257991 -6.536416,-1.021217 -1.121067,-0.5537 -1.810206,-1.068595 -2.91888,-2.180902 -1.415664,-1.420312 -2.570434,-3.15345 -2.907556,-4.363824 -0.390393,-1.401643 -0.465118,-4.154723 -0.519893,-19.154451 l -0.04816,-13.187971 h 0.242008 c 0.38137,0 3.967416,0.239093 4.446433,0.296457 l 0.431651,0.0517 V 57.565357 72.19432 l 0.376489,0.812673 c 0.20707,0.446971 0.574538,1.110872 0.816597,1.475349 0.519392,0.782047 1.591864,1.83815 2.15853,2.12557 1.097943,0.556887 3.183987,0.646956 14.119937,0.609642 9.338618,-0.0318 8.700929,0.0073 9.927907,-0.609157 1.723636,-0.865949 2.690758,-1.84343 3.680483,-3.71989 l 0.2741,-0.51967 -0.09806,-8.039137 c -0.0563,-4.616457 -0.13464,-8.281421 -0.183979,-8.608214 -0.110635,-0.732852 -0.315989,-1.125325 -0.887312,-1.695865 -1.384034,-1.382143 -3.472069,-1.389648 -4.952437,-0.01781 -0.57529,0.533117 -0.765402,0.865609 -0.890843,1.558022 -0.103738,0.572621 -0.246697,6.27624 -0.249399,9.950405 -9.81e-4,1.362569 -0.02559,2.705024 -0.05465,2.983242 l -0.05282,0.505844 h -2.655 -2.655 l -0.03609,-6.398531 c -0.03751,-6.650846 -0.05367,-6.965351 -0.399083,-7.769037 -0.208436,-0.484984 -1.020657,-1.272921 -1.597153,-1.549408 -0.539454,-0.258721 -1.624337,-0.323735 -2.269498,-0.136005 -0.956924,0.278446 -1.965016,1.074823 -2.289233,1.808456 -0.300546,0.680073 -0.334162,1.361064 -0.383509,7.769438 l -0.04831,6.275087 h -2.703793 -2.703795 l 0.04142,-0.514353 c 0.02277,-0.282892 0.06238,-3.569596 0.08803,-7.303788 l 0.04662,-6.789438 0.602776,-1.234445 c 0.901112,-1.84541 1.996188,-3.214156 3.336705,-4.170577 0.586485,-0.418441 1.501019,-0.898931 2.014367,-1.058338 0.441747,-0.137173 4.349895,-0.207708 5.015993,-0.09053 0.348632,0.06133 1.024824,0.352372 2.312695,0.995412 1.001005,0.499808 1.848595,0.908742 1.883533,0.908742 0.03494,0 0.411935,-0.225914 0.837769,-0.50203 1.563221,-1.013613 2.670344,-1.40534 4.447482,-1.573626 1.761279,-0.166786 3.3553,0.08113 4.618457,0.718326 1.048669,0.528991 2.422712,1.708603 3.450337,2.962106 1.538418,1.87657 1.671889,2.957344 1.682047,13.620027 0.0045,4.917338 -0.02072,6.835445 -0.09846,7.441931 -0.67751,5.283646 -4.394271,9.196692 -9.391525,9.887487 -1.60582,0.221989 -13.056883,0.337186 -19.321483,0.194373 v 0 z"
       style="fill:#45d03f;fill-opacity:1;fill-rule:nonzero;stroke:#45d03f;stroke-width:0.16939439;stroke-miterlimit:4;stroke-dasharray:none;stroke-opacity:1" />
    <g
       style="fill:#45d03f;fill-opacity:1"
       transform="matrix(26.666574,0,0,26.666574,-298.93057,-7978.493)"
       id="g990">
      <path
         style="fill:#45d03f;fill-opacity:1;stroke:none;stroke-width:0.26458332"
         d="m 13.607143,303.65236 c -1.172624,0 -2.116667,-0.94403 -2.116667,-2.11666 0,-0.38145 0.101301,-0.73801 0.276469,-1.04646 l 0.195337,0.19535 c -0.131597,0.25476 -0.207222,0.54353 -0.207222,0.85111 0,1.02605 0.826037,1.85208 1.852083,1.85208 0.30758,0 0.596342,-0.0756 0.851111,-0.20722 l 0.195337,0.19534 c -0.308449,0.17515 -0.664995,0.27646 -1.046448,0.27646 z m 1.840198,-1.07021 -0.195337,-0.19534 c 0.131597,-0.25477 0.207222,-0.54354 0.207222,-0.85111 0,-1.02606 -0.826037,-1.85209 -1.852083,-1.85209 -0.307581,0 -0.596342,0.0756 -0.851111,0.20723 l -0.195337,-0.19535 c 0.308448,-0.17515 0.664994,-0.27646 1.046448,-0.27646 1.172624,0 2.116666,0.94403 2.116666,2.11667 0,0.38145 -0.101301,0.738 -0.276468,1.04645 z"
         id="rect4085"
         inkscape:connector-curvature="0" />
      <rect
         style="color:#000000;text-decoration:none;text-decoration-line:none;text-decoration-style:solid;text-decoration-color:#000000;clip-rule:nonzero;display:inline;overflow:visible;visibility:visible;opacity:1;isolation:auto;mix-blend-mode:normal;color-interpolation:sRGB;color-interpolation-filters:linearRGB;solid-color:#000000;solid-opacity:1;fill:#45d03f;fill-opacity:1;fill-rule:nonzero;stroke:none;stroke-width:0.26458332;stroke-linecap:butt;stroke-linejoin:miter;stroke-miterlimit:4;stroke-dasharray:none;stroke-dashoffset:0;stroke-opacity:1;color-rendering:auto;image-rendering:auto;shape-rendering:auto;text-rendering:auto;enable-background:accumulate"
         id="rect4336"
         width="0.26458332"
         height="1.0583333"
         x="-203.03401"
         y="221.05585"
         transform="rotate(-45)" />
      <rect
         style="color:#000000;text-decoration:none;text-decoration-line:none;text-decoration-style:solid;text-decoration-color:#000000;clip-rule:nonzero;display:inline;overflow:visible;visibility:visible;opacity:1;isolation:auto;mix-blend-mode:normal;color-interpolation:sRGB;color-interpolation-filters:linearRGB;solid-color:#000000;solid-opacity:1;fill:#45d03f;fill-opacity:1;fill-rule:nonzero;stroke:none;stroke-width:0.26458332;stroke-linecap:butt;stroke-linejoin:miter;stroke-miterlimit:4;stroke-dasharray:none;stroke-dashoffset:0;stroke-opacity:1;color-rendering:auto;image-rendering:auto;shape-rendering:auto;text-rendering:auto;enable-background:accumulate"
         id="rect4336-5"
         width="0.26458332"
         height="1.0583333"
         x="-204.42145"
         y="223.5667"
         transform="rotate(-45)" />
    </g>
  </g>
</svg>
