<?xml version="1.0" encoding="UTF-8" standalone="no"?>
<!-- Created with Inkscape (http://www.inkscape.org/) -->

<svg
   xmlns:dc="http://purl.org/dc/elements/1.1/"
   xmlns:cc="http://creativecommons.org/ns#"
   xmlns:rdf="http://www.w3.org/1999/02/22-rdf-syntax-ns#"
   xmlns:svg="http://www.w3.org/2000/svg"
   xmlns="http://www.w3.org/2000/svg"
   xmlns:sodipodi="http://sodipodi.sourceforge.net/DTD/sodipodi-0.dtd"
   xmlns:inkscape="http://www.inkscape.org/namespaces/inkscape"
   width="512"
   height="512"
   id="svg2"
   version="1.1"
   inkscape:version="0.91 r13725"
   sodipodi:docname="mkvinfo.svg"
   viewBox="0 0 512 512">
  <defs
     id="defs4" />
  <sodipodi:namedview
     id="base"
     pagecolor="#ffffff"
     bordercolor="#666666"
     borderopacity="1.0"
     inkscape:pageopacity="0.0"
     inkscape:pageshadow="2"
     inkscape:zoom="0.32593203"
     inkscape:cx="-232.95685"
     inkscape:cy="342.50936"
     inkscape:document-units="px"
     inkscape:current-layer="layer1"
     showgrid="true"
     inkscape:snap-page="true"
     inkscape:snap-global="false"
     inkscape:snap-center="true"
     inkscape:snap-object-midpoints="false"
     showguides="true"
     inkscape:guide-bbox="true"
     inkscape:snap-bbox="true"
     inkscape:object-paths="true"
     inkscape:object-nodes="true"
     inkscape:window-width="1366"
     inkscape:window-height="715"
     inkscape:window-x="0"
     inkscape:window-y="24"
     inkscape:window-maximized="1"
     inkscape:snap-midpoints="false"
     inkscape:snap-grids="true"
     inkscape:snap-to-guides="false"
     borderlayer="false"
     showborder="true">
    <inkscape:grid
       type="xygrid"
       id="grid3002"
       empspacing="5"
       visible="true"
       enabled="true"
       snapvisiblegridlinesonly="true" />
  </sodipodi:namedview>
  <metadata
     id="metadata7">
    <rdf:RDF>
      <cc:Work
         rdf:about="">
        <dc:format>image/svg+xml</dc:format>
        <dc:type
           rdf:resource="http://purl.org/dc/dcmitype/StillImage" />
        <dc:title />
      </cc:Work>
    </rdf:RDF>
  </metadata>
  <g
     inkscape:label="Layer 1"
     inkscape:groupmode="layer"
     id="layer1"
     transform="translate(0,-540.36218)">
    <g
       id="g4190">
      <rect
         ry="21.153845"
         y="768.32782"
         x="40.794899"
         height="252.7326"
         width="425.30334"
         id="rect2997"
         style="fill:#00bbf2;fill-opacity:1;stroke:none" />
      <path
         sodipodi:nodetypes="ccccc"
         inkscape:connector-curvature="0"
         id="path2999"
         d="m 41.062631,791.71329 433.782559,1.57452 0,-47.23584 -433.782559,0 z"
         style="fill:#004455;stroke:none;fill-opacity:1" />
      <path
         sodipodi:nodetypes="ccccc"
         inkscape:connector-curvature="0"
         id="path3769"
         d="m 148.80589,792.09094 -43.58122,-0.15497 44.89988,-45.87922 43.55539,0.17348 z"
         style="fill:#ffffff;stroke:none" />
      <path
         sodipodi:nodetypes="ccccc"
         inkscape:connector-curvature="0"
         id="path3769-3"
         d="m 238.54111,792.13985 -43.5812,-0.15496 44.90006,-45.87923 43.55532,0.17349 z"
         style="fill:#ffffff;stroke:none" />
      <path
         sodipodi:nodetypes="ccccc"
         inkscape:connector-curvature="0"
         id="path3769-6"
         d="m 329.98989,791.99994 -43.58133,-0.15496 44.89997,-45.87923 43.55532,0.17349 z"
         style="fill:#ffffff;stroke:none" />
      <path
         sodipodi:nodetypes="ccccc"
         inkscape:connector-curvature="0"
         id="path3769-3-7"
         d="m 419.72502,792.04886 -43.58111,-0.15497 44.89997,-45.87922 43.55532,0.17348 z"
         style="fill:#ffffff;stroke:none" />
      <path
         sodipodi:nodetypes="ccccc"
         inkscape:connector-curvature="0"
         id="path2999-3"
         d="M 27.41616,702.47407 440.81699,571.0604 454.96342,616.12816 41.091048,746.03958 Z"
         style="fill:#004455;stroke:none;fill-opacity:1" />
      <path
         sodipodi:nodetypes="ccccc"
         inkscape:connector-curvature="0"
         id="path3769-5"
         d="M 130.10101,669.84625 88.566534,683.04603 145.1457,713.3726 186.64998,700.16289 Z"
         style="fill:#ffffff;stroke:none" />
      <path
         sodipodi:nodetypes="ccccc"
         inkscape:connector-curvature="0"
         id="path3769-3-6"
         d="m 215.70282,642.92522 -41.53445,13.19977 56.57933,30.32652 41.50422,-13.20969 z"
         style="fill:#ffffff;stroke:none" />
      <path
         sodipodi:nodetypes="ccccc"
         inkscape:connector-curvature="0"
         id="path3769-6-2"
         d="m 302.9961,615.67116 -41.53458,13.19981 56.57924,30.32654 41.50423,-13.20969 z"
         style="fill:#ffffff;stroke:none" />
      <path
         sodipodi:nodetypes="ccccc"
         inkscape:connector-curvature="0"
         id="path3769-3-7-9"
         d="m 388.59783,588.75015 -41.53438,13.19975 56.57925,30.32654 41.50422,-13.20969 z"
         style="fill:#ffffff;stroke:none" />
      <path
         sodipodi:nodetypes="cccccc"
         inkscape:connector-curvature="0"
         id="path3861"
         d="m 40.837368,792.50388 68.193292,0 c 0,0 9.05758,-28.45342 8.96253,-28.83602 l -35.070817,-62.63752 -42.864349,0.0946 z"
         style="fill:#00bbf2;stroke:none;fill-opacity:1" />
      <path
         sodipodi:open="true"
         sodipodi:end="6.2784904"
         sodipodi:start="0"
         d="m 60.061252,712.66858 a 6.2348132,6.2348132 0 0 1 -6.227495,6.23481 6.2348132,6.2348132 0 0 1 -6.242114,-6.22017 6.2348132,6.2348132 0 0 1 6.212842,-6.24942 6.2348132,6.2348132 0 0 1 6.256698,6.20551"
         sodipodi:ry="6.2348132"
         sodipodi:rx="6.2348132"
         sodipodi:cy="712.66858"
         sodipodi:cx="53.826439"
         id="path3863"
         style="fill:#ffffff;fill-opacity:1;stroke:none"
         sodipodi:type="arc" />
      <path
         sodipodi:open="true"
         sodipodi:end="6.2784904"
         sodipodi:start="0"
         d="m 60.450954,778.13409 a 6.2348132,6.2348132 0 0 1 -6.227495,6.23481 6.2348132,6.2348132 0 0 1 -6.242114,-6.22017 6.2348132,6.2348132 0 0 1 6.212842,-6.24941 6.2348132,6.2348132 0 0 1 6.256698,6.2055"
         sodipodi:ry="6.2348132"
         sodipodi:rx="6.2348132"
         sodipodi:cy="778.13409"
         sodipodi:cx="54.216141"
         id="path3863-1"
         style="fill:#ffffff;fill-opacity:1;stroke:none"
         sodipodi:type="arc" />
      <path
         sodipodi:open="true"
         sodipodi:end="6.2784904"
         sodipodi:start="0"
         d="m 106.43275,780.08252 a 6.2348132,6.2348132 0 0 1 -6.2275,6.23481 6.2348132,6.2348132 0 0 1 -6.242109,-6.22017 6.2348132,6.2348132 0 0 1 6.212839,-6.24942 6.2348132,6.2348132 0 0 1 6.2567,6.20551"
         sodipodi:ry="6.2348132"
         sodipodi:rx="6.2348132"
         sodipodi:cy="780.08252"
         sodipodi:cx="100.19794"
         id="path3863-2"
         style="fill:#ffffff;fill-opacity:1;stroke:none"
         sodipodi:type="arc" />
      <path
         inkscape:connector-curvature="0"
         d="m 95.700125,913.58246 29.164675,-10.12961 36.75416,40.52756 3.83829,-54.62631 29.10516,-10.10894 30.86429,88.86297 -21.66519,7.52485 -22.57455,-64.99555 -3.83329,55.02477 -14.52282,5.04413 -37.11628,-40.80198 22.57455,64.99555 -21.72471,7.5455 -30.864285,-88.86294 z"
         style="font-style:normal;font-variant:normal;font-weight:bold;font-stretch:normal;font-size:medium;line-height:125%;font-family:sans-serif;-inkscape-font-specification:'sans-serif Bold';letter-spacing:0px;word-spacing:0px;fill:#ffffff;fill-opacity:1;stroke:none;stroke-width:1px;stroke-linecap:butt;stroke-linejoin:miter;stroke-opacity:1"
         id="path4168" />
      <path
         inkscape:connector-curvature="0"
         d="m 217.12039,871.41022 22.9151,-7.95898 11.2666,32.43826 21.76685,-43.91158 26.60531,-9.24068 -28.17911,56.94409 63.44787,30.38909 -28.68852,9.96423 -47.51024,-22.71804 12.15553,34.9976 -22.9151,7.95898 -30.86429,-88.86297 z"
         style="font-style:normal;font-variant:normal;font-weight:bold;font-stretch:normal;font-size:medium;line-height:125%;font-family:sans-serif;-inkscape-font-specification:'sans-serif Bold';letter-spacing:0px;word-spacing:0px;fill:#ffffff;fill-opacity:1;stroke:none;stroke-width:1px;stroke-linecap:butt;stroke-linejoin:miter;stroke-opacity:1"
         id="path4170" />
      <path
         inkscape:connector-curvature="0"
         d="m 301.04321,842.26176 23.03415,-8.00032 46.35109,57.40437 0.72902,-73.75645 23.03413,-8.00032 -2.05012,100.29495 -27.31956,9.48875 -63.77871,-77.43098 z"
         style="font-style:normal;font-variant:normal;font-weight:bold;font-stretch:normal;font-size:medium;line-height:125%;font-family:sans-serif;-inkscape-font-specification:'sans-serif Bold';letter-spacing:0px;word-spacing:0px;fill:#ffffff;fill-opacity:1;stroke:none;stroke-width:1px;stroke-linecap:butt;stroke-linejoin:miter;stroke-opacity:1"
         id="path4172" />
    </g>
  </g>
</svg>
