<?xml version="1.0" encoding="UTF-8" standalone="no"?>
<svg
   xmlns:dc="http://purl.org/dc/elements/1.1/"
   xmlns:cc="http://creativecommons.org/ns#"
   xmlns:rdf="http://www.w3.org/1999/02/22-rdf-syntax-ns#"
   xmlns:svg="http://www.w3.org/2000/svg"
   xmlns="http://www.w3.org/2000/svg"
   xmlns:sodipodi="http://sodipodi.sourceforge.net/DTD/sodipodi-0.dtd"
   xmlns:inkscape="http://www.inkscape.org/namespaces/inkscape"
   viewBox="0 0 128 128"
   id="svg2"
   version="1.1"
   inkscape:version="0.92.1 r15371"
   sodipodi:docname="museeq.svg"
   width="128"
   height="128">
  <metadata
     id="metadata73">
    <rdf:RDF>
      <cc:Work
         rdf:about="">
        <dc:format>image/svg+xml</dc:format>
        <dc:type
           rdf:resource="http://purl.org/dc/dcmitype/StillImage" />
        <dc:title />
      </cc:Work>
    </rdf:RDF>
  </metadata>
  <sodipodi:namedview
     pagecolor="#ffffff"
     bordercolor="#666666"
     borderopacity="1"
     objecttolerance="10"
     gridtolerance="10"
     guidetolerance="10"
     inkscape:pageopacity="0"
     inkscape:pageshadow="2"
     inkscape:window-width="1366"
     inkscape:window-height="714"
     id="namedview71"
     showgrid="false"
     inkscape:zoom="0.86915207"
     inkscape:cx="292.45703"
     inkscape:cy="68.209444"
     inkscape:window-x="0"
     inkscape:window-y="0"
     inkscape:window-maximized="1"
     inkscape:current-layer="svg2" />
  <defs
     id="defs4">
    <linearGradient
       id="linearGradient3764"
       x1="1"
       x2="47"
       gradientUnits="userSpaceOnUse"
       gradientTransform="matrix(0,-1,1,0,-1.5e-6,47.999998)">
      <stop
         stop-color="#acacac"
         stop-opacity="1"
         id="stop7" />
      <stop
         offset="1"
         stop-color="#b6b6b6"
         stop-opacity="1"
         id="stop9" />
    </linearGradient>
    <clipPath
       id="clipPath-593073577">
      <g
         transform="translate(0,-1004.3622)"
         id="g12">
        <path
           d="m -24,13 c 0,1.105 -0.672,2 -1.5,2 -0.828,0 -1.5,-0.895 -1.5,-2 0,-1.105 0.672,-2 1.5,-2 0.828,0 1.5,0.895 1.5,2 z"
           transform="matrix(15.333333,0,0,11.5,414.99999,878.8622)"
           id="path14"
           inkscape:connector-curvature="0"
           style="fill:#1890d0" />
      </g>
    </clipPath>
    <clipPath
       id="clipPath-601783356">
      <g
         transform="translate(0,-1004.3622)"
         id="g17">
        <path
           d="m -24,13 c 0,1.105 -0.672,2 -1.5,2 -0.828,0 -1.5,-0.895 -1.5,-2 0,-1.105 0.672,-2 1.5,-2 0.828,0 1.5,0.895 1.5,2 z"
           transform="matrix(15.333333,0,0,11.5,414.99999,878.8622)"
           id="path19"
           inkscape:connector-curvature="0"
           style="fill:#1890d0" />
      </g>
    </clipPath>
  </defs>
  <g
     id="g33"
     transform="translate(0,80)" />
  <g
     id="g838">
    <ellipse
       ry="41.419678"
       rx="37.248947"
       cy="66.445755"
       cx="63.999157"
       id="path834"
       style="opacity:1;fill:#ffffff;fill-opacity:1;stroke:none;stroke-width:33.06504059;stroke-linecap:round;stroke-miterlimit:4;stroke-dasharray:none;stroke-opacity:1" />
    <path
       inkscape:connector-curvature="0"
       id="path4487"
       d="M 59.779047,120.42669 C 50.667245,119.72431 41.287287,116.47182 33.465453,111.30247 14.887592,99.024613 5.320488,76.955707 9.1131314,55.1278 10.051057,49.729758 11.716803,44.764806 14.310394,39.636767 17.108831,34.103706 20.376724,29.58519 24.685401,25.291247 33.391361,16.615062 44.33289,11.148786 56.6385,9.3278064 c 3.705901,-0.548399 11.747294,-0.547569 15.462363,0.0016 18.464451,2.7294166 33.992147,13.8524566 42.317607,30.3136036 4.11827,8.142675 5.9408,15.796022 5.94679,24.972206 0.006,8.97886 -1.7068,16.401299 -5.67097,24.577474 -9.99886,20.62276 -31.789535,33.0166 -54.915243,31.23398 z M 53.127433,89.309717 c 0,-4.892086 0.05567,-8.894704 0.123712,-8.894704 0.06804,0 0.747791,0.315037 1.510556,0.700076 0.762766,0.385045 2.313409,0.98536 3.445876,1.334032 1.905336,0.586637 2.36478,0.633956 6.155272,0.633956 3.790492,0 4.249936,-0.04732 6.155275,-0.633956 1.132466,-0.348672 2.683106,-0.948987 3.445872,-1.334032 0.762767,-0.385039 1.442516,-0.700076 1.510559,-0.700076 0.06804,0 0.123709,0.631991 0.123709,1.404425 v 1.404426 h 5.617713 5.617707 V 58.880463 34.537062 h -5.604389 -5.604379 l -0.07824,14.102788 c -0.07565,13.637338 -0.09459,14.151058 -0.573825,15.565298 -1.59602,4.709975 -5.639998,7.610827 -10.610004,7.610827 -4.970006,0 -9.013984,-2.900852 -10.610006,-7.610827 -0.47923,-1.41424 -0.49817,-1.92796 -0.573822,-15.565298 l -0.07824,-14.102788 h -5.604381 -5.604384 v 31.833679 31.833682 h 5.617706 5.617709 z"
       style="fill:#00bbf2;fill-opacity:1;stroke-width:0.23407118" />
  </g>
</svg>
