<?xml version="1.0" encoding="UTF-8" standalone="no"?>
<!-- Created with Inkscape (http://www.inkscape.org/) -->

<svg
   xmlns:dc="http://purl.org/dc/elements/1.1/"
   xmlns:cc="http://creativecommons.org/ns#"
   xmlns:rdf="http://www.w3.org/1999/02/22-rdf-syntax-ns#"
   xmlns:svg="http://www.w3.org/2000/svg"
   xmlns="http://www.w3.org/2000/svg"
   xmlns:sodipodi="http://sodipodi.sourceforge.net/DTD/sodipodi-0.dtd"
   xmlns:inkscape="http://www.inkscape.org/namespaces/inkscape"
   version="1.1"
   width="100%"
   height="100%"
   viewBox="0 0 512 512"
   id="svg2"
   inkscape:version="0.48.5 r10040"
   sodipodi:docname="netflix.svg">
  <sodipodi:namedview
     pagecolor="#ffffff"
     bordercolor="#666666"
     borderopacity="1"
     objecttolerance="10"
     gridtolerance="10"
     guidetolerance="10"
     inkscape:pageopacity="0"
     inkscape:pageshadow="2"
     inkscape:window-width="640"
     inkscape:window-height="480"
     id="namedview37"
     showgrid="false"
     inkscape:zoom="0.4609375"
     inkscape:cx="256"
     inkscape:cy="256"
     inkscape:window-x="15"
     inkscape:window-y="39"
     inkscape:window-maximized="0"
     inkscape:current-layer="svg2" />
  <metadata
     id="metadata72">
    <rdf:RDF>
      <cc:Work
         rdf:about="">
        <dc:format>image/svg+xml</dc:format>
        <dc:type
           rdf:resource="http://purl.org/dc/dcmitype/StillImage" />
      </cc:Work>
    </rdf:RDF>
  </metadata>
  <defs
     id="defs70" />
  <path
     d="m 487.13496,251.96451 c 0,129.88628 -105.29491,235.17044 -235.17045,235.17044 -129.88628,0 -235.170442,-105.2949 -235.170442,-235.17044 0,-129.88628 105.294912,-235.170442 235.170442,-235.170442 129.88628,0 235.17045,105.294902 235.17045,235.170442"
     inkscape:connector-curvature="0"
     id="path4"
     style="fill:#f03916;fill-rule:evenodd" />
  <text
     x="729.64001"
     y="231.36"
     id="text20"
     style="font-size:129.22999573px;line-height:125%;letter-spacing:0;word-spacing:0;font-family:Gentium Book Basic">
    <tspan
       x="729.64001"
       y="231.36"
       id="tspan22" />
  </text>
  <text
     x="378.91"
     y="579.25"
     transform="scale(4.0128,0.2492)"
     id="text24"
     style="font-size:46.95399857px;text-anchor:middle;font-family:Arial" />
  <text
     x="1310.91"
     y="151.36"
     id="text26"
     style="font-size:129.22999573px;line-height:125%;letter-spacing:0;word-spacing:0;font-family:Gentium Book Basic">
    <tspan
       x="1310.91"
       y="151.36"
       id="tspan28" />
  </text>
  <text
     x="523.76001"
     y="258.22"
     transform="scale(4.0128,0.2492)"
     id="text30"
     style="font-size:46.95399857px;text-anchor:middle;font-family:Arial" />
  <text
     x="239.33"
     y="-29.900999"
     id="text32"
     style="font-size:129.22999573px;line-height:125%;letter-spacing:0;word-spacing:0;font-family:Gentium Book Basic">
    <tspan
       x="239.33"
       y="-29.900999"
       id="tspan34" />
  </text>
  <text
     x="256.72"
     y="-469.14001"
     transform="scale(4.0128,0.2492)"
     id="text36"
     style="font-size:46.95399857px;text-anchor:middle;font-family:Arial" />
  <text
     x="1337.38"
     y="-246.37"
     id="text38"
     style="font-size:129.22999573px;line-height:125%;letter-spacing:0;word-spacing:0;font-family:Gentium Book Basic">
    <tspan
       x="1337.38"
       y="-246.37"
       id="tspan40" />
  </text>
  <text
     x="530.35999"
     y="-1337.8101"
     transform="scale(4.0128,0.2492)"
     id="text42"
     style="font-size:46.95399857px;text-anchor:middle;font-family:Arial" />
  <text
     x="1918.65"
     y="-326.38"
     id="text44"
     style="font-size:129.22999573px;line-height:125%;letter-spacing:0;word-spacing:0;font-family:Gentium Book Basic">
    <tspan
       x="1918.65"
       y="-326.38"
       id="tspan46" />
  </text>
  <text
     x="675.21002"
     y="-1658.85"
     transform="scale(4.0128,0.2492)"
     id="text48"
     style="font-size:46.95399857px;text-anchor:middle;font-family:Arial" />
  <text
     x="1529.53"
     y="-798.78003"
     id="text50"
     style="font-size:129.22999573px;line-height:125%;letter-spacing:0;word-spacing:0;font-family:Gentium Book Basic">
    <tspan
       x="1529.53"
       y="-798.78003"
       id="tspan52" />
  </text>
  <text
     x="578.23999"
     y="-3554.51"
     transform="scale(4.0128,0.2492)"
     id="text54"
     style="font-size:46.95399857px;text-anchor:middle;font-family:Arial" />
  <text
     x="2110.79"
     y="-878.78003"
     id="text56"
     style="font-size:129.22999573px;line-height:125%;letter-spacing:0;word-spacing:0;font-family:Gentium Book Basic">
    <tspan
       x="2110.79"
       y="-878.78003"
       id="tspan58" />
  </text>
  <text
     x="723.09003"
     y="-3875.54"
     transform="scale(4.0128,0.2492)"
     id="text60"
     style="font-size:46.95399857px;text-anchor:middle;font-family:Arial" />
  <text
     x="277.98999"
     y="535.94"
     id="text62"
     style="font-size:208.33000183px;line-height:125%;letter-spacing:0;word-spacing:0;font-family:Gentium Book Basic">
    <tspan
       x="277.98999"
       y="535.94"
       id="tspan64" />
  </text>
  <path
     d="m 58.069757,202.72805 v 1.07433 105.55274 1.24193 l 1.241924,-0.1676 c 0,0 3.36587,-0.49097 10.575687,-1.30961 l 0.940037,-0.10098 v -0.97334 l -0.638151,-70.43296 10.709978,69.35863 0.167595,1.04102 1.041024,-0.13429 c 0,0 4.146907,-0.50923 18.328039,-1.91338 l 0.97334,-0.10098 v -0.97335 -101.05131 -1.07432 h -1.07432 -10.910882 -1.07433 v 1.07432 l 0.33626,74.39723 -11.381428,-74.56912 -0.167596,-0.90673 h -0.906733 l -17.088264,-0.0333 h -1.074328 m 101.760371,0 -24.37436,0.0333 h -1.07433 v 1.07433 98.20434 1.14201 l 1.14201,-0.0677 c 0,0 6.24507,-0.41684 24.30668,-1.57819 l 1.00772,-0.0677 v -1.00772 -9.66896 -1.14201 l -1.14201,0.0677 -12.52237,0.87343 v -31.59167 h 12.59005 1.07433 v -1.07433 -9.83655 -1.07433 h -1.07433 -12.62336 v -32.35876 h 12.69104 1.07433 v -1.07433 -9.76565 -1.07432 h -1.07433 m 116.50015,0 -24.33998,0.0333 h -1.07433 v 1.07433 93.67067 1.07433 h 1.07433 10.6423 1.07433 v -1.07433 -38.50822 h 12.59005 1.07433 v -1.07432 -9.83655 -1.07433 h -1.07433 -12.62336 v -32.35877 h 12.65666 1.07433 v -1.07432 -9.76565 -1.07433 h -1.07433 m 32.40174,0 v 1.07433 94.47642 1.04103 l 1.04102,0.0333 c 0,0 7.18404,0.2009 24.47428,0.97334 l 1.10763,0.0333 v -1.10763 -9.60235 -0.97334 l -0.97334,-0.10099 c 0,0 -3.19291,-0.21594 -12.92417,-0.57047 v -84.1951 -1.07433 h -1.07433 -10.57569 -1.07432 m 65.8026,0 -10.54239,0.0333 h -1.07432 v 1.07433 97.02258 1.00772 l 1.00772,0.0677 c 0,0 3.89766,0.22024 10.54238,0.70476 l 1.14201,0.0677 v -1.14201 -97.76387 -1.07432 h -1.07433 m 33.67375,0 0.26858,1.2763 9.0308,46.368 -8.76222,54.42117 -0.1676,1.14201 1.14201,0.10099 11.31376,1.10763 1.04102,0.10099 0.13429,-1.04102 5.10306,-39.24629 4.96877,40.48928 0.10098,0.83905 0.83905,0.10099 12.42246,1.41059 1.41059,0.1676 -0.20197,-1.41059 -8.86321,-56.83841 8.9642,-47.71092 0.26858,-1.2763 h -1.30961 -11.88207 -0.90673 l -0.16759,0.90673 -5.23735,33.23757 -5.47263,-33.23757 -0.1676,-0.90673 h -0.90673 -11.65002 -1.3096 m -222.71898,0.0333 v 1.07433 9.73342 1.07432 h 1.07433 10.40809 v 83.9695 1.17531 l 1.17531,-0.10099 c 0,0 2.40972,-0.22238 10.4414,-0.40287 l 1.04102,-0.0333 v -1.04103 l 0.0677,-83.56124 h 10.54238 1.07433 v -1.07433 -9.73342 -1.07432 h -1.07433 -33.67374 -1.07433"
     inkscape:connector-curvature="0"
     id="path66"
     style="color:#000000;fill:#ffffff" />
</svg>
