<?xml version="1.0" encoding="UTF-8" standalone="no"?>
<!-- Generator: Adobe Illustrator 19.0.0, SVG Export Plug-In . SVG Version: 6.00 Build 0)  -->

<svg
   xmlns:dc="http://purl.org/dc/elements/1.1/"
   xmlns:cc="http://creativecommons.org/ns#"
   xmlns:rdf="http://www.w3.org/1999/02/22-rdf-syntax-ns#"
   xmlns:svg="http://www.w3.org/2000/svg"
   xmlns="http://www.w3.org/2000/svg"
   xmlns:sodipodi="http://sodipodi.sourceforge.net/DTD/sodipodi-0.dtd"
   xmlns:inkscape="http://www.inkscape.org/namespaces/inkscape"
   version="1.1"
   id="Layer_1"
   x="0px"
   y="0px"
   viewBox="0 0 500 500"
   xml:space="preserve"
   inkscape:version="0.91 r13725"
   width="100%"
   height="100%"
   sodipodi:docname="NoMachine.svg"><metadata
     id="metadata57"><rdf:RDF><cc:Work
         rdf:about=""><dc:format>image/svg+xml</dc:format><dc:type
           rdf:resource="http://purl.org/dc/dcmitype/StillImage" /></cc:Work></rdf:RDF></metadata><defs
     id="defs55" /><sodipodi:namedview
     pagecolor="#ffffff"
     bordercolor="#666666"
     borderopacity="1"
     objecttolerance="10"
     gridtolerance="10"
     guidetolerance="10"
     inkscape:pageopacity="0"
     inkscape:pageshadow="2"
     inkscape:window-width="1366"
     inkscape:window-height="715"
     id="namedview53"
     showgrid="false"
     inkscape:zoom="0.52559509"
     inkscape:cx="31.116457"
     inkscape:cy="175.71597"
     inkscape:window-x="0"
     inkscape:window-y="24"
     inkscape:window-maximized="1"
     inkscape:current-layer="Layer_1" /><g
     id="g23"
     transform="translate(0,39.767)" /><g
     id="g25"
     transform="translate(0,39.767)" /><g
     id="g27"
     transform="translate(0,39.767)" /><g
     id="g29"
     transform="translate(0,39.767)" /><g
     id="g31"
     transform="translate(0,39.767)" /><g
     id="g33"
     transform="translate(0,39.767)" /><g
     id="g35"
     transform="translate(0,39.767)" /><g
     id="g37"
     transform="translate(0,39.767)" /><g
     id="g39"
     transform="translate(0,39.767)" /><g
     id="g41"
     transform="translate(0,39.767)" /><g
     id="g43"
     transform="translate(0,39.767)" /><g
     id="g45"
     transform="translate(0,39.767)" /><g
     id="g47"
     transform="translate(0,39.767)" /><g
     id="g49"
     transform="translate(0,39.767)" /><g
     id="g51"
     transform="translate(0,39.767)" /><g
     id="g4152"><path
       id="path9"
       d="m 454.89087,132.12088 c 0.0117,0 0.22108,0.13599 0.22108,0.14772 V 382.70045 H 44.887065 V 132.2686 c 0,-0.0117 0.145761,-0.14772 0.1575,-0.14772 H 454.89087 Z"
       style="fill:#b3b3b3;fill-opacity:1"
       inkscape:connector-curvature="0" /><path
       id="path7"
       d="m 454.89087,132.12088 c 0.0117,0 0.22108,0.13599 0.22108,0.14772 V 382.70045 H 44.887065 V 132.2686 c 0,-0.0117 0.145761,-0.14772 0.1575,-0.14772 H 454.89087 Z M 475,257.40969 V 132.23338 c 0,-10.61119 -9.46173,-19.99956 -20.07391,-19.99956 v 0 H 45.009348 C 34.398152,112.23382 25,121.62219 25,132.23338 v 125.17631 0.003 125.17728 c 0,10.61218 9.398152,19.99957 20.009348,19.99957 H 454.92609 v 0 C 465.53827,402.58954 475,393.20117 475,382.58997 V 257.41269 Z"
       style="fill:#394050"
       inkscape:connector-curvature="0" /><g
       id="flowRoot4516"
       style="font-style:normal;font-weight:normal;font-size:40px;line-height:1.25;font-family:sans-serif;letter-spacing:0px;word-spacing:0px;fill:#ffffff;fill-opacity:1;stroke:none"
       transform="matrix(1,0,0,0.83688314,11.415632,58.533148)"
       aria-label="NM"><path
         id="path4524"
         style="font-style:normal;font-variant:normal;font-weight:bold;font-stretch:normal;font-size:192px;font-family:sans-serif;-inkscape-font-specification:'sans-serif Bold';fill:#ffffff"
         d="m 78.507812,172.2168 h 40.312498 l 50.90625,96 v -96 h 34.21875 v 139.96875 h -40.3125 l -50.90625,-96 v 96 H 78.507812 Z" /><path
         id="path4526"
         style="font-style:normal;font-variant:normal;font-weight:bold;font-stretch:normal;font-size:192px;font-family:sans-serif;-inkscape-font-specification:'sans-serif Bold';fill:#ffffff"
         d="m 239.38281,172.2168 h 45.9375 l 31.875,74.90625 32.0625,-74.90625 h 45.84375 v 139.96875 h -34.125 v -102.375 l -32.25,75.46875 h -22.875 l -32.25,-75.46875 v 102.375 h -34.21875 z" /></g></g></svg>