<?xml version="1.0" encoding="UTF-8" standalone="no"?>
<svg
   xmlns:dc="http://purl.org/dc/elements/1.1/"
   xmlns:cc="http://creativecommons.org/ns#"
   xmlns:rdf="http://www.w3.org/1999/02/22-rdf-syntax-ns#"
   xmlns:svg="http://www.w3.org/2000/svg"
   xmlns="http://www.w3.org/2000/svg"
   xmlns:sodipodi="http://sodipodi.sourceforge.net/DTD/sodipodi-0.dtd"
   xmlns:inkscape="http://www.inkscape.org/namespaces/inkscape"
   viewBox="0 0 500 500"
   id="svg2"
   version="1.1"
   inkscape:version="0.91 r13725"
   width="100%"
   height="100%"
   sodipodi:docname="openbravo.svg">
  <metadata
     id="metadata61">
    <rdf:RDF>
      <cc:Work
         rdf:about="">
        <dc:format>image/svg+xml</dc:format>
        <dc:type
           rdf:resource="http://purl.org/dc/dcmitype/StillImage" />
      </cc:Work>
    </rdf:RDF>
  </metadata>
  <sodipodi:namedview
     pagecolor="#ffffff"
     bordercolor="#666666"
     borderopacity="1"
     objecttolerance="10"
     gridtolerance="10"
     guidetolerance="10"
     inkscape:pageopacity="0"
     inkscape:pageshadow="2"
     inkscape:window-width="1366"
     inkscape:window-height="715"
     id="namedview59"
     showgrid="false"
     inkscape:zoom="0.61458333"
     inkscape:cx="215.95458"
     inkscape:cy="358.02989"
     inkscape:window-x="0"
     inkscape:window-y="24"
     inkscape:window-maximized="1"
     inkscape:current-layer="svg2" />
  <defs
     id="defs4">
    <linearGradient
       id="linearGradient3764"
       x1="1"
       x2="47"
       gradientUnits="userSpaceOnUse"
       gradientTransform="matrix(0,-1,1,0,-1.5e-6,47.999998)">
      <stop
         stop-color="#b80000"
         stop-opacity="1"
         id="stop7" />
      <stop
         offset="1"
         stop-color="#cb0000"
         stop-opacity="1"
         id="stop9" />
    </linearGradient>
    <clipPath
       id="clipPath-292987263">
      <g
         transform="translate(0,-1004.3622)"
         id="g12">
        <path
           d="m -24,13 c 0,1.105 -0.672,2 -1.5,2 -0.828,0 -1.5,-0.895 -1.5,-2 0,-1.105 0.672,-2 1.5,-2 0.828,0 1.5,0.895 1.5,2 z"
           transform="matrix(15.333333,0,0,11.5,414.99999,878.8622)"
           id="path14"
           inkscape:connector-curvature="0"
           style="fill:#1890d0" />
      </g>
    </clipPath>
    <clipPath
       id="clipPath-303915126">
      <g
         transform="translate(0,-1004.3622)"
         id="g17">
        <path
           d="m -24,13 c 0,1.105 -0.672,2 -1.5,2 -0.828,0 -1.5,-0.895 -1.5,-2 0,-1.105 0.672,-2 1.5,-2 0.828,0 1.5,0.895 1.5,2 z"
           transform="matrix(15.333333,0,0,11.5,414.99999,878.8622)"
           id="path19"
           inkscape:connector-curvature="0"
           style="fill:#1890d0" />
      </g>
    </clipPath>
    <clipPath
       clipPathUnits="userSpaceOnUse"
       id="clipPath4174">
      <path
         d="M -217.47687,276.08475 A 130,130 0 0 1 -347.32428,406.08466 130,130 0 0 1 -477.47651,276.38992 130,130 0 0 1 -347.93462,146.08555 130,130 0 0 1 -217.4783,275.47441"
         sodipodi:open="true"
         sodipodi:end="6.2784904"
         sodipodi:start="0"
         sodipodi:ry="130"
         sodipodi:rx="130"
         sodipodi:cy="276.08475"
         sodipodi:cx="-347.47687"
         sodipodi:type="arc"
         id="path4176"
         style="fill:#45d03f;fill-opacity:1;stroke:none;stroke-width:50;stroke-miterlimit:4;stroke-dasharray:none;stroke-opacity:1" />
    </clipPath>
  </defs>
  <g
     id="g33"
     transform="translate(0,452)" />
  <g
     id="g3356">
    <path
       d="M 482.63075,255.37491 A 233.54919,233.54919 0 0 1 249.35568,488.92394 233.54919,233.54919 0 0 1 15.533007,255.92315 233.54919,233.54919 0 0 1 248.25919,21.827162 233.54919,233.54919 0 0 1 482.62818,254.27842"
       sodipodi:open="true"
       sodipodi:end="6.2784904"
       sodipodi:start="0"
       sodipodi:ry="233.54919"
       sodipodi:rx="233.54919"
       sodipodi:cy="255.37491"
       sodipodi:cx="249.08156"
       sodipodi:type="arc"
       id="path4170"
       style="fill:#45d03f;fill-opacity:1;stroke:none;stroke-width:50;stroke-miterlimit:4;stroke-dasharray:none;stroke-opacity:1" />
    <path
       id="path3353"
       d="M 173.14062 34.816406 A 233.54919 233.54919 0 0 0 113.85547 65.3125 C 113.17925 128.90044 111.91413 263.05016 113.19727 272.15234 C 114.8772 284.06934 126.18466 390.46005 252.7207 389.45312 C 379.25674 388.4462 382.94141 255.61523 382.94141 255.61523 C 382.94141 255.61523 386.05308 196.58114 337.49219 155.92969 C 288.93131 115.27824 232.05078 124.36133 232.05078 124.36133 L 232.05078 177.07031 C 232.05078 177.07031 269.7475 170.3938 295.45703 190.64062 C 353.28405 247.0793 315.72161 336.24307 251.16992 335.71094 C 171.55115 335.50974 173.14062 256.64844 173.14062 256.64844 L 173.14062 34.816406 z "
       style="fill:#ffffff;fill-opacity:1;stroke:none;stroke-width:50;stroke-miterlimit:4;stroke-dasharray:none;stroke-opacity:1" />
  </g>
</svg>
