<?xml version="1.0" encoding="UTF-8" standalone="no"?>
<!-- Generator: Adobe Illustrator 19.0.0, SVG Export Plug-In . SVG Version: 6.00 Build 0)  -->

<svg
   xmlns:dc="http://purl.org/dc/elements/1.1/"
   xmlns:cc="http://creativecommons.org/ns#"
   xmlns:rdf="http://www.w3.org/1999/02/22-rdf-syntax-ns#"
   xmlns:svg="http://www.w3.org/2000/svg"
   xmlns="http://www.w3.org/2000/svg"
   xmlns:sodipodi="http://sodipodi.sourceforge.net/DTD/sodipodi-0.dtd"
   xmlns:inkscape="http://www.inkscape.org/namespaces/inkscape"
   version="1.1"
   id="Layer_1"
   x="0px"
   y="0px"
   viewBox="0 0 500 500"
   xml:space="preserve"
   inkscape:version="0.91 r13725"
   width="100%"
   height="100%"
   sodipodi:docname="pairs.svg"><metadata
     id="metadata57"><rdf:RDF><cc:Work
         rdf:about=""><dc:format>image/svg+xml</dc:format><dc:type
           rdf:resource="http://purl.org/dc/dcmitype/StillImage" /></cc:Work></rdf:RDF></metadata><defs
     id="defs55" /><sodipodi:namedview
     pagecolor="#ffffff"
     bordercolor="#666666"
     borderopacity="1"
     objecttolerance="10"
     gridtolerance="10"
     guidetolerance="10"
     inkscape:pageopacity="0"
     inkscape:pageshadow="2"
     inkscape:window-width="1366"
     inkscape:window-height="715"
     id="namedview53"
     showgrid="false"
     inkscape:zoom="0.37165185"
     inkscape:cx="-418.85735"
     inkscape:cy="69.180769"
     inkscape:window-x="0"
     inkscape:window-y="24"
     inkscape:window-maximized="1"
     inkscape:current-layer="Layer_1" /><g
     id="g23"
     transform="translate(0,39.767)" /><g
     id="g25"
     transform="translate(0,39.767)" /><g
     id="g27"
     transform="translate(0,39.767)" /><g
     id="g29"
     transform="translate(0,39.767)" /><g
     id="g31"
     transform="translate(0,39.767)" /><g
     id="g33"
     transform="translate(0,39.767)" /><g
     id="g35"
     transform="translate(0,39.767)" /><g
     id="g37"
     transform="translate(0,39.767)" /><g
     id="g39"
     transform="translate(0,39.767)" /><g
     id="g41"
     transform="translate(0,39.767)" /><g
     id="g43"
     transform="translate(0,39.767)" /><g
     id="g45"
     transform="translate(0,39.767)" /><g
     id="g47"
     transform="translate(0,39.767)" /><g
     id="g49"
     transform="translate(0,39.767)" /><g
     id="g51"
     transform="translate(0,39.767)" /><g
     id="g4313"
     transform="matrix(6.7549224,0,0,6.7549224,3752.236,-1803.565)"><path
       sodipodi:nodetypes="czzszcc"
       inkscape:connector-curvature="0"
       id="path4222"
       d="m -523.28154,324.7688 c 0,0 -0.47313,2.00874 0,3.95195 0.47313,1.94321 2.91532,5.47864 3.6997,7.14715 0.78438,1.66851 1.0751,2.74557 1.17718,2.77477 0,0 3.39446,-6.46533 4.03603,-8.82883 0.64157,-2.3635 0.50451,-4.96096 0.50451,-4.96096 z"
       style="fill:#ffcc00;fill-opacity:1;fill-rule:evenodd;stroke:none;stroke-width:1px;stroke-linecap:butt;stroke-linejoin:miter;stroke-opacity:1" /><rect
       ry="2.0809643"
       y="319.13412"
       x="-530.84009"
       height="7.2536826"
       width="25.566259"
       id="rect4175-3-6"
       style="fill:#59637c;fill-opacity:1;stroke:none;stroke-width:50;stroke-miterlimit:4;stroke-dasharray:none;stroke-opacity:1" /><rect
       ry="2.0809643"
       y="315.09106"
       x="-538.09375"
       height="7.2536826"
       width="40.430363"
       id="rect4175-3"
       style="fill:#59637c;fill-opacity:1;stroke:none;stroke-width:50;stroke-miterlimit:4;stroke-dasharray:none;stroke-opacity:1" /><path
       inkscape:connector-curvature="0"
       id="path4224"
       d="m -526.9969,308.83487 -0.23124,-1.7027 -1.8078,1.51351 -2.77478,-0.0631 4.0991,-4.87688 2.33333,-0.75676 0.27328,-2.56456 1.80781,-0.2943 0.79879,2.52253 7.3994,-0.96697 0,1.89189 -5.84384,1.80781 0.0841,3.61561 z"
       style="fill:#45d03f;fill-opacity:1;fill-rule:evenodd;stroke:none;stroke-width:1px;stroke-linecap:butt;stroke-linejoin:miter;stroke-opacity:1" /><path
       sodipodi:nodetypes="czzcczzcc"
       inkscape:connector-curvature="0"
       id="path4247"
       d="m -516.75219,309.10971 c -1.05535,-1.46279 0.37429,-7.53815 0.67267,-10.34234 0.29838,-2.80419 0.70604,-3.05101 0.58859,-6.47447 -0.11745,-3.42346 -3.20894,-9.48968 -2.22823,-13.87388 1.442,-7.46555 12.89981,-5.54229 14,-0.71471 1.85988,3.83038 -2.4743,13.58126 -2.27027,17.61561 0.20403,4.03435 1.16775,3.83001 1.47147,6.30631 0.30372,2.4763 0.57247,7.07582 -0.46247,8.40841 -2.81879,1.46299 -9.95828,1.3532 -11.77176,-0.92493 z"
       style="fill:#b648b8;fill-opacity:1;fill-rule:evenodd;stroke:none;stroke-width:1px;stroke-linecap:butt;stroke-linejoin:miter;stroke-opacity:1" /><rect
       ry="2.0809643"
       y="307.83737"
       x="-533.27777"
       height="7.2536826"
       width="30.679512"
       id="rect4175-3-6-7"
       style="fill:#394050;fill-opacity:1;stroke:none;stroke-width:50;stroke-miterlimit:4;stroke-dasharray:none;stroke-opacity:1" /><rect
       ry="2.0809643"
       y="311.10751"
       x="-548.677"
       height="7.2536826"
       width="60.883369"
       id="rect4175"
       style="fill:#394050;fill-opacity:1;stroke:none;stroke-width:50;stroke-miterlimit:4;stroke-dasharray:none;stroke-opacity:1" /><path
       sodipodi:nodetypes="zzzzzzzzzz"
       inkscape:connector-curvature="0"
       id="path4226"
       d="m -524.47438,301.64568 c 2.32216,0.19219 3.90704,-1.21079 5.12913,-2.77477 1.22209,-1.56398 1.4533,-3.81711 1.51351,-5.88589 0.0602,-2.06878 -0.80539,-3.40029 -1.21922,-6.22222 -0.41383,-2.82193 0.71772,-7.94202 -1.05105,-10.72072 -1.76877,-2.7787 -4.92505,-5.06303 -7.73573,-4.58258 -2.81068,0.48045 -4.29041,2.94961 -5.21322,6.22222 -0.92281,3.27261 1.49463,8.98175 1.80781,12.15015 0.31318,3.1684 -0.81465,4.59752 0.33634,6.81081 1.15099,2.21329 4.11027,4.81081 6.43243,5.003 z"
       style="fill:#45d03f;fill-opacity:1;fill-rule:evenodd;stroke:none;stroke-width:1px;stroke-linecap:butt;stroke-linejoin:miter;stroke-opacity:1" /><path
       sodipodi:nodetypes="czczc"
       inkscape:connector-curvature="0"
       id="path4228"
       d="m -531.13859,286.82624 c 0,0 0.96365,2.44295 2.58635,3.38901 1.62271,0.94606 3.00255,0.11892 3.00255,0.11892 0,0 0.2086,-1.8157 -1.27831,-2.735 -1.48691,-0.91931 -4.31059,-0.77293 -4.31059,-0.77293 z"
       style="fill:#394050;fill-opacity:1;fill-rule:evenodd;stroke:none;stroke-width:1px;stroke-linecap:butt;stroke-linejoin:miter;stroke-opacity:1" /><path
       sodipodi:nodetypes="czczc"
       inkscape:connector-curvature="0"
       id="path4228-5"
       d="m -519.66103,285.37953 c 0,0 -0.26301,2.61294 -1.56729,3.96462 -1.30429,1.35168 -2.85706,0.93094 -2.85706,0.93094 0,0 -0.69449,-1.69055 0.48639,-2.97955 1.18088,-1.28901 3.93796,-1.91601 3.93796,-1.91601 z"
       style="fill:#394050;fill-opacity:1;fill-rule:evenodd;stroke:none;stroke-width:1px;stroke-linecap:butt;stroke-linejoin:miter;stroke-opacity:1" /><path
       sodipodi:nodetypes="czczc"
       inkscape:connector-curvature="0"
       id="path4245"
       d="m -529.28819,294.30934 c 0,0 3.24452,0.53944 4.85586,0.35736 1.61134,-0.18208 4.64564,-1.42943 4.64564,-1.42943 0,0 -3.2224,0.83319 -4.81381,1.00901 -1.59141,0.17582 -4.68769,0.0631 -4.68769,0.0631 z"
       style="fill:#394050;fill-opacity:1;fill-rule:evenodd;stroke:none;stroke-width:1px;stroke-linecap:butt;stroke-linejoin:miter;stroke-opacity:1" /><path
       sodipodi:nodetypes="czzzzzzzcc"
       inkscape:connector-curvature="0"
       id="path4249"
       d="m -513.40659,274.00985 c 0,0 -0.12599,-1.54255 -0.53511,-2.1553 -0.40912,-0.61275 -1.5071,-1.46434 -1.76882,-1.30804 -0.26172,0.1563 0.63069,0.78861 0.0892,1.21886 -0.54149,0.43025 -1.30799,8.2e-4 -1.531,-0.43106 -0.22301,-0.43188 0.0972,-1.00284 0.44592,-1.24858 0.3487,-0.24574 0.67043,-0.21316 1.23372,0 0.56329,0.21316 1.34573,0.9266 1.78369,1.57559 0.43796,0.64899 0.77294,2.18502 0.77294,2.18502 z"
       style="fill:#b648b8;fill-opacity:1;fill-rule:evenodd;stroke:none;stroke-width:1px;stroke-linecap:butt;stroke-linejoin:miter;stroke-opacity:1" /><path
       sodipodi:nodetypes="czzzzzzzcc"
       inkscape:connector-curvature="0"
       id="path4249-3"
       d="m -508.72418,274.02168 c 0,0 0.12599,-1.54255 0.53511,-2.1553 0.40912,-0.61275 1.5071,-1.46434 1.76882,-1.30804 0.26172,0.1563 -0.63069,0.78861 -0.0892,1.21886 0.54149,0.43025 1.30799,8.2e-4 1.531,-0.43106 0.22301,-0.43188 -0.0972,-1.00284 -0.44592,-1.24858 -0.3487,-0.24574 -0.67043,-0.21316 -1.23372,0 -0.56329,0.21316 -1.34573,0.9266 -1.78369,1.57559 -0.43796,0.64899 -0.77294,2.18502 -0.77294,2.18502 z"
       style="fill:#b648b8;fill-opacity:1;fill-rule:evenodd;stroke:none;stroke-width:1px;stroke-linecap:butt;stroke-linejoin:miter;stroke-opacity:1" /><path
       d="m -505.94351,285.43558 a 4.7087083,5.843843 0 0 1 -4.70318,5.84384 4.7087083,5.843843 0 0 1 -4.71423,-5.83012 4.7087083,5.843843 0 0 1 4.69212,-5.85753 4.7087083,5.843843 0 0 1 4.72523,5.81637"
       sodipodi:open="true"
       sodipodi:end="6.2784904"
       sodipodi:start="0"
       sodipodi:ry="5.843843"
       sodipodi:rx="4.7087083"
       sodipodi:cy="285.43558"
       sodipodi:cx="-510.65222"
       sodipodi:type="arc"
       id="path4266"
       style="fill:#ffffff;fill-opacity:1;stroke:none;stroke-width:50;stroke-miterlimit:4;stroke-dasharray:none;stroke-opacity:1" /><path
       d="m -507.33772,285.24255 a 3.302871,4.0990987 0 0 1 -3.299,4.0991 3.302871,4.0990987 0 0 1 -3.30674,-4.08947 3.302871,4.0990987 0 0 1 3.29124,-4.1087 3.302871,4.0990987 0 0 1 3.31446,4.07983"
       sodipodi:open="true"
       sodipodi:end="6.2784904"
       sodipodi:start="0"
       sodipodi:ry="4.0990987"
       sodipodi:rx="3.302871"
       sodipodi:cy="285.24255"
       sodipodi:cx="-510.64059"
       sodipodi:type="arc"
       id="path4266-5"
       style="fill:#ffcc00;fill-opacity:1;stroke:none;stroke-width:50;stroke-miterlimit:4;stroke-dasharray:none;stroke-opacity:1" /><path
       d="m -509.17218,285.13821 a 1.5,1.5 0 0 1 -1.49824,1.5 1.5,1.5 0 0 1 -1.50176,-1.49647 1.5,1.5 0 0 1 1.49472,-1.50352 1.5,1.5 0 0 1 1.50526,1.49295"
       sodipodi:open="true"
       sodipodi:end="6.2784904"
       sodipodi:start="0"
       sodipodi:ry="1.5"
       sodipodi:rx="1.5"
       sodipodi:cy="285.13821"
       sodipodi:cx="-510.67218"
       sodipodi:type="arc"
       id="path4266-5-6"
       style="fill:#394050;fill-opacity:1;stroke:none;stroke-width:50;stroke-miterlimit:4;stroke-dasharray:none;stroke-opacity:1" /><path
       sodipodi:nodetypes="czczcc"
       inkscape:connector-curvature="0"
       id="path4245-2"
       d="m -514.07014,294.93317 c 0,0 1.92112,0.80217 3.37454,0.78515 1.45342,-0.017 3.07611,-0.50945 3.07611,-0.50945 0,0 -1.99333,0.0592 -3.19501,0.0725 -1.20168,0.0134 -3.25565,-0.34819 -3.25565,-0.34819 z"
       style="fill:#394050;fill-opacity:1;fill-rule:evenodd;stroke:none;stroke-width:1px;stroke-linecap:butt;stroke-linejoin:miter;stroke-opacity:1" /></g></svg>