<?xml version="1.0" encoding="UTF-8" standalone="no"?>
<!-- Created with Inkscape (http://www.inkscape.org/) -->

<svg
   xmlns:dc="http://purl.org/dc/elements/1.1/"
   xmlns:cc="http://creativecommons.org/ns#"
   xmlns:rdf="http://www.w3.org/1999/02/22-rdf-syntax-ns#"
   xmlns:svg="http://www.w3.org/2000/svg"
   xmlns="http://www.w3.org/2000/svg"
   xmlns:sodipodi="http://sodipodi.sourceforge.net/DTD/sodipodi-0.dtd"
   xmlns:inkscape="http://www.inkscape.org/namespaces/inkscape"
   id="svg2"
   version="1.1"
   inkscape:version="0.91 r13725"
   width="500"
   height="500"
   sodipodi:docname="palimpsest.svg">
  <metadata
     id="metadata8">
    <rdf:RDF>
      <cc:Work
         rdf:about="">
        <dc:format>image/svg+xml</dc:format>
        <dc:type
           rdf:resource="http://purl.org/dc/dcmitype/StillImage" />
        <dc:title />
      </cc:Work>
    </rdf:RDF>
  </metadata>
  <defs
     id="defs6" />
  <sodipodi:namedview
     pagecolor="#ffffff"
     bordercolor="#666666"
     borderopacity="1"
     objecttolerance="10"
     gridtolerance="10"
     guidetolerance="10"
     inkscape:pageopacity="0"
     inkscape:pageshadow="2"
     inkscape:window-width="1366"
     inkscape:window-height="715"
     id="namedview4"
     showgrid="false"
     inkscape:zoom="0.3860803"
     inkscape:cx="663.17174"
     inkscape:cy="-9.3733844"
     inkscape:window-x="0"
     inkscape:window-y="24"
     inkscape:window-maximized="1"
     inkscape:current-layer="svg2" />
  <g
     id="g4148">
    <g
       transform="matrix(0.46702559,0,0,0.4763699,5.63116,-2.8228282)"
       id="Calque.__202">
      <g
         id="shape">
        <path
           style="fill:#000000;fill-opacity:0.09803922"
           inkscape:connector-curvature="0"
           d="M 919.15,109.8 Q 918.7,89.9 904.5,75.7 C 894.75,65.95 882.95,61.05 869.15,61.05 l -674.2,0 c -13.8,0 -25.6,4.9 -35.35,14.65 -9.45,9.45 -14.35,20.85 -14.65,34.1 l 0,843.25 c 0,13.8 4.9,25.6 14.65,35.35 9.75,9.75 21.55,14.65 35.35,14.65 l 674.2,0 c 13.8,0 25.6,-4.9 35.35,-14.65 9.75,-9.75 14.65,-21.55 14.65,-35.35 l 0,-843.25 z"
           id="path" />
      </g>
    </g>
    <path
       style="fill:#ebebeb;fill-opacity:1"
       inkscape:connector-curvature="0"
       d="m 431.82676,31.978822 c -4.64461,-4.64461 -10.26577,-6.97882 -16.83968,-6.97882 l -321.168584,0 c -6.573906,0 -12.195066,2.33421 -16.839676,6.97882 -4.5017,4.50169 -6.83591,9.93231 -6.97882,16.24421 l 0,-0.0119 0,345.165718 q 0.21818,9.45976 6.97882,16.2204 c 4.64461,4.6446 10.26577,6.97882 16.839676,6.97882 l 321.168584,0 c 6.57391,0 12.19507,-2.33422 16.83968,-6.97882 4.50169,-4.5017 6.8359,-9.9085 6.97882,-16.2204 l 0,-345.165718 0,0.0119 c -0.14292,-6.3119 -2.47713,-11.74252 -6.97882,-16.24421 z"
       id="path1" />
    <path
       style="fill:#5d6a7b;fill-opacity:0.98823529"
       inkscape:connector-curvature="0"
       d="M 76.97882,409.59724 Q 70.21818,402.8366 70,393.37684 l 0,56.54511 c 0,6.5739 2.33421,12.19507 6.97882,16.83968 4.64461,4.6446 10.26577,6.9788 16.839676,6.9788 l 321.168584,0 c 6.57391,0 12.19507,-2.3342 16.83968,-6.9788 4.6446,-4.64461 6.97882,-10.26578 6.97882,-16.83968 l 0,-56.54511 c -0.14292,6.3119 -2.47713,11.7187 -6.97882,16.2204 -4.64461,4.6446 -10.26577,6.97882 -16.83968,6.97882 l -321.168584,0 c -6.573906,0 -12.195066,-2.33422 -16.839676,-6.97882 z"
       id="path2" />
    <g
       style="fill:#394050"
       id="Calque.__204"
       transform="matrix(0.4763699,0,0,0.4763699,4.2767,-2.8228282)">
      <g
         style="fill:#394050;overflow:visible"
         overflow="visible"
         id="Symbole.__2026_1">
        <g
           style="fill:#394050"
           id="Calque.__208">
          <g
             style="fill:#394050"
             id="shape17">
            <path
               style="fill:#394050;fill-opacity:1"
               d="m 518,918 q 0,-8.3 -5.85,-14.15 C 508.25,899.95 503.55,898 498,898 l -302,0 c -5.55,0 -10.25,1.95 -14.15,5.85 -3.9,3.9 -5.85,8.6 -5.85,14.15 l 0,8.2 c 0,5.55 1.95,10.25 5.85,14.15 3.9,3.9 8.6,5.85 14.15,5.85 l 302,0 c 5.55,0 10.25,-1.95 14.15,-5.85 3.9,-3.9 5.85,-8.6 5.85,-14.15 l 0,-8.2 z"
               id="path11"
               inkscape:connector-curvature="0" />
          </g>
        </g>
      </g>
    </g>
    <path
       style="fill:#ffffff;fill-opacity:0.09803922"
       inkscape:connector-curvature="0"
       d="m 339.35528,303.00665 q 37.75232,-37.75232 37.75232,-91.15338 c 0,-35.60865 -12.57617,-65.97723 -37.75232,-91.15338 -25.17614,-25.176148 -55.54472,-37.752318 -91.15338,-37.752318 -35.60865,0 -65.97723,12.57617 -91.15337,37.752318 -25.17615,25.17615 -37.75232,55.54473 -37.75232,91.15338 0,35.60865 12.57617,65.97723 37.75232,91.15338 25.17614,25.17615 55.54472,37.75231 91.15337,37.75231 35.60866,0 65.97724,-12.57616 91.15338,-37.75231 z"
       id="path6" />
    <path
       style="fill:#ffcc00;fill-opacity:1"
       inkscape:connector-curvature="0"
       d="m 399.21116,445.20306 c 2.9535,0 5.47826,-1.04801 7.55047,-3.14404 2.09602,-2.07221 3.14404,-4.59697 3.14404,-7.55046 0,-2.95349 -1.04802,-5.47826 -3.14404,-7.57428 -2.07221,-2.07221 -4.59697,-3.12023 -7.55047,-3.12023 -2.95349,0 -5.47825,1.04802 -7.57428,3.12023 -2.07221,2.09602 -3.12022,4.62079 -3.12022,7.57428 0,2.95349 1.04801,5.47825 3.12022,7.55046 2.09603,2.09603 4.62079,3.14404 7.57428,3.14404 z m -23.34212,-10.6945 c 0,-2.95349 -1.04802,-5.47826 -3.14404,-7.57428 -2.07221,-2.07221 -4.59697,-3.12023 -7.55047,-3.12023 -2.95349,0 -5.47825,1.04802 -7.57428,3.12023 -2.07221,2.09602 -3.12022,4.62079 -3.12022,7.57428 0,2.95349 1.04801,5.47825 3.12022,7.55046 2.09603,2.09603 4.62079,3.14404 7.57428,3.14404 2.9535,0 5.47826,-1.04801 7.55047,-3.14404 2.09602,-2.07221 3.14404,-4.59697 3.14404,-7.55046 z"
       id="path7" />
    <path
       style="fill:#5d6a7b;fill-opacity:0.98823529"
       d="m 235.79257,321.48815 c -1.95634,-0.87323 -4.03722,-3.10782 -4.96575,-5.33257 -0.47855,-1.1466 -0.95613,-5.55406 -1.36502,-12.59745 -0.34591,-5.95859 -0.80141,-11.30896 -1.01222,-11.88971 -0.27961,-0.77032 -1.6466,-1.49706 -5.05421,-2.68699 -2.56901,-0.89709 -6.43773,-2.51941 -8.59715,-3.60515 -2.15942,-1.08573 -4.39668,-1.97406 -4.97169,-1.97406 -0.64492,0 -4.1725,2.86858 -9.20733,7.48727 -4.48901,4.118 -8.88754,7.85944 -9.77449,8.31431 -1.82572,0.93632 -5.9334,1.0887 -8.05459,0.29881 -1.68661,-0.62805 -19.52861,-18.21041 -20.67258,-20.37173 -1.13463,-2.14369 -1.01329,-6.15367 0.25973,-8.583 0.57949,-1.10586 4.35333,-5.58758 8.3863,-9.95939 4.34135,-4.70606 7.33269,-8.35938 7.33269,-8.95536 0,-0.55366 -0.88833,-2.77345 -1.97406,-4.93287 -1.08574,-2.15942 -2.70455,-6.01811 -3.59736,-8.57485 -0.89281,-2.55675 -1.98858,-4.83797 -2.43504,-5.06939 -0.44647,-0.23141 -5.68697,-0.68951 -11.64556,-1.018 -6.92983,-0.38202 -11.59397,-0.86941 -12.94333,-1.35254 -2.57147,-0.92072 -5.53405,-4.07372 -5.95261,-6.33523 -0.16977,-0.91725 -0.23927,-7.71283 -0.15445,-15.10129 l 0.15422,-13.43355 1.54406,-1.93533 c 2.72868,-3.42013 4.01132,-3.76368 17.04437,-4.56532 7.3767,-0.45373 11.861,-0.93417 12.23348,-1.3107 0.32343,-0.32692 1.42883,-2.86194 2.45646,-5.63338 1.02763,-2.77144 2.63373,-6.56391 3.56912,-8.42771 0.93539,-1.8638 1.7007,-3.79837 1.7007,-4.29905 0,-0.50068 -3.08545,-4.29473 -6.85655,-8.43122 -3.7711,-4.13649 -7.37826,-8.2109 -8.01592,-9.05425 -1.79344,-2.37194 -2.39991,-5.30915 -1.69037,-8.18663 0.53576,-2.17269 1.51711,-3.35051 9.71317,-11.6577 5.01447,-5.08247 9.9585,-9.67424 10.98675,-10.20394 2.38613,-1.22922 6.18023,-1.24623 8.54943,-0.0383 0.99761,0.50861 5.37434,4.19336 9.72605,8.18834 4.35171,3.99497 8.20706,7.43102 8.56745,7.63568 0.37979,0.21567 2.72391,-0.60785 5.57627,-1.95903 2.70657,-1.2821 6.75628,-2.94964 8.99936,-3.70563 3.04138,-1.02503 4.22147,-1.68001 4.64138,-2.57605 0.30969,-0.66085 0.84081,-6.07676 1.18026,-12.03535 0.65284,-11.45942 1.04511,-13.27086 3.40808,-15.73786 2.62847,-2.74419 4.14014,-2.96931 18.83182,-2.80452 l 13.38157,0.15011 2.09344,1.38628 c 3.60175,2.3851 4.03774,3.86798 4.88598,16.6183 0.4106,6.17182 0.85865,11.70219 0.99568,12.28971 0.19286,0.82684 1.29582,1.4337 4.8815,2.68581 2.5478,0.88968 6.62792,2.61984 9.06695,3.84479 2.43903,1.22496 4.63003,2.22719 4.86888,2.22719 0.23885,0 4.15489,-3.41506 8.70231,-7.58902 4.54741,-4.17396 9.10931,-8.02878 10.13756,-8.56626 2.43065,-1.27054 6.04853,-1.25897 8.70674,0.0279 1.26214,0.61099 5.54989,4.51329 10.93501,9.95199 9.24385,9.33582 9.97234,10.40393 9.97952,14.63192 0.005,2.99037 -1.32618,4.95205 -9.27323,13.66453 -4.32107,4.73725 -7.85649,8.81406 -7.85649,9.05956 0,0.24549 1.12784,2.79728 2.5063,5.67064 1.37847,2.87335 3.02244,6.89741 3.65326,8.94237 0.78369,2.54046 1.46616,3.85368 2.15476,4.14616 0.55429,0.23544 6.1256,0.7477 12.38069,1.13836 12.41333,0.77527 14.41285,1.28602 16.49411,4.21329 1.96751,2.76727 2.19634,4.84123 2.02595,18.36165 l -0.16298,12.93333 -1.51867,2.15943 c -2.71179,3.85597 -3.39667,4.05353 -17.16802,4.95217 -6.72898,0.4391 -12.35254,0.91639 -12.4968,1.06065 -0.14427,0.14427 -0.97964,2.29496 -1.85638,4.7793 -0.87674,2.48436 -2.60081,6.52176 -3.83125,8.97201 -1.23046,2.45026 -2.16785,4.75726 -2.0831,5.12668 0.0847,0.36942 3.44201,4.25624 7.4606,8.63738 4.01859,4.38115 7.81672,8.97188 8.44029,10.20163 1.32454,2.61215 1.44739,5.37807 0.355,7.99253 -0.96402,2.30723 -17.32727,18.93973 -19.98694,20.31581 -2.22387,1.1506 -6.27481,1.27423 -8.60253,0.26253 -0.89181,-0.38761 -5.36292,-4.128 -9.9358,-8.31199 -4.57287,-4.184 -8.67801,-7.60831 -9.12253,-7.60958 -0.44452,-0.001 -3.02043,1.03146 -5.72425,2.29496 -2.70382,1.26351 -6.71026,2.88841 -8.9032,3.61091 -3.03101,0.9986 -4.04583,1.56547 -4.23179,2.36378 -0.13453,0.57758 -0.58055,6.09982 -0.99115,12.27164 -0.90309,13.57469 -1.42193,15.04626 -6.14893,17.43992 -1.37068,0.69409 -3.63891,0.81366 -15.11694,0.79689 -10.15849,-0.0148 -13.87883,-0.1869 -15.01599,-0.69448 z m 19.90397,-60.27271 c 12.182,-1.27672 22.35997,-6.13519 31.02511,-14.80986 6.6043,-6.61156 10.86572,-14.03012 13.43168,-23.38271 1.60862,-5.86322 1.59914,-18.81011 -0.0181,-24.7449 -4.90794,-18.01037 -17.80068,-31.27078 -35.62044,-36.63626 -4.15218,-1.2502 -5.27963,-1.36875 -13.3533,-1.40401 -7.73312,-0.0338 -9.34526,0.10535 -13.10134,1.13074 -18.75437,5.11983 -33.09792,20.18926 -37.01732,38.89062 -3.52135,16.80209 1.62745,33.95184 13.89429,46.2795 6.42282,6.45467 14.75648,11.19071 23.78502,13.51708 2.57451,0.66337 6.22803,1.17466 11.43156,1.59975 0.41571,0.034 2.91001,-0.16402 5.54287,-0.43995 z m -12.49581,-21.12569 c -12.84876,-3.48467 -21.84096,-14.41969 -22.63714,-27.52804 -0.55668,-9.1652 2.39277,-16.91965 8.90123,-23.40239 11.85291,-11.80608 30.77958,-11.91673 42.48232,-0.24836 9.63902,9.61069 11.95183,23.27947 5.9691,35.27758 -5.09574,10.21927 -14.48321,16.24997 -25.99718,16.70109 -3.91981,0.15359 -5.85853,-0.0243 -8.71833,-0.79988 z m 14.37489,-12.70667 c 3.54885,-1.32779 7.78186,-5.26231 9.56217,-8.88788 1.25628,-2.55839 1.40796,-3.41005 1.40805,-7.90623 9e-5,-4.783 -0.0876,-5.20078 -1.72683,-8.22408 -3.30887,-6.10284 -8.21845,-9.19528 -15.15365,-9.54499 -5.57111,-0.28093 -8.9057,0.89913 -12.92752,4.57484 -5.09916,4.66035 -7.12809,11.13918 -5.49034,17.53193 1.41756,5.53327 4.42079,9.29038 9.47246,11.85025 4.71275,2.38813 9.56387,2.58607 14.85566,0.60616 z"
       id="path2986"
       inkscape:connector-curvature="0" />
  </g>
</svg>
