<?xml version="1.0" encoding="UTF-8" standalone="no"?>
<!-- Created with Inkscape (http://www.inkscape.org/) -->

<svg
   xmlns:dc="http://purl.org/dc/elements/1.1/"
   xmlns:cc="http://creativecommons.org/ns#"
   xmlns:rdf="http://www.w3.org/1999/02/22-rdf-syntax-ns#"
   xmlns:svg="http://www.w3.org/2000/svg"
   xmlns="http://www.w3.org/2000/svg"
   xmlns:sodipodi="http://sodipodi.sourceforge.net/DTD/sodipodi-0.dtd"
   xmlns:inkscape="http://www.inkscape.org/namespaces/inkscape"
   id="svg3057"
   version="1.1"
   inkscape:version="0.91 r13725"
   width="500"
   height="500"
   sodipodi:docname="paprefs.svg">
  <metadata
     id="metadata3063">
    <rdf:RDF>
      <cc:Work
         rdf:about="">
        <dc:format>image/svg+xml</dc:format>
        <dc:type
           rdf:resource="http://purl.org/dc/dcmitype/StillImage" />
        <dc:title />
      </cc:Work>
    </rdf:RDF>
  </metadata>
  <defs
     id="defs3061" />
  <sodipodi:namedview
     pagecolor="#ffffff"
     bordercolor="#666666"
     borderopacity="1"
     objecttolerance="10"
     gridtolerance="10"
     guidetolerance="10"
     inkscape:pageopacity="0"
     inkscape:pageshadow="2"
     inkscape:window-width="1215"
     inkscape:window-height="674"
     id="namedview3059"
     showgrid="false"
     inkscape:zoom="0.65059338"
     inkscape:cx="229.59541"
     inkscape:cy="198.73521"
     inkscape:window-x="79"
     inkscape:window-y="41"
     inkscape:window-maximized="0"
     inkscape:current-layer="svg3057" />
  <g
     id="g4134">
    <rect
       y="69.646141"
       x="25"
       height="369.70261"
       width="450"
       id="rect3752"
       style="fill:#394050;fill-opacity:1;fill-rule:evenodd;stroke:none" />
    <path
       inkscape:connector-curvature="0"
       id="path3014"
       d="m 102.43794,436.83194 c -0.81296,-5.93121 -6.107048,-19.09372 -8.526468,-21.19905 -1.81797,-1.58195 -3.13523,-1.88196 -8.26313,-1.88196 -3.35522,0 -8.98051,-0.24346 -12.500658,-0.54103 l -6.400261,-0.54102 -0.793623,-3.01381 c -0.858005,-3.25831 -2.242665,-14.16103 -2.832082,-22.29965 l -0.366929,-5.06651 13.212483,-3.22812 13.21248,-3.22812 0.97244,-8.01579 c 0.53484,-4.40867 1.23689,-12.48289 1.5601,-17.94271 0.50281,-8.49386 0.40367,-9.99226 -0.68685,-10.37945 -5.63895,-2.00213 -21.886605,-10.39803 -22.323018,-11.5353 -1.05605,-2.75202 7.238248,-26.85473 9.546088,-27.74033 0.69695,-0.26744 6.68917,0.52769 13.31604,1.76695 6.62689,1.23926 12.413288,2.02797 12.858678,1.75272 1.17526,-0.72636 6.72317,-9.11757 10.36926,-15.68353 2.73094,-4.91791 2.9981,-5.85857 2.01922,-7.10966 -0.62048,-0.79301 -4.08908,-5.0005 -7.70801,-9.34995 -8.66915,-10.41912 -8.88185,-10.93207 -6.06469,-14.62555 2.99611,-3.92812 13.76294,-15.54659 16.23444,-17.51858 2.17237,-1.73331 2.06406,-1.79161 19.18354,10.32322 l 5.21162,3.68808 3.98912,-2.82496 c 13.6903,-9.69503 16.11737,-11.75064 16.11737,-13.65068 0,-1.06574 -0.95846,-5.10928 -2.1299,-8.98566 -4.11148,-13.60522 -4.57596,-16.3946 -2.97175,-17.84639 2.30151,-2.08284 22.32059,-11.36699 24.51023,-11.36699 1.54221,0 2.68413,1.09345 4.89353,4.6858 7.09743,11.53999 10.90954,17.1452 11.92567,17.53513 2.53628,0.97326 28.7845,-6.00306 29.7977,-7.91972 0.3886,-0.73509 1.14281,-4.91227 1.67606,-9.28262 0.53325,-4.37036 1.35552,-9.93055 1.82727,-12.35598 l 0.85774,-4.40989 15.20171,0.22773 15.20169,0.22773 0.91268,8.36431 c 1.44491,13.24199 2.01177,16.12544 3.52443,17.92754 1.05671,1.2589 4.48789,2.33345 13.46923,4.2182 6.62822,1.39095 13.08478,2.52898 14.3479,2.52898 2.36542,0 4.75355,-3.17057 13.38782,-17.77417 1.56396,-2.64521 3.33704,-4.80947 3.94019,-4.80947 1.62953,0 18.45887,7.68337 22.55995,10.29965 4.52083,2.88407 4.52643,3.70838 0.1199,17.6852 l -3.43492,10.89505 3.602,3.1965 c 1.98109,1.75807 6.6184,5.21095 10.30512,7.67309 7.86428,5.25208 6.45067,5.51981 20.29406,-3.84365 4.68141,-3.16643 9.07897,-5.75715 9.77239,-5.75715 2.29961,0 19.7736,19.53289 19.7736,22.10345 0,0.86108 -8.2985,11.39108 -15.63978,19.84538 -1.05492,1.21484 -0.92802,1.92266 1.04963,5.85502 2.0965,4.16863 10.92711,18.27843 11.43477,18.27078 0.12533,-0.002 5.68558,-1.12952 12.35612,-2.50585 6.67054,-1.37633 12.59109,-2.50398 13.1568,-2.50586 0.56569,-0.002 1.74712,1.40805 2.6254,3.13318 2.08075,4.08707 7.63788,21.67173 7.63788,24.16886 0,1.65479 -1.64546,2.74446 -11.31922,7.49593 -6.22558,3.05782 -11.66717,6.2098 -12.09242,7.00439 -0.83805,1.5659 1.9733,30.04349 3.26884,33.11181 0.58374,1.3825 2.46951,2.11148 9.39106,3.63026 16.67462,3.65884 16.15009,3.4292 16.46756,7.20957 0.29459,3.50779 -1.03414,16.2891 -2.4425,23.49499 l -0.83657,4.28032 -11.46465,0.56963 c -16.68017,0.82879 -16.75742,0.85039 -18.62492,5.20707 -3.00393,7.0079 -6.73419,19.09091 -6.34876,20.56482 0.3617,1.38312 -0.7483,1.48261 -16.54257,1.48261 l -16.93028,0 4.38436,-8.86653 c 5.17358,-10.46264 8.74273,-20.8516 11.32174,-32.95503 2.54798,-11.95778 2.76478,-35.63426 0.44039,-48.0948 -6.16757,-33.06304 -24.44819,-62.59725 -51.13489,-82.6137 -8.20441,-6.15374 -27.0812,-15.95618 -37.22119,-19.32841 -14.14592,-4.70447 -22.47945,-5.90026 -40.98513,-5.88103 -19.36854,0.0201 -26.981,1.20961 -42.78157,6.68471 -41.507,14.38271 -73.93974,50.10467 -84.66564,93.25218 -7.13442,28.69984 -2.0679,68.65162 11.69258,92.20151 1.56003,2.66986 2.83642,5.02231 2.83642,5.2277 0,0.20537 -7.47671,0.3734 -16.61493,0.3734 l -16.61493,0 -0.50506,-3.68479 z"
       style="fill:#ffffff;fill-opacity:1;fill-rule:nonzero;stroke:none" />
  </g>
</svg>
