<?xml version="1.0" encoding="UTF-8" standalone="no"?>
<!-- Generator: Adobe Illustrator 19.0.0, SVG Export Plug-In . SVG Version: 6.00 Build 0)  -->

<svg
   xmlns:dc="http://purl.org/dc/elements/1.1/"
   xmlns:cc="http://creativecommons.org/ns#"
   xmlns:rdf="http://www.w3.org/1999/02/22-rdf-syntax-ns#"
   xmlns:svg="http://www.w3.org/2000/svg"
   xmlns="http://www.w3.org/2000/svg"
   xmlns:sodipodi="http://sodipodi.sourceforge.net/DTD/sodipodi-0.dtd"
   xmlns:inkscape="http://www.inkscape.org/namespaces/inkscape"
   version="1.1"
   id="Layer_1"
   x="0px"
   y="0px"
   viewBox="0 0 500 500"
   xml:space="preserve"
   inkscape:version="0.91 r13725"
   width="100%"
   height="100%"
   sodipodi:docname="phpmyadmin.svg"><metadata
     id="metadata57"><rdf:RDF><cc:Work
         rdf:about=""><dc:format>image/svg+xml</dc:format><dc:type
           rdf:resource="http://purl.org/dc/dcmitype/StillImage" /></cc:Work></rdf:RDF></metadata><defs
     id="defs55" /><sodipodi:namedview
     pagecolor="#ffffff"
     bordercolor="#666666"
     borderopacity="1"
     objecttolerance="10"
     gridtolerance="10"
     guidetolerance="10"
     inkscape:pageopacity="0"
     inkscape:pageshadow="2"
     inkscape:window-width="1366"
     inkscape:window-height="715"
     id="namedview53"
     showgrid="false"
     inkscape:zoom="0.74330372"
     inkscape:cx="300.78634"
     inkscape:cy="158.30537"
     inkscape:window-x="0"
     inkscape:window-y="24"
     inkscape:window-maximized="1"
     inkscape:current-layer="Layer_1" /><g
     id="g23"
     transform="translate(0,39.767)" /><g
     id="g25"
     transform="translate(0,39.767)" /><g
     id="g27"
     transform="translate(0,39.767)" /><g
     id="g29"
     transform="translate(0,39.767)" /><g
     id="g31"
     transform="translate(0,39.767)" /><g
     id="g33"
     transform="translate(0,39.767)" /><g
     id="g35"
     transform="translate(0,39.767)" /><g
     id="g37"
     transform="translate(0,39.767)" /><g
     id="g39"
     transform="translate(0,39.767)" /><g
     id="g41"
     transform="translate(0,39.767)" /><g
     id="g43"
     transform="translate(0,39.767)" /><g
     id="g45"
     transform="translate(0,39.767)" /><g
     id="g47"
     transform="translate(0,39.767)" /><g
     id="g49"
     transform="translate(0,39.767)" /><g
     id="g51"
     transform="translate(0,39.767)" /><g
     id="g4158"><path
       inkscape:connector-curvature="0"
       id="path3371"
       d="M 117.28786,392.04032 27.583666,394.93404 126.93353,118.10482 Z"
       style="fill:#ff6600;fill-rule:evenodd;stroke:none;stroke-width:1px;stroke-linecap:butt;stroke-linejoin:miter;stroke-opacity:1" /><path
       sodipodi:nodetypes="ccczc"
       inkscape:connector-curvature="0"
       id="path4173"
       d="M 124.03981,377.57191 254.25564,374.67819 270.6532,52.514648 c 0,0 -44.99437,142.752062 -70.41298,196.770522 -25.41866,54.01851 -76.20041,128.28674 -76.20041,128.28674 z"
       style="fill:#d45500;fill-rule:evenodd;stroke:none;stroke-width:1px;stroke-linecap:butt;stroke-linejoin:miter;stroke-opacity:1" /><path
       sodipodi:nodetypes="czczczc"
       inkscape:connector-curvature="0"
       id="path4177"
       d="m 270.41207,54.443736 c 0,0 83.02962,132.685224 113.61861,182.317874 30.589,49.63266 70.25095,115.26614 70.25095,115.26614 0,0 -50.23393,-21.53015 -75.02528,-37.51267 -24.79135,-15.98252 -72.2971,-58.65611 -72.2971,-58.65611 0,0 9.74661,-61.78466 4.0923,-96.16885 C 305.3973,125.30599 270.41207,54.443736 270.41207,54.443736 Z"
       style="fill:#d45500;fill-opacity:1;fill-rule:evenodd;stroke:none;stroke-width:1px;stroke-linecap:butt;stroke-linejoin:miter;stroke-opacity:1" /><path
       sodipodi:nodetypes="cczczc"
       inkscape:connector-curvature="0"
       id="path4175"
       d="m 379.59739,362.94049 -86.96115,11.25378 c 0,0 4.2669,-73.90447 -0.34071,-108.78663 -4.6076,-34.88216 -26.25888,-98.89697 -26.25888,-98.89697 0,0 57.6273,96.06921 76.3894,128.90706 18.7621,32.83785 37.17134,67.52276 37.17134,67.52276 z"
       style="fill:#ff6600;fill-opacity:1;fill-rule:evenodd;stroke:none;stroke-width:1px;stroke-linecap:butt;stroke-linejoin:miter;stroke-opacity:1" /><path
       sodipodi:nodetypes="ccczccc"
       inkscape:connector-curvature="0"
       id="path4179"
       d="m 28.683658,410.68387 451.515812,-52.85876 0,8.18461 c 0,0 -49.33739,-1.60938 -82.85044,21.16352 -33.51305,22.7729 -55.31828,58.88256 -55.31828,58.88256 L 19.867144,445.57343 Z"
       style="fill:#004455;fill-opacity:1;fill-rule:evenodd;stroke:none;stroke-width:1px;stroke-linecap:butt;stroke-linejoin:miter;stroke-opacity:1" /></g></svg>