<?xml version="1.0" encoding="UTF-8" standalone="no"?>
<!-- Generator: Adobe Illustrator 19.0.0, SVG Export Plug-In . SVG Version: 6.00 Build 0)  -->

<svg
   xmlns:dc="http://purl.org/dc/elements/1.1/"
   xmlns:cc="http://creativecommons.org/ns#"
   xmlns:rdf="http://www.w3.org/1999/02/22-rdf-syntax-ns#"
   xmlns:svg="http://www.w3.org/2000/svg"
   xmlns="http://www.w3.org/2000/svg"
   xmlns:sodipodi="http://sodipodi.sourceforge.net/DTD/sodipodi-0.dtd"
   xmlns:inkscape="http://www.inkscape.org/namespaces/inkscape"
   version="1.1"
   id="Layer_1"
   x="0px"
   y="0px"
   viewBox="0 0 500 500"
   xml:space="preserve"
   inkscape:version="0.91 r13725"
   width="100%"
   height="100%"
   sodipodi:docname="playitslowly.svg"><metadata
     id="metadata57"><rdf:RDF><cc:Work
         rdf:about=""><dc:format>image/svg+xml</dc:format><dc:type
           rdf:resource="http://purl.org/dc/dcmitype/StillImage" /></cc:Work></rdf:RDF></metadata><defs
     id="defs55" /><sodipodi:namedview
     pagecolor="#ffffff"
     bordercolor="#666666"
     borderopacity="1"
     objecttolerance="10"
     gridtolerance="10"
     guidetolerance="10"
     inkscape:pageopacity="0"
     inkscape:pageshadow="2"
     inkscape:window-width="1366"
     inkscape:window-height="715"
     id="namedview53"
     showgrid="false"
     inkscape:zoom="0.26279755"
     inkscape:cx="11.72028"
     inkscape:cy="462.12306"
     inkscape:window-x="0"
     inkscape:window-y="24"
     inkscape:window-maximized="1"
     inkscape:current-layer="Layer_1" /><g
     id="g23"
     transform="translate(0,39.767)" /><g
     id="g25"
     transform="translate(0,39.767)" /><g
     id="g27"
     transform="translate(0,39.767)" /><g
     id="g29"
     transform="translate(0,39.767)" /><g
     id="g31"
     transform="translate(0,39.767)" /><g
     id="g33"
     transform="translate(0,39.767)" /><g
     id="g35"
     transform="translate(0,39.767)" /><g
     id="g37"
     transform="translate(0,39.767)" /><g
     id="g39"
     transform="translate(0,39.767)" /><g
     id="g41"
     transform="translate(0,39.767)" /><g
     id="g43"
     transform="translate(0,39.767)" /><g
     id="g45"
     transform="translate(0,39.767)" /><g
     id="g47"
     transform="translate(0,39.767)" /><g
     id="g49"
     transform="translate(0,39.767)" /><g
     id="g51"
     transform="translate(0,39.767)" /><g
     id="g4168"><g
       transform="matrix(1.0147865,0,0,-1.0010061,163.73279,423.33662)"
       id="g3432"><path
         style="fill:#00bbf2;fill-opacity:1;stroke:none"
         d="m 143.26468,151.89355 c -20.3226,-10.90184 -51.252659,-7.09857 -59.499542,10.43851 -8.246891,17.53709 5.150957,36.62333 27.108482,48.90817 21.95753,12.28487 43.3515,3.28442 43.3515,3.28442 l 1.5658,156.05586 15.80738,-5.09011 -0.92264,-50.56086 1.01492,-128.3397 c 0,0 -8.10327,-23.79444 -28.4259,-34.69629 z"
         id="path3834"
         inkscape:connector-curvature="0"
         sodipodi:nodetypes="zzzcccccz" /><path
         style="fill:#00bbf2;fill-opacity:1;stroke:none"
         d="m 271.01047,167.95442 c -20.3226,-10.90185 -51.25266,-7.09857 -59.49955,10.43849 -8.24689,17.5371 5.15096,36.62334 27.10848,48.90818 21.95754,12.28487 43.35151,3.28443 43.35151,3.28443 l 1.56579,156.05585 15.8074,-5.09011 -0.92266,-50.56086 1.01493,-128.3397 c 0,0 -8.10327,-23.79444 -28.4259,-34.69628 z"
         id="path3834-3"
         inkscape:connector-curvature="0"
         sodipodi:nodetypes="zzzcccccz" /><path
         style="fill:#00bbf2;fill-opacity:1;fill-rule:evenodd;stroke:none;stroke-width:0.80000001px;stroke-linecap:butt;stroke-linejoin:miter;stroke-opacity:1"
         d="m 298.68954,392.50301 -142.72963,-22.29685 0.74838,-16.46447 142.35544,23.04524 z"
         id="path4208"
         inkscape:connector-curvature="0"
         sodipodi:nodetypes="ccccc" /><path
         style="fill:#00bbf2;fill-opacity:1;fill-rule:evenodd;stroke:none;stroke-width:0.80000001px;stroke-linecap:butt;stroke-linejoin:miter;stroke-opacity:1"
         d="M 298.10192,377.20392 155.37228,354.90708 156.12066,338.4426 298.4761,361.48785 Z"
         id="path4208-3"
         inkscape:connector-curvature="0"
         sodipodi:nodetypes="ccccc" /><path
         style="fill:#00bbf2;fill-opacity:1;fill-rule:evenodd;stroke:none;stroke-width:0.80000001px;stroke-linecap:butt;stroke-linejoin:miter;stroke-opacity:1"
         d="M 298.40155,365.21906 155.67191,342.92223 156.42029,326.45774 298.77572,349.503 Z"
         id="path4208-3-6"
         inkscape:connector-curvature="0"
         sodipodi:nodetypes="ccccc" /></g><path
       d="m 227.6342,382.29579 c 0,0 24.65737,-6.47502 24.65737,11.85774 0,15.51433 -46.54092,45.83345 -106.47689,51.12177 -59.935978,5.29039 -92.373333,1.98752 -61.346749,-23.51008 0,0 -59.935975,-36.42486 -42.660257,-111.52247 17.275719,-75.09658 112.822246,-101.54127 174.168996,-55.35409 61.34674,46.18719 26.46543,112.95088 11.65753,127.40713"
       style="fill:#c87137;fill-opacity:1;fill-rule:nonzero;stroke:none"
       id="path218"
       inkscape:connector-curvature="0" /><g
       transform="matrix(1.0373315,0,0,-1.0373315,130.88385,392.91267)"
       id="g220"><path
         inkscape:connector-curvature="0"
         id="path222"
         style="fill:none;stroke:#ffffff;stroke-width:7;stroke-linecap:round;stroke-linejoin:miter;stroke-miterlimit:10;stroke-dasharray:none;stroke-opacity:1"
         d="m 0,0 c 0,0 58.603,10.111 61.489,63.097 2.658,48.799 -42.574,58.259 -70.33,51.716 C -39.106,107.678 -55.863,72.341 -41.797,47.423 -32.52,30.989 2.412,22.415 18.487,43.56 34.563,64.705 9.244,81.182 -4.019,76.561" /></g><path
       d="m 261.40723,240.45586 c 0,0 -13.42203,-40.24432 7.72812,-51.10621 5.95324,-3.05702 10.61709,-3.71365 14.2436,-3.07777 -6.87647,7.7665 -10.74053,22.51736 -6.91485,51.94853 -4.90658,0.33091 -9.51337,1.82985 -13.8629,3.71053 -0.51763,-0.5197 -0.93049,-1.01451 -1.19397,-1.47508 m 92.37852,64.98466 c -10.70526,-32.9332 -32.49856,-52.57196 -40.21216,-57.28144 -16.42407,-10.02788 -21.12733,-6.11818 -22.77565,-8.99989 0,0 -10.60775,-31.80769 1.90143,-46.49838 1.80599,2.72714 2.44603,5.26446 2.44603,5.26446 0,0 -3.14415,3.14415 -3.14415,7.43144 0,4.28625 5.71673,7.14514 9.43245,6.85883 3.71572,-0.2863 14.00605,-8.86088 6.85987,-16.86286 -2.27694,-2.55079 -4.8184,-5.50823 -7.75716,-8.26027 19.44996,-8.65342 23.9997,9.53619 23.9997,9.53619 0,0 -3.14415,3.14415 -3.14415,7.43144 0,4.28626 5.71673,7.14514 9.43245,6.85884 3.71573,-0.2863 14.00605,-8.86089 6.85988,-16.86286 -7.14514,-8.00301 -16.86494,-20.00805 -33.44149,-17.1502 -4.29871,0.74169 -8.82043,1.61409 -12.99258,3.56323 -4.60679,-2.24893 -9.98743,-3.37133 -16.39814,-2.26657 -16.28195,2.80702 -35.02861,12.25192 -26.38349,70.58418 -0.27281,0.12345 -0.59646,0.16909 -0.81741,0.36515 -11.12746,9.89095 1.88587,36.98397 2.02383,37.28065 5.39309,12.04031 19.51947,27.8119 24.24555,41.6499 5.76341,16.87946 5.35055,48.16537 -6.17627,67.1029 -11.52683,18.93752 -42.68723,37.84289 -58.28558,43.15091 -39.6271,13.48531 -84.29563,16.5973 -84.29563,16.5973 -33.170753,1.556 -43.328303,0.28838 -53.20681,-2.59332 -9.880582,-2.88275 -2.229225,-10.22498 -18.694788,-6.93145 -16.4666,3.29352 -30.463313,22.23105 -30.463313,22.23105 -3.338133,4.03314 -0.824679,5.35367 4.938735,5.78312 5.764451,0.42946 24.699899,-5.37026 46.108346,-8.25197 21.408447,-2.88171 90.98123,5.76238 107.85862,6.99784 16.87738,1.23442 66.28133,2.05703 81.10064,0 14.82036,-2.05703 66.27926,-21.40638 84.806,-54.34165 18.5257,-32.93527 16.87842,-79.4544 6.17524,-112.38657"
       style="fill:#ff6600;fill-opacity:1;fill-rule:nonzero;stroke:none"
       id="path226"
       inkscape:connector-curvature="0" /></g></svg>