<?xml version="1.0" encoding="UTF-8" standalone="no"?>
<!-- Created with Inkscape (http://www.inkscape.org/) -->

<svg
   xmlns:dc="http://purl.org/dc/elements/1.1/"
   xmlns:cc="http://creativecommons.org/ns#"
   xmlns:rdf="http://www.w3.org/1999/02/22-rdf-syntax-ns#"
   xmlns:svg="http://www.w3.org/2000/svg"
   xmlns="http://www.w3.org/2000/svg"
   xmlns:sodipodi="http://sodipodi.sourceforge.net/DTD/sodipodi-0.dtd"
   xmlns:inkscape="http://www.inkscape.org/namespaces/inkscape"
   id="svg2"
   version="1.1"
   inkscape:version="0.48.5 r10040"
   width="512"
   height="512"
   sodipodi:docname="qgis.svg">
  <metadata
     id="metadata8">
    <rdf:RDF>
      <cc:Work
         rdf:about="">
        <dc:format>image/svg+xml</dc:format>
        <dc:type
           rdf:resource="http://purl.org/dc/dcmitype/StillImage" />
        <dc:title />
      </cc:Work>
    </rdf:RDF>
  </metadata>
  <defs
     id="defs6" />
  <sodipodi:namedview
     pagecolor="#ffffff"
     bordercolor="#666666"
     borderopacity="1"
     objecttolerance="10"
     gridtolerance="10"
     guidetolerance="10"
     inkscape:pageopacity="0"
     inkscape:pageshadow="2"
     inkscape:window-width="1255"
     inkscape:window-height="648"
     id="namedview4"
     showgrid="false"
     inkscape:zoom="0.4609375"
     inkscape:cx="944.45369"
     inkscape:cy="79.546997"
     inkscape:window-x="15"
     inkscape:window-y="39"
     inkscape:window-maximized="0"
     inkscape:current-layer="svg2" />
  <path
     style="fill:none;stroke:#45d03f;stroke-width:30.20646858;stroke-linecap:butt;stroke-linejoin:miter;stroke-miterlimit:4;stroke-opacity:1;stroke-dasharray:none"
     d="M 110.97359,374.2011 197.2583,297.74632"
     id="path2987-3"
     inkscape:connector-curvature="0"
     sodipodi:nodetypes="cc" />
  <path
     style="fill:#45d03f;fill-opacity:1;stroke:none"
     d="M 147.96772,338.70812 25,389.49745 l 52.924532,17.78223 13.228463,51.56427 z"
     id="path3918-6"
     inkscape:connector-curvature="0"
     sodipodi:nodetypes="ccccc" />
  <path
     style="fill:#ffcc00;fill-opacity:1;stroke:none"
     d="m 261.32811,78.119206 c -93.17687,0 -168.647388,71.094924 -168.647388,158.734624 0,61.13898 36.901608,113.86144 90.748348,140.30121 l -34.53255,21.50589 10.70775,10.24102 c 0,0 17.61308,-11.79815 27.84023,-13.82529 10.75646,-2.13366 32.92637,2.04949 32.92637,2.04949 15.75771,4.11609 -2.59152,-1.77951 27.84023,9.72865 0,0 62.89719,25.52794 96.36992,30.72305 10.58499,1.64307 21.98769,2.48783 32.391,0 19.65067,-4.69841 53.53885,-27.39453 53.53885,-27.39453 l 0,-12.28934 c 0,0 -23.99772,6.68549 -36.40643,7.42487 -8.11789,0.4848 -16.43968,-0.29029 -24.36016,-2.04949 -17.04574,-3.8075 -46.50087,-16.82287 -49.52343,-18.17767 64.09238,-22.46562 110.02234,-80.14864 110.02234,-148.23786 0,-87.6397 -75.73823,-158.734624 -168.91508,-158.734624 z m 0.26711,45.572214 c 56.02911,0 101.45613,50.2744 101.45613,112.39429 0,62.12018 -45.42702,112.65063 -101.45613,112.65063 -56.02911,0 -101.45613,-50.53045 -101.45613,-112.65063 0,-62.11989 45.42702,-112.39429 101.45613,-112.39429 z"
     id="path3956"
     inkscape:connector-curvature="0" />
  <path
     style="fill:none;stroke:#45d03f;stroke-width:30.20646858;stroke-linecap:butt;stroke-linejoin:miter;stroke-miterlimit:4;stroke-opacity:1;stroke-dasharray:none"
     d="M 185.24397,308.12232 405.87066,110.43208"
     id="path2987"
     inkscape:connector-curvature="0"
     sodipodi:nodetypes="cc" />
  <path
     style="fill:#45d03f;fill-opacity:1;stroke:none"
     d="m 475,45.995317 -122.96772,50.789328 52.92453,17.782235 13.22846,51.56426 z"
     id="path3918-6-7"
     inkscape:connector-curvature="0"
     sodipodi:nodetypes="ccccc" />
</svg>
