<?xml version="1.0" encoding="UTF-8" standalone="no"?>
<!-- Created with Inkscape (http://www.inkscape.org/) -->

<svg
   xmlns:dc="http://purl.org/dc/elements/1.1/"
   xmlns:cc="http://creativecommons.org/ns#"
   xmlns:rdf="http://www.w3.org/1999/02/22-rdf-syntax-ns#"
   xmlns:svg="http://www.w3.org/2000/svg"
   xmlns="http://www.w3.org/2000/svg"
   xmlns:sodipodi="http://sodipodi.sourceforge.net/DTD/sodipodi-0.dtd"
   xmlns:inkscape="http://www.inkscape.org/namespaces/inkscape"
   id="svg2"
   version="1.1"
   inkscape:version="0.91 r13725"
   width="512"
   height="512"
   sodipodi:docname="scilab.svg">
  <metadata
     id="metadata8">
    <rdf:RDF>
      <cc:Work
         rdf:about="">
        <dc:format>image/svg+xml</dc:format>
        <dc:type
           rdf:resource="http://purl.org/dc/dcmitype/StillImage" />
        <dc:title />
      </cc:Work>
    </rdf:RDF>
  </metadata>
  <defs
     id="defs6" />
  <sodipodi:namedview
     pagecolor="#ffffff"
     bordercolor="#666666"
     borderopacity="1"
     objecttolerance="10"
     gridtolerance="10"
     guidetolerance="10"
     inkscape:pageopacity="0"
     inkscape:pageshadow="2"
     inkscape:window-width="1149"
     inkscape:window-height="645"
     id="namedview4"
     showgrid="false"
     inkscape:zoom="0.65186406"
     inkscape:cx="598.12129"
     inkscape:cy="182.8383"
     inkscape:window-x="15"
     inkscape:window-y="39"
     inkscape:window-maximized="0"
     inkscape:current-layer="svg2" />
  <g
     id="g4142">
    <rect
       ry="47.828659"
       y="28.906666"
       x="30.817493"
       height="455.61646"
       width="452.54834"
       id="rect3005"
       style="fill:#000000;fill-opacity:1;fill-rule:evenodd;stroke:#f03916;stroke-width:21.5;stroke-linecap:butt;stroke-linejoin:miter;stroke-miterlimit:4;stroke-opacity:1;stroke-dasharray:none" />
    <path
       transform="matrix(1.2702703,0,0,1.2702703,1088.9689,172.41633)"
       d="m -728.67954,81.695564 a 28.38015,28.38015 0 1 1 -56.7603,0 28.38015,28.38015 0 1 1 56.7603,0 z"
       sodipodi:ry="28.38015"
       sodipodi:rx="28.38015"
       sodipodi:cy="81.695564"
       sodipodi:cx="-757.05969"
       id="path3775"
       style="fill:#f03916;fill-opacity:1;fill-rule:nonzero;stroke:none"
       sodipodi:type="arc" />
    <path
       transform="matrix(1.2702703,0,0,1.2702703,1149.8674,238.19843)"
       d="m -728.67954,81.695564 a 28.38015,28.38015 0 1 1 -56.7603,0 28.38015,28.38015 0 1 1 56.7603,0 z"
       sodipodi:ry="28.38015"
       sodipodi:rx="28.38015"
       sodipodi:cy="81.695564"
       sodipodi:cx="-757.05969"
       id="path3775-1"
       style="fill:#f03916;fill-opacity:1;fill-rule:nonzero;stroke:none"
       sodipodi:type="arc" />
    <path
       transform="matrix(1.0810811,0,0,1.0810811,1035.1831,94.624132)"
       d="m -728.67954,81.695564 a 28.38015,28.38015 0 1 1 -56.7603,0 28.38015,28.38015 0 1 1 56.7603,0 z"
       sodipodi:ry="28.38015"
       sodipodi:rx="28.38015"
       sodipodi:cy="81.695564"
       sodipodi:cx="-757.05969"
       id="path3775-18"
       style="fill:#f03916;fill-opacity:1;fill-rule:nonzero;stroke:none"
       sodipodi:type="arc" />
    <path
       transform="matrix(1.2702703,0,0,1.2702703,1226.7335,139.76367)"
       d="m -728.67954,81.695564 a 28.38015,28.38015 0 1 1 -56.7603,0 28.38015,28.38015 0 1 1 56.7603,0 z"
       sodipodi:ry="28.38015"
       sodipodi:rx="28.38015"
       sodipodi:cy="81.695564"
       sodipodi:cx="-757.05969"
       id="path3775-5"
       style="fill:#f57961;fill-opacity:1;fill-rule:nonzero;stroke:none"
       sodipodi:type="arc" />
    <path
       transform="matrix(1.0270271,0,0,1.0270271,1084.7705,250.91227)"
       d="m -728.67954,81.695564 a 28.38015,28.38015 0 1 1 -56.7603,0 28.38015,28.38015 0 1 1 56.7603,0 z"
       sodipodi:ry="28.38015"
       sodipodi:rx="28.38015"
       sodipodi:cy="81.695564"
       sodipodi:cx="-757.05969"
       id="path3775-5-0"
       style="fill:#f57961;fill-opacity:1;fill-rule:nonzero;stroke:none"
       sodipodi:type="arc" />
    <path
       transform="matrix(1.0270271,0,0,1.0270271,1124.2189,96.739011)"
       d="m -728.67954,81.695564 a 28.38015,28.38015 0 1 1 -56.7603,0 28.38015,28.38015 0 1 1 56.7603,0 z"
       sodipodi:ry="28.38015"
       sodipodi:rx="28.38015"
       sodipodi:cy="81.695564"
       sodipodi:cx="-757.05969"
       id="path3775-5-0-8"
       style="fill:#f57961;fill-opacity:1;fill-rule:nonzero;stroke:none"
       sodipodi:type="arc" />
    <path
       transform="matrix(0.91891899,0,0,0.91891899,1004.0231,33.470043)"
       d="m -728.67954,81.695564 a 28.38015,28.38015 0 1 1 -56.7603,0 28.38015,28.38015 0 1 1 56.7603,0 z"
       sodipodi:ry="28.38015"
       sodipodi:rx="28.38015"
       sodipodi:cy="81.695564"
       sodipodi:cx="-757.05969"
       id="path3775-5-0-8-6"
       style="fill:#ff6600;fill-opacity:1;fill-rule:nonzero;stroke:none"
       sodipodi:type="arc" />
    <path
       transform="matrix(1.0270271,0,0,1.0270271,1159.6385,176.04431)"
       d="m -728.67954,81.695564 a 28.38015,28.38015 0 1 1 -56.7603,0 28.38015,28.38015 0 1 1 56.7603,0 z"
       sodipodi:ry="28.38015"
       sodipodi:rx="28.38015"
       sodipodi:cy="81.695564"
       sodipodi:cx="-757.05969"
       id="path3775-5-0-8-3"
       style="fill:#ffffff;fill-opacity:1;fill-rule:nonzero;stroke:none"
       sodipodi:type="arc" />
    <path
       transform="matrix(1.1621622,0,0,1.1621622,1293.256,247.54263)"
       d="m -728.67954,81.695564 a 28.38015,28.38015 0 1 1 -56.7603,0 28.38015,28.38015 0 1 1 56.7603,0 z"
       sodipodi:ry="28.38015"
       sodipodi:rx="28.38015"
       sodipodi:cy="81.695564"
       sodipodi:cx="-757.05969"
       id="path3775-5-0-8-3-7"
       style="fill:#ffffff;fill-opacity:1;fill-rule:nonzero;stroke:none"
       sodipodi:type="arc" />
  </g>
</svg>
