<?xml version="1.0" encoding="UTF-8" standalone="no"?>
<!-- Generator: Adobe Illustrator 19.0.0, SVG Export Plug-In . SVG Version: 6.00 Build 0)  -->

<svg
   xmlns:dc="http://purl.org/dc/elements/1.1/"
   xmlns:cc="http://creativecommons.org/ns#"
   xmlns:rdf="http://www.w3.org/1999/02/22-rdf-syntax-ns#"
   xmlns:svg="http://www.w3.org/2000/svg"
   xmlns="http://www.w3.org/2000/svg"
   xmlns:sodipodi="http://sodipodi.sourceforge.net/DTD/sodipodi-0.dtd"
   xmlns:inkscape="http://www.inkscape.org/namespaces/inkscape"
   version="1.1"
   id="Layer_1"
   x="0px"
   y="0px"
   viewBox="0 0 500 500"
   xml:space="preserve"
   inkscape:version="0.48.5 r10040"
   width="100%"
   height="100%"
   sodipodi:docname="f-spot.svg"><metadata
     id="metadata57"><rdf:RDF><cc:Work
         rdf:about=""><dc:format>image/svg+xml</dc:format><dc:type
           rdf:resource="http://purl.org/dc/dcmitype/StillImage" /></cc:Work></rdf:RDF></metadata><defs
     id="defs55" /><sodipodi:namedview
     pagecolor="#ffffff"
     bordercolor="#666666"
     borderopacity="1"
     objecttolerance="10"
     gridtolerance="10"
     guidetolerance="10"
     inkscape:pageopacity="0"
     inkscape:pageshadow="2"
     inkscape:window-width="1366"
     inkscape:window-height="716"
     id="namedview53"
     showgrid="false"
     inkscape:zoom="0.52559509"
     inkscape:cx="757.79096"
     inkscape:cy="143.17093"
     inkscape:window-x="0"
     inkscape:window-y="0"
     inkscape:window-maximized="1"
     inkscape:current-layer="Layer_1" /><polygon
     style="fill:#cccccc"
     points="171.063,352.014 289.402,352.014 309.125,441.463 151.34,441.463 "
     id="polygon3"
     transform="matrix(0.90000001,0,0,0.90000001,42.204682,65.365406)" /><rect
     x="160.67709"
     y="453.5336"
     style="fill:#d8d9dd"
     width="177.47369"
     height="16.4664"
     id="rect5" /><rect
     x="160.67709"
     y="453.5336"
     style="opacity:0.4;fill:#394050;enable-background:new"
     width="177.47369"
     height="16.4664"
     id="rect11" /><g
     id="g23"
     transform="translate(0,39.767)" /><g
     id="g25"
     transform="translate(0,39.767)" /><g
     id="g27"
     transform="translate(0,39.767)" /><g
     id="g29"
     transform="translate(0,39.767)" /><g
     id="g31"
     transform="translate(0,39.767)" /><g
     id="g33"
     transform="translate(0,39.767)" /><g
     id="g35"
     transform="translate(0,39.767)" /><g
     id="g37"
     transform="translate(0,39.767)" /><g
     id="g39"
     transform="translate(0,39.767)" /><g
     id="g41"
     transform="translate(0,39.767)" /><g
     id="g43"
     transform="translate(0,39.767)" /><g
     id="g45"
     transform="translate(0,39.767)" /><g
     id="g47"
     transform="translate(0,39.767)" /><g
     id="g49"
     transform="translate(0,39.767)" /><g
     id="g51"
     transform="translate(0,39.767)" /><path
     inkscape:connector-curvature="0"
     style="fill:#5d6a7b"
     d="m 454.89087,122.60785 c 0.0117,0 0.22108,0.13599 0.22108,0.14772 V 373.18742 H 44.887065 V 122.75557 c 0,-0.0117 0.145761,-0.14772 0.1575,-0.14772 H 454.89087 l 0,0 z"
     id="path9" /><path
     inkscape:connector-curvature="0"
     style="fill:#394050"
     d="m 454.89087,122.60785 c 0.0117,0 0.22108,0.13599 0.22108,0.14772 V 373.18742 H 44.887065 V 122.75557 c 0,-0.0117 0.145761,-0.14772 0.1575,-0.14772 H 454.89087 l 0,0 z M 475,247.89666 V 122.72035 c 0,-10.61119 -9.46173,-19.99956 -20.07391,-19.99956 l 0,0 H 45.009348 C 34.398152,102.72079 25,112.10916 25,122.72035 v 125.17631 0.003 125.17728 c 0,10.61218 9.398152,19.99957 20.009348,19.99957 H 454.92609 l 0,0 c 10.61218,0 20.07391,-9.38837 20.07391,-19.99957 v -125.17728 -0.003 z"
     id="path7" /><rect
     style="fill:none;stroke:#ffffff;stroke-width:5.65382528;stroke-linecap:butt;stroke-linejoin:miter;stroke-miterlimit:4;stroke-opacity:1;stroke-dasharray:11.30765078, 11.30765078;stroke-dashoffset:0"
     id="rect4235"
     width="342.71176"
     height="173.93739"
     x="71.510185"
     y="166.8455" /><g
     id="g4231"
     transform="matrix(0.21297764,0,0,-0.21297764,315.99655,393.50422)"
     style="fill:#cccccc;fill-opacity:1;stroke:none"><path
       style="fill:#cccccc;fill-opacity:1;stroke:none;stroke-width:7.54062271;marker-start:none"
       sodipodi:nodetypes="cccccczcccccccc"
       id="path49000"
       d="m 439.22937,396.96624 c -39.99272,-55.39455 -48.56918,-95.83447 -62.16419,-91.99646 -10.62669,3 -5.54306,12.10035 -33.62407,18.45086 -26.96162,6.09741 -54.44504,-16.08805 -60.10583,-42.79361 -7.56022,-26.17937 4.86229,-59.03621 32.50809,-67.09242 27.36294,-9.8341 59.91571,6.32203 69.58267,33.5745 14.0265,31.16135 21.16299,72.29173 66.64075,107.68138 l 34.90671,27.1638 120.6271,171.10904 c 13.48121,22.11788 21.53977,51.5201 3.93501,79.45404 L 439.22937,396.96624 z M 309.63984,293.56121 c 23.25361,23.30157 64.51312,9.21439 64.51152,-21.82128 1.71441,-28.54979 -32.933,-54.63199 -58.76636,-38.39095 -21.7463,11.37964 -21.66398,44.26065 -5.74516,60.21223 z"
       inkscape:connector-curvature="0" /><path
       style="fill:#cccccc;fill-opacity:1;stroke:none;stroke-width:6.30193853;marker-start:none"
       sodipodi:nodetypes="cccccczcccccccc"
       id="path48999"
       d="m 501.04181,395.45837 c 40.1155,-55.30522 48.78248,-95.72598 62.36912,-91.85768 10.62008,3.02363 5.5161,12.1129 33.5823,18.52574 26.94828,6.15744 54.48106,-15.96667 60.20111,-42.65946 7.61903,-26.16275 -4.73032,-59.04692 -32.35823,-67.16485 -27.34078,-9.895 -59.92949,6.18862 -69.65752,33.41935 -14.09572,31.13025 -21.32401,72.24438 -66.88019,107.53283 L 453.33141,380.33989 332.3229,551.17978 c -13.53038,22.08772 -21.65414,51.47196 -4.11168,79.44509 L 501.04181,395.45837 z M 630.86163,292.34246 c -23.30556,23.24971 -64.5336,9.07061 -64.4631,-21.96506 -1.65035,-28.55353 33.05479,-54.55845 58.85208,-38.25976 21.72094,11.42802 21.56521,44.30875 5.61102,60.22482 z"
       inkscape:connector-curvature="0" /></g></svg>