<?xml version="1.0" encoding="UTF-8" standalone="no"?>
<svg
   xmlns:dc="http://purl.org/dc/elements/1.1/"
   xmlns:cc="http://creativecommons.org/ns#"
   xmlns:rdf="http://www.w3.org/1999/02/22-rdf-syntax-ns#"
   xmlns:svg="http://www.w3.org/2000/svg"
   xmlns="http://www.w3.org/2000/svg"
   xmlns:sodipodi="http://sodipodi.sourceforge.net/DTD/sodipodi-0.dtd"
   xmlns:inkscape="http://www.inkscape.org/namespaces/inkscape"
   viewBox="0 0 128 128"
   id="svg2"
   version="1.1"
   inkscape:version="0.92.1 r15371"
   width="100%"
   height="100%"
   sodipodi:docname="seafile.svg">
  <metadata
     id="metadata61">
    <rdf:RDF>
      <cc:Work
         rdf:about="">
        <dc:format>image/svg+xml</dc:format>
        <dc:type
           rdf:resource="http://purl.org/dc/dcmitype/StillImage" />
        <dc:title />
      </cc:Work>
    </rdf:RDF>
  </metadata>
  <sodipodi:namedview
     pagecolor="#ffffff"
     bordercolor="#666666"
     borderopacity="1"
     objecttolerance="10"
     gridtolerance="10"
     guidetolerance="10"
     inkscape:pageopacity="0"
     inkscape:pageshadow="2"
     inkscape:window-width="1366"
     inkscape:window-height="714"
     id="namedview59"
     showgrid="false"
     inkscape:zoom="1.2291667"
     inkscape:cx="-48.083085"
     inkscape:cy="138.04167"
     inkscape:window-x="0"
     inkscape:window-y="0"
     inkscape:window-maximized="1"
     inkscape:current-layer="svg2" />
  <defs
     id="defs4">
    <linearGradient
       id="linearGradient3764"
       x1="1"
       x2="47"
       gradientUnits="userSpaceOnUse"
       gradientTransform="matrix(0,-1,1,0,-1.5e-6,47.999998)">
      <stop
         stop-color="#efeea1"
         stop-opacity="1"
         id="stop7" />
      <stop
         offset="1"
         stop-color="#f2f2b3"
         stop-opacity="1"
         id="stop9" />
    </linearGradient>
    <clipPath
       id="clipPath-783883865">
      <g
         transform="translate(0,-1004.3622)"
         id="g12">
        <path
           d="m -24,13 c 0,1.105 -0.672,2 -1.5,2 -0.828,0 -1.5,-0.895 -1.5,-2 0,-1.105 0.672,-2 1.5,-2 0.828,0 1.5,0.895 1.5,2 z"
           transform="matrix(15.333333,0,0,11.5,414.99999,878.8622)"
           id="path14"
           inkscape:connector-curvature="0"
           style="fill:#1890d0" />
      </g>
    </clipPath>
    <clipPath
       id="clipPath-790773971">
      <g
         transform="translate(0,-1004.3622)"
         id="g17">
        <path
           d="m -24,13 c 0,1.105 -0.672,2 -1.5,2 -0.828,0 -1.5,-0.895 -1.5,-2 0,-1.105 0.672,-2 1.5,-2 0.828,0 1.5,0.895 1.5,2 z"
           transform="matrix(15.333333,0,0,11.5,414.99999,878.8622)"
           id="path19"
           inkscape:connector-curvature="0"
           style="fill:#1890d0" />
      </g>
    </clipPath>
  </defs>
  <g
     id="g33"
     transform="translate(0,80)" />
  <path
     style="fill:#ffcc00;stroke-width:0.34077975;fill-opacity:1"
     d="M 30.988449,102.76571 C 23.206635,101.144 19.224518,92.618443 22.879721,85.405241 c 0.858366,-1.693904 3.433292,-4.192291 5.215733,-5.060709 0.794903,-0.387279 1.051415,-0.697275 0.887831,-1.072945 -0.126529,-0.290575 -0.301451,-1.915394 -0.388721,-3.610696 -0.206584,-4.01322 0.466186,-6.687424 2.43378,-9.674041 1.809633,-2.746853 3.453177,-4.266431 6.345575,-5.866968 2.969057,-1.64295 5.199413,-2.122035 8.897442,-1.911185 2.611505,0.148904 3.368424,0.345527 5.627961,1.461987 1.435858,0.709472 3.124003,1.740678 3.751433,2.291569 1.037323,0.910778 1.158688,0.944502 1.338225,0.371825 0.108593,-0.346389 0.60794,-1.702569 1.109668,-3.01374 4.319277,-11.287713 16.448143,-17.397038 28.393328,-14.301735 9.86104,2.555248 17.315184,12.334703 17.328844,22.734522 l 0.004,1.959483 1.95949,0.0083 c 2.67465,0.01138 4.46762,0.472777 7.35049,1.891586 2.68936,1.323575 5.58176,3.908975 6.94271,6.205799 2.80039,4.726141 2.90889,11.618025 0.26403,16.7712 -1.18217,2.30334 -4.71333,5.578777 -7.32636,6.795797 -3.38765,1.57781 -5.98508,1.78039 -21.288034,1.66029 l -13.631193,-0.10699 -1.443614,-0.82687 c -1.57682,-0.90317 -2.966032,-2.671367 -3.687156,-4.693077 -0.605634,-1.69785 -0.609076,-6.27822 -0.0065,-8.541973 0.943166,-3.543096 3.846406,-7.339122 6.730898,-8.800811 1.401293,-0.710082 3.006839,-1.083181 3.006839,-0.698718 0,0.06749 -0.634255,1.486001 -1.409498,3.152212 -1.794987,3.858035 -1.900566,5.441061 -0.464794,6.969027 2.420153,2.575513 7.02961,3.526953 9.387841,1.937743 1.774131,-1.19559 2.465201,-2.69384 2.640668,-5.725095 0.270187,-4.667007 -1.723887,-9.4194 -4.890994,-11.65664 -1.904892,-1.345627 -3.303345,-1.864849 -6.602915,-2.451566 -2.123631,-0.377621 -2.976261,-0.373968 -5.282086,0.02262 -5.717215,0.983382 -9.009962,2.497426 -12.405174,5.704054 -1.629497,1.538981 -5.769776,6.692521 -8.288878,10.31742 -1.188868,1.710739 -3.112805,4.471057 -4.275416,6.134037 -2.874657,4.11186 -6.137157,7.463087 -8.16633,8.388407 -1.391059,0.63435 -2.335841,0.76243 -6.077261,0.82393 -2.436576,0.0401 -5.078856,-0.0624 -5.871737,-0.22761 z M 5.6788397,62.777753 c 0,-0.958 2.0301447,-3.220702 3.5496674,-3.956293 1.1750019,-0.568809 2.0253789,-0.729071 3.4043659,-0.641586 l 1.838135,0.116611 0.191389,-1.400641 c 0.370651,-2.712559 1.558495,-5.185049 3.327664,-6.926534 2.373026,-2.33589 4.273681,-3.163474 7.709589,-3.356914 2.33196,-0.131285 2.811433,-0.255016 2.811433,-0.725507 0,-1.459549 1.180148,-4.839726 2.38966,-6.844458 2.246219,-3.72305 5.390256,-6.404929 9.280649,-7.916444 2.779843,-1.080036 8.046536,-1.232471 11.043779,-0.319637 5.703937,1.737175 10.281335,6.226516 11.848469,11.620535 0.85412,2.939852 0.781667,3.154254 -2.008968,5.944888 -2.540568,2.540564 -5.137702,6.127414 -5.509608,7.609207 -0.254798,1.015199 -0.598552,0.988056 -3.152077,-0.248885 -2.903811,-1.406627 -5.073303,-1.810035 -8.710218,-1.619628 -2.57258,0.134686 -3.552544,0.364532 -5.909393,1.38603 -3.593604,1.557527 -6.905534,3.917784 -8.506452,6.062154 l -1.252103,1.677141 H 16.851833 c -9.1524515,0 -11.1729933,-0.08319 -11.1729933,-0.460039 z"
     id="path4527"
     inkscape:connector-curvature="0"
     sodipodi:nodetypes="cccscsccscccsccccscsscccccsccsccccssscsccssccsscsssssscsssccss" />
</svg>
