<?xml version="1.0" encoding="UTF-8" standalone="no"?>
<!-- Created with Inkscape (http://www.inkscape.org/) -->

<svg
   xmlns:dc="http://purl.org/dc/elements/1.1/"
   xmlns:cc="http://creativecommons.org/ns#"
   xmlns:rdf="http://www.w3.org/1999/02/22-rdf-syntax-ns#"
   xmlns:svg="http://www.w3.org/2000/svg"
   xmlns="http://www.w3.org/2000/svg"
   xmlns:sodipodi="http://sodipodi.sourceforge.net/DTD/sodipodi-0.dtd"
   xmlns:inkscape="http://www.inkscape.org/namespaces/inkscape"
   version="1.1"
   width="100%"
   height="100%"
   viewBox="0 0 512 512"
   id="svg2"
   inkscape:version="0.91 r13725"
   sodipodi:docname="sunflow.svg">
  <sodipodi:namedview
     pagecolor="#ffffff"
     bordercolor="#666666"
     borderopacity="1"
     objecttolerance="10"
     gridtolerance="10"
     guidetolerance="10"
     inkscape:pageopacity="0"
     inkscape:pageshadow="2"
     inkscape:window-width="1366"
     inkscape:window-height="715"
     id="namedview42"
     showgrid="false"
     inkscape:zoom="0.4609375"
     inkscape:cx="-112.90463"
     inkscape:cy="271.7058"
     inkscape:window-x="0"
     inkscape:window-y="24"
     inkscape:window-maximized="1"
     inkscape:current-layer="svg2" />
  <metadata
     id="metadata70">
    <rdf:RDF>
      <cc:Work
         rdf:about="">
        <dc:format>image/svg+xml</dc:format>
        <dc:type
           rdf:resource="http://purl.org/dc/dcmitype/StillImage" />
        <dc:title />
      </cc:Work>
    </rdf:RDF>
  </metadata>
  <defs
     id="defs68">
    <filter
       color-interpolation-filters="sRGB"
       id="filter3174">
      <feGaussianBlur
         stdDeviation="1.71"
         id="feGaussianBlur3176" />
    </filter>
    <linearGradient
       x1="45.447727"
       y1="92.539597"
       x2="45.447727"
       y2="7.0165396"
       id="ButtonShadow"
       gradientUnits="userSpaceOnUse"
       gradientTransform="scale(1.0058652,0.994169)">
      <stop
         id="stop3750"
         style="stop-color:#000000;stop-opacity:1"
         offset="0" />
      <stop
         id="stop3752"
         style="stop-color:#000000;stop-opacity:0.58823532"
         offset="1" />
    </linearGradient>
  </defs>
  <text
     x="729.64001"
     y="231.35997"
     id="text20"
     style="font-size:129.22999573px;line-height:125%;letter-spacing:0;word-spacing:0;font-family:Gentium Book Basic">
    <tspan
       x="729.64001"
       y="231.35997"
       id="tspan22" />
  </text>
  <text
     x="378.90805"
     y="579.25812"
     transform="scale(4.0128205,0.24920128)"
     id="text24"
     style="font-size:46.95375824px;text-anchor:middle;font-family:Arial" />
  <text
     x="1310.91"
     y="151.35997"
     id="text26"
     style="font-size:129.22999573px;line-height:125%;letter-spacing:0;word-spacing:0;font-family:Gentium Book Basic">
    <tspan
       x="1310.91"
       y="151.35997"
       id="tspan28" />
  </text>
  <text
     x="523.75732"
     y="258.21997"
     transform="scale(4.0128205,0.24920128)"
     id="text30"
     style="font-size:46.95375824px;text-anchor:middle;font-family:Arial" />
  <text
     x="239.33"
     y="-29.900009"
     id="text32"
     style="font-size:129.22999573px;line-height:125%;letter-spacing:0;word-spacing:0;font-family:Gentium Book Basic">
    <tspan
       x="239.33"
       y="-29.900009"
       id="tspan34" />
  </text>
  <text
     x="256.71869"
     y="-469.1264"
     transform="scale(4.0128205,0.24920128)"
     id="text36"
     style="font-size:46.95375824px;text-anchor:middle;font-family:Arial" />
  <text
     x="1337.38"
     y="-246.37001"
     id="text38"
     style="font-size:129.22999573px;line-height:125%;letter-spacing:0;word-spacing:0;font-family:Gentium Book Basic">
    <tspan
       x="1337.38"
       y="-246.37001"
       id="tspan40" />
  </text>
  <text
     x="530.3573"
     y="-1337.802"
     transform="scale(4.0128205,0.24920128)"
     id="text42"
     style="font-size:46.95375824px;text-anchor:middle;font-family:Arial" />
  <text
     x="1918.65"
     y="-326.37"
     id="text44"
     style="font-size:129.22999573px;line-height:125%;letter-spacing:0;word-spacing:0;font-family:Gentium Book Basic">
    <tspan
       x="1918.65"
       y="-326.37"
       id="tspan46" />
  </text>
  <text
     x="675.20654"
     y="-1658.8303"
     transform="scale(4.0128205,0.24920128)"
     id="text48"
     style="font-size:46.95375824px;text-anchor:middle;font-family:Arial" />
  <text
     x="1529.53"
     y="-798.77002"
     id="text50"
     style="font-size:129.22999573px;line-height:125%;letter-spacing:0;word-spacing:0;font-family:Gentium Book Basic">
    <tspan
       x="1529.53"
       y="-798.77002"
       id="tspan52" />
  </text>
  <text
     x="578.237"
     y="-3554.4807"
     transform="scale(4.0128205,0.24920128)"
     id="text54"
     style="font-size:46.95375824px;text-anchor:middle;font-family:Arial" />
  <text
     x="2110.79"
     y="-878.78003"
     id="text56"
     style="font-size:129.22999573px;line-height:125%;letter-spacing:0;word-spacing:0;font-family:Gentium Book Basic">
    <tspan
       x="2110.79"
       y="-878.78003"
       id="tspan58" />
  </text>
  <text
     x="723.0863"
     y="-3875.519"
     transform="scale(4.0128205,0.24920128)"
     id="text60"
     style="font-size:46.95375824px;text-anchor:middle;font-family:Arial" />
  <text
     x="277.98999"
     y="535.94006"
     id="text62"
     style="font-size:208.33000183px;line-height:125%;letter-spacing:0;word-spacing:0;font-family:Gentium Book Basic">
    <tspan
       x="277.98999"
       y="535.94006"
       id="tspan64" />
  </text>
  <g
     transform="matrix(2.2712069,0,0,2.2712069,37.572877,-373.38174)"
     id="layer2"
     style="display:none">
    <rect
       width="86"
       height="85"
       rx="6"
       ry="6"
       x="5"
       y="7"
       id="rect3745"
       style="opacity:0.9;fill:url(#ButtonShadow);fill-opacity:1;fill-rule:nonzero;stroke:none;filter:url(#filter3174)" />
  </g>
  <g
     id="g4247"
     transform="matrix(17.072314,0,0,17.072314,1835.8037,-6067.6747)">
    <g
       id="g4231">
      <path
         style="fill:#ffcc00;fill-opacity:1;fill-rule:evenodd;stroke:none;stroke-width:1px;stroke-linecap:butt;stroke-linejoin:miter;stroke-opacity:1"
         d="m -91.86441,369.35593 c 0,0 4.45674,-4.55256 5.55932,-6.44067 1.10258,-1.88811 1.55933,-4.33899 1.55933,-4.33899 0,0 1.16942,3.09605 0.54237,5.55932 -0.62705,2.46327 -5.42373,8.00001 -5.42373,8.00001 z"
         id="path3380"
         inkscape:connector-curvature="0"
         sodipodi:nodetypes="czczcc" />
      <path
         sodipodi:nodetypes="czczcc"
         inkscape:connector-curvature="0"
         id="path4182"
         d="m -92.53745,369.24304 c 0,0 1.40149,-6.21483 1.3481,-8.40065 -0.0534,-2.18581 -0.95195,-4.51133 -0.95195,-4.51133 0,0 2.62123,2.02045 3.38137,4.44596 0.76014,2.4255 -0.41373,9.65639 -0.41373,9.65639 z"
         style="fill:#ffcc00;fill-opacity:1;fill-rule:evenodd;stroke:none;stroke-width:1px;stroke-linecap:butt;stroke-linejoin:miter;stroke-opacity:1"
         inkscape:transform-center-x="-1.8792276"
         inkscape:transform-center-y="-7.1032204" />
      <path
         inkscape:transform-center-y="-6.8761854"
         inkscape:transform-center-x="1.6941832"
         style="fill:#ffcc00;fill-opacity:1;fill-rule:evenodd;stroke:none;stroke-width:1px;stroke-linecap:butt;stroke-linejoin:miter;stroke-opacity:1"
         d="m -93.0897,369.44304 c 0,0 -1.59169,-6.16886 -2.6375,-8.089 -1.04582,-1.92013 -2.90729,-3.57854 -2.90729,-3.57854 0,0 3.25465,0.60023 5.03867,2.41081 1.78401,1.81057 4.04225,8.77937 4.04225,8.77937 z"
         id="path4184"
         inkscape:connector-curvature="0"
         sodipodi:nodetypes="czczcc" />
      <path
         sodipodi:nodetypes="czczcc"
         inkscape:connector-curvature="0"
         id="path4186"
         d="m -93.52265,369.93606 c 0,0 -4.49697,-4.51282 -6.37127,-5.63873 -1.8743,-1.1259 -4.31932,-1.613 -4.31932,-1.613 0,0 3.1103,-1.13095 5.56562,-0.47342 2.4553,0.65754 7.93217,5.52249 7.93217,5.52249 z"
         style="fill:#ffcc00;fill-opacity:1;fill-rule:evenodd;stroke:none;stroke-width:1px;stroke-linecap:butt;stroke-linejoin:miter;stroke-opacity:1"
         inkscape:transform-center-x="5.0644982"
         inkscape:transform-center-y="-4.5147012" />
      <path
         inkscape:transform-center-y="-2.0816476"
         inkscape:transform-center-x="7.0157632"
         style="fill:#ffcc00;fill-opacity:1;fill-rule:evenodd;stroke:none;stroke-width:1px;stroke-linecap:butt;stroke-linejoin:miter;stroke-opacity:1"
         d="m -93.64727,370.56589 c 0,0 -6.14396,-1.68524 -8.32993,-1.73223 -2.18596,-0.047 -4.55026,0.74389 -4.55026,0.74389 0,0 2.13862,-2.52573 4.59647,-3.17376 2.45783,-0.64801 9.62723,0.85649 9.62723,0.85649 z"
         id="path4197"
         inkscape:connector-curvature="0"
         sodipodi:nodetypes="czczcc" />
      <path
         sodipodi:nodetypes="czczcc"
         inkscape:connector-curvature="0"
         id="path4217"
         d="m -93.44238,371.17514 c 0,0 -6.16911,1.5907 -8.08942,2.6362 -1.92031,1.04549 -3.57901,2.90671 -3.57901,2.90671 0,0 0.60076,-3.25455 2.41163,-5.03829 1.81086,-1.78371 8.78002,-4.04083 8.78002,-4.04083 z"
         style="fill:#ffcc00;fill-opacity:1;fill-rule:evenodd;stroke:none;stroke-width:1px;stroke-linecap:butt;stroke-linejoin:miter;stroke-opacity:1"
         inkscape:transform-center-x="6.8767482"
         inkscape:transform-center-y="1.6930346" />
      <path
         inkscape:transform-center-y="5.5297346"
         inkscape:transform-center-x="4.093539"
         style="fill:#ffcc00;fill-opacity:1;fill-rule:evenodd;stroke:none;stroke-width:1px;stroke-linecap:butt;stroke-linejoin:miter;stroke-opacity:1"
         d="m -92.84331,371.65416 c 0,0 -4.07866,4.89416 -5.02684,6.86434 -0.94819,1.97017 -1.20761,4.44972 -1.20761,4.44972 0,0 -1.41309,-2.99269 -0.9849,-5.49821 0.4282,-2.50549 4.76709,-8.40785 4.76709,-8.40785 z"
         id="path4219"
         inkscape:connector-curvature="0"
         sodipodi:nodetypes="czczcc" />
      <path
         sodipodi:nodetypes="czczcc"
         inkscape:connector-curvature="0"
         id="path4221"
         d="m -92.07974,371.69379 c 0,0 -0.46549,6.35386 -0.0889,8.50766 0.37654,2.1538 1.60965,4.32058 1.60965,4.32058 0,0 -2.89158,-1.60992 -4.00261,-3.89609 -1.111,-2.28616 -1.0211,-9.61116 -1.0211,-9.61116 z"
         style="fill:#ffcc00;fill-opacity:1;fill-rule:evenodd;stroke:none;stroke-width:1px;stroke-linecap:butt;stroke-linejoin:miter;stroke-opacity:1"
         inkscape:transform-center-x="0.67187037"
         inkscape:transform-center-y="7.2829496" />
      <path
         inkscape:transform-center-y="6.3563896"
         inkscape:transform-center-x="-2.6226668"
         style="fill:#ffcc00;fill-opacity:1;fill-rule:evenodd;stroke:none;stroke-width:1px;stroke-linecap:butt;stroke-linejoin:miter;stroke-opacity:1"
         d="m -91.57786,371.4272 c 0,0 2.39561,5.90333 3.68681,7.66783 1.29117,1.76452 3.35613,3.16146 3.35613,3.16146 0,0 -3.30551,-0.16339 -5.31386,-1.72142 -2.00833,-1.55804 -5.17066,-8.16587 -5.17066,-8.16587 z"
         id="path4223"
         inkscape:connector-curvature="0"
         sodipodi:nodetypes="czczcc" />
      <path
         sodipodi:nodetypes="czczcc"
         inkscape:connector-curvature="0"
         id="path4225"
         d="m -91.22082,370.90072 c 0,0 4.99071,3.95993 6.98311,4.86049 1.99238,0.9006 4.47745,1.10039 4.47745,1.10039 0,0 -2.9579,1.48456 -5.47297,1.11668 -2.51506,-0.36791 -8.51993,-4.56378 -8.51993,-4.56378 z"
         style="fill:#ffcc00;fill-opacity:1;fill-rule:evenodd;stroke:none;stroke-width:1px;stroke-linecap:butt;stroke-linejoin:miter;stroke-opacity:1"
         inkscape:transform-center-x="-5.6431368"
         inkscape:transform-center-y="3.9833439" />
      <path
         inkscape:transform-center-y="1.8029626"
         inkscape:transform-center-x="-7.1339918"
         style="fill:#ffcc00;fill-opacity:1;fill-rule:evenodd;stroke:none;stroke-width:1px;stroke-linecap:butt;stroke-linejoin:miter;stroke-opacity:1"
         d="m -91.16016,370.32509 c 0,0 6.23949,1.28725 8.42396,1.19376 2.18448,-0.0934 4.49313,-1.03452 4.49313,-1.03452 0,0 -1.97205,2.65784 -4.3832,3.46235 -2.41116,0.80448 -9.66237,-0.23657 -9.66237,-0.23657 z"
         id="path4227"
         inkscape:connector-curvature="0"
         sodipodi:nodetypes="czczcc" />
      <path
         sodipodi:nodetypes="czczcc"
         inkscape:connector-curvature="0"
         id="path4229"
         d="m -91.3965,369.73991 c 0,0 6.07311,-1.92498 7.9335,-3.07372 1.86043,-1.14868 3.41508,-3.09769 3.41508,-3.09769 0,0 -0.42228,3.2825 -2.1331,5.16238 -1.71085,1.87987 -8.54646,4.51392 -8.54646,4.51392 z"
         style="fill:#ffcc00;fill-opacity:1;fill-rule:evenodd;stroke:none;stroke-width:1px;stroke-linecap:butt;stroke-linejoin:miter;stroke-opacity:1"
         inkscape:transform-center-x="-6.6776368"
         inkscape:transform-center-y="-2.0788054" />
    </g>
    <circle
       r="5"
       cy="370.18082"
       cx="-92.269127"
       id="path4245"
       style="fill:#d3a800;fill-opacity:1;stroke:none;stroke-width:3;stroke-linecap:round;stroke-miterlimit:4;stroke-dasharray:none;stroke-opacity:1" />
  </g>
</svg>
