<?xml version="1.0" encoding="UTF-8" standalone="no"?>
<!-- Created with Inkscape (http://www.inkscape.org/) -->

<svg
   xmlns:dc="http://purl.org/dc/elements/1.1/"
   xmlns:cc="http://creativecommons.org/ns#"
   xmlns:rdf="http://www.w3.org/1999/02/22-rdf-syntax-ns#"
   xmlns:svg="http://www.w3.org/2000/svg"
   xmlns="http://www.w3.org/2000/svg"
   xmlns:sodipodi="http://sodipodi.sourceforge.net/DTD/sodipodi-0.dtd"
   xmlns:inkscape="http://www.inkscape.org/namespaces/inkscape"
   id="svg2"
   version="1.1"
   inkscape:version="0.48.5 r10040"
   width="512"
   height="512"
   sodipodi:docname="accessories-system-cleaner.svg">
  <metadata
     id="metadata8">
    <rdf:RDF>
      <cc:Work
         rdf:about="">
        <dc:format>image/svg+xml</dc:format>
        <dc:type
           rdf:resource="http://purl.org/dc/dcmitype/StillImage" />
        <dc:title />
      </cc:Work>
    </rdf:RDF>
  </metadata>
  <defs
     id="defs6">
    <clipPath
       clipPathUnits="userSpaceOnUse"
       id="clipPath4136">
      <rect
         style="opacity:1;fill:none;fill-opacity:1;stroke:#000000;stroke-width:5.53685284;stroke-miterlimit:4;stroke-dasharray:none;stroke-dashoffset:0;stroke-opacity:1"
         id="rect4138"
         width="436.23096"
         height="430.96243"
         x="42.223511"
         y="37.72929"
         ry="55.854221" />
    </clipPath>
    <clipPath
       clipPathUnits="userSpaceOnUse"
       id="clipPath4140">
      <rect
         style="opacity:1;fill:none;fill-opacity:1;stroke:#000000;stroke-width:5.53685284;stroke-miterlimit:4;stroke-dasharray:none;stroke-dashoffset:0;stroke-opacity:1"
         id="rect4142"
         width="436.23096"
         height="430.96243"
         x="42.223511"
         y="37.72929"
         ry="55.854221" />
    </clipPath>
  </defs>
  <sodipodi:namedview
     pagecolor="#ffffff"
     bordercolor="#666666"
     borderopacity="1"
     objecttolerance="10"
     gridtolerance="10"
     guidetolerance="10"
     inkscape:pageopacity="0"
     inkscape:pageshadow="2"
     inkscape:window-width="1366"
     inkscape:window-height="716"
     id="namedview4"
     showgrid="false"
     inkscape:zoom="0.92187499"
     inkscape:cx="173.35752"
     inkscape:cy="231.07905"
     inkscape:window-x="0"
     inkscape:window-y="0"
     inkscape:window-maximized="1"
     inkscape:current-layer="svg2" />
  <path
     style="fill:#afafaf;stroke:none;fill-opacity:1"
     d="m 206.02276,349.40713 c -7.38761,-3.77568 -12.54015,-11.32592 -12.54015,-11.32592 0,0 -0.41347,-2.7219 8.68811,-17.14591 9.10157,-14.42401 30.14002,-48.03015 50.74687,-65.82021 20.60686,-17.79006 43.07248,-28.07482 70.00723,-39.19066 26.93475,-11.11585 91.10992,-25.4572 91.10992,-25.4572 l 7.3692,3.51712 c 0,0 7.53962,8.60904 6.95046,26.5458 -0.58916,17.93676 -7.84087,54.0891 -25.37342,76.12033 -17.53255,22.03123 -47.69522,36.04223 -75.70163,46.2249 -28.00641,10.18267 -68.61247,14.02483 -89.10012,13.3985 -20.48765,-0.62634 -24.76885,-3.09107 -32.15647,-6.86675 z"
     id="path3779"
     inkscape:connector-curvature="0"
     sodipodi:nodetypes="zczzzcczzzzz" />
  <path
     style="fill:#f03916;stroke:none"
     d="m 194.8825,385.92826 c 43.97263,24.0781 90.73543,29.24876 137.84932,27.00144 31.20973,-1.66111 72.1915,-5.19971 96.16297,-17.52724 23.97147,-12.32753 45.94977,-44.52865 45.94977,-44.52865 -2.1385,-67.4495 -9.8636,-110.15872 -53.52915,-157.27142 -5.5598,122.00357 -128.77198,155.81589 -227.85404,144.48127 z"
     id="path3009"
     inkscape:connector-curvature="0"
     sodipodi:nodetypes="cczcccc" />
  <path
     style="fill:#f03916;stroke:none"
     d="m 195.9739,329.14192 c 52.49517,3.8101 105.28848,-4.53798 147.04872,-24.78716 -31.11005,-24.66924 -55.74772,-35.78356 -94.45956,-45.22 -23.72522,21.20267 -37.93643,41.74492 -52.58916,70.00716 z"
     id="path3781"
     inkscape:connector-curvature="0"
     sodipodi:nodetypes="cccc" />
  <path
     style="fill:#f03916;stroke:none"
     d="m 255.13778,251.57229 c 43.54082,8.59386 64.7701,20.24657 98.72071,49.28257 39.14739,-29.47057 53.46795,-61.27669 60.16105,-110.13735 -61.55835,10.44818 -105.15181,23.37907 -158.88176,60.85478 z"
     id="path3783"
     inkscape:connector-curvature="0"
     sodipodi:nodetypes="cccc" />
  <path
     sodipodi:type="arc"
     style="fill:#394050;fill-opacity:1;stroke:none"
     id="path3785"
     sodipodi:cx="282.26746"
     sodipodi:cy="291.86209"
     sodipodi:rx="16.970562"
     sodipodi:ry="17.162321"
     d="m 299.23802,291.86209 a 16.970562,17.162321 0 1 1 -33.94113,0 16.970562,17.162321 0 1 1 33.94113,0 z"
     transform="matrix(3.4936046,0,0,3.4936046,-578.46039,-642.60911)" />
  <path
     sodipodi:type="arc"
     style="fill:#ffffff;fill-opacity:1;stroke:none"
     id="path3785-3"
     sodipodi:cx="282.26746"
     sodipodi:cy="291.86209"
     sodipodi:rx="16.970562"
     sodipodi:ry="17.162321"
     d="m 299.23802,291.86209 a 16.970562,17.162321 0 1 1 -33.94113,0 16.970562,17.162321 0 1 1 33.94113,0 z"
     transform="matrix(2.7909802,0,0,2.7909802,-380.19393,-436.91048)" />
  <path
     sodipodi:type="arc"
     style="fill:#f03916;fill-opacity:1;stroke:none"
     id="path3785-3-6"
     sodipodi:cx="282.26746"
     sodipodi:cy="291.86209"
     sodipodi:rx="16.970562"
     sodipodi:ry="17.162321"
     d="m 299.23802,291.86209 a 16.970562,17.162321 0 1 1 -33.94113,0 16.970562,17.162321 0 1 1 33.94113,0 z"
     transform="matrix(2.0094001,0,0,2.0094001,-159.01577,-208.07441)" />
  <path
     sodipodi:type="arc"
     style="fill:#ffffff;fill-opacity:1;stroke:none"
     id="path3785-3-6-7"
     sodipodi:cx="282.26746"
     sodipodi:cy="291.86209"
     sodipodi:rx="16.970562"
     sodipodi:ry="17.162321"
     d="m 299.23802,291.86209 a 16.970562,17.162321 0 1 1 -33.94113,0 16.970562,17.162321 0 1 1 33.94113,0 z"
     transform="matrix(0.89285696,0,0,0.89285696,156.3849,117.73796)" />
  <path
     style="fill:none;stroke:#323232;stroke-width:20.96162796;stroke-linecap:butt;stroke-linejoin:miter;stroke-miterlimit:4;stroke-opacity:1;stroke-dasharray:none"
     d="m 178.46175,361.87716 c 0,0 -25.89805,4.57879 -36.9493,-19.89579 -11.05125,-24.47459 11.6736,-81.82896 27.0014,-116.05874 15.32781,-34.22978 31.56979,-59.14222 28.53748,-83.68395 -3.03228,-24.54173 -10.1797,-48.364689 -51.73526,-46.399677 -41.55555,1.964978 -42.67158,50.026807 -42.67158,50.026807"
     id="path3843"
     inkscape:connector-curvature="0"
     sodipodi:nodetypes="czzzzc" />
  <path
     style="fill:#394050;stroke:none"
     d="m 195.12359,385.87404 c 0,0 -5.96893,-1.86458 -10.38387,-4.01957 -4.41493,-2.155 -8.70903,-7.36917 -8.70903,-7.36917 l 0.66994,-24.45229 c 0,0 3.13876,-5.61618 7.36916,-8.70904 4.23041,-3.09285 9.72113,-3.38257 9.72113,-3.38257 z"
     id="path3841"
     inkscape:connector-curvature="0"
     sodipodi:nodetypes="czcczcc" />
  <path
     style="fill:none;stroke:#afafaf;stroke-width:24.45523262;stroke-linecap:butt;stroke-linejoin:miter;stroke-miterlimit:4;stroke-opacity:1;stroke-dasharray:none"
     d="m 103.22673,368.73658 0,-227.85404"
     id="path3845"
     inkscape:connector-curvature="0" />
  <path
     style="fill:#ebebeb;stroke:none"
     d="m 114.76817,381.57638 54.93393,14.06846 13.73346,22.4425 -158.10248,0.16734 12.39363,-22.27501 53.84529,-14.40343 z"
     id="path3849"
     inkscape:connector-curvature="0"
     sodipodi:nodetypes="ccccccc" />
  <path
     style="fill:none;stroke:#323232;stroke-width:20.96162796;stroke-linecap:butt;stroke-linejoin:miter;stroke-miterlimit:4;stroke-opacity:1;stroke-dasharray:none"
     d="m 89.87089,371.53244 26.96452,0"
     id="path3847"
     inkscape:connector-curvature="0" />
  <path
     style="fill:#394050;stroke:none"
     d="m 169.36902,395.58947 13.73346,22.4425 L 25,418.19931 37.39363,395.9243 c 0,0 132.21931,-0.079 131.97539,-0.33469 z"
     id="path3849-5"
     inkscape:connector-curvature="0"
     sodipodi:nodetypes="ccccc" />
  <path
     style="fill:none;stroke:#ffffff;stroke-width:3.49360466px;stroke-linecap:butt;stroke-linejoin:miter;stroke-opacity:1"
     d="m 422.40881,251.43049 c 0,0 10.84827,-0.87033 14.73836,-3.01467 3.8901,-2.14434 8.0391,-8.37406 8.0391,-8.37406"
     id="path3869"
     inkscape:connector-curvature="0"
     sodipodi:nodetypes="czc" />
  <path
     style="fill:none;stroke:#ffffff;stroke-width:3.49360466px;stroke-linecap:butt;stroke-linejoin:miter;stroke-opacity:1"
     d="m 424.92102,257.71101 c 0,0 10.84827,-0.87032 14.73837,-3.01466 3.89009,-2.14434 8.0391,-8.37407 8.0391,-8.37407"
     id="path3869-3"
     inkscape:connector-curvature="0"
     sodipodi:nodetypes="czc" />
  <path
     style="fill:none;stroke:#ffffff;stroke-width:3.49360466px;stroke-linecap:butt;stroke-linejoin:miter;stroke-opacity:1"
     d="m 428.52188,264.49405 c 0,0 10.84827,-0.87032 14.73837,-3.01466 3.89009,-2.14434 8.03909,-8.37407 8.03909,-8.37407"
     id="path3869-3-5"
     inkscape:connector-curvature="0"
     sodipodi:nodetypes="czc" />
</svg>
