<?xml version="1.0" encoding="UTF-8" standalone="no"?>
<!-- Generator: Adobe Illustrator 19.0.0, SVG Export Plug-In . SVG Version: 6.00 Build 0)  -->

<svg
   xmlns:dc="http://purl.org/dc/elements/1.1/"
   xmlns:cc="http://creativecommons.org/ns#"
   xmlns:rdf="http://www.w3.org/1999/02/22-rdf-syntax-ns#"
   xmlns:svg="http://www.w3.org/2000/svg"
   xmlns="http://www.w3.org/2000/svg"
   xmlns:sodipodi="http://sodipodi.sourceforge.net/DTD/sodipodi-0.dtd"
   xmlns:inkscape="http://www.inkscape.org/namespaces/inkscape"
   version="1.1"
   id="Layer_1"
   x="0px"
   y="0px"
   viewBox="0 0 500 500"
   xml:space="preserve"
   inkscape:version="0.92.2 (5c3e80d, 2017-08-06)"
   width="100%"
   height="100%"
   sodipodi:docname="system-restart.svg"><metadata
     id="metadata57"><rdf:RDF><cc:Work
         rdf:about=""><dc:format>image/svg+xml</dc:format><dc:type
           rdf:resource="http://purl.org/dc/dcmitype/StillImage" /></cc:Work></rdf:RDF></metadata><defs
     id="defs55" /><sodipodi:namedview
     pagecolor="#ffffff"
     bordercolor="#666666"
     borderopacity="1"
     objecttolerance="10"
     gridtolerance="10"
     guidetolerance="10"
     inkscape:pageopacity="0"
     inkscape:pageshadow="2"
     inkscape:window-width="1366"
     inkscape:window-height="715"
     id="namedview53"
     showgrid="false"
     inkscape:zoom="0.3655742"
     inkscape:cx="109.59946"
     inkscape:cy="361.04225"
     inkscape:window-x="0"
     inkscape:window-y="24"
     inkscape:window-maximized="1"
     inkscape:current-layer="Layer_1" /><g
     id="g23"
     transform="translate(0,39.767)" /><g
     id="g25"
     transform="translate(0,39.767)" /><g
     id="g27"
     transform="translate(0,39.767)" /><g
     id="g29"
     transform="translate(0,39.767)" /><g
     id="g31"
     transform="translate(0,39.767)" /><g
     id="g33"
     transform="translate(0,39.767)" /><g
     id="g35"
     transform="translate(0,39.767)" /><g
     id="g37"
     transform="translate(0,39.767)" /><g
     id="g39"
     transform="translate(0,39.767)" /><g
     id="g41"
     transform="translate(0,39.767)" /><g
     id="g43"
     transform="translate(0,39.767)" /><g
     id="g45"
     transform="translate(0,39.767)" /><g
     id="g47"
     transform="translate(0,39.767)" /><g
     id="g49"
     transform="translate(0,39.767)" /><g
     id="g51"
     transform="translate(0,39.767)" /><g
     id="g843"><path
       inkscape:connector-curvature="0"
       id="path3834"
       d="m 250.00005,56.81858 v 22.727273 c 94.13945,0 170.45455,76.315097 170.45455,170.454557 0,94.13945 -76.3151,170.45454 -170.45455,170.45454 -94.13945,0 -170.454549,-76.31509 -170.454549,-170.45454 0,-5.14953 0.244114,-9.93784 0.710227,-14.91478 l 26.278412,26.27841 h 29.82954 L 68.181864,193.18222 4.5454546e-5,261.36404 H 29.119364 l 28.409091,-27.69886 c -0.595432,5.45716 -0.710227,10.76655 -0.710227,16.33523 0,106.69136 86.490442,193.18182 193.181822,193.18182 106.69136,0 193.18182,-86.49046 193.18182,-193.18182 0,-106.69138 -86.49046,-193.18183 -193.18182,-193.18183 z"
       style="fill:#f03916;fill-opacity:1;stroke:none;stroke-width:22.72727394" /><path
       sodipodi:nodetypes="ccccccsssccssscc"
       id="path3852"
       d="m 238.63598,136.36443 v 113.63636 h 22.72727 V 136.36443 Z m -34.09048,35.51136 c -27.13162,15.72921 -45.45454,44.50663 -45.45454,78.125 0,50.20771 40.70138,90.9091 90.90909,90.9091 50.2077,0 90.90909,-40.70139 90.90909,-90.9091 0,-33.61837 -18.32293,-62.39579 -45.45455,-78.125 v 27.69887 c 13.83878,12.47895 22.72728,30.32459 22.72728,50.42613 0,37.65578 -30.52605,68.18182 -68.18182,68.18182 -37.65578,0 -68.18182,-30.52604 -68.18182,-68.18182 0,-20.10154 8.88851,-37.94718 22.72727,-50.42613 z"
       style="fill:#f03916;fill-opacity:1;stroke:none;stroke-width:22.72727394"
       inkscape:connector-curvature="0" /><rect
       y="-5.9999998e-06"
       x="1.1476169e-13"
       height="500"
       width="500"
       id="rect3890"
       style="fill:#566060;fill-opacity:0;stroke:none;stroke-width:22.72727394" /></g></svg>