<?xml version="1.0" encoding="UTF-8" standalone="no"?>
<!-- Created with Inkscape (http://www.inkscape.org/) -->

<svg
   xmlns:dc="http://purl.org/dc/elements/1.1/"
   xmlns:cc="http://creativecommons.org/ns#"
   xmlns:rdf="http://www.w3.org/1999/02/22-rdf-syntax-ns#"
   xmlns:svg="http://www.w3.org/2000/svg"
   xmlns="http://www.w3.org/2000/svg"
   xmlns:sodipodi="http://sodipodi.sourceforge.net/DTD/sodipodi-0.dtd"
   xmlns:inkscape="http://www.inkscape.org/namespaces/inkscape"
   id="svg2"
   version="1.1"
   inkscape:version="0.91 r13725"
   width="512"
   height="512"
   sodipodi:docname="videocut.svg">
  <metadata
     id="metadata8">
    <rdf:RDF>
      <cc:Work
         rdf:about="">
        <dc:format>image/svg+xml</dc:format>
        <dc:type
           rdf:resource="http://purl.org/dc/dcmitype/StillImage" />
        <dc:title />
      </cc:Work>
    </rdf:RDF>
  </metadata>
  <defs
     id="defs6" />
  <sodipodi:namedview
     pagecolor="#ffffff"
     bordercolor="#666666"
     borderopacity="1"
     objecttolerance="10"
     gridtolerance="10"
     guidetolerance="10"
     inkscape:pageopacity="0"
     inkscape:pageshadow="2"
     inkscape:window-width="1147"
     inkscape:window-height="627"
     id="namedview4"
     showgrid="false"
     inkscape:zoom="0.4609375"
     inkscape:cx="-233.71044"
     inkscape:cy="203.65685"
     inkscape:window-x="15"
     inkscape:window-y="39"
     inkscape:window-maximized="0"
     inkscape:current-layer="svg2" />
  <g
     id="g4205">
    <g
       id="g4171"
       transform="translate(-2.8625785,-533.50905)">
      <rect
         style="fill:#00bbf2;fill-opacity:1;stroke:none"
         id="rect2997-3"
         width="425.30334"
         height="252.7326"
         x="40.794899"
         y="768.32782"
         ry="21.153845" />
      <path
         style="fill:#004455;fill-opacity:1;stroke:none"
         d="m 41.062631,791.71329 433.782559,1.57452 0,-47.23584 -433.782559,0 z"
         id="path2999-6"
         inkscape:connector-curvature="0"
         sodipodi:nodetypes="ccccc" />
      <path
         style="fill:#ffffff;stroke:none"
         d="m 148.80589,792.09094 -43.58122,-0.15497 44.89988,-45.87922 43.55539,0.17348 z"
         id="path3769-7"
         inkscape:connector-curvature="0"
         sodipodi:nodetypes="ccccc" />
      <path
         style="fill:#ffffff;stroke:none"
         d="m 238.54111,792.13985 -43.5812,-0.15496 44.90006,-45.87923 43.55532,0.17349 z"
         id="path3769-3-5"
         inkscape:connector-curvature="0"
         sodipodi:nodetypes="ccccc" />
      <path
         style="fill:#ffffff;stroke:none"
         d="m 329.98989,791.99994 -43.58133,-0.15496 44.89997,-45.87923 43.55532,0.17349 z"
         id="path3769-6-3"
         inkscape:connector-curvature="0"
         sodipodi:nodetypes="ccccc" />
      <path
         style="fill:#ffffff;stroke:none"
         d="m 419.72502,792.04886 -43.58111,-0.15497 44.89997,-45.87922 43.55532,0.17348 z"
         id="path3769-3-7-5"
         inkscape:connector-curvature="0"
         sodipodi:nodetypes="ccccc" />
      <path
         style="fill:#004455;fill-opacity:1;stroke:none"
         d="M 27.41616,702.47407 440.81699,571.0604 454.96342,616.12816 41.091048,746.03958 Z"
         id="path2999-3-6"
         inkscape:connector-curvature="0"
         sodipodi:nodetypes="ccccc" />
      <path
         style="fill:#ffffff;stroke:none"
         d="M 130.10101,669.84625 88.566534,683.04603 145.1457,713.3726 186.64998,700.16289 Z"
         id="path3769-5-2"
         inkscape:connector-curvature="0"
         sodipodi:nodetypes="ccccc" />
      <path
         style="fill:#ffffff;stroke:none"
         d="m 215.70282,642.92522 -41.53445,13.19977 56.57933,30.32652 41.50422,-13.20969 z"
         id="path3769-3-6-9"
         inkscape:connector-curvature="0"
         sodipodi:nodetypes="ccccc" />
      <path
         style="fill:#ffffff;stroke:none"
         d="m 302.9961,615.67116 -41.53458,13.19981 56.57924,30.32654 41.50423,-13.20969 z"
         id="path3769-6-2-1"
         inkscape:connector-curvature="0"
         sodipodi:nodetypes="ccccc" />
      <path
         style="fill:#ffffff;stroke:none"
         d="m 388.59783,588.75015 -41.53438,13.19975 56.57925,30.32654 41.50422,-13.20969 z"
         id="path3769-3-7-9-2"
         inkscape:connector-curvature="0"
         sodipodi:nodetypes="ccccc" />
      <path
         style="fill:#00bbf2;fill-opacity:1;stroke:none"
         d="m 40.837368,792.50388 68.193292,0 c 0,0 9.05758,-28.45342 8.96253,-28.83602 l -35.070817,-62.63752 -42.864349,0.0946 z"
         id="path3861-7"
         inkscape:connector-curvature="0"
         sodipodi:nodetypes="cccccc" />
      <path
         sodipodi:type="arc"
         style="fill:#ffffff;fill-opacity:1;stroke:none"
         id="path3863-0"
         sodipodi:cx="53.826439"
         sodipodi:cy="712.66858"
         sodipodi:rx="6.2348132"
         sodipodi:ry="6.2348132"
         d="m 60.061252,712.66858 a 6.2348132,6.2348132 0 0 1 -6.227495,6.23481 6.2348132,6.2348132 0 0 1 -6.242114,-6.22017 6.2348132,6.2348132 0 0 1 6.212842,-6.24942 6.2348132,6.2348132 0 0 1 6.256698,6.20551"
         sodipodi:start="0"
         sodipodi:end="6.2784904"
         sodipodi:open="true" />
      <path
         sodipodi:type="arc"
         style="fill:#ffffff;fill-opacity:1;stroke:none"
         id="path3863-1-9"
         sodipodi:cx="54.216141"
         sodipodi:cy="778.13409"
         sodipodi:rx="6.2348132"
         sodipodi:ry="6.2348132"
         d="m 60.450954,778.13409 a 6.2348132,6.2348132 0 0 1 -6.227495,6.23481 6.2348132,6.2348132 0 0 1 -6.242114,-6.22017 6.2348132,6.2348132 0 0 1 6.212842,-6.24941 6.2348132,6.2348132 0 0 1 6.256698,6.2055"
         sodipodi:start="0"
         sodipodi:end="6.2784904"
         sodipodi:open="true" />
      <path
         sodipodi:type="arc"
         style="fill:#ffffff;fill-opacity:1;stroke:none"
         id="path3863-2-3"
         sodipodi:cx="100.19794"
         sodipodi:cy="780.08252"
         sodipodi:rx="6.2348132"
         sodipodi:ry="6.2348132"
         d="m 106.43275,780.08252 a 6.2348132,6.2348132 0 0 1 -6.2275,6.23481 6.2348132,6.2348132 0 0 1 -6.242109,-6.22017 6.2348132,6.2348132 0 0 1 6.212839,-6.24942 6.2348132,6.2348132 0 0 1 6.2567,6.20551"
         sodipodi:start="0"
         sodipodi:end="6.2784904"
         sodipodi:open="true" />
    </g>
    <path
       inkscape:connector-curvature="0"
       id="path3363"
       d="m 115.43339,325.52158 c 0.82591,-9.44157 6.34779,-17.36754 15.98261,-22.94104 4.30469,-2.49015 6.85322,-3.21324 13.7612,-3.90444 7.65353,-0.76582 9.16422,-0.58706 15.5328,1.8379 8.22073,3.13019 14.53619,9.00437 17.23344,16.02929 2.28217,5.94384 2.35744,15.88816 0.1621,21.41442 -0.95301,2.399 -1.69359,4.77904 -1.64571,5.28899 0.13951,1.48611 6.79482,3.06627 24.18489,5.74218 8.94453,1.37634 19.3248,3.30164 23.06724,4.27844 l 6.80445,1.77601 7.98895,-4.67927 c 4.39393,-2.57359 13.56908,-7.82787 20.38924,-11.67617 12.2506,-6.91244 19.81405,-11.3968 53.28058,-31.58999 9.41047,-5.67813 19.95754,-11.28536 23.43794,-12.46051 8.92247,-3.01265 18.28193,-2.98258 26.46773,0.0851 6.14431,2.30259 11.95393,5.67292 11.20434,6.49995 -0.19605,0.2163 -19.57035,12.37826 -43.054,27.02657 -23.48365,14.64832 -46.26704,28.99932 -50.62977,31.89113 l -7.93222,5.25783 3.16551,1.27774 c 7.34204,2.96358 37.79007,11.92635 76.45278,22.50487 41.37221,11.31988 68.1281,19.19839 69.74717,20.5377 1.3599,1.12493 -4.54409,7.37894 -10.29619,10.9066 -6.50041,3.98659 -19.82127,6.13791 -28.7412,4.64171 -3.07084,-0.5151 -26.22487,-6.56587 -51.45341,-13.44618 -38.9394,-10.61951 -79.90727,-21.37157 -92.38322,-24.24607 -2.8918,-0.66627 -4.2121,-0.2351 -10.71972,3.50078 -4.08194,2.34335 -13.92187,7.23809 -21.8665,10.87722 -7.94464,3.63911 -15.61815,7.35777 -17.05226,8.26369 -2.97019,1.87627 -3.16115,5.04485 -0.45353,7.52524 2.90719,2.66322 5.1396,8.57958 5.81789,15.41865 1.15174,11.61242 -4.46635,21.68031 -15.70514,28.14455 -7.84594,4.51276 -19.49659,5.69302 -27.75423,2.81161 -12.38151,-4.32038 -19.34477,-12.81235 -20.49894,-24.99925 -1.07668,-11.37243 4.88161,-23.733 14.38191,-29.83386 1.58774,-1.01961 9.82489,-4.09946 18.30478,-6.84411 24.28016,-7.85867 33.31414,-12.55911 44.48175,-23.14409 l 5.75692,-5.45656 -3.14959,-2.12123 c -4.66533,-3.14207 -21.00319,-9.04283 -28.00556,-10.11481 -3.36284,-0.51481 -13.59541,-1.18641 -22.73904,-1.49245 -19.54819,-0.65428 -26.65682,-2.64288 -33.92908,-9.49149 -6.49279,-6.11451 -10.37038,-16.25469 -9.59691,-25.09662 z m 18.16743,14.60048 c 5.1736,5.38278 11.31685,7.44383 18.79004,6.30399 7.40974,-1.13017 10.49743,-3.49538 13.18878,-10.10283 3.35557,-8.23815 -0.40327,-17.82763 -8.90131,-22.70888 -9.46641,-5.43748 -24.03271,-0.33055 -27.38703,9.60186 -0.38533,1.14101 -0.3235,4.63111 0.1374,7.75576 0.67143,4.55183 1.50079,6.37077 4.17212,9.1501 z m 12.58131,105.63014 c 11.88741,14.50332 35.62501,4.89095 33.87795,-13.71865 -1.51251,-16.11123 -19.29829,-21.20608 -31.33971,-8.97744 -6.28058,6.37821 -7.43708,16.71924 -2.53824,22.69609 z m 83.43755,-71.18876 c 1.198,0.99236 2.85023,1.74121 3.67162,1.6641 1.83895,-0.17264 5.14635,-4.02466 4.97971,-5.79971 -0.4,-4.26069 -6.53718,-6.17583 -9.25946,-2.88946 -2.32837,2.81084 -2.16222,4.73023 0.60808,7.02507 z"
       style="fill:#ffffff;fill-opacity:1" />
  </g>
</svg>
