<?xml version="1.0" encoding="UTF-8" standalone="no"?>
<!-- Generator: flash2svg, http://dissentgraphics.com/tools/flash2svg -->

<svg
   xmlns:dc="http://purl.org/dc/elements/1.1/"
   xmlns:cc="http://creativecommons.org/ns#"
   xmlns:rdf="http://www.w3.org/1999/02/22-rdf-syntax-ns#"
   xmlns:svg="http://www.w3.org/2000/svg"
   xmlns="http://www.w3.org/2000/svg"
   xmlns:sodipodi="http://sodipodi.sourceforge.net/DTD/sodipodi-0.dtd"
   xmlns:inkscape="http://www.inkscape.org/namespaces/inkscape"
   id="VMWare-Fusion-app"
   image-rendering="optimizeSpeed"
   version="1.1"
   x="0px"
   y="0px"
   width="500"
   height="500"
   viewBox="0 0 500 500"
   enable-background="new 0 0 1024 1024"
   inkscape:version="0.91 r13725"
   sodipodi:docname="wallch.svg">
  <metadata
     id="metadata20">
    <rdf:RDF>
      <cc:Work
         rdf:about="">
        <dc:format>image/svg+xml</dc:format>
        <dc:type
           rdf:resource="http://purl.org/dc/dcmitype/StillImage" />
        <dc:title />
      </cc:Work>
    </rdf:RDF>
  </metadata>
  <sodipodi:namedview
     pagecolor="#ffffff"
     bordercolor="#666666"
     borderopacity="1"
     objecttolerance="10"
     gridtolerance="10"
     guidetolerance="10"
     inkscape:pageopacity="0"
     inkscape:pageshadow="2"
     inkscape:window-width="1366"
     inkscape:window-height="715"
     id="namedview18"
     showgrid="false"
     inkscape:zoom="0.546"
     inkscape:cx="296.71717"
     inkscape:cy="295.31348"
     inkscape:window-x="0"
     inkscape:window-y="24"
     inkscape:window-maximized="1"
     inkscape:current-layer="VMWare-Fusion-app" />
  <defs
     transform="matrix(1 0 0 1 0 0) "
     id="defs3" />
  <g
     id="g4136">
    <path
       transform="matrix(3.2309131,0,0,3.1983596,-702.92226,-691.08686)"
       d="m 364.51356,294.40869 a 69.473244,70.180351 0 1 1 -138.94649,0 69.473244,70.180351 0 1 1 138.94649,0 z"
       sodipodi:ry="70.180351"
       sodipodi:rx="69.473244"
       sodipodi:cy="294.40869"
       sodipodi:cx="295.04031"
       id="path2998"
       style="fill:#b3b3b3;fill-opacity:1;stroke:none"
       sodipodi:type="arc" />
    <path
       sodipodi:nodetypes="czcszsc"
       inkscape:connector-curvature="0"
       id="path3768"
       d="m 28.345305,280.32173 c 0,0 98.837225,59.98425 210.798145,54.55952 111.96095,-5.42472 234.82296,-64.63443 234.82296,-64.63443 0,0 10.0403,-72.54535 -32.46481,-138.72313 C 403.50439,72.364489 353.82077,26.361075 249.68337,26.123985 145.54601,25.886895 74.076285,93.191055 46.536375,156.02305 13.445415,231.51973 28.345305,280.32173 28.345305,280.32173 z"
       style="fill:#ebebeb;stroke:none;fill-opacity:1" />
    <path
       sodipodi:nodetypes="szcccczczczczczczczczczczczs"
       inkscape:connector-curvature="0"
       id="path3770"
       d="m 232.65954,474.23929 c -0.89542,0.1922 19.99354,-54.592 24.61496,-87.2785 4.62143,-32.68651 4.95995,-54.55949 4.95995,-54.55949 l -10.5399,-3.1 1.23998,-27.89975 -10.53989,-13.63989 c 0,0 -41.91674,10.19896 -70.67937,24.79979 -28.76267,14.60084 -60.13948,39.67966 -60.13948,39.67966 0,0 14.52511,-48.86173 37.19967,-73.15936 22.67456,-24.29762 55.7995,-52.69954 55.7995,-52.69954 0,0 -35.20557,9.37929 -50.21955,12.39988 -15.01398,3.02059 -39.67966,6.19995 -39.67966,6.19995 0,0 31.73521,-33.81993 47.7396,-44.01959 16.00435,-10.19966 45.25961,-18.59983 45.25961,-18.59983 0,0 -1.01545,-17.52396 -3.1,-24.17982 -2.08455,-6.65586 -8.0599,-15.49984 -8.0599,-15.49984 0,0 26.63736,-22.10645 47.73956,-30.37974 21.1022,-8.27328 78.1193,-14.259892 78.1193,-14.259892 0,0 1.65797,11.617102 3.71997,17.359852 2.062,5.74276 8.67995,16.73985 8.67995,16.73985 0,0 25.92575,-5.0888 37.81967,-6.81992 11.89393,-1.73113 33.4797,-3.71997 33.4797,-3.71997 0,0 -18.20976,24.43153 -27.89975,33.4797 -9.68999,9.04817 -29.13976,21.07982 -29.13976,21.07982 0,0 17.14258,56.06219 34.09971,83.69925 16.95712,27.63706 72.36423,82.35613 72.36423,82.35613 0,0 -23.16732,59.83963 -88.48408,99.92227 -65.31676,40.08264 -134.35402,32.09898 -134.35402,32.09898 z"
       style="fill:#394050;stroke:none" />
    <path
       transform="matrix(2.4666155,0,0,2.5800229,-19.003095,-450.68709)"
       d="m 111.25,258.9375 a 5.6875,5.4375 0 1 1 -11.375,0 5.6875,5.4375 0 1 1 11.375,0 z"
       sodipodi:ry="5.4375"
       sodipodi:rx="5.6875"
       sodipodi:cy="258.9375"
       sodipodi:cx="105.5625"
       id="path3772"
       style="fill:#ffffff;fill-opacity:1;stroke:none"
       sodipodi:type="arc" />
  </g>
</svg>
