<?xml version="1.0" encoding="UTF-8" standalone="no"?>
<svg
   xmlns:dc="http://purl.org/dc/elements/1.1/"
   xmlns:cc="http://creativecommons.org/ns#"
   xmlns:rdf="http://www.w3.org/1999/02/22-rdf-syntax-ns#"
   xmlns:svg="http://www.w3.org/2000/svg"
   xmlns="http://www.w3.org/2000/svg"
   xmlns:sodipodi="http://sodipodi.sourceforge.net/DTD/sodipodi-0.dtd"
   xmlns:inkscape="http://www.inkscape.org/namespaces/inkscape"
   viewBox="0 0 500 500"
   id="svg2"
   version="1.1"
   inkscape:version="0.91 r13725"
   width="100%"
   height="100%"
   sodipodi:docname="gmail-offline.svg">
  <metadata
     id="metadata81">
    <rdf:RDF>
      <cc:Work
         rdf:about="">
        <dc:format>image/svg+xml</dc:format>
        <dc:type
           rdf:resource="http://purl.org/dc/dcmitype/StillImage" />
        <dc:title />
      </cc:Work>
    </rdf:RDF>
  </metadata>
  <sodipodi:namedview
     pagecolor="#ffffff"
     bordercolor="#666666"
     borderopacity="1"
     objecttolerance="10"
     gridtolerance="10"
     guidetolerance="10"
     inkscape:pageopacity="0"
     inkscape:pageshadow="2"
     inkscape:window-width="1366"
     inkscape:window-height="715"
     id="namedview79"
     showgrid="false"
     inkscape:zoom="0.86915208"
     inkscape:cx="177.10942"
     inkscape:cy="261.20226"
     inkscape:window-x="0"
     inkscape:window-y="24"
     inkscape:window-maximized="1"
     inkscape:current-layer="svg2" />
  <defs
     id="defs4">
    <linearGradient
       id="linearGradient3764"
       x1="1"
       x2="47"
       gradientUnits="userSpaceOnUse"
       gradientTransform="matrix(0,-1,1,0,-1.5e-6,47.999998)">
      <stop
         stop-color="#cfcfcf"
         stop-opacity="1"
         id="stop7" />
      <stop
         offset="1"
         stop-color="#d9d9d9"
         stop-opacity="1"
         id="stop9" />
    </linearGradient>
    <clipPath
       id="clipPath-452906972">
      <g
         transform="translate(0,-1004.3622)"
         id="g12">
        <path
           d="m -24,13 c 0,1.105 -0.672,2 -1.5,2 -0.828,0 -1.5,-0.895 -1.5,-2 0,-1.105 0.672,-2 1.5,-2 0.828,0 1.5,0.895 1.5,2 z"
           transform="matrix(15.333333,0,0,11.5,414.99999,878.8622)"
           id="path14"
           inkscape:connector-curvature="0"
           style="fill:#1890d0" />
      </g>
    </clipPath>
    <clipPath
       id="clipPath-458231625">
      <g
         transform="translate(0,-1004.3622)"
         id="g17">
        <path
           d="m -24,13 c 0,1.105 -0.672,2 -1.5,2 -0.828,0 -1.5,-0.895 -1.5,-2 0,-1.105 0.672,-2 1.5,-2 0.828,0 1.5,0.895 1.5,2 z"
           transform="matrix(15.333333,0,0,11.5,414.99999,878.8622)"
           id="path19"
           inkscape:connector-curvature="0"
           style="fill:#1890d0" />
      </g>
    </clipPath>
  </defs>
  <g
     id="g33"
     transform="translate(0,452)" />
  <g
     id="g4155">
    <path
       d="m 42.030771,98.46154 415.903839,0 c 9.39808,0 16.90961,7.63269 16.90961,17.03077 l 0,277.4423 c 0,9.39808 -7.58076,16.90962 -16.90961,16.90962 l -415.903839,0 c -9.467308,0 -17.030769,-7.58077 -17.030769,-16.90962 l 0,-277.4423 c 0,-9.39808 7.580769,-17.03077 17.030769,-17.03077 m 0,0"
       id="path63"
       inkscape:connector-curvature="0"
       style="fill:#ebebeb;fill-opacity:1;fill-rule:nonzero;stroke:none" />
    <path
       d="M 474.99999,133.07692 250,282.89231 440.38461,410 l 17.30769,0 c 9.46731,0 17.30769,-7.84039 17.30769,-17.3077 m 0,-259.61538"
       id="path65"
       inkscape:connector-curvature="0"
       style="fill:#b3b3b3;fill-opacity:1;fill-rule:nonzero;stroke:none" />
    <path
       d="m 440.38461,98.46154 0,311.53846 17.30769,0 c 9.46731,0 17.30769,-7.84039 17.30769,-17.3077 l 0,-276.92307 c 0,-9.39807 -7.84038,-17.238459 -17.30769,-17.238459 m -17.30769,0"
       id="path67"
       inkscape:connector-curvature="0"
       style="fill:#004455;fill-opacity:1;fill-rule:nonzero;stroke:none" />
    <path
       d="m 42.307694,98.46154 c -9.398077,0 -17.238461,7.84038 -17.238461,17.23846 l 0,276.92307 c 0,9.46731 7.840384,17.3077 17.238461,17.3077 l 17.307692,0 0,-311.538461 m -17.307692,0"
       id="path69"
       inkscape:connector-curvature="0"
       style="fill:#00bbf2;fill-opacity:1;fill-rule:nonzero;stroke:none" />
    <path
       d="m 42.307694,98.46154 c -9.398077,0 -17.238461,7.84038 -17.238461,17.23846 l 0,17.30769 224.999997,149.81539 0,-57.34039 -190.384613,-127.107688 -17.307692,0 m -0.06923,0.06923"
       id="path71"
       inkscape:connector-curvature="0"
       style="fill:#00bbf2;fill-opacity:1;fill-rule:nonzero;stroke:none" />
    <path
       d="m 457.6923,98.46154 c 9.46731,0 17.30769,7.84038 17.30769,17.23846 l 0,17.30769 L 250,282.82308 l 0,-57.34039 190.31538,-127.107688 17.30769,0 m 0.0692,0.06923"
       id="path73"
       inkscape:connector-curvature="0"
       style="fill:#00bbf2;fill-opacity:1;fill-rule:nonzero;stroke:none" />
  </g>
</svg>
