<?xml version="1.0" encoding="UTF-8" standalone="no"?>
<!-- Created with Inkscape (http://www.inkscape.org/) -->

<svg
   xmlns:dc="http://purl.org/dc/elements/1.1/"
   xmlns:cc="http://creativecommons.org/ns#"
   xmlns:rdf="http://www.w3.org/1999/02/22-rdf-syntax-ns#"
   xmlns:svg="http://www.w3.org/2000/svg"
   xmlns="http://www.w3.org/2000/svg"
   xmlns:sodipodi="http://sodipodi.sourceforge.net/DTD/sodipodi-0.dtd"
   xmlns:inkscape="http://www.inkscape.org/namespaces/inkscape"
   version="1.1"
   width="360"
   height="360"
   id="svg2"
   inkscape:version="0.91 r13725"
   sodipodi:docname="web-google-slides.svg">
  <sodipodi:namedview
     pagecolor="#ffffff"
     bordercolor="#666666"
     borderopacity="1"
     objecttolerance="10"
     gridtolerance="10"
     guidetolerance="10"
     inkscape:pageopacity="0"
     inkscape:pageshadow="2"
     inkscape:window-width="1366"
     inkscape:window-height="715"
     id="namedview6"
     showgrid="false"
     inkscape:zoom="0.5"
     inkscape:cx="537.43481"
     inkscape:cy="180.66193"
     inkscape:window-x="0"
     inkscape:window-y="24"
     inkscape:window-maximized="1"
     inkscape:current-layer="svg2"
     showguides="true"
     inkscape:guide-bbox="true" />
  <metadata
     id="metadata8">
    <rdf:RDF>
      <cc:Work
         rdf:about="">
        <dc:format>image/svg+xml</dc:format>
        <dc:type
           rdf:resource="http://purl.org/dc/dcmitype/StillImage" />
        <dc:title />
      </cc:Work>
    </rdf:RDF>
  </metadata>
  <defs
     id="defs6" />
  <g
     id="g3357">
    <path
       id="rect3017"
       d="m 63.46875,20.09375 c -7.78481,0 -14.03125,6.277686 -14.03125,14.0625 l 0,289.1875 c 0,7.78481 6.24644,14.03125 14.03125,14.03125 l 235.8125,0 c 7.78481,0 14.03125,-6.24644 14.03125,-14.03125 l 0,-226.375 -8.28125,-8.1875 -44.75,-44.375 -24.5,-24.28125 -0.0312,-0.03125 -172.28125,0 z"
       style="fill:#f5b911;fill-opacity:1;fill-rule:evenodd;stroke:none"
       inkscape:connector-curvature="0" />
    <path
       sodipodi:nodetypes="cccc"
       inkscape:connector-curvature="0"
       d="m 235.69845,96.807047 77.63081,0.132387 -77.57553,-76.844438 z"
       style="fill:#fadc87;fill-opacity:1;stroke:none"
       inkscape:label="Triangle"
       id="path3800" />
    <path
       sodipodi:nodetypes="cccc"
       inkscape:connector-curvature="0"
       d="m 313.32503,96.936654 -0.0278,77.503756 -77.60354,-77.635631 z"
       style="opacity:0.79032258;fill:#daa108;fill-opacity:1;stroke:none"
       inkscape:label="Triangle"
       id="path3800-6" />
    <path
       inkscape:connector-curvature="0"
       id="rect3351"
       d="M 120.65294,148 C 110.31921,148 102,156.31921 102,166.65294 l 0,106.58824 c 0,10.33373 8.31921,18.65294 18.65294,18.65294 l 113.69412,0 c 10.33373,0 18.65294,-8.31921 18.65294,-18.65294 l 0,-106.58824 C 253,156.31921 244.68079,148 234.34706,148 l -113.69412,0 z m -3.29272,42.63529 120.81735,0 0,60.4 -120.81735,0 0,-60.4 z"
       style="fill:#ffffff;fill-opacity:1;stroke:none;stroke-width:35;stroke-linecap:round;stroke-miterlimit:4;stroke-dasharray:none;stroke-opacity:1" />
  </g>
</svg>
