<?xml version="1.0" encoding="UTF-8" standalone="no"?>
<!-- Created with Inkscape (http://www.inkscape.org/) -->

<svg
   xmlns:dc="http://purl.org/dc/elements/1.1/"
   xmlns:cc="http://creativecommons.org/ns#"
   xmlns:rdf="http://www.w3.org/1999/02/22-rdf-syntax-ns#"
   xmlns:svg="http://www.w3.org/2000/svg"
   xmlns="http://www.w3.org/2000/svg"
   xmlns:sodipodi="http://sodipodi.sourceforge.net/DTD/sodipodi-0.dtd"
   xmlns:inkscape="http://www.inkscape.org/namespaces/inkscape"
   width="512"
   height="512"
   id="svg2"
   version="1.1"
   inkscape:version="0.91 r13725"
   sodipodi:docname="webhttrack.svg">
  <defs
     id="defs4" />
  <sodipodi:namedview
     id="base"
     pagecolor="#ffffff"
     bordercolor="#666666"
     borderopacity="1.0"
     inkscape:pageopacity="0.0"
     inkscape:pageshadow="2"
     inkscape:zoom="0.49497476"
     inkscape:cx="423.33308"
     inkscape:cy="84.31359"
     inkscape:document-units="px"
     inkscape:current-layer="layer1"
     showgrid="false"
     inkscape:window-width="1366"
     inkscape:window-height="715"
     inkscape:window-x="0"
     inkscape:window-y="24"
     inkscape:window-maximized="1" />
  <metadata
     id="metadata7">
    <rdf:RDF>
      <cc:Work
         rdf:about="">
        <dc:format>image/svg+xml</dc:format>
        <dc:type
           rdf:resource="http://purl.org/dc/dcmitype/StillImage" />
        <dc:title />
      </cc:Work>
    </rdf:RDF>
  </metadata>
  <g
     inkscape:label="Layer 1"
     inkscape:groupmode="layer"
     id="layer1"
     transform="translate(0,-540.36218)">
    <g
       id="g3373">
      <g
         transform="translate(0,58.588846)"
         id="g3338">
        <path
           style="fill:#ffb800;stroke:none"
           d="m 474.27291,977.17693 -0.23755,-315.78534 -2.37552,-5.30533 -5.06778,-2.61306 -226.4953,-0.71429 -30.56499,-29.85232 -176.788213,0.47673 -5.14695,7.52247 -2.53389,346.42952 z"
           id="path2996"
           inkscape:connector-curvature="0"
           sodipodi:nodetypes="cccccccccc" />
        <path
           style="fill:#faec6d;stroke:none"
           d="m 474.26108,977.17666 -0.0886,-323.90168 -234.06175,-0.44793 -14.33381,9.40657 -194.242833,-0.22401 -4.2553,7.61486 -2.09879,307.7377 z"
           id="path3766"
           inkscape:connector-curvature="0"
           sodipodi:nodetypes="cccccccc" />
        <path
           style="fill:none;stroke:#ffb800;stroke-width:2.50841761px;stroke-linecap:round;stroke-linejoin:miter;stroke-opacity:1"
           d="m 31.555797,965.61608 442.147233,0.0808"
           id="path3768"
           inkscape:connector-curvature="0"
           sodipodi:nodetypes="cc" />
        <path
           style="fill:none;stroke:#ffb800;stroke-width:2.50841761px;stroke-linecap:round;stroke-linejoin:miter;stroke-opacity:1"
           d="m 25.527117,957.2245 448.218673,0.43795"
           id="path3768-3"
           inkscape:connector-curvature="0"
           sodipodi:nodetypes="cc" />
      </g>
      <path
         inkscape:connector-curvature="0"
         id="path2982"
         d="m 408.15226,899.47369 c 57.00501,-63.31873 97.2994,-109.75523 96.19572,-110.85891 -1.04459,-1.04461 -25.4948,-2.15798 -54.33374,-2.47417 l -52.43448,-0.57488 -1.07148,-113.5768 -1.07148,-113.57677 -88.93276,0 -88.93277,0 -1.07148,113.57677 -1.0715,113.5768 -53.57391,1.07148 c -34.76371,0.69525 -53.57398,1.84929 -53.57398,3.28684 0,4.29526 194.94229,219.47245 198.39306,218.98625 1.8611,-0.2624 47.52658,-49.50879 101.4788,-109.43661 z"
         style="fill:#00bbf2;fill-opacity:1" />
      <g
         id="flowRoot3350"
         style="font-style:normal;font-weight:normal;font-size:40px;line-height:125%;font-family:sans-serif;letter-spacing:0px;word-spacing:0px;fill:#000000;fill-opacity:1;stroke:none;stroke-width:1px;stroke-linecap:butt;stroke-linejoin:miter;stroke-opacity:1"
         transform="matrix(0,-2.6327926,2.6327926,0,-498.24931,1391.3585)">
        <path
           inkscape:connector-curvature="0"
           id="path3359"
           style="font-style:normal;font-variant:normal;font-weight:bold;font-stretch:normal;font-family:sans-serif;-inkscape-font-specification:'sans-serif Bold';fill:#ffffff"
           d="m 195.05664,306.21372 0,13.32031 -7.03125,0 0,-2.16797 0,-7.98828 q 0,-2.87109 -0.13672,-3.94531 -0.11719,-1.07422 -0.42969,-1.58203 -0.41015,-0.6836 -1.11328,-1.05469 -0.70312,-0.39063 -1.60156,-0.39063 -2.1875,0 -3.4375,1.69922 -1.25,1.67969 -1.25,4.66797 l 0,10.76172 -6.99219,0 0,-30.39063 6.99219,0 0,11.71875 q 1.58203,-1.91406 3.35938,-2.8125 1.77734,-0.91796 3.92578,-0.91796 3.78906,0 5.74218,2.32421 1.97266,2.32422 1.97266,6.75782 z" />
        <path
           inkscape:connector-curvature="0"
           id="path3361"
           style="font-style:normal;font-variant:normal;font-weight:bold;font-stretch:normal;font-family:sans-serif;-inkscape-font-specification:'sans-serif Bold';fill:#ffffff"
           d="m 209.2168,291.44809 0,6.21094 7.20703,0 0,5 -7.20703,0 0,9.27734 q 0,1.52344 0.60547,2.07032 0.60546,0.52734 2.40234,0.52734 l 3.59375,0 0,5 -5.99609,0 q -4.14063,0 -5.87891,-1.71875 -1.71875,-1.73828 -1.71875,-5.87891 l 0,-9.27734 -3.47656,0 0,-5 3.47656,0 0,-6.21094 6.99219,0 z" />
        <path
           inkscape:connector-curvature="0"
           id="path3363"
           style="font-style:normal;font-variant:normal;font-weight:bold;font-stretch:normal;font-family:sans-serif;-inkscape-font-specification:'sans-serif Bold';fill:#ffffff"
           d="m 228.35742,291.44809 0,6.21094 7.20703,0 0,5 -7.20703,0 0,9.27734 q 0,1.52344 0.60547,2.07032 0.60547,0.52734 2.40234,0.52734 l 3.59375,0 0,5 -5.99609,0 q -4.14062,0 -5.87891,-1.71875 -1.71875,-1.73828 -1.71875,-5.87891 l 0,-9.27734 -3.47656,0 0,-5 3.47656,0 0,-6.21094 6.99219,0 z" />
        <path
           inkscape:connector-curvature="0"
           id="path3365"
           style="font-style:normal;font-variant:normal;font-weight:bold;font-stretch:normal;font-family:sans-serif;-inkscape-font-specification:'sans-serif Bold';fill:#ffffff"
           d="m 246.85352,316.36997 0,11.48437 -6.99219,0 0,-30.19531 6.99219,0 0,3.20312 q 1.44531,-1.91406 3.20312,-2.8125 1.75781,-0.91796 4.04297,-0.91796 4.04297,0 6.64062,3.22265 2.59766,3.20313 2.59766,8.26172 0,5.05859 -2.59766,8.28125 -2.59765,3.20313 -6.64062,3.20313 -2.28516,0 -4.04297,-0.89844 -1.75781,-0.91797 -3.20312,-2.83203 z m 4.64843,-14.16016 q -2.24609,0 -3.45703,1.66016 -1.1914,1.64062 -1.1914,4.74609 0,3.10547 1.1914,4.76563 1.21094,1.64062 3.45703,1.64062 2.2461,0 3.41797,-1.64062 1.19141,-1.64063 1.19141,-4.76563 0,-3.125 -1.19141,-4.76562 -1.17187,-1.64063 -3.41797,-1.64063 z" />
        <path
           inkscape:connector-curvature="0"
           id="path3367"
           style="font-style:normal;font-variant:normal;font-weight:bold;font-stretch:normal;font-family:sans-serif;-inkscape-font-specification:'sans-serif Bold';fill:#ffffff"
           d="m 269.64648,297.65903 7.05079,0 0,7.55859 -7.05079,0 0,-7.55859 z m 0,14.31641 7.05079,0 0,7.55859 -7.05079,0 0,-7.55859 z" />
        <path
           inkscape:connector-curvature="0"
           id="path3369"
           style="font-style:normal;font-variant:normal;font-weight:bold;font-stretch:normal;font-family:sans-serif;-inkscape-font-specification:'sans-serif Bold';fill:#ffffff"
           d="m 291.46289,290.37387 4.33594,0 -10.29297,32.8711 -4.31641,0 10.27344,-32.8711 z" />
        <path
           inkscape:connector-curvature="0"
           id="path3371"
           style="font-style:normal;font-variant:normal;font-weight:bold;font-stretch:normal;font-family:sans-serif;-inkscape-font-specification:'sans-serif Bold';fill:#ffffff"
           d="m 306.07227,290.37387 4.33593,0 -10.29297,32.8711 -4.3164,0 10.27344,-32.8711 z" />
      </g>
    </g>
  </g>
</svg>
