<?xml version="1.0" encoding="UTF-8" standalone="no"?>
<!-- Created with Inkscape (http://www.inkscape.org/) -->

<svg
   xmlns:dc="http://purl.org/dc/elements/1.1/"
   xmlns:cc="http://creativecommons.org/ns#"
   xmlns:rdf="http://www.w3.org/1999/02/22-rdf-syntax-ns#"
   xmlns:svg="http://www.w3.org/2000/svg"
   xmlns="http://www.w3.org/2000/svg"
   xmlns:sodipodi="http://sodipodi.sourceforge.net/DTD/sodipodi-0.dtd"
   xmlns:inkscape="http://www.inkscape.org/namespaces/inkscape"
   id="svg2"
   version="1.1"
   inkscape:version="0.91 r13725"
   xml:space="preserve"
   width="512"
   height="512"
   viewBox="0 0 512 512"
   sodipodi:docname="wine-java1.svg"><metadata
     id="metadata8"><rdf:RDF><cc:Work
         rdf:about=""><dc:format>image/svg+xml</dc:format><dc:type
           rdf:resource="http://purl.org/dc/dcmitype/StillImage" /><dc:title /></cc:Work></rdf:RDF></metadata><defs
     id="defs6"><clipPath
       clipPathUnits="userSpaceOnUse"
       id="clipPath16"><path
         d="m 0,0 656.967,0 0,490.475 L 0,490.475 0,0 Z"
         id="path18"
         inkscape:connector-curvature="0" /></clipPath><linearGradient
       x1="0"
       y1="0"
       x2="1"
       y2="0"
       gradientUnits="userSpaceOnUse"
       gradientTransform="matrix(-6.31e-5,1444.0616,-1444.0616,-6.31e-5,328.48291,-628.00391)"
       spreadMethod="pad"
       id="linearGradient24"><stop
         style="stop-opacity:1;stop-color:#ffffff"
         offset="0"
         id="stop26" /><stop
         style="stop-opacity:1;stop-color:#ffffff"
         offset="0.05086908"
         id="stop28" /><stop
         style="stop-opacity:1;stop-color:#f87d32"
         offset="0.460674"
         id="stop30" /><stop
         style="stop-opacity:1;stop-color:#ff1200"
         offset="1"
         id="stop32" /></linearGradient><clipPath
       clipPathUnits="userSpaceOnUse"
       id="clipPath40"><path
         d="m 0,490.475 656.967,0 L 656.967,0 0,0 0,490.475 Z"
         id="path42"
         inkscape:connector-curvature="0" /></clipPath></defs><sodipodi:namedview
     pagecolor="#ffffff"
     bordercolor="#666666"
     borderopacity="1"
     objecttolerance="10"
     gridtolerance="10"
     guidetolerance="10"
     inkscape:pageopacity="0"
     inkscape:pageshadow="2"
     inkscape:window-width="1366"
     inkscape:window-height="715"
     id="namedview4"
     showgrid="false"
     inkscape:zoom="0.5"
     inkscape:cx="179.55958"
     inkscape:cy="280.85963"
     inkscape:window-x="0"
     inkscape:window-y="24"
     inkscape:window-maximized="1"
     inkscape:current-layer="g36" /><g
     id="g10"
     inkscape:groupmode="layer"
     inkscape:label="FreeVector-Wine-Glass-Icon"
     transform="matrix(1.25,0,0,-1.25,0,512)"><g
       id="g36"
       transform="matrix(0.7234644,0,0,0.7234644,-34.605998,21.311566)"><g
         id="g4162"><g
           style="fill:#f03916"
           id="g44"
           transform="matrix(1.0176645,0.4191149,-0.4191149,1.0176645,460.84555,411.26026)"><path
             d="m 0,0 c 9.067,-66.741 -61.878,-98.854 -130.405,-82.552 -37.209,8.852 -60.527,47.425 -47.855,89.73 C -117.202,28.167 -65.639,-14.318 0,0"
             style="fill:#f03916;fill-opacity:1;fill-rule:evenodd;stroke:none"
             id="path46"
             inkscape:connector-curvature="0" /></g><path
           inkscape:connector-curvature="0"
           id="path50"
           style="fill:#394050;fill-opacity:1;fill-rule:nonzero;stroke:none"
           d="m 481.49081,411.26235 c -17.74359,35.61848 -42.90163,64.33881 -70.62658,91.03191 -2.78961,2.68976 -8.1522,-0.79474 -12.77582,-2.50135 22.62831,-29.71933 57.63575,-57.52322 73.75135,-95.26668 25.60233,-59.96056 -8.15432,-105.53962 -63.65384,-131.37579 -57.59862,-20.74217 -113.66105,-12.15418 -137.71042,48.44594 -15.13864,38.14582 -9.8659,82.53869 -14.72884,119.57451 -4.48448,-2.04447 -10.74667,-3.34752 -10.83298,-7.2217 -0.88465,-38.47568 1.47872,-76.58376 13.96607,-114.36697 2.66502,-8.06635 6.33545,-18.02775 10.6954,-25.96978 C 298.5215,240.88166 357.33783,258.7509 398.1814,236.12271 422.49438,222.65644 482.14464,80.075178 483.95016,54.682755 485.34255,35.148916 464.13934,20.602106 445.76172,9.9601815 439.06136,6.0794725 426.5365,3.520789 426.25087,-6.3606543 c 21.65466,3.9131597 53.99968,15.6082163 85.25945,28.6262623 31.36119,12.77177 62.56119,27.247086 80.6911,39.718804 -7.16062,6.81478 -17.85581,-0.189481 -25.34577,-2.15291 -20.54194,-5.386706 -45.83888,-9.990514 -58.60773,4.858041 -16.60033,19.29933 -74.65998,162.535667 -66.88192,189.218307 13.0611,44.82829 67.40397,73.56253 50.8202,131.38472 -2.49863,8.70858 -6.90687,18.36613 -10.69539,25.96978" /><g
           transform="matrix(0.66373144,0,0,0.66373144,64.175701,77.85306)"
           id="g3372"><path
             d="m 148.37591,-16.605862 13.4488,7.9110599 -15.03101,-3.9555199 c -22.15097,-6.32885 -25.31539,-13.44881 -25.31539,-18.98656 1.58221,-14.2399 37.97309,-25.31539 79.90171,-25.31539 22.15097,0 54.58632,3.16443 87.81276,17.40434 l 4.74664,1.58221 -4.74664,1.58222 c -15.03101,6.32884 -26.8976,12.65769 -26.8976,12.65769 l -0.7911,0.79111 -0.79111,0 c -26.89761,-4.74664 -43.51083,-7.11996 -60.91516,-7.11996 -11.07549,0 -22.94208,0.79111 -39.55531,2.37332 -15.03101,1.58221 -16.61323,4.74664 -16.61323,5.53774 0,2.37332 2.37333,4.74664 4.74664,5.53774 z"
             style="fill:#00bbf2;fill-opacity:1"
             id="path11"
             inkscape:connector-curvature="0" /><path
             d="m 304.2238,14.247278 -5.53774,2.37331 c -11.86659,3.95554 -18.98654,11.86659 -19.77765,11.86659 l -0.7911,0.79111 -0.79112,0 c -32.43534,-6.32885 -57.75073,-8.70216 -83.06612,-8.70216 -14.23992,0 -28.47982,0.7911 -47.46637,3.16443 -12.65769,1.5822 -15.82212,4.74662 -15.82212,6.32884 -0.79111,3.16442 3.95553,7.91106 5.53774,9.49327 l 9.49328,7.11995 -11.86659,-3.95552 c -19.77765,-6.32885 -29.27093,-13.44881 -27.68872,-21.35987 2.37333,-13.4488001 37.18198,-22.15096008 85.43945,-22.15096008 35.59978,0 73.57286,5.53772998 106.00822,15.03101008 l 6.32884,0 z"
             style="fill:#00bbf2;fill-opacity:1"
             id="path13"
             inkscape:connector-curvature="0" /><path
             d="m 213.24661,193.03723 c -6.32885,-19.77764 0,-41.92862 19.77765,-64.07958 6.32885,-7.11995 9.49328,-15.03102 8.70217,-22.94207 -1.58222,-15.031012 -14.23991,-26.106502 -14.23991,-26.106502 l -14.23991,-11.86659 16.61323,8.70216 c 1.58221,0.79111 34.01755,17.40433 39.5553,42.719732 2.37332,10.28438 0,20.56876 -6.32885,30.06202 l -3.16442,4.74664 c -10.28438,15.03101 -18.98656,26.1065 -15.82213,39.5553 3.95554,18.19544 28.47982,38.7642 79.90171,68.82623 l 11.86659,7.11996 -13.4488,-3.16443 c -4.74664,-1.58221 -94.14162,-23.73318 -109.17263,-73.57287 z"
             style="fill:#f03916;fill-opacity:1"
             id="path15"
             inkscape:connector-curvature="0" /><path
             d="m 188.72232,-104.41863 c 105.2171,0 179.58106,19.777657 183.5366,38.764198 0.7911,3.16442 -0.79111,8.70216 -10.28438,13.4488 l -13.4488,6.32885 11.07548,-9.49327 c 0,0 3.16442,-2.37332 2.37332,-5.53774 -0.79111,-2.37332 -3.16442,-7.119963 -17.40434,-11.075485 -27.6887,-9.493278 -90.97718,-15.822125 -153.47456,-15.822125 -58.54184,0 -103.634892,4.746638 -123.412541,13.4488 -2.373313,0.791115 -3.955534,2.373325 -3.955534,3.164429 0.791105,3.955534 17.404333,11.075491 29.270923,13.448801 7.911062,1.58221 12.657702,1.58221 15.031022,1.58221 0.79111,0 0.79111,0 0.79111,0 l 7.11995,-0.79111 -5.53774,5.53775 c -3.16443,2.37332 -7.91106,3.16443 -14.239912,3.16443 -22.942076,0 -66.452908,-15.82213 -68.03512,-30.062033 -0.791106,-7.119952 7.911061,-12.657696 26.106501,-15.03102 45.093039,-7.119955 90.186091,-11.075485 134.488021,-11.075485 l 0,0 z"
             style="fill:#00bbf2;fill-opacity:1"
             id="path17"
             inkscape:connector-curvature="0" /><path
             d="m 168.94468,49.847048 c 48.25746,0 93.3505,4.74664 125.78585,13.4488 l 0.7911,0 c 9.49328,6.32885 22.15097,11.86659 22.15097,11.86659 l 15.82213,7.11995 -17.40434,-3.95553 c 0,0 -37.18198,-6.32885 -73.57285,-9.49327 -25.3154,-2.37331 -52.21301,-3.16443 -75.15508,-3.16443 -17.40434,0 -32.43535,0.79112 -41.92862,2.37333 -17.40433,2.37331 -17.40433,5.53774 -17.40433,5.53774 0,4.74663 25.31539,13.4488 49.04858,19.77765 l 12.65769,3.16442 -12.65769,0.79111 c 0,0 -1.58222,0 -3.16443,0 -11.07549,0 -40.3464,-1.58222 -74.36397,-18.19543 -3.164429,-1.58222 -11.075486,-5.53775 -10.284382,-11.07549 1.582221,-14.23992 54.586322,-18.19544 99.679372,-18.19544 z"
             style="fill:#00bbf2;fill-opacity:1"
             id="path19"
             inkscape:connector-curvature="0" /><path
             d="m 324.00145,90.984568 -3.16442,-5.53775 5.53773,2.37332 c 0,0 3.16443,1.58221 10.28439,2.37331 1.58221,0 3.16443,0.79112 5.53774,0.79112 11.07549,0 24.52429,-7.11997 27.68871,-20.56877 2.37332,-9.49326 1.58221,-34.80866 -53.79521,-63.2884701 l -0.7911,0 0,-0.79111 c 0,-0.7911 -0.79111,-1.58222 -1.58222,-1.58222 l -6.32885,-5.53772998 7.91107,2.37330998 c 62.49737,16.6132301 82.27502,45.8841501 79.1106,68.0351201 -2.37332,18.98654 -19.77766,32.435342 -41.92862,32.435342 -6.32885,0 -12.65769,-0.7911 -18.98654,-3.164422 -6.32885,-3.16443 -9.49328,-7.91105 -9.49328,-7.91105 z"
             style="fill:#00bbf2;fill-opacity:1"
             id="path21"
             inkscape:connector-curvature="0" /><path
             d="m 210.8733,94.148978 7.11995,-6.32884 -3.95553,8.70216 c -3.95554,9.493282 -11.07549,18.986552 -17.40434,27.688712 -21.35986,30.85314 -43.51083,61.70627 16.61323,109.17264 39.5553,30.85313 60.12406,61.70627 61.70627,90.97719 1.58221,26.1065 -12.6577,40.34641 -13.4488,41.13751 l -4.74664,5.53775 1.58221,-7.11996 C 271.78846,310.91204 235.39758,282.43222 199.79781,254.7435 182.39348,240.5036 164.19804,226.26369 152.33145,209.65046 128.59826,173.25959 166.57135,134.4954 210.8733,94.148978 Z"
             style="fill:#f03916;fill-opacity:1"
             id="path23"
             inkscape:connector-curvature="0" /><path
             d="m 390.45436,-78.312125 c 0,0 -7.91106,-15.03102 -71.19955,-26.897615 -36.39087,-7.11995 -79.1106,-10.28437 -123.41253,-10.28437 -36.39088,0 -71.99065,2.37332 -98.888252,7.11996 l -7.11996,1.5822 6.32885,-4.74663 c 1.58221,-0.79111 14.239912,-9.49327 70.408432,-13.4488 15.82213,-0.79111 33.22646,-1.58221 49.83968,-1.58221 l 0,0 c 84.64834,0 176.41664,12.65769 178.78997,48.257465 l 0.7911,11.075486 -5.53774,-11.075486 z"
             style="fill:#00bbf2;fill-opacity:1"
             id="path25"
             inkscape:connector-curvature="0" /></g></g></g></g></svg>