<?xml version="1.0" encoding="UTF-8" standalone="no"?>
<!-- Created with Inkscape (http://www.inkscape.org/) -->

<svg
   xmlns:dc="http://purl.org/dc/elements/1.1/"
   xmlns:cc="http://creativecommons.org/ns#"
   xmlns:rdf="http://www.w3.org/1999/02/22-rdf-syntax-ns#"
   xmlns:svg="http://www.w3.org/2000/svg"
   xmlns="http://www.w3.org/2000/svg"
   xmlns:sodipodi="http://sodipodi.sourceforge.net/DTD/sodipodi-0.dtd"
   xmlns:inkscape="http://www.inkscape.org/namespaces/inkscape"
   id="svg2"
   version="1.1"
   inkscape:version="0.91 r13725"
   xml:space="preserve"
   width="512"
   height="512"
   viewBox="0 0 512 512"
   sodipodi:docname="wine-file.0.svg"><metadata
     id="metadata8"><rdf:RDF><cc:Work
         rdf:about=""><dc:format>image/svg+xml</dc:format><dc:type
           rdf:resource="http://purl.org/dc/dcmitype/StillImage" /><dc:title /></cc:Work></rdf:RDF></metadata><defs
     id="defs6"><clipPath
       clipPathUnits="userSpaceOnUse"
       id="clipPath16"><path
         d="m 0,0 656.967,0 0,490.475 L 0,490.475 0,0 Z"
         id="path18"
         inkscape:connector-curvature="0" /></clipPath><linearGradient
       x1="0"
       y1="0"
       x2="1"
       y2="0"
       gradientUnits="userSpaceOnUse"
       gradientTransform="matrix(-6.31e-5,1444.0616,-1444.0616,-6.31e-5,328.48291,-628.00391)"
       spreadMethod="pad"
       id="linearGradient24"><stop
         style="stop-opacity:1;stop-color:#ffffff"
         offset="0"
         id="stop26" /><stop
         style="stop-opacity:1;stop-color:#ffffff"
         offset="0.05086908"
         id="stop28" /><stop
         style="stop-opacity:1;stop-color:#f87d32"
         offset="0.460674"
         id="stop30" /><stop
         style="stop-opacity:1;stop-color:#ff1200"
         offset="1"
         id="stop32" /></linearGradient><clipPath
       clipPathUnits="userSpaceOnUse"
       id="clipPath40"><path
         d="m 0,490.475 656.967,0 L 656.967,0 0,0 0,490.475 Z"
         id="path42"
         inkscape:connector-curvature="0" /></clipPath></defs><sodipodi:namedview
     pagecolor="#ffffff"
     bordercolor="#666666"
     borderopacity="1"
     objecttolerance="10"
     gridtolerance="10"
     guidetolerance="10"
     inkscape:pageopacity="0"
     inkscape:pageshadow="2"
     inkscape:window-width="929"
     inkscape:window-height="627"
     id="namedview4"
     showgrid="false"
     inkscape:zoom="0.125"
     inkscape:cx="609.19244"
     inkscape:cy="471.86765"
     inkscape:window-x="159"
     inkscape:window-y="48"
     inkscape:window-maximized="0"
     inkscape:current-layer="g36" /><g
     id="g10"
     inkscape:groupmode="layer"
     inkscape:label="FreeVector-Wine-Glass-Icon"
     transform="matrix(1.25,0,0,-1.25,0,512)"><g
       id="g36"
       transform="matrix(0.7234644,0,0,0.7234644,-34.605998,21.311566)"><g
         id="g4153"><g
           style="fill:#f03916"
           id="g44"
           transform="matrix(1.0176645,0.4191149,-0.4191149,1.0176645,399.85642,412.82408)"><path
             d="m 0,0 c 9.067,-66.741 -61.878,-98.854 -130.405,-82.552 -37.209,8.852 -60.527,47.425 -47.855,89.73 C -117.202,28.167 -65.639,-14.318 0,0"
             style="fill:#f03916;fill-opacity:1;fill-rule:evenodd;stroke:none"
             id="path46"
             inkscape:connector-curvature="0" /></g><path
           inkscape:connector-curvature="0"
           id="path50"
           style="fill:#394050;fill-opacity:1;fill-rule:nonzero;stroke:none"
           d="m 420.50168,412.82617 c -17.74359,35.61848 -42.90163,64.33881 -70.62658,91.03191 -2.78961,2.68976 -8.1522,-0.79474 -12.77582,-2.50135 22.62831,-29.71933 57.63575,-57.52322 73.75135,-95.26668 25.60233,-59.96056 -8.15432,-105.53962 -63.65384,-131.37579 -57.59862,-20.74217 -113.66105,-12.15418 -137.71042,48.44594 -15.13864,38.14582 -9.8659,82.53869 -14.72884,119.57451 -4.48448,-2.04447 -10.74667,-3.34752 -10.83298,-7.2217 -0.88465,-38.47568 1.47872,-76.58376 13.96607,-114.36697 2.66502,-8.06635 6.33545,-18.02775 10.6954,-25.96978 28.94635,-52.73078 87.76268,-34.86154 128.60625,-57.48973 24.31298,-13.46627 83.96324,-156.047532 85.76876,-181.439955 1.39239,-19.533839 -19.81082,-34.080649 -38.18844,-44.722573 -6.70036,-3.8807095 -19.22522,-6.439393 -19.51085,-16.3208363 21.65466,3.91315971 53.99968,15.6082163 85.25945,28.6262623 31.36119,12.77177 62.56119,27.247086 80.6911,39.718804 -7.16062,6.81478 -17.85581,-0.189481 -25.34577,-2.15291 -20.54194,-5.386706 -45.83888,-9.990514 -58.60773,4.858041 -16.60033,19.29933 -74.65998,162.535667 -66.88192,189.218307 13.0611,44.82829 67.40397,73.56253 50.8202,131.38472 -2.49863,8.70858 -6.90687,18.36613 -10.69539,25.96978" /></g></g></g></svg>