<?xml version="1.0" encoding="UTF-8" standalone="no"?>
<!-- Created with Inkscape (http://www.inkscape.org/) -->

<svg
   xmlns:dc="http://purl.org/dc/elements/1.1/"
   xmlns:cc="http://creativecommons.org/ns#"
   xmlns:rdf="http://www.w3.org/1999/02/22-rdf-syntax-ns#"
   xmlns:svg="http://www.w3.org/2000/svg"
   xmlns="http://www.w3.org/2000/svg"
   xmlns:sodipodi="http://sodipodi.sourceforge.net/DTD/sodipodi-0.dtd"
   xmlns:inkscape="http://www.inkscape.org/namespaces/inkscape"
   id="svg2"
   version="1.1"
   inkscape:version="0.91 r13725"
   width="512"
   height="512"
   viewBox="0 0 512 512"
   sodipodi:docname="wine-uninstaller.svg">
  <metadata
     id="metadata8">
    <rdf:RDF>
      <cc:Work
         rdf:about="">
        <dc:format>image/svg+xml</dc:format>
        <dc:type
           rdf:resource="http://purl.org/dc/dcmitype/StillImage" />
        <dc:title />
      </cc:Work>
    </rdf:RDF>
  </metadata>
  <defs
     id="defs6" />
  <sodipodi:namedview
     pagecolor="#ffffff"
     bordercolor="#666666"
     borderopacity="1"
     objecttolerance="10"
     gridtolerance="10"
     guidetolerance="10"
     inkscape:pageopacity="0"
     inkscape:pageshadow="2"
     inkscape:window-width="1366"
     inkscape:window-height="715"
     id="namedview4"
     showgrid="false"
     inkscape:zoom="0.1840156"
     inkscape:cx="-419.349"
     inkscape:cy="160.16757"
     inkscape:window-x="0"
     inkscape:window-y="24"
     inkscape:window-maximized="1"
     inkscape:current-layer="svg2" />
  <g
     id="g4145">
    <path
       style="fill:#cccccc;stroke-width:0.78468841000000000;fill-opacity:0.58823532"
       d="M 233.863,170.88645 C 173.95417,167.8998 118.59366,151.30799 94.687161,129.17478 c -6.06681,-5.61678 -10.90309,-13.62866 -10.88624,-18.03433 0.0285,-7.45624 9.1972,-18.598158 22.059779,-26.807428 55.04782,-35.13307 168.96243,-44.48887 252.46814,-20.73521 28.84467,8.20503 50.63946,19.3848 62.67902,32.1516 8.14001,8.631688 9.67486,14.108748 6.13729,21.900668 -8.31182,18.30778 -45.32409,36.94796 -91.89452,46.28004 -18.74518,3.75629 -36.59101,5.88895 -58.70104,7.01503 -19.35318,0.98568 -21.80506,0.98231 -42.68659,-0.0586 z"
       id="path3340"
       inkscape:connector-curvature="0" />
    <path
       style="fill:#cccccc;fill-opacity:0.58823529;stroke-width:0.78468841"
       d="m 239.89338,480.38704 c -45.96531,-2.29152 -88.44089,-15.02166 -106.78325,-32.00345 -4.6548,-4.3095 -8.36546,-10.45666 -8.35252,-13.83692 0.0218,-5.72083 7.05659,-14.26952 16.92546,-20.56812 42.23567,-26.956 129.63714,-34.13427 193.70725,-15.90918 22.1312,6.29535 38.85334,14.87308 48.09074,24.66845 6.24546,6.62271 7.42308,10.82501 4.70888,16.80338 -6.37729,14.04673 -34.77511,28.34849 -70.50647,35.50857 -14.38233,2.88203 -28.07462,4.51832 -45.03862,5.38231 -14.84882,0.75627 -16.73003,0.75368 -32.75147,-0.0449 z"
       id="path3340-3"
       inkscape:connector-curvature="0" />
    <g
       id="g4140">
      <g
         transform="matrix(0.57528667,-0.03187125,-0.03187125,-0.57528667,304.79028,251.7136)"
         id="g44"
         style="fill:#f03916">
        <path
           inkscape:connector-curvature="0"
           id="path46"
           style="fill:#f03916;fill-opacity:1;fill-rule:evenodd;stroke:none"
           d="m 0,0 c 9.067,-66.741 -61.878,-98.854 -130.405,-82.552 -37.209,8.852 -60.527,47.425 -47.855,89.73 C -117.202,28.167 -65.639,-14.318 0,0" />
      </g>
      <path
         d="m 314.99663,255.26923 c -2.63537,-20.66482 -10.12447,-39.19685 -19.23176,-57.16894 -0.91566,-1.81027 -4.16696,-1.01154 -6.74666,-0.96442 6.06642,18.59008 18.58245,38.36589 20.04694,59.80073 2.32681,34.05221 -22.21298,50.76883 -54.10016,53.97976 -32.0473,0.33108 -58.28232,-13.57258 -59.73123,-47.67343 -0.91222,-21.46544 9.34217,-42.50274 13.31853,-61.64919 -2.56912,0.23812 -5.88932,-0.19654 -6.59941,1.70379 -7.06575,18.86809 -12.4625,38.11401 -12.79848,58.94344 -0.0722,4.44673 0.0262,10.00348 0.81332,14.68074 5.22544,31.05426 37.37978,32.3532 53.67256,50.57581 9.69924,10.84559 14.62415,91.60706 11.14222,104.47087 -2.67687,9.89645 -15.66476,13.43489 -26.5831,15.52972 -3.98087,0.76413 -10.61335,-0.12871 -12.45689,4.70698 11.37915,1.79609 29.38371,1.58688 47.0797,0.53669 17.7037,-0.91097 35.62119,-2.69187 46.7323,-5.73393 -2.36584,-4.6025 -8.85968,-2.98245 -12.9006,-3.30216 -11.08292,-0.87595 -24.38161,-2.9581 -28.13586,-12.49825 -4.88159,-12.40048 -8.90733,-93.21176 -0.46548,-105.06238 14.17958,-19.9108 45.99424,-24.75366 47.75738,-56.19509 0.26508,-4.73555 -0.25039,-10.2692 -0.81332,-14.68074"
         style="fill:#394050;fill-opacity:1;fill-rule:nonzero;stroke:none"
         id="path50"
         inkscape:connector-curvature="0" />
    </g>
    <path
       style="fill:#969696;stroke-width:0.78468841000000000;fill-opacity:0.58823532"
       d="m 236.83498,480.5103 c -49.22934,-3.37491 -89.30865,-16.81931 -106.62587,-35.7671 -6.16601,-6.74658 -7.83487,-10.35967 -9.66213,-20.91849 -5.04287,-29.14008 -54.592259,-295.72862 -55.887949,-300.69166 -8.87147,-33.981368 27.3269,-64.759098 95.995349,-81.620218 15.726,-3.86142 39.62135,-7.685376 58.58322,-9.375036 17.02485,-1.51706 56.5397,-1.51706 73.56454,0 83.07117,7.402326 145.25639,36.036866 154.62669,71.201224 1.80936,6.79012 1.65516,11.98 -0.63493,21.36921 -2.47721,10.15641 -55.9057,299.75001 -55.9057,303.02065 0,1.32759 -1.35327,5.12192 -3.00727,8.43186 -8.39357,16.79703 -36.53718,31.68245 -74.54624,39.4282 -21.15552,4.31122 -54.29844,6.44337 -76.49971,4.92136 z"
       id="path3348"
       inkscape:connector-curvature="0" />
  </g>
</svg>
