<?xml version="1.0" encoding="UTF-8" standalone="no"?>
<!-- Created with Inkscape (http://www.inkscape.org/) -->

<svg
   xmlns:dc="http://purl.org/dc/elements/1.1/"
   xmlns:cc="http://creativecommons.org/ns#"
   xmlns:rdf="http://www.w3.org/1999/02/22-rdf-syntax-ns#"
   xmlns:svg="http://www.w3.org/2000/svg"
   xmlns="http://www.w3.org/2000/svg"
   xmlns:sodipodi="http://sodipodi.sourceforge.net/DTD/sodipodi-0.dtd"
   xmlns:inkscape="http://www.inkscape.org/namespaces/inkscape"
   width="128"
   height="128"
   id="svg2"
   version="1.1"
   inkscape:version="0.91 r13725"
   viewBox="0 0 36.124443 36.124448"
   sodipodi:docname="wingpanel.svg">
  <defs
     id="defs4">
    <linearGradient
       id="linearGradient896">
      <stop
         style="stop-color:#394050;stop-opacity:1"
         offset="0"
         id="stop898" />
      <stop
         style="stop-color:#5d6a7b;stop-opacity:1"
         offset="1"
         id="stop900" />
    </linearGradient>
  </defs>
  <sodipodi:namedview
     id="base"
     pagecolor="#ffffff"
     bordercolor="#666666"
     borderopacity="1.0"
     inkscape:pageopacity="0"
     inkscape:pageshadow="2"
     inkscape:zoom="2.2250581"
     inkscape:cx="215.58915"
     inkscape:cy="29.753373"
     inkscape:document-units="px"
     inkscape:current-layer="layer1"
     showgrid="false"
     inkscape:showpageshadow="false"
     borderlayer="true"
     units="px"
     fit-margin-top="0"
     fit-margin-left="0"
     fit-margin-right="0"
     fit-margin-bottom="0"
     showguides="false"
     inkscape:window-width="1366"
     inkscape:window-height="715"
     inkscape:window-x="0"
     inkscape:window-y="24"
     inkscape:window-maximized="1">
    <sodipodi:guide
       position="-6.6748425e-06,47.999999"
       orientation="47.999977,0"
       id="guide4120"
       inkscape:locked="false" />
    <sodipodi:guide
       position="-6.6748425e-06,2.2810037e-05"
       orientation="0,48.000004"
       id="guide4122"
       inkscape:locked="false" />
    <sodipodi:guide
       position="47.999997,2.2810037e-05"
       orientation="-47.999977,0"
       id="guide4124"
       inkscape:locked="false" />
    <sodipodi:guide
       position="47.999997,47.999999"
       orientation="0,-48.000004"
       id="guide4126"
       inkscape:locked="false" />
    <sodipodi:guide
       position="3.9999733,44.000154"
       orientation="39.999962,0"
       id="guide4138"
       inkscape:locked="false" />
    <sodipodi:guide
       position="70.014646,-11.415433"
       orientation="0,40.000003"
       id="guide4140"
       inkscape:locked="false" />
    <sodipodi:guide
       position="43.999976,4.0001921"
       orientation="-39.999962,0"
       id="guide4142"
       inkscape:locked="false" />
    <sodipodi:guide
       position="43.999976,44.000154"
       orientation="0,-40.000003"
       id="guide4144"
       inkscape:locked="false" />
    <sodipodi:guide
       position="6.9999922,47.999999"
       orientation="39.999962,0"
       id="guide4148"
       inkscape:locked="false" />
    <sodipodi:guide
       position="6.9999922,8.0000369"
       orientation="0,34.000006"
       id="guide4150"
       inkscape:locked="false" />
    <sodipodi:guide
       position="40.999998,8.0000369"
       orientation="-39.999962,0"
       id="guide4152"
       inkscape:locked="false" />
    <sodipodi:guide
       position="40.999998,47.999999"
       orientation="0,-34.000006"
       id="guide4154"
       inkscape:locked="false" />
    <sodipodi:guide
       position="14.999993,32.999986"
       orientation="17.999951,0"
       id="guide4158"
       inkscape:locked="false" />
    <sodipodi:guide
       position="14.999993,15.000036"
       orientation="0,17.999998"
       id="guide4160"
       inkscape:locked="false" />
    <sodipodi:guide
       position="32.999991,15.000036"
       orientation="-17.999951,0"
       id="guide4162"
       inkscape:locked="false" />
    <sodipodi:guide
       position="32.999991,32.999986"
       orientation="0,-17.999998"
       id="guide4164"
       inkscape:locked="false" />
    <sodipodi:guide
       position="1.9999969,44.000046"
       orientation="39.999962,0"
       id="guide3279"
       inkscape:locked="false" />
    <sodipodi:guide
       position="1.9999969,4.0000839"
       orientation="0,44.000003"
       id="guide3281"
       inkscape:locked="false" />
    <sodipodi:guide
       position="46,4.0000839"
       orientation="-39.999962,0"
       id="guide3283"
       inkscape:locked="false" />
    <sodipodi:guide
       position="46,44.000046"
       orientation="0,-44.000003"
       id="guide3285"
       inkscape:locked="false" />
  </sodipodi:namedview>
  <metadata
     id="metadata7">
    <rdf:RDF>
      <cc:Work
         rdf:about="">
        <dc:format>image/svg+xml</dc:format>
        <dc:type
           rdf:resource="http://purl.org/dc/dcmitype/StillImage" />
        <dc:title />
      </cc:Work>
    </rdf:RDF>
  </metadata>
  <g
     inkscape:label="Capa 1"
     inkscape:groupmode="layer"
     id="layer1"
     transform="translate(38.119153,-375.26716)">
    <g
       id="g3416">
      <rect
         transform="scale(1,-1)"
         y="-405.99591"
         x="-36.940502"
         height="25.455061"
         width="33.605057"
         id="rect907"
         style="fill:#00bbf2;fill-opacity:1;stroke:none" />
      <rect
         transform="scale(1,-1)"
         style="fill:#394050;fill-opacity:1;stroke:none;stroke-width:0.87196738"
         id="rect920"
         width="25.550825"
         height="2.994714"
         x="-32.754845"
         y="-405.99591" />
      <rect
         transform="scale(1,-1)"
         y="-405.45831"
         x="-27.747149"
         height="1.7925723"
         width="1.8286616"
         id="rect825"
         style="fill:#f03916;fill-opacity:1;stroke:none" />
      <rect
         transform="scale(1,-1)"
         style="fill:#ffcc00;fill-opacity:1;stroke:none"
         id="rect827"
         width="1.8286616"
         height="1.7925723"
         x="-24.390985"
         y="-405.45831" />
      <ellipse
         transform="scale(1,-1)"
         id="path3303"
         style="fill:none;stroke:none"
         cx="-4.8640146"
         cy="-404.49847"
         rx="1.5285611"
         ry="1.4974031" />
      <ellipse
         transform="scale(1,-1)"
         style="fill:none;stroke:none"
         id="path3305"
         cx="-25.155266"
         cy="-404.56189"
         rx="0.76428056"
         ry="0.74870157" />
      <ellipse
         transform="scale(1,-1)"
         id="path3307"
         style="fill:none;stroke:none"
         cx="-28.511431"
         cy="-404.56189"
         rx="0.76428056"
         ry="0.74870157" />
      <rect
         transform="scale(1,-1)"
         style="fill:#45d03f;fill-opacity:1;stroke:none"
         id="rect3309"
         width="1.8286616"
         height="1.7925723"
         x="-31.103315"
         y="-405.45831" />
      <ellipse
         transform="scale(1,-1)"
         id="path3317"
         style="fill:none;stroke:none"
         cx="-2.5722184"
         cy="-393.26828"
         rx="0.76428056"
         ry="0.74870157" />
      <rect
         transform="scale(1,-1)"
         y="-405.37521"
         x="-17.661257"
         height="1.7925724"
         width="1.8286616"
         id="rect825-3"
         style="fill:#00bbf2;fill-opacity:1;stroke:none;stroke-width:1" />
      <rect
         transform="scale(1,-1)"
         style="fill:#ff7f2a;fill-opacity:1;stroke:none;stroke-width:1"
         id="rect827-6"
         width="1.8286616"
         height="1.7925724"
         x="-14.305093"
         y="-405.37521" />
      <ellipse
         transform="scale(1,-1)"
         style="fill:none;stroke:none;stroke-width:1"
         id="path3305-7"
         cx="-15.069375"
         cy="-404.47879"
         rx="0.76428062"
         ry="0.74870157" />
      <ellipse
         transform="scale(1,-1)"
         id="path3307-5"
         style="fill:none;stroke:none;stroke-width:1"
         cx="-18.425537"
         cy="-404.47879"
         rx="0.76428062"
         ry="0.74870157" />
      <rect
         transform="scale(1,-1)"
         style="fill:#ffffff;fill-opacity:1;stroke:none;stroke-width:1"
         id="rect3309-3"
         width="1.8286616"
         height="1.7925724"
         x="-21.017424"
         y="-405.37521" />
      <rect
         transform="scale(1,-1)"
         style="fill:#ff5599;fill-opacity:1;stroke:none;stroke-width:1"
         id="rect827-6-5"
         width="1.8286616"
         height="1.7925724"
         x="-10.875418"
         y="-405.43863" />
      <rect
         transform="scale(1,-1)"
         style="fill:#394050;fill-opacity:1;stroke:none;stroke-width:0.73580784"
         id="rect920-6"
         width="18.194212"
         height="2.994714"
         x="-29.457052"
         y="-385.99161" />
      <rect
         transform="scale(1,-1)"
         style="fill:#ffffff;fill-opacity:1;stroke:none;stroke-width:1.29479671"
         id="rect920-6-2"
         width="18.194214"
         height="9.2732019"
         x="-29.457054"
         y="-395.2648" />
      <g
         id="flowRoot3399"
         style="font-style:normal;font-weight:normal;font-size:40px;line-height:125%;font-family:sans-serif;letter-spacing:0px;word-spacing:0px;fill:#394050;fill-opacity:1;stroke:none;stroke-width:1px;stroke-linecap:butt;stroke-linejoin:miter;stroke-opacity:1"
         transform="matrix(0.16824799,0,0,0.16824799,-34.501363,378.95551)">
        <path
           id="path3408"
           style="font-style:normal;font-variant:normal;font-weight:bold;font-stretch:normal;font-family:sans-serif;-inkscape-font-specification:'sans-serif Bold';fill:#394050;fill-opacity:1"
           d="m 31.742187,57.008638 6.796875,0 3.671875,15.078125 3.691407,-15.078125 5.839843,0 3.671875,14.921875 3.691407,-14.921875 6.796875,0 -5.761719,21.875 -7.636719,0 -3.691406,-15.039062 -3.671875,15.039062 -7.636719,0 -5.761719,-21.875 z" />
        <path
           id="path3410"
           style="font-style:normal;font-variant:normal;font-weight:bold;font-stretch:normal;font-family:sans-serif;-inkscape-font-specification:'sans-serif Bold';fill:#394050;fill-opacity:1"
           d="m 70.648437,57.008638 6.992188,0 0,21.875 -6.992188,0 0,-21.875 z m 0,-8.515625 6.992188,0 0,5.703125 -6.992188,0 0,-5.703125 z" />
        <path
           id="path3412"
           style="font-style:normal;font-variant:normal;font-weight:bold;font-stretch:normal;font-family:sans-serif;-inkscape-font-specification:'sans-serif Bold';fill:#394050;fill-opacity:1"
           d="m 106.39063,65.563326 0,13.320312 -7.031255,0 0,-2.167968 0,-8.027344 q 0,-2.832031 -0.136719,-3.90625 -0.117187,-1.074219 -0.429687,-1.582031 -0.410157,-0.683594 -1.113282,-1.054688 -0.703125,-0.390625 -1.601562,-0.390625 -2.1875,0 -3.4375,1.699219 -1.25,1.679687 -1.25,4.667969 l 0,10.761718 -6.992188,0 0,-21.875 6.992188,0 0,3.203125 q 1.582031,-1.914062 3.359375,-2.8125 1.777344,-0.917968 3.925781,-0.917968 3.789059,0 5.742189,2.324218 1.97266,2.324219 1.97266,6.757813 z" />
        <path
           id="path3414"
           style="font-style:normal;font-variant:normal;font-weight:bold;font-stretch:normal;font-family:sans-serif;-inkscape-font-specification:'sans-serif Bold';fill:#394050;fill-opacity:1"
           d="m 127.79688,75.172701 q -1.44532,1.914062 -3.1836,2.8125 -1.73828,0.898437 -4.02344,0.898437 -4.0039,0 -6.62109,-3.144531 -2.61719,-3.164062 -2.61719,-8.046875 0,-4.902344 2.61719,-8.027344 2.61719,-3.144531 6.62109,-3.144531 2.28516,0 4.02344,0.898438 1.73828,0.898437 3.1836,2.832031 l 0,-3.242188 7.03124,0 0,19.667969 q 0,5.273438 -3.33984,8.046875 -3.32031,2.792969 -9.64844,2.792969 -2.05078,0 -3.96484,-0.3125 -1.91406,-0.3125 -3.84766,-0.957031 l 0,-5.449219 q 1.83594,1.054687 3.59375,1.5625 1.75782,0.527344 3.53516,0.527344 3.4375,0 5.03906,-1.503907 1.60157,-1.503906 1.60157,-4.707031 l 0,-1.503906 z M 123.1875,61.55942 q -2.16797,0 -3.37891,1.601562 -1.21093,1.601563 -1.21093,4.53125 0,3.007813 1.17187,4.570313 1.17188,1.542968 3.41797,1.542968 2.1875,0 3.39844,-1.601562 1.21094,-1.601563 1.21094,-4.511719 0,-2.929687 -1.21094,-4.53125 Q 125.375,61.55942 123.1875,61.55942 Z" />
      </g>
    </g>
  </g>
</svg>
