<?xml version="1.0" encoding="UTF-8" standalone="no"?>
<!-- Generator: flash2svg, http://dissentgraphics.com/tools/flash2svg -->

<svg
   xmlns:dc="http://purl.org/dc/elements/1.1/"
   xmlns:cc="http://creativecommons.org/ns#"
   xmlns:rdf="http://www.w3.org/1999/02/22-rdf-syntax-ns#"
   xmlns:svg="http://www.w3.org/2000/svg"
   xmlns="http://www.w3.org/2000/svg"
   xmlns:sodipodi="http://sodipodi.sourceforge.net/DTD/sodipodi-0.dtd"
   xmlns:inkscape="http://www.inkscape.org/namespaces/inkscape"
   id="Xbmc"
   image-rendering="optimizeSpeed"
   version="1.1"
   style="background-color:#ffffff"
   x="0px"
   y="0px"
   width="1024px"
   height="1024px"
   viewBox="0 0 1024 1024"
   enable-background="new 0 0 1024 1024"
   inkscape:version="0.91 r13725"
   sodipodi:docname="xbmc.svg">
  <metadata
     id="metadata39">
    <rdf:RDF>
      <cc:Work
         rdf:about="">
        <dc:format>image/svg+xml</dc:format>
        <dc:type
           rdf:resource="http://purl.org/dc/dcmitype/StillImage" />
      </cc:Work>
    </rdf:RDF>
  </metadata>
  <sodipodi:namedview
     pagecolor="#ffffff"
     bordercolor="#666666"
     borderopacity="1"
     objecttolerance="10"
     gridtolerance="10"
     guidetolerance="10"
     inkscape:pageopacity="0"
     inkscape:pageshadow="2"
     inkscape:window-width="1366"
     inkscape:window-height="715"
     id="namedview37"
     showgrid="false"
     inkscape:zoom="0.32593203"
     inkscape:cx="285.20096"
     inkscape:cy="393.46625"
     inkscape:window-x="0"
     inkscape:window-y="24"
     inkscape:window-maximized="1"
     inkscape:current-layer="Xbmc" />
  <defs
     transform="matrix(1 0 0 1 0 0) "
     id="defs3" />
  <g
     id="g4143">
    <g
       style="fill:#394050;fill-opacity:1"
       transform="matrix(1.0357992,0,0,1.0357992,-13.230516,-15.94238)"
       id="ico-shadow">
      <g
         style="fill:#394050;fill-opacity:1"
         id="shape2">
        <path
           style="fill:#394050;fill-opacity:1"
           inkscape:connector-curvature="0"
           d="M 727.2,91.75 C 718.5,87.4 709.35,83.1 699.95,79.05 691.35,75.3 682.8,71.85 674.05,68.65 631.95,52.9 589.8,43.3 547.6,40 478.2,34.4 408.65,45.4 338.7,73 c -23.45,9.3 -45.65,19.9 -66.6,31.9 -41.3,23.7 -77.6,52.65 -108.5,86.7 Q 112,248.2 79.05,324.15 C 58.8,370.8 46.2,417.6 41.2,463.8 c -0.45,4.45 -0.85,8.6 -1.2,12.75 -3.7,45.6 -0.2,90.75 10.25,136 5.7,24.55 13.25,48.75 22.75,72.85 27.7,69.95 67.25,128.4 118.55,175.1 31.45,28.65 67.2,52.85 107.3,72.8 0.15,0.05 0.25,0.1 0.35,0.15 3.1,1.55 6.1,3 8.65,4.15 4.9,2.35 9.25,4.35 13.6,6.25 1.1,0.45 1.9,0.85 2.75,1.2 9.45,4.1 18.9,7.85 27.9,11.2 2.35,0.85 4.5,1.65 6.6,2.4 19.05,6.7 38.2,12.15 56.9,16.3 7.9,1.7 15.8,3.25 23.5,4.55 0.95,0.2 1.95,0.3 2.7,0.45 11.65,1.85 23.2,3.25 34.75,4.2 69.8,5.45 139.2,-5.55 208.85,-33.05 24.35,-9.6 47.3,-20.65 68.8,-33.15 35.1,-20.35 66.45,-44.5 94.1,-72.5 4.15,-4.2 8.2,-8.5 12.25,-12.9 8.4,-9.25 16.5,-18.95 24.25,-29.1 20.05,-26.15 37.55,-55.1 52.6,-86.7 2.6,-5.5 5.15,-11.1 7.65,-16.85 0.25,-0.6 0.55,-1.25 0.8,-1.85 0.15,-0.3 0.25,-0.6 0.4,-0.9 2.8,-6.6 5.45,-13.25 8.1,-20 C 966,646.5 974.5,615.5 979.7,584.1 c 0.7,-4.4 1.4,-9.15 2.1,-13.9 0.9,-7.35 1.75,-14.85 2.35,-22.6 0.1,-1.45 0.25,-3.15 0.4,-4.95 1.3,-19.3 1.3,-38.7 0.1,-58.4 -0.45,-6.4 -1,-12.9 -1.7,-19.6 -0.2,-1.85 -0.45,-3.85 -0.7,-5.85 -2,-16.4 -4.95,-32.85 -8.95,-49.7 -5.45,-23.15 -12.85,-46.75 -22.2,-70.4 -27.55,-69.75 -67,-128.05 -118.6,-175.1 -18.75,-17.1 -39.35,-32.8 -61.55,-46.95 -13.85,-8.9 -28.3,-17.1 -43.75,-24.9 z"
           id="path1" />
      </g>
    </g>
    <g
       style="fill:#ebebeb;fill-opacity:1"
       transform="matrix(1.0357992,0,0,1.0357992,-13.230516,-15.94238)"
       id="ico">
      <g
         style="fill:#ebebeb;fill-opacity:1"
         id="shape13">
        <path
           style="fill:#ebebeb;fill-opacity:1"
           inkscape:connector-curvature="0"
           d="M 645,379.1 Q 589.95,324.05 512.05,324.05 c -51.95,0 -96.25,18.35 -132.95,55.05 -36.7,36.7 -55.05,81 -55.05,132.95 0,51.95 18.35,96.25 55.05,132.95 36.7,36.7 81,55.05 132.95,55.05 C 564,700.05 608.3,681.7 645,645 681.7,608.3 700.05,564 700.05,512.05 700.05,460.1 681.7,415.8 645,379.1 z"
           id="path8" />
      </g>
    </g>
    <path
       style="fill:#45d03f;fill-opacity:1"
       inkscape:connector-curvature="0"
       d="m 579.97169,468.29375 q 19.11049,0 32.62767,13.51718 c 1.5537,1.5019 2.95203,3.10739 4.24678,4.76467 2.74487,3.57351 6.37016,5.59332 10.87589,6.16301 4.45394,0.56969 8.44176,-0.56969 12.01527,-3.31456 3.57351,-2.74487 5.64511,-6.37017 6.21479,-10.8241 0.5179,-4.50573 -0.56968,-8.49356 -3.31455,-12.06706 -2.12339,-2.69308 -4.40215,-5.28258 -6.93986,-7.82029 -15.38162,-15.38161 -33.97421,-23.09832 -55.72599,-23.04653 -21.75179,-0.0518 -40.34438,7.66492 -55.726,23.04653 -2.53771,2.53771 -4.92005,5.23079 -7.04344,7.97566 -2.17517,-2.74487 -4.55751,-5.43795 -7.09522,-7.97566 -15.38162,-15.38161 -33.97421,-23.09832 -55.726,-23.04653 -1.76086,-0.0518 -3.52171,0 -5.23078,0.10358 -4.50573,0.31074 -8.23461,2.17518 -11.18663,5.54153 -3.00382,3.36634 -4.35036,7.30238 -4.03962,11.80811 0.25895,4.45393 2.12339,8.18281 5.48973,11.18663 3.36635,3.00382 7.30239,4.35036 11.80812,4.09141 0.984,-0.0518 2.07159,-0.10358 3.15918,-0.10358 12.74033,0 23.61622,4.50572 32.62768,13.51718 9.01145,9.01145 13.51718,19.88734 13.56897,32.62767 -0.0518,12.74033 -4.55752,23.61622 -13.56897,32.62768 -9.01146,9.01145 -19.88735,13.51717 -32.62768,13.56896 -12.74033,-0.0518 -23.61622,-4.55751 -32.62767,-13.56896 -1.5537,-1.5537 -2.95203,-3.15919 -4.19499,-4.76468 -2.79666,-3.57351 -6.42195,-5.59332 -10.87589,-6.16301 -4.50573,-0.56969 -8.49355,0.56969 -12.01527,3.31456 -3.57351,2.74487 -5.64511,6.37017 -6.2148,10.87589 -0.56969,4.45394 0.56969,8.44177 3.31456,12.01527 2.0716,2.69308 4.35036,5.28258 6.88807,7.82029 15.38161,15.38162 33.97421,23.09832 55.72599,23.09832 21.75179,0 40.34438,-7.7167 55.726,-23.09832 2.53771,-2.53771 4.92005,-5.23079 7.09522,-7.97566 2.12339,2.74487 4.50573,5.43795 7.04344,7.97566 15.38162,15.38162 33.97421,23.09832 55.726,23.09832 1.76085,0 3.52171,-0.0518 5.23078,-0.15537 4.50573,-0.31074 8.23461,-2.17518 11.18663,-5.54153 3.00382,-3.36634 4.35036,-7.30238 4.09141,-11.80811 -0.31074,-4.50572 -2.17518,-8.2346 -5.54153,-11.18663 -3.36634,-3.00382 -7.30238,-4.35035 -11.80811,-4.09141 -0.98401,0.0518 -2.0716,0.10358 -3.15918,0.15537 -12.74033,-0.0518 -23.61623,-4.55751 -32.62768,-13.56896 -9.01145,-9.01146 -13.51718,-19.88735 -13.51718,-32.62768 0,-12.74033 4.50573,-23.61622 13.51718,-32.62767 9.01145,-9.01146 19.88735,-13.51718 32.62768,-13.51718 z"
       id="path10" />
    <g
       transform="matrix(1.0357992,0,0,1.0357992,-13.230516,-15.94238)"
       id="Symbole.__2023_2"
       overflow="visible"
       style="overflow:visible;fill:#ebebeb;fill-opacity:1">
      <g
         style="fill:#ebebeb;fill-opacity:1"
         id="Calque.__212">
        <g
           style="fill:#ebebeb;fill-opacity:1"
           id="shape37">
          <path
             id="path27"
             d="m 537.778,148.874 c -7.15,-7.059 -15.713,-10.612 -25.778,-10.657 -10.065,0.045 -18.628,3.598 -25.733,10.703 l -49.233,49.233 c -2.642,2.642 -3.963,5.83 -3.963,9.519 0,3.78 1.321,6.968 3.963,9.61 2.641,2.642 5.83,3.962 9.61,3.962 3.734,0.046 6.922,-1.275 9.564,-3.916 l 49.234,-49.234 c 1.821,-1.822 4.008,-2.733 6.558,-2.733 2.596,0.046 4.782,0.957 6.558,2.733 l 49.234,49.234 c 2.642,2.641 5.83,3.962 9.61,3.962 3.734,-0.046 6.923,-1.366 9.564,-4.008 2.642,-2.642 3.963,-5.83 4.008,-9.564 -0.045,-3.735 -1.366,-6.923 -3.962,-9.61 l -49.234,-49.234 z m 265.023,297.77 c -0.045,3.734 1.275,6.922 3.917,9.564 l 49.234,49.234 c 1.821,1.821 2.732,4.008 2.732,6.558 -0.045,2.596 -0.956,4.782 -2.732,6.558 l -49.234,49.234 c -2.642,2.642 -3.962,5.83 -3.962,9.61 0.045,3.734 1.366,6.923 4.008,9.564 2.641,2.642 5.829,3.963 9.564,4.008 3.735,-0.045 6.923,-1.366 9.61,-3.962 l 49.233,-49.234 c 7.06,-7.15 10.612,-15.713 10.658,-25.778 -0.046,-10.065 -3.598,-18.628 -10.703,-25.733 l -49.234,-49.233 c -2.641,-2.642 -5.829,-3.963 -9.519,-3.963 q -5.647,0 -9.609,3.963 c -2.642,2.641 -3.963,5.83 -3.963,9.61 z M 207.718,433.071 c -3.735,0.046 -6.923,1.367 -9.61,3.963 l -49.234,49.233 c -7.059,7.151 -10.612,15.713 -10.657,25.779 0.045,10.065 3.598,18.627 10.703,25.732 l 49.233,49.234 c 2.642,2.641 5.83,3.962 9.519,3.962 3.78,0 6.968,-1.321 9.61,-3.962 2.642,-2.642 3.962,-5.83 3.962,-9.61 0.046,-3.735 -1.275,-6.923 -3.916,-9.565 l -49.234,-49.233 c -1.822,-1.822 -2.733,-4.008 -2.733,-6.558 0.046,-2.596 0.957,-4.783 2.733,-6.559 l 49.234,-49.233 c 2.641,-2.642 3.962,-5.83 3.962,-9.61 -0.046,-3.735 -1.366,-6.923 -4.008,-9.565 -2.642,-2.641 -5.83,-3.962 -9.564,-4.008 z m 229.361,373.693 c -2.641,2.641 -3.962,5.829 -4.008,9.564 0.046,3.735 1.367,6.923 3.963,9.61 l 49.233,49.233 c 7.151,7.06 15.713,10.612 25.779,10.658 10.065,-0.046 18.627,-3.598 25.732,-10.703 l 49.234,-49.234 c 2.641,-2.641 3.962,-5.829 3.962,-9.519 0,-3.78 -1.321,-6.968 -3.962,-9.609 -2.642,-2.642 -5.83,-3.963 -9.61,-3.963 -3.735,-0.045 -6.923,1.275 -9.565,3.917 l -49.233,49.234 c -1.822,1.821 -4.008,2.732 -6.558,2.732 -2.596,-0.045 -4.783,-0.956 -6.559,-2.732 l -49.233,-49.234 c -2.642,-2.642 -5.83,-3.962 -9.61,-3.962 -3.735,0.045 -6.923,1.366 -9.565,4.008 z"
             inkscape:connector-curvature="0"
             style="fill:#ebebeb;fill-opacity:1" />
        </g>
      </g>
    </g>
  </g>
</svg>
