<?xml version="1.0" encoding="UTF-8" standalone="no"?>
<!-- Created with Inkscape (http://www.inkscape.org/) -->

<svg
   xmlns:dc="http://purl.org/dc/elements/1.1/"
   xmlns:cc="http://creativecommons.org/ns#"
   xmlns:rdf="http://www.w3.org/1999/02/22-rdf-syntax-ns#"
   xmlns:svg="http://www.w3.org/2000/svg"
   xmlns="http://www.w3.org/2000/svg"
   xmlns:sodipodi="http://sodipodi.sourceforge.net/DTD/sodipodi-0.dtd"
   xmlns:inkscape="http://www.inkscape.org/namespaces/inkscape"
   id="svg2987"
   version="1.1"
   inkscape:version="0.48.5 r10040"
   width="513"
   height="513"
   sodipodi:docname="xkill.svg">
  <metadata
     id="metadata2993">
    <rdf:RDF>
      <cc:Work
         rdf:about="">
        <dc:format>image/svg+xml</dc:format>
        <dc:type
           rdf:resource="http://purl.org/dc/dcmitype/StillImage" />
        <dc:title />
      </cc:Work>
    </rdf:RDF>
  </metadata>
  <defs
     id="defs2991" />
  <sodipodi:namedview
     pagecolor="#ffffff"
     bordercolor="#666666"
     borderopacity="1"
     objecttolerance="10"
     gridtolerance="10"
     guidetolerance="10"
     inkscape:pageopacity="0"
     inkscape:pageshadow="2"
     inkscape:window-width="1265"
     inkscape:window-height="653"
     id="namedview2989"
     showgrid="false"
     inkscape:zoom="0.92007797"
     inkscape:cx="132.95086"
     inkscape:cy="272.37548"
     inkscape:window-x="60"
     inkscape:window-y="41"
     inkscape:window-maximized="0"
     inkscape:current-layer="svg2987" />
  <path
     inkscape:connector-curvature="0"
     id="path2984"
     d="m 99.423232,483.46218 c -3.0559,-1.61448 -7.05424,-5.35933 -8.88521,-8.32191 -2.82807,-4.57592 -3.25109,-7.14364 -2.8111,-17.06354 l 0.51792,-11.67707 -6.49345,-1.90444 c -7.28233,-2.1358 -13.88514,-6.78179 -16.65279,-11.71752 -2.57804,-4.59757 -2.40428,-18.55246 0.29602,-23.77426 4.19307,-8.10851 9.2202,-10.70804 20.70787,-10.70804 l 10.37856,0 8.285348,8.35182 8.28536,8.35179 5.8524,-2.12131 c 5.54975,-2.01163 24.14218,-10.08525 65.18395,-28.30568 10.04073,-4.45755 19.11161,-8.75393 20.15752,-9.54748 3.41094,-2.58799 2.01205,-5.54603 -3.80331,-8.04237 -5.71081,-2.45145 -25.79767,-10.85099 -59.33155,-24.81009 -9.83154,-4.09255 -27.44969,-11.6231 -39.15145,-16.73454 -11.701768,-5.11143 -22.109568,-9.29351 -23.128478,-9.29351 -1.01889,0 -4.03644,2.71758 -6.70566,6.03908 -5.77731,7.18908 -12.83107,9.89422 -22.38501,8.58471 -9.18277,-1.25863 -13.62898,-4.39637 -17.11763,-12.08008 -3.82071,-8.41504 -3.64923,-15.66989 0.54559,-23.08156 2.71437,-4.79595 5.20716,-6.78153 11.7652,-9.37134 4.57662,-1.80733 9.07821,-3.96712 10.00357,-4.79952 1.05764,-0.95141 1.44585,-5.66335 1.04533,-12.68783 -0.53609,-9.40259 -0.13418,-11.97282 2.5345,-16.2102 7.82154,-12.41891 30.71398,-12.7915 39.36611,-0.64069 4.841178,6.7988 5.448858,13.83644 2.03374,23.55307 -2.3192,6.59854 -2.60775,9.07166 -1.25602,10.76526 1.791598,2.24474 6.550698,4.34174 55.761778,24.57024 36.55065,15.02438 55.52835,22.91074 80.21458,33.33394 l 20.12236,8.4962 13.34672,-5.49142 c 7.34068,-3.0203 18.13887,-7.38609 23.99596,-9.70177 5.85709,-2.3157 14.75682,-5.92052 19.77718,-8.01072 5.02037,-2.09021 14.94699,-6.19575 22.05917,-9.12344 64.18589,-26.42177 77.41235,-32.344 78.48633,-35.14273 0.46339,-1.20761 -0.2143,-4.23936 -1.50599,-6.73724 -6.38966,-12.35622 -2.65388,-27.19378 8.21368,-32.62274 10.98323,-5.48672 26.34248,-2.24693 32.0101,6.75204 2.66669,4.23414 3.07051,6.80967 2.53656,16.17803 -0.65927,11.5667 0.8705,15.48095 6.05022,15.48095 4.88516,0 14.54432,6.93886 17.37036,12.47835 8.30455,16.27824 -2.91444,34.67367 -21.15074,34.68027 -8.207,0.003 -14.21283,-3.05345 -19.42323,-9.88464 -2.23438,-2.92943 -4.89759,-5.32622 -5.91826,-5.32622 -1.60016,0 -11.07314,3.84214 -44.94409,18.22884 -3.76527,1.59931 -19.16866,8.29629 -34.22974,14.88216 -15.06109,6.5859 -32.00481,13.96289 -37.65271,16.39334 -5.64791,2.43043 -10.26893,5.27776 -10.26893,6.32736 0,1.04961 1.62837,2.97533 3.61857,4.27936 4.4606,2.9227 56.72208,25.79128 82.13938,35.94258 l 7.40987,2.95939 6.28202,-6.72281 c 8.21161,-8.78779 11.13667,-10.13885 21.95073,-10.13885 10.02793,0 15.33262,2.93524 19.35209,10.70804 3.17594,6.14159 2.88607,19.42002 -0.54685,25.04922 -2.50165,4.10213 -5.09148,5.78739 -18.50007,12.03849 -3.59188,1.67453 -3.8033,2.44925 -3.8033,13.9366 0,14.2525 -2.18415,18.75504 -11.37156,23.44211 -7.46131,3.80647 -14.15094,3.84047 -22.35925,0.11364 -10.71555,-4.8652 -13.97813,-13.39297 -11.13096,-29.09418 2.08521,-11.49923 1.14647,-12.79004 -13.70912,-18.85058 -5.43872,-2.2188 -31.92892,-12.92119 -58.8671,-23.78311 l -48.97853,-19.74892 -32.41219,13.18227 c -42.64561,17.34426 -47.11186,19.17736 -60.55665,24.85452 -6.27545,2.64987 -14.94166,6.17825 -19.25826,7.84086 -11.202,4.31468 -11.97296,5.63889 -9.65157,16.57771 3.11168,14.66291 -0.22412,23.61125 -10.81632,29.015 -7.28237,3.71519 -15.7101,3.67286 -22.879568,-0.11486 z M 199.71991,304.64466 c -6.52837,-3.54282 -7.74674,-7.66195 -8.67614,-29.33295 -0.82937,-19.33859 -1.0495,-20.43598 -4.67367,-23.29839 -8.73303,-6.89745 -24.83578,-23.77555 -29.75728,-31.19011 -13.23637,-19.94144 -19.28089,-40.70028 -19.20003,-65.93929 0.0645,-20.13221 3.29047,-35.4467 10.73554,-50.96429 17.12752,-35.698455 46.4966,-58.024977 86.1434,-65.486635 38.317,-7.211384 76.66487,5.084547 105.20059,33.731675 21.37968,21.463172 33.0195,49.95662 33.17005,81.19793 0.19039,39.50999 -13.89004,68.45446 -47.49518,97.63361 l -6.4421,5.59364 -0.009,16.46552 c -0.0106,19.33168 -1.679,26.58865 -7.09502,30.84888 -3.81349,2.9997 -5.82649,3.10966 -55.85618,3.05093 -42.83398,-0.0502 -52.62424,-0.45388 -56.04549,-2.31052 z m 14.50576,-95.89074 c 12.37679,-4.21719 25.39069,-22.47109 25.39069,-35.61414 0,-6.27341 -5.00507,-18.22351 -10.15005,-24.23427 -14.95835,-17.47545 -39.05954,-18.32052 -55.69945,-1.953 -7.33286,7.21283 -11.73791,17.04049 -11.73791,26.18727 0,8.91214 4.47958,19.20036 11.31024,25.97616 11.45188,11.35991 25.86306,14.75699 40.88648,9.63798 z m 104.84132,0.8282 c 8.67149,-2.40829 18.0446,-10.43907 22.79324,-19.529 16.43371,-31.45773 -17.44261,-66.42308 -49.76934,-51.36928 -8.29856,3.86445 -16.6624,12.34052 -19.95643,20.22421 -2.69064,6.43962 -2.69064,22.02385 0,28.46347 7.44749,17.82434 27.8907,27.49899 46.93253,22.2106 z"
     style="fill:#394050" />
</svg>
