<?xml version="1.0" encoding="UTF-8" standalone="no"?>
<!-- Created with Inkscape (http://www.inkscape.org/) -->

<svg
   xmlns:dc="http://purl.org/dc/elements/1.1/"
   xmlns:cc="http://creativecommons.org/ns#"
   xmlns:rdf="http://www.w3.org/1999/02/22-rdf-syntax-ns#"
   xmlns:svg="http://www.w3.org/2000/svg"
   xmlns="http://www.w3.org/2000/svg"
   xmlns:sodipodi="http://sodipodi.sourceforge.net/DTD/sodipodi-0.dtd"
   xmlns:inkscape="http://www.inkscape.org/namespaces/inkscape"
   id="svg2987"
   version="1.1"
   inkscape:version="0.91 r13725"
   width="500"
   height="500"
   sodipodi:docname="xlog.svg">
  <metadata
     id="metadata2993">
    <rdf:RDF>
      <cc:Work
         rdf:about="">
        <dc:format>image/svg+xml</dc:format>
        <dc:type
           rdf:resource="http://purl.org/dc/dcmitype/StillImage" />
        <dc:title />
      </cc:Work>
    </rdf:RDF>
  </metadata>
  <defs
     id="defs2991" />
  <sodipodi:namedview
     pagecolor="#ffffff"
     bordercolor="#666666"
     borderopacity="1"
     objecttolerance="10"
     gridtolerance="10"
     guidetolerance="10"
     inkscape:pageopacity="0"
     inkscape:pageshadow="2"
     inkscape:window-width="1089"
     inkscape:window-height="592"
     id="namedview2989"
     showgrid="false"
     inkscape:zoom="0.23046875"
     inkscape:cx="-492.43932"
     inkscape:cy="148.51641"
     inkscape:window-x="15"
     inkscape:window-y="39"
     inkscape:window-maximized="0"
     inkscape:current-layer="svg2987" />
  <path
     style="fill:#f03916;fill-opacity:1"
     d="m 152.18758,477.07517 c -2.71063,-3.70078 -2.65195,-6.98268 0.2542,-14.21983 2.43091,-6.05376 3.12697,-14.05469 1.95201,-22.43806 C 142.80471,357.72819 134.56852,299.62237 128.992,261.2094 c -7.44853,-51.30818 -6.87901,-60.30851 4.47723,-70.75387 12.46382,-11.46403 13.89125,-10.37454 16.78918,12.81444 1.42391,11.39415 5.10669,39.17276 8.1839,61.7302 l 5.59499,41.01357 46.8705,11.10374 c 68.97762,16.34102 74.99767,17.26519 86.28448,13.24628 7.88633,-2.80808 10.49517,-2.70417 13.49731,0.53766 l 3.72145,4.01855 -26.94313,24.95114 c -18.01351,16.68171 -27.46155,24.39134 -28.50734,23.26206 -2.75322,-2.97301 -4.02462,-10.79835 -2.05791,-12.66623 1.04718,-0.99336 2.31742,-3.36955 2.82409,-5.27903 0.72654,-2.73821 -8.81498,-5.98866 -45.15971,-15.38414 -25.34451,-6.55182 -46.4546,-11.60061 -46.91132,-11.21956 -0.45671,0.38112 0.49642,7.04441 2.1181,14.80736 1.62172,7.76296 5.46487,28.85386 8.54039,46.86865 5.53649,32.43011 7.28684,36.07469 14.28887,29.75241 2.01314,-1.81773 9.718,0.0498 12.47122,3.02283 1.04222,1.12542 -6.93307,9.5581 -23.89932,25.26998 l -25.46351,23.58092 z M 438.71703,140.56289 c -19.88324,8.40781 -47.53794,-0.16364 -62.29111,-19.30677 -13.55537,-17.589 -16.23528,-44.905805 -5.95245,-60.674254 8.6792,-13.656016 15.91513,-21.728185 26.9543,-26.290435 14.02594,-5.664243 15.12496,-6.682159 11.47271,-10.62597 -3.57002,-3.855038 1.47725,-9.50802 6.34863,-7.110498 5.52209,2.717752 28.10455,28.16264 26.62995,30.005404 -0.7506,0.937997 -1.97691,2.404864 -2.72515,3.259688 -0.7482,0.854833 -6.02569,-0.08717 -11.72772,-2.093338 -20.74521,-7.298858 -40.98374,3.876163 -40.6536,22.44754 0.34952,19.659686 28.26562,50.529123 47.69613,52.742043 6.32792,0.72067 8.82723,-0.36095 16.0901,-6.96337 l 8.59853,-7.81652 -5.22443,-6.65756 c -7.64693,-9.744535 -13.09099,-12.628279 -17.74824,-9.401283 -2.64561,1.833164 -5.04144,1.703868 -6.96749,-0.375949 -2.77234,-2.993685 -1.87883,-4.148261 16.08325,-20.782347 18.31542,-16.961306 19.15467,-17.502098 22.69793,-14.623289 2.74936,2.233821 2.87561,3.977073 0.4995,6.897654 -2.94326,3.617712 -2.42303,4.794967 6.99554,15.830052 5.5964,6.556916 10.03283,12.062835 9.85871,12.235359 -0.17361,0.173034 -3.909,6.94341 -8.29979,15.046373 -13.62166,19.35063 -22.60088,25.60453 -38.3353,34.25747 z m -87.61406,80.57982 c -32.02512,9.46606 -68.97268,-15.79269 -72.82837,-49.78818 -2.45164,-21.61626 10.16519,-44.42921 30.45441,-55.06565 9.98886,-5.23655 31.1544,-6.0095 43.03638,-1.57165 28.09722,10.49418 44.33654,44.36232 34.50224,71.95668 -5.5845,15.66982 -20.2722,30.06686 -35.16466,34.4688 z m 17.15153,-33.97644 c 0.0874,-12.38569 -17.79825,-36.53213 -37.11221,-50.10313 -19.21716,-13.50297 -36.31855,-2.22179 -30.36241,20.02896 4.64627,17.35733 41.3316,49.28888 53.51451,46.58 7.29885,-1.6229 13.91026,-9.43992 13.96011,-16.50583 z M 251.16854,311.13634 c -2.03239,-2.19463 -1.72846,-4.94119 1.02138,-9.22926 l 3.91484,-6.1048 -28.43383,-30.70387 -28.43382,-30.70385 -6.38694,3.43535 c -4.48626,2.413 -7.24802,2.50551 -9.28041,0.31087 -2.73596,-2.95439 -1.7339,-4.19831 18.409,-22.85199 13.08806,-12.12041 22.28753,-19.45471 23.85692,-19.02004 3.91056,1.08307 3.45159,8.45101 -0.76994,12.36044 l -3.76817,3.48957 28.62042,30.90536 28.62042,30.90536 8.83881,-8.18534 c 7.59183,-7.03052 8.88566,-9.40533 9.17075,-16.83291 0.1826,-4.7562 -1.52989,-12.44422 -3.80549,-17.08451 -2.27558,-4.64033 -3.26782,-9.24222 -2.20502,-10.22644 4.0535,-3.75382 8.72478,-0.70206 17.70888,11.56925 4.94544,6.75496 10.11092,13.56375 11.47883,15.13065 2.28926,2.62236 -0.22311,5.35877 -31.58802,34.40478 -32.85383,30.42483 -34.17892,31.4438 -36.96861,28.43138 z M 88.631975,323.92099 c -22.062547,-5.06374 -47.490781,-10.70523 -56.50717,-12.53661 -9.016377,-1.83138 -16.958417,-3.9399 -17.648962,-4.68557 -2.076192,-2.24194 1.465427,-7.44962 11.192158,-16.45722 11.297128,-10.46189 12.29045,-10.42498 64.980224,2.41463 34.989055,8.5262 41.492075,10.77459 38.802655,13.41569 -0.63597,0.62464 -0.33983,6.30923 0.65818,12.63249 0.99802,6.32327 1.09955,12.15535 0.2256,12.96015 -0.87474,0.80394 -19.64015,-2.6798 -41.702685,-7.74356 z"
     id="path3346"
     inkscape:connector-curvature="0"
     sodipodi:nodetypes="ssssssscssscsscsscssssscscsccssscsssscssssssscccssssssssssssscccssssscccssssscssssssscscs" />
</svg>
