<?xml version="1.0" encoding="UTF-8" standalone="no"?>
<!-- Created with Inkscape (http://www.inkscape.org/) -->

<svg
   xmlns:dc="http://purl.org/dc/elements/1.1/"
   xmlns:cc="http://creativecommons.org/ns#"
   xmlns:rdf="http://www.w3.org/1999/02/22-rdf-syntax-ns#"
   xmlns:svg="http://www.w3.org/2000/svg"
   xmlns="http://www.w3.org/2000/svg"
   xmlns:sodipodi="http://sodipodi.sourceforge.net/DTD/sodipodi-0.dtd"
   xmlns:inkscape="http://www.inkscape.org/namespaces/inkscape"
   width="512"
   height="512"
   id="svg2"
   version="1.1"
   inkscape:version="0.91 r13725"
   sodipodi:docname="0_people.svg">
  <defs
     id="defs4" />
  <sodipodi:namedview
     id="base"
     pagecolor="#ffffff"
     bordercolor="#666666"
     borderopacity="1.0"
     inkscape:pageopacity="0.0"
     inkscape:pageshadow="2"
     inkscape:zoom="0.49497475"
     inkscape:cx="349.1961"
     inkscape:cy="237.7294"
     inkscape:document-units="px"
     inkscape:current-layer="layer1"
     showgrid="false"
     inkscape:window-width="1366"
     inkscape:window-height="715"
     inkscape:window-x="0"
     inkscape:window-y="24"
     inkscape:window-maximized="1" />
  <metadata
     id="metadata7">
    <rdf:RDF>
      <cc:Work
         rdf:about="">
        <dc:format>image/svg+xml</dc:format>
        <dc:type
           rdf:resource="http://purl.org/dc/dcmitype/StillImage" />
        <dc:title />
      </cc:Work>
    </rdf:RDF>
  </metadata>
  <g
     inkscape:label="Layer 1"
     inkscape:groupmode="layer"
     id="layer1"
     transform="translate(0,-540.36218)">
    <g
       id="g4148">
      <rect
         transform="matrix(0.68145507,0.73185995,-0.73185995,0.68145507,0,0)"
         ry="19.620043"
         rx="21.757977"
         y="198.09315"
         x="597.61517"
         height="316.37311"
         width="316.37311"
         id="rect2988"
         style="fill:#ffcc00;fill-opacity:1;stroke:#394050;stroke-width:27.86662674;stroke-miterlimit:4;stroke-dasharray:none;stroke-opacity:1" />
      <path
         sodipodi:nodetypes="zccczcccccccczcccz"
         inkscape:connector-curvature="0"
         id="path3758"
         d="m 255.87202,823.97179 c -15.56845,0.30147 -21.04426,5.84405 -21.04426,5.84405 l -30.31736,25.02299 -4.21611,35.00641 c 0,0 -1.48957,8.16497 6.78145,9.63471 8.271,1.46975 8.60443,-6.17096 8.60443,-6.17096 l 4.92468,-33.16659 13.966,-5.00919 -0.79984,55.91905 51.2453,-0.26785 -2.42386,-56.24356 13.53648,4.10195 9.43435,30.3543 c 0,0 3.01676,7.94348 9.38888,5.97871 6.37234,-1.96474 4.96791,-9.67044 4.96791,-9.67044 l -9.84463,-38.148 -35.68679,-20.50971 c 0,0 -2.94819,-2.97734 -18.51663,-2.67587 z"
         style="fill:#394050;stroke:none" />
      <path
         sodipodi:open="true"
         sodipodi:end="6.2784904"
         sodipodi:start="0"
         d="m 274.73192,797.05884 a 21.740263,21.330067 0 0 1 -21.71475,21.33005 21.740263,21.330067 0 0 1 -21.76572,-21.27998 21.740263,21.330067 0 0 1 21.66365,-21.38001 21.740263,21.330067 0 0 1 21.81658,21.2298"
         sodipodi:ry="21.330067"
         sodipodi:rx="21.740263"
         sodipodi:cy="797.05884"
         sodipodi:cx="252.99165"
         id="path3760"
         style="fill:#394050;fill-opacity:1;stroke:none"
         sodipodi:type="arc" />
      <path
         sodipodi:nodetypes="zccczcccccccczcccz"
         inkscape:connector-curvature="0"
         id="path3758-3"
         d="m 351.17287,762.07403 c -15.26321,2.13287 -23.79136,18.6638 -23.79136,18.6638 l -17.4976,24.41254 -26.80328,14.55586 c 0,0 -6.67853,2.97601 -4.51216,9.02423 2.16637,6.04823 7.38351,4.51216 7.38351,4.51216 l 31.17465,-12.71601 16.40785,-15.99755 14.76703,46.76207 c 0,0 46.0389,-6.86293 47.5825,-8.20387 l -10.66513,-49.22323 13.53648,4.10195 9.43435,30.3543 c 0,0 3.01676,7.94348 9.38888,5.97871 6.37234,-1.96474 4.96791,-9.67044 4.96791,-9.67044 l -9.84463,-38.148 -35.6868,-20.50971 c 0,0 -10.579,-6.02967 -25.8422,-3.89681 z"
         style="fill:#394050;stroke:none" />
      <path
         sodipodi:open="true"
         sodipodi:end="6.2784904"
         sodipodi:start="0"
         d="m 373.04172,734.65533 a 21.740263,21.330067 0 0 1 -21.71475,21.33006 21.740263,21.330067 0 0 1 -21.76572,-21.27998 21.740263,21.330067 0 0 1 21.66365,-21.38001 21.740263,21.330067 0 0 1 21.81658,21.22979"
         sodipodi:ry="21.330067"
         sodipodi:rx="21.740263"
         sodipodi:cy="734.65533"
         sodipodi:cx="351.30145"
         id="path3760-6"
         style="fill:#394050;fill-opacity:1;stroke:none"
         sodipodi:type="arc" />
      <path
         sodipodi:nodetypes="zccczcccccccczcccz"
         inkscape:connector-curvature="0"
         id="path3758-7"
         d="m 162.29916,761.21071 c 15.26321,2.13287 23.79136,18.66381 23.79136,18.66381 l 17.4976,24.41254 26.8033,14.55585 c 0,0 6.67853,2.97601 4.51216,9.02424 -2.16637,6.04822 -7.38351,4.51216 -7.38351,4.51216 l -31.17467,-12.71602 -16.40785,-15.99755 -14.76702,46.76207 c 0,0 -46.0389,-6.86292 -47.58251,-8.20387 l 10.66513,-49.22323 -13.53648,4.10195 -9.43435,30.35431 c 0,0 -3.01676,7.94348 -9.388876,5.9787 -6.372341,-1.96474 -4.967911,-9.67043 -4.967911,-9.67043 l 9.844627,-38.148 35.6868,-20.50971 c 0,0 10.579,-6.02968 25.8422,-3.89682 z"
         style="fill:#394050;stroke:none" />
      <path
         sodipodi:open="true"
         sodipodi:end="6.2784904"
         sodipodi:start="0"
         transform="scale(-1,1)"
         d="m -140.43028,733.79205 a 21.740263,21.330067 0 0 1 -21.71475,21.33006 21.740263,21.330067 0 0 1 -21.76572,-21.27999 21.740263,21.330067 0 0 1 21.66365,-21.38 21.740263,21.330067 0 0 1 21.81658,21.22979"
         sodipodi:ry="21.330067"
         sodipodi:rx="21.740263"
         sodipodi:cy="733.79205"
         sodipodi:cx="-162.17055"
         id="path3760-5"
         style="fill:#394050;fill-opacity:1;stroke:none"
         sodipodi:type="arc" />
    </g>
  </g>
</svg>
