<?xml version="1.0" encoding="UTF-8" standalone="no"?>
<!-- Created with Inkscape (http://www.inkscape.org/) -->

<svg
   xmlns:dc="http://purl.org/dc/elements/1.1/"
   xmlns:cc="http://creativecommons.org/ns#"
   xmlns:rdf="http://www.w3.org/1999/02/22-rdf-syntax-ns#"
   xmlns:svg="http://www.w3.org/2000/svg"
   xmlns="http://www.w3.org/2000/svg"
   xmlns:sodipodi="http://sodipodi.sourceforge.net/DTD/sodipodi-0.dtd"
   xmlns:inkscape="http://www.inkscape.org/namespaces/inkscape"
   width="500"
   height="500"
   id="svg2"
   version="1.1"
   inkscape:version="0.91 r13725"
   sodipodi:docname="0ad.svg">
  <defs
     id="defs4" />
  <sodipodi:namedview
     id="base"
     pagecolor="#ffffff"
     bordercolor="#666666"
     borderopacity="1.0"
     inkscape:pageopacity="0.0"
     inkscape:pageshadow="2"
     inkscape:zoom="0.60666665"
     inkscape:cx="28.341193"
     inkscape:cy="195.67424"
     inkscape:document-units="px"
     inkscape:current-layer="layer1"
     showgrid="false"
     inkscape:window-width="1366"
     inkscape:window-height="715"
     inkscape:window-x="0"
     inkscape:window-y="24"
     inkscape:window-maximized="1"
     inkscape:snap-global="false" />
  <metadata
     id="metadata7">
    <rdf:RDF>
      <cc:Work
         rdf:about="">
        <dc:format>image/svg+xml</dc:format>
        <dc:type
           rdf:resource="http://purl.org/dc/dcmitype/StillImage" />
        <dc:title />
      </cc:Work>
    </rdf:RDF>
  </metadata>
  <g
     inkscape:label="Layer 1"
     inkscape:groupmode="layer"
     id="layer1"
     transform="translate(0,-552.36218)">
    <g
       id="g4140">
      <path
         inkscape:connector-curvature="0"
         id="path871"
         d="m 62.324645,786.44857 168.079265,-3.15642 3.94552,-171.23568 28.40776,-1.97277 5.52374,172.02479 171.23569,5.12918 0,29.98597 -172.41935,5.12918 0,172.41933 -39.06067,1.57826 1.57821,-171.63027 -169.262926,-3.55097 z"
         style="fill:#faec6d;fill-opacity:1;stroke:none;stroke-width:1px;stroke-linecap:butt;stroke-linejoin:miter;stroke-opacity:1" />
      <path
         inkscape:connector-curvature="0"
         id="path49-3"
         d="M 206.15553,1023.2097 C 91.960024,1000.783 8.8650424,882.46759 27.658149,769.05473 47.902554,646.88385 164.75414,560.40151 283.08802,580.01006 404.83073,600.18349 491.73607,717.13711 472.27104,834.60484 451.16739,961.96117 330.33716,1047.5977 206.15553,1023.2097 Z m 32.78266,-118.88902 -1.34078,-89.77535 -90.22679,-1.34249 -90.226766,-1.34255 3.3094,21.01933 c 5.20864,33.08179 29.25722,79.99752 53.361876,104.10217 23.59364,23.59363 60.48753,44.68657 90.55763,51.77348 38.81503,9.14811 36.06342,15.86953 34.56543,-84.43459 z m 93.11129,70.07208 c 54.04187,-24.78154 98.04796,-82.8257 107.28803,-141.51314 l 3.30945,-21.01933 -90.22678,1.34255 -90.22678,1.34249 -1.34251,90.22677 -1.34255,90.22668 21.01935,-3.30942 c 11.56059,-1.82009 34.7454,-9.6036 51.52179,-17.2966 z m -93.10957,-274.67019 1.34255,-90.22678 -21.01934,3.30941 c -33.38654,5.25658 -80.07527,29.33498 -104.7751,54.03476 -24.699776,24.69982 -48.778166,71.38857 -54.034766,104.7751 l -3.3094,21.01933 90.226766,-1.34254 90.22679,-1.3425 z m 200.37856,71.77978 c -5.2377,-33.27991 -29.34585,-79.99252 -54.01568,-104.66239 -24.66986,-24.66988 -71.38247,-48.77799 -104.66242,-54.0157 l -20.90657,-3.2904 0,88.15812 c 0,48.48691 1.47575,89.63382 3.27948,91.43748 1.80367,1.80374 42.95058,3.27948 91.43749,3.27948 l 88.15811,0 z"
         style="fill:#ffcc00;fill-opacity:1;stroke-width:5.13782787" />
      <path
         inkscape:connector-curvature="0"
         id="path49"
         d="M 208.02125,1013.8119 C 98.685126,992.33956 19.126104,879.05885 37.119505,770.47206 56.50245,653.49995 168.38162,570.69771 281.68002,589.47186 398.2422,608.78684 481.44943,720.76371 462.8127,833.23281 442.60708,955.16972 326.91856,1037.162 208.02125,1013.8119 Z m 31.38766,-113.82988 -1.28373,-85.95512 -86.38735,-1.28537 -86.387331,-1.28542 3.168573,20.1249 c 4.987,31.67405 28.012236,76.59336 51.091158,99.67229 22.58966,22.58965 57.91359,42.78506 86.70412,49.57039 37.16332,8.75882 34.5288,15.19419 33.09456,-80.84167 z m 89.1491,67.09027 c 51.74222,-23.72698 93.87571,-79.30118 102.72259,-135.49128 l 3.16862,-20.1249 -86.38734,1.28542 -86.38735,1.28537 -1.28538,86.38733 -1.28542,86.38728 20.12491,-3.16857 c 11.06865,-1.74265 33.26687,-9.19494 49.32937,-16.56065 z m -89.14746,-262.98207 1.28542,-86.38735 -20.1249,3.16858 c -31.96583,5.0329 -76.66781,28.08669 -100.31658,51.73542 -23.648725,23.64876 -46.702506,68.35075 -51.735418,100.31658 l -3.168573,20.12489 86.387331,-1.28542 86.38735,-1.28537 z m 191.85182,68.72532 c -5.01482,-31.86376 -28.09709,-76.58859 -51.71714,-100.20867 -23.62008,-23.6201 -68.34492,-46.70233 -100.2087,-51.71716 l -20.01693,-3.15039 0,84.40671 c 0,46.42363 1.41295,85.81961 3.13992,87.54653 1.72692,1.72697 41.1229,3.13993 87.54654,3.13993 l 84.4067,0 z"
         style="fill:#c87137;fill-opacity:1;stroke-width:4.91919708" />
    </g>
  </g>
</svg>
