<?xml version="1.0" encoding="UTF-8" standalone="no"?>
<svg
   xmlns:dc="http://purl.org/dc/elements/1.1/"
   xmlns:cc="http://creativecommons.org/ns#"
   xmlns:rdf="http://www.w3.org/1999/02/22-rdf-syntax-ns#"
   xmlns:svg="http://www.w3.org/2000/svg"
   xmlns="http://www.w3.org/2000/svg"
   xmlns:sodipodi="http://sodipodi.sourceforge.net/DTD/sodipodi-0.dtd"
   xmlns:inkscape="http://www.inkscape.org/namespaces/inkscape"
   version="1.1"
   id="Layer_1"
   x="0px"
   y="0px"
   width="500"
   height="500"
   viewBox="0 0 500 500"
   enable-background="new 0 0 100 100"
   xml:space="preserve"
   inkscape:version="0.48.5 r10040"
   sodipodi:docname="accessories-painting.svg"><metadata
     id="metadata8"><rdf:RDF><cc:Work
         rdf:about=""><dc:format>image/svg+xml</dc:format><dc:type
           rdf:resource="http://purl.org/dc/dcmitype/StillImage" /><dc:title /></cc:Work></rdf:RDF></metadata><defs
     id="defs6" /><sodipodi:namedview
     pagecolor="#ffffff"
     bordercolor="#666666"
     borderopacity="1"
     objecttolerance="10"
     gridtolerance="10"
     guidetolerance="10"
     inkscape:pageopacity="0"
     inkscape:pageshadow="2"
     inkscape:window-width="1366"
     inkscape:window-height="716"
     id="namedview4"
     showgrid="false"
     inkscape:zoom="0.5"
     inkscape:cx="-51.340843"
     inkscape:cy="37.196601"
     inkscape:window-x="0"
     inkscape:window-y="0"
     inkscape:window-maximized="1"
     inkscape:current-layer="Layer_1" /><path
     id="Palette_1_"
     d="m 406.1961,385.25538 c -0.76048,-18.00898 -27.83241,-71.55883 -27.19342,-92.33977 0.729,-23.56195 14.98045,-52.58238 44.65338,4.14898 17.77945,33.99742 45.07189,12.84295 48.3839,-3.69897 C 482.04342,243.32574 467.18895,183.30489 419.88058,124.49456 338.05279,22.790286 194.22416,-5.1411136 98.711908,62.115687 3.2041551,129.38154 1.2826601,280.85113 88.438434,368.63691 c 78.997296,79.5418 187.942016,114.5022 279.030786,76.16681 9.41847,-3.98249 40.58538,-16.18196 38.72688,-59.54834 z M 150.33578,90.353126 c 17.23495,-12.13647 41.03989,-8.00997 53.18536,9.23399 12.14547,17.239444 8.00548,41.048874 -9.22948,53.185334 -17.24845,12.14548 -41.04889,8.01001 -53.19436,-9.22947 -12.14547,-17.23944 -8.01448,-41.03989 9.23848,-53.189854 z M 75.914964,245.48122 c -12.136464,-17.23943 -7.996476,-41.0489 9.238479,-53.18536 17.225957,-12.13647 41.048897,-8.01898 53.185367,9.22049 12.14547,17.24393 7.99648,41.05788 -9.22948,53.19435 -17.23496,12.14099 -41.053395,8.02799 -53.194366,-9.22948 z M 261.20199,146.12599 c -12.15447,-17.23947 -8.01448,-41.05791 9.22948,-53.194384 17.23945,-12.13646 41.03989,-8.00548 53.19436,9.238484 12.13647,17.23495 8.00098,41.0399 -9.23848,53.18537 -17.23945,12.14095 -41.04439,8.0145 -53.18536,-9.22947 z M 132.07482,342.91047 c -12.13647,-17.25294 -8.00997,-41.07138 9.22498,-53.20785 17.23946,-12.13646 41.05789,-8.00548 53.19436,9.22947 12.13647,17.24397 8.00998,41.06241 -9.22947,53.19887 -17.23496,12.14544 -41.0489,8.00548 -53.18987,-9.22049 z"
     inkscape:connector-curvature="0"
     style="fill:#394050" /><g
     id="g3344"
     transform="translate(-148.83006,342.69516)" /><g
     id="g3346"
     transform="translate(-148.83006,342.69516)" /><g
     id="g3348"
     transform="translate(-148.83006,342.69516)" /><g
     id="g3350"
     transform="translate(-148.83006,342.69516)" /><g
     id="g3352"
     transform="translate(-148.83006,342.69516)" /><g
     id="g3354"
     transform="translate(-148.83006,342.69516)" /><g
     id="g3356"
     transform="translate(-148.83006,342.69516)" /><g
     id="g3358"
     transform="translate(-148.83006,342.69516)" /><g
     id="g3360"
     transform="translate(-148.83006,342.69516)" /><g
     id="g3362"
     transform="translate(-148.83006,342.69516)" /><g
     id="g3364"
     transform="translate(-148.83006,342.69516)" /><g
     id="g3366"
     transform="translate(-148.83006,342.69516)" /><g
     id="g3368"
     transform="translate(-148.83006,342.69516)" /><g
     id="g3370"
     transform="translate(-148.83006,342.69516)" /><g
     id="g3372"
     transform="translate(-148.83006,342.69516)" /><path
     style="fill:#ffcc00;fill-opacity:1;stroke:none"
     d="m 160.58344,160.378 c -19.52475,-6.11097 -32.76713,-28.31533 -28.56696,-47.90002 2.10107,-9.79697 6.123,-17.025554 13.10825,-23.559454 9.24451,-8.64713 15.95683,-11.25845 28.93988,-11.25845 13.01495,0 19.69455,2.61054 29.03506,11.34749 23.20407,21.704694 14.89496,60.701244 -15.19592,71.317894 -6.38503,2.25278 -20.20562,2.27937 -27.32031,0.0523 z"
     id="path4250"
     inkscape:connector-curvature="0" /><path
     style="fill:#00bbf2;fill-opacity:1;stroke:none"
     d="m 279.65793,162.6466 c -18.74691,-5.86754 -31.46173,-27.18729 -27.42889,-45.99176 2.01736,-9.40664 5.87907,-16.34728 12.58604,-22.620884 8.87622,-8.30266 15.32112,-10.80991 27.78695,-10.80991 12.49646,0 18.90995,2.50654 27.87835,10.89543 22.27965,20.839984 14.30156,58.282964 -14.59054,68.476714 -6.13066,2.163 -19.40065,2.1885 -26.23191,0.0505 z"
     id="path4250-8"
     inkscape:connector-curvature="0" /><path
     style="fill:#45d03f;fill-opacity:1;stroke:none"
     d="m 97.030568,262.3634 c -18.746904,-5.86754 -31.461727,-27.18729 -27.428892,-45.99176 2.017366,-9.40668 5.87907,-16.34728 12.586045,-22.62088 8.876218,-8.30266 15.321123,-10.80991 27.786949,-10.80991 12.49646,0 18.90996,2.5065 27.87836,10.89539 22.27965,20.84002 14.30156,58.28299 -14.59055,68.47671 -6.13065,2.16304 -19.40065,2.18854 -26.231912,0.0505 z"
     id="path4250-0"
     inkscape:connector-curvature="0" /><path
     style="fill:#c83771;fill-opacity:1;stroke:none"
     d="m 150.81041,359.83934 c -18.7469,-5.86753 -31.46173,-27.18729 -27.42889,-45.99175 2.01736,-9.40665 5.87907,-16.34729 12.58604,-22.62089 8.87622,-8.30265 15.32113,-10.8099 27.78696,-10.8099 12.49645,0 18.90995,2.5065 27.87834,10.89542 22.27965,20.83999 14.30156,58.28296 -14.59054,68.47668 -6.13065,2.16303 -19.40065,2.18854 -26.23191,0.0505 z"
     id="path4250-5"
     inkscape:connector-curvature="0" /><path
     inkscape:connector-curvature="0"
     style="fill:#d38d5f"
     d="m 467.94936,42.550959 c -1.4841,0.0023 -2.46398,0.212774 -3.73131,0.802781 -4.16958,1.940913 -7.17537,4.666433 -17.0509,15.456628 -40.84866,44.632062 -69.74377,81.687672 -95.30641,122.228272 -16.78169,26.6146 -31.05775,51.93988 -55.27976,98.06532 -4.42417,8.42478 -8.30033,15.60105 -8.6159,15.94848 -0.31553,0.34739 -1.69886,2.62227 -3.07549,5.05421 -9.41964,16.64016 -18.01094,34.65347 -25.00535,52.43038 -3.33212,8.46887 -2.74261,7.70782 -6.65979,8.57065 -11.42784,2.51735 -23.50453,9.23699 -31.33725,17.43535 -6.48959,6.7926 -9.54911,12.5831 -17.60496,33.32164 -4.82116,12.41139 -5.80006,14.69057 -8.13534,18.97307 -6.51212,11.94217 -16.21221,20.98167 -33.62692,31.33727 -1.85743,1.10448 -3.45619,2.13918 -3.55602,2.30099 -0.0793,0.12826 0.37823,0.36235 1.12503,0.64445 0.40093,-0.25204 0.75239,-0.48684 1.23246,-0.76883 15.70186,-9.22318 26.77043,-19.12067 32.97676,-29.49425 2.28415,-3.81777 5.25257,-10.52986 9.32259,-21.08182 7.68751,-19.93085 10.53758,-25.52474 16.47425,-32.36053 5.46054,-6.28758 14.27915,-12.41501 23.00965,-15.98239 3.68845,-1.50717 9.12742,-3.1155 11.47091,-3.39211 0.92334,-0.10882 1.80961,-0.35936 1.96742,-0.55403 0.15803,-0.19483 1.35232,-3.07815 2.65714,-6.41107 4.94105,-12.62064 10.06342,-24.08711 16.40076,-36.71935 3.69496,-7.36522 11.06761,-21.06129 11.70836,-21.74893 0.2634,-0.2827 34.83109,20.65657 34.83109,21.09879 0,0.38277 -6.42163,9.58068 -10.83208,15.51882 -3.72113,5.01001 -8.15566,10.64697 -12.83339,16.36116 1.80549,-2.16375 3.89376,-4.62366 5.16729,-6.20753 6.42467,-7.9903 18.38552,-24.50051 19.26707,-26.59399 0.2336,-0.55467 3.57333,-5.38459 7.42301,-10.73594 13.40044,-18.62778 32.01912,-44.86058 39.41608,-55.52849 38.86999,-56.05853 62.6307,-98.7536 87.35195,-156.968954 5.4117,-12.7439 12.73769,-30.924139 13.9189,-34.542747 2.54618,-7.799775 2.59041,-12.815321 0.13013,-15.275715 -1.1259,-1.125905 -1.29414,-1.184464 -3.19987,-1.181585 z M 288.40604,300.66068 c -0.21883,0.0845 -1.36387,1.89903 -2.54405,4.03656 -1.63957,2.96956 -2.07084,4.00759 -1.83172,4.39843 0.38527,0.62969 26.09707,19.73854 26.57135,19.74763 0.18727,0.003 0.63362,-0.31299 0.98937,-0.70672 1.32957,-1.4709 6.47955,-9.1552 6.36582,-9.49785 -0.006,-0.015 -0.44284,-0.28494 -0.4862,-0.32234 -0.10306,0.45726 -0.86288,1.53582 -3.70869,5.55739 -1.38289,1.95423 -2.6741,3.54543 -2.8663,3.53907 -0.4396,-0.015 -25.50987,-18.46017 -25.90993,-19.06353 -0.2093,-0.31561 0.23158,-1.38591 1.52646,-3.70869 1.00225,-1.79766 2.00545,-3.46088 2.22747,-3.69171 0.0232,-0.0262 0.0918,-0.0187 0.14127,-0.0224 -0.0454,-0.0187 -0.46377,-0.26999 -0.47491,-0.26587 z m -5.55736,10.44198 c -0.63988,0.14023 -1.48947,1.77421 -5.88527,10.64548 -2.55513,5.15652 -4.2403,8.91929 -4.17792,9.33391 0.10623,0.70586 2.09533,1.70201 20.99704,10.50982 l 5.37081,2.50452 0.7519,-0.70672 c 0.41219,-0.38845 2.58515,-3.10223 4.83372,-6.03226 4.90088,-6.38627 5.01319,-6.48671 4.26838,-7.16859 -0.15687,0.50198 -2.41542,3.5449 -6.5976,8.84767 -1.54124,1.95423 -2.90144,3.54356 -3.01896,3.53343 -0.44209,-0.0374 -25.31089,-11.84124 -25.63289,-12.16627 -0.23909,-0.24157 1.04669,-3.11102 4.43233,-9.89924 3.38339,-6.7837 4.57631,-8.94831 5.09945,-9.27173 -0.0116,-0.004 -0.16327,-0.11704 -0.16962,-0.11854 -0.0923,-0.0262 -0.18006,-0.0299 -0.27122,-0.0112 z m -11.00732,22.20686 c -0.64144,-0.007 -5.86202,11.73949 -5.69871,12.82213 0.11319,0.75084 18.82092,13.89029 19.64021,13.79449 0.29833,-0.0337 3.11599,-3.1332 6.26405,-6.88594 3.148,-3.75281 5.68131,-7.04123 5.63086,-7.3043 -0.003,-0.0187 -0.56601,-0.29429 -0.65015,-0.35038 -0.38113,0.66053 -2.3823,3.1962 -5.12205,6.43933 -3.04421,3.60346 -5.70615,6.5428 -5.91919,6.52975 -0.51562,-0.0299 -18.79569,-12.66574 -18.98441,-13.12173 -0.18555,-0.44846 4.46382,-10.96493 5.18425,-11.77617 -0.0352,-0.0112 -0.32742,-0.14696 -0.34485,-0.14696 z m -6.3941,15.43965 c -0.73149,-0.0187 -0.96483,0.41792 -3.22248,6.02097 -1.33924,3.32379 -2.44694,6.48091 -2.45927,7.01599 -0.0288,1.20136 1.74332,4.2444 3.5617,6.12271 2.90966,3.00572 8.19294,4.63978 12.01364,3.70869 0.39196,-0.0953 2.498,-2.18767 4.67545,-4.64717 4.38228,-4.94992 4.48165,-5.08884 4.17225,-5.56304 -0.0232,-0.0336 -0.42145,-0.30999 -0.49749,-0.37876 -0.33225,0.63671 -1.32074,1.83138 -3.59562,4.37012 -2.2638,2.52643 -4.34581,4.68158 -4.62453,4.78852 -0.27874,0.10695 -1.02495,0.17875 -1.66213,0.15818 -5.42523,-0.17388 -9.8538,-2.86511 -12.31329,-7.47957 l -1.02894,-1.93347 1.87132,-4.82809 c 1.9139,-4.93844 2.64104,-6.69885 3.1207,-7.34951 -6.3e-4,-3e-5 -0.0116,-0.004 -0.0116,-0.004 z m 30.00868,4.46626 c -0.49946,0.59984 -1.00117,1.19352 -1.50382,1.79216 0.56691,-0.66674 0.94207,-1.12759 1.50382,-1.79216 z m -16.06154,18.74695 c -0.56436,0.74385 -0.89061,1.24815 -0.84236,1.39077 0.0932,0.2756 0.52604,1.50606 0.95545,2.73061 1.51256,4.3135 1.92229,7.18475 1.91653,13.35922 -0.006,7.15383 -0.65261,10.88884 -3.05853,17.65014 -0.34163,0.96006 -0.77007,1.92895 -1.19289,2.90026 0.95898,-2.02991 1.78764,-4.00952 2.39707,-5.87397 1.92674,-5.89464 2.53316,-9.74798 2.51579,-16.05026 -0.0172,-5.99412 -0.53518,-9.33376 -2.13137,-13.72101 -0.39137,-1.07583 -0.59651,-2.02146 -0.55969,-2.38576 z"
     id="path3375" /><path
     inkscape:connector-curvature="0"
     id="path3373"
     d="m 179.12238,469.48055 c -5.94967,-0.6495 -12.28169,-1.92611 -18.20256,-3.6698 -1.18021,-0.34777 -2.14584,-0.73787 -2.14584,-0.86736 0,-0.12939 1.32329,-1.01103 2.94061,-1.9592 15.76042,-9.23908 26.8689,-19.15578 33.0984,-29.54725 2.29265,-3.82438 5.27291,-10.55079 9.35809,-21.12096 7.71621,-19.96526 10.5742,-25.56898 16.53302,-32.41658 5.48092,-6.29843 14.3345,-12.4345 23.09755,-16.00805 3.53854,-1.44301 8.98056,-3.0722 11.28613,-3.37868 1.86961,-0.24868 1.8186,-0.16304 5.12217,-8.57392 5.84028,-14.86897 13.3068,-31.02177 20.54519,-44.44654 5.22374,-9.68827 7.31305,-13.23324 7.73832,-13.1297 0.29676,0.0722 28.46425,17.16102 34.0866,20.67983 1.44278,0.90296 1.6685,0.35898 -2.8438,6.85231 -9.40951,13.54021 -21.853,29.13101 -34.7416,43.52875 -2.71746,3.03563 -5.06268,5.73721 -5.21158,6.00361 -0.17194,0.30776 0.0232,1.37447 0.53206,2.92393 1.57667,4.79096 1.95485,7.42804 1.94909,13.59111 -0.006,7.1662 -0.65716,10.91008 -3.07205,17.68304 -1.91158,5.36122 -4.8235,10.43395 -11.70537,20.39126 -4.56019,6.59807 -14.33134,16.90375 -21.56829,22.74825 -10.33172,8.34368 -22.01701,14.58575 -33.51313,17.90207 -10.29919,2.97105 -22.44046,3.99752 -33.28301,2.81388 z m 96.77988,-99.73628 c 0.28049,-0.10807 2.37434,-2.28139 4.65298,-4.83007 3.36119,-3.75944 4.06472,-4.70839 3.7282,-5.0289 -0.8269,-0.78745 -17.27818,-12.02664 -17.81579,-12.17131 -0.63779,-0.17164 -0.91309,0.39742 -3.78463,7.82344 l -1.88441,4.87311 1.03763,1.95116 c 2.47562,4.6551 6.92908,7.36574 12.38988,7.54123 0.64135,0.0224 1.39562,-0.0508 1.67614,-0.15855 z m 16.54306,-18.52061 c 3.06415,-3.63521 5.52361,-6.75367 5.46549,-6.92983 -0.14909,-0.45165 -24.73687,-12.00069 -25.18359,-11.8289 -0.4805,0.18473 -5.54263,11.63935 -5.34994,12.10584 0.18989,0.45995 18.58779,13.20755 19.10679,13.23881 0.21449,0.015 2.8971,-2.95074 5.96125,-6.58592 z m 10.56887,-12.90562 c 4.35829,-5.5384 6.76351,-8.77506 6.76351,-9.10155 0,-0.36085 -25.05113,-18.89956 -25.80688,-19.09782 -0.4229,-0.11106 -1.52973,1.8616 -5.33333,9.50484 -3.40785,6.84805 -4.70135,9.74435 -4.46066,9.9879 0.32409,0.32795 25.35686,12.23481 25.80184,12.27273 0.11839,0.0112 1.48417,-1.59468 3.03552,-3.5661 z m 11.4281,-15.29344 c 4.32796,-6.12979 4.05416,-5.65851 3.5624,-6.13102 -0.24112,-0.23185 -6.71642,-4.24526 -14.38964,-8.9191 -11.50423,-7.00739 -14.02249,-8.42366 -14.35736,-8.07451 -0.22347,0.23297 -1.2315,1.90722 -2.24032,3.72073 -1.30346,2.34324 -1.74841,3.42696 -1.53772,3.74538 0.40266,0.60866 25.63775,19.21677 26.08025,19.23135 0.19336,0.007 1.49045,-1.60141 2.88239,-3.57283 z"
     style="fill:#cccccc" /><path
     inkscape:connector-curvature="0"
     id="path3367"
     d="m 180.00636,469.78011 c -3.73995,-0.37902 -8.5253,-1.12848 -12.10417,-1.89577 -3.63826,-0.78001 -9.7152,-2.52823 -9.7152,-2.79485 0,-0.11181 1.492,-1.41915 3.26495,-2.4914 15.18123,-9.18157 26.2265,-18.00104 32.41579,-28.02552 2.3113,-3.74343 4.93136,-9.21141 7.33583,-15.30967 8.14324,-20.65301 10.77812,-26.84565 11.42251,-26.84565 0.30166,0 0.87712,1.71636 2.8615,8.53502 1.7731,6.09257 3.89324,10.26746 6.19429,12.19734 1.88657,1.5823 4.24294,2.427 6.72299,2.41002 3.1172,-0.0187 5.79084,-0.75592 12.4447,-3.41907 6.85038,-2.74178 8.88114,-3.30012 12.00419,-3.30012 3.15932,0 4.97787,0.90135 7.69956,3.81609 3.0176,3.23169 5.4263,8.24398 6.09891,12.69128 0.18612,1.22934 0.10508,1.62763 -0.50921,2.50486 -1.84454,3.35464 -7.10237,8.91697 -11.39387,13.25358 -16.04108,16.20968 -33.99524,25.04516 -54.03829,28.09695 -4.78301,0.72825 -16.09958,1.0436 -20.70448,0.57691 z"
     style="fill:#f03916;fill-opacity:1"
     sodipodi:nodetypes="ssssssssscsssccsss" /><path
     style="fill:#999999;fill-opacity:1;stroke:#999999;stroke-width:2.60512424;stroke-miterlimit:4;stroke-opacity:1;stroke-dasharray:none;stroke-dashoffset:0"
     d="m 270.23348,370.13152 c -2.067,-0.57 -4.48522,-1.97651 -5.9972,-3.48806 -1.30546,-1.30514 -3.47159,-4.64179 -3.47929,-5.35946 -0.009,-0.74822 4.70937,-12.23201 5.08379,-12.37568 0.58392,-0.22399 17.5018,11.21481 17.82249,12.05057 0.17426,0.45416 -1.22695,2.21767 -5.38777,6.78075 l -2.58625,2.83631 -2.02149,-0.0262 c -1.11181,-0.015 -2.65726,-0.20268 -3.43428,-0.41702 z"
     id="path3389"
     inkscape:connector-curvature="0" /><path
     style="fill:#999999;fill-opacity:1;stroke:#999999;stroke-width:0.27596658;stroke-miterlimit:4;stroke-opacity:1;stroke-dasharray:none;stroke-dashoffset:0"
     d="m 280.67395,353.82391 c -7.37407,-5.05417 -12.46772,-8.68482 -12.878,-9.17914 -0.24314,-0.29279 0.11955,-1.44865 1.39473,-4.44618 0.94777,-2.22769 2.12968,-4.85557 2.62648,-5.83975 0.84401,-1.67193 0.95316,-1.77039 1.66334,-1.50041 1.68665,0.64128 11.43925,5.15989 17.69418,8.19814 l 6.64999,3.23015 -1.72555,2.18263 c -2.51351,3.1793 -7.83393,9.40613 -8.87415,10.38601 l -0.89628,0.84432 -5.65474,-3.87577 z"
     id="path4199"
     inkscape:connector-curvature="0" /><path
     style="fill:#999999;fill-opacity:1;stroke:#999999;stroke-width:0.27596658;stroke-miterlimit:4;stroke-opacity:1;stroke-dasharray:none;stroke-dashoffset:0"
     d="m 292.8037,338.43673 c -12.01362,-5.68222 -18.55109,-8.89491 -18.55109,-9.11651 0,-0.41414 4.68482,-10.09051 6.65716,-13.7501 1.10081,-2.04255 2.20558,-4.10013 2.4551,-4.57242 0.54948,-1.04016 -0.34665,-1.56181 8.79249,5.11853 10.10934,7.38952 17.34747,12.87971 17.35286,13.1623 0.006,0.31149 -7.01326,9.56534 -8.53798,11.25624 l -1.11607,1.23764 -7.05247,-3.33568 z"
     id="path4201"
     inkscape:connector-curvature="0" /><path
     style="fill:#999999;fill-opacity:1;stroke:#999999;stroke-width:0.56444359;stroke-miterlimit:4;stroke-opacity:1;stroke-dasharray:none;stroke-dashoffset:0"
     d="m 303.97062,321.02206 c -10.44258,-7.57642 -18.37273,-13.5981 -18.37273,-13.95118 0,-0.83849 3.61187,-7.02156 4.09781,-7.01498 0.80698,0.0112 28.40494,16.74505 28.40494,17.2234 0,0.28981 -5.34042,7.82872 -6.10763,8.62196 -0.51315,0.53052 -0.84105,0.33094 -8.02239,-4.8792 z"
     id="path4203"
     inkscape:connector-curvature="0" /></svg>