<?xml version="1.0" encoding="UTF-8" standalone="no"?>
<!-- Created with Inkscape (http://www.inkscape.org/) -->

<svg
   xmlns:dc="http://purl.org/dc/elements/1.1/"
   xmlns:cc="http://creativecommons.org/ns#"
   xmlns:rdf="http://www.w3.org/1999/02/22-rdf-syntax-ns#"
   xmlns:svg="http://www.w3.org/2000/svg"
   xmlns="http://www.w3.org/2000/svg"
   xmlns:sodipodi="http://sodipodi.sourceforge.net/DTD/sodipodi-0.dtd"
   xmlns:inkscape="http://www.inkscape.org/namespaces/inkscape"
   id="svg2"
   version="1.1"
   inkscape:version="0.91 r13725"
   width="500"
   height="500"
   viewBox="0 0 499.99999 499.99999"
   sodipodi:docname="alevt.svg">
  <metadata
     id="metadata8">
    <rdf:RDF>
      <cc:Work
         rdf:about="">
        <dc:format>image/svg+xml</dc:format>
        <dc:type
           rdf:resource="http://purl.org/dc/dcmitype/StillImage" />
        <dc:title />
      </cc:Work>
    </rdf:RDF>
  </metadata>
  <defs
     id="defs6" />
  <sodipodi:namedview
     pagecolor="#ffffff"
     bordercolor="#666666"
     borderopacity="1"
     objecttolerance="10"
     gridtolerance="10"
     guidetolerance="10"
     inkscape:pageopacity="0"
     inkscape:pageshadow="2"
     inkscape:window-width="1366"
     inkscape:window-height="715"
     id="namedview4"
     inkscape:document-units="px"
     showgrid="false"
     inkscape:zoom="0.41113281"
     inkscape:cx="986.88865"
     inkscape:cy="77.854389"
     inkscape:window-x="0"
     inkscape:window-y="24"
     inkscape:window-maximized="1"
     inkscape:current-layer="svg2" />
  <g
     id="g4233">
    <path
       sodipodi:nodetypes="cszzzsc"
       inkscape:connector-curvature="0"
       id="path3001"
       d="m 247.79655,472.76693 c 0,0 57.77596,-27.86402 102.37824,-76.25846 49.55348,-53.76659 86.22123,-131.29963 81.01212,-190.66571 C 425.97781,146.47668 379.82805,29.12466 244.91608,27.2532 110.00411,25.38174 69.696456,154.47661 67.286672,205.84276 64.876889,257.2089 94.724717,333.41881 137.34922,384.6173 c 48.37784,58.10914 110.44733,88.14963 110.44733,88.14963 z"
       style="fill:#45d03f;fill-opacity:1;stroke:#45d03f;stroke-width:4.46611834000000041;stroke-linecap:butt;stroke-linejoin:miter;stroke-miterlimit:4;stroke-opacity:1;stroke-dasharray:none" />
    <path
       sodipodi:nodetypes="czzzzc"
       inkscape:connector-curvature="0"
       id="path3811-3"
       d="m 275.37152,284.33405 c 0,0 19.92818,-59.18165 43.68722,-74.89241 23.75903,-15.71075 67.33124,-17.02667 83.53383,-10.56174 16.20259,6.46493 13.5887,12.77361 12.96215,15.84262 -0.62655,3.069 -3.54978,7.53099 -8.24845,8.25039 -4.69867,0.7194 -14.93658,-7.80776 -14.93658,-7.80776"
       style="fill:#248320;stroke:none;stroke-width:2.23305917px;stroke-linecap:butt;stroke-linejoin:miter;stroke-opacity:1;fill-opacity:1" />
    <path
       inkscape:connector-curvature="0"
       id="path3791-6"
       d="m 398.75977,125.89453 c 0,0 -5.03759,6.60047 -23.10157,17.10352 -5.60954,3.26159 -14.89333,2.13065 -28.57422,2.32226 -13.68088,0.19161 -31.28623,3.67238 -47.05078,20.02344 -17.12099,17.75796 -25.9997,48.69598 -32.39258,75.94727 -6.39287,27.25128 -9.22265,50.77734 -9.22265,50.77734 l 19.85742,2.39453 c 0,0 2.72953,-22.56504 8.83789,-48.60351 6.10836,-26.03848 16.67143,-55.58979 27.31836,-66.63282 12.00335,-12.44993 21.59434,-13.74941 32.93164,-13.9082 11.3373,-0.15879 24.89359,2.79143 38.34766,-5.03125 20.06326,-11.66551 28.58789,-21.80078 28.58789,-21.80078 l -15.53906,-12.5918 z"
       style="color:#000000;font-style:normal;font-variant:normal;font-weight:normal;font-stretch:normal;font-size:medium;line-height:normal;font-family:sans-serif;text-indent:0;text-align:start;text-decoration:none;text-decoration-line:none;text-decoration-style:solid;text-decoration-color:#000000;letter-spacing:normal;word-spacing:normal;text-transform:none;direction:ltr;block-progression:tb;writing-mode:lr-tb;baseline-shift:baseline;text-anchor:start;white-space:normal;clip-rule:nonzero;display:inline;overflow:visible;visibility:visible;opacity:1;isolation:auto;mix-blend-mode:normal;color-interpolation:sRGB;color-interpolation-filters:linearRGB;solid-color:#000000;solid-opacity:1;fill:#248320;fill-opacity:1;fill-rule:nonzero;stroke:none;stroke-width:20;stroke-linecap:butt;stroke-linejoin:miter;stroke-miterlimit:4;stroke-dasharray:none;stroke-dashoffset:0;stroke-opacity:1;color-rendering:auto;image-rendering:auto;shape-rendering:auto;text-rendering:auto;enable-background:accumulate" />
    <path
       sodipodi:nodetypes="czzcc"
       inkscape:connector-curvature="0"
       id="path3869-5"
       d="m 274.69267,293.50605 c 0,0 44.43199,15.97013 67.55402,10.86296 23.12203,-5.10716 46.5276,-21.38031 59.06732,-39.71766 12.53972,-18.33736 12.0852,-35.42697 12.0852,-35.42697 l -17.33695,-11.33304"
       style="fill:#248320;stroke:none;stroke-width:2.23305917px;stroke-linecap:butt;stroke-linejoin:miter;stroke-opacity:1;fill-opacity:1" />
    <path
       sodipodi:nodetypes="czczc"
       inkscape:connector-curvature="0"
       id="path3003"
       d="m 275.53467,290.50147 c 0,0 45.42733,17.22883 82.09358,-0.48006 36.66625,-17.7089 37.92628,-76.81273 37.92628,-76.81273 0,0 -54.03039,2.46177 -75.37247,16.3227 -21.34209,13.86094 -44.64739,60.97009 -44.64739,60.97009 z"
       style="fill:#ffffff;stroke:none" />
    <path
       sodipodi:nodetypes="czzcc"
       inkscape:connector-curvature="0"
       id="path3869"
       d="m 223.4366,294.80232 c 0,0 -44.43199,15.97012 -67.55402,10.86296 C 132.76055,300.55812 109.35498,284.28497 96.815263,265.9476 84.275541,247.61023 84.730058,230.52063 84.730058,230.52063 l 17.336962,-11.33304"
       style="fill:#248320;stroke:none;stroke-width:2.23305917px;stroke-linecap:butt;stroke-linejoin:miter;stroke-opacity:1;fill-opacity:1" />
    <path
       sodipodi:nodetypes="czzzzc"
       inkscape:connector-curvature="0"
       id="path3811"
       d="m 221.96066,285.89371 c 0,0 -19.92818,-59.18165 -43.68722,-74.89241 -23.75903,-15.71075 -67.33124,-17.02667 -83.533828,-10.56174 -16.202587,6.46493 -13.588701,12.77361 -12.96215,15.84261 0.626552,3.06901 3.549783,7.531 8.248452,8.2504 4.698669,0.7194 14.936576,-7.80776 14.936576,-7.80776"
       style="fill:#248320;stroke:none;stroke-width:2.23305917px;stroke-linecap:butt;stroke-linejoin:miter;stroke-opacity:1;fill-opacity:1" />
    <path
       inkscape:connector-curvature="0"
       id="path3791"
       d="m 101.68164,127.54688 -16.74414,10.9375 c 0,0 2.369368,3.43924 6.720703,7.49218 4.351335,4.05295 11.123267,9.39793 21.251957,15.28711 13.45406,7.82269 27.0123,4.87246 38.34961,5.03125 11.3373,0.15879 20.92827,1.45827 32.93164,13.9082 10.64692,11.04304 21.20999,40.59435 27.31836,66.63282 6.10836,26.03847 8.83789,48.60351 8.83789,48.60351 l 19.85546,-2.39453 c 0,0 -2.82978,-23.52606 -9.22265,-50.77734 -6.39288,-27.25128 -15.27159,-58.18931 -32.39258,-75.94727 -15.76456,-16.35105 -33.36794,-19.83182 -47.04883,-20.02343 -13.68088,-0.19162 -22.96662,0.93737 -28.57617,-2.32422 -8.93494,-5.1951 -14.47502,-9.65323 -17.67187,-12.63086 -3.19686,-2.97764 -3.60938,-3.79492 -3.60938,-3.79492 z"
       style="color:#000000;font-style:normal;font-variant:normal;font-weight:normal;font-stretch:normal;font-size:medium;line-height:normal;font-family:sans-serif;text-indent:0;text-align:start;text-decoration:none;text-decoration-line:none;text-decoration-style:solid;text-decoration-color:#000000;letter-spacing:normal;word-spacing:normal;text-transform:none;direction:ltr;block-progression:tb;writing-mode:lr-tb;baseline-shift:baseline;text-anchor:start;white-space:normal;clip-rule:nonzero;display:inline;overflow:visible;visibility:visible;opacity:1;isolation:auto;mix-blend-mode:normal;color-interpolation:sRGB;color-interpolation-filters:linearRGB;solid-color:#000000;solid-opacity:1;fill:#248320;fill-opacity:1;fill-rule:nonzero;stroke:none;stroke-width:20;stroke-linecap:butt;stroke-linejoin:miter;stroke-miterlimit:4;stroke-dasharray:none;stroke-dashoffset:0;stroke-opacity:1;color-rendering:auto;image-rendering:auto;shape-rendering:auto;text-rendering:auto;enable-background:accumulate" />
    <path
       sodipodi:nodetypes="czczc"
       inkscape:connector-curvature="0"
       id="path3003-3"
       d="m 222.96305,291.09491 c 0,0 -45.42732,17.22883 -82.09357,-0.48007 -36.66625,-17.70889 -37.92628,-76.81272 -37.92628,-76.81272 0,0 54.03039,2.46177 75.37247,16.3227 21.34208,13.86093 44.64738,60.97009 44.64738,60.97009 z"
       style="fill:#ffffff;stroke:none" />
    <path
       inkscape:connector-curvature="0"
       id="path3831"
       d="m 129.17578,183.57617 c -31.389535,-1.38914 -58.052733,9.87891 -58.052733,9.87891 l 1.927734,4.61328 c 0,0 46.106439,-19.03208 86.464839,-3.33789 19.89703,7.73736 34.53513,26.78658 44.07618,44.06836 9.54104,17.28178 13.95898,32.54883 13.95898,32.54883 l 4.80274,-1.38868 c 0,0 -4.55642,-15.77398 -14.38477,-33.57617 -9.82835,-17.80218 -24.95554,-37.87981 -46.64063,-46.3125 -10.70145,-4.16148 -21.68916,-6.03109 -32.15234,-6.49414 z"
       style="color:#000000;font-style:normal;font-variant:normal;font-weight:normal;font-stretch:normal;font-size:medium;line-height:normal;font-family:sans-serif;text-indent:0;text-align:start;text-decoration:none;text-decoration-line:none;text-decoration-style:solid;text-decoration-color:#000000;letter-spacing:normal;word-spacing:normal;text-transform:none;direction:ltr;block-progression:tb;writing-mode:lr-tb;baseline-shift:baseline;text-anchor:start;white-space:normal;clip-rule:nonzero;display:inline;overflow:visible;visibility:visible;opacity:1;isolation:auto;mix-blend-mode:normal;color-interpolation:sRGB;color-interpolation-filters:linearRGB;solid-color:#000000;solid-opacity:1;fill:#248320;fill-opacity:1;fill-rule:nonzero;stroke:none;stroke-width:5;stroke-linecap:butt;stroke-linejoin:miter;stroke-miterlimit:4;stroke-dasharray:none;stroke-dashoffset:0;stroke-opacity:1;color-rendering:auto;image-rendering:auto;shape-rendering:auto;text-rendering:auto;enable-background:accumulate" />
    <path
       inkscape:connector-curvature="0"
       id="path3831-5"
       d="m 367.37891,181.25977 c -10.46318,0.46304 -21.45285,2.33266 -32.1543,6.49414 -21.68509,8.43268 -36.81227,28.51031 -46.64063,46.3125 -9.82835,17.80218 -14.38476,33.57617 -14.38476,33.57617 l 4.80469,1.38867 c 0,0 4.41598,-15.26705 13.95703,-32.54883 9.54104,-17.28178 24.17915,-36.331 44.07617,-44.06836 40.35841,-15.69419 86.46484,3.33789 86.46484,3.33789 l 1.92774,-4.61523 c 0,0 -26.66125,-11.2661 -58.05078,-9.87695 z"
       style="color:#000000;font-style:normal;font-variant:normal;font-weight:normal;font-stretch:normal;font-size:medium;line-height:normal;font-family:sans-serif;text-indent:0;text-align:start;text-decoration:none;text-decoration-line:none;text-decoration-style:solid;text-decoration-color:#000000;letter-spacing:normal;word-spacing:normal;text-transform:none;direction:ltr;block-progression:tb;writing-mode:lr-tb;baseline-shift:baseline;text-anchor:start;white-space:normal;clip-rule:nonzero;display:inline;overflow:visible;visibility:visible;opacity:1;isolation:auto;mix-blend-mode:normal;color-interpolation:sRGB;color-interpolation-filters:linearRGB;solid-color:#000000;solid-opacity:1;fill:#248320;fill-opacity:1;fill-rule:nonzero;stroke:none;stroke-width:5;stroke-linecap:butt;stroke-linejoin:miter;stroke-miterlimit:4;stroke-dasharray:none;stroke-dashoffset:0;stroke-opacity:1;color-rendering:auto;image-rendering:auto;shape-rendering:auto;text-rendering:auto;enable-background:accumulate" />
    <path
       inkscape:connector-curvature="0"
       id="path3889"
       d="m 188.66211,361.1543 c 0,0 -3.94269,14.33556 0.33203,30.82031 4.31493,16.63981 16.16602,25.79102 16.16602,25.79101 l 3.06054,-3.95312 c 0,0 -10.51574,-8.16596 -14.38672,-23.09375 -3.91118,-15.08283 -0.34765,-28.24805 -0.34765,-28.24805 l -4.82422,-1.3164 z"
       style="color:#000000;font-style:normal;font-variant:normal;font-weight:normal;font-stretch:normal;font-size:medium;line-height:normal;font-family:sans-serif;text-indent:0;text-align:start;text-decoration:none;text-decoration-line:none;text-decoration-style:solid;text-decoration-color:#000000;letter-spacing:normal;word-spacing:normal;text-transform:none;direction:ltr;block-progression:tb;writing-mode:lr-tb;baseline-shift:baseline;text-anchor:start;white-space:normal;clip-rule:nonzero;display:inline;overflow:visible;visibility:visible;opacity:1;isolation:auto;mix-blend-mode:normal;color-interpolation:sRGB;color-interpolation-filters:linearRGB;solid-color:#000000;solid-opacity:1;fill:#248320;fill-opacity:1;fill-rule:nonzero;stroke:none;stroke-width:5;stroke-linecap:butt;stroke-linejoin:miter;stroke-miterlimit:4;stroke-dasharray:none;stroke-dashoffset:0;stroke-opacity:1;color-rendering:auto;image-rendering:auto;shape-rendering:auto;text-rendering:auto;enable-background:accumulate" />
    <path
       inkscape:connector-curvature="0"
       id="path3889-6"
       d="m 211.59766,336.48047 c 0,0 -9.47948,11.45352 -12.34766,28.24023 -2.89513,16.94464 4.1543,30.1543 4.1543,30.1543 l 4.41406,-2.34961 c 0,0 -6.23788,-11.76164 -3.64063,-26.96289 2.62426,-15.35911 11.27735,-25.90039 11.27735,-25.90039 l -3.85742,-3.18164 z"
       style="color:#000000;font-style:normal;font-variant:normal;font-weight:normal;font-stretch:normal;font-size:medium;line-height:normal;font-family:sans-serif;text-indent:0;text-align:start;text-decoration:none;text-decoration-line:none;text-decoration-style:solid;text-decoration-color:#000000;letter-spacing:normal;word-spacing:normal;text-transform:none;direction:ltr;block-progression:tb;writing-mode:lr-tb;baseline-shift:baseline;text-anchor:start;white-space:normal;clip-rule:nonzero;display:inline;overflow:visible;visibility:visible;opacity:1;isolation:auto;mix-blend-mode:normal;color-interpolation:sRGB;color-interpolation-filters:linearRGB;solid-color:#000000;solid-opacity:1;fill:#248320;fill-opacity:1;fill-rule:nonzero;stroke:none;stroke-width:5;stroke-linecap:butt;stroke-linejoin:miter;stroke-miterlimit:4;stroke-dasharray:none;stroke-dashoffset:0;stroke-opacity:1;color-rendering:auto;image-rendering:auto;shape-rendering:auto;text-rendering:auto;enable-background:accumulate" />
    <path
       inkscape:connector-curvature="0"
       id="path3889-2"
       d="m 303.31055,359.87695 -4.82227,1.31641 c 0,0 3.56157,13.16521 -0.34961,28.24805 -3.87097,14.92778 -14.38476,23.09179 -14.38476,23.09179 l 3.06054,3.95508 c 0,0 11.85109,-9.1512 16.16602,-25.79101 4.27472,-16.48477 0.33008,-30.82032 0.33008,-30.82032 z"
       style="color:#000000;font-style:normal;font-variant:normal;font-weight:normal;font-stretch:normal;font-size:medium;line-height:normal;font-family:sans-serif;text-indent:0;text-align:start;text-decoration:none;text-decoration-line:none;text-decoration-style:solid;text-decoration-color:#000000;letter-spacing:normal;word-spacing:normal;text-transform:none;direction:ltr;block-progression:tb;writing-mode:lr-tb;baseline-shift:baseline;text-anchor:start;white-space:normal;clip-rule:nonzero;display:inline;overflow:visible;visibility:visible;opacity:1;isolation:auto;mix-blend-mode:normal;color-interpolation:sRGB;color-interpolation-filters:linearRGB;solid-color:#000000;solid-opacity:1;fill:#248320;fill-opacity:1;fill-rule:nonzero;stroke:none;stroke-width:5;stroke-linecap:butt;stroke-linejoin:miter;stroke-miterlimit:4;stroke-dasharray:none;stroke-dashoffset:0;stroke-opacity:1;color-rendering:auto;image-rendering:auto;shape-rendering:auto;text-rendering:auto;enable-background:accumulate" />
    <path
       inkscape:connector-curvature="0"
       id="path3889-6-9"
       d="m 279.94531,336.0625 -3.85742,3.18164 c 0,0 8.65308,10.54128 11.27734,25.90039 2.59726,15.20125 -3.64062,26.96289 -3.64062,26.96289 l 4.41406,2.34961 c 0,0 7.04942,-13.20966 4.1543,-30.1543 -2.86818,-16.7867 -12.34766,-28.24023 -12.34766,-28.24023 z"
       style="color:#000000;font-style:normal;font-variant:normal;font-weight:normal;font-stretch:normal;font-size:medium;line-height:normal;font-family:sans-serif;text-indent:0;text-align:start;text-decoration:none;text-decoration-line:none;text-decoration-style:solid;text-decoration-color:#000000;letter-spacing:normal;word-spacing:normal;text-transform:none;direction:ltr;block-progression:tb;writing-mode:lr-tb;baseline-shift:baseline;text-anchor:start;white-space:normal;clip-rule:nonzero;display:inline;overflow:visible;visibility:visible;opacity:1;isolation:auto;mix-blend-mode:normal;color-interpolation:sRGB;color-interpolation-filters:linearRGB;solid-color:#000000;solid-opacity:1;fill:#248320;fill-opacity:1;fill-rule:nonzero;stroke:none;stroke-width:5;stroke-linecap:butt;stroke-linejoin:miter;stroke-miterlimit:4;stroke-dasharray:none;stroke-dashoffset:0;stroke-opacity:1;color-rendering:auto;image-rendering:auto;shape-rendering:auto;text-rendering:auto;enable-background:accumulate" />
    <path
       inkscape:connector-curvature="0"
       id="path3930"
       d="m 263.85156,393.91016 c 0,0 -10.1854,2.49396 -18.36133,2.44922 -8.23614,-0.045 -17.63085,-1.97852 -17.63085,-1.97852 l -0.45313,2.1875 c 0,0 9.49674,1.97853 18.07031,2.02539 8.63373,0.0473 18.91016,-2.51563 18.91016,-2.51563 l -0.53516,-2.16796 z"
       style="color:#000000;font-style:normal;font-variant:normal;font-weight:normal;font-stretch:normal;font-size:medium;line-height:normal;font-family:sans-serif;text-indent:0;text-align:start;text-decoration:none;text-decoration-line:none;text-decoration-style:solid;text-decoration-color:#000000;letter-spacing:normal;word-spacing:normal;text-transform:none;direction:ltr;block-progression:tb;writing-mode:lr-tb;baseline-shift:baseline;text-anchor:start;white-space:normal;clip-rule:nonzero;display:inline;overflow:visible;visibility:visible;opacity:1;isolation:auto;mix-blend-mode:normal;color-interpolation:sRGB;color-interpolation-filters:linearRGB;solid-color:#000000;solid-opacity:1;fill:#248320;fill-opacity:1;fill-rule:nonzero;stroke:none;stroke-width:2.23305917px;stroke-linecap:butt;stroke-linejoin:miter;stroke-miterlimit:4;stroke-dasharray:none;stroke-dashoffset:0;stroke-opacity:1;color-rendering:auto;image-rendering:auto;shape-rendering:auto;text-rendering:auto;enable-background:accumulate" />
    <path
       inkscape:connector-curvature="0"
       id="path3930-1"
       d="m 244.63477,405.42383 c -3.945,-0.024 -6.53147,0.85327 -8.14258,1.80273 -0.80556,0.47473 -1.3652,0.96564 -1.73047,1.35352 -0.36527,0.38788 -0.57617,0.74219 -0.57617,0.74219 l 1.94336,1.09961 c 0,0 0.0281,-0.0666 0.25781,-0.31055 0.22973,-0.24395 0.62083,-0.59706 1.23828,-0.96094 1.2349,-0.72775 3.38493,-1.51612 6.99609,-1.49414 3.6323,0.0221 5.96846,0.7449 7.37891,1.41992 1.41045,0.67502 1.8125,1.20117 1.8125,1.20117 l 1.71484,-1.43164 c 0,0 -0.8407,-0.96113 -2.5625,-1.78515 -1.72179,-0.82403 -4.40621,-1.61283 -8.33007,-1.63672 z"
       style="color:#000000;font-style:normal;font-variant:normal;font-weight:normal;font-stretch:normal;font-size:medium;line-height:normal;font-family:sans-serif;text-indent:0;text-align:start;text-decoration:none;text-decoration-line:none;text-decoration-style:solid;text-decoration-color:#000000;letter-spacing:normal;word-spacing:normal;text-transform:none;direction:ltr;block-progression:tb;writing-mode:lr-tb;baseline-shift:baseline;text-anchor:start;white-space:normal;clip-rule:nonzero;display:inline;overflow:visible;visibility:visible;opacity:1;isolation:auto;mix-blend-mode:normal;color-interpolation:sRGB;color-interpolation-filters:linearRGB;solid-color:#000000;solid-opacity:1;fill:#248320;fill-opacity:1;fill-rule:nonzero;stroke:none;stroke-width:2.23305917px;stroke-linecap:butt;stroke-linejoin:miter;stroke-miterlimit:4;stroke-dasharray:none;stroke-dashoffset:0;stroke-opacity:1;color-rendering:auto;image-rendering:auto;shape-rendering:auto;text-rendering:auto;enable-background:accumulate" />
    <path
       inkscape:connector-curvature="0"
       id="path3950"
       d="m 129.74232,335.68097 c -4.28198,0 -7.66305,3.68021 -7.66305,8.00324 0,4.32307 3.38107,8.00761 7.66305,8.00761 4.282,3e-5 7.66743,-3.68454 7.66743,-8.00761 -2e-5,-4.32305 -3.38543,-8.00326 -7.66743,-8.00324 z m 0,4.46612 c 1.71747,0 3.20132,1.48576 3.20132,3.53712 0,2.05138 -1.48385,3.5415 -3.20132,3.5415 -1.71744,0 -3.19693,-1.49012 -3.19693,-3.5415 0,-2.05136 1.47949,-3.53712 3.19693,-3.53712 z"
       style="color:#000000;font-style:normal;font-variant:normal;font-weight:normal;font-stretch:normal;font-size:medium;line-height:normal;font-family:sans-serif;text-indent:0;text-align:start;text-decoration:none;text-decoration-line:none;text-decoration-style:solid;text-decoration-color:#000000;letter-spacing:normal;word-spacing:normal;text-transform:none;direction:ltr;block-progression:tb;writing-mode:lr-tb;baseline-shift:baseline;text-anchor:start;white-space:normal;clip-rule:nonzero;display:inline;overflow:visible;visibility:visible;opacity:1;isolation:auto;mix-blend-mode:normal;color-interpolation:sRGB;color-interpolation-filters:linearRGB;solid-color:#000000;solid-opacity:1;fill:#248320;fill-opacity:1;fill-rule:nonzero;stroke:none;stroke-width:2;stroke-linecap:round;stroke-linejoin:round;stroke-miterlimit:4;stroke-dasharray:none;stroke-dashoffset:0;stroke-opacity:1;color-rendering:auto;image-rendering:auto;shape-rendering:auto;text-rendering:auto;enable-background:accumulate" />
    <path
       inkscape:connector-curvature="0"
       id="path3950-2"
       d="m 141.96313,353.33327 c -4.28198,0 -7.66305,3.68021 -7.66305,8.00324 0,4.32307 3.38107,8.00761 7.66305,8.00761 4.282,3e-5 7.66743,-3.68454 7.66743,-8.00761 -2e-5,-4.32305 -3.38543,-8.00326 -7.66743,-8.00324 z m 0,4.46612 c 1.71747,0 3.20132,1.48576 3.20132,3.53712 0,2.05138 -1.48385,3.5415 -3.20132,3.5415 -1.71744,0 -3.19693,-1.49012 -3.19693,-3.5415 0,-2.05136 1.47949,-3.53712 3.19693,-3.53712 z"
       style="color:#000000;font-style:normal;font-variant:normal;font-weight:normal;font-stretch:normal;font-size:medium;line-height:normal;font-family:sans-serif;text-indent:0;text-align:start;text-decoration:none;text-decoration-line:none;text-decoration-style:solid;text-decoration-color:#000000;letter-spacing:normal;word-spacing:normal;text-transform:none;direction:ltr;block-progression:tb;writing-mode:lr-tb;baseline-shift:baseline;text-anchor:start;white-space:normal;clip-rule:nonzero;display:inline;overflow:visible;visibility:visible;opacity:1;isolation:auto;mix-blend-mode:normal;color-interpolation:sRGB;color-interpolation-filters:linearRGB;solid-color:#000000;solid-opacity:1;fill:#248320;fill-opacity:1;fill-rule:nonzero;stroke:none;stroke-width:2;stroke-linecap:round;stroke-linejoin:round;stroke-miterlimit:4;stroke-dasharray:none;stroke-dashoffset:0;stroke-opacity:1;color-rendering:auto;image-rendering:auto;shape-rendering:auto;text-rendering:auto;enable-background:accumulate" />
    <path
       inkscape:connector-curvature="0"
       id="path3950-7"
       d="m 155.20236,370.98557 c -4.28198,0 -7.66305,3.68021 -7.66305,8.00324 0,4.32307 3.38107,8.00761 7.66305,8.00761 4.282,3e-5 7.66743,-3.68454 7.66743,-8.00761 -2e-5,-4.32305 -3.38543,-8.00326 -7.66743,-8.00324 z m 0,4.46612 c 1.71747,0 3.20132,1.48576 3.20132,3.53712 0,2.05138 -1.48385,3.5415 -3.20132,3.5415 -1.71744,0 -3.19693,-1.49012 -3.19693,-3.5415 0,-2.05136 1.47949,-3.53712 3.19693,-3.53712 z"
       style="color:#000000;font-style:normal;font-variant:normal;font-weight:normal;font-stretch:normal;font-size:medium;line-height:normal;font-family:sans-serif;text-indent:0;text-align:start;text-decoration:none;text-decoration-line:none;text-decoration-style:solid;text-decoration-color:#000000;letter-spacing:normal;word-spacing:normal;text-transform:none;direction:ltr;block-progression:tb;writing-mode:lr-tb;baseline-shift:baseline;text-anchor:start;white-space:normal;clip-rule:nonzero;display:inline;overflow:visible;visibility:visible;opacity:1;isolation:auto;mix-blend-mode:normal;color-interpolation:sRGB;color-interpolation-filters:linearRGB;solid-color:#000000;solid-opacity:1;fill:#248320;fill-opacity:1;fill-rule:nonzero;stroke:none;stroke-width:2;stroke-linecap:round;stroke-linejoin:round;stroke-miterlimit:4;stroke-dasharray:none;stroke-dashoffset:0;stroke-opacity:1;color-rendering:auto;image-rendering:auto;shape-rendering:auto;text-rendering:auto;enable-background:accumulate" />
    <path
       inkscape:connector-curvature="0"
       id="path3950-0"
       d="m 369.91799,338.39671 c 4.28198,0 7.66305,3.68021 7.66305,8.00324 0,4.32307 -3.38107,8.00761 -7.66305,8.00761 -4.282,3e-5 -7.66743,-3.68454 -7.66743,-8.00761 2e-5,-4.32305 3.38543,-8.00326 7.66743,-8.00324 z m 0,4.46612 c -1.71747,0 -3.20132,1.48576 -3.20132,3.53712 0,2.05138 1.48385,3.5415 3.20132,3.5415 1.71744,0 3.19693,-1.49012 3.19693,-3.5415 0,-2.05136 -1.47949,-3.53712 -3.19693,-3.53712 z"
       style="color:#000000;font-style:normal;font-variant:normal;font-weight:normal;font-stretch:normal;font-size:medium;line-height:normal;font-family:sans-serif;text-indent:0;text-align:start;text-decoration:none;text-decoration-line:none;text-decoration-style:solid;text-decoration-color:#000000;letter-spacing:normal;word-spacing:normal;text-transform:none;direction:ltr;block-progression:tb;writing-mode:lr-tb;baseline-shift:baseline;text-anchor:start;white-space:normal;clip-rule:nonzero;display:inline;overflow:visible;visibility:visible;opacity:1;isolation:auto;mix-blend-mode:normal;color-interpolation:sRGB;color-interpolation-filters:linearRGB;solid-color:#000000;solid-opacity:1;fill:#248320;fill-opacity:1;fill-rule:nonzero;stroke:none;stroke-width:2;stroke-linecap:round;stroke-linejoin:round;stroke-miterlimit:4;stroke-dasharray:none;stroke-dashoffset:0;stroke-opacity:1;color-rendering:auto;image-rendering:auto;shape-rendering:auto;text-rendering:auto;enable-background:accumulate" />
    <path
       inkscape:connector-curvature="0"
       id="path3950-2-9"
       d="m 357.69719,356.049 c 4.28198,0 7.66305,3.68021 7.66305,8.00324 0,4.32307 -3.38107,8.00761 -7.66305,8.00761 -4.282,3e-5 -7.66743,-3.68454 -7.66743,-8.00761 2e-5,-4.32305 3.38543,-8.00326 7.66743,-8.00324 z m 0,4.46612 c -1.71747,0 -3.20132,1.48576 -3.20132,3.53712 0,2.05138 1.48385,3.5415 3.20132,3.5415 1.71744,0 3.19693,-1.49012 3.19693,-3.5415 0,-2.05136 -1.47949,-3.53712 -3.19693,-3.53712 z"
       style="color:#000000;font-style:normal;font-variant:normal;font-weight:normal;font-stretch:normal;font-size:medium;line-height:normal;font-family:sans-serif;text-indent:0;text-align:start;text-decoration:none;text-decoration-line:none;text-decoration-style:solid;text-decoration-color:#000000;letter-spacing:normal;word-spacing:normal;text-transform:none;direction:ltr;block-progression:tb;writing-mode:lr-tb;baseline-shift:baseline;text-anchor:start;white-space:normal;clip-rule:nonzero;display:inline;overflow:visible;visibility:visible;opacity:1;isolation:auto;mix-blend-mode:normal;color-interpolation:sRGB;color-interpolation-filters:linearRGB;solid-color:#000000;solid-opacity:1;fill:#248320;fill-opacity:1;fill-rule:nonzero;stroke:none;stroke-width:2;stroke-linecap:round;stroke-linejoin:round;stroke-miterlimit:4;stroke-dasharray:none;stroke-dashoffset:0;stroke-opacity:1;color-rendering:auto;image-rendering:auto;shape-rendering:auto;text-rendering:auto;enable-background:accumulate" />
    <path
       inkscape:connector-curvature="0"
       id="path3950-7-3"
       d="m 344.45799,373.70131 c 4.28198,0 7.66305,3.68021 7.66305,8.00324 0,4.32307 -3.38107,8.00761 -7.66305,8.00761 -4.282,3e-5 -7.66743,-3.68454 -7.66743,-8.00761 2e-5,-4.32305 3.38543,-8.00326 7.66743,-8.00324 z m 0,4.46612 c -1.71747,0 -3.20132,1.48576 -3.20132,3.53712 0,2.05138 1.48385,3.5415 3.20132,3.5415 1.71744,0 3.19693,-1.49012 3.19693,-3.5415 0,-2.05136 -1.47949,-3.53712 -3.19693,-3.53712 z"
       style="color:#000000;font-style:normal;font-variant:normal;font-weight:normal;font-stretch:normal;font-size:medium;line-height:normal;font-family:sans-serif;text-indent:0;text-align:start;text-decoration:none;text-decoration-line:none;text-decoration-style:solid;text-decoration-color:#000000;letter-spacing:normal;word-spacing:normal;text-transform:none;direction:ltr;block-progression:tb;writing-mode:lr-tb;baseline-shift:baseline;text-anchor:start;white-space:normal;clip-rule:nonzero;display:inline;overflow:visible;visibility:visible;opacity:1;isolation:auto;mix-blend-mode:normal;color-interpolation:sRGB;color-interpolation-filters:linearRGB;solid-color:#000000;solid-opacity:1;fill:#248320;fill-opacity:1;fill-rule:nonzero;stroke:none;stroke-width:2;stroke-linecap:round;stroke-linejoin:round;stroke-miterlimit:4;stroke-dasharray:none;stroke-dashoffset:0;stroke-opacity:1;color-rendering:auto;image-rendering:auto;shape-rendering:auto;text-rendering:auto;enable-background:accumulate" />
    <path
       inkscape:connector-curvature="0"
       id="path3950-2-0"
       d="m 175.51417,47.813248 c -4.28198,0 -7.66305,3.680216 -7.66305,8.00324 0,4.323068 3.38107,8.007616 7.66305,8.007616 4.282,2.2e-5 7.66743,-3.684548 7.66743,-8.007616 -2e-5,-4.323047 -3.38543,-8.003262 -7.66743,-8.00324 z m 0,4.466118 c 1.71747,0 3.20132,1.485766 3.20132,3.537122 0,2.051377 -1.48385,3.541497 -3.20132,3.541497 -1.71744,0 -3.19693,-1.49012 -3.19693,-3.541497 0,-2.051356 1.47949,-3.537122 3.19693,-3.537122 z"
       style="color:#000000;font-style:normal;font-variant:normal;font-weight:normal;font-stretch:normal;font-size:medium;line-height:normal;font-family:sans-serif;text-indent:0;text-align:start;text-decoration:none;text-decoration-line:none;text-decoration-style:solid;text-decoration-color:#000000;letter-spacing:normal;word-spacing:normal;text-transform:none;direction:ltr;block-progression:tb;writing-mode:lr-tb;baseline-shift:baseline;text-anchor:start;white-space:normal;clip-rule:nonzero;display:inline;overflow:visible;visibility:visible;opacity:1;isolation:auto;mix-blend-mode:normal;color-interpolation:sRGB;color-interpolation-filters:linearRGB;solid-color:#000000;solid-opacity:1;fill:#248320;fill-opacity:1;fill-rule:nonzero;stroke:none;stroke-width:2;stroke-linecap:round;stroke-linejoin:round;stroke-miterlimit:4;stroke-dasharray:none;stroke-dashoffset:0;stroke-opacity:1;color-rendering:auto;image-rendering:auto;shape-rendering:auto;text-rendering:auto;enable-background:accumulate" />
    <path
       inkscape:connector-curvature="0"
       id="path3950-7-6"
       d="m 156.79496,61.625095 c -3.19044,0 -5.70963,2.742075 -5.70963,5.963097 0,3.221055 2.51919,5.966358 5.70963,5.966358 3.19046,1.7e-5 5.71289,-2.745303 5.71289,-5.966358 -2e-5,-3.221039 -2.52243,-5.963114 -5.71289,-5.963097 z m 0,3.32764 c 1.27966,0 2.38525,1.107022 2.38525,2.635457 0,1.528451 -1.10559,2.638718 -2.38525,2.638718 -1.27965,0 -2.38199,-1.110267 -2.38199,-2.638718 0,-1.528435 1.10234,-2.635457 2.38199,-2.635457 z"
       style="color:#000000;font-style:normal;font-variant:normal;font-weight:normal;font-stretch:normal;font-size:medium;line-height:normal;font-family:sans-serif;text-indent:0;text-align:start;text-decoration:none;text-decoration-line:none;text-decoration-style:solid;text-decoration-color:#000000;letter-spacing:normal;word-spacing:normal;text-transform:none;direction:ltr;block-progression:tb;writing-mode:lr-tb;baseline-shift:baseline;text-anchor:start;white-space:normal;clip-rule:nonzero;display:inline;overflow:visible;visibility:visible;opacity:1;isolation:auto;mix-blend-mode:normal;color-interpolation:sRGB;color-interpolation-filters:linearRGB;solid-color:#000000;solid-opacity:1;fill:#248320;fill-opacity:1;fill-rule:nonzero;stroke:none;stroke-width:2;stroke-linecap:round;stroke-linejoin:round;stroke-miterlimit:4;stroke-dasharray:none;stroke-dashoffset:0;stroke-opacity:1;color-rendering:auto;image-rendering:auto;shape-rendering:auto;text-rendering:auto;enable-background:accumulate" />
    <path
       inkscape:connector-curvature="0"
       id="path3950-7-6-2"
       d="m 194.98686,41.932455 c -3.19044,0 -5.70963,2.742075 -5.70963,5.963097 0,3.221055 2.51919,5.966358 5.70963,5.966358 3.19046,1.7e-5 5.71289,-2.745303 5.71289,-5.966358 -2e-5,-3.221039 -2.52243,-5.963114 -5.71289,-5.963097 z m 0,3.32764 c 1.27966,0 2.38525,1.107022 2.38525,2.635457 0,1.528451 -1.10559,2.638718 -2.38525,2.638718 -1.27965,0 -2.38199,-1.110267 -2.38199,-2.638718 0,-1.528435 1.10234,-2.635457 2.38199,-2.635457 z"
       style="color:#000000;font-style:normal;font-variant:normal;font-weight:normal;font-stretch:normal;font-size:medium;line-height:normal;font-family:sans-serif;text-indent:0;text-align:start;text-decoration:none;text-decoration-line:none;text-decoration-style:solid;text-decoration-color:#000000;letter-spacing:normal;word-spacing:normal;text-transform:none;direction:ltr;block-progression:tb;writing-mode:lr-tb;baseline-shift:baseline;text-anchor:start;white-space:normal;clip-rule:nonzero;display:inline;overflow:visible;visibility:visible;opacity:1;isolation:auto;mix-blend-mode:normal;color-interpolation:sRGB;color-interpolation-filters:linearRGB;solid-color:#000000;solid-opacity:1;fill:#248320;fill-opacity:1;fill-rule:nonzero;stroke:none;stroke-width:2;stroke-linecap:round;stroke-linejoin:round;stroke-miterlimit:4;stroke-dasharray:none;stroke-dashoffset:0;stroke-opacity:1;color-rendering:auto;image-rendering:auto;shape-rendering:auto;text-rendering:auto;enable-background:accumulate" />
    <path
       inkscape:connector-curvature="0"
       id="path3950-7-6-2-6"
       d="m 212.34125,37.611884 c -2.29152,0 -4.10092,1.969489 -4.10092,4.28298 0,2.313515 1.8094,4.285322 4.10092,4.285322 2.29154,1.2e-5 4.10327,-1.971807 4.10327,-4.285322 -1e-5,-2.313503 -1.81173,-4.282992 -4.10327,-4.28298 z m 0,2.390069 c 0.91912,0 1.71321,0.795116 1.71321,1.892911 0,1.097806 -0.79409,1.895253 -1.71321,1.895253 -0.9191,0 -1.71086,-0.797447 -1.71086,-1.895253 0,-1.097795 0.79176,-1.892911 1.71086,-1.892911 z"
       style="color:#000000;font-style:normal;font-variant:normal;font-weight:normal;font-stretch:normal;font-size:medium;line-height:normal;font-family:sans-serif;text-indent:0;text-align:start;text-decoration:none;text-decoration-line:none;text-decoration-style:solid;text-decoration-color:#000000;letter-spacing:normal;word-spacing:normal;text-transform:none;direction:ltr;block-progression:tb;writing-mode:lr-tb;baseline-shift:baseline;text-anchor:start;white-space:normal;clip-rule:nonzero;display:inline;overflow:visible;visibility:visible;opacity:1;isolation:auto;mix-blend-mode:normal;color-interpolation:sRGB;color-interpolation-filters:linearRGB;solid-color:#000000;solid-opacity:1;fill:#248320;fill-opacity:1;fill-rule:nonzero;stroke:none;stroke-width:2;stroke-linecap:round;stroke-linejoin:round;stroke-miterlimit:4;stroke-dasharray:none;stroke-dashoffset:0;stroke-opacity:1;color-rendering:auto;image-rendering:auto;shape-rendering:auto;text-rendering:auto;enable-background:accumulate" />
    <path
       inkscape:connector-curvature="0"
       id="path3950-7-6-2-6-1"
       d="m 141.69831,75.778204 c -2.29152,0 -4.10092,1.969489 -4.10092,4.28298 0,2.313515 1.8094,4.285322 4.10092,4.285322 2.29154,1.2e-5 4.10327,-1.971807 4.10327,-4.285322 -1e-5,-2.313503 -1.81173,-4.282992 -4.10327,-4.28298 z m 0,2.390069 c 0.91912,0 1.71321,0.795116 1.71321,1.892911 0,1.097806 -0.79409,1.895253 -1.71321,1.895253 -0.9191,0 -1.71086,-0.797447 -1.71086,-1.895253 0,-1.097795 0.79176,-1.892911 1.71086,-1.892911 z"
       style="color:#000000;font-style:normal;font-variant:normal;font-weight:normal;font-stretch:normal;font-size:medium;line-height:normal;font-family:sans-serif;text-indent:0;text-align:start;text-decoration:none;text-decoration-line:none;text-decoration-style:solid;text-decoration-color:#000000;letter-spacing:normal;word-spacing:normal;text-transform:none;direction:ltr;block-progression:tb;writing-mode:lr-tb;baseline-shift:baseline;text-anchor:start;white-space:normal;clip-rule:nonzero;display:inline;overflow:visible;visibility:visible;opacity:1;isolation:auto;mix-blend-mode:normal;color-interpolation:sRGB;color-interpolation-filters:linearRGB;solid-color:#000000;solid-opacity:1;fill:#248320;fill-opacity:1;fill-rule:nonzero;stroke:none;stroke-width:2;stroke-linecap:round;stroke-linejoin:round;stroke-miterlimit:4;stroke-dasharray:none;stroke-dashoffset:0;stroke-opacity:1;color-rendering:auto;image-rendering:auto;shape-rendering:auto;text-rendering:auto;enable-background:accumulate" />
    <path
       inkscape:connector-curvature="0"
       id="path3950-2-0-8"
       d="m 324.19529,54.414348 c 4.28198,0 7.66305,3.680216 7.66305,8.00324 0,4.323068 -3.38107,8.007616 -7.66305,8.007616 -4.282,2.2e-5 -7.66743,-3.684548 -7.66743,-8.007616 2e-5,-4.323047 3.38543,-8.003262 7.66743,-8.00324 z m 0,4.466118 c -1.71747,0 -3.20132,1.485766 -3.20132,3.537122 0,2.051377 1.48385,3.541497 3.20132,3.541497 1.71744,0 3.19693,-1.49012 3.19693,-3.541497 0,-2.051356 -1.47949,-3.537122 -3.19693,-3.537122 z"
       style="color:#000000;font-style:normal;font-variant:normal;font-weight:normal;font-stretch:normal;font-size:medium;line-height:normal;font-family:sans-serif;text-indent:0;text-align:start;text-decoration:none;text-decoration-line:none;text-decoration-style:solid;text-decoration-color:#000000;letter-spacing:normal;word-spacing:normal;text-transform:none;direction:ltr;block-progression:tb;writing-mode:lr-tb;baseline-shift:baseline;text-anchor:start;white-space:normal;clip-rule:nonzero;display:inline;overflow:visible;visibility:visible;opacity:1;isolation:auto;mix-blend-mode:normal;color-interpolation:sRGB;color-interpolation-filters:linearRGB;solid-color:#000000;solid-opacity:1;fill:#248320;fill-opacity:1;fill-rule:nonzero;stroke:none;stroke-width:2;stroke-linecap:round;stroke-linejoin:round;stroke-miterlimit:4;stroke-dasharray:none;stroke-dashoffset:0;stroke-opacity:1;color-rendering:auto;image-rendering:auto;shape-rendering:auto;text-rendering:auto;enable-background:accumulate" />
    <path
       inkscape:connector-curvature="0"
       id="path3950-7-6-7"
       d="m 342.91443,68.226175 c 3.19044,0 5.70963,2.742075 5.70963,5.963097 0,3.221055 -2.51919,5.966358 -5.70963,5.966358 -3.19046,1.7e-5 -5.71289,-2.745303 -5.71289,-5.966358 2e-5,-3.221039 2.52243,-5.963114 5.71289,-5.963097 z m 0,3.32764 c -1.27966,0 -2.38525,1.107022 -2.38525,2.635457 0,1.528451 1.10559,2.638718 2.38525,2.638718 1.27965,0 2.38199,-1.110267 2.38199,-2.638718 0,-1.528435 -1.10234,-2.635457 -2.38199,-2.635457 z"
       style="color:#000000;font-style:normal;font-variant:normal;font-weight:normal;font-stretch:normal;font-size:medium;line-height:normal;font-family:sans-serif;text-indent:0;text-align:start;text-decoration:none;text-decoration-line:none;text-decoration-style:solid;text-decoration-color:#000000;letter-spacing:normal;word-spacing:normal;text-transform:none;direction:ltr;block-progression:tb;writing-mode:lr-tb;baseline-shift:baseline;text-anchor:start;white-space:normal;clip-rule:nonzero;display:inline;overflow:visible;visibility:visible;opacity:1;isolation:auto;mix-blend-mode:normal;color-interpolation:sRGB;color-interpolation-filters:linearRGB;solid-color:#000000;solid-opacity:1;fill:#248320;fill-opacity:1;fill-rule:nonzero;stroke:none;stroke-width:2;stroke-linecap:round;stroke-linejoin:round;stroke-miterlimit:4;stroke-dasharray:none;stroke-dashoffset:0;stroke-opacity:1;color-rendering:auto;image-rendering:auto;shape-rendering:auto;text-rendering:auto;enable-background:accumulate" />
    <path
       inkscape:connector-curvature="0"
       id="path3950-7-6-2-9"
       d="m 304.72253,48.533545 c 3.19044,0 5.70963,2.742075 5.70963,5.963097 0,3.221055 -2.51919,5.966358 -5.70963,5.966358 -3.19046,1.7e-5 -5.71289,-2.745303 -5.71289,-5.966358 2e-5,-3.221039 2.52243,-5.963114 5.71289,-5.963097 z m 0,3.32764 c -1.27966,0 -2.38525,1.107022 -2.38525,2.635457 0,1.528451 1.10559,2.638718 2.38525,2.638718 1.27965,0 2.38199,-1.110267 2.38199,-2.638718 0,-1.528435 -1.10234,-2.635457 -2.38199,-2.635457 z"
       style="color:#000000;font-style:normal;font-variant:normal;font-weight:normal;font-stretch:normal;font-size:medium;line-height:normal;font-family:sans-serif;text-indent:0;text-align:start;text-decoration:none;text-decoration-line:none;text-decoration-style:solid;text-decoration-color:#000000;letter-spacing:normal;word-spacing:normal;text-transform:none;direction:ltr;block-progression:tb;writing-mode:lr-tb;baseline-shift:baseline;text-anchor:start;white-space:normal;clip-rule:nonzero;display:inline;overflow:visible;visibility:visible;opacity:1;isolation:auto;mix-blend-mode:normal;color-interpolation:sRGB;color-interpolation-filters:linearRGB;solid-color:#000000;solid-opacity:1;fill:#248320;fill-opacity:1;fill-rule:nonzero;stroke:none;stroke-width:2;stroke-linecap:round;stroke-linejoin:round;stroke-miterlimit:4;stroke-dasharray:none;stroke-dashoffset:0;stroke-opacity:1;color-rendering:auto;image-rendering:auto;shape-rendering:auto;text-rendering:auto;enable-background:accumulate" />
    <path
       inkscape:connector-curvature="0"
       id="path3950-7-6-2-6-2"
       d="m 287.36818,44.212984 c 2.29152,0 4.10092,1.969489 4.10092,4.28298 0,2.313515 -1.8094,4.285322 -4.10092,4.285322 -2.29154,1.2e-5 -4.10327,-1.971807 -4.10327,-4.285322 1e-5,-2.313503 1.81173,-4.282992 4.10327,-4.28298 z m 0,2.390069 c -0.91912,0 -1.71321,0.795116 -1.71321,1.892911 0,1.097806 0.79409,1.895253 1.71321,1.895253 0.9191,0 1.71086,-0.797447 1.71086,-1.895253 0,-1.097795 -0.79176,-1.892911 -1.71086,-1.892911 z"
       style="color:#000000;font-style:normal;font-variant:normal;font-weight:normal;font-stretch:normal;font-size:medium;line-height:normal;font-family:sans-serif;text-indent:0;text-align:start;text-decoration:none;text-decoration-line:none;text-decoration-style:solid;text-decoration-color:#000000;letter-spacing:normal;word-spacing:normal;text-transform:none;direction:ltr;block-progression:tb;writing-mode:lr-tb;baseline-shift:baseline;text-anchor:start;white-space:normal;clip-rule:nonzero;display:inline;overflow:visible;visibility:visible;opacity:1;isolation:auto;mix-blend-mode:normal;color-interpolation:sRGB;color-interpolation-filters:linearRGB;solid-color:#000000;solid-opacity:1;fill:#248320;fill-opacity:1;fill-rule:nonzero;stroke:none;stroke-width:2;stroke-linecap:round;stroke-linejoin:round;stroke-miterlimit:4;stroke-dasharray:none;stroke-dashoffset:0;stroke-opacity:1;color-rendering:auto;image-rendering:auto;shape-rendering:auto;text-rendering:auto;enable-background:accumulate" />
    <path
       inkscape:connector-curvature="0"
       id="path3950-7-6-2-6-1-0"
       d="m 358.01112,82.379294 c 2.29152,0 4.10092,1.969489 4.10092,4.28298 0,2.313515 -1.8094,4.285322 -4.10092,4.285322 -2.29154,1.2e-5 -4.10327,-1.971807 -4.10327,-4.285322 1e-5,-2.313503 1.81173,-4.282992 4.10327,-4.28298 z m 0,2.390069 c -0.91912,0 -1.71321,0.795116 -1.71321,1.892911 0,1.097806 0.79409,1.895253 1.71321,1.895253 0.9191,0 1.71086,-0.797447 1.71086,-1.895253 0,-1.097795 -0.79176,-1.892911 -1.71086,-1.892911 z"
       style="color:#000000;font-style:normal;font-variant:normal;font-weight:normal;font-stretch:normal;font-size:medium;line-height:normal;font-family:sans-serif;text-indent:0;text-align:start;text-decoration:none;text-decoration-line:none;text-decoration-style:solid;text-decoration-color:#000000;letter-spacing:normal;word-spacing:normal;text-transform:none;direction:ltr;block-progression:tb;writing-mode:lr-tb;baseline-shift:baseline;text-anchor:start;white-space:normal;clip-rule:nonzero;display:inline;overflow:visible;visibility:visible;opacity:1;isolation:auto;mix-blend-mode:normal;color-interpolation:sRGB;color-interpolation-filters:linearRGB;solid-color:#000000;solid-opacity:1;fill:#248320;fill-opacity:1;fill-rule:nonzero;stroke:none;stroke-width:2;stroke-linecap:round;stroke-linejoin:round;stroke-miterlimit:4;stroke-dasharray:none;stroke-dashoffset:0;stroke-opacity:1;color-rendering:auto;image-rendering:auto;shape-rendering:auto;text-rendering:auto;enable-background:accumulate" />
  </g>
</svg>
