<?xml version="1.0" encoding="UTF-8" standalone="no"?>
<!-- Created with Inkscape (http://www.inkscape.org/) -->

<svg
   xmlns:dc="http://purl.org/dc/elements/1.1/"
   xmlns:cc="http://creativecommons.org/ns#"
   xmlns:rdf="http://www.w3.org/1999/02/22-rdf-syntax-ns#"
   xmlns:svg="http://www.w3.org/2000/svg"
   xmlns="http://www.w3.org/2000/svg"
   xmlns:sodipodi="http://sodipodi.sourceforge.net/DTD/sodipodi-0.dtd"
   xmlns:inkscape="http://www.inkscape.org/namespaces/inkscape"
   id="svg2"
   version="1.1"
   inkscape:version="0.91 r13725"
   width="500"
   height="500"
   xml:space="preserve"
   sodipodi:docname="Angry-Birds-chrome.angrybirds.com.svg"><metadata
     id="metadata8"><rdf:RDF><cc:Work
         rdf:about=""><dc:format>image/svg+xml</dc:format><dc:type
           rdf:resource="http://purl.org/dc/dcmitype/StillImage" /><dc:title /></cc:Work></rdf:RDF></metadata><defs
     id="defs6"><clipPath
       clipPathUnits="userSpaceOnUse"
       id="clipPath26"><path
         d="m 2936,3424.02 c 151.52,88.08 239.38,201.84 214.13,299.7 -30.99,120.19 -222.85,178.9 -458.32,152.85 149.87,156.71 215.2,322.31 151.2,428.93 -94.69,157.75 -436.32,126.66 -763.06,-69.46 C 1824.66,4082.81 1653.99,3874.17 1636.74,3715.01 790.793,3526.77 184.773,2608.81 184.773,1710 184.773,702.09 1001.86,220 2009.78,220 c 1007.92,0 1825,522.09 1825,1530 0,653.3 -366.48,1299.88 -898.78,1674.02 z"
         id="path28"
         inkscape:connector-curvature="0" /></clipPath></defs><sodipodi:namedview
     pagecolor="#ffffff"
     bordercolor="#666666"
     borderopacity="1"
     objecttolerance="10"
     gridtolerance="10"
     guidetolerance="10"
     inkscape:pageopacity="0"
     inkscape:pageshadow="2"
     inkscape:window-width="1366"
     inkscape:window-height="715"
     id="namedview4"
     showgrid="false"
     inkscape:zoom="0.60256712"
     inkscape:cx="558.5854"
     inkscape:cy="159.80751"
     inkscape:window-x="0"
     inkscape:window-y="24"
     inkscape:window-maximized="1"
     inkscape:current-layer="g10" /><g
     id="g10"
     inkscape:groupmode="layer"
     inkscape:label="ink_ext_XXXXXX"
     transform="matrix(1.25,0,0,-1.25,0,499.99999)"><g
       id="g4163"><path
         d="m 299.83968,222.23326 34.8513,56.34469 16.26453,-27.85892 -45.30741,-28.48577 c 0,0 68.54268,20.901 74.3519,28.48577 0,0 -5.22886,-30.05692 -13.36032,-38.27495 0,0 -59.2481,2.46894 -66.8,4.38637 0,0 40.07936,-8.32705 52.27735,-18.01683 0,0 -4.06573,-17.12545 -8.71262,-22.12104 0,0 -26.13948,24.83767 -34.85211,30.2517 -8.71262,5.41323 -8.71262,15.28898 -8.71262,15.28898"
         style="fill:#394050;fill-opacity:1;fill-rule:nonzero;stroke:none"
         id="path14"
         inkscape:connector-curvature="0" /><path
         d="m 254.5491,289.23927 c 12.14589,7.06052 19.18878,16.17956 17.16473,24.02405 -2.48417,9.63447 -17.86373,14.34068 -36.73908,12.2525 12.01363,12.56193 17.2505,25.83647 12.12024,34.38317 -7.59038,12.64529 -34.97555,10.1531 -61.16713,-5.56794 C 165.46373,342.04809 151.78277,325.32344 150.4,312.56512 82.588617,297.47574 34.00986,223.89177 34.00986,151.84288 34.00986,71.048489 99.507415,32.404 180.30301,32.404 c 80.79519,0 146.29258,41.850902 146.29258,122.64529 0,52.37034 -29.37715,104.1988 -72.04649,134.18998"
         style="fill:#f03916;fill-opacity:1;fill-rule:nonzero;stroke:none"
         id="path18"
         inkscape:connector-curvature="0" /><path
         d="m 254.5491,289.23927 c 12.14589,7.06052 19.18878,16.17956 17.16473,24.02405 -2.48417,9.63447 -17.86373,14.34068 -36.73908,12.2525 12.01363,12.56193 17.2505,25.83647 12.12024,34.38317 -7.59038,12.64529 -34.97555,10.1531 -61.16713,-5.56794 C 165.46373,342.04809 151.78277,325.32344 150.4,312.56512 82.588617,297.47574 34.00986,223.89177 34.00986,151.84288 34.00986,71.048489 99.507415,32.404 180.30301,32.404 c 80.79519,0 146.29258,41.850902 146.29258,122.64529 0,52.37034 -29.37715,104.1988 -72.04649,134.18998 z"
         style="fill:none;stroke:none;stroke-width:4.00801610999999980;stroke-linecap:butt;stroke-linejoin:miter;stroke-miterlimit:10;stroke-opacity:1;stroke-dasharray:none"
         id="path20"
         inkscape:connector-curvature="0" /><g
         style="fill:#b7280c;fill-opacity:1"
         transform="matrix(0.08016032,0,0,0.08016032,20,14.76873)"
         id="g22"><g
           style="fill:#b7280c;fill-opacity:1"
           id="g24"
           clip-path="url(#clipPath26)"><path
             d="m 22.8008,1942.87 c 0,-334.36 289.0862,-451.33 645.6832,-451.33 356.596,0 645.666,271.04 645.666,605.39 0,334.34 -289.07,605.37 -645.666,605.37 -356.597,0 -645.6832,-425.09 -645.6832,-759.43"
             style="fill:#b7280c;fill-opacity:1;fill-rule:nonzero;stroke:none"
             id="path30"
             inkscape:connector-curvature="0" /></g></g><path
         d="m 238.1523,327.66171 c 0,0 -17.63607,-18.43687 -47.82925,-20.84168 0,0 36.79519,8.08898 47.82925,24.8497"
         style="fill:#394050;fill-opacity:1;fill-rule:nonzero;stroke:none"
         id="path34"
         inkscape:connector-curvature="0" /><path
         d="m 87.366573,184.57714 -0.23014,-0.51543 c 9.550701,3.91263 16.127697,12.37676 16.127697,23.73066 0,15.8958 -12.885853,28.78077 -28.780763,28.78077 -15.895231,0 -28.780361,-12.88497 -28.780361,-28.78077 0,-9.88537 4.985892,-17.58076 12.578277,-21.98797 14.546853,1.00521 29.08529,-1.22726 29.08529,-1.22726"
         style="fill:#ffffff;fill-opacity:1;fill-rule:nonzero;stroke:none"
         id="path38"
         inkscape:connector-curvature="0" /><path
         d="m 84.070942,177.22163 0.616272,1.37475 c -0.604328,-0.22284 -1.218677,-0.42485 -1.839038,-0.61242 0.458117,-0.24289 0.868297,-0.49619 1.222766,-0.76233"
         style="fill:#211d1d;fill-opacity:1;fill-rule:nonzero;stroke:none"
         id="path40"
         inkscape:connector-curvature="0" /><path
         d="m 42.956232,183.11342 c 0,0 5.105171,-0.0176 11.785091,-0.38557 -1.021724,0.74228 -1.998317,1.53907 -2.923608,2.39358 -3.107174,-0.45691 -6.112224,-1.10621 -8.861483,-2.00801"
         style="fill:#394050;fill-opacity:1;fill-rule:nonzero;stroke:none"
         id="path42"
         inkscape:connector-curvature="0" /><path
         d="m 84.687214,178.59638 2.449219,5.46533 c -3.82012,-1.56392 -8.113106,-2.4016 -12.653066,-2.4016 -6.008898,0 -11.586613,1.46533 -16.202084,4.14429 -2.170662,-0.1507 -4.340922,-0.36954 -6.463568,-0.68297 0.925291,-0.85451 1.901884,-1.6513 2.923608,-2.39358"
         style="fill:#394050;fill-opacity:1;fill-rule:nonzero;stroke:none"
         id="path44"
         inkscape:connector-curvature="0" /><path
         d="m 87.136433,184.06171 0.23014,0.51543 c 0,0 -14.538437,2.23247 -29.08529,1.22726 4.615471,-2.67896 10.193186,-4.14429 16.202084,-4.14429 4.53996,0 8.832946,0.83768 12.653066,2.4016"
         style="fill:#394050;fill-opacity:1;fill-rule:nonzero;stroke:none"
         id="path46"
         inkscape:connector-curvature="0" /><path
         d="m 250.44329,289.71943 c 0,0 -22.44409,-4.00802 -48.63006,3.74028 0,0 25.04048,-9.89419 54.06974,-5.7483"
         style="fill:#394050;fill-opacity:1;fill-rule:nonzero;stroke:none"
         id="path48"
         inkscape:connector-curvature="0" /><path
         d="m 171.802,187.92143 c 2.97876,4.75992 4.67495,10.50421 4.67495,17.13187 0,21.03166 -17.04849,38.08096 -38.08016,38.08096 -21.03246,0 -38.08096,-17.0493 -38.08096,-38.08096 0,-9.81243 3.71383,-17.68818 9.80922,-23.2994 21.93106,9.2489 46.70381,8.1515 61.67695,6.16753"
         style="fill:#ffffff;fill-opacity:1;fill-rule:nonzero;stroke:none"
         id="path52"
         inkscape:connector-curvature="0" /><path
         d="m 185.51343,185.41803 c 0,0 -4.47215,1.16873 -11.68577,2.22124 -0.29499,-0.50902 -0.60121,-1.01002 -0.91624,-1.50461 4.01042,-0.0561 8.21163,-0.28297 12.60201,-0.71663"
         style="fill:#211d1d;fill-opacity:1;fill-rule:nonzero;stroke:none"
         id="path54"
         inkscape:connector-curvature="0" /><path
         d="m 112.96353,171.07815 c 0,0 0.9018,0.67334 2.67815,1.73306 -1.97835,1.20722 -3.84288,2.58036 -5.58877,4.08658 l 2.91062,-5.81964"
         style="fill:#211d1d;fill-opacity:1;fill-rule:nonzero;stroke:none"
         id="path56"
         inkscape:connector-curvature="0" /><path
         d="m 110.12505,181.7539 c -0.68697,-0.28938 -1.37154,-0.58517 -2.0513,-0.89539 l 1.97916,-3.96072 c 1.74589,-1.50622 3.61042,-2.87936 5.58877,-4.08658 1.16874,0.6982 2.71423,1.56233 4.63247,2.51463 -3.82686,1.60802 -7.25611,3.76353 -10.1491,6.42806"
         style="fill:#211d1d;fill-opacity:1;fill-rule:nonzero;stroke:none"
         id="path58"
         inkscape:connector-curvature="0" /><path
         d="m 170.58437,186.13626 c 0.77194,0.002 1.53828,0.01 2.32705,-0.002 0.31503,0.49459 0.62125,0.99559 0.91624,1.50461 -0.65331,0.0954 -1.32906,0.18918 -2.02566,0.28216 -0.38236,-0.61403 -0.79278,-1.20561 -1.21763,-1.78517"
         style="fill:#211d1d;fill-opacity:1;fill-rule:nonzero;stroke:none"
         id="path60"
         inkscape:connector-curvature="0" /><path
         d="m 110.12505,181.7539 c 2.89299,-2.66453 6.32224,-4.82004 10.1491,-6.42806 8.93868,4.43848 25.95912,10.75752 50.31022,10.81042 0.42485,0.57956 0.83527,1.17114 1.21763,1.78517 -14.97314,1.98397 -39.74589,3.08137 -61.67695,-6.16753"
         style="fill:#394050;fill-opacity:1;fill-rule:nonzero;stroke:none"
         id="path62"
         inkscape:connector-curvature="0" /><path
         d="m 142.14509,162.23807 c 0,0 24.67575,-21.90942 -3.7483,-35.41884 l -42.926489,10.38637 10.189019,28.68537 36.48577,-3.6529"
         style="fill:#ffffff;fill-opacity:1;fill-rule:nonzero;stroke:none"
         id="path64"
         inkscape:connector-curvature="0" /><path
         d="m 150.80378,150.57187 c -13.53026,27.63607 -49.07976,39.13587 -49.07976,39.13587 -69.989899,-6.85931 -78.712625,-55.87575 -78.712625,-55.87575 0,0 16.845291,10.45531 47.051303,11.61684 30.204812,1.16152 74.350702,-2.90421 74.350702,-2.90421 0,0 10.5988,-0.56994 6.39038,8.02725"
         style="fill:#f9ba15;fill-opacity:1;fill-rule:nonzero;stroke:none"
         id="path68"
         inkscape:connector-curvature="0" /><path
         d="m 149.39559,151.04127 c -13.53026,27.63607 -49.07976,39.13587 -49.07976,39.13587 -69.989898,-6.85931 -78.712624,-55.87575 -78.712624,-55.87575 0,0 16.845291,10.45531 47.051303,11.61684 30.20481,1.16152 74.350701,-2.90421 74.350701,-2.90421 0,0 10.5988,-0.56994 6.39038,8.02725 z"
         style="fill:none;stroke:none;stroke-width:3.20641278999999990;stroke-linecap:round;stroke-linejoin:round;stroke-miterlimit:10;stroke-opacity:1;stroke-dasharray:none"
         id="path70"
         inkscape:connector-curvature="0" /><path
         d="m 43.358948,143.40016 c 0,0 47.11519,-30.34549 53.988938,-30.34549 0,0 23.795424,1.301 42.926484,15.17275 0,0 3.53026,8.31343 -20.90741,18.06252 0,0 -59.367211,3.08457 -76.008012,-2.88978"
         style="fill:#f9ba15;fill-opacity:1;fill-rule:nonzero;stroke:none"
         id="path72"
         inkscape:connector-curvature="0" /><path
         d="m 41.481363,141.99197 c 0,0 47.11519,-30.34549 53.988938,-30.34549 0,0 23.795429,1.301 42.926489,15.17275 0,0 3.53026,8.31343 -20.90741,18.06252 0,0 -59.367216,3.08457 -76.008017,-2.88978 z"
         style="fill:none;stroke:none;stroke-width:3.20641278999999990;stroke-linecap:round;stroke-linejoin:round;stroke-miterlimit:10;stroke-opacity:1;stroke-dasharray:none"
         id="path74"
         inkscape:connector-curvature="0" /><path
         sodipodi:nodetypes="ccsc"
         d="m 80.092066,59.415505 c 0,0 71.125704,57.774845 209.343784,7.994561 0,0 -16.70626,-17.984767 -55.00211,-28.294958 C 193.91566,28.206638 130.37919,25.809991 80.092066,59.415505"
         style="fill:#b3b3b3;fill-opacity:1;fill-rule:nonzero;stroke:none"
         id="path76"
         inkscape:connector-curvature="0" /><path
         d="m 144.36393,208.54748 c 0,-5.45971 -4.42646,-9.88617 -9.88617,-9.88617 -5.46053,0 -9.88618,4.42646 -9.88618,9.88617 0,5.45972 4.42565,9.88618 9.88618,9.88618 5.45971,0 9.88617,-4.42646 9.88617,-9.88618"
         style="fill:#211d1d;fill-opacity:1;fill-rule:nonzero;stroke:none"
         id="path78"
         inkscape:connector-curvature="0" /><path
         d="m 88.099639,206.94428 c 0,-4.49058 -3.64008,-8.13066 -8.131302,-8.13066 -4.490181,0 -8.130902,3.64008 -8.130902,8.13066 0,4.48978 3.640721,8.13066 8.130902,8.13066 4.491222,0 8.131302,-3.64088 8.131302,-8.13066"
         style="fill:#211d1d;fill-opacity:1;fill-rule:nonzero;stroke:none"
         id="path80"
         inkscape:connector-curvature="0" /><path
         d="M 35.010661,244.33586 95.561443,216.83045 200.95311,246.94428 180.59319,282.69498 99.369058,235.43726 51.562164,265.76272 35.010661,244.33586"
         style="fill:#394050;fill-opacity:1;fill-rule:nonzero;stroke:none"
         id="path82"
         inkscape:connector-curvature="0" /></g></g></svg>