<?xml version="1.0" encoding="UTF-8" standalone="no"?>
<!-- Created with Inkscape (http://www.inkscape.org/) -->

<svg
   xmlns:dc="http://purl.org/dc/elements/1.1/"
   xmlns:cc="http://creativecommons.org/ns#"
   xmlns:rdf="http://www.w3.org/1999/02/22-rdf-syntax-ns#"
   xmlns:svg="http://www.w3.org/2000/svg"
   xmlns="http://www.w3.org/2000/svg"
   xmlns:sodipodi="http://sodipodi.sourceforge.net/DTD/sodipodi-0.dtd"
   xmlns:inkscape="http://www.inkscape.org/namespaces/inkscape"
   id="svg2"
   version="1.1"
   inkscape:version="0.91 r13725"
   width="512"
   height="512"
   sodipodi:docname="applications-system.svg"
   viewBox="0 0 512 512">
  <metadata
     id="metadata8">
    <rdf:RDF>
      <cc:Work
         rdf:about="">
        <dc:format>image/svg+xml</dc:format>
        <dc:type
           rdf:resource="http://purl.org/dc/dcmitype/StillImage" />
        <dc:title />
      </cc:Work>
    </rdf:RDF>
  </metadata>
  <defs
     id="defs6" />
  <sodipodi:namedview
     pagecolor="#ffffff"
     bordercolor="#666666"
     borderopacity="1"
     objecttolerance="10"
     gridtolerance="10"
     guidetolerance="10"
     inkscape:pageopacity="0"
     inkscape:pageshadow="2"
     inkscape:window-width="1366"
     inkscape:window-height="715"
     id="namedview4"
     showgrid="false"
     inkscape:zoom="0.32593204"
     inkscape:cx="-698.67285"
     inkscape:cy="310.03783"
     inkscape:window-x="0"
     inkscape:window-y="24"
     inkscape:window-maximized="1"
     inkscape:current-layer="svg2"
     inkscape:document-units="px" />
  <path
     inkscape:connector-curvature="0"
     id="path2986"
     d="m 225.49319,479.59651 c -3.94562,-1.76095 -8.14241,-6.26724 -10.0151,-10.75368 -0.96516,-2.31224 -1.92836,-11.20034 -2.75303,-25.40407 -0.69764,-12.01613 -1.61631,-22.80572 -2.04147,-23.97686 -0.56394,-1.55344 -3.32093,-3.01898 -10.1935,-5.41859 -5.18127,-1.80909 -12.98384,-5.08066 -17.33903,-7.27017 -4.3552,-2.18949 -8.86738,-3.98091 -10.02708,-3.98091 -1.30069,0 -8.41523,5.7848 -18.56965,15.09888 -9.05359,8.30438 -17.92469,15.84939 -19.71353,16.76668 -3.68216,1.88818 -11.96667,2.19548 -16.24477,0.60259 -3.40162,-1.26655 -39.385963,-36.72321 -41.693158,-41.08175 -2.288365,-4.32296 -2.043635,-12.4095 0.52383,-17.30852 1.16874,-2.23008 8.779934,-11.26794 16.91378,-20.08414 8.755768,-9.49028 14.788808,-16.85757 14.788808,-18.05944 0,-1.11649 -1.79161,-5.59294 -3.98136,-9.94764 -2.18975,-4.3547 -5.454618,-12.13614 -7.255271,-17.29209 -1.800651,-5.15595 -4.010631,-9.75628 -4.911074,-10.22295 -0.900443,-0.46667 -11.469657,-1.39048 -23.48715,-2.0529 -13.976328,-0.77038 -23.383123,-1.75326 -26.104554,-2.72755 -5.186232,-1.85673 -11.161258,-8.21509 -12.00542,-12.77566 -0.342395,-1.84973 -0.48257,-15.55373 -0.311499,-30.45332 l 0.311031,-27.09017 3.114122,-3.9028 c 5.50328,-6.89705 8.090165,-7.58986 34.375649,-9.20644 14.877584,-0.91499 23.921669,-1.88386 24.672913,-2.64316 0.652288,-0.65927 2.881708,-5.7714 4.954266,-11.3603 2.072557,-5.5889 5.311807,-13.23682 7.198317,-16.99536 1.88652,-3.75856 3.43003,-7.65983 3.43003,-8.6695 0,-1.00967 -6.22283,-8.66077 -13.828516,-17.00244 -7.605686,-8.34166 -14.880736,-16.55813 -16.166775,-18.25883 -3.617077,-4.78328 -4.84023,-10.70646 -3.409198,-16.50921 1.080528,-4.38145 3.059761,-6.75665 19.589855,-23.50898 C 105.428,87.85791 115.3993,78.59813 117.4731,77.52993 c 4.81243,-2.47885 12.46449,-2.513167 17.24278,-0.0773 2.01202,1.02567 10.83915,8.45637 19.61583,16.51265 8.77669,8.05628 16.55228,14.98544 17.27912,15.39815 0.76598,0.43493 5.49368,-1.22578 11.24642,-3.95058 5.4587,-2.5855 13.62629,-5.94826 18.1502,-7.47279 6.13397,-2.0671 8.51401,-3.38792 9.3609,-5.19489 0.62459,-1.33267 1.69577,-12.25442 2.38039,-24.270544 1.31667,-23.109115 2.10781,-26.762083 6.87354,-31.737048 5.30119,-5.533942 8.34997,-5.987927 37.98064,-5.655593 l 26.98842,0.302698 4.22211,2.795582 c 7.26414,4.809809 8.14345,7.800196 9.85422,33.512556 0.82811,12.446119 1.73176,23.598689 2.00812,24.783469 0.38895,1.66743 2.61344,2.89121 9.84517,5.41623 5.13848,1.79414 13.36742,5.28318 18.28653,7.75343 4.91912,2.47025 9.338,4.49136 9.81972,4.49136 0.48173,0 8.37973,-6.88683 17.55112,-15.30406 9.17137,-8.41723 18.37197,-16.19088 20.44578,-17.27477 4.9022,-2.562171 12.19888,-2.538829 17.56005,0.0562 2.54552,1.23211 11.1932,9.10151 22.05409,20.06922 18.64331,18.82667 20.11256,20.98061 20.12704,29.50681 0.0103,6.03039 -2.67468,9.98632 -18.70257,27.55595 -8.71487,9.55317 -15.84523,17.77447 -15.84523,18.26955 0,0.49507 2.27466,5.64102 5.0548,11.43544 2.78013,5.79442 6.09574,13.90937 7.36801,18.03323 1.58057,5.12311 2.957,7.77135 4.34578,8.36117 1.11791,0.47478 12.35432,1.50781 24.96981,2.29562 25.03563,1.56341 29.06833,2.5934 33.26589,8.49655 3.96813,5.58049 4.42965,9.76285 4.08601,37.02818 l -0.32872,26.08142 -3.0629,4.35472 c -5.46923,7.77598 -6.85052,8.17437 -34.62504,9.98657 -13.57125,0.88549 -24.91304,1.84799 -25.20399,2.13892 -0.29096,0.29093 -1.97576,4.62802 -3.744,9.63796 -1.76825,5.00996 -5.2454,13.1518 -7.727,18.093 -2.48162,4.94119 -4.37218,9.59351 -4.20127,10.33848 0.17092,0.74498 6.94198,8.58316 15.0468,17.41819 8.10482,8.83503 15.76502,18.09273 17.02266,20.57266 2.67139,5.26767 2.91916,10.84544 0.71599,16.11776 -1.94428,4.65279 -34.94624,38.19395 -40.31036,40.96897 -4.48516,2.3203 -12.65524,2.56961 -17.34987,0.52943 -1.79864,-0.78166 -10.81612,-8.32457 -20.03885,-16.76202 -9.22273,-8.43747 -17.50211,-15.34294 -18.39863,-15.34551 -0.89653,-0.003 -6.09171,2.08006 -11.54486,4.62803 -5.45316,2.54799 -13.53349,5.82478 -17.95629,7.28177 -6.11304,2.01379 -8.15977,3.15693 -8.5348,4.76682 -0.27133,1.16475 -1.17088,12.30092 -1.99899,24.74705 -1.82138,27.37479 -2.8678,30.34236 -12.40138,35.16943 -2.76442,1.3997 -7.33907,1.64082 -30.48835,1.60701 -20.488,-0.0299 -27.99129,-0.3769 -30.28475,-1.40049 z m 40.14299,-121.54624 c 24.56906,-2.57464 45.09635,-12.37225 62.57249,-29.86563 13.31977,-13.33292 21.91436,-28.29321 27.08947,-47.1537 3.24433,-11.8238 3.2252,-37.93255 -0.0366,-49.90068 -9.89851,-36.3198 -35.90101,-63.06081 -71.84052,-73.88085 -8.37425,-2.52117 -10.64813,-2.76023 -26.93139,-2.83135 -15.59641,-0.0681 -18.84784,0.21246 -26.42323,2.28027 -37.82443,10.32467 -66.753,40.71376 -74.65777,78.42701 -7.10198,33.88318 3.28228,68.46744 28.02247,93.32747 12.95375,13.01652 29.76137,22.56724 47.97042,27.25861 5.19238,1.33776 12.56092,2.36881 23.05556,3.22606 0.83843,0.0685 5.86901,-0.33076 11.17906,-0.88721 z M 240.43421,315.4481 c -25.91383,-7.02721 -44.0496,-29.07882 -45.65535,-55.51318 -1.12274,-18.48259 4.82581,-34.12026 17.95229,-47.19338 23.90535,-23.80819 62.0773,-24.03133 85.6798,-0.50084 19.44029,19.38098 24.10484,46.9455 12.03867,71.14094 -10.27725,20.60824 -29.21023,32.76977 -52.432,33.67951 -7.9056,0.30972 -11.81567,-0.049 -17.58341,-1.61305 z m 28.99176,-25.62433 c 7.15743,-2.67763 15.69473,-10.61201 19.28531,-17.92334 4.40437,-11.06429 4.07157,-23.78885 -0.64292,-32.52847 -6.67346,-12.30701 -16.57524,-18.54324 -30.5624,-19.24847 -11.23601,-0.56652 -17.96132,1.81319 -26.07266,9.22565 -10.28417,9.39809 -14.37617,22.46331 -11.07311,35.35498 2.85898,11.15841 8.91601,18.73501 19.10439,23.89727 9.50482,4.81592 19.28872,5.21508 29.96139,1.22238 z"
     style="fill:#45d03f;stroke-width:0.91735023;fill-opacity:1"
     sodipodi:nodetypes="csssssssssssssssssssscsssssssssssssssssssscssssssssssssssssssscsscsscsssssscsssssscccssssssssscccssssssssccsssss" />
</svg>
