<?xml version="1.0" encoding="UTF-8" standalone="no"?>
<svg
   xmlns:dc="http://purl.org/dc/elements/1.1/"
   xmlns:cc="http://creativecommons.org/ns#"
   xmlns:rdf="http://www.w3.org/1999/02/22-rdf-syntax-ns#"
   xmlns:svg="http://www.w3.org/2000/svg"
   xmlns="http://www.w3.org/2000/svg"
   xmlns:sodipodi="http://sodipodi.sourceforge.net/DTD/sodipodi-0.dtd"
   xmlns:inkscape="http://www.inkscape.org/namespaces/inkscape"
   viewBox="0 0 511.99999 511.99999"
   height="512"
   width="512"
   version="1.1"
   id="svg2"
   inkscape:version="0.91 r13725"
   sodipodi:docname="artha.svg">
  <sodipodi:namedview
     pagecolor="#ffffff"
     bordercolor="#666666"
     borderopacity="1"
     objecttolerance="10"
     gridtolerance="10"
     guidetolerance="10"
     inkscape:pageopacity="0"
     inkscape:pageshadow="2"
     inkscape:window-width="1366"
     inkscape:window-height="715"
     id="namedview18"
     showgrid="false"
     inkscape:zoom="0.57452426"
     inkscape:cx="321.43458"
     inkscape:cy="189.58226"
     inkscape:window-x="0"
     inkscape:window-y="24"
     inkscape:window-maximized="1"
     inkscape:current-layer="svg2" />
  <metadata
     id="metadata8">
    <rdf:RDF>
      <cc:Work
         rdf:about="">
        <dc:format>image/svg+xml</dc:format>
        <dc:type
           rdf:resource="http://purl.org/dc/dcmitype/StillImage" />
        <dc:title />
      </cc:Work>
    </rdf:RDF>
  </metadata>
  <defs
     id="defs6">
    <filter
       height="1.096"
       y="-0.048"
       width="1.096"
       x="-0.048"
       id="filter4329"
       style="color-interpolation-filters:sRGB">
      <feGaussianBlur
         id="feGaussianBlur4331"
         stdDeviation="2.1324205" />
    </filter>
    <filter
       height="1.0327445"
       y="-0.016372267"
       width="1.0399742"
       x="-0.019987123"
       id="filter4376"
       style="color-interpolation-filters:sRGB">
      <feGaussianBlur
         id="feGaussianBlur4378"
         stdDeviation="1.1736058" />
    </filter>
    <filter
       height="1.0570984"
       y="-0.0285492"
       width="1.0632123"
       x="-0.031606145"
       id="filter4436"
       style="color-interpolation-filters:sRGB">
      <feGaussianBlur
         id="feGaussianBlur4438"
         stdDeviation="0.63519096" />
    </filter>
  </defs>
  <g
     id="g4181">
    <rect
       rx="31.444454"
       ry="35.530224"
       y="37.000042"
       x="70.817764"
       height="449.32471"
       width="380.6434"
       id="rect3003"
       style="fill:#c87137;fill-opacity:1;stroke:none" />
    <path
       sodipodi:nodetypes="cccczcczcccczc"
       inkscape:connector-curvature="0"
       id="path3773"
       d="m 91.194665,52.193862 c -2.687608,3.305024 -2.258875,7.668781 -2.258875,7.668781 l 0.07907,373.529037 0.0054,27.38441 c 0,0 -0.176421,4.28302 1.812015,6.51635 1.988597,2.23333 6.723213,2.44283 6.723213,2.44283 l 327.943369,-0.0162 c 0,0 5.49332,0.30174 7.96411,-1.86241 2.4708,-2.16411 2.25458,-6.97424 2.25458,-6.97424 L 434.91105,160.95611 323.61427,49.828652 98.331604,49.420949 c 0,0 -4.449655,-0.529259 -7.137208,2.775495 z"
       style="fill:#ffffff;stroke:none" />
    <path
       sodipodi:nodetypes="czzczzcc"
       inkscape:connector-curvature="0"
       id="path3775"
       d="m 323.40483,49.702253 c 0,0 8.39533,13.113919 12.41227,25.858968 4.01694,12.74505 4.57213,35.111009 4.55115,47.166679 -0.0215,12.05566 -2.48247,24.82455 -2.48247,24.82455 0,0 21.9312,-2.64302 36.61628,-1.03438 14.68503,1.60865 26.5469,3.77324 37.02995,6.82681 10.48312,3.05352 23.9971,8.2748 23.9971,8.2748 z"
       style="fill:#cccccc;stroke:none" />
    <circle
       r="18.825298"
       id="path3777"
       style="fill:#394050;fill-opacity:1;stroke:none;stroke-width:5.14158678"
       cx="117.10751"
       cy="87.636894" />
    <path
       sodipodi:nodetypes="cczcczc"
       inkscape:connector-curvature="0"
       id="path3779"
       d="m 49.519219,99.428526 68.267521,0 c 0,0 10.04007,-0.866771 9.82643,-10.757367 -0.21353,-9.890543 -10.34358,-11.170986 -10.34358,-11.170986 l -68.577877,0.413618 c 0,0 -8.882905,1.922655 -8.688575,11.17104 0.194169,9.248385 9.516081,10.343802 9.516081,10.343802 z"
       style="fill:#b3b3b3;stroke:none;fill-opacity:1" />
    <circle
       r="18.825298"
       id="path3777-3"
       style="fill:#394050;fill-opacity:1;stroke:none;stroke-width:5.14158678"
       cx="117.54166"
       cy="135.89221" />
    <path
       sodipodi:nodetypes="cczcczc"
       inkscape:connector-curvature="0"
       id="path3779-6"
       d="m 49.953277,147.68384 68.267523,0 c 0,0 10.04007,-0.86677 9.82643,-10.75736 -0.21354,-9.89055 -10.34359,-11.17099 -10.34359,-11.17099 l -68.57787,0.41362 c 0,0 -8.882905,1.92265 -8.688574,11.17104 0.194169,9.24839 9.516081,10.3438 9.516081,10.3438 z"
       style="fill:#b3b3b3;stroke:none;fill-opacity:1" />
    <circle
       r="18.825298"
       id="path3777-7"
       style="fill:#394050;fill-opacity:1;stroke:none;stroke-width:5.14158678"
       cx="117.9097"
       cy="183.73431" />
    <path
       sodipodi:nodetypes="cczcczc"
       inkscape:connector-curvature="0"
       id="path3779-5"
       d="m 50.321339,195.52597 68.267521,0 c 0,0 10.04007,-0.86677 9.82643,-10.75736 -0.21353,-9.89055 -10.34358,-11.17099 -10.34358,-11.17099 l -68.577878,0.41362 c 0,0 -8.882905,1.92265 -8.688574,11.17104 0.194169,9.24838 9.516081,10.3438 9.516081,10.3438 z"
       style="fill:#b3b3b3;stroke:none;fill-opacity:1" />
    <circle
       r="18.825298"
       id="path3777-3-3"
       style="fill:#394050;fill-opacity:1;stroke:none;stroke-width:5.14158678"
       cx="118.34384"
       cy="231.98976" />
    <path
       sodipodi:nodetypes="cczcczc"
       inkscape:connector-curvature="0"
       id="path3779-6-5"
       d="m 50.755396,243.78129 68.267524,0 c 0,0 10.04007,-0.86677 9.82642,-10.75736 -0.21353,-9.89055 -10.34358,-11.17099 -10.34358,-11.17099 l -68.57787,0.41361 c 0,0 -8.882905,1.92266 -8.688575,11.17105 0.194169,9.24837 9.516081,10.3438 9.516081,10.3438 z"
       style="fill:#b3b3b3;stroke:none;fill-opacity:1" />
    <circle
       r="18.825298"
       id="path3777-6"
       style="fill:#394050;fill-opacity:1;stroke:none;stroke-width:5.14158678"
       cx="118.13059"
       cy="280.13715" />
    <path
       sodipodi:nodetypes="cczcczc"
       inkscape:connector-curvature="0"
       id="path3779-2"
       d="m 50.542186,291.92877 68.267524,0 c 0,0 10.04006,-0.86677 9.82643,-10.75738 -0.21353,-9.89053 -10.34358,-11.17098 -10.34358,-11.17098 l -68.577881,0.41362 c 0,0 -8.882904,1.92266 -8.688574,11.17103 0.194169,9.24839 9.516081,10.34382 9.516081,10.34382 z"
       style="fill:#b3b3b3;stroke:none;fill-opacity:1" />
    <circle
       r="18.825298"
       id="path3777-3-9"
       style="fill:#394050;fill-opacity:1;stroke:none;stroke-width:5.14158678"
       cx="118.56473"
       cy="328.39255" />
    <path
       sodipodi:nodetypes="cczcczc"
       inkscape:connector-curvature="0"
       id="path3779-6-1"
       d="m 50.976243,340.18408 68.267517,0 c 0,0 10.04008,-0.86677 9.82643,-10.75737 -0.21353,-9.89054 -10.34358,-11.17098 -10.34358,-11.17098 l -68.577873,0.41362 c 0,0 -8.882905,1.92265 -8.688574,11.17104 0.194169,9.24838 9.51608,10.3438 9.51608,10.3438 z"
       style="fill:#b3b3b3;stroke:none;fill-opacity:1" />
    <circle
       r="18.825298"
       id="path3777-7-2"
       style="fill:#394050;fill-opacity:1;stroke:none;stroke-width:5.14158678"
       cx="118.93278"
       cy="376.23465" />
    <path
       sodipodi:nodetypes="cczcczc"
       inkscape:connector-curvature="0"
       id="path3779-5-7"
       d="m 51.344305,388.02621 68.267525,0 c 0,0 10.04007,-0.86677 9.82643,-10.75737 -0.21353,-9.89054 -10.34358,-11.17098 -10.34358,-11.17098 l -68.577881,0.41362 c 0,0 -8.882905,1.92266 -8.688575,11.17103 0.194169,9.24839 9.516081,10.3438 9.516081,10.3438 z"
       style="fill:#b3b3b3;stroke:none;fill-opacity:1" />
    <circle
       r="18.825298"
       id="path3777-3-3-0"
       style="fill:#394050;fill-opacity:1;stroke:none;stroke-width:5.14158678"
       cx="119.36692"
       cy="424.48999" />
    <path
       sodipodi:nodetypes="cczcczc"
       inkscape:connector-curvature="0"
       id="path3779-6-5-9"
       d="m 51.778362,436.28152 68.267518,0 c 0,0 10.04007,-0.86677 9.82643,-10.75736 -0.21353,-9.89054 -10.34358,-11.17099 -10.34358,-11.17099 l -68.577874,0.41362 c 0,0 -8.882905,1.92266 -8.688574,11.17104 0.194169,9.24839 9.51608,10.3438 9.51608,10.3438 z"
       style="fill:#b3b3b3;stroke:none;fill-opacity:1" />
    <path
       class="fil1"
       d="m 222.28883,225.671 0,-8.27638 17.29037,-2.919 -9.9752,-27.52266 -47.3475,0 -10.61865,27.52266 17.19426,2.919 0,8.27638 -45.48584,0 0,-8.27638 13.53768,-2.919 50.74708,-129.689692 18.1241,0 47.76336,129.689692 14.56363,2.919 0,8.27638 -65.79133,0 z m -15.04425,-101.20586 -0.73761,0 -19.27953,49.7839 37.98038,0 z"
       id="path13"
       inkscape:connector-curvature="0"
       style="clip-rule:evenodd;fill:#394050;fill-rule:nonzero;stroke-width:0.0058354;image-rendering:optimizeQuality;shape-rendering:geometricPrecision;text-rendering:geometricPrecision" />
    <path
       class="fil1"
       d="m 360.48095,283.09437 c 3.599,0 7.15322,0.42312 10.6676,1.22724 3.47208,1.48093 5.20689,3.30267 5.20689,5.46065 -0.677,3.64133 -12.0241,7.9597 -33.99398,12.91276 -13.25112,2.79507 -24.1303,4.86832 -32.76693,6.17982 -2.62585,13.92818 -4.10675,25.14576 -4.44525,33.74014 15.02824,-5.75694 28.70251,-9.01748 40.93812,-9.65217 -0.3385,-3.1335 -1.01548,-5.79905 -1.98864,-7.95946 -0.84625,-2.15797 -1.22708,-3.55684 -1.22708,-4.19152 0,-2.49879 1.05782,-3.7258 3.21821,-3.7258 2.96434,0 6.18004,2.07324 9.65212,6.18006 1.81943,2.668 3.04897,5.88376 3.72594,9.6943 14.05506,0.97331 25.86759,4.86832 35.47738,11.64071 13.88582,9.60982 20.82749,21.76105 20.82749,36.45076 0,16.72303 -10.41372,31.92059 -31.2437,45.67958 -18.37337,11.89705 -38.26999,18.07712 -59.77693,18.58471 18.33107,-6.944 33.57085,-14.81656 45.63723,-23.58013 17.52715,-12.70116 26.45998,-26.29073 26.79846,-40.68416 0.33851,-12.53199 -3.72595,-22.39549 -12.15101,-29.50652 -6.81474,-4.4452 -15.23981,-7.19551 -25.31504,-8.17125 -1.81942,9.90611 -6.13773,20.06589 -12.91263,30.52439 -6.60316,10.07528 -15.45137,19.72747 -26.54458,28.99866 2.83741,4.78385 6.13775,8.8483 9.94833,12.15097 2.11558,2.66825 3.47207,4.95307 3.93747,6.94184 -0.4654,3.30267 -3.93747,5.20674 -10.41374,5.71457 -3.47206,-0.50783 -7.28263,-3.64132 -11.38691,-9.44063 -1.01546,-1.31172 -2.41425,-3.47211 -4.23366,-6.43398 -14.39354,8.93302 -26.62922,13.29351 -36.70444,13.16667 -14.90129,-0.1692 -22.31089,-8.29809 -22.31089,-24.3419 0,-10.24449 5.12227,-20.82741 15.36673,-31.75137 6.4339,-6.94184 14.90131,-13.37824 25.31504,-19.34649 0.29619,-9.5677 2.11558,-22.48021 5.46072,-38.69323 l -4.23367,0 c -4.48756,0 -9.6098,-0.7194 -15.36673,-2.20031 -7.95966,-1.98855 -11.93947,-4.57207 -11.93947,-7.70579 0,-1.01544 2.75278,-1.48068 8.21351,-1.48068 7.28267,0 16.04621,-0.93097 26.29073,-2.75296 l 7.45185,-34.20541 c 0,-4.95305 -1.26933,-8.84829 -3.72594,-11.68574 -2.32964,-2.28479 -3.47205,-3.93735 -3.47205,-4.95279 0,-2.15798 2.71046,-3.21822 8.17119,-3.21822 2.49889,0 6.22237,2.71036 11.17534,8.17101 4.95302,5.2917 7.49421,9.52535 7.66346,12.65883 -2.28487,4.65677 -4.61452,9.35591 -6.94166,14.13977 -1.65016,3.81051 -3.47206,9.27117 -5.46073,16.3846 3.17588,-0.84624 7.95963,-2.07323 14.39354,-3.7258 19.00806,-4.78384 30.01416,-7.19816 33.02079,-7.19816 z m -70.48685,78.61584 c -6.26465,3.97974 -11.81253,8.72122 -16.59625,14.13975 -8.76358,9.27119 -13.1665,17.52715 -13.1665,24.80715 0,10.28686 4.14904,15.49384 12.40488,15.66304 7.62114,-0.50784 17.61177,-5.29146 30.01414,-14.39369 -0.63466,-1.35384 -2.28483,-5.20671 -4.95299,-11.68306 -4.27599,-10.07531 -6.85703,-19.60041 -7.70575,-28.53319 z m 55.83942,-18.58496 c -12.40488,0.97309 -24.89191,4.14917 -37.46602,9.44063 -0.677,0.16919 -1.73481,0.54997 -3.21822,1.227 0.50776,14.90128 3.47207,27.60247 8.93281,38.18536 0,0.16921 0.0846,0.3384 0.25387,0.50785 16.51165,-14.39366 27.01002,-30.86302 31.49756,-49.36325 z"
       id="path11"
       inkscape:connector-curvature="0"
       style="clip-rule:evenodd;fill:#394050;fill-opacity:1;fill-rule:nonzero;stroke-width:0.0074038;image-rendering:optimizeQuality;shape-rendering:geometricPrecision;text-rendering:geometricPrecision" />
  </g>
</svg>
