<?xml version="1.0" encoding="UTF-8" standalone="no"?>
<svg
   xmlns:dc="http://purl.org/dc/elements/1.1/"
   xmlns:cc="http://creativecommons.org/ns#"
   xmlns:rdf="http://www.w3.org/1999/02/22-rdf-syntax-ns#"
   xmlns:svg="http://www.w3.org/2000/svg"
   xmlns="http://www.w3.org/2000/svg"
   xmlns:sodipodi="http://sodipodi.sourceforge.net/DTD/sodipodi-0.dtd"
   xmlns:inkscape="http://www.inkscape.org/namespaces/inkscape"
   viewBox="0 0 511.99999 511.99999"
   height="512"
   width="512"
   version="1.1"
   id="svg2"
   inkscape:version="0.91 r13725"
   sodipodi:docname="braindump.svg">
  <sodipodi:namedview
     pagecolor="#ffffff"
     bordercolor="#666666"
     borderopacity="1"
     objecttolerance="10"
     gridtolerance="10"
     guidetolerance="10"
     inkscape:pageopacity="0"
     inkscape:pageshadow="2"
     inkscape:window-width="1366"
     inkscape:window-height="715"
     id="namedview18"
     showgrid="false"
     inkscape:zoom="0.40625"
     inkscape:cx="356.47408"
     inkscape:cy="439.11635"
     inkscape:window-x="0"
     inkscape:window-y="24"
     inkscape:window-maximized="1"
     inkscape:current-layer="svg2" />
  <metadata
     id="metadata8">
    <rdf:RDF>
      <cc:Work
         rdf:about="">
        <dc:format>image/svg+xml</dc:format>
        <dc:type
           rdf:resource="http://purl.org/dc/dcmitype/StillImage" />
        <dc:title />
      </cc:Work>
    </rdf:RDF>
  </metadata>
  <defs
     id="defs6">
    <filter
       height="1.096"
       y="-0.048"
       width="1.096"
       x="-0.048"
       id="filter4329"
       style="color-interpolation-filters:sRGB">
      <feGaussianBlur
         id="feGaussianBlur4331"
         stdDeviation="2.1324205" />
    </filter>
    <filter
       height="1.0327445"
       y="-0.016372267"
       width="1.0399742"
       x="-0.019987123"
       id="filter4376"
       style="color-interpolation-filters:sRGB">
      <feGaussianBlur
         id="feGaussianBlur4378"
         stdDeviation="1.1736058" />
    </filter>
    <filter
       height="1.0570984"
       y="-0.0285492"
       width="1.0632123"
       x="-0.031606145"
       id="filter4436"
       style="color-interpolation-filters:sRGB">
      <feGaussianBlur
         id="feGaussianBlur4438"
         stdDeviation="0.63519096" />
    </filter>
  </defs>
  <g
     id="g4153">
    <rect
       rx="29.958984"
       ry="33.851738"
       y="37"
       x="50"
       height="428.09811"
       width="362.66141"
       id="rect3003"
       style="fill:#c87137;fill-opacity:1;stroke:none" />
    <path
       sodipodi:nodetypes="cccczcczcccczc"
       inkscape:connector-curvature="0"
       id="path3773"
       d="m 69.414274,51.476049 c -2.560642,3.148891 -2.152163,7.306499 -2.152163,7.306499 l 0.07533,355.883132 0.0052,26.09073 c 0,0 -0.168086,4.08069 1.726414,6.20852 1.894653,2.12782 6.405602,2.32742 6.405602,2.32742 l 312.450973,-0.0154 c 0,0 5.23381,0.28749 7.58788,-1.77443 2.35408,-2.06187 2.14807,-6.64477 2.14807,-6.64477 L 396.89313,155.10025 290.85413,49.222573 76.214057,48.834131 c 0,0 -4.239449,-0.504256 -6.800039,2.644378 z"
       style="fill:#ffffff;stroke:none" />
    <rect
       ry="0"
       y="155.15384"
       x="105"
       height="5.8461537"
       width="251.38461"
       id="rect3001-6"
       style="fill:#b3b3b3;fill-opacity:1;stroke:none" />
    <path
       sodipodi:nodetypes="czzczzcc"
       inkscape:connector-curvature="0"
       id="path3775"
       d="m 290.65458,49.102146 c 0,0 7.99873,12.494403 11.8259,24.637362 3.82718,12.142961 4.35614,33.452332 4.33615,44.938472 -0.0205,11.48614 -2.36519,23.65181 -2.36519,23.65181 0,0 20.89515,-2.51816 34.88649,-0.98551 13.99129,1.53266 25.29279,3.59499 35.28062,6.5043 9.98788,2.90927 22.86345,7.88389 22.86345,7.88389 z"
       style="fill:#cccccc;stroke:none" />
    <path
       style="fill:#f0c310"
       d="m 278.22398,471.29702 c -13.58192,0.71485 -30.03904,-8.78187 -37.02481,-21.36547 -1.78828,-3.22121 -3.29017,-9.75857 -2.92721,-12.74161 0.33796,-2.77811 1.93064,-7.01621 2.70083,-7.18692 0.78933,-0.17497 51.68881,32.31039 51.86403,33.10097 0.1813,0.81793 -2.61691,3.70161 -5.04587,5.20005 -2.66395,1.64343 -6.45408,2.82914 -9.56697,2.99298 z"
       id="path2993"
       inkscape:connector-curvature="0" />
    <path
       style="fill:#f0c310"
       d="m 306.6826,462.34615 c -1.10693,-0.31307 -17.45901,-10.44251 -36.33788,-22.50988 -29.37015,-18.77337 -34.48381,-22.22871 -35.42374,-23.93592 -3.18847,-5.79144 0.89415,-10.99211 7.51954,-9.57879 2.10216,0.44842 64.02557,39.271 69.00735,43.26384 4.4412,3.55957 5.65002,7.86651 3.08644,10.997 -1.39665,1.70551 -5.10901,2.53943 -7.85171,1.76377 z"
       id="path2991"
       inkscape:connector-curvature="0" />
    <path
       style="fill:#f0c310"
       d="m 318.01921,444.19664 c -1.4627,-0.36032 -14.59772,-8.43485 -36.57126,-22.48153 -31.56893,-20.1806 -34.38185,-22.09807 -35.46178,-24.17321 -3.19239,-6.1343 1.56438,-11.06911 8.52896,-8.84819 4.07374,1.29911 68.63515,42.57123 70.3019,44.94187 4.37665,6.22504 0.43833,12.34359 -6.79782,10.56106 z"
       id="path2989"
       inkscape:connector-curvature="0" />
    <path
       style="fill:#f0c310"
       d="m 331.53555,427.69774 c -0.92956,0.008 -2.57409,-0.29849 -3.65452,-0.68158 -1.08045,-0.3831 -16.99664,-10.29205 -35.36936,-22.01988 -23.01792,-14.69296 -33.7829,-21.86266 -34.62041,-23.05785 -4.58976,-6.54997 0.59852,-12.68157 8.39179,-9.91757 1.06513,0.37775 16.96883,10.28232 35.34156,22.01015 23.01787,14.69296 33.78286,21.86267 34.62037,23.05786 3.59867,5.13556 1.19214,10.55666 -4.70943,10.60887 z"
       id="path2987"
       inkscape:connector-curvature="0" />
    <rect
       ry="0"
       y="187.30769"
       x="105"
       height="5.8461537"
       width="251.38461"
       id="rect3001-3-7"
       style="fill:#b3b3b3;fill-opacity:1;stroke:none" />
    <rect
       ry="0"
       y="220.45177"
       x="105"
       height="5.8461537"
       width="251.38461"
       id="rect3001-6-5"
       style="fill:#b3b3b3;fill-opacity:1;stroke:none" />
    <rect
       ry="0"
       y="252.60561"
       x="105"
       height="5.8461537"
       width="251.38461"
       id="rect3001-3-7-3"
       style="fill:#b3b3b3;fill-opacity:1;stroke:none" />
    <path
       style="fill:#ffcc00"
       d="m 331.89518,402.22569 c -1.59214,-0.45666 -48.1599,-29.98532 -50.5476,-32.05227 -1.45856,-1.26261 -2.05862,-2.23897 -2.44362,-3.97599 -0.44903,-2.02594 -0.21707,-2.98988 1.93161,-8.02788 6.52636,-15.30225 9.35195,-28.80381 9.05597,-43.27239 -0.19525,-9.54632 -0.94945,-15.11457 -4.68176,-34.56719 -1.85501,-9.66798 -3.49178,-19.24959 -3.63738,-21.29243 -1.04428,-14.65617 1.4091,-24.93717 8.62671,-36.15069 22.19684,-34.48588 70.63865,-45.00094 114.99244,-24.96092 7.18584,3.24672 17.76304,9.6472 24.478,14.81206 14.24866,10.95954 26.03568,25.80608 33.56631,42.279 2.63674,5.76778 3.05337,7.14184 5.47559,18.05851 2.47999,11.16655 2.61712,12.17181 2.53899,18.30193 -0.19817,15.55186 -4.10205,29.10734 -11.81259,41.01697 -6.21534,9.60013 -13.19725,15.95679 -22.83697,20.79176 -6.85275,3.43712 -11.19307,4.97205 -26.95419,9.53215 -22.9171,6.63053 -32.65971,10.49824 -44.94405,17.84228 -7.12542,4.25987 -16.39598,11.27173 -23.428,17.72001 -3.74258,3.4319 -6.75343,4.69829 -9.37946,3.94509 z"
       id="path2986"
       inkscape:connector-curvature="0" />
    <path
       style="fill:#394050"
       d="m 278.22398,471.29702 c -13.58192,0.71485 -30.03904,-8.78187 -37.02481,-21.36547 -1.78828,-3.22121 -3.29017,-9.75857 -2.92721,-12.74161 0.33796,-2.77811 1.93064,-7.01621 2.70083,-7.18692 0.78933,-0.17497 51.68881,32.31039 51.86403,33.10097 0.1813,0.81793 -2.61691,3.70161 -5.04587,5.20005 -2.66395,1.64343 -6.45408,2.82914 -9.56697,2.99298 z m 28.45862,-8.95087 c -1.10693,-0.31307 -17.45901,-10.44251 -36.33788,-22.50988 -29.37015,-18.77337 -34.48381,-22.22871 -35.42374,-23.93592 -3.18847,-5.79144 0.89415,-10.99211 7.51954,-9.57879 2.10216,0.44842 64.02557,39.271 69.00735,43.26384 4.4412,3.55957 5.65002,7.86651 3.08644,10.997 -1.39665,1.70551 -5.10901,2.53943 -7.85171,1.76377 z m 11.33661,-18.14951 c -1.4627,-0.36032 -14.59772,-8.43485 -36.57126,-22.48153 -31.56893,-20.1806 -34.38185,-22.09807 -35.46178,-24.17321 -3.19239,-6.1343 1.56438,-11.06911 8.52896,-8.84819 4.07374,1.29911 68.63515,42.57123 70.3019,44.94187 4.37665,6.22504 0.43833,12.34359 -6.79782,10.56106 z m 13.51634,-16.4989 c -0.92956,0.008 -2.57409,-0.29849 -3.65452,-0.68158 -1.08045,-0.3831 -16.99664,-10.29205 -35.36936,-22.01988 -23.01792,-14.69296 -33.7829,-21.86266 -34.62041,-23.05785 -4.58976,-6.54997 0.59852,-12.68157 8.39179,-9.91757 1.06513,0.37775 16.96883,10.28232 35.34156,22.01015 23.01787,14.69296 33.78286,21.86267 34.62037,23.05786 3.59867,5.13556 1.19214,10.55666 -4.70943,10.60887 z"
       id="path2984"
       inkscape:connector-curvature="0" />
    <rect
       ry="0"
       y="85.53846"
       x="105"
       height="5.8461537"
       width="186.76923"
       id="rect3001"
       style="fill:#b3b3b3;fill-opacity:1;stroke:none" />
    <rect
       ry="0"
       y="117.69231"
       x="105"
       height="5.8461537"
       width="186.76923"
       id="rect3001-3"
       style="fill:#b3b3b3;fill-opacity:1;stroke:none" />
  </g>
</svg>
