<?xml version="1.0" encoding="UTF-8" standalone="no"?>
<!-- Generator: Adobe Illustrator 19.0.0, SVG Export Plug-In . SVG Version: 6.00 Build 0)  -->

<svg
   xmlns:dc="http://purl.org/dc/elements/1.1/"
   xmlns:cc="http://creativecommons.org/ns#"
   xmlns:rdf="http://www.w3.org/1999/02/22-rdf-syntax-ns#"
   xmlns:svg="http://www.w3.org/2000/svg"
   xmlns="http://www.w3.org/2000/svg"
   xmlns:sodipodi="http://sodipodi.sourceforge.net/DTD/sodipodi-0.dtd"
   xmlns:inkscape="http://www.inkscape.org/namespaces/inkscape"
   version="1.1"
   id="Layer_1"
   x="0px"
   y="0px"
   viewBox="0 0 500 500"
   xml:space="preserve"
   inkscape:version="0.91 r13725"
   width="100%"
   height="100%"
   sodipodi:docname="caffeine.svg"><metadata
     id="metadata57"><rdf:RDF><cc:Work
         rdf:about=""><dc:format>image/svg+xml</dc:format><dc:type
           rdf:resource="http://purl.org/dc/dcmitype/StillImage" /></cc:Work></rdf:RDF></metadata><defs
     id="defs55" /><sodipodi:namedview
     pagecolor="#ffffff"
     bordercolor="#666666"
     borderopacity="1"
     objecttolerance="10"
     gridtolerance="10"
     guidetolerance="10"
     inkscape:pageopacity="0"
     inkscape:pageshadow="2"
     inkscape:window-width="1366"
     inkscape:window-height="715"
     id="namedview53"
     showgrid="false"
     inkscape:zoom="0.7433037"
     inkscape:cx="443.36256"
     inkscape:cy="245.97167"
     inkscape:window-x="0"
     inkscape:window-y="24"
     inkscape:window-maximized="1"
     inkscape:current-layer="Layer_1" /><g
     id="g23"
     transform="translate(0,39.767)" /><g
     id="g25"
     transform="translate(0,39.767)" /><g
     id="g27"
     transform="translate(0,39.767)" /><g
     id="g29"
     transform="translate(0,39.767)" /><g
     id="g31"
     transform="translate(0,39.767)" /><g
     id="g33"
     transform="translate(0,39.767)" /><g
     id="g35"
     transform="translate(0,39.767)" /><g
     id="g37"
     transform="translate(0,39.767)" /><g
     id="g39"
     transform="translate(0,39.767)" /><g
     id="g41"
     transform="translate(0,39.767)" /><g
     id="g43"
     transform="translate(0,39.767)" /><g
     id="g45"
     transform="translate(0,39.767)" /><g
     id="g47"
     transform="translate(0,39.767)" /><g
     id="g49"
     transform="translate(0,39.767)" /><g
     id="g51"
     transform="translate(0,39.767)" /><g
     id="g4192"><path
       sodipodi:nodetypes="czcccc"
       inkscape:connector-curvature="0"
       id="path3802"
       d="m 73.663335,98.542421 c 0,0 5.995789,-29.608421 172.215755,-29.84823 166.21997,-0.23981 172.84349,32.472309 172.84349,32.472309 l -14.79823,49.59406 -311.355078,1.18081 z"
       style="fill:#ebebeb;stroke:none" /><path
       sodipodi:open="true"
       sodipodi:end="6.2301717"
       sodipodi:start="6.2321105"
       d="M 472.24476,323.79429 A 224.99466,81.365005 0 0 1 259.13898,409.20506 224.99466,81.365005 0 0 1 22.853485,332.18085 224.99466,81.365005 0 0 1 235.73021,246.6954 224.99466,81.365005 0 0 1 472.22207,323.63675"
       sodipodi:ry="81.365005"
       sodipodi:rx="224.99466"
       sodipodi:cy="327.94818"
       sodipodi:cx="247.5435"
       id="path3012"
       style="fill:#b3b3b3;fill-opacity:1;stroke:none"
       sodipodi:type="arc" /><path
       sodipodi:open="true"
       sodipodi:end="6.2301717"
       sodipodi:start="6.2321105"
       d="m 375.1543,322.58474 a 127.03983,45.941517 0 0 1 -120.32695,48.2259 127.03983,45.941517 0 0 1 -133.41504,-43.49055 127.03983,45.941517 0 0 1 120.19763,-48.26806 127.03983,45.941517 0 0 1 133.53155,43.44376"
       sodipodi:ry="45.941517"
       sodipodi:rx="127.03983"
       sodipodi:cy="324.93018"
       sodipodi:cx="248.28014"
       id="path3012-3"
       style="fill:#9e9e9e;fill-opacity:1;stroke:none"
       sodipodi:type="arc" /><path
       sodipodi:open="true"
       sodipodi:end="6.2301717"
       sodipodi:start="6.2321105"
       d="M 406.83947,123.7267 A 157.14978,35.609665 0 0 1 257.9936,161.10701 157.14978,35.609665 0 0 1 92.957622,127.3971 157.14978,35.609665 0 0 1 241.64351,89.984115 157.14978,35.609665 0 0 1 406.82362,123.65775"
       sodipodi:ry="35.609665"
       sodipodi:rx="157.14978"
       sodipodi:cy="125.54466"
       sodipodi:cx="249.89462"
       id="path3012-3-6"
       style="fill:#c87137;fill-opacity:1;stroke:none"
       sodipodi:type="arc" /><path
       inkscape:connector-curvature="0"
       id="path3822"
       d="m 419.02539,144.09375 c -2.17463,0.0659 -4.27994,0.21686 -6.29297,0.35742 -8.0521,0.56226 -14.62695,1.92383 -14.62695,1.92383 l 4.38086,21.32422 c 0,0 5.31194,-1.08088 11.76172,-1.53125 6.44977,-0.45037 14.02003,0.68589 15.05859,1.25391 7.01279,3.83551 12.02205,11.19493 12.26172,21.88281 0.21046,9.38612 -7.80521,25.55148 -16.87695,31.07617 -2.53147,1.54166 -13.08207,3.30988 -22.11329,3.14062 -9.03121,-0.16925 -16.55468,-1.27148 -16.55468,-1.27148 l -3.1836,21.53711 c 0,0 8.74565,1.30359 19.33008,1.50195 10.58443,0.19837 22.99424,0.29605 33.8457,-6.3125 17.69412,-10.77571 27.74496,-31.13456 27.31836,-50.16015 -0.39744,-17.7238 -9.67644,-32.88875 -23.58203,-40.49414 -7.06547,-3.86433 -14.20265,-4.42638 -20.72656,-4.22852 z"
       style="color:#000000;font-style:normal;font-variant:normal;font-weight:normal;font-stretch:normal;font-size:medium;line-height:normal;font-family:sans-serif;text-indent:0;text-align:start;text-decoration:none;text-decoration-line:none;text-decoration-style:solid;text-decoration-color:#000000;letter-spacing:normal;word-spacing:normal;text-transform:none;direction:ltr;block-progression:tb;writing-mode:lr-tb;baseline-shift:baseline;text-anchor:start;white-space:normal;clip-rule:nonzero;display:inline;overflow:visible;visibility:visible;opacity:1;isolation:auto;mix-blend-mode:normal;color-interpolation:sRGB;color-interpolation-filters:linearRGB;solid-color:#000000;solid-opacity:1;fill:#b3b3b3;fill-opacity:1;fill-rule:nonzero;stroke:none;stroke-width:21.77120209;stroke-linecap:butt;stroke-linejoin:miter;stroke-miterlimit:4;stroke-dasharray:none;stroke-dashoffset:0;stroke-opacity:1;color-rendering:auto;image-rendering:auto;shape-rendering:auto;text-rendering:auto;enable-background:accumulate" /><path
       sodipodi:nodetypes="czczc"
       inkscape:connector-curvature="0"
       id="path3800"
       d="M 73.456966,97.873871 C 85.528161,236.03054 117.61406,341.06371 242.95374,346.69178 368.2934,352.31985 407.85338,217.74069 419.13018,101.2137 c 0,0 -28.40589,29.49759 -182.85613,27.55366 C 81.823813,126.82343 73.456966,97.873871 73.456966,97.873871 Z"
       style="fill:#b3b3b3;fill-opacity:1;stroke:none" /></g></svg>