<?xml version="1.0" encoding="UTF-8" standalone="no"?>
<!-- Generator: flash2svg, http://dissentgraphics.com/tools/flash2svg -->

<svg
   xmlns:dc="http://purl.org/dc/elements/1.1/"
   xmlns:cc="http://creativecommons.org/ns#"
   xmlns:rdf="http://www.w3.org/1999/02/22-rdf-syntax-ns#"
   xmlns:svg="http://www.w3.org/2000/svg"
   xmlns="http://www.w3.org/2000/svg"
   xmlns:xlink="http://www.w3.org/1999/xlink"
   xmlns:sodipodi="http://sodipodi.sourceforge.net/DTD/sodipodi-0.dtd"
   xmlns:inkscape="http://www.inkscape.org/namespaces/inkscape"
   id="Calibre"
   image-rendering="optimizeSpeed"
   version="1.1"
   x="0px"
   y="0px"
   width="500"
   height="500"
   viewBox="0 0 500 500"
   enable-background="new 0 0 1024 1024"
   inkscape:version="0.91 r13725"
   sodipodi:docname="calligraauthor.svg">
  <metadata
     id="metadata53">
    <rdf:RDF>
      <cc:Work
         rdf:about="">
        <dc:format>image/svg+xml</dc:format>
        <dc:type
           rdf:resource="http://purl.org/dc/dcmitype/StillImage" />
      </cc:Work>
    </rdf:RDF>
  </metadata>
  <sodipodi:namedview
     pagecolor="#ffffff"
     bordercolor="#666666"
     borderopacity="1"
     objecttolerance="10"
     gridtolerance="10"
     guidetolerance="10"
     inkscape:pageopacity="0"
     inkscape:pageshadow="2"
     inkscape:window-width="1366"
     inkscape:window-height="715"
     id="namedview51"
     showgrid="false"
     inkscape:zoom="0.65186406"
     inkscape:cx="294.88237"
     inkscape:cy="161.71682"
     inkscape:window-x="0"
     inkscape:window-y="24"
     inkscape:window-maximized="1"
     inkscape:current-layer="Calibre" />
  <defs
     transform="matrix(1 0 0 1 0 0) "
     id="defs3">
    <linearGradient
       id="linearGradient4372-3">
      <stop
         id="stop4374-1"
         offset="0"
         style="stop-color:#ffffff;stop-opacity:0" />
      <stop
         id="stop4376-5"
         offset="1"
         style="stop-color:#ffffff;stop-opacity:0.56640625" />
    </linearGradient>
    <linearGradient
       id="linearGradient4255-0">
      <stop
         style="stop-color:#4587cf;stop-opacity:1;"
         offset="0"
         id="stop4257-7" />
      <stop
         id="stop4277-8"
         offset="0.5"
         style="stop-color:#4ad9ed;stop-opacity:1;" />
      <stop
         style="stop-color:#e7edec;stop-opacity:1;"
         offset="1"
         id="stop4259-9" />
    </linearGradient>
    <linearGradient
       id="linearGradient4330-9">
      <stop
         style="stop-color:#000000;stop-opacity:0.56390977;"
         offset="0"
         id="stop4332-2" />
      <stop
         style="stop-color:#000000;stop-opacity:0;"
         offset="1"
         id="stop4334-6" />
    </linearGradient>
    <linearGradient
       inkscape:collect="always"
       xlink:href="#linearGradient4302-2"
       id="linearGradient4308-8"
       x1="104"
       y1="108"
       x2="110"
       y2="118"
       gradientUnits="userSpaceOnUse"
       gradientTransform="matrix(3.7863226,2.1860344,-2.1860344,3.7863226,394.09069,-201.69839)" />
    <linearGradient
       id="linearGradient4302-2">
      <stop
         style="stop-color:#f28f32;stop-opacity:0.04511278;"
         offset="0"
         id="stop4304-0" />
      <stop
         id="stop4310-0"
         offset="0.5"
         style="stop-color:#df720b;stop-opacity:1;" />
      <stop
         style="stop-color:#473d34;stop-opacity:1;"
         offset="1"
         id="stop4306-3" />
    </linearGradient>
    <linearGradient
       inkscape:collect="always"
       xlink:href="#linearGradient4255-0"
       id="linearGradient3533"
       gradientUnits="userSpaceOnUse"
       gradientTransform="matrix(0.8660254,0.5,-0.5,0.8660254,105.0669,-65.106924)"
       x1="103.69576"
       y1="90.268303"
       x2="60.680538"
       y2="47.283405" />
    <linearGradient
       id="linearGradient4326">
      <stop
         style="stop-color:#4587cf;stop-opacity:1;"
         offset="0"
         id="stop4328" />
      <stop
         id="stop4330"
         offset="0.5"
         style="stop-color:#4ad9ed;stop-opacity:1;" />
      <stop
         style="stop-color:#e7edec;stop-opacity:1;"
         offset="1"
         id="stop4332" />
    </linearGradient>
  </defs>
  <g
     id="g4173">
    <rect
       ry="30.52619"
       y="25"
       x="70"
       height="450"
       width="367.68292"
       id="rect3460"
       style="fill:#394050;fill-opacity:1;stroke:none" />
    <rect
       ry="0"
       y="66.49778"
       x="113.81381"
       height="328.92953"
       width="276.10397"
       id="rect3460-3"
       style="display:inline;fill:#ffffff;fill-opacity:1;stroke:none" />
    <path
       id="path3480"
       d="M 350.00586 411.9707 A 26.340839 26.340841 0 0 0 347.37305 411.97461 A 26.340839 26.340841 0 0 0 322.43164 439.63867 A 26.340839 26.340841 0 0 0 350.08789 464.58594 A 26.340839 26.340841 0 0 0 375.04297 436.93555 L 366.43945 437.375 A 17.560558 17.560558 0 0 1 349.80273 455.80859 A 17.560558 17.560558 0 0 1 331.36523 439.17578 A 17.560558 17.560558 0 0 1 347.99414 420.73438 A 17.560558 17.560558 0 0 1 366.43945 437.35742 L 348.90234 438.27148 L 350.01562 438.21484 L 375.04297 436.91016 A 26.340839 26.340841 0 0 0 350.00586 411.9707 z "
       style="fill:#b3b3b3;fill-opacity:1;stroke:none" />
    <rect
       y="151.21953"
       x="411.34146"
       height="90"
       width="26.341463"
       id="rect3500"
       style="fill:#b3b3b3;fill-opacity:1;stroke:none" />
    <path
       sodipodi:nodetypes="cczzczcczczzccczccccczzc"
       inkscape:connector-curvature="0"
       id="path3502"
       d="m 336.64457,354.34814 -1.59643,-34.08425 c 0,0 -5.29901,10.84632 -11.00145,9.97837 -5.70244,-0.86794 -5.52913,-6.4883 -10.02195,-17.02538 -4.49283,-10.53709 -23.88041,-205.00195 -23.88041,-205.00195 0,0 -38.24834,-7.54984 -51.00226,-1.18081 -12.75392,6.36903 -20.09444,28.06694 -20.09444,28.06694 l 9.79394,-0.67078 c 0,0 9.4437,-13.19177 15.84141,-14.73782 6.39772,-1.54604 17.18298,4.85008 17.18298,4.85008 0,0 -49.7634,136.3451 -66.75365,171.11194 -16.99024,34.76683 -16.21662,36.64164 -24.82039,41.67445 -8.60377,5.03281 -11.29657,0.28172 -11.29657,0.28172 l -7.86875,18.00471 20.99323,-0.57681 c 0,0 14.035,-15.95643 24.28036,-33.39658 10.24536,-17.44015 33.6451,-72.6595 33.6451,-72.6595 l 52.14266,-0.12727 -0.96591,-19.49061 -45.10243,2.35106 30.12334,-79.18321 c 0,0 15.92827,164.2164 20.82492,176.55256 4.89665,12.33616 5.86849,23.75889 15.75741,28.93242 9.88892,5.17353 33.81929,-3.66926 33.81929,-3.66926 z"
       style="fill:#ff6600;stroke:none" />
    <path
       sodipodi:nodetypes="sccccccccccscscccccccsccccss"
       inkscape:connector-curvature="0"
       id="path4101-3-22"
       d="m 429.63797,59.922437 c -0.74965,0.108497 -20.87866,8.904304 -31.87794,12.165433 -7.0677,7.432052 -14.56103,14.727418 -21.40215,21.514792 1.56388,7.078188 1.96399,18.915498 0.45057,28.048088 -3.02373,-4.26295 -7.71025,-7.93399 -9.23672,-14.53094 -5.19923,5.09521 -10.55462,12.40286 -11.8275,15.20679 1.88454,4.96537 6.64593,17.91023 6.64593,17.91023 -0.36778,1.80801 -7.43194,-8.69268 -10.92636,-12.50337 -24.09206,30.46823 -57.91391,85.21292 -75.66495,118.23619 -0.71677,11.81621 -3.95639,11.5174 0.0613,27.87469 -2.61458,-3.09683 -5.29804,-8.71117 -4.56054,-21.67267 -7.19582,14.02009 -2.32777,35.9462 -2.60918,33.33614 -0.32837,-3.04684 -3.12091,-13.35614 -1.79125,-25.01971 -1.04194,2.31436 -5.45232,10.19785 -5.50862,11.84038 -0.26385,7.69147 -0.1157,10.87023 2.21187,20.08889 -2.76838,-3.40145 -5.51946,-8.0299 -4.16778,-14.75621 -1.8618,4.67959 -1.92359,12.97671 -0.90115,18.02286 -0.86642,-3.10567 -2.78439,-8.95452 -2.3655,-11.03901 -4.38849,11.0305 -2.10344,14.86461 0,18.69873 -1.55984,-1.46328 -4.71603,-5.75806 -9.91257,-5.29422 5.50991,1.82737 9.10533,5.78318 8.78615,9.12407 -2.94231,-0.97659 -5.5576,-5.15904 -7.43443,-3.82985 -1.48923,1.05469 -0.036,1.45967 0.56321,2.92871 -1.66438,-6.40201 5.36451,2.66958 6.42064,3.82986 11.49376,-8.73539 16.43008,-7.61004 10.13786,-16.33322 l 47.7606,-74.11902 c 7.80865,-12.12071 105.61192,-153.934797 116.24746,-159.277062 0.76713,-0.385329 1.00823,-0.466035 0.90114,-0.450571 z"
       style="display:inline;fill:#00bbf2;fill-opacity:1;stroke:none" />
    <path
       sodipodi:nodetypes="csczc"
       inkscape:connector-curvature="0"
       id="path3311"
       d="m 228.58442,379.35956 c 0.96585,-16.09117 5.53626,-38.42565 12.74541,-50.91225 C 279.17784,262.89264 421.33339,42.035393 433.51894,59.976685 394.22643,94.618215 363.94781,147.03397 331.83993,195.15159 299.73202,243.26917 236.75941,350.78178 228.58442,379.35956 Z"
       style="display:inline;fill:#b3b3b3;fill-opacity:1;stroke:none" />
    <path
       inkscape:connector-curvature="0"
       id="path4081"
       d="m 434.93219,55.979935 c -1.74007,0.383239 -5.02276,3.162977 -11.15165,9.799932 -48.543,52.566923 -154.06791,227.053943 -155.10927,228.777723 -4.29834,6.84015 -8.78824,12.64387 -10.47579,18.92401 10.61215,-0.97713 18.11139,5.93006 7.20915,6.75857 0,0 7.10706,1.75341 6.53328,-2.25286 -0.9351,-6.52917 -7.00253,-4.5649 -10.47578,-7.32179 9.87332,0.92068 12.26762,0.90966 18.36079,5.74479 -0.15644,-3.88868 -11.1926,-7.15691 -16.44587,-9.57464 5.38145,0.571 18.62404,6.44068 29.17451,1.23907 -5.33501,1.29141 -13.39005,1.72522 -27.14693,-4.39307 8.75972,1.72442 16.67749,3.34702 30.9768,0.22528 4.16965,-4.24096 18.02286,-18.81136 18.02286,-18.81136 -16.48656,13.07893 -37.38144,13.05907 -44.71923,9.91257 28.54925,-3.00369 34.61146,-7.26592 52.15366,-20.95158 16.26923,-12.69253 33.87508,-31.19574 47.31001,-50.12608 -15.5733,-2.07008 -53.78552,-1.12366 -55.64559,-0.7885 8.66373,-1.26445 44.29865,-13.30449 67.36046,-17.68495 0.9095,-1.67248 1.67014,-3.31068 2.47813,-4.95628 7.35506,-14.97913 24.24833,-49.62906 30.1883,-62.17888 -20.54138,-5.21372 -31.60532,-4.38547 -41.2273,-4.05514 13.86474,-7.20699 32.3926,-15.22168 52.94216,-19.26194 2.12325,-6.99683 6.95416,-25.060645 9.23672,-32.328508 -16.16243,10.816061 -33.79614,17.248096 -39.19973,19.487218 8.41931,-7.804185 38.8078,-19.134691 42.24109,-30.188293 -4.21284,-1.362097 1.40059,-15.331365 -1.91493,-15.995292 -0.18852,-0.03785 -0.42728,-0.05478 -0.67585,0 z"
       style="display:inline;fill:#00bbf2;fill-opacity:1;stroke:none" />
  </g>
</svg>
