<?xml version="1.0" encoding="UTF-8" standalone="no"?>
<svg
   xmlns:dc="http://purl.org/dc/elements/1.1/"
   xmlns:cc="http://creativecommons.org/ns#"
   xmlns:rdf="http://www.w3.org/1999/02/22-rdf-syntax-ns#"
   xmlns:svg="http://www.w3.org/2000/svg"
   xmlns="http://www.w3.org/2000/svg"
   xmlns:sodipodi="http://sodipodi.sourceforge.net/DTD/sodipodi-0.dtd"
   xmlns:inkscape="http://www.inkscape.org/namespaces/inkscape"
   viewBox="0 0 500 500"
   id="svg2"
   version="1.1"
   inkscape:version="0.91 r13725"
   width="100%"
   height="100%"
   sodipodi:docname="cs-user-accounts.svg">
  <metadata
     id="metadata76">
    <rdf:RDF>
      <cc:Work
         rdf:about="">
        <dc:format>image/svg+xml</dc:format>
        <dc:type
           rdf:resource="http://purl.org/dc/dcmitype/StillImage" />
        <dc:title />
      </cc:Work>
    </rdf:RDF>
  </metadata>
  <sodipodi:namedview
     pagecolor="#ffffff"
     bordercolor="#666666"
     borderopacity="1"
     objecttolerance="10"
     gridtolerance="10"
     guidetolerance="10"
     inkscape:pageopacity="0"
     inkscape:pageshadow="2"
     inkscape:window-width="1366"
     inkscape:window-height="715"
     id="namedview74"
     showgrid="false"
     inkscape:zoom="0.43457605"
     inkscape:cx="-20.93996"
     inkscape:cy="458.69138"
     inkscape:window-x="0"
     inkscape:window-y="24"
     inkscape:window-maximized="1"
     inkscape:current-layer="svg2" />
  <defs
     id="defs4">
    <linearGradient
       id="linearGradient3764"
       x1="1"
       x2="47"
       gradientUnits="userSpaceOnUse"
       gradientTransform="matrix(0,-1,1,0,-1.5e-6,47.999998)">
      <stop
         stop-color="#8358b4"
         stop-opacity="1"
         id="stop7" />
      <stop
         offset="1"
         stop-color="#8d65ba"
         stop-opacity="1"
         id="stop9" />
    </linearGradient>
    <clipPath
       id="clipPath-057129763">
      <g
         transform="translate(0,-1004.3622)"
         id="g12">
        <path
           d="m -24,13 c 0,1.105 -0.672,2 -1.5,2 -0.828,0 -1.5,-0.895 -1.5,-2 0,-1.105 0.672,-2 1.5,-2 0.828,0 1.5,0.895 1.5,2 z"
           transform="matrix(15.333333,0,0,11.5,414.99999,878.8622)"
           id="path14"
           inkscape:connector-curvature="0"
           style="fill:#1890d0" />
      </g>
    </clipPath>
    <clipPath
       id="clipPath-064426159">
      <g
         transform="translate(0,-1004.3622)"
         id="g17">
        <path
           d="m -24,13 c 0,1.105 -0.672,2 -1.5,2 -0.828,0 -1.5,-0.895 -1.5,-2 0,-1.105 0.672,-2 1.5,-2 0.828,0 1.5,0.895 1.5,2 z"
           transform="matrix(15.333333,0,0,11.5,414.99999,878.8622)"
           id="path19"
           inkscape:connector-curvature="0"
           style="fill:#1890d0" />
      </g>
    </clipPath>
  </defs>
  <g
     id="g33"
     transform="translate(0,452)" />
  <g
     id="g4145">
    <rect
       transform="matrix(0.68145507,0.73185996,-0.73185996,0.68145507,0,0)"
       ry="19.279545"
       rx="21.380377"
       y="-168.0723"
       x="197.85548"
       height="310.8826"
       width="310.8826"
       id="rect2988"
       style="fill:#ffcc00;fill-opacity:1;stroke:#394050;stroke-width:27.38301277;stroke-miterlimit:4;stroke-opacity:1;stroke-dasharray:none" />
    <path
       sodipodi:nodetypes="zccczcccccczcccccczcccccczcccz"
       inkscape:connector-curvature="0"
       id="path3758"
       d="m 244.34825,176.20747 c -14.99833,2.09585 -23.37848,18.3399 -23.37848,18.3399 l -17.19393,23.98887 -26.33813,14.30325 c 0,0 -6.56262,2.92436 -4.43385,8.86762 2.12877,5.94326 7.25537,4.43385 7.25537,4.43385 l 30.63363,-12.49533 16.1231,-15.71992 14.51075,45.95054 -28.21524,32.64907 0,67.31352 c 0,0 1.24938,7.72557 8.46458,7.6584 7.21496,-0.0672 9.67377,-6.04612 9.67377,-6.04612 l 3.22465,-58.84894 21.93791,-17.87434 6.27034,0 7.83797,23.79891 27.23651,51.71515 c 0,0 5.72363,6.24756 12.49529,2.41846 6.77166,-3.82911 5.64306,-10.88304 5.64306,-10.88304 l -25.79687,-49.17514 -2.01524,-50.78743 -10.48004,-48.36898 13.30156,4.03076 9.27062,29.82752 c 0,0 2.96441,7.80562 9.22594,5.87495 6.26175,-1.93065 4.8817,-9.50261 4.8817,-9.50261 l -9.67379,-37.48596 -35.06746,-20.15378 c 0,0 -10.39541,-5.92503 -25.39372,-3.82918 z"
       style="fill:#394050;stroke:none" />
    <path
       sodipodi:open="true"
       sodipodi:end="6.2784904"
       sodipodi:start="0"
       transform="matrix(2.2572194,0,0,2.1536772,-1675.7742,-356.34954)"
       d="m 860.17858,234.76785 a 9.4642859,9.7321424 0 1 1 -10e-5,-0.0457"
       sodipodi:ry="9.7321424"
       sodipodi:rx="9.4642859"
       sodipodi:cy="234.76785"
       sodipodi:cx="850.71429"
       id="path3760"
       style="fill:#394050;fill-opacity:1;stroke:none"
       sodipodi:type="arc" />
  </g>
</svg>
