<?xml version="1.0" encoding="UTF-8" standalone="no"?>
<svg
   xmlns:dc="http://purl.org/dc/elements/1.1/"
   xmlns:cc="http://creativecommons.org/ns#"
   xmlns:rdf="http://www.w3.org/1999/02/22-rdf-syntax-ns#"
   xmlns:svg="http://www.w3.org/2000/svg"
   xmlns="http://www.w3.org/2000/svg"
   xmlns:sodipodi="http://sodipodi.sourceforge.net/DTD/sodipodi-0.dtd"
   xmlns:inkscape="http://www.inkscape.org/namespaces/inkscape"
   viewBox="0 0 500 500"
   id="svg2"
   version="1.1"
   inkscape:version="0.92.1 r15371"
   width="100%"
   height="100%"
   sodipodi:docname="d-feet-icon.svg">
  <metadata
     id="metadata73">
    <rdf:RDF>
      <cc:Work
         rdf:about="">
        <dc:format>image/svg+xml</dc:format>
        <dc:type
           rdf:resource="http://purl.org/dc/dcmitype/StillImage" />
      </cc:Work>
    </rdf:RDF>
  </metadata>
  <sodipodi:namedview
     pagecolor="#ffffff"
     bordercolor="#666666"
     borderopacity="1"
     objecttolerance="10"
     gridtolerance="10"
     guidetolerance="10"
     inkscape:pageopacity="0"
     inkscape:pageshadow="2"
     inkscape:window-width="1366"
     inkscape:window-height="709"
     id="namedview71"
     showgrid="false"
     inkscape:zoom="0.25"
     inkscape:cx="-280.61573"
     inkscape:cy="394.63762"
     inkscape:window-x="0"
     inkscape:window-y="0"
     inkscape:window-maximized="1"
     inkscape:current-layer="svg2" />
  <defs
     id="defs4">
    <linearGradient
       id="linearGradient3764"
       x1="1"
       x2="47"
       gradientUnits="userSpaceOnUse"
       gradientTransform="matrix(0,-1,1,0,-1.5e-6,47.999998)">
      <stop
         stop-color="#ed6d17"
         stop-opacity="1"
         id="stop7" />
      <stop
         offset="1"
         stop-color="#ef772a"
         stop-opacity="1"
         id="stop9" />
    </linearGradient>
    <clipPath
       id="clipPath-290788785">
      <g
         transform="translate(0,-1004.3622)"
         id="g12">
        <path
           d="m -24,13 c 0,1.105 -0.672,2 -1.5,2 -0.828,0 -1.5,-0.895 -1.5,-2 0,-1.105 0.672,-2 1.5,-2 0.828,0 1.5,0.895 1.5,2 z"
           transform="matrix(15.333333,0,0,11.5,414.99999,878.8622)"
           id="path14"
           inkscape:connector-curvature="0"
           style="fill:#1890d0" />
      </g>
    </clipPath>
    <clipPath
       id="clipPath-297324635">
      <g
         transform="translate(0,-1004.3622)"
         id="g17">
        <path
           d="m -24,13 c 0,1.105 -0.672,2 -1.5,2 -0.828,0 -1.5,-0.895 -1.5,-2 0,-1.105 0.672,-2 1.5,-2 0.828,0 1.5,0.895 1.5,2 z"
           transform="matrix(15.333333,0,0,11.5,414.99999,878.8622)"
           id="path19"
           inkscape:connector-curvature="0"
           style="fill:#1890d0" />
      </g>
    </clipPath>
  </defs>
  <g
     id="g33"
     transform="translate(0,452)" />
  <g
     id="g4521">
    <path
       sodipodi:open="true"
       transform="matrix(-0.7159585,0.71893767,0.70734187,0.70441075,349.05129,-103.17426)"
       sodipodi:end="12.561942"
       sodipodi:start="6.2787571"
       d="m 352.06588,184.11847 a 140.36668,142.66779 0 1 1 0,-6e-5"
       sodipodi:ry="142.66779"
       sodipodi:rx="140.36668"
       sodipodi:cy="184.75023"
       sodipodi:cx="211.70058"
       id="path2996"
       style="fill:#ececec;stroke:#4b4b4b;stroke-width:25.83436966000000012;stroke-miterlimit:4;stroke-opacity:1;stroke-dasharray:none"
       sodipodi:type="arc" />
    <path
       inkscape:connector-curvature="0"
       id="path3766"
       d="m 226.49644,282.21111 -93.3381,92.63099"
       style="fill:none;stroke:#4b4b4b;stroke-width:38;stroke-linecap:butt;stroke-linejoin:miter;stroke-miterlimit:4;stroke-opacity:1;stroke-dasharray:none" />
    <path
       sodipodi:nodetypes="cc"
       inkscape:connector-curvature="0"
       id="path3766-3"
       d="M 136.69388,371.66012 52.548174,457.22004"
       style="fill:none;stroke:#323232;stroke-width:55;stroke-linecap:butt;stroke-linejoin:miter;stroke-miterlimit:4;stroke-opacity:1;stroke-dasharray:none" />
    <path
       style="fill:#4b4b4b;fill-opacity:1;stroke:none;stroke-width:3.1765883"
       d="m 390.14242,115.42181 c -3.33243,-3.60079 -8.69788,-6.41687 -14.45585,-7.4796 -7.06417,-1.29449 -18.79496,2.72351 -22.94523,7.81714 -2.132,2.62034 -3.60495,7.15053 -3.02005,9.80082 1.10209,4.92473 9.35137,8.62107 20.27575,9.22294 11.82117,0.63303 21.46132,-2.63904 23.76476,-8.22095 1.42069,-3.4349 -0.21601,-7.59941 -3.61938,-11.14035 z M 360.38948,88.131098 c -4.40405,-5.20592 -10.40793,-4.852334 -17.37292,1.074227 -4.76914,4.047005 -7.64023,9.368489 -6.84377,12.455915 0.58999,2.29762 0.70594,2.26951 3.14425,3.71673 4.06375,2.37641 14.64693,-1.11438 19.36912,-6.241423 3.85861,-4.190015 4.39145,-7.831052 1.70332,-11.005449 z M 335.85707,73.523874 c -0.91743,-0.895099 -2.42161,-1.298525 -4.11346,-1.447031 -3.44517,-0.270328 -4.47092,0.555109 -7.9901,3.571089 -4.17045,3.557207 -5.59366,6.530112 -6.18828,11.901469 -0.42528,4.001072 0.72505,5.653724 4.49357,5.763221 3.96222,0.220137 7.97025,-2.061606 11.17228,-5.973574 4.88293,-5.965792 5.62215,-11.335878 2.72739,-13.900973 z m -24.95528,-3.814606 c -0.96409,-0.918288 -2.37481,-1.287598 -4.13299,-1.430703 -4.59058,-0.395454 -9.9911,7.165938 -10.1026,14.053004 -0.16105,8.244581 6.99246,8.740192 12.78173,1.070923 4.20126,-5.526438 4.51066,-11.077271 1.45386,-13.693224 z m 27.60078,51.139702 c -2.78946,-3.38195 -6.14972,-6.97378 -10.29329,-10.13201 -10.50444,-8.27905 -21.05561,-13.088212 -30.56244,-13.853167 -5.48908,-0.428871 -9.66613,0.202984 -15.10166,2.341241 -13.20768,5.219736 -22.33688,23.968986 -21.94908,44.653936 0.15502,7.69796 0.85142,11.88591 3.22595,17.84976 1.24081,3.08434 2.66754,5.15564 6.5858,9.50035 4.44278,5.02203 5.47816,5.9319 10.02763,7.74783 6.49282,2.80886 16.62941,3.643 23.38459,1.95547 4.12299,-1.03121 5.5684,-1.86024 7.88245,-4.05987 3.95996,-3.76444 3.70841,-6.31528 -0.75924,-11.53076 -6.37614,-7.44754 -10.81009,-9.0872 -17.38849,-6.15845 -4.9758,2.21815 -7.48089,2.13597 -9.70098,-0.48831 -3.51874,-4.15942 -3.84291,-11.24147 -0.37747,-14.17314 2.38393,-2.01672 9.23555,-1.17848 23.92072,2.95127 20.70167,5.80497 30.23506,5.757 35.80301,-0.14485 5.77895,-6.12004 3.61757,-16.2687 -4.6975,-26.45926 z"
       id="path4909-2"
       inkscape:connector-curvature="0" />
    <path
       style="fill:#4b4b4b;fill-opacity:1;stroke:none;stroke-width:2.48142576"
       d="m 330.41743,187.00013 c 3.12649,2.21661 5.85101,6.08739 7.25718,10.43974 1.71795,5.34063 -0.20649,14.83379 -3.73164,18.56422 -1.81377,1.9167 -5.17358,3.5163 -7.28564,3.3316 -3.92614,-0.355 -7.62449,-6.37038 -9.19681,-14.77115 -1.68726,-9.09223 -0.1289,-16.89052 3.96145,-19.23988 2.51672,-1.44822 5.90815,-0.60215 8.99546,1.67547 z m 24.15117,20.28248 c 4.47828,2.88413 4.81232,7.57036 0.927,13.56532 -2.6518,4.10381 -6.48295,6.86649 -8.95503,6.56219 -1.8394,-0.22435 -1.82937,-0.31701 -3.19723,-2.05912 -2.25217,-2.90703 -0.61989,-11.45791 2.87323,-15.63471 2.85477,-3.41302 5.62106,-4.19441 8.35203,-2.43368 z m 13.79832,17.52305 c 0.78621,0.61999 1.25099,1.74423 1.53733,3.03965 0.55823,2.64116 0.0227,3.51925 -1.95704,6.55048 -2.33304,3.59049 -4.49165,4.99389 -8.59195,5.99833 -3.05605,0.73453 -4.45261,0.0109 -4.91901,-2.89705 -0.5717,-3.04673 0.78985,-6.38226 3.49573,-9.25856 4.12652,-4.38623 8.21118,-5.50255 10.49113,-3.52008 z m 5.48148,18.94339 c 0.8089,0.65377 1.2378,1.70908 1.52667,3.05643 0.77111,3.51569 -4.53889,8.46439 -9.86213,9.24809 -6.3697,0.95953 -7.4779,-4.53118 -2.12369,-9.79192 3.85522,-3.81375 8.1234,-4.61544 10.45915,-2.5126 z m -42.40598,-16.20069 c 2.902,1.8182 6.02436,4.05728 8.89019,6.94698 7.47632,7.29815 12.26969,14.98383 13.8248,22.27009 0.88799,4.20825 0.8215,7.50766 -0.28436,11.93436 -2.70573,10.75879 -16.30399,19.72843 -32.36522,21.52248 -5.9783,0.65937 -9.29267,0.544 -14.15253,-0.69139 -2.51468,-0.64879 -4.26351,-1.54417 -8.02553,-4.13922 -4.33976,-2.93275 -5.14936,-3.6426 -7.01657,-6.98261 -2.83308,-4.74475 -4.50554,-12.51179 -3.88242,-17.91502 0.38128,-3.29796 0.87708,-4.50148 2.34654,-6.51659 2.51486,-3.44844 4.51614,-3.51188 9.00826,-0.57945 6.41425,4.18468 8.13324,7.45307 6.5308,12.84505 -1.2143,4.07871 -0.897,6.01076 1.36048,7.46465 3.57805,2.30437 9.09642,1.83837 11.01632,-1.14269 1.32072,-2.05073 -0.0223,-7.27291 -4.70802,-18.22946 -6.59247,-15.44714 -7.5206,-22.83628 -3.51298,-27.74663 4.15527,-5.09588 12.23497,-4.44933 20.97021,0.95946 z"
       id="path4909-2-3"
       inkscape:connector-curvature="0" />
  </g>
</svg>
