<?xml version="1.0" encoding="UTF-8" standalone="no"?>
<svg
   xmlns:dc="http://purl.org/dc/elements/1.1/"
   xmlns:cc="http://creativecommons.org/ns#"
   xmlns:rdf="http://www.w3.org/1999/02/22-rdf-syntax-ns#"
   xmlns:svg="http://www.w3.org/2000/svg"
   xmlns="http://www.w3.org/2000/svg"
   xmlns:xlink="http://www.w3.org/1999/xlink"
   xmlns:sodipodi="http://sodipodi.sourceforge.net/DTD/sodipodi-0.dtd"
   xmlns:inkscape="http://www.inkscape.org/namespaces/inkscape"
   viewBox="0 0 48 48"
   id="svg2"
   version="1.1"
   inkscape:version="0.48.5 r10040"
   width="100%"
   height="100%"
   sodipodi:docname="desktop-environment-kde.svg">
  <metadata
     id="metadata61">
    <rdf:RDF>
      <cc:Work
         rdf:about="">
        <dc:format>image/svg+xml</dc:format>
        <dc:type
           rdf:resource="http://purl.org/dc/dcmitype/StillImage" />
      </cc:Work>
    </rdf:RDF>
  </metadata>
  <sodipodi:namedview
     pagecolor="#ffffff"
     bordercolor="#666666"
     borderopacity="1"
     objecttolerance="10"
     gridtolerance="10"
     guidetolerance="10"
     inkscape:pageopacity="0"
     inkscape:pageshadow="2"
     inkscape:window-width="1366"
     inkscape:window-height="716"
     id="namedview59"
     showgrid="true"
     inkscape:zoom="9.8333333"
     inkscape:cx="36.288846"
     inkscape:cy="24.313926"
     inkscape:window-x="0"
     inkscape:window-y="0"
     inkscape:window-maximized="1"
     inkscape:current-layer="svg2">
    <inkscape:grid
       type="xygrid"
       id="grid3814" />
  </sodipodi:namedview>
  <defs
     id="defs4">
    <linearGradient
       id="linearGradient3764"
       x1="1"
       x2="47"
       gradientUnits="userSpaceOnUse"
       gradientTransform="matrix(0,-1,1,0,-1.5e-6,47.999998)">
      <stop
         stop-color="#32a2f8"
         stop-opacity="1"
         id="stop7" />
      <stop
         offset="1"
         stop-color="#45a9f9"
         stop-opacity="1"
         id="stop9" />
    </linearGradient>
    <clipPath
       id="clipPath-121880098">
      <g
         transform="translate(0,-1004.3622)"
         id="g17">
        <path
           d="m -24 13 c 0 1.105 -0.672 2 -1.5 2 -0.828 0 -1.5 -0.895 -1.5 -2 0 -1.105 0.672 -2 1.5 -2 0.828 0 1.5 0.895 1.5 2 z"
           transform="matrix(15.333333,0,0,11.5,414.99999,878.8622)"
           fill="#1890d0"
           id="path19" />
      </g>
    </clipPath>
    <linearGradient
       inkscape:collect="always"
       xlink:href="#linearGradient3764"
       id="linearGradient3812"
       x1="11.994687"
       y1="24.005501"
       x2="36"
       y2="24.005501"
       gradientUnits="userSpaceOnUse" />
    <linearGradient
       inkscape:collect="always"
       xlink:href="#linearGradient3764"
       id="linearGradient3816"
       gradientUnits="userSpaceOnUse"
       x1="11.994687"
       y1="24.005501"
       x2="36"
       y2="24.005501" />
    <linearGradient
       inkscape:collect="always"
       xlink:href="#linearGradient3764"
       id="linearGradient3818"
       gradientUnits="userSpaceOnUse"
       x1="11.994687"
       y1="24.005501"
       x2="36"
       y2="24.005501" />
    <linearGradient
       inkscape:collect="always"
       xlink:href="#linearGradient3764"
       id="linearGradient3820"
       gradientUnits="userSpaceOnUse"
       x1="11.994687"
       y1="24.005501"
       x2="36"
       y2="24.005501" />
    <linearGradient
       inkscape:collect="always"
       xlink:href="#linearGradient3764"
       id="linearGradient3000"
       gradientUnits="userSpaceOnUse"
       x1="11.994687"
       y1="24.005501"
       x2="36"
       y2="24.005501" />
    <linearGradient
       inkscape:collect="always"
       xlink:href="#linearGradient3764"
       id="linearGradient3002"
       gradientUnits="userSpaceOnUse"
       x1="11.994687"
       y1="24.005501"
       x2="36"
       y2="24.005501" />
    <linearGradient
       inkscape:collect="always"
       xlink:href="#linearGradient3764"
       id="linearGradient3004"
       gradientUnits="userSpaceOnUse"
       x1="11.994687"
       y1="24.005501"
       x2="36"
       y2="24.005501" />
    <linearGradient
       inkscape:collect="always"
       xlink:href="#linearGradient3764"
       id="linearGradient3008"
       gradientUnits="userSpaceOnUse"
       x1="11.994687"
       y1="24.005501"
       x2="36"
       y2="24.005501" />
    <linearGradient
       inkscape:collect="always"
       xlink:href="#linearGradient3764"
       id="linearGradient3010"
       gradientUnits="userSpaceOnUse"
       x1="11.994687"
       y1="24.005501"
       x2="36"
       y2="24.005501" />
  </defs>
  <g
     id="g33" />
  <path
     inkscape:connector-curvature="0"
     style="fill:#00bbf2;fill-opacity:1;fill-rule:evenodd;stroke:none"
     id="path53"
     d="m 27.2044,3.8752224 -6.99542,0.4979961 0,27.8626325 6.99542,-0.851791 0,-12.163179 c 3.03325,4.577541 5.469574,8.836498 9.530674,13.26313 l 7.24358,-2.082529 C 40.100321,25.907779 37.204565,21.950638 34.560323,17.636348 37.311878,13.581955 40.755932,9.5074414 44.122855,5.8655302 L 36.616024,4.0244536 C 33.111607,7.9732109 29.99452,12.054432 27.2044,16.154097 M 11.268524,9.5912792 c -0.09893,0.013414 -0.216302,0.0721 -0.308523,0.1643219 -0.824964,0.7796909 -1.6046545,1.5593819 -2.4229108,2.3390729 -0.3605023,0.347088 0.00671,0.75957 0.164322,1.047972 l 1.6633408,2.29883 1.244152,1.676755 c 0.176059,0.243129 0.229715,0.268281 0.137494,0.43931 -0.110666,0.176059 -0.202888,0.32026 -0.308523,0.497996 -1.6180685,2.718019 -0.484582,2.927614 -3.9487575,3.811263 l -2.6526259,0.43931 c -0.3923606,0.130787 -0.9037708,0.117373 -0.9305989,0.662318 0,1.099951 -0.033535,2.194872 -0.033535,3.288116 -0.020121,0.504703 0.5432685,0.549976 0.8769427,0.63549 l 2.8236549,0.491289 2.1160645,0.385654 c 0.2884018,0.03857 0.3537953,-0.02683 0.4191883,0.189473 0.865206,3.648618 1.997015,2.810241 0.110666,5.999428 l -1.5191396,2.116065 c -0.2028873,0.367209 -0.5768036,0.727711 -0.1961803,1.099951 0.799812,0.793105 1.5660889,1.59124 2.3709309,2.384345 0.353795,0.347088 0.81155,-0.0067 1.099951,-0.164322 l 2.339073,-1.624775 1.748855,-1.178759 c 0.24313,-0.19618 0.274988,-0.243129 0.452724,-0.137494 3.504417,2.141216 3.628497,0.595248 4.649641,4.198594 l 0.504703,2.580526 c 0.130787,0.385653 0.144201,0.883649 0.680762,0.903771 l 3.405489,0 c 0.51141,0 0.556683,-0.583511 0.622076,-0.903771 l 0.477875,-2.744848 0.340382,-2.03055 c 0.02012,-0.19618 0.01341,-0.295108 0.05198,-0.360502 4.106372,-0.845084 3.085229,-2.037257 6.425324,-0.137494 l 2.168044,1.480575 c 0.399067,0.19618 0.779691,0.536561 1.158637,0.171029 0.804842,-0.75957 1.604654,-1.525847 2.411173,-2.27871 0.360503,-0.367209 0.0067,-0.786398 -0.164321,-1.068093 l -0.03354,0 -1.577826,-2.168044 -1.041264,0.353796 c -0.268281,0.176059 -0.622076,0.110665 -0.937306,-0.301816 l -2.27871,-2.934321 c -2.129478,2.868927 -5.573533,4.721741 -9.477017,4.721741 -6.425324,0 -11.67189,-5.102364 -11.67189,-11.363366 0,-4.446754 2.645919,-8.298259 6.48401,-10.161134 l 0,-2.61406 c -0.130786,0.06539 -0.281694,0.09893 -0.39236,0.137493 -1.500696,0.608662 -1.597947,0.88365 -4.054393,-0.491289 L 12.098517,9.9366906 C 11.796701,9.8059038 11.528421,9.5560673 11.253433,9.6214608 M 18.6999,15.463274 c -3.261287,1.794128 -5.47628,5.233152 -5.47628,9.143344 0,5.769712 4.834083,10.486423 10.781532,10.486423 3.67377,0 6.896492,-1.814248 8.841528,-4.57251 l -0.105636,-0.223008 c -2.278709,2.463153 -4.854205,4.0611 -8.769427,4.146614 -4.879356,0.08552 -9.817399,-4.146614 -9.844227,-9.720147 -0.03857,-3.596638 1.663341,-6.012842 4.565803,-7.734869 l 0,-1.512433 m 0.0067,0" />
</svg>
