<?xml version="1.0" encoding="UTF-8" standalone="no"?>
<!-- Created with Inkscape (http://www.inkscape.org/) -->

<svg
   xmlns:dc="http://purl.org/dc/elements/1.1/"
   xmlns:cc="http://creativecommons.org/ns#"
   xmlns:rdf="http://www.w3.org/1999/02/22-rdf-syntax-ns#"
   xmlns:svg="http://www.w3.org/2000/svg"
   xmlns="http://www.w3.org/2000/svg"
   xmlns:sodipodi="http://sodipodi.sourceforge.net/DTD/sodipodi-0.dtd"
   xmlns:inkscape="http://www.inkscape.org/namespaces/inkscape"
   width="500"
   height="500"
   id="svg2"
   version="1.1"
   inkscape:version="0.91 r13725"
   sodipodi:docname="Deviantart-deviantart.com.svg">
  <defs
     id="defs4" />
  <sodipodi:namedview
     id="base"
     pagecolor="#ffffff"
     bordercolor="#666666"
     borderopacity="1.0"
     inkscape:pageopacity="0.0"
     inkscape:pageshadow="2"
     inkscape:zoom="0.21448905"
     inkscape:cx="-207.79566"
     inkscape:cy="361.41394"
     inkscape:document-units="px"
     inkscape:current-layer="layer1"
     showgrid="false"
     inkscape:window-width="1366"
     inkscape:window-height="711"
     inkscape:window-x="0"
     inkscape:window-y="0"
     inkscape:window-maximized="1" />
  <metadata
     id="metadata7">
    <rdf:RDF>
      <cc:Work
         rdf:about="">
        <dc:format>image/svg+xml</dc:format>
        <dc:type
           rdf:resource="http://purl.org/dc/dcmitype/StillImage" />
        <dc:title />
      </cc:Work>
    </rdf:RDF>
  </metadata>
  <g
     inkscape:label="Layer 1"
     inkscape:groupmode="layer"
     id="layer1"
     transform="translate(0,-552.36218)">
    <path
       style="fill:#45d03f;fill-opacity:1"
       d="m 115.52472,980.87129 0,-44.26992 43.86242,-83.28111 c 24.12432,-45.80456 43.86241,-83.37179 43.86241,-83.48262 0,-0.1109 -19.73809,-0.2016 -43.86241,-0.2016 l -43.86242,0 0,-55.53603 0,-55.5361 73.44423,-0.0842 73.44423,-0.0841 20.49829,-38.7757 20.49829,-38.77574 44.98293,0 44.98292,0 0,44.15104 0,44.15107 -44.52538,83.51691 -44.52543,83.51692 44.52543,0.0847 44.52538,0.0846 0,55.53484 0,55.53486 -74.06071,0.0842 -74.0607,0.0841 -20.44944,38.69234 -20.44945,38.69225 -44.41529,0.085 -44.4153,0.085 0,-44.26995 z"
       id="path4162"
       inkscape:connector-curvature="0" />
  </g>
</svg>
