<?xml version="1.0" encoding="UTF-8" standalone="no"?>
<!-- Created with Inkscape (http://www.inkscape.org/) -->

<svg
   xmlns:dc="http://purl.org/dc/elements/1.1/"
   xmlns:cc="http://creativecommons.org/ns#"
   xmlns:rdf="http://www.w3.org/1999/02/22-rdf-syntax-ns#"
   xmlns:svg="http://www.w3.org/2000/svg"
   xmlns="http://www.w3.org/2000/svg"
   xmlns:sodipodi="http://sodipodi.sourceforge.net/DTD/sodipodi-0.dtd"
   xmlns:inkscape="http://www.inkscape.org/namespaces/inkscape"
   id="svg2"
   version="1.1"
   inkscape:version="0.92.1 r15371"
   width="512"
   height="512"
   sodipodi:docname="dota.svg">
  <metadata
     id="metadata8">
    <rdf:RDF>
      <cc:Work
         rdf:about="">
        <dc:format>image/svg+xml</dc:format>
        <dc:type
           rdf:resource="http://purl.org/dc/dcmitype/StillImage" />
        <dc:title />
      </cc:Work>
    </rdf:RDF>
  </metadata>
  <defs
     id="defs6" />
  <sodipodi:namedview
     pagecolor="#ffffff"
     bordercolor="#666666"
     borderopacity="1"
     objecttolerance="10"
     gridtolerance="10"
     guidetolerance="10"
     inkscape:pageopacity="0"
     inkscape:pageshadow="2"
     inkscape:window-width="1366"
     inkscape:window-height="709"
     id="namedview4"
     showgrid="false"
     inkscape:zoom="0.23046875"
     inkscape:cx="-587.47251"
     inkscape:cy="677.23299"
     inkscape:window-x="0"
     inkscape:window-y="0"
     inkscape:window-maximized="1"
     inkscape:current-layer="svg2" />
  <path
     style="fill:#f03916;fill-opacity:1;stroke-width:0.45095778"
     d="m 224.09124,483.38856 c -0.66223,-1.35241 -2.71287,-4.44712 -4.55697,-6.87708 -1.84415,-2.42997 -3.86796,-5.28652 -4.49745,-6.34791 -0.77023,-1.29876 -1.31229,-1.79834 -1.65758,-1.52779 -0.28221,0.2211 -1.11987,0.54753 -1.86147,0.72541 -0.7416,0.17787 -1.48834,0.54996 -1.65948,0.82684 -0.19743,0.31947 -2.76866,0.57324 -7.03643,0.69449 l -6.72526,0.19105 -1.83915,-1.85763 c -2.52514,-2.5505 -3.7309,-2.36436 -4.57681,0.70654 -0.29957,1.08754 -0.56234,1.25845 -1.83806,1.19535 -2.04785,-0.10128 -3.54033,-1.34283 -5.09204,-4.23584 -1.86642,-3.4799 -2.51733,-4.1006 -4.13415,-3.9424 -1.25597,0.12288 -1.45456,0.37812 -2.27782,2.92761 -0.49607,1.53614 -1.08384,2.82442 -1.30621,2.86284 -0.64812,0.11198 -2.9779,-3.66037 -2.9779,-4.82177 0,-0.59466 -0.27012,-1.05954 -0.6156,-1.05954 -0.9706,0 -2.94123,1.74748 -3.7319,3.30927 -0.39698,0.78418 -1.02787,1.77507 -1.40198,2.20197 -0.64154,0.73207 -0.7444,0.72567 -1.81029,-0.11274 -0.77284,-0.60793 -1.82357,-0.88892 -3.32405,-0.88892 -2.03959,0 -2.19395,0.0793 -2.19395,1.1274 0,1.49596 -0.67671,1.42198 -2.3563,-0.25761 -1.09809,-1.09807 -1.62751,-1.32411 -2.5558,-1.09114 -1.64267,0.41229 -2.30323,1.06599 -2.30323,2.27927 0,1.37229 -0.75766,1.81286 -1.12532,0.65437 -0.35549,-1.12012 -0.60671,-1.12093 -2.03139,-0.007 -1.9038,1.48919 -2.55246,1.18165 -2.89104,-1.37078 -0.54385,-4.0998 -3.13262,-5.37958 -4.5452,-2.24698 -0.44487,0.98656 -1.1783,1.91099 -1.6298,2.0543 -1.26372,0.40109 -2.66169,-0.59268 -2.96464,-2.10749 -0.37205,-1.86028 -1.31703,-2.09228 -2.48325,-0.60967 -1.20884,1.53678 -3.39454,2.47679 -5.759,2.47679 -1.62436,0 -1.93096,0.18739 -2.95139,1.80383 -1.6772,2.65685 -2.30872,2.36212 -2.66399,-1.24325 -0.38475,-3.9048 -1.03408,-5.16913 -2.98475,-5.81165 -2.1512,-0.70859 -2.84234,-0.17734 -3.37415,2.5936 -0.39811,2.07429 -0.61777,2.41272 -1.76519,2.71959 -1.8197,0.48665 -2.06421,0.20583 -2.06421,-2.37074 v -2.25541 l -1.69109,0.13997 -1.6911,0.13996 -0.22548,3.23336 c -0.12401,1.77834 -0.36076,3.36796 -0.52613,3.5325 -0.16532,0.16453 -0.71269,-0.11293 -1.21632,-0.61656 -0.50363,-0.50364 -1.72956,-1.13486 -2.72428,-1.40271 -0.99473,-0.26785 -1.94837,-0.71319 -2.11924,-0.98963 -0.2174,-0.35174 -1.90967,-0.41226 -5.637374,-0.20159 -6.08324,0.3438 -10.167068,-0.16039 -14.070744,-1.73715 -3.087707,-1.24719 -3.546873,-0.86555 -2.4018,1.99631 0.392468,0.98086 0.545794,1.88707 0.340788,2.01379 -0.20505,0.12672 -1.155985,-0.16889 -2.113188,-0.65691 -2.31188,-1.17867 -3.179208,-1.12778 -7.935006,0.46556 -2.220921,0.74408 -4.127977,1.35287 -4.237875,1.35287 -0.109899,0 -0.19982,-0.49073 -0.19982,-1.09051 0,-1.85987 -0.476842,-2.51714 -1.826153,-2.51714 -1.181509,0 -1.289243,0.14538 -1.41736,1.91267 -0.10115,1.39523 -0.352154,1.95318 -0.927846,2.06238 -0.609875,0.11569 -0.789176,-0.15851 -0.789176,-1.20689 0,-4.39042 -2.302094,-4.8739 -5.128607,-1.07707 -0.969379,1.30214 -2.03125,2.36752 -2.359682,2.36752 -0.919638,0 -1.530866,-1.53044 -1.530866,-3.83314 0,-3.68332 -0.227012,-3.83314 -5.808427,-3.83314 -6.602111,0 -6.664073,-0.0702 -5.242474,-5.9438 2.179705,-9.00596 2.477291,-17.70939 1.31143,-38.34992 -1.082659,-19.16683 -0.540157,-32.38825 1.692761,-41.25602 0.54178,-2.1517 1.022006,-2.32049 4.034178,-1.41801 2.884731,0.86427 2.95711,0.65036 3.034449,-8.9689 0.03743,-4.65304 0.364104,-12.72162 0.725952,-17.93018 0.361848,-5.20857 0.797204,-12.42782 0.96744,-16.04281 l 0.309493,-6.57268 -3.603288,-0.50956 c -5.542768,-0.78386 -5.817356,-0.98561 -6.18182,-4.54228 -2.099524,-20.49013 -2.183628,-39.71187 -0.21682,-49.55919 0.524869,-2.62795 1.42435,-3.08423 2.889196,-1.46561 0.448928,0.49605 1.190619,0.90191 1.64825,0.90191 1.134204,0 1.121217,-2.06828 -0.01669,-2.67735 -1.197925,-0.64112 -1.48514,-1.68859 -0.682931,-2.4908 0.612265,-0.61226 0.881532,-0.58426 2.545612,0.26469 1.023493,0.52214 2.150842,1.2393 2.505205,1.59367 1.113009,1.11303 1.684372,0.44209 1.444643,-1.69646 -0.31116,-2.77587 -0.281939,-7.58434 0.07518,-12.35562 l 0.303721,-4.05862 -2.106604,-1.35288 c -4.167662,-2.67647 -6.402609,-8.08229 -6.730004,-16.27831 -0.238782,-5.97895 0.149402,-8.57733 1.9563,-13.09383 l 1.155354,-2.88797 -1.3609,-5.29043 c -1.532129,-5.95598 -2.847663,-13.07742 -3.893028,-21.07397 -1.058444,-8.09632 -0.994047,-7.89176 -2.484011,-7.89176 -1.65736,0 -3.153593,-1.84749 -3.153593,-3.89394 0,-1.20153 0.182277,-1.51756 0.875309,-1.51756 0.481397,0 1.00072,0.20293 1.154001,0.45096 0.15328,0.24802 0.79576,0.45096 1.427733,0.45096 0.940923,0 1.079006,-0.14295 0.762569,-0.78918 -0.212581,-0.43405 -0.389718,-5.96391 -0.393686,-12.2886 -0.0045,-6.32468 -0.05465,-11.85455 -0.11274,-12.2886 -0.133438,-0.99806 -1.412445,-1.0244 -2.129467,-0.0438 -1.214791,1.66137 -1.579345,0.18584 -1.473324,-5.9632 0.08997,-5.2187 0.200225,-6.0293 0.786289,-5.77961 2.341689,0.99784 2.622004,0.83365 2.896728,-1.69676 0.881757,-8.12126 2.194901,-35.036 2.383898,-48.861508 l 0.221961,-16.234479 -1.456638,-0.80311 -1.456685,-0.803111 0.284149,-3.03003 c 0.156302,-1.666515 0.837745,-7.216633 1.514361,-12.333605 l 1.230169,-9.303574 1.463943,1.116616 c 2.263582,1.726492 6.445269,2.835397 10.663618,2.827776 6.109892,-0.01082 12.008509,-1.858442 16.528638,-5.176544 l 2.157787,-1.583944 0.284735,1.517833 c 0.490146,2.612714 1.17267,2.878779 7.933384,3.092623 4.279774,0.135378 6.592286,0.411319 7.786061,0.929063 l 1.698081,0.736505 1.126042,-1.783764 c 1.49506,-2.368339 2.774292,-2.405859 3.158734,-0.09267 0.495693,2.982544 0.543765,3.015509 2.233278,1.532129 3.012627,-2.645183 6.758817,-2.286627 7.653607,0.73249 0.2373,0.800676 0.58341,1.455782 0.76916,1.455782 0.1857,0 1.06976,-0.49682 1.96455,-1.104035 2.30777,-1.566086 4.90918,-1.812895 12.2316,-1.160359 6.53686,0.582502 9.47367,0.422998 11.36982,-0.617451 0.91621,-0.502728 1.42805,-0.434859 3.72928,0.494655 3.51007,1.417767 8.09316,1.496368 10.66768,0.182954 0.98544,-0.502728 1.91089,-1.224711 2.05659,-1.604417 0.20248,-0.527667 0.78647,-0.168749 2.4786,1.523334 1.70606,1.706109 2.92483,2.450866 5.31494,3.248024 2.97737,0.993009 3.70476,1.035624 18.20833,1.067056 15.31808,0.03337 16.30149,0.120992 21.04759,1.878871 1.03508,0.383359 2.09497,0.565365 2.35531,0.404464 0.26033,-0.160902 0.6887,-1.146425 0.95197,-2.190076 0.96883,-3.841259 1.05425,-3.92658 3.93307,-3.929376 4.26692,-0.0045 5.70804,-0.61452 7.29713,-3.09091 0.77948,-1.214699 1.39346,-2.778667 1.39346,-3.549398 0,-0.856504 0.27761,-1.484418 0.73357,-1.659389 1.19634,-0.459075 1.97217,0.600631 1.97217,2.69384 0,2.024937 0.71509,3.021373 1.39639,1.945748 0.21651,-0.341781 0.39676,-1.562884 0.40055,-2.713548 0.005,-1.324327 0.2965,-2.438013 0.79607,-3.034675 0.68473,-0.817857 1.02787,-0.888883 2.59301,-0.536685 6.06836,1.365591 11.15999,0.93258 11.67317,-0.992693 0.14806,-0.555581 0.46593,-1.31355 0.70639,-1.684373 0.38282,-0.590484 0.50936,-0.580562 1.01862,0.07982 0.95472,1.238014 12.79877,3.97659 17.19844,3.97659 4.28428,0 10.15247,-1.700245 11.90015,-3.447932 0.5839,-0.583901 1.1601,-1.061645 1.28041,-1.061645 0.12032,0 0.81159,0.675219 1.53619,1.500471 1.84807,2.104847 3.86204,2.558149 11.36503,2.558149 8.53049,0 13.19498,1.25975 12.39395,3.347234 -0.19383,0.505117 -0.87405,0.711386 -2.34612,0.711386 -2.29785,0 -3.81762,0.613708 -3.81762,1.541644 0,1.302456 6.05681,1.608882 9.73667,0.492536 1.21755,-0.369335 2.52739,-0.673731 2.91084,-0.676437 1.20231,-0.0086 5.3756,4.586151 6.74372,7.424434 0.72035,1.494519 1.44396,3.681168 1.60798,4.859295 0.16401,1.178128 0.52884,2.134925 0.81068,2.126221 0.2819,-0.0086 1.83156,-0.313776 3.44374,-0.67797 1.61218,-0.364148 5.82565,-0.794001 9.36333,-0.955219 l 6.43215,-0.293122 0.85465,-1.396481 c 1.39526,-2.279592 1.97515,-5.18899 1.95702,-9.818117 l -0.0172,-4.363107 3.44456,-0.37195 c 9.53275,-1.029446 33.6672,-0.05961 48.02736,1.929919 2.6942,0.373258 5.47261,0.552604 6.17423,0.398511 0.70161,-0.154092 1.72288,-0.04104 2.26951,0.251679 0.54661,0.292538 2.43562,0.594092 4.1978,0.670125 1.76218,0.07603 5.53766,0.35576 8.38998,0.62169 2.8523,0.265884 6.44719,0.485185 7.98863,0.487304 3.37102,0.0045 3.73625,-0.432919 3.73625,-4.476071 0,-2.448882 0.096,-2.735419 0.91607,-2.735419 1.02019,0 1.14431,0.250281 1.56542,3.156703 0.26505,1.829356 0.5238,2.177766 2.626,3.535735 2.87201,1.855286 4.44735,1.731182 7.41969,-0.584576 2.43602,-1.897856 3.27724,-1.972219 5.25421,-0.464306 2.40628,1.835353 6.90719,3.436929 10.38487,3.695282 3.57058,0.265209 6.15555,-0.285726 8.38297,-1.786829 l 1.51075,-1.018082 1.07192,1.071926 c 0.90757,0.907552 1.36048,1.029311 2.95419,0.794001 1.03526,-0.152874 3.43504,-0.408973 5.33284,-0.569153 l 3.45055,-0.291229 0.68055,1.303538 c 1.16709,2.235489 3.07473,3.650098 8.05351,5.97208 3.3567,1.565499 5.05838,2.631067 5.62615,3.522926 0.44769,0.703269 1.03912,1.422231 1.31429,1.597744 0.33823,0.215738 0.38269,1.0193 0.13718,2.480268 -0.19968,1.188634 -0.53808,5.408065 -0.75197,9.376494 -0.31999,5.936858 -0.56978,7.629798 -1.40983,9.554441 l -1.02093,2.339118 0.93638,5.327164 c 3.16749,18.020228 3.77727,35.319418 2.5324,71.843438 -0.35923,10.54113 -0.65844,21.82356 -0.6648,25.07205 l -0.0117,5.90635 -5.29877,0.30029 c -7.41374,0.42014 -7.78233,0.52731 -7.7643,2.2575 0.0142,1.36611 0.64978,3.36788 2.61716,8.24324 l 0.93645,2.32061 -1.74768,1.15656 c -3.70574,2.45235 -5.20548,5.79888 -4.87896,10.88691 0.33821,5.26993 3.44064,11.07046 7.36529,13.7707 l 1.89647,1.3048 0.19586,5.54039 c 0.20995,5.93911 0.89552,8.29538 3.34982,11.51313 1.14791,1.50499 1.14987,1.52261 0.37711,3.40701 -2.09458,5.10772 -2.70006,10.60972 -1.55078,14.09206 0.45158,1.3683 0.39499,1.87126 -0.40101,3.56468 -1.26576,2.6928 -1.85359,6.73071 -1.85764,12.76054 -0.004,5.77393 -0.13828,5.93186 -3.36264,3.95111 -2.11967,-1.30213 -2.95417,-0.90585 -2.95417,1.40286 0,3.07257 2.60708,4.22238 9.58285,4.22636 l 4.39685,0.003 v 71.42526 c 0,58.42537 -0.48577,107.33912 -1.07179,107.92516 -0.0612,0.0612 -3.4057,-1.41328 -7.43218,-3.27666 -12.05989,-5.58111 -18.86465,-7.51169 -26.44527,-7.50276 -3.23161,0.004 -5.30373,0.25768 -7.31192,0.89586 -3.25285,1.03371 -7.02507,3.12279 -6.67157,3.69477 0.27159,0.43944 3.16268,0.80858 8.572,1.0945 4.13371,0.21849 6.08793,0.82258 6.08793,1.8819 0,0.61496 -0.28155,0.67875 -1.69109,0.38319 -0.9301,-0.19502 -2.2996,-0.36981 -3.04335,-0.3884 -1.19255,-0.0299 -1.40068,0.16189 -1.76232,1.6233 -0.52139,2.10697 -1.67564,2.45084 -3.38855,1.00951 -0.71135,-0.59855 -1.47775,-1.08828 -1.70311,-1.08828 -0.22537,0 -1.24453,0.61391 -2.26481,1.36423 -2.41401,1.77527 -6.23142,3.07407 -10.72397,3.6486 -6.15952,0.7877 -15.74065,-0.76957 -22.04006,-3.58229 -2.64167,-1.17952 -2.86132,-1.20644 -5.0174,-0.61496 -3.46885,0.95162 -10.32464,0.89166 -13.30326,-0.11635 -2.67052,-0.90374 -5.28455,-2.39075 -6.25203,-3.55648 -0.54273,-0.65397 -0.76338,-0.65879 -2.24816,-0.0491 -0.90548,0.37182 -2.96541,1.55901 -4.57758,2.6382 l -2.93123,1.96217 -5.18601,0.26666 c -3.08857,0.15881 -7.1011,0.72489 -9.92107,1.39967 -6.35725,1.52115 -6.66281,1.50245 -7.48198,-0.45811 -0.52257,-1.25072 -0.89267,-1.5759 -1.6681,-1.46561 -0.83489,0.11873 -1.01816,0.47075 -1.13036,2.17102 -0.15504,2.34943 -0.95012,3.15671 -3.10899,3.15671 -1.34174,0 -1.49218,-0.13027 -1.49218,-1.29205 0,-0.71063 0.4253,-1.83273 0.94507,-2.49353 0.51978,-0.6608 0.83287,-1.49385 0.69574,-1.85121 -0.64189,-1.67282 -5.00004,-1.17189 -7.34376,0.84409 -1.94926,1.67668 -0.22047,2.9367 1.94661,1.4188 0.79328,-0.55564 1.03824,-0.56651 1.45483,-0.0646 0.67883,0.81791 0.15797,3.14895 -0.97537,4.36549 -2.13597,2.29271 -8.56811,3.99445 -12.54754,3.31972 -2.19108,-0.37149 -2.43937,-0.52839 -2.43937,-1.54101 0,-1.12055 0.0253,-1.1274 4.1333,-1.1274 2.27332,0 4.233,-0.10146 4.35481,-0.22548 0.12185,-0.12401 0.28992,-1.03096 0.37348,-2.01546 l 0.15197,-1.78999 -13.30046,0.119 c -15.02884,0.13445 -21.22527,0.6024 -25.51293,1.92673 -2.54296,0.78543 -3.02895,1.10864 -3.43995,2.28762 -0.53845,1.54452 -2.57335,2.62475 -4.96442,2.6354 -0.81406,0.005 -2.34741,0.30868 -3.40752,0.67792 -1.7186,0.59865 -2.10945,0.59576 -3.60767,-0.0271 -0.9241,-0.38404 -2.72527,-1.72748 -4.00252,-2.98539 -1.27724,-1.25791 -2.57244,-2.20373 -2.87823,-2.1018 -0.30575,0.10192 -0.88929,1.08775 -1.29673,2.19073 -0.42408,1.14801 -1.07419,2.06959 -1.52058,2.15558 -0.42886,0.0826 -1.62526,-0.57352 -2.65859,-1.45803 -2.37654,-2.03423 -5.53383,-3.21855 -10.33139,-3.87544 -5.61005,-0.76812 -13.22181,0.1334 -13.79773,1.63415 -0.1517,0.39534 0.25989,1.22323 0.98372,1.97874 1.65028,1.72252 1.26363,2.70575 -1.06399,2.70575 -0.97281,0 -2.65334,0.40144 -3.73456,0.89204 -3.18146,1.4436 -3.79711,1.25943 -5.17136,-1.54719 z m 53.68346,-3.39228 c 1.30918,-0.49775 1.56807,-1.79843 0.36758,-1.84675 -6.98792,-0.28128 -7.20645,-0.22503 -5.67983,1.46186 0.83,0.91713 3.41895,1.10472 5.31225,0.38489 z M 211.47638,467.9865 c 0.71643,-0.27493 0.97068,-1.57337 0.41659,-2.12748 -0.46318,-0.4632 -1.50711,0.61353 -1.50711,1.5545 0,0.9357 0.0613,0.96792 1.09052,0.57298 z m -109.86152,-2.97317 c 0.88148,-0.88149 0.62746,-1.26269 -0.84136,-1.26269 -1.640896,0 -3.260827,0.77165 -2.887614,1.37551 0.378219,0.61195 3.086134,0.53002 3.728974,-0.11282 z m 48.56815,-53.41219 c 8.30723,-1.36505 11.47489,-2.32639 39.00784,-11.83838 5.08455,-1.7566 11.55178,-3.79543 14.37162,-4.53076 2.81988,-0.73532 5.21794,-1.42788 5.32911,-1.53902 0.2133,-0.2133 -1.89781,-4.62535 -2.67766,-5.59606 -0.30855,-0.3841 -0.63229,-0.42405 -0.99521,-0.12283 -0.79622,0.66079 -4.55928,-2.88181 -12.13483,-11.42386 -7.3126,-8.24557 -31.78823,-31.86957 -59.59772,-57.524 -4.95427,-4.57034 -9.833,-9.09129 -10.84166,-10.04658 l -1.8339,-1.73686 -1.63332,3.95863 c -9.96442,24.14995 -22.335992,53.67767 -24.182439,57.71708 -2.800313,6.12631 -3.51977,9.04665 -2.811225,11.41152 0.680134,2.27006 5.898482,7.18699 13.354574,12.58316 7.32211,5.29921 14.95349,11.0727 18.48927,13.98796 4.24301,3.49842 11.04847,6.52059 11.04847,4.90645 0,-0.35564 0.28139,-1.03144 0.62529,-1.50177 0.60451,-0.82674 0.68046,-0.81311 2.28442,0.4103 1.83337,1.39839 1.8961,2.1357 0.0805,0.94607 -1.0965,-0.71845 -2.08825,-0.61228 -2.08825,0.22357 0,1.01217 7.19011,0.86811 14.20516,-0.28462 z m 252.39193,-6.48952 c 3.82298,-3.64985 6.94775,-10.7692 12.53888,-28.56797 1.75637,-5.59126 4.91002,-15.19906 7.00808,-21.35069 4.34181,-12.73033 5.49421,-17.37854 5.91143,-23.84374 0.25311,-3.92201 0.15889,-4.99955 -0.67814,-7.75527 l -0.97209,-3.20039 -4.03405,-2.49537 c -2.21874,-1.37244 -8.76067,-5.6173 -14.53763,-9.43301 -10.09427,-6.66731 -23.40741,-14.89954 -25.04934,-15.48933 -0.59323,-0.21308 -0.51783,0.0125 0.30647,0.91698 0.60131,0.65978 1.3623,1.19961 1.6911,1.19961 0.82341,0 0.75385,0.87035 -0.0956,1.19632 -1.15947,0.44493 -4.59219,-1.15939 -6.06159,-2.83294 -1.24351,-1.41627 -1.35964,-1.79475 -1.13254,-3.69113 l 0.25304,-2.11306 -10.49956,-7.21531 c -9.897,-6.80123 -62.83736,-42.1031 -108.20448,-72.15324 -17.98942,-11.91579 -43.63738,-29.20119 -58.24877,-39.2567 -4.68653,-3.22524 -4.98408,-3.35882 -7.48116,-3.35882 -2.26836,0 -2.66025,-0.13114 -3.06837,-1.02687 -1.51575,-3.32672 -5.08265,-5.56221 -9.63403,-6.03792 -1.90078,-0.19865 -2.57416,-0.42643 -2.24221,-0.75838 0.76113,-0.76112 0.55198,-1.86787 -0.54832,-2.9015 -1.05822,-0.99415 -6.72684,-3.75901 -7.0541,-3.44063 -0.10183,0.099 0.18327,0.58719 0.63355,1.08478 0.51197,0.56568 0.61249,0.90466 0.26823,0.90466 -1.07112,0 -2.29501,-0.94467 -2.29501,-1.77145 0,-0.46079 -0.33037,-0.96455 -0.73416,-1.1195 -0.5509,-0.21141 -0.6731,-0.65772 -0.4897,-1.78801 0.23522,-1.44947 0.10557,-1.60897 -3.4372,-4.2284 -2.02494,-1.49714 -6.92856,-4.9084 -10.89699,-7.58051 -3.96842,-2.6721 -9.95489,-6.83074 -13.30325,-9.24143 -10.54055,-7.58872 -15.05026,-9.48775 -22.60083,-9.51724 -5.89947,-0.023 -8.35567,0.55715 -17.53442,4.14205 -4.340465,1.69519 -9.254416,3.42362 -10.919894,3.84094 l -3.028135,0.75874 1.213481,1.64022 c 5.468405,7.39161 8.586417,10.79236 26.931508,29.37417 17.42488,17.64967 23.58822,24.17747 49.6032,52.53658 8.64594,9.42501 18.96106,20.61636 22.92245,24.86966 l 7.20261,7.73325 3.6574,1.14828 c 2.01158,0.63154 4.114,1.2746 4.67205,1.42902 1.58764,0.4393 1.23725,1.27915 -0.39729,0.95223 -1.4013,-0.28024 -1.41005,-0.27036 -1.15432,1.30544 0.31134,1.91845 1.35279,3.20384 5.49348,6.78014 2.09447,1.80901 4.30164,4.3951 6.5429,7.66628 2.8023,4.09 3.87418,5.25971 6.25154,6.82214 3.99269,2.62401 5.00776,3.68355 5.58047,5.82483 0.39612,1.48094 0.79016,1.96521 1.9366,2.37976 1.93474,0.69962 4.06353,2.84192 7.78632,7.83578 3.50515,4.70186 3.81226,5.00341 7.43349,7.29905 l 2.6074,1.65292 -0.29222,-1.2632 c -0.16076,-0.69475 -0.55662,-1.81944 -0.87973,-2.4993 -0.56961,-1.19839 -0.21123,-2.02799 0.6469,-1.49763 0.52667,0.32548 1.55319,4.5984 1.23026,5.1209 -0.13619,0.22035 0.33403,0.83065 1.04486,1.35621 0.90278,0.66746 1.38638,1.51142 1.60392,2.79915 0.2507,1.48359 0.64429,2.05364 2.01584,2.91947 0.9374,0.59175 2.15309,1.64739 2.7015,2.34586 2.90002,3.69347 11.47137,12.3184 12.24183,12.3184 0.47857,0 1.23356,-0.6038 1.68668,-1.34896 l 0.82038,-1.34897 0.91792,1.01075 c 0.76726,0.84485 0.88568,1.45482 0.72153,3.71649 l -0.19634,2.70575 3.87711,4.05862 c 3.67837,3.8506 3.9108,4.01408 4.5347,3.18962 0.76956,-1.0169 0.63202,-1.13297 2.26105,1.9078 0.70471,1.31542 2.10557,3.13824 3.11305,4.0507 l 1.83175,1.65901 0.14269,-1.23221 c 0.15093,-1.30334 0.89713,-1.59037 1.79642,-0.69106 0.74192,0.7419 0.67911,2.0911 -0.13528,2.90546 -1.22182,1.22183 -0.7691,2.69035 1.67192,5.42347 1.29164,1.44614 9.36613,9.73193 17.94334,18.41287 17.43042,17.6412 20.94542,21.52211 26.52259,29.28382 4.55959,6.34556 8.953,11.13678 11.67462,12.73177 3.7094,2.17384 10.31142,3.88635 18.62487,4.8311 0.8681,0.0986 9.69559,0.14438 19.61667,0.10163 l 18.0383,-0.0777 z M 260.90901,307.29795 c -0.25677,-0.47975 -0.46683,-1.52231 -0.46683,-2.3168 v -1.44453 l 1.35287,1.70237 c 0.74409,0.93631 1.35288,1.97886 1.35288,2.3168 0,0.93141 -1.70773,0.73474 -2.23892,-0.25784 z m 111.03248,-12.50417 c -0.31004,-0.1251 -0.5637,-0.53665 -0.5637,-0.91456 0,-0.48011 0.23775,-0.58718 0.78918,-0.35539 0.43404,0.18245 1.24577,0.43075 1.80383,0.55178 0.55805,0.12103 1.01465,0.39933 1.01465,0.61845 0,0.4194 -2.08261,0.48763 -3.04396,0.0997 z m 14.8955,-97.58473 c 0.43311,-3.2384 2.01141,-12.21809 3.50734,-19.9549 3.42964,-17.73774 4.41083,-24.0181 4.76924,-30.52682 l 0.28557,-5.18601 -1.5259,-0.61335 c -1.48086,-0.59522 -1.49388,-0.62218 -0.44119,-0.9122 0.59659,-0.16432 1.30685,-0.65407 1.57835,-1.08825 0.41883,-0.6698 -0.0135,-1.24901 -2.85398,-3.82285 -9.1804,-8.31887 -13.75821,-11.48757 -19.51328,-13.50704 -2.68442,-0.94197 -4.12992,-1.15693 -7.80424,-1.16086 -5.33767,-0.006 -8.29378,0.65605 -21.42049,4.79481 -11.08026,3.49353 -35.06724,9.71575 -39.39595,10.21933 -3.13712,0.36496 -4.66961,1.21696 -4.23345,2.35359 0.23229,0.60532 27.62748,22.17527 45.89885,36.13908 15.79682,12.07261 27.68416,20.56393 28.14765,20.10633 0.75008,-0.74054 1.26381,-0.45609 0.99977,0.55358 -0.4101,1.56819 1.70147,3.75765 3.47653,3.60473 1.15959,-0.0999 1.94421,0.33386 4.31079,2.38335 1.59125,1.37801 3.01328,2.50549 3.16006,2.50549 0.14679,0 0.62123,-2.6496 1.05433,-5.88801 z m -15.79742,-6.58651 c -0.76446,-0.30847 -0.71436,-1.47566 0.0763,-1.77907 0.77723,-0.29826 3.05993,1.11267 2.7117,1.67609 -0.26299,0.42555 -1.84387,0.48394 -2.788,0.10298 z M 40.825746,149.03732 c 0,-0.71369 -0.304396,-1.55025 -0.676436,-1.85902 -0.579075,-0.48059 -0.676436,-0.33709 -0.676436,0.99701 0,0.85714 0.135286,1.69372 0.300653,1.85904 0.638917,0.63891 1.052219,0.2473 1.052219,-0.99703 z M 210.62213,60.5604 c 0.16337,-0.514722 0.16604,-1.06692 0.006,-1.227055 -0.33794,-0.337993 -1.12699,0.771724 -1.13713,1.599276 -0.0113,0.913956 0.80866,0.644193 1.13127,-0.372221 z M 109.82229,58.169332 c 0,-0.589672 -0.30183,-1.322659 -0.67072,-1.628769 -1.03692,-0.860608 -2.03503,-0.206358 -2.03503,1.333934 0,1.218262 0.14719,1.367033 1.35287,1.367033 1.12383,0 1.35288,-0.181511 1.35288,-1.072198 z m 17.58736,-0.731634 c 0,-1.202569 -0.15031,-1.352873 -1.35288,-1.352873 -1.20257,0 -1.35287,0.150304 -1.35287,1.352873 0,1.202569 0.1503,1.352874 1.35287,1.352874 1.20257,0 1.35288,-0.150305 1.35288,-1.352874 z M 68.785128,55.633867 c 0,-1.202569 -0.150304,-1.352872 -1.352873,-1.352872 -1.202569,0 -1.352874,0.150303 -1.352874,1.352872 0,1.202569 0.150305,1.352874 1.352874,1.352874 1.202569,0 1.352873,-0.150305 1.352873,-1.352874 z m 13.972789,0.11274 c -0.01669,-0.81452 -0.843833,-1.51391 -2.276615,-1.924823 -3.247573,-0.931363 -4.4326,-0.329651 -2.832601,1.438374 0.527395,0.582774 1.387236,0.824667 2.931225,0.824667 1.201667,0 2.181779,-0.152198 2.177991,-0.338218 z M 419.63027,54.731951 c 0,-1.202568 -0.15032,-1.352872 -1.35287,-1.352872 -1.20256,0 -1.35288,0.150304 -1.35288,1.352872 0,1.20257 0.15032,1.352874 1.35288,1.352874 1.20255,0 1.35287,-0.150304 1.35287,-1.352874 z m -37.46981,-2.866016 c 1.56627,-2.534247 1.05259,-2.786423 -1.74038,-0.854385 -1.891,1.308094 -2.15634,1.857766 -1.30692,2.70719 0.72478,0.72478 1.89343,0.01443 3.0473,-1.852805 z m 15.12748,1.529693 c 0.91604,-0.760269 0.46965,-1.36577 -1.02135,-1.385386 -0.66744,-0.0091 -1.72084,-0.306021 -2.34091,-0.660474 -1.59049,-0.90922 -4.3384,-0.871069 -4.69769,0.06521 -0.34384,0.896053 0.81475,2.283605 2.15178,2.576998 1.64376,0.360766 5.18571,0.0045 5.90817,-0.596348 z m -21.82082,-0.975827 c 0.61642,-1.151836 -0.0293,-1.728882 -1.94728,-1.739569 -1.40514,-0.0076 -1.39617,-0.02525 -0.80032,1.542095 0.54196,1.425478 2.03301,1.532625 2.7476,0.197474 z m -36.10733,-2.906919 c 0,-1.480224 -1.50864,-1.348453 -1.72248,0.150395 -0.10945,0.767169 0.0804,1.010055 0.78918,1.010055 0.70196,0 0.9333,-0.287621 0.9333,-1.16045 z m -83.519,-1.166086 c 0.22872,-1.204013 -1.6772,-2.633999 -3.51071,-2.633999 -1.77817,0 -2.71089,0.643967 -2.71089,1.87161 0,1.185117 1.31933,1.743582 3.82891,1.620742 1.68211,-0.08235 2.28649,-0.299166 2.39269,-0.858353 z m 18.13012,0.345478 c 0,-0.790709 -1.2179,-1.279276 -2.31833,-0.930009 -1.64225,0.521217 -0.82859,1.21533 1.75463,1.496773 0.31004,0.03383 0.5637,-0.221285 0.5637,-0.566764 z M 227.8318,48.174845 c 0.0845,-0.258083 -0.13989,-0.866876 -0.49858,-1.352873 -0.72667,-0.984711 -1.31337,-0.642795 -1.83075,1.066786 -0.28451,0.940157 -0.18846,1.033415 0.92919,0.901915 0.6856,-0.08068 1.31563,-0.357789 1.40014,-0.615828 z m 14.12111,-0.236887 c 0,-0.771094 -0.89443,-2.225161 -1.36875,-2.225161 -0.64333,0 -0.52888,2.141779 0.12862,2.407077 0.92315,0.372491 1.24013,0.325997 1.24013,-0.181916 z M 243.027,482.48913 c -0.59342,-1.54648 0.16005,-2.10678 2.64126,-1.96405 2.19373,0.12619 2.37258,0.22147 2.37258,1.26389 0,1.04239 -0.17885,1.13768 -2.37258,1.26386 -1.81699,0.10453 -2.43548,-0.0275 -2.64126,-0.5637 z M 43.852845,373.27916 c -0.570506,-0.5705 -0.359412,-3.32773 0.254747,-3.32773 1.156211,0 2.633548,1.42849 2.493526,2.41107 -0.138986,0.9753 -2.051678,1.61325 -2.748273,0.91666 z m -6.334107,-99.68237 c -0.165366,-0.16535 -0.300653,-0.74221 -0.300653,-1.28189 0,-0.88182 0.171318,-0.95356 1.691091,-0.70794 1.303674,0.21069 1.724102,0.50435 1.835218,1.28188 0.12496,0.87478 -0.05948,1.00858 -1.390483,1.00858 -0.844013,0 -1.669852,-0.13528 -1.835173,-0.30063 z m -0.300653,-6.8474 c 0,-0.87053 1.019795,-3.22399 1.396977,-3.22399 0.560811,0 0.509401,1.08541 -0.116483,2.45904 -0.501825,1.10142 -1.280494,1.56658 -1.280494,0.76495 z m 0,-7.83021 c 0,-1.65685 0.08289,-1.81582 0.646764,-1.24012 0.355715,0.36318 0.783583,1.21839 0.950799,1.90046 0.259119,1.05688 0.163562,1.24013 -0.646764,1.24013 -0.816685,0 -0.950799,-0.26806 -0.950799,-1.90047 z M 38.12,242.78134 c 0,-1.4351 0.423314,-1.64074 1.828905,-0.88849 0.73452,0.39309 0.782547,0.60078 0.312829,1.35287 -0.88302,1.41399 -2.141734,1.14107 -2.141734,-0.46438 z m 426.15509,-18.48927 c 0,-0.60127 0.30064,-0.90192 0.90192,-0.90192 0.60127,0 0.90191,0.30065 0.90191,0.90192 0,0.60128 -0.30064,0.90192 -0.90191,0.90192 -0.60128,0 -0.90192,-0.30064 -0.90192,-0.90192 z M 37.218085,221.18714 c 0,-0.7156 0.265749,-1.93309 0.590529,-2.70554 0.52045,-1.23782 0.6855,-1.33499 1.391114,-0.81903 0.760406,0.55601 0.748861,0.69193 -0.229402,2.70555 -1.178263,2.42521 -1.752241,2.6935 -1.752241,0.81902 z M 37.87779,210.6506 c -0.11761,-0.31004 -0.263449,-1.37542 -0.324057,-2.36752 -0.100744,-1.64976 -0.01443,-1.80384 1.009559,-1.80384 0.955985,0 1.162433,0.26257 1.411543,1.79513 0.160496,0.98733 0.192964,2.05271 0.07215,2.36753 -0.283156,0.73785 -1.890054,0.74429 -2.169198,0.009 z M 38.12,201.57466 c 0,-0.92236 1.747777,-2.08526 3.134067,-2.08526 h 1.129514 l -1.117113,1.08108 C 39.818712,201.97145 38.12,202.5136 38.12,201.57466 Z m 0.788003,-11.04037 c -0.120495,-0.46083 -0.02616,-1.18234 0.20929,-1.60336 0.575873,-1.02901 1.708453,-0.12143 1.708453,1.36905 0,1.31396 -1.584755,1.50759 -1.917743,0.23431 z m -1.689918,-15.94926 c 0,-0.8414 0.304396,-1.9237 0.676436,-2.40514 0.669582,-0.86652 0.683291,-0.86652 1.352873,0 0.912739,1.18119 0.854836,2.78967 -0.112739,3.13096 -0.434047,0.15309 -1.042839,0.39661 -1.352874,0.54115 -0.391837,0.18263 -0.563696,-0.20371 -0.563696,-1.26697 z m -0.126945,-6.77542 c -0.111207,-0.31004 0,-0.95211 0.243337,-1.42683 0.245005,-0.47477 0.345569,-1.89528 0.223495,-3.1567 -0.268005,-2.76898 -0.07355,-3.42097 1.020156,-3.42097 1.038014,0 1.335647,0.90805 1.467462,4.47711 0.08618,2.3324 -0.04465,2.91662 -0.771634,3.44951 -1.080134,0.79166 -1.91621,0.82147 -2.182816,0.0779 z m 0.855873,-30.6373 c 0.137857,-0.22305 0.02029,-0.68297 -0.26106,-1.0221 -0.912422,-1.09939 0.267689,-1.15752 1.295196,-0.0638 l 0.992242,1.05617 -1.138532,0.21769 c -0.626201,0.11968 -1.025749,0.0352 -0.887846,-0.18796 z m -0.512875,-14.88409 c -0.12947,-0.33736 -0.180293,-4.76802 -0.112964,-9.84585 0.10408,-7.85158 0.223539,-9.23246 0.798826,-9.23246 0.580202,0 0.676437,1.37375 0.676437,9.65803 0,7.32337 -0.13619,9.7034 -0.563472,9.8458 -0.309898,0.10332 -0.669356,-0.0882 -0.798827,-0.42552 z M 37.218085,98.474854 c 0,-0.74408 0.20293,-1.352873 0.450958,-1.352873 0.248026,0 0.450957,0.608793 0.450957,1.352873 0,0.74408 -0.202931,1.352873 -0.450957,1.352873 -0.248028,0 -0.450958,-0.608793 -0.450958,-1.352873 z m 0.01443,-4.81474 c 0.0081,-0.452221 0.306697,-1.208522 0.664035,-1.68063 0.570913,-0.754362 0.683157,-0.771228 0.925726,-0.139075 0.433056,1.128521 0.03878,2.325544 -0.820111,2.490955 -0.516708,0.09953 -0.779119,-0.129335 -0.76965,-0.67125 z m 0.07116,-8.556473 c 0.144713,-1.702005 1.328793,-2.932443 3.395577,-3.52852 l 1.000766,-0.288657 -0.935692,2.168069 c -1.541465,3.571405 -3.712014,4.605768 -3.460651,1.649108 z m 0.163248,-12.897075 c -0.09569,-0.310034 -0.295694,-3.630707 -0.444465,-7.379248 -0.236392,-5.955574 -0.178038,-6.892304 0.462367,-7.423757 1.37912,-1.144576 1.87382,0.524689 2.2225,7.499427 0.246539,4.932396 0.189447,6.680173 -0.235039,7.19165 -0.681803,0.821509 -1.767754,0.882118 -2.005363,0.111928 z M 38.00735,53.776373 c -0.473371,-0.265209 -0.789176,-0.974521 -0.789176,-1.77258 0,-1.177676 0.1554,-1.330461 1.352873,-1.330461 1.497496,0 1.744395,0.818038 0.773212,2.561756 -0.426561,0.765861 -0.722298,0.885591 -1.336909,0.541285 z m 269.33453,-6.097852 c -2.60429,-2.84667 -4.79837,-5.35377 -4.87581,-5.571312 -0.0773,-0.217542 0.37092,-0.730778 0.99622,-1.140517 1.33853,-0.877023 6.31489,-1.015828 9.14064,-0.254927 l 1.81979,0.490011 -0.34854,2.204867 c -0.1917,1.212671 -0.56618,2.988633 -0.83215,3.946603 -0.26602,0.957969 -0.48478,2.60419 -0.48614,3.658304 0,1.054114 -0.15472,1.899976 -0.34074,1.879683 -0.18602,-0.02029 -2.46899,-2.365996 -5.07327,-5.212712 z"
     id="path4495"
     inkscape:connector-curvature="0" />
</svg>
