<?xml version="1.0" encoding="UTF-8" standalone="no"?>
<svg
   xmlns:dc="http://purl.org/dc/elements/1.1/"
   xmlns:cc="http://creativecommons.org/ns#"
   xmlns:rdf="http://www.w3.org/1999/02/22-rdf-syntax-ns#"
   xmlns:svg="http://www.w3.org/2000/svg"
   xmlns="http://www.w3.org/2000/svg"
   xmlns:sodipodi="http://sodipodi.sourceforge.net/DTD/sodipodi-0.dtd"
   xmlns:inkscape="http://www.inkscape.org/namespaces/inkscape"
   viewBox="0 0 500 500"
   id="svg2"
   version="1.1"
   inkscape:version="0.91 r13725"
   width="100%"
   height="100%"
   sodipodi:docname="evernote.svg">
  <metadata
     id="metadata61">
    <rdf:RDF>
      <cc:Work
         rdf:about="">
        <dc:format>image/svg+xml</dc:format>
        <dc:type
           rdf:resource="http://purl.org/dc/dcmitype/StillImage" />
        <dc:title />
      </cc:Work>
    </rdf:RDF>
  </metadata>
  <sodipodi:namedview
     pagecolor="#ffffff"
     bordercolor="#666666"
     borderopacity="1"
     objecttolerance="10"
     gridtolerance="10"
     guidetolerance="10"
     inkscape:pageopacity="0"
     inkscape:pageshadow="2"
     inkscape:window-width="1366"
     inkscape:window-height="715"
     id="namedview59"
     showgrid="false"
     inkscape:zoom="0.43457604"
     inkscape:cx="290.38327"
     inkscape:cy="150.58313"
     inkscape:window-x="0"
     inkscape:window-y="24"
     inkscape:window-maximized="1"
     inkscape:current-layer="svg2" />
  <defs
     id="defs4">
    <linearGradient
       id="linearGradient3764"
       x1="1"
       x2="47"
       gradientUnits="userSpaceOnUse"
       gradientTransform="matrix(0,-1,1,0,-1.5e-6,47.999998)">
      <stop
         stop-color="#5eb6e8"
         stop-opacity="1"
         id="stop7" />
      <stop
         offset="1"
         stop-color="#70bdea"
         stop-opacity="1"
         id="stop9" />
    </linearGradient>
    <clipPath
       id="clipPath-926608780">
      <g
         transform="translate(0,-1004.3622)"
         id="g12">
        <path
           d="m -24,13 c 0,1.105 -0.672,2 -1.5,2 -0.828,0 -1.5,-0.895 -1.5,-2 0,-1.105 0.672,-2 1.5,-2 0.828,0 1.5,0.895 1.5,2 z"
           transform="matrix(15.333333,0,0,11.5,414.99999,878.8622)"
           id="path14"
           inkscape:connector-curvature="0"
           style="fill:#1890d0" />
      </g>
    </clipPath>
    <clipPath
       id="clipPath-934514917">
      <g
         transform="translate(0,-1004.3622)"
         id="g17">
        <path
           d="m -24,13 c 0,1.105 -0.672,2 -1.5,2 -0.828,0 -1.5,-0.895 -1.5,-2 0,-1.105 0.672,-2 1.5,-2 0.828,0 1.5,0.895 1.5,2 z"
           transform="matrix(15.333333,0,0,11.5,414.99999,878.8622)"
           id="path19"
           inkscape:connector-curvature="0"
           style="fill:#1890d0" />
      </g>
    </clipPath>
  </defs>
  <g
     id="g33"
     transform="translate(0,452)" />
  <g
     id="g4147">
    <rect
       rx="52.678574"
       y="25.000002"
       x="25"
       height="450"
       width="450"
       id="rect3038"
       style="fill:#45d03f;fill-opacity:1;fill-rule:evenodd;stroke:#000000;stroke-width:0;stroke-linecap:butt;stroke-linejoin:miter;stroke-miterlimit:4;stroke-dasharray:none;stroke-opacity:1" />
    <path
       d="m 212.83233,99.197441 c -7.37849,0.23467 -13.33001,1.076009 -16.20018,1.880379 -6.08155,1.69977 -12.88762,5.1909 -16.63412,10.55904 -2.51259,3.58561 -4.03741,8.19151 -4.05004,14.60909 0,3.63218 0.0522,12.06955 0.14441,19.67165 0.0921,7.62565 0.14441,14.56258 0.14441,14.6091 -0.004,6.78925 -5.47566,12.28617 -12.29478,12.29478 l -31.2432,0 c -6.67262,0 -11.72689,1.12359 -15.6216,2.89288 -3.9004,1.77096 -6.72433,4.11841 -8.82331,6.94294 -4.17789,5.60878 -4.93513,12.46372 -4.91792,19.527 0,0 0.0556,5.89641 1.44646,17.06804 1.15631,8.64414 10.62328,68.99996 19.527,87.36526 3.4524,7.14544 5.65705,10.1577 12.43941,13.30729 15.11172,6.46989 49.63537,13.56057 65.81324,15.62161 16.14857,2.06626 26.36015,6.4449 32.40036,-6.21971 0.0231,-0.0324 1.1117,-3.09021 2.74825,-7.66616 5.24404,-15.89062 6.07507,-30.00801 6.07507,-40.21116 0,-1.03742 1.44644,-1.0851 1.44644,0 0,7.20343 -1.31972,32.64929 17.93591,39.48793 7.60154,2.69585 23.32053,5.06511 39.34329,6.94294 14.48788,1.66473 25.0235,7.38103 25.0235,44.5505 0,22.61387 -4.82154,25.74671 -29.65212,25.74671 -20.12821,0 -27.77173,0.51419 -27.77173,-15.47696 0,-12.92422 12.8017,-11.57156 22.27524,-11.57156 4.23135,0 1.15716,-3.16384 1.15716,-11.13762 0,-7.93179 4.98109,-12.46802 0.28928,-12.58406 -32.75893,-0.90129 -52.072,-0.0324 -52.072,40.93438 0,37.19306 14.25695,44.11656 60.75067,44.11656 36.45375,0 49.31484,-1.17386 64.36679,-47.87732 2.97963,-9.21966 10.24972,-37.37534 14.6091,-84.61701 2.75671,-29.87012 -2.69557,-120.0095 -6.94294,-142.76409 -2.48446,-13.29933 -10.35308,-19.9876 -17.50198,-22.56454 -7.7129,-2.78772 -23.30909,-5.63932 -42.95941,-7.95544 -15.80905,-1.86177 -34.48366,-1.64876 -45.70765,-1.3018 -1.34702,-9.22661 -7.80168,-17.62135 -15.04302,-20.53951 -12.05849,-4.853629 -28.20294,-6.03189 -40.50045,-5.641139 z M 314.08346,237.6222 c 0.76548,-0.0588 1.61992,-0.0277 2.45895,0 14.8607,0.51122 16.87054,14.49717 16.9234,24.01098 -6.26594,-2.79408 -13.97107,-4.62095 -22.41989,-4.91792 -4.5036,-0.15737 -8.83391,0.21894 -12.87336,0.86787 1.06579,-8.60739 4.4289,-19.07821 15.9109,-19.96093 z"
       inkscape:connector-curvature="0"
       id="path4183"
       style="fill:#394050;fill-opacity:1" />
  </g>
</svg>
