<?xml version="1.0" encoding="UTF-8" standalone="no"?>
<!-- Created with Inkscape (http://www.inkscape.org/) -->

<svg
   xmlns:dc="http://purl.org/dc/elements/1.1/"
   xmlns:cc="http://creativecommons.org/ns#"
   xmlns:rdf="http://www.w3.org/1999/02/22-rdf-syntax-ns#"
   xmlns:svg="http://www.w3.org/2000/svg"
   xmlns="http://www.w3.org/2000/svg"
   xmlns:sodipodi="http://sodipodi.sourceforge.net/DTD/sodipodi-0.dtd"
   xmlns:inkscape="http://www.inkscape.org/namespaces/inkscape"
   id="svg2"
   version="1.1"
   inkscape:version="0.92.1 r15371"
   width="500"
   height="500"
   sodipodi:docname="fingerprint-gui.svg">
  <metadata
     id="metadata8">
    <rdf:RDF>
      <cc:Work
         rdf:about="">
        <dc:format>image/svg+xml</dc:format>
        <dc:type
           rdf:resource="http://purl.org/dc/dcmitype/StillImage" />
        <dc:title />
      </cc:Work>
    </rdf:RDF>
  </metadata>
  <defs
     id="defs6" />
  <sodipodi:namedview
     pagecolor="#ffffff"
     bordercolor="#666666"
     borderopacity="1"
     objecttolerance="10"
     gridtolerance="10"
     guidetolerance="10"
     inkscape:pageopacity="0"
     inkscape:pageshadow="2"
     inkscape:window-width="1366"
     inkscape:window-height="714"
     id="namedview4"
     showgrid="false"
     inkscape:zoom="0.546"
     inkscape:cx="217.70946"
     inkscape:cy="95.156741"
     inkscape:window-x="0"
     inkscape:window-y="0"
     inkscape:window-maximized="1"
     inkscape:current-layer="svg2" />
  <g
     id="g844">
    <ellipse
       ry="178.57143"
       rx="189.56044"
       cy="251.8315"
       cx="257.32602"
       id="path840"
       style="opacity:1;fill:#ffffff;fill-opacity:1;stroke:none;stroke-width:1.05096829;stroke-linecap:round;stroke-miterlimit:4;stroke-dasharray:none;stroke-opacity:1;paint-order:stroke fill markers" />
    <path
       inkscape:connector-curvature="0"
       id="path4509"
       d="m 232.34275,474.25605 c -16.59835,-1.27136 -37.07177,-5.6168 -56.01525,-11.88912 -21.33281,-7.06347 -48.64609,-22.24405 -67.67226,-37.6119 C 72.295513,395.38647 44.119498,352.21808 32.944753,308.75921 22.365625,267.61641 22.352591,233.03527 32.900718,191.71512 c 6.545,-25.63831 20.238983,-53.51958 37.618425,-76.59178 7.889915,-10.47432 24.8106,-28.087517 35.794937,-37.259937 30.5657,-25.523631 70.89394,-43.513756 111.44703,-49.715675 14.72238,-2.25154 49.25351,-2.268049 64.24697,-0.03072 39.4006,5.879358 78.90601,23.288054 110.57171,48.725135 34.36882,27.608537 61.97388,69.568447 73.54547,111.789727 12.11163,44.19171 11.84196,81.84936 -0.90448,126.29222 -6.48802,22.62205 -19.57203,48.72749 -34.20871,68.25414 -22.42682,29.91929 -47.15146,50.76576 -79.82512,67.30424 -16.71116,8.45872 -27.15088,12.41058 -44.41785,16.81399 -27.51743,7.01746 -48.29954,8.96078 -74.42652,6.95958 z m 9.28547,-63.68808 c 2.45874,-2.45876 2.99438,-3.65881 2.99438,-6.70886 0,-4.20668 -0.43489,-4.70323 -15.20967,-17.36642 -29.02624,-24.87792 -46.39485,-63.06105 -46.57627,-102.39305 -0.0854,-18.4937 3.87516,-30.62497 14.16533,-43.38968 14.78147,-18.33597 38.31021,-27.22432 61.43331,-23.20735 9.92362,1.72394 15.38307,3.82066 23.51483,9.03102 18.15128,11.63035 28.85811,29.28158 30.23103,49.83904 0.74737,11.19115 3.47568,14.77256 11.25375,14.77256 4.11251,0 8.06825,-3.49338 8.78946,-7.76208 0.72376,-4.28376 -0.85807,-17.26885 -3.12217,-25.62983 -4.41256,-16.29522 -17.18938,-34.5478 -31.19734,-44.56766 -7.39936,-5.29275 -19.93355,-11.46649 -27.742,-13.66433 -8.51689,-2.39725 -27.14833,-3.30347 -36.59321,-1.77984 -32.44053,5.23322 -60.39919,30.91127 -68.23952,62.67309 -3.57934,14.50019 -3.21992,35.06598 0.97414,55.74638 6.4896,31.99868 26.20413,65.26137 51.29339,86.54312 11.00459,9.3345 13.46711,10.85826 17.54827,10.85826 2.79243,0 4.08503,-0.5971 6.48229,-2.99437 z m 86.72847,-9.26767 c 2.95624,-2.95618 3.49338,-8.06578 1.29489,-12.31721 -1.65333,-3.19709 -4.50803,-4.22496 -13.69239,-4.93004 -26.70129,-2.04983 -48.12164,-11.73115 -66.41507,-30.01753 -18.27177,-18.26462 -29.59931,-45.18174 -29.57245,-70.27141 0.0106,-9.43821 1.9695,-14.68656 7.87476,-21.09302 5.2133,-5.65574 11.09936,-8.04045 19.86275,-8.04718 5.9271,-0.004 7.84588,0.38412 12.04937,2.44068 9.36473,4.58176 14.45631,13.01883 15.67106,25.96799 0.9346,9.96398 2.11623,14.24835 5.95159,21.57941 3.69532,7.06341 12.96062,16.1431 19.90528,19.50649 10.00676,4.84643 22.03024,6.14686 32.97494,3.56648 13.94243,-3.28714 26.02192,-13.807 32.39113,-28.20893 6.19536,-14.00884 4.23017,-38.49716 -4.99206,-62.20601 -6.70071,-17.22645 -15.58617,-30.42795 -29.53793,-43.88593 -30.72335,-29.6358 -75.16534,-41.35427 -114.9524,-30.31067 -16.93847,4.70157 -23.99525,7.81652 -36.83856,16.26087 -18.65117,12.26301 -33.15778,28.81416 -42.80759,48.84099 -9.51762,19.75232 -12.22022,32.05667 -12.1872,55.48401 0.0317,22.47039 2.27881,37.47834 8.50517,56.80507 5.11449,15.87543 6.29392,17.80314 11.53663,18.8559 5.05503,1.01508 12.05482,-4.14091 12.05482,-8.87943 0,-1.16367 -1.76906,-7.35218 -3.93126,-13.75223 -6.26238,-18.53649 -7.87274,-29.14121 -7.91915,-52.14861 -0.0343,-17.26831 0.17596,-20.21886 1.93797,-27.13166 10.76787,-42.24588 46.30749,-73.08125 90.05602,-78.13565 15.82677,-1.82851 34.80996,1.34316 51.7495,8.64616 21.10013,9.09677 39.13613,26.32559 49.51816,47.30203 6.28246,12.69342 8.35721,18.77116 10.12134,29.6489 2.58723,15.95242 1.39899,25.77893 -4.00577,33.12832 -5.42237,7.37327 -13.21198,11.10867 -23.04383,11.05041 -11.02098,-0.0654 -21.4769,-7.58725 -24.88493,-17.90203 -0.72042,-2.18041 -1.67615,-7.53121 -2.12399,-11.89067 -2.76882,-26.95552 -21.55448,-44.50104 -47.60766,-44.46483 -13.58918,0.0189 -23.55921,4.02503 -32.72641,13.15008 -10.8576,10.80768 -15.50399,23.78665 -14.47886,40.4443 1.80905,29.39303 13.60345,56.54063 33.77224,77.73454 10.38925,10.91736 20.42235,18.2169 34.97501,25.44606 16.96173,8.42588 31.11975,11.97112 48.72632,12.20131 7.96812,0.10418 8.29134,0.0303 10.78856,-2.46696 z m 0.13854,-36.98484 c 2.6073,-2.32959 2.87618,-3.03659 2.87618,-7.56219 0,-6.80907 -2.32434,-8.88596 -10.75157,-9.60703 -9.85792,-0.84348 -17.81873,-3.06773 -27.11847,-7.5769 -9.91799,-4.80892 -16.14497,-9.87128 -22.55055,-18.33285 -8.07248,-10.66349 -13.11625,-24.40267 -13.11906,-35.7365 0,-6.87266 -2.00712,-11.00355 -6.37846,-13.13964 -3.95663,-1.93335 -7.94021,-1.01972 -11.32482,2.59734 -1.94696,2.08056 -2.10205,2.91764 -1.99505,10.763 0.21692,15.90655 6.31681,33.29899 16.41984,46.81738 7.71791,10.32699 21.05354,21.24322 31.59621,25.86379 12.33215,5.40487 23.74715,8.26407 33.53876,8.40069 5.36715,0.0749 6.20426,-0.16151 8.80699,-2.48709 z m 63.73246,-136.05211 c 4.50864,-4.50862 4.15275,-7.44345 -2.40281,-19.81803 -9.93825,-18.75969 -21.12206,-33.27083 -35.2667,-45.75896 -24.57563,-21.69749 -52.66983,-34.80732 -84.38528,-39.37742 -12.51341,-1.80314 -39.39339,-1.36058 -51.53091,0.84844 -36.17699,6.58419 -69.99502,26.31638 -93.74535,54.69878 -10.37049,12.39298 -22.06652,31.5331 -22.06652,36.1109 0,7.72203 9.40207,12.93458 15.16052,8.40501 1.20321,-0.94642 4.2012,-5.2068 6.66222,-9.46751 11.82787,-20.47714 26.77579,-36.65805 45.5507,-49.30786 6.58085,-4.43392 22.90548,-12.63192 29.97071,-15.05081 16.07363,-5.50309 29.3019,-7.61642 47.53077,-7.59344 26.75351,0.0337 47.5882,5.46054 69.74975,18.16776 23.06373,13.2245 41.04408,32.06636 54.73401,57.35651 3.84196,7.09748 7.15242,12.15923 8.32154,12.72397 1.06785,0.5158 3.4674,0.96465 5.33228,0.99743 2.72506,0.0479 3.97856,-0.52822 6.38507,-2.93477 z m -32.0134,-95.60338 c 4.60526,-5.15375 2.79596,-11.74504 -4.54291,-16.54945 -15.06708,-9.86379 -32.61676,-17.91613 -52.04197,-23.878537 -17.0742,-5.24077 -29.83975,-7.24058 -49.85415,-7.80996 -26.57808,-0.75611 -43.98887,1.69329 -67.65668,9.51814 -17.8005,5.885057 -30.74686,12.104207 -32.58109,15.651267 -3.01851,5.83705 -0.47153,12.48886 5.46271,14.2668 3.21622,0.9636 3.99071,0.76899 13.47275,-3.38514 10.64914,-4.66546 25.06274,-9.76182 33.83926,-11.96489 15.15867,-3.80509 37.49028,-5.49609 54.47033,-4.12462 16.04659,1.2961 27.58136,3.595 41.537,8.27842 15.4663,5.19038 23.44438,8.81981 36.97816,16.82231 10.31254,6.09777 11.79881,6.72596 14.97188,6.32792 2.47767,-0.3108 4.24135,-1.24601 5.94471,-3.15226 z"
       style="fill:#f03916;stroke-width:0.88069862;fill-opacity:1" />
  </g>
</svg>
