<?xml version="1.0" encoding="UTF-8" standalone="no"?>
<!-- Created with Inkscape (http://www.inkscape.org/) -->

<svg
   xmlns:dc="http://purl.org/dc/elements/1.1/"
   xmlns:cc="http://creativecommons.org/ns#"
   xmlns:rdf="http://www.w3.org/1999/02/22-rdf-syntax-ns#"
   xmlns:svg="http://www.w3.org/2000/svg"
   xmlns="http://www.w3.org/2000/svg"
   xmlns:sodipodi="http://sodipodi.sourceforge.net/DTD/sodipodi-0.dtd"
   xmlns:inkscape="http://www.inkscape.org/namespaces/inkscape"
   id="svg2"
   version="1.1"
   inkscape:version="0.91 r13725"
   width="512"
   height="512"
   sodipodi:docname="gconfeditor.svg"
   viewBox="0 0 512 512">
  <metadata
     id="metadata8">
    <rdf:RDF>
      <cc:Work
         rdf:about="">
        <dc:format>image/svg+xml</dc:format>
        <dc:type
           rdf:resource="http://purl.org/dc/dcmitype/StillImage" />
        <dc:title />
      </cc:Work>
    </rdf:RDF>
  </metadata>
  <defs
     id="defs6">
    <inkscape:perspective
       sodipodi:type="inkscape:persp3d"
       inkscape:vp_x="0 : 256 : 1"
       inkscape:vp_y="0 : 1000 : 0"
       inkscape:vp_z="512 : 256 : 1"
       inkscape:persp3d-origin="256 : 170.66667 : 1"
       id="perspective4141" />
  </defs>
  <sodipodi:namedview
     pagecolor="#ffffff"
     bordercolor="#666666"
     borderopacity="1"
     objecttolerance="10"
     gridtolerance="10"
     guidetolerance="10"
     inkscape:pageopacity="0"
     inkscape:pageshadow="2"
     inkscape:window-width="959"
     inkscape:window-height="708"
     id="namedview4"
     showgrid="false"
     inkscape:zoom="0.53309222"
     inkscape:cx="254.06871"
     inkscape:cy="224.52479"
     inkscape:window-x="0"
     inkscape:window-y="24"
     inkscape:window-maximized="0"
     inkscape:current-layer="svg2"
     showguides="false"
     inkscape:guide-bbox="true"
     inkscape:document-units="px" />
  <g
     id="g3342">
    <path
       style="fill:#869094"
       d="m 205.58058,471.97686 c -2.91703,-1.30203 -6.01975,-4.63395 -7.40425,-7.9512 -0.71355,-1.70965 -1.42565,-8.28145 -2.03534,-18.78357 -0.51577,-8.88464 -1.19495,-16.86237 -1.50928,-17.72831 -0.41691,-1.1486 -2.45518,-2.23221 -7.53613,-4.00646 -3.83056,-1.33763 -9.59907,-3.75661 -12.8189,-5.37551 -3.21984,-1.61889 -6.55573,-2.94346 -7.4131,-2.94346 -0.96161,0 -6.22145,4.27723 -13.72869,11.164 -6.69341,6.1402 -13.25188,11.71891 -14.57439,12.39716 -2.72225,1.3961 -8.84706,1.62332 -12.00988,0.44554 -2.51485,-0.93647 -29.118388,-27.15285 -30.824115,-30.37553 -1.691811,-3.19637 -1.510876,-9.17549 0.38727,-12.79778 0.864061,-1.64891 6.491075,-8.33144 12.504505,-14.85007 6.47322,-7.01704 10.93349,-12.46437 10.93349,-13.35301 0,-0.82553 -1.32455,-4.13538 -2.94346,-7.35522 -1.6189,-3.21983 -4.03264,-8.97337 -5.36388,-12.78564 -1.33124,-3.81227 -2.96509,-7.21371 -3.6308,-7.55877 -0.6657,-0.34504 -8.479611,-1.02811 -17.364246,-1.51789 -10.332819,-0.56962 -17.287344,-1.29635 -19.299319,-2.01674 -3.834224,-1.37285 -8.251616,-6.07417 -8.875709,-9.44622 -0.253134,-1.36767 -0.35677,-11.50031 -0.230298,-22.51696 l 0.229952,-20.03027 2.302297,-2.8857 c 4.068619,-5.09962 5.98113,-5.61188 25.414205,-6.80717 10.999128,-0.67654 17.685498,-1.39291 18.240898,-1.95433 0.48224,-0.48746 2.13047,-4.26732 3.66273,-8.39973 1.53226,-4.13238 3.92706,-9.78719 5.32178,-12.56623 1.39472,-2.77905 2.53585,-5.66362 2.53585,-6.41017 0,-0.74653 -4.60059,-6.4037 -10.22354,-12.57147 -5.62295,-6.16776 -11.001456,-12.24295 -11.952238,-13.50044 -2.674137,-3.53672 -3.578418,-7.91628 -2.520447,-12.2068 0.798841,-3.23961 2.262104,-4.99581 14.482945,-17.38235 7.47688,-7.57827 14.84875,-14.42489 16.38193,-15.21471 3.55787,-1.83284 9.2151,-1.85821 12.74772,-0.0572 1.48751,0.75837 8.01348,6.25257 14.50215,12.20933 6.48868,5.95675 12.23724,11.08012 12.77461,11.38527 0.56629,0.32158 4.06153,-0.90633 8.31457,-2.92102 4.03567,-1.9117 10.07403,-4.3981 13.4186,-5.52533 4.5349,-1.5284 6.29447,-2.505 6.92059,-3.84107 0.46177,-0.98535 1.2537,-9.06082 1.75985,-17.94545 0.97342,-17.08671 1.55831,-19.78768 5.08166,-23.46613 3.91921,-4.09176 6.1732,-4.42743 28.07941,-4.1817 l 19.95277,0.22381 3.12144,2.06703 c 5.37044,3.55634 6.02052,5.7674 7.2853,24.77893 0.61223,9.20257 1.28031,17.4487 1.48463,18.32472 0.28755,1.23288 1.93214,2.13773 7.27861,4.00472 3.79892,1.32657 9.88265,3.90634 13.51939,5.73282 3.63675,1.82648 6.90366,3.32087 7.25981,3.32087 0.35614,0 6.1952,-5.09207 12.97569,-11.3157 6.78047,-6.22364 13.58255,-11.97141 15.11574,-12.77283 3.62424,-1.89446 9.01873,-1.8772 12.98229,0.0416 1.88192,0.91102 8.27522,6.7296 16.30477,14.83903 13.78316,13.92029 14.86939,15.51291 14.88009,21.81712 0.008,4.45882 -1.97741,7.38381 -13.82696,20.37467 -6.44299,7.06353 -11.71452,13.1423 -11.71452,13.50835 0,0.36606 1.68167,4.17094 3.73705,8.45528 2.05539,4.28435 4.50664,10.28448 5.44724,13.33364 1.16853,3.78799 2.18614,5.74608 3.21288,6.18219 0.82647,0.35105 9.13365,1.11486 18.46038,1.69736 18.50906,1.15597 21.49047,1.91754 24.59376,6.28228 2.93367,4.12618 3.27488,7.21859 3.02082,27.37836 l -0.24302,19.2844 -2.26443,3.21985 c -4.04345,5.74951 -5.06465,6.04407 -25.59859,7.38401 -10.03334,0.65471 -18.41842,1.36638 -18.63352,1.5815 -0.21511,0.2151 -1.4607,3.42191 -2.76797,7.12623 -1.30728,3.70432 -3.87797,9.72434 -5.71264,13.37782 -1.83469,3.65348 -3.23239,7.09338 -3.10604,7.6442 0.12637,0.55083 5.13227,6.34632 11.12424,12.87888 5.99196,6.53255 11.65521,13.37763 12.58499,15.21126 1.97498,3.89488 2.15816,8.01904 0.52934,11.91736 -1.43743,3.44023 -25.83606,28.24032 -29.8018,30.29214 -3.31591,1.71562 -9.35612,1.89995 -12.82689,0.39145 -1.32976,-0.57794 -7.99646,-6.15511 -14.8149,-12.39371 -6.81844,-6.23859 -12.93946,-11.34444 -13.60227,-11.34635 -0.6628,-0.002 -4.50365,1.53798 -8.53521,3.42194 -4.03157,1.88396 -10.00542,4.3068 -13.27523,5.38408 -4.51942,1.48898 -6.03259,2.33421 -6.30986,3.52455 -0.20059,0.86121 -0.86564,9.0952 -1.47787,18.29778 -1.34655,20.24072 -2.12018,22.43492 -9.16844,26.00401 -2.04376,1.03493 -5.42584,1.21322 -22.5403,1.18822 -15.14694,-0.0221 -20.6942,-0.27869 -22.38977,-1.03552 z m 29.67806,-89.87037 c 18.16411,-1.90367 33.34011,-9.14795 46.26037,-22.08243 9.84742,-9.85825 16.20147,-20.91979 20.02747,-34.86509 2.39856,-8.74243 2.38442,-28.04704 -0.0271,-36.89618 -7.31805,-26.85459 -26.54192,-46.62669 -53.1123,-54.62695 -6.19115,-1.86413 -7.87225,-2.0409 -19.9106,-2.09347 -11.53057,-0.0503 -13.93437,0.15708 -19.53492,1.68601 -27.96393,7.63398 -49.35106,30.10344 -55.19513,57.98834 -5.25055,25.05297 2.42663,50.6243 20.71725,69.00563 9.57682,9.62431 22.00284,16.68605 35.46494,20.1548 3.83877,0.98913 9.2864,1.75149 17.04518,2.38533 0.61985,0.0507 4.339,-0.24456 8.26477,-0.65599 z m -18.63203,-31.49973 c -19.15832,-5.19586 -32.56624,-21.50067 -33.75339,-41.04603 -0.83006,-13.66588 3.56776,-25.22825 13.27227,-34.89443 17.67344,-17.60359 45.89428,-17.76858 63.3438,-0.37031 14.37239,14.33014 17.82093,34.71115 8.9003,52.60107 -7.59806,15.23757 -21.59538,24.22972 -38.76342,24.90238 -5.84468,0.22901 -8.73543,-0.0362 -12.99956,-1.19268 z m 21.43385,-18.94643 c 5.29155,-1.97982 11.60324,-7.84644 14.25779,-13.25239 1.8732,-3.81472 2.09935,-5.0846 2.09949,-11.78869 1.4e-4,-7.13174 -0.13065,-7.75468 -2.5748,-12.26262 -4.93374,-9.0997 -12.25422,-13.71072 -22.59504,-14.23216 -8.30689,-0.41889 -13.27896,1.34065 -19.27574,6.82137 -7.60318,6.94887 -10.62842,16.60921 -8.18645,26.1412 2.11368,8.25045 6.59168,13.85253 14.12404,17.66946 7.02699,3.56086 14.26031,3.85599 22.15071,0.90383 z"
       id="path2986"
       inkscape:connector-curvature="0" />
    <path
       sodipodi:nodetypes="ccczccc"
       inkscape:connector-curvature="0"
       id="path3773"
       d="m 383.86148,105.37713 26.66466,16.99871 49.66296,-28.664512 c 0,0 2.31785,32.128392 -14.99891,54.662562 -17.31672,22.53417 -35.33068,34.33079 -35.33068,34.33079 l -32.6642,-70.99469 z"
       style="fill:#999999;stroke:none" />
    <path
       sodipodi:nodetypes="czzzcccczzcc"
       inkscape:connector-curvature="0"
       id="path3771"
       d="m 282.16494,185.876 c 0,0 10.67421,-8.85316 16.9987,-24.66482 6.3245,-15.81167 2.62928,-47.6052 7.56153,-62.843335 4.93224,-15.238162 1.3464,-25.544442 38.10169,-49.148281 36.7553,-23.603837 93.82133,-0.919059 93.82133,-0.919059 l -50.49128,26.583798 -3.99969,32.330927 44.32998,82.99378 c 0,0 -31.12422,0.40077 -44.32998,3.33308 -13.20576,2.93232 -24.77458,7.78797 -34.33074,12.99904 -9.55617,5.21106 -22.99826,16.99872 -22.99826,16.99872 z"
       style="fill:#ebebeb;stroke:none" />
    <path
       id="path3769"
       d="M 290.74609 176.26758 C 290.74609 176.26758 247.79333 219.1809 225.81641 240.96289 C 203.8395 262.74488 187.1265 277.01033 158.88086 306.95312 C 130.63524 336.89593 60.652313 416.01471 58.007812 421.96875 C 55.363323 427.92279 40.218441 449.98969 65.550781 473.81836 C 90.883111 497.64719 120.12268 479.90386 125.88477 475.70312 C 131.64684 471.50225 169.53007 426.50836 191.87695 399.3418 C 214.22382 372.1752 235.68005 343.17417 259.75391 312.60938 C 283.82775 282.04456 336.35156 215.98047 336.35156 215.98047 C 336.35156 215.98047 324.75303 198.65886 317.02539 191.93945 C 309.29775 185.22005 290.74609 176.26758 290.74609 176.26758 z M 98.099609 425.14258 A 16.456922 17.204977 0 0 1 114.61523 442.26758 L 114.61523 442.34766 A 16.456922 17.204977 0 0 1 98.177734 459.55273 A 16.456922 17.204977 0 0 1 81.701172 442.38867 A 16.456922 17.204977 0 0 1 98.099609 425.14258 z "
       style="fill:#00bbf2;fill-opacity:1;stroke:none" />
    <path
       inkscape:connector-curvature="0"
       id="path3775"
       d="m 327.82816,158.87802 18.99856,35.3307 38.99706,-18.9986 -18.33196,-37.33053 z"
       style="fill:#ffffff;stroke:none" />
    <path
       sodipodi:nodetypes="ccccccccccccccccccc"
       inkscape:connector-curvature="0"
       id="path3777"
       d="m 335.22212,154.309 0.70706,4.7137 4.00663,1.64979 -1.41411,6.36348 5.65644,2.59253 -0.47137,6.83487 6.83483,3.29957 -0.94274,7.7776 4.47802,3.29958 27.57507,-12.96266 1.41411,-5.42074 -4.00663,-2.59253 0,-7.77759 -5.18505,-1.41411 -0.23571,-7.30621 -4.71368,-2.59254 -0.47137,-8.24896 -5.55062,-2.28631 z"
       style="fill:#808080;stroke:none" />
    <path
       sodipodi:nodetypes="zczczczcz"
       inkscape:connector-curvature="0"
       id="path2994"
       d="m 130.16875,402.37747 c -17.73641,-14.30273 -4.13324,-32.96014 -4.13324,-32.96014 0,0 68.97242,-76.39339 93.47984,-100.71241 24.5074,-24.319 51.48294,-47.05134 51.48294,-47.05134 0,0 7.00557,-7.92812 16.02987,0.32962 9.02431,8.25775 4.47933,16.12879 4.47933,16.12879 0,0 -26.42164,39.07343 -47.87102,66.3696 -21.44937,27.29617 -82.16003,96.13416 -82.16003,96.13416 0,0 -13.57127,16.06448 -31.30769,1.76172 z"
       style="fill:#394050;fill-opacity:0.39215686;stroke:none" />
  </g>
</svg>
