<?xml version="1.0" encoding="UTF-8" standalone="no"?>
<svg
   xmlns:dc="http://purl.org/dc/elements/1.1/"
   xmlns:cc="http://creativecommons.org/ns#"
   xmlns:rdf="http://www.w3.org/1999/02/22-rdf-syntax-ns#"
   xmlns:svg="http://www.w3.org/2000/svg"
   xmlns="http://www.w3.org/2000/svg"
   xmlns:xlink="http://www.w3.org/1999/xlink"
   xmlns:sodipodi="http://sodipodi.sourceforge.net/DTD/sodipodi-0.dtd"
   xmlns:inkscape="http://www.inkscape.org/namespaces/inkscape"
   viewBox="0 0 512 512"
   id="svg2"
   version="1.1"
   inkscape:version="0.92.1 r15371"
   width="512"
   height="512"
   sodipodi:docname="gitkraken.svg">
  <metadata
     id="metadata61">
    <rdf:RDF>
      <cc:Work
         rdf:about="">
        <dc:format>image/svg+xml</dc:format>
        <dc:type
           rdf:resource="http://purl.org/dc/dcmitype/StillImage" />
        <dc:title />
      </cc:Work>
    </rdf:RDF>
  </metadata>
  <sodipodi:namedview
     pagecolor="#ffffff"
     bordercolor="#666666"
     borderopacity="1"
     objecttolerance="10"
     gridtolerance="10"
     guidetolerance="10"
     inkscape:pageopacity="0"
     inkscape:pageshadow="2"
     inkscape:window-width="1366"
     inkscape:window-height="714"
     id="namedview59"
     showgrid="false"
     inkscape:zoom="0.5248138"
     inkscape:cx="248.84329"
     inkscape:cy="309.55411"
     inkscape:window-x="0"
     inkscape:window-y="0"
     inkscape:window-maximized="1"
     inkscape:current-layer="svg2" />
  <defs
     id="defs4">
    <linearGradient
       id="linearGradient3764"
       x1="1"
       x2="47"
       gradientUnits="userSpaceOnUse"
       gradientTransform="rotate(-90,23.999998,24)">
      <stop
         stop-color="#0bb8f9"
         stop-opacity="1"
         id="stop7" />
      <stop
         offset="1"
         stop-color="#20bef9"
         stop-opacity="1"
         id="stop9" />
    </linearGradient>
    <clipPath
       id="clipPath-275571731">
      <g
         transform="translate(0,-1004.3622)"
         id="g12">
        <path
           d="m -24,13 c 0,1.105 -0.672,2 -1.5,2 -0.828,0 -1.5,-0.895 -1.5,-2 0,-1.105 0.672,-2 1.5,-2 0.828,0 1.5,0.895 1.5,2 z"
           transform="matrix(15.333333,0,0,11.5,414.99999,878.8622)"
           id="path14"
           inkscape:connector-curvature="0"
           style="fill:#1890d0" />
      </g>
    </clipPath>
    <clipPath
       id="clipPath-284952804">
      <g
         transform="translate(0,-1004.3622)"
         id="g17">
        <path
           d="m -24,13 c 0,1.105 -0.672,2 -1.5,2 -0.828,0 -1.5,-0.895 -1.5,-2 0,-1.105 0.672,-2 1.5,-2 0.828,0 1.5,0.895 1.5,2 z"
           transform="matrix(15.333333,0,0,11.5,414.99999,878.8622)"
           id="path19"
           inkscape:connector-curvature="0"
           style="fill:#1890d0" />
      </g>
    </clipPath>
    <linearGradient
       inkscape:collect="always"
       xlink:href="#linearGradient3764"
       id="linearGradient3806"
       gradientUnits="userSpaceOnUse"
       gradientTransform="rotate(-90,23.999998,24)"
       x1="1"
       x2="47" />
  </defs>
  <ellipse
     style="opacity:1;fill:#00bbf2;fill-opacity:1;stroke:none;stroke-width:1.05355954;stroke-linecap:round;stroke-miterlimit:4;stroke-dasharray:none;stroke-opacity:1"
     id="path832"
     cx="253.39062"
     cy="262.10065"
     rx="204.79689"
     ry="202.6709" />
  <g
     id="g33"
     transform="matrix(4.051497,0,0,4.051497,-5.3989211,314.99598)" />
  <path
     style="fill:#394050;fill-opacity:1;stroke-width:0.95218617"
     d="M 230.61459,486.42172 C 172.63724,480.50522 115.81287,450.82707 79.529514,407.51319 50.629166,373.0129 33.099832,334.16112 26.6761,290.36955 24.431729,275.06939 24.443378,243.29161 26.698778,228.42189 31.065519,199.63245 40.339685,171.86413 53.252982,148.91437 97.02283,71.125749 178.2574,26.347636 266.40345,31.421567 c 56.35259,3.243821 107.17327,26.147883 147.56394,66.504682 35.99077,35.960521 57.5161,78.964551 65.31861,130.495641 2.28534,15.09301 2.28534,46.79904 0,61.89207 -7.70405,50.88047 -29.52289,94.61899 -64.86379,130.02729 -34.98901,35.05578 -78.15214,56.75915 -128.68313,64.70478 -11.37506,1.78863 -43.27636,2.58476 -55.12452,1.37569 z m 8.40769,-43.82909 c 6.16222,-1.71112 6.35121,-2.88393 6.35121,-39.41406 v -31.92882 h 7.61748 7.61749 v 31.92882 c 0,37.04048 0.11767,37.72143 6.83133,39.53081 5.12757,1.38193 16.26804,0.0113 31.80728,-3.91313 96.53904,-24.38126 157.904,-119.13872 140.86328,-217.51576 -2.06805,-11.93906 -7.16479,-29.72274 -9.52653,-33.24079 -2.62741,-3.91362 -7.30262,-4.50295 -10.66479,-1.34433 -2.78201,2.61354 -2.694,4.05545 1.00069,16.40482 5.80498,19.40259 6.68435,25.93371 6.743,50.07851 0.0607,25.00475 -0.9674,33.02098 -6.65641,51.89413 -15.89211,52.72197 -55.54561,94.90401 -107.3344,114.17875 -9.29857,3.46075 -24.77259,7.50681 -33.30559,8.70858 l -4.52288,0.63698 V 398.6459 368.69463 l 4.04679,-1.20898 c 2.22573,-0.66495 5.65361,-2.02694 7.61749,-3.02663 l 3.5707,-1.81764 v 17.96879 c 0,10.35739 0.43352,19.21239 1.02343,20.90461 1.12325,3.22213 4.51976,5.91803 7.45599,5.91803 3.19578,0 15.31913,-4.73092 25.81865,-10.07525 77.02933,-39.20864 108.77794,-133.2713 71.35639,-211.41005 -8.44996,-17.64419 -23.45761,-37.72369 -36.97753,-49.47413 -5.23946,-4.55372 -6.52892,-5.23582 -9.42726,-4.98684 -4.11416,0.35347 -7.4233,4.18104 -6.56643,7.59511 0.3086,1.22947 5.41032,7.15843 11.33714,13.17546 11.32394,11.49616 16.62616,18.35752 23.90628,30.93595 8.2642,14.27856 15.12244,34.27255 17.69968,51.60041 1.31608,8.84861 1.30973,31.79522 -0.0117,40.57922 -4.64503,30.88613 -17.58917,57.56829 -38.67897,79.73005 -12.97842,13.63808 -25.40105,22.72995 -42.17921,30.86995 l -9.04577,4.38862 -0.24991,-34.30447 -0.24992,-34.30446 2.79987,-3.86512 c 5.48809,-7.57608 5.69362,-18.00285 0.51027,-25.88656 -2.74504,-4.17516 -2.86959,-6.54542 -0.78584,-14.95652 2.22257,-8.97146 6.1622,-17.20834 13.6917,-28.6264 10.78708,-16.35793 10.85796,-21.3285 0.62059,-43.50522 -2.85513,-6.18501 -9.11911,-21.02271 -13.91991,-32.97269 -15.16002,-37.73566 -21.7016,-49.86847 -32.37766,-60.05171 -14.15828,-13.504715 -31.42939,-14.179312 -46.51612,-1.81687 -10.1343,8.3043 -21.05979,27.02306 -31.84132,54.55414 -3.38395,8.64109 -9.25723,23.63802 -13.0517,33.32651 -11.62883,29.69204 -11.78726,34.15286 -1.76132,49.59535 7.38539,11.37539 10.70275,18.4334 13.16403,28.00779 l 1.95822,7.61748 -2.13512,1.42828 c -8.12122,5.43264 -11.59272,11.52216 -11.51107,20.19211 0.067,7.11877 3.13787,13.39916 8.58179,17.55137 2.16782,1.65345 4.39979,3.15905 4.95994,3.34576 0.703,0.23433 0.94069,10.30472 0.76744,32.51304 l -0.25099,32.17355 -9.87689,-4.83034 c -14.95027,-7.31153 -25.86096,-15.21436 -38.7517,-28.06862 -20.82376,-20.76488 -32.94559,-43.00836 -39.71504,-72.87687 -2.82182,-12.45053 -3.03408,-44.76736 -0.37509,-57.10834 6.52184,-30.26954 21.00693,-56.85233 41.89758,-76.88977 4.49188,-4.30842 8.63966,-8.71656 9.21729,-9.79587 2.16171,-4.03918 -1.43339,-9.50794 -6.25039,-9.50794 -3.689,0 -11.01232,5.82743 -20.14555,16.03054 -44.26141,49.44619 -54.225557,118.99224 -25.46546,177.73929 18.17286,37.12096 50.37287,66.3914 87.85572,79.86262 8.07801,2.90322 9.89376,3.04436 12.99806,1.01034 3.67742,-2.40953 4.3226,-6.16642 4.3226,-25.17078 v -17.80804 l 7.59213,2.95321 7.59214,2.95319 0.0253,29.75581 c 0.0297,34.72646 2.01862,31.11245 -15.02012,27.29097 -14.77721,-3.31425 -24.92364,-6.93626 -39.70522,-14.1737 -48.73225,-23.86057 -82.59452,-67.65866 -94.388922,-122.0844 -1.989709,-9.1816 -2.528732,-14.74261 -2.936015,-30.29006 -0.58606,-22.37233 0.684029,-33.38618 6.056145,-52.51717 1.889078,-6.7273 3.646379,-13.43376 3.905121,-14.90328 1.019601,-5.79068 -7.621218,-9.88862 -11.594165,-5.49856 -2.384351,2.63468 -6.913586,16.82656 -9.613873,30.12403 -15.784299,77.72937 18.773054,157.58459 86.383219,199.61454 17.78173,11.05402 41.58641,20.48719 61.70425,24.45176 16.63275,3.27777 18.73594,3.44811 24.11875,1.9534 z M 199.8763,318.30169 c -9.47841,-4.83409 -10.54811,-20.0764 -1.84394,-26.27432 3.95565,-2.81667 11.70223,-3.4004 16.28245,-1.22693 9.83166,4.66541 11.11334,20.03656 2.19992,26.38348 -3.87509,2.75931 -12.30886,3.32589 -16.63843,1.11777 z m 83.79238,0 c -9.47841,-4.83409 -10.54811,-20.0764 -1.84394,-26.27432 3.95565,-2.81667 11.70223,-3.4004 16.28245,-1.22693 9.83166,4.66541 11.11334,20.03656 2.19992,26.38348 -3.87509,2.75931 -12.30886,3.32589 -16.63843,1.11777 z"
     id="path4487"
     inkscape:connector-curvature="0" />
</svg>
