<?xml version="1.0" encoding="UTF-8" standalone="no"?>
<!-- Created with Inkscape (http://www.inkscape.org/) -->

<svg
   xmlns:dc="http://purl.org/dc/elements/1.1/"
   xmlns:cc="http://creativecommons.org/ns#"
   xmlns:rdf="http://www.w3.org/1999/02/22-rdf-syntax-ns#"
   xmlns:svg="http://www.w3.org/2000/svg"
   xmlns="http://www.w3.org/2000/svg"
   xmlns:sodipodi="http://sodipodi.sourceforge.net/DTD/sodipodi-0.dtd"
   xmlns:inkscape="http://www.inkscape.org/namespaces/inkscape"
   id="svg2"
   version="1.1"
   inkscape:version="0.48.5 r10040"
   width="1057.605"
   height="1087.1788"
   xml:space="preserve"
   sodipodi:docname="gnome-color-chooser.svg"><metadata
     id="metadata8"><rdf:RDF><cc:Work
         rdf:about=""><dc:format>image/svg+xml</dc:format><dc:type
           rdf:resource="http://purl.org/dc/dcmitype/StillImage" /><dc:title /></cc:Work></rdf:RDF></metadata><defs
     id="defs6"><clipPath
       clipPathUnits="userSpaceOnUse"
       id="clipPath18"><path
         d="m 0,869.743 846.084,0 L 846.084,0 0,0 0,869.743 z"
         id="path20" /></clipPath><clipPath
       clipPathUnits="userSpaceOnUse"
       id="clipPath26"><path
         d="m 5.49902,671.195 591.50598,0 0,-667.9948 -591.50598,0 0,667.9948 z"
         id="path28" /></clipPath><clipPath
       clipPathUnits="userSpaceOnUse"
       id="clipPath30"><path
         d="M 597.005,304.94 295.265,3.2 5.499,293.592 383.102,671.195 597.005,304.94 z"
         id="path32" /></clipPath><linearGradient
       x1="0"
       y1="0"
       x2="1"
       y2="0"
       gradientUnits="userSpaceOnUse"
       gradientTransform="matrix(299.25885,299.25885,299.25885,-299.25885,188.31201,186.32617)"
       spreadMethod="pad"
       id="linearGradient34"><stop
         style="stop-opacity:1;stop-color:#ffffff"
         offset="0"
         id="stop36" /><stop
         style="stop-opacity:1;stop-color:#666666"
         offset="1"
         id="stop38" /></linearGradient><clipPath
       clipPathUnits="userSpaceOnUse"
       id="clipPath58"><path
         d="m 369.07,491.413 c 0,-66.643 54.024,-120.667 120.668,-120.667 l 0,0 c 66.642,0 120.665,54.024 120.665,120.667 l 0,0 c 0,66.643 -54.023,120.667 -120.665,120.667 l 0,0 c -66.644,0 -120.668,-54.024 -120.668,-120.667"
         id="path60" /></clipPath><radialGradient
       fx="0"
       fy="0"
       cx="0"
       cy="0"
       r="1"
       gradientUnits="userSpaceOnUse"
       gradientTransform="matrix(63.299149,102.7314,102.7314,-63.299149,489.73682,491.41309)"
       spreadMethod="pad"
       id="radialGradient66"><stop
         style="stop-opacity:1;stop-color:#231f20"
         offset="0"
         id="stop68" /><stop
         style="stop-opacity:1;stop-color:#ffffff"
         offset="1"
         id="stop70" /></radialGradient><clipPath
       clipPathUnits="userSpaceOnUse"
       id="clipPath78"><path
         d="m 0,869.743 846.084,0 L 846.084,0 0,0 0,869.743 z"
         id="path80" /></clipPath><clipPath
       clipPathUnits="userSpaceOnUse"
       id="clipPath86"><path
         d="m 282.937,682.186 410.232,0 0,-410.235 -410.232,0 0,410.235 z"
         id="path88" /></clipPath><clipPath
       clipPathUnits="userSpaceOnUse"
       id="clipPath106"><path
         d="m 120.506,581.805 545.111,0 0,-465.099 -545.111,0 0,465.099 z"
         id="path108" /></clipPath><linearGradient
       x1="0"
       y1="0"
       x2="1"
       y2="0"
       gradientUnits="userSpaceOnUse"
       gradientTransform="matrix(343.8056,343.8056,343.8056,-343.8056,267.87012,265.25098)"
       spreadMethod="pad"
       id="linearGradient114"><stop
         style="stop-opacity:1;stop-color:#ffffff"
         offset="0"
         id="stop116" /><stop
         style="stop-opacity:1;stop-color:#666666"
         offset="1"
         id="stop118" /></linearGradient><clipPath
       clipPathUnits="userSpaceOnUse"
       id="clipPath138"><path
         d="m 317.06,677.144 341.986,0 0,-394.153 -341.986,0 0,394.153 z"
         id="path140" /></clipPath><clipPath
       clipPathUnits="userSpaceOnUse"
       id="clipPath206"><path
         d="m 192.827,610.126 381.229,0 0,-421.201 -381.229,0 0,421.201 z"
         id="path208" /></clipPath><linearGradient
       x1="0"
       y1="0"
       x2="1"
       y2="0"
       gradientUnits="userSpaceOnUse"
       gradientTransform="matrix(204.29134,204.29134,204.29134,-204.29134,320.49463,319.16992)"
       spreadMethod="pad"
       id="linearGradient214"><stop
         style="stop-opacity:1;stop-color:#ffffff"
         offset="0"
         id="stop216" /><stop
         style="stop-opacity:1;stop-color:#666666"
         offset="1"
         id="stop218" /></linearGradient><clipPath
       clipPathUnits="userSpaceOnUse"
       id="clipPath238"><path
         d="m 362.825,603.126 243.626,0 0,-243.625 -243.626,0 0,243.625 z"
         id="path240" /></clipPath></defs><sodipodi:namedview
     pagecolor="#ffffff"
     bordercolor="#666666"
     borderopacity="1"
     objecttolerance="10"
     gridtolerance="10"
     guidetolerance="10"
     inkscape:pageopacity="0"
     inkscape:pageshadow="2"
     inkscape:window-width="1070"
     inkscape:window-height="676"
     id="namedview4"
     showgrid="false"
     inkscape:zoom="0.30699126"
     inkscape:cx="1023.689"
     inkscape:cy="677.04285"
     inkscape:window-x="248"
     inkscape:window-y="39"
     inkscape:window-maximized="0"
     inkscape:current-layer="g10" /><g
     id="g10"
     inkscape:groupmode="layer"
     inkscape:label="pixel77-free-vector-deco-flower-1105"
     transform="matrix(1.25,0,0,-1.25,0,1087.1788)"><path
       style="fill:#ff0000;fill-opacity:1;fill-rule:nonzero;stroke:none"
       d="m 483.99906,358.74434 c 0,0 -27.34441,-54.61592 -28.16943,-112.62206 -14.82722,52.66466 -49.44518,95.46753 -49.44518,95.46753 0,0 -57.95435,-19.28614 -99.55423,-59.72333 26.75347,47.72801 32.542,102.47247 32.542,102.47247 0,0 -54.61592,27.3425 -112.62398,28.16559 52.66658,14.82915 95.46945,49.44519 95.46945,49.44519 0,0 -19.28614,57.95435 -59.72333,99.55423 47.72609,-26.75347 102.47055,-32.542 102.47055,-32.542 0,0 27.3425,54.61783 28.16559,112.62398 14.83106,-52.66466 49.44519,-95.46753 49.44519,-95.46753 0,0 57.95243,19.28422 99.55231,59.71757 -26.75155,-47.72417 -32.53816,-102.46672 -32.53816,-102.46672 0,0 54.61399,-27.34249 112.62206,-28.16558 -52.66466,-14.83107 -95.46753,-49.44519 -95.46753,-49.44519 0,0 19.28806,-57.95627 59.72141,-99.55615 -47.72609,26.75347 -102.46672,32.542 -102.46672,32.542"
       id="path3437" /><path
       style="fill:#ff6600;fill-opacity:1;fill-rule:nonzero;stroke:none"
       d="m 818.02605,340.50578 c 0,0 -37.66092,113.20533 -118.09017,136.74892 -9.82918,2.87603 -19.84255,4.27088 -29.8444,4.52031 6.74976,2.17381 13.34796,4.93281 19.69673,8.40554 73.52216,40.22806 86.04894,158.87656 86.04894,158.87656 0,0 -106.67813,53.41485 -180.19645,13.18679 -8.98306,-4.91555 -17.05093,-11.00722 -24.30337,-17.9028 3.23865,6.30848 5.95161,12.92586 7.98728,19.8694 23.53976,80.4331 -51.49621,173.18959 -51.49621,173.18959 0,0 -113.20341,-37.66284 -136.747,-118.09593 -2.87604,-9.82726 -4.27281,-19.84062 -4.52223,-29.84248 -2.1719,6.75169 -4.93281,13.3518 -8.40555,19.69865 -40.22805,73.52216 -158.87272,86.04702 -158.87272,86.04702 0,0 -53.4206,-106.6762 -13.18871,-180.19645 4.91363,-8.98306 11.00722,-17.05092 17.90472,-24.30145 -6.31039,3.23866 -12.92777,5.95353 -19.87516,7.98536 -80.43309,23.54168 -173.183828,-51.49429 -173.183828,-51.49429 0,0 37.659003,-113.20724 118.092098,-136.74892 9.82725,-2.87603 19.83678,-4.27088 29.83864,-4.52031 -6.74977,-2.17189 -13.34796,-4.93281 -19.69481,-8.40554 C 85.651688,357.29577 73.126827,238.65111 73.126827,238.65111 c 0,0 106.676203,-53.41869 180.198363,-13.18871 8.98306,4.91554 17.04901,11.00722 24.29762,17.9028 -3.23866,-6.3104 -5.95353,-12.92778 -7.98537,-19.87132 -23.54167,-80.4331 51.49814,-173.185755 51.49814,-173.185755 0,0 113.2034,37.660922 136.74891,118.092095 2.87412,9.82726 4.27089,19.8387 4.51839,29.84248 2.17382,-6.75169 4.9309,-13.34796 8.40555,-19.69481 40.2319,-73.52216 158.87656,-86.05086 158.87656,-86.05086 0,0 53.41293,106.67812 13.18679,180.19645 -4.91747,8.98498 -11.01106,17.05092 -17.90472,24.30145 6.3104,-3.23866 12.92778,-5.95161 19.87132,-7.98536 80.43309,-23.54168 173.18767,51.49621 173.18767,51.49621"
       id="path100" /><g
       id="g174"
       transform="matrix(1.9186368,0,0,1.9186368,519.94357,657.78192)"
       style="fill:#ffcc00;fill-opacity:1"><path
         d="m 0,0 c 0,-47.22 -55.256,-85.5 -55.256,-85.5 0,0 -55.254,38.28 -55.254,85.5 0,47.22 55.254,85.5 55.254,85.5 C -55.256,85.5 0,47.22 0,0"
         style="fill:#ffcc00;fill-opacity:1;fill-rule:nonzero;stroke:none"
         id="path176"
         inkscape:connector-curvature="0" /></g><g
       id="g178"
       transform="matrix(1.9186368,0,0,1.9186368,286.94451,633.48967)"
       style="fill:#ffcc00;fill-opacity:1"><path
         d="m 0,0 c 40.895,-23.61 46.418,-90.602 46.418,-90.602 0,0 -60.778,-28.712 -101.673,-5.102 -40.893,23.61 -46.418,90.602 -46.418,90.602 0,0 60.779,28.712 101.673,5.102"
         style="fill:#ffcc00;fill-opacity:1;fill-rule:nonzero;stroke:none"
         id="path180"
         inkscape:connector-curvature="0" /></g><g
       id="g182"
       transform="matrix(1.9186368,0,0,1.9186368,191.48293,419.56168)"
       style="fill:#ffcc00;fill-opacity:1"><path
         d="m 0,0 c 40.895,23.61 101.673,-5.102 101.673,-5.102 0,0 -5.524,-66.992 -46.418,-90.602 -40.894,-23.609 -101.673,5.101 -101.673,5.101 0,0 5.524,66.994 46.418,90.603"
         style="fill:#ffcc00;fill-opacity:1;fill-rule:nonzero;stroke:none"
         id="path184"
         inkscape:connector-curvature="0" /></g><g
       id="g186"
       transform="matrix(1.9186368,0,0,1.9186368,329.01964,229.92592)"
       style="fill:#ffcc00;fill-opacity:1"><path
         d="m 0,0 c 0,47.221 55.254,85.5 55.254,85.5 0,0 55.256,-38.279 55.256,-85.5 C 110.508,-47.22 55.254,-85.501 55.254,-85.501 55.254,-85.501 0,-47.22 0,0"
         style="fill:#ffcc00;fill-opacity:1;fill-rule:nonzero;stroke:none"
         id="path188"
         inkscape:connector-curvature="0" /></g><g
       id="g190"
       transform="matrix(1.9186368,0,0,1.9186368,562.01869,254.21797)"
       style="fill:#ffcc00;fill-opacity:1"><path
         d="m 0,0 c -40.895,23.61 -46.418,90.603 -46.418,90.603 0,0 60.777,28.711 101.672,5.101 C 96.146,72.094 101.672,5.102 101.672,5.102 101.672,5.102 40.893,-23.61 0,0"
         style="fill:#ffcc00;fill-opacity:1;fill-rule:nonzero;stroke:none"
         id="path192"
         inkscape:connector-curvature="0" /></g><g
       id="g194"
       transform="matrix(1.9186368,0,0,1.9186368,657.47836,468.14597)"
       style="fill:#ffcc00;fill-opacity:1"><path
         d="m 0,0 c -40.895,-23.61 -101.672,5.103 -101.672,5.103 0,0 5.524,66.991 46.418,90.602 C -14.361,119.313 46.418,90.602 46.418,90.602 46.418,90.602 40.895,23.61 0,0"
         style="fill:#ffcc00;fill-opacity:1;fill-rule:nonzero;stroke:none"
         id="path196"
         inkscape:connector-curvature="0" /></g><g
       id="g198"
       transform="matrix(1.9186368,0,0,1.9186368,556.83991,443.85392)"
       style="fill:#00bbf2;fill-opacity:1"><path
         d="m 0,0 c 0,-38.1 -30.887,-68.985 -68.986,-68.985 -38.099,0 -68.985,30.885 -68.985,68.985 0,38.1 30.886,68.986 68.985,68.986 C -30.887,68.986 0,38.1 0,0"
         style="fill:#00bbf2;fill-opacity:1;fill-rule:nonzero;stroke:none"
         id="path200"
         inkscape:connector-curvature="0" /></g><g
       id="g262"
       transform="matrix(1.9186368,0,0,1.9186368,591.85503,461.46816)"
       style="fill:#672178"><path
         d="m 0,0 c -32.314,-20.806 -87.65,-8.936 -87.65,-8.936 0,0 6.646,63.752 38.959,84.559 32.312,20.804 82.853,-0.14 82.853,-0.14 C 34.162,75.483 32.313,20.804 0,0"
         style="fill:#672178;fill-opacity:1;fill-rule:nonzero;stroke:none"
         id="path264"
         inkscape:connector-curvature="0" /></g><g
       id="g266"
       transform="matrix(1.9186368,0,0,1.9186368,406.54158,612.49346)"
       style="fill:#45d03f;fill-opacity:1"><path
         d="m 0,0 c 20.805,-32.313 8.936,-87.65 8.936,-87.65 0,0 -63.753,6.646 -84.559,38.959 -20.804,32.313 0.14,82.853 0.14,82.853 0,0 54.678,-1.849 75.483,-34.162"
         style="fill:#45d03f;fill-opacity:1;fill-rule:nonzero;stroke:none"
         id="path268"
         inkscape:connector-curvature="0" /></g><g
       id="g270"
       transform="matrix(1.9186368,0,0,1.9186368,255.51551,427.18001)"
       style="fill:#004455;fill-opacity:1"><path
         d="m 0,0 c 32.313,20.806 87.651,8.936 87.651,8.936 0,0 -6.647,-63.752 -38.96,-84.558 -32.313,-20.805 -82.853,0.14 -82.853,0.14 0,0 1.849,54.677 34.162,75.482"
         style="fill:#004455;fill-opacity:1;fill-rule:nonzero;stroke:none"
         id="path272"
         inkscape:connector-curvature="0" /></g><g
       id="g274"
       transform="matrix(1.9186368,0,0,1.9186368,440.82973,276.1549)"
       style="fill:#f03916;fill-opacity:1"><path
         d="m 0,0 c -20.807,32.313 -8.936,87.65 -8.936,87.65 0,0 63.752,-6.646 84.557,-38.959 20.805,-32.313 -0.139,-82.853 -0.139,-82.853 0,0 -54.677,1.849 -75.482,34.162"
         style="fill:#f03916;fill-opacity:1;fill-rule:nonzero;stroke:none"
         id="path276"
         inkscape:connector-curvature="0" /></g></g></svg>