<?xml version="1.0" encoding="UTF-8" standalone="no"?>
<!-- Created using Karbon, part of Calligra: http://www.calligra.org/karbon -->

<svg
   xmlns:dc="http://purl.org/dc/elements/1.1/"
   xmlns:cc="http://creativecommons.org/ns#"
   xmlns:rdf="http://www.w3.org/1999/02/22-rdf-syntax-ns#"
   xmlns:svg="http://www.w3.org/2000/svg"
   xmlns="http://www.w3.org/2000/svg"
   xmlns:sodipodi="http://sodipodi.sourceforge.net/DTD/sodipodi-0.dtd"
   xmlns:inkscape="http://www.inkscape.org/namespaces/inkscape"
   width="38.4pt"
   height="38.4pt"
   id="svg2"
   version="1.1"
   inkscape:version="0.91 r13725"
   sodipodi:docname="gnome-emacs.svg">
  <metadata
     id="metadata16">
    <rdf:RDF>
      <cc:Work
         rdf:about="">
        <dc:format>image/svg+xml</dc:format>
        <dc:type
           rdf:resource="http://purl.org/dc/dcmitype/StillImage" />
        <dc:title />
      </cc:Work>
    </rdf:RDF>
  </metadata>
  <sodipodi:namedview
     pagecolor="#ffffff"
     bordercolor="#666666"
     borderopacity="1"
     objecttolerance="10"
     gridtolerance="10"
     guidetolerance="10"
     inkscape:pageopacity="0"
     inkscape:pageshadow="2"
     inkscape:window-width="1366"
     inkscape:window-height="715"
     id="namedview14"
     showgrid="false"
     inkscape:showpageshadow="false"
     borderlayer="true"
     inkscape:zoom="3.4766083"
     inkscape:cx="-18.873494"
     inkscape:cy="20.849705"
     inkscape:window-x="0"
     inkscape:window-y="24"
     inkscape:window-maximized="1"
     inkscape:current-layer="svg2" />
  <defs
     id="defs4" />
  <g
     id="g4146">
    <rect
       ry="22.732548"
       y="1.411271"
       x="1.411271"
       height="45.465096"
       width="45.465096"
       id="rect4090"
       style="fill:#892ca0;fill-opacity:1;stroke:none" />
    <path
       sodipodi:nodetypes="csscsscsssccsc"
       inkscape:connector-curvature="0"
       id="path3786"
       d="m 25.572264,10.783791 c 13.64658,2.282556 7.325246,4.178857 -3.312923,2.11635 -2.747885,-0.532753 -4.153089,-0.156912 -4.626452,0.489073 -2.091588,2.854325 5.159917,7.734145 8.532357,9.728919 -16.3739439,-4.080596 -23.8515544,7.108295 -2.622225,11.713372 1.816438,0.394023 5.300358,0.535387 5.290647,1.057717 -0.01046,0.561503 -8.951298,0.608501 -13.67154,0.753013 3.220428,0.86091 10.96175,1.447359 15.99641,0.970472 4.892707,-0.463441 7.032547,-2.124015 0.859015,-3.641566 C 28.832975,33.188323 16.350089,30.821476 17.665832,28.298858 19.58688,24.615712 27.888966,25.502994 32.720998,24.999594 20.82893,16.825745 18.130867,14.897697 34.269341,17.003673 c 4.222095,0.936947 5.631866,-6.205118 -1.449936,-6.487426 -1.560056,-0.06218 -4.890207,0.131856 -7.247141,0.267544 z"
       style="fill:#ffffff;fill-opacity:1;stroke:none" />
  </g>
</svg>
