<?xml version="1.0" encoding="UTF-8" standalone="no"?>
<!-- Generator: Adobe Illustrator 19.0.0, SVG Export Plug-In . SVG Version: 6.00 Build 0)  -->

<svg
   xmlns:dc="http://purl.org/dc/elements/1.1/"
   xmlns:cc="http://creativecommons.org/ns#"
   xmlns:rdf="http://www.w3.org/1999/02/22-rdf-syntax-ns#"
   xmlns:svg="http://www.w3.org/2000/svg"
   xmlns="http://www.w3.org/2000/svg"
   xmlns:sodipodi="http://sodipodi.sourceforge.net/DTD/sodipodi-0.dtd"
   xmlns:inkscape="http://www.inkscape.org/namespaces/inkscape"
   version="1.1"
   id="Layer_1"
   x="0px"
   y="0px"
   viewBox="0 0 500 500"
   xml:space="preserve"
   inkscape:version="0.92.2 (5c3e80d, 2017-08-06)"
   width="100%"
   height="100%"
   sodipodi:docname="gnome-session-hibernate.svg"><metadata
     id="metadata57"><rdf:RDF><cc:Work
         rdf:about=""><dc:format>image/svg+xml</dc:format><dc:type
           rdf:resource="http://purl.org/dc/dcmitype/StillImage" /></cc:Work></rdf:RDF></metadata><defs
     id="defs55" /><sodipodi:namedview
     pagecolor="#ffffff"
     bordercolor="#666666"
     borderopacity="1"
     objecttolerance="10"
     gridtolerance="10"
     guidetolerance="10"
     inkscape:pageopacity="0"
     inkscape:pageshadow="2"
     inkscape:window-width="1366"
     inkscape:window-height="715"
     id="namedview53"
     showgrid="false"
     inkscape:zoom="0.51699999"
     inkscape:cx="569.79815"
     inkscape:cy="70.221272"
     inkscape:window-x="0"
     inkscape:window-y="24"
     inkscape:window-maximized="1"
     inkscape:current-layer="Layer_1" /><g
     id="g23"
     transform="translate(0,39.767)" /><g
     id="g25"
     transform="translate(0,39.767)" /><g
     id="g27"
     transform="translate(0,39.767)" /><g
     id="g29"
     transform="translate(0,39.767)" /><g
     id="g31"
     transform="translate(0,39.767)" /><g
     id="g33"
     transform="translate(0,39.767)" /><g
     id="g35"
     transform="translate(0,39.767)" /><g
     id="g37"
     transform="translate(0,39.767)" /><g
     id="g39"
     transform="translate(0,39.767)" /><g
     id="g41"
     transform="translate(0,39.767)" /><g
     id="g43"
     transform="translate(0,39.767)" /><g
     id="g45"
     transform="translate(0,39.767)" /><g
     id="g47"
     transform="translate(0,39.767)" /><g
     id="g49"
     transform="translate(0,39.767)" /><g
     id="g51"
     transform="translate(0,39.767)" /><g
     id="g833"><path
       id="path4082"
       d="M 238.63593,22.727268 V 204.54545 h 22.72728 V 22.727268 Z M 204.5455,62.500791 C 113.51305,83.212859 45.454591,164.06063 45.454591,261.36443 c 0,112.96734 91.578119,204.54546 204.545459,204.54546 52.46391,0 100.19943,-20.06596 136.36364,-52.55682 l -18.46591,-13.49432 c -31.80532,26.9182 -72.96512,43.32386 -117.89773,43.32386 -100.41541,0 -181.818186,-81.40277 -181.818186,-181.81818 0,-84.76066 57.886906,-155.99191 136.363636,-176.136366 z m 90.90909,0 v 22.727273 c 18.58312,4.770161 36.06778,12.7266 51.8466,22.727276 3.71929,-5.44801 9.34306,-13.455019 12.78409,-18.465912 -19.52621,-12.43843 -41.34262,-21.690041 -64.63069,-26.988637 z m 82.38637,39.772729 c -3.44639,5.01948 -9.06148,13.01256 -12.78409,18.46591 14.125,11.61639 26.78868,25.14797 36.93182,40.48295 l 19.17613,-11.36363 c -11.877,-18.05841 -26.48307,-34.12352 -43.32386,-47.58523 z m 54.6875,66.76136 -19.88636,12.78409 c 8.70647,17.6758 15.04038,36.60239 17.75568,56.81819 h 22.72727 c -2.69518,-24.92871 -9.62902,-48.20781 -20.59659,-69.60228 z m -0.71023,92.32955 c 0,18.03461 -2.92245,35.39998 -7.8125,51.84659 l 20.59659,10.65341 c 6.286,-19.65975 9.94319,-40.75452 9.94319,-62.5 z m -14.91477,73.15341 c -8.05407,18.39918 -19.27091,35.13473 -32.67046,49.71591 l 17.75569,12.78409 c 13.97497,-15.68539 26.13609,-33.10736 34.80113,-52.55682 z"
       style="fill:#f03916;fill-opacity:1;stroke:none;stroke-width:22.72727394"
       inkscape:connector-curvature="0"
       sodipodi:nodetypes="ccccccssccssccccccccccccccccccccccccccc" /><rect
       y="-5.9999998e-06"
       x="1.1476169e-13"
       height="500"
       width="500"
       id="rect4123"
       style="fill:#ff0000;fill-opacity:0;stroke:none;stroke-width:22.72727394" /></g></svg>