<?xml version="1.0" encoding="UTF-8" standalone="no"?>
<!-- Created with Inkscape (http://www.inkscape.org/) -->

<svg
   xmlns:dc="http://purl.org/dc/elements/1.1/"
   xmlns:cc="http://creativecommons.org/ns#"
   xmlns:rdf="http://www.w3.org/1999/02/22-rdf-syntax-ns#"
   xmlns:svg="http://www.w3.org/2000/svg"
   xmlns="http://www.w3.org/2000/svg"
   xmlns:sodipodi="http://sodipodi.sourceforge.net/DTD/sodipodi-0.dtd"
   xmlns:inkscape="http://www.inkscape.org/namespaces/inkscape"
   width="512"
   height="512"
   id="svg2"
   version="1.1"
   inkscape:version="0.48.5 r10040"
   sodipodi:docname="applications-internet.svg">
  <defs
     id="defs4">
    <radialGradient
       id="polygon413_1_"
       cx="7976.3457"
       cy="-10508.842"
       r="13293.867"
       gradientTransform="matrix(0.0222,0,0,-0.0248,721.1671,674.6745)"
       gradientUnits="userSpaceOnUse">
      <stop
         offset="0"
         style="stop-color:#80FF80"
         id="stop388" />
      <stop
         offset="1"
         style="stop-color:#0f0"
         id="stop390" />
    </radialGradient>
    <radialGradient
       id="polygon413_1_-6"
       cx="7976.3457"
       cy="-10508.842"
       r="13293.867"
       gradientTransform="matrix(0.0222,0,0,-0.0248,721.1671,674.6745)"
       gradientUnits="userSpaceOnUse">
      <stop
         offset="0"
         style="stop-color:#80FF80"
         id="stop388-7" />
      <stop
         offset="1"
         style="stop-color:#0f0"
         id="stop390-5" />
    </radialGradient>
    <radialGradient
       id="polygon413_1_-9"
       cx="7976.3457"
       cy="-10508.842"
       r="13293.867"
       gradientTransform="matrix(0.0222,0,0,-0.0248,721.1671,674.6745)"
       gradientUnits="userSpaceOnUse">
      <stop
         offset="0"
         style="stop-color:#80FF80"
         id="stop388-2" />
      <stop
         offset="1"
         style="stop-color:#0f0"
         id="stop390-0" />
    </radialGradient>
    <radialGradient
       id="polygon413_1_-4"
       cx="7976.3457"
       cy="-10508.842"
       r="13293.867"
       gradientTransform="matrix(0.0222,0,0,-0.0248,721.1671,674.6745)"
       gradientUnits="userSpaceOnUse">
      <stop
         offset="0"
         style="stop-color:#80FF80"
         id="stop388-5" />
      <stop
         offset="1"
         style="stop-color:#0f0"
         id="stop390-03" />
    </radialGradient>
    <radialGradient
       id="polygon413_1_-5"
       cx="7976.3457"
       cy="-10508.842"
       r="13293.867"
       gradientTransform="matrix(0.0222,0,0,-0.0248,721.1671,674.6745)"
       gradientUnits="userSpaceOnUse">
      <stop
         offset="0"
         style="stop-color:#80FF80"
         id="stop388-25" />
      <stop
         offset="1"
         style="stop-color:#0f0"
         id="stop390-4" />
    </radialGradient>
    <radialGradient
       id="polygon413_1_-49"
       cx="7976.3457"
       cy="-10508.842"
       r="13293.867"
       gradientTransform="matrix(0.0222,0,0,-0.0248,721.1671,674.6745)"
       gradientUnits="userSpaceOnUse">
      <stop
         offset="0"
         style="stop-color:#80FF80"
         id="stop388-50" />
      <stop
         offset="1"
         style="stop-color:#0f0"
         id="stop390-48" />
    </radialGradient>
  </defs>
  <sodipodi:namedview
     id="base"
     pagecolor="#ffffff"
     bordercolor="#666666"
     borderopacity="1.0"
     inkscape:pageopacity="0.0"
     inkscape:pageshadow="2"
     inkscape:zoom="0.49497475"
     inkscape:cx="710.25839"
     inkscape:cy="392.85564"
     inkscape:document-units="px"
     inkscape:current-layer="layer1"
     showgrid="false"
     inkscape:window-width="1366"
     inkscape:window-height="716"
     inkscape:window-x="0"
     inkscape:window-y="0"
     inkscape:window-maximized="1" />
  <metadata
     id="metadata7">
    <rdf:RDF>
      <cc:Work
         rdf:about="">
        <dc:format>image/svg+xml</dc:format>
        <dc:type
           rdf:resource="http://purl.org/dc/dcmitype/StillImage" />
        <dc:title />
      </cc:Work>
    </rdf:RDF>
  </metadata>
  <g
     inkscape:label="Layer 1"
     inkscape:groupmode="layer"
     id="layer1"
     transform="translate(0,-540.36218)">
    <path
       style="fill:#e6e6e6;stroke:none"
       d="m 348.2433,701.47645 79.8512,79.85114 39.77014,-37.906 -79.85104,-78.919 z"
       id="path4247"
       inkscape:connector-curvature="0" />
    <rect
       style="fill:#394050;fill-opacity:1;stroke:none"
       id="rect3356"
       width="182.35223"
       height="145.4424"
       x="93.185135"
       y="637.91681"
       rx="12.438584"
       ry="11.902645" />
    <path
       style="fill:#e6e6e6;stroke:none"
       d="m 113.75514,769.12998 -4.17431,-4.28416 0.10976,-27.90211 3.95464,-1.86746 -0.21968,-21.75045 -3.84478,-2.08717 0.10976,-21.86029 3.95464,-3.73493 29.65971,0 0.76894,-16.03823 15.26926,0.21972 1.64778,-15.70864 47.45551,-0.21972 2.08717,16.03822 14.82985,-0.10977 1.20835,15.92838 29.33012,-0.21972 4.0643,4.06449 0.21979,21.97015 -4.06451,1.7576 0.10961,21.57613 4.34983,0.77677 -0.62134,27.96343 -3.57312,4.81593 z"
       id="path3358"
       inkscape:connector-curvature="0" />
    <rect
       style="fill:#d4aa00;fill-opacity:1;stroke:none"
       id="rect4128"
       width="8.3486443"
       height="39.985664"
       x="140.36888"
       y="728.99866"
       rx="4.1743221"
       ry="0" />
    <rect
       style="fill:#d4aa00;fill-opacity:1;stroke:none"
       id="rect4128-1"
       width="8.3486443"
       height="39.985664"
       x="156.51308"
       y="728.88525"
       rx="4.1743221"
       ry="0" />
    <rect
       style="fill:#d4aa00;fill-opacity:1;stroke:none"
       id="rect4128-5"
       width="8.3486443"
       height="39.985664"
       x="174.17293"
       y="728.86902"
       rx="4.1743221"
       ry="0" />
    <rect
       style="fill:#d4aa00;fill-opacity:1;stroke:none"
       id="rect4128-1-9"
       width="8.3486443"
       height="39.985664"
       x="190.31712"
       y="728.81036"
       rx="4.1743221"
       ry="0" />
    <rect
       style="fill:#d4aa00;fill-opacity:1;stroke:none"
       id="rect4128-7"
       width="8.3486443"
       height="39.985668"
       x="753.8468"
       y="202.07153"
       rx="4.1743221"
       ry="0"
       transform="matrix(0.70771989,0.70649315,-0.70649315,0.70771989,0,0)" />
    <path
       style="fill:#cccccc;stroke:none"
       d="m 277.92784,757.34335 102.38075,-101.50209 10.76539,10.76538 -32.29602,32.07642 72.28176,72.72118 33.17487,-32.0764 L 475,750.53259 369.06053,856.51816 z"
       id="path4192"
       inkscape:connector-curvature="0" />
    <rect
       style="fill:#d4aa00;fill-opacity:1;stroke:none"
       id="rect4128-1-3"
       width="8.3486443"
       height="39.985668"
       x="769.99109"
       y="201.95816"
       rx="4.1743221"
       ry="0"
       transform="matrix(0.70771989,0.70649315,-0.70649315,0.70771989,0,0)" />
    <path
       style="fill:#808080;stroke:none"
       d="m 93.322921,734.0876 c 0,0 -25.35808,19.16394 -34.91047,31.08776 -9.55236,11.92381 -18.69239,25.4849 -25.10033,42.01619 -5.85128,15.09516 -7.76774,30.90422 -8.09666,36.19754 -0.32891,5.29335 -0.82206,27.53073 3.14924,41.0826 6.62243,22.59855 19.67821,41.59108 24.09374,46.79798 4.41551,5.20689 17.86071,19.64524 29.41956,25.97004 20.841799,11.404 44.159579,14.9742 52.529089,15.114 8.36951,0.1401 34.00072,-1.3901 50.33367,-9.686 24.1425,-12.2629 42.16065,-32.88102 42.16065,-32.88102 l 19.55343,19.55342 13.40176,-8.843 -21.75038,-21.97012 8.34862,-8.29373 23.50804,23.45313 13.56655,-8.84299 -25.86977,-25.75999 8.40349,-8.51344 27.46264,27.51761 13.56652,-8.95282 -29.93422,-29.60479 8.56838,-8.45852 31.36237,31.41734 13.56653,-8.95285 -33.77915,-33.77911 8.56837,-8.56835 35.15232,35.37193 47.34552,-31.1976 9.88673,-12.63282 -112.00856,-111.86573 -12.42827,9.8649 -31.45876,47.30479 35.34267,35.42035 -8.46675,8.31136 -33.86676,-33.71147 -8.93279,13.59334 31.5366,31.53653 -8.31141,8.4667 -29.82765,-29.82766 -9.08811,13.43801 27.49736,27.57504 -8.38903,8.69973 -25.78849,-26.02153 -8.93275,13.67101 23.69124,23.45822 -8.62207,8.62205 -21.90467,-21.98237 -9.01048,13.51564 19.80745,19.65212 c 0,0 -24.32781,29.69559 -54.97479,32.55566 -27.23332,2.5415 -42.33873,-9.33373 -52.296039,-16.08833 -9.95731,-6.7546 -26.28076,-21.61484 -34.17753,-51.57699 -7.8968,-29.96213 4.98509,-65.22569 15.53523,-82.02607 10.55014,-16.80036 20.56575,-19.80973 20.56575,-19.80973 z"
       id="path4190"
       inkscape:connector-curvature="0"
       sodipodi:nodetypes="czszszszsccccccccccccccccccccccccccccccccccccccccszzzcc" />
    <rect
       style="fill:#d4aa00;fill-opacity:1;stroke:none"
       id="rect4128-5-7"
       width="8.3486443"
       height="39.985664"
       x="207.05956"
       y="728.71729"
       rx="4.1743221"
       ry="0" />
    <rect
       style="fill:#d4aa00;fill-opacity:1;stroke:none"
       id="rect4128-1-9-7"
       width="8.3486443"
       height="39.985664"
       x="223.20378"
       y="728.60382"
       rx="4.1743221"
       ry="0" />
    <rect
       style="fill:#d4aa00;fill-opacity:1;stroke:none"
       id="rect4128-5-6"
       width="8.3486443"
       height="39.985668"
       x="787.65082"
       y="201.94191"
       rx="4.1743221"
       ry="0"
       transform="matrix(0.70771989,0.70649315,-0.70649315,0.70771989,0,0)" />
    <rect
       style="fill:#d4aa00;fill-opacity:1;stroke:none"
       id="rect4128-5-7-6"
       width="8.3486443"
       height="39.985668"
       x="820.5376"
       y="201.79022"
       rx="4.1743221"
       ry="0"
       transform="matrix(0.70771989,0.70649315,-0.70649315,0.70771989,0,0)" />
    <rect
       style="fill:#d4aa00;fill-opacity:1;stroke:none"
       id="rect4128-1-9-5"
       width="8.3486443"
       height="39.985668"
       x="803.79498"
       y="201.88336"
       rx="4.1743221"
       ry="0"
       transform="matrix(0.70771989,0.70649315,-0.70649315,0.70771989,0,0)" />
    <path
       style="fill:#666666;stroke:none"
       d="m 318.07746,829.10846 -17.57623,-17.13671 40.16511,-38.73541 -8.85513,-14.44778 43.49867,-43.18797 39.30419,39.30418 -43.65403,43.49865 -13.67095,-8.54438 z"
       id="path4194"
       inkscape:connector-curvature="0" />
    <rect
       style="fill:#d4aa00;fill-opacity:1;stroke:none"
       id="rect4128-1-9-7-3"
       width="8.3486443"
       height="39.985668"
       x="836.68188"
       y="201.67671"
       rx="4.1743221"
       ry="0"
       transform="matrix(0.70771989,0.70649315,-0.70649315,0.70771989,0,0)" />
  </g>
</svg>
