<?xml version="1.0" encoding="UTF-8" standalone="no"?>
<!-- Generator: Adobe Illustrator 19.0.0, SVG Export Plug-In . SVG Version: 6.00 Build 0)  -->

<svg
   xmlns:dc="http://purl.org/dc/elements/1.1/"
   xmlns:cc="http://creativecommons.org/ns#"
   xmlns:rdf="http://www.w3.org/1999/02/22-rdf-syntax-ns#"
   xmlns:svg="http://www.w3.org/2000/svg"
   xmlns="http://www.w3.org/2000/svg"
   xmlns:sodipodi="http://sodipodi.sourceforge.net/DTD/sodipodi-0.dtd"
   xmlns:inkscape="http://www.inkscape.org/namespaces/inkscape"
   version="1.1"
   id="Layer_1"
   x="0px"
   y="0px"
   viewBox="0 0 500 500"
   xml:space="preserve"
   inkscape:version="0.91 r13725"
   width="100%"
   height="100%"
   sodipodi:docname="gvrng.svg"><metadata
     id="metadata57"><rdf:RDF><cc:Work
         rdf:about=""><dc:format>image/svg+xml</dc:format><dc:type
           rdf:resource="http://purl.org/dc/dcmitype/StillImage" /></cc:Work></rdf:RDF></metadata><defs
     id="defs55" /><sodipodi:namedview
     pagecolor="#ffffff"
     bordercolor="#666666"
     borderopacity="1"
     objecttolerance="10"
     gridtolerance="10"
     guidetolerance="10"
     inkscape:pageopacity="0"
     inkscape:pageshadow="2"
     inkscape:window-width="1366"
     inkscape:window-height="715"
     id="namedview53"
     showgrid="false"
     inkscape:zoom="0.37165185"
     inkscape:cx="457.91132"
     inkscape:cy="273.53914"
     inkscape:window-x="0"
     inkscape:window-y="24"
     inkscape:window-maximized="1"
     inkscape:current-layer="Layer_1" /><g
     id="g23"
     transform="translate(0,39.767)" /><g
     id="g25"
     transform="translate(0,39.767)" /><g
     id="g27"
     transform="translate(0,39.767)" /><g
     id="g29"
     transform="translate(0,39.767)" /><g
     id="g31"
     transform="translate(0,39.767)" /><g
     id="g33"
     transform="translate(0,39.767)" /><g
     id="g35"
     transform="translate(0,39.767)" /><g
     id="g37"
     transform="translate(0,39.767)" /><g
     id="g39"
     transform="translate(0,39.767)" /><g
     id="g41"
     transform="translate(0,39.767)" /><g
     id="g43"
     transform="translate(0,39.767)" /><g
     id="g45"
     transform="translate(0,39.767)" /><g
     id="g47"
     transform="translate(0,39.767)" /><g
     id="g49"
     transform="translate(0,39.767)" /><g
     id="g51"
     transform="translate(0,39.767)" /><g
     id="g4253"
     transform="matrix(1.3697462,0,0,1.3697462,41.752368,-186.71468)"><g
       id="flowRoot3360-3"
       style="font-style:normal;font-weight:normal;font-size:40px;line-height:125%;font-family:sans-serif;letter-spacing:0px;word-spacing:0px;fill:#00bbf2;fill-opacity:1;stroke:none;stroke-width:1px;stroke-linecap:butt;stroke-linejoin:miter;stroke-opacity:1"
       transform="matrix(1.8483097,0,0,1.8483097,38.052688,171.44189)"><path
         inkscape:connector-curvature="0"
         id="path4224"
         style="font-style:normal;font-variant:normal;font-weight:bold;font-stretch:normal;font-size:80px;font-family:sans-serif;-inkscape-font-specification:'sans-serif Bold';fill:#00bbf2;fill-opacity:1"
         d="m 10.724609,128.83173 13.984375,0 10.898438,30.23437 10.859375,-30.23437 14.023437,0 -17.226562,43.75 -15.351563,0 -17.1875,-43.75 z" /></g><g
       id="flowRoot3360-3-3"
       style="font-style:normal;font-weight:normal;font-size:40px;line-height:125%;font-family:sans-serif;letter-spacing:0px;word-spacing:0px;fill:#00bbf2;fill-opacity:1;stroke:none;stroke-width:1px;stroke-linecap:butt;stroke-linejoin:miter;stroke-opacity:1"
       transform="matrix(1.8483097,0,0,1.8483097,134.89502,170.35697)"><path
         inkscape:connector-curvature="0"
         id="path4221"
         style="font-style:normal;font-variant:normal;font-weight:bold;font-stretch:normal;font-size:80px;font-family:sans-serif;-inkscape-font-specification:'sans-serif Bold';fill:#00bbf2;fill-opacity:1"
         d="m 38.224609,140.12079 q 4.726563,0 6.757813,-1.75781 2.070312,-1.75781 2.070312,-5.78125 0,-3.98438 -2.070312,-5.70313 -2.03125,-1.71875 -6.757813,-1.71875 l -6.328125,0 0,14.96094 6.328125,0 z m -6.328125,10.39063 0,22.07031 -15.039062,0 0,-58.32031 22.96875,0 q 11.523437,0 16.875,3.86718 5.390625,3.86719 5.390625,12.22657 0,5.78125 -2.8125,9.49218 -2.773438,3.71094 -8.398438,5.46875 3.085938,0.70313 5.507813,3.20313 2.460937,2.46094 4.960937,7.5 l 8.164063,16.5625 -16.015625,0 -7.109375,-14.49219 q -2.148438,-4.375 -4.375,-5.97656 -2.1875,-1.60156 -5.859375,-1.60156 l -4.257813,0 z" /></g><g
       id="g4247"><g
         transform="matrix(1.4844346,0,0,1.4844346,75.616061,69.157603)"
         style="font-style:normal;font-weight:normal;font-size:49.80508423px;line-height:125%;font-family:sans-serif;letter-spacing:0px;word-spacing:0px;fill:#00bbf2;fill-opacity:1;stroke:none;stroke-width:1px;stroke-linecap:butt;stroke-linejoin:miter;stroke-opacity:1"
         id="flowRoot3360"><path
           inkscape:connector-curvature="0"
           d="m 82.952909,181.73912 q -7.00384,3.40465 -14.542695,5.10697 -7.538856,1.70232 -15.564089,1.70232 -18.141891,0 -28.744927,-10.11666 -10.603035,-10.16529 -10.603035,-27.52898 0,-17.55824 10.797586,-27.62626 10.797587,-10.06802 29.571769,-10.06802 7.247029,0 13.861767,1.36186 6.663375,1.36186 12.548546,4.03694 l 0,15.02907 q -6.079722,-3.45328 -12.110806,-5.15561 -5.982447,-1.70232 -12.013531,-1.70232 -11.186689,0 -17.266411,6.27428 -6.031085,6.22563 -6.031085,17.85006 0,11.52715 5.836533,17.80143 5.836534,6.27427 16.585483,6.27427 2.918266,0 5.398793,-0.34046 2.529164,-0.38911 4.523313,-1.16731 l 0,-14.10496 -11.429877,0 0,-12.54854 29.182666,0 0,34.92192 z"
           style="font-style:normal;font-variant:normal;font-weight:bold;font-stretch:normal;font-size:99.61016846px;font-family:sans-serif;-inkscape-font-specification:'sans-serif Bold';fill:#00bbf2;fill-opacity:1"
           id="path4227" /></g><path
         style="fill:none;fill-opacity:1;fill-rule:evenodd;stroke:#f03916;stroke-width:14.84434605;stroke-linecap:butt;stroke-linejoin:miter;stroke-miterlimit:4;stroke-dasharray:none;stroke-opacity:1"
         d="m 20.542345,365.13659 271.132135,0 -144.03895,-203.34911 z"
         id="path3416"
         inkscape:connector-curvature="0"
         sodipodi:nodetypes="cccc" /><path
         style="fill:#f03916;fill-opacity:1;fill-rule:evenodd;stroke:none;stroke-width:1px;stroke-linecap:butt;stroke-linejoin:miter;stroke-opacity:1"
         d="M 112.36631,365.77232 64.935735,292.37973 21.000045,362.7767 Z"
         id="path4218"
         inkscape:connector-curvature="0" /></g></g></svg>