<?xml version="1.0" encoding="UTF-8" standalone="no"?>
<!-- Generator: flash2svg, http://dissentgraphics.com/tools/flash2svg -->

<svg
   xmlns:dc="http://purl.org/dc/elements/1.1/"
   xmlns:cc="http://creativecommons.org/ns#"
   xmlns:rdf="http://www.w3.org/1999/02/22-rdf-syntax-ns#"
   xmlns:svg="http://www.w3.org/2000/svg"
   xmlns="http://www.w3.org/2000/svg"
   xmlns:xlink="http://www.w3.org/1999/xlink"
   xmlns:sodipodi="http://sodipodi.sourceforge.net/DTD/sodipodi-0.dtd"
   xmlns:inkscape="http://www.inkscape.org/namespaces/inkscape"
   id="Messages"
   version="1.1"
   style="image-rendering:optimizeSpeed"
   x="0px"
   y="0px"
   width="512"
   height="512"
   viewBox="0 0 512 512"
   enable-background="new 0 0 1024 1024"
   inkscape:version="0.91 r13725"
   sodipodi:docname="gwibber.svg">
  <metadata
     id="metadata25">
    <rdf:RDF>
      <cc:Work
         rdf:about="">
        <dc:format>image/svg+xml</dc:format>
        <dc:type
           rdf:resource="http://purl.org/dc/dcmitype/StillImage" />
        <dc:title />
      </cc:Work>
    </rdf:RDF>
  </metadata>
  <sodipodi:namedview
     pagecolor="#ffffff"
     bordercolor="#666666"
     borderopacity="1"
     objecttolerance="10"
     gridtolerance="10"
     guidetolerance="10"
     inkscape:pageopacity="0"
     inkscape:pageshadow="2"
     inkscape:window-width="1366"
     inkscape:window-height="708"
     id="namedview23"
     showgrid="false"
     inkscape:zoom="0.16296602"
     inkscape:cx="675.25224"
     inkscape:cy="826.89842"
     inkscape:window-x="0"
     inkscape:window-y="0"
     inkscape:window-maximized="1"
     inkscape:current-layer="Messages" />
  <defs
     transform="matrix(1 0 0 1 0 0) "
     id="defs3">
    <radialGradient
       cx="48"
       cy="48.277454"
       r="33"
       fx="48"
       fy="48.277454"
       id="radialGradient3301"
       xlink:href="#linearGradient3993"
       gradientUnits="userSpaceOnUse"
       gradientTransform="matrix(1,0,0,0.9174986,0,3.9829576)" />
    <linearGradient
       id="linearGradient3993">
      <stop
         id="stop3995"
         style="stop-color:#7da3c7;stop-opacity:1"
         offset="0" />
      <stop
         id="stop3997"
         style="stop-color:#b3c9e0;stop-opacity:0.62015504"
         offset="1" />
    </linearGradient>
    <clipPath
       id="clipPath3176">
      <path
         d="m 48,18 c -18.225397,0 -33,12.088312 -33,27 0,9.498438 5.99976,17.843462 15.0625,22.65625 -0.344625,2.508754 -1.914014,8.649817 -9.34375,10.75 9.622915,1.045823 16.013601,-3.646306 19.40625,-7.1875 C 42.648507,71.724251 45.286067,72 48,72 66.225397,72 81,59.911688 81,45 81,30.088312 66.225397,18 48,18 Z"
         inkscape:connector-curvature="0"
         id="path3178"
         style="display:inline;fill:#ff0000;fill-opacity:1;stroke:none" />
    </clipPath>
  </defs>
  <path
     style="display:inline;opacity:1;fill:#00bbf2;fill-opacity:1;stroke:none"
     id="path3625"
     inkscape:connector-curvature="0"
     d="m 253.58999,29.762515 c -131.16765,0 -237.500001,86.999205 -237.500001,194.318185 0,68.35998 43.18009,128.41884 108.404361,163.05634 -2.48022,18.0554 -13.77508,62.2525 -67.246691,77.36743 69.255861,7.52673 115.249391,-26.24238 139.666191,-51.72822 18.16163,3.63807 37.14407,5.62263 56.67614,5.62263 131.16765,0 237.5,-86.9992 237.5,-194.31818 0,-107.31898 -106.33235,-194.318185 -237.5,-194.318185 z" />
  <g
     transform="matrix(0.5050346,0,0,0.5050346,-206.21086,-228.86641)"
     id="layer1-6"
     style="fill:#ffffff">
    <path
       inkscape:connector-curvature="0"
       id="polygon0"
       d="m 819.353,587.924 9.754,-2.216 4.568,-2.369 5.829,-1.361 -0.81,-1.084 -3.542,-0.135 0.54,-0.895 5.403,-0.798 2.43,0.539 0.972,-1.083 9.278,-2.222 1.374,-1.538 7.689,2.227 6.042,-0.75 6.165,-1.634 8.078,1.012 -2.094,0.781 3.513,0.579 2.289,-0.238 2.849,-1.952 0.096,1.586 -1.13,-0.818 -1.497,1.164 4.954,-0.472 -4.772,0.565 11.07,0.716 -0.778,-0.676 4.011,-0.776 -2.005,0.053 1.688,-0.768 -1.542,-1.157 3.868,0.348 0.589,-1.032 3.425,1.292 4.36,-0.229 1.615,1.347 4.376,-2.42 3.822,3.601 -2.444,0.005 1.683,0.942 -1.959,0.077 0.515,1.406 4.288,0.756 2.287,1.774 4.246,-1.644 4.898,1.334 1.836,1.161 -1.422,0.467 4.677,1.742 4.677,0.003 -1.043,1.935 1.615,-0.338 0.1,1.113 2.406,0.725 1.468,-0.469 -2.048,-0.706 8.498,1.793 2.701,-0.232 -5.111,0.615 -13.943,-0.228 -0.015,1.939 -0.83,-1.234 -1.271,0.534 1.099,3.336 6.325,1.563 -2.532,0.386 3.277,2.032 -3.378,-0.481 1.188,1.812 5.223,0.175 2.574,-1.066 2.383,1.366 0.646,-1.376 0.291,1.008 5.122,1.284 -1.649,0.186 2.995,1.892 1.42,-0.028 -1.473,-0.832 10.582,4.3 2.488,-0.585 -0.146,1.163 3.509,-2.13 7.776,5.939 5.358,-0.959 1.035,-3.318 9.28,-0.919 -0.812,1.536 -4.286,-0.12 2.861,0.731 -7.007,-0.763 1.868,1.883 -0.532,3.432 1.775,0.979 1.504,-0.671 1.434,2.213 2.784,-3.038 0.846,2.742 -7.696,1.695 3.239,-0.313 5.766,2.208 3.21,-1.516 7.993,0.848 -2.492,-2.766 0.164,-2.134 2.694,-0.676 3.255,0.935 -0.051,-1.693 0.378,2.209 -5.585,0.564 2.854,2.469 5.395,0.084 10.251,4.314 0.423,4.17 -3.744,-3.979 -9.596,-3.156 -1.828,1.285 -10.365,-0.694 -2.43,1.113 -7.37,-1.217 -0.266,1.347 1.147,2.412 8.129,1.491 3.597,2.108 8.517,0.691 -0.708,-1.683 2.396,-1.247 5.086,1.804 -3.766,3.082 -0.031,-0.839 -1.698,6.531 1.943,1.169 3.841,-0.634 1.02,1.834 2.188,0.666 -3.405,0.348 3.134,2.936 0.433,2.762 2.369,1.301 0,2.308 -3.537,-1.482 -1.161,-1.603 0.218,1 3.926,3.203 -1.537,-0.271 3.804,6.402 1.792,-0.135 0.051,1.907 3.829,1.744 0.219,2.53 -3.616,0.386 -1.852,-3.42 -1.819,-0.41 -3.745,3.58 2.505,-0.493 12.89,5.221 -3.654,1.685 2.424,3.595 2.406,2.967 5.538,1.223 -2.575,2.572 0.998,1.324 -1.229,-1.313 -2.512,1.613 2.171,1.737 3.155,-1.301 2.375,2.473 -5.583,2.267 -4.975,-1.667 -2.212,-2.373 -3.346,1.776 -0.368,-1.592 -5.209,0.61 10.02,-8.053 -4.667,-6.004 -6.378,-0.078 -8.257,3.482 -1.274,2.199 1.941,1.855 -2.543,-2.039 -0.91,1.745 -1.832,-0.842 0.789,-1.267 -1.883,0.733 1.539,2.138 -2.421,0.322 0.619,1.678 -3.467,-0.336 1.743,-1.734 -1.195,-1.984 -4.063,1.145 1.62,2.685 -2.383,-2.43 -1.526,0.592 3.118,2.656 0.067,1.049 -3.085,-2.05 3.49,4.575 -3.594,-3.415 -1.682,1.121 4.188,4.599 -3.565,1.128 3.517,1.302 -2.273,0.124 2.312,4.122 -3.111,-2.899 2.118,2.712 -1.891,-1.476 0.087,1.575 2.684,0.72 -2.789,0.771 3.311,3.42 -0.717,2.089 2.205,-1.412 -1.797,2.108 2.932,1.821 -2.771,-1.071 0.027,1.652 1.482,-0.124 -1.187,1.349 2.754,-0.124 -0.658,3.169 2.339,-0.808 -2.068,3.056 1.41,-0.011 1.377,3.708 1.032,-2.05 -1.064,2.917 1.868,0.319 -1.223,0.294 2.158,3.725 0.986,-1.608 -0.737,3.993 1.063,-1.491 -0.079,2.168 1.807,0.38 -0.467,1.43 -1.704,-0.909 1.587,6.052 1.925,-0.897 -0.676,-3.623 2.123,3.418 -1.413,2.121 -1.47,-1.055 -1.166,2.499 2.647,2.261 -2.215,0.318 2.508,0.566 -4.062,0.767 3.239,-0.367 -3.164,2.998 3.741,0.969 -1.952,-0.411 0.666,1.251 -1.685,0.281 1.391,0.243 -2.938,0.979 1.3,1.279 3.429,-2.106 -3.351,2.151 0.754,1.663 2.23,-0.567 -1.667,1.331 1.632,-0.681 0.095,1.827 2.282,-2.181 -0.388,-1.344 2.176,0.409 -0.817,-1.899 1.276,1.009 0.286,2.533 -2.187,-0.785 -2.799,2.869 1.8,-0.006 -1.104,1.169 1.706,0.813 0.359,-1.626 0.04,2.558 1.493,0.765 -0.293,-1.669 1.445,2.683 0.998,-5.11 -0.343,7.274 1.926,0.665 0.906,-2.786 0.276,3.269 1.766,-0.956 0.024,1.54 -2.287,0.117 1.994,2.171 5.218,0.647 2.054,-2.4 -1.306,-6.766 2.11,-1.071 -2.786,-4.334 7.249,6.331 0.638,-1.187 1.796,2.532 -1.002,-2.434 2.177,3.229 7.063,3.021 0.117,2.13 4.482,3.616 2.842,-2.5 -2.243,-4.431 2.64,-1.67 -4.187,-7.59 -5.025,-3.915 0.936,-0.915 -2.051,0.598 1.675,-2.851 -1.531,-1.947 2.14,1.139 -0.813,-3.338 -1.675,0.468 0.161,-3.051 -5.615,-1.681 -1.657,1.002 -9.752,-10.25 1.735,0.279 -1.254,-7.872 -1.901,-3.845 -4.803,-2.715 1.32,-0.222 -2.745,-2.035 1.836,-0.148 -1.559,-1.681 2.482,-2.583 5.124,1.479 5.594,14.85 7.125,3.945 3.655,4.084 3.381,-0.343 0.051,-1.601 2.373,2.524 2.647,-13.703 1.895,1.446 3.832,-1.736 -1.655,4.711 1.682,1.747 -4.028,3.046 -0.803,5.66 4.448,3.025 1.316,-1.469 4.778,4.611 0.183,2.561 -5.193,-1.27 -0.508,2.48 3.554,5.651 7.391,6.088 -1.271,1.426 -2.422,-4.38 1.961,3.735 -0.381,1.943 1.123,1.291 0.748,-1.2 0.113,4.028 -0.893,-2.816 -0.688,3.412 -3.645,-0.5 -3.003,9.734 1.414,2.217 -6.668,-0.954 -2.825,6.115 -1.111,-2.481 -1.963,2.084 -3.582,-1.171 -3.043,-4.422 0.193,-5.809 -2.852,0.139 -2.935,-5.631 -1.974,6.192 8.24,11.848 0.3,-1.19 2.42,1.213 -0.34,1.65 5.819,1.527 -4.085,0.282 1.549,2.842 -2.607,-0.75 -1.63,2.133 2.137,1.213 -4.502,1.784 -0.271,2.516 3.027,1.603 -0.595,2.387 -3.617,-2.438 1.47,6.31 2.562,0.193 -2.713,2.98 2.85,-0.46 -5.938,6.956 2.4,3.478 -2.366,7.288 -7.146,0.971 4.962,4.968 -3.848,2.871 -2.327,-1.499 -4.532,4.663 2.736,0.467 -1.662,0.542 2.139,2.291 7.343,-1.545 4.679,4.581 2.829,-0.239 1.269,3.635 0.837,0.481 3.96,12.573 -19.729,8.761 -3.086,-0.783 -4.484,6.611 4.216,3.011 3.899,13.056 -0.207,8.783 1.846,-2.098 0.01,3.811 2.445,-0.925 -0.88,0.496 2.053,8.069 8.253,-5.088 7.745,5.168 3.318,-6.241 8.956,-4.374 0.844,-5.566 2.498,-2.076 -0.941,-4.458 1.728,-3.695 -2.707,-1.233 -1.288,-3.489 0.79,-9.371 5.229,-9.042 -3.479,-4.578 -0.048,-3.191 1.612,-2.946 8.082,-1.377 3.381,-12.702 5.586,-0.673 7.643,5.994 20.187,1.105 5.224,4.53 1.057,5.701 1.454,-0.63 -1.372,-5.847 0.877,-2.616 -4.233,-1.814 -1.165,-4.354 2.906,-1.704 2.855,1.178 -0.745,-2.131 -10.836,-0.146 -1.025,-2.691 -3.971,2.608 -8.117,-4.81 -5.47,-0.491 -4.692,-5.364 2.199,-5.095 4.514,4.275 -0.205,-4.082 9.755,5.585 2.661,-1.707 4.047,0.687 -2.37,0.944 5.991,-1.785 4.32,1.188 4.098,7.515 8.342,3.373 0.606,-1.474 -0.146,2.123 2.459,1.336 5.363,-4.935 0.024,1.966 -4.377,2.807 0.598,2.495 4.765,3.396 0.289,-2.19 2.87,2.089 -1.004,-2.446 2.46,0.208 -4.753,-4.077 2.181,-1.592 -2.626,-0.689 0.583,-2.249 2.422,0.467 -1.633,-2.587 -5.698,0.958 0.61,-2.195 -1.44,-1.301 1.482,-0.304 -6.094,-4.012 0.127,-1.715 4.594,0.551 -1.914,-1.378 2.07,-0.866 -3.492,-0.996 1.865,-4.958 4.483,-2.854 1.034,4.493 -0.982,-7.932 2.422,-4.136 -7.445,-2.852 -0.62,1.227 -2.1,-8.28 -5.39,-7.123 1.293,0.827 0.265,-2.323 -3.931,-4.206 1.076,0.656 -0.667,-2.271 0.713,2.408 -0.925,-4.015 -1.761,-0.435 1.746,0.408 -1.574,-2.684 0.212,-4.538 2.283,0.466 -1.603,2.033 1.277,-0.751 0.404,1.323 2.753,-4.232 1.459,1.064 0.363,4.995 0.685,-2.131 3.793,3.068 1.514,-0.812 -1.182,-11.147 -0.915,3.453 -4.282,-1.647 4.36,1.726 -0.868,0.994 -2.904,-0.876 -1.813,-4.328 1.712,2.298 -1.49,-4.719 0.35,-11.057 2.093,4.007 -0.948,2.211 3.653,0.167 -1.224,-0.004 3.104,5.372 -0.108,3.24 14.264,-3.862 3.864,2.454 1.617,2.894 0.899,5.396 -1.491,5.278 -3.293,4.312 -4.934,0.431 -1.781,4.992 0.611,9.942 -3.654,5.164 1.723,1.615 1.414,-1.535 -1.273,3.024 1.069,1.244 -4.101,5.98 0.651,3.893 1.441,2.263 1.307,-2.868 2.82,4.847 1.56,-0.333 -0.463,2.03 -1.776,-0.979 1.083,2.449 2.947,-1.564 0.627,2.193 2.617,0.068 0.239,2.409 1.667,-3.529 -0.386,4.52 1.209,-4.083 4.686,-0.167 0.979,-2.458 -1.871,-3.67 0.874,-1.56 5.309,-1.174 0.98,-4.416 -1.117,-4.595 1.838,-1.023 -0.114,-3.755 3.852,6.779 3.906,3.74 7.961,19.893 -2.355,8.206 -1.749,-1.663 -1.683,2.505 -1.186,9.853 -5.89,3.536 -3.999,5.061 -1.788,-1.5 -4.277,4.084 -1.903,-1.735 -4.225,2.589 -1.846,8.425 3.573,6.798 -1.305,6.015 -4.854,-0.03 -7.294,3.519 -4.193,-3.593 -6.834,2.208 -3.217,3.176 -9.17,0.291 -1.66,-1.574 0.888,-8.271 -4.72,-3.109 -0.918,-6.39 -0.809,3.449 -3.945,-1.694 -4.514,7.03 -5.581,2.114 -2.476,4.813 -5.773,1.658 -9.088,8.344 -2.538,5.838 -3.321,2.541 -2.532,5.684 -3.526,1.524 -1.303,-1.588 -6.386,4.563 -4.634,-2.606 -1.643,1.551 -0.243,11.643 -8.097,12.79 -0.617,7.56 2.917,7.32 -1.394,5.331 -4.664,8.002 -6.17,4.219 -1.931,8.634 -3.454,3.917 -0.491,9.353 -4.202,6.566 0.902,-1.279 -4.517,14.269 0.182,5.628 0.745,-2.112 4.551,4.246 -1.143,5.268 3.949,8.356 -1.408,12.113 -4.596,6.636 6.066,3.167 0.336,2.784 4.971,-2.278 -4.082,2.647 -2.097,-0.581 0.232,4.841 2.949,-1.035 -2.932,1.938 4.198,-0.844 -1.716,1.85 2.775,-0.22 -0.425,1.531 5.396,-2.974 -2.99,1.979 2.661,0.01 -2.4,2.426 1.632,1.313 1.161,-1.352 -0.271,1.516 1.993,-1.456 1.728,4.16 5.159,0.594 -0.875,1.83 2.341,0.167 1.04,3.924 1.805,-0.745 -2.403,1.52 4.766,1.873 -0.207,2.066 7.11,0.645 13.833,4.998 6.508,-0.355 6.738,-6.046 10.429,-6.012 10.052,-2.305 15.036,-15.253 10.865,-8.83 -1.739,2.252 4.523,-2.562 2.998,1.157 1.206,-1.854 -1.116,2.037 2.02,-0.797 -1.544,1.271 0.867,0.36 1.296,-1.629 -1.204,2.744 2.951,2.432 3.024,-2.183 -0.019,-1.389 0.689,0.824 -0.477,-1.251 1.047,0.79 0.161,-1.98 1.198,0.676 3.805,-3.172 -0.319,-1.791 1.458,1.245 1.009,-2.1 1.814,2.781 1.983,-2.287 0.509,1.08 -1.147,0.86 1.909,2.236 -2.167,10.968 1.405,-0.593 -0.088,3.048 -1.408,0.775 2.689,-0.431 -1.915,2.026 -0.602,-0.994 -0.897,5.666 -1.724,1.06 3.454,5.29 7.568,2.846 1.105,4.32 1.731,-0.313 -1.547,1.808 2.713,6.288 -1.957,4.219 1.467,5.371 -1.945,5.687 -5.304,8.222 -5.803,11.838 -2.792,7.919 1.559,8.35 -6.358,11.245 -3.685,7.013 -1.985,2.07 -2.116,2.162 -2.541,2.546 1.689,-1.687 1.363,-1.38 9.078,-9.585 5.345,-5.998 7.068,-8.38 12.646,-16.45 7.146,-10.271 4.434,-6.79 6.635,-10.854 -0.713,1.209 0.058,-0.098 9.572,-17.275 3.885,-7.737 1.597,-3.323 1.654,-3.544 0.039,-0.085 4.035,-9.114 2.535,-6.112 6.399,-17.13 3.467,-10.626 1.988,-6.675 0.494,-1.737 1.418,-5.192 1.03,-3.989 -0.255,0.644 1.169,-6.125 0.616,-2.904 -0.288,1.049 1.021,-5.067 -0.229,-1.423 1.268,-7.94 1.829,-12.788 0.924,-5.294 -0.134,-0.709 0.508,-1.969 1.98,-21.236 1.074,-17.623 -0.126,-17.237 -3.468,-34.127 -0.943,-4.397 -0.204,-2.572 0.075,1.622 -1.697,-7.5 -0.139,1.199 0.816,8.241 -0.145,8.483 0.262,6.039 -0.468,1.588 -0.066,7.025 -2.343,-0.345 -0.359,2.823 0.048,-5.416 -0.661,-2.089 -4.754,-1.956 -1.436,2.148 -1.225,-1.374 0.484,2.546 -6.349,-9.656 -2.924,0.343 -5.157,-9.895 0.582,-0.043 -2.721,-3.159 -3.649,0.192 -2.592,-3.956 0.5,-0.987 -2.381,-0.552 -10.944,-10.29 -4.641,-2.085 -2.996,-4.005 5.147,3.964 3.817,0.504 -4.014,-10.821 3.486,8.027 1.022,-1.968 10.219,6.274 2.271,3.113 2.633,-0.888 3.985,3.905 2.994,5.897 4.432,0.48 7.243,6.774 2.438,7.387 4.358,8.632 0.839,-6.365 -0.521,-5.116 -0.116,-14.774 -0.836,-5.161 -1.771,-15.182 -1.47,-4.788 -1.956,-11.994 -1.703,-5.083 -0.738,-3.869 -1.876,-5.212 -1.264,-4.922 -2.521,-5.254 -1.063,-2.831 0.153,-0.346 -5.136,-12.131 -2.094,-1.528 0.221,3.928 -0.993,-0.254 -2.731,-3.395 -2.086,-3.766 7.037,17.661 0.3,5.049 0.83,2.947 -0.831,1.275 -4.237,-7.791 -0.112,1.781 3.339,6.119 -3.303,-2.648 -1.759,-3.29 -2.749,0.57 -5.204,-4.713 -0.143,1.27 -0.425,-2.372 -1.634,-1.376 0.323,-2.896 -1.148,-1.675 1.225,-0.568 -0.536,-2.56 6.601,4.69 0.603,-2.458 2.252,-0.671 0.126,-2.904 -2.959,-9.383 3.408,3.417 -2.057,-12.47 -7.87,-18.509 1.645,2.268 -0.891,-1.957 1.762,2.622 -1.613,-3.158 1.101,1.828 -1.718,-3.068 1.545,2.701 0.135,-0.075 -2.687,-4.765 1.483,2.551 2.858,5.137 -0.092,-0.236 -3.609,-6.36 -2.926,-4.939 -1.093,-1.799 1.481,2.445 0.65,1.085 -0.817,-1.364 1.518,2.545 0.55,0.934 2.6,4.511 6.636,12.281 5.964,12.158 3.278,7.235 0.076,0.173 -1.398,-3.145 -1.585,-3.466 -2.018,-4.275 0.045,0.093 -2.271,-4.645 -1.093,-2.174 -2.77,-5.348 -4.718,-8.628 -3.635,-6.277 -1.854,-3.09 -1.444,-2.36 -2.095,-3.347 -2.803,-4.354 -1.23,-1.867 -7.277,-10.543 -5.002,-6.795 -4.662,-6.039 -3.864,-4.806 -1.411,-1.713 -3.227,-3.835 -2.094,-2.43 1.404,1.624 -2.511,-2.89 0.471,0.537 -1.477,-1.677 0.548,0.62 -1.782,-2.006 0.15,0.168 -2.041,-2.262 1.066,1.177 -3.334,-3.645 1.645,1.785 -1.004,-1.092 -1.522,-1.639 -1.958,-2.079 4.782,5.137 -2.021,-2.197 1.634,1.772 -1.162,-1.263 1.091,1.185 1.364,1.498 0.537,0.595 -2.032,-2.235 4.587,5.101 5.891,6.858 -1.819,-2.157 1.863,2.209 -1.383,-1.643 0.394,0.465 -1.593,-1.875 0.485,0.568 -2.239,-2.601 -1.954,-2.229 -0.761,-0.857 0.244,0.274 -2.106,-2.349 -2.24,-2.453 2.213,2.423 -1.088,-1.197 5.504,6.171 3.578,4.174 -1.587,-1.867 2.743,3.246 3.377,4.107 -0.118,-0.145 4.105,5.165 2.052,2.658 -1.521,-1.975 7.49,10.021 -1.29,-1.779 2.979,4.148 5.949,8.685 3.105,4.767 1.196,1.884 -1.788,-2.805 0.374,0.583 -3.102,-4.751 -5.252,-7.678 -1.977,-2.779 -1.963,-2.705 1.041,1.427 -5.597,-7.504 1.305,1.711 -3.296,-4.284 -7.752,-9.565 -3.58,-4.194 -2.861,-3.258 3.179,3.624 -2.163,-2.478 0.055,0.062 3.528,4.069 -1.879,-2.182 2.179,2.533 -1.202,-1.404 0.074,0.086 4.701,5.581 -0.732,-0.885 -3.853,-4.56 -1.498,-1.732 0.305,0.351 -1.596,-1.825 0.465,0.529 -0.86,-0.978 -0.398,-0.45 -0.173,-0.195 -0.53,-0.595 -0.999,-1.115 -0.261,-0.289 -6.938,-7.47 -5.167,-5.291 -0.597,-0.597 -8.996,-8.66 -2.193,-2.02 -0.131,-0.119 -4.435,-3.977 -4.473,-3.876 -3.124,-2.63 -1.814,-1.499 -0.302,-0.248 -0.915,-0.746 -1.692,-1.368 -3.155,-2.503 -1.883,-1.465 -1.635,-1.257 0.596,0.456 -2.542,-1.932 0.265,0.199 2.974,2.268 2.276,1.771 -0.893,-0.697 -5.052,-3.863 0.756,0.569 -4.202,-3.123 -1.281,-0.932 -1.211,-0.874 -1.281,-0.915 -0.674,-0.479 -2.873,-2.012 1.452,1.012 -1.681,-1.169 0.16,0.11 -3.581,-2.446 1.523,1.033 -1.009,-0.686 -2.649,-1.775 1.06,0.705 -2.587,-1.713 0.498,0.327 -3.351,-2.178 -1.957,-1.248 -0.261,-0.165 -2.488,-1.558 -1.821,-1.122 0.549,0.337 -3.766,-2.28 -0.317,-0.19 -2.184,-1.29 -1.452,-0.846 -0.817,-0.472 -1.459,-0.835 -0.562,-0.319 -2.197,-1.235 0.5,0.279 -3.089,-1.708 -2.436,-1.318 0.63,0.338 -0.695,-0.374 -1.065,-0.568 -0.476,-0.252 -7.664,-3.938 -0.415,-0.207 -3.168,-1.554 -1.499,-0.722 -2.033,-0.964 -0.354,-0.166 -1.572,-0.733 -1.851,-0.851 1.895,0.871 -3.692,-1.684 -0.036,-0.017 3.401,1.55 -7.919,-3.54 -1.573,-0.676 1.368,0.587 -3.65,-1.551 -1.485,-0.617 -6.289,-2.524 1.396,0.548 -1.446,-0.568 -7.5,-2.827 -0.526,-0.191 -1.426,-0.513 -2.382,-0.841 -5.283,-1.797 -1.014,-0.334 -2.846,-0.92 4.002,1.301 7.761,2.676 -3.36,-1.184 3.022,1.063 -2.889,-1.017 -4.617,-1.566 -12.911,-4.005 -3.887,-1.1 1.023,0.285 7.731,2.261 -2.283,-0.688 5.384,1.649 -12.912,-3.797 -4.636,-1.233 4.858,1.294 -0.294,-0.08 2.074,0.573 3.027,0.861 -1.498,-0.43 1.513,0.434 -1.313,-0.377 -1,-0.283 -1.047,-0.294 3.997,1.14 -0.47,-0.137 2.395,0.704 1.078,0.323 -1.595,-0.477 2.742,0.824 -1.004,-0.304 6.751,2.111 1.576,0.515 0.94,0.311 0.983,0.328 -4.087,-1.343 1.504,0.488 -2.682,-0.865 0.942,0.301 -1.959,-0.623 -0.249,-0.078 -2.709,-0.838 -0.173,-0.053 -6.121,-1.803 -5.204,-1.438 -5.89,-1.524 -0.055,-0.014 -2.858,-0.7 -11.167,-2.492 -4.633,-0.922 -5.078,-0.937 -1.738,-0.303 -0.873,-0.148 -5.217,-0.841 0.15,0.023 -8.792,-1.24 -20.233,-1.996 -17.772,-0.78 -8.152,-0.028 -4.102,0.266 3.482,0.239 -2.113,-0.027 -0.775,0.111 6.121,0.366 3.883,0.031 0.295,-0.126 4.651,-0.079 -1.686,0.285 3.544,-0.133 -0.419,0.385 3.872,0.121 1.679,0.262 -10.753,0.522 -13.685,2.355 -9.958,0.68 -1.256,-0.205 -1.235,0.414 -7.653,0.429 -1.092,0.669 -9.322,0.581 3.606,-0.604 -1.013,-0.147 -11.372,2.075 1.067,0.172 2.502,-0.462 0.239,0.438 -4.721,2.919 -9.445,2.656 0.379,-1.13 -0.616,-0.29 -1.611,0.527 -0.207,-0.575 -3.873,2.52 -2.517,0.68 2.007,0.805 -3.105,1.157 -2.268,0.32 2.535,-1.079 -2.203,-1.613 4.265,-1.729 6.227,-4.381 4.267,-1.049 1.107,-1.228 -0.662,-1.019 -9.761,-0.127 -4.697,1.413 1.532,-0.009 -5.512,1.283 2.013,0.156 -6.096,1.927 2.73,0.409 -3.814,1.113 4.406,-0.05 -1.155,0.74 4.783,-1.002 -0.974,2.766 -2.144,0.758 -1.676,0.05 -2.373,1.724 -1.559,-0.476 -0.566,1.072 -5.442,2.185 -4.585,0.584 0.714,0.541 -3.711,3.864 -5.858,4.313 -5.396,2.134 0.486,0.78 8.799,-0.41 -0.937,-0.185 3.482,-0.323 2.043,-1.694 0.607,0.307 2.258,-0.978 -8.833,4.509 0.262,1.83 3.088,0.533 -1.571,0.998 -3.32,-0.686 -3.377,2.195 -4.936,0.756 -5.021,1.933 0.565,0.525 -1.808,0.065 -0.981,1.204 3.173,-1.066 -0.73,1.461 1.744,0.23 2.457,-1 -4.281,2.254 2.18,-0.322 -2.369,0.977 0.799,1.301 6.592,-1.971 3.884,-2.105 1.385,-1.139 -4.794,0.164 8.265,-0.378 13,-3.345 0.024,-0.009 m -43.586,639.285 1.355,0.512 -0.11,-0.041 4.8,1.762 0.923,0.33 -1.976,-0.71 0.272,0.099 -2.094,-0.765 4.208,1.521 1.051,0.37 5.605,1.912 3.123,1.021 -2.56,-0.833 -2.222,-0.742 2.234,0.745 -2.061,-0.687 3.01,0.998 -1.802,-0.594 1.823,0.601 1.435,0.466 0.09,0.028 5.032,1.576 -1.179,-0.362 -4.339,-1.37 -5.023,-1.679 0.999,0.245 4.881,1.478 -1.577,-0.878 2.932,0.572 -3.303,-1.135 2.156,0.566 1.849,0.722 1.646,0.331 -1.64,-0.771 -2.298,-0.452 -3.029,-1.113 -2.123,-1.5 5.859,2.026 5.564,1.339 -2.116,-1.922 1.468,0.463 -2.359,-1.205 5.764,1.706 11.071,2.087 3.855,0.319 2.74,-0.933 -0.869,-0.893 -3.446,-1.174 0.156,-0.906 -7.493,-2.867 -0.838,-2.323 0.967,1.581 3.351,1.569 8.601,2.383 9.494,1.25 6.406,-1.658 0.714,-2.198 5.141,-2.043 -1.298,-0.91 4.077,1.438 -6.702,2.396 5.931,-1.151 4.68,-3.202 4.586,-1.18 0.99,-3.082 -2.216,-2.219 2.223,-1.607 -2.216,-0.714 2.92,0.521 3.227,-1.734 6.352,-1.558 5.354,0.156 5.408,-2.106 4.817,0.587 2.61,-1.013 0.221,0.853 5.826,0.207 0.257,-1.296 5.49,-1.412 -0.512,-1.454 7.188,-5.66 0.646,-3.878 3.275,-2.229 1.853,-16.918 0.93,-0.938 1.291,1.567 2.413,-1.331 19.036,-17.485 0.963,-4.987 -2.72,-6.901 -2.144,-1.478 -9.309,-0.217 -8.04,-5.356 -9.433,-3.771 -13.653,-0.074 -7.082,-2.598 -8.476,4.201 0.398,-3.261 2.361,-1.17 -3.814,0.303 3.064,-1.634 -2.139,-3.015 -2.464,1.856 -0.541,-2.469 -1.183,0.817 0.643,-0.971 -1.697,0.534 -1.782,-1.89 -0.968,1.126 -0.304,-1.936 -0.913,0.973 -5.727,-2.831 -0.459,1.04 -4.156,-1.146 -2.654,3.449 2.585,0.642 -2.29,0.504 -1.25,-1.549 -4.993,3.98 1.202,-2.846 -6.97,0.266 9.28,-1.048 3.07,-5.276 -11.766,-2.179 -2.759,3.942 -0.21,-2.191 -2.476,1.745 -0.247,-2.258 -2.462,1.9 2.322,-3.936 8.496,-5.004 -1.443,-0.219 1.251,-2.257 -4.995,-2.465 -3.061,-10.896 -1.461,-1.068 -0.682,1.735 -3.685,-4.927 -10.996,-6.378 -17.41,-2.897 -6.709,-6.771 -2.119,2.158 1.43,-4.588 -3.076,-3.91 -6.525,-5.075 -3.688,-0.613 0.407,-4.375 -4.214,-3.528 -3.952,-0.573 -2.823,-3.736 5.833,-0.452 -13.256,-3.202 3.312,1.887 -7.926,0 -6.106,-5.063 -10.207,-2.477 -1.029,-4.15 -6.262,-3.805 -1.603,-4.601 -1.473,2.576 2.276,0.509 -0.084,1.429 -1.725,-1.408 -7.945,1.191 2.293,6.754 -0.455,2 -3.412,0.051 -1.754,-4.794 3.332,-3.509 -1.437,-5.246 4.681,-0.882 -2.556,-3.295 -8.889,2.856 -4.307,-2.117 -0.891,1.479 -2.724,-1.82 -2.244,0.673 -2.596,2.426 -0.016,3.775 -6.914,1.552 0.466,3.656 -4.634,-8.715 -4.909,-4.937 -3.012,-1.867 -7.212,0.46 -3.431,-4.018 0.317,1.519 -2.008,-1.463 -5.497,-16.041 5.778,-13.965 0.18,-5.337 -6.057,-8.191 -12.99,-6.973 -2.814,-3.325 4.169,-3.541 2.412,-6.997 -1.145,-0.97 2.031,-1.561 -0.138,4.113 3.703,-6.256 -1.154,-1.318 6.329,-6.306 -4.702,-5.157 -8.945,-2.888 -4.345,7.638 -4.458,2.404 -2.449,-3.56 -8.119,-2.993 -1.533,-5.735 -2.204,-2.045 -0.023,-23.132 0.677,-3.049 4.06,-9.801 1.763,-3.586 1.549,0.344 -1.247,1.749 3.23,-3.709 2.181,-7.511 -1.004,-1.155 1.214,0.86 2.628,-3.686 2.993,0.886 -0.096,-2.188 1.894,2.306 -1.137,0.167 4.71,0.125 1.987,-2.979 1.216,2.271 -1.414,0.176 3.66,0.925 0.7,-1.681 -0.644,1.625 4.435,4.967 2.331,-0.249 1.478,6.522 2,-0.291 0.644,1.979 0.708,-2.488 1.261,1.6 -0.052,3.903 2.041,-0.324 -1.596,-3.867 2.368,-0.513 -3.23,-4.766 8.046,5.312 1.549,-2.149 -0.129,2.712 -1.248,0.184 4.444,0.434 -1.168,1.03 3.907,1.615 -1.383,-0.214 3.24,2.703 -0.573,4.065 5.338,0.159 1.548,2.415 1.939,8.245 -2.871,4.964 1.931,0.639 -2.058,1.909 0.286,3.857 1.561,0.504 -0.842,6.483 2.307,3.555 -1.033,2.31 2.335,0.963 -0.418,1.147 5.435,-8.992 2.18,-27.886 5.775,-3.518 -0.015,-1.902 0.303,1.793 10.463,-4.546 12.132,-1.452 -2.351,-1.888 2.592,-0.499 -1.645,-2.26 3.032,2.493 2.34,-0.893 0.242,-2.204 -1.426,1.499 0.627,-1.99 -2.828,-0.944 2.877,-1.078 1.165,2.064 0.743,-3.966 -0.323,6.114 0.598,-7.333 -3.178,-3.642 1.912,1.929 -0.581,-3.227 0.555,2.182 1.496,-1.399 -1.502,-3.548 1.354,3.164 1.114,-1.362 -3.208,-4.589 1.118,-1.59 2.082,5.195 1.596,-7.443 3.513,-0.214 -3.487,2.966 0.901,6.279 -3.071,4.28 6.323,-5.686 1.066,-8.324 0.842,5.645 4.788,-3.361 0.895,-4.537 3.882,-1.863 8.848,1.545 1.274,-2.517 0.048,2.42 5.28,0.74 0.403,-2.422 -1.775,1.506 -1.445,-4.877 5.931,-6.535 1.888,0.531 0.693,-2.005 1.886,1.709 2.991,-3.693 -0.732,2.051 2.789,-0.814 0.198,1.714 5.245,-1.369 -0.111,-2.67 2.475,1.881 9.74,-2.271 -3.354,2.512 6.191,1.59 -3.488,1.287 -0.943,-2.398 -7.864,2.957 -1.541,3.987 2.148,2.906 6.63,-5.133 2.382,1.538 0.451,-1.744 10.157,-0.23 1.613,-0.427 -2.881,-4.25 -5.689,-0.417 -4.45,-5.122 1.081,-4.51 -2.352,-0.681 3.697,-3.559 -3.605,0.205 0.01,-1.965 -3.383,-1.567 5.749,1.649 4.201,-1.333 0.268,-4.309 -5.47,-2.277 -8.388,0.891 -14.818,6.398 6.774,-3.667 0.813,-2.872 11.561,-2.774 5.241,-4.354 23.496,6.498 5.992,-4.823 6.528,0.351 5.489,-3.027 -1.525,-2.484 2.225,0.439 -3.049,-1.53 2.748,0.573 -1.205,-1.672 2.065,-2.678 -1.758,-3.081 -3.601,1.505 1.595,-2.813 -3.129,-2.452 -10.475,3.696 9.761,-3.784 -4.41,0.188 8.49,-1.49 -2.622,-1.557 1.104,-0.874 -3.597,-0.144 0.351,-1.916 -1.55,0.784 1.136,-1.393 -3.268,2.271 2.411,-1.97 -1.965,-0.142 1.075,-1.141 -3.609,1.275 2.606,-4.204 -1.525,1.029 0.709,-1.436 -3.421,-1.784 1.854,-1.116 -2.224,-0.581 1.511,0.044 -1.66,-1.585 1.921,0.084 -2.349,-1.937 2.434,1.473 1.863,-2.46 -2.834,-3.104 2.221,-0.29 -1.79,-2.276 1.169,-1.171 -3.107,0.398 3.399,-2.185 -3.477,0.194 3.055,-1.648 -0.108,-2.177 -2.703,-0.543 2.367,-0.417 -2.011,-5.604 1.405,-0.934 -1.044,-1.074 -3.312,2.822 0.648,2.412 -2.32,-0.016 0.713,1.598 -2.706,0.561 -0.917,3.079 0.178,-3.538 -5.682,3.347 0.438,-3.405 -3.35,2.48 2.88,-3.869 -5.276,-1.876 1.857,-1.091 0.172,1.64 2.165,-2.438 -1.423,-0.508 1.804,-3.38 -2.84,-1.564 3.38,1.107 2.91,-5.146 -1.724,1.038 -3.418,-3.527 1.464,-2.336 -1.889,-0.485 -0.756,-6.062 -3.107,1.039 -5.134,-5.468 -2.799,0.754 -0.769,4.371 -4.189,2.863 1.872,0.561 -1.816,4.371 -7.862,5.173 1.957,5.364 -3.793,9.128 -6.372,4.258 -7.843,0.343 0.54,3.47 -4.139,11.1 -3.292,1.521 -1.223,3.418 0.143,-3.302 -2.927,2.112 -2.123,-2.11 1.513,-2.162 -0.954,-9.25 7.362,-11.245 -6.965,-4.888 -4.813,-19.038 -5.769,-1.491 2.554,-1.335 4.259,-7.463 -1.704,-1.911 -1.723,1.592 1.474,-4.04 6.661,-5.931 7.869,-2.924 0.292,-1.497 5.746,-0.046 0.201,-1.928 1.494,1.685 2.919,-0.584 0.377,-3.752 -1.968,-0.315 1.381,-0.641 -2.032,-3.102 1.539,-1.029 1.878,7.567 4.177,-2.199 3.189,2.487 6.177,-2.889 -3.382,-8.282 2.035,1.079 1.329,5.898 5.951,-1.939 -0.003,-2.699 3.533,5.063 0.632,-4.9 2.189,1.339 -1.229,3.154 8.024,-2.761 1.238,-5.827 3.103,0.457 -0.416,-1.829 2.379,-0.729 -1.777,-3.277 1.741,-0.05 -3.903,-3.51 -3.325,5.631 -1.385,-0.957 -7.137,5.058 -2.527,-0.126 6.496,-8.391 -0.19,-2.497 -5.912,3.297 3.526,-5.993 1.909,0.755 -2.306,-3.622 3.184,-1.573 0.813,1.126 4.802,-9.818 -7.918,2.026 0.436,1.294 -4.571,2.643 1.223,4.995 -1.426,-0.814 -3.097,1.765 2.235,-0.094 -1.514,2.099 -5.026,-0.386 -3.949,3.648 -0.113,-2.581 4.648,-2.47 -2.381,0.155 1.861,-0.813 -0.263,-1.826 -2.16,-1.289 -1.595,2.523 1.217,0.949 -2.177,1.477 1.273,-3.739 -2.404,1.117 -3.941,-4.223 1.288,-3.242 -1.615,-2.108 3,-4.11 -5.813,-1.355 0.532,2 3.856,1.058 -6.314,-0.471 -2.441,3.396 -1.674,1.002 0.101,-1.451 -2.667,2.786 2.507,-4.207 1.658,0.111 2.112,-5.13 -3.209,-1.55 -1.398,-4.986 2.027,-1.251 1.962,1.339 1.941,-2.771 -1.07,-2.892 3.378,-8.726 -3.371,-2.395 4.901,-1.912 -5.25,0.455 6.945,-5.758 -2.461,1.529 -4.888,-3.27 5.431,0.127 -4.967,-3.173 -0.476,-1.482 2.676,-1.029 -2.565,-1.396 -3.365,1.739 11.077,-12.417 6.139,-10.183 2.105,-1.748 1.307,0.371 1.145,-2.278 2.636,-1.027 -1.19,-1.094 1.77,0.531 1.969,-1.009 -1.483,-1.6 1.417,-2.098 -2.239,-0.347 1.767,-0.238 0.353,-2.131 -3.93,-2.81 2.352,-2.679 -1.645,-0.964 -6.842,2.954 -3.05,0.476 -3.026,2.622 -2.583,0.196 -1.921,1.718 1.641,-1.846 3.567,-1.138 -5.768,1.806 3.303,-3.587 3.298,-0.769 1.369,-4.946 -5.059,2.577 0.99,-1.214 -3.754,0.924 -5.387,4.233 1.139,0.028 -2.012,0.512 0.97,1.431 -1.901,1.393 -0.4,-1.029 -3.685,1.3 -1.148,-0.521 1.864,-1.752 -0.995,-1.366 2.662,-1.684 -4.809,-2.246 -2.73,0.955 -1.097,1.193 -0.39,-0.472 -3.707,2.772 1.036,-1.649 -3.766,0.878 -1.807,3.022 -5.813,1.746 -1.066,-0.757 -0.962,2.819 -5.39,3.104 2.909,0.007 -2.964,1.062 -0.003,2.06 -1.95,-0.688 -4.393,1.115 -0.615,-4.355 -2.437,0.66 3.293,-3.046 -1.692,-1.921 0.175,0.521 -1.099,0.865 1.635,-0.5 -2.108,1.48 1.5,0.232 -1.761,0.908 -0.313,2.213 -1.653,0.718 3.881,5.271 -0.308,2.28 2.187,1.019 1.917,-1.866 1.708,-0.325 5.66,4.372 -0.696,2.369 -0.835,-1.266 -2.86,2.385 2.59,-2.813 -0.51,-1.49 -4.222,0.202 -0.9,1.69 -2.194,-0.782 0.155,3.173 1.561,-0.352 -1.443,0.669 1.981,-0.323 -1.861,2.07 2,0.292 2.493,-1.849 1.569,1.209 -2.156,0.267 1.354,0.244 -1.564,0.596 0.426,1.614 -0.801,-0.48 -1.002,1.367 -0.209,-0.926 0.053,0.979 -1.83,0.642 -0.838,1.992 -2.699,1.816 -1.327,5.241 -2.957,2.883 1.475,0.91 -1.613,1.672 -1.076,-0.363 2.342,-1.174 -2.184,0.117 -8.299,8.943 0.671,0.963 3.905,-3.44 -1.939,2.275 1.63,-0.547 -3.657,1.963 -0.979,2.003 6.53,-3.144 -5.826,3.446 -1.15,1.729 1.649,0.143 -2.393,0.357 -1.211,2.363 -0.399,-0.73 -1.541,2.095 1.268,-2.121 -1.951,2.1 -0.795,-0.684 -5.137,6.776 -3.197,0.102 2.48,1.245 -1.769,1.607 -4.938,2.222 2.774,0.158 3.125,-1.182 -4.405,1.785 -0.475,1.406 -1.616,-0.896 -1.747,1.985 1.72,-1.984 -1.414,0.673 -0.712,2.526 -1.346,-0.529 -2.833,3.465 3.123,-0.308 -2.225,1.083 -0.211,1.674 0.184,-2.178 -3.834,5.064 -2.228,-0.069 1.178,0.247 -1.569,1.317 2.418,0.68 -4.235,0.394 -1.677,1.617 1.122,0.386 -1.808,-0.214 0.267,1.676 -1.025,-1.2 0.369,2.673 -1.033,-1.59 -0.032,3.507 -0.563,-0.66 -0.636,1.383 1.609,0.744 -1.931,-0.73 -0.83,2.146 1.481,-0.377 -1.318,0.564 0.053,1.259 2.458,-0.885 -2.935,1.314 1.122,1.251 -2.492,0.455 -1.046,2.253 2.125,-0.357 -1.99,2.35 -1.078,-0.478 1.188,1.413 -3.104,2.322 -0.874,2.63 -5.458,5.13 -2.427,-0.234 2.288,-0.556 1.87,-1.808 -2.918,0.616 3.755,-1.721 0.196,-5.942 -6.313,6.459 0.357,0.825 -3.22,1.708 0.186,1.867 -0.336,-1.548 -14.688,10.719 -5.461,6.664 -4.156,2.776 -5.567,7.915 -3.107,5.822 0.72,2.084 -2.047,3.167 0.97,-2.838 -2.214,2.688 -6.065,14.026 -1.981,2.43 0.134,8.958 -1.417,6.905 -8.764,21.274 -1.398,11.387 -1.898,1.836 -0.203,2.215 -1.315,-3.972 -0.693,9.451 1.438,0.261 -0.86,7.392 -3.068,6.232 0.338,12.267 -0.905,4.308 1.756,0.383 1.265,-5.412 -0.904,-4.318 3.999,-12.856 1.16,-10.015 1.664,-3.685 1.922,-12.913 5.131,-9.759 0.57,9.021 -5.069,13.395 -1.042,8.354 0.894,2.3 -1.581,2.673 0.095,9.518 -2.109,1.902 1.22,7.446 -0.904,2.213 0.417,15.347 -1.147,9.611 -2.213,2.257 0.33,1.911 -1.401,-0.646 -0.309,2.459 1.874,15.281 3.554,6.935 1.312,6.381 11.271,22.729 8.161,4.45 7.976,20.353 9.989,12.351 -0.87,-1.265 5.379,2.94 -0.1,2.826 -1.58,-1.017 6.581,15.146 -1.318,0.079 1.124,1.401 -0.732,4.408 2.121,3.326 1.254,-0.718 -1.454,-3.381 2.074,3.002 4.183,7.733 -0.152,3.18 1.248,1.053 -0.229,-2.085 1.717,4.887 0.948,-1.019 4.217,3.072 0.825,3.176 2.202,0.143 0.386,3.991 2.088,0.971 2.209,-0.266 -1.836,-4.813 6.906,-0.673 2.739,5.148 1.761,0.48 -1.897,1.713 4.654,9.52 -1.962,11.085 2.385,2.604 -0.596,1.12 -3.277,3.201 -3.851,-0.858 0.06,3.311 -2.41,-0.613 0.446,2.977 -5.495,-1.541 0.647,3.207 -2.571,1.23 1.057,1.863 -2.926,0.156 0.208,5.891 3.091,3.516 1.639,-1.438 0.827,2.136 -1.2,2.786 -5.547,0.822 2.331,7.134 -1.245,0.636 5.74,6.305 5.397,8.672 8.238,15.768 8.595,11.568 -0.504,1.5 2.97,3.886 4.403,4.479 19.735,14.308 6.939,6.171 2.507,5.526 1.876,4.663 -0.35,5.206 3.25,5.655 0.098,7.394 2.663,2.856 -0.882,0.839 5.603,6.795 0.147,3.982 -1.709,-0.534 6.375,4.28 0.437,1.015 3.066,1.541 -0.656,-0.216 2.494,0.952 1.68,0.741 0.72,0.212 -1.175,-0.275 2.608,1.166 0.225,0.201 -1.818,-0.814 2.027,0.932 -1.478,-0.639 1.098,0.677 2.229,0.987 -1.274,-0.495 3.545,1.503 -1.945,-0.798 3.172,1.321 -2.498,-1.037 0.438,0.184 1.272,0.529 0.094,0.039 -1.662,-0.692 -2.015,-0.853 1.579,0.669 -1.267,-0.536 0.215,0.092 -0.745,-0.317 -1.575,-0.678 -1.152,-0.502 2.247,0.974 -0.36,-0.154 -2.021,-0.879 1.593,0.694 -1.261,-0.549 1.771,0.768 0.825,0.354 2.189,0.927 1.934,0.804 -1.668,-0.692 2.257,0.936 -2.554,-1.06 3.433,1.419 2.519,1.014 -1.801,-0.723 1.683,0.676 -5.029,-2.05 3.589,1.472 -1.67,-0.679 1.457,0.593 -0.299,-0.121 1.039,0.419 2.142,0.853 -2.502,-0.998 2.488,0.992 -3.084,-1.232 2.816,1.126 0.285,0.113 1.12,0.438 1.17,0.455 -2.918,-1.143 2.225,0.873 -0.451,-0.176 2.23,0.861 -0.379,-0.145 1.136,0.433 -1.065,-0.406 2.845,1.076 -3.148,-1.192 1.442,0.551 -0.403,-0.153 2.56,0.963 -1.048,-0.392 0.163,0.062 -0.478,-0.18 -0.23,-0.087 -2.606,-0.996 0.643,0.248 2.621,0.995 -1.34,-0.506 -0.005,0 m 109.893,-447.266 1.921,-1.96 2.856,1.73 -3.098,-2.886 4.038,0.197 -1.885,-1.586 2.515,-1.306 -2.707,-0.486 2.909,0.323 -1.734,-1.433 2.515,-0.84 -1.941,-0.638 2.485,-0.537 -1.839,-0.413 2.251,-1.289 -2.396,-2.977 2.367,0.831 -2.743,-2.156 3.853,-0.309 -0.839,-2.427 2.182,1.13 -1.635,-2.332 2.134,0.993 -1.236,-1.087 2.338,-0.497 -2.041,-1.585 2.689,0.993 -0.184,-2.356 -2.602,-0.835 3.25,-0.48 -1.996,-4.412 2.347,0.857 0.74,-3.208 4.379,-0.322 0.645,-4.426 1.778,0.551 -1.499,2.471 1.545,0.634 -0.233,-1.95 0.711,1.319 3.405,-1.583 -0.873,-1.749 2.73,0.534 2.894,-7.64 2.524,-1.586 -1.748,-3.684 2.593,2.821 3.438,-0.664 -0.106,-1.605 1.485,1.009 6.124,-3.302 6.643,-9.024 -6.806,-0.46 -3.634,3.09 -2.622,-0.472 3.72,-2.487 -5.435,0.814 1.792,-3.938 2.472,0.802 2.161,-2.144 -6.094,-0.528 1.901,-1.11 -2.262,-1.232 7.839,2.244 3.849,4.091 1.023,-2.426 0.826,2.017 1.696,-0.655 -2.555,-2.361 0.292,-2.446 -1.464,0.456 0.724,-1.622 -2.068,1.007 0.619,-1.708 -4.556,-1.804 -1.141,1.833 0.051,-1.492 -1.92,0.352 2.974,-1.002 -1.671,-1.384 -2.04,1.787 -1.87,-1.367 3.808,-1.792 -4.604,0.411 2.201,-0.904 -2.006,-1.058 2.61,0.956 1.816,-1.706 -2.438,-1.903 2.745,1.681 0.123,-1.443 3.472,0.349 -3.18,0.288 3.539,1.567 2.872,-1.84 -0.56,-1.898 -2.677,-0.487 0.609,2.094 -1.812,-1.808 -0.387,-2.79 4.527,0.926 0.526,-1.443 -3.527,-0.047 -0.134,-2.08 -2.941,-10e-4 2.772,-0.674 -3.505,-1.106 5.041,1.065 -0.866,-2.896 -4.034,-0.361 2.518,-1.573 -2.924,0.394 -2.11,-2.069 5.642,-1.877 -1.286,-2.327 -3.788,-0.156 1.98,-1.446 -2.646,-0.82 -0.696,1.858 -0.679,-2.173 0.72,-9.443 -2.285,1.731 -0.915,-1.516 3.419,-2.875 -4.947,0.981 5.189,-2.944 -0.684,-4.064 -3.535,0.155 -0.187,2.464 -2.586,-0.137 -1.493,5.349 -0.944,-7.125 -3.116,3.669 0.624,-2.829 -6.7,1.547 0.988,-1.784 5.758,-0.617 2.21,-2.564 -3.982,0.046 -0.053,-1.802 -7.48,2.767 1.331,-2.096 5.52,-1.366 -8.482,-0.15 -0.58,3.519 -3.256,-2.454 -1.383,1.472 3.524,1.065 0.196,1.618 -4.301,-2.05 2.319,2.591 -1.92,-0.212 -0.027,2.291 -4.628,-3.911 0.089,4.21 -2.416,-2.093 -1.46,1.532 0.815,-3.256 -4.464,0.533 1.097,3.532 -1.148,-2.742 -1.839,-0.109 -1.732,3.407 -0.987,-1.285 -0.789,2.084 0.054,-1.862 -5.015,2.33 -0.388,1.388 3.241,0.513 -4.763,3.832 -3.33,-0.708 -6.816,2.035 1.94,4.619 4.04,0.652 -0.906,1.572 -3.461,-1.288 2.847,1.849 -6.115,-1.916 3.036,3.181 -2.871,0.438 0.431,1.95 2.199,1.712 0.073,-1.81 1.613,1.751 3.569,-0.873 2.854,1.88 3.948,9.185 -2.59,1.866 2.256,-0.491 -1.332,6.149 1.63,3.283 -2.465,-0.225 1.538,0.7 -1.671,2.057 2.024,-1.329 -3.536,2.34 3.301,1.855 1.879,-4.55 -0.33,3.357 2.978,0.276 -2.853,1.292 3.186,0.115 -2.619,1.327 2.13,-0.438 -1.594,0.797 2.396,0.815 -2.002,-0.296 2.007,3.959 -4.199,-2.9 -3.47,0.077 3.708,3.813 4.315,0.541 -2.799,4.208 2.493,0.438 -1.145,1.405 -1.319,-1.461 0.286,3.447 -3.316,-1.203 -3.098,1.391 6.101,-0.214 -1.761,1.505 2.204,1.723 -6.397,-2.327 2.525,1.651 -2.448,-0.78 -1.81,2.765 5.31,-1.968 -1.69,0.752 4.608,0.3 -8.597,1.257 5.315,1.146 -5.827,0.166 3.437,2.257 -3.208,0.613 2.392,1.032 -2.797,-0.395 0.989,1.189 -1.74,0.988 7.493,-3.723 1.313,0.869 -8.423,3.356 4.224,0.362 -3.908,1.234 1.296,2.289 3.599,-1.954 1.75,1.007 -5.646,1.29 1.512,0.193 -1.2,2.728 2.617,-0.752 -2.641,1.39 -0.145,2.775 4.076,-2.555 -0.372,-2.751 2.584,5.232 -2.947,-1.891 1.587,1.19 -4.314,0.964 4.301,0.773 -4.055,0.034 1.715,0.843 -1.977,1.181 2.769,0.432 -2.198,0.989 2.844,0.647 -2.591,-0.053 2.734,0.98 -1.272,2.378 2.091,-1.341 -2.243,2.949 2.694,1.563 -1.498,1.568 2.577,-0.351 -2.101,1.305 2.026,-0.816 -1.246,1.513 1.617,0.535 -1.993,0.366 2.893,0.315 -2.491,0.571 3.333,0.705 0.393,2.987 7.435,-1.708 -3.265,2.41 2.625,-1.333 -1.988,2.367 2.409,-0.987 -0.154,2.112 1.875,-1.712 -1.909,3.229 2.314,-2.225 -0.925,3.088 m -57.795,-21.505 -2.859,-11.892 2.095,3.078 0.477,-2.265 4.685,8.347 1.673,-6.514 0.677,3.56 1.435,-3.947 -1.792,-2.481 1.809,-0.207 -0.541,-2.642 -2.048,0.775 0.222,-2.502 -0.923,1.617 1.043,-5.292 -2.674,0.516 1.413,-3.374 2.569,1.193 -0.164,-3.707 2.496,1.044 0.434,3.026 1.793,-1.08 -1.945,1.994 4.367,-1.094 -4.018,2.4 2.57,5.833 2.354,-5.497 1.191,2.393 0.609,-3.154 1.977,1.373 -1.448,-2.314 3.039,0.887 -0.862,-1.925 2.145,0.249 -0.839,-2.42 -2.417,1.638 0.438,-1.676 -2.496,0.25 2.692,-2.29 -2.482,1.795 1.439,-1.528 -3.167,0.404 2.25,-0.844 -1.56,-1.044 1.747,0.661 -0.146,-2.74 -1.871,0.415 1.866,-1.382 -2.231,1.58 -0.022,-2.235 -1.406,1.748 1.272,-2.135 -1.555,1.047 1.018,-1.75 -1.373,0.678 0.472,-2.169 -1.893,-0.271 2.883,-0.081 -4.387,-3.655 3.085,1.256 0.159,-2.082 -2.033,0.307 2.447,-0.58 -1.445,-1.293 3.972,2.438 -0.25,-1.795 -5.109,-2.23 5.813,1.019 0.568,-1.278 -0.731,-2.24 -5.351,2.147 4.11,-1.936 -3.21,-0.144 4.789,-1.145 -1.309,-2.021 -3.021,0.844 2.516,-1.547 -5.436,2.958 2.22,-2.202 -1.784,0.042 4.269,-2.09 -4.69,0.758 4.394,-2.123 -1.116,-2.721 -4.071,1.92 2.761,-3.169 -4.281,1.72 2.279,-1.879 -1.098,-0.642 3.054,-0.896 -4.062,-0.633 4.044,-1.94 -2.624,-2.883 -2.565,0.701 1.194,2.456 -2.417,-1.816 -0.051,3 -0.251,-4.853 -4.007,1.745 4.266,-3.061 2.02,-5.122 -5.86,-1.104 0.253,2.412 -2.236,-1.59 0.856,2.45 -1.59,-2.067 -1.669,4.945 -0.372,-1.977 -2.085,0.294 0.507,2.922 -3.27,2.664 0.79,-1.333 -6.551,-3.762 -1.618,3.072 0.166,1.961 3.276,0.248 -1.346,2.687 5.601,4.357 -0.243,-3.045 0.975,4.458 0.356,-2.565 3.717,3.682 0.469,-2.846 2.185,-0.967 -1.215,5.419 1.895,-0.571 -1.528,1.419 1.796,0.67 -0.41,2.509 -3.691,1.63 3.204,-0.565 0.602,3.394 1.517,-0.233 -1.389,7.915 -3.201,1.692 1.612,1.326 -1.925,-1.1 -4.542,1.492 -0.185,4.394 -5.563,-1.125 -2.432,-2.68 -4.871,4.342 7.454,3.792 1.307,-2.694 0.414,3.882 1.696,-1.45 -1.006,4.674 2.578,2.593 -2.571,-0.074 0.229,2.017 10.84,11.063 -0.005,-0.011 m 46.872,-103.146 -4.802,-0.024 -1.359,2.916 -1.069,-3.244 -2.178,0.31 0.023,1.982 -0.974,-2.178 -4.333,-0.189 1.196,1.152 -1.746,0.443 2.498,0.99 -3.724,0.48 4.479,1.292 -4.734,-0.855 -0.055,1.866 5.909,0.342 -3.78,-0.041 -1.558,0.691 3.315,0.183 0.966,0.711 -2.129,0.404 2.077,0.523 6.049,-1.424 -3.701,1.381 1.912,0.974 -7.275,-0.72 -1.017,4.021 0.248,-4.004 -1.758,-1.456 -2.844,6.008 -1.27,-0.577 2.888,1.503 -2.395,-0.102 -0.328,1.512 -0.887,-2.758 -2.25,-0.313 -3.228,1.825 2.565,0.02 -0.896,1.248 2.834,-1.328 -4.691,3.865 4.621,-0.675 -5.26,1.712 -1.009,-4.333 -1.507,3.427 -5.519,0.178 0.225,1.361 1.815,-1.223 -1.15,2.131 1.361,-1.015 -0.424,1.62 1.366,-1.059 -0.191,2.26 2.52,-0.834 0.154,1.641 1.214,-1.469 -0.312,2.13 1.236,-1.971 -0.969,3.754 4.214,0.274 2.389,-1.965 -3.275,-2.865 1.866,-2.062 1.831,3.232 3.007,-2.357 2.298,1.207 -0.129,-1.525 2.286,0.419 -0.922,-1.553 2.244,0.677 -2.356,-3.857 3.997,2.106 -2.192,-2.852 4.984,1.374 0.283,-1.903 1.996,1.714 2.063,-1.164 -1.303,-1.188 1.911,0.902 0.524,-1.753 0.573,1.2 7.053,-2.948 -5.371,-0.147 4.005,-0.828 -1.559,-1.514 2.486,1.275 3.666,-0.801 1.783,-1.286 -0.697,-2.463 -4.047,-0.239 2.395,-0.755 -6.086,-3.411 -0.066,-0.008 m 167.491,145.922 2.936,-4.169 -0.662,-1.304 -3.606,1.494 1.568,-1.733 -0.473,-5.947 -2.754,-1.624 -3.44,2.155 -0.063,0.118 -2.05,-3.445 -0.962,-0.222 -1.695,0.588 1.961,-1.51 -1.344,-1.732 -4.575,-0.747 -6.681,-5.656 -5.282,1.209 2.956,-2.422 -2.461,0.435 1.688,-2.061 -1.396,-6.316 -6.481,3.954 0.14,-7.712 -5.049,2.458 2.225,4.288 -2.092,0.691 3.329,3.41 -1.222,3.031 3.428,-1.42 1.801,8.466 -0.17,-3.535 0.546,-2.587 1.794,1.188 -1.39,0.375 2.392,6.104 1.476,0.816 -0.683,-1.264 4.786,-2.997 -0.257,3.299 2.728,1.695 0.473,-1.432 1.179,4.101 1.803,0.41 -4.038,2.882 -0.521,3.023 1.769,-1.667 1.418,1.813 -2.287,5.665 7.25,-0.126 1.99,-3.791 -0.349,4.375 -3.648,1.661 -1.664,8.259 6.195,-3.873 -0.789,-2.784 10.242,-5.88 0.011,-0.007 m -204.82,50.769 5.462,-4.5 0.686,2.812 -2.308,3.43 3.042,-1.96 -0.896,3.409 1.875,0.383 3.086,-5.061 -0.407,-1.809 -2.227,1.279 2.086,-3.522 -3.229,3.52 -1.167,-2.251 1.528,-0.976 -1.197,-1.285 4.123,-1.287 -4.882,0.231 3.701,-4.917 -3.876,-0.453 0.438,-1.851 -4.158,2.527 1.521,-2.82 -3.892,-0.002 3.213,-2.707 -2.832,-0.259 0.486,-1.326 -3.5,3.106 6.315,-8.329 -0.947,-1.824 2.177,0.339 -1.157,-1.788 -6.805,4.381 -2.863,7.099 -2.099,-0.051 0.68,2.848 -1.708,-1.44 -4.271,3.181 3.886,0.559 -5.291,2.672 0.454,2.166 3.637,-0.602 5.373,2.717 4.758,-1.803 -1.969,2.724 5.92,-0.229 -5.995,3.37 3.223,0.301 0.006,-0.002 m -57.71,-179.463 -2.702,1.977 4.455,4.888 6.039,0.791 -1.819,3.767 3.857,3.857 2.038,-2.354 -2.969,0.284 2.737,-2.407 0.082,1.689 3.123,0.053 -0.857,1.482 2.584,-1.803 1.05,-6.794 8.809,-6.332 1.456,-2.915 -1.685,-1.2 -8.133,4.963 6.004,-6.196 -0.57,-0.86 -2.325,2.498 0.219,-1.434 -1.811,0.411 -0.64,-1.154 2.987,-0.21 0.594,-2.443 -3.226,-0.916 4.527,-1.85 -6.631,-2.537 -4.403,0.844 -0.054,1.891 -1.756,0.024 2.221,3.554 -4.244,-2.88 -2.06,1.766 2.392,4.658 -0.607,3.965 -4.97,-6.804 -3.113,2.696 -0.597,5.029 -0.002,0.002 m 180.694,78.376 3.992,-3.785 1.408,-4.44 -1.575,-0.223 1.612,-0.761 -6.332,-4.117 0.814,-1.848 -1.418,1.718 -2.65,-1.451 0.164,2.604 -4.068,0.547 1.603,2.641 -2.825,-2.437 -0.486,2.867 -3.092,-1.402 0.123,5.296 -2.088,-4.4 -4.978,-1.373 2.652,2.856 -3.062,-1.463 1.339,2.683 -2.223,-0.31 1.204,1.32 -1.791,0.505 6.98,-1.098 -1.783,1.905 2.236,0.455 -5.322,1.837 7.541,1.355 -2.429,3.884 3.981,-1.647 6.939,1.574 3.534,-3.292 0,0 m 54.155,56.066 4.322,-4.301 -5.057,-9.501 1.554,-3.774 -4.156,-3.075 -2.817,2.636 0.524,-1.719 -1.755,-0.212 0.418,2.551 -1.755,-1.002 -1.085,3.834 2.223,-0.553 -0.074,2.865 -4.977,1.707 2.842,1.766 -1.017,2.903 4.603,-0.45 -1.757,4.872 3.73,-2.042 -4.32,4.335 2.15,-0.289 -1.351,2.521 2.677,-1.247 -1.337,2.25 2.027,-1.521 -0.347,1.976 4.73,-4.521 0,-0.009 m -186.128,-130.199 0.083,3.425 3.19,-0.278 -1.084,2.347 5.071,2.757 1.557,-1.381 0.342,2.974 4.57,-0.097 -0.758,-1.194 2.624,-1.297 -0.979,-2.703 -7.255,-1.628 -0.858,-2.813 -1.307,0.816 1.619,-2.834 -2.066,-0.261 2.069,-0.126 -0.38,-1.752 2.111,1.844 -1.104,-2.392 1.369,-0.336 -3.495,-0.961 2.421,-1.874 -2.121,-2.481 -2.608,3.475 2.586,1.307 -5.563,5.433 -0.034,0.03 m -16.175,-21.211 3.362,0.426 -2.35,1.054 2.624,2.229 -4.868,-1.926 -0.57,2.704 5.51,1.849 1.577,2.671 4.682,-1.678 0.477,-1.575 -2.441,0.871 0.079,-1.395 5.151,-3.558 -3.267,0.017 -4.068,3.524 -1.018,-2.251 4.115,-5.582 -1.69,-0.419 -0.22,1.4 -2.289,-1.382 0.67,1.822 -2.702,-1.63 1.48,1.845 -3.53,-1.615 -0.725,2.593 0.011,0.006 m 33.583,6.377 -0.239,2.936 -1.425,-0.517 -0.591,1.481 1.79,1.792 1.73,-1.883 -1.237,2.266 4.369,-2.541 -1.135,1.541 4.925,-0.747 0.848,-1.675 -1.696,-0.587 3.749,-3.085 -1.973,0.753 2.892,-6.688 -3.886,0.692 -0.445,1.781 -2.49,-1.022 -0.525,2.343 -0.537,-1.778 -1.314,0.808 0.861,1.649 -2.953,1.052 3.173,2.898 -3.88,-1.472 -0.011,0.003 m 119.01,5.537 3.2,0.134 -7.811,-7.024 -0.188,-2.61 -6.401,-0.386 0.966,1.126 -4.351,-1.229 5.928,3.296 -5.524,-1.61 2.122,2.024 -2.659,-0.024 -0.474,-1.754 -0.529,2.799 8.023,3.015 -1.465,-3.541 1.986,1.171 -0.507,-1.534 1.986,0.327 -0.843,3.672 1.906,0.873 1.175,-2.749 -0.271,2.416 1.969,-0.332 -1.973,1.314 3.735,0.626 0,0 m 30.638,-34.101 -3.154,-0.354 0.493,-0.887 -5.767,-2.668 -7.901,-6.773 -4.276,-0.08 5.111,3.314 1.425,3.319 7.607,5.542 2.837,-0.564 2.91,2.303 1.064,-1.156 -0.643,1.318 2.309,1.818 0.543,-2.217 2.017,2.271 0.157,-2.844 -2.811,-0.092 0.371,-1.247 -1.238,0.886 0.397,-1.295 -2.402,0.069 0.951,-0.659 0,-0.004 m -284.221,348.573 4.442,-0.024 -6.859,-5.718 0.642,-2.371 -5.238,-3.575 -10.577,-15.368 -5.306,-4.813 -12.728,-4.395 -2.185,3.209 -2.928,-1.006 3.761,2.148 6.518,-1.12 3.686,2.32 0.614,1.539 -2.298,-0.724 1.144,2.063 12.417,10.124 1.504,6.192 3.957,2.537 0.172,1.97 -3.49,1.42 12.752,5.592 0,0 m 16.555,18.333 2.806,-1.449 10.003,4.956 1.995,-1.638 -6.135,-4.979 2.607,-0.361 -2.987,-0.969 -0.688,-2.607 -13.74,-7.007 -3.353,0.177 3.393,2.812 -1.044,2.061 1.744,3.713 -8.857,-4.579 -1.55,0.799 2.444,3.466 9.132,2.549 2.478,4.699 1.749,-1.639 0.003,0 m 146.269,-449.31 3.471,-0.24 -2.689,0.183 -2.845,0.217 1.406,-0.11 9.647,-0.601 3.966,-0.169 -3.662,0.155 -3.989,0.212 8.437,-0.266 2.566,0.849 1.594,-0.103 -2.049,-0.199 3.629,-0.218 0.372,-0.328 -2.571,-0.167 -17.272,0.784 -0.011,10e-4 m -66.003,132.783 5.383,-3.02 -0.654,-2.775 5.087,-1.022 -2.972,-3.958 -1.846,1.79 -0.557,-1.45 0.128,2.718 -2.491,0.987 -0.218,-3.054 -2.45,0.775 -3.631,8.046 1.406,0.861 2.28,-1.663 -1.193,0.896 1.705,0.877 0.023,-0.008 m -10.755,52.367 2.985,-0.623 -0.364,-2.525 -2.659,-0.539 2.415,-2.472 -1.526,-7.299 -1.76,0.725 1.542,-3.902 -8.301,7.432 -3.87,1.058 3.322,1.255 -1.461,3.352 8.39,-2.27 -0.946,3.034 2.209,2.773 0.024,0.001 m 217.865,-94.39 -0.596,-4.63 -6.293,1.745 -3.912,-0.616 -3.592,-2.228 -0.316,1.826 0.819,1.942 1.478,-0.177 1.133,1.654 0.303,-1.425 4.888,3.717 2.157,-0.108 -0.655,-2.095 4.567,0.405 0.019,-0.01 m -289.143,-16.689 0.116,0.612 -1.532,0.024 0.893,1.901 1.417,-0.862 -1.244,1.337 1.924,-0.491 2.029,-2.076 -1.506,0.042 1.623,-0.958 -3.107,1.123 2.62,-2.062 -0.979,-0.202 -2.25,1.609 -0.004,0.003 m 230.21,26.319 -3.133,0.375 0.513,1.656 -2.28,-0.857 2.593,1.691 -4.136,0.106 1.889,1.045 -0.944,1.082 2.688,0.594 1.123,-2.048 0.974,1.947 3.336,-1.553 -2.612,-4.038 -0.011,0 m -134.78,18.808 1.848,1.664 2.459,-0.607 5.496,-5.045 -1.903,0.458 -0.807,-1.872 -2.479,2.762 1.567,-3.335 -2.621,2.68 -2.339,-1.118 2.675,2.567 -2.598,0.05 -1.335,1.764 0.037,0.032 m -28.104,-13.475 10.701,2.339 3.139,-3.987 -1.974,-1.058 2.6,-3.507 -1.85,-3.077 -3.328,2.05 -10.745,0.483 0.116,1.345 -4.698,3.863 3.05,2.242 2.973,-0.702 0.016,0.009 m -122.337,52.105 1.458,1.32 -2.553,1.076 -0.469,5.654 7.836,-11.828 1.5,-8.851 -1.574,2.007 0.867,1.063 -2.389,0.281 0.29,1.968 -4.963,7.31 -0.003,0 m 28.385,-33.872 -1.584,1.708 2.857,-1.421 0.588,-1.91 0.473,1.051 4.744,-5.428 -3.808,2.267 -0.026,1.011 -1.64,0.151 -1.608,2.568 0.004,0.003 m -10.506,6.554 1.061,0.232 0.674,-1.94 4.595,-0.951 -2.916,-0.316 2.182,-0.475 0.974,-2.531 -5.503,4.063 -4.642,6.185 3.555,-4.255 0.02,-0.012 m 214.293,-99.042 -8.911,0.204 2.091,2.128 -1.746,-1.753 -2.902,1.316 6.25,1.587 1.148,-1.562 2.639,1.628 2.805,-1.581 -1.374,-1.963 0,-0.004 m -85.748,271.714 -1.249,-2.446 -2.927,3.155 -1.516,-0.276 3.879,-2.707 1.163,-4.391 -6.063,4.771 0.251,3.157 6.456,-1.24 0.006,-0.023 m 8.376,-204.834 -1.352,-1.628 -8.804,-0.705 1.978,1.155 -1.697,1.619 6.085,-0.014 -2.795,1.688 6.391,-0.5 0.202,-1.618 -0.008,0.003 m -5.257,47.812 1.406,-3.815 2.805,-3.068 6.139,-2.971 -1.579,-1.8 -5.94,0.458 -8.682,5.878 2.872,3.785 2.975,1.53 0.004,0.003 m 237.453,62.845 -0.721,-4.084 -2.952,-1.844 1.439,2.606 -1.945,-0.99 -1.039,2.658 7.065,3.627 -1.844,-1.976 0,0.003 M 946.5,605.9 l -3.223,-2.156 -3.538,1.822 0.032,1.166 1.791,0.039 -1.313,0.649 6.254,1.174 10e-4,-2.691 -0.004,-0.003 m -109.359,56.223 3.958,-3.608 -0.003,-4.698 -2.715,1.667 0.543,1.321 -3.128,0.432 1.61,0.836 -0.267,4.059 0.002,-0.009 m -124.226,1.114 2.609,-2.869 -1.428,2.222 1.334,-0.338 1.389,-3.293 -4.463,2.854 1.96,-0.82 -1.397,2.238 -0.004,0.006 m 98.408,21.717 3.855,-0.153 0.663,-1.999 2.223,2.166 7.454,-2.67 -4.853,-4.686 -9.369,7.332 0.027,0.01 m 156.106,-25.694 -4.02,-0.859 -0.453,1.823 3.546,1.896 0.081,-1.695 2.115,0.904 -1.267,-2.074 -0.002,0.005 m -193.558,115.357 2.5,0.261 -0.763,1.001 2.635,-2.312 -1.787,1.44 1.737,-3.092 -4.332,2.704 0.01,-0.002 m 100.713,-48.962 -1.864,-3.793 -3.02,-0.552 -0.88,3.196 2.993,0.606 -1.48,1.5 4.24,-0.948 0.011,-0.009 m 284.724,99.196 2.897,-4.089 -0.671,-2.002 -0.361,2.462 -6.357,3.93 1.23,1.932 3.259,-2.235 0,0.002 m -531.492,221.218 1.051,-0.288 -2.247,-6.075 -0.89,0.102 2.01,4.425 -1.659,0 1.733,1.836 0.002,0 m 129.935,173.648 1.355,0.542 -3.304,-1.772 -1.927,-0.829 0.54,0.375 1.439,0.84 1.891,0.842 0.006,0 m -54.219,-545.027 -1.928,0.413 -0.266,0.944 1.243,-0.422 -1.863,0.726 0.493,0.77 2.321,-2.431 m 242.95,-72.952 -6.899,-1.433 -0.818,2.213 2.61,-0.147 -2.207,1.305 7.331,-1.938 -0.017,0 m -2.542,7.229 -3.622,-1.266 -2.413,0.511 -0.823,2.381 7.304,-0.042 -0.449,-1.583 0.003,-10e-4 m -235.026,334.149 0.746,1.264 1.834,-3.568 -1.842,-3.252 1.347,3.102 -2.085,2.436 0,0.018 m 394.662,-95.863 2.801,-4.297 -3.083,-6.876 -4.026,-2.449 -2.235,4.024 6.551,9.611 -0.01,-0.013 m -298.155,3.877 4.362,-1.72 -7.665,-2.193 0.905,-3.468 -2.286,2.148 4.677,5.212 0.007,0.021 m -105.919,137.751 3.888,1.421 -2.766,-4.28 -6.709,-2.991 2.179,4.117 3.407,1.73 10e-4,0.003 m 34.154,-384.917 0.427,0.914 1.516,-1.361 -1.813,0.706 1.105,-1.701 -1.233,1.437 -0.002,0.005 m 441.962,198.088 0.26,-5.107 -1.277,-0.787 -0.568,-4.06 -1.274,9.731 2.858,0.229 10e-4,-0.006 m -399.096,257.528 0.624,-3.637 -4.145,-0.334 1.015,2.484 -2.743,0.614 5.249,0.859 0,0.014 m -71.278,-105.626 -1.231,-0.702 1.079,-1.267 -1.373,0.337 0.688,2.465 0.846,-0.829 -0.009,-0.004 m 128.799,-260.053 0.131,1.7 5.126,1.796 0.505,-3.942 -3.796,-3.222 -1.961,3.665 -0.005,0.003 m 192.916,-42.312 -2.107,-2.503 -2.316,0.814 2.325,2.126 2.099,-0.43 0,-0.007 m -212.841,182.475 1.029,-1.226 -2.571,-2.844 -6.173,-3.127 7.708,7.2 0.007,-0.003 m 334.924,-32.475 0.558,-1.006 -1.74,-0.968 -0.546,1.991 1.727,-0.018 10e-4,10e-4 m -436.163,149.753 -0.562,2.191 0.923,-2.835 -2.115,-3.718 1.759,4.358 -0.005,0.004 m 64.568,-355.263 -0.181,1.203 7.376,-3.981 -1.727,-0.101 -5.476,2.879 0.008,0 m -67.624,70.572 -2.93,2.009 0.046,1.031 2.312,-0.84 0.59,-2.223 -0.018,0.023 m 44.241,342.94 2.335,-1.664 -8.607,-2.594 0.013,2.52 6.255,1.74 0.004,0 m 297.65,-248.823 1.516,1.967 1.964,-1.021 -2.436,-2.4 -1.04,1.446 0,0.008 m 97.009,50.797 -2.727,-2.434 -3.092,0.475 -0.419,2.095 6.232,-0.128 0.01,-0.008 m -147.592,-38.739 0.743,1.195 0.762,-1.688 -1.086,-3.271 -0.415,3.762 0,0.002 m 4.846,-74.227 -0.498,-3.922 0.222,2.03 -1.964,-1.305 2.231,3.195 0.01,0.002 m -302.339,252.534 1.647,-1.496 -1.203,-3.89 -2.034,2.833 1.586,2.552 0.004,0.001 m 225.428,-241.624 3.837,0.949 -2.955,-3.06 -2.393,0.403 1.502,1.709 0.009,-10e-4 m -241.139,-20.395 0.713,0.122 -1.964,1.851 4.235,-3.823 -2.983,1.847 0,0.003 m -10.067,265.903 2.128,0.595 -0.198,-2.096 -1.193,-1.052 -0.765,2.536 0.028,0.017 m 317.074,-334.985 -1.919,-0.284 0.953,1.298 2.138,0.089 -1.166,-1.093 -0.006,-0.01 m -187.736,51.34 3.575,-1.205 -0.851,-2.402 -1.586,0.206 -1.166,3.384 0.028,0.017 m 81.535,-88.123 -3.197,-0.382 -2.648,1.329 7.277,0.492 -1.431,-1.436 -10e-4,-0.003 m 5.977,-4.842 -0.83,0.66 2.619,1.013 3.864,-1.277 -5.645,-0.396 -0.008,0 m 189.96,279.008 0.583,-3.158 -1.564,-0.794 -2.008,3.783 2.989,0.172 0,-0.003 m 13.246,-24.39 -0.347,-4.583 -3.188,-4.38 -0.584,5.313 4.119,3.65 0,0 m -305.838,-141.513 0.677,4.674 3.702,0.066 1.607,-7.029 -5.993,2.285 0.007,0.004 m -80.111,-25.868 3.871,-2.051 1.51,-2.158 -7.271,3.807 1.889,0.406 10e-4,-0.004 m 417.901,177.588 -3.003,-9.633 -8.141,9.196 1.845,1.919 9.294,-1.478 0.01,-0.004 M 757.801,602.26 l 2.805,-0.944 1.4,-1.982 -4.293,2.14 0.085,0.787 0.003,-10e-4 m -25.748,6.292 -1.478,1.591 2.806,-1.613 0.213,-1.677 -1.538,1.696 -0.003,0.003 m 92.515,111.858 -1.995,-2.588 -4.004,4.44 3.416,0.932 2.546,-2.761 0.037,-0.023 m -33.461,16.082 -3.389,0.644 -0.762,1.829 6.703,-1.382 -2.545,-1.092 -0.007,10e-4 m -14.939,290.692 2.512,-0.784 -1.43,-1.89 -1.968,0.633 0.885,2.045 10e-4,0 m 55.021,-373.253 -1.25,-2.481 -2.302,0.82 0.289,2.135 3.25,-0.482 0.013,0.008 m 114.651,-45.175 -1.608,0.026 1.387,1.674 1.521,-0.793 -1.295,-0.9 -0.005,-0.007 m -106.733,55.518 3.29,-0.831 -0.04,-3.44 -3.744,2.576 0.467,1.682 0.027,0.013 m 403.03,304.999 0.072,-0.934 -0.399,2.438 0.16,0.182 0.166,-1.683 10e-4,-0.003 m -222.637,-334.3 -1.398,-0.808 -2.206,1.73 2.435,0.528 1.169,-1.45 m 40.401,88.74 -0.338,1.088 1.714,0.104 0.216,-1.601 -1.592,0.409 m -301.639,-119.402 1.576,-0.824 -0.024,-1.065 -1.408,0.68 -0.144,1.209 m 249.538,174.625 -0.017,2.058 1.506,-1.445 -1.484,-0.614 0,0.001 m -175.793,-128.105 2.669,2.394 0.958,-1.709 -3.63,-0.698 0.003,0.013 m 97.772,55.222 -3.271,-1.166 -1.595,1.508 4.86,-0.341 0.006,-10e-4 m 281.12,52.359 -0.798,-1.901 1.636,5.098 -0.835,-3.182 0,-0.015 m 21.105,107.123 0.485,-1.408 -1.003,0.229 0.514,1.194 0,-0.015 m -127.604,-61.565 -1.283,-0.247 2.637,0.855 -1.352,-0.608 0,0 m -496.342,25.208 -0.257,1.909 1.188,-2.176 -0.928,0.264 -0.003,0.003 m 397.758,-53.915 -2.686,-0.991 3.381,2.373 -0.692,-1.381 0,-10e-4 m 53.696,-33.004 2.694,4.236 -3.662,-6.396 0.967,2.153 10e-4,0.007 m -54.807,-44.73 -1.843,-1.849 0.556,2.183 1.281,-0.335 0.01,10e-4 m -50.587,-32.115 2.405,0.331 -4.521,-1.306 2.111,0.973 0.005,0.002 m 184.936,156.336 1.408,-0.888 -1.815,-1.115 0.402,1.962 0.01,0.041 m -374.238,401.088 -1.02,-0.447 -1.098,-0.449 2.115,0.895 0.003,0 m -45.697,-252.81 0.004,0.01 0.968,-1.341 -2.704,2.28 1.732,-0.949 m 13.876,-335.816 1.684,0.019 -2.326,-0.715 0.635,0.699 0.007,-0.003 m 226.672,3.629 -2.185,-2.955 -2.419,-0.188 4.604,3.146 0,-0.003 m -260.991,36.214 -0.842,1.138 2.691,-2.256 -1.841,1.107 -0.008,0.011 m 365.362,54.775 -0.527,-4.515 -2.26,2.576 2.765,1.94 0.022,-10e-4 M 729.103,626.29 l 0.6,1.282 1.391,-1.784 -1.982,0.498 -0.009,0.004 m 98.532,-36.968 -3.799,3.547 4.611,-1.459 -0.812,-2.089 0,10e-4 m 194.64,367.244 2.082,-4.163 -3.583,2.362 1.493,1.795 0.01,0.006 m -18.083,-265.771 -1.326,0.065 1.801,2.791 -0.474,-2.853 0,-0.003 m -164.969,431.045 2.097,-1.696 -4.486,0.104 2.379,1.592 0.01,0 m -10.028,-359.639 1.349,-1.14 -1.993,-0.522 0.64,1.661 0.004,10e-4 m 11.562,-182.143 0.003,0.765 2.708,-0.643 -2.708,-0.124 -0.003,0.002 m -89.146,286.52 5.512,1.653 2.343,-1.422 -7.851,-0.234 -0.004,0.003 m 72.733,-193.519 1.312,3.739 3.576,-4.069 -4.874,0.331 -0.014,-10e-4 m -116.28,-5.657 1.524,-1.247 -4.785,2.482 3.263,-1.239 -0.002,0.004 m 0.8,-2.403 -3.122,2.104 7.367,-4.819 -4.246,2.709 10e-4,0.006 m 101.92,-100.225 2.708,-0.588 -4.263,0.815 1.549,-0.226 0.006,-10e-4 m 430.317,262.668 -0.544,-3.118 0.525,4.797 0.02,-1.673 -10e-4,-0.006 m -205.912,124.031 -0.125,-3.354 -2.12,4.933 2.241,-1.578 0,-0.001 M 804.34,709.075 l -0.685,1.449 2.251,-2.546 -1.552,1.075 -0.014,0.022 m -4.176,12.907 1.317,1.144 -0.601,-3.365 -0.719,2.206 0.003,0.015 m -41.213,64.45 2.707,3.732 0.448,-3.304 -3.156,-0.431 10e-4,0.003 m -79.842,110.463 -0.002,0 -1.142,-0.602 2.969,1.614 -1.825,-1.012 m 483.275,-86.051 -0.98,-3.049 0.021,2.984 0.96,0.071 -10e-4,-0.006 m -346.819,-159.142 2.458,-0.47 -3.533,-0.657 1.075,1.124 0,0.003 m 22.92,-96.138 0.317,0.013 2.179,-0.507 -2.471,0.49 -0.025,0.004 m 322.873,477.795 1.083,-0.052 0.815,-3.302 -1.899,3.346 10e-4,0.01 m -228.576,-338.047 2.02,-0.67 -1.896,-1.652 -0.125,2.321 0.001,10e-4 m 24.909,-64.254 1.973,-0.451 -1.563,-1.019 -0.42,1.478 0.01,-0.008 m -282.904,454.79 0.955,-0.657 -1.493,-0.809 0.53,1.469 0.008,0 m 46.543,-106.069 1.029,-1.631 -3.655,0.4 2.622,1.233 0.004,-0.002 m 38.745,70.784 -2.073,-0.479 3.482,0.856 -1.378,-0.393 -0.031,0.016 m 184.239,-462.301 -0.514,-1.012 -1.781,0.351 2.28,0.657 0.015,0.004 m 92.376,357.825 -0.268,-1.405 -1.432,2.826 1.701,-1.416 -10e-4,-0.005 M 802.547,741.05 l 1.804,-1.124 -1.893,-1.015 0.085,2.135 0.004,0.004 m 192.182,298.177 1.632,-0.287 -1.93,-1.547 0.31,1.821 -0.012,0.013 m -101.337,-376.609 1.853,2.731 0.146,-2.065 -1.958,-0.698 -0.041,0.032 m -173.758,329.092 -1.439,-0.795 2.142,2.236 -0.695,-1.438 -0.008,-0.003 m 242.937,-331.861 -1.734,-1.619 -0.209,1.417 1.934,0.202 0.009,0 m -141.08,49.034 1.732,-0.56 -2.586,-0.727 0.854,1.31 0,-0.023 m -28.055,36.622 2.54,-0.605 0.728,-2.288 -3.262,2.875 -0.006,0.018 m -59.277,290.036 0.002,0 1.279,1.421 -1.969,-2.63 0.688,1.206 m 294.626,-80.828 -1.734,-0.538 -0.409,1.711 2.14,-1.167 0,-0.006 m -121.753,-403.374 1.215,0.213 1.489,-0.189 -2.707,-0.025 0.003,10e-4 m -104.393,35.284 -0.141,0.082 -1.147,0.873 2.722,-1.721 -1.434,0.766 m 28.204,72.444 1.417,-1.668 -2.84,2.66 1.436,-0.98 -0.013,-0.012 m 126.648,-29.925 -3.112,-1.303 0.836,1.457 2.3,-0.138 -0.024,-0.016 m -194.596,-47.809 -1.775,0.794 3.318,-1.449 -1.528,0.647 -0.015,0.008 m 77.001,84.734 -2.426,-1.153 1.305,2.441 1.116,-1.273 0.005,-0.015 m -12.858,55.392 -1.835,-0.839 1.807,2.286 0.037,-1.433 -0.009,-0.014 m 326.672,332.394 0.253,0.859 1.005,-1.981 -1.258,1.118 0,0 m -224.373,-353.85 3.121,-0.324 -2.048,-0.885 -1.07,1.205 -0.003,0.004 m -87.166,-30.613 -0.922,-0.907 -0.966,1.882 1.891,-0.958 -0.003,-0.017 m 222.594,90.686 -1.29,-1.276 -0.13,1.847 1.42,-0.571 m -237.725,-196.528 -2.384,1.42 2.829,-0.87 -0.445,-0.55 m 97.671,157.23 4.72,-1.668 -1.458,-2.096 -3.262,3.764 m 3.608,-13.476 4.043,0.2 -1.584,-1.218 -2.459,1.018 m -173.408,-121.34 -0.644,0.547 1.811,-0.982 -1.167,0.435 m 307.104,153.772 -2.669,-5.405 0.158,3.257 2.511,2.148 m -369.543,-55.63 -2.082,2.355 3.454,-3.606 -1.372,1.251 m 6.817,276.918 1.006,1.234 -1.002,-1.249 -0.004,0.015 m 304.033,-265.603 -0.715,-1.997 0.708,1.989 0.01,0.008 m -212.6,-6.134 -1.186,1.363 1.194,-1.363 -0.008,0 m 218.086,95.026 0.458,-1.802 -0.473,1.775 0.015,0.027 m -401.025,38.97 -0.744,3.793 0.75,-3.795 -0.006,0.002 m 359.738,84.413 3.435,-0.029 -3.435,0.024 0,0.005 m 144.591,-101.064 1.217,-1.161 -1.223,1.153 0.01,0.008 m -400.623,152.782 1.313,1.654 -1.309,-1.657 -0.004,0.003 m 42.549,-372.963 -1.162,0.952 1.169,-0.954 -0.007,0.002 m 234.454,163.683 1.568,1.12 -1.564,-1.121 -0.004,10e-4 m 15.755,-73.748 -1.262,0.453 1.26,-0.45 0,-0.003 m -49.05,-49.145 -3.322,-1.112 3.318,1.116 0.004,-0.004 m -353.917,196.601 0,0 0.953,-0.814 -0.953,0.814 m 355.74,-185.118 -0.207,-2.483 0.206,2.486 0.001,-0.003 m -120.428,480.443 0.086,1.357 -0.086,-1.376 0,0.019 m -9.331,-351.586 1.081,1.107 -1.077,-1.117 -0.004,0.01 m 8.223,-16.717 0.371,2.086 -0.369,-2.09 -0.002,0.004 m 167.838,-63.941 -0.641,1.395 0.644,-1.394 0,-10e-4 m -274.257,-73.079 -1.44,0.86 1.444,-0.861 -0.004,0.001 m 102.711,142.729 1.628,0.335 -1.623,-0.348 -0.005,0.013 m 254.673,95.467 -0.01,0.005 1.246,-0.432 -1.238,0.427 m -401.807,-158.347 -0.004,-10e-4 -1.029,0.252 1.033,-0.251 m 133.928,71.855 0.111,-1.752 -0.115,1.75 0.004,0.002 m 187.117,-67.194 0,0.002 -0.121,1.679 0.123,-1.681 m -336.58,332.825 0,0.01 0.451,1.508 -0.451,-1.517 m 136.621,-290.524 0.104,-1.678 -0.111,1.682 0.007,-0.004 m 202.631,22.147 1.156,1.188 -1.164,-1.202 0.01,0.014 m -179.635,29.075 1.502,0.688 -1.499,-0.69 -0.003,0.002 m 66.111,-31.193 2.107,1.462 -2.107,-1.466 0,0.004 m -116.673,279.622 0.554,-1.856 -0.581,1.844 0.027,0.012 m 336.586,-233.414 0.01,-0.01 -0.945,0.85 0.935,-0.84 m 109.879,-31.38 -1.159,-2.848 1.145,2.82 0.014,0.028 M 954.832,602.43 l -1.427,-0.06 1.431,0.063 -0.004,-0.003 m 99.933,117.327 -0.292,-2.032 0.265,2.009 0.027,0.023 m -99.857,-87.603 0.002,0.012 0.762,-1.717 -0.764,1.705 m -2.869,-1.351 1.254,0.904 -1.254,-0.907 0,0.003 m -71.97,144.269 1.596,-0.777 -1.595,0.772 -0.001,0.005 m 127.709,-23.331 0.393,1.252 -0.385,-1.256 -0.01,0.004 m -154.013,469.999 0.735,-0.812 -0.735,0.812 0,0 m -196.959,-248.585 -0.006,-0.004 -1.145,-0.044 1.151,0.048 m -27.058,72.72 1.484,0.905 -1.481,-0.907 -0.003,0 m 364.685,-432.328 -0.002,-0.003 -1.716,-1.375 1.718,1.378 m -18.506,-3.239 -1.765,0.195 1.761,-0.187 0.004,-0.008 m -301.101,98.655 -0.976,2.146 0.983,-2.152 -0.007,0.006 m 459.398,107.781 -2.116,-1.087 2.108,1.084 0.01,0.003 m -474.08,133.379 1.313,-0.1 -1.309,0.097 -0.004,0.003 m 478.151,-130.733 -0.537,-1.88 0.534,1.876 0,0.004 m -91.561,-94.641 1.265,0.438 -1.267,-0.445 0,0.007 m -56.696,26.87 -1.975,-1.119 1.975,1.119 0,0 m 19.435,30.455 0,-0.003 0.396,-1.199 -0.398,1.202 m -188.908,-69.971 3.063,-0.845 -3.056,0.833 -0.007,0.012 m 208.946,-90.212 -1.467,-0.831 1.455,0.839 0.012,-0.008 m -377.72,342.48 1.021,-1.022 -1.017,1.005 -0.004,0.017 m -2.146,-82.35 -0.007,0.004 1.239,-0.123 -1.232,0.119 m 84.483,-246.869 -0.225,0.941 0.232,-0.938 -0.007,-0.003 m -23.799,27.671 1.764,-0.736 -1.768,0.734 0.004,0.002 m 30.34,216.819 1.473,-1.504 -1.477,1.5 0.004,0.004 m 35.802,150.253 0.997,1.882 -0.994,-1.913 -0.003,0.031 m -58.489,-62.734 1.465,1.316 -1.462,-1.331 -0.003,0.015 m 55.914,-376.078 0.01,-0.007 -2.278,1.122 2.268,-1.115 m 216.682,162.659 1.486,0.885 -1.486,-0.885 0,0 m -59.48,-63.268 0.003,10e-4 -2.446,-3.168 2.443,3.167 m 58.893,340.476 2.391,-0.095 -2.392,0.081 0.001,0.014 m 64.336,-266.935 -1.557,-0.426 1.553,0.429 0,-0.003 m -283.06,16.541 2.16,0.426 -2.148,-0.429 -0.012,0.003 m -66.848,-107.672 -0.004,0.006 1.78,-1.557 -1.776,1.551 m 510.154,107.419 -0.622,-0.431 0.629,0.441 -0.01,-0.01 m -599.998,3.503 -0.067,-1.381 0.065,1.369 0.002,0.012 m 390.345,-101.919 -0.93,-1.58 0.925,1.585 0,-0.005 m 96.343,121.108 1.6,1.752 -1.598,-1.754 0,0.002 m -88.695,-92.057 -0.499,-1.221 0.484,1.208 0.015,0.013 m 127.132,93.942 1.058,-0.627 -1.063,0.625 0.01,0.002 m 11.041,6.053 -1.288,-0.029 1.302,0.048 -0.014,-0.019 m -219.253,-113.929 -1.207,-1.309 1.206,1.312 10e-4,-0.003 M 641.4,882.424 l 2.132,-0.42 -2.13,0.416 -0.002,0.004 m 116.945,337.632 1.226,0.54 -1.228,-0.54 0.002,0 m -33.479,-593.335 0.289,0.576 -0.289,-0.578 0,0.002 m 415.899,195.86 1.413,-0.224 -1.416,0.22 0,0.004 m -441.458,-145.802 -10e-4,0 1.436,-0.675 -1.435,0.675 m 79.257,359.158 0.017,0.01 -0.994,-1.987 0.977,1.981 m -147.668,-137.788 1.357,-1.92 -1.351,1.903 -0.006,0.017 m 328.283,-188.062 0.823,-2.243 -0.845,2.251 0.022,-0.008 m -179.776,344.212 -0.047,-0.011 -1.583,0.143 1.63,-0.132 m 58.607,64.366 -0.525,1.115 0.55,-1.112 -0.025,0 m -122.478,-153.635 -0.982,-4.645 0.981,4.642 10e-4,0.003 m 516.443,-112.018 -0.564,-0.071 0.565,0.078 -10e-4,-0.007 m -634.813,-1.097 -0.044,2.094 0.046,-2.091 -0.002,-0.003 m 554.248,-45.592 -1.535,-2.124 1.524,2.12 0.011,0.004 m -343.98,-240.589 -2.76,0.633 2.766,-0.632 -0.006,-10e-4 m 193.177,209.604 1.231,-0.771 -1.233,0.766 0,0.005 m -242.037,92.188 2.161,0.391 -2.165,-0.392 0.004,10e-4 m 80.476,-158.069 1.683,-0.514 -1.683,0.514 0,0 m -141.193,249.922 1.75,1.586 -1.749,-1.591 -0.001,0.005 m 317.964,-233.262 0.728,-1.276 -0.734,1.269 0.01,0.007 m -172.778,395.86 -2.818,0.144 2.823,-0.143 -0.005,-10e-4 m 237.472,-259.913 -0.946,1.411 0.949,-1.413 0,0.002 m -50.525,-240.118 -0.01,-0.007 0.272,0.975 -0.267,-0.968 m -300.81,4.115 0.914,-0.901 -0.914,0.901 0,0 m 289.235,164.76 0.239,-2.477 -0.247,2.463 0.01,0.014 m -3.509,162.947 1.189,1.672 -1.184,-1.681 0,0.009 m 192.382,-122.596 0.692,-0.438 -0.703,0.419 0.011,0.019 m 11.4,-53.889 -0.166,-1.316 0.16,1.306 0.01,0.01 m -492.3,-161.719 0.797,0.211 -0.79,-0.213 -0.007,0.002 m -51.784,87.35 -1.107,1.531 1.108,-1.527 -0.001,-0.004 m 70.738,-110.487 10e-4,-0.002 -2.722,1.839 2.721,-1.837 m -10.362,299.347 -2.077,2.947 2.095,-2.938 -0.018,-0.009 m 249.808,137.97 1.941,-0.982 -1.942,0.973 10e-4,0.01 m -174.672,-282.29 0.009,0.003 -1.336,-0.842 1.327,0.839 m 23.093,373.871 2.342,0.316 -2.34,-0.317 -0.002,10e-4 m 409.806,-157.786 -0.196,1.95 0.198,-1.962 0,0.012 m -571.488,-249.23 -0.975,1.083 0.982,-1.089 -0.007,0.006 m 200.796,423.687 0.234,-1.202 -0.239,1.205 0.005,0 m -99.368,-89.389 1.045,-0.974 -1.045,0.968 0,0.01 M 660.21,887.964 l 0.878,1.014 -0.873,-1.015 -0.005,0.001 m 357.073,-162.652 0,0.002 -0.743,1.668 0.746,-1.67 m -316.028,-50.142 -1.267,0.94 1.271,-0.942 -0.004,0.002 m 127.181,-23.948 1.942,-1.005 -1.944,0.988 0.002,0.017 m 301.649,197.506 1.138,0.146 -1.143,-0.154 0,0.008 m -254.657,363.026 1.604,0.049 -1.605,-0.064 0.001,0.015 m 84.365,-577.911 -1.468,-0.364 1.469,0.371 -10e-4,-0.007 m -118.202,203.002 1.536,-0.281 -1.534,0.267 -0.002,0.014 m -42.067,-116.936 -1.49,2.246 1.494,-2.241 -0.004,-0.005 m -94.158,-47.043 1.573,-1.585 -1.585,1.592 0.012,-0.007 m 452.763,137.143 0,0.004 0.242,-1.605 -0.244,1.601 m -3.242,-4.436 -0.012,0.01 -0.898,1.113 0.91,-1.123 m -285.356,407.782 1.267,-0.227 -1.268,0.225 0.001,0 m 1.693,-482.956 -0.004,0.004 2.052,-0.339 -2.048,0.335 m 284.518,81.886 0,0.002 -0.186,1.19 0.188,-1.192 m -192.93,-159.005 0.342,-1.362 -0.36,1.393 0.018,-0.031 m -227.026,-52.497 -0.214,1.666 0.217,-1.666 -0.003,0 m 162.53,-20.559 1.188,0.63 -1.186,-0.631 -0.002,10e-4 m 263.76,235.031 -0.429,-1.614 0.423,1.606 0.01,0.008 m -272.827,-35.163 -1.763,-0.99 1.762,1.014 10e-4,-0.024 m -128.228,441.133 1.418,0.609 -1.432,-0.615 0.014,0.01 m 69.715,-98.579 1.783,-1.187 -1.783,1.121 0,0.066 m -123.203,-184.879 -3.67,-0.526 3.677,0.53 -0.007,-0.004 m 313.72,-143.044 1.541,-0.922 -1.546,0.914 0,0.008 m 38.085,-35.852 -0.525,1.219 0.525,-1.219 0,0 m -60.53,273.959 1.083,-1.385 -1.091,1.38 0.008,0 m -151.727,-298.566 1.208,-0.815 -1.213,0.818 0.005,-0.003 m -90.704,275.319 1.653,0.312 -1.651,-0.325 -0.002,0.013 m -118.558,-124.353 2.464,-2.264 -2.462,2.26 -0.002,0.004 m 68.916,-215.141 -0.838,1.119 0.842,-1.117 -0.004,-0.002 m 199.421,-86.113 0.06,1.211 -0.038,-1.219 -0.022,0.008 m 247.467,225.34 0.118,-1.865 -0.121,1.876 0,-0.011 M 910.53,551.464 l -0.755,0.081 0.761,-0.081 -0.006,0 m -282.046,491.74 1.261,1.231 -1.261,-1.255 0,0.024 m 409.36,-238.826 1.483,-0.934 -1.485,0.93 0,0.004 m -32.555,-122.262 -0.974,0.561 0.978,-0.561 0,0 m -177.84,-20.291 -1.574,1.411 1.574,-1.381 0,-0.03 m 303.02,92.862 0.01,-0.002 -1.422,0.455 1.416,-0.453 m -173.664,149.647 -1.557,-0.368 1.57,0.382 -0.013,-0.014 m 36.605,-287.601 -0.783,-0.836 0.774,0.836 0.009,0 m -33.766,286.779 1.604,-0.023 -1.62,-0.087 0.016,0.11 m -211.906,-312.76 -1.479,1.485 1.498,-1.494 -0.019,0.009 m -39.15,78.494 -1.155,1.464 1.193,-1.481 -0.038,0.017 m -48.286,274.197 1.249,0.211 -1.253,-0.229 0.004,0.018 m 53.812,10.523 1.334,3.973 -1.328,-3.995 -0.006,0.022 m -25.922,-263.693 -1.057,1.027 1.085,-1.044 -0.028,0.017 m 379.74,69.208 0,0.003 -0.339,1.438 0.343,-1.441 m -281.439,286.359 -0.96,-1.463 0.956,1.466 0.004,0 m 56.011,-491.083 -0.886,0.162 0.886,-0.162 0,0 m -18.259,108.752 2.112,0.485 -2.119,-0.49 0.007,0.005 m -131.572,19.525 -0.542,1.074 0.554,-1.081 -0.012,0.007 m 44.55,353.363 0.843,1.563 -0.841,-1.575 -0.002,0.012 m -96.608,-153.644 0.977,-0.532 -1.021,0.551 0.044,-0.019 m 94.002,-249.845 1.26,0.041 -1.239,-0.045 -0.021,0.004 m 92.897,38.901 -1.545,-0.268 1.528,0.268 0.017,0 m -140.688,17.948 0,0.002 1.71,-1.689 -1.71,1.687 m 41.611,206.661 1.646,-0.984 -1.639,0.965 -0.007,0.019 m 232.885,-261.073 -0.359,0.808 0.36,-0.8 -10e-4,-0.008 m -209.469,-47.208 -0.172,-0.43 0.168,0.433 0.004,-0.003 m 121.437,547.969 2.16,-0.18 -2.16,0.176 0,0 m 141.628,-207.393 1.64,0.083 -1.636,-0.084 0,10e-4 m 226.008,48.625 0.596,-2.619 -0.594,2.611 0,0.008 m -627.114,-188.166 -0.246,1.702 0.251,-1.709 -0.005,0.007 m 292.589,-208.779 1.14,0.639 -1.142,-0.641 0.002,0.002 m -29.741,145.558 -0.048,-2.048 0.043,2.052 0.005,-0.004 m -78.655,-33.906 -0.457,1.306 0.473,-1.289 -0.016,-0.017 m 346.381,105.012 -0.538,1.049 0.54,-1.048 0,-10e-4 m -139.529,-97.136 0.246,1.384 -0.244,-1.386 0,0.002 m -304.02,264.357 -0.273,-2.092 0.265,2.124 0.008,-0.032 m 349.63,-136.057 1.242,-0.088 -1.244,0.083 0,0.005 m 81.992,-75.429 0,-0.001 -0.786,0.933 0.791,-0.932 m -349.869,-179.877 -1.01,0.526 1.012,-0.526 -0.002,0 m -120.92,318.23 0.487,1.192 -0.482,-1.195 -0.005,0.003 m 184.821,-234.298 1.759,-1.637 -1.758,1.63 -10e-4,0.007 m -86.918,356.148 1.856,0.107 -1.855,-0.117 -10e-4,0.01 m 197.783,-365.117 0.003,0.004 -0.325,-1.32 0.322,1.316 m -323.979,402.1 1.529,0.219 -1.529,-0.222 0,0 m 608.449,-214.715 -0.034,-1.12 0.033,1.117 10e-4,0.003 M 671.812,714.13 l -0.507,1.177 0.509,-1.179 -0.002,0.002 m 392.638,40.264 -1.688,-0.954 1.676,0.955 0.012,-10e-4 m -61.741,-72.156 0.321,-2.421 -0.328,2.421 0.01,0 m -175.723,34.998 -0.799,1.819 0.809,-1.796 -0.01,-0.023 m 170.988,311.174 0.717,1.106 -0.718,-1.111 10e-4,0.01 m -323.607,58.726 0.889,-0.139 -0.889,0.131 0,0.01 m -21.872,-126.332 0.002,0 0.945,-1.135 -0.947,1.135 m 116.181,-381.905 0.674,-0.453 -0.708,0.465 0.034,-0.012 m -65.481,356.878 -0.003,-0.002 0.805,1.442 -0.802,-1.44 m 96.025,-252.351 -0.002,0.002 -0.77,1.205 0.772,-1.207 m 13.975,17.63 -0.847,-1.319 0.84,1.324 0.007,-0.005 m 5.206,-25.687 -1.938,-1.275 1.9,1.278 0.038,-0.003 m -192.931,365.669 1.059,1.471 -1.059,-1.51 0,0.039 m 83.127,-103.967 1.183,0.844 -1.18,-0.846 -0.003,0.002 m 245.461,-307.988 -0.005,-0.015 -1.003,-0.993 1.008,1.008 m -276.083,72.16 0.212,1.117 -0.209,-1.119 -0.003,0.002 m -77.718,159.994 0.313,-1.594 -0.318,1.587 0.005,0.007 m 237.991,-305.577 -0.937,0.211 0.942,-0.211 -0.005,0 m -27.222,288.945 2.926,-1.521 -2.913,1.509 -0.013,0.012 m 94.111,-96.011 1.823,-0.651 -1.811,0.637 -0.012,0.014 m -39.905,381.569 0.49,-1.088 -0.49,1.077 0,0.011 m -23.025,-280.993 -0.002,-0.006 -0.991,0.982 0.993,-0.976 m -89.207,18.766 1.39,0.182 -1.386,-0.191 -0.004,0.009 m -148.382,-12.585 0.296,1.171 -0.29,-1.184 -0.006,0.013 m 181.503,-283.387 -2.618,0.94 2.615,-0.938 0.003,-0.002 m 316.016,232.702 1.255,0.611 -1.257,-0.623 0,0.012 m -268.92,318.878 0.962,-0.868 -0.975,0.86 0.013,0.01 m 179.028,-340.225 1.357,0.455 -1.391,-0.517 0.034,0.062 m 39.473,45.931 1.062,0.801 -1.062,-0.807 0,0.006 m 0.011,-105.402 -2.519,-1.121 2.516,1.12 0,10e-4 m -176.873,-7.934 0.386,1.208 -0.381,-1.212 -0.005,0.004 m -104.67,301.88 1.186,1.146 -1.184,-1.155 -0.002,0.01 m 76.097,-335.186 0.004,0.01 0.935,-0.945 -0.939,0.935 m -56.32,-90.166 -0.751,0.758 0.753,-0.747 -0.002,-0.011 m -67.274,393.91 -1.614,-1.059 1.61,1.076 0.004,-0.017 m 463.689,-168.859 0.271,-1.047 -0.272,1.05 10e-4,-0.003 m -23.2,292.66 -0.012,0.644 0.035,-0.709 -0.023,0.065 m -37.274,-241.901 -0.492,1.314 0.498,-1.309 -0.01,-0.005 m -242.281,-89.294 0.852,-1.125 -0.85,1.106 -0.002,0.019 m 170.736,-15.853 1.226,0.009 -1.225,-0.016 -10e-4,0.007 m -324.017,-122.906 -0.028,-0.018 -0.702,-0.435 0.73,0.453 m 197.659,42.42 -0.271,-1.213 0.269,1.217 0.002,-0.004 m 169.112,141.244 0.718,-1.176 -0.736,1.146 0.018,0.03 m -263.898,298.375 -0.833,1.038 0.84,-1.031 -0.007,-0.01 m -15.565,-372.682 1.267,2.068 -1.269,-2.072 0.002,0.004 m 1.202,-83.166 1.94,-1.317 -1.957,1.284 0.017,0.033 m 14.701,454.494 1.35,0.06 -1.346,-0.065 -0.004,0.01 m -58.748,-347.775 -0.005,0.008 2.35,-1.133 -2.345,1.125 m 50.481,-63.134 -2.286,0.413 2.293,-0.381 -0.007,-0.032 m 9.934,-48.946 -0.542,-1.288 0.53,1.313 0.012,-0.025 m -140.935,20.528 -0.017,0.001 -0.247,1.127 0.264,-1.128 m 129.435,-28.645 -1.079,-0.436 1.083,0.439 -0.004,-0.003 m -142.166,317.297 1.396,1.079 -1.39,-1.102 -0.006,0.023 m 224.219,-395.73 -1.887,-0.049 1.885,0.07 0.002,-0.021 m 145.417,183.195 0.998,0.965 -0.992,-0.964 -0.01,-10e-4 m 92.671,41.611 -0.192,1.845 0.198,-1.837 -0.01,-0.008 m -88.074,-37.528 0.622,1.67 -0.615,-1.669 -0.01,-10e-4 m -183.204,-51.551 -1.542,0.831 1.543,-0.828 -10e-4,-0.003 m -10.765,-29.364 -1.248,-0.746 1.245,0.761 0.003,-0.015 m 92.581,224.846 2.475,0.168 -2.477,-0.178 0.002,0.01 M 824.91,665.583 l -1.866,-0.668 1.835,0.668 0.031,0 m -41.166,19.798 0.41,0.915 -0.388,-0.93 -0.022,0.015 m 205.779,-73.66 0.955,-0.69 -0.975,0.684 0.02,0.006 m 58.557,167.815 0.782,-1.128 -0.802,1.099 0.02,0.029 m 103.743,44.802 -0.887,-1.022 0.882,1.029 0.01,-0.007 m -314.549,-151.213 1.693,-1.283 -1.709,1.227 0.016,0.056 m -113.503,299.038 0.009,0.019 1.191,0.976 -1.2,-0.995 m 173.976,-219.551 1.773,2.701 -1.773,-2.71 0,0.009 m -73.468,-87.904 -0.646,-0.807 0.636,0.8 0.01,0.007 m -45.454,109.524 -1.516,0.836 1.506,-0.813 0.01,-0.023 m 20.684,-167.516 0.385,0.551 -0.365,-0.549 -0.02,-0.002 M 960,631.861 l -1.75,-0.781 1.75,0.784 0,-0.003 m -87.17,101.522 1.763,0.099 -1.751,-0.101 -0.012,0.002 m -173.59,-53.38 -1.146,0.035 1.143,-0.029 0.003,-0.006 m 126.727,32.139 -0.84,1.503 0.847,-1.49 -0.007,-0.013 m 196.959,34.176 0,-0.004 -0.953,-1.118 0.955,1.122 m -323.944,186.694 -0.426,1.23 0.43,-1.232 -0.004,0.002 m 130.931,-260.684 1.099,-0.845 -1.121,0.822 0.022,0.023 m 59.92,-7.068 -1.134,-1.668 1.095,1.686 0.039,-0.018 m -17.241,51.719 0.961,-0.906 -0.963,0.903 0.002,0.003 m 136.725,38.684 -2.054,-3.254 2.045,3.241 0.01,0.013 M 900,660.756 l -1.146,-1.074 1.146,1.074 0,0 m -0.907,0.607 -0.899,-0.903 0.848,0.894 0.051,0.009"
       style="fill:#ffffff" />
  </g>
</svg>
