<?xml version="1.0" encoding="UTF-8" standalone="no"?>
<svg
   xmlns:dc="http://purl.org/dc/elements/1.1/"
   xmlns:cc="http://creativecommons.org/ns#"
   xmlns:rdf="http://www.w3.org/1999/02/22-rdf-syntax-ns#"
   xmlns:svg="http://www.w3.org/2000/svg"
   xmlns="http://www.w3.org/2000/svg"
   xmlns:sodipodi="http://sodipodi.sourceforge.net/DTD/sodipodi-0.dtd"
   xmlns:inkscape="http://www.inkscape.org/namespaces/inkscape"
   viewBox="0 0 500 500"
   id="svg2"
   version="1.1"
   inkscape:version="0.48.5 r10040"
   width="100%"
   height="100%"
   sodipodi:docname="hydrogen.svg">
  <metadata
     id="metadata73">
    <rdf:RDF>
      <cc:Work
         rdf:about="">
        <dc:format>image/svg+xml</dc:format>
        <dc:type
           rdf:resource="http://purl.org/dc/dcmitype/StillImage" />
        <dc:title />
      </cc:Work>
    </rdf:RDF>
  </metadata>
  <sodipodi:namedview
     pagecolor="#ffffff"
     bordercolor="#666666"
     borderopacity="1"
     objecttolerance="10"
     gridtolerance="10"
     guidetolerance="10"
     inkscape:pageopacity="0"
     inkscape:pageshadow="2"
     inkscape:window-width="1366"
     inkscape:window-height="716"
     id="namedview71"
     showgrid="false"
     inkscape:zoom="0.43457605"
     inkscape:cx="175.65908"
     inkscape:cy="226.04024"
     inkscape:window-x="0"
     inkscape:window-y="0"
     inkscape:window-maximized="1"
     inkscape:current-layer="svg2" />
  <defs
     id="defs4">
    <linearGradient
       id="linearGradient3764"
       x1="1"
       x2="47"
       gradientUnits="userSpaceOnUse"
       gradientTransform="matrix(0,-1,1,0,-1.5e-6,47.999998)">
      <stop
         stop-color="#c8cddc"
         stop-opacity="1"
         id="stop7" />
      <stop
         offset="1"
         stop-color="#d5d9e4"
         stop-opacity="1"
         id="stop9" />
    </linearGradient>
    <clipPath
       id="clipPath-978935007">
      <g
         transform="translate(0,-1004.3622)"
         id="g12">
        <path
           d="m -24,13 c 0,1.105 -0.672,2 -1.5,2 -0.828,0 -1.5,-0.895 -1.5,-2 0,-1.105 0.672,-2 1.5,-2 0.828,0 1.5,0.895 1.5,2 z"
           transform="matrix(15.333333,0,0,11.5,414.99999,878.8622)"
           id="path14"
           inkscape:connector-curvature="0"
           style="fill:#1890d0" />
      </g>
    </clipPath>
    <clipPath
       id="clipPath-989916604">
      <g
         transform="translate(0,-1004.3622)"
         id="g17">
        <path
           d="m -24,13 c 0,1.105 -0.672,2 -1.5,2 -0.828,0 -1.5,-0.895 -1.5,-2 0,-1.105 0.672,-2 1.5,-2 0.828,0 1.5,0.895 1.5,2 z"
           transform="matrix(15.333333,0,0,11.5,414.99999,878.8622)"
           id="path19"
           inkscape:connector-curvature="0"
           style="fill:#1890d0" />
      </g>
    </clipPath>
  </defs>
  <g
     id="g33"
     transform="translate(0,452)" />
  <path
     style="fill:#00bbf2;fill-opacity:1;fill-rule:nonzero;stroke:none"
     inkscape:connector-curvature="0"
     id="path59"
     d="m 45.419935,49.69659 28.397555,0 c 11.213659,0 20.419935,13.722889 20.419935,30.681818 l 0,353.939782 C 94.237425,451.27712 85.048454,465 73.81749,465 l -28.397555,0 C 34.137056,465 25,451.27712 25,434.31819 L 25,80.378408 C 25,63.419479 34.119751,49.69659 45.419935,49.69659 m 0,0" />
  <path
     style="fill:#00bbf2;fill-opacity:1;fill-rule:nonzero;stroke:none"
     inkscape:connector-curvature="0"
     id="path61"
     d="m 249.96539,288.8521 0,-28.39755 c 0,-11.28288 -6.8874,-20.41994 -15.34956,-20.41994 l -177.030459,0 c -8.444854,0 -15.349561,9.11976 -15.349561,20.41994 l 0,28.39755 c 0,11.28288 6.887402,20.41994 15.349561,20.41994 l 177.030459,0 c 8.44485,0 15.34956,-9.11975 15.34956,-20.41994 m 0,0" />
  <path
     style="fill:#00bbf2;fill-opacity:1;fill-rule:nonzero;stroke:none"
     inkscape:connector-curvature="0"
     id="path63"
     d="m 226.24019,49.69659 220.56992,0 C 462.35002,49.69659 475,64.561611 475,82.818417 l 0,349.042453 c 0,18.32603 -12.63267,32.98339 -28.18989,32.98339 l -220.56992,0 c -15.53991,0 -28.18989,-14.74389 -28.18989,-32.98339 l 0,-349.042453 c 0,-18.256806 12.63267,-33.121827 28.18989,-33.121827 m 0,0" />
  <path
     style="fill:#ffffff;fill-opacity:1;fill-rule:nonzero;stroke:none"
     inkscape:connector-curvature="0"
     id="path65"
     d="m 232.66036,136.22174 0,51.91509 155.74527,0 0,51.91509 -155.74527,0 0,138.44024 207.66036,0 0,-51.91509 -155.74527,0 0,-51.91509 155.74527,0 0,-138.44024 m -207.66036,0" />
</svg>
