<?xml version="1.0" encoding="UTF-8" standalone="no"?>
<!-- Created with Inkscape (http://www.inkscape.org/) -->

<svg
   xmlns:dc="http://purl.org/dc/elements/1.1/"
   xmlns:cc="http://creativecommons.org/ns#"
   xmlns:rdf="http://www.w3.org/1999/02/22-rdf-syntax-ns#"
   xmlns:svg="http://www.w3.org/2000/svg"
   xmlns="http://www.w3.org/2000/svg"
   xmlns:sodipodi="http://sodipodi.sourceforge.net/DTD/sodipodi-0.dtd"
   xmlns:inkscape="http://www.inkscape.org/namespaces/inkscape"
   width="512"
   height="512"
   id="svg2"
   version="1.1"
   inkscape:version="0.91 r13725"
   sodipodi:docname="icons.svg">
  <defs
     id="defs4" />
  <sodipodi:namedview
     id="base"
     pagecolor="#ffffff"
     bordercolor="#666666"
     borderopacity="1.0"
     inkscape:pageopacity="0.0"
     inkscape:pageshadow="2"
     inkscape:zoom="0.35"
     inkscape:cx="491.5024"
     inkscape:cy="334.39511"
     inkscape:document-units="px"
     inkscape:current-layer="layer1"
     showgrid="false"
     inkscape:window-width="1366"
     inkscape:window-height="715"
     inkscape:window-x="0"
     inkscape:window-y="24"
     inkscape:window-maximized="1" />
  <metadata
     id="metadata7">
    <rdf:RDF>
      <cc:Work
         rdf:about="">
        <dc:format>image/svg+xml</dc:format>
        <dc:type
           rdf:resource="http://purl.org/dc/dcmitype/StillImage" />
        <dc:title />
      </cc:Work>
    </rdf:RDF>
  </metadata>
  <g
     inkscape:label="Layer 1"
     inkscape:groupmode="layer"
     id="layer1"
     transform="translate(0,-540.36218)">
    <g
       id="g4210">
      <rect
         ry="55.714287"
         y="560.93359"
         x="20"
         height="474.28571"
         width="465.71429"
         id="rect4233"
         style="fill:#004455;fill-opacity:1;stroke:none;stroke-width:1;stroke-miterlimit:4;stroke-dasharray:none;stroke-opacity:1" />
      <g
         transform="matrix(1.378838,0,0,1.378838,244.80661,-209.77736)"
         id="g4227">
        <path
           style="fill:#ffb800;stroke:none"
           d="m 62.597542,578.23619 67.435298,0.0506 1.13294,0.50727 0.55801,1.08222 0,56.73156 6.37491,6.5271 0.0507,29.3888 -1.60642,1.09911 -73.979297,0.54111 z"
           id="path2996"
           inkscape:connector-curvature="0" />
        <path
           style="fill:#faec6d;stroke:none"
           d="m 62.597595,578.23872 25.731172,21.09189 0.09567,58.82778 -2.008753,3.06094 0.04789,29.70082 -1.626139,0.90872 -22.279381,-17.6898 z"
           id="path3766"
           inkscape:connector-curvature="0"
           sodipodi:nodetypes="cccccccc" />
        <path
           style="fill:none;stroke:#ffb800;stroke-width:0.53566736px;stroke-linecap:round;stroke-linejoin:miter;stroke-opacity:1"
           d="m 65.066332,672.77749 0.135256,-88.47076"
           id="path3768"
           inkscape:connector-curvature="0" />
        <path
           style="fill:none;stroke:#ffb800;stroke-width:0.53566736px;stroke-linecap:round;stroke-linejoin:miter;stroke-opacity:1"
           d="m 66.858337,674.06492 0.135256,-88.4708"
           id="path3768-3"
           inkscape:connector-curvature="0" />
      </g>
      <path
         id="path4235"
         d="M 75.714844,560.93445 C 44.849129,560.93445 20,585.78162 20,616.64734 l 0,65.44336 322.42383,353.1289 87.57617,0 c 30.86571,0 55.71484,-24.8491 55.71484,-55.71484 l 0,-89.11719 -321.79296,-329.45312 -88.207036,0 z"
         style="fill:#ffffff;fill-rule:evenodd;stroke:none;stroke-width:1px;stroke-linecap:butt;stroke-linejoin:miter;stroke-opacity:1"
         inkscape:connector-curvature="0" />
      <g
         transform="matrix(1.378838,0,0,1.378838,126.62049,-288.56811)"
         id="g4209">
        <path
           inkscape:connector-curvature="0"
           id="path3340"
           d="m 93.661364,777.4485 c -14.065105,-0.70125 -27.062377,-4.59666 -32.675031,-9.79299 -1.424333,-1.31857 -2.559772,-3.19968 -2.555817,-4.23391 0.0064,-1.75055 2.159273,-4.36644 5.179087,-6.2938 12.923862,-8.24837 39.668177,-10.44487 59.273237,-4.86807 6.77201,1.92633 11.88889,4.55103 14.71548,7.54838 1.91107,2.02641 2.27141,3.31241 1.44089,5.14179 -1.95142,4.2982 -10.64098,8.67439 -21.57456,10.86534 -4.40089,0.8819 -8.59065,1.38265 -13.78154,1.6469 -4.543645,0.23153 -5.119285,0.23077 -10.021746,-0.0151 z"
           style="fill:#cccccc;fill-opacity:0.58823529;stroke-width:0.78468841" />
        <path
           inkscape:connector-curvature="0"
           id="path3340-3"
           d="m 95.077146,850.11149 c -10.791516,-0.53804 -20.763722,-3.5267 -25.070054,-7.51363 -1.092833,-1.01184 -1.964003,-2.455 -1.960963,-3.24852 0.0053,-1.34307 1.656712,-3.35023 3.973676,-4.8289 9.915884,-6.3287 30.435575,-8.01386 45.477645,-3.7352 5.19586,1.47807 9.1218,3.49188 11.29051,5.79164 1.46628,1.55474 1.74276,2.54146 1.10553,3.94505 -1.49723,3.29784 -8.16433,6.65536 -16.55316,8.33648 -3.37661,0.67659 -6.59123,1.06067 -10.57396,1.26361 -3.486127,0.17753 -3.927787,0.17714 -7.689224,-0.0151 z"
           style="fill:#cccccc;fill-opacity:0.58823529;stroke-width:0.78468841" />
        <path
           inkscape:connector-curvature="0"
           id="path3348"
           d="m 94.359108,850.14034 c -11.557823,-0.79238 -20.967449,-3.94874 -25.033099,-8.39715 -1.447629,-1.58394 -1.839437,-2.43215 -2.268433,-4.91113 -1.18394,-6.84147 -12.816903,-69.42973 -13.121098,-70.59502 -2.0828,-7.9779 6.415679,-15.20375 22.537321,-19.16235 3.692075,-0.90657 9.302108,-1.80434 13.753881,-2.20104 3.997014,-0.35618 13.27412,-0.35618 17.27113,0 19.50304,1.73794 34.10258,8.46057 36.30249,16.7163 0.4248,1.59415 0.3886,2.81266 -0.14907,5.01693 -0.58159,2.38441 -13.12528,70.37388 -13.12528,71.14179 0,0.31161 -0.31772,1.20242 -0.70603,1.97959 -1.9706,3.94341 -8.57802,7.43819 -17.5016,9.25669 -4.96679,1.01217 -12.747925,1.51278 -17.960232,1.15539 z"
           style="fill:#969696;fill-opacity:0.58823529;stroke-width:0.78468841" />
        <g
           transform="matrix(1.1066481,0,0,1.1066481,28.584676,720.04483)"
           id="g20"
           style="fill:#006680;stroke:#006680;stroke-opacity:1">
          <linearGradient
             id="SVGID_2_"
             gradientUnits="userSpaceOnUse"
             x1="64.779297"
             y1="89.454102"
             x2="81.225601"
             y2="89.454102">
            <stop
               offset="0"
               style="stop-color:#80C11B"
               id="stop23" />
            <stop
               offset="1"
               style="stop-color:#80E21B"
               id="stop25" />
          </linearGradient>
          <path
             inkscape:connector-curvature="0"
             d="m 68.818,87.321 -4.039,7.105 4.105,7.037 -0.016,-3.096 3.416,-0.063 c 2.135,-0.059 3.303,-1.699 3.303,-1.699 l 5.166,-8.844 c 1.104,-2.484 -0.076,-4.172 -0.076,-4.172 l -3.594,-6.146 -7.104,4.107 4.563,7.889 c 0.168,0.416 -0.1,0.754 -0.596,0.746 l -5.107,0.035 -0.021,-2.899 0,0 z"
             id="path27"
             style="fill:#006680;stroke:#006680;stroke-opacity:1" />
          <linearGradient
             id="SVGID_3_"
             gradientUnits="userSpaceOnUse"
             x1="46.181198"
             y1="88.808601"
             x2="62.918499"
             y2="88.808601">
            <stop
               offset="0"
               style="stop-color:#80C11B"
               id="stop30" />
            <stop
               offset="1"
               style="stop-color:#80E21B"
               id="stop32" />
          </linearGradient>
          <path
             inkscape:connector-curvature="0"
             d="m 58.476,86.259 -4.15,-7.043 -8.145,0.055 2.689,1.529 -1.651,2.99 c -1.013,1.881 -0.17,3.711 -0.17,3.711 l 5.096,8.885 c 1.604,2.197 3.656,2.011 3.656,2.011 l 7.118,-0.05 -0.024,-8.207 -9.112,0.027 C 53.34,90.104 53.179,89.706 53.432,89.278 l 2.515,-4.447 2.529,1.428 0,0 z"
             id="path34"
             style="fill:#006680;stroke:#006680;stroke-opacity:1" />
          <linearGradient
             id="SVGID_4_"
             gradientUnits="userSpaceOnUse"
             x1="51.8843"
             y1="73.499001"
             x2="76.783203"
             y2="73.499001">
            <stop
               offset="0"
               style="stop-color:#80C11B"
               id="stop37" />
            <stop
               offset="1"
               style="stop-color:#80E21B"
               id="stop39" />
          </linearGradient>
          <path
             inkscape:connector-curvature="0"
             d="m 64.572,77.841 8.174,-0.063 4.037,-7.074 -2.672,1.561 -1.762,-2.928 C 71.232,67.519 69.224,67.329 69.224,67.329 L 58.981,67.282 c -2.707,0.287 -3.573,2.154 -3.573,2.154 l -3.524,6.188 7.111,4.092 4.546,-7.896 c 0.276,-0.354 0.701,-0.291 0.944,0.145 l 2.588,4.402 -2.501,1.474 0,0 z"
             id="path41"
             style="fill:#006680;stroke:#006680;stroke-opacity:1" />
        </g>
      </g>
      <g
         transform="matrix(0.35101844,0,0,0.35101844,43.33639,628.42926)"
         id="g4194">
        <path
           id="path48"
           d="m 74.312535,1071.1058 c 15.802813,-3.3622 28.747685,-8.4057 31.605635,-9.9187 2.68984,-1.5131 11.93617,-6.5566 20.34191,-11.6 l -7.39705,-4.2029 c -4.03476,1.5131 -8.74198,3.3623 -13.95356,5.5479 -12.272392,5.0434 -23.367995,8.2376 -32.614315,9.5825 l 2.01738,10.5912 z"
           class="st5"
           inkscape:connector-curvature="0"
           style="fill:#ffcc00" />
        <path
           id="path35"
           d="m 370.0467,768.501 c -1.34491,5.21156 -2.68983,9.75067 -3.53041,13.61732 -0.67247,3.02607 -1.00869,11.93616 -1.00869,11.93616 0,0 6.38837,-4.03476 7.9014,-6.05214 1.34492,-1.84926 3.19419,-9.75067 4.87535,-17.65207 L 370.0467,768.501 Z"
           class="st1"
           inkscape:connector-curvature="0"
           style="fill:#ffcc00" />
        <path
           sodipodi:type="arc"
           style="fill:#394050;fill-opacity:1;stroke:#394050;stroke-width:16.38881683;stroke-linecap:butt;stroke-linejoin:bevel;stroke-miterlimit:4;stroke-dasharray:none;stroke-opacity:1"
           id="path3002"
           sodipodi:cx="209.79832"
           sodipodi:cy="898.40741"
           sodipodi:rx="195.90039"
           sodipodi:ry="195.90041"
           d="M 405.69672,897.5238 A 195.90039,195.90041 0 0 1 211.24078,1094.3025 195.90039,195.90041 0 0 1 13.908157,900.4087 195.90039,195.90041 0 0 1 207.23821,702.52373 195.90039,195.90041 0 0 1 405.67389,895.28849 l -195.87557,3.11892 z"
           sodipodi:start="6.2786748"
           sodipodi:end="6.2672637" />
        <path
           style="fill:#45d03f;fill-opacity:1;fill-rule:nonzero;stroke:#45d03f;stroke-width:1.06370103;stroke-miterlimit:4;stroke-dasharray:none;stroke-opacity:1"
           d="m 213.00833,827.05329 c -0.19452,0 -1.82114,5.97306 -3.61493,13.27412 -3.56518,14.51116 -4.61035,18.34476 -5.23125,19.18817 -0.22477,0.30533 -1.77134,1.05288 -3.43764,1.66064 -5.72497,2.08812 -12.04876,5.48925 -15.09263,8.11764 -7.01571,6.05811 -11.42076,12.42055 -14.36274,20.74354 -0.9667,2.73482 -1.82158,5.05543 -1.89886,5.15786 -0.13234,0.17535 -2.64918,0.78842 -24.21305,5.89329 -4.78197,1.13205 -8.50827,2.23116 -8.28108,2.4418 0.3643,0.33782 7.79422,2.19393 26.36399,6.58856 6.15149,1.45579 5.82203,1.16554 8.06917,7.13567 1.42775,3.79322 3.57749,8.14158 4.59551,9.29769 0.41288,0.46887 0.81083,0.85179 0.88504,0.85179 0.0742,0 1.47755,-1.8582 3.11769,-4.13015 l 2.98197,-4.13154 -1.58031,-4.75894 c -1.44181,-4.34321 -1.5809,-5.29231 -1.58586,-10.84892 -0.005,-7.03718 0.64087,-9.75436 3.76866,-15.83225 3.65729,-7.10682 11.3849,-13.65022 19.31836,-16.35995 4.78381,-1.63394 12.99984,-1.85006 18.69511,-0.49168 l 4.32543,1.03047 2.49443,-2.13987 c 4.24737,-3.64458 5.23981,-4.67821 4.94595,-5.15369 -0.15599,-0.25239 -2.63498,-1.36272 -5.50826,-2.46673 -2.87329,-1.10404 -5.57129,-2.26613 -5.99579,-2.58307 -0.6839,-0.51065 -1.99327,-5.54599 -7.91128,-30.41383 -0.27097,-1.1387 -0.65308,-2.07062 -0.84763,-2.07062 z m 37.39988,53.4039 -1.17725,1.43072 c -0.64735,0.7868 -2.15887,2.68477 -3.3587,4.2188 l -2.18142,2.78944 1.24791,4.08998 c 3.91798,12.84507 0.5893,25.49836 -9.13703,34.73649 -3.67808,3.49345 -9.33437,6.80403 -13.55942,7.9362 -5.49811,1.47338 -15.83097,1.36302 -19.76711,-0.21189 -1.81263,-0.72531 -2.15164,-0.73184 -3.39747,-0.0676 -2.24818,1.19808 -7.19171,5.91193 -6.82403,6.50681 0.1842,0.29808 2.94095,1.55603 6.12598,2.79504 4.84453,1.88459 5.87595,2.4678 6.31155,3.57058 0.2864,0.72502 2.07252,8.00393 3.96951,16.17574 1.89698,8.17182 3.58802,15.40623 3.75759,16.07598 0.37358,1.47588 -0.0988,3.12866 4.98055,-17.44164 2.07102,-8.38715 4.07498,-15.53345 4.45287,-15.88068 0.37787,-0.34722 2.1116,-1.13945 3.85314,-1.76042 4.72436,-1.68439 10.10969,-4.47817 13.39736,-6.95001 6.33869,-4.76588 12.11866,-12.26162 14.63004,-18.9749 2.27856,-6.09092 3.02504,-7.57454 3.95427,-7.85449 0.49567,-0.14935 7.7942,-1.92304 16.21866,-3.9418 8.42447,-2.01877 15.49737,-3.85206 15.71869,-4.07336 0.22129,-0.22131 -6.88228,-2.14095 -15.78655,-4.26588 -10.60013,-2.52964 -16.4283,-4.13979 -16.88071,-4.66479 -0.38006,-0.441 -1.61538,-3.22481 -2.74513,-6.18552 -1.12975,-2.9607 -2.44828,-5.98318 -2.92933,-6.71738 l -0.87397,-1.33516 z"
           id="path2985"
           inkscape:connector-curvature="0" />
        <path
           style="fill:#164450;fill-opacity:1;stroke-width:1.19056249"
           clip-path="none"
           d="m 271.25306,825.77591 c 0,0 102.46573,2.49248 131.36044,7.00847 -9.8588,-29.01946 -26.12671,-55.40505 -47.37381,-77.19148 z"
           id="path3923"
           inkscape:connector-curvature="0"
           sodipodi:nodetypes="cccc" />
        <path
           style="fill:#00bbf2;fill-opacity:1;stroke:none"
           d="m 402.6135,832.78438 c -318.010185,181.51222 -159.00512,90.75612 0,0 z m 0,0 -56.88806,-10.83636 -73.573,4.05888 c 23.99802,20.94537 37.04263,53.37616 31.74779,87.17041 -3.66048,23.14532 -15.66731,44.14994 -33.75384,59.04903 L 167.38856,1098.2676 c 3.34437,0.6957 6.72194,1.314 10.13411,1.8486 111.44379,17.4623 215.94269,-58.7252 233.40423,-170.16906 5.29158,-33.77031 1.96888,-66.89644 -8.3134,-97.16276 z"
           id="path4797"
           inkscape:connector-curvature="0"
           sodipodi:nodetypes="ccccccccssc" />
        <path
           style="fill:#216778;fill-opacity:1;stroke-width:1.19056249"
           clip-path="none"
           d="m 65.118635,1043.1766 c 22.797083,24.5687 62.250255,46.7684 102.269925,55.091 L 270.14639,972.22634 c -21.13831,17.48065 -48.74925,25.07488 -75.85391,20.86315 -19.26154,-3.03432 -33.61822,-10.07308 -50.00484,-24.14822 0.82142,0.19989 -79.169005,74.23533 -79.169005,74.23533 z"
           id="path3923-1"
           inkscape:connector-curvature="0"
           sodipodi:nodetypes="cccccc" />
        <path
           style="fill:#ff6600;fill-opacity:1;fill-rule:evenodd;stroke:none"
           d="m 144.66887,969.46584 c -37.43039,-42.82402 -95.475285,-100.14736 -5.5314,-166.65794 -13.63378,59.26028 12.52674,82.65594 12.43437,91.01069 0.30782,3.5903 -1.97234,7.79837 -2.76943,10.91237 -1.61294,6.30123 5.04974,8.92844 8.35404,7.5838 8.09817,-3.29533 13.43635,-7.0883 20.72613,-18.09265 3.84008,-6.78962 5.76424,-17.90436 4.59996,-25.76327 -3.68579,-11.67772 -10.99639,-32.26267 0.9355,-48.8954 10.12597,-12.21647 20.01703,-19.43373 38.36858,-27.27794 7.62614,-3.41532 19.65815,5.41567 16.56982,15.4922 l -11.49513,28.86897 c 9.44784,1.912 16.37992,6.27519 32.93986,1.25926 5.49785,-1.45904 5.1359,0.71572 6.21218,2.00121 l 14.86293,32.0664 c 2.38577,4.67081 6.12014,7.38397 9.50301,10.60818 4.51924,1.6991 6.71464,-1.54298 7.51241,-3.48532 1.26047,-8.88509 3.18881,-15.41868 7.23114,-23.75997 1.1056,-1.88168 2.50383,-3.69672 4.67942,-5.34977 l 25.3467,-17.22831 c 15.76844,9.32058 32.77445,17.58117 40.18039,42.32067 1.34768,-19.63654 -1.24089,-40.01568 -16.03951,-62.69865 7.68237,-12.20586 11.33738,-27.6708 7.59831,-52.47866 14.68091,-13.86906 33.8113,-15.16964 53.49644,-14.91207 -21.01944,-28.96635 -56.99285,-36.4187 -78.37715,-39.44054 -18.2663,-12.89162 -20.5884,-32.59004 -54.55792,-37.73484 l 7.45561,14.80384 c -13.83201,-7.27676 -27.66169,-14.55731 -42.36567,-17.75303 1.53295,-1.08654 2.97201,-2.12756 4.81362,-3.35375 -0.76126,-0.16266 -1.52166,-0.30345 -2.28258,-0.45827 -4.00044,-0.9945 -8.0092,-1.68917 -12.01989,-2.12075 -116.89414,-17.48079 -226.890423,57.22609 -251.9600279,174.55282 -18.6387671,87.23016 8.43974881,157.54509 74.1299329,209.19428 0,0 79.077995,-72.03574 79.448355,-73.21356 z"
           id="path5062-8"
           inkscape:connector-curvature="0"
           sodipodi:nodetypes="cccsscccccccccccccccccccccccccscc" />
        <path
           d="m 226.86192,917.94678 62.1942,-90.55644 -90.45818,61.45991 z"
           style="fill:#f03916;fill-opacity:1;stroke:#f03916;stroke-width:1.41826773;stroke-opacity:1"
           id="path3791-7"
           inkscape:connector-curvature="0" />
        <path
           d="m 197.70251,889.7548 -62.19419,90.55643 90.4582,-61.4599 z"
           style="fill:#ffffff;fill-opacity:1;stroke:#ffffff;stroke-width:1.41826773;stroke-opacity:1"
           id="path3791"
           inkscape:connector-curvature="0" />
        <path
           id="path37"
           d="m 378.51151,772.29018 c 1.21043,-5.36032 2.24785,-10.89355 2.76667,-14.69764 2.24786,-14.00601 6.91648,-88.70463 -92.85458,-67.43628 C 154.58853,718.51408 80.581545,823.47257 68.823425,837.99731 46.517585,865.66347 -19.88119,972.52403 -2.4169231,1038.2312 c 10.201891,38.3868 51.0094781,38.2139 80.7506081,32.1618 l -2.07497,-10.5477 c -50.490738,8.127 -58.098928,-30.2598 -51.182398,-60.17386 8.47276,-37.34932 35.966018,-98.73361 124.843553,-185.19036 78.84856,-76.7736 162.53871,-119.65616 206.11291,-98.3878 23.17045,11.23939 18.67463,35.62019 13.6602,54.29486 l 8.81853,1.90204 z"
           class="st2"
           inkscape:connector-curvature="0"
           style="fill:#ffcc00" />
        <g
           id="g39"
           class="st3"
           transform="matrix(1.7291351,0,0,1.7291351,-40.196942,667.3964)"
           style="fill:#ffcc00">
          <path
             id="path41-3"
             d="M 188.5,17.5 C 111.1,33.9 68.3,94.6 61.5,103 c -8.1,10 -26.1,38 -36,66.8 -0.6,2.3 -1.3,4.6 -2.1,6.6 0,0 0,0 0,0 C 55.2,94.9 134.2,37.2 191.6,16.9 c -1,0.2 -2.1,0.4 -3.1,0.6 z"
             class="st4"
             inkscape:connector-curvature="0"
             style="fill:#ffcc00" />
        </g>
      </g>
    </g>
  </g>
</svg>
