<?xml version="1.0" encoding="UTF-8" standalone="no"?>
<!-- Generator: Adobe Illustrator 19.0.0, SVG Export Plug-In . SVG Version: 6.00 Build 0)  -->

<svg
   xmlns:dc="http://purl.org/dc/elements/1.1/"
   xmlns:cc="http://creativecommons.org/ns#"
   xmlns:rdf="http://www.w3.org/1999/02/22-rdf-syntax-ns#"
   xmlns:svg="http://www.w3.org/2000/svg"
   xmlns="http://www.w3.org/2000/svg"
   xmlns:sodipodi="http://sodipodi.sourceforge.net/DTD/sodipodi-0.dtd"
   xmlns:inkscape="http://www.inkscape.org/namespaces/inkscape"
   version="1.1"
   id="Layer_1"
   x="0px"
   y="0px"
   viewBox="0 0 500 500"
   xml:space="preserve"
   inkscape:version="0.91 r13725"
   width="100%"
   height="100%"
   sodipodi:docname="josm-latest.svg"><metadata
     id="metadata57"><rdf:RDF><cc:Work
         rdf:about=""><dc:format>image/svg+xml</dc:format><dc:type
           rdf:resource="http://purl.org/dc/dcmitype/StillImage" /></cc:Work></rdf:RDF></metadata><defs
     id="defs55" /><sodipodi:namedview
     pagecolor="#ffffff"
     bordercolor="#666666"
     borderopacity="1"
     objecttolerance="10"
     gridtolerance="10"
     guidetolerance="10"
     inkscape:pageopacity="0"
     inkscape:pageshadow="2"
     inkscape:window-width="1366"
     inkscape:window-height="715"
     id="namedview53"
     showgrid="false"
     inkscape:zoom="0.74330372"
     inkscape:cx="146.06788"
     inkscape:cy="256.10133"
     inkscape:window-x="0"
     inkscape:window-y="24"
     inkscape:window-maximized="1"
     inkscape:current-layer="Layer_1" /><g
     id="g23"
     transform="translate(0,39.767)" /><g
     id="g25"
     transform="translate(0,39.767)" /><g
     id="g27"
     transform="translate(0,39.767)" /><g
     id="g29"
     transform="translate(0,39.767)" /><g
     id="g31"
     transform="translate(0,39.767)" /><g
     id="g33"
     transform="translate(0,39.767)" /><g
     id="g35"
     transform="translate(0,39.767)" /><g
     id="g37"
     transform="translate(0,39.767)" /><g
     id="g39"
     transform="translate(0,39.767)" /><g
     id="g41"
     transform="translate(0,39.767)" /><g
     id="g43"
     transform="translate(0,39.767)" /><g
     id="g45"
     transform="translate(0,39.767)" /><g
     id="g47"
     transform="translate(0,39.767)" /><g
     id="g49"
     transform="translate(0,39.767)" /><g
     id="g51"
     transform="translate(0,39.767)" /><g
     id="g4185"><path
       inkscape:connector-curvature="0"
       id="path3371"
       d="M 36.426518,42.13322 179.28074,83.12351 319.99369,42.745004 460.70662,84.041195 459.78893,486.90846 318.77008,447.14177 178.66895,486.60258 37.650109,446.83587 Z"
       style="fill:#e6e6e6;fill-rule:evenodd;stroke:none;stroke-width:1px;stroke-linecap:butt;stroke-linejoin:miter;stroke-opacity:1" /><path
       id="path4173"
       d="m 36.427937,42.132074 0.397906,132.147446 c 3.825475,-1.90942 8.403717,-3.86022 12.722334,-4.73225 9.805067,-1.97984 28.199437,3.51678 36.770783,0.86688 8.571346,-2.6499 5.718848,-4.66899 13.845,-9.95122 8.12615,-5.28223 27.45539,-9.88411 35.47403,-20.76216 8.01865,-10.87805 8.4641,-28.88229 9.08435,-38.93441 0.62024,-10.052112 -4.13439,-12.837545 -2.16363,-20.332276 0.51903,-1.973814 1.83292,-4.381933 3.46037,-6.853225 L 36.427937,42.132074 Z"
       style="fill:#45d03f;fill-opacity:1;fill-rule:evenodd;stroke:none;stroke-width:1px;stroke-linecap:butt;stroke-linejoin:miter;stroke-opacity:1"
       inkscape:connector-curvature="0" /><path
       id="path4178"
       d="m 319.13663,42.991843 -138.95092,39.872314 -2.84574,403.366593 1.32873,0.37305 139.89595,-39.40691 0.57198,-404.205047 z"
       style="fill:#b3b3b3;fill-rule:evenodd;stroke:none;stroke-width:1px;stroke-linecap:butt;stroke-linejoin:miter;stroke-opacity:1"
       inkscape:connector-curvature="0" /><path
       id="path4183"
       d="m 290.62951,51.173773 -53.33362,15.301621 c -5.92779,10.846964 -11.44656,22.877642 -12.54825,31.733003 -2.56197,20.592853 7.13666,36.739183 12.54469,57.969933 5.40803,21.23076 12.9538,35.97786 20.3323,69.2179 7.3785,33.24005 4.92283,98.90519 19.9024,130.64463 14.97956,31.73944 42.64423,37.80379 52.3424,58.40339 5.085,10.80085 7.18774,25.99509 8.06472,38.0995 l 121.85517,34.36558 0.11732,-51.69226 c -6.99416,-19.84564 -16.96695,-41.91572 -29.67242,-58.84391 -22.18481,-29.55803 -75.20947,-43.71588 -91.27679,-73.54157 -16.06733,-29.82569 2.49048,-52.3166 -8.22103,-85.65638 -10.7115,-33.33978 -60.98114,-71.31569 -62.29362,-107.28542 -0.71125,-19.492612 11.15829,-42.072211 22.18682,-58.716017 z"
       style="fill:#00bbf2;fill-opacity:1;fill-rule:evenodd;stroke:none;stroke-width:1px;stroke-linecap:butt;stroke-linejoin:miter;stroke-opacity:1"
       inkscape:connector-curvature="0" /><path
       id="path4188"
       d="m 135.03048,411.30362 c -1.29042,0.0225 -2.53547,0.18221 -3.71971,0.5045 -12.63191,3.43765 -14.35366,19.83862 -24.22609,23.79265 -9.872425,3.95403 -20.135806,-3.62305 -29.850058,-0.43345 -7.273863,2.38833 -17.715812,11.87037 -22.506559,16.48468 l 123.940637,34.9518 91.70313,-25.83192 c -13.38007,-10.89322 -58.11955,-46.40176 -74.60383,-47.66702 -19.45452,-1.49325 -9.93521,8.51847 -21.19561,9.51777 -10.20474,0.90563 -27.06784,-11.53689 -39.54191,-11.31901 z"
       style="fill:#00bbf2;fill-opacity:1;fill-rule:evenodd;stroke:none;stroke-width:1px;stroke-linecap:butt;stroke-linejoin:miter;stroke-opacity:1"
       inkscape:connector-curvature="0" /><path
       sodipodi:nodetypes="cccc"
       inkscape:connector-curvature="0"
       id="path4193"
       d="m 41.499168,403.48667 43.801769,-30.49598 91.279573,-3.89345 45.85609,-27.6867"
       style="fill:none;fill-rule:evenodd;stroke:#394050;stroke-width:12.73299408;stroke-linecap:butt;stroke-linejoin:miter;stroke-miterlimit:4;stroke-dasharray:none;stroke-opacity:1" /><path
       inkscape:connector-curvature="0"
       id="path4195"
       d="M 84.868332,372.55808 86.166146,287.76757 68.429355,186.10547"
       style="fill:none;fill-rule:evenodd;stroke:#394050;stroke-width:12.73299408;stroke-linecap:butt;stroke-linejoin:miter;stroke-miterlimit:4;stroke-dasharray:none;stroke-opacity:1" /><path
       inkscape:connector-curvature="0"
       id="path4200"
       d="m 107.17584,293.97707 0,47.10825 71.58004,-5.50616 32.11927,-20.49516 0.6118,-48.33182 -33.34285,20.49513 z"
       style="fill:#004455;fill-opacity:1;fill-rule:evenodd;stroke:none;stroke-width:1px;stroke-linecap:butt;stroke-linejoin:miter;stroke-opacity:1" /><path
       inkscape:connector-curvature="0"
       id="path4202"
       d="m 103.63441,287.94716 -21.412834,-109.20547 54.143904,-11.93001 12.23589,64.23851 29.97798,-7.95333 20.80104,-15.6008 7.34155,38.54312 -27.22491,22.63643 z"
       style="fill:#892ca0;fill-rule:evenodd;stroke:none;stroke-width:1px;stroke-linecap:butt;stroke-linejoin:miter;stroke-opacity:1;fill-opacity:1" /><rect
       transform="matrix(0.81532768,0.5789998,-0.55757713,0.83012514,0,0)"
       ry="0"
       y="-13.951468"
       x="457.33267"
       height="23.902393"
       width="52.700592"
       id="rect4204"
       style="fill:#ffcc00;fill-opacity:1;stroke:none;stroke-width:7;stroke-miterlimit:4;stroke-dasharray:none;stroke-opacity:1" /><rect
       transform="matrix(0.81532768,0.5789998,-0.55757713,0.83012514,0,0)"
       ry="0"
       y="-46.428719"
       x="458.1962"
       height="23.902393"
       width="52.700592"
       id="rect4204-3"
       style="fill:#ffcc00;fill-opacity:1;stroke:none;stroke-width:7;stroke-miterlimit:4;stroke-dasharray:none;stroke-opacity:1" /><rect
       transform="matrix(0.81532768,0.5789998,-0.55757713,0.83012514,0,0)"
       ry="0"
       y="-77.1306"
       x="457.83533"
       height="23.902393"
       width="52.700592"
       id="rect4204-3-6"
       style="fill:#ffcc00;fill-opacity:1;stroke:none;stroke-width:7;stroke-miterlimit:4;stroke-dasharray:none;stroke-opacity:1" /><path
       inkscape:connector-curvature="0"
       id="path4236"
       d="m 442.3346,190.40669 -0.43261,-46.2887 -43.26048,-13.41074 -0.8652,48.01912 z"
       style="fill:#ff2a2a;fill-rule:evenodd;stroke:none;stroke-width:1px;stroke-linecap:butt;stroke-linejoin:miter;stroke-opacity:1" /><path
       sodipodi:nodetypes="ccccc"
       inkscape:connector-curvature="0"
       id="path4240"
       d="m 218.74687,346.6688 70.31439,-51.29961 -21.26583,-47.71671 -43.53085,10.65289 z"
       style="fill:#ffccaa;fill-rule:evenodd;stroke:none;stroke-width:1px;stroke-linecap:butt;stroke-linejoin:miter;stroke-opacity:1" /><path
       inkscape:connector-curvature="0"
       id="path4238"
       d="M 224.21051,258.35945 360.48099,14.803021 426.2369,54.170055 289.10121,295.56344 l -7.87858,-13.34785 -16.21257,-5.20026 -11.31822,-12.54182 -14.0713,-0.30588 -3.36488,-7.95336 z"
       style="fill:#c87137;fill-rule:evenodd;stroke:none;stroke-width:1px;stroke-linecap:butt;stroke-linejoin:miter;stroke-opacity:1;fill-opacity:1" /><path
       inkscape:connector-curvature="0"
       id="path4242"
       d="m 230.44433,320.75905 -10.11819,0.5933 -1.58096,25.31678 22.56339,-16.46336 -10.86424,-9.44672 z"
       style="fill:#333333;fill-rule:evenodd;stroke:none;stroke-width:1px;stroke-linecap:butt;stroke-linejoin:miter;stroke-opacity:1" /></g></svg>