<?xml version="1.0" encoding="UTF-8" standalone="no"?>
<!-- Created with Inkscape (http://www.inkscape.org/) -->

<svg
   xmlns:dc="http://purl.org/dc/elements/1.1/"
   xmlns:cc="http://creativecommons.org/ns#"
   xmlns:rdf="http://www.w3.org/1999/02/22-rdf-syntax-ns#"
   xmlns:svg="http://www.w3.org/2000/svg"
   xmlns="http://www.w3.org/2000/svg"
   xmlns:sodipodi="http://sodipodi.sourceforge.net/DTD/sodipodi-0.dtd"
   xmlns:inkscape="http://www.inkscape.org/namespaces/inkscape"
   id="svg2"
   version="1.1"
   inkscape:version="0.91 r13725"
   width="512"
   height="512"
   sodipodi:docname="kapptemplate.svg"
   viewBox="0 0 512 512">
  <metadata
     id="metadata8">
    <rdf:RDF>
      <cc:Work
         rdf:about="">
        <dc:format>image/svg+xml</dc:format>
        <dc:type
           rdf:resource="http://purl.org/dc/dcmitype/StillImage" />
        <dc:title />
      </cc:Work>
    </rdf:RDF>
  </metadata>
  <defs
     id="defs6">
    <inkscape:perspective
       sodipodi:type="inkscape:persp3d"
       inkscape:vp_x="0 : 256 : 1"
       inkscape:vp_y="0 : 1000 : 0"
       inkscape:vp_z="512 : 256 : 1"
       inkscape:persp3d-origin="256 : 170.66667 : 1"
       id="perspective4141" />
  </defs>
  <sodipodi:namedview
     pagecolor="#ffffff"
     bordercolor="#666666"
     borderopacity="1"
     objecttolerance="10"
     gridtolerance="10"
     guidetolerance="10"
     inkscape:pageopacity="0"
     inkscape:pageshadow="2"
     inkscape:window-width="1366"
     inkscape:window-height="715"
     id="namedview4"
     showgrid="false"
     inkscape:zoom="0.37695312"
     inkscape:cx="235.60929"
     inkscape:cy="378.75822"
     inkscape:window-x="0"
     inkscape:window-y="24"
     inkscape:window-maximized="1"
     inkscape:current-layer="svg2"
     showguides="false"
     inkscape:guide-bbox="true"
     inkscape:document-units="px" />
  <g
     id="g4158">
    <path
       style="fill:#869094;stroke-width:0.52232879;fill-opacity:1"
       d="m 141.90737,424.3548 c -2.41076,-2.83415 -3.99645,-7.8946 -3.78407,-12.07607 0.10946,-2.15506 2.66404,-9.41839 7.30152,-20.76012 3.92327,-9.59491 7.21903,-18.31902 7.32396,-19.38689 0.13916,-1.41644 -1.45799,-3.57945 -5.90519,-7.99736 -3.35278,-3.33068 -8.19842,-8.77158 -10.76809,-12.0909 -2.56969,-3.31929 -5.40925,-6.38764 -6.31015,-6.81854 -1.01044,-0.48328 -8.68696,1.36764 -20.03645,4.83107 -10.119155,3.08796 -19.814327,5.65376 -21.544849,5.70179 -3.562105,0.0988 -10.112065,-2.74061 -12.843544,-5.56775 -2.171869,-2.2479 -16.950281,-43.16562 -17.122968,-47.40914 -0.17128,-4.20893 3.02381,-10.40067 6.838807,-13.2529 1.736623,-1.29836 11.007813,-5.49214 20.602648,-9.31951 10.32845,-4.11999 17.752876,-7.60226 18.199486,-8.53602 0.41489,-0.86743 0.68656,-5.01101 0.60368,-9.20793 -0.0829,-4.19693 0.27244,-11.45565 0.78957,-16.13052 0.51713,-4.67488 0.50983,-9.07014 -0.0163,-9.76728 -0.52609,-0.69714 -8.393426,-5.34198 -17.482962,-10.32183 -10.571123,-5.79158 -17.513484,-10.0504 -19.265574,-11.81852 -3.338912,-3.36955 -5.617791,-10.52963 -4.578858,-14.38654 0.421376,-1.56431 5.404916,-12.26346 11.074527,-23.77585 l 10.308379,-20.93162 3.869467,-1.87513 c 6.838135,-3.31372 9.105193,-2.89082 30.125591,5.61983 11.89755,4.81704 19.28342,7.4247 20.14918,7.11393 0.75171,-0.26986 4.38328,-3.41325 8.07019,-6.98535 3.68689,-3.57213 9.04524,-8.31046 11.90745,-10.52964 2.86223,-2.21917 5.51099,-4.67668 5.88618,-5.46113 0.3752,-0.78445 -1.61579,-9.04097 -4.42442,-18.34785 -2.80866,-9.30684 -5.40697,-18.39357 -5.77404,-20.19275 -1.03241,-5.060236 0.21845,-10.116608 3.48646,-14.09323 2.46755,-3.00261 4.88773,-4.112571 23.95421,-10.986062 11.66513,-4.205288 22.85221,-7.69458 24.86017,-7.753942 4.65965,-0.13779 10.61684,2.678735 13.4236,6.346718 1.1819,1.544486 5.27792,10.59742 9.1023,20.117639 3.82436,9.520247 7.28989,17.792827 7.70117,18.383527 0.43344,0.62252 4.72322,1.08888 10.20474,1.10939 5.20133,0.0195 12.79585,0.44159 16.87674,0.93804 5.53327,0.67315 7.87301,0.53128 9.20237,-0.55794 0.98044,-0.80332 5.87111,-8.89074 10.86817,-17.97208 9.61023,-17.464952 11.58227,-20.009106 17.13321,-22.103554 6.1746,-2.329778 8.71173,-1.549692 31.6066,9.718071 l 20.85326,10.262971 2.24107,3.740742 c 3.85578,6.43596 3.42762,9.08599 -4.79813,29.69838 -3.98171,9.97743 -7.42402,18.97798 -7.6496,20.00115 -0.31746,1.44 0.95585,3.21733 5.63547,7.86611 3.32509,3.30318 8.42113,9.07146 11.32457,12.81842 2.90342,3.74695 5.58516,6.95909 5.95937,7.13808 0.37423,0.17899 9.06888,-2.23702 19.32146,-5.3689 10.25258,-3.1319 20.2887,-5.75292 22.30251,-5.82447 4.76034,-0.16918 10.42003,2.56011 13.62049,6.56826 1.51963,1.90308 5.31323,11.23018 9.67481,23.7868 7.48689,21.55413 7.82785,23.77351 4.67075,30.40315 -2.23278,4.68907 -5.78873,6.76487 -24.76879,14.45994 -10.32005,4.18405 -18.91427,7.9221 -19.09824,8.30672 -0.18397,0.38464 -0.32916,5.22786 -0.32264,10.76271 0.007,5.53484 -0.43332,13.07155 -0.97741,16.74821 -0.6759,4.56758 -0.59071,7.13651 0.26897,8.11077 0.69201,0.78425 9.03706,5.76183 18.54456,11.0613 18.86777,10.51689 21.6178,12.81551 22.68501,18.96151 1.00889,5.81004 -0.18675,9.23093 -10.58554,30.28652 l -9.94727,20.14132 -3.99761,2.24526 c -7.1383,4.00925 -8.35938,3.80554 -30.60923,-5.10639 -10.87177,-4.35456 -20.04022,-7.82091 -20.37436,-7.70298 -0.33414,0.11792 -3.25463,2.86153 -6.48999,6.0969 -3.23535,3.23538 -8.96207,8.26906 -12.72604,11.18598 -3.76399,2.91688 -6.96146,5.82896 -7.10551,6.47126 -0.14409,0.64228 2.20328,9.24787 5.21635,19.12351 3.01307,9.87563 5.52365,19.91443 5.57909,22.30845 0.11777,5.0852 -1.76246,9.51079 -5.43318,12.78841 -3.23938,2.89248 -41.34067,16.68944 -46.53893,16.85235 -4.34649,0.13622 -10.786,-2.70576 -13.67486,-6.03518 -1.10679,-1.27558 -5.30901,-10.48644 -9.33824,-20.46854 -4.02922,-9.98211 -7.89491,-18.42349 -8.59042,-18.75859 -0.69473,-0.33672 -5.50524,-0.64737 -10.68832,-0.69394 -5.18309,-0.0466 -12.67789,-0.50306 -16.65513,-1.01441 -5.4972,-0.70677 -7.51197,-0.57911 -8.40155,0.53231 -0.64361,0.80412 -5.48065,9.1219 -10.74894,18.48401 -11.58746,20.59155 -13.50311,22.50834 -22.70295,22.71635 -2.66765,0.0603 -6.31105,-1.4521 -24.28181,-10.07968 -15.90487,-7.63571 -21.60477,-10.69328 -23.00606,-12.34069 z m 76.35159,-79.51749 c 20.04303,7.12855 39.6303,7.14359 59.70708,0.0459 15.30189,-5.40964 27.53781,-13.83935 38.56665,-26.56979 6.91407,-7.98081 16.60128,-28.27262 18.51476,-38.78296 5.80691,-31.89584 -4.45593,-62.33324 -28.35451,-84.09333 -5.56861,-5.0703 -7.24622,-6.10091 -19.86932,-12.20638 -12.09064,-5.84795 -14.72074,-6.83802 -21.37404,-8.04619 -33.2203,-6.03247 -66.98587,6.82906 -87.14094,33.19252 -18.10816,23.6861 -22.89281,54.41403 -12.91162,82.92101 5.22609,14.92602 14.73389,28.59133 27.13614,39.00193 3.53653,2.96862 8.87759,6.50753 16.71172,11.07294 0.62592,0.36466 4.68221,1.92372 9.01406,3.46438 z m -3.74693,-42.46297 c -17.51964,-15.08818 -23.41387,-38.95927 -14.83824,-60.09358 5.99598,-14.77685 16.42807,-24.716 31.48326,-29.99564 27.41786,-9.61503 57.15438,4.39474 66.74582,31.44604 7.90005,22.28089 1.28064,45.42977 -17.08394,59.74466 -15.64186,12.19256 -34.86906,14.6065 -53.24678,6.68504 -6.25649,-2.69677 -9.16071,-4.4283 -13.06012,-7.78652 z m 32.04408,-9.13616 c 6.55521,0.57908 16.13576,-2.41328 21.64199,-6.75957 3.88549,-3.06696 4.76133,-4.28764 8.13081,-11.33203 3.58441,-7.49374 3.76004,-8.21406 3.45738,-14.17921 -0.61092,-12.04127 -5.98566,-20.5655 -16.58942,-26.31048 -8.51808,-4.615 -14.62688,-5.26498 -23.68262,-2.51984 -11.48151,3.48046 -19.51541,12.11083 -21.74001,23.35403 -1.92551,9.73161 -0.0357,17.86863 5.96083,25.66495 5.59414,7.27323 13.04636,11.21866 22.82104,12.08215 z"
       id="path2986"
       inkscape:connector-curvature="0" />
    <g
       id="g3345">
      <path
         style="fill:#999999;stroke:none"
         d="m 383.86148,105.37713 26.66466,16.99871 49.66296,-28.664512 c 0,0 2.31785,32.128392 -14.99891,54.662562 -17.31672,22.53417 -35.33068,34.33079 -35.33068,34.33079 l -32.6642,-70.99469 z"
         id="path3773"
         inkscape:connector-curvature="0"
         sodipodi:nodetypes="ccczccc" />
      <path
         style="fill:#ebebeb;stroke:none"
         d="m 282.16494,185.876 c 0,0 10.67421,-8.85316 16.9987,-24.66482 6.3245,-15.81167 2.62928,-47.6052 7.56153,-62.843335 4.93224,-15.238162 1.3464,-25.544442 38.10169,-49.148281 36.7553,-23.603837 93.82133,-0.919059 93.82133,-0.919059 l -50.49128,26.583798 -3.99969,32.330927 44.32998,82.99378 c 0,0 -31.12422,0.40077 -44.32998,3.33308 -13.20576,2.93232 -24.77458,7.78797 -34.33074,12.99904 -9.55617,5.21106 -22.99826,16.99872 -22.99826,16.99872 z"
         id="path3771"
         inkscape:connector-curvature="0"
         sodipodi:nodetypes="czzzcccczzcc" />
      <path
         style="fill:#00bbf2;fill-opacity:1;stroke:none"
         d="m 290.74609,176.26758 c 0,0 -42.95276,42.91332 -64.92968,64.69531 -21.97691,21.78199 -38.68991,36.04744 -66.93555,65.99023 -28.24562,29.94281 -98.228547,109.06159 -100.873048,115.01563 -2.644489,5.95404 -17.789371,28.02094 7.542969,51.84961 25.33233,23.82883 54.571899,6.0855 60.333989,1.88476 5.76207,-4.20087 43.6453,-49.19476 65.99218,-76.36132 22.34687,-27.1666 43.8031,-56.16763 67.87696,-86.73242 24.07384,-30.56482 76.59765,-96.62891 76.59765,-96.62891 0,0 -11.59853,-17.32161 -19.32617,-24.04102 -7.72764,-6.7194 -26.2793,-15.67187 -26.2793,-15.67187 z m -192.646481,248.875 a 16.456922,17.204977 0 0 1 16.515621,17.125 l 0,0.0801 A 16.456922,17.204977 0 0 1 98.177734,459.55273 16.456922,17.204977 0 0 1 81.701172,442.38867 16.456922,17.204977 0 0 1 98.099609,425.14258 Z"
         id="path3769"
         inkscape:connector-curvature="0" />
      <path
         style="fill:#ffffff;stroke:none"
         d="m 327.82816,158.87802 18.99856,35.3307 38.99706,-18.9986 -18.33196,-37.33053 z"
         id="path3775"
         inkscape:connector-curvature="0" />
      <path
         style="fill:#808080;stroke:none"
         d="m 335.22212,154.309 0.70706,4.7137 4.00663,1.64979 -1.41411,6.36348 5.65644,2.59253 -0.47137,6.83487 6.83483,3.29957 -0.94274,7.7776 4.47802,3.29958 27.57507,-12.96266 1.41411,-5.42074 -4.00663,-2.59253 0,-7.77759 -5.18505,-1.41411 -0.23571,-7.30621 -4.71368,-2.59254 -0.47137,-8.24896 -5.55062,-2.28631 z"
         id="path3777"
         inkscape:connector-curvature="0"
         sodipodi:nodetypes="ccccccccccccccccccc" />
      <path
         style="fill:#394050;fill-opacity:0.39215686;stroke:none"
         d="m 130.16875,402.37747 c -17.73641,-14.30273 -4.13324,-32.96014 -4.13324,-32.96014 0,0 68.97242,-76.39339 93.47984,-100.71241 24.5074,-24.319 51.48294,-47.05134 51.48294,-47.05134 0,0 7.00557,-7.92812 16.02987,0.32962 9.02431,8.25775 4.47933,16.12879 4.47933,16.12879 0,0 -26.42164,39.07343 -47.87102,66.3696 -21.44937,27.29617 -82.16003,96.13416 -82.16003,96.13416 0,0 -13.57127,16.06448 -31.30769,1.76172 z"
         id="path2994"
         inkscape:connector-curvature="0"
         sodipodi:nodetypes="zczczczcz" />
      <path
         style="fill:#ebebeb;stroke:none"
         d="M 226.98474,257.3879 76.9961,109.39899 53.66457,95.400045 25,58.069514 43.66529,38.070998 85.66212,66.068908 94.99476,88.733877 244.9834,239.38925"
         id="path3767"
         inkscape:connector-curvature="0" />
      <path
         style="fill:#f03916;stroke:none"
         d="m 199.7931,275.69045 26.66468,26.33135 13.33226,1.66656 c 0,0 10.98033,5.61164 21.99828,17.33203 11.0181,11.72038 27.04926,40.56154 38.99715,56.3291 11.94774,15.76756 13.59558,20.34038 31.99755,38.66379 18.40182,18.32339 81.66045,66.995 81.66045,66.995 0,0 21.41625,7.77448 42.66346,-14.66569 21.2472,-22.43997 17.66534,-44.99653 17.66534,-44.99653 0,0 -40.12121,-54.24513 -58.32891,-72.99453 -18.2077,-18.74941 -32.67148,-29.45146 -48.32964,-40.99693 -15.65832,-11.54548 -33.07733,-18.57205 -44.99666,-28.66452 -11.91932,-10.09247 -26.99799,-29.99775 -26.99799,-29.99775 l -1.99973,-11.33249 -26.66468,-28.33121 -14.66551,-0.66661 -51.32947,50.99617 z"
         id="path2997"
         inkscape:connector-curvature="0"
         sodipodi:nodetypes="ccczzzczczzzcccccc" />
      <path
         style="fill:#394050;fill-opacity:0.39215686;stroke:none"
         d="m 220.76096,250.89413 19.64063,-20.44243 32.8683,30.46321 -20.84326,20.84325 z"
         id="path3764"
         inkscape:connector-curvature="0"
         sodipodi:nodetypes="ccccc" />
      <path
         style="fill:#394050;fill-opacity:0.39215686;stroke:none"
         d="m 301.15307,317.48026 c 3.55996,12.33503 23.64231,40.79464 38.50734,59.22382 14.86503,18.42921 36.86728,39.89818 50.2781,50.7241 13.41099,10.82593 18.64021,14.56749 26.9599,17.22243 8.31953,2.65496 15.69086,5.25604 20.38202,1.00625 4.69116,-4.24979 3.65551,-10.9255 1.43325,-19.25192 -2.22209,-8.32644 -7.51132,-15.5944 -18.44641,-28.72075 -10.9351,-13.12633 -31.51583,-31.99463 -49.90749,-46.73292 -18.39165,-14.7383 -48.06854,-35.14337 -60.9067,-39.45419 -7.51037,-2.60022 -10.38529,-1.22399 -8.30001,5.98318 z"
         id="path3770"
         inkscape:connector-curvature="0"
         sodipodi:nodetypes="czzzzzzzcc" />
    </g>
  </g>
</svg>
