<?xml version="1.0" encoding="UTF-8" standalone="no"?>
<!-- Created with Inkscape (http://www.inkscape.org/) -->

<svg
   xmlns:dc="http://purl.org/dc/elements/1.1/"
   xmlns:cc="http://creativecommons.org/ns#"
   xmlns:rdf="http://www.w3.org/1999/02/22-rdf-syntax-ns#"
   xmlns:svg="http://www.w3.org/2000/svg"
   xmlns="http://www.w3.org/2000/svg"
   xmlns:sodipodi="http://sodipodi.sourceforge.net/DTD/sodipodi-0.dtd"
   xmlns:inkscape="http://www.inkscape.org/namespaces/inkscape"
   id="svg2"
   version="1.1"
   inkscape:version="0.48.4 r9939"
   width="512"
   height="512"
   sodipodi:docname="zz.svg"
   viewBox="0 0 512 512">
  <metadata
     id="metadata8">
    <rdf:RDF>
      <cc:Work
         rdf:about="">
        <dc:format>image/svg+xml</dc:format>
        <dc:type
           rdf:resource="http://purl.org/dc/dcmitype/StillImage" />
        <dc:title></dc:title>
      </cc:Work>
    </rdf:RDF>
  </metadata>
  <defs
     id="defs6" />
  <sodipodi:namedview
     pagecolor="#ffffff"
     bordercolor="#666666"
     borderopacity="1"
     objecttolerance="10"
     gridtolerance="10"
     guidetolerance="10"
     inkscape:pageopacity="0"
     inkscape:pageshadow="2"
     inkscape:window-width="1366"
     inkscape:window-height="717"
     id="namedview4"
     showgrid="false"
     inkscape:zoom="0.75682523"
     inkscape:cx="375.97076"
     inkscape:cy="162.34541"
     inkscape:window-x="0"
     inkscape:window-y="0"
     inkscape:window-maximized="1"
     inkscape:current-layer="svg2"
     showguides="true"
     inkscape:guide-bbox="true"
     inkscape:document-units="px" />
  <path
     style="fill:#cccccc;fill-opacity:1;fill-rule:evenodd;stroke:none;stroke-width:1.02230215"
     d=""
     id="path3783"
     inkscape:connector-curvature="0" />
  <rect
     style="fill:#394050"
     id="rect3374"
     width="475"
     height="475"
     x="15"
     y="22"
     rx="89.375351" />
  <g
     transform="matrix(5.0684318,0,0,5.0684318,-60.081091,-55.053751)"
     id="g16">
    <path
       style="fill:#ffffff"
       inkscape:connector-curvature="0"
       d="m 75.158,61.467 1.762,0.23 h 1.105 l 1.102,1.104 c 0,0.773 -4.347,1.512 -13.043,2.209 l -2.426,0.66 c -0.925,0 -1.441,-0.736 -1.544,-2.211 0.142,-0.889 0.362,-1.332 0.656,-1.332 h 1.104 l 11.284,-0.66 z"
       id="path18" />
    <path
       style="fill:#ffffff"
       inkscape:connector-curvature="0"
       d="m 48.255,60.298 2.609,0.23 h 1.638 l 1.631,1.104 c 0,0.773 -6.438,1.512 -19.317,2.209 l -3.593,0.66 c -1.37,0 -2.135,-0.736 -2.287,-2.211 0.21,-0.889 0.537,-1.332 0.973,-1.332 h 1.635 l 16.711,-0.66 z"
       id="path20" />
    <path
       style="fill:#ffffff"
       inkscape:connector-curvature="0"
       d="m 73.163,55.948 h 2.424 c 0.88,0 1.62,0.438 2.222,1.318 v 0.442 c 0,0.734 -2.581,1.104 -7.74,1.104 l -4.198,1.104 C 65.203,59.641 64.836,59.35 64.767,59.043 V 58.6 c 0,-1.327 0.734,-1.991 2.207,-1.991 1.879,-0.44 3.946,-0.661 6.189,-0.661 z"
       id="path22" />
    <path
       style="fill:#ffffff"
       inkscape:connector-curvature="0"
       d="m 95.114,51.405 c 1.528,0 2.659,1.479 3.394,4.441 v 2.235 c 0,2.16 -1.228,4.873 -3.685,8.145 V 66.6 h 0.288 c 2.638,0.172 3.955,0.793 3.955,1.861 v 1.104 c 0,0.93 -2.64,1.668 -7.913,2.225 0,0.322 -0.657,0.695 -1.979,1.115 -1.071,0 -1.73,-1.354 -1.979,-4.068 V 68.09 c 4.825,-4.252 7.647,-8.086 8.475,-11.497 l -0.272,-0.371 h -0.572 c -1.424,0 -3.306,0.863 -5.646,2.595 h -0.286 c -0.759,-1.356 -1.134,-2.716 -1.134,-4.069 2.11,-2.231 4.561,-3.343 7.354,-3.343 z"
       id="path24" />
    <path
       style="fill:#ffffff"
       inkscape:connector-curvature="0"
       d="m 40.742,43.13 c 0.49,-0.25 0.951,-0.439 1.383,-0.57 0.433,-0.131 0.857,-0.195 1.273,-0.195 1.291,0 2.421,0.537 3.383,1.608 0.963,1.073 1.445,2.36 1.445,3.86 0,0.865 -0.166,1.787 -0.5,2.766 -0.334,0.979 -0.807,1.868 -1.422,2.671 -0.697,0.949 -1.506,1.679 -2.422,2.187 -0.915,0.512 -1.88,0.767 -2.89,0.767 -1.626,0 -3.042,-0.729 -4.25,-2.187 -0.594,-0.729 -1.042,-1.532 -1.344,-2.406 -0.303,-0.875 -0.454,-1.835 -0.454,-2.875 0,-1.449 0.347,-3.01 1.039,-4.688 0.692,-1.677 1.7,-3.374 3.024,-5.093 0.864,-1.125 1.674,-2.047 2.43,-2.766 0.755,-0.719 1.289,-1.078 1.602,-1.078 0.427,0 1.036,0.297 1.827,0.891 0.793,0.594 1.188,1.031 1.188,1.312 -0.177,0.178 -0.339,0.334 -0.484,0.469 -0.386,0.364 -0.887,0.823 -1.501,1.375 -1.321,1.165 -2.43,2.482 -3.327,3.952 z m 1.656,2.437 c -0.801,0 -1.541,0.386 -2.219,1.154 -0.677,0.772 -1.016,1.674 -1.016,2.705 0,0.707 0.193,1.302 0.578,1.781 0.387,0.479 0.869,0.719 1.453,0.719 0.729,0 1.407,-0.43 2.033,-1.29 0.623,-0.86 0.937,-1.824 0.937,-2.898 0,-0.677 -0.162,-1.206 -0.484,-1.593 -0.323,-0.384 -0.749,-0.578 -1.282,-0.578 z"
       id="path26" />
    <path
       style="fill:#ffffff"
       inkscape:connector-curvature="0"
       d="m 39.972,85.574 c 0.438,-0.592 0.78,-1.215 1.032,-1.866 0.249,-0.651 0.375,-1.274 0.375,-1.867 0,-0.604 -0.126,-1.083 -0.375,-1.438 -0.252,-0.354 -0.787,-0.758 -1.61,-1.217 -0.261,0.156 -0.515,0.3 -0.766,0.428 -0.249,0.13 -0.474,0.231 -0.673,0.305 -0.384,0.146 -0.738,0.219 -1.062,0.219 -0.302,0 -0.511,-0.057 -0.624,-0.172 -0.116,-0.115 -0.172,-0.32 -0.172,-0.623 0,-0.208 0.021,-0.456 0.062,-0.742 0.041,-0.287 0.11,-0.598 0.203,-0.931 0.188,-0.678 0.386,-1.17 0.594,-1.483 0.126,-0.208 0.313,-0.37 0.563,-0.485 0.103,-0.052 0.23,-0.093 0.381,-0.125 0.151,-0.031 0.315,-0.046 0.494,-0.046 l 0.641,0.078 h 0.062 c 0.707,-0.616 1.286,-1.21 1.733,-1.782 0.208,-0.26 0.404,-0.544 0.586,-0.852 0.183,-0.307 0.342,-0.617 0.478,-0.93 h -0.672 c -0.948,0 -1.986,0.271 -3.11,0.812 l -1.734,0.797 c -0.115,0 -0.197,-0.021 -0.249,-0.062 -0.031,-0.041 -0.053,-0.13 -0.062,-0.266 0,-0.551 0.126,-1.241 0.381,-2.069 0.256,-0.829 0.479,-1.342 0.665,-1.539 0.303,-0.334 1.12,-0.701 2.453,-1.103 1.333,-0.402 2.651,-0.602 3.953,-0.602 1.041,0 1.857,0.237 2.446,0.711 0.587,0.475 0.882,1.112 0.882,1.915 0,0.708 -0.331,1.541 -0.991,2.499 -0.663,0.957 -1.686,2.078 -3.07,3.361 0.873,0.528 1.562,1.22 2.061,2.069 0.501,0.85 0.751,1.746 0.751,2.694 0,1.968 -0.68,3.759 -2.039,5.367 -1.36,1.608 -2.82,2.414 -4.383,2.414 -0.666,0 -1.308,-0.144 -1.921,-0.431 -0.615,-0.287 -1.266,-0.751 -1.954,-1.397 -0.448,-0.416 -0.796,-0.803 -1.046,-1.156 -0.115,-0.178 -0.209,-0.343 -0.282,-0.494 -0.073,-0.15 -0.109,-0.273 -0.109,-0.366 0,-0.394 0.392,-0.963 1.172,-1.703 0.782,-0.74 1.328,-1.11 1.641,-1.11 0.094,0 0.417,0.485 0.97,1.455 0.548,0.97 1.326,1.546 2.325,1.733 z"
       id="path28" />
  </g>
</svg>
