<?xml version="1.0" encoding="UTF-8" standalone="no"?>
<!-- Generator: Adobe Illustrator 19.0.0, SVG Export Plug-In . SVG Version: 6.00 Build 0)  -->

<svg
   xmlns:dc="http://purl.org/dc/elements/1.1/"
   xmlns:cc="http://creativecommons.org/ns#"
   xmlns:rdf="http://www.w3.org/1999/02/22-rdf-syntax-ns#"
   xmlns:svg="http://www.w3.org/2000/svg"
   xmlns="http://www.w3.org/2000/svg"
   xmlns:sodipodi="http://sodipodi.sourceforge.net/DTD/sodipodi-0.dtd"
   xmlns:inkscape="http://www.inkscape.org/namespaces/inkscape"
   version="1.1"
   id="Layer_1"
   x="0px"
   y="0px"
   viewBox="0 0 500 500"
   xml:space="preserve"
   inkscape:version="0.91 r13725"
   width="100%"
   height="100%"
   sodipodi:docname="kgeography.svg"><metadata
     id="metadata57"><rdf:RDF><cc:Work
         rdf:about=""><dc:format>image/svg+xml</dc:format><dc:type
           rdf:resource="http://purl.org/dc/dcmitype/StillImage" /><dc:title></dc:title></cc:Work></rdf:RDF></metadata><defs
     id="defs55" /><sodipodi:namedview
     pagecolor="#ffffff"
     bordercolor="#666666"
     borderopacity="1"
     objecttolerance="10"
     gridtolerance="10"
     guidetolerance="10"
     inkscape:pageopacity="0"
     inkscape:pageshadow="2"
     inkscape:window-width="1366"
     inkscape:window-height="715"
     id="namedview53"
     showgrid="false"
     inkscape:zoom="0.18582593"
     inkscape:cx="1007.7946"
     inkscape:cy="328.1063"
     inkscape:window-x="0"
     inkscape:window-y="24"
     inkscape:window-maximized="1"
     inkscape:current-layer="Layer_1" /><g
     id="g23"
     transform="translate(0,39.767)" /><g
     id="g25"
     transform="translate(0,39.767)" /><g
     id="g27"
     transform="translate(0,39.767)" /><g
     id="g29"
     transform="translate(0,39.767)" /><g
     id="g31"
     transform="translate(0,39.767)" /><g
     id="g33"
     transform="translate(0,39.767)" /><g
     id="g35"
     transform="translate(0,39.767)" /><g
     id="g37"
     transform="translate(0,39.767)" /><g
     id="g39"
     transform="translate(0,39.767)" /><g
     id="g41"
     transform="translate(0,39.767)" /><g
     id="g43"
     transform="translate(0,39.767)" /><g
     id="g45"
     transform="translate(0,39.767)" /><g
     id="g47"
     transform="translate(0,39.767)" /><g
     id="g49"
     transform="translate(0,39.767)" /><g
     id="g51"
     transform="translate(0,39.767)" /><g
     id="g4272"><rect
       ry="1.9899074"
       y="20"
       x="20"
       height="460"
       width="460"
       id="rect4165"
       style="fill:#e6e6e6;fill-opacity:1;stroke:none;stroke-width:0.93897641;stroke-miterlimit:4;stroke-dasharray:none;stroke-opacity:1" /><rect
       ry="1.8601309"
       y="35"
       x="35"
       height="430"
       width="430"
       id="rect4165-3"
       style="fill:#00bbf2;fill-opacity:1;stroke:none;stroke-width:0.93897641;stroke-miterlimit:4;stroke-dasharray:none;stroke-opacity:1" /><path
       id="path4182"
       d="M 227.3418 44.662109 C 221.95276 44.779582 215.2231 46.826641 210.45703 48.900391 C 202.83129 52.218381 194.81434 58.720739 191.71875 66.042969 C 188.62317 73.365189 191.58962 79.813914 192.38672 88.333984 C 193.18384 96.854064 192.6017 109.97239 196.91602 117.01953 C 201.23036 124.06667 209.79236 122.79529 213.52539 129.09766 C 217.25842 135.40002 219.2098 144.5277 216.50195 152.32227 C 213.7941 160.11683 200.83512 162.09027 197.85156 170.57422 C 194.86802 179.05817 202.1769 190.75637 201.18359 198.24023 C 200.19026 205.7241 200.84063 206.336 194.65625 214.4043 C 188.47189 222.47259 160.75609 229.07129 159.88867 240.64844 C 159.02122 252.22557 171.47431 254.4135 178.14062 259.29883 C 184.80693 264.18416 193.60769 262.60084 199.09961 269.91016 C 204.59154 277.21949 206.29024 292.26578 204.91797 300.72852 C 203.54569 309.19127 195.25699 311.09747 195.15039 318.26953 C 195.0438 325.44157 201.10886 331.68181 205.7207 338.65234 C 210.33256 345.62287 223.25353 351.79888 223.03906 359.61133 C 222.82457 367.42377 215.00103 368.785 209.67383 374.08789 C 204.3466 379.39076 195.3662 383.33543 190.93555 391.22852 C 186.50488 399.12162 183.17012 411.79 185.38672 419.60547 C 187.60331 427.42094 197.84349 428.20748 198.8418 434.16992 C 199.84009 440.13234 195.27458 443.70396 192.22656 449.22461 C 189.4729 454.21212 183.39621 459.05455 180.91406 465 L 463.14062 465 C 464.17114 465 465 464.17114 465 463.14062 L 465 130.73633 C 429.54871 118.50712 460.95421 153.0734 451.32227 154.75391 C 440.72637 156.60261 428.81446 145.03615 420.45898 146.05078 C 412.10349 147.06538 407.00055 149.88703 404.42969 155.15625 C 401.85882 160.42547 410.46021 167.2117 406.87305 171.71875 C 403.28589 176.22579 394.69973 175.35842 389.10938 173.14062 C 383.51898 170.92282 381.30671 166.98797 376.85352 159.59766 C 372.40032 152.20736 372.90403 132.93657 365.39453 128.11328 C 357.885 123.29 351.893 126.39978 345.41211 129.71289 C 338.93122 133.026 335.97646 145.23718 330.0918 147.69922 C 324.20714 150.16128 322.67561 149.37462 315.48242 146.63281 C 308.28924 143.89101 291.27794 134.98354 290.48047 127.40625 C 289.68302 119.82898 300.41886 123.40726 299.67383 116.61523 C 298.92878 109.8232 286.80637 103.88486 278.26758 100.45312 C 269.72881 97.021397 256.504 102.20705 250.07031 97.123047 C 243.63662 92.039067 245.85257 83.892457 242.91992 77.585938 C 239.98729 71.279417 233.45703 64.949968 232.52734 59.423828 C 231.59767 53.897688 239.02534 51.556452 234.88086 46.945312 C 233.32668 45.216139 230.57522 44.591626 227.3418 44.662109 z "
       style="fill:#ffcc00;fill-opacity:1;fill-rule:evenodd;stroke:none;stroke-width:1px;stroke-linecap:butt;stroke-linejoin:miter;stroke-opacity:1" /><path
       sodipodi:nodetypes="zzzzzzzzzzzz"
       inkscape:connector-curvature="0"
       id="path4187"
       d="m 71.347697,123.28416 c 6.174089,-5.74359 20.169087,-3.30902 25.685171,2.85391 5.516082,6.16293 -4.136903,17.67222 0,23.78256 4.136902,6.11034 15.066922,1.76266 19.026052,7.61042 3.95913,5.84776 1.44875,13.79707 0,21.87996 -1.44875,8.08289 -1.10391,21.98415 -9.51303,25.68517 -8.409121,3.70102 -20.850635,-3.93417 -25.685167,-10.46432 -4.834532,-6.53015 3.707423,-16.66264 -1.902605,-20.92866 -5.610028,-4.26602 -14.966123,8.39045 -20.928658,3.80521 -5.962535,-4.58524 -5.624371,-18.05003 -1.902605,-23.78257 3.721766,-5.73254 12.24889,0.0697 16.172145,-5.70781 3.923255,-5.77752 -7.125392,-18.99028 -0.951303,-24.73387 z"
       style="fill:#ffcc00;fill-rule:evenodd;stroke:none;stroke-width:1px;stroke-linecap:butt;stroke-linejoin:miter;stroke-opacity:1;fill-opacity:1" /><g
       id="g4264"><path
         style="fill:#394050;fill-opacity:1;fill-rule:evenodd;stroke:none;stroke-width:1px;stroke-linecap:butt;stroke-linejoin:miter;stroke-opacity:1"
         d="m 117.96754,344.41338 37.90618,0 -18.83389,-96.07664 z"
         id="path4191"
         inkscape:connector-curvature="0" /><path
         style="fill:#394050;fill-opacity:1;fill-rule:evenodd;stroke:none;stroke-width:1px;stroke-linecap:butt;stroke-linejoin:miter;stroke-opacity:1"
         d="m 155.67985,344.29867 0,37.90617 96.07665,-18.83389 z"
         id="path4191-6"
         inkscape:connector-curvature="0" /><path
         style="fill:#394050;fill-opacity:1;fill-rule:evenodd;stroke:none;stroke-width:1px;stroke-linecap:butt;stroke-linejoin:miter;stroke-opacity:1"
         d="m 155.77679,382.02381 -37.90618,0 18.83389,96.07665 z"
         id="path4191-7"
         inkscape:connector-curvature="0" /><path
         style="fill:#394050;fill-opacity:1;fill-rule:evenodd;stroke:none;stroke-width:1px;stroke-linecap:butt;stroke-linejoin:miter;stroke-opacity:1"
         d="m 118.06448,382.13853 0,-37.90617 -96.076644,18.83389 z"
         id="path4191-6-5"
         inkscape:connector-curvature="0" /><path
         style="fill:#394050;fill-opacity:1;fill-rule:evenodd;stroke:none;stroke-width:1px;stroke-linecap:butt;stroke-linejoin:miter;stroke-opacity:1"
         d="m 136.40409,399.64355 36.23735,-32.74076 -33.3765,-42.91265 -35.91948,34.64799 25.42972,41.00542 z"
         id="path4232"
         inkscape:connector-curvature="0" /><path
         style="fill:none;fill-opacity:1;stroke:#394050;stroke-width:3.77287793;stroke-miterlimit:4;stroke-dasharray:none;stroke-opacity:1"
         id="path4241"
         sodipodi:type="arc"
         sodipodi:cx="135.9304"
         sodipodi:cy="364.06607"
         sodipodi:rx="113.88831"
         sodipodi:ry="113.88831"
         sodipodi:start="0"
         sodipodi:end="6.2784904"
         sodipodi:open="true"
         d="M 249.81872,364.06607 A 113.88831,113.88831 0 0 1 136.06408,477.95431 113.88831,113.88831 0 0 1 22.042405,364.33342 113.88831,113.88831 0 0 1 135.52938,250.17846 113.88831,113.88831 0 0 1 249.81746,363.53138" /></g></g></svg>