<?xml version="1.0" encoding="UTF-8" standalone="no"?>
<!-- Created with Inkscape (http://www.inkscape.org/) -->

<svg
   xmlns:dc="http://purl.org/dc/elements/1.1/"
   xmlns:cc="http://creativecommons.org/ns#"
   xmlns:rdf="http://www.w3.org/1999/02/22-rdf-syntax-ns#"
   xmlns:svg="http://www.w3.org/2000/svg"
   xmlns="http://www.w3.org/2000/svg"
   xmlns:sodipodi="http://sodipodi.sourceforge.net/DTD/sodipodi-0.dtd"
   xmlns:inkscape="http://www.inkscape.org/namespaces/inkscape"
   width="500"
   height="500"
   id="svg2"
   version="1.1"
   inkscape:version="0.91 r13725"
   sodipodi:docname="linuxdcpp.svg">
  <defs
     id="defs4" />
  <sodipodi:namedview
     id="base"
     pagecolor="#ffffff"
     bordercolor="#666666"
     borderopacity="1.0"
     inkscape:pageopacity="0.0"
     inkscape:pageshadow="2"
     inkscape:zoom="0.4289781"
     inkscape:cx="80.411171"
     inkscape:cy="309.05209"
     inkscape:document-units="px"
     inkscape:current-layer="layer1"
     showgrid="false"
     inkscape:window-width="1366"
     inkscape:window-height="715"
     inkscape:window-x="0"
     inkscape:window-y="24"
     inkscape:window-maximized="1" />
  <metadata
     id="metadata7">
    <rdf:RDF>
      <cc:Work
         rdf:about="">
        <dc:format>image/svg+xml</dc:format>
        <dc:type
           rdf:resource="http://purl.org/dc/dcmitype/StillImage" />
        <dc:title />
      </cc:Work>
    </rdf:RDF>
  </metadata>
  <g
     inkscape:label="Layer 1"
     inkscape:groupmode="layer"
     id="layer1"
     transform="translate(0,-552.36218)">
    <g
       id="g33"
       transform="matrix(7.0918748,0,0,7.0918748,-216.72006,932.49923)" />
    <g
       id="g4171">
      <path
         d="m 400.9054,884.03499 c -6.44219,24.85134 -38.93849,76.69462 -56.30795,99.54807 -17.28791,22.93504 -15.20845,43.56634 -47.15435,35.51354 -31.86434,-7.9712 -40.77336,-6.5237 -73.82012,-4.7704 -32.65945,1.8348 -25.64641,-0.8766 -46.11464,7.8081 -20.38668,8.6031 -88.947026,-105.19524 -94.532948,-126.45853 -5.422823,-21.18174 -8.052746,-18.63341 6.217936,-41.48685 14.087192,-22.93501 16.248152,-45.62536 34.963122,-73.35122 18.71497,-27.86857 40.44717,-42.05769 38.857,-63.30059 -6.21793,-78.91678 -10.98842,-118.42613 26.35991,-136.65181 35.51359,-17.36943 65.29853,-7.01301 77.00045,-1.12127 5.09669,2.54834 15.4531,7.56345 23.0981,16.24818 7.645,8.52161 14.57644,21.34483 18.47032,37.593 7.9712,32.57788 -3.34342,21.81373 5.72864,59.1621 8.92935,37.26682 27.07347,55.59443 49.21342,85.05316 22.22143,29.45873 45.31953,78.1217 37.98034,106.2349 m 0,0"
         id="SVGCleanerId_0"
         inkscape:connector-curvature="0"
         style="fill:#394050;fill-opacity:1;fill-rule:nonzero;stroke:none;stroke-width:2.87465072" />
      <path
         d="m 190.00538,690.74903 c 5.81018,-2.1406 4.85203,-2.46679 8.76624,-10.43797 3.09878,-6.13639 5.81019,-8.76627 5.72864,-18.08298 0,-9.07206 -3.01722,-12.19122 -7.56345,-18.16451 -4.38312,-5.64711 -11.31456,-5.97329 -15.75884,-5.25976 -2.54838,0.40778 -5.81019,3.42496 -8.05276,7.88964 -1.50861,3.01723 -2.62986,6.84992 -2.79296,10.82532 -0.24438,10.82532 0.63196,14.88227 3.34343,22.22146 3.09877,8.60317 10.66222,13.06785 16.3297,10.98841 m 0,0"
         id="path88"
         inkscape:connector-curvature="0"
         style="fill:#f9f9f9;fill-opacity:1;fill-rule:nonzero;stroke:none;stroke-width:2.87465072" />
      <path
         d="m 184.60294,653.46182 c 2.87451,0 6.52368,1.75326 8.35849,4.22004 1.91637,2.46679 3.18033,5.97329 3.18033,9.94869 0,5.81021 -0.63202,12.27278 -4.38312,14.25028 -1.2028,0.46892 -3.75118,1.20281 -5.17824,1.20281 -3.26187,0 -3.58801,-2.07943 -6.68679,-5.09667 -1.12131,-1.03971 -4.30163,-6.38102 -4.30163,-10.74377 0,-2.71142 -0.63196,-6.60527 1.91636,-10.11178 1.75326,-2.54833 3.97543,-3.75114 7.0946,-3.75114 m 0,0.0815"
         id="SVGCleanerId_1"
         inkscape:connector-curvature="0"
         style="fill:#394050;fill-opacity:1;fill-rule:nonzero;stroke:none;stroke-width:2.87465072" />
      <path
         d="m 250.28876,691.48295 c 14.65799,-1.42707 19.75467,-6.76837 22.38454,-16.00353 2.30367,-8.19544 2.38522,-17.28789 -4.05693,-28.03166 -6.13639,-10.19334 -9.64291,-11.78349 -18.47032,-12.49703 -13.61829,-1.03972 -20.06048,7.88964 -23.09809,14.25027 -3.18033,6.93148 -2.54838,5.9733 -2.30373,14.73957 0.24439,9.23516 5.7287,11.78349 9.07206,17.59369 3.42498,5.56556 14.82115,10.11179 16.41131,10.03024 m 0.0817,-0.0816"
         id="path91"
         inkscape:connector-curvature="0"
         style="fill:#f9f9f9;fill-opacity:1;fill-rule:nonzero;stroke:none;stroke-width:2.87465072" />
      <path
         d="m 249.10629,653.05408 c 7.31886,0 11.53888,6.13639 12.98634,13.94449 0.55025,3.58805 -0.24439,7.645 -2.54832,10.51951 -2.62992,3.34342 -7.31886,5.25977 -11.06997,5.25977 -3.66962,0 -7.645,0.55047 -9.86717,-2.14061 -2.14057,-2.87451 -2.54831,-9.07206 -2.54831,-13.61828 0,-5.01512 1.59016,-8.60318 4.22002,-11.39616 2.07946,-2.07943 5.72864,-2.54833 8.8478,-2.54833 m 0,0"
         id="SVGCleanerId_2"
         inkscape:connector-curvature="0"
         style="fill:#394050;fill-opacity:1;fill-rule:nonzero;stroke:none;stroke-width:2.87465072" />
      <path
         d="m 205.62157,733.92798 c -12.66014,0.46892 -32.65946,-32.80214 -33.20991,-18.95959 -0.32609,11.70194 0.32608,11.47768 0.32608,22.7719 0,7.56346 -3.66957,8.19544 -11.62038,19.59158 -4.13847,5.97329 -7.3188,12.49703 -9.78562,19.12269 -1.59016,3.89385 -3.01722,7.97119 -4.22002,12.02814 -0.46913,1.99789 -1.34551,4.13849 -1.91637,6.13638 -3.89382,13.78138 -18.16451,30.82464 -21.42638,44.60602 -3.34342,13.69984 -7.23725,22.4661 -6.68679,40.77333 0.46913,18.38877 0.63196,13.06785 6.52369,17.67524 5.8918,4.54622 11.86508,8.84781 21.10024,16.49281 9.78557,8.11389 29.94799,21.81372 32.65941,26.19684 2.8745,4.38312 2.8745,14.16874 1.1213,17.36946 -1.75326,3.09877 -16.96171,4.85203 -16.96171,4.85203 0,0 13.29209,17.43057 16.0035,19.83622 2.54831,2.38522 13.45519,13.94449 57.73502,6.13639 25.01445,-4.54623 44.27983,-17.59372 58.28547,-30.17225 18.08297,-16.63556 8.92936,-21.34483 11.23308,-29.62184 3.42497,-12.02814 14.49488,-16.49282 16.96171,-30.02955 0.32608,-1.91636 0.95815,-3.34342 2.87451,-6.38104 2.79296,-3.83268 2.14062,-11.94657 2.14062,-19.12268 0,-19.12269 -2.30372,-38.30654 -7.01304,-52.55683 -4.30158,-13.37364 -11.06998,-22.69034 -16.88017,-34.71848 -11.62037,-23.97472 -11.06997,-34.80003 -21.50793,-50.09004 -11.78347,-17.67523 -5.97329,-29.45872 -21.73219,-28.74519 -19.59157,1.03972 -35.43197,26.27841 -53.98385,26.99194 m 0,0"
         id="path100"
         inkscape:connector-curvature="0"
         style="fill:#f9f9f9;fill-opacity:1;fill-rule:nonzero;stroke:none;stroke-width:2.87465072" />
      <path
         sodipodi:nodetypes="ccccccscccccccscccccccccccccscscccsccccccccsccccccs"
         inkscape:connector-curvature="0"
         id="path102"
         d="m 212.31066,671.13871 c -5.01507,0.55047 -8.12664,0.0787 -12.97868,2.38243 -5.17823,2.46679 -12.84324,8.2794 -16.98172,11.70436 -7.95081,6.54413 -13.60949,9.23372 -13.28341,17.28645 0.22418,7.645 6.84954,13.61852 14.08679,19.18408 7.15576,5.58595 13.29115,12.52121 17.67428,13.94828 4.54622,1.61056 12.44273,1.28816 18.08982,1.28816 12.57858,1e-5 28.89596,-14.89203 38.04957,-17.52191 11.39617,-3.42496 15.38479,-9.14654 16.26145,-22.0513 0.79506,-10.76416 -16.0121,-12.68618 -28.67223,-16.58003 -3.81228,-1.10088 -6.76246,-2.67986 -10.90099,-5.55438 -4.46467,-3.09876 -14.25028,-4.70115 -21.34488,-3.90607 z M 97.746413,886.90069 c -7.97114,-0.16311 -12.423738,3.84505 -17.438814,8.61552 -5.015133,4.77048 -11.068828,16.87983 -19.83508,22.77157 l -0.02766,0 c -8.684752,5.89175 -30.906539,5.41659 -36.553629,12.32767 -5.504436,6.93145 0.245876,16.96453 0.08312,35.59789 0,7.9712 -1.424268,13.94421 -2.382423,18.79624 -1.427062,6.13639 -2.301696,10.43779 0.470971,14.82091 5.015133,7.72651 12.896419,9.73491 58.521818,18.64391 24.362066,4.7704 47.458036,17.0336 62.829576,18.2976 15.4531,1.0397 18.80302,-3.8336 28.20128,-11.6213 9.31671,-7.8897 12.34261,-5.5025 12.0368,-22.6885 -0.32608,-17.20632 -12.02812,-22.30599 -25.32021,-42.12182 -13.29214,-19.83622 -15.4678,-23.4873 -24.29521,-36.63673 -8.84786,-12.98631 -26.34174,-36.55831 -36.290452,-36.80296 z m 219.127847,9.25269 c -6.21794,0 -7.40032,0.15623 -12.6601,3.25505 -2.85436,1.67171 -3.1027,12.49701 -3.1027,25.32022 0,10.11175 0.0717,21.50096 -0.88648,30.73607 -2.22217,21.50793 -6.90575,34.00722 -7.3135,47.87018 -0.48941,13.8425 4.52483,23.1604 8.98951,26.83 4.38311,3.7307 11.00383,6.6071 25.41717,6.6071 14.49494,0 23.47403,-3.0325 33.03539,-12.023 6.13639,-5.749 12.65982,-11.1605 31.45634,-23.2702 14.98419,-9.54092 37.50476,-20.06128 41.96949,-24.28137 2.22212,-2.05902 6.21174,-4.0455 6.53783,-11.6905 0.24438,-6.6053 -5.42961,-8.77733 -9.40505,-11.08106 -5.56554,-3.01722 -19.99438,-13.93927 -27.23169,-24.68305 -4.38335,-6.52373 1.83019,-17.29099 -4.22465,-25.48642 l 0,0.11084 c -3.58807,-4.93357 -10.03818,-2.79796 -10.91484,-2.79796 -1.0397,0 -6.61502,9.06063 -8.83714,11.69051 -2.4056,2.79297 -8.68022,7.48158 -13.1449,10.11146 -4.44435,2.71143 -7.96055,4.15023 -17.52191,3.51823 -9.47987,-0.71354 -12.19153,-3.75089 -15.20876,-6.13613 -2.95606,-2.46679 -5.96609,-4.38749 -5.41586,-10.36079 0.65203,-5.97329 1.44555,-10.20043 -0.47097,-11.95368 -2.07943,-1.97753 -4.84924,-2.2855 -11.06718,-2.2855 z"
         style="fill:#ffcc00;fill-opacity:1;fill-rule:nonzero;stroke:none;stroke-width:2.87465072" />
      <path
         sodipodi:open="true"
         sodipodi:end="6.2784904"
         sodipodi:start="0"
         d="m 234.76408,831.83746 a 46.719616,46.719616 0 0 1 -46.66478,46.71959 46.719616,46.719616 0 0 1 -46.77432,-46.60991 46.719616,46.719616 0 0 1 46.55498,-46.829 46.719616,46.719616 0 0 1 46.88361,46.49998"
         sodipodi:ry="46.719616"
         sodipodi:rx="46.719616"
         sodipodi:cy="831.83746"
         sodipodi:cx="188.04446"
         id="path2996-3"
         style="fill:#ffcc00;fill-opacity:1;stroke:none"
         sodipodi:type="arc" />
      <path
         sodipodi:open="true"
         sodipodi:end="6.2784904"
         sodipodi:start="0"
         d="m 252.73314,916.84229 a 46.719616,46.719616 0 0 1 -46.66478,46.71958 46.719616,46.719616 0 0 1 -46.77433,-46.60991 46.719616,46.719616 0 0 1 46.55498,-46.829 46.719616,46.719616 0 0 1 46.88361,46.49998"
         sodipodi:ry="46.719616"
         sodipodi:rx="46.719616"
         sodipodi:cy="916.84229"
         sodipodi:cx="206.01352"
         id="path2996-3-6"
         style="fill:#d7ac00;fill-opacity:1;stroke:none"
         sodipodi:type="arc" />
      <path
         sodipodi:open="true"
         sodipodi:end="6.2784904"
         sodipodi:start="0"
         d="m 319.62214,863.15503 a 46.719616,46.719616 0 0 1 -46.66478,46.71958 46.719616,46.719616 0 0 1 -46.77432,-46.60991 46.719616,46.719616 0 0 1 46.55498,-46.829 46.719616,46.719616 0 0 1 46.88361,46.49999"
         sodipodi:ry="46.719616"
         sodipodi:rx="46.719616"
         sodipodi:cy="863.15503"
         sodipodi:cx="272.90253"
         id="path2996-3-6-7"
         style="fill:#394050;fill-opacity:1;stroke:none"
         sodipodi:type="arc" />
    </g>
  </g>
</svg>
