<?xml version="1.0" encoding="UTF-8" standalone="no"?>
<!-- Created using Karbon, part of Calligra: http://www.calligra.org/karbon -->

<svg
   xmlns:dc="http://purl.org/dc/elements/1.1/"
   xmlns:cc="http://creativecommons.org/ns#"
   xmlns:rdf="http://www.w3.org/1999/02/22-rdf-syntax-ns#"
   xmlns:svg="http://www.w3.org/2000/svg"
   xmlns="http://www.w3.org/2000/svg"
   xmlns:sodipodi="http://sodipodi.sourceforge.net/DTD/sodipodi-0.dtd"
   xmlns:inkscape="http://www.inkscape.org/namespaces/inkscape"
   width="512"
   height="512"
   id="svg2"
   version="1.1"
   inkscape:version="0.91 r13725"
   sodipodi:docname="luvcview.svg"
   viewBox="0 0 512 512">
  <metadata
     id="metadata24">
    <rdf:RDF>
      <cc:Work
         rdf:about="">
        <dc:format>image/svg+xml</dc:format>
        <dc:type
           rdf:resource="http://purl.org/dc/dcmitype/StillImage" />
        <dc:title />
      </cc:Work>
    </rdf:RDF>
  </metadata>
  <sodipodi:namedview
     pagecolor="#ffffff"
     bordercolor="#666666"
     borderopacity="1"
     objecttolerance="10"
     gridtolerance="10"
     guidetolerance="10"
     inkscape:pageopacity="0"
     inkscape:pageshadow="2"
     inkscape:window-width="1366"
     inkscape:window-height="715"
     id="namedview22"
     showgrid="false"
     inkscape:zoom="0.2608702"
     inkscape:cx="615.95342"
     inkscape:cy="-208.84384"
     inkscape:window-x="0"
     inkscape:window-y="24"
     inkscape:window-maximized="1"
     inkscape:current-layer="svg2"
     inkscape:document-units="px" />
  <defs
     id="defs4" />
  <g
     id="g4231">
    <g
       id="g4171"
       transform="translate(9.5353614,-527.47649)">
      <rect
         style="fill:#00bbf2;fill-opacity:1;stroke:none"
         id="rect2997-3"
         width="425.30334"
         height="252.7326"
         x="40.794899"
         y="768.32782"
         ry="21.153845" />
      <path
         style="fill:#004455;fill-opacity:1;stroke:none"
         d="m 41.062631,791.71329 433.782559,1.57452 0,-47.23584 -433.782559,0 z"
         id="path2999-6"
         inkscape:connector-curvature="0"
         sodipodi:nodetypes="ccccc" />
      <path
         style="fill:#ffffff;stroke:none"
         d="m 148.80589,792.09094 -43.58122,-0.15497 44.89988,-45.87922 43.55539,0.17348 z"
         id="path3769-7"
         inkscape:connector-curvature="0"
         sodipodi:nodetypes="ccccc" />
      <path
         style="fill:#ffffff;stroke:none"
         d="m 238.54111,792.13985 -43.5812,-0.15496 44.90006,-45.87923 43.55532,0.17349 z"
         id="path3769-3-5"
         inkscape:connector-curvature="0"
         sodipodi:nodetypes="ccccc" />
      <path
         style="fill:#ffffff;stroke:none"
         d="m 329.98989,791.99994 -43.58133,-0.15496 44.89997,-45.87923 43.55532,0.17349 z"
         id="path3769-6-3"
         inkscape:connector-curvature="0"
         sodipodi:nodetypes="ccccc" />
      <path
         style="fill:#ffffff;stroke:none"
         d="m 419.72502,792.04886 -43.58111,-0.15497 44.89997,-45.87922 43.55532,0.17348 z"
         id="path3769-3-7-5"
         inkscape:connector-curvature="0"
         sodipodi:nodetypes="ccccc" />
      <path
         style="fill:#004455;fill-opacity:1;stroke:none"
         d="M 27.41616,702.47407 440.81699,571.0604 454.96342,616.12816 41.091048,746.03958 Z"
         id="path2999-3-6"
         inkscape:connector-curvature="0"
         sodipodi:nodetypes="ccccc" />
      <path
         style="fill:#ffffff;stroke:none"
         d="M 130.10101,669.84625 88.566534,683.04603 145.1457,713.3726 186.64998,700.16289 Z"
         id="path3769-5-2"
         inkscape:connector-curvature="0"
         sodipodi:nodetypes="ccccc" />
      <path
         style="fill:#ffffff;stroke:none"
         d="m 215.70282,642.92522 -41.53445,13.19977 56.57933,30.32652 41.50422,-13.20969 z"
         id="path3769-3-6-9"
         inkscape:connector-curvature="0"
         sodipodi:nodetypes="ccccc" />
      <path
         style="fill:#ffffff;stroke:none"
         d="m 302.9961,615.67116 -41.53458,13.19981 56.57924,30.32654 41.50423,-13.20969 z"
         id="path3769-6-2-1"
         inkscape:connector-curvature="0"
         sodipodi:nodetypes="ccccc" />
      <path
         style="fill:#ffffff;stroke:none"
         d="m 388.59783,588.75015 -41.53438,13.19975 56.57925,30.32654 41.50422,-13.20969 z"
         id="path3769-3-7-9-2"
         inkscape:connector-curvature="0"
         sodipodi:nodetypes="ccccc" />
      <path
         style="fill:#00bbf2;fill-opacity:1;stroke:none"
         d="m 40.837368,792.50388 68.193292,0 c 0,0 9.05758,-28.45342 8.96253,-28.83602 l -35.070817,-62.63752 -42.864349,0.0946 z"
         id="path3861-7"
         inkscape:connector-curvature="0"
         sodipodi:nodetypes="cccccc" />
      <path
         sodipodi:type="arc"
         style="fill:#ffffff;fill-opacity:1;stroke:none"
         id="path3863-0"
         sodipodi:cx="53.826439"
         sodipodi:cy="712.66858"
         sodipodi:rx="6.2348132"
         sodipodi:ry="6.2348132"
         d="m 60.061252,712.66858 a 6.2348132,6.2348132 0 0 1 -6.227495,6.23481 6.2348132,6.2348132 0 0 1 -6.242114,-6.22017 6.2348132,6.2348132 0 0 1 6.212842,-6.24942 6.2348132,6.2348132 0 0 1 6.256698,6.20551"
         sodipodi:start="0"
         sodipodi:end="6.2784904"
         sodipodi:open="true" />
      <path
         sodipodi:type="arc"
         style="fill:#ffffff;fill-opacity:1;stroke:none"
         id="path3863-1-9"
         sodipodi:cx="54.216141"
         sodipodi:cy="778.13409"
         sodipodi:rx="6.2348132"
         sodipodi:ry="6.2348132"
         d="m 60.450954,778.13409 a 6.2348132,6.2348132 0 0 1 -6.227495,6.23481 6.2348132,6.2348132 0 0 1 -6.242114,-6.22017 6.2348132,6.2348132 0 0 1 6.212842,-6.24941 6.2348132,6.2348132 0 0 1 6.256698,6.2055"
         sodipodi:start="0"
         sodipodi:end="6.2784904"
         sodipodi:open="true" />
      <path
         sodipodi:type="arc"
         style="fill:#ffffff;fill-opacity:1;stroke:none"
         id="path3863-2-3"
         sodipodi:cx="100.19794"
         sodipodi:cy="780.08252"
         sodipodi:rx="6.2348132"
         sodipodi:ry="6.2348132"
         d="m 106.43275,780.08252 a 6.2348132,6.2348132 0 0 1 -6.2275,6.23481 6.2348132,6.2348132 0 0 1 -6.242109,-6.22017 6.2348132,6.2348132 0 0 1 6.212839,-6.24942 6.2348132,6.2348132 0 0 1 6.2567,6.20551"
         sodipodi:start="0"
         sodipodi:end="6.2784904"
         sodipodi:open="true" />
    </g>
    <rect
       transform="matrix(-0.17134457,0.98521116,-0.98521116,-0.17134457,0,0)"
       id="shape0"
       stroke-miterlimit="2.00000000000"
       width="45.853165"
       height="87.445381"
       x="282.45929"
       y="-237.09055"
       style="fill:#ffffff;fill-opacity:1;fill-rule:evenodd;stroke:#003bc3;stroke-width:0;stroke-linecap:square;stroke-linejoin:miter;stroke-miterlimit:2" />
    <rect
       transform="matrix(-0.17134457,0.98521116,-0.98521116,-0.17134457,0,0)"
       id="shape1"
       stroke-miterlimit="2.00000000000"
       width="45.853165"
       height="87.445381"
       x="328.3118"
       y="-237.09055"
       style="fill:#ffffff;fill-opacity:1;fill-rule:evenodd;stroke:#003bc3;stroke-width:0;stroke-linecap:square;stroke-linejoin:miter;stroke-miterlimit:2" />
    <rect
       transform="matrix(-0.17134457,0.98521116,-0.98521116,-0.17134457,0,0)"
       id="shape2"
       stroke-miterlimit="2.00000000000"
       width="158.99081"
       height="259.4389"
       rx="32.578049"
       ry="32.559456"
       x="248.12042"
       y="-491.08011"
       style="fill:#ffffff;fill-opacity:1;fill-rule:evenodd;stroke:#003bc3;stroke-width:0;stroke-linecap:square;stroke-linejoin:miter;stroke-miterlimit:2" />
    <path
       inkscape:connector-curvature="0"
       id="shape3"
       d="m 133.02864,320.68799 -14.33379,-2.49288 -4.13852,23.79595 14.3338,2.49289 4.13851,-23.79596 z m -8.1633,46.93802 -14.33379,-2.49288 -4.16682,23.95869 14.3338,2.49289 4.16681,-23.9587 z"
       style="fill:#00bbf2;fill-opacity:1;fill-rule:evenodd;stroke:none;stroke-width:0;stroke-linecap:square;stroke-linejoin:miter;stroke-miterlimit:2;stroke-opacity:1" />
    <rect
       id="rect1933"
       transform="matrix(0.98521116,0.17134457,-0.17134457,0.98521116,0,0)"
       stroke-miterlimit="2.00000000000"
       width="24.777668"
       height="24.852184"
       x="395.50613"
       y="351.04312"
       style="fill:#00bbf2;fill-opacity:1;stroke:#2c3e50;stroke-width:0;stroke-linecap:butt;stroke-linejoin:miter;stroke-miterlimit:2" />
    <path
       id="path2830"
       stroke-miterlimit="2.00000000000"
       d="m 241.2052,375.11767 c -1.59634,9.18759 -10.33013,15.34294 -19.5068,13.74695 -9.17658,-1.59593 -15.31963,-10.33862 -13.71996,-19.52564 1.59638,-9.18779 10.33006,-15.34303 19.50665,-13.74707 9.17666,1.59594 15.31983,10.33856 13.72011,19.52576 z"
       inkscape:connector-curvature="0"
       style="fill:#00bbf2;fill-opacity:1;stroke:#2c3e50;stroke-width:0;stroke-linecap:butt;stroke-linejoin:miter;stroke-miterlimit:2" />
    <path
       id="path4602"
       stroke-miterlimit="2.00000000000"
       d="m 341.78557,360.4783 c -1.41349,8.13656 -9.14815,13.58742 -17.27484,12.17406 -8.12662,-1.41335 -13.5669,-9.15556 -12.15019,-17.29155 1.41349,-8.13656 9.14814,-13.58752 17.27476,-12.17415 8.1267,1.41336 13.56695,9.15565 12.15027,17.29164 z"
       inkscape:connector-curvature="0"
       style="fill:#00bbf2;fill-opacity:1;stroke:#2c3e50;stroke-width:0;stroke-linecap:butt;stroke-linejoin:miter;stroke-miterlimit:2" />
    <path
       id="path4608"
       stroke-miterlimit="2.00000000000"
       d="m 374.84572,384.85698 c 0,0 27.34194,18.27069 26.84025,18.51582 -0.50157,0.2451 -31.44076,7.93657 -31.44076,7.93657 z"
       inkscape:connector-curvature="0"
       style="fill:#00bbf2;fill-opacity:1;fill-rule:evenodd;stroke:#2c3e50;stroke-width:0;stroke-linecap:butt;stroke-linejoin:miter;stroke-miterlimit:2" />
    <path
       inkscape:connector-curvature="0"
       id="path2766"
       d="m 295.84375,348.98047 c -2.92074,0.34098 -5.74549,1.81984 -8.52734,3.69922 -3.70915,2.50584 -7.49308,5.8765 -11.50391,9.20312 -8.02166,6.65324 -16.77522,12.91551 -26.375,12.28516 l -0.30273,4.60156 c 11.72115,0.76965 21.45066,-6.55769 29.62304,-13.33594 4.08619,-3.38912 7.82836,-6.69392 11.14063,-8.93164 3.31227,-2.23772 6.04468,-3.25607 8.14062,-2.90625 8.15112,1.36043 11.69663,2.37011 22.22266,4.12696 l 0.75976,-4.55078 c -10.40856,-1.73724 -13.92402,-2.73963 -22.2246,-4.125 -0.99682,-0.16638 -1.97955,-0.18007 -2.95313,-0.0664 z"
       style="color:#000000;font-style:normal;font-variant:normal;font-weight:normal;font-stretch:normal;font-size:medium;line-height:normal;font-family:sans-serif;text-indent:0;text-align:start;text-decoration:none;text-decoration-line:none;text-decoration-style:solid;text-decoration-color:#000000;letter-spacing:normal;word-spacing:normal;text-transform:none;direction:ltr;block-progression:tb;writing-mode:lr-tb;baseline-shift:baseline;text-anchor:start;white-space:normal;clip-rule:nonzero;display:inline;overflow:visible;visibility:visible;opacity:1;isolation:auto;mix-blend-mode:normal;color-interpolation:sRGB;color-interpolation-filters:linearRGB;solid-color:#000000;solid-opacity:1;fill:#00bbf2;fill-opacity:1;fill-rule:nonzero;stroke:none;stroke-width:4.61289978;stroke-linecap:butt;stroke-linejoin:miter;stroke-miterlimit:2.01260185;stroke-dasharray:none;stroke-dashoffset:0;stroke-opacity:1;color-rendering:auto;image-rendering:auto;shape-rendering:auto;text-rendering:auto;enable-background:accumulate" />
    <path
       inkscape:connector-curvature="0"
       id="path3653"
       d="m 271.95312,378.07617 -0.79101,4.54492 c 9.47008,1.64701 14.17705,7.61291 18.52734,15.45899 4.3503,7.84607 7.9355,17.42079 15.01172,24.80859 l 0.0391,0.041 0.041,0.0391 c 0.90732,0.85927 1.64237,1.02671 2.62305,1.35352 0.98068,0.3268 2.14455,0.63191 3.46093,0.93359 2.63277,0.60336 5.86117,1.18437 9.0586,1.70703 3.19743,0.52267 6.35865,0.98527 8.81445,1.33203 2.4558,0.34676 4.40537,0.61542 4.49414,0.63086 l 0.78906,-4.54492 c -0.65565,-0.11402 -2.20069,-0.31005 -4.63867,-0.6543 -2.43797,-0.34424 -5.56909,-0.80023 -8.71484,-1.31445 -3.14575,-0.51422 -6.31162,-1.08861 -8.77149,-1.65234 -1.22993,-0.28187 -2.28644,-0.56365 -3.0332,-0.8125 -0.7277,-0.24251 -1.17321,-0.59559 -0.88672,-0.32032 -6.17419,-6.48269 -9.68863,-15.54939 -14.2539,-23.7832 -4.58081,-8.26181 -10.63474,-15.83105 -21.76954,-17.76758 z"
       style="color:#000000;font-style:normal;font-variant:normal;font-weight:normal;font-stretch:normal;font-size:medium;line-height:normal;font-family:sans-serif;text-indent:0;text-align:start;text-decoration:none;text-decoration-line:none;text-decoration-style:solid;text-decoration-color:#000000;letter-spacing:normal;word-spacing:normal;text-transform:none;direction:ltr;block-progression:tb;writing-mode:lr-tb;baseline-shift:baseline;text-anchor:start;white-space:normal;clip-rule:nonzero;display:inline;overflow:visible;visibility:visible;opacity:1;isolation:auto;mix-blend-mode:normal;color-interpolation:sRGB;color-interpolation-filters:linearRGB;solid-color:#000000;solid-opacity:1;fill:#00bbf2;fill-opacity:1;fill-rule:nonzero;stroke:none;stroke-width:4.61289978;stroke-linecap:butt;stroke-linejoin:miter;stroke-miterlimit:2.01260185;stroke-dasharray:none;stroke-dashoffset:0;stroke-opacity:1;color-rendering:auto;image-rendering:auto;shape-rendering:auto;text-rendering:auto;enable-background:accumulate" />
    <path
       inkscape:connector-curvature="0"
       id="path5436"
       d="m 224.71289,369.79492 -0.79101,4.54492 154.58984,26.88672 0.78906,-4.54492 -154.58789,-26.88672 z"
       style="color:#000000;font-style:normal;font-variant:normal;font-weight:normal;font-stretch:normal;font-size:medium;line-height:normal;font-family:sans-serif;text-indent:0;text-align:start;text-decoration:none;text-decoration-line:none;text-decoration-style:solid;text-decoration-color:#000000;letter-spacing:normal;word-spacing:normal;text-transform:none;direction:ltr;block-progression:tb;writing-mode:lr-tb;baseline-shift:baseline;text-anchor:start;white-space:normal;clip-rule:nonzero;display:inline;overflow:visible;visibility:visible;opacity:1;isolation:auto;mix-blend-mode:normal;color-interpolation:sRGB;color-interpolation-filters:linearRGB;solid-color:#000000;solid-opacity:1;fill:#00bbf2;fill-opacity:1;fill-rule:nonzero;stroke:none;stroke-width:4.61289978;stroke-linecap:butt;stroke-linejoin:miter;stroke-miterlimit:2.01260185;stroke-dasharray:none;stroke-dashoffset:0;stroke-opacity:1;color-rendering:auto;image-rendering:auto;shape-rendering:auto;text-rendering:auto;enable-background:accumulate" />
  </g>
</svg>
