<?xml version="1.0" encoding="UTF-8" standalone="no"?>
<!-- Created with Inkscape (http://www.inkscape.org/) -->

<svg
   xmlns:dc="http://purl.org/dc/elements/1.1/"
   xmlns:cc="http://creativecommons.org/ns#"
   xmlns:rdf="http://www.w3.org/1999/02/22-rdf-syntax-ns#"
   xmlns:svg="http://www.w3.org/2000/svg"
   xmlns="http://www.w3.org/2000/svg"
   xmlns:sodipodi="http://sodipodi.sourceforge.net/DTD/sodipodi-0.dtd"
   xmlns:inkscape="http://www.inkscape.org/namespaces/inkscape"
   width="512"
   height="512"
   id="svg2"
   version="1.1"
   inkscape:version="0.91 r13725"
   viewBox="0 0 144.49777 144.49779"
   sodipodi:docname="mate-panel-fish.svg">
  <defs
     id="defs4" />
  <sodipodi:namedview
     id="base"
     pagecolor="#ffffff"
     bordercolor="#666666"
     borderopacity="1.0"
     inkscape:pageopacity="0"
     inkscape:pageshadow="2"
     inkscape:zoom="0.35355339"
     inkscape:cx="191.62803"
     inkscape:cy="200.30673"
     inkscape:document-units="px"
     inkscape:current-layer="layer1"
     showgrid="false"
     inkscape:showpageshadow="false"
     borderlayer="true"
     units="px"
     fit-margin-top="0"
     fit-margin-left="0"
     fit-margin-right="0"
     fit-margin-bottom="0"
     showguides="true"
     inkscape:window-width="1366"
     inkscape:window-height="715"
     inkscape:window-x="0"
     inkscape:window-y="24"
     inkscape:window-maximized="1" />
  <metadata
     id="metadata7">
    <rdf:RDF>
      <cc:Work
         rdf:about="">
        <dc:format>image/svg+xml</dc:format>
        <dc:type
           rdf:resource="http://purl.org/dc/dcmitype/StillImage" />
        <dc:title />
      </cc:Work>
    </rdf:RDF>
  </metadata>
  <g
     inkscape:label="Capa 1"
     inkscape:groupmode="layer"
     id="layer1"
     transform="translate(38.119153,-266.89382)">
    <g
       id="g4163"
       transform="matrix(0.99494855,0.70177313,-0.70177313,0.99494855,223.13151,-42.836032)">
      <g
         id="g4146"
         transform="matrix(0.28222224,0,0,0.28222224,-68.290303,324.84151)"><path
   inkscape:connector-curvature="0"
   d="m 300.53266,122.12415 c -4.26707,44.31337 106.67596,83.68145 60.12586,6.31561"
   style="fill:#ff6600;fill-opacity:1;fill-rule:evenodd;stroke:none;stroke-width:3.23974013;stroke-linecap:butt;stroke-linejoin:miter;stroke-miterlimit:4;stroke-dasharray:none;stroke-opacity:1"
   id="path4130" />
<path
   inkscape:connector-curvature="0"
   d="m 192.31731,7.6169463 c 15.85865,-25.6398243 101.4024,-51.5749623 159.19644,-58.7299353 50.87638,-40.964489 71.40942,-13.260561 89.76833,16.819225 42.35573,25.1909557 64.04984,13.011587 71.89614,14.435267 50.74483,9.20764 64.99209,51.005061 38.05474,77.540359 40.8463,26.31408 152.24775,-16.395731 121.05621,78.457398 -30.04108,91.35485 -94.82236,-1.54341 -150.00104,-12.02498 27.66091,47.5685 -69.31361,38.58315 -103.23653,11.55347 -119.11141,3.09813 -181.35756,-20.68797 -234.5345,-85.427122 -7.85154,-9.558587 -1.53569,-27.529646 7.80021,-42.6236817 z"
   style="fill:#ff6600;fill-opacity:1;fill-rule:evenodd;stroke:none;stroke-width:3.23974013;stroke-linecap:round;stroke-linejoin:round;stroke-miterlimit:4;stroke-dasharray:none;stroke-opacity:1"
   id="path2287" />
<path
   inkscape:connector-curvature="0"
   d="m 439.22817,-36.403017 c 10.74612,43.055873 -49.45972,55.11957 -56.5864,90.079014 10.10399,27.174411 16.96672,53.450133 7.60718,81.919443 11.23295,0.46698 21.13101,-0.32759 29.53396,-0.40622 3.5625,3.47635 7.38382,6.72648 13.3025,8.32182 -15.65533,-39.95489 42.56225,-157.344121 79.73359,-163.554779 -32.64234,2.756944 -51.7925,-1.875765 -73.59083,-16.359516 z m -168.05064,2.882265 c -9.493,2.679987 -18.69042,5.836838 -27.49998,9.539646 47.73839,23.67935983 49.81021,91.947988 -15.70262,115.978176 6.36767,4.596017 12.45002,9.33642 20.78768,12.94964 69.82216,-7.795872 86.45354,-109.9117802 22.41492,-138.467462 z m 280.04373,93.164031 c -11.26446,17.173627 -24.26398,40.282728 -28.19155,63.530251 15.64197,7.28399 38.75885,16.5537 52.96588,26.22402 -15.91964,-30.44169 12.00581,-77.331288 38.36167,-80.458119 -18.78068,-1.967135 -43.65875,-1.568062 -63.136,-9.296152 z"
   style="fill:#ffffff;fill-opacity:1;fill-rule:evenodd;stroke:none;stroke-width:3.23974013;stroke-linecap:round;stroke-linejoin:round;stroke-miterlimit:4;stroke-dasharray:none;stroke-opacity:1"
   id="path5205" />
<path
   inkscape:connector-curvature="0"
   d="m 326.29079,71.107651 c 25.58276,-12.759634 86.26171,-30.473975 89.59106,-2.456149 5.5775,46.935938 -81.60545,83.455108 -92.54461,36.350128"
   style="fill:#ff6600;fill-opacity:1;fill-rule:evenodd;stroke:#ffffff;stroke-width:3.23974013;stroke-linecap:round;stroke-linejoin:round;stroke-miterlimit:4;stroke-dasharray:none;stroke-opacity:1"
   id="path5227" />



  path
     d=M 266.00864,15.364715 A 21.970818,22.728432 0 0 1 245.64485,39.639488 21.970818,22.728432 0 0 1 222.17682,18.576382 21.970818,22.728432 0 0 1 242.53503,-5.7033946 21.970818,22.728432 0 0 1 266.0079,15.353944 l -21.91536,1.613911 z
     sodipodi:end=6.212117
     sodipodi:start=6.2125921
     sodipodi:ry=22.728432
     sodipodi:rx=21.970818
     sodipodi:cy=16.967855
     sodipodi:cx=244.09254
     sodipodi:type=arc
     id=path837
     style=opacity:1;fill:#ffffff;fill-opacity:1;stroke:none;stroke-width:3;stroke-miterlimit:4;stroke-dasharray:none;stroke-opacity:1 /
  <path
   inkscape:connector-curvature="0"
   d="m 184.02706,45.999369 c 8.72934,7.91774 17.4588,5.696389 26.18813,4.8139"
   style="fill:none;fill-rule:evenodd;stroke:#ffffff;stroke-width:3.23974013;stroke-linecap:round;stroke-linejoin:round;stroke-miterlimit:4;stroke-dasharray:none;stroke-opacity:1"
   id="path8008" />
</g>
      <path
         d="m 2.0127373,329.84833 a 3.9912252,3.4210503 0 0 1 -3.9865407,3.42105 3.9912252,3.4210503 0 0 1 -3.9958988,-3.41302 3.9912252,3.4210503 0 0 1 3.9771604,-3.42906 3.9912252,3.4210503 0 0 1 4.0052351,3.40497"
         sodipodi:open="true"
         sodipodi:end="6.2784904"
         sodipodi:start="0"
         sodipodi:ry="3.4210503"
         sodipodi:rx="3.9912252"
         sodipodi:cy="329.84833"
         sodipodi:cx="-1.978488"
         sodipodi:type="arc"
         id="path4146"
         style="fill:#ffffff;fill-opacity:1;stroke:#ffffff;stroke-width:4.23333359;stroke-miterlimit:4;stroke-dasharray:none;stroke-opacity:1" />
    </g>
  </g>
</svg>
