<?xml version="1.0" encoding="UTF-8" standalone="no"?>
<svg
   xmlns:dc="http://purl.org/dc/elements/1.1/"
   xmlns:cc="http://creativecommons.org/ns#"
   xmlns:rdf="http://www.w3.org/1999/02/22-rdf-syntax-ns#"
   xmlns:svg="http://www.w3.org/2000/svg"
   xmlns="http://www.w3.org/2000/svg"
   xmlns:sodipodi="http://sodipodi.sourceforge.net/DTD/sodipodi-0.dtd"
   xmlns:inkscape="http://www.inkscape.org/namespaces/inkscape"
   viewBox="0 0 500 500"
   id="svg2"
   version="1.1"
   inkscape:version="0.91 r13725"
   width="100%"
   height="100%"
   sodipodi:docname="maya.svg">
  <metadata
     id="metadata97">
    <rdf:RDF>
      <cc:Work
         rdf:about="">
        <dc:format>image/svg+xml</dc:format>
        <dc:type
           rdf:resource="http://purl.org/dc/dcmitype/StillImage" />
        <dc:title />
      </cc:Work>
    </rdf:RDF>
  </metadata>
  <sodipodi:namedview
     pagecolor="#ffffff"
     bordercolor="#666666"
     borderopacity="1"
     objecttolerance="10"
     gridtolerance="10"
     guidetolerance="10"
     inkscape:pageopacity="0"
     inkscape:pageshadow="2"
     inkscape:window-width="1366"
     inkscape:window-height="715"
     id="namedview95"
     showgrid="false"
     inkscape:zoom="0.21728802"
     inkscape:cx="1034.8338"
     inkscape:cy="95.706033"
     inkscape:window-x="0"
     inkscape:window-y="24"
     inkscape:window-maximized="1"
     inkscape:current-layer="svg2" />
  <defs
     id="defs4">
    <linearGradient
       id="linearGradient3764"
       x1="1"
       x2="47"
       gradientUnits="userSpaceOnUse"
       gradientTransform="matrix(0,-1,1,0,-1.5e-6,47.999998)">
      <stop
         stop-color="#53cbcd"
         stop-opacity="1"
         id="stop7" />
      <stop
         offset="1"
         stop-color="#63d1d1"
         stop-opacity="1"
         id="stop9" />
    </linearGradient>
    <clipPath
       id="clipPath-632402728">
      <g
         transform="translate(0,-1004.3622)"
         id="g12">
        <path
           d="m -24,13 c 0,1.105 -0.672,2 -1.5,2 -0.828,0 -1.5,-0.895 -1.5,-2 0,-1.105 0.672,-2 1.5,-2 0.828,0 1.5,0.895 1.5,2 z"
           transform="matrix(15.333333,0,0,11.5,414.99999,878.8622)"
           id="path14"
           inkscape:connector-curvature="0"
           style="fill:#1890d0" />
      </g>
    </clipPath>
    <clipPath
       id="clipPath-646364100">
      <g
         transform="translate(0,-1004.3622)"
         id="g17">
        <path
           d="m -24,13 c 0,1.105 -0.672,2 -1.5,2 -0.828,0 -1.5,-0.895 -1.5,-2 0,-1.105 0.672,-2 1.5,-2 0.828,0 1.5,0.895 1.5,2 z"
           transform="matrix(15.333333,0,0,11.5,414.99999,878.8622)"
           id="path19"
           inkscape:connector-curvature="0"
           style="fill:#1890d0" />
      </g>
    </clipPath>
  </defs>
  <g
     id="g33"
     transform="translate(0,452)" />
  <g
     id="g4188">
    <path
       d="m 381.25,475 93.75,0 0,-300 -93.75,112.5 m 0,187.5"
       id="path71"
       inkscape:connector-curvature="0"
       style="fill:#00bbf2;fill-opacity:1;fill-rule:nonzero;stroke:none" />
    <path
       d="M 118.75,475 25,475 25,175 118.75,287.5 m 0,187.5"
       id="path73"
       inkscape:connector-curvature="0"
       style="fill:#00bbf2;fill-opacity:1;fill-rule:nonzero;stroke:none" />
    <path
       d="M 250,464.3875 25,175 250,25 475,175 M 250,464.3875"
       id="path75"
       inkscape:connector-curvature="0"
       style="fill:#0093be;fill-opacity:1;fill-rule:nonzero;stroke:none" />
    <path
       d="M 118.75,212.5 250,25 381.25,212.5 m -262.5,0"
       id="path77"
       inkscape:connector-curvature="0"
       style="fill:#004455;fill-opacity:1;fill-rule:nonzero;stroke:none" />
    <path
       d="m 118.75,475 0,-262.5 75,0 m -75,262.5"
       id="path79"
       inkscape:connector-curvature="0"
       style="fill:#005871;fill-opacity:1;fill-rule:nonzero;stroke:none" />
    <path
       d="m 381.25,212.5 -75,0 75,262.5 m 0,-262.5"
       id="path81"
       inkscape:connector-curvature="0"
       style="fill:#005871;fill-opacity:1;fill-rule:nonzero;stroke:none" />
    <path
       d="M 193.75,212.5 250,25 306.25,212.5 m -112.5,0"
       id="path83"
       inkscape:connector-curvature="0"
       style="fill:#00779a;fill-opacity:1;fill-rule:nonzero;stroke:none" />
    <path
       d="M 250,464.81875 156.25,343.75 l 37.5,-131.25 112.5,0 37.5,131.25 M 250,464.81875"
       id="path85"
       inkscape:connector-curvature="0"
       style="fill:#00bbf2;fill-opacity:1;fill-rule:nonzero;stroke:none" />
    <path
       d="m 156.25,343.75 -37.5,-48.1125 0,179.3625 m 37.5,-131.25"
       id="path87"
       inkscape:connector-curvature="0"
       style="fill:#00779a;fill-opacity:1;fill-rule:nonzero;stroke:none" />
    <path
       d="m 381.25,475 -37.5,-131.25 37.5,-48.4125 m 0,179.6625"
       id="path89"
       inkscape:connector-curvature="0"
       style="fill:#00779a;fill-opacity:1;fill-rule:nonzero;stroke:none" />
  </g>
</svg>
