<?xml version="1.0" encoding="UTF-8" standalone="no"?>
<!-- Generator: Adobe Illustrator 19.0.0, SVG Export Plug-In . SVG Version: 6.00 Build 0)  -->

<svg
   xmlns:dc="http://purl.org/dc/elements/1.1/"
   xmlns:cc="http://creativecommons.org/ns#"
   xmlns:rdf="http://www.w3.org/1999/02/22-rdf-syntax-ns#"
   xmlns:svg="http://www.w3.org/2000/svg"
   xmlns="http://www.w3.org/2000/svg"
   xmlns:sodipodi="http://sodipodi.sourceforge.net/DTD/sodipodi-0.dtd"
   xmlns:inkscape="http://www.inkscape.org/namespaces/inkscape"
   version="1.1"
   id="Layer_1"
   x="0px"
   y="0px"
   viewBox="0 0 500 500"
   xml:space="preserve"
   inkscape:version="0.91 r13725"
   width="100%"
   height="100%"
   sodipodi:docname="mediatomb.svg"><metadata
     id="metadata57"><rdf:RDF><cc:Work
         rdf:about=""><dc:format>image/svg+xml</dc:format><dc:type
           rdf:resource="http://purl.org/dc/dcmitype/StillImage" /></cc:Work></rdf:RDF></metadata><defs
     id="defs55" /><sodipodi:namedview
     pagecolor="#ffffff"
     bordercolor="#666666"
     borderopacity="1"
     objecttolerance="10"
     gridtolerance="10"
     guidetolerance="10"
     inkscape:pageopacity="0"
     inkscape:pageshadow="2"
     inkscape:window-width="1366"
     inkscape:window-height="715"
     id="namedview53"
     showgrid="false"
     inkscape:zoom="0.37165185"
     inkscape:cx="1085.5852"
     inkscape:cy="-15.667163"
     inkscape:window-x="0"
     inkscape:window-y="24"
     inkscape:window-maximized="1"
     inkscape:current-layer="Layer_1" /><g
     id="g23"
     transform="translate(0,39.767)" /><g
     id="g25"
     transform="translate(0,39.767)" /><g
     id="g27"
     transform="translate(0,39.767)" /><g
     id="g29"
     transform="translate(0,39.767)" /><g
     id="g31"
     transform="translate(0,39.767)" /><g
     id="g33"
     transform="translate(0,39.767)" /><g
     id="g35"
     transform="translate(0,39.767)" /><g
     id="g37"
     transform="translate(0,39.767)" /><g
     id="g39"
     transform="translate(0,39.767)" /><g
     id="g41"
     transform="translate(0,39.767)" /><g
     id="g43"
     transform="translate(0,39.767)" /><g
     id="g45"
     transform="translate(0,39.767)" /><g
     id="g47"
     transform="translate(0,39.767)" /><g
     id="g49"
     transform="translate(0,39.767)" /><g
     id="g51"
     transform="translate(0,39.767)" /><g
     id="g4222"><circle
       r="225"
       cy="248.36354"
       cx="249.73387"
       id="path3414"
       style="fill:#394050;fill-opacity:1;stroke:none;stroke-width:3;stroke-miterlimit:4;stroke-dasharray:none;stroke-opacity:1" /><path
       sodipodi:nodetypes="ccccccccccccccccccccccccc"
       inkscape:connector-curvature="0"
       id="path3372"
       d="m 76.166376,336.92676 41.993324,41.26937 32.58106,-37.28719 -7.96425,-10.86039 -0.72401,-128.87611 22.9707,21.40902 0.95131,102.8957 -14.32873,15.61274 27.87493,33.48608 33.30506,-33.66704 -11.40338,-11.40338 1.08604,-133.22026 23.71173,20.99666 0.18083,102.44925 -12.3084,21.17773 31.85705,33.30507 34.9341,-30.40898 -11.22237,-13.57546 0,-132.67728 -54.84472,-53.93969 -34.02913,34.02907 -29.68491,-34.75307 -55.749802,54.30172 0.180834,125.075 z"
       style="fill:#ffffff;fill-rule:evenodd;stroke:none;stroke-width:6.08868837px;stroke-linecap:butt;stroke-linejoin:miter;stroke-opacity:1" /><path
       inkscape:connector-curvature="0"
       id="path3395"
       d="m 324.66792,325.97753 -15.61481,17.15068 37.37323,38.65313 37.88516,-40.189 -15.87084,-16.38277 0.51206,-141.30142 24.06219,0 35.58132,-40.44497 -114.42344,-0.25572 -38.14113,40.18894 48.89235,0.25572 z"
       style="fill:#ffffff;fill-rule:evenodd;stroke:none;stroke-width:6.08868837px;stroke-linecap:butt;stroke-linejoin:miter;stroke-opacity:1" /></g></svg>