<?xml version="1.0" encoding="UTF-8" standalone="no"?>
<!-- Created with Inkscape (http://www.inkscape.org/) -->

<svg
   xmlns:dc="http://purl.org/dc/elements/1.1/"
   xmlns:cc="http://creativecommons.org/ns#"
   xmlns:rdf="http://www.w3.org/1999/02/22-rdf-syntax-ns#"
   xmlns:svg="http://www.w3.org/2000/svg"
   xmlns="http://www.w3.org/2000/svg"
   xmlns:sodipodi="http://sodipodi.sourceforge.net/DTD/sodipodi-0.dtd"
   xmlns:inkscape="http://www.inkscape.org/namespaces/inkscape"
   id="svg2"
   version="1.1"
   inkscape:version="0.91 r13725"
   width="500"
   height="500"
   xml:space="preserve"
   sodipodi:docname="monkeystudio.svg"><metadata
     id="metadata8"><rdf:RDF><cc:Work
         rdf:about=""><dc:format>image/svg+xml</dc:format><dc:type
           rdf:resource="http://purl.org/dc/dcmitype/StillImage" /><dc:title /></cc:Work></rdf:RDF></metadata><defs
     id="defs6"><clipPath
       clipPathUnits="userSpaceOnUse"
       id="clipPath18"><path
         d="m 0,869.743 846.084,0 L 846.084,0 0,0 0,869.743 z"
         id="path20"
         inkscape:connector-curvature="0" /></clipPath><clipPath
       clipPathUnits="userSpaceOnUse"
       id="clipPath26"><path
         d="m 6.24561,480.284 500.39239,0 0,-447.2674 -500.39239,0 0,447.2674 z"
         id="path28"
         inkscape:connector-curvature="0" /></clipPath><clipPath
       clipPathUnits="userSpaceOnUse"
       id="clipPath30"><path
         d="M 190.06,480.284 6.246,296.47 286.598,33.017 506.638,253.057 190.06,480.284 z"
         id="path32"
         inkscape:connector-curvature="0" /></clipPath><linearGradient
       x1="0"
       y1="0"
       x2="1"
       y2="0"
       gradientUnits="userSpaceOnUse"
       gradientTransform="matrix(184.23512,184.23512,184.23512,-184.23512,162.09717,180.41797)"
       spreadMethod="pad"
       id="linearGradient34"><stop
         style="stop-opacity:1;stop-color:#ffffff"
         offset="0"
         id="stop36" /><stop
         style="stop-opacity:1;stop-color:#000000"
         offset="1"
         id="stop38" /></linearGradient><clipPath
       clipPathUnits="userSpaceOnUse"
       id="clipPath78"><path
         d="m 95.6772,523.905 409.8738,0 0,-443.9519 -409.8738,0 0,443.9519 z"
         id="path80"
         inkscape:connector-curvature="0" /></clipPath><clipPath
       clipPathUnits="userSpaceOnUse"
       id="clipPath82"><path
         d="M 301.772,523.905 95.677,317.811 333.535,79.953 505.551,253.057 301.772,523.905 z"
         id="path84"
         inkscape:connector-curvature="0" /></clipPath><linearGradient
       x1="0"
       y1="0"
       x2="1"
       y2="0"
       gradientUnits="userSpaceOnUse"
       gradientTransform="matrix(183.00333,183.00333,183.00333,-183.00333,230.05615,214.33105)"
       spreadMethod="pad"
       id="linearGradient86"><stop
         style="stop-opacity:1;stop-color:#ffffff"
         offset="0"
         id="stop88" /><stop
         style="stop-opacity:1;stop-color:#000000"
         offset="1"
         id="stop90" /></linearGradient></defs><sodipodi:namedview
     pagecolor="#ffffff"
     bordercolor="#666666"
     borderopacity="1"
     objecttolerance="10"
     gridtolerance="10"
     guidetolerance="10"
     inkscape:pageopacity="0"
     inkscape:pageshadow="2"
     inkscape:window-width="1366"
     inkscape:window-height="715"
     id="namedview4"
     showgrid="false"
     inkscape:zoom="0.4341512"
     inkscape:cx="-95.823933"
     inkscape:cy="383.17538"
     inkscape:window-x="0"
     inkscape:window-y="24"
     inkscape:window-maximized="1"
     inkscape:current-layer="g10" /><g
     id="g10"
     inkscape:groupmode="layer"
     inkscape:label="pixel77-free-vector-baby-monkey-1218"
     transform="matrix(1.25,0,0,-1.25,0,499.99997)"><g
       id="g4244"><g
         style="fill:#ffccaa"
         transform="matrix(0.62826083,0,0,0.62826083,353.47674,179.94295)"
         id="g54"><path
           inkscape:connector-curvature="0"
           id="path56"
           style="fill:#ffccaa;fill-opacity:1;fill-rule:nonzero;stroke:none"
           d="m 0,0 c 0,-36.225 -29.364,-65.591 -65.592,-65.591 -36.226,0 -65.592,29.366 -65.592,65.591 0,36.225 29.366,65.591 65.592,65.591 C -29.364,65.591 0,36.225 0,0" /></g><g
         style="fill:#ffccaa"
         transform="matrix(0.62826083,0,0,0.62826083,126.46177,179.94295)"
         id="g58"><path
           inkscape:connector-curvature="0"
           id="path60"
           style="fill:#ffccaa;fill-opacity:1;fill-rule:nonzero;stroke:none"
           d="m 0,0 c 0,-36.225 -29.364,-65.591 -65.591,-65.591 -36.227,0 -65.592,29.366 -65.592,65.591 0,36.225 29.365,65.591 65.592,65.591 C -29.364,65.591 0,36.225 0,0" /></g><g
         transform="matrix(0.62826083,0,0,0.62826083,108.8011,179.94295)"
         id="g62"><path
           inkscape:connector-curvature="0"
           id="path64"
           style="fill:#d84f51;fill-opacity:1;fill-rule:nonzero;stroke:none"
           d="m 0,0 c 0,-20.701 -16.78,-37.481 -37.481,-37.481 -20.701,0 -37.481,16.78 -37.481,37.481 0,20.701 16.78,37.481 37.481,37.481 C -16.78,37.481 0,20.701 0,0" /></g><g
         transform="matrix(0.62826083,0,0,0.62826083,335.81553,179.94295)"
         id="g66"><path
           inkscape:connector-curvature="0"
           id="path68"
           style="fill:#d84f51;fill-opacity:1;fill-rule:nonzero;stroke:none"
           d="m 0,0 c 0,-20.701 -16.781,-37.481 -37.48,-37.481 -20.7,0 -37.481,16.78 -37.481,37.481 0,20.701 16.781,37.481 37.481,37.481 C -16.781,37.481 0,20.701 0,0" /></g><g
         style="fill:#c87137;fill-opacity:1"
         transform="matrix(0.62826083,0,0,0.62826083,317.78737,179.94295)"
         id="g70"><path
           inkscape:connector-curvature="0"
           id="path72"
           style="fill:#c87137;fill-opacity:1;fill-rule:nonzero;stroke:none"
           d="m 0,0 c 0,-104.794 -84.955,-189.747 -189.747,-189.747 -104.793,0 -189.747,84.953 -189.747,189.747 0,104.795 84.954,189.747 189.747,189.747 C -84.955,189.747 0,104.795 0,0" /></g><g
         style="fill:#ffccaa"
         transform="matrix(0.62826083,0,0,0.62826083,296.81485,196.13203)"
         id="g106"><path
           inkscape:connector-curvature="0"
           id="path108"
           style="fill:#ffccaa;fill-opacity:1;fill-rule:nonzero;stroke:none"
           d="m 0,0 c 0,42.694 -34.612,77.304 -77.304,77.304 -34.649,0 -63.967,-22.799 -73.791,-54.213 -9.822,31.414 -39.141,54.213 -73.79,54.213 -42.692,0 -77.304,-34.61 -77.304,-77.304 0,-36.479 25.299,-66.978 59.287,-75.106 -11.548,-17.415 -18.292,-38.297 -18.292,-60.762 0,-60.808 49.294,-110.1 110.099,-110.1 60.806,0 110.1,49.292 110.1,110.1 0,22.465 -6.744,43.347 -18.291,60.762 C -25.302,-66.978 0,-36.479 0,0" /></g><g
         style="fill:#c87137;fill-opacity:1"
         transform="matrix(0.62826083,0,0,0.62826083,144.69175,286.26999)"
         id="g110"><path
           inkscape:connector-curvature="0"
           id="path112"
           style="fill:#c87137;fill-opacity:1;fill-rule:nonzero;stroke:none"
           d="M 0,0 C 0,0 67.028,39.247 163.072,72.042 L 112.191,18.635 184.156,36.021 171.629,0 l 29.51,0 0,-28.687 L 0,0 Z" /></g><g
         transform="matrix(0.62826083,0,0,0.62826083,207.4273,90.167008)"
         id="g114"><path
           inkscape:connector-curvature="0"
           id="path116"
           style="fill:#d84f51;fill-opacity:1;fill-rule:nonzero;stroke:none"
           d="m 0,0 c 0,-8.605 -4.735,-15.583 -10.574,-15.583 -5.838,0 -10.573,6.978 -10.573,15.583 0,8.606 4.735,15.584 10.573,15.584 C -4.735,15.584 0,8.606 0,0" /></g><g
         transform="matrix(0.62826083,0,0,0.62826083,189.61114,196.13203)"
         id="g118"><path
           inkscape:connector-curvature="0"
           id="path120"
           style="fill:#f2906a;fill-opacity:1;fill-rule:nonzero;stroke:none"
           d="m 0,0 c 0,-29.886 -24.222,-54.112 -54.112,-54.112 -29.89,0 -54.112,24.226 -54.112,54.112 0,29.886 24.222,54.112 54.112,54.112 C -24.222,54.112 0,29.886 0,0" /></g><g
         transform="matrix(0.62826083,0,0,0.62826083,175.57805,196.13203)"
         id="g122"><path
           inkscape:connector-curvature="0"
           id="path124"
           style="fill:#3e1d15;fill-opacity:1;fill-rule:nonzero;stroke:none"
           d="m 0,0 c 0,-17.551 -14.225,-31.778 -31.775,-31.778 -17.551,0 -31.776,14.227 -31.776,31.778 0,17.551 14.225,31.778 31.776,31.778 C -14.225,31.778 0,17.551 0,0" /></g><g
         transform="matrix(0.62826083,0,0,0.62826083,170.91579,196.13203)"
         id="g126"><path
           inkscape:connector-curvature="0"
           id="path128"
           style="fill:#762e33;fill-opacity:1;fill-rule:nonzero;stroke:none"
           d="m 0,0 c 0,-13.451 -10.903,-24.356 -24.354,-24.356 -13.452,0 -24.355,10.905 -24.355,24.356 0,13.451 10.903,24.356 24.355,24.356 C -10.903,24.356 0,13.451 0,0" /></g><g
         transform="matrix(0.62826083,0,0,0.62826083,168.61316,201.47993)"
         id="g130"><path
           inkscape:connector-curvature="0"
           id="path132"
           style="fill:#3e1d15;fill-opacity:1;fill-rule:nonzero;stroke:none"
           d="m 0,0 c 0,-10.61 -8.602,-19.211 -19.211,-19.211 -10.611,0 -19.212,8.601 -19.212,19.211 0,10.612 8.601,19.214 19.212,19.214 C -8.602,19.214 0,10.612 0,0" /></g><g
         transform="matrix(0.62826083,0,0,0.62826083,170.91579,202.14255)"
         id="g134"><path
           inkscape:connector-curvature="0"
           id="path136"
           style="fill:#f9f6ea;fill-opacity:1;fill-rule:nonzero;stroke:none"
           d="m 0,0 c 0,-6.563 -5.321,-11.884 -11.882,-11.884 -6.566,0 -11.882,5.321 -11.882,11.884 0,6.561 5.316,11.882 11.882,11.882 C -5.321,11.882 0,6.561 0,0" /></g><g
         transform="matrix(0.62826083,0,0,0.62826083,284.38285,196.13203)"
         id="g138"><path
           inkscape:connector-curvature="0"
           id="path140"
           style="fill:#f2906a;fill-opacity:1;fill-rule:nonzero;stroke:none"
           d="m 0,0 c 0,-29.886 -24.222,-54.112 -54.112,-54.112 -29.89,0 -54.112,24.226 -54.112,54.112 0,29.886 24.222,54.112 54.112,54.112 C -24.222,54.112 0,29.886 0,0" /></g><g
         transform="matrix(0.62826083,0,0,0.62826083,270.34937,196.13203)"
         id="g142"><path
           inkscape:connector-curvature="0"
           id="path144"
           style="fill:#3e1d15;fill-opacity:1;fill-rule:nonzero;stroke:none"
           d="m 0,0 c 0,-17.551 -14.224,-31.778 -31.775,-31.778 -17.551,0 -31.776,14.227 -31.776,31.778 0,17.551 14.225,31.778 31.776,31.778 C -14.224,31.778 0,17.551 0,0" /></g><g
         transform="matrix(0.62826083,0,0,0.62826083,265.68711,196.13203)"
         id="g146"><path
           inkscape:connector-curvature="0"
           id="path148"
           style="fill:#762e33;fill-opacity:1;fill-rule:nonzero;stroke:none"
           d="m 0,0 c 0,-13.451 -10.902,-24.356 -24.354,-24.356 -13.452,0 -24.355,10.905 -24.355,24.356 0,13.451 10.903,24.356 24.355,24.356 C -10.902,24.356 0,13.451 0,0" /></g><g
         transform="matrix(0.62826083,0,0,0.62826083,263.38454,201.47993)"
         id="g150"><path
           inkscape:connector-curvature="0"
           id="path152"
           style="fill:#3e1d15;fill-opacity:1;fill-rule:nonzero;stroke:none"
           d="m 0,0 c 0,-10.61 -8.601,-19.211 -19.212,-19.211 -10.609,0 -19.211,8.601 -19.211,19.211 0,10.612 8.602,19.214 19.211,19.214 C -8.601,19.214 0,10.612 0,0" /></g><g
         transform="matrix(0.62826083,0,0,0.62826083,265.68711,202.14255)"
         id="g154"><path
           inkscape:connector-curvature="0"
           id="path156"
           style="fill:#f9f6ea;fill-opacity:1;fill-rule:nonzero;stroke:none"
           d="m 0,0 c 0,-6.563 -5.321,-11.884 -11.882,-11.884 -6.565,0 -11.882,5.321 -11.882,11.884 0,6.561 5.317,11.882 11.882,11.882 C -5.321,11.882 0,6.561 0,0" /></g><g
         transform="matrix(0.62826083,0,0,0.62826083,212.4721,143.37409)"
         id="g158"><path
           inkscape:connector-curvature="0"
           id="path160"
           style="fill:#f2906a;fill-opacity:1;fill-rule:nonzero;stroke:none"
           d="m 0,0 c 0,-2.682 -8.776,-4.854 -19.596,-4.854 -10.821,0 -19.596,2.172 -19.596,4.854 0,2.679 8.775,4.852 19.596,4.852 C -8.776,4.852 0,2.679 0,0" /></g><path
         sodipodi:nodetypes="czcc"
         inkscape:connector-curvature="0"
         id="path3777"
         d="m 65.610377,235.08551 c 0,0 -45.780908,-7.5731 -46.40439,-53.92943 -0.623481,-46.35633 47.658562,-58.31904 47.658562,-58.31904 z"
         style="fill:#b3b3b3;stroke:none;fill-opacity:1" /><path
         sodipodi:nodetypes="cczcczc"
         inkscape:connector-curvature="0"
         id="path3775"
         d="m 92.575095,230.06882 -1.254172,-101.5342 c 0,0 2.029982,-9.79327 -13.115016,-9.75462 -15.144999,0.0387 -12.59553,9.38728 -12.59553,9.38728 l -0.627083,100.96091 c 0,0 -2.340927,10.39111 13.723087,10.32791 16.064014,-0.0632 13.868714,-9.38728 13.868714,-9.38728 z"
         style="fill:#394050;stroke:none" /><path
         sodipodi:nodetypes="czcc"
         inkscape:connector-curvature="0"
         id="path3777-6"
         d="m 332.78963,234.25271 c 0,0 45.78091,-7.5731 46.40439,-53.92943 0.62348,-46.35633 -47.65857,-58.31904 -47.65857,-58.31904 z"
         style="fill:#b3b3b3;stroke:none;fill-opacity:1" /><path
         sodipodi:nodetypes="cczcczc"
         inkscape:connector-curvature="0"
         id="path3775-7"
         d="m 305.82491,229.23602 1.25417,-101.5342 c 0,0 -2.02998,-9.79327 13.11502,-9.75462 15.145,0.0387 12.59553,9.38728 12.59553,9.38728 l 0.62708,100.96091 c 0,0 2.34093,10.39111 -13.72309,10.32791 -16.06401,-0.0632 -13.86871,-9.38728 -13.86871,-9.38728 z"
         style="fill:#394050;stroke:none" /><path
         sodipodi:nodetypes="czcczcc"
         inkscape:connector-curvature="0"
         id="path3807"
         d="m 60.771565,205.06454 c 0,0 6.796854,130.01405 141.358425,131.07822 134.56157,1.06416 135.07583,-134.48286 135.07583,-134.48286 l 30.78471,-15.88826 c 0,0 2.96613,172.30762 -166.4888,172.50122 C 32.046758,358.4666 31.243362,178.39494 31.243362,178.39494 Z"
         style="fill:#b3b3b3;stroke:none;fill-opacity:1" /></g></g></svg>