<?xml version="1.0" encoding="UTF-8" standalone="no"?>
<svg
   xmlns:dc="http://purl.org/dc/elements/1.1/"
   xmlns:cc="http://creativecommons.org/ns#"
   xmlns:rdf="http://www.w3.org/1999/02/22-rdf-syntax-ns#"
   xmlns:svg="http://www.w3.org/2000/svg"
   xmlns="http://www.w3.org/2000/svg"
   xmlns:sodipodi="http://sodipodi.sourceforge.net/DTD/sodipodi-0.dtd"
   xmlns:inkscape="http://www.inkscape.org/namespaces/inkscape"
   viewBox="0 0 500 500"
   id="svg2"
   version="1.1"
   inkscape:version="0.91 r13725"
   width="100%"
   height="100%"
   sodipodi:docname="notification_area_icon.svg">
  <metadata
     id="metadata76">
    <rdf:RDF>
      <cc:Work
         rdf:about="">
        <dc:format>image/svg+xml</dc:format>
        <dc:type
           rdf:resource="http://purl.org/dc/dcmitype/StillImage" />
        <dc:title />
      </cc:Work>
    </rdf:RDF>
  </metadata>
  <sodipodi:namedview
     pagecolor="#ffffff"
     bordercolor="#666666"
     borderopacity="1"
     objecttolerance="10"
     gridtolerance="10"
     guidetolerance="10"
     inkscape:pageopacity="0"
     inkscape:pageshadow="2"
     inkscape:window-width="1366"
     inkscape:window-height="715"
     id="namedview74"
     showgrid="false"
     inkscape:zoom="0.5"
     inkscape:cx="-75.31102"
     inkscape:cy="207.25871"
     inkscape:window-x="0"
     inkscape:window-y="24"
     inkscape:window-maximized="1"
     inkscape:current-layer="svg2" />
  <defs
     id="defs4">
    <linearGradient
       id="linearGradient3764"
       x1="1"
       x2="47"
       gradientUnits="userSpaceOnUse"
       gradientTransform="matrix(0,-1,1,0,-1.5e-6,47.999998)">
      <stop
         stop-color="#8358b4"
         stop-opacity="1"
         id="stop7" />
      <stop
         offset="1"
         stop-color="#8d65ba"
         stop-opacity="1"
         id="stop9" />
    </linearGradient>
    <clipPath
       id="clipPath-057129763">
      <g
         transform="translate(0,-1004.3622)"
         id="g12">
        <path
           d="m -24,13 c 0,1.105 -0.672,2 -1.5,2 -0.828,0 -1.5,-0.895 -1.5,-2 0,-1.105 0.672,-2 1.5,-2 0.828,0 1.5,0.895 1.5,2 z"
           transform="matrix(15.333333,0,0,11.5,414.99999,878.8622)"
           id="path14"
           inkscape:connector-curvature="0"
           style="fill:#1890d0" />
      </g>
    </clipPath>
    <clipPath
       id="clipPath-064426159">
      <g
         transform="translate(0,-1004.3622)"
         id="g17">
        <path
           d="m -24,13 c 0,1.105 -0.672,2 -1.5,2 -0.828,0 -1.5,-0.895 -1.5,-2 0,-1.105 0.672,-2 1.5,-2 0.828,0 1.5,0.895 1.5,2 z"
           transform="matrix(15.333333,0,0,11.5,414.99999,878.8622)"
           id="path19"
           inkscape:connector-curvature="0"
           style="fill:#1890d0" />
      </g>
    </clipPath>
  </defs>
  <g
     id="g33"
     transform="translate(0,452)" />
  <g
     id="g4145">
    <path
       sodipodi:open="true"
       transform="matrix(0.86573191,0,0,1.0834306,578.70143,13.686371)"
       sodipodi:end="6.2827953"
       sodipodi:start="0"
       d="m -133.46341,218.11607 a 246.21698,196.74347 0 1 1 -2e-5,-0.0767"
       sodipodi:ry="196.74347"
       sodipodi:rx="246.21698"
       sodipodi:cy="218.11607"
       sodipodi:cx="-379.68039"
       id="path3766"
       style="fill:#ffcc00;fill-opacity:1;stroke:#394050;stroke-width:24.4549427;stroke-miterlimit:4;stroke-opacity:1;stroke-dasharray:none"
       sodipodi:type="arc" />
    <path
       sodipodi:nodetypes="ccczcccccczcczccc"
       inkscape:connector-curvature="0"
       id="path3779"
       d="m 188.02435,218.87582 99.48436,-0.2867 0.73138,132.79695 c 0,0 -0.27469,3.44382 2.28766,6.24437 2.56235,2.80054 5.11187,2.87833 5.11187,2.87833 l 22.19854,0.1014 0.20275,16.11677 -126.39994,-0.30411 -0.20275,-16.31947 25.84762,0.1014 c 0,0 3.589,-0.43709 5.64493,-3.37642 2.05592,-2.93935 1.55187,-6.15174 1.55187,-6.15174 l -0.1014,-107.34363 c 0,0 0.34921,-2.68046 -3.32396,-5.81619 -3.67319,-3.13574 -7.11645,-2.79968 -7.11645,-2.79968 l -25.74624,-0.30408 z"
       style="fill:#394050;stroke:none" />
    <path
       sodipodi:open="true"
       sodipodi:end="6.2784904"
       sodipodi:start="0"
       transform="matrix(2.8061966,0,0,2.8061966,-1463.3844,-575.86187)"
       d="m 624.27428,263.50247 a 12.879445,13.131983 0 1 1 -1.4e-4,-0.0617"
       sodipodi:ry="13.131983"
       sodipodi:rx="12.879445"
       sodipodi:cy="263.50247"
       sodipodi:cx="611.39484"
       id="path2997-3"
       style="fill:#394050;fill-opacity:1;stroke:none"
       sodipodi:type="arc" />
  </g>
</svg>
