<?xml version="1.0" encoding="UTF-8" standalone="no"?>
<!-- Created with Inkscape (http://www.inkscape.org/) -->

<svg
   xmlns:dc="http://purl.org/dc/elements/1.1/"
   xmlns:cc="http://creativecommons.org/ns#"
   xmlns:rdf="http://www.w3.org/1999/02/22-rdf-syntax-ns#"
   xmlns:svg="http://www.w3.org/2000/svg"
   xmlns="http://www.w3.org/2000/svg"
   xmlns:sodipodi="http://sodipodi.sourceforge.net/DTD/sodipodi-0.dtd"
   xmlns:inkscape="http://www.inkscape.org/namespaces/inkscape"
   id="svg2"
   version="1.1"
   inkscape:version="0.91 r13725"
   width="500"
   height="500"
   sodipodi:docname="ntfs-config.svg">
  <metadata
     id="metadata8">
    <rdf:RDF>
      <cc:Work
         rdf:about="">
        <dc:format>image/svg+xml</dc:format>
        <dc:type
           rdf:resource="http://purl.org/dc/dcmitype/StillImage" />
        <dc:title />
      </cc:Work>
    </rdf:RDF>
  </metadata>
  <defs
     id="defs6" />
  <sodipodi:namedview
     pagecolor="#ffffff"
     bordercolor="#666666"
     borderopacity="1"
     objecttolerance="10"
     gridtolerance="10"
     guidetolerance="10"
     inkscape:pageopacity="0"
     inkscape:pageshadow="2"
     inkscape:window-width="1366"
     inkscape:window-height="715"
     id="namedview4"
     showgrid="false"
     inkscape:zoom="0.7721606"
     inkscape:cx="41.621404"
     inkscape:cy="205.17851"
     inkscape:window-x="0"
     inkscape:window-y="24"
     inkscape:window-maximized="1"
     inkscape:current-layer="svg2" />
  <g
     id="g4147">
    <g
       transform="matrix(0.46702559,0,0,0.4763699,5.63116,-2.8228282)"
       id="Calque.__202">
      <g
         id="shape">
        <path
           style="fill:#000000;fill-opacity:0.09803922"
           inkscape:connector-curvature="0"
           d="M 919.15,109.8 Q 918.7,89.9 904.5,75.7 C 894.75,65.95 882.95,61.05 869.15,61.05 l -674.2,0 c -13.8,0 -25.6,4.9 -35.35,14.65 -9.45,9.45 -14.35,20.85 -14.65,34.1 l 0,843.25 c 0,13.8 4.9,25.6 14.65,35.35 9.75,9.75 21.55,14.65 35.35,14.65 l 674.2,0 c 13.8,0 25.6,-4.9 35.35,-14.65 9.75,-9.75 14.65,-21.55 14.65,-35.35 l 0,-843.25 z"
           id="path" />
      </g>
    </g>
    <path
       style="fill:#ebebeb;fill-opacity:1"
       inkscape:connector-curvature="0"
       d="m 431.82676,31.978822 c -4.64461,-4.64461 -10.26577,-6.97882 -16.83968,-6.97882 l -321.168584,0 c -6.573906,0 -12.195066,2.33421 -16.839676,6.97882 -4.5017,4.50169 -6.83591,9.93231 -6.97882,16.24421 l 0,-0.0119 0,345.165718 q 0.21818,9.45976 6.97882,16.2204 c 4.64461,4.6446 10.26577,6.97882 16.839676,6.97882 l 321.168584,0 c 6.57391,0 12.19507,-2.33422 16.83968,-6.97882 4.50169,-4.5017 6.8359,-9.9085 6.97882,-16.2204 l 0,-345.165718 0,0.0119 c -0.14292,-6.3119 -2.47713,-11.74252 -6.97882,-16.24421 z"
       id="path1" />
    <path
       style="fill:#5d6a7b;fill-opacity:0.98823529"
       inkscape:connector-curvature="0"
       d="M 76.97882,409.59724 Q 70.21818,402.8366 70,393.37684 l 0,56.54511 c 0,6.5739 2.33421,12.19507 6.97882,16.83968 4.64461,4.6446 10.26577,6.9788 16.839676,6.9788 l 321.168584,0 c 6.57391,0 12.19507,-2.3342 16.83968,-6.9788 4.6446,-4.64461 6.97882,-10.26578 6.97882,-16.83968 l 0,-56.54511 c -0.14292,6.3119 -2.47713,11.7187 -6.97882,16.2204 -4.64461,4.6446 -10.26577,6.97882 -16.83968,6.97882 l -321.168584,0 c -6.573906,0 -12.195066,-2.33422 -16.839676,-6.97882 z"
       id="path2" />
    <g
       style="fill:#394050"
       id="Calque.__204"
       transform="matrix(0.4763699,0,0,0.4763699,4.2767,-2.8228282)">
      <g
         style="fill:#394050;overflow:visible"
         overflow="visible"
         id="Symbole.__2026_1">
        <g
           style="fill:#394050"
           id="Calque.__208">
          <g
             style="fill:#394050"
             id="shape17">
            <path
               style="fill:#394050;fill-opacity:1"
               d="m 518,918 q 0,-8.3 -5.85,-14.15 C 508.25,899.95 503.55,898 498,898 l -302,0 c -5.55,0 -10.25,1.95 -14.15,5.85 -3.9,3.9 -5.85,8.6 -5.85,14.15 l 0,8.2 c 0,5.55 1.95,10.25 5.85,14.15 3.9,3.9 8.6,5.85 14.15,5.85 l 302,0 c 5.55,0 10.25,-1.95 14.15,-5.85 3.9,-3.9 5.85,-8.6 5.85,-14.15 l 0,-8.2 z"
               id="path11"
               inkscape:connector-curvature="0" />
          </g>
        </g>
      </g>
    </g>
    <path
       style="fill:#ffffff;fill-opacity:0.09803922"
       inkscape:connector-curvature="0"
       d="m 339.35528,303.00665 q 37.75232,-37.75232 37.75232,-91.15338 c 0,-35.60865 -12.57617,-65.97723 -37.75232,-91.15338 -25.17614,-25.176148 -55.54472,-37.752318 -91.15338,-37.752318 -35.60865,0 -65.97723,12.57617 -91.15337,37.752318 -25.17615,25.17615 -37.75232,55.54473 -37.75232,91.15338 0,35.60865 12.57617,65.97723 37.75232,91.15338 25.17614,25.17615 55.54472,37.75231 91.15337,37.75231 35.60866,0 65.97724,-12.57616 91.15338,-37.75231 z"
       id="path6" />
    <path
       style="fill:#ffcc00;fill-opacity:1"
       inkscape:connector-curvature="0"
       d="m 399.21116,445.20306 c 2.9535,0 5.47826,-1.04801 7.55047,-3.14404 2.09602,-2.07221 3.14404,-4.59697 3.14404,-7.55046 0,-2.95349 -1.04802,-5.47826 -3.14404,-7.57428 -2.07221,-2.07221 -4.59697,-3.12023 -7.55047,-3.12023 -2.95349,0 -5.47825,1.04802 -7.57428,3.12023 -2.07221,2.09602 -3.12022,4.62079 -3.12022,7.57428 0,2.95349 1.04801,5.47825 3.12022,7.55046 2.09603,2.09603 4.62079,3.14404 7.57428,3.14404 z m -23.34212,-10.6945 c 0,-2.95349 -1.04802,-5.47826 -3.14404,-7.57428 -2.07221,-2.07221 -4.59697,-3.12023 -7.55047,-3.12023 -2.95349,0 -5.47825,1.04802 -7.57428,3.12023 -2.07221,2.09602 -3.12022,4.62079 -3.12022,7.57428 0,2.95349 1.04801,5.47825 3.12022,7.55046 2.09603,2.09603 4.62079,3.14404 7.57428,3.14404 2.9535,0 5.47826,-1.04801 7.55047,-3.14404 2.09602,-2.07221 3.14404,-4.59697 3.14404,-7.55046 z"
       id="path7" />
  </g>
</svg>
