<?xml version="1.0" encoding="UTF-8" standalone="no"?>
<!-- Created with Inkscape (http://www.inkscape.org/) -->

<svg
   xmlns:dc="http://purl.org/dc/elements/1.1/"
   xmlns:cc="http://creativecommons.org/ns#"
   xmlns:rdf="http://www.w3.org/1999/02/22-rdf-syntax-ns#"
   xmlns:svg="http://www.w3.org/2000/svg"
   xmlns="http://www.w3.org/2000/svg"
   xmlns:sodipodi="http://sodipodi.sourceforge.net/DTD/sodipodi-0.dtd"
   xmlns:inkscape="http://www.inkscape.org/namespaces/inkscape"
   id="svg2"
   version="1.1"
   inkscape:version="0.91 r13725"
   width="512"
   height="512"
   sodipodi:docname="ooo-base.svg">
  <metadata
     id="metadata8">
    <rdf:RDF>
      <cc:Work
         rdf:about="">
        <dc:format>image/svg+xml</dc:format>
        <dc:type
           rdf:resource="http://purl.org/dc/dcmitype/StillImage" />
        <dc:title />
      </cc:Work>
    </rdf:RDF>
  </metadata>
  <defs
     id="defs6" />
  <sodipodi:namedview
     pagecolor="#ffffff"
     bordercolor="#666666"
     borderopacity="1"
     objecttolerance="10"
     gridtolerance="10"
     guidetolerance="10"
     inkscape:pageopacity="0"
     inkscape:pageshadow="2"
     inkscape:window-width="1149"
     inkscape:window-height="685"
     id="namedview4"
     showgrid="false"
     inkscape:zoom="0.4609375"
     inkscape:cx="185.10122"
     inkscape:cy="306.3148"
     inkscape:window-x="90"
     inkscape:window-y="24"
     inkscape:window-maximized="0"
     inkscape:current-layer="svg2" />
  <g
     id="g4143">
    <path
       sodipodi:nodetypes="cccczzccc"
       inkscape:connector-curvature="0"
       id="path4145"
       d="m 61.585093,70.043322 3.309551,403.764918 c 4.436262,14.54297 9.166476,16.13697 22.595754,20.83724 l 386.685072,0 c 0,0 -24.38591,-73.253 -24.27002,-127.84599 0.11594,-54.59299 40.65509,-146.77792 40.81777,-199.67607 0.16272,-52.89814 -22.06366,-115.835591 -22.06366,-115.835591 l -389.423514,0 C 67.540992,55.038025 65.837807,59.345697 61.585093,70.043322 Z"
       style="fill:#892ca0;fill-rule:evenodd;stroke:none;stroke-width:1px;stroke-linecap:butt;stroke-linejoin:miter;stroke-opacity:1;fill-opacity:1" />
    <path
       sodipodi:nodetypes="cccczzccc"
       inkscape:connector-curvature="0"
       id="path4145-3"
       d="M 61.261119,70.018629 64.57067,473.78355 c 4.436261,14.54297 9.166475,16.13697 22.595753,20.83724 l 113.095727,0 c 0,0 -24.38592,-73.25301 -24.27002,-127.846 0.11594,-54.59299 40.65509,-146.77792 40.81777,-199.67606 0.16272,-52.89815 -22.06366,-115.835594 -22.06366,-115.835594 l -115.834168,0 c -11.695055,3.750196 -13.39824,8.057868 -17.650953,18.755493 z"
       style="fill:#00bbf2;fill-opacity:1;fill-rule:evenodd;stroke:none;stroke-width:1px;stroke-linecap:butt;stroke-linejoin:miter;stroke-opacity:1" />
    <path
       style="fill:#ffffff;fill-opacity:1"
       d="m 306.97508,452.78301 c -9.50778,-1.33743 -20.13027,-3.76882 -26.74478,-6.12162 -13.83778,-4.92211 -25.18348,-12.93128 -28.90902,-20.40755 -1.85069,-3.71382 -1.92176,-4.3455 -1.92176,-17.08294 0,-7.39657 0.29656,-13.22653 0.67232,-13.22653 0.36978,0 1.53485,1.47184 2.58907,3.27075 9.73676,16.61451 44.37864,27.65506 82.17328,26.18912 34.9737,-1.35655 62.70419,-11.88132 70.28009,-26.67395 0.99393,-1.94083 2.12076,-3.52881 2.50396,-3.52881 1.26279,0 1.69306,5.13241 1.35814,16.20116 -0.29981,9.9012 -0.50748,11.26019 -2.23861,14.63113 -6.04177,11.76482 -23.43669,20.86144 -49.19587,25.727 -10.7785,2.03586 -39.26689,2.61177 -50.56682,1.02224 z m 4.08596,-36.12604 c -22.94678,-2.30528 -44.20677,-10.13441 -54.22764,-19.96966 -6.6117,-6.48925 -7.02306,-7.79833 -7.29504,-23.21596 -0.15662,-8.86666 0.0244,-13.18666 0.54788,-13.18666 0.42925,0 1.61242,1.31794 2.6293,2.92874 6.45406,10.22395 23.27954,18.78149 45.27051,23.02489 43.84557,8.46052 95.15057,-2.80707 106.80429,-23.45625 1.23639,-2.19078 2.52988,-3.98321 2.87444,-3.98321 1.13123,0 1.65535,6.65441 1.31486,16.69367 -0.30022,8.8545 -0.54292,10.29624 -2.35622,14.0025 -9.35076,19.11225 -52.78945,31.45896 -95.56238,27.16194 z m 2.22877,-36.39863 c -29.43876,-2.60071 -54.4908,-13.57479 -61.49909,-26.93979 -1.87428,-3.57434 -2.01178,-4.51543 -2.25789,-15.45778 -0.32015,-14.24125 0.15702,-15.60037 3.59638,-10.24051 6.25551,9.74832 20.96722,17.24049 42.27082,21.52697 46.74385,9.40539 99.03363,-2.13085 110.30866,-24.33648 0.67423,-1.32796 1.49966,-2.41448 1.83421,-2.41448 0.9452,0 1.62761,20.04452 0.8459,24.84755 -3.55253,21.82735 -47.81092,37.19214 -95.09899,33.01452 z m 3.6354,-36.39351 c -30.62787,-1.94735 -58.56152,-13.87428 -65.03063,-27.76637 -8.86402,-19.035 17.90178,-37.62062 60.56394,-42.05436 12.00788,-1.24789 35.28396,-0.50264 45.82627,1.46737 12.38112,2.31358 20.60785,4.90485 29.83714,9.39823 13.52329,6.58391 20.26036,14.44167 20.26036,23.63052 0,21.91111 -42.7466,38.42161 -91.45708,35.32461 z"
       id="path3026"
       inkscape:connector-curvature="0" />
    <path
       sodipodi:nodetypes="czczczczc"
       inkscape:connector-curvature="0"
       id="path4170"
       d="m 196.69993,200.17162 c 0,0 -32.67777,-22.61971 -78.00681,-20.6718 -45.32905,1.94792 -102.969003,39.39345 -102.969003,39.39345 0,0 35.972758,-59.16329 84.247352,-67.86594 48.274591,-8.70264 81.127081,-0.78007 81.127081,-0.78007 0,0 13.95096,-21.51042 45.24395,-35.8831 31.29302,-14.372687 109.20953,-12.48111 109.20953,-12.48111 0,0 -86.64999,26.81722 -108.42946,46.80409 -21.77947,19.98688 -30.42264,51.48448 -30.42264,51.48448 z"
       style="fill:#ebebeb;fill-rule:evenodd;stroke:none;stroke-width:1px;stroke-linecap:butt;stroke-linejoin:miter;stroke-opacity:1;fill-opacity:1" />
    <path
       sodipodi:nodetypes="czczczczc"
       inkscape:connector-curvature="0"
       id="path4170-6"
       d="m 201.05675,79.240226 c 0,0 -21.7737,-15.07189 -51.97712,-13.773958 -30.2035,1.297931 -68.609885,26.24848 -68.609885,26.24848 0,0 23.969225,-39.421394 56.135325,-45.220105 32.16614,-5.798753 54.05626,-0.519767 54.05626,-0.519767 0,0 9.29572,-14.332778 30.14675,-23.90951 20.85104,-9.576691 72.76802,-8.316348 72.76802,-8.316348 0,0 -57.73624,17.868753 -72.24825,31.186284 -14.51197,13.317571 -20.2711,34.304924 -20.2711,34.304924 z"
       style="fill:#ebebeb;fill-rule:evenodd;stroke:none;stroke-width:1px;stroke-linecap:butt;stroke-linejoin:miter;stroke-opacity:1;fill-opacity:1" />
  </g>
</svg>
