<?xml version="1.0" encoding="UTF-8" standalone="no"?>
<!-- Created with Inkscape (http://www.inkscape.org/) -->

<svg
   xmlns:dc="http://purl.org/dc/elements/1.1/"
   xmlns:cc="http://creativecommons.org/ns#"
   xmlns:rdf="http://www.w3.org/1999/02/22-rdf-syntax-ns#"
   xmlns:svg="http://www.w3.org/2000/svg"
   xmlns="http://www.w3.org/2000/svg"
   xmlns:sodipodi="http://sodipodi.sourceforge.net/DTD/sodipodi-0.dtd"
   xmlns:inkscape="http://www.inkscape.org/namespaces/inkscape"
   id="svg2"
   version="1.1"
   inkscape:version="0.92.1 r15371"
   width="512"
   height="512"
   viewBox="0 0 511.99999 511.99999"
   sodipodi:docname="gnome-books.svg">
  <metadata
     id="metadata8">
    <rdf:RDF>
      <cc:Work
         rdf:about="">
        <dc:format>image/svg+xml</dc:format>
        <dc:type
           rdf:resource="http://purl.org/dc/dcmitype/StillImage" />
        <dc:title />
      </cc:Work>
    </rdf:RDF>
  </metadata>
  <defs
     id="defs6" />
  <sodipodi:namedview
     pagecolor="#ffffff"
     bordercolor="#666666"
     borderopacity="1"
     objecttolerance="10"
     gridtolerance="10"
     guidetolerance="10"
     inkscape:pageopacity="0"
     inkscape:pageshadow="2"
     inkscape:window-width="1366"
     inkscape:window-height="714"
     id="namedview4"
     inkscape:document-units="px"
     showgrid="false"
     inkscape:zoom="0.5814296"
     inkscape:cx="160.60545"
     inkscape:cy="455.42004"
     inkscape:window-x="0"
     inkscape:window-y="0"
     inkscape:window-maximized="1"
     inkscape:current-layer="svg2" />
  <rect
     style="fill:#2b0000;fill-opacity:1;stroke:none"
     id="rect2998-3-6"
     width="285.59167"
     height="347.11783"
     x="130.01299"
     y="127.02596"
     rx="0"
     ry="0" />
  <rect
     style="fill:#2b0000;fill-opacity:1;stroke:none"
     id="rect2998-3"
     width="285.59167"
     height="347.11783"
     x="128.75406"
     y="51.625179"
     rx="0"
     ry="0" />
  <path
     style="fill:#2b0000;stroke:none"
     d="m 130.45358,37.115801 c 0,0 -1.72552,-0.407775 -4.20752,0.307105 -7.07894,2.038932 -21.53985,7.886978 -29.233318,16.938023 -7.693467,9.051044 -12.012748,22.077456 -12.012748,22.077456 l 0,352.559615 c 0,0 2.381081,22.98434 13.63608,31.49283 11.254996,8.5085 20.677626,10.95107 28.648456,13.17432 2.86787,0.79991 6.09107,0.46176 6.09107,0.46176 l 0.32467,-87.95479 z"
     id="path3804"
     inkscape:connector-curvature="0"
     sodipodi:nodetypes="cszcczsccc" />
  <rect
     style="fill:#f03916;fill-opacity:1;stroke:none"
     id="rect2998"
     width="285.59167"
     height="347.11783"
     x="128.63553"
     y="37.032444"
     rx="0"
     ry="0" />
  <path
     style="fill:#ffffff;stroke:none"
     d="m 415.47184,460.67726 c 0,0 -24.8508,-5.65989 -25.97348,-28.57082 -1.12268,-22.91094 25.81117,-31.81751 25.81117,-31.81751 l -282.94861,0.32467 c 0,0 -28.90886,3.00969 -29.22016,29.22016 -0.3113,26.21048 26.94749,29.54484 26.94749,29.54484 z"
     id="path3806"
     inkscape:connector-curvature="0"
     sodipodi:nodetypes="czcczcc" />
  <path
     style="fill:#f03916;stroke:none"
     d="m 129.32424,486.99999 0,-61.06701 61.06704,0 -0.22957,61.06701 -30.30395,-15.61112 z"
     id="path3855"
     inkscape:connector-curvature="0" />
  <path
     inkscape:connector-curvature="0"
     id="path4909-2"
     d="m 330.81812,99.855241 c -7.95416,0.354679 -17.06698,4.050719 -24.41891,10.070869 -9.00807,7.39554 -16.32536,26.14119 -14.36454,36.62214 1.01191,5.38801 5.08087,11.96125 8.97756,14.01445 7.25681,3.79636 20.48294,-2.55005 32.67891,-15.45429 13.17462,-13.98269 19.22482,-29.35625 14.72328,-38.06079 -2.76672,-5.36049 -9.64205,-7.697533 -17.5963,-7.192379 z m -64.99795,8.258779 c -11.06611,0 -16.92098,7.80929 -16.8784,22.65063 0.0155,10.15071 3.59933,19.2856 8.25939,21.5349 3.46514,1.67723 3.5518,1.50412 7.90059,0 7.20372,-2.54412 13.97136,-19.3153 12.56859,-30.53988 -1.14697,-9.17247 -5.09964,-13.64895 -11.85017,-13.64565 z m -43.81158,15.08471 c -2.07057,0.19848 -4.14701,1.63929 -6.10432,3.5798 -3.94592,3.98519 -3.9984,6.12123 -3.95025,13.64261 0.0361,8.89553 2.22775,13.77489 8.2595,20.14156 4.51148,4.72063 7.7648,5.02762 11.85042,0.47324 4.42575,-4.67836 5.79965,-12.03585 4.30899,-20.10341 -2.27348,-12.30284 -8.15211,-18.84731 -14.36434,-17.94939 z m -30.8829,26.92086 c -2.14826,0.23198 -4.08443,1.59273 -6.10459,3.62108 -5.30151,5.27316 -1.59361,19.88974 6.82244,27.24646 10.04612,8.84099 18.15802,0.49747 14.72391,-14.7138 -2.4436,-10.99776 -8.99668,-17.19916 -15.44176,-16.15374 z m 92.29064,19.40489 c -7.11391,-0.0887 -15.08616,0.30982 -23.3422,2.13336 -21.26771,4.33719 -38.2853,12.36918 -49.19759,23.34616 -6.2847,6.35137 -9.88011,12.18881 -12.92795,21.16461 -7.37636,21.83509 6.28486,52.79785 32.3196,73.99818 9.69995,7.87667 15.61879,11.40321 25.49674,14.7122 5.12196,1.69548 9.18371,2.09882 18.67359,1.79807 10.87888,-0.24074 13.09142,-0.56985 20.10981,-4.30322 10.28552,-5.10035 21.9436,-16.78514 26.93317,-26.92343 3.04382,-6.18918 3.53165,-8.84893 3.23182,-14.02152 -0.51345,-8.85197 -3.93756,-11.21396 -15.08219,-11.14519 -15.91046,0.0938 -22.58933,3.86879 -25.8558,15.08904 -2.4671,8.48988 -5.19459,11.5075 -10.77299,11.5075 -8.84161,0 -17.95588,-7.02137 -17.95588,-14.38779 0,-5.06741 8.22005,-12.67787 28.72887,-26.54396 28.89054,-19.5645 38.82345,-31.42646 37.34717,-44.51103 -1.52546,-13.57472 -16.3649,-21.53403 -37.70617,-21.91298 z"
     style="fill:#ffffff;fill-opacity:1;stroke:none;stroke-width:5.15515852" />
</svg>
