<?xml version="1.0" encoding="UTF-8" standalone="no"?>
<svg
   xmlns:dc="http://purl.org/dc/elements/1.1/"
   xmlns:cc="http://creativecommons.org/ns#"
   xmlns:rdf="http://www.w3.org/1999/02/22-rdf-syntax-ns#"
   xmlns:svg="http://www.w3.org/2000/svg"
   xmlns="http://www.w3.org/2000/svg"
   xmlns:xlink="http://www.w3.org/1999/xlink"
   xmlns:sodipodi="http://sodipodi.sourceforge.net/DTD/sodipodi-0.dtd"
   xmlns:inkscape="http://www.inkscape.org/namespaces/inkscape"
   version="1.1"
   id="Layer_1"
   x="0px"
   y="0px"
   width="500"
   height="500"
   viewBox="0 0 500 500"
   enable-background="new 0 0 100 100"
   xml:space="preserve"
   inkscape:version="0.91 r13725"
   sodipodi:docname="pithos.svg"><metadata
     id="metadata8"><rdf:RDF><cc:Work
         rdf:about=""><dc:format>image/svg+xml</dc:format><dc:type
           rdf:resource="http://purl.org/dc/dcmitype/StillImage" /><dc:title /></cc:Work></rdf:RDF></metadata><defs
     id="defs6"><linearGradient
       gradientTransform="translate(305.95312,302)"
       x1="48"
       y1="41"
       x2="48"
       y2="64.021729"
       id="linearGradient4148"
       xlink:href="#linearGradient4142"
       gradientUnits="userSpaceOnUse" /><linearGradient
       id="linearGradient4142"><stop
         id="stop4144"
         style="stop-color:#f4a615;stop-opacity:1"
         offset="0" /><stop
         id="stop4146"
         style="stop-color:#f4a615;stop-opacity:0"
         offset="1" /></linearGradient><linearGradient
       gradientTransform="translate(305.95312,302)"
       x1="48"
       y1="43"
       x2="58"
       y2="43"
       id="linearGradient4168"
       xlink:href="#linearGradient4052"
       gradientUnits="userSpaceOnUse"
       spreadMethod="reflect" /><linearGradient
       id="linearGradient4052"><stop
         id="stop4054"
         style="stop-color:#f4a615;stop-opacity:1"
         offset="0" /><stop
         id="stop4056"
         style="stop-color:#f47d15;stop-opacity:1"
         offset="1" /></linearGradient><linearGradient
       gradientTransform="translate(305.95312,302)"
       x1="48"
       y1="31.772171"
       x2="48"
       y2="67"
       id="linearGradient4176"
       xlink:href="#linearGradient4052"
       gradientUnits="userSpaceOnUse" /></defs><sodipodi:namedview
     pagecolor="#ffffff"
     bordercolor="#666666"
     borderopacity="1"
     objecttolerance="10"
     gridtolerance="10"
     guidetolerance="10"
     inkscape:pageopacity="0"
     inkscape:pageshadow="2"
     inkscape:window-width="1366"
     inkscape:window-height="708"
     id="namedview4"
     showgrid="false"
     inkscape:zoom="0.1767767"
     inkscape:cx="-286.99079"
     inkscape:cy="272.60358"
     inkscape:window-x="0"
     inkscape:window-y="0"
     inkscape:window-maximized="1"
     inkscape:current-layer="Layer_1" /><g
     id="g3344"
     transform="translate(-148.83006,342.69516)" /><g
     id="g3346"
     transform="translate(-148.83006,342.69516)" /><g
     id="g3348"
     transform="translate(-148.83006,342.69516)" /><g
     id="g3350"
     transform="translate(-148.83006,342.69516)" /><g
     id="g3352"
     transform="translate(-148.83006,342.69516)" /><g
     id="g3354"
     transform="translate(-148.83006,342.69516)" /><g
     id="g3356"
     transform="translate(-148.83006,342.69516)" /><g
     id="g3358"
     transform="translate(-148.83006,342.69516)" /><g
     id="g3360"
     transform="translate(-148.83006,342.69516)" /><g
     id="g3362"
     transform="translate(-148.83006,342.69516)" /><g
     id="g3364"
     transform="translate(-148.83006,342.69516)" /><g
     id="g3366"
     transform="translate(-148.83006,342.69516)" /><g
     id="g3368"
     transform="translate(-148.83006,342.69516)" /><g
     id="g3370"
     transform="translate(-148.83006,342.69516)" /><g
     id="g3372"
     transform="translate(-148.83006,342.69516)" /><g
     id="g4198"
     transform="matrix(0.94736842,0,0,0.94736842,12.015356,10.463393)"><path
       d="m 161.33521,153.96691 0,310.80817 14.80038,0 0,-310.80817 -14.80038,0 z m 59.20155,0 0,310.80817 14.80039,0 0,-310.80817 -14.80039,0 z m 59.20157,0 0,310.80817 14.80038,0 0,-310.80817 -14.80038,0 z m 59.20155,0 0,310.80817 14.80039,0 0,-310.80817 -14.80039,0 z"
       inkscape:connector-curvature="0"
       id="rect4135"
       style="color:#000000;display:inline;overflow:visible;visibility:visible;fill:#ffcc00;fill-opacity:1;fill-rule:nonzero;stroke:none;stroke-width:1;marker:none;enable-background:accumulate" /><rect
       width="296.00778"
       height="29.600779"
       x="102.13372"
       y="168.7673"
       id="rect4131"
       style="color:#000000;display:inline;overflow:visible;visibility:visible;fill:#ffcc00;fill-opacity:1;fill-rule:nonzero;stroke:none;stroke-width:1;marker:none;enable-background:accumulate" /><path
       d="m 13.331311,20.763392 0,103.602738 44.401162,0 c 0,-80.694696 33.30696,-62.135894 118.403117,-59.201568 0,0 -148.003889,103.602728 -148.003889,222.005848 0,156.77741 143.126139,204.08316 213.218119,206.74294 3.03955,0.26492 6.32345,0.39812 10.17526,0.46177 3.22885,-0.0741 6.162,-0.23385 8.78773,-0.46177 70.09213,-2.65978 213.21813,-49.96553 213.21813,-206.74294 0,-118.40312 -148.0039,-222.005848 -148.0039,-222.005848 85.09631,-2.934326 118.40311,-21.493128 118.40311,59.201568 l 44.40116,0 0,-103.602738 -192.40506,0 0,44.40117 c 143.78327,121.775528 147.8004,398.353218 -44.40117,399.610518 -0.3922,-0.0295 -1.0301,0.004 -1.38679,0 C 57.936873,463.51852 61.953983,186.94009 205.73711,65.164562 l 0,-44.40117 -192.405058,0 z"
       inkscape:connector-curvature="0"
       id="path4126"
       style="fill:#ffcc00;fill-opacity:1;stroke:none" /><rect
       width="14.800389"
       height="14.800389"
       x="161.33528"
       y="153.9669"
       id="rect4187"
       style="color:#000000;display:inline;overflow:visible;visibility:visible;fill:#ffcc00;fill-opacity:1;fill-rule:nonzero;stroke:none;stroke-width:1;marker:none;enable-background:accumulate" /><rect
       width="14.800389"
       height="14.800389"
       x="220.53683"
       y="153.9669"
       id="rect4189"
       style="color:#000000;display:inline;overflow:visible;visibility:visible;fill:#ffcc00;fill-opacity:1;fill-rule:nonzero;stroke:none;stroke-width:1;marker:none;enable-background:accumulate" /><rect
       width="14.800389"
       height="14.800389"
       x="279.73837"
       y="153.9669"
       id="rect4191"
       style="color:#000000;display:inline;overflow:visible;visibility:visible;fill:#ffcc00;fill-opacity:1;fill-rule:nonzero;stroke:none;stroke-width:1;marker:none;enable-background:accumulate" /><rect
       width="14.800389"
       height="14.800389"
       x="338.93997"
       y="153.9669"
       id="rect4193"
       style="color:#000000;display:inline;overflow:visible;visibility:visible;fill:#ffcc00;fill-opacity:1;fill-rule:nonzero;stroke:none;stroke-width:1;marker:none;enable-background:accumulate" /></g></svg>