<?xml version="1.0" encoding="UTF-8" standalone="no"?>
<!-- Generator: Adobe Illustrator 19.0.0, SVG Export Plug-In . SVG Version: 6.00 Build 0)  -->

<svg
   xmlns:dc="http://purl.org/dc/elements/1.1/"
   xmlns:cc="http://creativecommons.org/ns#"
   xmlns:rdf="http://www.w3.org/1999/02/22-rdf-syntax-ns#"
   xmlns:svg="http://www.w3.org/2000/svg"
   xmlns="http://www.w3.org/2000/svg"
   xmlns:sodipodi="http://sodipodi.sourceforge.net/DTD/sodipodi-0.dtd"
   xmlns:inkscape="http://www.inkscape.org/namespaces/inkscape"
   version="1.1"
   id="Layer_1"
   x="0px"
   y="0px"
   viewBox="0 0 500 500"
   xml:space="preserve"
   inkscape:version="0.91 r13725"
   width="100%"
   height="100%"
   sodipodi:docname="polly.svg"><metadata
     id="metadata57"><rdf:RDF><cc:Work
         rdf:about=""><dc:format>image/svg+xml</dc:format><dc:type
           rdf:resource="http://purl.org/dc/dcmitype/StillImage" /></cc:Work></rdf:RDF></metadata><defs
     id="defs55" /><sodipodi:namedview
     pagecolor="#ffffff"
     bordercolor="#666666"
     borderopacity="1"
     objecttolerance="10"
     gridtolerance="10"
     guidetolerance="10"
     inkscape:pageopacity="0"
     inkscape:pageshadow="2"
     inkscape:window-width="1366"
     inkscape:window-height="715"
     id="namedview53"
     showgrid="false"
     inkscape:zoom="0.52559509"
     inkscape:cx="420.4541"
     inkscape:cy="218.85754"
     inkscape:window-x="0"
     inkscape:window-y="24"
     inkscape:window-maximized="1"
     inkscape:current-layer="Layer_1" /><g
     id="g23"
     transform="translate(0,39.767)" /><g
     id="g25"
     transform="translate(0,39.767)" /><g
     id="g27"
     transform="translate(0,39.767)" /><g
     id="g29"
     transform="translate(0,39.767)" /><g
     id="g31"
     transform="translate(0,39.767)" /><g
     id="g33"
     transform="translate(0,39.767)" /><g
     id="g35"
     transform="translate(0,39.767)" /><g
     id="g37"
     transform="translate(0,39.767)" /><g
     id="g39"
     transform="translate(0,39.767)" /><g
     id="g41"
     transform="translate(0,39.767)" /><g
     id="g43"
     transform="translate(0,39.767)" /><g
     id="g45"
     transform="translate(0,39.767)" /><g
     id="g47"
     transform="translate(0,39.767)" /><g
     id="g49"
     transform="translate(0,39.767)" /><g
     id="g51"
     transform="translate(0,39.767)" /><g
     id="g4238"><path
       sodipodi:nodetypes="czczcc"
       inkscape:connector-curvature="0"
       id="path4185-3-6"
       d="m 99.880395,243.88773 c 0,0 -12.82944,-62.54431 -5.36836,-89.94261 7.460995,-27.39833 44.751955,-66.642015 44.751955,-66.642015 0,0 -2.46803,44.279855 2.16531,60.420345 4.63316,16.14041 20.13573,34.90333 20.13573,34.90333 z"
       style="fill:#31b12b;fill-opacity:1;fill-rule:evenodd;stroke:none;stroke-width:1px;stroke-linecap:butt;stroke-linejoin:miter;stroke-opacity:1" /><path
       sodipodi:nodetypes="czczcc"
       inkscape:connector-curvature="0"
       id="path4185-3"
       d="m 85.250335,279.42795 c 0,0 -33.653877,-54.2568 -36.12123,-82.54544 -2.467354,-28.28867 18.96344,-78.0018 18.96344,-78.0018 0,0 12.98691,42.40443 22.91279,55.94919 9.925785,13.54468 30.957505,25.79385 30.957505,25.79385 z"
       style="fill:#36c330;fill-opacity:1;fill-rule:evenodd;stroke:none;stroke-width:1px;stroke-linecap:butt;stroke-linejoin:miter;stroke-opacity:1" /><path
       sodipodi:nodetypes="czczcc"
       inkscape:connector-curvature="0"
       id="path4185"
       d="m 79.854135,321.98987 c 0,0 -46.502048,-43.74855 -56.177838,-70.44527 -9.67579,-26.69672 -1.783456,-80.25401 -1.783456,-80.25401 0,0 23.478432,37.62392 36.560212,48.15241 13.081772,10.52848 36.560132,16.94249 36.560132,16.94249 z"
       style="fill:#45d03f;fill-opacity:1;fill-rule:evenodd;stroke:none;stroke-width:1px;stroke-linecap:butt;stroke-linejoin:miter;stroke-opacity:1" /><path
       sodipodi:nodetypes="zzzzzzzzzzzz"
       inkscape:connector-curvature="0"
       id="path3383"
       d="m 238.70962,440.10724 c 30.13474,2.50417 63.09752,1.1711 92.68872,-9.45801 29.59122,-10.62913 61.31929,-31.36965 79.44744,-52.96497 18.12814,-21.59531 24.14418,-34.4408 29.63515,-67.46732 5.49098,-33.02651 -4.49069,-92.66478 -10.71911,-126.73762 -6.2284,-34.07283 7.94821,-49.20247 -22.06872,-77.55585 -30.01692,-28.353368 -56.15308,-22.181718 -97.10247,-19.546548 -40.94937,2.635187 -101.37674,21.608368 -139.34831,47.290128 -37.97157,25.68175 -67.35671,61.57493 -83.230605,97.10246 -15.87391,35.52754 -25.400842,69.98738 -13.87178,104.66883 11.52905,34.68144 50.444805,64.25487 79.447425,81.33909 29.00262,17.08423 54.98756,20.82564 85.12226,23.32981 z"
       style="fill:#45d03f;fill-opacity:1;fill-rule:evenodd;stroke:none;stroke-width:1px;stroke-linecap:butt;stroke-linejoin:miter;stroke-opacity:1" /><path
       sodipodi:nodetypes="czzzzcc"
       inkscape:connector-curvature="0"
       id="path4219"
       d="m 349.17802,232.50048 c 0,0 -26.88938,30.59036 -31.52682,45.39852 -4.63745,14.80817 -7.58751,27.70156 0,37.83216 7.58749,10.1306 19.14461,11.79654 36.57109,10.7191 17.42645,-1.07742 45.75929,-17.70181 61.16188,-26.48247 15.4026,-8.78064 32.15733,-23.3298 32.15733,-23.3298 z"
       style="fill:#d7ac00;fill-opacity:1;fill-rule:evenodd;stroke:none;stroke-width:1px;stroke-linecap:butt;stroke-linejoin:miter;stroke-opacity:1" /><path
       sodipodi:nodetypes="zzzzczzz"
       inkscape:connector-curvature="0"
       id="path4217"
       d="m 349.80852,206.01801 c 8.18051,-19.40438 33.73283,-37.88295 58.00929,-39.09319 24.27647,-1.21024 52.65113,13.99333 66.83673,35.94051 14.18562,21.94716 8.45026,58.75827 5.67478,80.70852 -2.77548,21.95023 -16.39388,49.18178 -16.39388,49.18178 0,0 -10.49797,-41.47363 -29.00464,-55.48713 -18.50668,-14.01352 -59.56629,0.13055 -75.03368,-15.76337 -15.46739,-15.89423 -18.26912,-36.08276 -10.0886,-55.48712 z"
       style="fill:#ffcc00;fill-opacity:1;fill-rule:evenodd;stroke:none;stroke-width:1px;stroke-linecap:butt;stroke-linejoin:miter;stroke-opacity:1" /><circle
       r="33.744907"
       cy="144.52953"
       cx="335.00214"
       id="path4221"
       style="fill:#ffffff;fill-opacity:1;stroke:none;stroke-width:10;stroke-linecap:round;stroke-miterlimit:4;stroke-dasharray:none;stroke-opacity:1" /><circle
       r="15.018963"
       cy="149.58888"
       cx="337.86224"
       id="path4221-7"
       style="fill:#394050;fill-opacity:1;stroke:none;stroke-width:10;stroke-linecap:round;stroke-miterlimit:4;stroke-dasharray:none;stroke-opacity:1" /></g></svg>