<?xml version="1.0" encoding="UTF-8" standalone="no"?>
<!-- Created with Inkscape (http://www.inkscape.org/) -->

<svg
   xmlns:dc="http://purl.org/dc/elements/1.1/"
   xmlns:cc="http://creativecommons.org/ns#"
   xmlns:rdf="http://www.w3.org/1999/02/22-rdf-syntax-ns#"
   xmlns:svg="http://www.w3.org/2000/svg"
   xmlns="http://www.w3.org/2000/svg"
   xmlns:sodipodi="http://sodipodi.sourceforge.net/DTD/sodipodi-0.dtd"
   xmlns:inkscape="http://www.inkscape.org/namespaces/inkscape"
   id="svg2"
   version="1.1"
   inkscape:version="0.48.5 r10040"
   width="1024"
   height="1024"
   sodipodi:docname="popcorntime.svg">
  <metadata
     id="metadata8">
    <rdf:RDF>
      <cc:Work
         rdf:about="">
        <dc:format>image/svg+xml</dc:format>
        <dc:type
           rdf:resource="http://purl.org/dc/dcmitype/StillImage" />
        <dc:title />
      </cc:Work>
    </rdf:RDF>
  </metadata>
  <defs
     id="defs6" />
  <sodipodi:namedview
     pagecolor="#ffffff"
     bordercolor="#666666"
     borderopacity="1"
     objecttolerance="10"
     gridtolerance="10"
     guidetolerance="10"
     inkscape:pageopacity="0"
     inkscape:pageshadow="2"
     inkscape:window-width="1243"
     inkscape:window-height="672"
     id="namedview4"
     showgrid="false"
     inkscape:zoom="0.32593203"
     inkscape:cx="191.31994"
     inkscape:cy="400.59475"
     inkscape:window-x="15"
     inkscape:window-y="39"
     inkscape:window-maximized="0"
     inkscape:current-layer="svg2" />
  <path
     sodipodi:type="arc"
     style="fill:#ffffff;fill-opacity:1;fill-rule:evenodd;stroke:none"
     id="path3773"
     sodipodi:cx="494.64407"
     sodipodi:cy="475.11865"
     sodipodi:rx="438.23727"
     sodipodi:ry="407.86441"
     d="m 932.88135,475.11865 a 438.23727,407.86441 0 1 1 -876.474551,0 438.23727,407.86441 0 1 1 876.474551,0 z"
     transform="matrix(1.0222773,0,0,1.1143617,-1.0870956,-3.6913095)" />
  <path
     inkscape:connector-curvature="0"
     id="path2988"
     d="M 476.13039,1008.4814 C 275.70691,993.86535 105.4046,862.26567 42.431362,673.34408 24.691615,620.12447 17.323372,574.28547 17.308061,517.04932 17.297501,484.68725 18.240336,470.74576 22.247888,443.85494 49.524748,260.82472 177.24837,108.37273 352.84308,49.253594 c 100.75937,-33.923613 212.95595,-33.923613 313.71531,0 142.59699,48.009481 255.60502,158.565826 306.99404,300.333856 13.35077,36.83108 22.67775,78.80693 27.18257,122.3345 2.0547,19.8544 1.758,73.32813 -0.5224,94.10707 -12.58694,114.69609 -59.48793,214.68335 -138.79734,295.89922 -79.50692,81.41815 -185.37842,132.48492 -300.53349,144.96136 -18.63832,2.0194 -66.54928,2.9192 -84.75138,1.5918 z m 79.12235,-199.76029 c 36.45276,-4.78282 68.82914,-15.09982 92.45411,-29.46123 8.34676,-5.07392 23.58921,-17.07792 24.97633,-19.66978 0.59076,-1.10385 8.02801,-58.10832 16.52724,-126.67657 15.9854,-128.96398 16.4342,-134.03424 11.93903,-134.88286 -0.94513,-0.17844 -2.32662,0.81206 -3.07001,2.20107 -5.61208,10.48629 -37.90735,18.38039 -96.26026,23.52937 -26.48555,2.33706 -113.91952,3.29944 -147.1518,1.6197 -69.84959,-3.53058 -114.85038,-10.80823 -131.29643,-21.23362 -2.8985,-1.8374 -5.57727,-3.03349 -5.9528,-2.65796 -0.37552,0.37552 6.36024,58.26555 14.96837,128.6445 l 15.65116,127.96173 4.05999,4.21614 c 5.20816,5.40849 21.24906,16.17893 32.61867,21.90135 26.21663,13.19507 63.80449,22.8349 101.87038,26.12581 15.66722,1.35447 52.65495,0.48311 68.66602,-1.61765 z m -55.78749,-5.69569 c -4.46522,-0.27205 -7.67362,-0.99015 -7.95439,-1.78028 -0.50553,-1.42272 -9.33988,-247.30559 -9.33171,-259.72554 l 0.004,-7.44908 26.69118,0.29474 26.69118,0.29474 0.95934,132.99187 c 0.54535,75.60018 0.54535,133.39661 0,133.92975 -1.13699,1.11154 -26.37614,2.09481 -37.06051,1.4438 z m -61.85821,-8.19708 c -9.83336,-2.27597 -39.67421,-12.22284 -40.27143,-13.42371 -0.0534,-0.1073 -5.14555,-57.3357 -11.3159,-127.17412 -8.40365,-95.11526 -10.88906,-127.10553 -9.90459,-127.48331 0.72284,-0.27737 7.67239,0.26449 15.44341,1.20415 7.77103,0.93966 18.97501,2.04102 24.89772,2.44746 5.92269,0.40645 11.08032,1.24344 11.46138,1.86001 0.91117,1.47427 18.01606,261.70257 17.2801,262.89341 -0.66795,1.08074 -1.71496,1.03607 -7.59069,-0.32389 z m 146.60691,-0.68603 c -0.56589,-1.01096 6.77879,-261.34282 7.39046,-261.95449 0.2399,-0.2399 8.5321,-1.14011 18.42712,-2.00045 9.89502,-0.86035 21.85183,-2.12359 26.5707,-2.80719 4.71884,-0.68362 8.88563,-0.93703 9.25949,-0.56316 0.92857,0.92856 -13.89373,249.41013 -15.04883,252.27919 -1.06903,2.65526 -16.41312,8.89993 -32.37869,13.17733 -10.59127,2.83754 -13.46647,3.2154 -14.22025,1.86877 z M 550.39189,521.98552 c 87.879,-3.01826 141.15579,-12.41699 145.83684,-25.72751 0.96355,-2.73981 0.71118,-3.42885 -2.16042,-5.89891 l -3.2514,-2.79674 2.72347,-1.76326 c 1.49791,-0.9698 5.12557,-3.98378 8.06149,-6.69774 19.42065,-17.95246 14.98185,-50.39847 -8.99931,-65.78167 -3.22446,-2.0684 -5.61101,-4.34041 -5.30345,-5.0489 10.74794,-24.75989 12.92797,-33.86156 13.62201,-56.87189 0.60077,-19.9178 -0.67609,-30.00339 -5.77665,-45.62848 -14.27775,-43.73872 -52.99276,-81.06363 -99.17921,-95.61808 -17.46922,-5.50498 -26.12975,-6.79417 -45.53984,-6.77905 -16.21771,0.0126 -19.35693,0.33247 -29.3375,2.98905 -42.64774,11.35177 -72.2185,36.80362 -97.21548,83.67435 -3.1478,5.90232 -5.88236,10.73151 -6.07675,10.73151 -0.1944,0 -4.98273,-4.58153 -10.64075,-10.18118 -15.82441,-15.66118 -29.62882,-22.58469 -47.14496,-23.64522 -11.99486,-0.72626 -19.79775,0.92568 -31.10531,6.5853 -16.59999,8.30856 -30.06743,25.66576 -34.47961,44.43829 -4.7994,20.42 1.34514,43.55053 16.41716,61.80069 l 4.21459,5.1033 -3.11393,2.15943 c -7.74046,5.36775 -18.77909,17.92073 -22.39234,25.46424 -7.28006,15.19891 -5.41405,33.64851 4.8076,47.53366 5.48568,7.45177 13.52463,13.28094 19.67108,14.26379 2.31231,0.36975 4.38163,0.97869 4.59848,1.35319 0.21687,0.37453 -0.0608,4.01199 -0.61704,8.08328 -1.29327,9.466 0.27801,12.80351 8.17758,17.36975 26.89863,15.5484 121.92292,24.40171 224.20365,20.8888 z m -46.98033,-46.63777 c -11.02917,-3.61234 -19.99476,-11.26791 -25.28076,-21.5868 -2.90066,-5.66242 -3.10108,-6.92138 -3.10108,-19.47972 0,-9.54763 0.41335,-13.84 1.43087,-14.85901 1.12068,-1.12233 9.78902,-1.43297 39.98791,-1.43297 37.27497,0 38.61175,0.0732 40.20195,2.20134 1.3056,1.74726 1.56002,4.92574 1.23338,15.40935 -0.34239,10.99007 -0.83576,14.07972 -2.93809,18.39914 -4.0594,8.34047 -10.44856,14.73627 -18.61389,18.6332 -6.34912,3.03015 -8.7485,3.5513 -17.80988,3.86827 -6.86542,0.24015 -12.0697,-0.15689 -15.11041,-1.1528 z M 414.43181,413.7256 c -12.70161,-5.91455 -18.6257,-19.36731 -14.54573,-33.03133 1.84495,-6.17893 11.01663,-15.49664 16.80827,-17.07591 10.57625,-2.88394 19.59797,-0.84421 27.03519,6.11244 7.91596,7.40446 10.60988,17.53561 7.4591,28.05192 -2.99284,9.98929 -14.83624,18.53404 -25.68895,18.53404 -3.46973,0 -7.55956,-0.95749 -11.06788,-2.59116 z m 25.49862,-28.58218 c 2.05484,-1.76747 2.99649,-3.6426 2.99649,-5.96688 0,-10.07277 -11.74667,-13.8597 -16.93508,-5.4596 -5.7123,9.24829 5.64597,18.5595 13.93859,11.42648 z m 163.32703,29.04404 c -14.78895,-5.0788 -21.80555,-22.36497 -15.00554,-36.96787 6.33478,-13.60385 22.45411,-18.96719 36.43996,-12.12457 21.65826,10.59641 18.75217,42.68733 -4.49938,49.68502 -6.7338,2.02658 -9.60036,1.92627 -16.93504,-0.59258 z m 22.80931,-27.5372 c 6.20468,-3.78316 6.20468,-11.66515 0,-15.49754 -4.29297,-2.6516 -8.06957,-2.05795 -11.52747,1.81199 -4.20499,4.70608 -2.42109,12.4084 3.41976,14.76547 3.46427,1.398 4.20569,1.29924 8.10771,-1.07992 z"
     style="fill:#f03916;fill-opacity:1" />
</svg>
