<?xml version="1.0" encoding="UTF-8" standalone="no"?>
<svg
   xmlns:dc="http://purl.org/dc/elements/1.1/"
   xmlns:cc="http://creativecommons.org/ns#"
   xmlns:rdf="http://www.w3.org/1999/02/22-rdf-syntax-ns#"
   xmlns:svg="http://www.w3.org/2000/svg"
   xmlns="http://www.w3.org/2000/svg"
   xmlns:sodipodi="http://sodipodi.sourceforge.net/DTD/sodipodi-0.dtd"
   xmlns:inkscape="http://www.inkscape.org/namespaces/inkscape"
   viewBox="0 0 512 512"
   id="svg2"
   version="1.1"
   inkscape:version="0.92.1 r15371"
   sodipodi:docname="pycharm.svg"
   width="512"
   height="512">
  <metadata
     id="metadata73">
    <rdf:RDF>
      <cc:Work
         rdf:about="">
        <dc:format>image/svg+xml</dc:format>
        <dc:type
           rdf:resource="http://purl.org/dc/dcmitype/StillImage" />
        <dc:title />
      </cc:Work>
    </rdf:RDF>
  </metadata>
  <sodipodi:namedview
     pagecolor="#ffffff"
     bordercolor="#666666"
     borderopacity="1"
     objecttolerance="10"
     gridtolerance="10"
     guidetolerance="10"
     inkscape:pageopacity="0"
     inkscape:pageshadow="2"
     inkscape:window-width="1366"
     inkscape:window-height="714"
     id="namedview71"
     showgrid="false"
     inkscape:zoom="0.43457604"
     inkscape:cx="606.59582"
     inkscape:cy="130.71622"
     inkscape:window-x="0"
     inkscape:window-y="0"
     inkscape:window-maximized="1"
     inkscape:current-layer="svg2"
     showguides="false" />
  <defs
     id="defs4">
    <linearGradient
       id="linearGradient3764"
       x1="1"
       x2="47"
       gradientUnits="userSpaceOnUse"
       gradientTransform="rotate(-90,23.999998,24)">
      <stop
         stop-color="#acacac"
         stop-opacity="1"
         id="stop7" />
      <stop
         offset="1"
         stop-color="#b6b6b6"
         stop-opacity="1"
         id="stop9" />
    </linearGradient>
    <clipPath
       id="clipPath-593073577">
      <g
         transform="translate(0,-1004.3622)"
         id="g12">
        <path
           d="m -24,13 c 0,1.105 -0.672,2 -1.5,2 -0.828,0 -1.5,-0.895 -1.5,-2 0,-1.105 0.672,-2 1.5,-2 0.828,0 1.5,0.895 1.5,2 z"
           transform="matrix(15.333333,0,0,11.5,414.99999,878.8622)"
           id="path14"
           inkscape:connector-curvature="0"
           style="fill:#1890d0" />
      </g>
    </clipPath>
    <clipPath
       id="clipPath-601783356">
      <g
         transform="translate(0,-1004.3622)"
         id="g17">
        <path
           d="m -24,13 c 0,1.105 -0.672,2 -1.5,2 -0.828,0 -1.5,-0.895 -1.5,-2 0,-1.105 0.672,-2 1.5,-2 0.828,0 1.5,0.895 1.5,2 z"
           transform="matrix(15.333333,0,0,11.5,414.99999,878.8622)"
           id="path19"
           inkscape:connector-curvature="0"
           style="fill:#1890d0" />
      </g>
    </clipPath>
  </defs>
  <g
     id="g33"
     transform="translate(0,464)" />
  <g
     id="g51">
    <path
       inkscape:connector-curvature="0"
       id="path842"
       d="M 25.071538,396.07951 188.5124,491.42001 403.02854,208.80352 374.08588,14.717496 270.23284,113.46302 l -93.638,40.86022 z"
       style="fill:#236820;fill-opacity:1;stroke:none;stroke-width:1.47973919px;stroke-linecap:butt;stroke-linejoin:miter;stroke-opacity:1" />
    <path
       inkscape:connector-curvature="0"
       id="path840"
       d="M 225.79875,16.080306 50.609175,93.032915 25.071538,396.07951 270.23284,113.46302 Z"
       style="fill:#45d03f;fill-opacity:1;stroke:none;stroke-width:1.47973919px;stroke-linecap:butt;stroke-linejoin:miter;stroke-opacity:1" />
    <path
       sodipodi:nodetypes="ccccc"
       inkscape:connector-curvature="0"
       id="path31"
       d="M 225.79875,16.080306 214.05004,413.00133 397.92101,395.97625 493.26151,206.99774 Z"
       style="fill:#00bbf2;fill-opacity:1;stroke:none;stroke-width:1.47973919px;stroke-linecap:butt;stroke-linejoin:miter;stroke-opacity:1" />
    <path
       inkscape:connector-curvature="0"
       id="path838"
       d="M 500.07155,441.94398 351.95327,493.01925 161.27226,438.53897 185.10739,305.74326 433.6737,215.51028 Z"
       style="fill:#ffd42a;fill-opacity:1;stroke:none;stroke-width:1.47973919px;stroke-linecap:butt;stroke-linejoin:miter;stroke-opacity:1" />
    <rect
       ry="0"
       y="103.43931"
       x="108.50327"
       height="292.53693"
       width="291.33307"
       id="rect844"
       style="opacity:1;fill:#000000;fill-opacity:1;stroke:none;stroke-width:44.95058823;stroke-linecap:round;stroke-miterlimit:4;stroke-dasharray:none;stroke-opacity:1" />
    <g
       id="flowRoot846"
       style="font-style:normal;font-weight:normal;font-size:133.33332825px;line-height:1.25;font-family:sans-serif;letter-spacing:0px;word-spacing:0px;fill:#000000;fill-opacity:1;stroke:none"
       transform="matrix(1.4797392,0,0,1.4797392,-124.39339,-236.93879)"
       aria-label="PC">
      <path
         id="path37"
         style="font-style:normal;font-variant:normal;font-weight:bold;font-stretch:normal;font-size:106.66666412px;font-family:sans-serif;-inkscape-font-specification:'sans-serif Bold';fill:#ffffff"
         d="m 174.31901,254.49935 h 33.28125 q 14.84375,0 22.76042,6.61458 7.96875,6.5625 7.96875,18.75 0,12.23958 -7.96875,18.85417 -7.91667,6.5625 -22.76042,6.5625 h -13.22917 v 26.97916 h -20.05208 z m 20.05208,14.53125 v 21.71875 h 11.09375 q 5.83334,0 9.01042,-2.8125 3.17708,-2.86459 3.17708,-8.07292 0,-5.20833 -3.17708,-8.02083 -3.17708,-2.8125 -9.01042,-2.8125 z" />
      <path
         id="path39"
         style="font-style:normal;font-variant:normal;font-weight:bold;font-stretch:normal;font-size:106.66666412px;font-family:sans-serif;-inkscape-font-specification:'sans-serif Bold';fill:#ffffff"
         d="m 314.11068,327.98893 q -5.52084,2.86458 -11.51042,4.32291 -5.98958,1.45834 -12.5,1.45834 -19.42708,0 -30.78125,-10.83334 -11.35417,-10.88541 -11.35417,-29.47916 0,-18.64583 11.35417,-29.47917 11.35417,-10.88541 30.78125,-10.88541 6.51042,0 12.5,1.45833 5.98958,1.45833 11.51042,4.32292 v 16.09375 q -5.57292,-3.80209 -10.98959,-5.57292 -5.41666,-1.77083 -11.40625,-1.77083 -10.72916,0 -16.875,6.875 -6.14583,6.875 -6.14583,18.95833 0,12.03125 6.14583,18.90625 6.14584,6.875 16.875,6.875 5.98959,0 11.40625,-1.77084 5.41667,-1.77083 10.98959,-5.57291 z" />
    </g>
    <rect
       y="355.67859"
       x="135.87431"
       height="16.252052"
       width="111.35665"
       id="rect854"
       style="opacity:1;fill:#ffffff;fill-opacity:1;stroke:none;stroke-width:44.39217758;stroke-linecap:round;stroke-miterlimit:4;stroke-dasharray:none;stroke-opacity:1" />
  </g>
</svg>
