<?xml version="1.0" encoding="UTF-8" standalone="no"?>
<!-- Generator: Adobe Illustrator 19.0.0, SVG Export Plug-In . SVG Version: 6.00 Build 0)  -->

<svg
   xmlns:dc="http://purl.org/dc/elements/1.1/"
   xmlns:cc="http://creativecommons.org/ns#"
   xmlns:rdf="http://www.w3.org/1999/02/22-rdf-syntax-ns#"
   xmlns:svg="http://www.w3.org/2000/svg"
   xmlns="http://www.w3.org/2000/svg"
   xmlns:sodipodi="http://sodipodi.sourceforge.net/DTD/sodipodi-0.dtd"
   xmlns:inkscape="http://www.inkscape.org/namespaces/inkscape"
   version="1.1"
   id="Layer_1"
   x="0px"
   y="0px"
   viewBox="0 0 500 500"
   xml:space="preserve"
   inkscape:version="0.91 r13725"
   width="100%"
   height="100%"
   sodipodi:docname="qtm.svg"><metadata
     id="metadata57"><rdf:RDF><cc:Work
         rdf:about=""><dc:format>image/svg+xml</dc:format><dc:type
           rdf:resource="http://purl.org/dc/dcmitype/StillImage" /></cc:Work></rdf:RDF></metadata><defs
     id="defs55" /><sodipodi:namedview
     pagecolor="#ffffff"
     bordercolor="#666666"
     borderopacity="1"
     objecttolerance="10"
     gridtolerance="10"
     guidetolerance="10"
     inkscape:pageopacity="0"
     inkscape:pageshadow="2"
     inkscape:window-width="1366"
     inkscape:window-height="715"
     id="namedview53"
     showgrid="false"
     inkscape:zoom="0.52559509"
     inkscape:cx="398.12321"
     inkscape:cy="130.80178"
     inkscape:window-x="0"
     inkscape:window-y="24"
     inkscape:window-maximized="1"
     inkscape:current-layer="Layer_1" /><g
     id="g23"
     transform="translate(0,39.767)" /><g
     id="g25"
     transform="translate(0,39.767)" /><g
     id="g27"
     transform="translate(0,39.767)" /><g
     id="g29"
     transform="translate(0,39.767)" /><g
     id="g31"
     transform="translate(0,39.767)" /><g
     id="g33"
     transform="translate(0,39.767)" /><g
     id="g35"
     transform="translate(0,39.767)" /><g
     id="g37"
     transform="translate(0,39.767)" /><g
     id="g39"
     transform="translate(0,39.767)" /><g
     id="g41"
     transform="translate(0,39.767)" /><g
     id="g43"
     transform="translate(0,39.767)" /><g
     id="g45"
     transform="translate(0,39.767)" /><g
     id="g47"
     transform="translate(0,39.767)" /><g
     id="g49"
     transform="translate(0,39.767)" /><g
     id="g51"
     transform="translate(0,39.767)" /><g
     transform="matrix(0.81891166,0.79306856,-0.79306856,0.81891166,179.38066,-108.37213)"
     style="font-style:normal;font-weight:normal;font-size:200.37956238px;line-height:125%;font-family:sans-serif;letter-spacing:0px;word-spacing:0px;fill:#45d03f;fill-opacity:1;stroke:none;stroke-width:1px;stroke-linecap:butt;stroke-linejoin:miter;stroke-opacity:1"
     id="flowRoot4160"><path
       d="m 141.25746,259.05087 c -1.0019,12.82429 -3.0057,17.6334 -8.01519,17.6334 -5.811,0 -10.62011,-8.41594 -17.43302,-30.25731 20.83948,-17.23264 31.65997,-39.67516 31.65997,-65.32374 0,-41.07781 -30.65807,-73.73968 -69.331325,-73.73968 -16.431124,0 -30.457693,5.20987 -42.680847,16.23075 -16.431124,14.6277 -26.0493427,36.46908 -26.0493427,59.31235 0,41.87933 31.0588317,75.14233 70.1328467,75.14233 6.812905,0 11.221256,-0.80152 17.833781,-3.00569 0.801518,24.04555 10.820497,37.87174 27.251617,37.87174 16.03037,0 25.84897,-12.8243 25.64859,-33.86415 l -9.01708,0 z m -30.65808,-27.85276 c -5.20986,-18.83568 -17.433018,-29.25542 -34.264901,-29.25542 -16.831883,0 -28.854657,11.22126 -28.854657,27.25163 0,0.60113 0,2.00379 0.20038,3.60683 -8.015183,-10.62012 -11.822394,-26.65048 -11.822394,-49.89451 0,-19.6372 3.406452,-36.2687 10.219357,-48.49186 6.211767,-11.22125 17.833781,-17.6334 32.461489,-17.6334 15.228847,0 28.053136,7.41404 34.264906,19.83758 5.81101,11.22125 8.21556,25.24782 8.21556,45.68654 0,23.44441 -2.80531,36.46908 -10.41974,48.89261 z m -14.026565,13.02467 c -6.211766,3.20608 -11.020876,4.40835 -18.835679,4.40835 -13.225051,0 -21.039854,-6.41214 -21.039854,-17.43302 0,-11.82239 7.614423,-19.83758 18.635299,-19.83758 13.625811,0 21.240234,11.22126 21.240234,30.85846 l 0,2.00379 z"
       style="font-style:normal;font-variant:normal;font-weight:500;font-stretch:normal;font-family:'Century Schoolbook L';-inkscape-font-specification:'Century Schoolbook L Medium';fill:#45d03f;fill-opacity:1"
       id="path4169" /><path
       d="m 282.99468,110.36923 -120.02736,0 -3.00569,55.70552 8.61632,0 c 1.40266,-10.01897 3.20607,-17.6334 5.41025,-24.04554 5.20987,-14.62771 14.82809,-22.24214 28.4539,-22.24214 6.61252,0 9.41784,2.20418 9.41784,7.21367 l 0,103.39585 0,5.81101 c 0,8.41594 -1.80342,9.41784 -18.03416,9.41784 l -5.20987,0 0,9.41784 68.73019,0 0,-9.41784 -5.20987,0 c -16.03037,0 -17.83378,-1.0019 -17.83378,-9.41784 l 0,-5.81101 0,-103.39585 c 0,-5.00949 2.80531,-7.21367 9.41784,-7.21367 12.22315,0 22.04175,6.81291 27.05124,18.83568 3.00569,7.41405 5.00949,16.03037 6.61252,27.452 l 8.61633,0 -3.0057,-55.70552 z"
       style="font-style:normal;font-variant:normal;font-weight:500;font-stretch:normal;font-family:'Century Schoolbook L';-inkscape-font-specification:'Century Schoolbook L Medium';fill:#45d03f;fill-opacity:1"
       id="path4171" /><path
       d="m 347.51064,110.36923 -51.69792,0 0,9.41784 3.80721,0 c 16.23074,0 18.03416,1.0019 18.03416,9.41784 l 0,5.81101 0,76.74537 c 0,27.25162 -4.00759,33.06263 -23.24403,33.86415 l 0,9.41784 57.10817,0 0,-9.41784 c -19.03605,-0.80152 -23.04365,-6.61253 -23.04365,-33.86415 l 0,-88.56776 47.69034,131.84975 8.01518,0 44.68465,-131.84975 0,107.20306 0,5.81101 c 0,8.61632 -1.80342,9.41784 -18.03416,9.41784 l -3.60684,0 0,9.41784 65.7245,0 0,-9.41784 -3.60683,0 c -16.23075,0 -18.03416,-0.80152 -18.03416,-9.41784 l 0,-5.81101 0,-95.38067 0,-5.81101 c 0,-8.41594 1.80341,-9.41784 18.03416,-9.41784 l 3.60683,0 0,-9.41784 -50.29527,0 -36.66946,106.80231 -38.47288,-106.80231 z"
       style="font-style:normal;font-variant:normal;font-weight:500;font-stretch:normal;font-family:'Century Schoolbook L';-inkscape-font-specification:'Century Schoolbook L Medium';fill:#45d03f;fill-opacity:1"
       id="path4173" /></g></svg>