<?xml version="1.0" encoding="UTF-8" standalone="no"?>
<svg
   xmlns:dc="http://purl.org/dc/elements/1.1/"
   xmlns:cc="http://creativecommons.org/ns#"
   xmlns:rdf="http://www.w3.org/1999/02/22-rdf-syntax-ns#"
   xmlns:svg="http://www.w3.org/2000/svg"
   xmlns="http://www.w3.org/2000/svg"
   xmlns:sodipodi="http://sodipodi.sourceforge.net/DTD/sodipodi-0.dtd"
   xmlns:inkscape="http://www.inkscape.org/namespaces/inkscape"
   height="128"
   width="128"
   version="1.1"
   id="svg2"
   inkscape:version="0.92.1 r15371"
   sodipodi:docname="qt-assistant.svg">
  <metadata
     id="metadata43">
    <rdf:RDF>
      <cc:Work
         rdf:about="">
        <dc:format>image/svg+xml</dc:format>
        <dc:type
           rdf:resource="http://purl.org/dc/dcmitype/StillImage" />
      </cc:Work>
    </rdf:RDF>
  </metadata>
  <sodipodi:namedview
     pagecolor="#ffffff"
     bordercolor="#666666"
     borderopacity="1"
     objecttolerance="10"
     gridtolerance="10"
     guidetolerance="10"
     inkscape:pageopacity="0"
     inkscape:pageshadow="2"
     inkscape:window-width="1366"
     inkscape:window-height="714"
     id="namedview41"
     showgrid="false"
     inkscape:zoom="1.2291667"
     inkscape:cx="220.99191"
     inkscape:cy="91.783102"
     inkscape:window-x="0"
     inkscape:window-y="0"
     inkscape:window-maximized="1"
     inkscape:current-layer="svg2" />
  <defs
     id="defs4">
    <linearGradient
       id="linearGradient12443"
       y2="3"
       gradientUnits="userSpaceOnUse"
       x2="27.5"
       y1="0.5"
       x1="27.5"
       gradientTransform="matrix(2.402228,0,0,2.402228,6.3280064,6.9402887)">
      <stop
         stop-color="#fff"
         offset="0"
         id="stop7" />
      <stop
         stop-color="#fff"
         stop-opacity="0"
         offset="1"
         id="stop9" />
    </linearGradient>
    <filter
       id="filter4549"
       height="1.4594001"
       width="1.5025001"
       y="-0.22969"
       x="-0.25127"
       color-interpolation-filters="sRGB">
      <feGaussianBlur
         stdDeviation="2.8192388"
         id="feGaussianBlur12" />
    </filter>
    <clipPath
       id="clipPath4571"
       clipPathUnits="userSpaceOnUse">
      <path
         d="m 16.562,9.2812 c -0.74132,0.048211 -1.4937,0.22542 -2.125,0.5 -1.676,0.7268 -2.965,2.6818 -3.593,5.4688 -0.44683,1.9819 -0.41916,7.4073 0.03125,9.5 0.44637,2.0716 1.3217,3.7905 2.4062,4.875 l 0.407,0.375 2.5312,2.5312 c 0.30041,0.8334 0.62131,1.3713 1,1.75 l 0.343,0.313 13.407,13.406 h 15.031 c 1.108,0 2,-0.892 2,-2 v -16.031 l -19.094,-19.063 -0.031,-0.031 c -0.078,-0.045 -0.553,-0.117 -1.063,-0.156 l -0.90625,-0.0625 -0.34375,1.3125 c -0.17758,0.7241 -0.37237,1.5281 -0.4375,1.8125 -0.10143,0.4425 -0.18982,0.53125 -0.75,0.53125 H 24.7814 l -3.25,-3.25 c -0.843,-0.845 -1.941,-1.3838 -3.28,-1.6568 -0.31525,-0.064 -0.63979,-0.1093 -0.96875,-0.125 -0.24672,-0.01175 -0.47164,-0.01607 -0.71875,0 z"
         id="path15"
         inkscape:connector-curvature="0"
         style="opacity:0.35985;fill:#364e59" />
    </clipPath>
  </defs>
  <rect
     style="fill:#45d03f;fill-opacity:1;fill-rule:evenodd;stroke:none"
     id="rect2999"
     width="115.34302"
     height="115.05248"
     x="6.7814484"
     y="7.235146"
     ry="15.001" />
  <path
     style="fill:#ffffff"
     inkscape:connector-curvature="0"
     id="path37"
     d="m 50.111829,34.924516 c -2.370711,-0.112904 -4.809501,0.321659 -6.831456,1.201114 -4.026134,1.747381 -7.122606,6.443737 -8.633608,13.136344 -1.073387,4.760976 -1.006918,17.794023 0.07507,22.821166 1.58905,7.37484 5.332225,12.837266 9.834241,14.338178 1.667146,0.556837 1.851541,0.832372 2.552367,3.077975 1.089891,3.49284 2.126452,5.125874 3.678292,6.230659 1.552247,1.105505 4.565433,1.856442 6.455983,1.576582 0.71594,-0.105698 1.81196,-0.148938 2.40223,-0.148938 1.01968,0 1.05098,-0.134525 1.05098,-2.927836 0,-2.612182 -0.11593,-3.002785 -0.90084,-3.002785 -1.67373,0 -3.03714,-0.947679 -3.82867,-2.702506 -0.4367,-0.968098 -0.70107,-1.874459 -0.60056,-1.95181 0.10123,-0.07927 1.07769,-0.681753 2.25209,-1.351254 5.83069,-3.338376 8.46617,-10.831646 8.48275,-24.248089 0.0216,-16.136967 -4.02902,-23.78542 -13.662672,-25.749482 -0.757302,-0.153743 -1.536921,-0.262563 -2.327158,-0.300278 z m 23.121439,3.303064 -0.82576,3.152924 c -0.42659,1.739453 -0.89452,3.670845 -1.05098,4.354038 -0.24365,1.062986 -0.45599,1.276304 -1.80167,1.276304 h -1.57646 v 2.927595 2.927836 h 1.35125 1.35126 v 13.137064 c 0,4.909193 -0.0173,8.259821 0.15014,10.735077 2.12808,-1.94004 4.7086,-3.383538 7.58191,-4.12895 -0.0367,-1.760833 -0.0751,-3.963436 -0.0751,-7.581912 V 53.316695 h 2.7025 2.70251 v -2.627557 -2.627317 l -2.7025,-0.375468 -2.70251,-0.300279 v -4.203899 c 0,-2.334485 -0.18882,-4.315602 -0.37535,-4.428988 -0.18653,-0.1081 -1.32865,-0.281541 -2.55237,-0.375468 l -2.17702,-0.148938 z m -22.445933,3.303063 c 1.899009,0 4.292543,2.283078 5.179683,4.954596 1.56909,4.724221 1.82987,20.584932 0.45042,27.250874 -1.09667,5.299796 -3.98866,8.023201 -6.981356,6.530937 -1.377798,-0.687037 -3.027288,-3.104639 -3.603342,-5.254873 -1.883323,-7.033003 -1.767151,-24.447475 0.225209,-29.427293 0.904295,-2.260016 3.013355,-4.05376 4.729506,-4.05376 z m 32.161033,52.897061 c -2.4152,0 -4.37206,-1.954933 -4.37206,-4.372055 0,-2.417122 1.95681,-4.372055 4.37206,-4.372055 2.41592,0 4.37205,1.954933 4.37205,4.372055 0,2.417122 -1.95618,4.372055 -4.37205,4.372055 z m 15.614485,-1.249159 v -6.245792 h -3.478915 c -0.28044,-1.167964 -0.72139,-2.273469 -1.30537,-3.291533 l 2.41904,-2.417122 -4.41577,-4.415776 -2.36903,2.367156 c -1.02743,-0.624579 -2.14793,-1.09926 -3.3415,-1.405303 v -3.329008 h -6.24579 v 3.329008 c -1.19295,0.306043 -2.31407,0.780724 -3.34078,1.405303 l -2.36903,-2.367156 -4.41578,4.415776 2.41905,2.417122 c -0.58398,1.018064 -1.02494,2.123569 -1.30537,3.291533 h -3.47963 v 6.245792 h 3.5858 c 0.30855,1.117997 0.76699,2.167291 1.35472,3.135388 l -2.57447,2.573267 4.41578,4.41578 2.62515,-2.62324 c 0.95623,0.54963 1.99116,0.9681 3.0847,1.25541 v 3.73498 h 6.24579 v -3.73498 c 1.09364,-0.28731 2.12919,-0.70578 3.08543,-1.25541 l 2.62515,2.62324 4.41578,-4.41578 -2.57447,-2.573267 c 0.58773,-0.968097 1.04617,-2.017391 1.35471,-3.135388 h 3.585095" />
  <text
     xml:space="preserve"
     style="font-style:normal;font-weight:bold;font-size:1.25960457px;line-height:0%;font-family:sans-serif;-inkscape-font-specification:'Helvetica Neue Bold';letter-spacing:0px;word-spacing:0px;fill:#ffffff;fill-opacity:1;stroke:none;stroke-width:0.10496705"
     x="80.044601"
     y="64.012291"
     id="text2987"
     transform="scale(1.0164597,0.98380683)"><tspan
       sodipodi:role="line"
       id="tspan2989"
       x="80.044601"
       y="64.012291"
       style="font-style:normal;font-variant:normal;font-weight:bold;font-stretch:normal;font-size:64.69072723px;line-height:1.25;font-family:'Helvetica Neue';-inkscape-font-specification:'Helvetica Neue Bold';fill:#ffffff;fill-opacity:1;stroke-width:0.10496705">?</tspan></text>
</svg>
