<?xml version="1.0" encoding="UTF-8" standalone="no"?>
<!-- Generator: Adobe Illustrator 19.0.0, SVG Export Plug-In . SVG Version: 6.00 Build 0)  -->

<svg
   xmlns:dc="http://purl.org/dc/elements/1.1/"
   xmlns:cc="http://creativecommons.org/ns#"
   xmlns:rdf="http://www.w3.org/1999/02/22-rdf-syntax-ns#"
   xmlns:svg="http://www.w3.org/2000/svg"
   xmlns="http://www.w3.org/2000/svg"
   xmlns:sodipodi="http://sodipodi.sourceforge.net/DTD/sodipodi-0.dtd"
   xmlns:inkscape="http://www.inkscape.org/namespaces/inkscape"
   version="1.1"
   id="Layer_1"
   x="0px"
   y="0px"
   viewBox="0 0 500 500"
   xml:space="preserve"
   inkscape:version="0.91 r13725"
   width="100%"
   height="100%"
   sodipodi:docname="quake4.svg"><metadata
     id="metadata57"><rdf:RDF><cc:Work
         rdf:about=""><dc:format>image/svg+xml</dc:format><dc:type
           rdf:resource="http://purl.org/dc/dcmitype/StillImage" /></cc:Work></rdf:RDF></metadata><defs
     id="defs55" /><sodipodi:namedview
     pagecolor="#ffffff"
     bordercolor="#666666"
     borderopacity="1"
     objecttolerance="10"
     gridtolerance="10"
     guidetolerance="10"
     inkscape:pageopacity="0"
     inkscape:pageshadow="2"
     inkscape:window-width="1366"
     inkscape:window-height="715"
     id="namedview53"
     showgrid="false"
     inkscape:zoom="0.37165185"
     inkscape:cx="-109.63663"
     inkscape:cy="547.40293"
     inkscape:window-x="0"
     inkscape:window-y="24"
     inkscape:window-maximized="1"
     inkscape:current-layer="Layer_1" /><g
     id="g23"
     transform="translate(0,39.767)" /><g
     id="g25"
     transform="translate(0,39.767)" /><g
     id="g27"
     transform="translate(0,39.767)" /><g
     id="g29"
     transform="translate(0,39.767)" /><g
     id="g31"
     transform="translate(0,39.767)" /><g
     id="g33"
     transform="translate(0,39.767)" /><g
     id="g35"
     transform="translate(0,39.767)" /><g
     id="g37"
     transform="translate(0,39.767)" /><g
     id="g39"
     transform="translate(0,39.767)" /><g
     id="g41"
     transform="translate(0,39.767)" /><g
     id="g43"
     transform="translate(0,39.767)" /><g
     id="g45"
     transform="translate(0,39.767)" /><g
     id="g47"
     transform="translate(0,39.767)" /><g
     id="g49"
     transform="translate(0,39.767)" /><g
     id="g51"
     transform="translate(0,39.767)" /><g
     id="g4158"><path
       inkscape:connector-curvature="0"
       id="path4213"
       d="m 220.70221,337.56507 20.92866,5.23217 50.18122,-4.99434 19.97735,-6.42129 46.85166,-26.8743 7.84825,-21.16649 8.08607,11.17781 9.51302,-10.46433 8.79955,-11.89128 6.89695,-10.22651 4.51869,-9.51302 -5.23217,-3.32956 -47.26785,17.89638 -8.44281,6.42129 -7.84825,7.07531 -4.72582,9.47109 -27.07507,11.43543 z"
       style="fill:#ffcc00;fill-rule:evenodd;stroke:none;stroke-width:1px;stroke-linecap:butt;stroke-linejoin:miter;stroke-opacity:1" /><path
       inkscape:connector-curvature="0"
       id="path4197"
       d="m 247.80943,439.30958 c -6.36339,-37.8189 -7.87219,-51.36305 -7.81147,-70.12206 0.0415,-12.78734 -0.34826,-23.935 -0.86592,-24.77256 -0.51764,-0.83757 -5.88034,-2.57642 -11.91714,-3.86412 -20.61562,-4.39745 -28.96737,-7.7734 -28.96737,-11.70918 0,-3.10528 -1.39616,-3.63548 -9.57308,-3.63548 -7.99964,0 -11.3458,-1.2064 -20.35869,-7.34001 -27.22539,-18.52787 -64.75983,-60.94736 -64.75983,-73.18822 0,-2.35892 -1.18847,-4.74503 -2.64107,-5.30245 -7.28801,-2.79665 -19.759102,-69.63874 -14.234812,-76.29512 1.181938,-1.42414 1.645225,-3.90206 1.029559,-5.50648 -0.615682,-1.60443 0.176883,-8.64614 1.761061,-15.64824 C 100.3459,93.859487 120.25818,60.739902 153.25957,35.827215 c 16.63455,-12.557379 31.50128,-20.30303 34.05924,-17.745057 1.22772,1.227707 -2.72627,4.894221 -11.53905,10.700105 -7.37371,4.857823 -17.57585,12.580795 -22.67144,17.162156 -5.09558,4.581368 -9.94381,7.716246 -10.77385,6.966403 -0.83003,-0.749851 -0.96047,-0.402211 -0.28987,0.772522 0.67062,1.17474 -1.62972,5.867119 -5.11183,10.427526 -9.04328,11.843599 -15.54454,25.466452 -21.2923,44.61618 -4.21094,14.02955 -5.07053,20.8054 -5.40991,42.64423 -0.24193,15.56796 -1.24131,26.97385 -2.49587,28.48551 -1.58853,1.91406 -1.2035,3.07625 1.59902,4.82645 2.03026,1.26792 3.69138,3.30497 3.69138,4.52679 0,5.07299 12.7553,33.5977 19.74032,44.1453 7.79971,11.77784 28.58835,33.09908 37.37225,38.32973 2.84963,1.69689 5.49863,5.32871 6.10761,8.37362 0.99598,4.9799 4.95777,7.76336 4.95777,3.4832 0,-3.25541 4.62335,-2.10264 15.76127,3.92992 7.66096,4.14935 10.75238,6.93534 10.75238,9.69003 0,3.18912 0.74632,3.60491 4.26112,2.37394 2.34362,-0.82079 9.37446,-1.68114 15.62411,-1.91186 l 11.36299,-0.41953 -0.12991,-28.41856 c -0.14242,-31.13039 -1.89954,-37.24736 -11.25696,-39.18807 -2.59084,-0.53736 -6.84118,-1.41934 -9.44521,-1.95999 -2.60401,-0.54065 -4.73457,-1.81898 -4.73457,-2.84074 0,-1.14646 15.22739,-1.96653 39.77047,-2.14184 21.87376,-0.15624 40.76473,-0.3693 41.97994,-0.47345 1.2152,-0.10416 2.53064,0.7741 2.92315,1.95168 0.39625,1.18872 -2.24644,2.69639 -5.94138,3.38956 -7.85948,1.47445 -17.90834,9.33582 -17.82704,13.94634 0.0315,1.78696 -0.10303,13.90182 -0.29902,26.92192 -0.19597,13.02009 -0.27693,25.16429 -0.17991,26.9871 0.23504,4.41595 5.50838,4.26141 24.01983,-0.70391 8.23908,-2.20995 16.40896,-4.09702 18.1553,-4.19348 1.74634,-0.0964 2.83834,-0.72035 2.42668,-1.38645 -1.16011,-1.87709 8.62701,-5.76063 10.93025,-4.33714 1.12497,0.69528 1.50423,0.38937 0.84326,-0.68012 -1.00486,-1.62589 10.90376,-11.11391 23.25331,-18.52675 5.28605,-3.17297 21.03862,-21.84074 29.49507,-34.95351 10.13774,-15.71978 17.05161,-34.92814 19.8695,-55.20203 1.2154,-8.74448 3.00799,-17.91194 3.98352,-20.37214 1.04835,-2.64382 1.08032,-5.3545 0.0782,-6.62841 -0.93255,-1.18543 -2.24495,-7.7629 -2.91647,-14.6166 -4.51343,-46.064993 -29.75619,-85.325082 -69.83337,-108.611781 -9.38884,-5.455355 -10.7543,-10.15405 -1.8258,-6.282812 17.69418,7.67189 41.46109,26.746362 55.93933,44.894907 22.16786,27.78753 36.10687,66.536696 38.62417,107.371576 0.94584,15.34344 0.61828,18.06396 -2.85082,23.67709 -2.96809,4.80247 -3.44971,7.18119 -1.98417,9.79996 5.08192,9.08089 -15.98443,53.67118 -37.92111,80.26604 l -10.26317,12.4425 -3.4826,-4.5294 -3.48261,-4.5294 -0.042,6.96659 c -0.0498,8.23128 -2.38774,10.8731 -18.98044,21.44707 -18.67104,11.89846 -36.14175,18.65713 -61.19664,23.67438 -6.05557,1.21262 -11.38669,3.19838 -11.84696,4.41276 -0.46028,1.2144 -1.09736,15.1363 -1.41574,30.93756 -0.31839,15.80125 -1.43743,29.86295 -2.48677,31.24823 -1.04933,1.38527 -2.0634,4.98917 -2.25347,8.00867 -0.19009,3.01951 -1.23245,6.55857 -2.31637,7.86462 -1.25257,1.50927 -1.29516,2.61426 -0.11684,3.03223 1.14847,0.40742 0.52174,8.58412 -1.64714,21.48978 -1.92558,11.45768 -4.05481,24.88022 -4.73163,29.82785 -0.67684,4.94764 -1.88803,8.99571 -2.69157,8.99571 -0.80354,0 -5.00999,-21.09256 -9.34767,-46.87234 z M 230.44267,336.56919 c 0,-1.0416 -0.90253,-1.89383 -2.0056,-1.89383 -1.10309,0 -1.4789,0.85223 -0.83515,1.89383 0.64375,1.04161 1.54628,1.89384 2.00561,1.89384 0.45933,0 0.83514,-0.85223 0.83514,-1.89384 z m 68.17795,-3.67589 c 0,-2.23446 -3.69363,-4.62473 -5.05023,-3.26816 -1.35657,1.35659 1.03371,5.05022 3.26817,5.05022 0.98013,0 1.78206,-0.80193 1.78206,-1.78206 z m 37.87664,-24.7316 c 0,-1.0416 -0.90253,-1.89383 -2.0056,-1.89383 -1.10309,0 -1.4789,0.85223 -0.83515,1.89383 0.64375,1.04161 1.54628,1.89383 2.00561,1.89383 0.45932,0 0.83514,-0.85222 0.83514,-1.89383 z m -19.12274,-10.28485 c -0.49823,-0.49823 -2.03413,0.97286 -3.41312,3.26911 -2.39555,3.989 -2.35519,4.02936 0.90588,0.90588 1.87721,-1.79802 3.00547,-3.67676 2.50724,-4.17499 z m 72.02999,-25.40773 c -0.0936,-2.44043 -0.46085,-2.29559 -1.66525,0.65669 -0.84988,2.08321 -3.58186,5.91823 -6.07108,8.52224 -2.48921,2.60402 -5.67477,6.43903 -7.07899,8.52225 -1.40424,2.08321 1.38178,-0.34286 6.19111,-5.39127 4.80935,-5.04841 8.69024,-10.58786 8.62421,-12.30991 z m -45.65626,5.39127 c 1.21998,0 2.00512,1.06528 1.74471,2.36729 -0.2604,1.30201 0.73386,2.36729 2.20948,2.36729 1.4756,0 3.03801,-1.06528 3.47202,-2.36729 0.43401,-1.30201 -0.56025,-2.36729 -2.20948,-2.36729 -3.45318,0 -3.99437,-2.94868 -0.893,-4.86545 1.15808,-0.71571 2.76723,-0.23072 3.57593,1.07779 2.168,3.50791 5.48593,0.60808 4.33591,-3.78956 -1.33914,-5.12089 -2.08607,-4.85047 -11.97594,4.33578 -4.72282,4.38681 -7.2124,6.91074 -5.53238,5.60873 1.68002,-1.30201 4.05276,-2.36729 5.27275,-2.36729 z m 47.53702,-16.63766 c -0.11894,-2.90095 -0.27839,-2.87889 -1.49431,0.20677 -0.74867,1.89989 -2.15886,3.32736 -3.13374,3.17217 -0.97491,-0.15529 -2.10553,0.71672 -2.51247,1.9376 -0.55929,1.67786 0.23824,1.69627 3.26685,0.0754 2.20372,-1.1794 3.94689,-3.60575 3.87367,-5.39193 z m -9.09447,1.96046 c 2.40424,-3.06566 2.31512,-3.10585 -1.18849,-0.5359 -2.08321,1.52808 -4.14276,3.01947 -4.57677,3.31421 -0.43398,0.29474 0.10075,0.5359 1.1885,0.5359 1.08766,0 3.14721,-1.4914 4.57676,-3.31421 z m 18.69675,-6.15496 c 1.1199,-2.09253 1.24856,-3.78766 0.28752,-3.78766 -0.95678,0 -2.18531,1.70445 -2.73009,3.78766 -0.54478,2.08322 -0.67415,3.78766 -0.2875,3.78766 0.38662,0 1.61517,-1.70444 2.73007,-3.78766 z"
       style="fill:#c87137;fill-opacity:1" /></g></svg>