<?xml version="1.0" encoding="UTF-8" standalone="no"?>
<!-- Created with Inkscape (http://www.inkscape.org/) -->

<svg
   xmlns:dc="http://purl.org/dc/elements/1.1/"
   xmlns:cc="http://creativecommons.org/ns#"
   xmlns:rdf="http://www.w3.org/1999/02/22-rdf-syntax-ns#"
   xmlns:svg="http://www.w3.org/2000/svg"
   xmlns="http://www.w3.org/2000/svg"
   xmlns:sodipodi="http://sodipodi.sourceforge.net/DTD/sodipodi-0.dtd"
   xmlns:inkscape="http://www.inkscape.org/namespaces/inkscape"
   id="svg2"
   version="1.1"
   inkscape:version="0.91 r13725"
   width="500"
   height="500"
   sodipodi:docname="redshift-status-off.svg">
  <metadata
     id="metadata8">
    <rdf:RDF>
      <cc:Work
         rdf:about="">
        <dc:format>image/svg+xml</dc:format>
        <dc:type
           rdf:resource="http://purl.org/dc/dcmitype/StillImage" />
        <dc:title />
      </cc:Work>
    </rdf:RDF>
  </metadata>
  <defs
     id="defs6" />
  <sodipodi:namedview
     pagecolor="#ffffff"
     bordercolor="#666666"
     borderopacity="1"
     objecttolerance="10"
     gridtolerance="10"
     guidetolerance="10"
     inkscape:pageopacity="0"
     inkscape:pageshadow="2"
     inkscape:window-width="1204"
     inkscape:window-height="680"
     id="namedview4"
     showgrid="false"
     inkscape:zoom="0.65186406"
     inkscape:cx="190.29581"
     inkscape:cy="223.60941"
     inkscape:window-x="15"
     inkscape:window-y="35"
     inkscape:window-maximized="0"
     inkscape:current-layer="svg2" />
  <path
     style="fill:#ff0000;fill-opacity:1;fill-rule:evenodd;stroke:none"
     d=""
     id="path2986"
     inkscape:connector-curvature="0" />
  <g
     id="g4142">
    <circle
       style="fill:#ebebeb;fill-opacity:1;stroke:none"
       id="circle4198"
       cx="182.10977"
       cy="167.10977"
       r="142.10977" />
    <path
       id="circle4205"
       d="m 182.10977,25.000043 a 142.10977,142.10977 0 0 0 -12.227,0.618999 142.39455,142.39455 0 0 1 12.227,-0.618999 z m 11.09609,0.555452 a 142.39455,142.39455 0 0 1 8.0517,0.903785 142.10977,142.10977 0 0 0 -8.0517,-0.903785 z m -29.96026,0.869658 a 142.10977,142.10977 0 0 0 -7.49036,1.136793 142.39455,142.39455 0 0 1 7.49036,-1.136793 z m 43.7677,0.903786 a 142.39455,142.39455 0 0 1 8.63186,1.856997 142.10977,142.10977 0 0 0 -8.63186,-1.856997 z m -57.65282,1.668709 a 142.10977,142.10977 0 0 0 -7.44446,1.905246 142.39455,142.39455 0 0 1 7.44446,-1.905246 z m 71.25433,1.45806 a 142.39455,142.39455 0 0 1 8.99196,2.899646 142.10977,142.10977 0 0 0 -8.99196,-2.899646 z m -84.87231,2.498356 a 142.10977,142.10977 0 0 0 -7.22205,2.641926 142.39455,142.39455 0 0 1 7.22205,-2.641926 z m 98.15961,1.968794 a 142.39455,142.39455 0 0 1 9.06728,3.961123 142.10977,142.10977 0 0 0 -9.06728,-3.961123 z m -114.19945,4.618957 a 142.10977,142.10977 0 0 0 -2.48188,1.165037 142.39455,142.39455 0 0 1 2.48188,-1.165037 z m 127.03132,1.161506 a 142.39455,142.39455 0 0 1 8.90959,5.004949 142.10977,142.10977 0 0 0 -8.90959,-5.004949 z M 116.76182,40.970456 A 142.10977,142.10977 0 0 0 41.081529,150.46151 c 11.272391,-2.29933 83.379281,124.9183 94.691561,107.51992 2.65959,-4.09499 2.8928,-14.05713 1.67577,-27.59842 -1.09892,-12.24914 47.40999,21.34179 44.66091,4.9261 -0.4009,-2.39466 -3.22911,-28.44683 -6.92314,-60.19001 -0.90205,-7.75325 -1.85764,-15.85008 -2.83845,-24.02211 -0.80537,-6.7116 -6.26441,-24.94241 4.39536,-26.30982 12.72522,-1.6358 34.58212,-39.317687 32.22679,-26.574596 -7.8678,42.538976 62.28791,22.383176 56.65372,26.388666 -36.91915,26.23786 12.44567,69.87597 21.98506,42.79332 0.94859,-2.69539 19.68362,44.55465 31.32065,17.21429 13.19047,-30.94848 -12.41791,-22.95309 -19.68794,-33.11175 -2.16204,-3.01751 0.98905,-14.60023 -1.19093,-19.69029 -4.9039,-11.43299 -25.25004,-11.18576 -23.75379,-21.20837 5.78807,-38.902202 -66.2185,-39.646543 -63.06495,-28.754036 2.98173,10.344799 -6.70781,-18.108168 -15.19843,-23.1195 -9.47498,-5.594741 -45.6958,2.994967 -45.70002,2.994967 -3.59739,0.139609 -3.76137,-12.141372 -9.48858,-10.748931 -7.12684,1.732487 -17.29252,20.878345 -18.19457,28.037367 -1.44255,11.425846 19.69418,39.912773 18.12632,49.158653 -2.3768,14.02458 -5.05056,22.53267 -8.50123,16.41524 -6.9872,-12.39583 -12.16694,-23.02718 -13.2014,-29.58486 -5.52229,-35.011794 -8.56704,-64.990064 -2.31242,-74.026884 z m 142.21093,6.77957 a 142.39455,142.39455 0 0 1 8.48829,5.955807 142.10977,142.10977 0 0 0 -8.48829,-5.955807 z m 11.54092,8.276465 a 142.39455,142.39455 0 0 1 7.85046,6.774863 142.10977,142.10977 0 0 0 -7.85046,-6.774863 z m 10.68303,9.413259 a 142.39455,142.39455 0 0 1 7.03729,7.419752 142.10977,142.10977 0 0 0 -7.03729,-7.419752 z m -4.42949,6.145272 c -5.51502,-0.08042 -8.01828,3.255784 3.38566,16.970697 19.67343,23.658881 17.91671,2.510066 17.54263,-3.814024 a 142.10977,142.10977 0 0 0 -7.89989,-10.104042 c -2.86762,-0.942932 -8.81023,-2.991125 -13.0284,-3.052631 z m 23.42076,16.641189 a 142.39455,142.39455 0 0 1 4.31887,7.010226 142.10977,142.10977 0 0 0 -4.31887,-7.010226 z m 7.65864,12.834229 a 142.39455,142.39455 0 0 1 2.54779,5.24384 142.10977,142.10977 0 0 0 -2.54779,-5.24384 z m 6.29238,13.60975 a 142.39455,142.39455 0 0 1 1.13796,3.09852 142.10977,142.10977 0 0 0 -1.13796,-3.09852 z m 4.83314,14.2205 a 142.39455,142.39455 0 0 1 0.1718,0.6649 142.10977,142.10977 0 0 0 -0.1718,-0.6649 z M 183.47369,293.12787 c -33.99405,-0.13471 -18.51935,11.34618 -13.49324,15.48439 a 142.10977,142.10977 0 0 0 12.12932,0.60723 142.10977,142.10977 0 0 0 17.06837,-1.2074 c 5.56196,-4.00697 20.73092,-14.00014 -12.09284,-14.83009 -1.26194,-0.0319 -2.46484,-0.0496 -3.61161,-0.0541 z"
       style="fill:#b3b3b3;fill-opacity:1;stroke:none"
       inkscape:connector-curvature="0" />
    <path
       inkscape:connector-curvature="0"
       id="path2984"
       d="m 277.55573,377.72055 c -2.78809,-2.04567 -4.06544,-7.01958 -5.36761,-20.90154 -2.93063,-31.24193 -3.5153,-32.39893 -31.04471,-61.43749 -13.59531,-14.34059 -28.15953,-31.87009 -32.36491,-38.95444 -25.383,-42.75985 -23.0035,-99.84732 5.99822,-143.90557 36.86122,-55.998125 113.66736,-74.718527 175.36664,-42.743177 21.70973,11.250976 44.86431,35.043267 55.81176,57.348887 11.41827,23.26486 15.08718,41.70481 13.89803,69.85154 -1.67021,39.53334 -11.00227,58.69951 -46.61458,95.73718 -13.52159,14.0627 -23.53583,26.38988 -26.04321,32.05825 -2.24065,5.06533 -5.36788,18.43037 -6.9494,29.70014 -1.58154,11.26975 -3.82668,21.44339 -4.9892,22.60812 -3.41051,3.41699 -93.11506,4.00286 -97.70103,0.6381 l 0,0 z m 61.1266,-79.14105 c 5.40261,-7.9967 19.97874,-25.92824 32.39145,-39.84792 25.93026,-29.07839 32.63699,-40.79585 34.1518,-59.66752 2.82851,-35.23726 -12.44511,-64.58168 -42.18747,-81.0526 -10.53559,-5.83446 -11.93918,-6.06934 -36.26826,-6.06934 -22.49445,0 -26.38604,0.53056 -34.99902,4.77162 -14.16528,6.97499 -30.12859,22.48305 -36.46631,35.42637 -10.77932,22.0142 -11.38435,52.64645 -1.42549,72.16749 2.31879,4.54518 14.66699,20.12851 27.44043,34.62957 12.77343,14.50108 27.81491,33.16845 33.4255,41.48298 5.61059,8.31451 11.08162,14.57314 12.1578,13.90802 1.07619,-0.66512 6.37702,-7.75205 11.77957,-15.74867 l 0,0 z"
       style="fill:#394050;fill-opacity:1;fill-rule:evenodd;stroke:none" />
    <path
       inkscape:connector-curvature="0"
       id="path2989"
       d="m 302.06482,412.60741 c -13.03098,-0.55682 -24.58313,-1.92345 -25.67142,-3.03704 -4.53119,-4.63637 -4.59794,-12.25413 -0.14283,-16.28605 4.06665,-3.68024 7.55218,-3.96077 49.21324,-3.96077 49.56991,0 53.94767,0.8893 53.94767,10.95908 0,3.16519 -1.50546,7.00532 -3.34547,8.53366 -4.09949,3.40506 -39.99642,5.24404 -74.00129,3.79112 z"
       style="fill:#394050;fill-opacity:1;fill-rule:evenodd;stroke:none" />
    <path
       inkscape:connector-curvature="0"
       id="path2991"
       d="m 288.75139,441.85048 c -5.06727,-3.54927 -6.12967,-13.22187 -1.84298,-16.77948 6.04755,-5.01902 70.24405,-5.31313 78.26075,-0.35855 3.8874,2.40252 3.05699,14.57856 -1.20684,17.69637 -5.60382,4.09759 -69.23808,3.62522 -75.21093,-0.55834 z"
       style="fill:#394050;fill-opacity:1;fill-rule:evenodd;stroke:none" />
    <path
       inkscape:connector-curvature="0"
       id="path2991-3"
       d="m 300.57577,472.06712 c -3.62237,-3.06472 -4.38183,-11.4168 -1.31747,-14.48872 4.32315,-4.33382 50.21444,-4.58778 55.94521,-0.30958 2.77894,2.07452 2.18531,12.58823 -0.86272,15.28039 -4.00591,3.5382 -49.49527,3.1303 -53.76502,-0.48209 z"
       style="fill:#394050;fill-opacity:1;fill-rule:evenodd;stroke:none" />
  </g>
</svg>
