<?xml version="1.0" encoding="UTF-8" standalone="no"?>
<!-- Generator: Adobe Illustrator 19.0.0, SVG Export Plug-In . SVG Version: 6.00 Build 0)  -->

<svg
   xmlns:dc="http://purl.org/dc/elements/1.1/"
   xmlns:cc="http://creativecommons.org/ns#"
   xmlns:rdf="http://www.w3.org/1999/02/22-rdf-syntax-ns#"
   xmlns:svg="http://www.w3.org/2000/svg"
   xmlns="http://www.w3.org/2000/svg"
   xmlns:sodipodi="http://sodipodi.sourceforge.net/DTD/sodipodi-0.dtd"
   xmlns:inkscape="http://www.inkscape.org/namespaces/inkscape"
   version="1.1"
   id="Layer_1"
   x="0px"
   y="0px"
   viewBox="0 0 500 500"
   xml:space="preserve"
   inkscape:version="0.91 r13725"
   width="100%"
   height="100%"
   sodipodi:docname="scummvm.svg"><metadata
     id="metadata57"><rdf:RDF><cc:Work
         rdf:about=""><dc:format>image/svg+xml</dc:format><dc:type
           rdf:resource="http://purl.org/dc/dcmitype/StillImage" /></cc:Work></rdf:RDF></metadata><defs
     id="defs55" /><sodipodi:namedview
     pagecolor="#ffffff"
     bordercolor="#666666"
     borderopacity="1"
     objecttolerance="10"
     gridtolerance="10"
     guidetolerance="10"
     inkscape:pageopacity="0"
     inkscape:pageshadow="2"
     inkscape:window-width="1366"
     inkscape:window-height="715"
     id="namedview53"
     showgrid="false"
     inkscape:zoom="0.37165185"
     inkscape:cx="114.69232"
     inkscape:cy="74.610356"
     inkscape:window-x="0"
     inkscape:window-y="24"
     inkscape:window-maximized="1"
     inkscape:current-layer="Layer_1" /><g
     id="g23"
     transform="translate(0,39.767)" /><g
     id="g25"
     transform="translate(0,39.767)" /><g
     id="g27"
     transform="translate(0,39.767)" /><g
     id="g29"
     transform="translate(0,39.767)" /><g
     id="g31"
     transform="translate(0,39.767)" /><g
     id="g33"
     transform="translate(0,39.767)" /><g
     id="g35"
     transform="translate(0,39.767)" /><g
     id="g37"
     transform="translate(0,39.767)" /><g
     id="g39"
     transform="translate(0,39.767)" /><g
     id="g41"
     transform="translate(0,39.767)" /><g
     id="g43"
     transform="translate(0,39.767)" /><g
     id="g45"
     transform="translate(0,39.767)" /><g
     id="g47"
     transform="translate(0,39.767)" /><g
     id="g49"
     transform="translate(0,39.767)" /><g
     id="g51"
     transform="translate(0,39.767)" /><g
     id="g4210"><path
       inkscape:connector-curvature="0"
       id="path3406"
       d="m 46.376004,457.19138 4.756513,26.39865 26.636474,-3.09173 21.879961,-20.69084 7.134768,-23.30691 25.44735,-5.23217 17.12345,-26.16082 0,-9.2752 25.44734,-1.90261 60.16989,-59.69424 99.17331,-93.70331 -26.8743,-36.62515 -23.30692,-4.75651 -56.60251,49.70556 -3.80521,9.75085 -9.75085,6.4213 -97.74635,86.09289 -4.04303,14.50736 -21.404313,9.2752 -18.312576,28.30126 -14.507365,-11.65346 -31.155162,12.12911 -11.653457,27.8256 9.037375,17.12345 z"
       style="fill:#45d03f;fill-rule:evenodd;stroke:none;stroke-width:1px;stroke-linecap:butt;stroke-linejoin:miter;stroke-opacity:1;fill-opacity:1" /><path
       inkscape:connector-curvature="0"
       id="path4208"
       d="m 356.73849,230.3057 -39.00341,-11.89128 -21.87996,-18.55041 -25.20952,5.70782 -44.23557,-14.26954 17.5991,-29.96603 71.3477,20.453 -40.90602,-59.45641 18.07475,-25.685172 11.41564,4.756512 -1.42696,-12.842585 25.68517,-15.696494 77.05552,47.565129 -21.87996,-90.849399 22.83126,-16.647796 82.76333,103.691985 -25.20952,20.92866 -40.90601,-51.845993 18.5504,68.493793 -16.17215,13.31823 -58.02946,-30.91733 33.29559,48.51643 -22.35561,18.55041 -14.26954,-5.23217 7.13477,12.36694 z"
       style="fill:#cccccc;fill-rule:evenodd;stroke:none;stroke-width:1px;stroke-linecap:butt;stroke-linejoin:miter;stroke-opacity:1" /><path
       inkscape:connector-curvature="0"
       id="path3404"
       d="m 477.96992,133.60434 c -8.08534,6.09223 -10.10938,7.05248 -14.16261,6.71913 -4.75732,-0.39127 -5.56752,-1.107 -15.75953,-13.92237 -4.97382,-6.25403 -9.76362,-12.34101 -10.64405,-13.52658 -1.08747,-1.46448 -1.61099,-1.91136 -1.63277,-1.39377 -0.0177,0.41906 2.06758,9.65711 4.63377,20.52908 5.01117,21.23016 5.18048,23.0217 2.57962,27.29582 -1.45903,2.3977 -10.7964,9.89301 -14.54115,11.67251 -2.47325,1.17526 -6.6671,1.39549 -9.24114,0.48527 -0.84166,-0.29763 -9.36987,-5.17055 -18.95158,-10.82869 -9.5817,-5.65816 -17.57475,-10.29237 -17.76234,-10.29825 -0.55428,-0.0174 0.51379,1.57321 10.18068,15.16142 5.06368,7.11777 9.62398,13.92812 10.13397,15.13413 0.50999,1.20601 0.82425,3.44527 0.69835,4.97615 -0.36864,4.48228 -1.51932,5.90134 -10.59456,13.06577 -10.26861,8.10653 -12.47601,8.9325 -18.00621,6.73763 l -2.60752,-1.03489 1.07284,1.59146 c 1.46503,2.17324 2.06453,5.52753 1.34963,7.55158 -0.32615,0.92347 -3.1871,5.25048 -6.35763,9.6156 -6.21477,8.55637 -7.50567,9.7201 -11.1354,10.03853 -0.94708,0.0828 -6.81458,-1.31331 -13.03894,-3.10311 -10.84654,-3.11892 -12.44088,-3.25747 -10.24973,-0.89068 1.8034,1.94791 4.04746,7.6152 4.10038,10.35525 0.10203,5.28204 -1.65708,7.24117 -13.94314,15.5286 l -4.54847,3.0681 -1.40476,3.69351 -1.4048,3.69351 -8.02847,7.18139 c -6.96458,6.22972 -8.40047,7.32575 -10.83537,8.27071 -2.67891,1.03965 -2.90763,1.23362 -5.01654,4.25463 -3.00964,4.31129 -12.61485,13.32194 -16.08542,15.08975 -2.2935,1.16823 -2.72629,1.57382 -3.95218,3.70374 -1.73163,3.00863 -5.63392,6.70884 -9.72954,9.22572 -6.84937,4.20916 -8.1461,5.44766 -10.15199,9.69638 -1.21589,2.57536 -2.80887,4.95712 -4.71756,7.05349 -3.6949,4.05819 -10.89213,9.63721 -14.90499,11.5538 -2.98609,1.42619 -3.25172,1.6624 -5.78211,5.14174 -2.04031,2.80545 -4.24635,5.05849 -9.56127,9.76496 -6.10299,5.40434 -7.10726,6.47126 -8.60838,9.14524 -2.20428,3.92653 -11.99264,13.49561 -16.75831,16.38288 -2.84414,1.72312 -3.41107,2.28507 -6.13917,6.08527 -2.6333,3.66815 -3.487,4.5317 -6.8912,6.97052 -2.13704,1.53104 -5.23918,3.39253 -6.89363,4.13663 -3.8198,1.71804 -10.62518,3.05059 -15.70411,3.07503 l -3.94472,0.019 -0.55931,3.6322 c -1.55135,10.07474 -3.31014,14.14927 -8.81288,20.41658 -8.26148,9.40932 -19.51618,15.11559 -29.79425,15.10603 -2.67589,-0.003 -5.14439,0.25763 -5.48555,0.57807 -0.34117,0.32041 -0.81013,2.84803 -1.04213,5.61691 -1.4042,16.75867 -15.011594,32.82121 -32.526646,38.39538 -11.102378,3.53335 -23.377883,2.58787 -27.843577,-2.14456 -2.938709,-3.11425 -3.728948,-6.20086 -4.083216,-15.9488 -0.127717,-3.51424 -0.532696,-6.10124 -1.039586,-6.64098 -0.456702,-0.48629 -2.436471,-1.16 -4.399488,-1.49711 -9.131763,-1.56821 -17.386046,-7.39556 -22.580938,-15.94164 -6.0005907,-9.87153 -5.2767155,-22.3219 1.940683,-33.37911 3.213344,-4.92291 11.070927,-12.142 16.201474,-14.88498 7.539872,-4.03107 16.757601,-6.63532 23.910729,-6.7554 5.467848,-0.0918 8.306471,1.12367 11.982185,5.13056 2.940142,3.20507 2.948359,3.20977 3.527802,2.02072 0.319442,-0.6555 1.034619,-2.94374 1.589294,-5.08499 1.260168,-4.86471 2.52955,-7.37881 6.063882,-12.00994 7.120195,-9.32977 17.658236,-16.19852 26.192742,-17.07255 1.58416,-0.16217 3.16542,-0.56275 3.5139,-0.89003 0.3485,-0.32728 0.73757,-2.03502 0.86461,-3.79496 0.36522,-5.05963 1.11105,-6.24753 8.60837,-13.71081 6.17632,-6.14828 6.91424,-6.74786 10.55578,-8.57683 l 3.91526,-1.96641 1.1259,-3.42602 c 1.46154,-4.44726 4.77202,-8.52859 12.42269,-15.31527 5.71618,-5.07063 5.90266,-5.19152 9.23498,-5.98703 3.28401,-0.78399 3.46527,-0.89867 5.2691,-3.33362 1.02745,-1.38694 4.02425,-4.60888 6.65957,-7.15987 3.77248,-3.65177 5.40722,-4.92781 7.68683,-6.00009 2.62588,-1.23518 3.15221,-1.69123 5.65526,-4.90014 2.58486,-3.31379 3.00883,-3.66778 6.68379,-5.58083 5.06517,-2.63671 7.12703,-4.55881 8.96783,-8.35993 1.05829,-2.18531 2.57536,-4.20484 5.20341,-6.92676 5.38633,-5.57873 9.81252,-8.11096 17.46073,-9.98935 1.99276,-0.48941 2.23881,-0.68029 2.75281,-2.13553 0.31044,-0.87894 0.5458,-2.31836 0.52305,-3.19871 -0.0659,-2.55056 1.1694,-4.66631 5.66544,-9.70333 4.55063,-5.09814 7.16769,-7.27434 12.08718,-10.0509 2.77291,-1.56504 3.44463,-2.17132 5.44781,-4.91714 2.13143,-2.92162 2.56891,-3.28727 6.5132,-5.44394 6.33629,-3.46458 6.54513,-3.63734 7.70215,-6.37167 0.58554,-1.38375 1.81972,-3.44042 2.74264,-4.57037 0.92292,-1.12996 1.62577,-2.11011 1.56192,-2.17811 -0.0639,-0.0681 -8.79251,-2.6129 -19.39698,-5.65532 -18.97235,-5.44316 -19.31402,-5.56697 -21.35442,-7.73841 -2.29307,-2.4401 -2.83369,-4.46841 -2.08693,-7.82769 0.57074,-2.56745 17.38342,-26.53517 19.61299,-27.9598 3.79039,-2.42194 2.14262,-2.84312 57.52518,14.70402 3.47037,1.09953 6.31371,1.8736 6.31852,1.72013 0.005,-0.15346 -7.70753,-11.13078 -17.13854,-24.39403 -19.0747,-26.8256 -19.19821,-27.04359 -17.70105,-31.24563 1.23869,-3.4766 15.88482,-23.809131 18.08278,-25.103451 2.27866,-1.34185 5.17053,-1.665351 7.10001,-0.79425 1.76921,0.79874 2.34026,0.49318 2.66893,-1.428075 0.51196,-2.992485 2.13187,-4.669014 11.45221,-11.852444 10.0143,-7.718266 11.93498,-8.897736 15.03372,-9.23195 4.87607,-0.525951 4.70966,-0.613787 38.88172,20.527374 17.80753,11.016946 32.84116,20.240736 33.40808,20.497306 1.21452,0.54966 2.25974,4.99701 -9.64542,-41.040101 -4.81524,-18.620639 -8.81919,-34.984855 -8.8976,-36.364956 -0.19512,-3.434633 1.30009,-6.993411 4.00594,-9.534593 1.19502,-1.122287 5.52612,-4.66682 9.62471,-7.876742 6.34666,-4.970586 7.84891,-5.94098 10.12839,-6.54265 2.98394,-0.7875522 6.9148,-0.077 9.32583,1.685797 1.77396,1.297025 77.02834,96.895775 78.73573,100.021225 1.43286,2.62292 1.65454,6.60862 0.52078,9.36335 -1.1265,2.73714 -3.57885,5.01075 -13.32796,12.35661 z m 5.33028,-16.81568 c -0.22386,-1.1388 -7.01938,-10.31976 -9.90558,-13.38271 -0.53606,-0.57077 -1.0087,-0.33334 -2.92606,1.46733 -2.17322,2.04097 -2.25569,2.22659 -1.67351,3.76706 0.5202,1.37643 0.40085,1.82059 -0.79303,2.95133 -2.34255,2.21864 -2.24738,2.56363 2.24103,8.12701 2.2502,2.78914 4.24697,5.07604 4.43729,5.08202 0.42933,0.0134 5.3773,-3.53844 7.39758,-5.31041 1.14881,-1.00762 1.43215,-1.63394 1.22228,-2.70163 z m -11.36114,7.37668 c -0.83426,-1.12832 -2.92604,-3.77667 -4.64844,-5.88518 -3.44624,-4.2189 -3.39967,-3.64648 -0.59326,-7.27389 0.8402,-1.08602 1.052,-1.94127 0.72207,-2.91564 -0.42804,-1.26411 -0.25487,-1.57796 2.08108,-3.77175 1.68518,-1.58263 2.45313,-2.6136 2.2678,-3.04453 -0.26063,-0.60604 -40.36495,-51.929014 -41.63287,-53.279098 -0.49785,-0.53011 -1.21865,0.02033 -5.39396,4.118971 l -4.81927,4.730806 3.97661,7.608128 3.97665,7.608097 8.66785,9.239649 8.66783,9.239671 -4.20626,3.950275 -4.20629,3.95031 7.08055,8.900891 c 17.10045,21.49676 19.07235,23.91186 19.90263,24.37564 1.23508,0.68996 1.78826,0.38072 9.17685,-5.13003 0.28584,-0.21319 -0.14784,-1.24398 -1.01931,-2.42255 z m -35.88878,29.85855 c 0.1999,-0.59256 -0.20544,-3.58727 -0.90078,-6.65489 -1.14786,-5.0641 -12.09804,-51.921641 -15.41495,-65.963105 -0.75307,-3.18803 -1.25707,-5.792882 -1.11998,-5.788575 0.13708,0.0043 3.76888,4.481107 8.07067,9.948421 4.30179,5.467345 8.2283,10.373828 8.72557,10.903318 0.89861,0.95684 0.92669,0.94154 4.59809,-2.50644 l 3.69398,-3.469163 -8.42599,-8.971971 -8.42597,-8.971982 -3.11951,-5.980732 c -1.71578,-3.289378 -3.61763,-6.903276 -4.22639,-8.030847 l -1.10683,-2.050114 5.23294,-5.117934 5.23294,-5.117942 -11.01934,-14.012291 c -9.68275,-12.312708 -11.15343,-14.016531 -12.12503,-14.047 -0.71715,-0.02253 -2.78655,1.259795 -5.889,3.649121 -2.63084,2.026124 -4.77781,3.797453 -4.77111,3.936352 0.007,0.138875 2.00509,4.555412 4.44078,9.81453 l 4.42848,9.562076 -5.57009,5.231118 -5.57012,5.231128 1.8637,7.214142 c 1.02505,3.967771 5.2732,20.312751 9.44031,36.322199 4.16712,16.009451 7.60774,29.504411 7.64581,29.988821 0.038,0.4844 -0.18231,0.85604 -0.48977,0.82586 -0.30748,-0.0302 -5.66248,-3.24529 -11.90004,-7.1447 l -11.34101,-7.08986 -4.18258,3.92291 -4.18256,3.92289 10.0423,10.69307 10.0423,10.69305 -1.49054,1.39983 c -0.81981,0.76993 -1.49634,1.58457 -1.50344,1.81036 -0.011,0.34983 8.65073,5.60713 22.33592,13.55703 2.40493,1.39706 3.88947,1.92248 4.79575,1.69739 0.72195,-0.17931 3.16501,-1.68471 5.42905,-3.34533 5.44777,-3.99582 6.32556,-4.78321 6.75652,-6.06066 z M 361.56042,217.841 c 2.68774,-3.72823 3.77016,-5.65429 3.80521,-6.77088 0.0402,-1.28129 -1.46418,-3.84894 -8.40856,-14.3514 -4.65165,-7.035 -8.67346,-13.02181 -8.93736,-13.30402 -0.27067,-0.28976 -0.64971,0.7834 -0.86987,2.46345 -0.34122,2.60398 -0.65531,3.22569 -2.50921,4.96678 -1.75613,1.64924 -2.20567,2.45838 -2.62402,4.72299 l -0.50484,2.73279 2.62913,2.79951 2.62914,2.79951 -3.38078,6.72468 c -1.85941,3.69858 -3.63425,7.23615 -3.94408,7.86126 -0.54523,1.10008 -0.30909,1.20858 7.35602,3.37987 6.71608,1.90247 9.87144,2.30323 10.81314,1.37333 0.10439,-0.10313 1.88015,-2.53214 3.94608,-5.39787 z m 33.34,-33.03403 c -0.0248,-1.33703 -8.46548,-14.01285 -9.74199,-14.63003 -0.49232,-0.23805 -3.17631,1.50233 -9.1867,5.95692 -4.67016,3.46128 -8.49108,6.40697 -8.49096,6.546 3.6e-4,0.46438 8.36275,12.43762 9.62645,13.7832 0.68524,0.72966 1.67301,1.30043 2.19501,1.2684 0.52202,-0.032 3.68895,-2.18254 7.03764,-4.77889 8.33947,-6.46588 8.58732,-6.7017 8.56055,-8.1456 z M 180.85251,379.86771 c 0.77262,-1.48851 1.6955,-4.04318 2.05082,-5.6771 0.71977,-3.30988 1.36695,-3.55146 3.49684,-1.3053 0.84995,0.89635 1.44824,1.09778 2.19633,0.73945 0.56548,-0.27085 3.87834,-3.40555 7.36192,-6.96601 l 6.33377,-6.47353 -2.04012,-2.1904 c -3.34748,-3.59408 -33.98975,-33.83055 -38.00084,-37.49755 -2.74466,-2.50922 -3.96715,-3.34194 -4.69569,-3.19851 -0.64701,0.12734 -3.26133,2.55695 -7.61961,7.08122 l -6.63466,6.88729 2.62871,2.65379 c 1.44578,1.45959 6.8889,6.8855 12.09583,12.05757 10.07973,10.01231 11.63565,11.91665 11.94106,14.61515 0.38827,3.43032 -0.27268,5.16171 -2.91904,7.64702 -4.34999,4.08528 -7.98252,3.5747 -13.06638,-1.83655 -3.32383,-3.53767 -11.07248,-13.55407 -15.26616,-19.73349 -1.47408,-2.1721 -3.00738,-4.1075 -3.40733,-4.30087 -0.99961,-0.48333 -15.74548,13.25233 -15.65486,14.58237 0.0322,0.47286 2.24502,3.74593 4.91732,7.27352 15.17957,20.0378 21.69689,26.07413 30.30933,28.07255 4.00214,0.92864 6.5899,0.85779 10.532,-0.28838 5.80704,-1.68838 12.91641,-7.27902 15.44076,-12.14224 z m 63.83924,-59.85891 c 0.076,-0.41037 -4.19697,-5.24815 -11.56504,-13.09368 -10.46568,-11.14387 -11.79254,-12.70614 -12.71002,-14.96511 -1.14286,-2.81384 -0.92925,-4.05851 1.00879,-5.87862 2.95621,-2.77629 7.51155,-0.37851 12.81569,6.74576 1.73437,2.32954 5.3489,7.69139 8.03227,11.91526 3.04762,4.79722 5.1418,7.68357 5.57942,7.68994 0.82915,0.012 16.52949,-11.39772 16.54923,-12.02669 0.0483,-1.54123 -10.82706,-16.51316 -15.96305,-21.97594 -8.88016,-9.44515 -16.48636,-13.87058 -23.67272,-13.77313 -5.85412,0.0794 -8.94693,1.52353 -14.66139,6.84595 -5.2766,4.91466 -6.50578,7.0686 -7.24266,12.69189 l -0.3893,2.97086 -3.57235,0.0776 c -7.2045,0.15648 -12.31462,5.22 -13.24589,13.12513 -0.29996,2.54625 -1.12681,2.69767 -3.13996,0.57498 -1.92693,-2.03177 -2.57865,-1.69433 -9.08269,4.70288 -3.24903,3.19567 -5.88019,6.11152 -5.87523,6.51092 0.005,0.43189 7.90405,8.93661 19.60279,21.10681 l 19.59382,20.38346 6.91516,-6.29515 c 5.11758,-4.65874 6.96997,-6.5886 7.12595,-7.42406 0.18945,-1.01475 -0.98078,-2.45583 -11.57097,-14.24915 -10.48306,-11.67403 -11.81526,-13.31103 -12.08594,-14.85103 -0.26242,-1.49307 -0.0704,-1.91972 1.39786,-3.10633 3.65611,-2.95477 6.27879,-1.13578 20.17089,13.9898 6.73458,7.33255 10.62618,11.2843 11.12824,11.30031 0.44189,0.0141 3.47621,-2.41985 7.09532,-5.69146 3.47779,-3.14385 6.61979,-5.92629 6.98224,-6.1832 0.36244,-0.25692 0.71324,-0.76001 0.77954,-1.11797 z m 64.59616,-60.66501 c 0.12005,-0.49349 -2.98842,-4.0308 -10.6521,-12.12157 -11.42832,-12.06522 -13.81786,-15.19175 -14.10409,-18.4542 -0.17862,-2.02708 0.90073,-3.60293 3.00047,-4.38371 4.30362,-1.60026 10.70553,5.04811 20.46993,21.25797 2.92135,4.84974 3.64185,5.7803 4.48684,5.79508 1.11384,0.0194 16.82428,-11.23393 16.85052,-12.07005 0.009,-0.27783 -1.72489,-2.99845 -3.85249,-6.0458 -14.99845,-21.48237 -27.45933,-31.09911 -38.17728,-29.46351 -4.28322,0.65365 -7.50461,2.3098 -11.99242,6.16544 -4.60144,3.95327 -6.81763,7.44428 -7.44281,11.72417 -0.75493,5.16803 -0.65615,4.99264 -2.60377,4.6237 -0.96696,-0.18316 -3.02311,-0.0467 -4.56927,0.30324 -2.39806,0.54275 -3.23846,1.04005 -5.71899,3.38408 -3.18057,3.0056 -4.46831,5.66935 -4.45744,9.22052 0.008,2.52124 -0.75681,3.14918 -2.0969,1.72224 -0.58946,-0.62766 -1.66391,-1.42977 -2.38767,-1.78246 l -1.31592,-0.64128 -5.14071,4.87 c -2.82737,2.67851 -5.71177,5.6355 -6.40975,6.57109 l -1.26908,1.70109 19.06799,20.11329 c 11.2695,11.8873 19.48778,20.25493 20.09442,20.45959 0.92601,0.3124 1.68819,-0.2752 7.78966,-6.00534 5.30179,-4.97914 6.77043,-6.58138 6.79658,-7.4149 0.0267,-0.84884 -2.31408,-3.67152 -11.60577,-13.99547 -7.41226,-8.23572 -11.80953,-13.43536 -12.10831,-14.31773 -0.51751,-1.52824 0.70215,-3.99727 2.34646,-4.75012 0.56292,-0.25773 2.01766,-0.11138 3.23276,0.3254 2.05299,0.73786 3.0616,1.68503 14.25605,13.38745 9.18469,9.60149 12.25573,12.58059 12.92638,12.53943 0.5135,-0.0315 3.58446,-2.50218 7.37797,-5.93574 3.57409,-3.23495 6.62005,-5.92748 6.76877,-5.98339 0.14873,-0.056 0.34671,-0.41524 0.43996,-0.79851 z M 94.502657,458.40217 c 3.932878,-7.12429 4.74637,-13.89007 2.497081,-20.76842 -1.006171,-3.07688 -1.421351,-3.67745 -5.669891,-8.20127 -4.554082,-4.8492 -4.611539,-4.89144 -8.743495,-6.42441 -7.581061,-2.81262 -14.008861,-2.59626 -27.129711,0.91313 -9.892003,2.64578 -13.414609,2.21469 -13.979866,-1.71084 -0.201761,-1.40119 -0.006,-1.68487 2.656669,-3.84953 2.279667,-1.85328 3.863972,-2.6364 7.656108,-3.78444 2.629885,-0.79616 6.147311,-1.58744 7.816505,-1.75838 1.669201,-0.17095 3.365349,-0.62114 3.769234,-1.00045 0.500011,-0.46958 0.393657,-2.57041 -0.333307,-6.58373 -0.587201,-3.24172 -1.207735,-6.23721 -1.378963,-6.65662 -0.593319,-1.45325 -11.731993,-0.38589 -17.712803,1.6973 -4.021325,1.40068 -10.790474,5.54399 -14.021595,8.58244 -5.428347,5.10457 -9.361501,12.61631 -9.802115,18.72034 -0.676601,9.37327 5.996052,18.94959 15.470174,22.20214 5.937621,2.03844 12.817464,1.7875 25.449953,-0.92827 10.39789,-2.23537 14.16714,-1.80278 15.291104,1.75491 1.489897,4.71598 -8.755823,10.70366 -19.785314,11.56269 -2.300121,0.17923 -4.305345,0.60316 -4.456028,0.94224 -0.259946,0.58492 -0.08019,3.38619 0.693169,10.80203 0.188531,1.80788 0.584517,3.54445 0.879964,3.85903 1.056326,1.12478 12.768672,0.97558 16.993736,-0.21648 7.147851,-2.01669 10.222705,-3.92475 16.875664,-10.47196 3.891569,-3.82972 5.154645,-5.40436 6.963727,-8.68146 z m 45.470223,-42.49596 c 3.26559,-6.09538 3.88768,-13.04564 1.77108,-19.78767 -1.33465,-4.25126 -3.00691,-6.84294 -4.35183,-6.74448 -1.02753,0.0752 -11.40729,5.35622 -12.44727,6.33292 -0.36182,0.33981 -0.44668,1.71047 -0.18857,3.04593 1.27017,6.57155 -2.4574,12.40642 -8.2504,12.91466 -4.40812,0.38675 -9.79259,-2.79237 -12.65859,-7.4739 -4.959484,-8.10127 1.84845,-17.73801 10.88777,-15.41177 1.71723,0.44193 3.04226,0.44078 3.53265,-0.003 0.43161,-0.39063 2.51853,-3.37912 4.63764,-6.64107 l 3.85291,-5.93084 -1.54223,-1.25595 c -2.54728,-2.07441 -8.84643,-4.10525 -13.36709,-4.30953 -7.3235,-0.33094 -13.256116,2.12555 -19.661557,8.14117 -8.080591,7.58883 -11.290198,15.64847 -9.853706,24.74359 0.81562,5.16404 2.506565,8.94736 6.207721,13.88904 7.222537,9.64337 16.179802,14.67947 26.021792,14.63044 5.39683,-0.0269 10.07827,-1.76602 16.87492,-6.2689 2.25904,-1.49665 6.96304,-6.9369 8.53476,-9.87058 z M 344.8193,204.35499 c 0.12156,-0.49178 -0.70497,-1.72464 -2.28216,-3.40405 l -2.47277,-2.633 0.5587,-2.84412 c 0.46532,-2.36866 0.91601,-3.17969 2.69604,-4.85139 1.91516,-1.79861 2.19529,-2.37806 2.69481,-5.57449 0.30661,-1.96197 0.57304,-3.65252 0.59206,-3.75678 0.0481,-0.26312 -8.41306,-13.0008 -9.19513,-13.84278 -0.54499,-0.58653 -1.02274,-0.32013 -3.35718,1.87226 l -2.72187,2.55622 -5.96174,-6.34805 c -5.88701,-6.2685 -5.96029,-6.37093 -5.84727,-8.17423 0.0875,-1.39711 -0.25338,-2.21781 -1.45099,-3.49304 l -1.56542,-1.66684 3.29477,-3.30571 3.29478,-3.30569 -13.44472,-20.30402 c -7.39461,-11.16721 -14.03103,-20.95304 -14.74765,-21.7463 -0.84026,-0.93016 -1.58181,-1.32842 -2.08831,-1.12163 -0.43197,0.17636 -2.27906,2.41731 -4.10464,4.9799 l -3.31926,4.65924 2.26432,2.41105 c 1.80054,1.9172 2.2404,2.70476 2.14758,3.84517 -0.0814,0.99945 0.34706,1.92795 1.41338,3.06337 1.06632,1.13543 1.4947,2.06393 1.41336,3.06338 -0.10461,1.28554 0.34706,1.92796 4.35891,6.19979 l 4.47563,4.76564 -0.25096,2.13021 c -0.21932,1.86186 -0.60508,2.46279 -3.06216,4.77035 l -2.81122,2.64014 15.80072,22.23961 c 8.6904,12.2318 15.67952,22.45915 15.53136,22.72746 -0.14814,0.2683 -4.44937,-0.85199 -9.55825,-2.48957 -5.10889,-1.63756 -9.36897,-2.90217 -9.46684,-2.81026 -0.15322,0.1439 -1.5597,10.9945 -1.79003,13.80962 -0.068,0.83113 0.53222,1.43412 3.89155,3.90939 2.18457,1.60968 6.22767,5.15908 8.98466,7.88755 l 5.0127,4.96089 6.22277,1.86484 c 3.42252,1.02567 6.55701,1.91757 6.96553,1.982 0.52317,0.0825 1.77048,-1.95438 4.21855,-6.88897 1.91167,-3.85336 3.56154,-7.35308 3.66639,-7.77716 z m 36.64246,-39.85773 c -1.50496,-2.10837 -2.95253,-4.12428 -3.21683,-4.47979 -0.39298,-0.52858 -1.29329,0.0502 -4.94036,3.17614 -3.22443,2.76363 -4.99599,3.96184 -6.39541,4.32552 -1.41085,0.36665 -2.56081,1.14903 -4.24173,2.88591 l -2.30612,2.38287 2.27715,3.34985 c 1.25245,1.84241 2.68947,3.81084 3.19339,4.37432 l 0.91619,1.0245 7.45535,-5.50292 c 4.10045,-3.02658 8.02668,-5.99792 8.72498,-6.60295 l 1.26964,-1.10002 -2.73627,-3.83342 z m 6.71493,-30.27239 -10.04231,-10.69305 4.27723,-4.01692 c 3.76271,-3.53373 4.20271,-4.09626 3.65777,-4.67651 -0.55016,-0.58582 -31.59244,-19.957631 -35.61237,-22.223771 l -1.59155,-0.897201 -8.69058,8.358212 -8.69058,8.35821 2.20178,4.70127 2.20179,4.70126 -3.97797,3.73589 c -2.18789,2.05473 -3.93188,3.96269 -3.87558,4.23989 0.0772,0.37963 30.77947,44.93837 31.47202,45.67579 0.075,0.0799 1.28076,-0.9294 2.67938,-2.24291 1.77558,-1.66752 3.22332,-2.5855 4.79766,-3.0421 1.80953,-0.52481 3.02207,-1.37458 6.14098,-4.30368 l 3.88626,-3.64973 -0.96915,-1.46815 c -0.53303,-0.80748 -6.01297,-8.58627 -12.17767,-17.28619 -6.16468,-8.69991 -11.40002,-16.13212 -11.6341,-16.51601 -0.50825,-0.83352 2.40775,0.81601 25.40895,14.37337 l 17.59382,10.37017 1.49326,-1.40239 1.49326,-1.40239 -10.0423,-10.69306 z m -82.58819,56.0191 c 0.40982,-3.31358 0.66987,-6.1048 0.57793,-6.2027 -0.0919,-0.0979 -10.52096,-3.44035 -23.17558,-7.42762 l -23.00838,-7.2496 -2.0249,1.90166 c -1.53104,1.43788 -2.01839,2.2525 -1.99831,3.34027 0.0217,1.17173 -0.46726,1.90241 -2.63505,3.93828 l -2.6616,2.49962 3.65174,3.88838 3.65175,3.88838 -2.91628,2.73881 c -1.60395,1.50635 -2.82442,2.83663 -2.71216,2.95617 0.11226,0.11955 4.71205,1.52339 10.22174,3.11967 l 10.01762,2.90229 2.11761,-1.47405 c 3.10824,-2.16361 8.56648,-4.16255 12.54646,-4.59481 2.84304,-0.3088 11.31766,0.95215 12.11656,1.8028 0.10692,0.1139 1.3236,0.70027 2.70362,1.30307 2.29183,1.00103 2.52097,0.99194 2.64563,-0.10498 0.0751,-0.66053 0.47179,-3.91206 0.8816,-7.22564 z m 30.71742,-24.75882 c -0.0704,-0.075 -2.86847,-4.28038 -6.21782,-9.34523 -3.34933,-5.06484 -6.13016,-9.25313 -6.17962,-9.30731 -0.0493,-0.0542 -1.40224,1.13398 -3.00621,2.64032 l -2.91629,2.73881 1.39704,1.48758 c 1.01802,1.084 1.366,1.98301 1.2826,3.31375 -0.11161,1.78115 0.013,1.96188 5.05609,7.33174 2.84379,3.02806 5.39672,5.51267 5.67319,5.52134 0.5061,0.0159 5.14984,-4.12669 4.91102,-4.381 z m -4.10436,-52.78534 -2.22696,-4.6776 8.92514,-8.381981 c 5.6293,-5.28673 8.79169,-8.524109 8.56372,-8.766848 -0.1988,-0.21167 -3.80412,-2.506274 -8.01184,-5.099107 -4.20773,-2.592842 -8.54784,-5.271877 -9.64469,-5.953409 -1.11966,-0.695712 -2.59876,-1.127351 -3.37262,-0.98421 -0.85805,0.158724 -4.71656,2.809371 -10.22166,7.021926 -9.41319,7.203078 -10.16345,8.043508 -9.00225,10.084198 0.77453,1.36116 18.84967,27.464171 19.48927,28.145221 0.37354,0.39776 1.3004,-0.30172 4.10565,-3.09843 l 3.62321,-3.61215 -2.22697,-4.67761 z m -79.57781,71.9907 -3.46916,-3.69396 2.91299,-2.73571 c 2.49189,-2.34023 2.87763,-2.91409 2.66832,-3.96951 -0.1943,-0.97974 0.17642,-1.62928 1.80039,-3.15441 1.1248,-1.05635 1.95787,-2.01347 1.85129,-2.12697 -0.43172,-0.45968 -8.75133,-2.84957 -10.27472,-2.95151 -0.90014,-0.0602 -2.01027,0.24136 -2.46695,0.6703 -1.10375,1.03657 -13.97504,19.37201 -14.20931,20.24147 -0.35104,1.30284 1.04779,1.94457 9.80767,4.49927 l 8.81844,2.57179 3.01495,-2.82854 3.01497,-2.82854 -3.46916,-3.69398 z M 398.32456,35.820677 c -3.09209,-6.710302 -4.29644,-8.875151 -4.87586,-8.764818 -1.22755,0.233798 -5.79378,4.795607 -5.99387,5.988078 -0.16202,0.965752 3.91002,17.985882 4.85956,20.311555 0.35261,0.863638 0.73359,0.584457 5.24833,-3.846089 l 4.86816,-4.777344 -4.10632,-8.911382 z M 300.06591,137.52117 c 0.26321,-1.73848 0.19268,-1.84795 -4.21389,-6.54006 -4.01783,-4.27818 -4.46951,-4.92041 -4.36487,-6.20614 0.0814,-0.99945 -0.34705,-1.92795 -1.41338,-3.06338 -1.06632,-1.13542 -1.4947,-2.06393 -1.41336,-3.06338 0.089,-1.09338 -0.34705,-1.92796 -1.83515,-3.51248 -1.07352,-1.14309 -2.11822,-1.92211 -2.32156,-1.73114 -0.73101,0.68651 -3.72744,5.07272 -4.36523,6.38982 -0.35823,0.73982 -0.4871,1.9101 -0.28637,2.60063 0.29792,1.02484 13.00078,19.41837 14.54957,21.06752 0.30516,0.32494 1.23012,-0.26042 2.92156,-1.84891 1.91511,-1.79858 2.53555,-2.72436 2.74268,-4.09248 z"
       style="fill:#000000" /></g></svg>