<?xml version="1.0" encoding="UTF-8" standalone="no"?>
<!-- Generator: Adobe Illustrator 19.0.0, SVG Export Plug-In . SVG Version: 6.00 Build 0)  -->

<svg
   xmlns:dc="http://purl.org/dc/elements/1.1/"
   xmlns:cc="http://creativecommons.org/ns#"
   xmlns:rdf="http://www.w3.org/1999/02/22-rdf-syntax-ns#"
   xmlns:svg="http://www.w3.org/2000/svg"
   xmlns="http://www.w3.org/2000/svg"
   xmlns:sodipodi="http://sodipodi.sourceforge.net/DTD/sodipodi-0.dtd"
   xmlns:inkscape="http://www.inkscape.org/namespaces/inkscape"
   version="1.1"
   id="Layer_1"
   x="0px"
   y="0px"
   viewBox="0 0 500 500"
   xml:space="preserve"
   inkscape:version="0.91 r13725"
   width="100%"
   height="100%"
   sodipodi:docname="share.svg"><metadata
     id="metadata57"><rdf:RDF><cc:Work
         rdf:about=""><dc:format>image/svg+xml</dc:format><dc:type
           rdf:resource="http://purl.org/dc/dcmitype/StillImage" /></cc:Work></rdf:RDF></metadata><defs
     id="defs55" /><sodipodi:namedview
     pagecolor="#ffffff"
     bordercolor="#666666"
     borderopacity="1"
     objecttolerance="10"
     gridtolerance="10"
     guidetolerance="10"
     inkscape:pageopacity="0"
     inkscape:pageshadow="2"
     inkscape:window-width="1366"
     inkscape:window-height="715"
     id="namedview53"
     showgrid="false"
     inkscape:zoom="0.7433037"
     inkscape:cx="563.91742"
     inkscape:cy="238.18247"
     inkscape:window-x="0"
     inkscape:window-y="24"
     inkscape:window-maximized="1"
     inkscape:current-layer="Layer_1" /><g
     id="g23"
     transform="translate(0,39.767)" /><g
     id="g25"
     transform="translate(0,39.767)" /><g
     id="g27"
     transform="translate(0,39.767)" /><g
     id="g29"
     transform="translate(0,39.767)" /><g
     id="g31"
     transform="translate(0,39.767)" /><g
     id="g33"
     transform="translate(0,39.767)" /><g
     id="g35"
     transform="translate(0,39.767)" /><g
     id="g37"
     transform="translate(0,39.767)" /><g
     id="g39"
     transform="translate(0,39.767)" /><g
     id="g41"
     transform="translate(0,39.767)" /><g
     id="g43"
     transform="translate(0,39.767)" /><g
     id="g45"
     transform="translate(0,39.767)" /><g
     id="g47"
     transform="translate(0,39.767)" /><g
     id="g49"
     transform="translate(0,39.767)" /><g
     id="g51"
     transform="translate(0,39.767)" /><g
     id="g4250"
     transform="matrix(7.4670549,0,0,7.4670549,-2328.1881,-2307.7158)"><path
       inkscape:connector-curvature="0"
       id="path3418"
       d="m 324.92931,333.40312 7.01586,3.15119 1.12967,-3.62684 -6.59966,-2.91336 z"
       style="fill:#00bbf2;fill-opacity:1;fill-rule:evenodd;stroke:none;stroke-width:1px;stroke-linecap:butt;stroke-linejoin:miter;stroke-opacity:1" /><path
       inkscape:connector-curvature="0"
       id="path3418-5"
       d="m 350.20787,350.85834 4.16979,6.46258 2.92196,-2.42738 -3.95014,-6.03653 z"
       style="fill:#f03916;fill-opacity:1;fill-rule:evenodd;stroke:none;stroke-width:1px;stroke-linecap:butt;stroke-linejoin:miter;stroke-opacity:1" /><path
       inkscape:connector-curvature="0"
       id="path3418-3"
       d="m 358.59516,333.33742 5.62959,-5.24022 -2.90294,-2.45011 -5.24874,4.94913 z"
       style="fill:#ffcc00;fill-opacity:1;fill-rule:evenodd;stroke:none;stroke-width:1px;stroke-linecap:butt;stroke-linejoin:miter;stroke-opacity:1" /><path
       d="m 360.93439,339.33179 a 15,15 0 0 1 -14.9824,14.99999 15,15 0 0 1 -15.01756,-14.96478 15,15 0 0 1 14.94714,-15.03512 15,15 0 0 1 15.05265,14.92948"
       sodipodi:open="true"
       sodipodi:end="6.2784904"
       sodipodi:start="0"
       sodipodi:ry="15"
       sodipodi:rx="15"
       sodipodi:cy="339.33179"
       sodipodi:cx="345.93439"
       sodipodi:type="arc"
       id="path3371"
       style="fill:#45d03f;fill-opacity:1;stroke:none;stroke-width:15;stroke-linecap:round;stroke-miterlimit:4;stroke-dasharray:none;stroke-opacity:1" /><path
       d="m 377.06599,321.74176 a 8.7777786,8.7777786 0 0 1 -8.76748,8.77777 8.7777786,8.7777786 0 0 1 -8.78806,-8.75716 8.7777786,8.7777786 0 0 1 8.74685,-8.79833 8.7777786,8.7777786 0 0 1 8.80859,8.73651"
       sodipodi:open="true"
       sodipodi:end="6.2784904"
       sodipodi:start="0"
       sodipodi:ry="8.7777786"
       sodipodi:rx="8.7777786"
       sodipodi:cy="321.74176"
       sodipodi:cx="368.28821"
       sodipodi:type="arc"
       id="path3371-3"
       style="fill:#ffcc00;fill-opacity:1;stroke:none;stroke-width:15;stroke-linecap:round;stroke-miterlimit:4;stroke-dasharray:none;stroke-opacity:1" /><path
       d="m 327.46415,329.41953 a 6.5778913,6.5778913 0 0 1 -6.57017,6.57788 6.5778913,6.5778913 0 0 1 -6.58559,-6.56244 6.5778913,6.5778913 0 0 1 6.55471,-6.5933 6.5778913,6.5778913 0 0 1 6.60098,6.54697"
       sodipodi:open="true"
       sodipodi:end="6.2784904"
       sodipodi:start="0"
       sodipodi:ry="6.5778913"
       sodipodi:rx="6.5778913"
       sodipodi:cy="329.41953"
       sodipodi:cx="320.88626"
       sodipodi:type="arc"
       id="path3371-3-6"
       style="fill:#00bbf2;fill-opacity:1;stroke:none;stroke-width:15;stroke-linecap:round;stroke-miterlimit:4;stroke-dasharray:none;stroke-opacity:1" /><path
       d="m 371.83909,362.27026 a 10.950263,10.950263 0 0 1 -10.93741,10.95026 10.950263,10.950263 0 0 1 -10.96309,-10.92455 10.950263,10.950263 0 0 1 10.91168,-10.9759 10.950263,10.950263 0 0 1 10.9887,10.89878"
       sodipodi:open="true"
       sodipodi:end="6.2784904"
       sodipodi:start="0"
       sodipodi:ry="10.950263"
       sodipodi:rx="10.950263"
       sodipodi:cy="362.27026"
       sodipodi:cx="360.88882"
       sodipodi:type="arc"
       id="path3371-3-6-7"
       style="fill:#f03916;fill-opacity:1;stroke:none;stroke-width:15;stroke-linecap:round;stroke-miterlimit:4;stroke-dasharray:none;stroke-opacity:1" /></g></svg>