<?xml version="1.0" encoding="UTF-8" standalone="no"?>
<!-- Created with Inkscape (http://www.inkscape.org/) -->

<svg
   xmlns:dc="http://purl.org/dc/elements/1.1/"
   xmlns:cc="http://creativecommons.org/ns#"
   xmlns:rdf="http://www.w3.org/1999/02/22-rdf-syntax-ns#"
   xmlns:svg="http://www.w3.org/2000/svg"
   xmlns="http://www.w3.org/2000/svg"
   xmlns:sodipodi="http://sodipodi.sourceforge.net/DTD/sodipodi-0.dtd"
   xmlns:inkscape="http://www.inkscape.org/namespaces/inkscape"
   width="128"
   height="128"
   id="svg2"
   version="1.1"
   inkscape:version="0.91 r13725"
   viewBox="0 0 36.124443 36.124448"
   sodipodi:docname="simdock.svg">
  <defs
     id="defs4">
    <linearGradient
       id="linearGradient896">
      <stop
         style="stop-color:#394050;stop-opacity:1"
         offset="0"
         id="stop898" />
      <stop
         style="stop-color:#5d6a7b;stop-opacity:1"
         offset="1"
         id="stop900" />
    </linearGradient>
  </defs>
  <sodipodi:namedview
     id="base"
     pagecolor="#ffffff"
     bordercolor="#666666"
     borderopacity="1.0"
     inkscape:pageopacity="0"
     inkscape:pageshadow="2"
     inkscape:zoom="4.4501163"
     inkscape:cx="75.85779"
     inkscape:cy="58.655996"
     inkscape:document-units="px"
     inkscape:current-layer="layer1"
     showgrid="false"
     inkscape:showpageshadow="false"
     borderlayer="true"
     units="px"
     fit-margin-top="0"
     fit-margin-left="0"
     fit-margin-right="0"
     fit-margin-bottom="0"
     showguides="false"
     inkscape:window-width="1366"
     inkscape:window-height="715"
     inkscape:window-x="0"
     inkscape:window-y="24"
     inkscape:window-maximized="1">
    <sodipodi:guide
       position="-6.6748425e-06,47.999999"
       orientation="47.999977,0"
       id="guide4120"
       inkscape:locked="false" />
    <sodipodi:guide
       position="-6.6748425e-06,2.2810037e-05"
       orientation="0,48.000004"
       id="guide4122"
       inkscape:locked="false" />
    <sodipodi:guide
       position="47.999997,2.2810037e-05"
       orientation="-47.999977,0"
       id="guide4124"
       inkscape:locked="false" />
    <sodipodi:guide
       position="47.999997,47.999999"
       orientation="0,-48.000004"
       id="guide4126"
       inkscape:locked="false" />
    <sodipodi:guide
       position="3.9999733,44.000154"
       orientation="39.999962,0"
       id="guide4138"
       inkscape:locked="false" />
    <sodipodi:guide
       position="70.014646,-11.415433"
       orientation="0,40.000003"
       id="guide4140"
       inkscape:locked="false" />
    <sodipodi:guide
       position="43.999976,4.0001921"
       orientation="-39.999962,0"
       id="guide4142"
       inkscape:locked="false" />
    <sodipodi:guide
       position="43.999976,44.000154"
       orientation="0,-40.000003"
       id="guide4144"
       inkscape:locked="false" />
    <sodipodi:guide
       position="6.9999922,47.999999"
       orientation="39.999962,0"
       id="guide4148"
       inkscape:locked="false" />
    <sodipodi:guide
       position="6.9999922,8.0000369"
       orientation="0,34.000006"
       id="guide4150"
       inkscape:locked="false" />
    <sodipodi:guide
       position="40.999998,8.0000369"
       orientation="-39.999962,0"
       id="guide4152"
       inkscape:locked="false" />
    <sodipodi:guide
       position="40.999998,47.999999"
       orientation="0,-34.000006"
       id="guide4154"
       inkscape:locked="false" />
    <sodipodi:guide
       position="14.999993,32.999986"
       orientation="17.999951,0"
       id="guide4158"
       inkscape:locked="false" />
    <sodipodi:guide
       position="14.999993,15.000036"
       orientation="0,17.999998"
       id="guide4160"
       inkscape:locked="false" />
    <sodipodi:guide
       position="32.999991,15.000036"
       orientation="-17.999951,0"
       id="guide4162"
       inkscape:locked="false" />
    <sodipodi:guide
       position="32.999991,32.999986"
       orientation="0,-17.999998"
       id="guide4164"
       inkscape:locked="false" />
    <sodipodi:guide
       position="1.9999969,44.000046"
       orientation="39.999962,0"
       id="guide3279"
       inkscape:locked="false" />
    <sodipodi:guide
       position="1.9999969,4.0000839"
       orientation="0,44.000003"
       id="guide3281"
       inkscape:locked="false" />
    <sodipodi:guide
       position="46,4.0000839"
       orientation="-39.999962,0"
       id="guide3283"
       inkscape:locked="false" />
    <sodipodi:guide
       position="46,44.000046"
       orientation="0,-44.000003"
       id="guide3285"
       inkscape:locked="false" />
  </sodipodi:namedview>
  <metadata
     id="metadata7">
    <rdf:RDF>
      <cc:Work
         rdf:about="">
        <dc:format>image/svg+xml</dc:format>
        <dc:type
           rdf:resource="http://purl.org/dc/dcmitype/StillImage" />
        <dc:title />
      </cc:Work>
    </rdf:RDF>
  </metadata>
  <g
     inkscape:label="Capa 1"
     inkscape:groupmode="layer"
     id="layer1"
     transform="translate(38.119153,-375.26716)">
    <g
       id="g3414">
      <rect
         transform="scale(1,-1)"
         y="-405.99591"
         x="-36.940502"
         height="25.455061"
         width="33.605057"
         id="rect907"
         style="fill:#00bbf2;fill-opacity:1;stroke:none" />
      <rect
         transform="scale(1,-1)"
         style="fill:#394050;fill-opacity:1;stroke:none;stroke-width:0.87196738"
         id="rect920"
         width="25.550825"
         height="2.994714"
         x="-32.754845"
         y="-405.99591" />
      <rect
         transform="scale(1,-1)"
         y="-405.45831"
         x="-27.747149"
         height="1.7925723"
         width="1.8286616"
         id="rect825"
         style="fill:#f03916;fill-opacity:1;stroke:none" />
      <rect
         transform="scale(1,-1)"
         style="fill:#ffcc00;fill-opacity:1;stroke:none"
         id="rect827"
         width="1.8286616"
         height="1.7925723"
         x="-24.390985"
         y="-405.45831" />
      <ellipse
         transform="scale(1,-1)"
         id="path3303"
         style="fill:none;stroke:none"
         cx="-4.8640146"
         cy="-404.49847"
         rx="1.5285611"
         ry="1.4974031" />
      <ellipse
         transform="scale(1,-1)"
         style="fill:none;stroke:none"
         id="path3305"
         cx="-25.155266"
         cy="-404.56189"
         rx="0.76428056"
         ry="0.74870157" />
      <ellipse
         transform="scale(1,-1)"
         id="path3307"
         style="fill:none;stroke:none"
         cx="-28.511431"
         cy="-404.56189"
         rx="0.76428056"
         ry="0.74870157" />
      <rect
         transform="scale(1,-1)"
         style="fill:#45d03f;fill-opacity:1;stroke:none"
         id="rect3309"
         width="1.8286616"
         height="1.7925723"
         x="-31.103315"
         y="-405.45831" />
      <ellipse
         transform="scale(1,-1)"
         id="path3317"
         style="fill:none;stroke:none"
         cx="-2.5722184"
         cy="-393.26828"
         rx="0.76428056"
         ry="0.74870157" />
      <rect
         transform="scale(1,-1)"
         y="-405.37521"
         x="-17.661257"
         height="1.7925724"
         width="1.8286616"
         id="rect825-3"
         style="fill:#00bbf2;fill-opacity:1;stroke:none;stroke-width:1" />
      <rect
         transform="scale(1,-1)"
         style="fill:#ff7f2a;fill-opacity:1;stroke:none;stroke-width:1"
         id="rect827-6"
         width="1.8286616"
         height="1.7925724"
         x="-14.305093"
         y="-405.37521" />
      <ellipse
         transform="scale(1,-1)"
         style="fill:none;stroke:none;stroke-width:1"
         id="path3305-7"
         cx="-15.069375"
         cy="-404.47879"
         rx="0.76428062"
         ry="0.74870157" />
      <ellipse
         transform="scale(1,-1)"
         id="path3307-5"
         style="fill:none;stroke:none;stroke-width:1"
         cx="-18.425537"
         cy="-404.47879"
         rx="0.76428062"
         ry="0.74870157" />
      <rect
         transform="scale(1,-1)"
         style="fill:#ffffff;fill-opacity:1;stroke:none;stroke-width:1"
         id="rect3309-3"
         width="1.8286616"
         height="1.7925724"
         x="-21.017424"
         y="-405.37521" />
      <rect
         transform="scale(1,-1)"
         style="fill:#ff5599;fill-opacity:1;stroke:none;stroke-width:1"
         id="rect827-6-5"
         width="1.8286616"
         height="1.7925724"
         x="-10.875418"
         y="-405.43863" />
      <rect
         transform="scale(1,-1)"
         style="fill:#394050;fill-opacity:1;stroke:none;stroke-width:0.73580784"
         id="rect920-6"
         width="18.194212"
         height="2.994714"
         x="-29.457052"
         y="-385.99161" />
      <rect
         transform="scale(1,-1)"
         style="fill:#ffffff;fill-opacity:1;stroke:none;stroke-width:1.29479671"
         id="rect920-6-2"
         width="18.194214"
         height="9.2732019"
         x="-29.457054"
         y="-395.2648" />
      <g
         id="flowRoot3399"
         style="font-style:normal;font-weight:normal;font-size:11.28888988px;line-height:125%;font-family:sans-serif;letter-spacing:0px;word-spacing:0px;fill:#394050;fill-opacity:1;stroke:none;stroke-width:1px;stroke-linecap:butt;stroke-linejoin:miter;stroke-opacity:1"
         transform="matrix(0.75438198,0,0,0.75438198,-6.2395339,96.116627)">
        <path
           id="path3408"
           style="font-style:normal;font-variant:normal;font-weight:bold;font-stretch:normal;font-family:sans-serif;-inkscape-font-specification:'sans-serif Bold';fill:#394050;fill-opacity:1"
           d="m -24.103776,388.75783 0,1.49931 q -0.633897,-0.26458 -1.223698,-0.39688 -0.5898,-0.13229 -1.113455,-0.13229 -0.562239,0 -0.837847,0.14332 -0.270095,0.1378 -0.270095,0.42995 0,0.23702 0.203949,0.3638 0.209462,0.12678 0.744141,0.18741 l 0.347266,0.0496 q 1.515842,0.19293 2.039496,0.6339 0.523655,0.44097 0.523655,1.38355 0,0.98667 -0.727604,1.48277 -0.727604,0.49609 -2.171789,0.49609 -0.611849,0 -1.267795,-0.0992 -0.650434,-0.0937 -1.339453,-0.28663 l 0,-1.4993 q 0.5898,0.28663 1.207161,0.42994 0.622874,0.14332 1.262284,0.14332 0.578776,0 0.87092,-0.15985 0.292144,-0.15986 0.292144,-0.47405 0,-0.26458 -0.20395,-0.39136 -0.198437,-0.13229 -0.799262,-0.20395 l -0.347266,-0.0441 q -1.317404,-0.16536 -1.846571,-0.61185 -0.529167,-0.44648 -0.529167,-1.35599 0,-0.98116 0.672483,-1.4552 0.672483,-0.47405 2.061545,-0.47405 0.545703,0 1.146528,0.0827 0.600825,0.0827 1.30638,0.25907 z" />
        <path
           id="path3410"
           style="font-style:normal;font-variant:normal;font-weight:bold;font-stretch:normal;font-family:sans-serif;-inkscape-font-specification:'sans-serif Bold';fill:#394050;fill-opacity:1"
           d="m -22.202083,388.56491 1.973351,0 0,6.17361 -1.973351,0 0,-6.17361 z m 0,-2.4033 1.973351,0 0,1.60955 -1.973351,0 0,-1.60955 z" />
        <path
           id="path3412"
           style="font-style:normal;font-variant:normal;font-weight:bold;font-stretch:normal;font-family:sans-serif;-inkscape-font-specification:'sans-serif Bold';fill:#394050;fill-opacity:1"
           d="m -12.599912,389.59017 q 0.374827,-0.57327 0.887457,-0.87092 0.518142,-0.30317 1.135504,-0.30317 1.0638452,0 1.6205727,0.65595 0.5567275,0.65594 0.5567275,1.9072 l 0,3.75929 -1.9843752,0 0,-3.2191 q 0.0055,-0.0717 0.0055,-0.14883 0.0055,-0.0772 0.0055,-0.22048 0,-0.65595 -0.192925,-0.94809 -0.192925,-0.29766 -0.622873,-0.29766 -0.56224,0 -0.870921,0.46302 -0.303168,0.46302 -0.314192,1.33946 l 0,3.03168 -1.984376,0 0,-3.2191 q 0,-1.02526 -0.176388,-1.3174 -0.176389,-0.29766 -0.628386,-0.29766 -0.567752,0 -0.876432,0.46853 -0.308681,0.46303 -0.308681,1.32843 l 0,3.0372 -1.984375,0 0,-6.17361 1.984375,0 0,0.90399 q 0.363802,-0.52365 0.832335,-0.78824 0.474045,-0.26458 1.041797,-0.26458 0.63941,0 1.129992,0.30868 0.490581,0.30868 0.74414,0.86541 z" />
      </g>
    </g>
  </g>
</svg>
