<?xml version="1.0" encoding="UTF-8" standalone="no"?>
<!-- Generator: Adobe Illustrator 19.0.0, SVG Export Plug-In . SVG Version: 6.00 Build 0)  -->

<svg
   xmlns:dc="http://purl.org/dc/elements/1.1/"
   xmlns:cc="http://creativecommons.org/ns#"
   xmlns:rdf="http://www.w3.org/1999/02/22-rdf-syntax-ns#"
   xmlns:svg="http://www.w3.org/2000/svg"
   xmlns="http://www.w3.org/2000/svg"
   xmlns:sodipodi="http://sodipodi.sourceforge.net/DTD/sodipodi-0.dtd"
   xmlns:inkscape="http://www.inkscape.org/namespaces/inkscape"
   version="1.1"
   id="Layer_1"
   x="0px"
   y="0px"
   viewBox="0 0 500 500"
   xml:space="preserve"
   inkscape:version="0.91 r13725"
   width="100%"
   height="100%"
   sodipodi:docname="simon.svg"><metadata
     id="metadata57"><rdf:RDF><cc:Work
         rdf:about=""><dc:format>image/svg+xml</dc:format><dc:type
           rdf:resource="http://purl.org/dc/dcmitype/StillImage" /></cc:Work></rdf:RDF></metadata><defs
     id="defs55" /><sodipodi:namedview
     pagecolor="#ffffff"
     bordercolor="#666666"
     borderopacity="1"
     objecttolerance="10"
     gridtolerance="10"
     guidetolerance="10"
     inkscape:pageopacity="0"
     inkscape:pageshadow="2"
     inkscape:window-width="1366"
     inkscape:window-height="715"
     id="namedview53"
     showgrid="false"
     inkscape:zoom="0.52559509"
     inkscape:cx="759.66153"
     inkscape:cy="292.40328"
     inkscape:window-x="0"
     inkscape:window-y="24"
     inkscape:window-maximized="1"
     inkscape:current-layer="Layer_1" /><g
     id="g23"
     transform="translate(0,39.767)" /><g
     id="g25"
     transform="translate(0,39.767)" /><g
     id="g27"
     transform="translate(0,39.767)" /><g
     id="g29"
     transform="translate(0,39.767)" /><g
     id="g31"
     transform="translate(0,39.767)" /><g
     id="g33"
     transform="translate(0,39.767)" /><g
     id="g35"
     transform="translate(0,39.767)" /><g
     id="g37"
     transform="translate(0,39.767)" /><g
     id="g39"
     transform="translate(0,39.767)" /><g
     id="g41"
     transform="translate(0,39.767)" /><g
     id="g43"
     transform="translate(0,39.767)" /><g
     id="g45"
     transform="translate(0,39.767)" /><g
     id="g47"
     transform="translate(0,39.767)" /><g
     id="g49"
     transform="translate(0,39.767)" /><g
     id="g51"
     transform="translate(0,39.767)" /><g
     id="g4201"
     transform="matrix(0.89199941,0,0,0.89199941,29.098568,3.1965411)"><path
       sodipodi:nodetypes="cczzzc"
       inkscape:connector-curvature="0"
       id="path3360"
       d="m 217.84831,242.197 68.49379,0 c 0,0 55.54441,-139.46196 38.0521,-181.699 -17.49231,-42.237039 -44.51711,-48.429877 -74.2016,-48.516258 -29.68449,-0.08638 -57.95117,5.830896 -75.15291,48.516258 -17.20174,42.68536 42.80862,181.699 42.80862,181.699 z"
       style="fill:#45d03f;fill-opacity:1;fill-rule:evenodd;stroke:none;stroke-width:1px;stroke-linecap:butt;stroke-linejoin:miter;stroke-opacity:1" /><path
       sodipodi:nodetypes="cczzzc"
       inkscape:connector-curvature="0"
       id="path3360-3"
       d="m 286.35501,242.12247 0,68.49378 c 0,0 139.46196,55.54441 181.699,38.0521 42.23704,-17.49231 48.42988,-44.51711 48.51626,-74.20159 0.0864,-29.68449 -5.8309,-57.95117 -48.51626,-75.15291 -42.68536,-17.20174 -181.699,42.80862 -181.699,42.80862 z"
       style="fill:#ffcc00;fill-opacity:1;fill-rule:evenodd;stroke:none;stroke-width:1px;stroke-linecap:butt;stroke-linejoin:miter;stroke-opacity:1" /><path
       sodipodi:nodetypes="cczzzc"
       inkscape:connector-curvature="0"
       id="path3360-6"
       d="m 286.28668,310.26321 -68.49379,0 c 0,0 -55.54441,139.46196 -38.0521,181.699 17.49231,42.23704 44.51711,48.42988 74.2016,48.51626 29.68449,0.0864 57.95117,-5.83089 75.15291,-48.51626 17.20174,-42.68536 -42.80862,-181.699 -42.80862,-181.699 z"
       style="fill:#00bbf2;fill-opacity:1;fill-rule:evenodd;stroke:none;stroke-width:1px;stroke-linecap:butt;stroke-linejoin:miter;stroke-opacity:1" /><path
       sodipodi:nodetypes="cczzzc"
       inkscape:connector-curvature="0"
       id="path3360-3-7"
       d="m 217.77998,310.33774 0,-68.49378 c 0,0 -139.46196,-55.54441 -181.699,-38.0521 -42.23704,17.49231 -48.42988,44.51711 -48.51626,74.20159 -0.0864,29.68449 5.8309,57.95117 48.51626,75.15291 42.68536,17.20174 181.699,-42.80862 181.699,-42.80862 z"
       style="fill:#f03916;fill-opacity:1;fill-rule:evenodd;stroke:none;stroke-width:1px;stroke-linecap:butt;stroke-linejoin:miter;stroke-opacity:1" /></g></svg>