<?xml version="1.0" encoding="UTF-8" standalone="no"?>
<svg
   xmlns:dc="http://purl.org/dc/elements/1.1/"
   xmlns:cc="http://creativecommons.org/ns#"
   xmlns:rdf="http://www.w3.org/1999/02/22-rdf-syntax-ns#"
   xmlns:svg="http://www.w3.org/2000/svg"
   xmlns="http://www.w3.org/2000/svg"
   xmlns:sodipodi="http://sodipodi.sourceforge.net/DTD/sodipodi-0.dtd"
   xmlns:inkscape="http://www.inkscape.org/namespaces/inkscape"
   id="Lager_1"
   version="1.1"
   viewBox="0 0 500 500"
   xml:space="preserve"
   inkscape:version="0.48.5 r10040"
   width="100%"
   height="100%"
   sodipodi:docname="applications-java.svg"><metadata
     id="metadata31"><rdf:RDF><cc:Work
         rdf:about=""><dc:format>image/svg+xml</dc:format><dc:type
           rdf:resource="http://purl.org/dc/dcmitype/StillImage" /></cc:Work></rdf:RDF></metadata><defs
     id="defs29" /><sodipodi:namedview
     pagecolor="#ffffff"
     bordercolor="#666666"
     borderopacity="1"
     objecttolerance="10"
     gridtolerance="10"
     guidetolerance="10"
     inkscape:pageopacity="0"
     inkscape:pageshadow="2"
     inkscape:window-width="1366"
     inkscape:window-height="716"
     id="namedview27"
     showgrid="false"
     inkscape:zoom="0.4609375"
     inkscape:cx="156.75616"
     inkscape:cy="128.04085"
     inkscape:window-x="0"
     inkscape:window-y="0"
     inkscape:window-maximized="1"
     inkscape:current-layer="Lager_1" /><path
     d="m 193.94182,369.9649 12.16216,-7.15421 -13.593,3.5771 c -20.0318,5.72337 -22.89348,12.16217 -22.89348,17.17012 1.43084,12.87758 34.34022,22.89348 72.25755,22.89348 20.0318,0 49.36407,-2.86169 79.41176,-15.73927 l 4.29253,-1.43084 -4.29253,-1.43085 c -13.593,-5.72337 -24.32432,-11.44674 -24.32432,-11.44674 l -0.71542,-0.71542 h -0.71542 c -24.32433,4.29253 -39.34817,6.43879 -55.08744,6.43879 -10.0159,0 -20.74722,-0.71542 -35.77107,-2.14626 -13.593,-1.43084 -15.02385,-4.29253 -15.02385,-5.00795 0,-2.14626 2.14627,-4.29253 4.29253,-5.00795 z"
     style="fill:#00bbf2;fill-opacity:1"
     id="path11"
     inkscape:connector-curvature="0" /><path
     d="m 334.87982,342.06347 -5.00795,-2.14626 c -10.73132,-3.57711 -17.17011,-10.73132 -17.88553,-10.73132 l -0.71542,-0.71542 h -0.71543 c -29.33227,5.72337 -52.22575,7.86963 -75.11923,7.86963 -12.87759,0 -25.75517,-0.71542 -42.92528,-2.86169 -11.44674,-1.43084 -14.30843,-4.29252 -14.30843,-5.72337 -0.71542,-2.86168 3.57711,-7.15421 5.00795,-8.58505 l 8.58506,-6.43879 -10.73132,3.5771 c -17.88553,5.72337 -26.47059,12.16217 -25.03975,19.31638 2.14627,12.16216 33.6248,20.03179 77.2655,20.03179 32.19396,0 66.53418,-5.00794 95.86646,-13.593 l 5.72337,0 z"
     style="fill:#00bbf2;fill-opacity:1"
     id="path13"
     inkscape:connector-curvature="0" /><path
     d="m 252.60637,180.37826 c -5.72337,17.88553 0,37.91733 17.88553,57.94912 5.72337,6.43879 8.58506,13.59301 7.86964,20.74722 -1.43085,13.593 -12.87759,23.6089 -12.87759,23.6089 l -12.87758,10.73132 15.02385,-7.86963 c 1.43084,-0.71542 30.76311,-15.73927 35.77106,-38.63275 2.14627,-9.30048 0,-18.60096 -5.72337,-27.18601 l -2.86168,-4.29253 c -9.30048,-13.593 -17.17012,-23.6089 -14.30843,-35.77106 3.57711,-16.45469 25.75517,-35.05565 72.25755,-62.24166 l 10.73132,-6.43879 -12.16216,2.86169 c -4.29253,1.43084 -85.13514,21.46263 -98.72814,66.53418 z"
     style="fill:#f03916;fill-opacity:1"
     id="path15"
     inkscape:connector-curvature="0" /><path
     d="m 230.42831,449.37667 c 95.15103,0 162.40063,-17.88554 165.97774,-35.05565 0.71542,-2.86168 -0.71542,-7.86963 -9.30048,-12.16216 l -12.16216,-5.72337 10.0159,8.58505 c 0,0 2.86168,2.14627 2.14626,5.00795 -0.71542,2.14627 -2.86168,6.4388 -15.73927,10.0159 -25.03974,8.58506 -82.27344,14.30843 -138.79173,14.30843 -52.94117,0 -93.72019,-4.29253 -111.60572,-12.16216 -2.14626,-0.71543 -3.57711,-2.14627 -3.57711,-2.86169 0.71542,-3.57711 15.73927,-10.0159 26.47059,-12.16216 7.15421,-1.43084 11.44674,-1.43084 13.59301,-1.43084 0.71542,0 0.71542,0 0.71542,0 l 6.43879,0.71542 -5.00795,-5.00795 c -2.86169,-2.14627 -7.15421,-2.86169 -12.87758,-2.86169 -20.74722,0 -60.095393,14.30843 -61.526235,27.18601 -0.715422,6.43879 7.154213,11.44674 23.608905,13.59301 40.77901,6.43879 81.55803,10.0159 121.62162,10.0159 l 0,0 z"
     style="fill:#00bbf2;fill-opacity:1"
     id="path17"
     inkscape:connector-curvature="0" /><path
     d="m 212.54278,309.86951 c 43.6407,0 84.41971,-4.29253 113.75198,-12.16216 h 0.71542 c 8.58506,-5.72337 20.0318,-10.73132 20.0318,-10.73132 l 14.30843,-6.43879 -15.73927,3.57711 c 0,0 -33.6248,5.72337 -66.53418,8.58505 -22.89348,2.14626 -47.21781,2.86169 -67.96503,2.86169 -15.73927,0 -29.33227,-0.71543 -37.91733,-2.14627 -15.73926,-2.14626 -15.73926,-5.00795 -15.73926,-5.00795 0,-4.29252 22.89348,-12.16216 44.35612,-17.88553 l 11.44674,-2.86168 -11.44674,-0.71543 c 0,0 -1.43085,0 -2.86169,0 -10.0159,0 -36.48648,1.43085 -67.2496,16.45469 -2.86169,1.43085 -10.0159,5.00795 -9.30048,10.0159 1.43085,12.87759 49.36407,16.45469 90.14309,16.45469 z"
     style="fill:#00bbf2;fill-opacity:1"
     id="path19"
     inkscape:connector-curvature="0" /><path
     d="m 352.76535,272.6676 -2.86168,5.00795 5.00794,-2.14626 c 0,0 2.86169,-1.43084 9.30048,-2.14626 1.43084,0 2.86169,-0.71543 5.00795,-0.71543 10.0159,0 22.17806,6.4388 25.03975,18.60096 2.14626,8.58505 1.43084,31.47854 -48.64865,57.2337 h -0.71542 v 0.71542 c 0,0.71542 -0.71542,1.43085 -1.43085,1.43085 l -5.72337,5.00794 7.15422,-2.14626 c 56.51828,-15.02385 74.40381,-41.49443 71.54213,-61.52623 -2.14627,-17.17011 -17.88554,-29.33227 -37.91733,-29.33227 -5.72337,0 -11.44674,0.71542 -17.17011,2.86168 -5.72337,2.86169 -8.58506,7.15421 -8.58506,7.15421 z"
     style="fill:#00bbf2;fill-opacity:1"
     id="path21"
     inkscape:connector-curvature="0" /><path
     d="m 250.46011,269.80592 6.43879,5.72337 -3.57711,-7.86963 c -3.57711,-8.58506 -10.0159,-17.17012 -15.73927,-25.03975 -19.31637,-27.90143 -39.34817,-55.80286 15.02385,-98.72814 35.77106,-27.90143 54.37202,-55.802861 55.80286,-82.273449 1.43084,-23.608903 -11.44674,-36.486487 -12.16216,-37.201908 l -4.29253,-5.007949 1.43084,6.438792 c 12.16217,47.933227 -20.74721,73.688394 -52.94117,98.728144 -15.73927,12.87758 -32.19396,25.75516 -42.92528,40.77901 -21.46264,32.90938 12.87758,67.96502 52.94118,104.45151 z"
     style="fill:#f03916;fill-opacity:1"
     id="path23"
     inkscape:connector-curvature="0" /><path
     d="m 412.86074,425.76776 c 0,0 -7.15421,13.59301 -64.38792,24.32433 -32.90938,6.43879 -71.54213,9.30047 -111.60572,9.30047 -32.90938,0 -65.10334,-2.14626 -89.42766,-6.43879 l -6.43879,-1.43084 5.72337,4.29253 c 1.43084,0.71542 12.87758,8.58505 63.67249,12.16216 14.30843,0.71542 30.0477,1.43084 45.07154,1.43084 l 0,0 c 76.55008,0 159.53895,-11.44674 161.68522,-43.6407 l 0.71542,-10.0159 -5.00795,10.0159 z"
     style="fill:#00bbf2;fill-opacity:1"
     id="path25"
     inkscape:connector-curvature="0" /></svg>