<?xml version="1.0" encoding="UTF-8" standalone="no"?>
<!-- Created using Karbon, part of Calligra: http://www.calligra.org/karbon -->

<svg
   xmlns:dc="http://purl.org/dc/elements/1.1/"
   xmlns:cc="http://creativecommons.org/ns#"
   xmlns:rdf="http://www.w3.org/1999/02/22-rdf-syntax-ns#"
   xmlns:svg="http://www.w3.org/2000/svg"
   xmlns="http://www.w3.org/2000/svg"
   xmlns:sodipodi="http://sodipodi.sourceforge.net/DTD/sodipodi-0.dtd"
   xmlns:inkscape="http://www.inkscape.org/namespaces/inkscape"
   width="500"
   height="500"
   id="svg3130"
   version="1.1"
   inkscape:version="0.92.1 r15371"
   sodipodi:docname="syncthing.svg">
  <metadata
     id="metadata3145">
    <rdf:RDF>
      <cc:Work
         rdf:about="">
        <dc:format>image/svg+xml</dc:format>
        <dc:type
           rdf:resource="http://purl.org/dc/dcmitype/StillImage" />
      </cc:Work>
    </rdf:RDF>
  </metadata>
  <sodipodi:namedview
     pagecolor="#ffffff"
     bordercolor="#666666"
     borderopacity="1"
     objecttolerance="10"
     gridtolerance="10"
     guidetolerance="10"
     inkscape:pageopacity="0"
     inkscape:pageshadow="2"
     inkscape:window-width="1366"
     inkscape:window-height="714"
     id="namedview3143"
     showgrid="false"
     inkscape:zoom="0.21728802"
     inkscape:cx="-734.72595"
     inkscape:cy="-14.505541"
     inkscape:window-x="0"
     inkscape:window-y="0"
     inkscape:window-maximized="1"
     inkscape:current-layer="svg3130" />
  <defs
     id="defs3132" />
  <rect
     style="fill:#00bbf2;fill-opacity:1"
     y="25.00001"
     x="25"
     ry="450"
     rx="450"
     height="450"
     width="450"
     id="rect4118" />
  <path
     style="fill:#ffffff;stroke-width:0.89689142"
     d="m 319.85826,429.08768 c -5.3244,-1.72046 -11.6491,-5.59239 -16.41114,-10.04675 l -4.07288,-3.80965 -5.95868,1.6523 c -13.61651,3.77575 -22.95511,4.84371 -42.42604,4.85187 -20.17945,0.008 -29.29548,-1.06586 -44.84457,-5.28498 -8.55925,-2.32249 -24.79733,-8.54941 -32.8381,-12.59263 -8.54005,-4.2943 -27.01499,-17.09652 -35.38808,-24.52219 C 113.72748,357.88159 94.947277,327.71692 87.338822,298.0944 l -1.603014,-6.24112 -6.165402,-1.89127 c -7.945956,-2.43747 -12.188449,-5.18338 -18.438419,-11.9341 -7.223985,-7.80276 -9.195451,-13.21918 -9.195451,-25.26365 0,-12.26903 1.957214,-17.50459 9.596711,-25.67123 6.319981,-6.75608 10.633473,-9.49978 18.240771,-11.60247 l 5.472114,-1.51251 4.198905,-12.67076 C 96.492209,180.04145 105.28136,163.74788 118.70919,147.0565 160.06316,95.651747 226.0675,72.989848 290.02639,88.236534 l 9.43951,2.250202 4.58653,-4.420804 c 8.46316,-8.157442 20.95587,-12.331378 32.30029,-10.791908 6.81825,0.925269 16.81904,5.998705 21.95724,11.139049 2.29784,2.298814 5.40117,6.664854 6.89638,9.702324 4.94985,10.056033 5.79643,18.179693 2.87328,27.571783 l -1.74804,5.61645 7.36411,7.73847 c 15.87883,16.68588 26.49121,33.63514 35.25088,56.29952 7.02481,18.17591 9.93343,32.34719 10.81588,52.69595 1.98168,45.69906 -13.87643,88.28233 -45.7489,122.84763 l -7.46761,8.09853 1.23538,3.01397 c 1.82759,4.45864 2.41461,13.45114 1.23663,18.94374 -2.57937,12.02738 -10.46798,22.14273 -21.56073,27.64688 -6.12909,3.04119 -7.37577,3.32871 -15.24716,3.5163 -5.33399,0.12713 -10.00007,-0.25704 -12.3518,-1.01694 z M 269.08667,405.2009 c 3.85869,-0.51249 10.85104,-1.7677 15.53846,-2.78935 l 8.52262,-1.85755 -0.32037,-7.05466 c -0.42602,-9.38085 2.0094,-17.4935 7.48411,-24.93033 2.22367,-3.02067 4.0431,-5.68221 4.0431,-5.91451 0,-0.23231 -2.96772,-5.5789 -6.59484,-11.8813 -19.57555,-34.01372 -24.34666,-42.24195 -26.17415,-45.14014 -1.10526,-1.75281 -3.47516,-6.09721 -5.26645,-9.65424 -3.10446,-6.16462 -3.37152,-6.43525 -5.7057,-5.782 -1.34685,0.37693 -6.28301,0.67345 -10.96927,0.65893 -7.66805,-0.0238 -9.1269,-0.31101 -14.58214,-2.87135 -8.16018,-3.82987 -15.11716,-10.55987 -19.05707,-18.43528 -1.72334,-3.44474 -3.13334,-6.81434 -3.13334,-7.48801 0,-1.01799 -7.19435,-1.22483 -42.60234,-1.22483 -33.48357,0 -42.6025,0.23997 -42.60305,1.12112 -3.9e-4,0.61661 -1.14729,3.54272 -2.54865,6.50246 -3.48465,7.3597 -10.45647,14.73752 -17.35928,18.37019 -3.10903,1.63616 -5.79826,3.09363 -5.97607,3.23884 -0.17782,0.1452 1.121,4.82719 2.88626,10.40443 3.45548,10.91737 11.45736,27.5555 17.94794,37.31872 18.37326,27.63732 47.65193,50.16226 78.20756,60.16734 9.35642,3.06365 23.88708,6.46984 32.22769,7.55461 5.90462,0.76794 29.4348,0.56351 36.03498,-0.31309 z m 94.6355,-48.62145 c 11.56765,-13.16059 17.65333,-22.05365 24.74191,-36.15575 7.07055,-14.06637 12.52034,-33.50081 14.49888,-51.70427 4.70841,-43.32159 -10.37739,-88.28788 -40.53017,-120.8081 l -5.15255,-5.55713 -4.11422,2.83066 c -8.09005,5.5661 -19.34272,8.03357 -28.66877,6.28643 -4.22607,-0.7917 -5.49346,-0.76153 -6.05868,0.14422 -0.39311,0.62995 -4.31405,7.40118 -8.71312,15.04717 -12.93408,22.48026 -19.75359,34.25871 -26.7462,46.19494 l -6.57664,11.22609 4.06193,4.51785 c 11.90005,13.23572 11.3124,37.71448 -1.19304,49.69546 -1.49629,1.43356 -2.72054,2.955 -2.72054,3.38098 0,0.42598 3.37034,6.50539 7.48958,13.5098 4.11933,7.0044 10.85624,18.5875 14.971,25.74021 19.26415,33.48769 19.77242,34.27272 21.81993,33.70283 9.74634,-2.71271 22.38345,-0.72487 30.76167,4.83885 2.87624,1.91003 5.49597,3.50416 5.82164,3.54251 0.32557,0.0383 3.16396,-2.8564 6.30739,-6.43275 z M 213.26477,242.35104 c 1.20679,-4.80823 4.49019,-10.50716 8.72018,-15.13544 8.7574,-9.58199 18.25808,-13.539 30.71641,-12.7933 3.99139,0.2389 7.9149,0.71433 8.7189,1.05651 1.13067,0.4812 2.22859,-0.76168 4.84661,-5.4865 1.86164,-3.35975 6.19893,-10.95185 9.63841,-16.87133 3.43949,-5.91948 9.28606,-16.00951 12.99228,-22.42228 3.70614,-6.41277 8.94677,-15.39287 11.64569,-19.95577 4.86528,-8.22544 4.89165,-8.30956 3.10163,-9.8658 -6.677,-5.80485 -10.94988,-16.91412 -10.94988,-28.46904 v -7.4273 l -10.09003,-1.92475 c -27.70578,-5.285093 -54.29218,-3.928353 -79.84439,4.07455 -11.26351,3.52771 -29.58823,12.80956 -40.56331,20.54615 -12.05473,8.49766 -28.16263,24.48503 -36.56891,36.29528 -7.48157,10.51105 -17.52162,30.65845 -21.19744,42.53689 -1.51537,4.89692 -2.6585,8.96853 -2.54029,9.04802 0.1182,0.0795 2.16531,1.06917 4.54912,2.19926 6.82372,3.23493 14.4128,10.86521 18.06254,18.1606 1.74056,3.47918 3.16466,6.87695 3.16466,7.55062 0,1.01795 7.1793,1.22483 42.50511,1.22483 h 42.50511 z"
     id="path4509"
     inkscape:connector-curvature="0"
     sodipodi:nodetypes="sccccscsscssssscssccccccsccccsccccsscscccsccsccscsscsscssssccccccssccccscscccccccssccscccscsssssccssscc" />
</svg>
