<?xml version="1.0" encoding="UTF-8" standalone="no"?>
<!-- Generator: Adobe Illustrator 19.0.0, SVG Export Plug-In . SVG Version: 6.00 Build 0)  -->

<svg
   xmlns:dc="http://purl.org/dc/elements/1.1/"
   xmlns:cc="http://creativecommons.org/ns#"
   xmlns:rdf="http://www.w3.org/1999/02/22-rdf-syntax-ns#"
   xmlns:svg="http://www.w3.org/2000/svg"
   xmlns="http://www.w3.org/2000/svg"
   xmlns:sodipodi="http://sodipodi.sourceforge.net/DTD/sodipodi-0.dtd"
   xmlns:inkscape="http://www.inkscape.org/namespaces/inkscape"
   version="1.1"
   id="Layer_1"
   x="0px"
   y="0px"
   viewBox="0 0 500 500"
   xml:space="preserve"
   inkscape:version="0.92.2 (5c3e80d, 2017-08-06)"
   width="100%"
   height="100%"
   sodipodi:docname="system-suspend-hibernate.svg"><metadata
     id="metadata57"><rdf:RDF><cc:Work
         rdf:about=""><dc:format>image/svg+xml</dc:format><dc:type
           rdf:resource="http://purl.org/dc/dcmitype/StillImage" /></cc:Work></rdf:RDF></metadata><defs
     id="defs55" /><sodipodi:namedview
     pagecolor="#ffffff"
     bordercolor="#666666"
     borderopacity="1"
     objecttolerance="10"
     gridtolerance="10"
     guidetolerance="10"
     inkscape:pageopacity="0"
     inkscape:pageshadow="2"
     inkscape:window-width="1366"
     inkscape:window-height="715"
     id="namedview53"
     showgrid="false"
     inkscape:zoom="0.51699999"
     inkscape:cx="256.54085"
     inkscape:cy="331.40817"
     inkscape:window-x="0"
     inkscape:window-y="24"
     inkscape:window-maximized="1"
     inkscape:current-layer="Layer_1" /><g
     id="g23"
     transform="translate(0,39.767)" /><g
     id="g25"
     transform="translate(0,39.767)" /><g
     id="g27"
     transform="translate(0,39.767)" /><g
     id="g29"
     transform="translate(0,39.767)" /><g
     id="g31"
     transform="translate(0,39.767)" /><g
     id="g33"
     transform="translate(0,39.767)" /><g
     id="g35"
     transform="translate(0,39.767)" /><g
     id="g37"
     transform="translate(0,39.767)" /><g
     id="g39"
     transform="translate(0,39.767)" /><g
     id="g41"
     transform="translate(0,39.767)" /><g
     id="g43"
     transform="translate(0,39.767)" /><g
     id="g45"
     transform="translate(0,39.767)" /><g
     id="g47"
     transform="translate(0,39.767)" /><g
     id="g49"
     transform="translate(0,39.767)" /><g
     id="g51"
     transform="translate(0,39.767)" /><g
     id="g833"><path
       sodipodi:nodetypes="sccsccsccccccsccscc"
       inkscape:connector-curvature="0"
       id="path3976"
       d="m 250,45.45493 c -97.3038,0 -178.151568,68.05845 -198.863636,159.09091 H 73.863637 C 94.008087,126.06911 165.23935,68.182203 250,68.182203 c 84.76066,0 155.99191,57.886907 176.13637,136.363637 h 22.72727 C 428.15157,113.51339 347.3038,45.45493 250,45.45493 Z M 22.727273,238.63634 v 22.72727 H 477.27273 v -22.72727 z m 28.409091,56.81859 C 71.848432,386.48739 152.6962,454.54584 250,454.54584 c 97.30382,0 178.15157,-68.05845 198.86364,-159.09091 H 426.13637 C 405.99191,373.93166 334.76066,431.81857 250,431.81857 c -84.76065,0 -155.991913,-57.88691 -176.136363,-136.36364 z"
       style="fill:#ffcc00;fill-opacity:1;stroke:none;stroke-width:22.72727394" /><rect
       transform="matrix(0,-1,-1,0,0,0)"
       style="fill:#566060;fill-opacity:0;stroke:none;stroke-width:22.72727394"
       id="rect3978"
       width="500"
       height="500"
       x="-500"
       y="-500" /></g></svg>