<?xml version="1.0" encoding="UTF-8" standalone="no"?>
<!-- Created with Inkscape (http://www.inkscape.org/) -->

<svg
   xmlns:dc="http://purl.org/dc/elements/1.1/"
   xmlns:cc="http://creativecommons.org/ns#"
   xmlns:rdf="http://www.w3.org/1999/02/22-rdf-syntax-ns#"
   xmlns:svg="http://www.w3.org/2000/svg"
   xmlns="http://www.w3.org/2000/svg"
   xmlns:sodipodi="http://sodipodi.sourceforge.net/DTD/sodipodi-0.dtd"
   xmlns:inkscape="http://www.inkscape.org/namespaces/inkscape"
   width="512"
   height="512"
   id="svg2"
   version="1.1"
   inkscape:version="0.91 r13725"
   sodipodi:docname="system-config-users.svg">
  <defs
     id="defs4" />
  <sodipodi:namedview
     id="base"
     pagecolor="#ffffff"
     bordercolor="#666666"
     borderopacity="1.0"
     inkscape:pageopacity="0.0"
     inkscape:pageshadow="2"
     inkscape:zoom="0.69999999"
     inkscape:cx="238.52956"
     inkscape:cy="271.79915"
     inkscape:document-units="px"
     inkscape:current-layer="layer1"
     showgrid="false"
     inkscape:window-width="1366"
     inkscape:window-height="715"
     inkscape:window-x="0"
     inkscape:window-y="24"
     inkscape:window-maximized="1" />
  <metadata
     id="metadata7">
    <rdf:RDF>
      <cc:Work
         rdf:about="">
        <dc:format>image/svg+xml</dc:format>
        <dc:type
           rdf:resource="http://purl.org/dc/dcmitype/StillImage" />
        <dc:title />
      </cc:Work>
    </rdf:RDF>
  </metadata>
  <g
     inkscape:label="Layer 1"
     inkscape:groupmode="layer"
     id="layer1"
     transform="translate(0,-540.36218)">
    <g
       id="g4148">
      <rect
         transform="matrix(0.68145507,0.73185996,-0.73185996,0.68145507,0,0)"
         ry="20.358524"
         rx="22.576929"
         y="193.52583"
         x="594.21417"
         height="328.28113"
         width="328.28113"
         id="rect2988"
         style="fill:#ffcc00;fill-opacity:1;stroke:#394050;stroke-width:28.91550255;stroke-miterlimit:4;stroke-dasharray:none;stroke-opacity:1" />
      <path
         sodipodi:nodetypes="zccczcccccccczcccz"
         inkscape:connector-curvature="0"
         id="path3758"
         d="m 256.6562,827.8407 c -16.15443,0.31281 -21.83635,6.06401 -21.83635,6.06401 l -31.45847,25.96484 -4.3748,36.32402 c 0,0 -1.54564,8.4723 7.03669,9.99736 8.58231,1.52506 8.9283,-6.40324 8.9283,-6.40324 l 5.11004,-34.41495 14.49166,-5.19773 -0.82994,58.0238 53.17413,-0.27793 -2.51509,-58.36052 14.04598,4.25633 9.78945,31.49682 c 0,0 3.13031,8.24247 9.74227,6.20374 6.61219,-2.03869 5.1549,-10.03442 5.1549,-10.03442 L 312.8998,851.89897 275.86978,830.61729 c 0,0 -3.05915,-3.08941 -19.21358,-2.77659 z"
         style="fill:#394050;stroke:none" />
      <path
         sodipodi:open="true"
         sodipodi:end="6.2784904"
         sodipodi:start="0"
         d="m 276.22603,799.91473 a 22.558548,22.132914 0 0 1 -22.53207,22.1329 22.558548,22.132914 0 0 1 -22.58497,-22.08094 22.558548,22.132914 0 0 1 22.47906,-22.18473 22.558548,22.132914 0 0 1 22.63773,22.02886"
         sodipodi:ry="22.132914"
         sodipodi:rx="22.558548"
         sodipodi:cy="799.91473"
         sodipodi:cx="253.66748"
         id="path3760"
         style="fill:#394050;fill-opacity:1;stroke:none"
         sodipodi:type="arc" />
      <path
         sodipodi:nodetypes="zccczcccccccczcccz"
         inkscape:connector-curvature="0"
         id="path3758-3"
         d="m 355.5441,763.61316 c -15.83771,2.21314 -24.68685,19.36629 -24.68685,19.36629 l -18.15619,25.33141 -27.81214,15.10373 c 0,0 -6.9299,3.08802 -4.68199,9.3639 2.2479,6.27587 7.66142,4.68199 7.66142,4.68199 l 32.34804,-13.19464 17.02543,-16.59968 15.32284,48.52216 c 0,0 47.77177,-7.12125 49.37347,-8.51266 l -11.06656,-51.07595 14.04598,4.25634 9.78945,31.49682 c 0,0 3.13031,8.24246 9.74227,6.20374 6.61219,-2.03869 5.1549,-10.03443 5.1549,-10.03443 L 419.389,788.93832 382.35898,767.65664 c 0,0 -10.97718,-6.25663 -26.81488,-4.04348 z"
         style="fill:#394050;stroke:none" />
      <path
         sodipodi:open="true"
         sodipodi:end="6.2784904"
         sodipodi:start="0"
         d="m 378.23604,735.16248 a 22.558548,22.132914 0 0 1 -22.53207,22.13289 22.558548,22.132914 0 0 1 -22.58497,-22.08094 22.558548,22.132914 0 0 1 22.47906,-22.18473 22.558548,22.132914 0 0 1 22.63773,22.02886"
         sodipodi:ry="22.132914"
         sodipodi:rx="22.558548"
         sodipodi:cy="735.16248"
         sodipodi:cx="355.67749"
         id="path3760-6"
         style="fill:#394050;fill-opacity:1;stroke:none"
         sodipodi:type="arc" />
      <path
         sodipodi:nodetypes="zccczcccccccczcccz"
         inkscape:connector-curvature="0"
         id="path3758-7"
         d="m 159.56133,762.71735 c 15.83772,2.21314 24.68685,19.36629 24.68685,19.36629 l 18.1562,25.33141 27.81215,15.10372 c 0,0 6.92991,3.08803 4.682,9.3639 -2.24791,6.27588 -7.66142,4.682 -7.66142,4.682 l -32.34806,-13.19464 -17.02543,-16.59968 -15.32284,48.52215 c 0,0 -47.77177,-7.12124 -49.37347,-8.51266 l 11.06656,-51.07594 -14.04599,4.25634 -9.78944,31.49681 c 0,0 -3.130312,8.24247 -9.742272,6.20374 -6.6122,-2.03869 -5.1549,-10.03442 -5.1549,-10.03442 l 10.21517,-39.58386 37.030022,-21.28168 c 0,0 10.97718,-6.25663 26.81487,-4.04348 z"
         style="fill:#394050;stroke:none" />
      <path
         sodipodi:open="true"
         sodipodi:end="6.2784904"
         sodipodi:start="0"
         transform="scale(-1,1)"
         d="m -136.86928,734.26666 a 22.558548,22.132914 0 0 1 -22.53207,22.1329 22.558548,22.132914 0 0 1 -22.58496,-22.08094 22.558548,22.132914 0 0 1 22.47905,-22.18473 22.558548,22.132914 0 0 1 22.63773,22.02886"
         sodipodi:ry="22.132914"
         sodipodi:rx="22.558548"
         sodipodi:cy="734.26666"
         sodipodi:cx="-159.42783"
         id="path3760-5"
         style="fill:#394050;fill-opacity:1;stroke:none"
         sodipodi:type="arc" />
    </g>
  </g>
</svg>
