<?xml version="1.0" encoding="UTF-8" standalone="no"?>
<!-- Generator: Adobe Illustrator 19.0.0, SVG Export Plug-In . SVG Version: 6.00 Build 0)  -->

<svg
   xmlns:dc="http://purl.org/dc/elements/1.1/"
   xmlns:cc="http://creativecommons.org/ns#"
   xmlns:rdf="http://www.w3.org/1999/02/22-rdf-syntax-ns#"
   xmlns:svg="http://www.w3.org/2000/svg"
   xmlns="http://www.w3.org/2000/svg"
   xmlns:xlink="http://www.w3.org/1999/xlink"
   xmlns:sodipodi="http://sodipodi.sourceforge.net/DTD/sodipodi-0.dtd"
   xmlns:inkscape="http://www.inkscape.org/namespaces/inkscape"
   version="1.1"
   id="Layer_1"
   x="0px"
   y="0px"
   viewBox="0 0 500 500"
   xml:space="preserve"
   inkscape:version="0.91 r13725"
   width="100%"
   height="100%"
   sodipodi:docname="telepathy.svg"><metadata
     id="metadata57"><rdf:RDF><cc:Work
         rdf:about=""><dc:format>image/svg+xml</dc:format><dc:type
           rdf:resource="http://purl.org/dc/dcmitype/StillImage" /></cc:Work></rdf:RDF></metadata><defs
     id="defs55"><radialGradient
       cx="35.144333"
       cy="51.750542"
       r="17.011496"
       fx="35.144333"
       fy="51.750542"
       id="radialGradient3809"
       xlink:href="#linearGradient3803"
       gradientUnits="userSpaceOnUse"
       gradientTransform="matrix(11.439516,-4.6730901e-7,4.0806219e-7,9.9891807,-259.59455,-249.31717)" /><linearGradient
       id="linearGradient3803"><stop
         id="stop3805"
         style="stop-color:#336bbe;stop-opacity:1"
         offset="0" /><stop
         id="stop3807"
         style="stop-color:#254d89;stop-opacity:1"
         offset="1" /></linearGradient><radialGradient
       cx="68.395973"
       cy="45.022423"
       r="12.252194"
       fx="68.395973"
       fy="45.022423"
       id="radialGradient3811"
       xlink:href="#linearGradient3803"
       gradientUnits="userSpaceOnUse"
       gradientTransform="matrix(10.980762,0,0,9.0892247,-362.79727,-184.65365)" /></defs><sodipodi:namedview
     pagecolor="#ffffff"
     bordercolor="#666666"
     borderopacity="1"
     objecttolerance="10"
     gridtolerance="10"
     guidetolerance="10"
     inkscape:pageopacity="0"
     inkscape:pageshadow="2"
     inkscape:window-width="1366"
     inkscape:window-height="708"
     id="namedview53"
     showgrid="false"
     inkscape:zoom="0.51699999"
     inkscape:cx="161.70533"
     inkscape:cy="85.443821"
     inkscape:window-x="0"
     inkscape:window-y="0"
     inkscape:window-maximized="1"
     inkscape:current-layer="Layer_1" /><g
     id="g23"
     transform="translate(0,39.767)" /><g
     id="g25"
     transform="translate(0,39.767)" /><g
     id="g27"
     transform="translate(0,39.767)" /><g
     id="g29"
     transform="translate(0,39.767)" /><g
     id="g31"
     transform="translate(0,39.767)" /><g
     id="g33"
     transform="translate(0,39.767)" /><g
     id="g35"
     transform="translate(0,39.767)" /><g
     id="g37"
     transform="translate(0,39.767)" /><g
     id="g39"
     transform="translate(0,39.767)" /><g
     id="g41"
     transform="translate(0,39.767)" /><g
     id="g43"
     transform="translate(0,39.767)" /><g
     id="g45"
     transform="translate(0,39.767)" /><g
     id="g47"
     transform="translate(0,39.767)" /><g
     id="g49"
     transform="translate(0,39.767)" /><g
     id="g51"
     transform="translate(0,39.767)" /><g
     id="g4175"
     transform="matrix(0.8888889,0,0,0.8888889,29.978817,30.166701)"><path
       d="m 383.96469,147.66343 c -38.3249,-0.26542 -72.85188,26.35592 -81.10874,65.29942 16.60286,20.18776 -23.15938,56.41267 -15.58021,68.27798 11.36483,17.79186 29.72909,6.14094 27.26536,20.39173 -1.87211,10.82851 -1.27134,21.10836 8.01923,27.26537 -6.62052,20.06613 16.59692,38.42432 27.72361,40.78349 44.50683,9.43641 104.43661,-78.07276 113.87301,-122.57958 9.4364,-44.50691 -18.95961,-88.16911 -63.46644,-97.60544 -5.56335,-1.17955 -11.25083,-1.79513 -16.72582,-1.83297 z"
       inkscape:connector-curvature="0"
       id="path3801"
       style="fill:#00bbf2;fill-opacity:1;stroke:none" /><path
       d="m 139.49286,170.34639 c -7.58275,0.0513 -15.20694,0.88664 -22.91207,2.52033 -61.641099,13.06919 -101.051626,73.76925 -87.982366,135.41034 13.069194,61.64111 95.764846,184.22239 157.405946,171.15319 15.41019,-3.26737 47.89071,-30.40545 38.72141,-58.19666 12.8672,-8.52733 13.59056,-22.57862 10.9978,-37.5758 -3.41233,-19.73701 22.75223,-1.93657 38.49228,-26.57801 10.49688,-16.43319 -45.21942,-68.27101 -22.22471,-96.2307 C 240.5555,206.9131 192.57204,169.97906 139.49286,170.34639 Z"
       inkscape:connector-curvature="0"
       id="path2286"
       style="fill:#00bbf2;fill-opacity:1;stroke:none" /><path
       d="m 368.71427,128.01822 c 0,6.40364 -5.19119,11.59482 -11.59483,11.59482 -6.40365,0 -11.59483,-5.19118 -11.59483,-11.59482 0,-6.40365 5.19118,-11.59483 11.59483,-11.59483 6.40364,0 11.59483,5.19118 11.59483,11.59483 z M 343.41634,77.558796 c 0,8.732245 -7.07885,15.811084 -15.8111,15.811084 -8.73225,0 -15.81109,-7.078839 -15.81109,-15.811084 0,-8.732255 7.07884,-15.811096 15.81109,-15.811096 8.73225,0 15.8111,7.078841 15.8111,15.811096 z m -59.02862,-25.02541 c 0,12.225069 -9.91041,22.135481 -22.13548,22.135481 -12.22515,0 -22.13556,-9.910412 -22.13556,-22.135481 0,-12.225155 9.91041,-22.135557 22.13556,-22.135557 12.22507,0 22.13548,9.910402 22.13548,22.135557 z m -71.67696,18.973317 c 0,14.553748 -11.79807,26.351817 -26.35174,26.351817 -14.55368,0 -26.35182,-11.798069 -26.35182,-26.351817 0,-14.553673 11.79814,-26.351745 26.35182,-26.351745 14.55367,0 26.35174,11.798072 26.35174,26.351745 z m -56.55088,56.510487 c 0,7.77185 -6.30034,14.07219 -14.07219,14.07219 -7.77185,0 -14.07219,-6.30034 -14.07219,-14.07219 0,-7.77184 6.30034,-14.07219 14.07219,-14.07219 7.77185,0 14.07219,6.30035 14.07219,14.07219 z"
       inkscape:connector-curvature="0"
       id="path2296"
       style="fill:#f03916;fill-opacity:1;stroke:none" /></g></svg>