<?xml version="1.0" encoding="UTF-8" standalone="no"?>
<!-- Created with Inkscape (http://www.inkscape.org/) -->

<svg
   xmlns:dc="http://purl.org/dc/elements/1.1/"
   xmlns:cc="http://creativecommons.org/ns#"
   xmlns:rdf="http://www.w3.org/1999/02/22-rdf-syntax-ns#"
   xmlns:svg="http://www.w3.org/2000/svg"
   xmlns="http://www.w3.org/2000/svg"
   xmlns:sodipodi="http://sodipodi.sourceforge.net/DTD/sodipodi-0.dtd"
   xmlns:inkscape="http://www.inkscape.org/namespaces/inkscape"
   width="512"
   height="512"
   viewBox="0 0 512.00001 512.00001"
   id="svg2"
   version="1.1"
   inkscape:version="0.91 r13725"
   sodipodi:docname="valknut.svg"
   inkscape:export-filename="/home/trlinux/Masaüstü/youTube.png"
   inkscape:export-xdpi="90"
   inkscape:export-ydpi="90">
  <defs
     id="defs4">
    <clipPath
       clipPathUnits="userSpaceOnUse"
       id="clipPath14186-9">
      <path
         inkscape:original-d="m 137.57703,281.0191 c 6.32494,-1.3585 11.99755,4.87308 16.86679,9.13228 6.42572,5.62067 -8.54781,26.01622 13.24488,19.8293 5.86081,-1.66388 6.89528,11.31183 10.16415,16.45304 4.09971,6.44793 11.58575,13.6827 13.65231,21.03883 1.58383,5.63779 1.34339,10.90606 -1.62666,15.95302 -3.57124,6.06857 -11.7907,10.42929 -18.78877,11.20919 -5.73056,0.63864 -11.87822,-3.8351 -17.38362,-5.54906 -12.31617,-3.83432 -23.77946,-5.82074 -36.09666,-9.65174 -2.50091,-0.77785 -8.28361,-2.638 -10.96988,-3.42629 -4.51043,-1.3236 -6.46556,-0.99271 -8.72046,-4.76819 -2.68251,-4.49147 0.68051,-9.72669 3.16379,-14.79408 4.06995,-8.30524 1.91195,-17.82603 0.46203,-25.51057 -0.92235,-4.8884 -0.66071,-7.92707 2.7425,-10.79139 4.99476,-4.20385 14.53027,-1.53186 20.35272,-4.08305 5.82246,-2.55119 6.66365,-13.6939 12.93688,-15.04129 z"
         sodipodi:nodetypes="ssssssssssssssss"
         inkscape:connector-curvature="0"
         id="path14188-1"
         d="m 137.57703,281.0191 c 1.59929,-0.66295 3.3982,-0.78361 5.10074,-0.46963 1.70253,0.31398 3.31141,1.04948 4.74342,2.02239 2.86402,1.94583 4.98821,4.77774 7.02263,7.57952 4.67189,6.43406 9.16868,13.00227 13.24488,19.8293 3.30635,5.53766 6.34352,11.25685 10.16415,16.45304 2.49398,3.3919 5.3066,6.53947 7.813,9.92221 2.50639,3.38273 4.72794,7.05586 5.83931,11.11662 1.44411,5.27653 0.88463,11.09291 -1.62666,15.95302 -1.76663,3.41896 -4.47646,6.35228 -7.77242,8.33898 -3.29595,1.9867 -7.17064,3.01444 -11.01635,2.87021 -6.11413,-0.2293 -11.69944,-3.28515 -17.38362,-5.54906 -11.58097,-4.6125 -24.15978,-6.0594 -36.09666,-9.65174 -3.66859,-1.10404 -7.27582,-2.4107 -10.96988,-3.42629 -1.64125,-0.45122 -3.30866,-0.8482 -4.85875,-1.55144 -1.55008,-0.70325 -2.999548,-1.7491 -3.86171,-3.21675 -0.666391,-1.13439 -0.948386,-2.47002 -0.930187,-3.78554 0.0182,-1.31552 0.325889,-2.61453 0.773815,-3.85158 0.895851,-2.47409 2.343262,-4.71374 3.320162,-7.15696 1.59511,-3.98935 1.88169,-8.38839 1.66657,-12.67942 -0.21511,-4.29103 -0.91078,-8.54478 -1.20454,-12.83115 -0.13118,-1.91406 -0.18066,-3.85256 0.18479,-5.73598 0.36545,-1.88343 1.17577,-3.72459 2.55771,-5.05541 1.27406,-1.22693 2.96492,-1.95531 4.69643,-2.31651 1.73151,-0.3612 3.51533,-0.37747 5.28367,-0.33762 1.76833,0.0399 3.54067,0.13425 5.30351,-0.0106 1.76284,-0.14488 3.53347,-0.54055 5.06911,-1.41828 1.45996,-0.83447 2.65433,-2.0745 3.64374,-3.43424 0.9894,-1.35974 1.78909,-2.84573 2.60891,-4.31396 0.81983,-1.46823 1.66834,-2.93151 2.74157,-4.22611 1.07324,-1.2946 2.38923,-2.42304 3.94266,-3.06698"
         style="fill:#402c07;fill-opacity:1;stroke:none" />
    </clipPath>
    <inkscape:path-effect
       is_visible="true"
       id="path-effect4669-1"
       effect="spiro" />
    <inkscape:path-effect
       is_visible="true"
       id="path-effect4669-4-3"
       effect="spiro" />
    <inkscape:path-effect
       effect="spiro"
       id="path-effect14300-7"
       is_visible="true" />
    <clipPath
       clipPathUnits="userSpaceOnUse"
       id="clipPath14489-3">
      <path
         style="fill:url(#linearGradient14493);fill-opacity:1;stroke:none"
         d="m 516.00562,331.8756 c -0.6714,1.71905 -1.62682,3.32679 -2.81579,4.73826 -2.6238,3.11482 -6.268,5.17039 -9.89648,7.01985 -6.1886,3.15437 -12.60169,5.92177 -18.41964,9.71654 -3.89802,2.54249 -7.4959,5.52671 -10.86016,8.74238 -2.87719,2.75012 -5.60582,5.68745 -8.83247,8.01771 -3.25567,2.35122 -7.01915,4.05426 -10.99061,4.6502 -4.83026,0.72481 -9.82134,-0.21289 -14.29898,-2.16416 -3.13754,-1.36728 -6.15569,-3.3229 -7.96301,-6.22931 -1.81425,-2.91754 -2.22807,-6.48813 -2.23266,-9.92375 -0.008,-6.07666 1.11824,-12.09004 2.17848,-18.07349 0.88097,-4.97177 1.71949,-9.95483 2.26013,-14.97502 0.98337,-9.13118 0.9763,-18.35278 0.3199,-27.51327 -0.10993,-1.53416 -0.23754,-3.0832 -0.008,-4.60412 0.22922,-1.52092 0.85475,-3.0367 2.02069,-4.03986 1.07696,-0.9266 2.52093,-1.33598 3.93947,-1.4145 1.41854,-0.0785 2.83404,0.14655 4.23982,0.35197 3.31254,0.48405 6.65159,0.8649 9.88917,1.71656 2.04284,0.53738 4.03315,1.25925 6.0722,1.81081 3.40258,0.92039 6.96639,1.36144 10.46739,0.95192 3.76917,-0.44089 7.42987,-1.85678 11.22363,-1.76474 1.55658,0.0378 3.1015,0.33171 4.58649,0.79985 1.51539,0.47772 3.00914,1.16182 4.12281,2.29512 0.84639,0.8613 1.43579,1.94539 1.87872,3.06879 0.65982,1.67352 1.01492,3.457 1.16703,5.24945 0.13475,1.58788 0.11343,3.19441 0.41433,4.75933 0.49503,2.57458 1.84746,4.92305 3.52848,6.93494 1.68102,2.01189 3.68982,3.72048 5.69641,5.40783 1.99908,1.68103 4.0106,3.35469 6.16708,4.82839 1.0121,0.69165 2.05642,1.33949 3.01736,2.10062 0.96094,0.76113 1.84466,1.6468 2.44543,2.71535 0.81492,1.44944 1.06377,3.2077 0.68307,4.82635 l 2e-5,0"
         id="path14491-6"
         inkscape:connector-curvature="0"
         sodipodi:nodetypes="aaaaaaaaaaaaaaaaaaaaaaaacscaa"
         inkscape:original-d="m 516.00562,331.8756 c 0.90859,1.59687 -1.57016,3.38773 -2.81579,4.73826 -2.74207,2.97299 -6.45099,4.90178 -9.89648,7.01985 -5.91373,3.63539 -12.61918,5.90302 -18.41964,9.71654 -3.88318,2.553 -7.32809,5.72221 -10.86016,8.74238 -3.0221,2.58411 -5.48201,5.87643 -8.83247,8.01771 -3.3519,2.1422 -7.0437,4.15414 -10.99061,4.6502 -4.78298,0.60114 -9.87221,-0.25577 -14.29898,-2.16416 -3.0947,-1.33413 -6.16113,-3.38144 -7.96301,-6.22931 -1.81288,-2.86525 -2.06093,-6.5375 -2.23266,-9.92375 -0.30734,-6.06031 1.36252,-12.0605 2.17848,-18.07349 0.67882,-5.00236 1.85312,-9.94325 2.26013,-14.97502 0.73946,-9.14185 -0.7797,-18.40771 0.3199,-27.51327 0.35468,-2.93704 -0.181,-6.65876 2.01238,-8.64398 2.0384,-1.84494 5.43058,-1.1212 8.17929,-1.06253 3.34492,0.0714 6.63224,0.95108 9.88917,1.71656 2.05612,0.48325 3.99816,1.41138 6.0722,1.81081 3.44031,0.66255 6.96573,1.06623 10.46739,0.95192 3.78516,-0.12356 7.43659,-1.79636 11.22363,-1.76474 1.55185,0.013 3.12359,0.28186 4.58649,0.79985 1.48266,0.52499 2.98786,1.20618 4.12281,2.29512 0.86547,0.83038 1.42933,1.95676 1.87872,3.06879 0.67163,1.66196 0.8942,3.4778 1.16703,5.24945 0.24238,1.57389 -0.1531,3.27141 0.41433,4.75933 1.83023,4.79924 5.57666,8.72712 9.22489,12.34277 1.74278,1.93455 4.03041,3.53404 6.16708,4.82839 2.26886,1.37444 4.3675,2.44991 5.46279,4.81597 0.65901,1.48517 -0.54371,3.76097 0.68307,4.82635 z" />
    </clipPath>
    <inkscape:path-effect
       is_visible="true"
       id="path-effect29707-7-6"
       effect="spiro" />
    <inkscape:path-effect
       effect="spiro"
       id="path-effect14972-2-2"
       is_visible="true" />
    <inkscape:path-effect
       effect="spiro"
       id="path-effect15017-9"
       is_visible="true" />
    <clipPath
       clipPathUnits="userSpaceOnUse"
       id="clipPath15031-3">
      <path
         style="fill:none;stroke:#729fcf;stroke-width:0.125;stroke-linecap:butt;stroke-linejoin:miter;stroke-miterlimit:4;stroke-dasharray:none;stroke-opacity:1"
         d="m 248.06066,184.61218 c -2.60091,3.4397 -5.23338,6.85555 -7.89695,10.24696 -2.83301,3.60715 -5.70116,7.1866 -8.58729,10.75139 -3.54135,4.37407 -7.15155,8.79286 -9.44912,13.93045 -1.97407,4.41422 -2.91014,9.20748 -4.26498,13.84932 -1.53862,5.27153 -3.62627,10.37023 -5.97071,15.33612 -2.1648,4.58539 -4.54978,9.06293 -6.93891,13.53553 -1.73823,3.25407 -3.50515,6.58104 -4.10782,10.22071 -0.47627,2.87632 -0.19849,5.84423 0.53376,8.66626 0.73224,2.82202 1.90964,5.5106 3.23775,8.10601 5.66724,11.07504 14.17003,20.62168 24.24176,27.92472 4.57063,3.31418 9.46669,6.18109 14.60245,8.52595 2.78247,1.27041 5.71355,2.40436 8.77186,2.45744 1.52915,0.0265 3.0741,-0.22544 4.47434,-0.84055 1.40024,-0.6151 2.65068,-1.60373 3.48254,-2.88709 1.02278,-1.5779 1.36992,-3.53829 1.16461,-5.40743 -0.2053,-1.86914 -0.93484,-3.65294 -1.91324,-5.25873 -2.38997,-3.92251 -6.1652,-6.76055 -9.79642,-9.57343 -7.84055,-6.07358 -15.42466,-12.48038 -22.68212,-19.23996 -2.04911,-1.90854 -4.0984,-3.87759 -5.53019,-6.28412 -1.3943,-2.34352 -2.14763,-5.01375 -2.65783,-7.69253 -1.39963,-7.34872 -1.0404,-15.0827 1.45958,-22.13343 0.97802,-2.75834 2.27066,-5.39225 3.51815,-8.03965 2.1622,-4.58855 4.21133,-9.26299 7.04933,-13.46723 3.53268,-5.23334 8.24484,-9.67275 11.15147,-15.27803 2.45457,-4.7335 3.49353,-10.05742 4.36185,-15.31831 0.66531,-4.03089 1.24751,-8.07549 1.74613,-12.13037"
         id="path15033-2"
         inkscape:connector-curvature="0"
         inkscape:original-d="m 248.06066,184.61218 c 0,0 -5.10626,6.34527 -7.89695,10.24696 -2.7907,3.9017 -5.73652,6.64881 -8.58729,10.75139 -2.85076,4.10259 -7.36482,9.43164 -9.44912,13.93045 -2.08429,4.49881 -2.32047,9.0356 -4.26498,13.84932 -1.94451,4.81371 -3.70129,10.64183 -5.97071,15.33612 -2.26943,4.69429 -5.37093,9.68473 -6.93891,13.53553 -1.56799,3.8508 -3.81119,5.72384 -4.10782,10.22071 -0.29663,4.49686 -0.57747,8.31749 3.77151,16.77227 4.34898,8.45478 17.23626,22.00721 24.24176,27.92472 7.00549,5.9175 9.39133,7.22492 14.60245,8.52595 5.21112,1.30104 13.85627,2.9981 16.72874,-1.2702 2.87246,-4.26829 2.27191,-5.96483 -0.74863,-10.66616 -3.02055,-4.70132 -4.82469,-5.30209 -9.79642,-9.57343 -4.97172,-4.27133 -18.63696,-14.87266 -22.68212,-19.23996 -4.04516,-4.36729 -7.10731,-3.41164 -5.53019,-6.28412 1.57712,-2.87249 -2.20738,-4.00856 -2.65783,-7.69253 -0.76361,-6.24511 0.9436,-18.71046 1.45958,-22.13343 0.51598,-3.42296 1.22371,-2.92446 3.51815,-8.03965 2.29444,-5.11519 4.12424,-8.62435 7.04933,-13.46723 2.92509,-4.84289 8.62493,-10.12787 11.15147,-15.27803 2.52654,-5.15017 3.50393,-10.72068 4.36185,-15.31831 0.85792,-4.59763 1.74613,-12.13037 1.74613,-12.13037 z"
         sodipodi:nodetypes="czzzzzzzzzzzzzzzszzzzzc" />
    </clipPath>
    <inkscape:path-effect
       is_visible="true"
       id="path-effect29716-6-1"
       effect="spiro" />
    <clipPath
       clipPathUnits="userSpaceOnUse"
       id="clipPath14822-9">
      <path
         sodipodi:nodetypes="aaaasssaccaa"
         inkscape:connector-curvature="0"
         d="m 386.1875,285.32775 c -0.40516,-1.10369 -1.11845,-2.08156 -1.9907,-2.86987 -0.87226,-0.78832 -1.90049,-1.39229 -2.98278,-1.85155 -2.16459,-0.91852 -4.52053,-1.26149 -6.83152,-1.69556 -2.17919,-0.40931 -4.34179,-0.90631 -6.52782,-1.27734 -2.27136,-0.38551 -4.6179,-0.63213 -6.8653,-0.1253 -1.96583,0.44333 -3.7845,1.45879 -5.27172,2.81864 -1.48723,1.35984 -2.64911,3.0564 -3.48499,4.89007 -1.47218,3.22952 -1.93451,6.86503 -1.65394,10.40316 0.20882,2.63325 0.87532,5.34594 2.60877,7.33912 1.40065,1.61052 3.38733,2.61526 5.43398,3.22092 3.52502,1.04316 7.36663,0.98822 10.86038,-0.1553 5.76689,-1.93113 10.87568,-5.77387 14.33034,-10.77903 1.13861,-1.64963 2.11217,-3.44809 2.5532,-5.4034 0.33597,-1.48955 0.34831,-3.08112 -0.1779,-4.51456"
         id="path14824-1"
         inkscape:original-d="m 386.1875,285.32775 c -2.36571,-3.81321 -7.59294,-4.9003 -11.805,-6.41698 -2.08672,-0.75138 -4.32322,-1.04333 -6.52782,-1.27734 -2.27612,-0.2416 -4.71593,-0.91505 -6.8653,-0.1253 -3.64566,1.33955 -7.24986,3.80684 -8.75671,7.70871 -1.13743,2.94527 -1.80122,7.05909 -1.65394,10.40316 0.13075,2.96891 0.9633,5.07273 2.60877,7.33912 1.08803,1.49859 3.40096,2.67896 5.43398,3.22092 3.49923,0.93284 7.37483,0.82779 10.86038,-0.1553 5.98587,-2.2615 11.09272,-5.76885 14.33034,-10.77903 1.07459,-1.67639 2.15539,-3.45031 2.5532,-5.4034 0.30053,-1.4755 0.61519,-3.23621 -0.1779,-4.51456 z"
         style="fill:none;stroke:#ce5c00;stroke-width:1px;stroke-linecap:butt;stroke-linejoin:miter;stroke-opacity:1" />
    </clipPath>
    <clipPath
       clipPathUnits="userSpaceOnUse"
       id="clipPath14822-2-4">
      <path
         sodipodi:nodetypes="aaaasssaccaa"
         inkscape:connector-curvature="0"
         d="m 386.1875,285.32775 c -0.40516,-1.10369 -1.11845,-2.08156 -1.9907,-2.86987 -0.87226,-0.78832 -1.90049,-1.39229 -2.98278,-1.85155 -2.16459,-0.91852 -4.52053,-1.26149 -6.83152,-1.69556 -2.17919,-0.40931 -4.34179,-0.90631 -6.52782,-1.27734 -2.27136,-0.38551 -4.6179,-0.63213 -6.8653,-0.1253 -1.96583,0.44333 -3.7845,1.45879 -5.27172,2.81864 -1.48723,1.35984 -2.64911,3.0564 -3.48499,4.89007 -1.47218,3.22952 -1.93451,6.86503 -1.65394,10.40316 0.20882,2.63325 0.87532,5.34594 2.60877,7.33912 1.40065,1.61052 3.38733,2.61526 5.43398,3.22092 3.52502,1.04316 7.36663,0.98822 10.86038,-0.1553 5.76689,-1.93113 10.87568,-5.77387 14.33034,-10.77903 1.13861,-1.64963 2.11217,-3.44809 2.5532,-5.4034 0.33597,-1.48955 0.34831,-3.08112 -0.1779,-4.51456"
         id="path14824-6-5"
         inkscape:original-d="m 386.1875,285.32775 c -2.36571,-3.81321 -7.59294,-4.9003 -11.805,-6.41698 -2.08672,-0.75138 -4.32322,-1.04333 -6.52782,-1.27734 -2.27612,-0.2416 -4.71593,-0.91505 -6.8653,-0.1253 -3.64566,1.33955 -7.24986,3.80684 -8.75671,7.70871 -1.13743,2.94527 -1.80122,7.05909 -1.65394,10.40316 0.13075,2.96891 0.9633,5.07273 2.60877,7.33912 1.08803,1.49859 3.40096,2.67896 5.43398,3.22092 3.49923,0.93284 7.37483,0.82779 10.86038,-0.1553 5.98587,-2.2615 11.09272,-5.76885 14.33034,-10.77903 1.07459,-1.67639 2.15539,-3.45031 2.5532,-5.4034 0.30053,-1.4755 0.61519,-3.23621 -0.1779,-4.51456 z"
         style="fill:none;stroke:#ce5c00;stroke-width:1px;stroke-linecap:butt;stroke-linejoin:miter;stroke-opacity:1" />
    </clipPath>
    <inkscape:path-effect
       is_visible="true"
       id="path-effect28273-44"
       effect="spiro" />
    <inkscape:path-effect
       is_visible="true"
       id="path-effect28273-54-7"
       effect="spiro" />
    <inkscape:path-effect
       is_visible="true"
       id="path-effect28463-4"
       effect="spiro" />
    <inkscape:path-effect
       is_visible="true"
       id="path-effect29455-3"
       effect="spiro" />
    <inkscape:path-effect
       is_visible="true"
       id="path-effect28881-6"
       effect="spiro" />
    <inkscape:path-effect
       is_visible="true"
       id="path-effect28273-4-2"
       effect="spiro" />
    <linearGradient
       id="linearGradient28799-3">
      <stop
         id="stop28801-6"
         offset="0"
         style="stop-color:#fefefc;stop-opacity:1;" />
      <stop
         style="stop-color:#fefefc;stop-opacity:1"
         offset="0.75733864"
         id="stop28807-7" />
      <stop
         id="stop28803-0"
         offset="1"
         style="stop-color:#d4d4d4;stop-opacity:1" />
    </linearGradient>
    <inkscape:path-effect
       is_visible="true"
       id="path-effect28797-81"
       effect="spiro" />
    <inkscape:path-effect
       is_visible="true"
       id="path-effect28797-8-1"
       effect="spiro" />
    <inkscape:path-effect
       is_visible="true"
       id="path-effect29721-2"
       effect="spiro" />
    <inkscape:path-effect
       is_visible="true"
       id="path-effect28714-5"
       effect="spiro" />
    <inkscape:path-effect
       is_visible="true"
       id="path-effect29678-4-6"
       effect="spiro" />
    <inkscape:path-effect
       is_visible="true"
       id="path-effect29672-0"
       effect="spiro" />
    <clipPath
       clipPathUnits="userSpaceOnUse"
       id="clipPath4149">
      <rect
         style="opacity:1;fill:none;fill-opacity:1;stroke:#000000;stroke-width:1;stroke-miterlimit:4;stroke-dasharray:none;stroke-dashoffset:0;stroke-opacity:1"
         id="rect4151"
         width="416"
         height="417"
         x="51"
         y="54"
         ry="60.628601" />
    </clipPath>
  </defs>
  <sodipodi:namedview
     id="base"
     pagecolor="#ffffff"
     bordercolor="#666666"
     borderopacity="1.0"
     inkscape:pageopacity="0.0"
     inkscape:pageshadow="2"
     inkscape:zoom="0.35"
     inkscape:cx="894.98452"
     inkscape:cy="75.066931"
     inkscape:document-units="px"
     inkscape:current-layer="layer1"
     showgrid="false"
     units="px"
     inkscape:window-width="1366"
     inkscape:window-height="715"
     inkscape:window-x="0"
     inkscape:window-y="24"
     inkscape:window-maximized="1"
     showguides="false" />
  <metadata
     id="metadata7">
    <rdf:RDF>
      <cc:Work
         rdf:about="">
        <dc:format>image/svg+xml</dc:format>
        <dc:type
           rdf:resource="http://purl.org/dc/dcmitype/StillImage" />
        <dc:title />
      </cc:Work>
    </rdf:RDF>
  </metadata>
  <g
     inkscape:label="Layer 1"
     inkscape:groupmode="layer"
     id="layer1"
     transform="translate(0,-540.36216)">
    <g
       id="g4196">
      <path
         sodipodi:nodetypes="czccccczcc"
         inkscape:connector-curvature="0"
         id="path4186"
         d="m 191.05117,791.92312 c 0,0 78.09408,12.28256 116.91102,24.11796 38.81691,11.83539 114.86705,47.00968 114.86705,47.00968 l -13.08094,14.30728 62.95206,20.03022 -25.34436,-60.90816 -12.67213,15.53362 c 0,0 -84.54652,-37.85507 -124.67783,-50.27993 -40.13132,-12.42485 -114.86706,-25.34431 -114.86706,-25.34431 z"
         style="fill:#b3b3b3;fill-rule:evenodd;stroke:none;stroke-width:1px;stroke-linecap:butt;stroke-linejoin:miter;stroke-opacity:1" />
      <path
         sodipodi:nodetypes="czzccccczzcc"
         inkscape:connector-curvature="0"
         id="path4188"
         d="m 197.88658,752.67583 c 0,0 13.00539,-9.54711 34.10802,4.62479 21.10262,14.17192 48.27793,61.6684 58.96635,102.32403 10.68844,40.65563 -1.97375,135.14155 -1.97375,135.14155 l -14.50216,-2.1782 10.6949,41.6234 25.72555,-34.3971 -13.87446,-2.8905 c 0,0 13.35071,-98.74983 1.7336,-141.63987 C 287.14752,812.3939 255.43805,765.23878 234.38184,748.18365 213.32562,731.12854 198.818,735.92028 198.818,735.92028 Z"
         style="fill:#b3b3b3;fill-rule:evenodd;stroke:none;stroke-width:1px;stroke-linecap:butt;stroke-linejoin:miter;stroke-opacity:1" />
      <path
         sodipodi:nodetypes="cccccccccc"
         inkscape:connector-curvature="0"
         id="path4190"
         d="m 185.32826,822.17279 c 0,0 53.0646,-3.65436 91.75823,-25.56123 76.36265,-48.75081 125.9452,-87.48317 164.90356,-169.52831 l 15.17516,-0.43355 -20.23357,-38.73279 -21.96785,39.31088 16.47586,0.28889 c -32.38785,76.13935 -88.51807,120.28464 -156.55259,157.35438 -34.83327,18.46405 -83.42708,19.31534 -83.42708,19.31534 z"
         style="fill:#b3b3b3;fill-rule:evenodd;stroke:none;stroke-width:1px;stroke-linecap:butt;stroke-linejoin:miter;stroke-opacity:1" />
      <path
         sodipodi:nodetypes="czzccccczzcc"
         inkscape:connector-curvature="0"
         id="path4192"
         d="m 171.42978,852.01372 c 0,0 -3.67636,10.40051 21.86968,2.45266 25.54603,-7.94784 77.70284,-61.71422 104.59872,-90.80664 26.89586,-29.09241 58.9664,-79.77801 58.9664,-79.77801 l 19.77257,2.16746 -17.16875,-62.95206 -45.37456,53.95889 19.21265,2.0439 c 0,0 -23.94926,53.94951 -47.00967,82.16471 -23.06041,28.21521 -70.60368,74.67979 -93.20174,81.75593 -22.59806,7.07613 -17.9863,-2.04391 -17.9863,-2.04391 z"
         style="fill:#b3b3b3;fill-rule:evenodd;stroke:none;stroke-width:1px;stroke-linecap:butt;stroke-linejoin:miter;stroke-opacity:1" />
      <path
         sodipodi:nodetypes="czzccccczzcc"
         inkscape:connector-curvature="0"
         id="path4194"
         d="m 199.04279,758.45683 c 0,0 86.91647,42.5778 115.62033,68.216 28.70386,25.6382 47.18722,50.36134 58.38828,77.46566 11.20108,27.10433 10.40582,79.19988 10.40582,79.19988 l 12.71824,9.82773 -53.18534,26.0147 12.14013,-58.38834 14.45257,12.14013 c 0,0 7.56156,-28.90845 -0.57812,-53.76348 -8.13966,-24.85503 -31.5599,-61.33307 -60.1226,-87.87142 -28.56269,-26.53835 -111.57362,-68.216 -111.57362,-68.216 z"
         style="fill:#b3b3b3;fill-rule:evenodd;stroke:none;stroke-width:1px;stroke-linecap:butt;stroke-linejoin:miter;stroke-opacity:1" />
      <path
         inkscape:connector-curvature="0"
         id="path3381"
         d="m 182.91782,555.83292 c 0,0 5.52842,5.24539 5.92857,8.17306 0.40015,2.92765 -2.65579,7.15364 -2.65574,7.15364 0,0 -3.68419,-7.15506 -6.948,-9.40706 -3.26379,-2.252 -11.65154,-3.26385 -11.65154,-3.26385 0,0 7.10141,5.27854 8.58443,8.37873 1.483,3.10016 0.81371,8.58436 0.81371,8.58436 0,0 -8.03246,-9.25208 -14.51294,-11.85719 -6.4806,-2.60513 -23.09738,-1.84205 -23.09738,-1.84205 0,0 13.00004,4.42501 16.14938,8.18199 3.14934,3.75698 3.27278,10.8288 3.27278,10.8288 0,0 -20.93864,-9.21041 -31.68169,-11.44583 -10.74306,-2.23541 -32.093055,-2.03877 -32.093055,-2.03877 0,0 18.022235,5.01135 23.714335,7.76169 5.69211,2.75033 10.53035,2.43892 10.82886,7.15363 0.29851,4.71473 -6.33531,8.73213 -11.65153,10.01511 -5.31623,1.28299 -9.78312,-4.19353 -16.96305,-4.08652 -7.179965,0.10718 -24.72482,6.74232 -24.72482,6.74232 0,0 14.844464,1.26123 20.432638,2.45908 5.588132,1.19781 13.082212,4.08652 13.082212,4.08652 0,0 -21.794138,5.82977 -30.859051,11.65148 -9.064914,5.82173 -22.489271,22.27465 -22.489271,22.27465 0,0 13.284352,-8.8322 19.010838,-11.03448 5.726485,-2.20226 9.493995,-9.70689 14.512947,-3.06712 5.018949,6.63978 -7.09376,24.84496 -16.355039,31.06467 -9.261279,6.21972 -24.027406,0.10209 -31.672763,3.06712 -7.645356,2.96525 -13.904897,10.42646 -13.904852,10.42646 0,0 10.846481,-4.57333 17.580063,-4.70354 6.733581,-0.13007 14.277116,6.19838 21.666589,4.9092 7.389474,-1.28916 19.207522,-12.2685 19.207522,-12.2685 l -10.417492,23.09732 c 0,0 -24.390924,2.39685 -31.887348,7.35934 -7.496424,4.9625 -12.465243,17.16874 -12.465243,17.16874 0,0 10.441849,-7.78997 17.9825,-10.63212 7.540649,-2.84212 26.97814,-5.10588 26.978186,-5.10588 l 2.253363,7.96734 c 0,0 -15.798221,7.36746 -19.627812,11.24017 -3.829591,3.87272 -4.900235,8.79003 -4.900235,8.79003 0,0 13.544949,-5.48369 18.805132,-7.35929 5.260182,-1.87562 12.6709,-4.08652 12.6709,-4.08652 0,0 -4.395244,8.77477 -6.742327,12.06284 -2.347082,3.28806 -6.956911,7.76169 -6.956911,7.76169 0,0 9.519313,-2.87643 13.287922,-5.10594 3.768606,-2.2295 9.201348,-7.77063 9.201348,-7.77063 l 2.450138,7.35932 c 0,0 -9.418543,5.49482 -12.062849,8.58436 -2.644307,3.08955 -4.292188,8.58439 -4.292188,8.58439 0,0 9.754961,-4.6423 13.082263,-4.90025 3.327258,-0.25775 4.905042,-1.06079 5.928574,1.22508 1.023536,2.28587 -3.57316,2.24758 -4.497844,7.76169 -0.924732,5.51408 11.62644,18.63285 4.703503,24.12565 -6.922941,5.49281 -14.41529,-16.75244 -25.958775,-11.65148 -11.543487,5.10094 -13.738706,28.66794 -14.718651,44.9159 -0.979947,16.24795 -2.658042,48.03888 9.827343,49.42278 12.485387,1.38389 6.313154,-18.31653 10.113445,-22.82907 3.800289,-4.51255 8.673787,-5.78551 8.673787,-5.78551 0,0 -1.339574,15.90842 -3.469506,21.97059 -2.129931,6.06217 -3.905775,12.28408 -8.092569,14.16422 -4.186792,1.88014 -10.989781,-2.31595 -10.989781,-2.31595 0,0 3.213943,4.71036 3.469504,7.22516 0.255471,2.51478 -1.734729,6.939 -1.734729,6.939 0,0 -19.208345,-0.6014 -25.431214,0 -6.222868,0.60146 -11.857148,2.31599 -11.857148,2.31599 0,0 8.022428,0.68063 11.714074,1.36815 3.691646,0.68754 10.399636,2.67371 10.399636,2.67371 0,0 -12.351195,5.76296 -17.267133,6.14316 -4.915938,0.37999 -11.061296,-2.09245 -11.061296,-2.09245 0,0 4.818649,5.76663 9.907786,6.93908 5.089135,1.1724 19.001862,-3.04035 19.001862,-3.04035 0,0 -9.596824,10.94423 -14.047971,16.28353 -4.451146,5.33928 -12.6709,15.73802 -12.6709,15.73802 0,0 12.566194,-6.8807 17.168746,-10.01511 4.60255,-3.13442 10.623148,-8.37872 10.623148,-8.37872 0,0 -3.556402,11.55453 -7.153643,17.16875 -3.597241,5.61424 -14.504018,15.73802 -14.504018,15.73802 0,0 9.24553,-5.35602 12.670899,-6.5456 3.425372,-1.18959 7.359303,-1.43073 7.359303,-1.43073 0,0 -0.263713,8.25446 -1.028293,12.67091 -0.764811,4.41645 -3.67521,13.69923 -3.67521,13.69923 l 13.895969,4.29218 c 0,0 -1.205109,5.49977 -2.24448,7.96737 -1.039374,2.46758 -3.889798,6.75124 -3.889798,6.75124 0,0 4.879632,-0.94794 6.956914,-1.43073 2.07728,-0.48277 5.517254,-1.43072 5.517254,-1.43072 0,0 0.731665,7.31809 0,10.4175 -0.731661,3.09938 -3.889795,7.77065 -3.889795,7.77065 0,0 5.037401,-2.34075 6.956911,-3.06716 1.919513,-0.72639 4.488919,-1.43072 4.488919,-1.43072 0,0 -0.04121,3.94129 -0.402435,6.13427 -0.359857,2.19297 -1.842047,6.94799 -1.842047,6.94799 0,0 4.43471,-2.70254 5.722916,-4.08654 1.288205,-1.38403 2.244435,-3.68413 2.244435,-3.68413 0,0 1.746908,11.31174 15.335627,20.4415 13.588711,9.12992 48.261061,22.74432 70.311371,18.39392 22.05033,-4.3505 42.29321,-17.39772 49.66418,-37.40469 7.37098,-20.00694 -2.89058,-51.11237 -14.3073,-64.17714 -11.4167,-13.06477 -22.9605,-15.95057 -35.97386,-13.28787 -13.01337,2.66271 -28.68646,16.92925 -30.04531,28.41784 -1.35884,11.48859 7.71889,20.03996 15.32671,23.4997 7.60776,3.45977 21.87224,-3.06711 21.87224,-3.06711 0,0 -19.72208,-0.091 -22.48034,-9.60377 -2.75827,-9.51306 7.90843,-27.65731 19.82453,-28.82025 11.91617,-1.16294 22.60219,14.38581 26.36123,25.75312 3.75903,11.36732 4.99412,24.38388 -5.51726,34.54316 -10.51139,10.15927 -36.68924,12.03529 -52.31999,6.53665 -15.63075,-5.49862 -27.24552,-19.00143 -32.49544,-33.5148 -5.24993,-14.51336 -5.94694,-30.25101 3.46955,-45.78332 9.41648,-15.53232 37.0947,-15.35994 53.55395,-33.31812 16.45928,-17.9582 31.54177,-47.53883 37.59239,-74.10279 6.05063,-26.56396 5.02876,-58.74521 -1.73473,-80.35333 -6.76347,-21.60813 -38.12991,-30.56714 -30.64446,-46.24829 7.48548,-15.68116 27.1974,-7.57792 48.56433,-4.62303 21.36693,2.95492 64.65722,18.46155 75.19376,29.14214 10.5365,10.68062 -1.59615,8.25922 3.26383,8.79003 4.86,0.53082 13.11385,-11.91574 10.83778,-16.75737 -2.27611,-4.84163 -0.62508,4.02339 -12.06284,-1.43073 -11.43779,-5.45413 -37.08756,-30.33484 -45.78333,-44.5583 -8.69577,-14.22346 -3.90233,-26.75165 -10.62314,-34.54314 -6.72081,-7.79149 -15.49244,-4.49528 -23.09733,-11.03447 -7.60493,-6.53918 -13.39538,-23.16394 -19.42215,-28.61459 -6.02678,-5.45062 -12.46524,-6.74231 -12.46524,-6.74231 z m 34.24807,56.72836 a 7.3580338,7.7668137 0 0 1 7.35931,7.77068 7.3580338,7.7668137 0 0 1 -7.35931,7.77066 7.3580338,7.7668137 0 0 1 -7.3593,-7.77066 7.3580338,7.7668137 0 0 1 7.3593,-7.77068 z"
         style="fill:#cf3427;fill-opacity:1;fill-rule:evenodd;stroke:none;stroke-width:1px;stroke-linecap:butt;stroke-linejoin:miter;stroke-opacity:1" />
    </g>
  </g>
</svg>
