<?xml version="1.0" encoding="UTF-8" standalone="no"?>
<!-- Generator: Adobe Illustrator 19.0.0, SVG Export Plug-In . SVG Version: 6.00 Build 0)  -->

<svg
   xmlns:dc="http://purl.org/dc/elements/1.1/"
   xmlns:cc="http://creativecommons.org/ns#"
   xmlns:rdf="http://www.w3.org/1999/02/22-rdf-syntax-ns#"
   xmlns:svg="http://www.w3.org/2000/svg"
   xmlns="http://www.w3.org/2000/svg"
   xmlns:sodipodi="http://sodipodi.sourceforge.net/DTD/sodipodi-0.dtd"
   xmlns:inkscape="http://www.inkscape.org/namespaces/inkscape"
   version="1.1"
   id="Layer_1"
   x="0px"
   y="0px"
   viewBox="0 0 500 500"
   xml:space="preserve"
   inkscape:version="0.91 r13725"
   width="100%"
   height="100%"
   sodipodi:docname="variety-slideshow.svg"><metadata
     id="metadata57"><rdf:RDF><cc:Work
         rdf:about=""><dc:format>image/svg+xml</dc:format><dc:type
           rdf:resource="http://purl.org/dc/dcmitype/StillImage" /></cc:Work></rdf:RDF></metadata><defs
     id="defs55" /><sodipodi:namedview
     pagecolor="#ffffff"
     bordercolor="#666666"
     borderopacity="1"
     objecttolerance="10"
     gridtolerance="10"
     guidetolerance="10"
     inkscape:pageopacity="0"
     inkscape:pageshadow="2"
     inkscape:window-width="1366"
     inkscape:window-height="715"
     id="namedview53"
     showgrid="false"
     inkscape:zoom="0.74330375"
     inkscape:cx="188.76425"
     inkscape:cy="204.6532"
     inkscape:window-x="0"
     inkscape:window-y="24"
     inkscape:window-maximized="1"
     inkscape:current-layer="Layer_1" /><g
     id="g23"
     transform="translate(0,39.767)" /><g
     id="g25"
     transform="translate(0,39.767)" /><g
     id="g27"
     transform="translate(0,39.767)" /><g
     id="g29"
     transform="translate(0,39.767)" /><g
     id="g31"
     transform="translate(0,39.767)" /><g
     id="g33"
     transform="translate(0,39.767)" /><g
     id="g35"
     transform="translate(0,39.767)" /><g
     id="g37"
     transform="translate(0,39.767)" /><g
     id="g39"
     transform="translate(0,39.767)" /><g
     id="g41"
     transform="translate(0,39.767)" /><g
     id="g43"
     transform="translate(0,39.767)" /><g
     id="g45"
     transform="translate(0,39.767)" /><g
     id="g47"
     transform="translate(0,39.767)" /><g
     id="g49"
     transform="translate(0,39.767)" /><g
     id="g51"
     transform="translate(0,39.767)" /><g
     id="g4173"><polygon
       transform="matrix(0.90000001,0,0,0.90000001,41.093522,67.785834)"
       id="polygon3"
       points="309.125,441.463 151.34,441.463 171.063,352.014 289.402,352.014 "
       style="fill:#cccccc" /><rect
       id="rect5"
       height="16.4664"
       width="177.47369"
       style="fill:#d8d9dd"
       y="455.95404"
       x="159.56593" /><rect
       id="rect11"
       height="16.4664"
       width="177.47369"
       style="opacity:0.4;fill:#394050;enable-background:new"
       y="455.95404"
       x="159.56593" /><path
       id="path9-3"
       d="m 453.77971,125.02828 c 0.0117,0 0.22108,0.13599 0.22108,0.14772 l 0,250.43185 -410.224885,0 0,-250.43185 c 0,-0.0117 0.145761,-0.14772 0.1575,-0.14772 l 409.846305,0 0,0 z"
       style="fill:#00bbf2;fill-opacity:1"
       inkscape:connector-curvature="0" /><path
       sodipodi:nodetypes="cccczzc"
       inkscape:connector-curvature="0"
       id="path3787-6"
       d="m 43.19643,263.53147 -0.656509,116.54879 412.727599,-0.29434 -1.09114,-96.43732 c 0,0 -58.27833,18.58645 -108.68195,12.83433 C 295.09082,290.4308 218.24676,232.7663 164.60902,230.59143 110.97135,228.41659 43.19643,263.53147 43.19643,263.53147 Z"
       style="fill:#004455;fill-opacity:1;stroke:none;stroke-width:0.5405004px;stroke-linecap:butt;stroke-linejoin:miter;stroke-opacity:1" /><path
       id="path7-7"
       d="m 453.77971,125.02828 c 0.0117,0 0.22108,0.13599 0.22108,0.14772 l 0,250.43185 -410.224885,0 0,-250.43185 c 0,-0.0117 0.145761,-0.14772 0.1575,-0.14772 l 409.846305,0 0,0 z m 20.10913,125.28881 0,-125.17631 c 0,-10.61119 -9.46173,-19.99956 -20.07391,-19.99956 l 0,0 -409.916742,0 c -10.611196,0 -20.009348,9.38837 -20.009348,19.99956 l 0,125.17631 0,0.003 0,125.17728 c 0,10.61218 9.398152,19.99957 20.009348,19.99957 l 409.916742,0 0,0 c 10.61218,0 20.07391,-9.38837 20.07391,-19.99957 l 0,-125.17728 0,-0.003 z"
       style="fill:#394050"
       inkscape:connector-curvature="0" /><path
       sodipodi:open="true"
       sodipodi:end="6.2784904"
       sodipodi:start="0"
       transform="matrix(0.89137186,-0.45327278,0.45327279,0.89137185,0,0)"
       d="m 295.31676,331.10565 a 20.376604,19.992138 0 0 1 -20.35269,19.99213 20.376604,19.992138 0 0 1 -20.40046,-19.9452 20.376604,19.992138 0 0 1 20.3048,-20.03894 20.376604,19.992138 0 0 1 20.44812,19.89815"
       sodipodi:ry="19.992138"
       sodipodi:rx="20.376604"
       sodipodi:cy="331.10565"
       sodipodi:cx="274.94016"
       id="path3767-5"
       style="fill:#ffffff;fill-opacity:1;stroke:none"
       sodipodi:type="arc" /><path
       sodipodi:nodetypes="cccc"
       inkscape:connector-curvature="0"
       id="path4503"
       d="m 215.9457,206.04748 0,100.83808 85.61724,-47.56513 z"
       style="fill:#ffffff;stroke:none;stroke-width:1px;stroke-linecap:butt;stroke-linejoin:miter;stroke-opacity:1" /></g></svg>