<?xml version="1.0" encoding="UTF-8" standalone="no"?>
<!-- Generator: flash2svg, http://dissentgraphics.com/tools/flash2svg -->

<svg
   xmlns:dc="http://purl.org/dc/elements/1.1/"
   xmlns:cc="http://creativecommons.org/ns#"
   xmlns:rdf="http://www.w3.org/1999/02/22-rdf-syntax-ns#"
   xmlns:svg="http://www.w3.org/2000/svg"
   xmlns="http://www.w3.org/2000/svg"
   xmlns:sodipodi="http://sodipodi.sourceforge.net/DTD/sodipodi-0.dtd"
   xmlns:inkscape="http://www.inkscape.org/namespaces/inkscape"
   id="VMWare-Fusion-app"
   image-rendering="optimizeSpeed"
   version="1.1"
   style="background-color:#ffffff"
   x="0px"
   y="0px"
   width="1024px"
   height="1024px"
   viewBox="0 0 1024 1024"
   enable-background="new 0 0 1024 1024"
   inkscape:version="0.91 r13725"
   sodipodi:docname="vmware-workstation.svg">
  <metadata
     id="metadata20">
    <rdf:RDF>
      <cc:Work
         rdf:about="">
        <dc:format>image/svg+xml</dc:format>
        <dc:type
           rdf:resource="http://purl.org/dc/dcmitype/StillImage" />
        <dc:title />
      </cc:Work>
    </rdf:RDF>
  </metadata>
  <sodipodi:namedview
     pagecolor="#ffffff"
     bordercolor="#666666"
     borderopacity="1"
     objecttolerance="10"
     gridtolerance="10"
     guidetolerance="10"
     inkscape:pageopacity="0"
     inkscape:pageshadow="2"
     inkscape:window-width="1366"
     inkscape:window-height="715"
     id="namedview18"
     showgrid="false"
     inkscape:zoom="0.1767767"
     inkscape:cx="46.345359"
     inkscape:cy="675.34375"
     inkscape:window-x="0"
     inkscape:window-y="24"
     inkscape:window-maximized="1"
     inkscape:current-layer="VMWare-Fusion-app" />
  <defs
     transform="matrix(1 0 0 1 0 0) "
     id="defs3" />
  <g
     id="g3338">
    <path
       inkscape:connector-curvature="0"
       id="rect3336"
       d="m 116.37611,99.82881 c -8.4619,0 -15.27342,6.81155 -15.27342,15.27346 l 0,551.81426 c 0,8.46191 6.81152,15.2754 15.27342,15.2754 l 380.37279,0 -61.47227,-63.52972 -262.18555,0 c -8.46189,0 -15.2754,-6.81153 -15.2754,-15.27345 l 0,-426.52113 c 0,-8.4619 6.81351,-15.27345 15.2754,-15.27345 l 422.20829,0 c 8.46197,0 15.2735,6.81155 15.2735,15.27345 l 0,253.03773 60.69594,62.72614 0,-377.52923 c 0,-8.46191 -6.81164,-15.27346 -15.27352,-15.27346 l -539.61918,0 z"
       style="opacity:1;fill:#00bbf2;fill-opacity:1;stroke:#00bbf2;stroke-width:124.22172545999997340;stroke-miterlimit:4;stroke-dasharray:none;stroke-dashoffset:0;stroke-opacity:1" />
    <path
       inkscape:connector-curvature="0"
       id="rect3336-30"
       d="m 910.56634,929.19832 c 8.46188,0 15.2734,-6.81155 15.2734,-15.27346 l 0,-551.81426 c 0,-8.4619 -6.81152,-15.27544 -15.2734,-15.27544 l -380.37278,0 61.47227,63.52976 262.18554,0 c 8.46188,0 15.2754,6.81153 15.2754,15.27345 l 0,426.52113 c 0,8.4619 -6.81352,15.27345 -15.2754,15.27345 l -422.20827,0 c -8.46199,0 -15.27351,-6.81155 -15.27351,-15.27345 l 0,-253.03773 -60.69593,-62.72614 0,377.52923 c 0,8.46191 6.81162,15.27346 15.27351,15.27346 l 539.61917,0 z"
       style="opacity:1;fill:none;fill-opacity:1;stroke:#f03916;stroke-width:124.22172545999997340;stroke-miterlimit:4;stroke-dasharray:none;stroke-dashoffset:0;stroke-opacity:1" />
    <rect
       ry="41.161793"
       y="556.29901"
       x="293.61508"
       height="187.51483"
       width="184.84694"
       id="rect4259"
       style="opacity:1;fill:#f03916;fill-opacity:1;stroke:none;stroke-width:125;stroke-miterlimit:4;stroke-dasharray:none;stroke-dashoffset:0;stroke-opacity:1" />
    <rect
       ry="0"
       y="267.85641"
       x="548.77997"
       height="187.51483"
       width="184.84694"
       id="rect4259-4"
       style="opacity:1;fill:#00bbf2;fill-opacity:1;stroke:none;stroke-width:125;stroke-miterlimit:4;stroke-dasharray:none;stroke-dashoffset:0;stroke-opacity:1" />
    <rect
       transform="matrix(0.69445119,0.71953981,-0.71953981,0.69445119,0,0)"
       ry="0"
       y="-164.09425"
       x="708.76227"
       height="85.457573"
       width="84.241714"
       id="rect4259-4-6"
       style="opacity:1;fill:#00bbf2;fill-opacity:1;stroke:none;stroke-width:125;stroke-miterlimit:4;stroke-dasharray:none;stroke-dashoffset:0;stroke-opacity:1" />
    <rect
       y="452.63232"
       x="640.5542"
       height="23.7845"
       width="93.073135"
       id="rect4291"
       style="opacity:1;fill:#00bbf2;fill-opacity:1;stroke:none;stroke-width:125;stroke-miterlimit:4;stroke-dasharray:none;stroke-dashoffset:0;stroke-opacity:1" />
  </g>
</svg>
