<?xml version="1.0" encoding="UTF-8" standalone="no"?>
<!-- Created with Inkscape (http://www.inkscape.org/) -->

<svg
   xmlns:dc="http://purl.org/dc/elements/1.1/"
   xmlns:cc="http://creativecommons.org/ns#"
   xmlns:rdf="http://www.w3.org/1999/02/22-rdf-syntax-ns#"
   xmlns:svg="http://www.w3.org/2000/svg"
   xmlns="http://www.w3.org/2000/svg"
   xmlns:sodipodi="http://sodipodi.sourceforge.net/DTD/sodipodi-0.dtd"
   xmlns:inkscape="http://www.inkscape.org/namespaces/inkscape"
   id="svg2"
   version="1.1"
   inkscape:version="0.91 r13725"
   width="512"
   height="512"
   sodipodi:docname="zegrapher.svg">
  <metadata
     id="metadata8">
    <rdf:RDF>
      <cc:Work
         rdf:about="">
        <dc:format>image/svg+xml</dc:format>
        <dc:type
           rdf:resource="http://purl.org/dc/dcmitype/StillImage" />
        <dc:title />
      </cc:Work>
    </rdf:RDF>
  </metadata>
  <defs
     id="defs6" />
  <sodipodi:namedview
     pagecolor="#ffffff"
     bordercolor="#666666"
     borderopacity="1"
     objecttolerance="10"
     gridtolerance="10"
     guidetolerance="10"
     inkscape:pageopacity="0"
     inkscape:pageshadow="2"
     inkscape:window-width="1366"
     inkscape:window-height="715"
     id="namedview4"
     showgrid="false"
     inkscape:zoom="0.38218943"
     inkscape:cx="441.32088"
     inkscape:cy="772.58471"
     inkscape:window-x="0"
     inkscape:window-y="24"
     inkscape:window-maximized="1"
     inkscape:current-layer="svg2" />
  <g
     id="g4169">
    <rect
       ry="19.265604"
       y="12"
       x="10"
       height="490"
       width="490"
       id="rect3334"
       style="fill:#00bbf2;fill-opacity:1;stroke:none;stroke-width:8;stroke-linecap:round;stroke-miterlimit:4;stroke-dasharray:none;stroke-opacity:1" />
    <g
       id="flowRoot3347"
       style="font-style:normal;font-weight:normal;font-size:328.82843018px;line-height:125%;font-family:sans-serif;letter-spacing:0px;word-spacing:0px;fill:#394050;fill-opacity:1;stroke:none;stroke-width:1px;stroke-linecap:butt;stroke-linejoin:miter;stroke-opacity:1"
       transform="matrix(1.0764047,0,0,1.0764047,-2.6817836,-13.893576)">
      <path
         id="path3367"
         style="font-style:normal;font-variant:normal;font-weight:bold;font-stretch:normal;font-family:sans-serif;-inkscape-font-specification:'sans-serif Bold';fill:#394050;fill-opacity:1"
         d="m 38.792612,130.47389 201.503748,0 0,37.41066 -128.60916,155.58337 132.30206,0 0,46.72318 -208.889545,0 0,-37.41065 128.609165,-155.58338 -124.916268,0 0,-46.72318 z" />
    </g>
    <g
       id="flowRoot3355"
       style="font-style:normal;font-weight:normal;font-size:328.82843018px;line-height:125%;font-family:sans-serif;letter-spacing:0px;word-spacing:0px;fill:#394050;fill-opacity:1;stroke:none;stroke-width:1px;stroke-linecap:butt;stroke-linejoin:miter;stroke-opacity:1"
       transform="matrix(0.8605921,0,0,0.8605921,-307.82569,-177.20454)">
      <path
         inkscape:connector-curvature="0"
         id="path3364"
         style="font-style:normal;font-variant:normal;font-weight:bold;font-stretch:normal;font-family:sans-serif;-inkscape-font-specification:'sans-serif Bold';fill:#394050;fill-opacity:1"
         d="m 906.3689,629.98409 q -23.12075,11.23926 -48.00767,16.85888 -24.88692,5.61963 -51.37944,5.61963 -59.88917,0 -94.89141,-33.39664 -35.00225,-33.5572 -35.00225,-90.87739 0,-57.96243 35.64449,-91.19851 35.64449,-33.23607 97.62094,-33.23607 23.92356,0 45.75982,4.4957 21.99682,4.4957 41.42467,13.32654 l 0,49.61327 q -20.07009,-11.39981 -39.97962,-17.01944 -19.74898,-5.61962 -39.65851,-5.61962 -36.92898,0 -56.99907,20.71234 -19.90953,20.55177 -19.90953,58.92579 0,38.0529 19.26729,58.76524 19.26729,20.71234 54.75121,20.71234 9.63365,0 17.82225,-1.12393 8.34916,-1.28448 14.93215,-3.85346 l 0,-46.56262 -37.73178,0 0,-41.42467 96.33646,0 0,115.28262 z" />
    </g>
  </g>
</svg>
