<svg xmlns="http://www.w3.org/2000/svg" xmlns:xlink="http://www.w3.org/1999/xlink" viewBox="0 0 48 48"><defs><linearGradient id="0"><stop stop-color="#7BB540"/><stop offset="1" stop-color="#7BB540"/></linearGradient><linearGradient xlink:href="#0" id="1" x1="317.9" y1="569.02" x2="317.98" y2="473.2" gradientUnits="userSpaceOnUse"/><linearGradient xlink:href="#0" id="2" x1="205.03" y1="573.24" x2="204.7" y2="473.58" gradientUnits="userSpaceOnUse"/></defs><g transform="matrix(.4677 0 0 .4677-72.04-220.2)"><g transform="matrix(1.0105 0 0 1.0105-2.49-5.618)"><path d="m317.89 471.99c-27.16 0-49.18 22.02-49.18 49.18 0 27.16 22.02 49.18 49.18 49.18 27.16 0 49.18-22.02 49.18-49.18 0-27.16-22.02-49.18-49.18-49.18" fill="url(#1)" color="#7BB540" transform="translate(-111.71 1.997)"/><g transform="matrix(.75147-.23143.23143.75147 71.74 462.4)" fill-rule="evenodd"><path d="m196.12 154.9c7.198-20.298 7.779-41.2-17.641-56.11l4.317-3.19c-33.407-13.9-50.552-6.02-60.17 9.209l5.185-1.514c1.562 20.79 14.901 19.71 22.709 28.902 43.892-14.307 39.511 8.194 45.605 22.709" fill="#FEFEFE"/><path d="m167.07 177.77c8.641-2.653 22.366-12.91 27.05-27.05 0 0 .927.564 1.815 4.556 7.521-14.858 2.477-26.25-4.317-37.16-.071 4.666-3.941 6.756-3.941 6.756-5.01-7.951-12.58-12.513-21.488-15.313-11.407-3.587-30.632 8.1-38.19-5.518 1.189 11.766 6.298 18.567 13.325 19.33 10.954 15.719 36.456 24.24 25.751 54.4" fill="#FEFEFE"/><path d="m124.85 181.31c27.86 9.665 66.27-5.834 53.817-42.36-.842 2.036-4.504 4.129-4.504 4.129-14.14-24.21-34.683-21.706-54.613-21.77 22.761-.355 30.356 37.04 5.301 59.997" fill="#FEFEFE"/><path d="m116.22 178.49c19.418 11.243 37.622-5.289 41.927-27.984 0 0-4.263 4.02-7.01 4.193 10.584-27.769-18.534-34.05-32.2-32.475 26.757 9.961 28.85 40.995-2.716 56.27" fill="#FEFEFE"/><path d="m105.47 135.01c4.911-8.397 13.753-13.694 31.03-13.449-5.117-4.987-7.896-10.783-8.509-18.456-21.688 2.823-23.463 17.275-22.521 31.905" fill="#FEFEFE"/><path d="m148.7 110.36c.424 12.609 16.17 6.077 13.761-1.562-4.295.131-8.506.15-13.761 1.562" fill="#7BB540"/></g></g><path d="m205.36 472.43c-27.446 0-49.695 22.249-49.695 49.695 0 27.446 22.249 49.695 49.695 49.695 27.446 0 49.695-22.249 49.695-49.695 0-27.446-22.249-49.695-49.695-49.695z" fill="none" stroke="url(#2)" color="#7BB540" stroke-width="3.241"/></g></svg>
