/* XPM */
static char * Close_xpm[] = {
"30 30 12 1",
" 	c None",
".	c #D63679",
"+	c #0F1013",
"@	c #7F2147",
"#	c #B22D65",
"$	c #CC3474",
"%	c #4B162B",
"&	c #A82A5E",
"*	c #CE3474",
"=	c #9A2756",
"-	c #5A1933",
";	c #802148",
"..............................",
"..............................",
"..............................",
"..............................",
"..............................",
"..............................",
"..............................",
"..............................",
"..............................",
"..............................",
"..............................",
"..............................",
"..............................",
"++++++++++++++++++++++++++++++",
"++++++++++++++++++++++++++++++",
"+++++++++++@#$.$#@++++++++++++",
"+++++++++%&.......&%++++++++++",
"+++++++++&.*=-+-=*.&++++++++++",
"++++++++@.*;+++++;*.@+++++++++",
"++++++++#.=+++++++=.#+++++++++",
"++++++++$.-+++++++-.$+++++++++",
"++++++++..+++++++++..+++++++++",
"++++++++$.-+++++++-.$+++++++++",
"++++++++#.=+++++++=.#+++++++++",
"++++++++@.*;+++++;*.@+++++++++",
"+++++++++&.*=-+-=*.&++++++++++",
"+++++++++%&.......&%++++++++++",
"+++++++++++@#$.$#@++++++++++++",
"++++++++++++++++++++++++++++++",
"++++++++++++++++++++++++++++++"};
