/* XPM */
static char * Minimize_pressed_xpm[] = {
"30 30 9 1",
" 	c None",
".	c #D63679",
"+	c #0F1013",
"@	c #1E5057",
"#	c #29727B",
"$	c #2F838D",
"%	c #318994",
"&	c #153034",
"*	c #266B74",
"..............................",
"..............................",
"..............................",
"..............................",
"..............................",
"..............................",
"..............................",
"..............................",
"..............................",
"..............................",
"..............................",
"..............................",
"..............................",
"++++++++++++++++++++++++++++++",
"++++++++++++++++++++++++++++++",
"+++++++++++@#$%$#@++++++++++++",
"+++++++++&*%%%%%%%*&++++++++++",
"+++++++++*%%%%%%%%%*++++++++++",
"++++++++@%%%%%%%%%%%@+++++++++",
"++++++++#%%%%%%%%%%%#+++++++++",
"++++++++$%%%%%%%%%%%$+++++++++",
"++++++++%%%%%%%%%%%%%+++++++++",
"++++++++$%%%%%%%%%%%$+++++++++",
"++++++++#%%%%%%%%%%%#+++++++++",
"++++++++@%%%%%%%%%%%@+++++++++",
"+++++++++*%%%%%%%%%*++++++++++",
"+++++++++&*%%%%%%%*&++++++++++",
"+++++++++++@#$%$#@++++++++++++",
"++++++++++++++++++++++++++++++",
"++++++++++++++++++++++++++++++"};
