<?xml version="1.0" encoding="UTF-8" standalone="no"?>
<!-- Created with Inkscape (http://www.inkscape.org/) -->

<svg
   xmlns:dc="http://purl.org/dc/elements/1.1/"
   xmlns:cc="http://creativecommons.org/ns#"
   xmlns:rdf="http://www.w3.org/1999/02/22-rdf-syntax-ns#"
   xmlns:svg="http://www.w3.org/2000/svg"
   xmlns="http://www.w3.org/2000/svg"
   xmlns:xlink="http://www.w3.org/1999/xlink"
   xmlns:sodipodi="http://sodipodi.sourceforge.net/DTD/sodipodi-0.dtd"
   xmlns:inkscape="http://www.inkscape.org/namespaces/inkscape"
   width="22"
   height="22"
   viewBox="0 0 22 22"
   id="svg2"
   version="1.1"
   inkscape:version="0.91 r13725"
   sodipodi:docname="aptdaemon-upgrade.svg">
  <defs
     id="defs4">
    <linearGradient
       x1="0"
       y1="0"
       x2="1"
       y2="0"
       gradientUnits="userSpaceOnUse"
       gradientTransform="matrix(0.0722656,0,0,-0.0722656,200.72217,103.27344)"
       spreadMethod="pad"
       id="linearGradient356">
      <stop
         style="stop-opacity:1;stop-color:#ffce00"
         offset="0"
         id="stop358" />
      <stop
         style="stop-opacity:1;stop-color:#ffb500"
         offset="0.266663"
         id="stop360" />
      <stop
         style="stop-opacity:1;stop-color:#ffb500"
         offset="0.266663"
         id="stop362" />
      <stop
         style="stop-opacity:1;stop-color:#ff3800"
         offset="1"
         id="stop364" />
    </linearGradient>
    <linearGradient
       x1="0"
       y1="0"
       x2="1"
       y2="0"
       gradientUnits="userSpaceOnUse"
       gradientTransform="matrix(0.3618164,0,0,-0.3618164,153.61572,194.44922)"
       spreadMethod="pad"
       id="linearGradient380">
      <stop
         style="stop-opacity:1;stop-color:#ffce00"
         offset="0"
         id="stop382" />
      <stop
         style="stop-opacity:1;stop-color:#ffb500"
         offset="0.266663"
         id="stop384" />
      <stop
         style="stop-opacity:1;stop-color:#ffb500"
         offset="0.266663"
         id="stop386" />
      <stop
         style="stop-opacity:1;stop-color:#ff3800"
         offset="1"
         id="stop388" />
    </linearGradient>
    <clipPath
       id="clipPath3871-9">
      <path
         d="M 0,95.999997 0,156 l 96.000001,0 0,-60.000003 -96.000001,0 z M 68,116 c 9.941125,0 18,8.05888 18,18 0,9.94112 -8.058875,18 -18,18 -9.941125,0 -18,-8.05888 -18,-18 0,-9.94112 8.058875,-18 18,-18 z"
         inkscape:connector-curvature="0"
         id="path3873-5"
         style="fill:#ffffff;fill-opacity:1;stroke:none" />
    </clipPath>
    <linearGradient
       x1="69"
       y1="122"
       x2="69"
       y2="5.9781809"
       id="linearGradient4090"
       xlink:href="#linearGradient3187"
       gradientUnits="userSpaceOnUse"
       gradientTransform="matrix(0.30997964,0,0,0.31034484,30.521478,1016.9792)" />
    <linearGradient
       id="linearGradient3187">
      <stop
         id="stop3189"
         style="stop-color:#1e71ac;stop-opacity:1"
         offset="0" />
      <stop
         id="stop3191"
         style="stop-color:#81c1e9;stop-opacity:1"
         offset="1" />
    </linearGradient>
    <linearGradient
       x1="120.64606"
       y1="87.489296"
       x2="118.33302"
       y2="67.706047"
       id="linearGradient4038"
       xlink:href="#linearGradient5010"
       gradientUnits="userSpaceOnUse" />
    <linearGradient
       id="linearGradient5010">
      <stop
         id="stop5012"
         style="stop-color:#000000;stop-opacity:1"
         offset="0" />
      <stop
         id="stop5014"
         style="stop-color:#000000;stop-opacity:0"
         offset="1" />
    </linearGradient>
    <linearGradient
       x1="69"
       y1="122"
       x2="69"
       y2="5.9781809"
       id="linearGradient4087"
       xlink:href="#linearGradient3210-5"
       gradientUnits="userSpaceOnUse"
       gradientTransform="matrix(0.30997964,0,0,0.31034484,30.563848,1016.9792)" />
    <linearGradient
       id="linearGradient3210-5">
      <stop
         id="stop3212-7"
         style="stop-color:#cd2323;stop-opacity:1"
         offset="0" />
      <stop
         id="stop3214-3"
         style="stop-color:#ef7474;stop-opacity:1"
         offset="1" />
    </linearGradient>
    <clipPath
       id="clipPath4029">
      <path
         d="m 118,56 c -9.94112,0 -18,8.05887 -18,18 0,9.94112 8.05888,18 18,18 9.73052,0 17.63723,-7.725264 17.96875,-17.375 l 0,-1.25 C 135.63723,63.725255 127.73052,56 118,56 Z m -6,10.75 c 5.9493,0.05747 10.83155,4.941297 11.03125,10.875 l 3.75,0.03125 -6,8.71875 -6.15625,-8.8125 3.96875,0.03125 c -0.25101,-4.905678 -4.48929,-9.950635 -11.71875,-9.625 1.52232,-0.80073 3.27178,-1.236656 5.125,-1.21875 z"
         inkscape:connector-curvature="0"
         id="path4031"
         style="display:inline;fill:url(#linearGradient4033);fill-opacity:1;stroke:none" />
    </clipPath>
    <linearGradient
       x1="84.35965"
       y1="79.416924"
       x2="84.35965"
       y2="5.1837206"
       id="linearGradient4029"
       xlink:href="#linearGradient3250"
       gradientUnits="userSpaceOnUse"
       gradientTransform="matrix(-0.11567413,0,0,-0.11666854,22.373443,1053.034)" />
    <linearGradient
       id="linearGradient3250">
      <stop
         id="stop3252"
         style="stop-color:#ffffff;stop-opacity:1"
         offset="0" />
      <stop
         id="stop3254"
         style="stop-color:#ffffff;stop-opacity:0.49803922"
         offset="0.43290177" />
      <stop
         id="stop3256"
         style="stop-color:#ffffff;stop-opacity:0"
         offset="1" />
    </linearGradient>
    <clipPath
       id="clipPath3607">
      <path
         d="m 118,56 c -9.94112,0 -18,8.05887 -18,18 0,9.94112 8.05888,18 18,18 9.73052,0 17.63723,-7.725264 17.96875,-17.375 l 0,-1.25 C 135.63723,63.725255 127.73052,56 118,56 Z m -6,10.75 c 5.9493,0.05747 10.83155,4.941297 11.03125,10.875 l 3.75,0.03125 -6,8.71875 -6.15625,-8.8125 3.96875,0.03125 c -0.25101,-4.905678 -4.48929,-9.950635 -11.71875,-9.625 1.52232,-0.80073 3.27178,-1.236656 5.125,-1.21875 z"
         inkscape:connector-curvature="0"
         id="path3609"
         style="display:inline;fill:url(#linearGradient4033);fill-opacity:1;stroke:none" />
    </clipPath>
    <linearGradient
       x1="84.35965"
       y1="79.416924"
       x2="84.35965"
       y2="5.1837206"
       id="linearGradient4042"
       xlink:href="#linearGradient3250"
       gradientUnits="userSpaceOnUse"
       gradientTransform="matrix(0.11567413,0,0,0.11666854,8.3415062,1038.4233)" />
    <linearGradient
       x1="64.321426"
       y1="55.310268"
       x2="64.321426"
       y2="84.889679"
       id="linearGradient3857"
       xlink:href="#linearGradient3737"
       gradientUnits="userSpaceOnUse"
       gradientTransform="translate(-2,0)" />
    <linearGradient
       id="linearGradient3737">
      <stop
         id="stop3739"
         style="stop-color:#ffffff;stop-opacity:1"
         offset="0" />
      <stop
         id="stop3741"
         style="stop-color:#ffffff;stop-opacity:0"
         offset="1" />
    </linearGradient>
  </defs>
  <sodipodi:namedview
     id="base"
     pagecolor="#ffffff"
     bordercolor="#666666"
     borderopacity="1.0"
     inkscape:pageopacity="0.0"
     inkscape:pageshadow="2"
     inkscape:zoom="15.839192"
     inkscape:cx="18.173446"
     inkscape:cy="11.69295"
     inkscape:document-units="px"
     inkscape:current-layer="layer1"
     showgrid="false"
     units="px"
     inkscape:window-width="1366"
     inkscape:window-height="718"
     inkscape:window-x="0"
     inkscape:window-y="0"
     inkscape:window-maximized="1" />
  <metadata
     id="metadata7">
    <rdf:RDF>
      <cc:Work
         rdf:about="">
        <dc:format>image/svg+xml</dc:format>
        <dc:type
           rdf:resource="http://purl.org/dc/dcmitype/StillImage" />
        <dc:title />
      </cc:Work>
    </rdf:RDF>
  </metadata>
  <g
     inkscape:label="Layer 1"
     inkscape:groupmode="layer"
     id="layer1"
     transform="translate(0,-1030.3622)">
    <path
       style="fill:#808080;stroke:none"
       d="m 1.8139636,1031.1996 18.3372124,0 -0.04462,13.8756 c 0,0 0.09263,0.5399 -0.413388,0.9949 -0.506012,0.455 -1.277707,0.3707 -1.277707,0.3707 l -14.6542028,-0.01 c 0,0 -0.8287254,0.074 -1.4433367,-0.4338 -0.6146113,-0.508 -0.4811112,-1.5459 -0.4811112,-1.5459 z"
       id="path3091-3"
       inkscape:connector-curvature="0"
       sodipodi:nodetypes="ccczcczcc" />
    <path
       style="fill:#999999;stroke:none"
       d="m 2.8788046,1032.6368 -1.1063831,-1.4468 -0.024316,3.8176 1.0577511,1.2523 z"
       id="path3879-6-7"
       inkscape:connector-curvature="0"
       sodipodi:nodetypes="ccccc" />
    <path
       style="fill:#b3b3b3;stroke:none"
       d="m 0.98214944,1034.7158 1.89665676,-2.1155 0.024316,3.8177 -1.8480248,1.9209 z"
       id="path3879"
       inkscape:connector-curvature="0" />
    <path
       style="fill:#999999;stroke:none"
       d="m 19.018625,1032.6307 1.106383,-1.4468 0.02432,3.8177 -1.057751,1.2522 z"
       id="path3879-6-7-5"
       inkscape:connector-curvature="0"
       sodipodi:nodetypes="ccccc" />
    <path
       style="fill:#b3b3b3;stroke:none"
       d="m 20.982151,1034.8131 -1.896657,-2.1155 -0.02432,3.8176 1.848025,1.921 z"
       id="path3879-6"
       inkscape:connector-curvature="0" />
    <path
       style="fill:#e6e6e6;fill-opacity:1;stroke:none"
       d="m 0.98509378,1034.7603 19.98784222,0 -0.04863,15.1246 c 0,0 0.100962,0.5885 -0.450599,1.0845 -0.551562,0.4959 -1.392722,0.404 -1.392722,0.404 l -15.9733053,-0.01 c 0,0 -0.903324,0.081 -1.5732594,-0.4728 -0.66993708,-0.5537 -0.5244193,-1.685 -0.5244193,-1.685 z"
       id="path3091"
       inkscape:connector-curvature="0"
       sodipodi:nodetypes="ccczcczcc" />
    <path
       sodipodi:type="arc"
       style="fill:#b3b3b3;fill-opacity:1;stroke:none"
       id="path3954"
       sodipodi:cx="6.0386348"
       sodipodi:cy="1037.6135"
       sodipodi:rx="1.2241055"
       sodipodi:ry="1.1770246"
       d="m 7.2627278,1037.6082 a 1.2241055,1.1770246 0 0 1 -1.2149934,1.1823 1.2241055,1.1770246 0 0 1 -1.2331394,-1.1648 1.2241055,1.1770246 0 0 1 1.2077837,-1.1891 1.2241055,1.1770246 0 0 1 1.2402009,1.1579 l -1.2239448,0.019 z"
       sodipodi:start="6.2786748"
       sodipodi:end="6.2669817" />
    <path
       sodipodi:type="arc"
       style="fill:#b3b3b3;fill-opacity:1;stroke:none"
       id="path3954-3"
       sodipodi:cx="-16.584776"
       sodipodi:cy="1037.6135"
       sodipodi:rx="1.2241055"
       sodipodi:ry="1.1770246"
       d="m -15.360683,1037.6082 a 1.2241055,1.1770246 0 0 1 -1.214993,1.1823 1.2241055,1.1770246 0 0 1 -1.23314,-1.1648 1.2241055,1.1770246 0 0 1 1.207784,-1.1891 1.2241055,1.1770246 0 0 1 1.240201,1.1579 l -1.223945,0.019 z"
       transform="scale(-1,1)"
       sodipodi:start="6.2786748"
       sodipodi:end="6.2669817" />
    <path
       style="fill:none;stroke:#ffffff;stroke-width:0.8888889;stroke-linecap:butt;stroke-linejoin:miter;stroke-miterlimit:4;stroke-dasharray:none;stroke-opacity:1"
       d="m 5.7561504,1038.061 c 0,0 -0.449604,-4.8749 5.3201506,-4.8493 5.769755,0.026 5.414314,4.8964 5.414314,4.8964"
       id="path3974"
       inkscape:connector-curvature="0"
       sodipodi:nodetypes="czc" />
    <path
       style="display:inline;fill:#e74c3c;fill-opacity:1;stroke:none"
       id="path4018"
       inkscape:connector-curvature="0"
       d="m 10.966682,1042.0947 4.003616,-0.7427 -0.72846,4.0817 -1.068409,-1.0892 c -1.26655,1.4031 -1.488537,3.9202 0.567231,5.7988 -0.632111,-0.1964 -1.229488,-0.5485 -1.728883,-1.0577 -1.603187,-1.6344 -1.59909,-4.2962 -0.03885,-5.965 l -1.006246,-1.0259 z" />
    <path
       style="display:inline;fill:#37abc8;fill-opacity:1;stroke:none"
       id="path4063"
       inkscape:connector-curvature="0"
       d="m 19.748269,1049.3627 -4.003618,0.7427 0.728462,-4.0818 1.068408,1.0893 c 1.266551,-1.4032 1.488537,-3.9203 -0.56723,-5.7988 0.632109,0.1963 1.229487,0.5484 1.728882,1.0575 1.603187,1.6345 1.59909,4.2962 0.03885,5.9652 l 1.006246,1.0259 z" />
  </g>
</svg>
