<?xml version="1.0" encoding="UTF-8" standalone="no"?>
<!-- Created with Inkscape (http://www.inkscape.org/) -->

<svg
   xmlns:dc="http://purl.org/dc/elements/1.1/"
   xmlns:cc="http://creativecommons.org/ns#"
   xmlns:rdf="http://www.w3.org/1999/02/22-rdf-syntax-ns#"
   xmlns:svg="http://www.w3.org/2000/svg"
   xmlns="http://www.w3.org/2000/svg"
   xmlns:sodipodi="http://sodipodi.sourceforge.net/DTD/sodipodi-0.dtd"
   xmlns:inkscape="http://www.inkscape.org/namespaces/inkscape"
   id="svg2"
   version="1.1"
   inkscape:version="0.92.2 (5c3e80d, 2017-08-06)"
   width="22"
   height="22"
   sodipodi:docname="fusion-icon-panel.svg">
  <metadata
     id="metadata8">
    <rdf:RDF>
      <cc:Work
         rdf:about="">
        <dc:format>image/svg+xml</dc:format>
        <dc:type
           rdf:resource="http://purl.org/dc/dcmitype/StillImage" />
        <dc:title></dc:title>
      </cc:Work>
    </rdf:RDF>
  </metadata>
  <defs
     id="defs6" />
  <sodipodi:namedview
     pagecolor="#ffffff"
     bordercolor="#666666"
     borderopacity="1"
     objecttolerance="10"
     gridtolerance="10"
     guidetolerance="10"
     inkscape:pageopacity="0"
     inkscape:pageshadow="2"
     inkscape:window-width="972"
     inkscape:window-height="608"
     id="namedview4"
     showgrid="false"
     inkscape:zoom="7.2407734"
     inkscape:cx="12.601902"
     inkscape:cy="2.7804398"
     inkscape:window-x="15"
     inkscape:window-y="39"
     inkscape:window-maximized="0"
     inkscape:current-layer="svg2" />
  <path
     style="fill:#394050;stroke-width:0.02280147;fill-opacity:1"
     d="m 12.143429,19.691119 c 0.517658,-0.0458 0.810211,-0.14021 1.490579,-0.48093 1.073589,-0.53763 1.9229,-1.18159 2.394876,-1.81584 0.653401,-0.87806 1.05352,-1.85941 1.192398,-2.92454 0.04916,-0.37708 0.03561,-1.49306 -0.02215,-1.82421 -0.204331,-1.17138 -0.708502,-2.24381 -1.429326,-3.0403409 -0.71154,-0.78627 -1.517033,-1.28546 -2.562739,-1.58822 -0.137942,-0.0399 -0.259866,-0.0813 -0.270943,-0.092 -0.02313,-0.0223 0.151146,-0.0757 0.384945,-0.11797 0.247914,-0.0449 1.022372,-0.0379 1.288216,0.0116 0.481242,0.0896 1.129429,0.3704 1.548753,0.67099 0.258319,0.18517 0.654113,0.55856 0.883284,0.83328 0.647641,0.7763609 1.087248,1.8044509 1.230292,2.8772309 0.01845,0.13838 0.04275,0.55944 0.05399,0.93568 0.02251,0.75338 0.04041,0.86392 0.162455,1.00294 0.173075,0.19714 0.452953,0.0972 0.685021,-0.24455 0.257519,-0.37925 0.486355,-1.06932 0.565104,-1.7041 0.03596,-0.28986 0.02977,-1.04854 -0.01109,-1.36031 -0.234588,-1.7897309 -1.348696,-3.5326109 -2.871971,-4.4928409 -0.667754,-0.42093 -1.346625,-0.66995 -2.177428,-0.79871 -0.329675,-0.0511 -1.36365,-0.0577 -1.732822,-0.0111 -1.037898,0.1311 -2.014066,0.48052 -2.781636,0.99569 -0.5507805,0.36968 -0.9200956,0.74888 -1.2583486,1.29203 -0.265701,0.42665 -0.251506,0.42006 -0.238097,0.11053 0.03259,-0.75223 0.360351,-1.46977 0.9530181,-2.08633 0.4256205,-0.44278 0.8095375,-0.72087 1.3684495,-0.99123 0.77146,-0.37317 1.452214,-0.52767 2.332819,-0.52945 0.745911,-0.002 1.164188,0.0778 1.928511,0.36579 0.515635,0.19427 0.669147,0.23579 0.875924,0.23687 0.196169,0.001 0.313467,-0.0448 0.375621,-0.14675 0.126847,-0.20807 -0.01355,-0.53099 -0.408145,-0.93876 -0.660191,-0.68223 -1.44934,-1.0801 -2.521108,-1.27107 -0.34152,-0.0609 -1.218916,-0.0849 -1.653021,-0.0454 -1.564091,0.14256 -2.8281686,0.70681 -3.8322086,1.7106 -0.761527,0.76133 -1.302591,1.68492 -1.607271,2.74357 -0.355935,1.23674 -0.308909,2.56869 0.129636,3.6717809 0.177521,0.44652 0.380976,0.80737 0.735801,1.30501 0.107308,0.15049 0.195393,0.28637 0.195745,0.30193 9.01e-4,0.0398 -0.243511,-0.0553 -0.545996,-0.21247 -1.855853,-0.96435 -2.464026,-3.6578309 -1.355397,-6.0028109 0.167048,-0.35334 0.381644,-0.69888 0.6878,-1.10749 0.322267,-0.43011 0.423678,-0.62462 0.433985,-0.83238 0.006,-0.12027 -0.0018,-0.16522 -0.03845,-0.2237 -0.149065,-0.23759 -0.566469,-0.22295 -1.06433,0.0373 -0.487864,0.25505 -0.883652,0.5931 -1.323444,1.13038 -0.298658,0.36487 -0.657436,1.02017 -0.860574,1.57183 -0.114123,0.30992 -0.262626,0.85652 -0.31947,1.17589 -0.06347,0.35659 -0.08234,0.63266 -0.08215,1.20194 2.05e-4,0.61579 0.01798,0.8329204 0.102289,1.2493509 0.152141,0.75148 0.398611,1.363 0.781191,1.93822 1.259088,1.89307 3.835316,3.08254 5.9671451,2.75509 0.3035345,-0.0466 0.6104955,-0.14026 0.9609395,-0.29312 0.159112,-0.0694 0.298713,-0.12304 0.310224,-0.1192 0.04109,0.0137 -0.264368,0.40647 -0.473347,0.60866 -0.57436,0.55569 -1.2757816,0.82861 -2.2115796,0.8605 -0.610043,0.0208 -1.074326,-0.0388 -1.645401,-0.21128 -0.931213,-0.28121 -1.710631,-0.74945 -2.402417,-1.44327 -0.33979,-0.34079 -0.53555,-0.58442 -0.806888,-1.00423 -0.180828,-0.27978 -0.375075,-0.49297 -0.502542,-0.55156 -0.05217,-0.024 -0.144106,-0.0421 -0.214811,-0.0424 -0.116296,-4.7e-4 -0.129211,0.005 -0.218275,0.0983 -0.125611,0.1311 -0.158756,0.25436 -0.155019,0.57647 0.0048,0.41756 0.125371,0.83823 0.404745,1.41265 0.82692,1.70022 2.736761,3.00298 4.800419,3.27449 0.121551,0.016 0.451731,0.0283 0.752409,0.0281 0.600785,-5e-4 0.873442,-0.0356 1.4016041,-0.18035 1.9527875,-0.53525 3.6422995,-2.07845 4.2686485,-3.89898 0.196363,-0.57074 0.238867,-0.83614 0.255639,-1.59619 l 0.01358,-0.61567 0.09693,0.12753 c 0.878622,1.15595 0.815313,2.77458 -0.166787,4.26419 -0.228715,0.3469 -0.399231,0.55123 -0.760158,0.91091 -0.482083,0.48041 -0.994475,0.84711 -1.564019,1.11932 -0.30687,0.14666 -0.603683,0.25196 -1.094305,0.38824 -0.504168,0.14003 -0.604196,0.18213 -0.709309,0.29849 -0.07759,0.0859 -0.08196,0.0988 -0.0724,0.21412 0.02413,0.29102 0.341719,0.47595 0.91202,0.53106 0.277164,0.0268 0.744997,0.0273 1.040367,0.001 z"
     id="path3211"
     inkscape:connector-curvature="0" />
</svg>
