<?xml version="1.0" encoding="UTF-8" standalone="no"?>
<!-- Created with Inkscape (http://www.inkscape.org/) -->

<svg
   xmlns:dc="http://purl.org/dc/elements/1.1/"
   xmlns:cc="http://creativecommons.org/ns#"
   xmlns:rdf="http://www.w3.org/1999/02/22-rdf-syntax-ns#"
   xmlns:svg="http://www.w3.org/2000/svg"
   xmlns="http://www.w3.org/2000/svg"
   xmlns:sodipodi="http://sodipodi.sourceforge.net/DTD/sodipodi-0.dtd"
   xmlns:inkscape="http://www.inkscape.org/namespaces/inkscape"
   width="22"
   height="22"
   viewBox="0 0 22 22"
   id="svg2"
   version="1.1"
   inkscape:version="0.92.1 r15371"
   sodipodi:docname="rhythmbox-notplaying.svg">
  <defs
     id="defs4" />
  <sodipodi:namedview
     id="base"
     pagecolor="#ffffff"
     bordercolor="#666666"
     borderopacity="1.0"
     inkscape:pageopacity="0.0"
     inkscape:pageshadow="2"
     inkscape:zoom="11.886364"
     inkscape:cx="-3.8725152"
     inkscape:cy="13.448083"
     inkscape:document-units="px"
     inkscape:current-layer="layer1"
     showgrid="false"
     units="px"
     inkscape:window-width="1366"
     inkscape:window-height="714"
     inkscape:window-x="0"
     inkscape:window-y="0"
     inkscape:window-maximized="1" />
  <metadata
     id="metadata7">
    <rdf:RDF>
      <cc:Work
         rdf:about="">
        <dc:format>image/svg+xml</dc:format>
        <dc:type
           rdf:resource="http://purl.org/dc/dcmitype/StillImage" />
        <dc:title />
      </cc:Work>
    </rdf:RDF>
  </metadata>
  <g
     inkscape:label="Layer 1"
     inkscape:groupmode="layer"
     id="layer1"
     transform="translate(0,-1030.3622)">
    <g
       id="g829">
      <rect
         ry="2.1363111"
         y="1032.9041"
         x="2.2775438"
         height="17.163885"
         width="17.476521"
         id="rect2996"
         style="fill:#394050;fill-opacity:1;stroke:none" />
      <path
         transform="matrix(0.82764634,-0.56124998,0.56124997,0.82764634,0,0)"
         sodipodi:open="true"
         sodipodi:end="4.7085637"
         sodipodi:start="4.7099132"
         d="m -575.39772,859.01816 a 9.176033,9.0577307 0 0 1 9.19872,9.03223 9.176033,9.0577307 0 0 1 -9.14709,9.08316 9.176033,9.0577307 0 0 1 -9.20489,-9.02609 9.176033,9.0577307 0 0 1 9.14088,-9.08926"
         sodipodi:ry="9.0577307"
         sodipodi:rx="9.176033"
         sodipodi:cy="868.07587"
         sodipodi:cx="-575.375"
         id="path2998"
         style="fill:#ffcc00;stroke:#394050;stroke-width:1.72928476;stroke-miterlimit:4;stroke-dasharray:none;stroke-opacity:1"
         sodipodi:type="arc" />
      <path
         transform="matrix(0.82764634,-0.56124998,0.56124996,0.82764635,0,0)"
         sodipodi:open="true"
         sodipodi:end="4.7085637"
         sodipodi:start="4.7099132"
         d="m -575.39825,865.20248 a 3.1277733,3.0874484 0 0 1 3.13551,3.07875 3.1277733,3.0874484 0 0 1 -3.11791,3.09612 3.1277733,3.0874484 0 0 1 -3.13761,-3.07666 3.1277733,3.0874484 0 0 1 3.11579,-3.0982"
         sodipodi:ry="3.0874484"
         sodipodi:rx="3.1277733"
         sodipodi:cy="868.28992"
         sodipodi:cx="-575.3905"
         id="path2998-3"
         style="fill:#394050;stroke:#394050;stroke-width:0.58944976;stroke-miterlimit:4;stroke-dasharray:none;stroke-opacity:1;fill-opacity:1"
         sodipodi:type="arc" />
      <path
         transform="matrix(0.82764638,-0.56124992,0.56125004,0.8276463,0,0)"
         sodipodi:open="true"
         sodipodi:end="4.7085637"
         sodipodi:start="4.7099132"
         d="m -577.48028,857.5643 a 0.36780998,0.36306798 0 0 1 0.36872,0.36205 0.36780998,0.36306798 0 0 1 -0.36665,0.36408 0.36780998,0.36306798 0 0 1 -0.36897,-0.3618 0.36780998,0.36306798 0 0 1 0.3664,-0.36433"
         sodipodi:ry="0.36306798"
         sodipodi:rx="0.36780998"
         sodipodi:cy="857.92737"
         sodipodi:cx="-577.47937"
         id="path2998-3-6"
         style="fill:#cccccc;stroke:#1a1a1a;stroke-width:0.06931625;stroke-miterlimit:4;stroke-dasharray:none;stroke-opacity:1"
         sodipodi:type="arc" />
      <path
         transform="matrix(0.82764638,-0.56124992,0.56125004,0.8276463,0,0)"
         sodipodi:open="true"
         sodipodi:end="4.7085637"
         sodipodi:start="4.7099132"
         d="m -565.42529,865.94418 a 0.36780998,0.36306798 0 0 1 0.36872,0.36205 0.36780998,0.36306798 0 0 1 -0.36665,0.36409 0.36780998,0.36306798 0 0 1 -0.36897,-0.3618 0.36780998,0.36306798 0 0 1 0.36641,-0.36433"
         sodipodi:ry="0.36306798"
         sodipodi:rx="0.36780998"
         sodipodi:cy="866.30725"
         sodipodi:cx="-565.42438"
         id="path2998-3-6-7"
         style="fill:#cccccc;stroke:#1a1a1a;stroke-width:0.06931625;stroke-miterlimit:4;stroke-dasharray:none;stroke-opacity:1"
         sodipodi:type="arc" />
      <path
         transform="matrix(0.82764638,-0.56124992,0.56125004,0.8276463,0,0)"
         sodipodi:open="true"
         sodipodi:end="4.7085637"
         sodipodi:start="4.7099132"
         d="m -573.36865,877.97287 a 0.36780998,0.36306798 0 0 1 0.36872,0.36205 0.36780998,0.36306798 0 0 1 -0.36665,0.36408 0.36780998,0.36306798 0 0 1 -0.36896,-0.3618 0.36780998,0.36306798 0 0 1 0.3664,-0.36433"
         sodipodi:ry="0.36306798"
         sodipodi:rx="0.36780998"
         sodipodi:cy="878.33594"
         sodipodi:cx="-573.36774"
         id="path2998-3-6-5"
         style="fill:#cccccc;stroke:#1a1a1a;stroke-width:0.06931625;stroke-miterlimit:4;stroke-dasharray:none;stroke-opacity:1"
         sodipodi:type="arc" />
      <path
         transform="matrix(0.82764638,-0.56124992,0.56125004,0.8276463,0,0)"
         sodipodi:open="true"
         sodipodi:end="4.7085637"
         sodipodi:start="4.7099132"
         d="m -585.78619,869.57889 a 0.36780998,0.36306798 0 0 1 0.36872,0.36204 0.36780998,0.36306798 0 0 1 -0.36665,0.36409 0.36780998,0.36306798 0 0 1 -0.36897,-0.3618 0.36780998,0.36306798 0 0 1 0.3664,-0.36433"
         sodipodi:ry="0.36306798"
         sodipodi:rx="0.36780998"
         sodipodi:cy="869.94196"
         sodipodi:cx="-585.78528"
         id="path2998-3-6-3"
         style="fill:#cccccc;stroke:#1a1a1a;stroke-width:0.06931625;stroke-miterlimit:4;stroke-dasharray:none;stroke-opacity:1"
         sodipodi:type="arc" />
    </g>
  </g>
</svg>
