<?xml version="1.0" encoding="UTF-8" standalone="no"?>
<!-- Created with Inkscape (http://www.inkscape.org/) -->

<svg
   xmlns:dc="http://purl.org/dc/elements/1.1/"
   xmlns:cc="http://creativecommons.org/ns#"
   xmlns:rdf="http://www.w3.org/1999/02/22-rdf-syntax-ns#"
   xmlns:svg="http://www.w3.org/2000/svg"
   xmlns="http://www.w3.org/2000/svg"
   xmlns:sodipodi="http://sodipodi.sourceforge.net/DTD/sodipodi-0.dtd"
   xmlns:inkscape="http://www.inkscape.org/namespaces/inkscape"
   width="22"
   height="22"
   viewBox="0 0 22 22"
   id="svg2"
   version="1.1"
   inkscape:version="0.91 r13725"
   sodipodi:docname="gpm-phone-020.svg">
  <defs
     id="defs4" />
  <sodipodi:namedview
     id="base"
     pagecolor="#ffffff"
     bordercolor="#666666"
     borderopacity="1.0"
     inkscape:pageopacity="0.0"
     inkscape:pageshadow="2"
     inkscape:zoom="15.839192"
     inkscape:cx="0.23451408"
     inkscape:cy="8.9732564"
     inkscape:document-units="px"
     inkscape:current-layer="layer1"
     showgrid="false"
     units="px"
     inkscape:window-width="1366"
     inkscape:window-height="718"
     inkscape:window-x="0"
     inkscape:window-y="0"
     inkscape:window-maximized="1" />
  <metadata
     id="metadata7">
    <rdf:RDF>
      <cc:Work
         rdf:about="">
        <dc:format>image/svg+xml</dc:format>
        <dc:type
           rdf:resource="http://purl.org/dc/dcmitype/StillImage" />
        <dc:title />
      </cc:Work>
    </rdf:RDF>
  </metadata>
  <g
     inkscape:label="Layer 1"
     inkscape:groupmode="layer"
     id="layer1"
     transform="translate(0,-1030.3622)">
    <path
       inkscape:connector-curvature="0"
       style="fill:#394050;fill-opacity:1"
       d="m 2.4549512,1034.22 c -0.7386733,0 -1.3333333,0.5947 -1.3333333,1.3333 l 0,2 -0.24999999,0 c -0.2316187,0 -0.4166667,0.1851 -0.4166667,0.4167 l 0,0.5 c 0,0.2316 0.185048,0.4167 0.4166667,0.4167 l 0.24999999,0 0,0.6666 c -0.36933329,0 -0.66666669,0.2974 -0.66666669,0.6667 l 0,1.3333 c 0,0.3694 0.2973334,0.6667 0.66666669,0.6667 l 0,6.6667 c 0,0.7386 0.59466,1.3333 1.3333333,1.3333 l 6.6666666,0 c 0.7386734,0 1.3333332,-0.5947 1.3333332,-1.3333 l 0,-13.3334 c 0,-0.7386 -0.5946598,-1.3333 -1.3333332,-1.3333 l -6.6666666,0 z m 6.3333333,0.6667 c 0.1840947,0 0.3333333,0.1492 0.3333333,0.3333 0,0.1841 -0.1492386,0.3333 -0.3333333,0.3333 -0.1840947,0 -0.3333333,-0.1492 -0.3333333,-0.3333 0,-0.1841 0.1492386,-0.3333 0.3333333,-0.3333 z m -6.3333333,1.3333 6.6666666,0 c 0.3693334,0 0.6666667,0.2973 0.6666667,0.6667 l 0,10 c 0,0.3693 -0.2973333,0.6666 -0.6666667,0.6666 l -6.6666666,0 c -0.3693333,0 -0.6666666,-0.2973 -0.6666666,-0.6666 l 0,-5.3334 0,-1.3333 0,-1.75 0,-0.5 0,-1.0833 c 0,-0.3694 0.2973333,-0.6667 0.6666666,-0.6667 z m 2.3333334,12 2,0 c 0.3693334,0 0.6666667,0.2973 0.6666667,0.6667 0,0.3693 -0.2973333,0.6666 -0.6666667,0.6666 l -2,0 c -0.3693333,0 -0.6666667,-0.2973 -0.6666667,-0.6666 0,-0.3694 0.2973334,-0.6667 0.6666667,-0.6667 z"
       id="path2990-1" />
    <g
       id="g4703"
       transform="matrix(0,-0.74074072,0.74074072,0,12.995641,961.21404)">
      <path
         sodipodi:nodetypes="ccccccccccccccccc"
         inkscape:connector-curvature="0"
         id="rect4251-5-2-6-1-0-9-7-9"
         d="m -96.050022,1.5941195 -1.42941,0 0,-4.2882354 -22.870588,0 0,14.2941179 22.870588,0 0,-4.2882353 1.42941,0 z m -2.85603,5.7176472 0,2.8588223 -20.014558,0 0,-11.4352931 20.011768,0 0,2.8588236 0,5.7176472 z"
         style="fill:#394050;fill-opacity:1;stroke:none" />
      <rect
         y="-0.54999727"
         x="-118.23009"
         height="10.082813"
         width="4.630096"
         id="rect3526-6-7-0-8-2-2-3-3"
         style="fill:#e74c3c;fill-opacity:1;stroke:none;stroke-width:9;stroke-linecap:butt;stroke-linejoin:bevel;stroke-miterlimit:4;stroke-dasharray:none;stroke-opacity:1" />
    </g>
  </g>
</svg>
