/* XPM */
static char * button_pressed_xpm[] = {
"20 20 7 1",
" 	c None",
".	c #FFFFFF",
"+	c #FDF9FB",
"@	c #FEEFF5",
"#	c #FEE6F0",
"$	c #FCF4F8",
"%	c #FFE4EF",
"....................",
"....................",
"....................",
"....................",
"....................",
".......+@##@+.......",
"......$%%%%%%$......",
".....+%%%%%%%%+.....",
".....@%%%%%%%%@.....",
".....#%%%%%%%%#.....",
".....#%%%%%%%%#.....",
".....@%%%%%%%%@.....",
".....+%%%%%%%%+.....",
"......$%%%%%%$......",
".......+@##@+.......",
"....................",
"....................",
"....................",
"....................",
"...................."};
