/* XPM */
static char * start_here_xpm[] = {
"40 40 3 1",
" 	c None",
".	c #FFFFFF",
"+	c #717171",
"........................................",
"........................................",
"........................................",
"........................................",
"........................................",
"........................................",
"........................................",
"........................................",
"........................................",
"........................................",
"........................................",
"..........+++++++++++++++++++++.........",
"..........+++++++++++++++++++++.........",
"..........+++++++++++++++++++++.........",
"..........+++++++++++++++++++++.........",
"..........+++++++++++++++++++++.........",
"..........+++++++++++++++++++++.........",
"..........+++++++++++++++++++++.........",
"..........+++++++++++++++++++++.........",
"..........+++++++++++++++++++++.........",
"..........+++++++++++++++++++++.........",
"..........+++++++++++++++++++++.........",
"..........+++++++++++++++++++++.........",
"..........+++++++++++++++++++++.........",
"..........+++++++++++++++++++++.........",
"..........+++++++++++++++++++++.........",
"..........+++++++++++++++++++++.........",
"..........+++++++++++++++++++++.........",
"..........+++++++++++++++++++++.........",
"..........+++++++++++++++++++++.........",
"..........+++++++++++++++++++++.........",
"........................................",
"........................................",
"........................................",
"........................................",
"........................................",
"........................................",
"........................................",
"........................................",
"........................................"};
