/* XPM */
static char *Close[] = {
/* columns rows colors chars-per-pixel */
"30 30 91 1 ",
"  c #187D0E6E1564",
". c #18FB0F1E1586",
"X c #1A62111015E4",
"o c #1B17120C1614",
"O c #1B8312A21632",
"+ c #1BDA131B1648",
"@ c #208E19A41787",
"# c #20D71A0A179A",
"$ c #21F41B9617E6",
"% c #22521C1917FF",
"& c #22B01C9B1817",
"* c #22F31CF9182A",
"= c #238D1DCF1852",
"- c #23C71E1F1862",
"; c #24C61F8218A5",
": c #2541202D18C6",
"> c #25E1210B18F0",
", c #26B622331928",
"< c #272922D21947",
"1 c #33AC34361C97",
"2 c #342F34EC1CB9",
"3 c #35F437611D31",
"4 c #366E380A1D51",
"5 c #37AB39C41DA5",
"6 c #38263A6F1DC6",
"7 c #39873C581E23",
"8 c #3A003D011E43",
"9 c #3D4941921F22",
"0 c #3DB342251F3E",
"q c #3EFE43F11F96",
"w c #3F4B445C1FAA",
"e c #4ECB59E623C5",
"r c #4F445A8F23E5",
"t c #52025E5E249E",
"y c #528D5F2024C3",
"u c #53CF60DF2519",
"i c #53D160E32519",
"p c #5440617C2537",
"a c #55E063BF25A5",
"s c #5639643A25BB",
"d c #5A4569D926CF",
"f c #5B3F6B342710",
"g c #5E736FA727E9",
"h c #5F1070822813",
"j c #600271D22853",
"k c #615473AA28AD",
"l c #62CD75B62911",
"z c #62E375D32916",
"x c #646477E9297B",
"c c #65BF79CB29D7",
"v c #65E77A0329E2",
"b c #68087CF82A73",
"n c #68557D642A87",
"m c #69237E842ABE",
"M c #716E8A082CEF",
"N c #716E8A0A2CF0",
"B c #727D8B802D37",
"V c #74058DA22D9F",
"C c #75178F1F2DE8",
"Z c #788D93EE2ED2",
"A c #7AAB96E02F62",
"S c #80919F1330F2",
"D c #80A79F3130F8",
"F c #81359FF7311D",
"G c #851AA55F3225",
"H c #8639A6EF3271",
"J c #8726A83932B0",
"K c #87FFA96632E9",
"L c #8839A9B632F9",
"P c #8935AB15333B",
"I c #8A1DAC563378",
"U c #8FA2B40134EF",
"Y c #9088B541352B",
"T c #93BBB9B33605",
"R c #9494BAE2363E",
"E c #965CBD5C36B6",
"W c #965EBD5E36B7",
"Q c #972EBE7F36EE",
"! c #9995C1D53791",
"~ c #9A1DC29337B4",
"^ c #9A2BC2A637B8",
"/ c #9BD8C4FB382A",
"( c #9FBDCA643932",
") c #A048CB253957",
"_ c #A255CDFF39E2",
"` c #A2D5CEB03A03",
"' c #A3B8CFED3A40",
"] c #A41DD0783A5A",
"[ c #A46ED0E93A70",
"{ c #A515D1D13A9C",
"} c #A549D2193AAA",
/* pixels */
"oooooooooooooooooooooooooooooo",
"oooooooooooooooooooooooooooooo",
"ooooooooooX. .XX. .Xoooooooooo",
"oooooooooX@195:,7q3$Xooooooooo",
"ooooooooX=dU(WNV!_Th:Xoooooooo",
"ooooooooOe~}][''['{/t+oooooooo",
"oooooooo%Z}''''''''}A*oooooooo",
"oooooooX;D{''''''''{F:Xooooooo",
"ooooXO%;*m''''''''''n&;%OXoooo",
"oooX=eZDmaL]'''''''HumSZr-Xooo",
"ooX@d~}{'LcP''''''JlJ'{}^f#Xoo",
"oo.1U}''']PxI''''KkL]'''}Y2.oo",
"oo 9(]'''''IxP[]JkP'''''')0 oo",
"oo.5E[''''''PvPJzL''''''[Q6.oo",
"ooX:M'''''''[PspL['''''''B>Xoo",
"ooX,V''''''']JpyH]'''''''C<Xoo",
"oo.7![''''''JzLHjH''''''[~8.oo",
"oo q_''''''KkL[]HgJ''''''`w oo",
"oo.3T{''''JkP''''JgH''''{R4.oo",
"ooX$h/}{'HlL''''''HjG'{}/j%Xoo",
"oooX:tAFniJ]'''''''GtbFAy:Xooo",
"ooooX+*:&m''''''''''b&:*+Xoooo",
"oooooooX;S{''''''''{F:Xooooooo",
"oooooooo%Z}''''''''}A*oooooooo",
"ooooooooOr^}'[''['{/y+oooooooo",
"ooooooooX-fY)QBC~`Rj:Xoooooooo",
"oooooooooX#206><8w4%Xooooooooo",
"ooooooooooX. .XX. .Xoooooooooo",
"oooooooooooooooooooooooooooooo",
"oooooooooooooooooooooooooooooo"
};
