<?xml version="1.0" encoding="UTF-8" standalone="no"?>
<!-- Created with Inkscape (http://www.inkscape.org/) -->

<svg
   xmlns:dc="http://purl.org/dc/elements/1.1/"
   xmlns:cc="http://creativecommons.org/ns#"
   xmlns:rdf="http://www.w3.org/1999/02/22-rdf-syntax-ns#"
   xmlns:svg="http://www.w3.org/2000/svg"
   xmlns="http://www.w3.org/2000/svg"
   xmlns:sodipodi="http://sodipodi.sourceforge.net/DTD/sodipodi-0.dtd"
   xmlns:inkscape="http://www.inkscape.org/namespaces/inkscape"
   width="512"
   height="512"
   id="svg2"
   version="1.1"
   inkscape:version="0.91 r13725"
   sodipodi:docname="folder-important.svg">
  <defs
     id="defs4" />
  <sodipodi:namedview
     id="base"
     pagecolor="#ffffff"
     bordercolor="#666666"
     borderopacity="1.0"
     inkscape:pageopacity="0.0"
     inkscape:pageshadow="2"
     inkscape:zoom="0.175"
     inkscape:cx="-248.23019"
     inkscape:cy="1080.6475"
     inkscape:document-units="px"
     inkscape:current-layer="layer1"
     showgrid="false"
     inkscape:window-width="1366"
     inkscape:window-height="715"
     inkscape:window-x="0"
     inkscape:window-y="24"
     inkscape:window-maximized="1" />
  <metadata
     id="metadata7">
    <rdf:RDF>
      <cc:Work
         rdf:about="">
        <dc:format>image/svg+xml</dc:format>
        <dc:type
           rdf:resource="http://purl.org/dc/dcmitype/StillImage" />
        <dc:title />
      </cc:Work>
    </rdf:RDF>
  </metadata>
  <g
     inkscape:label="Layer 1"
     inkscape:groupmode="layer"
     id="layer1"
     transform="translate(0,-540.36218)">
    <g
       id="g4148">
      <path
         inkscape:connector-curvature="0"
         id="path2996"
         d="m 101.80608,553.25212 290.12324,0.21824 4.8742,2.18248 2.40071,4.65595 0,244.07306 27.42639,28.08115 0.21825,126.43787 -6.91116,4.72868 -318.27714,2.32798 z"
         style="fill:#f9d696;stroke:none" />
      <path
         sodipodi:nodetypes="cccccccc"
         inkscape:connector-curvature="0"
         id="path3766"
         d="m 101.80633,553.26299 110.70179,90.74256 0.41153,253.09145 -8.64215,13.16899 0.2058,127.78031 -6.99604,3.9095 -95.85137,-76.10605 z"
         style="fill:#efc589;stroke:none" />
      <path
         inkscape:connector-curvature="0"
         id="path3768"
         d="m 112.42744,959.9921 0.582,-380.62306"
         style="fill:none;stroke:#f9d696;stroke-width:2.30457258px;stroke-linecap:round;stroke-linejoin:miter;stroke-opacity:1" />
      <path
         inkscape:connector-curvature="0"
         id="path3768-3"
         d="m 120.13709,965.53087 0.582,-380.62308"
         style="fill:none;stroke:#f9d696;stroke-width:2.30457258px;stroke-linecap:round;stroke-linejoin:miter;stroke-opacity:1" />
      <path
         sodipodi:nodetypes="cczcczcczc"
         inkscape:connector-curvature="0"
         id="path3778-5"
         d="m 240.94151,967.48306 212.79597,-1.03203 c 0,0 8.14351,1.07982 10.37265,-4.12835 2.22915,-5.2081 -2.81992,-12.38491 -2.81992,-12.38491 L 358.08233,782.74111 c 0,0 -3.74978,-9.49606 -9.80471,-9.83066 -6.05492,-0.33463 -10.74302,9.52838 -10.74302,9.52838 L 237.32926,947.35758 c 0,0 -7.84597,10.98523 -5.94744,14.9338 1.89852,3.94865 9.55969,5.19168 9.55969,5.19168 z"
         style="fill:#ffcc00;fill-opacity:1;stroke:#394050;stroke-width:13.93588448;stroke-miterlimit:4;stroke-opacity:1;stroke-dasharray:none" />
      <path
         sodipodi:open="true"
         sodipodi:end="6.2784904"
         sodipodi:start="0"
         transform="matrix(0.92814309,0,0,0.92814309,-219.05673,687.93802)"
         d="m 624.27428,263.50247 a 12.879445,13.131983 0 0 1 -12.86433,13.13198 12.879445,13.131983 0 0 1 -12.89452,-13.10115 12.879445,13.131983 0 0 1 12.83406,-13.16273 12.879445,13.131983 0 0 1 12.92465,13.07025"
         sodipodi:ry="13.131983"
         sodipodi:rx="12.879445"
         sodipodi:cy="263.50247"
         sodipodi:cx="611.39484"
         id="path2997-3"
         style="fill:#394050;fill-opacity:1;stroke:none"
         sodipodi:type="arc" />
      <path
         sodipodi:nodetypes="ccczcc"
         inkscape:connector-curvature="0"
         id="path2999-5"
         d="m 344.6549,912.34835 6.79732,0 c 0,0 9.32308,-63.97943 9.61004,-64.22328 0,0 -1.28502,-12.17098 -12.42274,-11.95396 -11.13769,0.21703 -12.42272,11.95396 -12.42272,11.95396 z"
         style="fill:#394050;fill-opacity:1;stroke:none" />
    </g>
  </g>
</svg>
