<?xml version="1.0" encoding="UTF-8" standalone="no"?>
<!-- Created with Inkscape (http://www.inkscape.org/) -->

<svg
   xmlns:dc="http://purl.org/dc/elements/1.1/"
   xmlns:cc="http://creativecommons.org/ns#"
   xmlns:rdf="http://www.w3.org/1999/02/22-rdf-syntax-ns#"
   xmlns:svg="http://www.w3.org/2000/svg"
   xmlns="http://www.w3.org/2000/svg"
   xmlns:sodipodi="http://sodipodi.sourceforge.net/DTD/sodipodi-0.dtd"
   xmlns:inkscape="http://www.inkscape.org/namespaces/inkscape"
   width="512"
   height="512"
   id="svg2"
   version="1.1"
   inkscape:version="0.91 r13725"
   sodipodi:docname="user-home.svg">
  <defs
     id="defs4" />
  <sodipodi:namedview
     id="base"
     pagecolor="#ffffff"
     bordercolor="#666666"
     borderopacity="1.0"
     inkscape:pageopacity="0.0"
     inkscape:pageshadow="2"
     inkscape:zoom="0.35"
     inkscape:cx="363.79214"
     inkscape:cy="591.38424"
     inkscape:document-units="px"
     inkscape:current-layer="layer1"
     showgrid="false"
     inkscape:window-width="1366"
     inkscape:window-height="715"
     inkscape:window-x="0"
     inkscape:window-y="24"
     inkscape:window-maximized="1" />
  <metadata
     id="metadata7">
    <rdf:RDF>
      <cc:Work
         rdf:about="">
        <dc:format>image/svg+xml</dc:format>
        <dc:type
           rdf:resource="http://purl.org/dc/dcmitype/StillImage" />
        <dc:title />
      </cc:Work>
    </rdf:RDF>
  </metadata>
  <g
     inkscape:label="Layer 1"
     inkscape:groupmode="layer"
     id="layer1"
     transform="translate(0,-540.36218)">
    <g
       id="g4167">
      <path
         inkscape:connector-curvature="0"
         id="path2996"
         d="m 101.80608,553.25212 290.12324,0.21824 4.8742,2.18248 2.40071,4.65595 0,244.07306 27.42639,28.08115 0.21825,126.43787 -6.91116,4.72868 -318.27714,2.32798 z"
         style="fill:#f9d696;stroke:none" />
      <path
         sodipodi:nodetypes="cccccccc"
         inkscape:connector-curvature="0"
         id="path3766"
         d="m 101.80633,553.26299 110.70179,90.74256 0.41153,253.09145 -8.64215,13.16899 0.2058,127.78031 -6.99604,3.9095 -95.85137,-76.10605 z"
         style="fill:#efc589;stroke:none" />
      <path
         inkscape:connector-curvature="0"
         id="path3768"
         d="m 112.42744,959.9921 0.582,-380.62306"
         style="fill:none;stroke:#f9d696;stroke-width:2.30457258px;stroke-linecap:round;stroke-linejoin:miter;stroke-opacity:1" />
      <path
         inkscape:connector-curvature="0"
         id="path3768-3"
         d="m 120.13709,965.53087 0.582,-380.62308"
         style="fill:none;stroke:#f9d696;stroke-width:2.30457258px;stroke-linecap:round;stroke-linejoin:miter;stroke-opacity:1" />
      <path
         id="path9"
         d="m 496.73139,826.34393 c 0.008,0 0.14976,0.0917 0.14976,0.0996 l 0,168.88307 -277.8787,0 0,-168.88307 c 0,-0.008 0.0987,-0.0996 0.10669,-0.0996 l 277.62225,0 0,0 z"
         style="fill:#00bbf2;fill-opacity:1"
         inkscape:connector-curvature="0" />
      <path
         sodipodi:nodetypes="cccczzc"
         inkscape:connector-curvature="0"
         id="path3787"
         d="m 219.68273,916.34667 -0.44153,67.2855 277.57472,-0.1699 -0.73383,-55.67484 c 0,0 -39.19436,10.73023 -73.09267,7.40947 -33.89831,-3.3208 -85.5788,-36.61146 -121.65219,-37.86705 -36.07334,-1.25557 -81.6545,19.01682 -81.6545,19.01682 z"
         style="fill:#004455;fill-opacity:1;stroke:none;stroke-width:0.55641943px;stroke-linecap:butt;stroke-linejoin:miter;stroke-opacity:1" />
      <path
         inkscape:connector-curvature="0"
         id="path2996-3"
         d="m 229.62432,834.86696 10.80674,0.008 0.18156,0.0813 0.0894,0.17343 0,9.09143 1.0216,1.04599 0.008,4.70965 -0.25743,0.17614 -11.85544,0.0867 z"
         style="fill:#f9d696;stroke:none" />
      <path
         sodipodi:nodetypes="cccccccc"
         inkscape:connector-curvature="0"
         id="path3766-6"
         d="m 229.62433,834.86736 4.12351,3.38005 0.0153,9.42736 -0.32191,0.49052 0.008,4.75966 -0.2606,0.14563 -3.57034,-2.83485 z"
         style="fill:#efc589;stroke:none" />
      <path
         inkscape:connector-curvature="0"
         id="path3768-7"
         d="m 230.01995,850.01753 0.0217,-14.17775"
         style="fill:none;stroke:#f9d696;stroke-width:0.08584254px;stroke-linecap:round;stroke-linejoin:miter;stroke-opacity:1" />
      <path
         inkscape:connector-curvature="0"
         id="path3768-3-5"
         d="m 230.30713,850.22384 0.0217,-14.17775"
         style="fill:none;stroke:#f9d696;stroke-width:0.08584254px;stroke-linecap:round;stroke-linejoin:miter;stroke-opacity:1" />
      <path
         style="fill:#cccccc;fill-opacity:0.58823529;stroke-width:0.78468841"
         d="m 234.60241,866.79142 c -2.25399,-0.11238 -4.33684,-0.73663 -5.23629,-1.56936 -0.22826,-0.21131 -0.41022,-0.51276 -0.40958,-0.6785 0.001,-0.28053 0.34603,-0.69974 0.82996,-1.0086 2.0711,-1.32183 6.35697,-1.67383 9.49875,-0.78013 1.08524,0.3087 1.90523,0.72932 2.3582,1.20965 0.30626,0.32475 0.36401,0.53083 0.23091,0.824 -0.31272,0.6888 -1.70525,1.3901 -3.4574,1.7412 -0.70525,0.14133 -1.37668,0.22158 -2.20854,0.26392 -0.72813,0.0371 -0.82038,0.037 -1.60601,-0.002 z"
         id="path3340"
         inkscape:connector-curvature="0" />
      <path
         style="fill:#cccccc;fill-opacity:0.58823529;stroke-width:0.78468841"
         d="m 234.82929,878.43591 c -1.72938,-0.0862 -3.32746,-0.56516 -4.01756,-1.20408 -0.17514,-0.16215 -0.31474,-0.39342 -0.31425,-0.52059 6e-4,-0.21523 0.26549,-0.53688 0.63679,-0.77385 1.58905,-1.01419 4.87741,-1.28424 7.28795,-0.59857 0.83266,0.23686 1.4618,0.55958 1.80934,0.92813 0.23498,0.24915 0.27929,0.40727 0.17717,0.6322 -0.23994,0.52849 -1.30836,1.06655 -2.65271,1.33595 -0.54111,0.10843 -1.05626,0.16998 -1.69451,0.2025 -0.55866,0.0285 -0.62944,0.0284 -1.23222,-0.002 z"
         id="path3340-3"
         inkscape:connector-curvature="0" />
      <path
         style="fill:#969696;fill-opacity:0.58823529;stroke-width:0.78468841"
         d="m 234.71422,878.44054 c -1.85218,-0.12698 -3.3601,-0.6328 -4.01164,-1.34567 -0.23199,-0.25384 -0.29478,-0.38977 -0.36353,-0.78703 -0.18973,-1.09637 -2.05395,-11.12635 -2.1027,-11.3131 -0.33377,-1.27848 1.02814,-2.43645 3.61169,-3.07083 0.59166,-0.14528 1.49069,-0.28915 2.2041,-0.35272 0.64054,-0.0571 2.12723,-0.0571 2.76776,0 3.12544,0.27851 5.46506,1.35583 5.8176,2.67884 0.0681,0.25547 0.0623,0.45074 -0.0239,0.80398 -0.0932,0.38211 -2.10337,11.27766 -2.10337,11.40072 0,0.0499 -0.0509,0.19269 -0.11314,0.31723 -0.3158,0.63195 -1.37466,1.192 -2.80469,1.48342 -0.79595,0.16221 -2.0429,0.24243 -2.87819,0.18516 z"
         id="path3348"
         inkscape:connector-curvature="0" />
      <g
         style="fill:#006680;stroke:#006680;stroke-opacity:1"
         id="g20"
         transform="matrix(0.17734418,0,0,0.17734418,224.17364,857.59228)">
        <linearGradient
           y2="89.454102"
           x2="81.225601"
           y1="89.454102"
           x1="64.779297"
           gradientUnits="userSpaceOnUse"
           id="SVGID_2_">
          <stop
             id="stop23"
             style="stop-color:#80C11B"
             offset="0" />
          <stop
             id="stop25"
             style="stop-color:#80E21B"
             offset="1" />
        </linearGradient>
        <path
           style="fill:#006680;stroke:#006680;stroke-opacity:1"
           id="path27"
           d="m 68.818,87.321 -4.039,7.105 4.105,7.037 -0.016,-3.096 3.416,-0.063 c 2.135,-0.059 3.303,-1.699 3.303,-1.699 l 5.166,-8.844 c 1.104,-2.484 -0.076,-4.172 -0.076,-4.172 l -3.594,-6.146 -7.104,4.107 4.563,7.889 c 0.168,0.416 -0.1,0.754 -0.596,0.746 l -5.107,0.035 -0.021,-2.899 0,0 z"
           inkscape:connector-curvature="0" />
        <linearGradient
           y2="88.808601"
           x2="62.918499"
           y1="88.808601"
           x1="46.181198"
           gradientUnits="userSpaceOnUse"
           id="SVGID_3_">
          <stop
             id="stop30"
             style="stop-color:#80C11B"
             offset="0" />
          <stop
             id="stop32"
             style="stop-color:#80E21B"
             offset="1" />
        </linearGradient>
        <path
           style="fill:#006680;stroke:#006680;stroke-opacity:1"
           id="path34"
           d="m 58.476,86.259 -4.15,-7.043 -8.145,0.055 2.689,1.529 -1.651,2.99 c -1.013,1.881 -0.17,3.711 -0.17,3.711 l 5.096,8.885 c 1.604,2.197 3.656,2.011 3.656,2.011 l 7.118,-0.05 -0.024,-8.207 -9.112,0.027 C 53.34,90.104 53.179,89.706 53.432,89.278 l 2.515,-4.447 2.529,1.428 0,0 z"
           inkscape:connector-curvature="0" />
        <linearGradient
           y2="73.499001"
           x2="76.783203"
           y1="73.499001"
           x1="51.8843"
           gradientUnits="userSpaceOnUse"
           id="SVGID_4_">
          <stop
             id="stop37"
             style="stop-color:#80C11B"
             offset="0" />
          <stop
             id="stop39"
             style="stop-color:#80E21B"
             offset="1" />
        </linearGradient>
        <path
           style="fill:#006680;stroke:#006680;stroke-opacity:1"
           id="path41"
           d="m 64.572,77.841 8.174,-0.063 4.037,-7.074 -2.672,1.561 -1.762,-2.928 C 71.232,67.519 69.224,67.329 69.224,67.329 L 58.981,67.282 c -2.707,0.287 -3.573,2.154 -3.573,2.154 l -3.524,6.188 7.111,4.092 4.546,-7.896 c 0.276,-0.354 0.701,-0.291 0.944,0.145 l 2.588,4.402 -2.501,1.474 0,0 z"
           inkscape:connector-curvature="0" />
      </g>
      <rect
         y="983.17285"
         x="218.75"
         height="12.105687"
         width="278.21426"
         id="rect4164"
         style="fill:#1a1a1a;fill-opacity:1;stroke:none;stroke-opacity:1" />
      <path
         sodipodi:open="true"
         sodipodi:end="6.2786747"
         sodipodi:start="6.2787571"
         d="m 234.95678,989.36454 a 5.197144,4.9678583 0 0 1 -5.17397,4.9898 5.197144,4.9678583 0 0 1 -5.22021,-4.9456 5.197144,4.9678583 0 0 1 5.17375,-4.99001 5.197144,4.9678583 0 0 1 5.22043,4.9454"
         sodipodi:ry="4.9678583"
         sodipodi:rx="5.197144"
         sodipodi:cy="989.38654"
         sodipodi:cx="229.75969"
         id="path3832"
         style="fill:#ffffff;fill-opacity:1;stroke:none"
         sodipodi:type="arc" />
      <rect
         y="985.65881"
         x="488.7121"
         height="7.1336994"
         width="3.8911088"
         id="rect3852"
         style="fill:#71c837;fill-opacity:0.58823529;stroke:none" />
      <rect
         y="985.59033"
         x="483.2561"
         height="7.1336994"
         width="1.1778935"
         id="rect3852-6"
         style="fill:#ffffff;fill-opacity:1;stroke:none" />
      <rect
         y="986.88965"
         x="481.28809"
         height="5.9490561"
         width="1.1778935"
         id="rect3852-6-7"
         style="fill:#ffffff;fill-opacity:1;stroke:none" />
      <rect
         y="988.09332"
         x="479.26273"
         height="4.6879845"
         width="1.1778935"
         id="rect3852-6-7-5"
         style="fill:#ffffff;fill-opacity:1;stroke:none" />
      <rect
         y="989.48816"
         x="477.3902"
         height="3.3886983"
         width="1.1778935"
         id="rect3852-6-7-5-3"
         style="fill:#ffffff;fill-opacity:1;stroke:none" />
      <path
         sodipodi:open="true"
         sodipodi:end="6.2784904"
         sodipodi:start="0"
         transform="matrix(0.89137186,-0.45327278,0.45327278,0.89137186,0,0)"
         d="M 32.089892,970.71661 A 13.704026,13.445458 0 0 1 18.401951,984.16206 13.704026,13.445458 0 0 1 4.6818777,970.74818 13.704026,13.445458 0 0 1 18.337612,957.27124 13.704026,13.445458 0 0 1 32.089741,970.65349"
         sodipodi:ry="13.445458"
         sodipodi:rx="13.704026"
         sodipodi:cy="970.71661"
         sodipodi:cx="18.385866"
         id="path3767"
         style="fill:#ffffff;fill-opacity:1;stroke:none"
         sodipodi:type="arc" />
    </g>
  </g>
</svg>
