/* XPM */
static char * buttons__pressed_gimp_xpm[] = {
"19 19 14 1",
" 	c None",
".	c #2D2D2D",
"+	c #2D3732",
"@	c #2D3F37",
"#	c #2E3833",
"$	c #315745",
"%	c #356C51",
"&	c #30483C",
"*	c #2C2F2E",
"=	c #33644C",
"-	c #2F483C",
";	c #2C2E2D",
">	c #305242",
",	c #2D312F",
"...................",
"..............+@...",
".............#$%&*.",
"............#$%%=-;",
"...........#$%%%%>,",
"..........#$%%%%$#.",
".........#$%%%%$#..",
"........#$%%%%$#...",
".......#$%%%%$#....",
"......#$%%%%$#.....",
".....#$%%%%$#......",
"....#$%%%%$#.......",
"...#$%%%%$#........",
"..#$%%%%$#.........",
".,>%%%%$#..........",
".;-=%%$#...........",
"..*-=$#............",
"...*@+.............",
"..................."};
