/* XPM */
static char * buttons_xpm[] = {
"44 20 80 1",
" 	c None",
".	c #2D2D2D",
"+	c #2C2D2D",
"@	c #292A2D",
"#	c #292A2C",
"$	c #28292C",
"%	c #282A2C",
"&	c #292B2D",
"*	c #3C382F",
"=	c #B5953D",
"-	c #CBA63F",
";	c #CBA53F",
">	c #CAA53E",
",	c #CAA33E",
"'	c #CAA43E",
")	c #D2AA3F",
"!	c #D4AC40",
"~	c #D6AE40",
"{	c #DFB541",
"]	c #E0B641",
"^	c #E0B541",
"/	c #DFB441",
"(	c #E0B341",
"_	c #E0B441",
":	c #E9BB42",
"<	c #EEBF42",
"[	c #F5C443",
"}	c #F4C443",
"|	c #DAB040",
"1	c #3F3B2F",
"2	c #8F7738",
"3	c #FFCF44",
"4	c #FFCE44",
"5	c #FFCD44",
"6	c #FECB44",
"7	c #8C7538",
"8	c #35342E",
"9	c #DCB240",
"0	c #FFCC44",
"a	c #ECBE42",
"b	c #3E392F",
"c	c #2C2C2D",
"d	c #27292C",
"e	c #635733",
"f	c #B4943C",
"g	c #AF903B",
"h	c #FBC944",
"i	c #6A5B34",
"j	c #2A2B2D",
"k	c #524932",
"l	c #C9A43E",
"m	c #37352E",
"n	c #A1853A",
"o	c #FFD045",
"p	c #FCCA44",
"q	c #776536",
"r	c #39362F",
"s	c #E6B942",
"t	c #EABB41",
"u	c #33322E",
"v	c #726235",
"w	c #A4883B",
"x	c #C19C3E",
"y	c #5B4F32",
"z	c #635633",
"A	c #F7C643",
"B	c #B6953C",
"C	c #31302E",
"D	c #2B2C2D",
"E	c #B2923C",
"F	c #655734",
"G	c #3D392F",
"H	c #F0C143",
"I	c #2F2F2D",
"J	c #846F37",
"K	c #977D39",
"L	c #514931",
"M	c #524A32",
"N	c #4C4531",
"O	c #2F2E2D",
"............................................",
"..+@##@@@@@$$$$$$$$$$$$$$%%$@@@&............",
"..*=-;>>,'')!~{]]]]^^^/(_::<[}[|1...........",
"...234444444445555555555555555567...........",
"..+89400000000000000000000000005abc.........",
"...de6000000000000000000000000003f#.........",
".....g500000000000000000000000000hij........",
".....k<000000000000000000000000000lm........",
".....cno00000000000000000000000000pqj.......",
".....crs400000000000000000000000005tuc......",
"......dv0000000000000000000000000003w@......",
".......ux000000000000000000000000000}yc.....",
".......czA000000000000000000000000000BC.....",
"........DEo00000000000000000000000000hF@....",
"........DGH500000000000000000000000004/Ic...",
".........#Jppppppppppppppppppppppppppp6Kc...",
"..........uLMMMMMMMMMMMMMMMMMMMMMMMMMMMNO...",
"............................................",
"............................................",
"............................................"};
