/* XPM */
static char *slackware_logo[] = {
/* columns rows colors chars-per-pixel */
"54 54 2 1 ",
"  c None",
". c #191919",
/* pixels */
"                     ............                     ",
"                  ..................                  ",
"                ....              ....                ",
"              ...                    ...              ",
"            ...                        ...            ",
"           ..                            ..           ",
"         ...                              ...         ",
"        ...                                ...        ",
"       ...                                  ...       ",
"      ...                                    ...      ",
"      ..            ........... ....          ..      ",
"     ..           ...................          ..     ",
"    ..           ....................           ..    ",
"    .          ......................            .    ",
"   ..          .......        .......            ..   ",
"   .          ......           ......             .   ",
"  ..          ......            .....             ..  ",
"  .           .....             .....              .  ",
" ..           .....              ...               .. ",
" ..           ......                               .. ",
" .            ........                              . ",
"..             ..............                       ..",
"..              .................                   ..",
"..               ..................                 ..",
"..                 .................                ..",
"..                     ..............               ..",
"..                             ......               ..",
"..             .                ......              ..",
"..           .....               .....              ..",
"..           .....               .....              ..",
"..           ......              .....              ..",
"..           ......             ......              ..",
"..      ..   .......           ......               ..",
" .      ..   ..........     .........               . ",
" ..     ..   .......................               .. ",
" ..     ..   .....................                 .. ",
"  .     ..    ...................                  .  ",
"  ..    ..     ...     ......                     ..  ",
"   .    ..                                        .   ",
"   ..   ...................................      ..   ",
"    .   ...................................      .    ",
"    ..  ...................................     ..    ",
"     ..                                        ..     ",
"      ..                                      ..      ",
"      ...                                    ...      ",
"       ...                                  ...       ",
"        ...                                ...        ",
"         ...                              ...         ",
"           ..                            ..           ",
"            ...                        ...            ",
"              ...                    ...              ",
"                ....              ....                ",
"                  ..................                  ",
"                     ............                     "
};
