/* XPM */
static char * close_pressed_xpm[] = {
"40 40 61 1",
" 	c None",
".	c #FFFFFF",
"+	c #FEFCFD",
"@	c #FEF4F8",
"#	c #FEFDFE",
"$	c #FEDEEB",
"%	c #FC97BF",
"&	c #FC7EB0",
"*	c #FC67A3",
"=	c #FC64A1",
"-	c #FC67A2",
";	c #FC82B3",
">	c #FDA6C9",
",	c #FEE3EE",
"'	c #FEFAFC",
")	c #FDACCD",
"!	c #FC66A2",
"~	c #FC92BD",
"{	c #FEEFF5",
"]	c #FEF8FA",
"^	c #FC8BB8",
"/	c #FC70A8",
"(	c #FEFBFC",
"_	c #FC89B7",
":	c #FEE7F0",
"<	c #FDACCC",
"[	c #FC87B6",
"}	c #FEFEFE",
"|	c #FC65A2",
"1	c #FDCADF",
"2	c #FD9FC5",
"3	c #FC8FBB",
"4	c #FEFBFD",
"5	c #FC6AA4",
"6	c #FEE1ED",
"7	c #FEE2ED",
"8	c #FECDE0",
"9	c #FED6E6",
"0	c #FED7E7",
"a	c #FEDBE9",
"b	c #FEE9F1",
"c	c #FC6CA6",
"d	c #FC90BB",
"e	c #FD9CC3",
"f	c #FED0E2",
"g	c #FED9E8",
"h	c #FC94BE",
"i	c #FEEDF4",
"j	c #FC75AB",
"k	c #FC76AC",
"l	c #FEF1F6",
"m	c #FEE4EF",
"n	c #FC74AA",
"o	c #FEE4EE",
"p	c #FED5E5",
"q	c #FC93BD",
"r	c #FC69A4",
"s	c #FC6BA5",
"t	c #FEE1EC",
"u	c #FECFE2",
"v	c #FED3E4",
"........................................",
"........................................",
"........................................",
"........................................",
"........................................",
"........................................",
"........................................",
"........................................",
"........................................",
"..................+@@#..................",
"...............$%&*==-;>,...............",
".............')!=========~{.............",
"............]^============/$............",
"...........(_==============/:...........",
"...........<================[}..........",
"..........,|=================1..........",
"..........2==================3..........",
".........45==================!'.........",
".........6====================7.........",
".........8====================9.........",
".........8====================0.........",
".........a====================b.........",
".........]|==================c#.........",
"..........d==================e..........",
"..........f==================g..........",
"...........3================h...........",
"...........ij==============kl...........",
"............mn============jo............",
".............l3==========3l.............",
"...............pqr====sh9...............",
".................]tuv6(.................",
"........................................",
"........................................",
"........................................",
"........................................",
"........................................",
"........................................",
"........................................",
"........................................",
"........................................"};
