/* XPM */
static char * close_focus_xpm[] = {
"40 40 78 1",
" 	c None",
".	c #FFFFFF",
"+	c #FEFCFD",
"@	c #FEF4F8",
"#	c #FEFDFE",
"$	c #FEDEEB",
"%	c #FC97BF",
"&	c #FC7EB0",
"*	c #FC67A3",
"=	c #FC64A1",
"-	c #FC67A2",
";	c #FC82B3",
">	c #FDA6C9",
",	c #FEE3EE",
"'	c #FEFAFC",
")	c #FDACCD",
"!	c #FC66A2",
"~	c #FC92BD",
"{	c #FEEFF5",
"]	c #FEF8FA",
"^	c #FC8BB8",
"/	c #FC70A8",
"(	c #FEFBFC",
"_	c #FC89B7",
":	c #FEE7F0",
"<	c #FDACCC",
"[	c #FC6EA7",
"}	c #FC87B6",
"|	c #FEFEFE",
"1	c #FC65A2",
"2	c #FC68A3",
"3	c #FDB9D4",
"4	c #FEF7FA",
"5	c #FDC4DB",
"6	c #FC76AC",
"7	c #FDCADF",
"8	c #FD9FC5",
"9	c #FED4E5",
"0	c #FEF2F7",
"a	c #FC7CAF",
"b	c #FC8FBB",
"c	c #FEFBFD",
"d	c #FC6AA4",
"e	c #FED8E7",
"f	c #FEE1ED",
"g	c #FEE2ED",
"h	c #FECDE0",
"i	c #FC93BD",
"j	c #FC8DBA",
"k	c #FED6E6",
"l	c #FC96BF",
"m	c #FC8AB8",
"n	c #FED7E7",
"o	c #FEDBE9",
"p	c #FC78AD",
"q	c #FEE9F1",
"r	c #FED0E2",
"s	c #FDC8DE",
"t	c #FC6CA6",
"u	c #FC90BB",
"v	c #FC75AB",
"w	c #FEEDF4",
"x	c #FC73AA",
"y	c #FD9CC3",
"z	c #FECEE1",
"A	c #FC74AA",
"B	c #FED9E8",
"C	c #FC71A9",
"D	c #FC94BE",
"E	c #FEF1F6",
"F	c #FEE4EF",
"G	c #FEE4EE",
"H	c #FED5E5",
"I	c #FC69A4",
"J	c #FC6BA5",
"K	c #FEE1EC",
"L	c #FECFE2",
"M	c #FED3E4",
"........................................",
"........................................",
"........................................",
"........................................",
"........................................",
"........................................",
"........................................",
"........................................",
"........................................",
"..................+@@#..................",
"...............$%&*==-;>,...............",
".............')!=========~{.............",
"............]^============/$............",
"...........(_==============/:...........",
"...........<=======[[=======}|..........",
"..........,1====234..@56=====7..........",
"..........8====29......0a====b..........",
".........cd====3........e====!'.........",
".........f====/'.........6====g.........",
".........h====i..........j====k.........",
".........h====l..........m====n.........",
".........o====p|........c[====q.........",
".........]1====r........s====t#.........",
"..........u====vw......wx====y..........",
"..........r=====xz|..#zA=====B..........",
"...........b======A~uC======D...........",
"...........wv==============6E...........",
"............FA============vG............",
".............Eb==========bE.............",
"...............HiI====JDk...............",
".................]KLMf(.................",
"........................................",
"........................................",
"........................................",
"........................................",
"........................................",
"........................................",
"........................................",
"........................................",
"........................................"};
