/* XPM */
static char * close_xpm[] = {
"40 40 39 1",
" 	c None",
".	c #FFFFFF",
"+	c #FEFEFE",
"@	c #FBFBFB",
"#	c #F2F2F2",
"$	c #D7D7D7",
"%	c #CDCDCD",
"&	c #C5C5C5",
"*	c #C4C4C4",
"=	c #CFCFCF",
"-	c #DDDDDD",
";	c #F4F4F4",
">	c #FDFDFD",
",	c #DFDFDF",
"'	c #D5D5D5",
")	c #F9F9F9",
"!	c #FCFCFC",
"~	c #D3D3D3",
"{	c #C8C8C8",
"]	c #D2D2D2",
"^	c #F5F5F5",
"/	c #D1D1D1",
"(	c #EBEBEB",
"_	c #DADADA",
":	c #D4D4D4",
"<	c #C6C6C6",
"[	c #F3F3F3",
"}	c #ECECEC",
"|	c #EFEFEF",
"1	c #F1F1F1",
"2	c #F6F6F6",
"3	c #C7C7C7",
"4	c #D9D9D9",
"5	c #EDEDED",
"6	c #F0F0F0",
"7	c #D6D6D6",
"8	c #F8F8F8",
"9	c #CACACA",
"0	c #EEEEEE",
"........................................",
"........................................",
"........................................",
"........................................",
"........................................",
"........................................",
"........................................",
"........................................",
"........................................",
"........................................",
"..................+@@+..................",
"...............#$%&**&=-;...............",
".............>,**********').............",
"............!~************{#............",
"...........>]**************{^...........",
"...........,****************/+..........",
"..........;******************(..........",
".........._******************:..........",
".........><*******************>.........",
".........[********************;.........",
".........}********************|.........",
".........}********************|.........",
".........1********************2.........",
".........!*******************3+.........",
"..........:******************4..........",
"..........5******************6..........",
"...........:****************7...........",
"...........89**************9)...........",
"............^9************9;............",
".............):**********:).............",
"...............|7<****<7|...............",
".................![}0[>.................",
"........................................",
"........................................",
"........................................",
"........................................",
"........................................",
"........................................",
"........................................",
"........................................"};
