/* XPM */
static char * maximize_focus_xpm[] = {
"40 40 76 1",
" 	c None",
".	c #FFFFFF",
"+	c #FCFEFD",
"@	c #F5FBF8",
"#	c #FDFEFE",
"$	c #E1F4EA",
"%	c #A1DDBF",
"&	c #8AD5B0",
"*	c #76CEA2",
"=	c #73CDA0",
"-	c #75CDA1",
";	c #8ED6B2",
">	c #AEE2C8",
",	c #E6F6EE",
"'	c #FBFDFC",
")	c #B4E4CC",
"!	c #9CDBBC",
"~	c #F1FAF5",
"{	c #F8FCFA",
"]	c #96D9B8",
"^	c #7ED1A7",
"/	c #95D9B7",
"(	c #7DD0A7",
"_	c #E9F7F0",
":	c #7CD0A6",
"<	c #92D8B5",
"[	c #FEFEFE",
"}	c #E5F5ED",
"|	c #74CDA1",
"1	c #C0E8D4",
"2	c #C9EBDA",
"3	c #83D2AB",
"4	c #CFEEDE",
"5	c #A8E0C4",
"6	c #77CEA2",
"7	c #D8F1E4",
"8	c #F4FBF7",
"9	c #88D4AE",
"0	c #9ADBBA",
"a	c #78CEA3",
"b	c #DBF2E7",
"c	c #FAFDFC",
"d	c #E4F5ED",
"e	c #D1EEE0",
"f	c #9DDCBD",
"g	c #98DAB9",
"h	c #DAF1E6",
"i	c #A0DDBE",
"j	c #DBF2E6",
"k	c #DEF3E9",
"l	c #85D3AC",
"m	c #EBF7F1",
"n	c #D5F0E2",
"o	c #CEEDDD",
"p	c #7ACFA5",
"q	c #9BDBBB",
"r	c #82D2AA",
"s	c #EFF9F4",
"t	c #80D1A9",
"u	c #A6DFC2",
"v	c #81D2A9",
"w	c #D3EFE1",
"x	c #81D2AA",
"y	c #DDF3E8",
"z	c #7FD1A8",
"A	c #9EDCBD",
"B	c #F2FAF6",
"C	c #E7F6EE",
"D	c #99DABA",
"E	c #D9F1E5",
"F	c #77CEA3",
"G	c #79CFA4",
"H	c #DAF2E6",
"I	c #E4F5EC",
"J	c #D4EFE1",
"K	c #D7F0E4",
"........................................",
"........................................",
"........................................",
"........................................",
"........................................",
"........................................",
"........................................",
"........................................",
"........................................",
"..................+@@#..................",
"...............$%&*==-;>,...............",
".............')-=========!~.............",
"............{]============^$............",
"...........'/==============(_...........",
"...........)=======::=======<[..........",
"..........}|====*1{..@23=====4..........",
"..........5====67......89====0..........",
".........+a====1........b====-c.........",
".........d====^'.........3====}.........",
".........e====f..........g====h.........",
".........e====i........../====j.........",
".........k====l[........+:====m.........",
".........{|====n........o====p#.........",
"..........q====rs......st====u..........",
"..........n=====vw[..#wx=====y..........",
"...........0======x!qz======A...........",
"...........sr==============3B...........",
"............Cx============r,............",
".............B0==========DB.............",
"...............EfF====GAH...............",
".................{IJKd'.................",
"........................................",
"........................................",
"........................................",
"........................................",
"........................................",
"........................................",
"........................................",
"........................................",
"........................................"};
