/* XPM */
static char * maximize_xpm[] = {
"40 40 30 1",
" 	c None",
".	c #FFFFFF",
"+	c #FEFEFE",
"@	c #FCFCFC",
"#	c #F7F7F7",
"$	c #E7E7E7",
"%	c #E1E1E1",
"&	c #DCDCDC",
"*	c #E2E2E2",
"=	c #EAEAEA",
"-	c #F8F8F8",
";	c #ECECEC",
">	c #E6E6E6",
",	c #FBFBFB",
"'	c #FDFDFD",
")	c #E4E4E4",
"!	c #DEDEDE",
"~	c #F9F9F9",
"{	c #E3E3E3",
"]	c #F3F3F3",
"^	c #E9E9E9",
"/	c #E5E5E5",
"(	c #DDDDDD",
"_	c #F5F5F5",
":	c #F6F6F6",
"<	c #FAFAFA",
"[	c #E8E8E8",
"}	c #F4F4F4",
"|	c #DFDFDF",
"1	c #E0E0E0",
"........................................",
"........................................",
"........................................",
"........................................",
"........................................",
"........................................",
"........................................",
"........................................",
"........................................",
"........................................",
"..................+@@+..................",
"...............#$%&&&&*=-...............",
".............+;&&&&&&&&&&>,.............",
"............')&&&&&&&&&&&&!#............",
"...........+)&&&&&&&&&&&&&&!~...........",
"...........;&&&&&&&&&&&&&&&&{+..........",
"..........-&&&&&&&&&&&&&&&&&&]..........",
"..........^&&&&&&&&&&&&&&&&&&/..........",
".........+(&&&&&&&&&&&&&&&&&&&'.........",
".........-&&&&&&&&&&&&&&&&&&&&-.........",
".........]&&&&&&&&&&&&&&&&&&&&_.........",
".........]&&&&&&&&&&&&&&&&&&&&:.........",
".........:&&&&&&&&&&&&&&&&&&&&<.........",
".........'&&&&&&&&&&&&&&&&&&&(+.........",
"..........>&&&&&&&&&&&&&&&&&&[..........",
"..........}&&&&&&&&&&&&&&&&&&:..........",
".........../&&&&&&&&&&&&&&&&>...........",
"...........,|&&&&&&&&&&&&&&1,...........",
"............~|&&&&&&&&&&&&|-............",
".............,/&&&&&&&&&&/,.............",
"..............._>(&&&&(>_...............",
".................'-}_-+.................",
"........................................",
"........................................",
"........................................",
"........................................",
"........................................",
"........................................",
"........................................",
"........................................"};
