/* XPM */
static char * maximize_pressed_xpm[] = {
"40 40 60 1",
" 	c None",
".	c #FFFFFF",
"+	c #FCFEFD",
"@	c #F5FBF8",
"#	c #FDFEFE",
"$	c #E1F4EA",
"%	c #A1DDBF",
"&	c #8AD5B0",
"*	c #76CEA2",
"=	c #73CDA0",
"-	c #75CDA1",
";	c #8ED6B2",
">	c #AEE2C8",
",	c #E6F6EE",
"'	c #FBFDFC",
")	c #B4E4CC",
"!	c #9CDBBC",
"~	c #F1FAF5",
"{	c #F8FCFA",
"]	c #96D9B8",
"^	c #7ED1A7",
"/	c #95D9B7",
"(	c #7DD0A7",
"_	c #E9F7F0",
":	c #92D8B5",
"<	c #FEFEFE",
"[	c #E5F5ED",
"}	c #74CDA1",
"|	c #CFEEDE",
"1	c #A8E0C4",
"2	c #9ADBBA",
"3	c #78CEA3",
"4	c #FAFDFC",
"5	c #E4F5ED",
"6	c #D1EEE0",
"7	c #DAF1E6",
"8	c #DBF2E6",
"9	c #DEF3E9",
"0	c #EBF7F1",
"a	c #7ACFA5",
"b	c #9BDBBB",
"c	c #A6DFC2",
"d	c #D5F0E2",
"e	c #DDF3E8",
"f	c #9EDCBD",
"g	c #EFF9F4",
"h	c #82D2AA",
"i	c #83D2AB",
"j	c #F2FAF6",
"k	c #E7F6EE",
"l	c #81D2AA",
"m	c #99DABA",
"n	c #D9F1E5",
"o	c #9DDCBD",
"p	c #77CEA3",
"q	c #79CFA4",
"r	c #DAF2E6",
"s	c #E4F5EC",
"t	c #D4EFE1",
"u	c #D7F0E4",
"........................................",
"........................................",
"........................................",
"........................................",
"........................................",
"........................................",
"........................................",
"........................................",
"........................................",
"..................+@@#..................",
"...............$%&*==-;>,...............",
".............')-=========!~.............",
"............{]============^$............",
"...........'/==============(_...........",
"...........)================:<..........",
"..........[}=================|..........",
"..........1==================2..........",
".........+3==================-4.........",
".........5====================[.........",
".........6====================7.........",
".........6====================8.........",
".........9====================0.........",
".........{}==================a#.........",
"..........b==================c..........",
"..........d==================e..........",
"...........2================f...........",
"...........gh==============ij...........",
"............kl============h,............",
".............j2==========mj.............",
"...............nop====qfr...............",
".................{stu5'.................",
"........................................",
"........................................",
"........................................",
"........................................",
"........................................",
"........................................",
"........................................",
"........................................",
"........................................"};
