/* XPM */
static char * minimize_xpm[] = {
"40 40 21 1",
" 	c None",
".	c #FFFFFF",
"+	c #FEFEFE",
"@	c #FDFDFD",
"#	c #FAFAFA",
"$	c #EFEFEF",
"%	c #EBEBEB",
"&	c #E8E8E8",
"*	c #ECECEC",
"=	c #F1F1F1",
"-	c #F2F2F2",
";	c #EEEEEE",
">	c #FCFCFC",
",	c #EDEDED",
"'	c #E9E9E9",
")	c #FBFBFB",
"!	c #F7F7F7",
"~	c #F0F0F0",
"{	c #F8F8F8",
"]	c #F9F9F9",
"^	c #EAEAEA",
"........................................",
"........................................",
"........................................",
"........................................",
"........................................",
"........................................",
"........................................",
"........................................",
"........................................",
"........................................",
"..................+@@+..................",
"...............#$%&&&&*=#...............",
".............+-&&&&&&&&&&;>.............",
"............+,&&&&&&&&&&&&'#............",
"...........+,&&&&&&&&&&&&&&')...........",
"...........-&&&&&&&&&&&&&&&&,+..........",
"..........#&&&&&&&&&&&&&&&&&&!..........",
"..........~&&&&&&&&&&&&&&&&&&;..........",
".........+&&&&&&&&&&&&&&&&&&&&+.........",
".........#&&&&&&&&&&&&&&&&&&&&#.........",
".........!&&&&&&&&&&&&&&&&&&&&{.........",
".........!&&&&&&&&&&&&&&&&&&&&].........",
".........]&&&&&&&&&&&&&&&&&&&&).........",
".........+&&&&&&&&&&&&&&&&&&&'+.........",
"..........;&&&&&&&&&&&&&&&&&&~..........",
"..........{&&&&&&&&&&&&&&&&&&]..........",
"...........;&&&&&&&&&&&&&&&&$...........",
"...........>^&&&&&&&&&&&&&&^>...........",
"............)^&&&&&&&&&&&&^)............",
".............>;&&&&&&&&&&;>.............",
"...............{$&&&&&'$]...............",
".................+#!{#+.................",
"........................................",
"........................................",
"........................................",
"........................................",
"........................................",
"........................................",
"........................................",
"........................................"};
