/* XPM */
static char * minimize_focus_xpm[] = {
"40 40 76 1",
" 	c None",
".	c #FFFFFF",
"+	c #FCFDFD",
"@	c #F5F8F9",
"#	c #FDFEFE",
"$	c #E0EAEE",
"%	c #9EBDCA",
"&	c #87AEBE",
"*	c #72A0B2",
"=	c #6F9EB1",
"-	c #719FB2",
";	c #8BB1C0",
">	c #ACC7D2",
",	c #E5EDF1",
"'	c #FBFCFC",
")	c #B2CBD5",
"!	c #99BAC8",
"~	c #F0F5F7",
"{	c #F8FAFB",
"]	c #93B6C4",
"^	c #7AA5B7",
"/	c #FBFCFD",
"(	c #92B5C3",
"_	c #E8F0F3",
":	c #78A4B6",
"<	c #8FB4C2",
"[	c #FEFEFE",
"}	c #E5EDF0",
"|	c #709FB1",
"1	c #72A0B3",
"2	c #BED3DC",
"3	c #F4F8F9",
"4	c #C8DAE1",
"5	c #7FA9BA",
"6	c #CEDEE4",
"7	c #A6C3CE",
"8	c #73A1B3",
"9	c #D7E4E9",
"0	c #F3F7F8",
"a	c #85ADBD",
"b	c #97B9C7",
"c	c #74A1B4",
"d	c #DAE6EB",
"e	c #FAFBFC",
"f	c #E3ECF0",
"g	c #E4EDF0",
"h	c #D0DFE5",
"i	c #9BBBC8",
"j	c #95B7C5",
"k	c #D9E5EA",
"l	c #9DBDCA",
"m	c #92B5C4",
"n	c #DDE8EC",
"o	c #82AABB",
"p	c #EAF1F3",
"q	c #D4E2E7",
"r	c #CCDDE3",
"s	c #76A3B5",
"t	c #98B9C7",
"u	c #7EA8B9",
"v	c #EEF3F6",
"w	c #7DA7B8",
"x	c #A3C1CD",
"y	c #D2E0E6",
"z	c #DCE7EC",
"A	c #7BA6B7",
"B	c #9CBCC9",
"C	c #EFF4F6",
"D	c #F2F6F7",
"E	c #E6EEF1",
"F	c #97B9C6",
"G	c #D8E4E9",
"H	c #74A1B3",
"I	c #75A2B4",
"J	c #D2E1E7",
"K	c #D6E3E8",
"........................................",
"........................................",
"........................................",
"........................................",
"........................................",
"........................................",
"........................................",
"........................................",
"........................................",
"..................+@@#..................",
"...............$%&*==-;>,...............",
".............')-=========!~.............",
"............{]============^$............",
".........../(==============^_...........",
"...........)=======::=======<[..........",
"..........}|====12{..345=====6..........",
"..........7====89......0a====b..........",
".........+c====2........d====-e.........",
".........f====^'.........5====g.........",
".........h====i..........j====k.........",
".........h====l..........m====d.........",
".........n====o[........+:====p.........",
".........{|====q........r====s#.........",
"..........t====uv......vw====x..........",
"..........q=====wy[..#yu=====z..........",
"...........b======u!tA======B...........",
"...........Cu==============5D...........",
"............Eu============uE............",
".............Db==========FD.............",
"...............GiH====IBk...............",
".................{fJKf/.................",
"........................................",
"........................................",
"........................................",
"........................................",
"........................................",
"........................................",
"........................................",
"........................................",
"........................................"};
