/* XPM */
static char * minimize_pressed_xpm[] = {
"40 40 58 1",
" 	c None",
".	c #FFFFFF",
"+	c #FCFDFD",
"@	c #F5F8F9",
"#	c #FDFEFE",
"$	c #E0EAEE",
"%	c #9EBDCA",
"&	c #87AEBE",
"*	c #72A0B2",
"=	c #6F9EB1",
"-	c #719FB2",
";	c #8BB1C0",
">	c #ACC7D2",
",	c #E5EDF1",
"'	c #FBFCFC",
")	c #B2CBD5",
"!	c #99BAC8",
"~	c #F0F5F7",
"{	c #F8FAFB",
"]	c #93B6C4",
"^	c #7AA5B7",
"/	c #FBFCFD",
"(	c #92B5C3",
"_	c #E8F0F3",
":	c #8FB4C2",
"<	c #FEFEFE",
"[	c #E5EDF0",
"}	c #709FB1",
"|	c #CEDEE4",
"1	c #A6C3CE",
"2	c #97B9C7",
"3	c #74A1B4",
"4	c #FAFBFC",
"5	c #E3ECF0",
"6	c #E4EDF0",
"7	c #D0DFE5",
"8	c #D9E5EA",
"9	c #DAE6EB",
"0	c #DDE8EC",
"a	c #EAF1F3",
"b	c #76A3B5",
"c	c #98B9C7",
"d	c #A3C1CD",
"e	c #D4E2E7",
"f	c #DCE7EC",
"g	c #9CBCC9",
"h	c #EFF4F6",
"i	c #7EA8B9",
"j	c #7FA9BA",
"k	c #F2F6F7",
"l	c #E6EEF1",
"m	c #97B9C6",
"n	c #D8E4E9",
"o	c #9BBBC8",
"p	c #74A1B3",
"q	c #75A2B4",
"r	c #D2E1E7",
"s	c #D6E3E8",
"........................................",
"........................................",
"........................................",
"........................................",
"........................................",
"........................................",
"........................................",
"........................................",
"........................................",
"..................+@@#..................",
"...............$%&*==-;>,...............",
".............')-=========!~.............",
"............{]============^$............",
".........../(==============^_...........",
"...........)================:<..........",
"..........[}=================|..........",
"..........1==================2..........",
".........+3==================-4.........",
".........5====================6.........",
".........7====================8.........",
".........7====================9.........",
".........0====================a.........",
".........{}==================b#.........",
"..........c==================d..........",
"..........e==================f..........",
"...........2================g...........",
"...........hi==============jk...........",
"............li============il............",
".............k2==========mk.............",
"...............nop====qg8...............",
".................{5rs5/.................",
"........................................",
"........................................",
"........................................",
"........................................",
"........................................",
"........................................",
"........................................",
"........................................",
"........................................"};
