/* XPM */
static char * Close_xpm[] = {
"32 32 32 1",
" 	c #20232C",
".	c #753D3D",
"+	c #A5514D",
"@	c #AD544F",
"#	c #AC544F",
"$	c #763D3E",
"%	c #B75953",
"&	c #BF5C56",
"*	c #B85953",
"=	c #B85954",
"-	c #A3504C",
";	c #633638",
">	c #A24F4C",
",	c #492D32",
"'	c #A14F4B",
")	c #462C32",
"!	c #A04E4B",
"~	c #442B31",
"{	c #9E4E4A",
"]	c #432B31",
"^	c #9D4D4A",
"/	c #412A31",
"(	c #A8524E",
"_	c #BE5C56",
":	c #9B4C49",
"<	c #3F2A30",
"[	c #4C2E33",
"}	c #804141",
"|	c #7B3F3F",
"1	c #3A292F",
"2	c #7A3E3F",
"3	c #7F4040",
"     .+@###############@+$      ",
"     %&&&&&&&&&&&&&&&&&&&*      ",
"     &&&&&&&&&&&&&&&&&&&&&      ",
"     &&&&&&&&&&&&&&&&&&&&&      ",
"     &&&&&&&&&&&&&&&&&&&&&      ",
"     &&&&&&&&&&&&&&&&&&&&&      ",
"     &&&&&&&&&&&&&&&&&&&&&      ",
"     &&&&&&&&&&&&&&&&&&&&&      ",
"     &&&&&&&&&&&&&&&&&&&&&      ",
"     &&&&&&&&&&&&&&&&&&&&&      ",
"     &&&&&&&&&&&&&&&&&&&&&      ",
"     &&&&&&&&&&&&&&&&&&&&&      ",
"     &&&&&&&&&&&&&&&&&&&&&      ",
"     &&&&&&&&&&&&&&&&&&&&&      ",
"     &&&&&&&&&&&&&&&&&&&&&      ",
"     &&&&&&&&&&&&&&&&&&&&&      ",
"     &&&&&&&&&&&&&&&&&&&&&      ",
"     &&&&&&&&&&=&&&&&&&&&&      ",
"     &&&&&&&&&-;-&&&&&&&&&      ",
"     &&&&&&&&>, ,>&&&&&&&&      ",
"     &&&&&&&')   )'&&&&&&&      ",
"     &&&&&&!~     ~!&&&&&&      ",
"     &&&&&{]       ]{&&&&&      ",
"     &&&&^/         /^&&&&      ",
"     (&_:<           <:_&(      ",
"     [}|1             123[      ",
"                                ",
"                                ",
"                                ",
"                                ",
"                                ",
"                                "};
