/* XPM */
static char * Close_pressed_xpm[] = {
"32 32 17 1",
" 	c #20232C",
".	c #7A403F",
"+	c #CB6D68",
"@	c #804243",
"#	c #633638",
"$	c #492D32",
"%	c #462C32",
"&	c #442B31",
"*	c #432B31",
"=	c #412A31",
"-	c #3F2A30",
";	c #4C2E33",
">	c #AA5A56",
",	c #974F4D",
"'	c #3A292F",
")	c #934D4B",
"!	c #A65854",
"     .+++++++++++++++++++@      ",
"     +++++++++++++++++++++      ",
"     +++++++++++++++++++++      ",
"     +++++++++++++++++++++      ",
"     +++++++++++++++++++++      ",
"     +++++++++++++++++++++      ",
"     +++++++++++++++++++++      ",
"     +++++++++++++++++++++      ",
"     +++++++++++++++++++++      ",
"     +++++++++++++++++++++      ",
"     +++++++++++++++++++++      ",
"     +++++++++++++++++++++      ",
"     +++++++++++++++++++++      ",
"     +++++++++++++++++++++      ",
"     +++++++++++++++++++++      ",
"     +++++++++++++++++++++      ",
"     +++++++++++++++++++++      ",
"     +++++++++++++++++++++      ",
"     ++++++++++#++++++++++      ",
"     +++++++++$ $+++++++++      ",
"     ++++++++%   %++++++++      ",
"     +++++++&     &+++++++      ",
"     ++++++*       *++++++      ",
"     +++++=         =+++++      ",
"     ++++-           -++++      ",
"     ;>,'             ')!;      ",
"                                ",
"                                ",
"                                ",
"                                ",
"                                ",
"                                "};
