/* XPM */
static char * Close_unfocused_xpm[] = {
"32 32 24 1",
" 	c #20232C",
".	c #2D2F36",
"+	c #393941",
"@	c #3B3B42",
"#	c #2D2F37",
"$	c #3E3E45",
"%	c #404047",
"&	c #383940",
"*	c #292B33",
"=	c #252730",
"-	c #383840",
";	c #24272F",
">	c #37383F",
",	c #24262F",
"'	c #37373F",
")	c #23262F",
"!	c #3A3A41",
"~	c #36373E",
"{	c #23262E",
"]	c #303138",
"^	c #2E3037",
"/	c #23252E",
"(	c #2E2F37",
"_	c #2F3138",
"     .+@@@@@@@@@@@@@@@@@+#      ",
"     $%%%%%%%%%%%%%%%%%%%$      ",
"     %%%%%%%%%%%%%%%%%%%%%      ",
"     %%%%%%%%%%%%%%%%%%%%%      ",
"     %%%%%%%%%%%%%%%%%%%%%      ",
"     %%%%%%%%%%%%%%%%%%%%%      ",
"     %%%%%%%%%%%%%%%%%%%%%      ",
"     %%%%%%%%%%%%%%%%%%%%%      ",
"     %%%%%%%%%%%%%%%%%%%%%      ",
"     %%%%%%%%%%%%%%%%%%%%%      ",
"     %%%%%%%%%%%%%%%%%%%%%      ",
"     %%%%%%%%%%%%%%%%%%%%%      ",
"     %%%%%%%%%%%%%%%%%%%%%      ",
"     %%%%%%%%%%%%%%%%%%%%%      ",
"     %%%%%%%%%%%%%%%%%%%%%      ",
"     %%%%%%%%%%%%%%%%%%%%%      ",
"     %%%%%%%%%%%%%%%%%%%%%      ",
"     %%%%%%%%%%$%%%%%%%%%%      ",
"     %%%%%%%%%&*&%%%%%%%%%      ",
"     %%%%%%%%&= =&%%%%%%%%      ",
"     %%%%%%%-;   ;-%%%%%%%      ",
"     %%%%%%>,     ,>%%%%%%      ",
"     %%%%%>,       ,>%%%%%      ",
"     %%%%')         )'%%%%      ",
"     !%%~{           {~%%!      ",
"     =]^/             /(_=      ",
"                                ",
"                                ",
"                                ",
"                                ",
"                                ",
"                                "};
