/* XPM */
static char * Minimize_pressed_xpm[] = {
"32 32 7 1",
" 	c #21232B",
".	c #22242C",
"+	c #26282F",
"@	c #272830",
"#	c #36363D",
"$	c #4F4F56",
"%	c #35363D",
"                                ",
"                                ",
"                                ",
"                                ",
"                                ",
"        .+@@@@@@@@@@@@+.        ",
"        #$$$$$$$$$$$$$$#        ",
"        $$$$$$$$$$$$$$$$        ",
"        $$$$$$$$$$$$$$$$        ",
"        $$$$$$$$$$$$$$$$        ",
"        $$$$$$$$$$$$$$$$        ",
"        $$$$$$$$$$$$$$$$        ",
"        $$$$$$$$$$$$$$$$        ",
"        $$$$$$$$$$$$$$$$        ",
"        $$$$$$$$$$$$$$$$        ",
"        $$            $$        ",
"        $$            $$        ",
"        $$            $$        ",
"        $$$$$$$$$$$$$$$$        ",
"        %$$$$$$$$$$$$$$#        ",
"        .+@@@@@@@@@@@@+.        ",
"                                ",
"                                ",
"                                ",
"                                ",
"                                ",
"                                ",
"                                ",
"                                ",
"                                ",
"                                ",
"                                "};
