/* XPM */
static char * Minimize_xpm[] = {
"32 32 12 1",
" 	c #21232B",
".	c #22242C",
"+	c #26282F",
"@	c #272830",
"#	c #36363D",
"$	c #3D3D44",
"%	c #404047",
"&	c #3E3E45",
"*	c #2A2B33",
"=	c #26272F",
"-	c #2B2C33",
";	c #35363D",
"                                ",
"                                ",
"                                ",
"                                ",
"                                ",
"        .+@@@@@@@@@@@@+.        ",
"        #$$$$$$$$$$$$$$#        ",
"        %%%%%%%%%%%%%%%%        ",
"        %%%%%%%%%%%%%%%%        ",
"        %%%%%%%%%%%%%%%%        ",
"        %%%%%%%%%%%%%%%%        ",
"        %%%%%%%%%%%%%%%%        ",
"        %%%%%%%%%%%%%%%%        ",
"        %%%%%%%%%%%%%%%%        ",
"        %%&$$$$$$$$$$&%%        ",
"        %&*=++++++++=*&%        ",
"        %$=          =$%        ",
"        %&-=++++++++=-&%        ",
"        %%&$$$$$$$$$$&%%        ",
"        ;$$$$$$$$$$$$$$#        ",
"        .+@@@@@@@@@@@@+.        ",
"                                ",
"                                ",
"                                ",
"                                ",
"                                ",
"                                ",
"                                ",
"                                ",
"                                ",
"                                ",
"                                "};
