/* XPM */
static char * selected_xpm[] = {
"30 30 18 1",
" 	c #20232C",
".	c #563135",
"+	c #914846",
"@	c #AE5550",
"#	c #BC5B55",
"$	c #824241",
"%	c #B55853",
"&	c #B05651",
"*	c #884543",
"=	c #5C3337",
"-	c #BA5A54",
";	c #964B48",
">	c #482D32",
",	c #38282F",
"'	c #4E2E33",
")	c #954A48",
"!	c #B85954",
"~	c #BE5C56",
"                              ",
"                              ",
"                              ",
"                              ",
"                              ",
"                              ",
"                              ",
"           .+@##@+.           ",
"          $%&*==*&%$          ",
"         $-;>    >;-$         ",
"        .%;,      ,;%.        ",
"        +&> ')!!)' >&+        ",
"        @*  )~~~~)  *@        ",
"        #=  !~~~~!  =#        ",
"        #=  !~~~~!  =#        ",
"        @*  )~~~~)  *@        ",
"        +&> ')!!)' >&+        ",
"        .%;,      ,;%.        ",
"         $-;>    >;-$         ",
"          $%&*==*&%$          ",
"           .+@##@+.           ",
"                              ",
"                              ",
"                              ",
"                              ",
"                              ",
"                              ",
"                              ",
"                              ",
"                              "};
