<svg xmlns="http://www.w3.org/2000/svg" xmlns:xlink="http://www.w3.org/1999/xlink" width="48" height="48">
  <defs id="acyl-settings">
    <linearGradient x1="0%" y1="0%" x2="0%" y2="100%" id="acyl-gradient">
      <stop offset="0%" style="stop-color:#636EAE;stop-opacity:1.000000"/>
      <stop offset="50%" style="stop-color:#829C7F;stop-opacity:1.000000"/>
      <stop offset="100%" style="stop-color:#D73E7F;stop-opacity:1.000000"/>
    </linearGradient>
    <g id="acyl-filter">
  </g>
    <g id="acyl-drawing">
      <path d="M 15.03125,5 L 15.03125,5.5 L 15.03125,20.09375 L 7.53125,20.09375 L 6.4375,20.09375 L 7.15625,20.90625 L 23.65625,39.84375 L 23.78125,40 L 7.53125,40 L 7.03125,40 L 7.03125,40.5 L 7.03125,44.5 L 7.03125,45 L 7.53125,45 L 40.53125,45 L 41.03125,45 L 41.03125,44.5 L 41.03125,40.5 L 41.03125,40 L 40.53125,40 L 24.28125,40 L 24.4375,39.84375 L 40.84375,20.90625 L 41.5625,20.09375 L 40.46875,20.09375 L 33.09375,20.09375 L 33.09375,5.5 L 33.09375,5 L 32.59375,5 L 15.53125,5 L 15.03125,5 z" id="path-main"/>
    </g>
  </defs>
  <g id="acyl-visual">
    <use id="visible1" transform="translate(24,24) scale(1.00) translate(-24,-24)" style="fill:rgb(0,0,0);fill-opacity:0.00;stroke:url(#acyl-gradient);stroke-width:1.00" xlink:href="#acyl-drawing"/>
  </g>
</svg>
