<?xml version="1.0" encoding="UTF-8" standalone="no"?>
<svg
   xmlns:dc="http://purl.org/dc/elements/1.1/"
   xmlns:cc="http://creativecommons.org/ns#"
   xmlns:rdf="http://www.w3.org/1999/02/22-rdf-syntax-ns#"
   xmlns:svg="http://www.w3.org/2000/svg"
   xmlns="http://www.w3.org/2000/svg"
   xmlns:sodipodi="http://sodipodi.sourceforge.net/DTD/sodipodi-0.dtd"
   xmlns:inkscape="http://www.inkscape.org/namespaces/inkscape"
   height="512"
   id="Layer_1"
   version="1.1"
   viewBox="0 0 512 512"
   width="512"
   xml:space="preserve"
   inkscape:version="0.91 r13725"
   sodipodi:docname="audio-headphones.svg"><metadata
     id="metadata52"><rdf:RDF><cc:Work
         rdf:about=""><dc:format>image/svg+xml</dc:format><dc:type
           rdf:resource="http://purl.org/dc/dcmitype/StillImage" /><dc:title /></cc:Work></rdf:RDF></metadata><defs
     id="defs50" /><sodipodi:namedview
     pagecolor="#ffffff"
     bordercolor="#666666"
     borderopacity="1"
     objecttolerance="10"
     gridtolerance="10"
     guidetolerance="10"
     inkscape:pageopacity="0"
     inkscape:pageshadow="2"
     inkscape:window-width="1366"
     inkscape:window-height="715"
     id="namedview48"
     showgrid="false"
     inkscape:zoom="0.51546004"
     inkscape:cx="430.81517"
     inkscape:cy="225.69878"
     inkscape:window-x="0"
     inkscape:window-y="24"
     inkscape:window-maximized="1"
     inkscape:current-layer="Layer_1" /><g
     id="g4156"><g
       style="fill:#00bbf2;fill-opacity:1"
       transform="matrix(7.34375,0,0,7.34375,21,35.716875)"
       id="Headphone"><g
         style="fill:#00bbf2;fill-opacity:1"
         id="g4"><path
           inkscape:connector-curvature="0"
           id="path6"
           style="fill:#00bbf2;fill-opacity:1"
           d="M 32,0 C 16.536,0 4,12.535 4,27.996 l 0,9.998 c 0,1.105 0.895,2 2,2 1.104,0 1.999,-0.895 2,-1.999 L 8,27.996 C 8,14.743 18.745,3.999 32,3.999 c 13.255,0 24,10.744 24,23.997 l 0,9.998 c 0,1.105 0.895,2 2,2 1.104,0 1.999,-0.895 2,-1.999 l 0,-9.999 C 60,12.535 47.464,0 32,0 Z" /></g></g><g
       style="fill:#00bbf2;fill-opacity:1"
       transform="matrix(7.34375,0,0,7.34375,21,35.716875)"
       id="Headphone_3_"><g
         style="fill:#00bbf2;fill-opacity:1"
         id="g9"><path
           inkscape:connector-curvature="0"
           id="path11"
           style="clip-rule:evenodd;fill:#00bbf2;fill-opacity:1;fill-rule:evenodd"
           d="m 7,33.996 c -6.075,0 -7,4.924 -7,10.998 0,6.074 0.925,10.998 7,10.998 6.075,0 3,-4.924 3,-10.998 0,-6.074 3.075,-10.998 -3,-10.998 z m 50.604,0 c -5.742,0 -2.836,4.924 -2.836,10.998 0,6.074 -2.906,10.998 2.836,10.998 C 63.345,55.992 64,51.068 64,44.994 64,38.92 63.345,33.996 57.604,33.996 Z" /></g></g><g
       style="fill:#394050"
       transform="matrix(7.34375,0,0,7.34375,21,35.716875)"
       id="Headphone_2_"><g
         style="fill:#394050"
         id="g14"><path
           inkscape:connector-curvature="0"
           id="path16"
           style="clip-rule:evenodd;fill:#394050;fill-rule:evenodd"
           d="m 12,29.996 c -3.314,0 -6,2.687 -6,5.999 l 0,17.998 c 0,3.313 2.686,5.999 6,5.999 3.313,0 6,-2.686 6,-5.999 l 0,-17.998 c 0,-3.312 -2.687,-5.999 -6,-5.999 z m 40,0 c -3.314,0 -6,2.687 -6,5.999 l 0,17.998 c 0,3.313 2.686,5.999 6,5.999 3.313,0 6,-2.686 6,-5.999 l 0,-17.998 c 0,-3.312 -2.687,-5.999 -6,-5.999 z" /></g></g></g><g
     id="g18"
     transform="matrix(3.9140028,0,0,3.9140028,5.3439885,272.78631)" /><g
     id="g20"
     transform="matrix(3.9140028,0,0,3.9140028,5.3439885,272.78631)" /><g
     id="g22"
     transform="matrix(3.9140028,0,0,3.9140028,5.3439885,272.78631)" /><g
     id="g24"
     transform="matrix(3.9140028,0,0,3.9140028,5.3439885,272.78631)" /><g
     id="g26"
     transform="matrix(3.9140028,0,0,3.9140028,5.3439885,272.78631)" /><g
     id="g28"
     transform="matrix(3.9140028,0,0,3.9140028,5.3439885,272.78631)" /><g
     id="g30"
     transform="matrix(3.9140028,0,0,3.9140028,5.3439885,272.78631)" /><g
     id="g32"
     transform="matrix(3.9140028,0,0,3.9140028,5.3439885,272.78631)" /><g
     id="g34"
     transform="matrix(3.9140028,0,0,3.9140028,5.3439885,272.78631)" /><g
     id="g36"
     transform="matrix(3.9140028,0,0,3.9140028,5.3439885,272.78631)" /><g
     id="g38"
     transform="matrix(3.9140028,0,0,3.9140028,5.3439885,272.78631)" /><g
     id="g40"
     transform="matrix(3.9140028,0,0,3.9140028,5.3439885,272.78631)" /><g
     id="g42"
     transform="matrix(3.9140028,0,0,3.9140028,5.3439885,272.78631)" /><g
     id="g44"
     transform="matrix(3.9140028,0,0,3.9140028,5.3439885,272.78631)" /><g
     id="g46"
     transform="matrix(3.9140028,0,0,3.9140028,5.3439885,272.78631)" /></svg>