<?xml version="1.0" encoding="UTF-8" standalone="no"?>
<!-- Created with Inkscape (http://www.inkscape.org/) -->

<svg
   xmlns:dc="http://purl.org/dc/elements/1.1/"
   xmlns:cc="http://creativecommons.org/ns#"
   xmlns:rdf="http://www.w3.org/1999/02/22-rdf-syntax-ns#"
   xmlns:svg="http://www.w3.org/2000/svg"
   xmlns="http://www.w3.org/2000/svg"
   xmlns:sodipodi="http://sodipodi.sourceforge.net/DTD/sodipodi-0.dtd"
   xmlns:inkscape="http://www.inkscape.org/namespaces/inkscape"
   id="svg2"
   version="1.1"
   inkscape:version="0.91 r13725"
   width="512"
   height="512"
   sodipodi:docname="camera-app.svg"
   viewBox="0 0 512 512">
  <metadata
     id="metadata8">
    <rdf:RDF>
      <cc:Work
         rdf:about="">
        <dc:format>image/svg+xml</dc:format>
        <dc:type
           rdf:resource="http://purl.org/dc/dcmitype/StillImage" />
        <dc:title />
      </cc:Work>
    </rdf:RDF>
  </metadata>
  <defs
     id="defs6" />
  <sodipodi:namedview
     pagecolor="#ffffff"
     bordercolor="#666666"
     borderopacity="1"
     objecttolerance="10"
     gridtolerance="10"
     guidetolerance="10"
     inkscape:pageopacity="0"
     inkscape:pageshadow="2"
     inkscape:window-width="1366"
     inkscape:window-height="715"
     id="namedview4"
     showgrid="false"
     inkscape:zoom="0.26757812"
     inkscape:cx="-80.33461"
     inkscape:cy="561.442"
     inkscape:window-x="0"
     inkscape:window-y="24"
     inkscape:window-maximized="1"
     inkscape:current-layer="svg2"
     showguides="true"
     inkscape:guide-bbox="true"
     inkscape:document-units="px" />
  <path
     style="fill:#cccccc;fill-opacity:1;fill-rule:evenodd;stroke:none;stroke-width:1.02230215"
     d=""
     id="path3783"
     inkscape:connector-curvature="0" />
  <g
     id="g4146">
    <path
       style="fill:#5d6a7b"
       id="path16"
       d="m 38.26698,153.58561 69.24035,-20.22498 112.53178,-16.32854 113.98783,0.91374 33.74914,20.09497 80.79589,12.95587 c 0,0 15.50023,2.63351 20.26585,8.86631 4.75443,6.23276 6.16218,54.04095 6.16218,54.04095 l -3.68468,150.24421 c 0,0 1.15519,32.78338 -8.50229,40.42392 -9.67233,7.64797 -23.44164,9.04832 -23.44164,9.04832 l -310.16821,5.99877 -96.21809,-5.80562 5.28189,-260.22792 0,0 z"
       inkscape:connector-curvature="0" />
    <path
       style="fill:#394050;fill-opacity:1"
       id="path23"
       d="m 196.18886,202.06982 25.58115,-85.65803 c 0,0 5.6162,-18.055743 10.65666,-21.655007 3.90384,-2.793239 7.0388,-3.357853 8.77714,-3.476692 0,-0.159649 102.16117,0 102.16117,0 0,0 7.9154,0.02227 12.14239,9.170879 4.21959,9.14857 32.38967,100.52681 32.38967,100.52681 l -191.70818,1.09204 0,0 z"
       inkscape:connector-curvature="0" />
    <path
       style="fill:#ffffff"
       id="path30"
       d="m 427.70813,273.95481 c 0,0 18.34548,-0.82089 20.74128,3.1201 2.39579,3.95214 4.76557,44.76979 1.42634,47.73761 -3.36898,2.96781 -27.52381,3.38753 -27.52381,3.38753 l 5.35619,-54.24524 0,0 z"
       inkscape:connector-curvature="0" />
    <path
       style="fill:#b3b3b3;fill-opacity:1;stroke:none"
       id="path37"
       d="m 56.90715,143.48697 c 0,0 7.1168,-20.21754 26.71034,-20.55927 19.59352,-0.34915 25.68144,19.64552 25.68144,19.64552 l -52.39178,0.91375 0,0 z"
       inkscape:connector-curvature="0" />
    <path
       style="fill:#394050;fill-opacity:1"
       id="path51"
       d="m 25.13653,192.35662 c 0,0 -1.5452,-22.40161 5.76104,-31.74706 7.32854,-9.34546 18.73178,-17.02687 24.45569,-17.70287 5.71648,-0.68347 55.19987,-2.12466 55.19987,-2.12466 0,0 12.14984,0.95088 15.68594,8.9443 3.54728,7.99342 4.01159,33.89401 4.01159,33.89401 l 4.16756,173.19184 c 0,0 3.34669,53.43179 -1.19232,59.82058 -4.5353,6.39993 -11.97898,8.26456 -18.87664,8.37971 -6.88652,0.13003 -70.75581,0.66115 -70.75581,0.66115 0,0 -8.63602,0.1523 -11.06896,-5.53447 -2.41436,-5.68676 -4.11927,-7.90053 -4.36443,-21.77758 C 27.9149,384.51053 25.13653,192.35662 25.13653,192.35662 l 0,0 z"
       inkscape:connector-curvature="0" />
    <path
       style="fill:#ffffff"
       id="path58"
       d="m 240.39777,103.34821 100.69399,0.0157 c 3.90012,0 7.05737,3.14981 7.05737,7.04251 v 8.06028 c 0,3.889 -3.14982,7.04252 -7.04252,7.04252 l -100.69767,-0.0157 c -3.89642,0 -7.04997,-3.14984 -7.04997,-7.04252 v -8.06028 c 0.005,-3.889 3.14984,-7.04252 7.0388,-7.04252 l 0,0 z"
       inkscape:connector-curvature="0" />
    <rect
       ry="134.70154"
       y="162.59692"
       x="159.3835"
       height="269.40308"
       width="269.40308"
       id="rect3427"
       style="fill:#b3b3b3;fill-opacity:1;fill-rule:evenodd;stroke:none" />
    <rect
       style="fill:#00bbf2;fill-opacity:1;fill-rule:evenodd;stroke:none"
       id="rect3429"
       width="224.50255"
       height="224.50255"
       x="181.83379"
       y="185.0472"
       ry="112.25127" />
    <rect
       ry="89.801041"
       y="207.49744"
       x="204.28386"
       height="179.6021"
       width="179.6021"
       id="rect3431"
       style="fill:#216778;fill-opacity:1;fill-rule:evenodd;stroke:none" />
    <rect
       style="fill:#164450;fill-opacity:1;fill-rule:evenodd;stroke:none"
       id="rect3433"
       width="134.70154"
       height="134.70154"
       x="226.7343"
       y="229.94772"
       ry="67.350769" />
    <rect
       ry="44.90052"
       y="252.39786"
       x="249.18443"
       height="89.801041"
       width="89.801041"
       id="rect3435"
       style="fill:#0b2228;fill-opacity:1;fill-rule:evenodd;stroke:none" />
    <rect
       style="fill:#ffffff;fill-opacity:1;fill-rule:evenodd;stroke:none"
       id="rect3437"
       width="44.90052"
       height="44.90052"
       x="294.08511"
       y="252.39786"
       ry="22.45026" />
    <rect
       ry="11.22513"
       y="319.7486"
       x="249.18443"
       height="22.45026"
       width="22.45026"
       id="rect3439"
       style="fill:#ffffff;fill-opacity:1;fill-rule:evenodd;stroke:none" />
  </g>
</svg>
