<svg xmlns="http://www.w3.org/2000/svg" xmlns:xlink="http://www.w3.org/1999/xlink" width="48" height="48">
  <defs id="acyl-settings">
    <linearGradient x1="0%" y1="0%" x2="0%" y2="100%" id="acyl-gradient">
      <stop offset="0%" style="stop-color:#636EAE;stop-opacity:1.000000"/>
      <stop offset="50%" style="stop-color:#829C7F;stop-opacity:1.000000"/>
      <stop offset="100%" style="stop-color:#D73E7F;stop-opacity:1.000000"/>
    </linearGradient>
    <g id="acyl-filter">
  </g>
    <g id="acyl-drawing">
      <path id="path-main" d="M 12.9044,8.9049173 13.053578,20.977152 2.2059767,27.397154 2.3683659,39.780915 13.605701,45.940207 24.096046,39.38985 35.430814,45.940207 45.921159,39.38985 45.953643,27.331976 34.781263,20.749029 34.813736,8.6911566 23.804295,2.1816728 12.9044,8.9049173 z M 23.836223,3.4443524 33.709489,9.3103447 24.161002,14.752682 13.995435,9.3429335 23.836223,3.4443524 z M 33.950046,21.306908 44.891648,27.758784 35.300904,33.393502 24.128524,27.331976 13.443313,33.393502 3.3102235,27.983754 13.93048,21.628928 l 10.201623,5.674927 9.817943,-5.996947 z"/>
    </g>
  </defs>
  <g id="acyl-visual">
    <use id="visible1" transform="translate(24,24) scale(1.00) translate(-24,-24)" style="fill:rgb(0,0,0);fill-opacity:0.00;stroke:url(#acyl-gradient);stroke-width:1.00" xlink:href="#acyl-drawing"/>
  </g>
</svg>
