/* XPM */
static char *Maximize[] = {
/* columns rows colors chars-per-pixel */
"30 30 146 2 ",
"   c #188F0E881569",
".  c #18FA0F1C1585",
"X  c #1A000F3714D1",
"o  c #1A3A0FCE1514",
"O  c #195D0FA5159F",
"+  c #1A73111815DD",
"@  c #1ACD114F15C1",
"#  c #1B19120F1615",
"$  c #1F4C17E51732",
"%  c #1D061708184B",
"&  c #1D80184118D7",
"*  c #1D9F189318FB",
"=  c #1DD71924193D",
"-  c #1E1719CA1986",
";  c #1E361A1E19AD",
":  c #1EDF1BE21A7B",
">  c #1F1E1C721AB5",
",  c #1F7F1D6B1B23",
"<  c #208A199E1786",
"1  c #213E1A8017A3",
"2  c #201C1AD618C2",
"3  c #21CC1B5A17D7",
"4  c #22151BB117E0",
"5  c #23631D941847",
"6  c #1FB11DEB1B5C",
"7  c #23FE1E50185B",
"8  c #25111FEA18B8",
"9  c #315630F71BF8",
"0  c #33AB34341C96",
"q  c #35B337071D20",
"w  c #379E39B11DA1",
"e  c #3B6C3EFB1EA3",
"r  c #24EE2B722162",
"t  c #25292C0C21A6",
"y  c #25F02E0D228A",
"u  c #262A2EA322CE",
"i  c #26D430592391",
"p  c #270F30F523D6",
"a  c #27AE328F248C",
"s  c #27E5331C24CB",
"d  c #295C36E5267B",
"f  c #2992376F26B8",
"g  c #2A4A394D278D",
"h  c #3D4C41951F22",
"j  c #303048882E54",
"k  c #307349332EA1",
"l  c #31A84C533005",
"z  c #31DD4CDC3042",
"x  c #33084FE1319A",
"c  c #3326512B3277",
"v  c #33D75200328E",
"b  c #33FA53473366",
"n  c #34D6548933AD",
"m  c #353A558C3420",
"M  c #36EB59EB3612",
"N  c #37495ADD367E",
"B  c #38E15F0B385E",
"V  c #398F60C93925",
"C  c #3A2F625B39D3",
"Z  c #3AD7640E3A94",
"A  c #3C94688C3C95",
"S  c #3C8E69323D15",
"D  c #4AE4547B22BD",
"F  c #4E2659012399",
"G  c #435058EF2BD8",
"H  c #44B85AAF2C10",
"J  c #45045B752C69",
"K  c #46585D592CCC",
"L  c #556563142584",
"P  c #5A12699226C1",
"I  c #4D7E6B0D317B",
"U  c #4E876CDC3208",
"Y  c #4E9D6D033214",
"T  c #50126F083277",
"R  c #511570CF3302",
"E  c #67BE7C182A04",
"W  c #687F7D282A3B",
"Q  c #3F666FD23FD2",
"!  c #3FDA70FE4057",
"~  c #408B72C94124",
"^  c #4107740741B1",
"/  c #42D978BE43CB",
"(  c #42FD791B43F4",
")  c #43EB7B874509",
"_  c #6D57845A2BDA",
"`  c #6FF888022C8D",
"'  c #753C8F4E2DEE",
"]  c #777592692E88",
"[  c #7EAA9C68306D",
"{  c #7F4E9D4D3099",
"}  c #46EF83544884",
"|  c #4749843D48EB",
" . c #49DD8AE14BDF",
".. c #4A468BEA4C53",
"X. c #4A648C544C8A",
"o. c #4B038D364CB9",
"O. c #4AB38D074CD2",
"+. c #4AB38D574D0F",
"@. c #4AD18D584CF8",
"#. c #4B6F8E924D68",
"$. c #4BA48FAC4E10",
"%. c #4C3B8FD94DC0",
"&. c #4C1E8FF04DE7",
"*. c #4C1490B84E82",
"=. c #4CA5920B4F0E",
"-. c #4D1493294F8D",
";. c #4E8896EC513A",
":. c #4EE497D851A4",
">. c #4FF49A9652DC",
",. c #50599B9E5351",
"<. c #516F9E6D5491",
"1. c #51D09F6454FF",
"2. c #5217A01B5551",
"3. c #5243A08E5583",
"4. c #530AA2905669",
"5. c #544DA5D157DC",
"6. c #54A6A6B95843",
"7. c #55C6A9A2598E",
"8. c #5711ACF85B0B",
"9. c #5760ADCA5B69",
"0. c #5792AE585BAD",
"q. c #57CDAEDD5BE2",
"w. c #57D9AEFC5BF0",
"e. c #580BAF7E5C2A",
"r. c #85AAA6883293",
"t. c #8706A85032DA",
"y. c #8708A85432DB",
"u. c #8785A9293319",
"i. c #884AA9B132E8",
"p. c #88FDAB1B336A",
"a. c #8A48AC823378",
"s. c #8B5AAE1033CD",
"d. c #8FA0B3FF34ED",
"f. c #92F3B89D35CF",
"g. c #964EBD4936B2",
"h. c #97BDBF453713",
"j. c #99ACC1F63797",
"k. c #9CC4C6433869",
"l. c #9FC0CA683932",
"z. c #A2E7CECA3A09",
"x. c #A3B7CFE83A3D",
"c. c #A411D0683A58",
"v. c #A455D0A33A4F",
"b. c #A503D1B83A98",
"n. c #A556D22B3AAD",
"m. c #A572D2533AB5",
/* pixels */
"# # # # # # # # # # # # # # # # # # # # # # # # # # # # # # ",
"# # # # # # # # # # # # # # # # # # # # # # # # # # # # # # ",
"# # # # # # # # # # @ O   . + + .   . + # # # # # # # # # # ",
"# # # # # # # # # + $ 9 e q 7 8 w h 0 < + # # # # # # # # # ",
"# # # # # # # # + 4 L s.k.f._ ` g.l.d.P 5 + # # # # # # # # ",
"# # # # # # # # # D h.m.v.b.z.z.b.c.n.j.F # # # # # # # # # ",
"# # # # # # # # 1 ' n.x.x.x.x.x.x.x.x.n.] 3 @ # # # # # # # ",
"# # # # # # # + 7 [ b.x.x.x.x.x.x.x.x.b.{ 7 + # # # # # # # ",
"# # # # @ # = : 2 W x.x.x.x.x.x.x.x.x.x.E 2 : = # @ # # # # ",
"# # # @ - j / } S J u.v.x.x.x.x.x.x.v.r.G S } ( k ; @ # # # ",
"# # @ % n 2.e.e.9.#.R p.v.x.x.x.x.x.t.U o.9.e.e.3.m % @ # # ",
"# # o r =.e.9.9.9.0.&.T a.v.x.x.x.i.I #.0.9.9.9.e.-.t o # # ",
"# # X d 5.0.9.9.9.9.9.*.T p.v.v.t.I $.9.9.9.9.9.0.6.f X # # ",
"# # o i >.w.9.9.9.9.9.9.&.R p.y.Y #.9.9.9.9.9.9.q.,.p o # # ",
"# # @ : Q 8.0.9.9.9.9.9.0.%.K H #.0.9.9.9.9.9.9.8.! > @ # # ",
"# # @ , ~ 8.9.9.9.9.9.9.0.+.b c X.0.9.9.9.9.9.9.8.^ 6 @ # # ",
"# # o a <.q.9.9.9.9.9.9.@.Z #.X.V X.9.9.9.9.9.9.q.1.s o # # ",
"# # X g 7.0.9.9.9.9.9.#.C #.0.0.X.B @.9.9.9.9.9.9.7.g X # # ",
"# # o y ;.e.9.9.9.0.@.C $.0.9.9.9.@.B X.0.9.9.9.e.:.u o # # ",
"# # @ & M 4.e.e.9...Z #.0.9.9.9.9.9.X.V  .9.e.e.4.N * @ # # ",
"# # # @ : l ) | A v O.0.9.9.9.9.9.9.0. .x A | ) z : @ # # # ",
"# # # # @ # - > - S 9.9.9.9.9.9.9.9.9.9.A - > - # @ # # # # ",
"# # # # # # # @ : } e.9.9.9.9.9.9.9.9.e.| > @ # # # # # # # ",
"# # # # # # # # = ( e.9.9.9.9.9.9.9.9.e.) - # # # # # # # # ",
"# # # # # # # # # k 3.e.0.q.8.8.q.9.e.4.z # # # # # # # # # ",
"# # # # # # # # @ ; m -.6.,.! ^ 1.7.:.N : @ # # # # # # # # ",
"# # # # # # # # # @ % t f p > 6 s g u * @ # # # # # # # # # ",
"# # # # # # # # # # @ o X o @ @ o X o @ # # # # # # # # # # ",
"# # # # # # # # # # # # # # # # # # # # # # # # # # # # # # ",
"# # # # # # # # # # # # # # # # # # # # # # # # # # # # # # "
};
