/* XPM */
static char *Maximize_pressed[] = {
/* columns rows colors chars-per-pixel */
"30 30 143 2 ",
"   c #18020E2012DF",
".  c #18730EB11355",
"X  c #18A90EF5138D",
"o  c #18D80F3113BD",
"O  c #1A050F4414D6",
"+  c #1A2C0FDC1508",
"@  c #1A4E10F0153F",
"#  c #1AA610E5158F",
"$  c #1ACC114E15BC",
"%  c #1B1A120F1615",
"&  c #1B7112EE1679",
"*  c #1BE9130616EB",
"=  c #1D82184718D9",
"-  c #1DA3189E1900",
";  c #1E1D19D8198B",
":  c #1E4A1A4C19C0",
">  c #1E821AE11A00",
",  c #1EA11B131A21",
"<  c #1EEA1BEB1A78",
"1  c #1F671D441B09",
"2  c #1FBC1E081B69",
"3  c #219F1A5B1CD8",
"4  c #21581C2C1CBE",
"5  c #203A1F4C1BF9",
"6  c #233E1C691E85",
"7  c #239B1D0A1EEA",
"8  c #206A1FCA1C31",
"9  c #24801DFE1FD4",
"0  c #251F1EC92079",
"q  c #26F520F8225C",
"w  c #277021C022E0",
"e  c #28EF23A6246D",
"r  c #25F22E12228D",
"t  c #262C2EA922D0",
"y  c #26F230A823B3",
"u  c #2729313723F3",
"i  c #27B5329F2494",
"p  c #27EB332A24D2",
"a  c #288B34C9258A",
"s  c #28B7353C25BD",
"d  c #2A2F3906276D",
"f  c #2A62398B27A8",
"g  c #2B073B352866",
"h  c #385D3745346D",
"j  c #3B153ABB3740",
"k  c #3D233D583961",
"l  c #32114D63307E",
"z  c #3F5740253BA9",
"x  c #32DC50B93184",
"c  c #334F509731EB",
"v  c #339B515C3243",
"b  c #33B052D93277",
"n  c #342352C632E0",
"m  c #37005A213629",
"M  c #37615B1C369A",
"N  c #38CF5ECE383F",
"B  c #39105F753889",
"V  c #397F60953909",
"C  c #3A1B622839BC",
"Z  c #3AB963C03A72",
"A  c #3ACB63ED3A86",
"S  c #3D0E69C43D20",
"D  c #3D166A8B3D3A",
"F  c #43D345D94050",
"G  c #45DB486E426C",
"H  c #490B5D274729",
"J  c #4A315E374850",
"K  c #4AFC5FE84933",
"L  c #4BFA60D44A32",
"P  c #412D746C41DF",
"I  c #41A575A14268",
"U  c #4256776A4333",
"Y  c #42CC789943BB",
"T  c #44567C944580",
"R  c #45397EDF4685",
"E  c #45567F2646A7",
"W  c #589D604755DF",
"Q  c #53E46F0B52C2",
"!  c #5C91654C59F8",
"~  c #551E71075410",
"^  c #56E5734955EA",
"/  c #58137534572D",
"(  c #666271CB6427",
")  c #6C0478F569FE",
"_  c #47D385A24984",
"`  c #4826866F49E3",
"'  c #49DF8AE24BDE",
"]  c #4A488BF24C57",
"[  c #4A588C2D4C6B",
"{  c #4A938D214CB6",
"}  c #4AC88D3C4CEA",
"|  c #4AEA8D524D0B",
" . c #4B538E7F4D87",
".. c #4B638F6C4DA9",
"X. c #4BB48E974DE3",
"o. c #4BAD8F8B4DF1",
"O. c #4C388FD14E78",
"+. c #4BFD90864E51",
"@. c #4E8C96F5513E",
"#. c #4EE897E351A8",
"$. c #504B9B7A5340",
"%. c #50AE9C7853B2",
"&. c #51769E7C5498",
"*. c #51D19F685501",
"=. c #52D2A1FF5628",
"-. c #531DA2C1567E",
";. c #53D0A48F574C",
":. c #53FAA4FC577D",
">. c #55A7A951596B",
",. c #55E3A9EC59AF",
"<. c #56C7AC395AB5",
"1. c #56FBACC05AF1",
"2. c #575EADC75B63",
"3. c #5799AE6B5BA8",
"4. c #57C7AED05BDC",
"5. c #5807AF725C25",
"6. c #780987BA766A",
"7. c #78E788D77751",
"8. c #81EE94D380B9",
"9. c #84FF98B883E6",
"0. c #8A489F798962",
"q. c #8CDDA2BB8C0F",
"w. c #940FABDC9385",
"e. c #94E7ACEE9464",
"r. c #9A03B3D999B9",
"t. c #9B72B58F9B34",
"y. c #9C43B6C69C11",
"u. c #9D03B7229CCA",
"i. c #9DD8B8AC9DB2",
"p. c #9F79BA529F5A",
"a. c #A606C2B9A627",
"s. c #AABFC8BAAB0C",
"d. c #ADE4CCB8AE4E",
"f. c #B181D151B20E",
"g. c #B23BD23EB2CF",
"h. c #B445D4D5B4EC",
"j. c #B90FDAEDB9E3",
"k. c #BC3BDEF6BD2E",
"l. c #BDD2E0F7BED4",
"z. c #BE3AE17FBF3F",
"x. c #BE99E1D0BF9E",
"c. c #BF7EE31BC090",
"v. c #BFDEE395C0F3",
/* pixels */
"% % % % % % % % % % % % % % % % % % % % % % % % % % % % % % ",
"% % % % % % % % % % % % % % % % % % % % % % % % % % % % % % ",
"% % % % % % % % % % @ o   . @ @ .   X @ % % % % % % % % % % ",
"% % % % % % % % % @ 3 h F k w e z G j 6 @ % % % % % % % % % ",
"% % % % % % % % @ 0 ( a.j.d.8.9.f.k.s.) q @ % % % % % % % % ",
"% % % % % % % % & W g.v.z.x.l.l.x.l.c.h.! * % % % % % % % % ",
"% % % % % % % $ 7 0.v.l.l.l.z.z.l.l.l.v.q.9 $ % % % % % % % ",
"% % % % % % % @ q w.c.l.l.l.l.l.l.l.l.c.e.q @ % % % % % % % ",
"% % % % $ & : 1 4 7.z.l.l.l.l.l.l.l.z.l.6.4 1 : & $ % % % % ",
"% % % $ < l T _ D K y.x.l.l.l.l.l.z.z.r.H D _ T l < $ % % % ",
"% % $ = m -.5.5.2.X./ i.z.l.l.l.l.z.t.~ | 2.5.5.-.M - $ % % ",
"% % + r @.5.2.2.2.2.O.^ p.z.l.l.z.u.Q X.2.2.2.2.5.#.t + % % ",
"% % O d >.3.2.2.2.2.2.+.^ i.x.x.t.Q ..2.2.2.2.2.2.,.f O % % ",
"% % + i &.4.2.2.2.2.2.2.O./ i.t.~ X.2.2.2.2.2.2.3.*.p O % % ",
"% % # 2 P 2.2.2.2.2.2.2.3.O.L J X.3.2.2.2.2.2.2.2.I 2 # % % ",
"% % # 5 U 2.2.2.2.2.2.2.3.{ b x [ 3.2.2.2.2.2.2.2.Y 8 # % % ",
"% % O a =.3.2.2.2.2.2.2.} A  .[ V [ 2.2.2.2.2.2.3.-.s O % % ",
"% % O g <.2.2.2.2.2.2. .C  .3.3.[ N } 2.2.2.2.2.2.1.g O % % ",
"% % + y $.5.2.2.2.2.} C o.2.2.2.2.} N [ 2.2.2.2.5.%.u + % % ",
"% % $ ; B ;.5.5.2.] Z  .2.2.2.2.2.2.[ V ' 2.5.5.:.V : $ % % ",
"% % % $ 1 c R ` D n } 3.2.2.2.2.2.2.2.' c S ` E v 2 $ % % % ",
"% % % % $ & , 1 > D 2.2.2.2.2.2.2.2.2.2.S : 1 , & $ % % % % ",
"% % % % % % % $ 1 _ 5.2.2.2.2.2.2.2.2.5.` 1 $ % % % % % % % ",
"% % % % % % % % : T 5.2.2.2.2.2.2.2.2.5.E , % % % % % % % % ",
"% % % % % % % % & l -.5.2.3.2.2.3.2.5.:.v & % % % % % % % % ",
"% % % % % % % % $ < M #.,.*.I Y -.1.%.V 2 $ % % % % % % % % ",
"% % % % % % % % % $ - t f p 2 8 s g u : $ % % % % % % % % % ",
"% % % % % % % % % % $ + O O # # O O + $ % % % % % % % % % % ",
"% % % % % % % % % % % % % % % % % % % % % % % % % % % % % % ",
"% % % % % % % % % % % % % % % % % % % % % % % % % % % % % % "
};
