/* XPM */
static char * Minimize_pressed_xpm[] = {
"30 30 129 2",
"  	c None",
". 	c #1B1216",
"+ 	c #1A1115",
"@ 	c #1A0F15",
"# 	c #1A0F14",
"$ 	c #1A1015",
"% 	c #1D1819",
"& 	c #262E22",
"* 	c #2A3927",
"= 	c #273324",
"- 	c #1F1E1B",
"; 	c #201F1C",
"> 	c #283525",
", 	c #2B3B28",
"' 	c #273123",
") 	c #1E1A19",
"! 	c #1E1B1A",
"~ 	c #375B36",
"{ 	c #4E9751",
"] 	c #55A959",
"^ 	c #519F55",
"/ 	c #417542",
"( 	c #427843",
"_ 	c #53A256",
": 	c #56AC5A",
"< 	c #509C53",
"[ 	c #396039",
"} 	c #324D30",
"| 	c #58AF5C",
"1 	c #57AD5B",
"2 	c #57AE5B",
"3 	c #53A457",
"4 	c #335132",
"5 	c #447C45",
"6 	c #457F46",
"7 	c #1F1D1B",
"8 	c #478549",
"9 	c #488649",
"0 	c #1E1A1A",
"a 	c #3D6A3D",
"b 	c #3D693D",
"c 	c #335031",
"d 	c #457E46",
"e 	c #345232",
"f 	c #4A8D4C",
"g 	c #498A4B",
"h 	c #1E1919",
"i 	c #395F38",
"j 	c #4A8B4C",
"k 	c #3A633A",
"l 	c #4B8E4D",
"m 	c #4A8C4C",
"n 	c #263023",
"o 	c #509B53",
"p 	c #3A6239",
"q 	c #4B8F4D",
"r 	c #385E38",
"s 	c #283425",
"t 	c #52A156",
"u 	c #201F1B",
"v 	c #427743",
"w 	c #335232",
"x 	c #325031",
"y 	c #417441",
"z 	c #4C8F4E",
"A 	c #4B604A",
"B 	c #4A5E48",
"C 	c #273224",
"D 	c #519E54",
"E 	c #587557",
"F 	c #9DB89D",
"G 	c #9BB59B",
"H 	c #557154",
"I 	c #4B904E",
"J 	c #567355",
"K 	c #BEE1BF",
"L 	c #536F52",
"M 	c #252E22",
"N 	c #4E9651",
"O 	c #9FBA9F",
"P 	c #BDE0BE",
"Q 	c #9DB79C",
"R 	c #1D1818",
"S 	c #375A36",
"T 	c #4A8D4D",
"U 	c #4A5F49",
"V 	c #9CB69C",
"W 	c #9AB399",
"X 	c #495D47",
"Y 	c #211C1C",
"Z 	c #788877",
"` 	c #788776",
" .	c #262022",
"..	c #94AB93",
"+.	c #BFE3C0",
"@.	c #94AC94",
"#.	c #231D1E",
"$.	c #8A9F89",
"%.	c #8CA28C",
"&.	c #241D1F",
"*.	c #586055",
"=.	c #B2D2B2",
"-.	c #B4D4B4",
";.	c #5C6559",
">.	c #1B1316",
",.	c #251E20",
"'.	c #667164",
").	c #A6C2A6",
"!.	c #B9DAB9",
"~.	c #ADCCAE",
"{.	c #819480",
"].	c #849883",
"^.	c #B1D1B2",
"/.	c #BCDEBD",
"(.	c #AAC8AB",
"_.	c #6C7869",
":.	c #211A1C",
"<.	c #383734",
"[.	c #434540",
"}.	c #3D3D39",
"|.	c #272122",
"1.	c #282324",
"2.	c #3F403B",
"3.	c #454842",
"4.	c #3B3A37",
"5.	c #231C1E",
"6.	c #180F13",
"7.	c #180E12",
"8.	c #180E13",
". . . . . . . . . . . . . . . . . . . . . . . . . . . . . . ",
". . . . . . . . . . . . . . . . . . . . . . . . . . . . . . ",
". . . . . . . . . . + @ # # $ $ # # @ + . . . . . . . . . . ",
". . . . . . . . . + % & * = - ; > , ' ) + . . . . . . . . . ",
". . . . . . . . + ! ~ { ] ^ / ( _ : < [ - + . . . . . . . . ",
". . . . . . . . . } _ | 1 2 1 1 2 1 | 3 4 . . . . . . . . . ",
". . . . . . . . ) 5 | 1 1 1 1 1 1 1 1 | 6 ! . . . . . . . . ",
". . . . . . . + 7 8 | 1 1 1 1 1 1 1 1 | 9 7 + . . . . . . . ",
". . . . + . ! 7 0 a 1 1 1 1 1 1 1 1 1 1 b ) 7 ! . + . . . . ",
". . . + 7 c d 9 a e f 2 1 1 1 1 1 1 1 g c b 9 6 4 - + . . . ",
". . + h i 3 | | 1 j k l 1 1 1 1 1 1 m [ g 1 | | 3 [ ) + . . ",
". . @ n o | 1 1 1 1 f p q 1 1 1 1 f r m 1 1 1 1 | < ' @ . . ",
". . # , : 1 1 1 1 1 1 l p l 2 2 m r f 1 1 1 1 1 1 : , # . . ",
". . # s t 2 1 1 1 1 1 1 f k l m [ m 1 1 1 1 1 1 2 _ > # . . ",
". . $ u v 1 1 1 1 1 1 1 2 f w x m 2 1 1 1 1 1 1 1 ( ; $ . . ",
". . $ - y 1 1 1 1 1 1 1 2 z A B l 2 1 1 1 1 1 1 1 / - $ . . ",
". . @ C D 2 1 1 1 1 1 1 z E F G H l 1 1 1 1 1 1 2 ^ = # . . ",
". . # * ] 2 1 1 1 1 1 I J F K K G L q 1 1 1 1 1 1 ] * # . . ",
". . @ M N | 1 1 1 1 z J O K P P K Q L l 1 1 1 1 | { & @ . . ",
". . + R S _ | | 1 l E F K P P P P K G H T 1 | | _ ~ % + . . ",
". . . + ! } 5 8 a U V K P P P P P K K W X a 8 5 } ! + . . . ",
". . . . + . ) 7 Y Z K P P P P P P P K P ` Y 7 ) . + . . . . ",
". . . . . . . $  ...+.P P P P P P P P +.@. .$ . . . . . . . ",
". . . . . . . + #.$.+.P P P K K P P P +.%.&.+ . . . . . . . ",
". . . . . . . . . *.=.+.K K P P K P +.-.;.>.. . . . . . . . ",
". . . . . . . . $ ,.'.).!.~.{.].^./.(._. .$ . . . . . . . . ",
". . . . . . . . . $ :.<.[.}.|.1.2.3.4.5.$ . . . . . . . . . ",
". . . . . . . . . . $ 6.7.8.$ $ 8.7.8.$ . . . . . . . . . . ",
". . . . . . . . . . . . . . . . . . . . . . . . . . . . . . ",
". . . . . . . . . . . . . . . . . . . . . . . . . . . . . . "};
