/* XPM */
static char * Stuck_xpm[] = {
"30 30 131 2",
"  	c None",
". 	c #1B1216",
"+ 	c #1A1115",
"@ 	c #1A0F15",
"# 	c #1A0F14",
"$ 	c #1A1015",
"% 	c #1E1919",
"& 	c #263023",
"* 	c #2B3B28",
"= 	c #283425",
"- 	c #201F1B",
"; 	c #1F1E1B",
"> 	c #273224",
", 	c #2A3927",
"' 	c #252E22",
") 	c #1D1818",
"! 	c #1F1D1B",
"~ 	c #395F38",
"{ 	c #509B53",
"] 	c #56AC5A",
"^ 	c #52A156",
"/ 	c #427743",
"( 	c #417441",
"_ 	c #519E54",
": 	c #55A959",
"< 	c #4E9651",
"[ 	c #375A36",
"} 	c #1E1B1A",
"| 	c #335031",
"1 	c #53A457",
"2 	c #58AF5C",
"3 	c #57AD5B",
"4 	c #57AE5B",
"5 	c #53A256",
"6 	c #324D30",
"7 	c #457E46",
"8 	c #447C45",
"9 	c #1E1A19",
"0 	c #488649",
"a 	c #478549",
"b 	c #1E1A1A",
"c 	c #3D6A3D",
"d 	c #3C6B3E",
"e 	c #221818",
"f 	c #291818",
"g 	c #251617",
"h 	c #345232",
"i 	c #4A8B4C",
"j 	c #4B8D4D",
"k 	c #50452B",
"l 	c #884128",
"m 	c #A84F2D",
"n 	c #9C4B2C",
"o 	c #623122",
"p 	c #261718",
"q 	c #1D1819",
"r 	c #375B36",
"s 	c #4A8D4C",
"t 	c #3A633A",
"u 	c #4C8F4D",
"v 	c #5F5331",
"w 	c #B1552F",
"x 	c #D96536",
"y 	c #DB6636",
"z 	c #CB5F33",
"A 	c #723824",
"B 	c #221517",
"C 	c #262E22",
"D 	c #4E9751",
"E 	c #4B8E4D",
"F 	c #3A6239",
"G 	c #4B904E",
"H 	c #5E5231",
"I 	c #B35530",
"J 	c #D86536",
"K 	c #BD5931",
"L 	c #3D211B",
"M 	c #181015",
"N 	c #4B8F4E",
"O 	c #B55530",
"P 	c #D36335",
"Q 	c #4A261E",
"R 	c #171015",
"S 	c #273324",
"T 	c #519F55",
"U 	c #4C8E4D",
"V 	c #DA6536",
"W 	c #C65D33",
"X 	c #42231C",
"Y 	c #417542",
"Z 	c #335333",
"` 	c #51452B",
" .	c #93462A",
"..	c #201F1C",
"+.	c #427843",
"@.	c #4A8C4C",
"#.	c #325132",
"$.	c #4F432B",
"%.	c #B0542F",
"&.	c #96482A",
"*.	c #2B1918",
"=.	c #283525",
"-.	c #396039",
";.	c #5C5130",
">.	c #CA5F33",
",.	c #45241D",
"'.	c #385E38",
").	c #5A4F30",
"!.	c #B2542F",
"~.	c #D76435",
"{.	c #4C271E",
"].	c #273123",
"^.	c #509C53",
"/.	c #C25B32",
"(.	c #40221C",
"_.	c #498A4B",
":.	c #AF532F",
"<.	c #CD6034",
"[.	c #793B26",
"}.	c #241617",
"|.	c #335132",
"1.	c #457F46",
"2.	c #3D693D",
"3.	c #4B8C4C",
"4.	c #4E432B",
"5.	c #874028",
"6.	c #A9502E",
"7.	c #9F4C2C",
"8.	c #673323",
"9.	c #3C6B3D",
"0.	c #261617",
". . . . . . . . . . . . . . . . . . . . . . . . . . . . . . ",
". . . . . . . . . . . . . . . . . . . . . . . . . . . . . . ",
". . . . . . . . . . + @ # # $ $ @ # @ + . . . . . . . . . . ",
". . . . . . . . . + % & * = - ; > , ' ) + . . . . . . . . . ",
". . . . . . . . + ! ~ { ] ^ / ( _ : < [ } + . . . . . . . . ",
". . . . . . . . . | 1 2 3 4 3 3 4 4 2 5 6 . . . . . . . . . ",
". . . . . . . . } 7 2 3 3 3 3 3 3 3 3 2 8 9 . . . . . . . . ",
". . . . . . . + ! 0 2 3 3 3 3 3 3 3 3 2 a ! + . . . . . . . ",
". . . . + . 9 ! b c 3 3 3 3 3 3 3 3 3 3 d e f g . + . . . . ",
". . . + } 6 8 a c h i 3 3 3 3 3 3 3 4 j k l m n o p + . . . ",
". . + q r 5 2 2 3 s t s 3 3 3 3 3 4 u v w x y y z A B + . . ",
". . @ C D 2 3 3 3 4 E F E 3 3 3 4 G H I x J J J y K L M . . ",
". . # , : 3 3 3 3 3 3 N F s 4 4 u H O x J J J J x P Q R . . ",
". . # S T 4 3 3 3 3 3 3 E t s U v I x J J J J J V W X M . . ",
". . $ ; Y 3 3 3 3 3 3 3 4 E Z ` I x J J J J J J J  .f + . . ",
". . $ ..+.3 3 3 3 3 3 3 4 @.#.$.%.x J J J J J J J &.*.+ . . ",
". . # =.5 4 3 3 3 3 3 3 @.-.@.E ;.%.x J J J J J V >.,.M . . ",
". . # * ] 3 3 3 3 3 3 s '.@.4 4 E ).!.x J J J J J ~.{.R . . ",
". . @ ].^.2 3 3 3 3 @.'.s 3 3 3 4 N ).%.x J J J y /.(.M . . ",
". . + 9 -.1 2 2 3 _.-.@.3 3 3 3 3 4 E ;.:.J y y <.[.}.+ . . ",
". . . + ; |.1.0 2.| _.3 3 3 3 3 3 3 4 3.4.5.6.7.8.f + . . . ",
". . . . + . } ! 9 2.3 3 3 3 3 3 3 3 3 3 9.e f 0.. + . . . . ",
". . . . . . . + ! 0 2 3 3 3 3 3 3 3 3 2 a ! + . . . . . . . ",
". . . . . . . . } 1.2 3 3 3 3 3 3 3 3 2 8 9 . . . . . . . . ",
". . . . . . . . . |.1 2 3 4 3 3 4 3 2 5 6 . . . . . . . . . ",
". . . . . . . . + ; -.^.] 5 +.Y T : D r } + . . . . . . . . ",
". . . . . . . . . + 9 ].* =...; S , C q + . . . . . . . . . ",
". . . . . . . . . . + @ # # $ $ # # @ + . . . . . . . . . . ",
". . . . . . . . . . . . . . . . . . . . . . . . . . . . . . ",
". . . . . . . . . . . . . . . . . . . . . . . . . . . . . . "};
