/* XPM */
static char * Shade_pressed_xpm[] = {
"30 30 129 2",
"  	c None",
". 	c #1B1216",
"+ 	c #1A1115",
"@ 	c #1A0F15",
"# 	c #1A0F14",
"$ 	c #1A1015",
"% 	c #1D1818",
"& 	c #252E22",
"* 	c #2A3927",
"= 	c #273224",
"- 	c #1F1E1B",
"; 	c #201F1B",
"> 	c #283425",
", 	c #2B3B28",
"' 	c #263023",
") 	c #1E1919",
"! 	c #1E1B1A",
"~ 	c #375A36",
"{ 	c #4E9651",
"] 	c #55A959",
"^ 	c #519E54",
"/ 	c #417441",
"( 	c #427743",
"_ 	c #52A156",
": 	c #56AC5A",
"< 	c #509B53",
"[ 	c #395F38",
"} 	c #1F1D1B",
"| 	c #324D30",
"1 	c #53A256",
"2 	c #58AF5C",
"3 	c #57AE5B",
"4 	c #57AD5B",
"5 	c #53A457",
"6 	c #335031",
"7 	c #1E1A19",
"8 	c #447C45",
"9 	c #457E46",
"0 	c #478549",
"a 	c #488649",
"b 	c #231D1E",
"c 	c #262022",
"d 	c #211C1C",
"e 	c #3D6A3D",
"f 	c #1E1A1A",
"g 	c #251E20",
"h 	c #586055",
"i 	c #8A9F89",
"j 	c #94AB93",
"k 	c #788877",
"l 	c #4A5F49",
"m 	c #4B8E4D",
"n 	c #4A8B4C",
"o 	c #345232",
"p 	c #211A1C",
"q 	c #667164",
"r 	c #B2D2B2",
"s 	c #BFE3C0",
"t 	c #BEE1BF",
"u 	c #9CB69C",
"v 	c #587557",
"w 	c #4C8F4E",
"x 	c #4A8D4C",
"y 	c #3A633A",
"z 	c #375B36",
"A 	c #1D1819",
"B 	c #180F13",
"C 	c #383734",
"D 	c #A6C2A6",
"E 	c #BDE0BE",
"F 	c #9DB89D",
"G 	c #567355",
"H 	c #4B904E",
"I 	c #3A6239",
"J 	c #4E9751",
"K 	c #262E22",
"L 	c #180E12",
"M 	c #434540",
"N 	c #B9DAB9",
"O 	c #9FBA9F",
"P 	c #4B8F4D",
"Q 	c #180E13",
"R 	c #3D3D39",
"S 	c #ADCCAE",
"T 	c #519F55",
"U 	c #273324",
"V 	c #272122",
"W 	c #819480",
"X 	c #4B604A",
"Y 	c #335232",
"Z 	c #417542",
"` 	c #282324",
" .	c #849883",
"..	c #9BB59B",
"+.	c #4A5E48",
"@.	c #325031",
"#.	c #4A8C4C",
"$.	c #427843",
"%.	c #201F1C",
"&.	c #3F403B",
"*.	c #B1D1B2",
"=.	c #557154",
"-.	c #396039",
";.	c #283525",
">.	c #454842",
",.	c #BCDEBD",
"'.	c #9DB79C",
").	c #536F52",
"!.	c #385E38",
"~.	c #3B3A37",
"{.	c #AAC8AB",
"].	c #509C53",
"^.	c #273123",
"/.	c #231C1E",
"(.	c #6C7869",
"_.	c #B4D4B4",
":.	c #9AB399",
"<.	c #498A4B",
"[.	c #5C6559",
"}.	c #8CA28C",
"|.	c #94AC94",
"1.	c #788776",
"2.	c #495D47",
"3.	c #4A8D4D",
"4.	c #3D693D",
"5.	c #457F46",
"6.	c #335132",
"7.	c #1B1316",
"8.	c #241D1F",
". . . . . . . . . . . . . . . . . . . . . . . . . . . . . . ",
". . . . . . . . . . . . . . . . . . . . . . . . . . . . . . ",
". . . . . . . . . . + @ # @ $ $ # # @ + . . . . . . . . . . ",
". . . . . . . . . + % & * = - ; > , ' ) + . . . . . . . . . ",
". . . . . . . . + ! ~ { ] ^ / ( _ : < [ } + . . . . . . . . ",
". . . . . . . . . | 1 2 3 3 4 4 3 4 2 5 6 . . . . . . . . . ",
". . . . . . . . 7 8 2 4 4 4 4 4 4 4 4 2 9 ! . . . . . . . . ",
". . . . . . + $ } 0 2 4 4 4 4 4 4 4 4 2 a } + . . . . . . . ",
". . . . $ . b c d e 4 4 4 4 4 4 4 4 4 4 e f } 7 . + . . . . ",
". . . $ g h i j k l m 4 4 4 4 4 4 4 4 n o e 0 8 | ! + . . . ",
". . $ p q r s s t u v w 4 4 4 4 4 4 x y x 4 2 2 1 z A + . . ",
". . B C D s E E E t F G H 4 4 4 4 m I m 3 4 4 4 2 J K @ . . ",
". . L M N t E E E E t O G w 3 3 x I P 4 4 4 4 4 4 ] * # . . ",
". . Q R S t E E E E E t F v w x y m 4 4 4 4 4 4 3 T U # . . ",
". . $ V W E t E E E E E t F X Y m 3 4 4 4 4 4 4 4 Z - $ . . ",
". . $ `  .E t E E E E E t ..+.@.#.3 4 4 4 4 4 4 4 $.%.$ . . ",
". . Q &.*.t E E E E E t ..=.m #.-.#.4 4 4 4 4 4 3 1 ;.# . . ",
". . L >.,.E E E E t t '.).m 3 3 #.!.x 4 4 4 4 4 4 : , # . . ",
". . Q ~.{.s E E t t ..).P 4 4 4 4 x !.#.4 4 4 4 2 ].^.@ . . ",
". . $ /.(._.s s E :.=.m 4 4 4 4 4 4 #.-.<.4 2 2 5 -.7 + . . ",
". . . $ c [.}.|.1.2.3.4 4 4 4 4 4 4 4 <.6 4.a 5.6.- + . . . ",
". . . . $ 7.8.c d e 4 4 4 4 4 4 4 4 4 4 4.7 } ! . + . . . . ",
". . . . . . + $ } 0 2 4 4 4 4 4 4 4 4 2 a } + . . . . . . . ",
". . . . . . . . 7 8 2 4 4 4 4 4 4 4 4 2 5.! . . . . . . . . ",
". . . . . . . . . | 1 2 4 3 4 4 3 4 2 5 6.. . . . . . . . . ",
". . . . . . . . + ! z J ] T Z $.1 : ].-.- + . . . . . . . . ",
". . . . . . . . . + A K * U - %.;., ^.7 + . . . . . . . . . ",
". . . . . . . . . . + @ # # $ $ # # @ + . . . . . . . . . . ",
". . . . . . . . . . . . . . . . . . . . . . . . . . . . . . ",
". . . . . . . . . . . . . . . . . . . . . . . . . . . . . . "};
