/* XPM */
static char * Shade_xpm[] = {
"30 30 129 2",
"  	c None",
". 	c #1B1216",
"+ 	c #1A1115",
"@ 	c #1A0F15",
"# 	c #1A0F14",
"$ 	c #1A1015",
"% 	c #1D1818",
"& 	c #252E22",
"* 	c #2A3927",
"= 	c #273224",
"- 	c #1F1E1B",
"; 	c #201F1B",
"> 	c #283425",
", 	c #2B3B28",
"' 	c #263023",
") 	c #1E1919",
"! 	c #1E1B1A",
"~ 	c #375A36",
"{ 	c #4E9651",
"] 	c #55A959",
"^ 	c #519E54",
"/ 	c #417441",
"( 	c #427743",
"_ 	c #52A156",
": 	c #56AC5A",
"< 	c #509B53",
"[ 	c #395F38",
"} 	c #1F1D1B",
"| 	c #324D30",
"1 	c #53A256",
"2 	c #58AF5C",
"3 	c #57AE5B",
"4 	c #57AD5B",
"5 	c #53A457",
"6 	c #335031",
"7 	c #1E1A19",
"8 	c #447C45",
"9 	c #457E46",
"0 	c #478549",
"a 	c #488649",
"b 	c #211B1D",
"c 	c #241F1F",
"d 	c #201B1B",
"e 	c #3D6B3D",
"f 	c #3D6A3D",
"g 	c #1E1A1A",
"h 	c #221D1E",
"i 	c #4B5948",
"j 	c #729372",
"k 	c #7A9E7A",
"l 	c #647E63",
"m 	c #435C41",
"n 	c #4B8E4D",
"o 	c #4A8B4C",
"p 	c #345232",
"q 	c #20191B",
"r 	c #566954",
"s 	c #91C192",
"t 	c #9CD19E",
"u 	c #9BD09E",
"v 	c #9BCF9D",
"w 	c #80A880",
"x 	c #4E704D",
"y 	c #4C8F4E",
"z 	c #4A8D4D",
"A 	c #3A633A",
"B 	c #4A8D4C",
"C 	c #375B36",
"D 	c #1D1819",
"E 	c #190F14",
"F 	c #32342E",
"G 	c #87B388",
"H 	c #9ACE9C",
"I 	c #81AA82",
"J 	c #4D6E4C",
"K 	c #4C904E",
"L 	c #3A6239",
"M 	c #4E9751",
"N 	c #262E22",
"O 	c #180E13",
"P 	c #3B4137",
"Q 	c #96C998",
"R 	c #82AB83",
"S 	c #4B8F4D",
"T 	c #353932",
"U 	c #8EBC8F",
"V 	c #519F55",
"W 	c #273324",
"X 	c #242020",
"Y 	c #6B896B",
"Z 	c #445C42",
"` 	c #335232",
" .	c #417542",
"..	c #252221",
"+.	c #6E8C6D",
"@.	c #7FA780",
"#.	c #425A41",
"$.	c #4A8C4C",
"%.	c #427843",
"&.	c #201F1C",
"*.	c #373C34",
"=.	c #91C092",
"-.	c #4C6C4B",
";.	c #396039",
">.	c #283525",
",.	c #3C4339",
"'.	c #99CD9B",
").	c #80A881",
"!.	c #4B6A4A",
"~.	c #385E38",
"{.	c #343730",
"].	c #8BB88C",
"^.	c #9CD09E",
"/.	c #509C53",
"(.	c #273123",
"_.	c #211B1C",
":.	c #5A6F59",
"<.	c #93C394",
"[.	c #7EA57F",
"}.	c #498A4B",
"|.	c #4E5E4C",
"1.	c #749674",
"2.	c #7A9F7A",
"3.	c #637D62",
"4.	c #415940",
"5.	c #3D693D",
"6.	c #457F46",
"7.	c #335132",
"8.	c #221C1D",
". . . . . . . . . . . . . . . . . . . . . . . . . . . . . . ",
". . . . . . . . . . . . . . . . . . . . . . . . . . . . . . ",
". . . . . . . . . . + @ # @ $ $ # # @ + . . . . . . . . . . ",
". . . . . . . . . + % & * = - ; > , ' ) + . . . . . . . . . ",
". . . . . . . . + ! ~ { ] ^ / ( _ : < [ } + . . . . . . . . ",
". . . . . . . . . | 1 2 3 3 4 4 3 4 2 5 6 . . . . . . . . . ",
". . . . . . . . 7 8 2 4 4 4 4 4 4 4 4 2 9 ! . . . . . . . . ",
". . . . . . + + } 0 2 4 4 4 4 4 4 4 4 2 a } + . . . . . . . ",
". . . . + . b c d e 4 4 4 4 4 4 4 4 4 4 f g } 7 . + . . . . ",
". . . + h i j k l m n 4 4 4 4 4 4 4 4 o p e 0 8 | ! + . . . ",
". . + q r s t u v w x y 4 4 4 4 4 4 z A B 4 2 2 1 C D + . . ",
". . E F G t H H H v I J K 4 4 4 4 n L n 3 4 4 4 2 M N @ . . ",
". . O P Q v H H H H v R J y 3 3 z L S 4 4 4 4 4 4 ] * # . . ",
". . E T U v H H H H H v I x y B A n 4 4 4 4 4 4 3 V W # . . ",
". . + X Y H v H H H H H v I Z ` n 3 4 4 4 4 4 4 4  .- $ . . ",
". . + ..+.H v H H H H H v @.#.6 $.3 4 4 4 4 4 4 4 %.&.$ . . ",
". . E *.=.v H H H H H v @.-.n $.;.$.4 4 4 4 4 4 3 1 >.# . . ",
". . O ,.'.H H H H v v ).!.n 3 3 $.~.B 4 4 4 4 4 4 : , # . . ",
". . E {.].^.H H v v @.!.S 4 4 4 4 B ~.$.4 4 4 4 2 /.(.@ . . ",
". . + _.:.<.t u H [.-.n 4 4 4 4 4 4 $.;.}.4 2 2 5 ;.7 + . . ",
". . . + c |.1.2.3.4.z 4 4 4 4 4 4 4 4 }.6 5.a 6.7.- + . . . ",
". . . . + . 8.c d f 4 4 4 4 4 4 4 4 4 4 5.7 } ! . + . . . . ",
". . . . . . + + } 0 2 4 4 4 4 4 4 4 4 2 a } + . . . . . . . ",
". . . . . . . . 7 8 2 4 4 4 4 4 4 4 4 2 6.! . . . . . . . . ",
". . . . . . . . . | 1 2 4 3 4 4 3 4 2 5 7.. . . . . . . . . ",
". . . . . . . . + ! C M ] V  .%.1 : /.;.- + . . . . . . . . ",
". . . . . . . . . + D N * W - &.>., (.7 + . . . . . . . . . ",
". . . . . . . . . . + @ # # $ $ # # @ + . . . . . . . . . . ",
". . . . . . . . . . . . . . . . . . . . . . . . . . . . . . ",
". . . . . . . . . . . . . . . . . . . . . . . . . . . . . . "};
