/* XPM */
static char * maximize_xpm[] = {
"44 44 3 1",
" 	c None",
".	c #2D2D2D",
"+	c #9B3948",
"....++++++++++++++++++++++++++++++++++++++++",
"....++++++++++++++++++++++++++++++++++++++++",
"....++++++++++++++++++++++++++++++++++++++++",
"....++++++++++++++++++++++++++++++++++++++++",
"....++++++++++++++++++++++++++++++++++++++++",
"....++++++++++++++++++++++++++++++++++++++++",
"....++++++++++++++++++++++++++++++++++++++++",
"....++++++++++++++++++++++++++++++++++++++++",
"....++++++++++++++++++++++++++++++++++++++++",
"....++++++++++++++++++++++++++++++++++++++++",
"....++++++++++++++++++++++++++++++++++++++++",
"....++++++++++++++++++++++++++++++++++++++++",
"....++++++++++++++++++++++++++++++++++++++++",
"....++++++++++++++++++++++++++++++++++++++++",
"....++++++++++++++++++++++++++++++++++++++++",
"....++++++++++++++++++++++++++++++++++++++++",
"....++++++++++++++++++++++++++++++++++++++++",
"....++++++++++++++++++++++++++++++++++++++++",
"....++++++++++++++++++++++++++++++++++++++++",
"....++++++++++++++++++++++++++++++++++++++++",
"....++++++++++++++++++++++++++++++++++++++++",
"....++++++++++++++++++++++++++++++++++++++++",
"....++++++++++++++++++++++++++++++++++++++++",
"....++++++++++++++++++++++++++++++++++++++++",
"....++++++++++++++++++++++++++++++++++++++++",
"....++++++++++++++++++++++++++++++++++++++++",
"............................................",
"............................................",
"............................................",
"............................................",
"............................................",
"............................................",
"............................................",
"............................................",
"............................................",
"............................................",
"............................................",
"............................................",
"............................................",
"............................................",
"............................................",
"............................................",
"............................................",
"............................................"};
