/* XPM */
static char * Close_xpm[] = {
"30 30 16 1",
" 	c None",
".	c #D63679",
"+	c #D53679",
"@	c #0F1013",
"#	c #751F42",
"$	c #AE2C62",
"%	c #972756",
"&	c #31131F",
"*	c #BB2F69",
"=	c #771F43",
"-	c #151014",
";	c #CB3373",
">	c #AB2B60",
",	c #6B1C3C",
"'	c #CC3373",
")	c #8C244F",
"..............................",
"..............................",
"..............................",
"..............................",
"..............................",
"..............................",
"..............................",
"..............................",
"..............................",
"..............................",
"..............................",
"..............................",
".........+++++++++++..........",
"@@@@@#$+++++++++++++++$#@@@@@@",
"@@@@@@@%+++++++++++++%@@@@@@@@",
"@@@@@@@@$+++++++++++$@@@@@@@@@",
"@@@@@@@@#+++++++++++#@@@@@@@@@",
"@@@@@@@@&+++++++++++&@@@@@@@@@",
"@@@@@@@@&+++++++++++&@@@@@@@@@",
"@@@@@@@@@+..*=-=*..+@@@@@@@@@@",
"@@@@@@@@@+..=@@@=..+@@@@@@@@@@",
"@@@@@@@@@...-@@@-...@@@@@@@@@@",
"@@@@@@@@@;..=@@@=..;@@@@@@@@@@",
"@@@@@@@@@>..*=-=*..>@@@@@@@@@@",
"@@@@@@@@@,'.......',@@@@@@@@@@",
"@@@@@@@@@@)'.....')@@@@@@@@@@@",
"@@@@@@@@@@@,>;.;>,@@@@@@@@@@@@",
"@@@@@@@@@@@@@@@@@@@@@@@@@@@@@@",
"@@@@@@@@@@@@@@@@@@@@@@@@@@@@@@",
"@@@@@@@@@@@@@@@@@@@@@@@@@@@@@@"};
