/* XPM */
static char * Maximize_xpm[] = {
"30 30 12 1",
" 	c None",
".	c #D63679",
"+	c #0F1013",
"@	c #3C3144",
"#	c #624F6C",
"$	c #745F81",
"%	c #7B6488",
"&	c #504159",
"*	c #755F81",
"=	c #6B5776",
"-	c #44374C",
";	c #111115",
"..............................",
"..............................",
"..............................",
"..............................",
"..............................",
"..............................",
"..............................",
"..............................",
"..............................",
"..............................",
"..............................",
"..............................",
"..............................",
"++++++++++++++++++++++++++++++",
"++++++++++++++++++++++++++++++",
"++++++++++++++++++++++++++++++",
"+++++++++++@#$%$#@++++++++++++",
"++++++++++&*%%%%%*&+++++++++++",
"+++++++++@*%%%%%%%*@++++++++++",
"+++++++++#%%=-;-=%%#++++++++++",
"+++++++++$%%-+++-%%$++++++++++",
"+++++++++%%%;+++;%%%++++++++++",
"+++++++++$%%-+++-%%$++++++++++",
"+++++++++#%%=-;-=%%#++++++++++",
"+++++++++@*%%%%%%%*@++++++++++",
"++++++++++&*%%%%%*&+++++++++++",
"+++++++++++@#$%$#@++++++++++++",
"++++++++++++++++++++++++++++++",
"++++++++++++++++++++++++++++++",
"++++++++++++++++++++++++++++++"};
