<svg xmlns="http://www.w3.org/2000/svg" xmlns:xlink="http://www.w3.org/1999/xlink" width="48" height="48">
  <defs id="acyl-settings">
    <linearGradient x1="0%" y1="0%" x2="0%" y2="100%" id="acyl-gradient">
      <stop offset="0%" style="stop-color:#636EAE;stop-opacity:1.000000"/>
      <stop offset="50%" style="stop-color:#829C7F;stop-opacity:1.000000"/>
      <stop offset="100%" style="stop-color:#D73E7F;stop-opacity:1.000000"/>
    </linearGradient>
    <g id="acyl-filter">
  </g>
    <g id="acyl-drawing">
      <path d="M 2 4 L 2 11 L 16 11 L 16 4 L 2 4 z M 20 4 L 20 11 L 36 11 L 36 4 L 20 4 z M 40 4 L 40 11 L 46 11 L 46 4 L 40 4 z M 2 15 L 2 22 L 8 22 L 8 15 L 2 15 z M 12 15 L 12 22 L 28 22 L 28 15 L 12 15 z M 32 15 L 32 22 L 46 22 L 46 15 L 32 15 z M 2 26 L 2 33 L 16 33 L 16 26 L 2 26 z M 20 26 L 20 33 L 36 33 L 36 26 L 20 26 z M 40 26 L 40 33 L 46 33 L 46 26 L 40 26 z M 2 37 L 2 44 L 8 44 L 8 37 L 2 37 z M 12 37 L 12 44 L 28 44 L 28 37 L 12 37 z M 32 37 L 32 44 L 46 44 L 46 37 L 32 37 z " id="path-main"/>
    </g>
  </defs>
  <g id="acyl-visual">
    <use id="visible1" transform="translate(24,24) scale(1.00) translate(-24,-24)" style="fill:rgb(0,0,0);fill-opacity:0.00;stroke:url(#acyl-gradient);stroke-width:1.00" xlink:href="#acyl-drawing"/>
  </g>
</svg>
