<svg xmlns="http://www.w3.org/2000/svg" xmlns:xlink="http://www.w3.org/1999/xlink" width="48" height="48">
  <defs id="acyl-settings">
    <linearGradient x1="0%" y1="0%" x2="0%" y2="100%" id="acyl-gradient">
      <stop offset="0%" style="stop-color:#636EAE;stop-opacity:1.000000"/>
      <stop offset="50%" style="stop-color:#829C7F;stop-opacity:1.000000"/>
      <stop offset="100%" style="stop-color:#D73E7F;stop-opacity:1.000000"/>
    </linearGradient>
    <g id="acyl-filter">
  </g>
    <g id="acyl-drawing">
      <path d="M 24 2 C 11.856 2 2 11.856002 2 24 C 2 36.143997 11.856 46 24 46 C 36.144001 46 46 36.143997 46 24 C 46 11.856002 36.144001 2 24 2 z M 24 3 L 24 14.71875 C 26.559764 14.71875 28.883814 15.758814 30.5625 17.4375 L 38.84375 9.15625 C 47.044761 17.35726 47.04476 30.642739 38.84375 38.84375 C 30.64274 47.044761 17.357261 47.04476 9.15625 38.84375 C 0.95523949 30.64274 0.95524021 17.357261 9.15625 9.15625 C 13.094513 5.2179871 18.430455 3.0000016 24 3 z M 24 16.03125 L 24 17.96875 C 25.666823 17.96875 27.188152 18.625652 28.28125 19.71875 L 29.65625 18.34375 C 28.211799 16.899299 26.202588 16.03125 24 16.03125 z " id="path-main"/>
    </g>
  </defs>
  <g id="acyl-visual">
    <use id="visible1" transform="translate(24,24) scale(1.00) translate(-24,-24)" style="fill:rgb(0,0,0);fill-opacity:0.00;stroke:url(#acyl-gradient);stroke-width:1.00" xlink:href="#acyl-drawing"/>
  </g>
</svg>
