/* XPM */
static char *Close[] = {
/* columns rows colors chars-per-pixel */
"30 30 81 1 ",
"  c #1A040F4114D5",
". c #1A350FC1150E",
"X c #1AA710E61590",
"o c #1ACE114A15BD",
"O c #1B1A120F1614",
"+ c #1B7012EF1678",
"@ c #1D82184718DA",
"# c #1DA3189D1900",
"$ c #1E1E19DA198D",
"% c #1E4A1A4A19BF",
"& c #1E831ADF1A01",
"* c #1EA11B2B1A23",
"= c #1EE61BDF1A73",
"- c #1F771D551B19",
"; c #1FB91E001B66",
": c #20391F4C1BF9",
"> c #206A1FC91C31",
", c #25F12E11228D",
"< c #262C2EA922D0",
"1 c #26F330AB23B5",
"2 c #2729313723F3",
"3 c #27B532A12494",
"4 c #27EB332A24D2",
"5 c #288934C52588",
"6 c #28B8353D25BE",
"7 c #2A493948278A",
"8 c #2B023B272860",
"9 c #32084D4B3073",
"0 c #335450A431F1",
"q c #339051413237",
"w c #342552BF32E1",
"e c #344D53293310",
"r c #3515552C33F5",
"t c #36FD5A1B3627",
"y c #375E5B133696",
"u c #38CD5ECA383D",
"i c #39135F7C388C",
"p c #397E60933908",
"a c #3A1B622739BC",
"s c #3AB963BF3A72",
"d c #3ACA63ED3A86",
"f c #3B6F65943B43",
"g c #3C0F67333BFC",
"h c #3D0F69C73D21",
"j c #3D536A773D70",
"k c #3D9C6B323DC3",
"l c #412F746F41E0",
"z c #41A575A14268",
"x c #4256776A4333",
"c c #42CB789943BA",
"v c #44517C88457B",
"b c #453A7EE14686",
"n c #45577F2C46A8",
"m c #47DB85AA498C",
"M c #4828867449E5",
"N c #49DE8AE04BDE",
"B c #4A488BF14C57",
"V c #4A5F8C2E4C72",
"C c #4AC88D3B4CEA",
"Z c #4ACF8D4F4CF3",
"A c #4B398E5F4D6B",
"S c #4BB08F944DF5",
"D c #4C17909D4E6B",
"F c #4E8A96EF513C",
"G c #4EE797DF51A6",
"H c #504E9B7E5343",
"J c #50AE9C7853B2",
"K c #51779E7F549A",
"L c #51D19F675501",
"P c #52CFA1F85625",
"I c #5319A2B8567B",
"U c #53D2A494574F",
"Y c #53FAA4FD577D",
"T c #55A8A952596B",
"R c #55E2A9E959AE",
"E c #56C6AC365AB4",
"W c #56FCACC15AF3",
"Q c #5761ADC75B67",
"! c #579EAE645BAD",
"~ c #57C8AED05BDD",
"^ c #5807AF735C26",
/* pixels */
"OOOOOOOOOOOOOOOOOOOOOOOOOOOOOO",
"OOOOOOOOOOOOOOOOOOOOOOOOOOOOOO",
"OOOOOOOOOOo. .XX  .oOOOOOOOOOO",
"OOOOOOOOOo@,73;:581$oOOOOOOOOO",
"OOOOOOOOo=tFTKlxPEHi-oOOOOOOOO",
"OOOOOOOO+9I^!~QQ!Q^U0+OOOOOOOO",
"OOOOOOOO%v^QQQQQQQQ^b*OOOOOOOO",
"OOOOOOOo-m^QQQQQQQQ^M-oOOOOOOO",
"OOOOo+%-&kQQQQQQQQQQj&-%+oOOOO",
"OOOo=9vmkrA!QQQQQQQBwjmv9=oOOO",
"OOo@tI^^QAgSQQQQQQZsCQ^^Iy#oOO",
"OO.,F^QQQ!SfDQQQQAaA!QQQ^G<.OO",
"OO 7T!QQQQQDfS!!ZaSQQQQQQR7 OO",
"OO.3K~QQQQQQSgSCdAQQQQQQ!L4 OO",
"OOX;lQQQQQQQ!SreA!QQQQQQQz;XOO",
"OOX:xQQQQQQQ!CeqV!QQQQQQQc>XOO",
"OO 5P!QQQQQQZdAVpVQQQQQQ!I6 OO",
"OO 8EQQQQQQAaA!!VuCQQQQQQW8 OO",
"OO.1H^QQQQZaSQQQQCuVQQQQ^J2.OO",
"OOo$iU^^QBsAQQQQQQVpNQ^^Yp%oOO",
"OOOo-0bMjwC!QQQQQQQN0hMnq;oOOO",
"OOOOo+*-&jQQQQQQQQQQh%-*+oOOOO",
"OOOOOOOo-m^QQQQQQQQ^M-oOOOOOOO",
"OOOOOOOO%v^QQQQQQQQ^n*OOOOOOOO",
"OOOOOOOO+9I^Q!QQ!Q^Yq+OOOOOOOO",
"OOOOOOOOo=yGRLzcIWJp;oOOOOOOOO",
"OOOOOOOOOo#<74;>682%oOOOOOOOOO",
"OOOOOOOOOOo.  XX  .oOOOOOOOOOO",
"OOOOOOOOOOOOOOOOOOOOOOOOOOOOOO",
"OOOOOOOOOOOOOOOOOOOOOOOOOOOOOO"
};
