/* XPM */
static char * Minimize_xpm[] = {
"30 30 135 2",
"  	c None",
". 	c #1B1216",
"+ 	c #1A1115",
"@ 	c #1A0F15",
"# 	c #1A0F14",
"$ 	c #1D1818",
"% 	c #262E22",
"& 	c #2A3927",
"* 	c #273324",
"= 	c #1F1D1B",
"- 	c #1F1C1A",
"; 	c #273023",
"> 	c #293726",
", 	c #252C21",
"' 	c #1D1718",
") 	c #1E1B1A",
"! 	c #375A36",
"~ 	c #4E9751",
"{ 	c #55A959",
"] 	c #519F54",
"^ 	c #417441",
"/ 	c #3F7040",
"( 	c #509B53",
"_ 	c #54A658",
": 	c #4D934F",
"< 	c #355534",
"[ 	c #1E1A19",
"} 	c #314C30",
"| 	c #53A256",
"1 	c #58AF5C",
"2 	c #57AD5B",
"3 	c #57AE5B",
"4 	c #57AC5B",
"5 	c #52A055",
"6 	c #30492E",
"7 	c #1E1919",
"8 	c #437B45",
"9 	c #427943",
"0 	c #1D1919",
"a 	c #478448",
"b 	c #468348",
"c 	c #3C683C",
"d 	c #3C693D",
"e 	c #334F31",
"f 	c #498A4B",
"g 	c #4A8D4C",
"h 	c #335232",
"i 	c #396039",
"j 	c #4A8C4C",
"k 	c #4B8E4D",
"l 	c #3A643A",
"m 	c #4A8B4C",
"n 	c #365936",
"o 	c #385F38",
"p 	c #4B8F4E",
"q 	c #3A6239",
"r 	c #4E9651",
"s 	c #252E22",
"t 	c #519E54",
"u 	c #273224",
"v 	c #335132",
"w 	c #335333",
"x 	c #4A8D4D",
"y 	c #407241",
"z 	c #445A2C",
"A 	c #465D2C",
"B 	c #4C8F4D",
"C 	c #3F6F3F",
"D 	c #4E6D32",
"E 	c #87A832",
"F 	c #88AB33",
"G 	c #517033",
"H 	c #4F9A52",
"I 	c #263023",
"J 	c #4D6B31",
"K 	c #A4D03A",
"L 	c #506F32",
"M 	c #4C904E",
"N 	c #54A557",
"O 	c #293626",
"P 	c #88A932",
"Q 	c #A3CF3A",
"R 	c #8AAC33",
"S 	c #4C924F",
"T 	c #242B21",
"U 	c #4B8D4C",
"V 	c #4E6C32",
"W 	c #345433",
"X 	c #43582B",
"Y 	c #85A632",
"Z 	c #87A933",
"` 	c #455B2C",
" .	c #427843",
"..	c #30482E",
"+.	c #201A18",
"@.	c #677C2A",
"#.	c #687D2A",
"$.	c #231E18",
"%.	c #7F9D30",
"&.	c #A5D13A",
"*.	c #7E9C30",
"=.	c #211B17",
"-.	c #77922E",
";.	c #A5D23A",
">.	c #758F2D",
",.	c #211A17",
"'.	c #4E5923",
").	c #99C137",
"!.	c #A2CE3A",
"~.	c #97BF37",
"{.	c #4A5422",
"].	c #231D18",
"^.	c #5A6926",
"/.	c #8FB334",
"(.	c #9FCA39",
"_.	c #96BD36",
":.	c #6F882C",
"<.	c #6D842B",
"[.	c #92B835",
"}.	c #9CC638",
"|.	c #8BAE33",
"1.	c #556325",
"2.	c #221B17",
"3.	c #201917",
"4.	c #33341C",
"5.	c #3D411F",
"6.	c #37391D",
"7.	c #251F18",
"8.	c #35371D",
"9.	c #3B3E1E",
"0.	c #31301B",
"a.	c #1F1717",
"b.	c #180F15",
"c.	c #180E15",
"d.	c #190F15",
". . . . . . . . . . . . . . . . . . . . . . . . . . . . . . ",
". . . . . . . . . . . . . . . . . . . . . . . . . . . . . . ",
". . . . . . . . . . + @ # @ + + @ # @ + . . . . . . . . . . ",
". . . . . . . . . + $ % & * = - ; > , ' + . . . . . . . . . ",
". . . . . . . . + ) ! ~ { ] ^ / ( _ : < [ + . . . . . . . . ",
". . . . . . . . . } | 1 2 3 4 4 3 3 1 5 6 . . . . . . . . . ",
". . . . . . . . 7 8 1 2 2 2 2 2 2 2 2 1 9 0 . . . . . . . . ",
". . . . . . . + - a 1 2 2 2 2 2 2 2 2 1 b ) + . . . . . . . ",
". . . . + . 7 - 7 c 2 2 2 2 2 2 2 2 2 2 d 7 - 7 . + . . . . ",
". . . + ) } 8 a c e f 3 2 2 2 2 2 2 3 g h c a 8 } ) + . . . ",
". . + $ ! | 1 1 2 f i j 2 2 2 2 2 3 k l m 2 1 1 | n $ + . . ",
". . @ % ~ 1 2 2 2 3 j o g 2 2 2 3 p q g 3 2 2 2 1 r s @ . . ",
". . # & { 2 2 2 2 2 2 g o j 3 3 k q k 2 2 2 2 2 3 { & # . . ",
". . @ * ] 3 2 2 2 2 2 2 j i j k l g 2 2 2 2 2 2 3 t u @ . . ",
". . + = ^ 4 2 2 2 2 2 2 3 j v w x 3 2 2 2 2 2 2 4 y = + . . ",
". . + - / 4 2 2 2 2 2 2 3 k z A B 3 2 2 2 2 2 3 4 C ) + . . ",
". . @ ; ( 3 2 2 2 2 2 2 k D E F G B 2 2 2 2 2 2 3 H I @ . . ",
". . # > _ 3 2 2 2 2 2 p J E K K F L M 2 2 2 2 2 3 N O # . . ",
". . @ , : 1 2 2 2 3 k J P Q Q Q K R L B 3 2 2 2 1 S T @ . . ",
". . + ' < 5 1 1 2 U V E Q Q Q Q Q K F G k 2 1 1 5 W ' + . . ",
". . . + [ 6 9 b d X Y K Q Q Q Q Q Q K Z ` d b  ...7 + . . . ",
". . . . + . 0 ) +.@.Q Q Q Q Q Q Q Q Q Q #.+.) 0 . + . . . . ",
". . . . . . . + $.%.&.Q Q Q Q Q Q Q Q &.*.$.+ . . . . . . . ",
". . . . . . . + =.-.;.Q Q Q Q Q Q Q Q ;.>.,.. . . . . . . . ",
". . . . . . . . . '.).;.K &.!.!.&.K ;.~.{.. . . . . . . . . ",
". . . . . . . . + ].^./.(._.:.<.[.}.|.1.2.+ . . . . . . . . ",
". . . . . . . . . + 3.4.5.6.7.$.8.9.0.a.+ . . . . . . . . . ",
". . . . . . . . . . + b.c.b.+ + b.c.d.+ . . . . . . . . . . ",
". . . . . . . . . . . . . . . . . . . . . . . . . . . . . . ",
". . . . . . . . . . . . . . . . . . . . . . . . . . . . . . "};
