/* XPM */
static char * Stuck_pressed_xpm[] = {
"30 30 129 2",
"  	c None",
". 	c #1B1216",
"+ 	c #1A1115",
"@ 	c #1A0F15",
"# 	c #1A0F14",
"$ 	c #1A1015",
"% 	c #1E1A19",
"& 	c #273123",
"* 	c #2B3B28",
"= 	c #283525",
"- 	c #201F1C",
"; 	c #1F1E1B",
"> 	c #273324",
", 	c #2A3927",
"' 	c #262E22",
") 	c #1D1819",
"! 	c #396039",
"~ 	c #509C53",
"{ 	c #56AC5A",
"] 	c #53A256",
"^ 	c #427843",
"/ 	c #417542",
"( 	c #519F55",
"_ 	c #55A959",
": 	c #4E9751",
"< 	c #375B36",
"[ 	c #1E1B1A",
"} 	c #335132",
"| 	c #53A457",
"1 	c #58AF5C",
"2 	c #57AD5B",
"3 	c #57AE5B",
"4 	c #324D30",
"5 	c #457F46",
"6 	c #447C45",
"7 	c #1F1D1B",
"8 	c #488649",
"9 	c #478549",
"0 	c #3D693D",
"a 	c #3D6A3D",
"b 	c #211C1C",
"c 	c #262022",
"d 	c #241D1F",
"e 	c #1B1316",
"f 	c #335031",
"g 	c #498A4B",
"h 	c #4A8D4D",
"i 	c #495D47",
"j 	c #788776",
"k 	c #94AC94",
"l 	c #8CA28C",
"m 	c #5C6559",
"n 	c #4A8C4C",
"o 	c #4B8E4D",
"p 	c #557154",
"q 	c #9AB399",
"r 	c #BDE0BE",
"s 	c #BFE3C0",
"t 	c #B4D4B4",
"u 	c #6C7869",
"v 	c #231C1E",
"w 	c #385E38",
"x 	c #4A8D4C",
"y 	c #4B8F4D",
"z 	c #536F52",
"A 	c #9BB59B",
"B 	c #BEE1BF",
"C 	c #AAC8AB",
"D 	c #3B3A37",
"E 	c #180E13",
"F 	c #9DB79C",
"G 	c #BCDEBD",
"H 	c #454842",
"I 	c #180E12",
"J 	c #B1D1B2",
"K 	c #3F403B",
"L 	c #325031",
"M 	c #4A5E48",
"N 	c #849883",
"O 	c #282324",
"P 	c #335232",
"Q 	c #4B604A",
"R 	c #9DB89D",
"S 	c #819480",
"T 	c #272122",
"U 	c #3A633A",
"V 	c #4C8F4E",
"W 	c #587557",
"X 	c #ADCCAE",
"Y 	c #3D3D39",
"Z 	c #3A6239",
"` 	c #567355",
" .	c #9FBA9F",
"..	c #B9DAB9",
"+.	c #434540",
"@.	c #4B904E",
"#.	c #A6C2A6",
"$.	c #383734",
"%.	c #180F13",
"&.	c #9CB69C",
"*.	c #B2D2B2",
"=.	c #667164",
"-.	c #211A1C",
";.	c #345232",
">.	c #4A8B4C",
",.	c #4A5F49",
"'.	c #788877",
").	c #94AB93",
"!.	c #8A9F89",
"~.	c #586055",
"{.	c #251E20",
"].	c #1E1A1A",
"^.	c #231D1E",
"/.	c #457E46",
"(.	c #395F38",
"_.	c #509B53",
":.	c #52A156",
"<.	c #427743",
"[.	c #417441",
"}.	c #519E54",
"|.	c #4E9651",
"1.	c #375A36",
"2.	c #1E1919",
"3.	c #263023",
"4.	c #283425",
"5.	c #201F1B",
"6.	c #273224",
"7.	c #252E22",
"8.	c #1D1818",
". . . . . . . . . . . . . . . . . . . . . . . . . . . . . . ",
". . . . . . . . . . . . . . . . . . . . . . . . . . . . . . ",
". . . . . . . . . . + @ # # $ $ # # @ + . . . . . . . . . . ",
". . . . . . . . . + % & * = - ; > , ' ) + . . . . . . . . . ",
". . . . . . . . + ; ! ~ { ] ^ / ( _ : < [ + . . . . . . . . ",
". . . . . . . . . } | 1 2 3 2 2 3 2 1 ] 4 . . . . . . . . . ",
". . . . . . . . [ 5 1 2 2 2 2 2 2 2 2 1 6 % . . . . . . . . ",
". . . . . . . + 7 8 1 2 2 2 2 2 2 2 2 1 9 7 $ + . . . . . . ",
". . . . + . [ 7 % 0 2 2 2 2 2 2 2 2 2 2 a b c d e $ . . . . ",
". . . + ; } 5 8 0 f g 2 2 2 2 2 2 2 2 h i j k l m c $ . . . ",
". . + % ! | 1 1 2 g ! n 2 2 2 2 2 2 o p q r s s t u v $ . . ",
". . @ & ~ 1 2 2 2 2 n w x 2 2 2 2 y z A B B r r s C D E . . ",
". . # * { 2 2 2 2 2 2 x w n 3 3 o z F B B r r r r G H I . . ",
". . # = ] 3 2 2 2 2 2 2 n ! n o p A B r r r r r B J K E . . ",
". . $ - ^ 2 2 2 2 2 2 2 3 n L M A B r r r r r B r N O $ . . ",
". . $ ; / 2 2 2 2 2 2 2 3 o P Q R B r r r r r B r S T $ . . ",
". . # > ( 3 2 2 2 2 2 2 o U x V W R B r r r r r B X Y E . . ",
". . # , _ 2 2 2 2 2 2 y Z x 3 3 V `  .B r r r r B ..+.I . . ",
". . @ ' : 1 2 2 2 3 o Z o 2 2 2 2 @.` R B r r r s #.$.%.. . ",
". . + ) < ] 1 1 2 x U x 2 2 2 2 2 2 V W &.B s s *.=.-.$ . . ",
". . . + [ 4 6 9 a ;.>.2 2 2 2 2 2 2 2 o ,.'.).!.~.{.$ . . . ",
". . . . + . % 7 ].a 2 2 2 2 2 2 2 2 2 2 a b c ^.. $ . . . . ",
". . . . . . . + 7 8 1 2 2 2 2 2 2 2 2 1 9 7 $ + . . . . . . ",
". . . . . . . . [ /.1 2 2 2 2 2 2 2 2 1 6 % . . . . . . . . ",
". . . . . . . . . f | 1 2 3 2 2 3 3 1 ] 4 . . . . . . . . . ",
". . . . . . . . + 7 (._.{ :.<.[.}._ |.1.[ + . . . . . . . . ",
". . . . . . . . . + 2.3.* 4.5.; 6., 7.8.+ . . . . . . . . . ",
". . . . . . . . . . + @ # # $ $ @ # @ + . . . . . . . . . . ",
". . . . . . . . . . . . . . . . . . . . . . . . . . . . . . ",
". . . . . . . . . . . . . . . . . . . . . . . . . . . . . . "};
