/* XPM */
static char * Stick_xpm[] = {
"30 30 135 2",
"  	c None",
". 	c #1B1216",
"+ 	c #1A1115",
"@ 	c #1A0F15",
"# 	c #1A0F14",
"$ 	c #1D1818",
"% 	c #252E22",
"& 	c #2A3927",
"* 	c #273224",
"= 	c #1F1D1B",
"- 	c #1E1B1A",
"; 	c #263023",
"> 	c #293626",
", 	c #242B21",
"' 	c #1D1718",
") 	c #365936",
"! 	c #4E9651",
"~ 	c #55A959",
"{ 	c #519E54",
"] 	c #407241",
"^ 	c #3F6F3F",
"/ 	c #4F9A52",
"( 	c #54A557",
"_ 	c #4C924F",
": 	c #345433",
"< 	c #1E1919",
"[ 	c #314C30",
"} 	c #53A256",
"| 	c #58AF5C",
"1 	c #57AE5B",
"2 	c #57AC5B",
"3 	c #52A055",
"4 	c #30482E",
"5 	c #437B45",
"6 	c #57AD5B",
"7 	c #427843",
"8 	c #1D1919",
"9 	c #1F1C1A",
"0 	c #478448",
"a 	c #468348",
"b 	c #3C683C",
"c 	c #3C693D",
"d 	c #201A18",
"e 	c #231E18",
"f 	c #211A17",
"g 	c #1E1A19",
"h 	c #30492E",
"i 	c #427943",
"j 	c #335232",
"k 	c #4A8B4C",
"l 	c #4B8E4D",
"m 	c #455B2C",
"n 	c #687D2A",
"o 	c #7E9C30",
"p 	c #758F2D",
"q 	c #4A5422",
"r 	c #221B17",
"s 	c #355534",
"t 	c #4A8D4C",
"u 	c #3A643A",
"v 	c #4C8F4D",
"w 	c #517033",
"x 	c #87A933",
"y 	c #A3CF3A",
"z 	c #A5D13A",
"A 	c #A5D23A",
"B 	c #97BF37",
"C 	c #556325",
"D 	c #1F1717",
"E 	c #252C21",
"F 	c #4D934F",
"G 	c #3A6239",
"H 	c #4C904E",
"I 	c #506F32",
"J 	c #88AB33",
"K 	c #A4D03A",
"L 	c #8BAE33",
"M 	c #31301B",
"N 	c #190F15",
"O 	c #293726",
"P 	c #54A658",
"Q 	c #4B8F4E",
"R 	c #8AAC33",
"S 	c #9CC638",
"T 	c #3B3E1E",
"U 	c #180E15",
"V 	c #273023",
"W 	c #509B53",
"X 	c #4A8D4D",
"Y 	c #92B835",
"Z 	c #35371D",
"` 	c #180F15",
" .	c #3F7040",
"..	c #335333",
"+.	c #465D2C",
"@.	c #A2CE3A",
"#.	c #6D842B",
"$.	c #417441",
"%.	c #4A8C4C",
"&.	c #335132",
"*.	c #445A2C",
"=.	c #87A832",
"-.	c #6F882C",
";.	c #251F18",
">.	c #273324",
",.	c #519F54",
"'.	c #396039",
").	c #4E6D32",
"!.	c #96BD36",
"~.	c #37391D",
"{.	c #385F38",
"].	c #4D6B31",
"^.	c #88A932",
"/.	c #9FCA39",
"(.	c #3D411F",
"_.	c #262E22",
":.	c #4E9751",
"<.	c #8FB334",
"[.	c #33341C",
"}.	c #375A36",
"|.	c #498A4B",
"1.	c #4E6C32",
"2.	c #85A632",
"3.	c #99C137",
"4.	c #5A6926",
"5.	c #201917",
"6.	c #334F31",
"7.	c #4B8D4C",
"8.	c #43582B",
"9.	c #677C2A",
"0.	c #7F9D30",
"a.	c #77922E",
"b.	c #4E5923",
"c.	c #231D18",
"d.	c #211B17",
". . . . . . . . . . . . . . . . . . . . . . . . . . . . . . ",
". . . . . . . . . . . . . . . . . . . . . . . . . . . . . . ",
". . . . . . . . . . + @ # @ + + @ # @ + . . . . . . . . . . ",
". . . . . . . . . + $ % & * = - ; > , ' + . . . . . . . . . ",
". . . . . . . . + - ) ! ~ { ] ^ / ( _ : < + . . . . . . . . ",
". . . . . . . . . [ } | 1 1 2 2 1 1 | 3 4 . . . . . . . . . ",
". . . . . . . . < 5 | 6 6 6 6 1 6 6 6 | 7 8 . . . . . . . . ",
". . . . . . . + 9 0 | 6 6 6 6 6 6 6 6 | a - + . . . . . . . ",
". . . . + . 8 - < b 6 6 6 6 6 6 6 6 6 6 c d e f . + . . . . ",
". . . + g h i a c j k 1 6 6 6 6 6 6 1 l m n o p q r + . . . ",
". . + ' s 3 | | 6 t u t 6 6 6 6 6 6 v w x y z A B C D + . . ",
". . @ E F | 6 6 6 1 l G l 6 6 6 6 H I J K y y y A L M N . . ",
". . # O P 1 6 6 6 6 1 Q G t 1 1 v I R K y y y y K S T U . . ",
". . @ V W 1 6 6 6 6 6 1 l u X v w J K y y y y y z Y Z ` . . ",
". . + 9  .2 6 6 6 6 6 6 1 l ..+.J K y y y y y y @.#.e + . . ",
". . + = $.2 6 6 6 6 6 6 1 %.&.*.=.K y y y y y y @.-.;.+ . . ",
". . @ >.,.1 6 6 6 6 6 6 %.'.%.l ).=.y y y y y y z !.~.` . . ",
". . # & ~ 6 6 6 6 6 6 t {.%.1 1 l ].^.y y y y y K /.(.U . . ",
". . @ _.:.| 6 6 6 1 %.{.t 6 6 6 6 Q ].=.K y y y A <.[.` . . ",
". . + $ }.} | | 6 |.'.%.6 6 6 6 6 6 l 1.2.y z A 3.4.5.+ . . ",
". . . + - [ 5 0 b 6.|.1 6 6 6 6 6 6 1 7.8.9.0.a.b.c.+ . . . ",
". . . . + . < 9 < b 6 6 6 6 6 6 6 6 6 6 c d e d.. + . . . . ",
". . . . . . . + 9 0 | 6 6 6 6 6 6 6 6 | a - + + . . . . . . ",
". . . . . . . . < 5 | 6 6 6 6 6 6 6 6 | i 8 . . . . . . . . ",
". . . . . . . . . [ } | 6 1 2 2 1 1 | 3 h . . . . . . . . . ",
". . . . . . . . + - }.:.~ ,.$. .W P F s g + . . . . . . . . ",
". . . . . . . . . + $ _.& >.= 9 V O E ' + . . . . . . . . . ",
". . . . . . . . . . + @ # @ + + @ # @ + . . . . . . . . . . ",
". . . . . . . . . . . . . . . . . . . . . . . . . . . . . . ",
". . . . . . . . . . . . . . . . . . . . . . . . . . . . . . "};
