/* XPM */
static char * Shade_xpm[] = {
"30 30 135 2",
"  	c None",
". 	c #1B1216",
"+ 	c #1A1115",
"@ 	c #1A0F15",
"# 	c #1A0F14",
"$ 	c #1D1718",
"% 	c #252C21",
"& 	c #293726",
"* 	c #273023",
"= 	c #1F1C1A",
"- 	c #1F1D1B",
"; 	c #273324",
"> 	c #2A3927",
", 	c #262E22",
"' 	c #1D1818",
") 	c #1E1A19",
"! 	c #355534",
"~ 	c #4D934F",
"{ 	c #54A658",
"] 	c #509B53",
"^ 	c #3F7040",
"/ 	c #417441",
"( 	c #519F54",
"_ 	c #55A959",
": 	c #4E9751",
"< 	c #375A36",
"[ 	c #1E1B1A",
"} 	c #30492E",
"| 	c #52A055",
"1 	c #58AF5C",
"2 	c #57AE5B",
"3 	c #57AC5B",
"4 	c #57AD5B",
"5 	c #53A256",
"6 	c #314C30",
"7 	c #1D1919",
"8 	c #427943",
"9 	c #437B45",
"0 	c #1E1919",
"a 	c #468348",
"b 	c #478448",
"c 	c #211B17",
"d 	c #231E18",
"e 	c #201A18",
"f 	c #3C693D",
"g 	c #3C683C",
"h 	c #231D18",
"i 	c #4E5923",
"j 	c #77922E",
"k 	c #7F9D30",
"l 	c #677C2A",
"m 	c #43582B",
"n 	c #4B8D4C",
"o 	c #498A4B",
"p 	c #334F31",
"q 	c #201917",
"r 	c #5A6926",
"s 	c #99C137",
"t 	c #A5D23A",
"u 	c #A5D13A",
"v 	c #A3CF3A",
"w 	c #85A632",
"x 	c #4E6C32",
"y 	c #4B8E4D",
"z 	c #4A8C4C",
"A 	c #396039",
"B 	c #180F15",
"C 	c #33341C",
"D 	c #8FB334",
"E 	c #A4D03A",
"F 	c #87A832",
"G 	c #4D6B31",
"H 	c #4B8F4E",
"I 	c #4A8D4C",
"J 	c #385F38",
"K 	c #180E15",
"L 	c #3D411F",
"M 	c #9FCA39",
"N 	c #88A932",
"O 	c #37391D",
"P 	c #96BD36",
"Q 	c #4E6D32",
"R 	c #251F18",
"S 	c #6F882C",
"T 	c #A2CE3A",
"U 	c #445A2C",
"V 	c #335132",
"W 	c #6D842B",
"X 	c #88AB33",
"Y 	c #465D2C",
"Z 	c #335333",
"` 	c #35371D",
" .	c #92B835",
"..	c #517033",
"+.	c #4C8F4D",
"@.	c #4A8D4D",
"#.	c #3A643A",
"$.	c #3B3E1E",
"%.	c #9CC638",
"&.	c #8AAC33",
"*.	c #506F32",
"=.	c #3A6239",
"-.	c #190F15",
";.	c #31301B",
">.	c #8BAE33",
",.	c #4C904E",
"'.	c #1F1717",
").	c #556325",
"!.	c #97BF37",
"~.	c #87A933",
"{.	c #221B17",
"].	c #4A5422",
"^.	c #758F2D",
"/.	c #7E9C30",
"(.	c #687D2A",
"_.	c #455B2C",
":.	c #4A8B4C",
"<.	c #335232",
"[.	c #211A17",
"}.	c #427843",
"|.	c #30482E",
"1.	c #345433",
"2.	c #4C924F",
"3.	c #54A557",
"4.	c #4F9A52",
"5.	c #3F6F3F",
"6.	c #407241",
"7.	c #519E54",
"8.	c #4E9651",
"9.	c #365936",
"0.	c #242B21",
"a.	c #293626",
"b.	c #263023",
"c.	c #273224",
"d.	c #252E22",
". . . . . . . . . . . . . . . . . . . . . . . . . . . . . . ",
". . . . . . . . . . . . . . . . . . . . . . . . . . . . . . ",
". . . . . . . . . . + @ # @ + + @ # @ + . . . . . . . . . . ",
". . . . . . . . . + $ % & * = - ; > , ' + . . . . . . . . . ",
". . . . . . . . + ) ! ~ { ] ^ / ( _ : < [ + . . . . . . . . ",
". . . . . . . . . } | 1 2 2 3 3 2 4 1 5 6 . . . . . . . . . ",
". . . . . . . . 7 8 1 4 4 4 4 4 4 4 4 1 9 0 . . . . . . . . ",
". . . . . . + + [ a 1 4 4 4 4 4 4 4 4 1 b = + . . . . . . . ",
". . . . + . c d e f 4 4 4 4 4 4 4 4 4 4 g 0 = 0 . + . . . . ",
". . . + h i j k l m n 2 4 4 4 4 4 4 2 o p g b 9 6 [ + . . . ",
". . + q r s t u v w x y 4 4 4 4 4 4 z A o 4 1 1 5 < ' + . . ",
". . B C D t v v v E F G H 4 4 4 4 I J z 2 4 4 4 1 : , @ . . ",
". . K L M E v v v v v N G y 2 2 z J I 4 4 4 4 4 4 _ > # . . ",
". . B O P u v v v v v v F Q y z A z 4 4 4 4 4 4 2 ( ; @ . . ",
". . + R S T v v v v v v E F U V z 2 4 4 4 4 4 4 3 / - + . . ",
". . + d W T v v v v v v E X Y Z y 2 4 4 4 4 4 4 3 ^ = + . . ",
". . B `  .u v v v v v E X ..+.@.#.y 2 4 4 4 4 4 2 ] * @ . . ",
". . K $.%.E v v v v E &.*.+.2 2 I =.H 2 4 4 4 4 2 { & # . . ",
". . -.;.>.t v v v E X *.,.4 4 4 4 y =.y 2 4 4 4 1 ~ % @ . . ",
". . + '.).!.t u v ~...+.4 4 4 4 4 4 I #.I 4 1 1 | ! $ + . . ",
". . . + {.].^./.(._.y 2 4 4 4 4 4 4 2 :.<.f a 8 } ) + . . . ",
". . . . + . [.d e f 4 4 4 4 4 4 4 4 4 4 g 0 [ 7 . + . . . . ",
". . . . . . . + [ a 1 4 4 4 4 4 4 4 4 1 b = + . . . . . . . ",
". . . . . . . . 7 }.1 4 4 4 2 4 4 4 4 1 9 0 . . . . . . . . ",
". . . . . . . . . |.| 1 2 2 3 3 2 2 1 5 6 . . . . . . . . . ",
". . . . . . . . + 0 1.2.3.4.5.6.7._ 8.9.[ + . . . . . . . . ",
". . . . . . . . . + $ 0.a.b.[ - c.> d.' + . . . . . . . . . ",
". . . . . . . . . . + @ # @ + + @ # @ + . . . . . . . . . . ",
". . . . . . . . . . . . . . . . . . . . . . . . . . . . . . ",
". . . . . . . . . . . . . . . . . . . . . . . . . . . . . . "};
