/* XPM */
static char * Close_xpm[] = {
"30 30 10 1",
" 	c None",
".	c #C93C78",
"+	c #0F1013",
"@	c #641F3C",
"#	c #A13060",
"$	c #BF3972",
"%	c #84274E",
"&	c #AF3468",
"*	c #702243",
"=	c #141014",
"..............................",
"..............................",
"..............................",
"..............................",
"..............................",
"..............................",
"..............................",
"..............................",
"..............................",
"..............................",
"..............................",
"..............................",
"..............................",
"++++++++++++++++++++++++++++++",
"++++++++++++++++++++++++++++++",
"++++++++++++++++++++++++++++++",
"+++++++++++@#$.$#@++++++++++++",
"++++++++++%$.....$%+++++++++++",
"+++++++++@$.......$@++++++++++",
"+++++++++#..&*=*&..#++++++++++",
"+++++++++$..*+++*..$++++++++++",
"+++++++++...=+++=...++++++++++",
"+++++++++$..*+++*..$++++++++++",
"+++++++++#..&*=*&..#++++++++++",
"+++++++++@$.......$@++++++++++",
"++++++++++%$.....$%+++++++++++",
"+++++++++++@#$.$#@++++++++++++",
"++++++++++++++++++++++++++++++",
"++++++++++++++++++++++++++++++",
"++++++++++++++++++++++++++++++"};
