/* XPM */
static char * Close_pressed_xpm[] = {
"30 30 7 1",
" 	c None",
".	c #C83C78",
"+	c #0F1013",
"@	c #631F3C",
"#	c #A03060",
"$	c #BE3972",
"%	c #83274E",
"..............................",
"..............................",
"..............................",
"..............................",
"..............................",
"..............................",
"..............................",
"..............................",
"..............................",
"..............................",
"..............................",
"..............................",
"..............................",
"++++++++++++++++++++++++++++++",
"++++++++++++++++++++++++++++++",
"++++++++++++++++++++++++++++++",
"+++++++++++@#$.$#@++++++++++++",
"++++++++++%$.....$%+++++++++++",
"+++++++++@$.......$@++++++++++",
"+++++++++#.........#++++++++++",
"+++++++++$.........$++++++++++",
"+++++++++...........++++++++++",
"+++++++++$.........$++++++++++",
"+++++++++#.........#++++++++++",
"+++++++++@$.......$@++++++++++",
"++++++++++%$.....$%+++++++++++",
"+++++++++++@#$.$#@++++++++++++",
"++++++++++++++++++++++++++++++",
"++++++++++++++++++++++++++++++",
"++++++++++++++++++++++++++++++"};
