/* XPM */
static char * Maximize_pressed_xpm[] = {
"30 30 9 1",
" 	c None",
".	c #D63679",
"+	c #0F1013",
"@	c #4A213A",
"#	c #78345C",
"$	c #8F3E6E",
"%	c #974174",
"&	c #622B4C",
"*	c #903E6E",
"..............................",
"..............................",
"..............................",
"..............................",
"..............................",
"..............................",
"..............................",
"..............................",
"..............................",
"..............................",
"..............................",
"..............................",
"..............................",
"++++++++++++++++++++++++++++++",
"++++++++++++++++++++++++++++++",
"++++++++++++++++++++++++++++++",
"+++++++++++@#$%$#@++++++++++++",
"++++++++++&*%%%%%*&+++++++++++",
"+++++++++@*%%%%%%%*@++++++++++",
"+++++++++#%%%%%%%%%#++++++++++",
"+++++++++$%%%%%%%%%$++++++++++",
"+++++++++%%%%%%%%%%%++++++++++",
"+++++++++$%%%%%%%%%$++++++++++",
"+++++++++#%%%%%%%%%#++++++++++",
"+++++++++@*%%%%%%%*@++++++++++",
"++++++++++&*%%%%%*&+++++++++++",
"+++++++++++@#$%$#@++++++++++++",
"++++++++++++++++++++++++++++++",
"++++++++++++++++++++++++++++++",
"++++++++++++++++++++++++++++++"};
