/* XPM */
static char * Minimize_xpm[] = {
"30 30 11 1",
" 	c None",
".	c #C93C78",
"+	c #0F1013",
"@	c #3F7486",
"#	c #0F1215",
"$	c #3C6E7F",
"%	c #23404A",
"&	c #325C6B",
"*	c #376575",
"=	c #203943",
"-	c #294B58",
"..............................",
"..............................",
"..............................",
"..............................",
"..............................",
"..............................",
"..............................",
"..............................",
"..............................",
"..............................",
"..............................",
"..............................",
"..............................",
"++++++++++++++++++++++++++++++",
"++++++++++++++++++++++++++++++",
"++++++++++++++++++++++++++++++",
"++++++++++++++++++++++++++++++",
"++++++++++++++++++++++++++++++",
"++++++++++++++++++++++++++++++",
"++++++++++++++++++++++++++++++",
"++++++++++++++++++++++++++++++",
"+++++++++@@@#+++#@@@++++++++++",
"+++++++++$@@%+++%@@$++++++++++",
"+++++++++&@@*%#%*@@&++++++++++",
"+++++++++=$@@@@@@@$=++++++++++",
"++++++++++-$@@@@@$-+++++++++++",
"+++++++++++=&$@$&=++++++++++++",
"++++++++++++++++++++++++++++++",
"++++++++++++++++++++++++++++++",
"++++++++++++++++++++++++++++++"};
