/* XPM */
static char * Minimize_pressed_xpm[] = {
"30 30 8 1",
" 	c None",
".	c #D63679",
"+	c #0F1013",
"@	c #203943",
"#	c #325C6B",
"$	c #3C6E7F",
"%	c #3F7486",
"&	c #294B58",
"..............................",
"..............................",
"..............................",
"..............................",
"..............................",
"..............................",
"..............................",
"..............................",
"..............................",
"..............................",
"..............................",
"..............................",
"..............................",
"++++++++++++++++++++++++++++++",
"++++++++++++++++++++++++++++++",
"++++++++++++++++++++++++++++++",
"+++++++++++@#$%$#@++++++++++++",
"++++++++++&$%%%%%$&+++++++++++",
"+++++++++@$%%%%%%%$@++++++++++",
"+++++++++#%%%%%%%%%#++++++++++",
"+++++++++$%%%%%%%%%$++++++++++",
"+++++++++%%%%%%%%%%%++++++++++",
"+++++++++$%%%%%%%%%$++++++++++",
"+++++++++#%%%%%%%%%#++++++++++",
"+++++++++@$%%%%%%%$@++++++++++",
"++++++++++&$%%%%%$&+++++++++++",
"+++++++++++@#$%$#@++++++++++++",
"++++++++++++++++++++++++++++++",
"++++++++++++++++++++++++++++++",
"++++++++++++++++++++++++++++++"};
