/* XPM */
static char * Title_xpm[] = {
"21 21 85 1",
" 	c None",
".	c #427286",
"+	c #487085",
"@	c #516D84",
"#	c #576A84",
"$	c #5E6883",
"%	c #646582",
"&	c #6A6282",
"*	c #716081",
"=	c #765D81",
"-	c #7E5A7F",
";	c #85587F",
">	c #8C557F",
",	c #92527D",
"'	c #98507D",
")	c #9E4E7D",
"!	c #A54B7C",
"~	c #AD487A",
"{	c #B3457A",
"]	c #B9427A",
"^	c #BF4079",
"/	c #C63D78",
"(	c #427385",
"_	c #497085",
":	c #576B84",
"<	c #5D6783",
"[	c #646682",
"}	c #6A6382",
"|	c #706081",
"1	c #775D80",
"2	c #7F5A80",
"3	c #8B557E",
"4	c #92537E",
"5	c #9E4D7D",
"6	c #A44B7C",
"7	c #AD487B",
"8	c #B3457B",
"9	c #B9437A",
"0	c #427386",
"a	c #4F6E84",
"b	c #576A83",
"c	c #5D6883",
"d	c #636582",
"e	c #6A6381",
"f	c #775E81",
"g	c #7D5B80",
"h	c #85577F",
"i	c #91537E",
"j	c #A54A7C",
"k	c #AB487B",
"l	c #B94379",
"m	c #C04079",
"n	c #C63E78",
"o	c #427285",
"p	c #4F6E85",
"q	c #775E80",
"r	c #8C557E",
"s	c #92537D",
"t	c #98507C",
"u	c #9F4D7D",
"v	c #BA4279",
"w	c #5E6783",
"x	c #765D80",
"y	c #85577E",
"z	c #91527E",
"A	c #9E4D7C",
"B	c #A44B7B",
"C	c #4F6D85",
"D	c #6A6281",
"E	c #7D5B7F",
"F	c #91537D",
"G	c #9F4D7C",
"H	c #AB497B",
"I	c #C63D79",
"J	c #B2457A",
"K	c #497185",
"L	c #7D5A7F",
"M	c #A44A7B",
"N	c #576B83",
"O	c #9E4E7C",
"P	c #A44A7C",
"Q	c #B3447A",
"R	c #BA437A",
"S	c #C63E79",
"T	c #0F1013",
".+@#$%&*=-;>,')!~{]^/",
"(_@:<[}|12;34'56789^/",
"0+abcde|fgh>i')jk8lmn",
"o+p#cde*qghrstu6k{vm/",
"0+p#w[e|xgyrz'ABk{]mn",
"(_C#$dD|xEh3F'G!H{lmI",
"0_ab<d&|xg;r4')!kJ9^/",
"0Kp:c%}|1Lhr4'GMH{9m/",
"(+CNc%}|1E;3s'OPHQR^S",
"TTTTTTTTTTTTTTTTTTTTT",
"TTTTTTTTTTTTTTTTTTTTT",
"TTTTTTTTTTTTTTTTTTTTT",
"TTTTTTTTTTTTTTTTTTTTT",
"TTTTTTTTTTTTTTTTTTTTT",
"TTTTTTTTTTTTTTTTTTTTT",
"TTTTTTTTTTTTTTTTTTTTT",
"TTTTTTTTTTTTTTTTTTTTT",
"TTTTTTTTTTTTTTTTTTTTT",
"TTTTTTTTTTTTTTTTTTTTT",
"TTTTTTTTTTTTTTTTTTTTT",
"TTTTTTTTTTTTTTTTTTTTT"};
