<?xml version="1.0" encoding="UTF-8" standalone="no"?>
<svg
   xmlns:dc="http://purl.org/dc/elements/1.1/"
   xmlns:cc="http://creativecommons.org/ns#"
   xmlns:rdf="http://www.w3.org/1999/02/22-rdf-syntax-ns#"
   xmlns:svg="http://www.w3.org/2000/svg"
   xmlns="http://www.w3.org/2000/svg"
   xmlns:sodipodi="http://sodipodi.sourceforge.net/DTD/sodipodi-0.dtd"
   xmlns:inkscape="http://www.inkscape.org/namespaces/inkscape"
   viewBox="0 0 500 500"
   id="svg2"
   version="1.1"
   inkscape:version="0.91 r13725"
   width="100%"
   height="100%"
   sodipodi:docname="dialog-password.svg">
  <metadata
     id="metadata76">
    <rdf:RDF>
      <cc:Work
         rdf:about="">
        <dc:format>image/svg+xml</dc:format>
        <dc:type
           rdf:resource="http://purl.org/dc/dcmitype/StillImage" />
        <dc:title />
      </cc:Work>
    </rdf:RDF>
  </metadata>
  <sodipodi:namedview
     pagecolor="#ffffff"
     bordercolor="#666666"
     borderopacity="1"
     objecttolerance="10"
     gridtolerance="10"
     guidetolerance="10"
     inkscape:pageopacity="0"
     inkscape:pageshadow="2"
     inkscape:window-width="1366"
     inkscape:window-height="715"
     id="namedview74"
     showgrid="false"
     inkscape:zoom="0.5"
     inkscape:cx="-75.31102"
     inkscape:cy="207.25871"
     inkscape:window-x="0"
     inkscape:window-y="24"
     inkscape:window-maximized="1"
     inkscape:current-layer="svg2" />
  <defs
     id="defs4">
    <linearGradient
       id="linearGradient3764"
       x1="1"
       x2="47"
       gradientUnits="userSpaceOnUse"
       gradientTransform="matrix(0,-1,1,0,-1.5e-6,47.999998)">
      <stop
         stop-color="#8358b4"
         stop-opacity="1"
         id="stop7" />
      <stop
         offset="1"
         stop-color="#8d65ba"
         stop-opacity="1"
         id="stop9" />
    </linearGradient>
    <clipPath
       id="clipPath-057129763">
      <g
         transform="translate(0,-1004.3622)"
         id="g12">
        <path
           d="m -24,13 c 0,1.105 -0.672,2 -1.5,2 -0.828,0 -1.5,-0.895 -1.5,-2 0,-1.105 0.672,-2 1.5,-2 0.828,0 1.5,0.895 1.5,2 z"
           transform="matrix(15.333333,0,0,11.5,414.99999,878.8622)"
           id="path14"
           inkscape:connector-curvature="0"
           style="fill:#1890d0" />
      </g>
    </clipPath>
    <clipPath
       id="clipPath-064426159">
      <g
         transform="translate(0,-1004.3622)"
         id="g17">
        <path
           d="m -24,13 c 0,1.105 -0.672,2 -1.5,2 -0.828,0 -1.5,-0.895 -1.5,-2 0,-1.105 0.672,-2 1.5,-2 0.828,0 1.5,0.895 1.5,2 z"
           transform="matrix(15.333333,0,0,11.5,414.99999,878.8622)"
           id="path19"
           inkscape:connector-curvature="0"
           style="fill:#1890d0" />
      </g>
    </clipPath>
  </defs>
  <g
     id="g33"
     transform="translate(0,452)" />
  <g
     id="g4148">
    <path
       sodipodi:open="true"
       transform="matrix(0.86573191,0,0,1.0834306,578.70143,13.686371)"
       sodipodi:end="6.2827953"
       sodipodi:start="0"
       d="m -133.46341,218.11607 a 246.21698,196.74347 0 1 1 -2e-5,-0.0767"
       sodipodi:ry="196.74347"
       sodipodi:rx="246.21698"
       sodipodi:cy="218.11607"
       sodipodi:cx="-379.68039"
       id="path3766"
       style="fill:#ffcc00;fill-opacity:1;stroke:#394050;stroke-width:24.4549427;stroke-miterlimit:4;stroke-opacity:1;stroke-dasharray:none"
       sodipodi:type="arc" />
    <path
       sodipodi:nodetypes="czzzccczccc"
       inkscape:connector-curvature="0"
       id="path3767"
       d="m 179.37316,266.34123 c 0,0 -0.91975,-68.62326 0,-75.61285 0.91973,-6.98955 9.24377,-63.52269 72.04991,-62.94468 62.80606,0.578 70.00319,53.63953 71.25812,60.56941 1.25494,6.92989 1.1876,77.19635 1.1876,77.19635 l -30.08677,0.79177 -0.39587,-67.29939 c 0,0 -4.40032,-39.24778 -43.54663,-38.40022 -39.14633,0.84755 -39.98372,38.7961 -39.98372,38.7961 l -0.39588,66.50762 z"
       style="fill:#394050;stroke:none" />
    <path
       sodipodi:nodetypes="ccccc"
       inkscape:connector-curvature="0"
       id="path2997"
       d="m 156.52036,373.49204 190.9112,0.28003 -0.27996,-116.7302 -190.63124,0 z"
       style="fill:#394050;stroke:none" />
    <path
       sodipodi:open="true"
       sodipodi:end="6.2784904"
       sodipodi:start="0"
       transform="matrix(0.55423006,0,0,0.55423006,-160.6866,129.84227)"
       d="m 814.28571,341.28571 a 70,69.285713 0 1 1 -7.8e-4,-0.32529"
       sodipodi:ry="69.285713"
       sodipodi:rx="70"
       sodipodi:cy="341.28571"
       sodipodi:cx="744.28571"
       id="path3769"
       style="fill:#394050;fill-opacity:1;stroke:none"
       sodipodi:type="arc" />
    <path
       sodipodi:open="true"
       sodipodi:end="6.2784904"
       sodipodi:start="0"
       transform="matrix(0.73435482,0,0,0.69716307,-293.89711,86.257702)"
       d="m 753.57141,319.67856 a 10,10.178572 0 1 1 -1.1e-4,-0.0478"
       sodipodi:ry="10.178572"
       sodipodi:rx="10"
       sodipodi:cy="319.67856"
       sodipodi:cx="743.57141"
       id="path3771"
       style="fill:#394050;fill-opacity:1;stroke:none"
       sodipodi:type="arc" />
    <path
       inkscape:connector-curvature="0"
       id="path3773"
       d="m 252.44507,310.85777 0.1979,28.89914"
       style="fill:#394050;stroke:#394050;stroke-width:5.5423007;stroke-linecap:round;stroke-linejoin:miter;stroke-miterlimit:4;stroke-opacity:1;stroke-dasharray:none" />
  </g>
</svg>
