<?xml version="1.0" encoding="UTF-8" standalone="no"?>
<!-- Created with Inkscape (http://www.inkscape.org/) -->

<svg
   xmlns:dc="http://purl.org/dc/elements/1.1/"
   xmlns:cc="http://creativecommons.org/ns#"
   xmlns:rdf="http://www.w3.org/1999/02/22-rdf-syntax-ns#"
   xmlns:svg="http://www.w3.org/2000/svg"
   xmlns="http://www.w3.org/2000/svg"
   xmlns:sodipodi="http://sodipodi.sourceforge.net/DTD/sodipodi-0.dtd"
   xmlns:inkscape="http://www.inkscape.org/namespaces/inkscape"
   width="512"
   height="512"
   id="svg2"
   version="1.1"
   inkscape:version="0.91 r13725"
   sodipodi:docname="security-medium.svg">
  <defs
     id="defs4" />
  <sodipodi:namedview
     id="base"
     pagecolor="#ffffff"
     bordercolor="#666666"
     borderopacity="1.0"
     inkscape:pageopacity="0.0"
     inkscape:pageshadow="2"
     inkscape:zoom="0.49497475"
     inkscape:cx="444.83591"
     inkscape:cy="202.91152"
     inkscape:document-units="px"
     inkscape:current-layer="layer1"
     showgrid="false"
     inkscape:window-width="1366"
     inkscape:window-height="715"
     inkscape:window-x="0"
     inkscape:window-y="24"
     inkscape:window-maximized="1" />
  <metadata
     id="metadata7">
    <rdf:RDF>
      <cc:Work
         rdf:about="">
        <dc:format>image/svg+xml</dc:format>
        <dc:type
           rdf:resource="http://purl.org/dc/dcmitype/StillImage" />
        <dc:title />
      </cc:Work>
    </rdf:RDF>
  </metadata>
  <g
     inkscape:label="Layer 1"
     inkscape:groupmode="layer"
     id="layer1"
     transform="translate(0,-540.36218)">
    <g
       id="g4136">
      <path
         sodipodi:nodetypes="cczczcc"
         inkscape:connector-curvature="0"
         id="path3778-5"
         d="m 250,600.68028 c -38.04948,23.5204 -207.909888,34.20119 -207.909888,34.20119 0,0 24.340861,200.44597 87.909888,277.48071 63.56903,77.03474 120,70 120,70 0,0 52.01307,11.5988 120,-70 67.98693,-81.5988 95.18234,-276.51776 95.18234,-276.51776 0,0 -177.32384,-8.513 -215.18234,-35.16414 z"
         style="fill:#ffcc00;fill-opacity:1;stroke:#394050;stroke-width:25.33503342;stroke-miterlimit:4;stroke-opacity:1;stroke-dasharray:none" />
      <path
         sodipodi:nodetypes="ccczcccccczcczccc"
         inkscape:connector-curvature="0"
         id="path3779"
         d="m 195.61108,753.14133 80.18944,-0.2311 0.58953,107.04107 c 0,0 -0.22142,2.7759 1.84397,5.03328 2.06538,2.25738 4.12042,2.32008 4.12042,2.32008 l 17.89315,0.0817 0.16343,12.99094 -101.88476,-0.24513 -0.16343,-13.15432 20.83449,0.0817 c 0,0 2.89292,-0.35231 4.5501,-2.72156 1.65718,-2.36927 1.25089,-4.95862 1.25089,-4.95862 l -0.0817,-86.52441 c 0,0 0.28148,-2.16058 -2.67928,-4.68814 -2.96078,-2.52757 -5.73622,-2.25668 -5.73622,-2.25668 l -20.75278,-0.24511 z"
         style="fill:#394050;stroke:none" />
      <path
         sodipodi:open="true"
         sodipodi:end="6.2784904"
         sodipodi:start="0"
         transform="matrix(2.2619368,0,0,2.2619368,-1135.5081,112.54245)"
         d="m 624.27428,263.50247 a 12.879445,13.131983 0 0 1 -12.86433,13.13198 12.879445,13.131983 0 0 1 -12.89452,-13.10115 12.879445,13.131983 0 0 1 12.83406,-13.16273 12.879445,13.131983 0 0 1 12.92465,13.07025"
         sodipodi:ry="13.131983"
         sodipodi:rx="12.879445"
         sodipodi:cy="263.50247"
         sodipodi:cx="611.39484"
         id="path2997-3"
         style="fill:#394050;fill-opacity:1;stroke:none"
         sodipodi:type="arc" />
    </g>
  </g>
</svg>
