<?xml version="1.0" encoding="UTF-8" standalone="no"?>
<!-- Created with Inkscape (http://www.inkscape.org/) -->

<svg
   xmlns:dc="http://purl.org/dc/elements/1.1/"
   xmlns:cc="http://creativecommons.org/ns#"
   xmlns:rdf="http://www.w3.org/1999/02/22-rdf-syntax-ns#"
   xmlns:svg="http://www.w3.org/2000/svg"
   xmlns="http://www.w3.org/2000/svg"
   xmlns:sodipodi="http://sodipodi.sourceforge.net/DTD/sodipodi-0.dtd"
   xmlns:inkscape="http://www.inkscape.org/namespaces/inkscape"
   width="500"
   height="500"
   id="svg2"
   version="1.1"
   inkscape:version="0.91 r13725"
   sodipodi:docname="application-x-rpm.svg">
  <defs
     id="defs4" />
  <sodipodi:namedview
     id="base"
     pagecolor="#ffffff"
     bordercolor="#666666"
     borderopacity="1.0"
     inkscape:pageopacity="0.0"
     inkscape:pageshadow="2"
     inkscape:zoom="0.85795622"
     inkscape:cx="307.1104"
     inkscape:cy="302.82743"
     inkscape:document-units="px"
     inkscape:current-layer="layer1"
     showgrid="false"
     inkscape:window-width="1366"
     inkscape:window-height="715"
     inkscape:window-x="0"
     inkscape:window-y="24"
     inkscape:window-maximized="1" />
  <metadata
     id="metadata7">
    <rdf:RDF>
      <cc:Work
         rdf:about="">
        <dc:format>image/svg+xml</dc:format>
        <dc:type
           rdf:resource="http://purl.org/dc/dcmitype/StillImage" />
        <dc:title />
      </cc:Work>
    </rdf:RDF>
  </metadata>
  <g
     inkscape:label="Layer 1"
     inkscape:groupmode="layer"
     id="layer1"
     transform="translate(0,-552.36218)">
    <g
       id="g4213">
      <path
         sodipodi:nodetypes="ccccc"
         inkscape:connector-curvature="0"
         id="path4230"
         d="M 63.03896,706.21202 116.261,758.31058 114.60095,685.26873 63,685.02363 Z"
         style="fill:#2c323e;fill-opacity:1;fill-rule:evenodd;stroke:none;stroke-width:1px;stroke-linecap:butt;stroke-linejoin:miter;stroke-opacity:1" />
      <path
         inkscape:connector-curvature="0"
         id="path3364"
         d="m 97.04097,1029.8357 336.88839,-1.1739 1.17377,-363.88668 -88.03697,-89.21086 -250.02519,0 z"
         style="fill:#f2f2f2;fill-rule:evenodd;stroke:#afafaf;stroke-width:5.03546047;stroke-linecap:butt;stroke-linejoin:miter;stroke-miterlimit:4;stroke-dasharray:none;stroke-opacity:1" />
      <path
         sodipodi:nodetypes="cccc"
         inkscape:connector-curvature="0"
         id="path4166"
         d="m 431.51909,662.93096 -82.16431,-0.58691 0.75853,-83.80351 z"
         style="fill:#afafaf;fill-opacity:1;fill-rule:evenodd;stroke:#afafaf;stroke-width:5.03546047;stroke-linecap:butt;stroke-linejoin:miter;stroke-miterlimit:4;stroke-dasharray:none;stroke-opacity:1" />
      <rect
         y="622.18707"
         x="63.13966"
         height="84.350876"
         width="224.93568"
         id="rect4228"
         style="fill:#394050;fill-opacity:1;stroke:none;stroke-width:5;stroke-miterlimit:4;stroke-dasharray:none;stroke-opacity:1" />
      <g
         id="g4184">
        <circle
           style="fill:#394050;fill-opacity:1;stroke:#cccccc;stroke-width:13.61957645;stroke-miterlimit:4;stroke-dasharray:none"
           id="path2998"
           cx="263.22418"
           cy="899.61475"
           r="118.19021" />
        <path
           style="fill:#f03916;fill-opacity:1;stroke:#f03916;stroke-width:0.87370867;stroke-miterlimit:4;stroke-dasharray:none;stroke-opacity:1"
           d="m 252.6363,894.49716 c -0.94931,-4.44042 -3.73339,-16.26488 -16.47299,-69.96365 -1.97546,-8.3268 -2.06401,-9.56592 -0.64461,-9.02125 0.49764,0.19096 9.6852,23.26346 25.46771,63.95645 l 6.2686,16.1627 -3.59618,0.22642 c -3.77197,0.2375 -6.35198,1.09366 -8.70573,2.889 l -1.21083,0.9235 -1.10597,-5.17317 0,0 z"
           id="path3777"
           inkscape:connector-curvature="0" />
        <circle
           style="fill:#ffffff;fill-opacity:1;stroke:none"
           id="path3775"
           cx="263.10754"
           cy="905.9375"
           r="14.562663" />
      </g>
      <g
         id="flowRoot4145"
         style="font-style:normal;font-weight:normal;font-size:40px;line-height:125%;font-family:sans-serif;letter-spacing:0px;word-spacing:0px;fill:#ffffff;fill-opacity:1;stroke:none;stroke-width:1px;stroke-linecap:butt;stroke-linejoin:miter;stroke-opacity:1"
         transform="translate(-13.655606,542.70657)">
        <path
           inkscape:connector-curvature="0"
           id="path4154"
           style="font-style:normal;font-variant:normal;font-weight:bold;font-stretch:normal;font-size:80px;font-family:sans-serif;-inkscape-font-specification:'sans-serif Bold';fill:#ffffff"
           d="m 124.28711,118.35321 q 4.72656,0 6.75781,-1.75781 2.07031,-1.75781 2.07031,-5.78125 0,-3.98437 -2.07031,-5.70312 -2.03125,-1.71875 -6.75781,-1.71875 l -6.32813,0 0,14.96093 6.32813,0 z m -6.32813,10.39063 0,22.07031 -15.03906,0 0,-58.320311 22.96875,0 q 11.52344,0 16.875,3.867188 5.39063,3.867183 5.39063,12.226563 0,5.78125 -2.8125,9.49219 -2.77344,3.71093 -8.39844,5.46875 3.08594,0.70312 5.50781,3.20312 2.46094,2.46094 4.96094,7.5 l 8.16406,16.5625 -16.01562,0 -7.10938,-14.49219 q -2.14844,-4.375 -4.375,-5.97656 -2.1875,-1.60156 -5.85937,-1.60156 l -4.25782,0 z" />
        <path
           inkscape:connector-curvature="0"
           id="path4156"
           style="font-style:normal;font-variant:normal;font-weight:bold;font-stretch:normal;font-size:80px;font-family:sans-serif;-inkscape-font-specification:'sans-serif Bold';fill:#ffffff"
           d="m 164.48242,92.493839 24.96094,0 q 11.13281,0 17.07031,4.960938 5.97656,4.921873 5.97656,14.062503 0,9.17968 -5.97656,14.14062 -5.9375,4.92188 -17.07031,4.92188 l -9.92188,0 0,20.23437 -15.03906,0 0,-58.320311 z m 15.03906,10.898441 0,16.28906 8.32032,0 q 4.375,0 6.75781,-2.10938 2.38281,-2.14843 2.38281,-6.05468 0,-3.90625 -2.38281,-6.01563 -2.38281,-2.10937 -6.75781,-2.10937 l -8.32032,0 z" />
        <path
           inkscape:connector-curvature="0"
           id="path4158"
           style="font-style:normal;font-variant:normal;font-weight:bold;font-stretch:normal;font-size:80px;font-family:sans-serif;-inkscape-font-specification:'sans-serif Bold';fill:#ffffff"
           d="m 223.07617,92.493839 19.14063,0 13.28125,31.210941 13.35937,-31.210941 19.10156,0 0,58.320311 -14.21875,0 0,-42.65625 -13.4375,31.44531 -9.53125,0 -13.4375,-31.44531 0,42.65625 -14.25781,0 0,-58.320311 z" />
      </g>
    </g>
  </g>
</svg>
