<?xml version="1.0" encoding="UTF-8" standalone="no"?>
<!-- Created with Inkscape (http://www.inkscape.org/) -->

<svg
   xmlns:dc="http://purl.org/dc/elements/1.1/"
   xmlns:cc="http://creativecommons.org/ns#"
   xmlns:rdf="http://www.w3.org/1999/02/22-rdf-syntax-ns#"
   xmlns:svg="http://www.w3.org/2000/svg"
   xmlns="http://www.w3.org/2000/svg"
   xmlns:sodipodi="http://sodipodi.sourceforge.net/DTD/sodipodi-0.dtd"
   xmlns:inkscape="http://www.inkscape.org/namespaces/inkscape"
   width="500"
   height="500"
   id="svg2"
   version="1.1"
   inkscape:version="0.91 r13725"
   sodipodi:docname="application-x-srt.svg">
  <defs
     id="defs4" />
  <sodipodi:namedview
     id="base"
     pagecolor="#ffffff"
     bordercolor="#666666"
     borderopacity="1.0"
     inkscape:pageopacity="0.0"
     inkscape:pageshadow="2"
     inkscape:zoom="0.42897811"
     inkscape:cx="600.11066"
     inkscape:cy="93.142844"
     inkscape:document-units="px"
     inkscape:current-layer="layer1"
     showgrid="false"
     inkscape:window-width="1366"
     inkscape:window-height="715"
     inkscape:window-x="0"
     inkscape:window-y="24"
     inkscape:window-maximized="1" />
  <metadata
     id="metadata7">
    <rdf:RDF>
      <cc:Work
         rdf:about="">
        <dc:format>image/svg+xml</dc:format>
        <dc:type
           rdf:resource="http://purl.org/dc/dcmitype/StillImage" />
        <dc:title />
      </cc:Work>
    </rdf:RDF>
  </metadata>
  <g
     inkscape:label="Layer 1"
     inkscape:groupmode="layer"
     id="layer1"
     transform="translate(0,-552.36218)">
    <g
       id="g4417">
      <path
         sodipodi:nodetypes="ccccc"
         inkscape:connector-curvature="0"
         id="path4230"
         d="M 63.03896,706.21204 116.261,758.3106 114.60095,685.26875 63,685.02365 Z"
         style="fill:#002f3b;fill-opacity:1;fill-rule:evenodd;stroke:none;stroke-width:1px;stroke-linecap:butt;stroke-linejoin:miter;stroke-opacity:1" />
      <path
         inkscape:connector-curvature="0"
         id="path3364"
         d="m 97.04097,1029.8357 336.88839,-1.1739 1.17376,-363.88666 -88.03696,-89.21086 -250.02519,0 z"
         style="fill:#f2f2f2;fill-rule:evenodd;stroke:#afafaf;stroke-width:5.03546047;stroke-linecap:butt;stroke-linejoin:miter;stroke-miterlimit:4;stroke-dasharray:none;stroke-opacity:1" />
      <path
         sodipodi:nodetypes="cccc"
         inkscape:connector-curvature="0"
         id="path4166"
         d="m 431.51909,662.93098 -82.16431,-0.58691 0.75853,-83.80351 z"
         style="fill:#afafaf;fill-opacity:1;fill-rule:evenodd;stroke:#afafaf;stroke-width:5.03546047;stroke-linecap:butt;stroke-linejoin:miter;stroke-miterlimit:4;stroke-dasharray:none;stroke-opacity:1" />
      <rect
         y="622.18701"
         x="63.139656"
         height="84.350876"
         width="210.32506"
         id="rect4228"
         style="fill:#004455;fill-opacity:1;stroke:none;stroke-width:5;stroke-miterlimit:4;stroke-dasharray:none;stroke-opacity:1" />
      <g
         id="flowRoot4261"
         style="font-style:normal;font-weight:normal;font-size:40px;line-height:125%;font-family:sans-serif;letter-spacing:0px;word-spacing:0px;fill:#ffffff;fill-opacity:1;stroke:none;stroke-width:1px;stroke-linecap:butt;stroke-linejoin:miter;stroke-opacity:1"
         transform="translate(-18.131868,537.52701)">
        <path
           inkscape:connector-curvature="0"
           id="path4270"
           style="font-style:normal;font-variant:normal;font-weight:bold;font-stretch:normal;font-size:80px;font-family:sans-serif;-inkscape-font-specification:'sans-serif Bold';fill:#ffffff"
           d="m 158.36914,97.980167 0,12.343753 q -4.80469,-2.14844 -9.375,-3.24219 -4.57031,-1.09375 -8.63281,-1.09375 -5.39063,0 -7.96875,1.48437 -2.57813,1.48438 -2.57813,4.60938 0,2.34375 1.71875,3.67187 1.75782,1.28907 6.32813,2.22657 l 6.40625,1.28906 q 9.72656,1.95312 13.82812,5.9375 4.10157,3.98437 4.10157,11.32812 0,9.64844 -5.74219,14.375 -5.70313,4.6875 -17.46094,4.6875 -5.54687,0 -11.13281,-1.05468 -5.58594,-1.05469 -11.17188,-3.125 l 0,-12.69532 q 5.58594,2.96875 10.78125,4.49219 5.23438,1.48438 10.07813,1.48438 4.92187,0 7.53906,-1.64063 2.61719,-1.64062 2.61719,-4.6875 0,-2.73437 -1.79688,-4.21875 -1.75781,-1.48437 -7.07031,-2.65625 l -5.82031,-1.28906 q -8.75,-1.875 -12.8125,-5.97656 -4.02344,-4.10157 -4.02344,-11.05469 0,-8.71094 5.625,-13.398438 5.625,-4.6875 16.17188,-4.6875 4.80468,0 9.88281,0.742188 5.07812,0.703125 10.50781,2.148437 z" />
        <path
           inkscape:connector-curvature="0"
           id="path4272"
           style="font-style:normal;font-variant:normal;font-weight:bold;font-stretch:normal;font-size:80px;font-family:sans-serif;-inkscape-font-specification:'sans-serif Bold';fill:#ffffff"
           d="m 196.80664,122.0036 q 4.72656,0 6.75781,-1.75781 2.07032,-1.75781 2.07032,-5.78125 0,-3.98437 -2.07032,-5.70312 -2.03125,-1.71875 -6.75781,-1.71875 l -6.32812,0 0,14.96093 6.32812,0 z m -6.32812,10.39063 0,22.07031 -15.03907,0 0,-58.32031 22.96875,0 q 11.52344,0 16.875,3.86719 5.39063,3.86718 5.39063,12.22656 0,5.78125 -2.8125,9.49219 -2.77344,3.71093 -8.39844,5.46875 3.08594,0.70312 5.50781,3.20312 2.46094,2.46094 4.96094,7.5 l 8.16406,16.5625 -16.01562,0 -7.10938,-14.49219 q -2.14843,-4.375 -4.375,-5.97656 -2.1875,-1.60156 -5.85937,-1.60156 l -4.25781,0 z" />
        <path
           inkscape:connector-curvature="0"
           id="path4274"
           style="font-style:normal;font-variant:normal;font-weight:bold;font-stretch:normal;font-size:80px;font-family:sans-serif;-inkscape-font-specification:'sans-serif Bold';fill:#ffffff"
           d="m 226.45508,96.14423 53.75,0 0,11.36719 -19.33594,0 0,46.95312 -15.03906,0 0,-46.95312 -19.375,0 0,-11.36719 z" />
      </g>
      <rect
         ry="12.387236"
         y="877.60632"
         x="143.11246"
         height="147.99477"
         width="249.04848"
         id="rect2997"
         style="fill:#00bbf2;fill-opacity:1;stroke:none" />
      <path
         sodipodi:nodetypes="ccccc"
         inkscape:connector-curvature="0"
         id="path2999"
         d="m 143.26924,891.30035 254.01373,0.922 0,-27.66029 -254.01373,0 z"
         style="fill:#004455;fill-opacity:1;stroke:none" />
      <path
         sodipodi:nodetypes="ccccc"
         inkscape:connector-curvature="0"
         id="path3769"
         d="m 206.36137,891.52149 -25.52022,-0.0907 26.2924,-26.86589 25.5051,0.10159 z"
         style="fill:#ffffff;stroke:none" />
      <path
         sodipodi:nodetypes="ccccc"
         inkscape:connector-curvature="0"
         id="path3769-3"
         d="m 258.90839,891.55013 -25.52022,-0.0907 26.29251,-26.86589 25.50506,0.1016 z"
         style="fill:#ffffff;stroke:none" />
      <path
         sodipodi:nodetypes="ccccc"
         inkscape:connector-curvature="0"
         id="path3769-6"
         d="m 312.45882,891.46821 -25.52029,-0.0907 26.29246,-26.86588 25.50506,0.10159 z"
         style="fill:#ffffff;stroke:none" />
      <path
         sodipodi:nodetypes="ccccc"
         inkscape:connector-curvature="0"
         id="path3769-3-7"
         d="m 365.00578,891.49685 -25.52016,-0.0907 26.29246,-26.86588 25.50505,0.10159 z"
         style="fill:#ffffff;stroke:none" />
      <path
         sodipodi:nodetypes="ccccc"
         inkscape:connector-curvature="0"
         id="path2999-3"
         d="m 135.27816,839.04378 242.07862,-76.95301 8.28385,26.39071 -242.35475,76.07333 z"
         style="fill:#004455;fill-opacity:1;stroke:none" />
      <path
         sodipodi:nodetypes="ccccc"
         inkscape:connector-curvature="0"
         id="path3769-5"
         d="m 195.4082,819.93764 -24.3217,7.7295 33.13155,17.75859 24.30401,-7.73532 z"
         style="fill:#ffffff;stroke:none" />
      <path
         sodipodi:nodetypes="ccccc"
         inkscape:connector-curvature="0"
         id="path3769-3-6"
         d="m 245.53478,804.17326 -24.32168,7.7295 33.13163,17.75856 24.30398,-7.73531 z"
         style="fill:#ffffff;stroke:none" />
      <path
         sodipodi:nodetypes="ccccc"
         inkscape:connector-curvature="0"
         id="path3769-6-2"
         d="m 296.65184,788.21387 -24.32176,7.72952 33.13159,17.75857 24.30398,-7.73531 z"
         style="fill:#ffffff;stroke:none" />
      <path
         sodipodi:nodetypes="ccccc"
         inkscape:connector-curvature="0"
         id="path3769-3-7-9"
         d="m 346.77837,772.44951 -24.32164,7.72949 33.13159,17.75856 24.30398,-7.73531 z"
         style="fill:#ffffff;stroke:none" />
      <path
         sodipodi:nodetypes="cccccc"
         inkscape:connector-curvature="0"
         id="path3861"
         d="m 143.13733,891.7633 39.93253,0 c 0,0 5.30392,-16.66171 5.24826,-16.88575 l -20.53671,-36.67918 -25.10044,0.0554 z"
         style="fill:#00bbf2;fill-opacity:1;stroke:none" />
      <path
         sodipodi:open="true"
         sodipodi:end="6.2784904"
         sodipodi:start="0"
         d="m 154.39443,845.01349 a 3.6509724,3.6509724 0 0 1 -3.64669,3.65097 3.6509724,3.6509724 0 0 1 -3.65525,-3.6424 3.6509724,3.6509724 0 0 1 3.63811,-3.65952 3.6509724,3.6509724 0 0 1 3.66379,3.63381"
         sodipodi:ry="3.6509724"
         sodipodi:rx="3.6509724"
         sodipodi:cy="845.01349"
         sodipodi:cx="150.74345"
         id="path3863"
         style="fill:#ffffff;fill-opacity:1;stroke:none"
         sodipodi:type="arc" />
      <path
         sodipodi:open="true"
         sodipodi:end="6.2784904"
         sodipodi:start="0"
         d="m 154.62262,883.34869 a 3.6509724,3.6509724 0 0 1 -3.64669,3.65097 3.6509724,3.6509724 0 0 1 -3.65524,-3.6424 3.6509724,3.6509724 0 0 1 3.6381,-3.65952 3.6509724,3.6509724 0 0 1 3.66379,3.63381"
         sodipodi:ry="3.6509724"
         sodipodi:rx="3.6509724"
         sodipodi:cy="883.34869"
         sodipodi:cx="150.97165"
         id="path3863-1"
         style="fill:#ffffff;fill-opacity:1;stroke:none"
         sodipodi:type="arc" />
      <path
         sodipodi:open="true"
         sodipodi:end="6.2784904"
         sodipodi:start="0"
         d="m 181.54857,884.48962 a 3.6509724,3.6509724 0 0 1 -3.64669,3.65097 3.6509724,3.6509724 0 0 1 -3.65524,-3.6424 3.6509724,3.6509724 0 0 1 3.6381,-3.65952 3.6509724,3.6509724 0 0 1 3.66379,3.63381"
         sodipodi:ry="3.6509724"
         sodipodi:rx="3.6509724"
         sodipodi:cy="884.48962"
         sodipodi:cx="177.8976"
         id="path3863-2"
         style="fill:#ffffff;fill-opacity:1;stroke:none"
         sodipodi:type="arc" />
      <path
         id="rect4362"
         transform="translate(0,552.36218)"
         d="M 143.11328 407.91992 L 143.11328 459.20508 L 392.16016 459.20508 L 392.16016 407.91992 L 143.11328 407.91992 z "
         style="opacity:1;fill:#004455;fill-opacity:1;stroke:none;stroke-width:0.5;stroke-linecap:round;stroke-miterlimit:4;stroke-dasharray:none;stroke-opacity:1" />
      <g
         id="flowRoot4392"
         style="font-style:normal;font-weight:normal;font-size:40px;line-height:125%;font-family:sans-serif;letter-spacing:0px;word-spacing:0px;fill:#ffffff;fill-opacity:1;stroke:none;stroke-width:1px;stroke-linecap:butt;stroke-linejoin:miter;stroke-opacity:1"
         transform="translate(8,554.36218)">
        <path
           inkscape:connector-curvature="0"
           id="path4401"
           style="font-style:normal;font-variant:normal;font-weight:bold;font-stretch:normal;font-family:sans-serif;-inkscape-font-specification:'sans-serif Bold';fill:#ffffff"
           d="m 179.73437,418.49497 0,6.17187 q -2.40234,-1.07422 -4.6875,-1.62109 -2.28515,-0.54688 -4.3164,-0.54688 -2.69531,0 -3.98438,0.74219 -1.28906,0.74219 -1.28906,2.30469 0,1.17187 0.85938,1.83594 0.8789,0.64453 3.16406,1.11328 l 3.20312,0.64453 q 4.86328,0.97656 6.91407,2.96875 2.05078,1.99219 2.05078,5.66406 0,4.82422 -2.8711,7.1875 -2.85156,2.34375 -8.73047,2.34375 -2.77343,0 -5.5664,-0.52734 -2.79297,-0.52735 -5.58594,-1.5625 l 0,-6.34766 q 2.79297,1.48438 5.39063,2.24609 2.61718,0.74219 5.03906,0.74219 2.46094,0 3.76953,-0.82031 1.30859,-0.82031 1.30859,-2.34375 0,-1.36719 -0.89843,-2.10938 -0.87891,-0.74218 -3.53516,-1.32812 l -2.91016,-0.64453 q -4.375,-0.9375 -6.40625,-2.98828 -2.01172,-2.05078 -2.01172,-5.52735 0,-4.35547 2.8125,-6.69922 2.8125,-2.34375 8.08594,-2.34375 2.40235,0 4.94141,0.3711 2.53906,0.35156 5.2539,1.07422 z" />
        <path
           inkscape:connector-curvature="0"
           id="path4403"
           style="font-style:normal;font-variant:normal;font-weight:bold;font-stretch:normal;font-family:sans-serif;-inkscape-font-specification:'sans-serif Bold';fill:#ffffff"
           d="m 188.26953,417.577 7.51953,0 0,17.48047 q 0,3.61328 1.17188,5.17578 1.1914,1.54297 3.86718,1.54297 2.69532,0 3.86719,-1.54297 1.19141,-1.5625 1.19141,-5.17578 l 0,-17.48047 7.51953,0 0,17.48047 q 0,6.1914 -3.10547,9.21875 -3.10547,3.02734 -9.47266,3.02734 -6.34765,0 -9.45312,-3.02734 -3.10547,-3.02735 -3.10547,-9.21875 l 0,-17.48047 z" />
        <path
           inkscape:connector-curvature="0"
           id="path4405"
           style="font-style:normal;font-variant:normal;font-weight:bold;font-stretch:normal;font-family:sans-serif;-inkscape-font-specification:'sans-serif Bold';fill:#ffffff"
           d="m 232.44922,428.86606 q 1.77734,0 2.69531,-0.78125 0.91797,-0.78125 0.91797,-2.30469 0,-1.5039 -0.91797,-2.28515 -0.91797,-0.80078 -2.69531,-0.80078 l -4.16016,0 0,6.17187 4.16016,0 z m 0.2539,12.75391 q 2.26563,0 3.39844,-0.95703 1.15235,-0.95704 1.15235,-2.89063 0,-1.89453 -1.13282,-2.83203 -1.13281,-0.95703 -3.41797,-0.95703 l -4.41406,0 0,7.63672 4.41406,0 z m 6.99219,-10.48828 q 2.42188,0.70312 3.75,2.59765 1.32813,1.89453 1.32813,4.64844 0,4.21875 -2.85157,6.28906 -2.85156,2.07031 -8.67187,2.07031 l -12.48047,0 0,-29.16015 11.28906,0 q 6.07422,0 8.78907,1.83594 2.73437,1.83593 2.73437,5.8789 0,2.12891 -0.99609,3.63281 -0.9961,1.48438 -2.89063,2.20704 z" />
        <path
           inkscape:connector-curvature="0"
           id="path4407"
           style="font-style:normal;font-variant:normal;font-weight:bold;font-stretch:normal;font-family:sans-serif;-inkscape-font-specification:'sans-serif Bold';fill:#ffffff"
           d="m 247.76172,417.577 26.875,0 0,5.68359 -9.66797,0 0,23.47656 -7.51953,0 0,-23.47656 -9.6875,0 0,-5.68359 z" />
        <path
           inkscape:connector-curvature="0"
           id="path4409"
           style="font-style:normal;font-variant:normal;font-weight:bold;font-stretch:normal;font-family:sans-serif;-inkscape-font-specification:'sans-serif Bold';fill:#ffffff"
           d="m 278.50391,417.577 7.51953,0 0,29.16015 -7.51953,0 0,-29.16015 z" />
        <path
           inkscape:connector-curvature="0"
           id="path4411"
           style="font-style:normal;font-variant:normal;font-weight:bold;font-stretch:normal;font-family:sans-serif;-inkscape-font-specification:'sans-serif Bold';fill:#ffffff"
           d="m 289.94922,417.577 26.875,0 0,5.68359 -9.66797,0 0,23.47656 -7.51953,0 0,-23.47656 -9.6875,0 0,-5.68359 z" />
        <path
           inkscape:connector-curvature="0"
           id="path4413"
           style="font-style:normal;font-variant:normal;font-weight:bold;font-stretch:normal;font-family:sans-serif;-inkscape-font-specification:'sans-serif Bold';fill:#ffffff"
           d="m 320.69141,417.577 7.51953,0 0,23.47656 13.20312,0 0,5.68359 -20.72265,0 0,-29.16015 z" />
        <path
           inkscape:connector-curvature="0"
           id="path4415"
           style="font-style:normal;font-variant:normal;font-weight:bold;font-stretch:normal;font-family:sans-serif;-inkscape-font-specification:'sans-serif Bold';fill:#ffffff"
           d="m 346.16016,417.577 20.29296,0 0,5.68359 -12.77343,0 0,5.42969 12.01172,0 0,5.68359 -12.01172,0 0,6.67969 13.20312,0 0,5.68359 -20.72265,0 0,-29.16015 z" />
      </g>
    </g>
  </g>
</svg>
