<?xml version="1.0" encoding="UTF-8" standalone="no"?>
<!-- Created with Inkscape (http://www.inkscape.org/) -->

<svg
   xmlns:dc="http://purl.org/dc/elements/1.1/"
   xmlns:cc="http://creativecommons.org/ns#"
   xmlns:rdf="http://www.w3.org/1999/02/22-rdf-syntax-ns#"
   xmlns:svg="http://www.w3.org/2000/svg"
   xmlns="http://www.w3.org/2000/svg"
   xmlns:sodipodi="http://sodipodi.sourceforge.net/DTD/sodipodi-0.dtd"
   xmlns:inkscape="http://www.inkscape.org/namespaces/inkscape"
   width="500"
   height="500"
   id="svg2"
   version="1.1"
   inkscape:version="0.91 r13725"
   sodipodi:docname="application-rss+xml.svg">
  <defs
     id="defs4" />
  <sodipodi:namedview
     id="base"
     pagecolor="#ffffff"
     bordercolor="#666666"
     borderopacity="1.0"
     inkscape:pageopacity="0.0"
     inkscape:pageshadow="2"
     inkscape:zoom="0.60666665"
     inkscape:cx="546.85388"
     inkscape:cy="130.62637"
     inkscape:document-units="px"
     inkscape:current-layer="layer1"
     showgrid="false"
     inkscape:window-width="1366"
     inkscape:window-height="715"
     inkscape:window-x="0"
     inkscape:window-y="24"
     inkscape:window-maximized="1" />
  <metadata
     id="metadata7">
    <rdf:RDF>
      <cc:Work
         rdf:about="">
        <dc:format>image/svg+xml</dc:format>
        <dc:type
           rdf:resource="http://purl.org/dc/dcmitype/StillImage" />
        <dc:title />
      </cc:Work>
    </rdf:RDF>
  </metadata>
  <g
     inkscape:label="Layer 1"
     inkscape:groupmode="layer"
     id="layer1"
     transform="translate(0,-552.36218)">
    <g
       id="g4169">
      <path
         sodipodi:nodetypes="ccccc"
         inkscape:connector-curvature="0"
         id="path4230"
         d="m 47.004565,710.279 53.222045,52.09856 -1.660055,-73.04185 -51.60095,-0.2451 z"
         style="fill:#ca5100;fill-opacity:1;fill-rule:evenodd;stroke:none;stroke-width:1px;stroke-linecap:butt;stroke-linejoin:miter;stroke-opacity:1" />
      <path
         inkscape:connector-curvature="0"
         id="path3364"
         d="m 81.006575,1033.9023 336.888385,-1.1739 1.17377,-363.8863 -88.03697,-89.21086 -250.025185,0 z"
         style="fill:#f2f2f2;fill-rule:evenodd;stroke:#afafaf;stroke-width:5.03546047;stroke-linecap:butt;stroke-linejoin:miter;stroke-miterlimit:4;stroke-dasharray:none;stroke-opacity:1" />
      <path
         sodipodi:nodetypes="cccc"
         inkscape:connector-curvature="0"
         id="path4166"
         d="m 415.48469,666.99794 -82.16431,-0.58691 0.75854,-83.80351 z"
         style="fill:#afafaf;fill-opacity:1;fill-rule:evenodd;stroke:#afafaf;stroke-width:5.03546047;stroke-linecap:butt;stroke-linejoin:miter;stroke-miterlimit:4;stroke-dasharray:none;stroke-opacity:1" />
      <rect
         y="626.25409"
         x="47.105244"
         height="84.350876"
         width="227.05261"
         id="rect4228"
         style="fill:#ff6600;fill-opacity:1;stroke:none;stroke-width:5;stroke-miterlimit:4;stroke-dasharray:none;stroke-opacity:1" />
      <path
         inkscape:connector-curvature="0"
         style="fill:#ff6600;fill-opacity:1;stroke:none"
         d="m 109.59892,754.01481 0,54.99991 54.99998,0 c 91.4099,0 164.99994,73.59013 164.99994,165.00004 l 0,54.99994 54.99996,0 0,-54.99994 c 0,-121.87986 -98.11999,-219.99995 -219.9999,-219.99995 l -54.99998,0 z m 0,110.00003 0,54.99998 54.99998,0 c 30.46993,0 54.99999,24.53004 54.99999,54.99994 l 0,54.99994 55,0 0,-54.99994 c 0,-60.93997 -49.06007,-109.99992 -109.99999,-109.99992 l -54.99998,0 z m 32.08335,100.83322 c -17.7742,0 -32.08335,14.3092 -32.08335,32.0834 0,17.77424 14.30915,32.08324 32.08335,32.08324 17.77413,0 32.08327,-14.309 32.08327,-32.08324 0,-17.7742 -14.30914,-32.0834 -32.08327,-32.0834 z"
         id="rect4116-7-3" />
      <g
         id="flowRoot4154"
         style="font-style:normal;font-weight:normal;font-size:40px;line-height:125%;font-family:sans-serif;letter-spacing:0px;word-spacing:0px;fill:#000000;fill-opacity:1;stroke:none;stroke-width:1px;stroke-linecap:butt;stroke-linejoin:miter;stroke-opacity:1"
         transform="translate(13.296703,535.05449)">
        <path
           inkscape:connector-curvature="0"
           id="path4163"
           style="font-style:normal;font-variant:normal;font-weight:bold;font-stretch:normal;font-size:80px;font-family:sans-serif;-inkscape-font-specification:'sans-serif Bold';fill:#ffffff"
           d="m 91.347656,127.77314 q 4.726563,0 6.757813,-1.75782 2.070311,-1.75781 2.070311,-5.78125 0,-3.98437 -2.070311,-5.70312 -2.03125,-1.71875 -6.757813,-1.71875 l -6.328125,0 0,14.96094 6.328125,0 z m -6.328125,10.39062 0,22.07031 -15.039062,0 0,-58.32031 22.96875,0 q 11.523441,0 16.875001,3.86719 5.39062,3.86719 5.39062,12.22656 0,5.78125 -2.8125,9.49219 -2.77343,3.71094 -8.39843,5.46875 3.08593,0.70312 5.50781,3.20312 2.46094,2.46094 4.96094,7.5 l 8.16406,16.5625 -16.01563,0 -7.109371,-14.49218 q -2.148438,-4.375 -4.375,-5.97657 -2.1875,-1.60156 -5.859375,-1.60156 l -4.257813,0 z" />
        <path
           inkscape:connector-curvature="0"
           id="path4165"
           style="font-style:normal;font-variant:normal;font-weight:bold;font-stretch:normal;font-size:80px;font-family:sans-serif;-inkscape-font-specification:'sans-serif Bold';fill:#ffffff"
           d="m 172.12891,103.7497 0,12.34375 q -4.80469,-2.14844 -9.375,-3.24219 -4.57032,-1.09375 -8.63282,-1.09375 -5.39062,0 -7.96875,1.48438 -2.57812,1.48437 -2.57812,4.60937 0,2.34375 1.71875,3.67188 1.75781,1.28906 6.32812,2.22656 l 6.40625,1.28906 q 9.72657,1.95313 13.82813,5.9375 4.10156,3.98438 4.10156,11.32813 0,9.64843 -5.74219,14.375 -5.70312,4.6875 -17.46093,4.6875 -5.54688,0 -11.13282,-1.05469 -5.58593,-1.05469 -11.17187,-3.125 l 0,-12.69531 q 5.58594,2.96875 10.78125,4.49218 5.23437,1.48438 10.07812,1.48438 4.92188,0 7.53907,-1.64063 2.61718,-1.64062 2.61718,-4.6875 0,-2.73437 -1.79687,-4.21875 -1.75781,-1.48437 -7.07031,-2.65625 l -5.82032,-1.28906 q -8.75,-1.875 -12.8125,-5.97656 -4.02343,-4.10156 -4.02343,-11.05469 0,-8.71094 5.625,-13.39844 5.625,-4.6875 16.17187,-4.6875 4.80469,0 9.88281,0.74219 5.07813,0.70313 10.50782,2.14844 z" />
        <path
           inkscape:connector-curvature="0"
           id="path4167"
           style="font-style:normal;font-variant:normal;font-weight:bold;font-stretch:normal;font-size:80px;font-family:sans-serif;-inkscape-font-specification:'sans-serif Bold';fill:#ffffff"
           d="m 226.19141,103.7497 0,12.34375 q -4.80469,-2.14844 -9.375,-3.24219 -4.57032,-1.09375 -8.63282,-1.09375 -5.39062,0 -7.96875,1.48438 -2.57812,1.48437 -2.57812,4.60937 0,2.34375 1.71875,3.67188 1.75781,1.28906 6.32812,2.22656 l 6.40625,1.28906 q 9.72657,1.95313 13.82813,5.9375 4.10156,3.98438 4.10156,11.32813 0,9.64843 -5.74219,14.375 -5.70312,4.6875 -17.46093,4.6875 -5.54688,0 -11.13282,-1.05469 -5.58593,-1.05469 -11.17187,-3.125 l 0,-12.69531 q 5.58594,2.96875 10.78125,4.49218 5.23437,1.48438 10.07812,1.48438 4.92188,0 7.53907,-1.64063 2.61718,-1.64062 2.61718,-4.6875 0,-2.73437 -1.79687,-4.21875 -1.75781,-1.48437 -7.07031,-2.65625 l -5.82032,-1.28906 q -8.75,-1.875 -12.8125,-5.97656 -4.02343,-4.10156 -4.02343,-11.05469 0,-8.71094 5.625,-13.39844 5.625,-4.6875 16.17187,-4.6875 4.80469,0 9.88281,0.74219 5.07813,0.70313 10.50782,2.14844 z" />
      </g>
    </g>
  </g>
</svg>
