<?xml version="1.0" encoding="UTF-8" standalone="no"?>
<!-- Created with Inkscape (http://www.inkscape.org/) -->

<svg
   xmlns:dc="http://purl.org/dc/elements/1.1/"
   xmlns:cc="http://creativecommons.org/ns#"
   xmlns:rdf="http://www.w3.org/1999/02/22-rdf-syntax-ns#"
   xmlns:svg="http://www.w3.org/2000/svg"
   xmlns="http://www.w3.org/2000/svg"
   xmlns:sodipodi="http://sodipodi.sourceforge.net/DTD/sodipodi-0.dtd"
   xmlns:inkscape="http://www.inkscape.org/namespaces/inkscape"
   width="500"
   height="500"
   id="svg2"
   version="1.1"
   inkscape:version="0.91 r13725"
   sodipodi:docname="application-x-cda.svg">
  <defs
     id="defs4" />
  <sodipodi:namedview
     id="base"
     pagecolor="#ffffff"
     bordercolor="#666666"
     borderopacity="1.0"
     inkscape:pageopacity="0.0"
     inkscape:pageshadow="2"
     inkscape:zoom="0.42897809"
     inkscape:cx="488.02681"
     inkscape:cy="319.10974"
     inkscape:document-units="px"
     inkscape:current-layer="layer1"
     showgrid="false"
     inkscape:window-width="1366"
     inkscape:window-height="715"
     inkscape:window-x="0"
     inkscape:window-y="24"
     inkscape:window-maximized="1" />
  <metadata
     id="metadata7">
    <rdf:RDF>
      <cc:Work
         rdf:about="">
        <dc:format>image/svg+xml</dc:format>
        <dc:type
           rdf:resource="http://purl.org/dc/dcmitype/StillImage" />
        <dc:title />
      </cc:Work>
    </rdf:RDF>
  </metadata>
  <g
     inkscape:label="Layer 1"
     inkscape:groupmode="layer"
     id="layer1"
     transform="translate(0,-552.36218)">
    <g
       id="g4194">
      <path
         sodipodi:nodetypes="ccccc"
         inkscape:connector-curvature="0"
         id="path4230"
         d="m 63.039,701.21206 53.222,52.09856 -1.66,-73.04185 L 63,680.02367 Z"
         style="fill:#333333;fill-rule:evenodd;stroke:none;stroke-width:1px;stroke-linecap:butt;stroke-linejoin:miter;stroke-opacity:1" />
      <path
         inkscape:connector-curvature="0"
         id="path3364"
         d="m 97.041,1024.8357 336.8884,-1.1739 1.1738,-363.88664 -88.037,-89.21086 -250.0252,0 z"
         style="fill:#f2f2f2;fill-rule:evenodd;stroke:#afafaf;stroke-width:5.03546047;stroke-linecap:butt;stroke-linejoin:miter;stroke-miterlimit:4;stroke-dasharray:none;stroke-opacity:1" />
      <path
         sodipodi:nodetypes="cccc"
         inkscape:connector-curvature="0"
         id="path4166"
         d="m 431.5191,657.931 -82.1643,-0.58691 0.7585,-83.80351 z"
         style="fill:#afafaf;fill-opacity:1;fill-rule:evenodd;stroke:#afafaf;stroke-width:5.03546047;stroke-linecap:butt;stroke-linejoin:miter;stroke-miterlimit:4;stroke-dasharray:none;stroke-opacity:1" />
      <rect
         y="617.18713"
         x="63.139675"
         height="84.350876"
         width="224.93568"
         id="rect4228"
         style="fill:#394050;fill-opacity:1;stroke:none;stroke-width:5;stroke-miterlimit:4;stroke-dasharray:none;stroke-opacity:1" />
      <g
         id="g4189"
         transform="translate(-15.735301,-8.3516924)">
        <g
           id="g892"
           transform="matrix(1.6097691,-0.42629163,-0.42629163,-1.6097691,297.93511,1023.2773)">
          <path
             d="m 0,0 c -41.446,0 -75.045,33.599 -75.045,75.045 0,41.446 33.599,75.045 75.045,75.045 L 0,80.131 c -2.809,0 -5.086,-2.277 -5.086,-5.086 0,-2.81 2.277,-5.086 5.086,-5.086 L 0,0 Z m 0,150.09 c 41.447,0 75.045,-33.599 75.045,-75.045 C 75.045,33.599 41.447,0 0,0 l 0,69.959 c 2.809,0 5.086,2.276 5.086,5.086 0,2.809 -2.277,5.086 -5.086,5.086 l 0,69.959 z"
             style="fill:#999999;fill-opacity:1;fill-rule:evenodd;stroke:none"
             id="path894"
             inkscape:connector-curvature="0" />
        </g>
        <g
           id="g1694"
           transform="matrix(1.6097691,-0.42629163,-0.42629163,-1.6097691,297.93511,1023.2773)"
           style="fill:#cfcfcf;fill-opacity:1">
          <path
             d="m 0,0 c -41.446,0 -75.045,33.599 -75.045,75.045 0,41.446 33.599,75.045 75.045,75.045 L 0,80.131 c -2.809,0 -5.086,-2.277 -5.086,-5.086 0,-2.81 2.277,-5.086 5.086,-5.086 L 0,0 Z m 0,150.09 c 41.447,0 75.045,-33.599 75.045,-75.045 C 75.045,33.599 41.447,0 0,0 l 0,69.959 c 2.809,0 5.086,2.276 5.086,5.086 0,2.809 -2.277,5.086 -5.086,5.086 l 0,69.959 z"
             style="fill:#cfcfcf;fill-opacity:1;fill-rule:evenodd;stroke:none"
             id="path1696"
             inkscape:connector-curvature="0" />
        </g>
        <g
           id="g2418"
           transform="matrix(1.6097691,-0.42629163,-0.42629163,-1.6097691,277.37403,945.63429)"
           style="fill:#394050;fill-opacity:1">
          <path
             d="m 0,0 c -14.808,0 -26.812,12.005 -26.812,26.813 0,14.808 12.004,26.812 26.812,26.812 L 0,31.898 c -2.809,0 -5.086,-2.277 -5.086,-5.085 0,-2.81 2.277,-5.086 5.086,-5.086 L 0,0 Z m 0,53.625 c 14.808,0 26.813,-12.004 26.813,-26.812 C 26.813,12.005 14.808,0 0,0 l 0,21.727 c 2.809,0 5.086,2.276 5.086,5.086 0,2.808 -2.277,5.085 -5.086,5.085 l 0,21.727 z"
             style="fill:#394050;fill-opacity:1;fill-rule:evenodd;stroke:none"
             id="path2420"
             inkscape:connector-curvature="0" />
        </g>
        <g
           id="g2422"
           transform="matrix(1.6097691,-0.42629163,-0.42629163,-1.6097691,275.53486,938.68904)"
           style="fill:#ababab;fill-opacity:1">
          <path
             d="m 0,0 c -12.425,0 -22.498,10.073 -22.498,22.498 0,12.426 10.073,22.498 22.498,22.498 L 0,27.584 c -2.809,0 -5.086,-2.277 -5.086,-5.086 0,-2.81 2.277,-5.086 5.086,-5.086 L 0,0 Z m 0,44.996 c 12.425,0 22.498,-10.072 22.498,-22.498 C 22.498,10.073 12.425,0 0,0 l 0,17.412 c 2.809,0 5.086,2.276 5.086,5.086 0,2.809 -2.277,5.086 -5.086,5.086 l 0,17.412 z"
             style="fill:#ababab;fill-opacity:1;fill-rule:evenodd;stroke:none"
             id="path2424"
             inkscape:connector-curvature="0" />
        </g>
        <g
           id="g2426"
           transform="matrix(1.6097691,-0.42629163,-0.42629163,-1.6097691,269.97844,917.70704)"
           style="fill:#394050;fill-opacity:1">
          <path
             d="m 0,0 c -5.227,0 -9.464,4.237 -9.464,9.464 0,5.226 4.237,9.464 9.464,9.464 L 0,14.55 c -2.809,0 -5.086,-2.278 -5.086,-5.086 0,-2.81 2.277,-5.086 5.086,-5.086 L 0,0 Z m 0,18.928 c 5.227,0 9.464,-4.238 9.464,-9.464 C 9.464,4.237 5.227,0 0,0 l 0,4.378 c 2.809,0 5.086,2.276 5.086,5.086 0,2.808 -2.277,5.086 -5.086,5.086 l 0,4.378 z"
             style="fill:#394050;fill-opacity:1;fill-rule:evenodd;stroke:none"
             id="path2428"
             inkscape:connector-curvature="0" />
        </g>
      </g>
      <path
         sodipodi:nodetypes="zzzcccczczccz"
         inkscape:connector-curvature="0"
         id="path3834"
         d="m 340.59935,995.89332 c -16.0752,8.62338 -40.541,5.61508 -47.0643,-8.25689 -6.5233,-13.87185 4.0745,-28.9691 21.4429,-38.68642 17.3685,-9.7174 34.2911,-2.59802 34.2911,-2.59802 l 1.2386,-123.44048 12.5036,4.02628 8.174,19.55898 c 0,0 30.2419,16.13613 37.2204,53.13038 6.9786,36.99425 -36.7825,65.9751 -36.7825,65.9751 0,0 36.8656,-38.7237 27.7829,-67.21365 -9.0827,-28.48992 -37.1246,-31.45708 -37.1246,-31.45708 l 0.8029,101.51698 c 0,0 -6.4097,18.82144 -22.485,27.44482 z"
         style="fill:#394050;fill-opacity:1;stroke:none" />
      <g
         id="flowRoot4179"
         style="font-style:normal;font-weight:normal;font-size:40px;line-height:125%;font-family:sans-serif;letter-spacing:0px;word-spacing:0px;fill:#ffffff;fill-opacity:1;stroke:none;stroke-width:1px;stroke-linecap:butt;stroke-linejoin:miter;stroke-opacity:1"
         transform="translate(332.1848,467.27625)">
        <path
           inkscape:connector-curvature="0"
           id="path4188"
           style="font-style:normal;font-variant:normal;font-weight:bold;font-stretch:normal;font-size:80px;font-family:sans-serif;-inkscape-font-specification:'sans-serif Bold';fill:#ffffff"
           d="m -186.51172,217.54462 q -4.14062,2.14844 -8.63281,3.24219 -4.49219,1.09375 -9.375,1.09375 -14.57031,0 -23.08594,-8.125 -8.51562,-8.16406 -8.51562,-22.10938 0,-13.98437 8.51562,-22.10937 8.51563,-8.16406 23.08594,-8.16406 4.88281,0 9.375,1.09375 4.49219,1.09375 8.63281,3.24218 l 0,12.07032 q -4.17969,-2.85157 -8.24219,-4.17969 -4.0625,-1.32813 -8.55468,-1.32813 -8.04688,0 -12.65625,5.15625 -4.60938,5.15625 -4.60938,14.21875 0,9.02344 4.60938,14.17969 4.60937,5.15625 12.65625,5.15625 4.49218,0 8.55468,-1.32812 4.0625,-1.32813 8.24219,-4.17969 l 0,12.07031 z" />
        <path
           inkscape:connector-curvature="0"
           id="path4190"
           style="font-style:normal;font-variant:normal;font-weight:bold;font-stretch:normal;font-size:80px;font-family:sans-serif;-inkscape-font-specification:'sans-serif Bold';fill:#ffffff"
           d="m -158.97266,173.79462 0,35.58594 5.39063,0 q 9.21875,0 14.0625,-4.57031 4.88281,-4.57032 4.88281,-13.28125 0,-8.67188 -4.84375,-13.20313 -4.84375,-4.53125 -14.10156,-4.53125 l -5.39063,0 z m -15.03906,-11.36719 15.85938,0 q 13.28125,0 19.76562,1.91407 6.52344,1.875 11.17188,6.40625 4.10156,3.94531 6.09375,9.10156 1.99218,5.15625 1.99218,11.67969 0,6.60156 -1.99218,11.79687 -1.99219,5.15625 -6.09375,9.10156 -4.6875,4.53125 -11.25,6.44532 -6.5625,1.875 -19.6875,1.875 l -15.85938,0 0,-58.32032 z" />
        <path
           inkscape:connector-curvature="0"
           id="path4192"
           style="font-style:normal;font-variant:normal;font-weight:bold;font-stretch:normal;font-size:80px;font-family:sans-serif;-inkscape-font-specification:'sans-serif Bold';fill:#ffffff"
           d="m -72.214844,210.12275 -23.515625,0 -3.710937,10.625 -15.117184,0 21.601559,-58.32032 17.929687,0 21.601563,58.32032 -15.117188,0 -3.671875,-10.625 z m -19.765625,-10.82032 15.976563,0 -7.96875,-23.20312 -8.007813,23.20312 z" />
      </g>
    </g>
  </g>
</svg>
