<?xml version="1.0" encoding="UTF-8" standalone="no"?>
<!-- Created with Inkscape (http://www.inkscape.org/) -->

<svg
   xmlns:dc="http://purl.org/dc/elements/1.1/"
   xmlns:cc="http://creativecommons.org/ns#"
   xmlns:rdf="http://www.w3.org/1999/02/22-rdf-syntax-ns#"
   xmlns:svg="http://www.w3.org/2000/svg"
   xmlns="http://www.w3.org/2000/svg"
   xmlns:sodipodi="http://sodipodi.sourceforge.net/DTD/sodipodi-0.dtd"
   xmlns:inkscape="http://www.inkscape.org/namespaces/inkscape"
   width="500"
   height="500"
   id="svg2"
   version="1.1"
   inkscape:version="0.91 r13725"
   sodipodi:docname="application-x-pem-key.svg">
  <defs
     id="defs4" />
  <sodipodi:namedview
     id="base"
     pagecolor="#ffffff"
     bordercolor="#666666"
     borderopacity="1.0"
     inkscape:pageopacity="0.0"
     inkscape:pageshadow="2"
     inkscape:zoom="0.60666666"
     inkscape:cx="128.45041"
     inkscape:cy="247.65004"
     inkscape:document-units="px"
     inkscape:current-layer="layer1"
     showgrid="false"
     inkscape:window-width="1366"
     inkscape:window-height="715"
     inkscape:window-x="0"
     inkscape:window-y="24"
     inkscape:window-maximized="1" />
  <metadata
     id="metadata7">
    <rdf:RDF>
      <cc:Work
         rdf:about="">
        <dc:format>image/svg+xml</dc:format>
        <dc:type
           rdf:resource="http://purl.org/dc/dcmitype/StillImage" />
        <dc:title />
      </cc:Work>
    </rdf:RDF>
  </metadata>
  <g
     inkscape:label="Layer 1"
     inkscape:groupmode="layer"
     id="layer1"
     transform="translate(0,-552.36218)">
    <g
       id="g4175">
      <path
         sodipodi:nodetypes="ccccc"
         inkscape:connector-curvature="0"
         id="path4230"
         d="m 63.19075,706.79487 53.22204,52.09856 -1.66005,-73.04185 -51.60095,-0.2451 z"
         style="fill:#955429;fill-opacity:1;fill-rule:evenodd;stroke:none;stroke-width:1px;stroke-linecap:butt;stroke-linejoin:miter;stroke-opacity:1" />
      <path
         inkscape:connector-curvature="0"
         id="path3364"
         d="m 96.90137,1029.8357 336.88838,-1.1739 1.1737,-363.88661 -88.0369,-89.21086 -250.02518,0 z"
         style="fill:#f2f2f2;fill-rule:evenodd;stroke:#afafaf;stroke-width:5.03546047;stroke-linecap:butt;stroke-linejoin:miter;stroke-miterlimit:4;stroke-dasharray:none;stroke-opacity:1" />
      <path
         sodipodi:nodetypes="cccc"
         inkscape:connector-curvature="0"
         id="path4166"
         d="m 431.37945,662.93103 -82.1642,-0.58691 0.7585,-83.80351 z"
         style="fill:#afafaf;fill-opacity:1;fill-rule:evenodd;stroke:#afafaf;stroke-width:5.03546047;stroke-linecap:butt;stroke-linejoin:miter;stroke-miterlimit:4;stroke-dasharray:none;stroke-opacity:1" />
      <rect
         y="622.18726"
         x="63"
         height="84.350876"
         width="224.93568"
         id="rect4228"
         style="fill:#c87137;fill-opacity:1;stroke:none;stroke-width:5;stroke-miterlimit:4;stroke-dasharray:none;stroke-opacity:1" />
      <path
         sodipodi:nodetypes="czzzccczccc"
         inkscape:connector-curvature="0"
         id="path3767"
         d="m 184.52509,905.30611 c 0,0 -1.0282,-76.71526 0,-84.52906 1.02819,-7.81375 10.33379,-71.01324 80.54598,-70.36707 70.21211,0.64616 78.25791,59.96467 79.66083,67.71172 1.40292,7.74705 1.32764,86.29928 1.32764,86.29928 l -33.63458,0.88513 -0.44255,-75.23528 c 0,0 -4.9192,-43.87585 -48.68161,-42.92835 -43.76244,0.9475 -44.69857,43.37092 -44.69857,43.37092 l -0.44256,74.35014 z"
         style="fill:#b3b3b3;fill-opacity:1;stroke:none" />
      <path
         sodipodi:nodetypes="ccccc"
         inkscape:connector-curvature="0"
         id="path2997"
         d="m 158.97751,1025.0921 213.42331,0.313 -0.31297,-130.49492 -213.11034,0 z"
         style="fill:#c87137;fill-opacity:1;stroke:none" />
      <path
         sodipodi:open="true"
         sodipodi:end="6.2784904"
         sodipodi:start="0"
         d="m 308.88452,964.16656 a 43.370911,42.928352 0 0 1 -43.32,42.92834 43.370911,42.928352 0 0 1 -43.4217,-42.82756 43.370911,42.928352 0 0 1 43.21807,-43.02886 43.370911,42.928352 0 0 1 43.52315,42.72654"
         sodipodi:ry="42.928352"
         sodipodi:rx="43.370911"
         sodipodi:cy="964.16656"
         sodipodi:cx="265.51361"
         id="path3769"
         style="fill:#ebebeb;fill-opacity:1;stroke:none"
         sodipodi:type="arc" />
      <path
         sodipodi:open="true"
         sodipodi:end="6.2784904"
         sodipodi:start="0"
         d="m 274.09115,953.1358 a 8.2094946,7.9328942 0 0 1 -8.19986,7.93289 8.2094946,7.9328942 0 0 1 -8.21911,-7.91426 8.2094946,7.9328942 0 0 1 8.18057,-7.95147 8.2094946,7.9328942 0 0 1 8.23831,7.8956"
         sodipodi:ry="7.9328942"
         sodipodi:rx="8.2094946"
         sodipodi:cy="953.1358"
         sodipodi:cx="265.88165"
         id="path3771"
         style="fill:#394050;fill-opacity:1;stroke:none"
         sodipodi:type="arc" />
      <path
         inkscape:connector-curvature="0"
         id="path3773"
         d="m 266.21358,955.07205 0.22125,32.30689"
         style="fill:#394050;stroke:#394050;stroke-width:6.19584465;stroke-linecap:round;stroke-linejoin:miter;stroke-miterlimit:4;stroke-dasharray:none;stroke-opacity:1" />
      <g
         id="flowRoot4160"
         style="font-style:normal;font-weight:normal;font-size:40px;line-height:125%;font-family:sans-serif;letter-spacing:0px;word-spacing:0px;fill:#ffffff;fill-opacity:1;stroke:none;stroke-width:1px;stroke-linecap:butt;stroke-linejoin:miter;stroke-opacity:1"
         transform="translate(473.07693,495.02152)">
        <path
           inkscape:connector-curvature="0"
           id="path4169"
           style="font-style:normal;font-variant:normal;font-weight:bold;font-stretch:normal;font-size:80px;font-family:sans-serif;-inkscape-font-specification:'sans-serif Bold';fill:#ffffff"
           d="m -378.37109,139.00165 24.96093,0 q 11.13282,0 17.07032,4.96094 5.97656,4.92187 5.97656,14.0625 0,9.17969 -5.97656,14.14062 -5.9375,4.92188 -17.07032,4.92188 l -9.92187,0 0,20.23437 -15.03906,0 0,-58.32031 z m 15.03906,10.89844 0,16.28906 8.32031,0 q 4.375,0 6.75781,-2.10937 2.38282,-2.14844 2.38282,-6.05469 0,-3.90625 -2.38282,-6.01563 -2.38281,-2.10937 -6.75781,-2.10937 l -8.32031,0 z" />
        <path
           inkscape:connector-curvature="0"
           id="path4171"
           style="font-style:normal;font-variant:normal;font-weight:bold;font-stretch:normal;font-size:80px;font-family:sans-serif;-inkscape-font-specification:'sans-serif Bold';fill:#ffffff"
           d="m -319.77734,139.00165 40.58593,0 0,11.36719 -25.54687,0 0,10.85937 24.02344,0 0,11.36719 -24.02344,0 0,13.35938 26.40625,0 0,11.36718 -41.44531,0 0,-58.32031 z" />
        <path
           inkscape:connector-curvature="0"
           id="path4173"
           style="font-style:normal;font-variant:normal;font-weight:bold;font-stretch:normal;font-size:80px;font-family:sans-serif;-inkscape-font-specification:'sans-serif Bold';fill:#ffffff"
           d="m -265.08984,139.00165 19.14062,0 13.28125,31.21094 13.35938,-31.21094 19.10156,0 0,58.32031 -14.21875,0 0,-42.65625 -13.4375,31.44532 -9.53125,0 -13.4375,-31.44532 0,42.65625 -14.25781,0 0,-58.32031 z" />
      </g>
    </g>
  </g>
</svg>
