<?xml version="1.0" encoding="UTF-8" standalone="no"?>
<!-- Created with Inkscape (http://www.inkscape.org/) -->

<svg
   xmlns:dc="http://purl.org/dc/elements/1.1/"
   xmlns:cc="http://creativecommons.org/ns#"
   xmlns:rdf="http://www.w3.org/1999/02/22-rdf-syntax-ns#"
   xmlns:svg="http://www.w3.org/2000/svg"
   xmlns="http://www.w3.org/2000/svg"
   xmlns:sodipodi="http://sodipodi.sourceforge.net/DTD/sodipodi-0.dtd"
   xmlns:inkscape="http://www.inkscape.org/namespaces/inkscape"
   width="500"
   height="500"
   id="svg2"
   version="1.1"
   inkscape:version="0.91 r13725"
   sodipodi:docname="application-x-shockwave-flash.svg">
  <defs
     id="defs4" />
  <sodipodi:namedview
     id="base"
     pagecolor="#ffffff"
     bordercolor="#666666"
     borderopacity="1.0"
     inkscape:pageopacity="0.0"
     inkscape:pageshadow="2"
     inkscape:zoom="0.60666663"
     inkscape:cx="-349.5858"
     inkscape:cy="131.00172"
     inkscape:document-units="px"
     inkscape:current-layer="layer1"
     showgrid="false"
     inkscape:window-width="1366"
     inkscape:window-height="715"
     inkscape:window-x="0"
     inkscape:window-y="24"
     inkscape:window-maximized="1" />
  <metadata
     id="metadata7">
    <rdf:RDF>
      <cc:Work
         rdf:about="">
        <dc:format>image/svg+xml</dc:format>
        <dc:type
           rdf:resource="http://purl.org/dc/dcmitype/StillImage" />
        <dc:title />
      </cc:Work>
    </rdf:RDF>
  </metadata>
  <g
     inkscape:label="Layer 1"
     inkscape:groupmode="layer"
     id="layer1"
     transform="translate(0,-552.36218)">
    <g
       id="g3381">
      <path
         sodipodi:nodetypes="ccccc"
         inkscape:connector-curvature="0"
         id="path4230"
         d="M 64.03896,701.21204 117.261,753.3106 115.60095,680.26875 64,680.02365 Z"
         style="fill:#c02a0c;fill-opacity:1;fill-rule:evenodd;stroke:none;stroke-width:1px;stroke-linecap:butt;stroke-linejoin:miter;stroke-opacity:1" />
      <path
         inkscape:connector-curvature="0"
         id="path3364"
         d="m 98.04097,1024.8357 336.88829,-1.1739 1.1738,-363.88666 -88.037,-89.21086 -250.02509,0 z"
         style="fill:#f2f2f2;fill-rule:evenodd;stroke:#afafaf;stroke-width:5.03546047;stroke-linecap:butt;stroke-linejoin:miter;stroke-miterlimit:4;stroke-dasharray:none;stroke-opacity:1" />
      <path
         sodipodi:nodetypes="cccc"
         inkscape:connector-curvature="0"
         id="path4166"
         d="m 432.51906,657.93098 -82.1644,-0.58691 0.7586,-83.80351 z"
         style="fill:#afafaf;fill-opacity:1;fill-rule:evenodd;stroke:#afafaf;stroke-width:5.03546047;stroke-linecap:butt;stroke-linejoin:miter;stroke-miterlimit:4;stroke-dasharray:none;stroke-opacity:1" />
      <rect
         y="617.18719"
         x="64.139725"
         height="84.350876"
         width="224.93568"
         id="rect4228"
         style="fill:#f03916;fill-opacity:1;stroke:none;stroke-width:5;stroke-miterlimit:4;stroke-dasharray:none;stroke-opacity:1" />
      <rect
         ry="125"
         y="771.95795"
         x="140.94118"
         height="250"
         width="250"
         id="rect4078-4"
         style="fill:#f03916;fill-opacity:1;stroke:none" />
      <path
         d="m 310.94092,840.74366 0,22.63438 c -22.59562,0.39375 -28.1488,22.43188 -28.1488,22.43188 l 17.04247,0 0,22.63183 -26.42538,0 c -15.89352,49.03375 -52.46779,44.66758 -52.46779,44.66758 l 0,-22.63383 c 0,0 23.20863,4.30817 35.04235,-38.90933 14.80292,-54.05688 54.95715,-50.82251 54.95715,-50.82251 z"
         inkscape:connector-curvature="0"
         id="path3727-6"
         style="fill:#ffffff;fill-opacity:1;stroke:none" />
      <g
         id="flowRoot3354"
         style="font-style:normal;font-weight:normal;font-size:40px;line-height:125%;font-family:sans-serif;letter-spacing:0px;word-spacing:0px;fill:#ffffff;fill-opacity:1;stroke:none;stroke-width:1px;stroke-linecap:butt;stroke-linejoin:miter;stroke-opacity:1"
         transform="translate(500.71613,377.73688)">
        <path
           inkscape:connector-curvature="0"
           id="path3363"
           style="font-style:normal;font-variant:normal;font-weight:bold;font-stretch:normal;font-size:80px;font-family:sans-serif;-inkscape-font-specification:'sans-serif Bold';fill:#ffffff"
           d="m -367.45508,254.57392 0,12.34375 q -4.80469,-2.14844 -9.375,-3.24219 -4.57031,-1.09375 -8.63281,-1.09375 -5.39063,0 -7.96875,1.48437 -2.57813,1.48438 -2.57813,4.60938 0,2.34375 1.71875,3.67187 1.75782,1.28907 6.32813,2.22657 l 6.40625,1.28906 q 9.72656,1.95312 13.82812,5.9375 4.10157,3.98437 4.10157,11.32812 0,9.64844 -5.74219,14.375 -5.70313,4.6875 -17.46094,4.6875 -5.54687,0 -11.13281,-1.05468 -5.58594,-1.05469 -11.17188,-3.125 l 0,-12.69532 q 5.58594,2.96875 10.78125,4.49219 5.23438,1.48438 10.07813,1.48438 4.92187,0 7.53906,-1.64063 2.61719,-1.64062 2.61719,-4.6875 0,-2.73437 -1.79688,-4.21875 -1.75781,-1.48437 -7.07031,-2.65625 l -5.82031,-1.28906 q -8.75,-1.875 -12.8125,-5.97656 -4.02344,-4.10157 -4.02344,-11.05469 0,-8.71094 5.625,-13.39844 5.625,-4.6875 16.17188,-4.6875 4.80468,0 9.88281,0.74219 5.07812,0.70312 10.50781,2.14844 z" />
        <path
           inkscape:connector-curvature="0"
           id="path3365"
           style="font-style:normal;font-variant:normal;font-weight:bold;font-stretch:normal;font-size:80px;font-family:sans-serif;-inkscape-font-specification:'sans-serif Bold';fill:#ffffff"
           d="m -355.3457,252.73798 14.41406,0 10.07812,42.38281 10,-42.38281 14.49219,0 10,42.38281 10.07813,-42.38281 14.29687,0 -13.75,58.32031 -17.34375,0 -10.58594,-44.33594 -10.46875,44.33594 -17.34375,0 -13.86718,-58.32031 z" />
        <path
           inkscape:connector-curvature="0"
           id="path3367"
           style="font-style:normal;font-variant:normal;font-weight:bold;font-stretch:normal;font-size:80px;font-family:sans-serif;-inkscape-font-specification:'sans-serif Bold';fill:#ffffff"
           d="m -262.10352,252.73798 40.58594,0 0,11.36719 -25.54687,0 0,10.85937 24.02343,0 0,11.36719 -24.02343,0 0,24.72656 -15.03907,0 0,-58.32031 z" />
      </g>
    </g>
  </g>
</svg>
