<?xml version="1.0" encoding="UTF-8" standalone="no"?>
<!-- Created with Inkscape (http://www.inkscape.org/) -->

<svg
   xmlns:dc="http://purl.org/dc/elements/1.1/"
   xmlns:cc="http://creativecommons.org/ns#"
   xmlns:rdf="http://www.w3.org/1999/02/22-rdf-syntax-ns#"
   xmlns:svg="http://www.w3.org/2000/svg"
   xmlns="http://www.w3.org/2000/svg"
   xmlns:sodipodi="http://sodipodi.sourceforge.net/DTD/sodipodi-0.dtd"
   xmlns:inkscape="http://www.inkscape.org/namespaces/inkscape"
   width="500"
   height="500"
   id="svg2"
   version="1.1"
   inkscape:version="0.91 r13725"
   sodipodi:docname="application-x-kgetlist.svg">
  <defs
     id="defs4" />
  <sodipodi:namedview
     id="base"
     pagecolor="#ffffff"
     bordercolor="#666666"
     borderopacity="1.0"
     inkscape:pageopacity="0.0"
     inkscape:pageshadow="2"
     inkscape:zoom="0.85795619"
     inkscape:cx="262.53733"
     inkscape:cy="241.17938"
     inkscape:document-units="px"
     inkscape:current-layer="layer1"
     showgrid="false"
     inkscape:window-width="1366"
     inkscape:window-height="715"
     inkscape:window-x="0"
     inkscape:window-y="24"
     inkscape:window-maximized="1" />
  <metadata
     id="metadata7">
    <rdf:RDF>
      <cc:Work
         rdf:about="">
        <dc:format>image/svg+xml</dc:format>
        <dc:type
           rdf:resource="http://purl.org/dc/dcmitype/StillImage" />
        <dc:title />
      </cc:Work>
    </rdf:RDF>
  </metadata>
  <g
     inkscape:label="Layer 1"
     inkscape:groupmode="layer"
     id="layer1"
     transform="translate(0,-552.36218)">
    <g
       id="g3388">
      <path
         sodipodi:nodetypes="ccccc"
         inkscape:connector-curvature="0"
         id="path4230"
         d="M 63.03896,706.21228 116.261,758.31084 114.60095,685.26899 63,685.02389 Z"
         style="fill:#008fcf;fill-opacity:1;fill-rule:evenodd;stroke:none;stroke-width:1px;stroke-linecap:butt;stroke-linejoin:miter;stroke-opacity:1" />
      <path
         inkscape:connector-curvature="0"
         id="path3364"
         d="m 97.04097,1029.8357 336.88837,-1.1739 1.1738,-363.88642 -88.03701,-89.21086 -250.02516,0 z"
         style="fill:#f2f2f2;fill-rule:evenodd;stroke:#afafaf;stroke-width:5.03546047;stroke-linecap:butt;stroke-linejoin:miter;stroke-miterlimit:4;stroke-dasharray:none;stroke-opacity:1" />
      <path
         sodipodi:nodetypes="cccc"
         inkscape:connector-curvature="0"
         id="path4166"
         d="m 431.51913,662.93122 -82.1644,-0.58691 0.7586,-83.80351 z"
         style="fill:#afafaf;fill-opacity:1;fill-rule:evenodd;stroke:#afafaf;stroke-width:5.03546047;stroke-linecap:butt;stroke-linejoin:miter;stroke-miterlimit:4;stroke-dasharray:none;stroke-opacity:1" />
      <rect
         y="622.18744"
         x="63.139675"
         height="84.350876"
         width="224.93568"
         id="rect4228"
         style="fill:#00bbf2;fill-opacity:1;stroke:none;stroke-width:5;stroke-miterlimit:4;stroke-dasharray:none;stroke-opacity:1" />
      <g
         transform="translate(-2,4)"
         id="g3361">
        <path
           style="fill:#00bbf2;fill-opacity:1"
           d="m 310.42996,921.60448 c 23.14796,-25.71178 39.51027,-44.56821 39.0621,-45.01638 -0.42417,-0.42418 -10.35265,-0.87629 -22.06325,-1.00468 l -21.29202,-0.23344 -0.4351,-46.12003 -0.43509,-46.12002 -36.11284,0 -36.11285,0 -0.4351,46.12002 -0.4351,46.12003 -21.75471,0.43509 c -14.11647,0.28232 -21.75473,0.75095 -21.75473,1.33469 0,1.74417 79.16003,89.12101 80.56128,88.92351 0.75574,-0.1065 19.29908,-20.104 41.20741,-44.43879 z"
           id="path2982"
           inkscape:connector-curvature="0" />
        <path
           style="fill:#00bbf2;fill-opacity:1;stroke:none"
           d="m 142.7033,934.56185 43.10345,0 0,43.10342 163.7931,0 0,-43.10342 43.10345,0 0,86.20695 -250,0 z"
           id="path2983"
           inkscape:connector-curvature="0"
           sodipodi:nodetypes="ccccccccc" />
      </g>
      <g
         id="flowRoot3346"
         style="font-style:normal;font-weight:normal;font-size:40px;line-height:125%;font-family:sans-serif;letter-spacing:0px;word-spacing:0px;fill:#ffffff;fill-opacity:1;stroke:none;stroke-width:1px;stroke-linecap:butt;stroke-linejoin:miter;stroke-opacity:1"
         transform="translate(-12.158925,539.54101)">
        <path
           inkscape:connector-curvature="0"
           id="path3355"
           style="font-style:normal;font-variant:normal;font-weight:bold;font-stretch:normal;font-size:80px;font-family:sans-serif;-inkscape-font-specification:'sans-serif Bold';fill:#ffffff"
           d="m 113.41016,97.155949 15.03906,0 0,21.289061 21.67969,-21.289061 17.46093,0 -28.08593,27.617191 30.97656,30.70312 -18.82813,0 -23.20312,-22.96875 0,22.96875 -15.03906,0 0,-58.320311 z" />
        <path
           inkscape:connector-curvature="0"
           id="path3357"
           style="font-style:normal;font-variant:normal;font-weight:bold;font-stretch:normal;font-size:80px;font-family:sans-serif;-inkscape-font-specification:'sans-serif Bold';fill:#ffffff"
           d="m 227.86328,151.14032 q -5.625,2.73438 -11.67969,4.10157 -6.05468,1.36718 -12.5,1.36718 -14.57031,0 -23.08593,-8.125 -8.51563,-8.16406 -8.51563,-22.10937 0,-14.10156 8.67188,-22.1875 8.67187,-8.085939 23.75,-8.085939 5.82031,0 11.13281,1.09375 5.35156,1.09375 10.07812,3.242189 l 0,12.07031 q -4.88281,-2.77344 -9.72656,-4.14062 -4.80469,-1.36719 -9.64844,-1.36719 -8.98437,0 -13.86718,5.03906 -4.84375,5 -4.84375,14.33594 0,9.25781 4.6875,14.29687 4.6875,5.03907 13.32031,5.03907 2.34375,0 4.33594,-0.27344 2.03125,-0.3125 3.63281,-0.9375 l 0,-11.32813 -9.17969,0 0,-10.07812 23.4375,0 0,28.04687 z" />
        <path
           inkscape:connector-curvature="0"
           id="path3359"
           style="font-style:normal;font-variant:normal;font-weight:bold;font-stretch:normal;font-size:80px;font-family:sans-serif;-inkscape-font-specification:'sans-serif Bold';fill:#ffffff"
           d="m 232.70703,97.155949 53.75,0 0,11.367191 -19.33594,0 0,46.95312 -15.03906,0 0,-46.95312 -19.375,0 0,-11.367191 z" />
      </g>
    </g>
  </g>
</svg>
