<?xml version="1.0" encoding="UTF-8" standalone="no"?>
<!-- Created with Inkscape (http://www.inkscape.org/) -->

<svg
   xmlns:dc="http://purl.org/dc/elements/1.1/"
   xmlns:cc="http://creativecommons.org/ns#"
   xmlns:rdf="http://www.w3.org/1999/02/22-rdf-syntax-ns#"
   xmlns:svg="http://www.w3.org/2000/svg"
   xmlns="http://www.w3.org/2000/svg"
   xmlns:sodipodi="http://sodipodi.sourceforge.net/DTD/sodipodi-0.dtd"
   xmlns:inkscape="http://www.inkscape.org/namespaces/inkscape"
   width="500"
   height="500"
   id="svg2"
   version="1.1"
   inkscape:version="0.91 r13725"
   sodipodi:docname="application-x-abiword.svg">
  <defs
     id="defs4" />
  <sodipodi:namedview
     id="base"
     pagecolor="#ffffff"
     bordercolor="#666666"
     borderopacity="1.0"
     inkscape:pageopacity="0.0"
     inkscape:pageshadow="2"
     inkscape:zoom="0.8579562"
     inkscape:cx="128.45434"
     inkscape:cy="292.25475"
     inkscape:document-units="px"
     inkscape:current-layer="layer1"
     showgrid="false"
     inkscape:window-width="1366"
     inkscape:window-height="715"
     inkscape:window-x="0"
     inkscape:window-y="24"
     inkscape:window-maximized="1" />
  <metadata
     id="metadata7">
    <rdf:RDF>
      <cc:Work
         rdf:about="">
        <dc:format>image/svg+xml</dc:format>
        <dc:type
           rdf:resource="http://purl.org/dc/dcmitype/StillImage" />
        <dc:title />
      </cc:Work>
    </rdf:RDF>
  </metadata>
  <g
     inkscape:label="Layer 1"
     inkscape:groupmode="layer"
     id="layer1"
     transform="translate(0,-552.36218)">
    <g
       id="g4187">
      <path
         sodipodi:nodetypes="ccccc"
         inkscape:connector-curvature="0"
         id="path4230"
         d="M 63.03896,706.21235 116.261,758.31091 114.60095,685.26906 63,685.02396 Z"
         style="fill:#008db5;fill-opacity:1;fill-rule:evenodd;stroke:none;stroke-width:1px;stroke-linecap:butt;stroke-linejoin:miter;stroke-opacity:1" />
      <path
         inkscape:connector-curvature="0"
         id="path3364"
         d="m 97.04097,1029.8357 336.88839,-1.1739 1.17377,-363.88635 -88.03697,-89.21086 -250.02519,0 z"
         style="fill:#f2f2f2;fill-rule:evenodd;stroke:#afafaf;stroke-width:5.03546047;stroke-linecap:butt;stroke-linejoin:miter;stroke-miterlimit:4;stroke-dasharray:none;stroke-opacity:1" />
      <path
         sodipodi:nodetypes="cccc"
         inkscape:connector-curvature="0"
         id="path4166"
         d="m 431.51909,662.93129 -82.16431,-0.58691 0.75853,-83.80351 z"
         style="fill:#afafaf;fill-opacity:1;fill-rule:evenodd;stroke:#afafaf;stroke-width:5.03546047;stroke-linecap:butt;stroke-linejoin:miter;stroke-miterlimit:4;stroke-dasharray:none;stroke-opacity:1" />
      <rect
         y="622.18744"
         x="63.139668"
         height="84.350876"
         width="224.93568"
         id="rect4228"
         style="fill:#00bbf2;fill-opacity:1;stroke:none;stroke-width:5;stroke-miterlimit:4;stroke-dasharray:none;stroke-opacity:1" />
      <rect
         y="903.18231"
         x="117.08083"
         height="12.142574"
         width="297.32489"
         id="rect2990-3"
         style="fill:#00bbf2;fill-opacity:1;stroke:none" />
      <rect
         y="933.61627"
         x="117.08083"
         height="12.142574"
         width="297.77072"
         id="rect2990-3-7"
         style="fill:#00bbf2;fill-opacity:1;stroke:none" />
      <rect
         y="961.35968"
         x="117.08083"
         height="12.142574"
         width="300"
         id="rect2990-3-5"
         style="fill:#00bbf2;fill-opacity:1;stroke:none" />
      <rect
         y="987.84174"
         x="117.08083"
         height="12.142574"
         width="203.88005"
         id="rect2990-3-35"
         style="fill:#00bbf2;fill-opacity:1;stroke:none" />
      <rect
         transform="matrix(0.99999986,5.2631278e-4,-6.6188717e-4,0.99999978,0,0)"
         y="775.25519"
         x="265.81149"
         height="109.42197"
         width="147.70581"
         id="rect2997"
         style="fill:#00bbf2;fill-opacity:1;stroke:#00bbf2;stroke-width:4.50626516;stroke-linecap:round;stroke-linejoin:round;stroke-miterlimit:4;stroke-dasharray:none;stroke-opacity:1" />
      <path
         sodipodi:open="true"
         sodipodi:end="6.2784904"
         sodipodi:start="0"
         transform="matrix(0.99999982,6.0156637e-4,-5.7908376e-4,0.99999983,0,0)"
         d="m 400.30727,807.20813 a 15.328697,15.328696 0 0 1 -15.3107,15.32869 15.328697,15.328696 0 0 1 -15.34665,-15.29271 15.328697,15.328696 0 0 1 15.27468,-15.36458 15.328697,15.328696 0 0 1 15.3825,15.25663"
         sodipodi:ry="15.328696"
         sodipodi:rx="15.328697"
         sodipodi:cy="807.20813"
         sodipodi:cx="384.97858"
         id="path3767"
         style="fill:#ffcc00;fill-opacity:1;stroke:none"
         sodipodi:type="arc" />
      <path
         sodipodi:nodetypes="cccczzc"
         inkscape:connector-curvature="0"
         id="path3787"
         d="m 267.6325,842.28349 -0.22761,40.47737 143.40942,-0.10377 -0.37954,-33.49274 c 0,0 -20.24976,6.45531 -37.76339,4.45771 -17.51365,-1.99742 -44.2147,-22.02408 -62.85208,-22.77924 -18.63736,-0.75514 -42.1868,11.44046 -42.1868,11.44046 z"
         style="fill:#004455;fill-opacity:1;stroke:none;stroke-width:0.18776105px;stroke-linecap:butt;stroke-linejoin:miter;stroke-opacity:1" />
      <rect
         y="874.57849"
         x="117.08083"
         height="12.142574"
         width="130.73882"
         id="rect2990-3-35-6"
         style="fill:#00bbf2;fill-opacity:1;stroke:none" />
      <rect
         y="846.83533"
         x="117.08083"
         height="12.142574"
         width="130.73882"
         id="rect2990-3-35-6-2"
         style="fill:#00bbf2;fill-opacity:1;stroke:none" />
      <rect
         y="820.35315"
         x="117.08083"
         height="12.142574"
         width="130.73882"
         id="rect2990-3-35-6-9"
         style="fill:#00bbf2;fill-opacity:1;stroke:none" />
      <rect
         y="794.50146"
         x="117.08083"
         height="12.142574"
         width="130.73882"
         id="rect2990-3-35-6-1"
         style="fill:#00bbf2;fill-opacity:1;stroke:none" />
      <rect
         y="769.91083"
         x="146.2906"
         height="12.142574"
         width="102.99558"
         id="rect2990-3-35-6-27"
         style="fill:#00bbf2;fill-opacity:1;stroke:none" />
      <g
         id="flowRoot4172"
         style="font-style:normal;font-weight:normal;font-size:40px;line-height:125%;font-family:sans-serif;letter-spacing:0px;word-spacing:0px;fill:#ffffff;fill-opacity:1;stroke:none;stroke-width:1px;stroke-linecap:butt;stroke-linejoin:miter;stroke-opacity:1"
         transform="translate(-34.96682,540.70657)">
        <path
           inkscape:connector-curvature="0"
           id="path4181"
           style="font-style:normal;font-variant:normal;font-weight:bold;font-stretch:normal;font-size:80px;font-family:sans-serif;-inkscape-font-specification:'sans-serif Bold';fill:#ffffff"
           d="m 147.63477,141.35321 -23.51563,0 -3.71094,10.625 -15.11718,0 21.60156,-58.320308 17.92969,0 21.60156,58.320308 -15.11719,0 -3.67187,-10.625 z m -19.76563,-10.82031 15.97656,0 -7.96875,-23.20312 -8.00781,23.20312 z" />
        <path
           inkscape:connector-curvature="0"
           id="path4183"
           style="font-style:normal;font-variant:normal;font-weight:bold;font-stretch:normal;font-size:80px;font-family:sans-serif;-inkscape-font-specification:'sans-serif Bold';fill:#ffffff"
           d="m 197.47852,116.23603 q 3.55468,0 5.39062,-1.5625 1.83594,-1.5625 1.83594,-4.60938 0,-3.00781 -1.83594,-4.57031 -1.83594,-1.60156 -5.39062,-1.60156 l -8.32032,0 0,12.34375 8.32032,0 z m 0.50781,25.50781 q 4.53125,0 6.79687,-1.91406 2.30469,-1.91407 2.30469,-5.78125 0,-3.78907 -2.26562,-5.66407 -2.26563,-1.91406 -6.83594,-1.91406 l -8.82813,0 0,15.27344 8.82813,0 z m 13.98437,-20.97656 q 4.84375,1.40625 7.5,5.19531 2.65625,3.78906 2.65625,9.29687 0,8.4375 -5.70312,12.57813 -5.70313,4.14062 -17.34375,4.14062 l -24.96094,0 0,-58.320308 22.57813,0 q 12.14843,0 17.57812,3.671875 5.46875,3.671873 5.46875,11.757813 0,4.25781 -1.99219,7.26562 -1.99218,2.96875 -5.78125,4.41407 z" />
        <path
           inkscape:connector-curvature="0"
           id="path4185"
           style="font-style:normal;font-variant:normal;font-weight:bold;font-stretch:normal;font-size:80px;font-family:sans-serif;-inkscape-font-specification:'sans-serif Bold';fill:#ffffff"
           d="m 225.7207,93.657902 14.41407,0 10.07812,42.382808 10,-42.382808 14.49219,0 10,42.382808 10.07812,-42.382808 14.29688,0 -13.75,58.320308 -17.34375,0 -10.58594,-44.33593 -10.46875,44.33593 -17.34375,0 -13.86719,-58.320308 z" />
      </g>
    </g>
  </g>
</svg>
