<?xml version="1.0" encoding="UTF-8" standalone="no"?>
<!-- Created with Inkscape (http://www.inkscape.org/) -->

<svg
   xmlns:dc="http://purl.org/dc/elements/1.1/"
   xmlns:cc="http://creativecommons.org/ns#"
   xmlns:rdf="http://www.w3.org/1999/02/22-rdf-syntax-ns#"
   xmlns:svg="http://www.w3.org/2000/svg"
   xmlns="http://www.w3.org/2000/svg"
   xmlns:sodipodi="http://sodipodi.sourceforge.net/DTD/sodipodi-0.dtd"
   xmlns:inkscape="http://www.inkscape.org/namespaces/inkscape"
   width="500"
   height="500"
   id="svg2"
   version="1.1"
   inkscape:version="0.91 r13725"
   sodipodi:docname="audio-x-mpeg.svg">
  <defs
     id="defs4" />
  <sodipodi:namedview
     id="base"
     pagecolor="#ffffff"
     bordercolor="#666666"
     borderopacity="1.0"
     inkscape:pageopacity="0.0"
     inkscape:pageshadow="2"
     inkscape:zoom="0.60666666"
     inkscape:cx="299.08107"
     inkscape:cy="217.46809"
     inkscape:document-units="px"
     inkscape:current-layer="layer1"
     showgrid="false"
     inkscape:window-width="1366"
     inkscape:window-height="715"
     inkscape:window-x="0"
     inkscape:window-y="24"
     inkscape:window-maximized="1" />
  <metadata
     id="metadata7">
    <rdf:RDF>
      <cc:Work
         rdf:about="">
        <dc:format>image/svg+xml</dc:format>
        <dc:type
           rdf:resource="http://purl.org/dc/dcmitype/StillImage" />
        <dc:title />
      </cc:Work>
    </rdf:RDF>
  </metadata>
  <g
     inkscape:label="Layer 1"
     inkscape:groupmode="layer"
     id="layer1"
     transform="translate(0,-552.36218)">
    <g
       id="g3365">
      <path
         sodipodi:nodetypes="ccccc"
         inkscape:connector-curvature="0"
         id="path4230"
         d="m 63.19071,706.79487 53.22204,52.09856 -1.66005,-73.04185 -51.60095,-0.2451 z"
         style="fill:#222630;fill-opacity:1;fill-rule:evenodd;stroke:none;stroke-width:1px;stroke-linecap:butt;stroke-linejoin:miter;stroke-opacity:1" />
      <path
         inkscape:connector-curvature="0"
         id="path3364"
         d="m 96.90133,1029.8357 336.88838,-1.1739 1.1737,-363.88661 -88.0369,-89.21086 -250.02518,0 z"
         style="fill:#f2f2f2;fill-rule:evenodd;stroke:#afafaf;stroke-width:5.03546047;stroke-linecap:butt;stroke-linejoin:miter;stroke-miterlimit:4;stroke-dasharray:none;stroke-opacity:1" />
      <path
         sodipodi:nodetypes="cccc"
         inkscape:connector-curvature="0"
         id="path4166"
         d="m 431.37941,662.93103 -82.1642,-0.58691 0.7585,-83.80351 z"
         style="fill:#afafaf;fill-opacity:1;fill-rule:evenodd;stroke:#afafaf;stroke-width:5.03546047;stroke-linecap:butt;stroke-linejoin:miter;stroke-miterlimit:4;stroke-dasharray:none;stroke-opacity:1" />
      <rect
         y="622.18719"
         x="63"
         height="84.350876"
         width="224.93568"
         id="rect4228"
         style="fill:#394050;fill-opacity:1;stroke:none;stroke-width:5;stroke-miterlimit:4;stroke-dasharray:none;stroke-opacity:1" />
      <g
         style="fill:#394050;fill-opacity:1"
         id="g4190"
         transform="matrix(0.89814638,0,0,0.89814638,-59.518236,126.07233)">
        <path
           style="fill:#394050;fill-opacity:1;fill-rule:evenodd;stroke:none"
           d="m 305.20897,716.29583 0,204.12903 c -8.66636,-8.07428 -19.96756,-13.29483 -31.84948,-13.29314 -24.99165,0 -47.69622,22.72874 -47.69622,47.70815 0,24.97834 22.70457,47.70853 47.69622,47.71043 24.99183,0 47.7586,-22.72835 47.7586,-47.71043 l 0,-168.81352 0,-68.92312 0,-0.80578 -0.0637,0 -15.84693,0 z"
           id="path4112"
           inkscape:connector-curvature="0"
           sodipodi:nodetypes="cccscscccccc" />
        <path
           style="fill:#394050;fill-opacity:1;fill-rule:evenodd;stroke:none"
           d="m 462.39582,698.02641 0,204.12903 c -8.66636,-8.07428 -19.96756,-13.29483 -31.84948,-13.29314 -24.99165,0 -47.69622,22.72874 -47.69622,47.70815 0,24.97834 22.70457,47.70853 47.69622,47.71043 24.99183,0 47.7586,-22.72835 47.7586,-47.71043 l 0,-168.81352 0,-68.92312 0,-0.80578 -0.0637,0 -15.84693,0 z"
           id="path4112-3"
           inkscape:connector-curvature="0"
           sodipodi:nodetypes="cccscscccccc" />
        <rect
           style="fill:#394050;fill-opacity:1;stroke:none;stroke-opacity:1"
           id="rect4188"
           width="171.4557"
           height="18.468454"
           x="219.51505"
           y="747.4649"
           transform="matrix(0.99307685,-0.11746649,0.11746649,0.99307685,0,0)"
           inkscape:transform-center-x="-79.159264"
           inkscape:transform-center-y="-9.4361839" />
      </g>
      <g
         id="flowRoot3342"
         style="font-style:normal;font-weight:normal;font-size:40px;line-height:125%;font-family:sans-serif;letter-spacing:0px;word-spacing:0px;fill:#ffffff;fill-opacity:1;stroke:none;stroke-width:1px;stroke-linecap:butt;stroke-linejoin:miter;stroke-opacity:1"
         transform="translate(506.04396,412.60394)">
        <path
           inkscape:connector-curvature="0"
           id="path3351"
           style="font-style:normal;font-variant:normal;font-weight:bold;font-stretch:normal;font-size:80px;font-family:sans-serif;-inkscape-font-specification:'sans-serif Bold';fill:#ffffff"
           d="m -416.2832,221.41962 19.14062,0 13.28125,31.21094 13.35938,-31.21094 19.10156,0 0,58.32031 -14.21875,0 0,-42.65625 -13.4375,31.44532 -9.53125,0 -13.4375,-31.44532 0,42.65625 -14.25781,0 0,-58.32031 z" />
        <path
           inkscape:connector-curvature="0"
           id="path3353"
           style="font-style:normal;font-variant:normal;font-weight:bold;font-stretch:normal;font-size:80px;font-family:sans-serif;-inkscape-font-specification:'sans-serif Bold';fill:#ffffff"
           d="m -306.67383,248.29462 q 5.89844,1.52344 8.94531,5.3125 3.08594,3.75 3.08594,9.57031 0,8.67188 -6.64062,13.20313 -6.64063,4.49219 -19.375,4.49219 -4.49219,0 -9.02344,-0.74219 -4.49219,-0.70313 -8.90625,-2.14844 l 0,-11.60156 q 4.21875,2.10937 8.35937,3.20312 4.17969,1.05469 8.20313,1.05469 5.97656,0 9.14062,-2.07031 3.20313,-2.07031 3.20313,-5.9375 0,-3.98438 -3.28125,-6.01563 -3.24219,-2.07031 -9.60938,-2.07031 l -6.01562,0 0,-9.6875 6.32812,0 q 5.66407,0 8.4375,-1.75781 2.77344,-1.79688 2.77344,-5.42969 0,-3.35937 -2.69531,-5.19531 -2.69531,-1.83594 -7.61719,-1.83594 -3.63281,0 -7.34375,0.82031 -3.71094,0.82032 -7.38281,2.42188 l 0,-11.01563 q 4.45312,-1.25 8.82812,-1.875 4.375,-0.625 8.59375,-0.625 11.36719,0 16.99219,3.75 5.66406,3.71094 5.66406,11.21094 0,5.11719 -2.69531,8.39844 -2.69531,3.24219 -7.96875,4.57031 z" />
        <path
           inkscape:connector-curvature="0"
           id="path3355"
           style="font-style:normal;font-variant:normal;font-weight:bold;font-stretch:normal;font-size:80px;font-family:sans-serif;-inkscape-font-specification:'sans-serif Bold';fill:#ffffff"
           d="m -280.9707,221.41962 15.03906,0 0,34.96094 q 0,7.22656 2.34375,10.35156 2.38281,3.08594 7.73437,3.08594 5.39063,0 7.73438,-3.08594 2.38281,-3.125 2.38281,-10.35156 l 0,-34.96094 15.03906,0 0,34.96094 q 0,12.38281 -6.21093,18.4375 -6.21094,6.05469 -18.94532,6.05469 -12.69531,0 -18.90625,-6.05469 -6.21093,-6.05469 -6.21093,-18.4375 l 0,-34.96094 z" />
      </g>
    </g>
  </g>
</svg>
