<?xml version="1.0" encoding="UTF-8" standalone="no"?>
<!-- Created with Inkscape (http://www.inkscape.org/) -->

<svg
   xmlns:dc="http://purl.org/dc/elements/1.1/"
   xmlns:cc="http://creativecommons.org/ns#"
   xmlns:rdf="http://www.w3.org/1999/02/22-rdf-syntax-ns#"
   xmlns:svg="http://www.w3.org/2000/svg"
   xmlns="http://www.w3.org/2000/svg"
   xmlns:sodipodi="http://sodipodi.sourceforge.net/DTD/sodipodi-0.dtd"
   xmlns:inkscape="http://www.inkscape.org/namespaces/inkscape"
   width="500"
   height="500"
   id="svg2"
   version="1.1"
   inkscape:version="0.91 r13725"
   sodipodi:docname="image-x-win-bitmap.svg">
  <defs
     id="defs4" />
  <sodipodi:namedview
     id="base"
     pagecolor="#ffffff"
     bordercolor="#666666"
     borderopacity="1.0"
     inkscape:pageopacity="0.0"
     inkscape:pageshadow="2"
     inkscape:zoom="0.4289781"
     inkscape:cx="-175.13896"
     inkscape:cy="291.2954"
     inkscape:document-units="px"
     inkscape:current-layer="layer1"
     showgrid="false"
     inkscape:window-width="1366"
     inkscape:window-height="715"
     inkscape:window-x="0"
     inkscape:window-y="24"
     inkscape:window-maximized="1" />
  <metadata
     id="metadata7">
    <rdf:RDF>
      <cc:Work
         rdf:about="">
        <dc:format>image/svg+xml</dc:format>
        <dc:type
           rdf:resource="http://purl.org/dc/dcmitype/StillImage" />
        <dc:title />
      </cc:Work>
    </rdf:RDF>
  </metadata>
  <g
     inkscape:label="Layer 1"
     inkscape:groupmode="layer"
     id="layer1"
     transform="translate(0,-552.36218)">
    <g
       id="g4178">
      <path
         sodipodi:nodetypes="ccccc"
         inkscape:connector-curvature="0"
         id="path4230"
         d="M 63.03896,701.21202 116.261,753.31058 114.60095,680.26873 63,680.02363 Z"
         style="fill:#009cca;fill-opacity:1;fill-rule:evenodd;stroke:none;stroke-width:1px;stroke-linecap:butt;stroke-linejoin:miter;stroke-opacity:1" />
      <path
         inkscape:connector-curvature="0"
         id="path3364"
         d="m 97.04097,1024.8357 336.88839,-1.1739 1.17377,-363.88668 -88.03697,-89.21086 -250.02519,0 z"
         style="fill:#f2f2f2;fill-rule:evenodd;stroke:#afafaf;stroke-width:5.03546047;stroke-linecap:butt;stroke-linejoin:miter;stroke-miterlimit:4;stroke-dasharray:none;stroke-opacity:1" />
      <path
         sodipodi:nodetypes="cccc"
         inkscape:connector-curvature="0"
         id="path4166"
         d="m 431.51909,657.93096 -82.16431,-0.58691 0.75853,-83.80351 z"
         style="fill:#afafaf;fill-opacity:1;fill-rule:evenodd;stroke:#afafaf;stroke-width:5.03546047;stroke-linecap:butt;stroke-linejoin:miter;stroke-miterlimit:4;stroke-dasharray:none;stroke-opacity:1" />
      <rect
         y="617.18707"
         x="63.139629"
         height="84.350876"
         width="223.52371"
         id="rect4228"
         style="fill:#00bbf2;fill-opacity:1;stroke:none;stroke-width:5;stroke-miterlimit:4;stroke-dasharray:none;stroke-opacity:1" />
      <rect
         transform="matrix(0.99991031,-0.01339323,0.01339323,0.99991031,0,0)"
         y="793.63092"
         x="134.99518"
         height="186.98323"
         width="225.0724"
         id="rect2997-3"
         style="fill:#ff6600;fill-opacity:1;stroke:#ffffff;stroke-width:7.27156973;stroke-linecap:round;stroke-linejoin:round;stroke-miterlimit:4;stroke-dasharray:none;stroke-opacity:1" />
      <rect
         transform="matrix(0.89137186,-0.45327278,0.45327278,0.89137186,0,0)"
         y="814.41022"
         x="-271.50455"
         height="186.98325"
         width="225.0724"
         id="rect2997"
         style="fill:#00bbf2;fill-opacity:1;stroke:#ffffff;stroke-width:7.27156973;stroke-linecap:round;stroke-linejoin:round;stroke-miterlimit:4;stroke-dasharray:none;stroke-opacity:1" />
      <path
         sodipodi:open="true"
         sodipodi:end="6.2784904"
         sodipodi:start="0"
         transform="matrix(0.89137185,-0.45327279,0.45327278,0.89137186,0,0)"
         d="m -200.52018,868.9469 a 22.940073,22.50724 0 0 1 -22.91315,22.50722 22.940073,22.50724 0 0 1 -22.96693,-22.45439 22.940073,22.50724 0 0 1 22.85923,-22.55993 22.940073,22.50724 0 0 1 23.0206,22.40143"
         sodipodi:ry="22.50724"
         sodipodi:rx="22.940073"
         sodipodi:cy="868.9469"
         sodipodi:cx="-223.46025"
         id="path3767"
         style="fill:#ffffff;fill-opacity:1;stroke:none"
         sodipodi:type="arc" />
      <path
         sodipodi:nodetypes="cccczzc"
         inkscape:connector-curvature="0"
         id="path3787"
         d="m 182.17764,949.248 31.07967,61.7941 194.64875,-99.32444 -26.48773,-50.7383 c 0,0 -22.49038,23.83228 -47.82038,32.9011 -25.32998,9.06883 -77.11604,-2.96297 -103.00847,8.77474 -25.89241,11.73773 -48.41184,46.5928 -48.41184,46.5928 z"
         style="fill:#004455;fill-opacity:1;stroke:none;stroke-width:0.46588865px;stroke-linecap:butt;stroke-linejoin:miter;stroke-opacity:1" />
      <path
         d="m 141.34107,686.31655 q -4.14063,2.14844 -8.63281,3.24219 -4.49219,1.09375 -9.375,1.09375 -14.57031,0 -23.08593,-8.125 -8.515625,-8.16406 -8.515625,-22.10937 0,-13.98438 8.515625,-22.10938 8.51563,-8.16406 23.08593,-8.16406 4.88281,0 9.375,1.09375 4.49218,1.09375 8.63281,3.24219 l 0,12.07031 q -4.17969,-2.85156 -8.24219,-4.17969 -4.0625,-1.32812 -8.55468,-1.32812 -8.04687,0 -12.65624,5.15625 -4.60938,5.15625 -4.60938,14.21875 0,9.02343 4.60938,14.17968 4.60937,5.15625 12.65624,5.15625 4.49218,0 8.55468,-1.32812 4.0625,-1.32813 8.24219,-4.17969 l 0,12.07031 z"
         style="font-style:normal;font-variant:normal;font-weight:bold;font-stretch:normal;font-size:80px;line-height:125%;font-family:sans-serif;-inkscape-font-specification:'sans-serif Bold';letter-spacing:0px;word-spacing:0px;fill:#ffffff;fill-opacity:1;stroke:none;stroke-width:1px;stroke-linecap:butt;stroke-linejoin:miter;stroke-opacity:1"
         id="path3352"
         inkscape:connector-curvature="0" />
      <path
         d="m 153.84107,631.19937 15.03906,0 0,34.96093 q 0,7.22657 2.34375,10.35157 2.38281,3.08593 7.73438,3.08593 5.39062,0 7.73437,-3.08593 2.38281,-3.125 2.38281,-10.35157 l 0,-34.96093 15.03907,0 0,34.96093 q 0,12.38282 -6.21093,18.4375 -6.21094,6.05469 -18.94532,6.05469 -12.69532,0 -18.90625,-6.05469 -6.21094,-6.05468 -6.21094,-18.4375 l 0,-34.96093 z"
         style="font-style:normal;font-variant:normal;font-weight:bold;font-stretch:normal;font-size:80px;line-height:125%;font-family:sans-serif;-inkscape-font-specification:'sans-serif Bold';letter-spacing:0px;word-spacing:0px;fill:#ffffff;fill-opacity:1;stroke:none;stroke-width:1px;stroke-linecap:butt;stroke-linejoin:miter;stroke-opacity:1"
         id="path3354"
         inkscape:connector-curvature="0" />
      <path
         d="m 240.20826,657.05874 q 4.72656,0 6.75781,-1.75781 2.07031,-1.75781 2.07031,-5.78125 0,-3.98438 -2.07031,-5.70313 -2.03125,-1.71875 -6.75781,-1.71875 l -6.32813,0 0,14.96094 6.32813,0 z m -6.32813,10.39063 0,22.07031 -15.03906,0 0,-58.32031 22.96875,0 q 11.52344,0 16.875,3.86718 5.39062,3.86719 5.39062,12.22657 0,5.78125 -2.8125,9.49218 -2.77343,3.71094 -8.39843,5.46875 3.08593,0.70313 5.50781,3.20313 2.46094,2.46094 4.96094,7.5 l 8.16406,16.5625 -16.01563,0 -7.10937,-14.49219 q -2.14844,-4.375 -4.375,-5.97656 -2.1875,-1.60156 -5.85938,-1.60156 l -4.25781,0 z"
         style="font-style:normal;font-variant:normal;font-weight:bold;font-stretch:normal;font-size:80px;line-height:125%;font-family:sans-serif;-inkscape-font-specification:'sans-serif Bold';letter-spacing:0px;word-spacing:0px;fill:#ffffff;fill-opacity:1;stroke:none;stroke-width:1px;stroke-linecap:butt;stroke-linejoin:miter;stroke-opacity:1"
         id="path3356"
         inkscape:connector-curvature="0" />
    </g>
  </g>
</svg>
