<?xml version="1.0" encoding="UTF-8" standalone="no"?>
<!-- Created with Inkscape (http://www.inkscape.org/) -->

<svg
   xmlns:dc="http://purl.org/dc/elements/1.1/"
   xmlns:cc="http://creativecommons.org/ns#"
   xmlns:rdf="http://www.w3.org/1999/02/22-rdf-syntax-ns#"
   xmlns:svg="http://www.w3.org/2000/svg"
   xmlns="http://www.w3.org/2000/svg"
   xmlns:sodipodi="http://sodipodi.sourceforge.net/DTD/sodipodi-0.dtd"
   xmlns:inkscape="http://www.inkscape.org/namespaces/inkscape"
   width="500"
   height="500"
   id="svg2"
   version="1.1"
   inkscape:version="0.91 r13725"
   sodipodi:docname="libreoffice-oasis-presentation-template.svg">
  <defs
     id="defs4" />
  <sodipodi:namedview
     id="base"
     pagecolor="#ffffff"
     bordercolor="#666666"
     borderopacity="1.0"
     inkscape:pageopacity="0.0"
     inkscape:pageshadow="2"
     inkscape:zoom="0.4289781"
     inkscape:cx="22.47178"
     inkscape:cy="101.9984"
     inkscape:document-units="px"
     inkscape:current-layer="layer1"
     showgrid="false"
     inkscape:window-width="1366"
     inkscape:window-height="715"
     inkscape:window-x="0"
     inkscape:window-y="24"
     inkscape:window-maximized="1" />
  <metadata
     id="metadata7">
    <rdf:RDF>
      <cc:Work
         rdf:about="">
        <dc:format>image/svg+xml</dc:format>
        <dc:type
           rdf:resource="http://purl.org/dc/dcmitype/StillImage" />
        <dc:title />
      </cc:Work>
    </rdf:RDF>
  </metadata>
  <g
     inkscape:label="Layer 1"
     inkscape:groupmode="layer"
     id="layer1"
     transform="translate(0,-552.36218)">
    <g
       id="g4194">
      <path
         sodipodi:nodetypes="ccccc"
         inkscape:connector-curvature="0"
         id="path4230"
         d="M 63.03896,706.21226 116.261,758.31082 114.60095,685.26897 63,685.02387 Z"
         style="fill:#aa4400;fill-opacity:1;fill-rule:evenodd;stroke:none;stroke-width:1px;stroke-linecap:butt;stroke-linejoin:miter;stroke-opacity:1" />
      <path
         inkscape:connector-curvature="0"
         id="path3364"
         d="m 97.040966,1029.8357 336.888394,-1.1739 1.17377,-363.88644 -88.03697,-89.21086 -250.025194,0 z"
         style="fill:#f2f2f2;fill-rule:evenodd;stroke:#afafaf;stroke-width:5.03546047;stroke-linecap:butt;stroke-linejoin:miter;stroke-miterlimit:4;stroke-dasharray:none;stroke-opacity:1" />
      <path
         sodipodi:nodetypes="cccc"
         inkscape:connector-curvature="0"
         id="path4166"
         d="m 431.51909,662.9312 -82.16431,-0.58691 0.75853,-83.80351 z"
         style="fill:#afafaf;fill-opacity:1;fill-rule:evenodd;stroke:#afafaf;stroke-width:5.03546047;stroke-linecap:butt;stroke-linejoin:miter;stroke-miterlimit:4;stroke-dasharray:none;stroke-opacity:1" />
      <rect
         y="622.1875"
         x="63.139702"
         height="84.350876"
         width="224.93568"
         id="rect4228"
         style="fill:#ff6600;fill-opacity:1;stroke:none;stroke-width:5;stroke-miterlimit:4;stroke-dasharray:none;stroke-opacity:1" />
      <rect
         y="797.74304"
         x="153.20613"
         height="12.292208"
         width="213.76758"
         id="rect2990-3"
         style="fill:#ff6600;fill-opacity:1;stroke:none" />
      <rect
         y="823.46967"
         x="184.64983"
         height="12.292208"
         width="147.57034"
         id="rect2990-3-6"
         style="fill:#ff6600;fill-opacity:1;stroke:none" />
      <rect
         y="876.27704"
         x="161.89452"
         height="12.292208"
         width="72.270981"
         id="rect2990-3-6-7"
         style="fill:#ff6600;fill-opacity:1;stroke:none" />
      <rect
         y="876.27704"
         x="139.13924"
         height="12.292208"
         width="12.693478"
         id="rect2990-3-6-7-5"
         style="fill:#ff6600;fill-opacity:1;stroke:none" />
      <rect
         y="897.03894"
         x="161.27393"
         height="12.292208"
         width="72.270981"
         id="rect2990-3-6-7-3"
         style="fill:#ff6600;fill-opacity:1;stroke:none" />
      <rect
         y="897.03894"
         x="138.51865"
         height="12.292208"
         width="12.693478"
         id="rect2990-3-6-7-5-5"
         style="fill:#ff6600;fill-opacity:1;stroke:none" />
      <rect
         y="918.25214"
         x="161.27393"
         height="12.292208"
         width="72.270981"
         id="rect2990-3-6-7-6"
         style="fill:#ff6600;fill-opacity:1;stroke:none" />
      <rect
         y="918.25214"
         x="138.51865"
         height="12.292208"
         width="12.693478"
         id="rect2990-3-6-7-5-2"
         style="fill:#ff6600;fill-opacity:1;stroke:none" />
      <rect
         y="940.8194"
         x="161.27393"
         height="12.292208"
         width="72.270981"
         id="rect2990-3-6-7-9"
         style="fill:#ff6600;fill-opacity:1;stroke:none" />
      <rect
         y="940.8194"
         x="138.51865"
         height="12.292208"
         width="12.693478"
         id="rect2990-3-6-7-5-1"
         style="fill:#ff6600;fill-opacity:1;stroke:none" />
      <rect
         y="865.57117"
         x="266.49924"
         height="94.468086"
         width="113.70193"
         id="rect2990-2"
         style="fill:#ffffff;fill-opacity:1;stroke:none" />
      <path
         inkscape:connector-curvature="0"
         id="path17"
         d="m 327.47287,955.9676 -8.99142,0 c -1.24138,0 -2.24798,-1.098 -2.24798,-2.4523 l 0,-39.2357 c 0,-1.3541 1.0066,-2.45233 2.24798,-2.45233 l 8.99142,0 c 1.24137,0 2.24797,1.09823 2.24797,2.45233 l 0,39.2357 c 0,1.3543 -1.0066,2.4523 -2.24797,2.4523 z"
         style="fill:#ffcc00" />
      <path
         inkscape:connector-curvature="0"
         id="path21"
         d="m 307.24205,955.9676 -8.99141,0 c -1.24138,0 -2.24799,-1.098 -2.24799,-2.4523 l 0,-26.97453 c 0,-1.35427 1.00661,-2.45233 2.24799,-2.45233 l 8.99141,0 c 1.24138,0 2.24799,1.09806 2.24799,2.45233 l 0,26.97453 c 0,1.3543 -1.00661,2.4523 -2.24799,2.4523 z"
         style="fill:#f03916;fill-opacity:1" />
      <path
         inkscape:connector-curvature="0"
         id="path25"
         d="m 287.01124,955.9676 -8.99141,0 c -1.24138,0 -2.24798,-1.098 -2.24798,-2.4523 l 0,-14.71353 c 0,-1.35427 1.0066,-2.45233 2.24798,-2.45233 l 8.99141,0 c 1.2414,0 2.24798,1.09806 2.24798,2.45233 l 0,14.71353 c -2.4e-4,1.3543 -1.00658,2.4523 -2.24798,2.4523 z"
         style="fill:#004455" />
      <path
         inkscape:connector-curvature="0"
         id="path29"
         d="m 347.70368,955.9676 -8.9914,0 c -1.24139,0 -2.24799,-1.098 -2.24799,-2.4523 l 0,-26.97453 c 0,-1.35427 1.0066,-2.45233 2.24799,-2.45233 l 8.9914,0 c 1.24137,0 2.24797,1.09806 2.24797,2.45233 l 0,26.97453 c 0,1.3543 -1.0066,2.4523 -2.24797,2.4523 z"
         style="fill:#45d03f;fill-opacity:1" />
      <path
         inkscape:connector-curvature="0"
         id="path33"
         d="m 367.93475,955.9676 -8.99144,0 c -1.24136,0 -2.24797,-1.098 -2.24797,-2.4523 l 0,-53.9492 c 0,-1.3541 1.00661,-2.45233 2.24797,-2.45233 l 8.99144,0 c 1.24137,0 2.24797,1.09823 2.24797,2.45233 l 0,53.9492 c -2.3e-4,1.3543 -1.0066,2.4523 -2.24797,2.4523 z"
         style="fill:#00bbf2;fill-opacity:1" />
      <path
         inkscape:connector-curvature="0"
         id="path37"
         d="m 374.67818,958.4193 -103.40203,0 c -1.24138,0 -2.24799,-1.098 -2.24799,-2.4523 l 0,0 c 0,-1.3543 1.00661,-2.4523 2.24799,-2.4523 l 103.40228,0 c 1.24137,0 2.24799,1.098 2.24799,2.4523 l 0,0 c -2.5e-4,1.3549 -1.00662,2.4523 -2.24824,2.4523 z"
         style="fill:#394050" />
      <path
         inkscape:connector-curvature="0"
         id="path2998"
         d="m 274.71944,931.61705 50.49853,-29.59352 17.52843,17.30083 22.32786,-48.71538"
         style="fill:none;stroke:#394050;stroke-width:2.50435662;stroke-linecap:butt;stroke-linejoin:miter;stroke-miterlimit:4;stroke-dasharray:none;stroke-opacity:1" />
      <path
         inkscape:connector-curvature="0"
         id="path3768"
         d="m 365.9339,869.94285 -8.99746,4.26399"
         style="fill:none;stroke:#394050;stroke-width:2.50435662;stroke-linecap:butt;stroke-linejoin:miter;stroke-miterlimit:4;stroke-dasharray:none;stroke-opacity:1" />
      <path
         inkscape:connector-curvature="0"
         id="path3770-3"
         d="m 368.39364,879.29085 -4.03778,-10.01249"
         style="fill:none;stroke:#394050;stroke-width:2.50435662;stroke-linecap:butt;stroke-linejoin:miter;stroke-miterlimit:4;stroke-dasharray:none;stroke-opacity:1" />
      <rect
         transform="scale(1,-1)"
         y="-1023.5695"
         x="156.85249"
         height="12.292208"
         width="213.76758"
         id="rect2990-3-9"
         style="fill:#ff6600;fill-opacity:1;stroke:none" />
      <rect
         transform="scale(1,-1)"
         y="-997.84283"
         x="188.29619"
         height="12.292208"
         width="147.57034"
         id="rect2990-3-6-8"
         style="fill:#ff6600;fill-opacity:1;stroke:none" />
    </g>
  </g>
</svg>
