<?xml version="1.0" encoding="UTF-8" standalone="no"?>
<!-- Created with Inkscape (http://www.inkscape.org/) -->

<svg
   xmlns:dc="http://purl.org/dc/elements/1.1/"
   xmlns:cc="http://creativecommons.org/ns#"
   xmlns:rdf="http://www.w3.org/1999/02/22-rdf-syntax-ns#"
   xmlns:svg="http://www.w3.org/2000/svg"
   xmlns="http://www.w3.org/2000/svg"
   xmlns:sodipodi="http://sodipodi.sourceforge.net/DTD/sodipodi-0.dtd"
   xmlns:inkscape="http://www.inkscape.org/namespaces/inkscape"
   width="500"
   height="500"
   id="svg2"
   version="1.1"
   inkscape:version="0.91 r13725"
   sodipodi:docname="text-x-opml.svg">
  <defs
     id="defs4" />
  <sodipodi:namedview
     id="base"
     pagecolor="#ffffff"
     bordercolor="#666666"
     borderopacity="1.0"
     inkscape:pageopacity="0.0"
     inkscape:pageshadow="2"
     inkscape:zoom="0.60666665"
     inkscape:cx="262.51321"
     inkscape:cy="130.62637"
     inkscape:document-units="px"
     inkscape:current-layer="layer1"
     showgrid="false"
     inkscape:window-width="1366"
     inkscape:window-height="715"
     inkscape:window-x="0"
     inkscape:window-y="24"
     inkscape:window-maximized="1" />
  <metadata
     id="metadata7">
    <rdf:RDF>
      <cc:Work
         rdf:about="">
        <dc:format>image/svg+xml</dc:format>
        <dc:type
           rdf:resource="http://purl.org/dc/dcmitype/StillImage" />
        <dc:title />
      </cc:Work>
    </rdf:RDF>
  </metadata>
  <g
     inkscape:label="Layer 1"
     inkscape:groupmode="layer"
     id="layer1"
     transform="translate(0,-552.36218)">
    <g
       id="g4169">
      <path
         sodipodi:nodetypes="ccccc"
         inkscape:connector-curvature="0"
         id="path4230"
         d="m 47.004565,710.279 53.222045,52.09856 -1.660055,-73.04185 -51.60095,-0.2451 z"
         style="fill:#ca5100;fill-opacity:1;fill-rule:evenodd;stroke:none;stroke-width:1px;stroke-linecap:butt;stroke-linejoin:miter;stroke-opacity:1" />
      <path
         inkscape:connector-curvature="0"
         id="path3364"
         d="m 81.006575,1033.9023 336.888385,-1.1739 1.17377,-363.8863 -88.03697,-89.21086 -250.025185,0 z"
         style="fill:#f2f2f2;fill-rule:evenodd;stroke:#afafaf;stroke-width:5.03546047;stroke-linecap:butt;stroke-linejoin:miter;stroke-miterlimit:4;stroke-dasharray:none;stroke-opacity:1" />
      <path
         sodipodi:nodetypes="cccc"
         inkscape:connector-curvature="0"
         id="path4166"
         d="m 415.48469,666.99794 -82.16431,-0.58691 0.75854,-83.80351 z"
         style="fill:#afafaf;fill-opacity:1;fill-rule:evenodd;stroke:#afafaf;stroke-width:5.03546047;stroke-linecap:butt;stroke-linejoin:miter;stroke-miterlimit:4;stroke-dasharray:none;stroke-opacity:1" />
      <rect
         y="626.25409"
         x="47.105244"
         height="84.350876"
         width="273.20645"
         id="rect4228"
         style="fill:#ff6600;fill-opacity:1;stroke:none;stroke-width:5;stroke-miterlimit:4;stroke-dasharray:none;stroke-opacity:1" />
      <path
         inkscape:connector-curvature="0"
         style="fill:#ff6600;fill-opacity:1;stroke:none"
         d="m 109.59892,754.01481 0,54.99991 54.99998,0 c 91.4099,0 164.99994,73.59013 164.99994,165.00004 l 0,54.99994 54.99996,0 0,-54.99994 c 0,-121.87986 -98.11999,-219.99995 -219.9999,-219.99995 l -54.99998,0 z m 0,110.00003 0,54.99998 54.99998,0 c 30.46993,0 54.99999,24.53004 54.99999,54.99994 l 0,54.99994 55,0 0,-54.99994 c 0,-60.93997 -49.06007,-109.99992 -109.99999,-109.99992 l -54.99998,0 z m 32.08335,100.83322 c -17.7742,0 -32.08335,14.3092 -32.08335,32.0834 0,17.77424 14.30915,32.08324 32.08335,32.08324 17.77413,0 32.08327,-14.309 32.08327,-32.08324 0,-17.7742 -14.30914,-32.0834 -32.08327,-32.0834 z"
         id="rect4116-7-3" />
      <g
         id="flowRoot4152"
         style="font-style:normal;font-weight:normal;font-size:40px;line-height:125%;font-family:sans-serif;letter-spacing:0px;word-spacing:0px;fill:#ffffff;fill-opacity:1;stroke:none;stroke-width:1px;stroke-linecap:butt;stroke-linejoin:miter;stroke-opacity:1"
         transform="translate(1.6483517,532.58196)">
        <path
           inkscape:connector-curvature="0"
           id="path4161"
           style="font-style:normal;font-variant:normal;font-weight:bold;font-stretch:normal;font-size:80px;font-family:sans-serif;-inkscape-font-specification:'sans-serif Bold';fill:#ffffff"
           d="m 88.380859,115.8786 q -6.875,0 -10.664062,5.07813 -3.789063,5.07812 -3.789063,14.29687 0,9.17969 3.789063,14.25782 3.789062,5.07812 10.664062,5.07812 6.914063,0 10.703125,-5.07812 3.789066,-5.07813 3.789066,-14.25782 0,-9.21875 -3.789066,-14.29687 -3.789062,-5.07813 -10.703125,-5.07813 z m 0,-10.89843 q 14.062501,0 22.031251,8.04687 7.96875,8.04688 7.96875,22.22656 0,14.14063 -7.96875,22.1875 -7.96875,8.04688 -22.031251,8.04688 -14.023437,0 -22.03125,-8.04688 -7.96875,-8.04687 -7.96875,-22.1875 0,-14.17968 7.96875,-22.22656 8.007813,-8.04687 22.03125,-8.04687 z" />
        <path
           inkscape:connector-curvature="0"
           id="path4163"
           style="font-style:normal;font-variant:normal;font-weight:bold;font-stretch:normal;font-size:80px;font-family:sans-serif;-inkscape-font-specification:'sans-serif Bold';fill:#ffffff"
           d="m 129.70898,106.03485 24.96094,0 q 11.13281,0 17.07031,4.96094 5.97657,4.92188 5.97657,14.0625 0,9.17969 -5.97657,14.14063 -5.9375,4.92187 -17.07031,4.92187 l -9.92187,0 0,20.23438 -15.03907,0 0,-58.32032 z m 15.03907,10.89844 0,16.28906 8.32031,0 q 4.375,0 6.75781,-2.10937 2.38281,-2.14844 2.38281,-6.05469 0,-3.90625 -2.38281,-6.01562 -2.38281,-2.10938 -6.75781,-2.10938 l -8.32031,0 z" />
        <path
           inkscape:connector-curvature="0"
           id="path4165"
           style="font-style:normal;font-variant:normal;font-weight:bold;font-stretch:normal;font-size:80px;font-family:sans-serif;-inkscape-font-specification:'sans-serif Bold';fill:#ffffff"
           d="m 188.30273,106.03485 19.14063,0 13.28125,31.21094 13.35937,-31.21094 19.10157,0 0,58.32032 -14.21875,0 0,-42.65625 -13.4375,31.44531 -9.53125,0 -13.4375,-31.44531 0,42.65625 -14.25782,0 0,-58.32032 z" />
        <path
           inkscape:connector-curvature="0"
           id="path4167"
           style="font-style:normal;font-variant:normal;font-weight:bold;font-stretch:normal;font-size:80px;font-family:sans-serif;-inkscape-font-specification:'sans-serif Bold';fill:#ffffff"
           d="m 267.99023,106.03485 15.03907,0 0,46.95313 26.40625,0 0,11.36719 -41.44532,0 0,-58.32032 z" />
      </g>
    </g>
  </g>
</svg>
