<?xml version="1.0" encoding="UTF-8" standalone="no"?>
<!-- Created with Inkscape (http://www.inkscape.org/) -->

<svg
   xmlns:dc="http://purl.org/dc/elements/1.1/"
   xmlns:cc="http://creativecommons.org/ns#"
   xmlns:rdf="http://www.w3.org/1999/02/22-rdf-syntax-ns#"
   xmlns:svg="http://www.w3.org/2000/svg"
   xmlns="http://www.w3.org/2000/svg"
   xmlns:sodipodi="http://sodipodi.sourceforge.net/DTD/sodipodi-0.dtd"
   xmlns:inkscape="http://www.inkscape.org/namespaces/inkscape"
   width="500"
   height="500"
   id="svg2"
   version="1.1"
   inkscape:version="0.91 r13725"
   sodipodi:docname="text-x-katefilelist.svg">
  <defs
     id="defs4" />
  <sodipodi:namedview
     id="base"
     pagecolor="#ffffff"
     bordercolor="#666666"
     borderopacity="1.0"
     inkscape:pageopacity="0.0"
     inkscape:pageshadow="2"
     inkscape:zoom="0.42897809"
     inkscape:cx="-72.44802"
     inkscape:cy="254.73569"
     inkscape:document-units="px"
     inkscape:current-layer="layer1"
     showgrid="false"
     inkscape:window-width="1366"
     inkscape:window-height="715"
     inkscape:window-x="0"
     inkscape:window-y="24"
     inkscape:window-maximized="1" />
  <metadata
     id="metadata7">
    <rdf:RDF>
      <cc:Work
         rdf:about="">
        <dc:format>image/svg+xml</dc:format>
        <dc:type
           rdf:resource="http://purl.org/dc/dcmitype/StillImage" />
        <dc:title />
      </cc:Work>
    </rdf:RDF>
  </metadata>
  <g
     inkscape:label="Layer 1"
     inkscape:groupmode="layer"
     id="layer1"
     transform="translate(0,-552.36218)">
    <g
       id="g3373">
      <path
         sodipodi:nodetypes="ccccc"
         inkscape:connector-curvature="0"
         id="path4230"
         d="M 63.03896,706.21224 116.261,758.3108 114.60095,685.26895 63,685.02385 Z"
         style="fill:#1d2129;fill-opacity:1;fill-rule:evenodd;stroke:none;stroke-width:1px;stroke-linecap:butt;stroke-linejoin:miter;stroke-opacity:1" />
      <path
         inkscape:connector-curvature="0"
         id="path3364"
         d="m 97.04097,1029.8357 336.88839,-1.1739 1.17377,-363.88646 -88.03697,-89.21086 -250.02519,0 z"
         style="fill:#f2f2f2;fill-rule:evenodd;stroke:#afafaf;stroke-width:5.03546047;stroke-linecap:butt;stroke-linejoin:miter;stroke-miterlimit:4;stroke-dasharray:none;stroke-opacity:1" />
      <path
         sodipodi:nodetypes="cccc"
         inkscape:connector-curvature="0"
         id="path4166"
         d="m 431.51909,662.93118 -82.16431,-0.58691 0.75853,-83.80351 z"
         style="fill:#afafaf;fill-opacity:1;fill-rule:evenodd;stroke:#afafaf;stroke-width:5.03546047;stroke-linecap:butt;stroke-linejoin:miter;stroke-miterlimit:4;stroke-dasharray:none;stroke-opacity:1" />
      <rect
         y="622.18732"
         x="63.139656"
         height="84.350876"
         width="276.85876"
         id="rect4228"
         style="fill:#394050;fill-opacity:1;stroke:none;stroke-width:5;stroke-miterlimit:4;stroke-dasharray:none;stroke-opacity:1" />
      <rect
         y="881.03656"
         x="115.91528"
         height="12.142574"
         width="297.32489"
         id="rect2990-3"
         style="fill:#394050;fill-opacity:1;stroke:none" />
      <rect
         y="933.61615"
         x="117.08083"
         height="12.142574"
         width="297.77072"
         id="rect2990-3-7"
         style="fill:#394050;fill-opacity:1;stroke:none" />
      <rect
         y="987.84167"
         x="117.08083"
         height="12.142574"
         width="203.88005"
         id="rect2990-3-35"
         style="fill:#394050;fill-opacity:1;stroke:none" />
      <rect
         y="776.39893"
         x="113.94858"
         height="12.142574"
         width="297.32489"
         id="rect2990-3-2"
         style="fill:#394050;fill-opacity:1;stroke:none" />
      <rect
         y="828.97852"
         x="115.11412"
         height="12.142574"
         width="297.77072"
         id="rect2990-3-7-2"
         style="fill:#394050;fill-opacity:1;stroke:none" />
      <g
         id="flowRoot3343"
         style="font-style:normal;font-weight:normal;font-size:40px;line-height:125%;font-family:sans-serif;letter-spacing:0px;word-spacing:0px;fill:#ffffff;fill-opacity:1;stroke:none;stroke-width:1px;stroke-linecap:butt;stroke-linejoin:miter;stroke-opacity:1"
         transform="matrix(0.80352939,0,0,0.80352939,14.558779,561.84739)">
        <path
           inkscape:connector-curvature="0"
           id="path3352"
           style="font-style:normal;font-variant:normal;font-weight:bold;font-stretch:normal;font-size:80px;font-family:sans-serif;-inkscape-font-specification:'sans-serif Bold';fill:#ffffff"
           d="m 74.101562,98.616886 15.039063,0 0,21.289064 21.679685,-21.289064 17.46094,0 -28.08594,27.617184 30.97656,30.70313 -18.82812,0 -23.203125,-22.96875 0,22.96875 -15.039063,0 0,-58.320314 z" />
        <path
           inkscape:connector-curvature="0"
           id="path3354"
           style="font-style:normal;font-variant:normal;font-weight:bold;font-stretch:normal;font-size:80px;font-family:sans-serif;-inkscape-font-specification:'sans-serif Bold';fill:#ffffff"
           d="m 171.52344,146.3122 -23.51563,0 -3.71094,10.625 -15.11718,0 21.60156,-58.320314 17.92969,0 21.60156,58.320314 -15.11719,0 -3.67187,-10.625 z m -19.76563,-10.82031 15.97656,0 -7.96875,-23.20313 -8.00781,23.20313 z" />
        <path
           inkscape:connector-curvature="0"
           id="path3356"
           style="font-style:normal;font-variant:normal;font-weight:bold;font-stretch:normal;font-size:80px;font-family:sans-serif;-inkscape-font-specification:'sans-serif Bold';fill:#ffffff"
           d="m 184.80469,98.616886 53.75,0 0,11.367184 -19.33594,0 0,46.95313 -15.03906,0 0,-46.95313 -19.375,0 0,-11.367184 z" />
        <path
           inkscape:connector-curvature="0"
           id="path3358"
           style="font-style:normal;font-variant:normal;font-weight:bold;font-stretch:normal;font-size:80px;font-family:sans-serif;-inkscape-font-specification:'sans-serif Bold';fill:#ffffff"
           d="m 246.28906,98.616886 40.58594,0 0,11.367184 -25.54688,0 0,10.85938 24.02344,0 0,11.36719 -24.02344,0 0,13.35937 26.40625,0 0,11.36719 -41.44531,0 0,-58.320314 z" />
        <path
           inkscape:connector-curvature="0"
           id="path3360"
           style="font-style:normal;font-variant:normal;font-weight:bold;font-stretch:normal;font-size:80px;font-family:sans-serif;-inkscape-font-specification:'sans-serif Bold';fill:#ffffff"
           d="m 300.97656,98.616886 40.58594,0 0,11.367184 -25.54688,0 0,10.85938 24.02344,0 0,11.36719 -24.02344,0 0,24.72656 -15.03906,0 0,-58.320314 z" />
        <path
           inkscape:connector-curvature="0"
           id="path3362"
           style="font-style:normal;font-variant:normal;font-weight:bold;font-stretch:normal;font-size:80px;font-family:sans-serif;-inkscape-font-specification:'sans-serif Bold';fill:#ffffff"
           d="m 355.66406,98.616886 15.03906,0 0,46.953124 26.40625,0 0,11.36719 -41.44531,0 0,-58.320314 z" />
      </g>
    </g>
  </g>
</svg>
