<?xml version="1.0" encoding="UTF-8" standalone="no"?>
<!-- Created with Inkscape (http://www.inkscape.org/) -->

<svg
   xmlns:dc="http://purl.org/dc/elements/1.1/"
   xmlns:cc="http://creativecommons.org/ns#"
   xmlns:rdf="http://www.w3.org/1999/02/22-rdf-syntax-ns#"
   xmlns:svg="http://www.w3.org/2000/svg"
   xmlns="http://www.w3.org/2000/svg"
   xmlns:sodipodi="http://sodipodi.sourceforge.net/DTD/sodipodi-0.dtd"
   xmlns:inkscape="http://www.inkscape.org/namespaces/inkscape"
   width="500"
   height="500"
   id="svg2"
   version="1.1"
   inkscape:version="0.91 r13725"
   sodipodi:docname="url-rtspt.svg">
  <defs
     id="defs4" />
  <sodipodi:namedview
     id="base"
     pagecolor="#ffffff"
     bordercolor="#666666"
     borderopacity="1.0"
     inkscape:pageopacity="0.0"
     inkscape:pageshadow="2"
     inkscape:zoom="0.85795622"
     inkscape:cx="134.13633"
     inkscape:cy="277.26363"
     inkscape:document-units="px"
     inkscape:current-layer="layer1"
     showgrid="false"
     inkscape:window-width="1366"
     inkscape:window-height="715"
     inkscape:window-x="0"
     inkscape:window-y="24"
     inkscape:window-maximized="1" />
  <metadata
     id="metadata7">
    <rdf:RDF>
      <cc:Work
         rdf:about="">
        <dc:format>image/svg+xml</dc:format>
        <dc:type
           rdf:resource="http://purl.org/dc/dcmitype/StillImage" />
        <dc:title />
      </cc:Work>
    </rdf:RDF>
  </metadata>
  <g
     inkscape:label="Layer 1"
     inkscape:groupmode="layer"
     id="layer1"
     transform="translate(0,-552.36218)">
    <g
       id="g4199">
      <path
         sodipodi:nodetypes="ccccc"
         inkscape:connector-curvature="0"
         id="path4230"
         d="M 63.03896,706.21214 116.261,758.3107 114.60095,685.26885 63,685.02375 Z"
         style="fill:#002029;fill-opacity:1;fill-rule:evenodd;stroke:none;stroke-width:1px;stroke-linecap:butt;stroke-linejoin:miter;stroke-opacity:1" />
      <path
         inkscape:connector-curvature="0"
         id="path3364"
         d="m 97.04097,1029.8357 336.88839,-1.1739 1.17376,-363.88656 -88.03696,-89.21086 -250.02519,0 z"
         style="fill:#f2f2f2;fill-rule:evenodd;stroke:#afafaf;stroke-width:5.03546047;stroke-linecap:butt;stroke-linejoin:miter;stroke-miterlimit:4;stroke-dasharray:none;stroke-opacity:1" />
      <path
         sodipodi:nodetypes="cccc"
         inkscape:connector-curvature="0"
         id="path4166"
         d="m 431.51909,662.93108 -82.16431,-0.58691 0.75853,-83.80351 z"
         style="fill:#afafaf;fill-opacity:1;fill-rule:evenodd;stroke:#afafaf;stroke-width:5.03546047;stroke-linecap:butt;stroke-linejoin:miter;stroke-miterlimit:4;stroke-dasharray:none;stroke-opacity:1" />
      <rect
         y="622.18719"
         x="63.139648"
         height="84.350876"
         width="271.23123"
         id="rect4228"
         style="fill:#004455;fill-opacity:1;stroke:none;stroke-width:5;stroke-miterlimit:4;stroke-dasharray:none;stroke-opacity:1" />
      <g
         id="g4171">
        <path
           inkscape:connector-curvature="0"
           style="fill:#004455;fill-opacity:1;stroke:none"
           d="m 146.46594,793.49695 0,233.76635 233.76623,0 0,-233.76635 -233.76623,0 z m 17.53247,17.53246 17.53247,0 0,17.53247 -17.53247,0 0,-17.53247 z m 181.16883,0 17.53247,0 0,17.53247 -17.53247,0 0,-17.53247 z m -181.16883,43.83117 17.53247,0 0,17.53247 -17.53247,0 0,-17.53247 z m 181.16883,0 17.53247,0 0,17.53247 -17.53247,0 0,-17.53247 z m -181.16883,46.75325 17.53247,0 0,17.53247 -17.53247,0 0,-17.53247 z m 181.16883,0 17.53247,0 0,17.53247 -17.53247,0 0,-17.53247 z m -181.16883,46.75325 17.53247,0 0,17.53251 -17.53247,0 0,-17.53251 z m 181.16883,0 17.53247,0 0,17.53251 -17.53247,0 0,-17.53251 z m -181.16883,43.83121 17.53247,0 0,17.53251 -17.53247,0 0,-17.53251 z m 181.16883,0 17.53247,0 0,17.53251 -17.53247,0 0,-17.53251 z"
           id="rect4197-3" />
        <rect
           style="fill:#00bbf2;fill-opacity:1;stroke:none"
           id="rect4323-6"
           width="128.57137"
           height="90.584404"
           x="199.68207"
           y="811.47137" />
        <rect
           style="fill:#00bbf2;fill-opacity:1;stroke:none"
           id="rect4325-7"
           width="128.57137"
           height="90.584419"
           x="199.06335"
           y="919.1463" />
        <path
           style="fill:#f03916;fill-opacity:0.94117647;fill-rule:evenodd;stroke:none;stroke-width:1px;stroke-linecap:butt;stroke-linejoin:miter;stroke-opacity:1"
           d="m 247.35651,1010.0512 c 0,0 2.86215,-30.71269 26.16295,-50.91177 23.3008,-20.19908 54.44722,-13.43503 54.44722,-13.43503 l -0.29289,64.5968 z"
           id="path4167"
           inkscape:connector-curvature="0"
           sodipodi:nodetypes="czccc" />
        <path
           style="fill:#f03916;fill-opacity:0.94117647;fill-rule:evenodd;stroke:none;stroke-width:1px;stroke-linecap:butt;stroke-linejoin:miter;stroke-opacity:1"
           d="m 229.09906,811.13007 c 0,0 -0.28499,9.08166 7.25,18.25 7.53499,9.16834 15.73483,10.7045 15.73483,10.7045 l -0.23483,20.2955 9,0 0.25,-20.25 c 0,0 7.08078,-0.72073 15.25,-9.25 8.16922,-8.52927 7.5,-20 7.5,-20 z"
           id="path4169"
           inkscape:connector-curvature="0"
           sodipodi:nodetypes="czcccczcc" />
        <rect
           style="fill:#d45500;fill-opacity:0.94117647;stroke:none;stroke-opacity:1"
           id="rect4171"
           width="9.1923885"
           height="7.0710678"
           x="251.59915"
           y="863.07642" />
      </g>
      <g
         id="flowRoot4166"
         style="font-style:normal;font-weight:normal;font-size:40px;line-height:125%;font-family:sans-serif;letter-spacing:0px;word-spacing:0px;fill:#ffffff;fill-opacity:1;stroke:none;stroke-width:1px;stroke-linecap:butt;stroke-linejoin:miter;stroke-opacity:1"
         transform="matrix(0.90368511,0,0,0.90368511,-19.001874,551.56575)">
        <path
           inkscape:connector-curvature="0"
           id="path4175"
           style="font-style:normal;font-variant:normal;font-weight:bold;font-stretch:normal;font-size:80px;font-family:sans-serif;-inkscape-font-specification:'sans-serif Bold';fill:#ffffff"
           d="m 126.61719,120.68329 q 4.72656,0 6.75781,-1.75781 2.07031,-1.75781 2.07031,-5.78125 0,-3.98438 -2.07031,-5.70313 -2.03125,-1.71875 -6.75781,-1.71875 l -6.32813,0 0,14.96094 6.32813,0 z m -6.32813,10.39063 0,22.07031 -15.03906,0 0,-58.320313 22.96875,0 q 11.52344,0 16.875,3.867188 5.39062,3.867185 5.39062,12.226565 0,5.78125 -2.8125,9.49218 -2.77343,3.71094 -8.39843,5.46875 3.08593,0.70313 5.50781,3.20313 2.46094,2.46094 4.96094,7.5 l 8.16406,16.5625 -16.01563,0 -7.10937,-14.49219 q -2.14844,-4.375 -4.375,-5.97656 -2.1875,-1.60156 -5.85937,-1.60156 l -4.25782,0 z" />
        <path
           inkscape:connector-curvature="0"
           id="path4177"
           style="font-style:normal;font-variant:normal;font-weight:bold;font-stretch:normal;font-size:80px;font-family:sans-serif;-inkscape-font-specification:'sans-serif Bold';fill:#ffffff"
           d="m 156.26562,94.823917 53.75,0 0,11.367183 -19.33593,0 0,46.95313 -15.03907,0 0,-46.95313 -19.375,0 0,-11.367183 z" />
        <path
           inkscape:connector-curvature="0"
           id="path4179"
           style="font-style:normal;font-variant:normal;font-weight:bold;font-stretch:normal;font-size:80px;font-family:sans-serif;-inkscape-font-specification:'sans-serif Bold';fill:#ffffff"
           d="m 258.33594,96.659855 0,12.343745 q -4.80469,-2.14843 -9.375,-3.24218 -4.57032,-1.09375 -8.63282,-1.09375 -5.39062,0 -7.96875,1.48437 -2.57812,1.48438 -2.57812,4.60938 0,2.34375 1.71875,3.67187 1.75781,1.28906 6.32812,2.22656 l 6.40625,1.28907 q 9.72657,1.95312 13.82813,5.9375 4.10156,3.98437 4.10156,11.32812 0,9.64844 -5.74219,14.375 -5.70312,4.6875 -17.46093,4.6875 -5.54688,0 -11.13282,-1.05469 -5.58593,-1.05468 -11.17187,-3.125 l 0,-12.69531 q 5.58594,2.96875 10.78125,4.49219 5.23437,1.48437 10.07812,1.48437 4.92188,0 7.53907,-1.64062 2.61718,-1.64063 2.61718,-4.6875 0,-2.73438 -1.79687,-4.21875 -1.75781,-1.48438 -7.07031,-2.65625 l -5.82032,-1.28906 q -8.75,-1.875 -12.8125,-5.97657 -4.02343,-4.10156 -4.02343,-11.05468 0,-8.71094 5.625,-13.39844 5.625,-4.6875 16.17187,-4.6875 4.80469,0 9.88281,0.742187 5.07813,0.703125 10.50782,2.148438 z" />
        <path
           inkscape:connector-curvature="0"
           id="path4181"
           style="font-style:normal;font-variant:normal;font-weight:bold;font-stretch:normal;font-size:80px;font-family:sans-serif;-inkscape-font-specification:'sans-serif Bold';fill:#ffffff"
           d="m 275.40625,94.823917 24.96094,0 q 11.13281,0 17.07031,4.960938 5.97656,4.921875 5.97656,14.062495 0,9.17969 -5.97656,14.14063 -5.9375,4.92187 -17.07031,4.92187 l -9.92188,0 0,20.23438 -15.03906,0 0,-58.320313 z m 15.03906,10.898433 0,16.28907 8.32031,0 q 4.375,0 6.75782,-2.10938 2.38281,-2.14844 2.38281,-6.05469 0,-3.90625 -2.38281,-6.01562 -2.38282,-2.10938 -6.75782,-2.10938 l -8.32031,0 z" />
        <path
           inkscape:connector-curvature="0"
           id="path4183"
           style="font-style:normal;font-variant:normal;font-weight:bold;font-stretch:normal;font-size:80px;font-family:sans-serif;-inkscape-font-specification:'sans-serif Bold';fill:#ffffff"
           d="m 327.04687,94.823917 53.75,0 0,11.367183 -19.33593,0 0,46.95313 -15.03907,0 0,-46.95313 -19.375,0 0,-11.367183 z" />
      </g>
    </g>
  </g>
</svg>
