<?xml version="1.0" encoding="UTF-8" standalone="no"?>
<!-- Created with Inkscape (http://www.inkscape.org/) -->

<svg
   xmlns:dc="http://purl.org/dc/elements/1.1/"
   xmlns:cc="http://creativecommons.org/ns#"
   xmlns:rdf="http://www.w3.org/1999/02/22-rdf-syntax-ns#"
   xmlns:svg="http://www.w3.org/2000/svg"
   xmlns="http://www.w3.org/2000/svg"
   xmlns:sodipodi="http://sodipodi.sourceforge.net/DTD/sodipodi-0.dtd"
   xmlns:inkscape="http://www.inkscape.org/namespaces/inkscape"
   width="500"
   height="500"
   id="svg2"
   version="1.1"
   inkscape:version="0.91 r13725"
   sodipodi:docname="video-x-mng.svg">
  <defs
     id="defs4" />
  <sodipodi:namedview
     id="base"
     pagecolor="#ffffff"
     bordercolor="#666666"
     borderopacity="1.0"
     inkscape:pageopacity="0.0"
     inkscape:pageshadow="2"
     inkscape:zoom="0.85795622"
     inkscape:cx="331.67977"
     inkscape:cy="265.77054"
     inkscape:document-units="px"
     inkscape:current-layer="layer1"
     showgrid="false"
     inkscape:window-width="1366"
     inkscape:window-height="715"
     inkscape:window-x="0"
     inkscape:window-y="24"
     inkscape:window-maximized="1" />
  <metadata
     id="metadata7">
    <rdf:RDF>
      <cc:Work
         rdf:about="">
        <dc:format>image/svg+xml</dc:format>
        <dc:type
           rdf:resource="http://purl.org/dc/dcmitype/StillImage" />
        <dc:title />
      </cc:Work>
    </rdf:RDF>
  </metadata>
  <g
     inkscape:label="Layer 1"
     inkscape:groupmode="layer"
     id="layer1"
     transform="translate(0,-552.36218)">
    <g
       id="g4191">
      <path
         sodipodi:nodetypes="ccccc"
         inkscape:connector-curvature="0"
         id="path4230"
         d="M 63.03896,706.21214 116.261,758.3107 114.60095,685.26885 63,685.02375 Z"
         style="fill:#002029;fill-opacity:1;fill-rule:evenodd;stroke:none;stroke-width:1px;stroke-linecap:butt;stroke-linejoin:miter;stroke-opacity:1" />
      <path
         inkscape:connector-curvature="0"
         id="path3364"
         d="m 97.04097,1029.8357 336.88839,-1.1739 1.17376,-363.88656 -88.03696,-89.21086 -250.02519,0 z"
         style="fill:#f2f2f2;fill-rule:evenodd;stroke:#afafaf;stroke-width:5.03546047;stroke-linecap:butt;stroke-linejoin:miter;stroke-miterlimit:4;stroke-dasharray:none;stroke-opacity:1" />
      <path
         sodipodi:nodetypes="cccc"
         inkscape:connector-curvature="0"
         id="path4166"
         d="m 431.51909,662.93108 -82.16431,-0.58691 0.75853,-83.80351 z"
         style="fill:#afafaf;fill-opacity:1;fill-rule:evenodd;stroke:#afafaf;stroke-width:5.03546047;stroke-linecap:butt;stroke-linejoin:miter;stroke-miterlimit:4;stroke-dasharray:none;stroke-opacity:1" />
      <rect
         y="622.18719"
         x="63.139648"
         height="84.350876"
         width="247.92003"
         id="rect4228"
         style="fill:#004455;fill-opacity:1;stroke:none;stroke-width:5;stroke-miterlimit:4;stroke-dasharray:none;stroke-opacity:1" />
      <g
         id="g4171">
        <path
           inkscape:connector-curvature="0"
           style="fill:#004455;fill-opacity:1;stroke:none"
           d="m 146.46594,793.49695 0,233.76635 233.76623,0 0,-233.76635 -233.76623,0 z m 17.53247,17.53246 17.53247,0 0,17.53247 -17.53247,0 0,-17.53247 z m 181.16883,0 17.53247,0 0,17.53247 -17.53247,0 0,-17.53247 z m -181.16883,43.83117 17.53247,0 0,17.53247 -17.53247,0 0,-17.53247 z m 181.16883,0 17.53247,0 0,17.53247 -17.53247,0 0,-17.53247 z m -181.16883,46.75325 17.53247,0 0,17.53247 -17.53247,0 0,-17.53247 z m 181.16883,0 17.53247,0 0,17.53247 -17.53247,0 0,-17.53247 z m -181.16883,46.75325 17.53247,0 0,17.53251 -17.53247,0 0,-17.53251 z m 181.16883,0 17.53247,0 0,17.53251 -17.53247,0 0,-17.53251 z m -181.16883,43.83121 17.53247,0 0,17.53251 -17.53247,0 0,-17.53251 z m 181.16883,0 17.53247,0 0,17.53251 -17.53247,0 0,-17.53251 z"
           id="rect4197-3" />
        <rect
           style="fill:#00bbf2;fill-opacity:1;stroke:none"
           id="rect4323-6"
           width="128.57137"
           height="90.584404"
           x="199.68207"
           y="811.47137" />
        <rect
           style="fill:#00bbf2;fill-opacity:1;stroke:none"
           id="rect4325-7"
           width="128.57137"
           height="90.584419"
           x="199.06335"
           y="919.1463" />
        <path
           style="fill:#f03916;fill-opacity:0.94117647;fill-rule:evenodd;stroke:none;stroke-width:1px;stroke-linecap:butt;stroke-linejoin:miter;stroke-opacity:1"
           d="m 247.35651,1010.0512 c 0,0 2.86215,-30.71269 26.16295,-50.91177 23.3008,-20.19908 54.44722,-13.43503 54.44722,-13.43503 l -0.29289,64.5968 z"
           id="path4167"
           inkscape:connector-curvature="0"
           sodipodi:nodetypes="czccc" />
        <path
           style="fill:#f03916;fill-opacity:0.94117647;fill-rule:evenodd;stroke:none;stroke-width:1px;stroke-linecap:butt;stroke-linejoin:miter;stroke-opacity:1"
           d="m 229.09906,811.13007 c 0,0 -0.28499,9.08166 7.25,18.25 7.53499,9.16834 15.73483,10.7045 15.73483,10.7045 l -0.23483,20.2955 9,0 0.25,-20.25 c 0,0 7.08078,-0.72073 15.25,-9.25 8.16922,-8.52927 7.5,-20 7.5,-20 z"
           id="path4169"
           inkscape:connector-curvature="0"
           sodipodi:nodetypes="czcccczcc" />
        <rect
           style="fill:#d45500;fill-opacity:0.94117647;stroke:none;stroke-opacity:1"
           id="rect4171"
           width="9.1923885"
           height="7.0710678"
           x="251.59915"
           y="863.07642" />
      </g>
      <g
         id="flowRoot4164"
         style="font-style:normal;font-weight:normal;font-size:40px;line-height:125%;font-family:sans-serif;letter-spacing:0px;word-spacing:0px;fill:#ffffff;fill-opacity:1;stroke:none;stroke-width:1px;stroke-linecap:butt;stroke-linejoin:miter;stroke-opacity:1"
         transform="translate(188.82082,314.58781)">
        <path
           inkscape:connector-curvature="0"
           id="path4173"
           style="font-style:normal;font-variant:normal;font-weight:bold;font-stretch:normal;font-size:80px;font-family:sans-serif;-inkscape-font-specification:'sans-serif Bold';fill:#ffffff"
           d="m -85.900391,319.77704 19.140625,0 13.28125,31.21094 13.359375,-31.21094 19.101563,0 0,58.32031 -14.21875,0 0,-42.65625 -13.4375,31.44532 -9.53125,0 -13.4375,-31.44532 0,42.65625 -14.257813,0 0,-58.32031 z" />
        <path
           inkscape:connector-curvature="0"
           id="path4175"
           style="font-style:normal;font-variant:normal;font-weight:bold;font-stretch:normal;font-size:80px;font-family:sans-serif;-inkscape-font-specification:'sans-serif Bold';fill:#ffffff"
           d="m -6.2128906,319.77704 15.0390625,0 0,21.28906 21.6796871,-21.28906 17.460938,0 -28.085938,27.61719 30.976563,30.70312 -18.828125,0 -23.2031251,-22.96875 0,22.96875 -15.0390625,0 0,-58.32031 z" />
        <path
           inkscape:connector-curvature="0"
           id="path4177"
           style="font-style:normal;font-variant:normal;font-weight:bold;font-stretch:normal;font-size:80px;font-family:sans-serif;-inkscape-font-specification:'sans-serif Bold';fill:#ffffff"
           d="m 108.24023,373.76142 q -5.625,2.73437 -11.679683,4.10156 -6.054688,1.36719 -12.5,1.36719 -14.570313,0 -23.085938,-8.125 -8.515625,-8.16407 -8.515625,-22.10938 0,-14.10156 8.671875,-22.1875 8.671875,-8.08594 23.75,-8.08594 5.820313,0 11.132813,1.09375 5.351558,1.09375 10.078128,3.24219 l 0,12.07031 q -4.88282,-2.77343 -9.726566,-4.14062 -4.804687,-1.36719 -9.648437,-1.36719 -8.984375,0 -13.867188,5.03906 -4.84375,5 -4.84375,14.33594 0,9.25781 4.6875,14.29688 4.6875,5.03906 13.320313,5.03906 2.34375,0 4.335937,-0.27344 2.03125,-0.3125 3.632813,-0.9375 l 0,-11.32812 -9.179688,0 0,-10.07813 23.437496,0 0,28.04688 z" />
      </g>
    </g>
  </g>
</svg>
