<?xml version="1.0" encoding="UTF-8" standalone="no"?>
<!-- Created with Inkscape (http://www.inkscape.org/) -->

<svg
   xmlns:dc="http://purl.org/dc/elements/1.1/"
   xmlns:cc="http://creativecommons.org/ns#"
   xmlns:rdf="http://www.w3.org/1999/02/22-rdf-syntax-ns#"
   xmlns:svg="http://www.w3.org/2000/svg"
   xmlns="http://www.w3.org/2000/svg"
   xmlns:sodipodi="http://sodipodi.sourceforge.net/DTD/sodipodi-0.dtd"
   xmlns:inkscape="http://www.inkscape.org/namespaces/inkscape"
   width="500"
   height="500"
   id="svg2"
   version="1.1"
   inkscape:version="0.91 r13725"
   sodipodi:docname="x-office-address-book.svg">
  <defs
     id="defs4" />
  <sodipodi:namedview
     id="base"
     pagecolor="#ffffff"
     bordercolor="#666666"
     borderopacity="1.0"
     inkscape:pageopacity="0.0"
     inkscape:pageshadow="2"
     inkscape:zoom="0.60666664"
     inkscape:cx="538.58173"
     inkscape:cy="171.56527"
     inkscape:document-units="px"
     inkscape:current-layer="layer1"
     showgrid="false"
     inkscape:window-width="1366"
     inkscape:window-height="715"
     inkscape:window-x="0"
     inkscape:window-y="24"
     inkscape:window-maximized="1" />
  <metadata
     id="metadata7">
    <rdf:RDF>
      <cc:Work
         rdf:about="">
        <dc:format>image/svg+xml</dc:format>
        <dc:type
           rdf:resource="http://purl.org/dc/dcmitype/StillImage" />
        <dc:title />
      </cc:Work>
    </rdf:RDF>
  </metadata>
  <g
     inkscape:label="Layer 1"
     inkscape:groupmode="layer"
     id="layer1"
     transform="translate(0,-552.36218)">
    <g
       id="g3410">
      <path
         sodipodi:nodetypes="ccccc"
         inkscape:connector-curvature="0"
         id="path4230"
         d="M 63.03896,706.2122 116.261,758.31076 114.60095,685.26891 63,685.02381 Z"
         style="fill:#9e592c;fill-opacity:1;fill-rule:evenodd;stroke:none;stroke-width:1px;stroke-linecap:butt;stroke-linejoin:miter;stroke-opacity:1" />
      <path
         inkscape:connector-curvature="0"
         id="path3364"
         d="m 97.04097,1029.8357 336.8883,-1.1739 1.1738,-363.8865 -88.0369,-89.21086 -250.0252,0 z"
         style="fill:#f2f2f2;fill-rule:evenodd;stroke:#afafaf;stroke-width:5.03546047;stroke-linecap:butt;stroke-linejoin:miter;stroke-miterlimit:4;stroke-dasharray:none;stroke-opacity:1" />
      <path
         sodipodi:nodetypes="cccc"
         inkscape:connector-curvature="0"
         id="path4166"
         d="m 431.51897,662.93114 -82.1642,-0.58691 0.7585,-83.80351 z"
         style="fill:#afafaf;fill-opacity:1;fill-rule:evenodd;stroke:#afafaf;stroke-width:5.03546047;stroke-linecap:butt;stroke-linejoin:miter;stroke-miterlimit:4;stroke-dasharray:none;stroke-opacity:1" />
      <rect
         y="622.18738"
         x="63.139679"
         height="84.350876"
         width="215.64552"
         id="rect4228"
         style="fill:#c87137;fill-opacity:1;stroke:none;stroke-width:5;stroke-miterlimit:4;stroke-dasharray:none;stroke-opacity:1" />
      <g
         id="g4270">
        <rect
           style="fill:#b3b3b3;fill-opacity:1;stroke:none"
           id="rect3025"
           width="20.936241"
           height="43.617168"
           x="374.74789"
           y="780.71289"
           rx="6.8237085"
           ry="6.1532125" />
        <rect
           style="fill:#b3b3b3;fill-opacity:1;stroke:none"
           id="rect3025-3"
           width="20.936241"
           height="43.617168"
           x="374.74789"
           y="834.1723"
           rx="6.8237085"
           ry="6.1532125" />
        <rect
           style="fill:#b3b3b3;fill-opacity:1;stroke:none"
           id="rect3025-6"
           width="20.936241"
           height="43.617168"
           x="374.74789"
           y="885.79303"
           rx="6.8237085"
           ry="6.1532125" />
        <rect
           style="fill:#b3b3b3;fill-opacity:1;stroke:none"
           id="rect3025-3-7"
           width="20.936241"
           height="43.617168"
           x="374.74789"
           y="939.25244"
           rx="6.8237085"
           ry="6.1532125" />
        <rect
           style="fill:#c87137;fill-opacity:1;stroke:none"
           id="rect3003"
           width="229.729"
           height="271.18008"
           x="152.77972"
           y="754.16449"
           ry="21.443489"
           rx="18.977612" />
        <path
           style="fill:#45d03f;fill-opacity:1;stroke:none;stroke-width:1px;stroke-linecap:butt;stroke-linejoin:miter;stroke-opacity:1"
           d="m 211.79936,1025.317 -40.40301,0.1028 c 0,0 -6.57257,-0.2138 -12.43961,-5.6543 -5.86703,-5.4405 -6.2712,-15.0098 -6.2712,-15.0098 l 0.20561,-229.67006 c 0,0 -0.10573,-8.2365 5.24314,-14.39293 5.34887,-6.15642 14.59854,-6.57962 14.59854,-6.57962 l 38.96373,0 0,0 z"
           id="path3064"
           inkscape:connector-curvature="0"
           sodipodi:nodetypes="cczcczcccc" />
        <circle
           cy="784.72528"
           cx="180.71687"
           style="fill:#394050;fill-opacity:1;stroke:none"
           id="path3777"
           r="11.361597" />
        <path
           style="fill:#b3b3b3;fill-opacity:1;stroke:none"
           d="m 139.92546,791.84186 41.20137,0 c 0,0 6.05946,-0.52312 5.93052,-6.49237 -0.12887,-5.96922 -6.24264,-6.742 -6.24264,-6.742 l -41.38868,0.24963 c 0,0 -5.36108,1.16037 -5.2438,6.74203 0.11719,5.58166 5.74323,6.24278 5.74323,6.24278 z"
           id="path3779"
           inkscape:connector-curvature="0"
           sodipodi:nodetypes="cczcczc" />
        <circle
           cy="813.84875"
           cx="180.9789"
           style="fill:#394050;fill-opacity:1;stroke:none"
           id="path3777-3"
           r="11.361597" />
        <path
           style="fill:#b3b3b3;fill-opacity:1;stroke:none"
           d="m 140.18742,820.96531 41.20137,0 c 0,0 6.05947,-0.52313 5.93053,-6.49238 -0.12887,-5.96922 -6.24265,-6.742 -6.24265,-6.742 l -41.38867,0.24963 c 0,0 -5.36108,1.16037 -5.2438,6.74204 0.11719,5.58166 5.74322,6.24277 5.74322,6.24277 z"
           id="path3779-6"
           inkscape:connector-curvature="0"
           sodipodi:nodetypes="cczcczc" />
        <circle
           cy="842.72278"
           cx="181.20102"
           style="fill:#394050;fill-opacity:1;stroke:none"
           id="path3777-7"
           r="11.361597" />
        <path
           style="fill:#b3b3b3;fill-opacity:1;stroke:none"
           d="m 140.40956,849.83937 41.20137,0 c 0,0 6.05946,-0.52312 5.93052,-6.49237 -0.12887,-5.96922 -6.24264,-6.742 -6.24264,-6.742 l -41.38867,0.24963 c 0,0 -5.36109,1.16037 -5.2438,6.74204 0.11718,5.58166 5.74322,6.24277 5.74322,6.24277 z"
           id="path3779-5"
           inkscape:connector-curvature="0"
           sodipodi:nodetypes="cczcczc" />
        <circle
           cy="871.84631"
           cx="181.46304"
           style="fill:#394050;fill-opacity:1;stroke:none"
           id="path3777-3-3"
           r="11.361597" />
        <path
           style="fill:#b3b3b3;fill-opacity:1;stroke:none"
           d="m 140.67152,878.96282 41.20137,0 c 0,0 6.05947,-0.52312 5.93053,-6.49237 -0.12887,-5.96923 -6.24264,-6.74201 -6.24264,-6.74201 l -41.38868,0.24963 c 0,0 -5.36108,1.16038 -5.2438,6.74204 0.11719,5.58165 5.74322,6.24277 5.74322,6.24277 z"
           id="path3779-6-5"
           inkscape:connector-curvature="0"
           sodipodi:nodetypes="cczcczc" />
        <circle
           cy="900.9046"
           cx="181.33434"
           style="fill:#394050;fill-opacity:1;stroke:none"
           id="path3777-6"
           r="11.361597" />
        <path
           style="fill:#b3b3b3;fill-opacity:1;stroke:none"
           d="m 140.54285,908.02117 41.20137,0 c 0,0 6.05946,-0.52312 5.93052,-6.49237 -0.12887,-5.96922 -6.24264,-6.742 -6.24264,-6.742 l -41.38868,0.24963 c 0,0 -5.36108,1.16037 -5.2438,6.74203 0.11719,5.58166 5.74323,6.24278 5.74323,6.24278 z"
           id="path3779-2"
           inkscape:connector-curvature="0"
           sodipodi:nodetypes="cczcczc" />
        <circle
           cy="930.02814"
           cx="181.59636"
           style="fill:#394050;fill-opacity:1;stroke:none"
           id="path3777-3-9"
           r="11.361597" />
        <path
           style="fill:#b3b3b3;fill-opacity:1;stroke:none"
           d="m 140.80481,937.14461 41.20137,0 c 0,0 6.05947,-0.52312 5.93053,-6.49237 -0.12887,-5.96922 -6.24265,-6.74201 -6.24265,-6.74201 l -41.38867,0.24964 c 0,0 -5.36108,1.16037 -5.2438,6.74203 0.11719,5.58167 5.74322,6.24278 5.74322,6.24278 z"
           id="path3779-6-1"
           inkscape:connector-curvature="0"
           sodipodi:nodetypes="cczcczc" />
        <circle
           cy="958.90216"
           cx="181.81848"
           style="fill:#394050;fill-opacity:1;stroke:none"
           id="path3777-7-2"
           r="11.361597" />
        <path
           style="fill:#b3b3b3;fill-opacity:1;stroke:none"
           d="m 141.02695,966.01869 41.20137,0 c 0,0 6.05946,-0.52312 5.93052,-6.49238 -0.12887,-5.96922 -6.24264,-6.742 -6.24264,-6.742 l -41.38868,0.24963 c 0,0 -5.36108,1.16038 -5.24379,6.74203 0.11718,5.58166 5.74322,6.24278 5.74322,6.24278 z"
           id="path3779-5-7"
           inkscape:connector-curvature="0"
           sodipodi:nodetypes="cczcczc" />
        <circle
           cy="988.02563"
           cx="182.08049"
           style="fill:#394050;fill-opacity:1;stroke:none"
           id="path3777-3-3-0"
           r="11.361597" />
        <path
           style="fill:#b3b3b3;fill-opacity:1;stroke:none"
           d="m 141.28891,995.14212 41.20137,0 c 0,0 6.05947,-0.52312 5.93053,-6.49237 -0.12887,-5.96922 -6.24264,-6.742 -6.24264,-6.742 l -41.38868,0.24963 c 0,0 -5.36108,1.16037 -5.2438,6.74204 0.11719,5.58166 5.74322,6.24277 5.74322,6.24277 z"
           id="path3779-6-5-9"
           inkscape:connector-curvature="0"
           sodipodi:nodetypes="cczcczc" />
        <rect
           style="fill:#ffffff;fill-opacity:1;stroke:none"
           id="rect3008"
           width="130.26994"
           height="48.851231"
           x="228.41556"
           y="791.26703"
           rx="6.8237085"
           ry="6.1532125" />
        <g
           id="g4281"
           transform="matrix(2.9691896,0,0,2.9691896,-313.73901,-1176.9886)"
           style="fill:#ffffff;fill-opacity:1">
          <rect
             transform="matrix(0.70710678,-0.70710678,0.70710678,0.70710678,0,0)"
             y="645.69183"
             x="-362.37311"
             height="5.2367983"
             width="2.3999994"
             id="rect3284"
             style="fill:#ffffff;fill-opacity:1;fill-rule:evenodd;stroke:none" />
          <g
             id="g4277"
             style="fill:#ffffff;fill-opacity:1">
            <path
               inkscape:connector-curvature="0"
               style="fill:#ffffff;fill-opacity:1;fill-rule:evenodd;stroke:none"
               d="m 203.03309,704.81251 c -2.35636,1.4e-4 -4.69714,0.97062 -6.36211,2.63672 -1.66496,1.66609 -2.63437,4.00727 -2.63437,6.36328 0,2.356 0.96941,4.69718 2.63437,6.36328 1.66497,1.66609 4.00575,2.63657 6.36211,2.63671 2.35636,1.4e-4 4.69853,-0.96944 6.36562,-2.63554 1.66709,-1.66611 2.63789,-4.00819 2.63789,-6.36445 l -2.4,0 c 0,1.72792 -0.71223,3.44576 -1.93476,4.66757 -1.22253,1.22181 -2.94075,1.93253 -4.66875,1.93242 -1.728,-10e-5 -3.44426,-0.71178 -4.66523,-1.93359 -1.22098,-1.2218 -1.93125,-2.93867 -1.93125,-4.6664 0,-1.72774 0.71027,-3.4446 1.93125,-4.66641 1.22097,-1.2218 2.93723,-1.93349 4.66523,-1.93359 0.001,0 0.002,0 0.004,0 l 0,-2.4 c -0.001,0 -0.002,0 -0.004,0 z"
               id="path3304" />
            <path
               inkscape:connector-curvature="0"
               style="fill:#ffffff;fill-opacity:1;fill-rule:evenodd;stroke:none"
               d="m 212.73973,704.81251 -10.19999,10.2 1.69687,1.69687 10.19999,-10.2 -1.69687,-1.69687 z"
               id="path4149" />
          </g>
        </g>
      </g>
    </g>
  </g>
</svg>
