/* XPM */
static char * Close_pressed_xpm[] = {
"30 30 8 1",
" 	c None",
".	c #D63679",
"+	c #0F1013",
"@	c #7F2147",
"#	c #B22D65",
"$	c #CC3474",
"%	c #4B162B",
"&	c #A82A5E",
"..............................",
"..............................",
"..............................",
"..............................",
"..............................",
"..............................",
"..............................",
"..............................",
"..............................",
"..............................",
"..............................",
"..............................",
"..............................",
"++++++++++++++++++++++++++++++",
"++++++++++++++++++++++++++++++",
"+++++++++++@#$.$#@++++++++++++",
"+++++++++%&.......&%++++++++++",
"+++++++++&.........&++++++++++",
"++++++++@...........@+++++++++",
"++++++++#...........#+++++++++",
"++++++++$...........$+++++++++",
"++++++++.............+++++++++",
"++++++++$...........$+++++++++",
"++++++++#...........#+++++++++",
"++++++++@...........@+++++++++",
"+++++++++&.........&++++++++++",
"+++++++++%&.......&%++++++++++",
"+++++++++++@#$.$#@++++++++++++",
"++++++++++++++++++++++++++++++",
"++++++++++++++++++++++++++++++"};
