/* XPM */
static char * Maximize_xpm[] = {
"30 30 13 1",
" 	c None",
".	c #D63679",
"+	c #0F1013",
"@	c #483B50",
"#	c #665371",
"$	c #755F82",
"%	c #7B6488",
"&	c #2B2330",
"*	c #604E6A",
"=	c #766083",
"-	c #584761",
";	c #332A39",
">	c #493B51",
"..............................",
"..............................",
"..............................",
"..............................",
"..............................",
"..............................",
"..............................",
"..............................",
"..............................",
"..............................",
"..............................",
"..............................",
"..............................",
"++++++++++++++++++++++++++++++",
"++++++++++++++++++++++++++++++",
"+++++++++++@#$%$#@++++++++++++",
"+++++++++&*%%%%%%%*&++++++++++",
"+++++++++*%=-;+;-=%*++++++++++",
"++++++++@%=>+++++>=%@+++++++++",
"++++++++#%-+++++++-%#+++++++++",
"++++++++$%;+++++++;%$+++++++++",
"++++++++%%+++++++++%%+++++++++",
"++++++++$%;+++++++;%$+++++++++",
"++++++++#%-+++++++-%#+++++++++",
"++++++++@%=>+++++>=%@+++++++++",
"+++++++++*%=-;+;-=%*++++++++++",
"+++++++++&*%%%%%%%*&++++++++++",
"+++++++++++@#$%$#@++++++++++++",
"++++++++++++++++++++++++++++++",
"++++++++++++++++++++++++++++++"};
