<?xml version="1.0" encoding="UTF-8" standalone="no"?>
<!-- Created with Inkscape (http://www.inkscape.org/) -->

<svg
   xmlns:dc="http://purl.org/dc/elements/1.1/"
   xmlns:cc="http://creativecommons.org/ns#"
   xmlns:rdf="http://www.w3.org/1999/02/22-rdf-syntax-ns#"
   xmlns:svg="http://www.w3.org/2000/svg"
   xmlns="http://www.w3.org/2000/svg"
   xmlns:xlink="http://www.w3.org/1999/xlink"
   xmlns:sodipodi="http://sodipodi.sourceforge.net/DTD/sodipodi-0.dtd"
   xmlns:inkscape="http://www.inkscape.org/namespaces/inkscape"
   width="512"
   height="512"
   id="svg2"
   version="1.1"
   inkscape:version="0.48.4 r9939"
   sodipodi:docname="0ad.svg">
  <sodipodi:namedview
     id="base"
     pagecolor="#ffffff"
     bordercolor="#666666"
     borderopacity="1.0"
     inkscape:pageopacity="0.0"
     inkscape:pageshadow="2"
     inkscape:zoom="0.1767767"
     inkscape:cx="249.12367"
     inkscape:cy="249.76064"
     inkscape:document-units="px"
     inkscape:current-layer="layer1"
     showgrid="false"
     inkscape:window-width="1360"
     inkscape:window-height="721"
     inkscape:window-x="0"
     inkscape:window-y="25"
     inkscape:window-maximized="1" />
  <defs
     id="defs4">
    <linearGradient
       id="linearGradient4074">
      <stop
         style="stop-color:#000000;stop-opacity:1;"
         offset="0"
         id="stop4076" />
      <stop
         style="stop-color:#000000;stop-opacity:0;"
         offset="1"
         id="stop4078" />
    </linearGradient>
    <linearGradient
       id="linearGradient3837"
       inkscape:collect="always">
      <stop
         id="stop3839"
         offset="0"
         style="stop-color:#7db257;stop-opacity:1;" />
      <stop
         id="stop3841"
         offset="1"
         style="stop-color:#7db257;stop-opacity:0;" />
    </linearGradient>
    <clipPath
       id="clipPath3847"
       clipPathUnits="userSpaceOnUse">
      <path
         sodipodi:type="arc"
         style="fill:url(#linearGradient3851);fill-opacity:1;fill-rule:evenodd;stroke:none"
         id="path3849"
         sodipodi:cx="322.4407"
         sodipodi:cy="342.29437"
         sodipodi:rx="260.2153"
         sodipodi:ry="260.2153"
         d="m 582.65601,342.29437 a 260.2153,260.2153 0 1 1 -520.430607,0 260.2153,260.2153 0 1 1 520.430607,0 z"
         transform="matrix(0.88586957,0,0,0.88586957,-24.010886,495.98978)" />
    </clipPath>
    <linearGradient
       y2="356.66208"
       x2="316.05505"
       y1="546.63525"
       x1="502.83536"
       gradientUnits="userSpaceOnUse"
       id="linearGradient3851"
       xlink:href="#linearGradient3837"
       inkscape:collect="always" />
    <clipPath
       id="clipPath-601783356">
      <g
         transform="translate(0,-1004.3622)"
         id="g17">
        <path
           d="m -24,13 c 0,1.105 -0.672,2 -1.5,2 -0.828,0 -1.5,-0.895 -1.5,-2 0,-1.105 0.672,-2 1.5,-2 0.828,0 1.5,0.895 1.5,2 z"
           transform="matrix(15.333333,0,0,11.5,414.99999,878.8622)"
           id="path19"
           inkscape:connector-curvature="0"
           style="fill:#1890d0" />
      </g>
    </clipPath>
    <clipPath
       id="clipPath-593073577">
      <g
         transform="translate(0,-1004.3622)"
         id="g12">
        <path
           d="m -24,13 c 0,1.105 -0.672,2 -1.5,2 -0.828,0 -1.5,-0.895 -1.5,-2 0,-1.105 0.672,-2 1.5,-2 0.828,0 1.5,0.895 1.5,2 z"
           transform="matrix(15.333333,0,0,11.5,414.99999,878.8622)"
           id="path14"
           inkscape:connector-curvature="0"
           style="fill:#1890d0" />
      </g>
    </clipPath>
    <linearGradient
       id="linearGradient3764"
       x1="1"
       x2="47"
       gradientUnits="userSpaceOnUse"
       gradientTransform="matrix(0,-1,1,0,-1.5e-6,47.999998)">
      <stop
         stop-color="#acacac"
         stop-opacity="1"
         id="stop7" />
      <stop
         offset="1"
         stop-color="#b6b6b6"
         stop-opacity="1"
         id="stop9" />
    </linearGradient>
    <clipPath
       clipPathUnits="userSpaceOnUse"
       id="clipPath4064">
      <path
         transform="matrix(0.41551176,0,0,0.41551176,-70.068451,-77.98281)"
         d="m 582.65601,342.29437 a 260.2153,260.2153 0 1 1 -520.430607,0 260.2153,260.2153 0 1 1 520.430607,0 z"
         sodipodi:ry="260.2153"
         sodipodi:rx="260.2153"
         sodipodi:cy="342.29437"
         sodipodi:cx="322.4407"
         id="path4066"
         style="fill:#1d96b2;fill-opacity:1;fill-rule:evenodd;stroke:none"
         sodipodi:type="arc" />
    </clipPath>
    <linearGradient
       inkscape:collect="always"
       xlink:href="#linearGradient4074"
       id="linearGradient4080"
       x1="-65.503998"
       y1="522.84589"
       x2="434.45319"
       y2="989.84589"
       gradientUnits="userSpaceOnUse" />
    <clipPath
       clipPathUnits="userSpaceOnUse"
       id="clipPath4084">
      <path
         transform="matrix(0.88586957,0,0,0.88586957,-24.010886,495.98978)"
         d="m 582.65601,342.29437 a 260.2153,260.2153 0 1 1 -520.430607,0 260.2153,260.2153 0 1 1 520.430607,0 z"
         sodipodi:ry="260.2153"
         sodipodi:rx="260.2153"
         sodipodi:cy="342.29437"
         sodipodi:cx="322.4407"
         id="path4086"
         style="fill:#1d96b2;fill-opacity:1;fill-rule:evenodd;stroke:none"
         sodipodi:type="arc" />
    </clipPath>
  </defs>
  <metadata
     id="metadata7">
    <rdf:RDF>
      <cc:Work
         rdf:about="">
        <dc:format>image/svg+xml</dc:format>
        <dc:type
           rdf:resource="http://purl.org/dc/dcmitype/StillImage" />
        <dc:title></dc:title>
      </cc:Work>
    </rdf:RDF>
  </metadata>
  <g
     inkscape:label="Capa 1"
     inkscape:groupmode="layer"
     id="layer1"
     transform="translate(0,-540.36218)">
    <path
       sodipodi:type="arc"
       style="fill:#1d96b2;fill-rule:evenodd;stroke:none;fill-opacity:1"
       id="path2990"
       sodipodi:cx="322.4407"
       sodipodi:cy="342.29437"
       sodipodi:rx="260.2153"
       sodipodi:ry="260.2153"
       d="m 582.65601,342.29437 c 0,143.71295 -116.50236,260.2153 -260.21531,260.2153 -143.71294,0 -260.215297,-116.50235 -260.215297,-260.2153 0,-143.71294 116.502357,-260.215299 260.215297,-260.215299 143.71295,0 260.21531,116.502359 260.21531,260.215299 z"
       transform="matrix(0.88586957,0,0,0.88586957,-24.010886,495.98978)" />
    <path
       sodipodi:nodetypes="ssccs"
       inkscape:connector-curvature="0"
       id="path3016"
       d="m 582.65601,342.29437 c 0,143.71295 -116.50236,260.2153 -260.21531,260.2153 -71.85647,0 -136.91029,-29.12559 -184,-76.21529 L 506.44071,158.29437 c 47.08971,47.08971 76.2153,112.14353 76.2153,184 z"
       style="fill:#ffc537;fill-opacity:1;fill-rule:evenodd;stroke:none"
       transform="matrix(0.88586957,0,0,0.88586957,-24.010886,495.98978)" />
    <path
       inkscape:connector-curvature="0"
       id="path4070"
       d="m 567.4532,937.10377 c 0,0 -247.80625,-249.3152 -251.37646,-251.37646 -61.01732,-10.20874 -108.3402,-5.35359 -116.31907,42.77996 0.89046,0.51411 16.97414,16.40917 40.61685,39.98076 -82.00207,-18.8426 -109.6744,72.76136 -89.61685,84.51924 3.57021,2.06126 251.37646,251.37643 251.37646,251.37643 z"
       style="fill:url(#linearGradient4080);stroke:none;stroke-width:1px;stroke-linecap:butt;stroke-linejoin:miter;stroke-opacity:1;fill-opacity:1"
       sodipodi:nodetypes="ccccccc"
       clip-path="url(#clipPath4084)" />
    <g
       transform="matrix(2.1319964,0,0,2.1319964,125.3748,662.24885)"
       id="g3817">
      <g
         id="g33"
         transform="translate(0,80)" />
      <g
         id="g53"
         transform="matrix(4.9975858,0,0,4.9975858,-56.023051,-55.69933)">
        <g
           clip-path="url(#clipPath-601783356)"
           id="g55">
          <!-- color: #b6b6b6 -->
          <g
             id="g57">
            <path
               inkscape:connector-curvature="0"
               id="path61"
               transform="matrix(0.08622598,0,0,0.08622598,1.3160886,1.4356902)"
               d="m 261.375,122.53125 c -11.45826,0.0464 -22.41344,1.04872 -32.0625,2.71875 -28.40211,4.9869 -33.59375,15.36069 -33.59375,34.53125 l 0,25.3125 67.15625,0 0,8.4375 -92.34375,0 c -19.53008,0 -36.59108,11.59793 -41.9375,33.65625 -6.15824,25.2824 -6.48296,41.07654 0,67.4375 4.75495,19.65765 16.13777,33.65625 35.65625,33.65625 l 19.75,0 0,-33.59375 c 0,-21.88435 19.1798,-41.09375 41.96875,-41.09375 l 70.28125,0 c 18.66027,0 36.34375,-15.2289 36.34375,-33.75 l 0,-59.9375 c 0,-17.98762 -18.08939,-31.53911 -36.34375,-34.53125 -11.50465,-1.90198 -23.45958,-2.76514 -34.90625,-2.71875 l 0.0313,-0.125 z m -35.46875,26.03125 c 6.83418,0 12.375,5.50957 12.375,12.34375 0,6.83418 -5.54082,12.375 -12.375,12.375 -6.83418,0 -12.375,-5.54082 -12.375,-12.375 0,-6.83418 5.54082,-12.34375 12.375,-12.34375 z m 116.25,44.9375 0,29.5 c 0,22.83534 -19.60085,39.375 -41.9375,39.375 l -73.6875,0 c -18.34714,0 -33.5625,18.29557 -33.5625,36.46875 l 0,63.25 c 0,17.98762 15.79523,28.52664 33.5625,33.6875 21.2465,6.15824 44.39093,7.34117 69.8125,0 16.89746,-4.84773 33.59375,-14.57493 33.59375,-33.6875 l 0,-25.34375 -67.0625,0 0,-8.4375 100.6875,0 c 19.48369,0 26.7664,-13.49991 33.5625,-33.65625 7.01645,-20.7942 6.65693,-40.8098 0,-67.4375 -4.84773,-19.25174 -14.03242,-33.65625 -33.5625,-33.65625 L 342.15625,193.5 z m -42,162.9375 c 6.83418,0 12.375,5.54082 12.375,12.375 0,6.83418 -5.54082,12.375 -12.375,12.375 -6.83418,0 -12.375,-5.54082 -12.375,-12.375 0,-6.83418 5.54082,-12.375 12.375,-12.375 z"
               style="fill:#ffffec;fill-opacity:1;fill-rule:nonzero;stroke:none" />
          </g>
        </g>
      </g>
    </g>
  </g>
</svg>
