<svg height="48" width="48" xmlns="http://www.w3.org/2000/svg"><path d="M33.2 36.396l-6.09.004-4.149-6.25s-.668-1.17-1.079-1.51c-.342-.283-.489-.384-.827-.384h-.77v8.136L15 36.394V15.6h11.509s4.664.876 4.758 5.585c.107 5.248-4.507 6.791-4.507 6.791.633.264 5.721 7.203 6.44 8.416M24.074 20.11l-3.736-.002v3.536h3.737s1.732-.006 1.732-1.799c0-1.829-1.732-1.734-1.732-1.734" fill="#00BFFE" fill-rule="evenodd"/><g fill="none" stroke="#616161" stroke-linecap="round"><path d="M7.504 43.64c0 .912.946 1.876 1.838 1.876h29.353c.892 0 1.838-.964 1.838-1.875m0 0V14.599l-10.948-12.1L9.342 2.5c-.946 0-1.838.912-1.838 1.876V43.64" stroke-width=".988" stroke-linejoin="round"/><path d="M29.585 2.48l10.948 12.104-8.968-.036c-.927-.003-1.97-1.053-1.97-1.98z" stroke-linejoin="bevel"/></g></svg>