<svg height="48" width="48" xmlns="http://www.w3.org/2000/svg"><path style="isolation:auto;mix-blend-mode:normal;solid-color:#7f8080;solid-opacity:1;filter-blend-mode:normal;filter-gaussianBlur-deviation:0" d="M32.428 15.6c-1.519.022-7.75.657-10.244 9.402-2.262 7.926-6.732 7.193-6.737 7.196 0 0-.45-.032-.447-.036V36.4l.45-.003c.234-.046 7.026.79 10.088-8.274h5.496v-4.185h-3.69s1.07-4.073 5.422-4.147c0 0 .442-.005.434-.006V15.6h-.447v.008c-.008 0-.117-.01-.325-.008z" fill="#FE003F" color="#7F8080" overflow="visible"/><g fill="none" stroke="#616161" stroke-linecap="round"><path d="M7.504 43.64c0 .912.946 1.876 1.838 1.876h29.353c.892 0 1.838-.964 1.838-1.875m0 0V14.599l-10.948-12.1L9.342 2.5c-.946 0-1.838.912-1.838 1.876V43.64" stroke-width=".988" stroke-linejoin="round"/><path d="M29.585 2.48l10.948 12.104-8.968-.036c-.927-.003-1.97-1.053-1.97-1.98z" stroke-linejoin="bevel"/></g></svg>