<svg height="48" width="48" xmlns="http://www.w3.org/2000/svg"><path d="M13.7 15.6v2.6h-1.3v18.2h23.4V18.2h-1.3v-2.6zm1.3 1.3h18.2v1.3H15zm-1.3 2.6h20.8v15.6H13.7zm6.5 2.6v10.4l9.1-5.2z" color="#7F8080" fill="#FF7F00"/><g fill="none" stroke="#616161" stroke-linecap="round"><path d="M7.504 43.64c0 .912.946 1.876 1.838 1.876h29.353c.892 0 1.838-.964 1.838-1.875m0 0V14.599l-10.948-12.1L9.342 2.5c-.946 0-1.838.912-1.838 1.876V43.64" stroke-width=".988" stroke-linejoin="round"/><path d="M29.585 2.48l10.948 12.104-8.968-.036c-.927-.003-1.97-1.053-1.97-1.98z" stroke-linejoin="bevel"/></g></svg>