<svg height="48" width="48" xmlns="http://www.w3.org/2000/svg"><path d="M15 15.6c-.72 0-1.3.58-1.3 1.3v18.2c0 .72.58 1.3 1.3 1.3h14.3c.72 0 1.3-.58 1.3-1.3v-1.3h2.6c.72 0 1.3-.58 1.3-1.3v-3.9a1.268 1.268 0 0 0-.198-.65 1.268 1.268 0 0 0 .198-.65v-3.9a1.268 1.268 0 0 0-.198-.65 1.268 1.268 0 0 0 .198-.65v-3.9c0-.72-.58-1.3-1.3-1.3h-2.6c0-.72-.58-1.3-1.3-1.3H15zm0 1.3h14.3v18.2H15V16.9zm1.3 1.3v3.9H28v-3.9H16.3zm14.3 0h2.6v3.9h-2.6v-3.9zm0 5.2h2.6v3.9h-2.6v-3.9zm-14.3 1.3V26H28v-1.3H16.3zm0 2.6v1.3H28v-1.3H16.3zm14.3 1.3h2.6v3.9h-2.6v-3.9zm-14.3 1.3v1.3H28v-1.3H16.3zm0 2.6v1.3H28v-1.3H16.3z" fill="#FE00BF"/><g fill="none" stroke="#616161" stroke-linecap="round"><path d="M7.504 43.64c0 .912.946 1.876 1.838 1.876h29.353c.892 0 1.838-.964 1.838-1.875m0 0V14.599l-10.948-12.1L9.342 2.5c-.946 0-1.838.912-1.838 1.876V43.64" stroke-width=".988" stroke-linejoin="round"/><path d="M29.585 2.48l10.948 12.104-8.968-.036c-.927-.003-1.97-1.053-1.97-1.98z" stroke-linejoin="bevel"/></g></svg>