<svg height="48" width="48" xmlns="http://www.w3.org/2000/svg"><path d="M21.846 33.907c-1.768 0-2.972-.857-2.65-3.038.402-2.727 2.087-3.622 7.427-4.363.04 0 1.686-.273 1.686-.273l-.682 4.83c-1.446 1.753-4.056 2.844-5.781 2.844zm5.499-.234l.082 2.259h2.288l2.088-14.607c.643-4.438-1.967-5.725-5.622-5.725-2.609 0-5.179.741-6.704 1.598l.442 2.414c1.646-.779 3.894-1.324 5.941-1.324 2.53 0 3.453 1.207 3.133 3.544l-.363 2.22-1.886.235c-4.858.74-9.596 1.479-10.358 6.699-.563 3.74 1.726 5.414 4.776 5.414a8.437 8.437 0 0 0 6.183-2.726z" fill="#FF7F00"/><g fill="none" stroke="#616161" stroke-linecap="round"><path d="M7.504 43.64c0 .912.946 1.876 1.838 1.876h29.353c.892 0 1.838-.964 1.838-1.875m0 0V14.599l-10.948-12.1L9.342 2.5c-.946 0-1.838.912-1.838 1.876V43.64" stroke-width=".988" stroke-linejoin="round"/><path d="M29.585 2.48l10.948 12.104-8.968-.036c-.927-.003-1.97-1.053-1.97-1.98z" stroke-linejoin="bevel"/></g></svg>