<svg height="48" width="48" xmlns="http://www.w3.org/2000/svg"><g fill="#7F8080"><path d="M13.7 15.6v20.8h20.8V15.6H13.7zm1.3 5.2h18.2v14.3H15V20.8z"/><path d="M24.1 22.1c-1.084 0-2.096.333-2.808.956a3.224 3.224 0 0 0-1.092 2.457h2.228c0-.515.177-.85.44-1.078.262-.23.643-.385 1.232-.385.588 0 .969.156 1.231.385.263.229.44.563.44 1.078 0 .447-.1.637-.234.806-.582.512-1.284.95-1.85 1.37-.636.418-1.259.967-1.259 1.724v.487h2.228v-.487c.793-.71 1.973-1.33 2.708-1.98.388-.485.636-1.148.636-1.92a3.224 3.224 0 0 0-1.092-2.457c-.712-.624-1.725-.956-2.808-.956zm-1.672 9.75v1.95h2.228v-1.95z"/></g><g fill="none" stroke="#616161" stroke-linecap="round"><path d="M7.504 43.64c0 .912.946 1.876 1.838 1.876h29.353c.892 0 1.838-.964 1.838-1.875m0 0V14.599l-10.948-12.1L9.342 2.5c-.946 0-1.838.912-1.838 1.876V43.64" stroke-width=".988" stroke-linejoin="round"/><path d="M29.585 2.48l10.948 12.104-8.968-.036c-.927-.003-1.97-1.053-1.97-1.98z" stroke-linejoin="bevel"/></g></svg>