<svg height="48" width="48" xmlns="http://www.w3.org/2000/svg"><g fill="#00BFFE"><path d="M22.8 19.5h2.6v2.6h-2.6zm0 3.9h2.6v9.1h-2.6z"/><path d="M24.1 15.6c-5.762 0-10.4 4.638-10.4 10.4s4.638 10.4 10.4 10.4S34.5 31.762 34.5 26s-4.638-10.4-10.4-10.4zm0 1.3c5.041 0 9.1 4.059 9.1 9.1s-4.059 9.1-9.1 9.1S15 31.041 15 26s4.059-9.1 9.1-9.1z"/></g><g fill="none" stroke="#616161" stroke-linecap="round"><path d="M7.504 43.64c0 .912.946 1.876 1.838 1.876h29.353c.892 0 1.838-.964 1.838-1.875m0 0V14.599l-10.948-12.1L9.342 2.5c-.946 0-1.838.912-1.838 1.876V43.64" stroke-width=".988" stroke-linejoin="round"/><path d="M29.585 2.48l10.948 12.104-8.968-.036c-.927-.003-1.97-1.053-1.97-1.98z" stroke-linejoin="bevel"/></g></svg>