<svg height="48" width="48" xmlns="http://www.w3.org/2000/svg"><path d="M13.7 16.25v19.5h20.8v-19.5H13.7zm1.3 1.3h1.3v1.3H15v-1.3zm2.6 0h13v7.15h-13v-7.15zm14.3 0h1.3v1.3h-1.3v-1.3zM15 21.45h1.3v1.3H15v-1.3zm16.9 0h1.3v1.3h-1.3v-1.3zM15 25.35h1.3v1.3H15v-1.3zm16.9 0h1.3v1.3h-1.3v-1.3zM17.6 27.3h13v7.15h-13V27.3zM15 29.25h1.3v1.3H15v-1.3zm16.9 0h1.3v1.3h-1.3v-1.3zM15 33.15h1.3v1.3H15v-1.3zm16.9 0h1.3v1.3h-1.3v-1.3z" fill="#7F8080"/><g fill="none" stroke="#616161" stroke-linecap="round"><path d="M7.504 43.64c0 .912.946 1.876 1.838 1.876h29.353c.892 0 1.838-.964 1.838-1.875m0 0V14.599l-10.948-12.1L9.342 2.5c-.946 0-1.838.912-1.838 1.876V43.64" stroke-width=".988" stroke-linejoin="round"/><path d="M29.585 2.48l10.948 12.104-8.968-.036c-.927-.003-1.97-1.053-1.97-1.98z" stroke-linejoin="bevel"/></g></svg>