<svg height="48" width="48" xmlns="http://www.w3.org/2000/svg"><path d="M18.861 15.597a.335.335 0 0 0-.329.275l-.25 1.72a5.025 5.025 0 0 0-1.13.64l-1.665-.652a.338.338 0 0 0-.406.14l-1.336 2.252a.321.321 0 0 0 .078.416l1.411 1.078a4.858 4.858 0 0 0-.046.634c0 .213.02.424.046.632l-1.41 1.076a.317.317 0 0 0-.077.416l1.334 2.253a.334.334 0 0 0 .406.14l1.666-.652c.344.256.723.473 1.13.64l.248 1.72a.338.338 0 0 0 .331.275h2.673a.335.335 0 0 0 .33-.273l.25-1.722a5.057 5.057 0 0 0 1.13-.64l1.664.653a.34.34 0 0 0 .408-.14l1.335-2.253a.321.321 0 0 0-.078-.416l-1.41-1.077a4.81 4.81 0 0 0 .046-.632 5.109 5.109 0 0 0-.047-.634l1.412-1.077a.317.317 0 0 0 .078-.416L25.32 17.72a.334.334 0 0 0-.405-.14l-1.665.652a5.106 5.106 0 0 0-1.131-.64l-.247-1.72a.34.34 0 0 0-.335-.275h-2.674zM20.2 19.5a2.6 2.6 0 0 1 2.6 2.6 2.6 2.6 0 0 1-2.6 2.6 2.6 2.6 0 0 1-2.6-2.6 2.6 2.6 0 0 1 2.6-2.6zm7.976 6.508a.254.254 0 0 0-.296.147l-.497 1.265a3.778 3.778 0 0 0-.957.28l-1.12-.807a.257.257 0 0 0-.33.031l-1.399 1.468a.255.255 0 0 0-.015.333l.855 1.079a3.796 3.796 0 0 0-.15.472 3.744 3.744 0 0 0-.077.492l-1.246.56a.25.25 0 0 0-.134.301l.59 1.958a.257.257 0 0 0 .276.182l1.359-.19c.208.259.45.495.722.696l-.12 1.355a.263.263 0 0 0 .197.27l1.99.494a.259.259 0 0 0 .296-.149l.497-1.265c.333-.05.65-.145.955-.28l1.122.807a.255.255 0 0 0 .327-.034l1.402-1.468a.25.25 0 0 0 .015-.33l-.858-1.081c.059-.152.11-.312.15-.475a3.588 3.588 0 0 0 .078-.49l1.248-.559a.247.247 0 0 0 .134-.299l-.59-1.96a.256.256 0 0 0-.276-.181l-1.359.188a3.955 3.955 0 0 0-.723-.693l.121-1.358a.26.26 0 0 0-.197-.267l-1.99-.494zM28 28.6a2.6 2.6 0 0 1 2.6 2.6 2.6 2.6 0 0 1-2.6 2.6 2.6 2.6 0 0 1-2.6-2.6 2.6 2.6 0 0 1 2.6-2.6z" fill="#7F8080"/><g fill="none" stroke="#616161" stroke-linecap="round"><path d="M7.504 43.64c0 .912.946 1.876 1.838 1.876h29.353c.892 0 1.838-.964 1.838-1.875m0 0V14.599l-10.948-12.1L9.342 2.5c-.946 0-1.838.912-1.838 1.876V43.64" stroke-width=".988" stroke-linejoin="round"/><path d="M29.585 2.48l10.948 12.104-8.968-.036c-.927-.003-1.97-1.053-1.97-1.98z" stroke-linejoin="bevel"/></g></svg>