<svg height="48" width="48" xmlns="http://www.w3.org/2000/svg"><path d="M15.434 15.6a1.73 1.73 0 0 0-1.734 1.734v17.332c0 .96.774 1.734 1.734 1.734h17.332a1.73 1.73 0 0 0 1.734-1.734V17.334a1.73 1.73 0 0 0-1.734-1.734H15.434zM15 16.9h18.2v18.2H15V16.9zm10.4 1.3v6.5h6.5a6.5 6.5 0 0 0-6.5-6.5zm-1.3 1.3a6.5 6.5 0 0 0-6.5 6.5 6.5 6.5 0 0 0 6.5 6.5 6.5 6.5 0 0 0 6.5-6.5h-6.5v-6.5zm-1.3 1.469V27.3h6.327a5.2 5.2 0 0 1-5.027 3.9 5.2 5.2 0 0 1-5.2-5.2 5.2 5.2 0 0 1 3.9-5.031z" color="#7F8080" fill="#7F8080"/><g fill="none" stroke="#616161" stroke-linecap="round"><path d="M7.504 43.64c0 .912.946 1.876 1.838 1.876h29.353c.892 0 1.838-.964 1.838-1.875m0 0V14.599l-10.948-12.1L9.342 2.5c-.946 0-1.838.912-1.838 1.876V43.64" stroke-width=".988" stroke-linejoin="round"/><path d="M29.585 2.48l10.948 12.104-8.968-.036c-.927-.003-1.97-1.053-1.97-1.98z" stroke-linejoin="bevel"/></g></svg>