<svg height="48" width="48" xmlns="http://www.w3.org/2000/svg"><path style="isolation:auto;mix-blend-mode:normal;solid-color:#7f8080;solid-opacity:1" d="M12.4 15.6c-.72 0-1.3.58-1.3 1.3v18.2c0 .72.58 1.3 1.3 1.3h23.4c.72 0 1.3-.58 1.3-1.3V16.9c0-.72-.58-1.3-1.3-1.3zm1.3 1.3h20.8l-10.4 9.837zm-1.3.592l7.986 7.621L12.4 32.74zm23.4 0v15.245l-7.986-7.624zm-14.407 8.573l2.707 2.593 2.65-2.51 9.05 8.315v.637H12.4v-.714z" color="#7F8080" overflow="visible" fill="#007FFF"/><g fill="none" stroke="#616161" stroke-linecap="round"><path d="M7.504 43.64c0 .912.946 1.876 1.838 1.876h29.353c.892 0 1.838-.964 1.838-1.875m0 0V14.599l-10.948-12.1L9.342 2.5c-.946 0-1.838.912-1.838 1.876V43.64" stroke-width=".988" stroke-linejoin="round"/><path d="M29.585 2.48l10.948 12.104-8.968-.036c-.927-.003-1.97-1.053-1.97-1.98z" stroke-linejoin="bevel"/></g></svg>