<svg height="48" width="48" xmlns="http://www.w3.org/2000/svg"><path d="M13.7 15.6v1.3h20.8v-1.3H13.7zm7.8 3.466v1.332l5.573 7.336-5.573 6.668V36.4h13v-5.2h-.733c0 .962.001 1.945-.844 2.522-.925.632-2.146.751-3.219.751h-5.109l4.95-6.739-4.95-7.706h2.91c2.064 0 5.002-.186 5.82 2.227.139.412.231 2.012.266 2.445h.909v-5.634h-13zM13.7 20.8v1.3h6.5v-1.3h-6.5zm0 3.9V26h9.1v-1.3h-9.1zm0 3.9v1.3h9.1v-1.3h-9.1zm0 3.9v1.3h6.5v-1.3h-6.5z" fill="#00BFFE"/><g fill="none" stroke="#616161" stroke-linecap="round"><path d="M7.504 43.64c0 .912.946 1.876 1.838 1.876h29.353c.892 0 1.838-.964 1.838-1.875m0 0V14.599l-10.948-12.1L9.342 2.5c-.946 0-1.838.912-1.838 1.876V43.64" stroke-width=".988" stroke-linejoin="round"/><path d="M29.585 2.48l10.948 12.104-8.968-.036c-.927-.003-1.97-1.053-1.97-1.98z" stroke-linejoin="bevel"/></g></svg>