<svg height="48" width="48" xmlns="http://www.w3.org/2000/svg"><g transform="matrix(1.3 0 0 1.3 9.8 11.7)" id="g4"><defs id="defs3871"><style id="current-color-scheme" type="text/css"/></defs><g id="layer1-8" transform="translate(0 -1030.362)" fill="#FF7F00"><g transform="translate(-421.714 503.571)" id="layer1" fill="#7F8080" fill-opacity="1"><path id="rect4144" transform="translate(421.714 525.79)" d="M4 6v1H3v8h1v1h14v-1h1V7h-1V6H4zm.908 1h12.184c.15.425.483.758.908.908v6.184a1.49 1.49 0 0 0-.908.908H4.908A1.49 1.49 0 0 0 4 14.092V7.908A1.49 1.49 0 0 0 4.908 7zM11 8c-1.662 0-3 1.338-3 3s1.338 3 3 3 3-1.338 3-3-1.338-3-3-3zm0 1c1.108 0 2 .892 2 2s-.892 2-2 2-2-.892-2-2 .892-2 2-2z" color="#7F8080" opacity="1" fill="#7F8080" fill-opacity="1" stroke="none" stroke-width="2.8" stroke-miterlimit="4" stroke-dasharray="none" stroke-opacity=".55"/></g></g></g><g fill="none" stroke="#616161" stroke-linecap="round" id="g10"><path d="M7.504 43.64c0 .912.946 1.876 1.838 1.876h29.353c.892 0 1.838-.964 1.838-1.875m0 0V14.599l-10.948-12.1L9.342 2.5c-.946 0-1.838.912-1.838 1.876V43.64" stroke-width=".988" stroke-linejoin="round" id="path6"/><path d="M29.585 2.48l10.948 12.104-8.968-.036c-.927-.003-1.97-1.053-1.97-1.98z" stroke-linejoin="bevel" id="path8"/></g></svg>