<svg height="48" width="48" xmlns="http://www.w3.org/2000/svg"><g fill="#7F8080" stroke-width="2"><path d="M24.1 15.6A10.4 10.4 0 0 0 13.7 26a10.4 10.4 0 0 0 10.4 10.4A10.4 10.4 0 0 0 34.5 26a10.4 10.4 0 0 0-10.4-10.4zm0 1.3a9.1 9.1 0 0 1 9.1 9.1 9.1 9.1 0 0 1-9.1 9.1A9.1 9.1 0 0 1 15 26a9.1 9.1 0 0 1 9.1-9.1z"/><path d="M24.1 19.5a6.5 6.5 0 0 0-6.5 6.5 6.5 6.5 0 0 0 6.5 6.5 6.5 6.5 0 0 0 4.593-1.907l-.92-.92A5.2 5.2 0 0 1 24.1 31.2a5.2 5.2 0 0 1-5.2-5.2 5.2 5.2 0 0 1 5.2-5.2 5.2 5.2 0 0 1 3.674 1.526l.919-.919A6.5 6.5 0 0 0 24.1 19.5z"/></g><g fill="none" stroke="#616161" stroke-linecap="round"><path d="M7.504 43.64c0 .912.946 1.876 1.838 1.876h29.353c.892 0 1.838-.964 1.838-1.875m0 0V14.599l-10.948-12.1L9.342 2.5c-.946 0-1.838.912-1.838 1.876V43.64" stroke-width=".988" stroke-linejoin="round"/><path d="M29.585 2.48l10.948 12.104-8.968-.036c-.927-.003-1.97-1.053-1.97-1.98z" stroke-linejoin="bevel"/></g></svg>