<svg height="48" width="48" xmlns="http://www.w3.org/2000/svg"><g fill="#00FE7F"><path d="M27.654 15.627a6.817 6.817 0 0 0-6.82 6.816c0 1.023.232 1.99.636 2.859l-1.166 1.38-.101 1.295c-.01.01-1.273.05-1.273.05l-.647.468s.002 1.414-.003 1.395l-1.389.023-.586.67-.013 1.267s-1.198-.078-1.32.032l.002.003c-.766.706-1.282 1.21-1.282 1.21l.005 3.313.65-.003 8.831-8.83a6.838 6.838 0 0 0 2.028 1.213 6.734 6.734 0 0 0 2.45.468 6.816 6.816 0 0 0-.002-13.629zm1.303 3.246a2.275 2.275 0 1 1-.003 4.548 2.275 2.275 0 0 1 .003-4.548z"/><path d="M28.957 18.873zm0 1.3a.974.974 0 1 1-.001 1.947.974.974 0 0 1 0-1.947zm-5.779 7.401l-8.836 8.836h3.248l7.714-7.576a6.84 6.84 0 0 1-2.126-1.261z" opacity=".5"/></g><g fill="none" stroke="#616161" stroke-linecap="round"><path d="M7.504 43.64c0 .912.946 1.876 1.838 1.876h29.353c.892 0 1.838-.964 1.838-1.875m0 0V14.599l-10.948-12.1L9.342 2.5c-.946 0-1.838.912-1.838 1.876V43.64" stroke-width=".988" stroke-linejoin="round"/><path d="M29.585 2.48l10.948 12.104-8.968-.036c-.927-.003-1.97-1.053-1.97-1.98z" stroke-linejoin="bevel"/></g></svg>