<svg height="48" width="48" xmlns="http://www.w3.org/2000/svg"><g transform="matrix(1.3 0 0 1.3 -414 -682.97)" fill="#7F8080" stroke-width="6"><path d="M329 537.362h16v1h-16zm0 15h16v1h-16zm3-12h11v1h-11zm0 3h5v1h-5zm0 3h11v1h-11zm0 3h5v1h-5z"/><circle cx="329.5" cy="540.862" r=".5"/><circle cx="329.5" cy="546.862" r=".5"/></g><g fill="none" stroke="#616161" stroke-linecap="round"><path d="M7.504 43.64c0 .912.946 1.876 1.838 1.876h29.353c.892 0 1.838-.964 1.838-1.875m0 0V14.599l-10.948-12.1L9.342 2.5c-.946 0-1.838.912-1.838 1.876V43.64" stroke-width=".988" stroke-linejoin="round"/><path d="M29.585 2.48l10.948 12.104-8.968-.036c-.927-.003-1.97-1.053-1.97-1.98z" stroke-linejoin="bevel"/></g></svg>