<svg height="48" width="48" xmlns="http://www.w3.org/2000/svg"><g fill="#00BFFE"><path d="M24.768 17.922a.663.663 0 0 1-.667.663.664.664 0 0 1-.668-.663v-1.633c0-.368.3-.664.668-.664.37 0 .667.296.667.664v1.634zm-.103 11.555a.548.548 0 0 1-.55.546h-.03a.549.549 0 0 1-.55-.546v-1.765a.55.55 0 0 1 .55-.549h.03c.305 0 .55.245.55.55v1.764z"/><path d="M31.042 34.678a.788.788 0 0 0 .152-.883L25.67 22.082c-.004-.031-.004-.065-.004-.099a.481.481 0 0 1 .11-.304 2.704 2.704 0 0 0 1.084-2.166c0-1.5-1.222-2.713-2.73-2.716a2.707 2.707 0 0 0-2.733 2.717 2.7 2.7 0 0 0 1.082 2.165.465.465 0 0 1 .111.304c0 .034 0 .068-.004.1L17.06 33.796a.785.785 0 0 0 .151.882l-.87 1.769 1.377-1.491a.797.797 0 0 0 .922-.43l5.268-11.164a.263.263 0 0 1 .208-.1h.026a.26.26 0 0 1 .205.1l5.268 11.165a.793.793 0 0 0 .92.429l1.378 1.49-.871-1.768zM24.13 21.076a1.562 1.562 0 1 1 0-3.124c.867 0 1.568.7 1.568 1.561 0 .863-.702 1.563-1.568 1.563z"/><path d="M30.113 28.647a.358.358 0 0 1-.36.356H18.445a.359.359 0 0 1-.359-.356v-.003c0-.197.162-.356.36-.356h11.305a.36.36 0 0 1 .36.359z"/></g><g fill="none" stroke="#616161" stroke-linecap="round"><path d="M7.504 43.64c0 .912.946 1.876 1.838 1.876h29.353c.892 0 1.838-.964 1.838-1.875m0 0V14.599l-10.948-12.1L9.342 2.5c-.946 0-1.838.912-1.838 1.876V43.64" stroke-width=".988" stroke-linejoin="round"/><path d="M29.585 2.48l10.948 12.104-8.968-.036c-.927-.003-1.97-1.053-1.97-1.98z" stroke-linejoin="bevel"/></g></svg>