<svg height="48" width="48" xmlns="http://www.w3.org/2000/svg"><path d="M19.583 36.22c-.409-.109-.367-.224.305-.863 1.158-1.1 1.352-2.197 1.022-5.803-.263-2.874-.323-3.095-.765-2.855-.956.52-2.152-.15-3.51-1.972-.672-.9-.735-1.163-.621-2.567.072-.86.216-1.898.321-2.308.163-.626.11-.742-.338-.742a1.27 1.27 0 0 1-.864-.41c-.464-.569.364-1.483 1.341-1.483.398 0 .873-.182 1.055-.404.47-.576 1.188-.503 1.995.203.858.75 1.15 2.487.668 3.971-.546 1.677-.166 1.842.596.259.426-.887 1.027-1.659 1.523-1.957.45-.27 1.11-.959 1.463-1.528.355-.572.798-1.14.988-1.261.578-.377 2.17-.895 2.765-.9.81-.017 1.894.958 2.088 1.854.09.422.58 1.42 1.084 2.216.504.797.918 1.588.918 1.758s.358.77.797 1.33c.656.84.795 1.265.786 2.402-.013 1.56-.84 3.552-1.143 2.75-.095-.254-.056-.685.09-.96.302-.574.035-3.118-.292-2.786-.228.232-.377 2.715-.312 5.216.081 3.247-.073 6.31-.325 6.392-.644.208-.926-.333-.662-1.269.398-1.411.317-5.163-.125-5.756-.204-.273-.45-.972-.546-1.552-.097-.58-.28-1.12-.407-1.2-.42-.264-1.052 1.44-1.052 2.834 0 1.09-.16 1.594-.796 2.485-.9 1.264-.972 1.638-.4 2.12.446.376.533 1.234.149 1.476-.137.087-.496-.11-.797-.44-.425-.465-.548-.502-.548-.173 0 .494-.985.829-1.528.52-.292-.165-.223-.312.312-.67.951-.634.86-1.154-.412-2.337-.992-.922-1.08-1.108-.918-1.928.515-2.596.512-2.665-.082-2.665-.39 0-.562.169-.562.559 0 .307-.131.808-.292 1.115-.286.541-.37.975-1.058 5.421-.344 2.215-.43 2.3-1.911 1.907zm7.137-4.72c.344-.677.395-1.258.247-2.865-.197-2.135-.341-2.209-.916-.472-.197.596-.58 1.372-.852 1.727-.632.825-.62 1.073.084 1.838.754.816.92.79 1.437-.226z" fill="#00BFFE"/><g fill="none" stroke="#616161" stroke-linecap="round"><path d="M7.504 43.64c0 .912.946 1.876 1.838 1.876h29.353c.892 0 1.838-.964 1.838-1.875m0 0V14.599l-10.948-12.1L9.342 2.5c-.946 0-1.838.912-1.838 1.876V43.64" stroke-width=".988" stroke-linejoin="round"/><path d="M29.585 2.48l10.948 12.104-8.968-.036c-.927-.003-1.97-1.053-1.97-1.98z" stroke-linejoin="bevel"/></g></svg>