<svg height="48" width="48" xmlns="http://www.w3.org/2000/svg"><g transform="matrix(1.3 0 0 1.3 -414 -682.97)" fill="#00BFFE"><path d="M336 540.612l-3 .75.824.824 2.176-.543v-1.03zm-5.133 1.283l-1.867.467v9l8 2v-9l-5.938-1.484.63-.156-.825-.827zm8.133-1.033v1.031l3.938.985-4.938 1.234v9l7-1.75v-9l-6-1.5zm5 2.781v6.44l-5-1.25v-3.94l5-1.25zm-5 6.22l3.941.984-3.941.986v-1.97z" fill-rule="evenodd"/><rect width="3" x="336" y="537.362" rx="0" height="3" stroke-width="2"/></g><g fill="none" stroke="#616161" stroke-linecap="round"><path d="M7.504 43.64c0 .912.946 1.876 1.838 1.876h29.353c.892 0 1.838-.964 1.838-1.875m0 0V14.599l-10.948-12.1L9.342 2.5c-.946 0-1.838.912-1.838 1.876V43.64" stroke-width=".988" stroke-linejoin="round"/><path d="M29.585 2.48l10.948 12.104-8.968-.036c-.927-.003-1.97-1.053-1.97-1.98z" stroke-linejoin="bevel"/></g></svg>