<svg height="48" width="48" xmlns="http://www.w3.org/2000/svg"><path d="M13.7 15.6v20.8h20.8V15.6h-1.3v1.3h-2.6v-1.3h-1.3v1.3h-2.6v-1.3h-1.3v1.3h-2.6v-1.3h-1.3v1.3h-2.6v-1.3h-1.3v1.3H15v-1.3h-1.3zm1.3 3.9h18.2v15.6H15V19.5zm2.6 2.6v1.3h13v-1.3h-13zm0 3.9v1.3h7.8V26h-7.8zm0 3.9v1.3H28v-1.3H17.6zM28 32.5v1.3h2.6v-1.3H28z" class="ColorScheme-Text" fill="#FFBF00"/><g fill="none" stroke="#616161" stroke-linecap="round"><path d="M7.504 43.64c0 .912.946 1.876 1.838 1.876h29.353c.892 0 1.838-.964 1.838-1.875m0 0V14.599l-10.948-12.1L9.342 2.5c-.946 0-1.838.912-1.838 1.876V43.64" stroke-width=".988" stroke-linejoin="round"/><path d="M29.585 2.48l10.948 12.104-8.968-.036c-.927-.003-1.97-1.053-1.97-1.98z" stroke-linejoin="bevel"/></g></svg>