<svg height="48" width="48" xmlns="http://www.w3.org/2000/svg"><path d="M22.8 15.6v3.9h3.9v-3.9h-3.9zm0 4.225l-3.9.975 1.071 1.071 2.829-.706v-1.34zm3.9.325v1.34l5.12 1.28-6.42 1.605v11.7l9.1-2.275V22.1l-7.8-1.95zm-10.573 1.343L13.7 22.1v11.7l10.4 2.6V24.7l-7.72-1.93.82-.203-1.073-1.074zM33.2 23.765v8.372l-6.5-1.625V25.39l6.5-1.625zm-6.5 8.085l5.123 1.28-5.123 1.282V31.85z" fill="#007FFF" fill-rule="evenodd"/><g fill="none" stroke="#616161" stroke-linecap="round"><path d="M7.504 43.64c0 .912.946 1.876 1.838 1.876h29.353c.892 0 1.838-.964 1.838-1.875m0 0V14.599l-10.948-12.1L9.342 2.5c-.946 0-1.838.912-1.838 1.876V43.64" stroke-width=".988" stroke-linejoin="round"/><path d="M29.585 2.48l10.948 12.104-8.968-.036c-.927-.003-1.97-1.053-1.97-1.98z" stroke-linejoin="bevel"/></g></svg>