<svg height="48" width="48" xmlns="http://www.w3.org/2000/svg"><path d="M16.3 15.6v6.5h-2.6v10.4h5.2v3.9h10.4v-3.9h5.2V22.1h-2.6v-6.5H16.3zm1.3 1.3h13v5.2h-1.3v-1.3H18.9v1.3h-1.3v-5.2zm1.3 1.3v1.3h10.4v-1.3H18.9zM15 23.4h18.2v7.8h-2.6v-2.6h-13v2.6H15v-7.8zm13 1.3V26h3.9v-1.3H28zm-7.8 7.8H28v2.6h-7.8v-2.6z" fill="#FE003F"/><g fill="none" stroke="#616161" stroke-linecap="round"><path d="M7.504 43.64c0 .912.946 1.876 1.838 1.876h29.353c.892 0 1.838-.964 1.838-1.875m0 0V14.599l-10.948-12.1L9.342 2.5c-.946 0-1.838.912-1.838 1.876V43.64" stroke-width=".988" stroke-linejoin="round"/><path d="M29.585 2.48l10.948 12.104-8.968-.036c-.927-.003-1.97-1.053-1.97-1.98z" stroke-linejoin="bevel"/></g></svg>