<svg height="48" width="48" xmlns="http://www.w3.org/2000/svg"><path d="M15 36.4V15.6h13v.013l.01-.013 5.19 5.19V36.4H15zm1.3-1.3h15.6v-13h-5.2v-5.2H16.3v18.2z" fill="#7F8080"/><g fill="none" stroke="#616161" stroke-linecap="round"><path d="M7.504 43.64c0 .912.946 1.876 1.838 1.876h29.353c.892 0 1.838-.964 1.838-1.875m0 0V14.599l-10.948-12.1L9.342 2.5c-.946 0-1.838.912-1.838 1.876V43.64" stroke-width=".988" stroke-linejoin="round"/><path d="M29.585 2.48l10.948 12.104-8.968-.036c-.927-.003-1.97-1.053-1.97-1.98z" stroke-linejoin="bevel"/></g></svg>