<svg height="48" width="48" xmlns="http://www.w3.org/2000/svg"><path d="M24.1 15.6a10.4 3.9 0 0 0-10.4 3.9v13a10.4 3.9 0 0 0 10.4 3.9 10.4 3.9 0 0 0 10.4-3.9v-13a10.4 3.9 0 0 0-10.4-3.9zm0 1.3a9.1 2.6 0 0 1 9.1 2.6 9.1 2.6 0 0 1-9.1 2.6 9.1 2.6 0 0 1-9.1-2.6 9.1 2.6 0 0 1 9.1-2.6zm9.1 4.479V26a9.1 2.6 0 0 1-9.1 2.6A9.1 2.6 0 0 1 15 26v-4.614a10.4 3.9 0 0 0 9.1 2.014 10.4 3.9 0 0 0 9.1-2.022zm0 6.5V32.5a9.1 2.6 0 0 1-9.1 2.6 9.1 2.6 0 0 1-9.1-2.6v-4.614a10.4 3.9 0 0 0 9.1 2.014 10.4 3.9 0 0 0 9.1-2.022z" fill="#007FFF"/><g fill="none" stroke="#616161" stroke-linecap="round"><path d="M7.504 43.64c0 .912.946 1.876 1.838 1.876h29.353c.892 0 1.838-.964 1.838-1.875m0 0V14.599l-10.948-12.1L9.342 2.5c-.946 0-1.838.912-1.838 1.876V43.64" stroke-width=".988" stroke-linejoin="round"/><path d="M29.585 2.48l10.948 12.104-8.968-.036c-.927-.003-1.97-1.053-1.97-1.98z" stroke-linejoin="bevel"/></g></svg>