<svg height="48" width="48" xmlns="http://www.w3.org/2000/svg"><path style="line-height:125%;-inkscape-font-specification:oxygen" d="M22.8 15.603c-2.265.016-3.22.936-3.22 3.26v3.172c0 1.448-.044 3.125-1.32 3.125h-.66v1.677h.66c1.276 0 1.32 1.677 1.32 3.125v3.174c0 2.323.955 3.243 3.22 3.26v-1.54c-1.476-.016-1.503-.65-1.503-2.87v-2.619c0-1.08-.266-2.688-1.564-3.354 1.298-.667 1.564-2.276 1.564-3.357v-2.642c0-2.22.027-2.855 1.503-2.873v-1.537zm2.6.002v1.538c1.455.025 1.503.66 1.503 2.87v2.643c0 1.08.266 2.691 1.564 3.357-1.298.666-1.564 2.274-1.564 3.354v2.62c0 2.21-.048 2.847-1.503 2.869v1.539c2.249-.022 3.22-.941 3.22-3.258v-3.172c0-1.448.088-3.125 1.343-3.125h.637v-1.677h-.637c-1.254 0-1.343-1.677-1.343-3.125v-3.175c0-2.317-.97-3.236-3.22-3.258zM15 35.1v1.3h1.3v-1.3H15z" font-weight="400" font-family="oxygen" letter-spacing="0" word-spacing="0" fill="#FFBF00"/><g fill="none" stroke="#616161" stroke-linecap="round"><path d="M7.504 43.64c0 .912.946 1.876 1.838 1.876h29.353c.892 0 1.838-.964 1.838-1.875m0 0V14.599l-10.948-12.1L9.342 2.5c-.946 0-1.838.912-1.838 1.876V43.64" stroke-width=".988" stroke-linejoin="round"/><path d="M29.585 2.48l10.948 12.104-8.968-.036c-.927-.003-1.97-1.053-1.97-1.98z" stroke-linejoin="bevel"/></g></svg>