<svg height="48" width="48" xmlns="http://www.w3.org/2000/svg"><path d="M16.3 14.303a3.9 3.9 0 0 0-3.9 3.9 3.9 3.9 0 0 0 3.9 3.9 3.9 3.9 0 0 0 3.9-3.9 3.9 3.9 0 0 0-3.9-3.9m3.9 3.9a3.9 3.9 0 0 0 3.9 3.9 3.9 3.9 0 0 0 3.9-3.9 3.9 3.9 0 0 0-3.9-3.9 3.9 3.9 0 0 0-3.9 3.9m-3.9-2.6a2.6 2.6 0 0 1 2.6 2.6 2.6 2.6 0 0 1-2.6 2.6 2.6 2.6 0 0 1-1.782-.714 1.95 1.95 0 0 0 .482.065 1.95 1.95 0 0 0 1.95-1.95 1.95 1.95 0 0 0-1.95-1.95 1.95 1.95 0 0 0-.487.062 2.6 2.6 0 0 1 1.787-.712m7.8 0a2.6 2.6 0 0 1 2.6 2.6 2.6 2.6 0 0 1-2.6 2.6 2.6 2.6 0 0 1-1.782-.715 1.95 1.95 0 0 0 .482.065 1.95 1.95 0 0 0 1.95-1.95 1.95 1.95 0 0 0-1.95-1.95 1.95 1.95 0 0 0-.487.062 2.6 2.6 0 0 1 1.787-.712m1.404 7.998c-1.215.689-3.194 1.1-5.304 1.102-1.812-.001-3.542-.304-4.771-.839l-.818.955c.5.257 1.08.46 1.689.637v1.846a2.6 2.6 0 0 0 2.6 2.6 2.6 2.6 0 0 0 1.95-.884 2.6 2.6 0 0 0 1.95.884 2.6 2.6 0 0 0 2.6-2.6v-2.305a7.24 7.24 0 0 0 .98-.52zM24.1 25.454v1.851a1.3 1.3 0 0 1-1.3 1.3 1.3 1.3 0 0 1-1.3-1.3V25.93a13.395 13.395 0 0 0 2.6-.475m-6.5.31c.83.148 1.702.24 2.6.241v1.3a1.3 1.3 0 0 1-1.3 1.3 1.3 1.3 0 0 1-1.3-1.3z" fill="#7F8080" color="#7F8080"/><g fill="none" stroke="#616161" stroke-linecap="round"><path d="M7.504 43.64c0 .912.946 1.876 1.838 1.876h29.353c.892 0 1.838-.964 1.838-1.875m0 0V14.599l-10.948-12.1L9.342 2.5c-.946 0-1.838.912-1.838 1.876V43.64" stroke-width=".988" stroke-linejoin="round"/><path d="M29.585 2.48l10.948 12.104-8.968-.036c-.927-.003-1.97-1.053-1.97-1.98z" stroke-linejoin="bevel"/></g></svg>