<svg height="48" width="48" xmlns="http://www.w3.org/2000/svg"><path d="M13.7 15.6v20.8H15v-6.5a3.9 3.9 0 0 1 3.9-3.9 3.9 3.9 0 0 1 3.9 3.9v6.5h1.3v-6.5a5.2 5.2 0 0 0-5.2-5.2 5.2 5.2 0 0 0-3.9 1.77V15.6zm9.1 0v2.6h-2.6v1.3h2.6v2.6h1.3v-2.6h2.6v-1.3h-2.6v-2.6zm7.8 0v2.6H28v1.3h2.6v2.6h1.3v-2.6h2.6v-1.3h-2.6v-2.6z" fill="#FE00BF"/><g fill="none" stroke="#616161" stroke-linecap="round"><path d="M7.504 43.64c0 .912.946 1.876 1.838 1.876h29.353c.892 0 1.838-.964 1.838-1.875m0 0V14.599l-10.948-12.1L9.342 2.5c-.946 0-1.838.912-1.838 1.876V43.64" stroke-width=".988" stroke-linejoin="round"/><path d="M29.585 2.48l10.948 12.104-8.968-.036c-.927-.003-1.97-1.053-1.97-1.98z" stroke-linejoin="bevel"/></g></svg>