<svg height="48" width="48" xmlns="http://www.w3.org/2000/svg"><path d="M25.621 29.427l-2.553-2.522.03-.03a17.607 17.607 0 0 0 3.73-6.563h2.944v-2.01h-7.037v-2.01h-2.008v2.01H13.69v2h11.227a15.791 15.791 0 0 1-3.187 5.387 15.724 15.724 0 0 1-2.321-3.367H17.4a17.65 17.65 0 0 0 2.995 4.583l-5.115 5.044 1.427 1.429 5.024-5.026 3.126 3.126.764-2.051zm5.658-5.096h-2.01l-4.523 12.061h2.01l1.126-3.016h4.773l1.137 3.016h2.01l-4.523-12.06zm-2.633 7.035l1.628-4.35 1.629 4.35h-3.257z" fill="#7F8080"/><g fill="none" stroke="#616161" stroke-linecap="round"><path d="M7.504 43.64c0 .912.946 1.876 1.838 1.876h29.353c.892 0 1.838-.964 1.838-1.875m0 0V14.599l-10.948-12.1L9.342 2.5c-.946 0-1.838.912-1.838 1.876V43.64" stroke-width=".988" stroke-linejoin="round"/><path d="M29.585 2.48l10.948 12.104-8.968-.036c-.927-.003-1.97-1.053-1.97-1.98z" stroke-linejoin="bevel"/></g></svg>