<svg height="48" width="48" xmlns="http://www.w3.org/2000/svg"><path d="M26.05 14.3a1.95 1.95 0 0 0-1.95 1.95 1.95 1.95 0 0 0 1.95 1.95A1.95 1.95 0 0 0 28 16.25a1.95 1.95 0 0 0-1.95-1.95m-6.5 1.3a7.15 7.15 0 0 0-7.15 7.15 7.15 7.15 0 0 0 7.15 7.15 7.15 7.15 0 0 0 7.15-7.15 7.15 7.15 0 0 0-1.668-4.58 2.6 2.6 0 0 1 .368 1.33 2.6 2.6 0 0 1-2.6 2.6 2.6 2.6 0 0 1-2.6-2.6 2.6 2.6 0 0 1 2.6-2.6 2.6 2.6 0 0 1 1.369.394A7.15 7.15 0 0 0 19.55 15.6" fill="#007FFF" color="#7F8080"/><g fill="none" stroke="#616161" stroke-linecap="round"><path d="M7.504 43.64c0 .912.946 1.876 1.838 1.876h29.353c.892 0 1.838-.964 1.838-1.875m0 0V14.599l-10.948-12.1L9.342 2.5c-.946 0-1.838.912-1.838 1.876V43.64" stroke-width=".988" stroke-linejoin="round"/><path d="M29.585 2.48l10.948 12.104-8.968-.036c-.927-.003-1.97-1.053-1.97-1.98z" stroke-linejoin="bevel"/></g></svg>