<svg height="48" width="48" xmlns="http://www.w3.org/2000/svg"><path style="isolation:auto;mix-blend-mode:normal;solid-color:#7f8080;solid-opacity:1;marker:none" d="M21.5 18.2v2.6h2.6v-2.6zm3.9 0v2.6H28v-2.6zm6.09 3.476c-.829.567-1.026 1.593-.768 2.561.26.969.92 1.667 1.919 1.745a2.369 2.369 0 0 0 2.23 1.58 2.369 2.369 0 0 0 2.229-1.58 2.366 2.366 0 0 0-2.23-1.577 2.366 2.366 0 0 0-1.338.42c.16-.451.18-.943.057-1.404a2.367 2.367 0 0 0-2.1-1.745zm1.151 4.306H13.7c0 5.231 4.24 7.895 9.47 7.895 5.232 0 9.471-2.665 9.471-7.895zM16.3 22.1v2.6h2.6v-2.6zm3.9 0v2.6h2.6v-2.6zm3.9 0v2.6h2.6v-2.6zm3.9 0v2.6h2.6v-2.6zm-10.4 5.2a1.3 1.3 0 0 1 1.3 1.3 1.3 1.3 0 0 1-1.3 1.3 1.3 1.3 0 0 1-1.3-1.3 1.3 1.3 0 0 1 1.3-1.3z" color="#7F8080" overflow="visible" fill="#00BFFE" stroke-width=".016"/><g fill="none" stroke="#616161" stroke-linecap="round"><path d="M7.504 43.64c0 .912.946 1.876 1.838 1.876h29.353c.892 0 1.838-.964 1.838-1.875m0 0V14.599l-10.948-12.1L9.342 2.5c-.946 0-1.838.912-1.838 1.876V43.64" stroke-width=".988" stroke-linejoin="round"/><path d="M29.585 2.48l10.948 12.104-8.968-.036c-.927-.003-1.97-1.053-1.97-1.98z" stroke-linejoin="bevel"/></g></svg>