<svg height="48" width="48" xmlns="http://www.w3.org/2000/svg"><path d="M18.25 15.6a1.95 1.95 0 0 0-1.95 1.95 1.95 1.95 0 0 0 1.3 1.836V31.2a2.6 2.6 0 0 0 2.6 2.6h1.3v2.6l3.9-3.25-3.9-3.25v2.6h-1.3a1.3 1.3 0 0 1-1.3-1.3V19.386a1.95 1.95 0 0 0 1.3-1.836 1.95 1.95 0 0 0-1.95-1.95zm0 1.3a.65.65 0 0 1 .65.65.65.65 0 0 1-.65.65.65.65 0 0 1-.65-.65.65.65 0 0 1 .65-.65zm11.7 19.5a1.95 1.95 0 0 0 1.95-1.95 1.95 1.95 0 0 0-1.3-1.836V20.8a2.6 2.6 0 0 0-2.6-2.6h-1.3v-2.6l-3.9 3.25 3.9 3.25v-2.6H28a1.3 1.3 0 0 1 1.3 1.3v11.814A1.95 1.95 0 0 0 28 34.45a1.95 1.95 0 0 0 1.95 1.95zm0-1.3a.65.65 0 0 1-.65-.65.65.65 0 0 1 .65-.65.65.65 0 0 1 .65.65.65.65 0 0 1-.65.65z" fill="#7F8080"/><g fill="none" stroke="#616161" stroke-linecap="round"><path d="M7.504 43.64c0 .912.946 1.876 1.838 1.876h29.353c.892 0 1.838-.964 1.838-1.875m0 0V14.599l-10.948-12.1L9.342 2.5c-.946 0-1.838.912-1.838 1.876V43.64" stroke-width=".988" stroke-linejoin="round"/><path d="M29.585 2.48l10.948 12.104-8.968-.036c-.927-.003-1.97-1.053-1.97-1.98z" stroke-linejoin="bevel"/></g></svg>