<svg height="48" width="48" xmlns="http://www.w3.org/2000/svg"><path d="M20.85 15.6v2.6h1.3v-2.6h-1.3zm5.2 0v2.6h1.3v-2.6h-1.3zm-10.322 1.404l-1.04.783 1.56 2.08 1.04-.78-1.56-2.083zm16.744 0l-1.56 2.083 1.04.78 1.56-2.08-1.04-.783zM18.9 19.5l-5.2 3.9 10.4 13 10.4-13-5.2-3.9H18.9zm.434 1.3h4.116v1.95h-6.716l2.6-1.95zm5.416 0h4.116l2.6 1.95H24.75V20.8zm-8.866 3.25h7.566v9.458l-7.566-9.458zm8.866 0h7.566l-7.566 9.458V24.05z" fill="#7F8080" color="#7F8080" fill-rule="evenodd"/><g fill="none" stroke="#616161" stroke-linecap="round"><path d="M7.504 43.64c0 .912.946 1.876 1.838 1.876h29.353c.892 0 1.838-.964 1.838-1.875m0 0V14.599l-10.948-12.1L9.342 2.5c-.946 0-1.838.912-1.838 1.876V43.64" stroke-width=".988" stroke-linejoin="round"/><path d="M29.585 2.48l10.948 12.104-8.968-.036c-.927-.003-1.97-1.053-1.97-1.98z" stroke-linejoin="bevel"/></g></svg>