<svg height="48" width="48" xmlns="http://www.w3.org/2000/svg"><path d="M26.05 15.6l-5.2 20.48 1.3.32 5.2-20.48-1.3-.32zm2.919 3.9l-.969.923L32.764 26 28 31.577l.969.923 5.168-6.038L34.5 26l-.364-.461L28.97 19.5zm-9.737 0l.968.923L15.436 26l4.764 5.577-.968.923-5.168-6.038L13.7 26l.364-.461 5.168-6.039z" fill="#FE00BF" color="#7F8080"/><g fill="none" stroke="#616161" stroke-linecap="round"><path d="M7.504 43.64c0 .912.946 1.876 1.838 1.876h29.353c.892 0 1.838-.964 1.838-1.875m0 0V14.599l-10.948-12.1L9.342 2.5c-.946 0-1.838.912-1.838 1.876V43.64" stroke-width=".988" stroke-linejoin="round"/><path d="M29.585 2.48l10.948 12.104-8.968-.036c-.927-.003-1.97-1.053-1.97-1.98z" stroke-linejoin="bevel"/></g></svg>