<svg height="48" width="48" xmlns="http://www.w3.org/2000/svg"><g fill="#7F8080" stroke-width="2"><path d="M18.9 15.6h1.3v20.8h-1.3zm9.1 0h1.3v20.8H28z"/><path d="M34.5 20.8v1.3H13.7v-1.3zm0 9.1v1.3H13.7v-1.3z"/></g><g fill="none" stroke="#616161" stroke-linecap="round"><path d="M7.504 43.64c0 .912.946 1.876 1.838 1.876h29.353c.892 0 1.838-.964 1.838-1.875m0 0V14.599l-10.948-12.1L9.342 2.5c-.946 0-1.838.912-1.838 1.876V43.64" stroke-width=".988" stroke-linejoin="round"/><path d="M29.585 2.48l10.948 12.104-8.968-.036c-.927-.003-1.97-1.053-1.97-1.98z" stroke-linejoin="bevel"/></g></svg>