<svg height="48" width="48" xmlns="http://www.w3.org/2000/svg"><g transform="matrix(1.3 0 0 1.3 -414 -682.97)" fill="#FF007F"><path d="M335 538.31v14.052h1v-7.361a4 4 0 0 0 3 1.361 4 4 0 1 0 0-8 4 4 0 0 0-3 1.362v-1.415h-1zm4 1.052a3 3 0 1 1 0 6 3 3 0 0 1 0-6z"/><circle cx="331" cy="544.362" r="1" stroke-width="2"/></g><g fill="none" stroke="#616161" stroke-linecap="round"><path d="M7.504 43.64c0 .912.946 1.876 1.838 1.876h29.353c.892 0 1.838-.964 1.838-1.875m0 0V14.599l-10.948-12.1L9.342 2.5c-.946 0-1.838.912-1.838 1.876V43.64" stroke-width=".988" stroke-linejoin="round"/><path d="M29.585 2.48l10.948 12.104-8.968-.036c-.927-.003-1.97-1.053-1.97-1.98z" stroke-linejoin="bevel"/></g></svg>