<svg height="48" width="48" xmlns="http://www.w3.org/2000/svg"><path d="M16.3 16.9v1.3h-2.6v16.9h20.8V18.2h-2.6v-1.3h-6.5v1.3h-2.6v-1.3h-6.5zm1.3 1.3h3.9v1.3h5.2v-1.3h3.9v1.3h2.6v14.3H15V19.5h2.6v-1.3z" fill="#FFBF00" stroke-linecap="square" stroke-width="2"/><g fill="none" stroke="#616161" stroke-linecap="round"><path d="M7.504 43.64c0 .912.946 1.876 1.838 1.876h29.353c.892 0 1.838-.964 1.838-1.875m0 0V14.599l-10.948-12.1L9.342 2.5c-.946 0-1.838.912-1.838 1.876V43.64" stroke-width=".988" stroke-linejoin="round"/><path d="M29.585 2.48l10.948 12.104-8.968-.036c-.927-.003-1.97-1.053-1.97-1.98z" stroke-linejoin="bevel"/></g></svg>