<svg height="48" width="48" xmlns="http://www.w3.org/2000/svg"><g fill="#7F8080"><path d="M13.7 15.6v20.8h20.8V15.6h-2.6v3.9h-2.6v-3.9H18.9v3.9h-2.6v-3.9h-2.6zm1.3 5.2h18.2v14.3H15V20.8z"/><path d="M17.6 22.1v2.6h2.6v-2.6h-2.6zm5.2 0v2.6h2.6v-2.6h-2.6zm5.2 0v2.6h2.6v-2.6H28zM17.6 26v2.6h2.6V26h-2.6zm5.2 0v2.6h2.6V26h-2.6zm5.2 0v2.6h2.6V26H28zm0 3.9v2.6h2.6v-2.6H28z"/></g><g fill="none" stroke="#616161" stroke-linecap="round"><path d="M7.504 43.64c0 .912.946 1.876 1.838 1.876h29.353c.892 0 1.838-.964 1.838-1.875m0 0V14.599l-10.948-12.1L9.342 2.5c-.946 0-1.838.912-1.838 1.876V43.64" stroke-width=".988" stroke-linejoin="round"/><path d="M29.585 2.48l10.948 12.104-8.968-.036c-.927-.003-1.97-1.053-1.97-1.98z" stroke-linejoin="bevel"/></g></svg>