<?xml version="1.0" encoding="UTF-8" standalone="no"?>
<!-- Created with Inkscape (http://www.inkscape.org/) -->

<svg
   xmlns:dc="http://purl.org/dc/elements/1.1/"
   xmlns:cc="http://creativecommons.org/ns#"
   xmlns:rdf="http://www.w3.org/1999/02/22-rdf-syntax-ns#"
   xmlns:svg="http://www.w3.org/2000/svg"
   xmlns="http://www.w3.org/2000/svg"
   xmlns:sodipodi="http://sodipodi.sourceforge.net/DTD/sodipodi-0.dtd"
   xmlns:inkscape="http://www.inkscape.org/namespaces/inkscape"
   width="500"
   height="500"
   id="svg2"
   version="1.1"
   inkscape:version="0.91 r13725"
   sodipodi:docname="application-x-bzip-compressed.svg">
  <defs
     id="defs4" />
  <sodipodi:namedview
     id="base"
     pagecolor="#ffffff"
     bordercolor="#666666"
     borderopacity="1.0"
     inkscape:pageopacity="0.0"
     inkscape:pageshadow="2"
     inkscape:zoom="0.30333332"
     inkscape:cx="-309.28055"
     inkscape:cy="380.26772"
     inkscape:document-units="px"
     inkscape:current-layer="layer1"
     showgrid="false"
     inkscape:window-width="1366"
     inkscape:window-height="715"
     inkscape:window-x="0"
     inkscape:window-y="24"
     inkscape:window-maximized="1" />
  <metadata
     id="metadata7">
    <rdf:RDF>
      <cc:Work
         rdf:about="">
        <dc:format>image/svg+xml</dc:format>
        <dc:type
           rdf:resource="http://purl.org/dc/dcmitype/StillImage" />
        <dc:title />
      </cc:Work>
    </rdf:RDF>
  </metadata>
  <g
     inkscape:label="Layer 1"
     inkscape:groupmode="layer"
     id="layer1"
     transform="translate(0,-552.36218)">
    <g
       id="g4176">
      <path
         sodipodi:nodetypes="ccccc"
         inkscape:connector-curvature="0"
         id="path4230"
         d="M 63.03896,706.21219 116.261,758.31075 114.60095,685.2689 63,685.0238 Z"
         style="fill:#333333;fill-rule:evenodd;stroke:none;stroke-width:1px;stroke-linecap:butt;stroke-linejoin:miter;stroke-opacity:1" />
      <path
         inkscape:connector-curvature="0"
         id="path3364"
         d="m 97.04097,1029.8357 336.88839,-1.1739 1.17377,-363.88651 -88.03697,-89.21086 -250.02519,0 z"
         style="fill:#f2f2f2;fill-rule:evenodd;stroke:#afafaf;stroke-width:5.03546047;stroke-linecap:butt;stroke-linejoin:miter;stroke-miterlimit:4;stroke-dasharray:none;stroke-opacity:1" />
      <g
         id="g4142"
         transform="matrix(0.5540866,0,0,0.5540866,128.62991,455.42248)">
        <path
           style="fill:#4f576d;fill-opacity:1;stroke:none"
           d="m 323.78153,666.84953 18.03389,6.21168 0,8.01507 -15.429,4.40827 0,24.8467 33.46288,-9.21731 -19.03577,9.81845 0.40075,18.63502 -14.42711,4.60866 0,23.64443 31.05838,-7.61429 -16.03013,9.4177 0,17.8335 -15.82975,5.41018 1.00189,22.44218 33.66327,-9.21732 -18.83541,10.82032 -0.40075,17.43277 -14.82786,4.40829 0.40075,22.2418 32.66138,-8.41582 -20.63879,13.02448 -0.60114,7.21356 52.09793,0 -0.60114,-24.44595 15.02825,-3.20602 -0.40075,-24.24557 -35.26629,7.81468 20.43843,-8.61618 0.20041,-17.2324 15.62938,-4.60866 0,-24.64632 -27.25122,7.81468 11.0207,-7.21354 0.20041,-18.03391 14.6275,-4.20791 0,-24.8467 -32.06027,7.8147 16.23052,-8.41581 0.8015,-20.23805 14.82786,-2.20413 0.8015,-24.44596 -29.45536,6.61243 15.22863,-11.82222 0,-7.61432 -65.32276,1.80341 z"
           id="path3941-3"
           inkscape:connector-curvature="0" />
        <path
           style="fill:#4f576d;fill-opacity:1;stroke:none"
           d="m 327.69161,916.28877 0.28338,51.00755 -14.73551,0 0,18.4194 -26.35392,0.56675 -0.28336,-16.1524 -34.85517,0.28338 -0.56676,56.95845 35.70529,0 0,-14.7355 26.63729,-0.2834 0,18.4194 105.13224,-0.2834 0.28337,-17.8526 27.77079,0 0,15.5856 34.00504,0 -0.28338,-58.94204 -33.72166,0.28336 0,17.28591 -28.05416,0 -1.13351,-20.11966 -12.18514,0.28338 0,-51.29093 z"
           id="path3943-6"
           inkscape:connector-curvature="0" />
        <path
           style="fill:#394050;stroke:none"
           d="m 91.935038,898.50154 -0.8015,14.02636 31.659502,29.65575 165.91182,1.60302 21.64068,-24.0452 113.41317,-1.20225 0,-66.52504 -111.00865,0 -44.08286,46.88813 z"
           id="path3921-7"
           inkscape:connector-curvature="0" />
        <path
           style="fill:#394050;stroke:none"
           d="m 92.038481,626.4715 -0.8015,-14.02636 31.659499,-29.65575 165.91182,-1.60302 21.64068,24.0452 113.41317,1.20225 0,66.52504 -111.00864,0 -44.08286,-46.88813 z"
           id="path3921-3-5"
           inkscape:connector-curvature="0" />
        <rect
           style="fill:#ffcc00;fill-opacity:1;stroke:none"
           id="rect3945-3"
           width="238.03526"
           height="272.60706"
           x="30.714285"
           y="626.11243" />
        <rect
           style="fill:#ffe270;fill-opacity:1;stroke:none"
           id="rect3945-6-5"
           width="199.56294"
           height="105.0922"
           x="48.470131"
           y="650.37122" />
        <rect
           style="fill:#ffe270;fill-opacity:1;stroke:none"
           id="rect3945-6-7-6"
           width="199.56294"
           height="105.0922"
           x="50.073128"
           y="772.60095" />
        <rect
           style="fill:#394050;fill-opacity:1;stroke:none"
           id="rect3945-6-7-5-2"
           width="80.138489"
           height="25.743069"
           x="110.98764"
           y="691.6488" />
        <rect
           style="fill:#394050;fill-opacity:1;stroke:none"
           id="rect3945-6-7-5-3-9"
           width="80.138489"
           height="25.743069"
           x="110.58685"
           y="810.67249" />
      </g>
      <path
         sodipodi:nodetypes="cccc"
         inkscape:connector-curvature="0"
         id="path4166"
         d="m 431.51909,662.93113 -82.16431,-0.58691 0.75853,-83.80351 z"
         style="fill:#afafaf;fill-opacity:1;fill-rule:evenodd;stroke:#afafaf;stroke-width:5.03546047;stroke-linecap:butt;stroke-linejoin:miter;stroke-miterlimit:4;stroke-dasharray:none;stroke-opacity:1" />
      <rect
         y="622.18732"
         x="63.139694"
         height="84.350876"
         width="267.79285"
         id="rect4228"
         style="fill:#394050;fill-opacity:1;stroke:none;stroke-width:5;stroke-miterlimit:4;stroke-dasharray:none;stroke-opacity:1" />
      <g
         id="flowRoot4170"
         style="font-style:normal;font-weight:normal;font-size:40px;line-height:125%;font-family:sans-serif;letter-spacing:0px;word-spacing:0px;fill:#ffffff;fill-opacity:1;stroke:none;stroke-width:1px;stroke-linecap:butt;stroke-linejoin:miter;stroke-opacity:1"
         transform="matrix(1.5468808,0,0,1.5468808,-84.701895,357.38785)">
        <path
           inkscape:connector-curvature="0"
           id="path4179"
           style="font-style:normal;font-variant:normal;font-weight:bold;font-stretch:normal;font-family:sans-serif;-inkscape-font-specification:'sans-serif Bold';fill:#ffffff"
           d="m 101.59961,183.18637 26.875,0 0,5.6836 -9.66797,0 0,23.47656 -7.51953,0 0,-23.47656 -9.6875,0 0,-5.6836 z" />
        <path
           inkscape:connector-curvature="0"
           id="path4181"
           style="font-style:normal;font-variant:normal;font-weight:bold;font-stretch:normal;font-family:sans-serif;-inkscape-font-specification:'sans-serif Bold';fill:#ffffff"
           d="m 146.91211,207.03403 -11.75781,0 -1.85547,5.3125 -7.5586,0 10.80079,-29.16016 8.96484,0 10.80078,29.16016 -7.55859,0 -1.83594,-5.3125 z m -9.88281,-5.41016 7.98828,0 -3.98438,-11.60156 -4.0039,11.60156 z" />
        <path
           inkscape:connector-curvature="0"
           id="path4183"
           style="font-style:normal;font-variant:normal;font-weight:bold;font-stretch:normal;font-family:sans-serif;-inkscape-font-specification:'sans-serif Bold';fill:#ffffff"
           d="m 170.83789,196.11606 q 2.36328,0 3.37891,-0.87891 1.03515,-0.8789 1.03515,-2.89062 0,-1.99219 -1.03515,-2.85156 -1.01563,-0.85938 -3.37891,-0.85938 l -3.16406,0 0,7.48047 3.16406,0 z m -3.16406,5.19531 0,11.03516 -7.51953,0 0,-29.16016 11.48437,0 q 5.76172,0 8.4375,1.9336 2.69531,1.93359 2.69531,6.11328 0,2.89062 -1.40625,4.74609 -1.38671,1.85547 -4.19921,2.73438 1.54296,0.35156 2.7539,1.60156 1.23047,1.23047 2.48047,3.75 l 4.08203,8.28125 -8.00781,0 -3.55469,-7.24609 q -1.07422,-2.1875 -2.1875,-2.98829 -1.09375,-0.80078 -2.92969,-0.80078 l -2.1289,0 z" />
        <path
           inkscape:connector-curvature="0"
           id="path4185"
           style="font-style:normal;font-variant:normal;font-weight:bold;font-stretch:normal;font-family:sans-serif;-inkscape-font-specification:'sans-serif Bold';fill:#ffffff"
           d="m 192.12695,204.78794 7.03125,0 0,7.55859 -7.03125,0 0,-7.55859 z" />
        <path
           inkscape:connector-curvature="0"
           id="path4187"
           style="font-style:normal;font-variant:normal;font-weight:bold;font-stretch:normal;font-family:sans-serif;-inkscape-font-specification:'sans-serif Bold';fill:#ffffff"
           d="m 218.63086,194.47544 q 1.77734,0 2.69531,-0.78125 0.91797,-0.78125 0.91797,-2.30469 0,-1.50391 -0.91797,-2.28516 -0.91797,-0.80078 -2.69531,-0.80078 l -4.16016,0 0,6.17188 4.16016,0 z m 0.25391,12.7539 q 2.26562,0 3.39843,-0.95703 1.15235,-0.95703 1.15235,-2.89062 0,-1.89454 -1.13282,-2.83204 -1.13281,-0.95703 -3.41796,-0.95703 l -4.41407,0 0,7.63672 4.41407,0 z m 6.99218,-10.48828 q 2.42188,0.70313 3.75,2.59766 1.32813,1.89453 1.32813,4.64843 0,4.21875 -2.85156,6.28907 -2.85157,2.07031 -8.67188,2.07031 l -12.48047,0 0,-29.16016 11.28906,0 q 6.07422,0 8.78907,1.83594 2.73437,1.83594 2.73437,5.87891 0,2.1289 -0.99609,3.63281 -0.9961,1.48437 -2.89063,2.20703 z" />
        <path
           inkscape:connector-curvature="0"
           id="path4189"
           style="font-style:normal;font-variant:normal;font-weight:bold;font-stretch:normal;font-family:sans-serif;-inkscape-font-specification:'sans-serif Bold';fill:#ffffff"
           d="m 235.99414,183.18637 24.51172,0 0,4.55078 -15.64453,18.92579 16.09375,0 0,5.68359 -25.41016,0 0,-4.55078 15.64453,-18.92578 -15.19531,0 0,-5.6836 z" />
      </g>
    </g>
  </g>
</svg>
