<?xml version="1.0" encoding="UTF-8" standalone="no"?>
<!-- Created with Inkscape (http://www.inkscape.org/) -->

<svg
   xmlns:dc="http://purl.org/dc/elements/1.1/"
   xmlns:cc="http://creativecommons.org/ns#"
   xmlns:rdf="http://www.w3.org/1999/02/22-rdf-syntax-ns#"
   xmlns:svg="http://www.w3.org/2000/svg"
   xmlns="http://www.w3.org/2000/svg"
   xmlns:sodipodi="http://sodipodi.sourceforge.net/DTD/sodipodi-0.dtd"
   xmlns:inkscape="http://www.inkscape.org/namespaces/inkscape"
   width="500"
   height="500"
   id="svg2"
   version="1.1"
   inkscape:version="0.91 r13725"
   sodipodi:docname="application-vnd.debian.binary-package.svg">
  <defs
     id="defs4" />
  <sodipodi:namedview
     id="base"
     pagecolor="#ffffff"
     bordercolor="#666666"
     borderopacity="1.0"
     inkscape:pageopacity="0.0"
     inkscape:pageshadow="2"
     inkscape:zoom="0.60666665"
     inkscape:cx="268.95318"
     inkscape:cy="226.85407"
     inkscape:document-units="px"
     inkscape:current-layer="layer1"
     showgrid="false"
     inkscape:window-width="1366"
     inkscape:window-height="715"
     inkscape:window-x="0"
     inkscape:window-y="24"
     inkscape:window-maximized="1" />
  <metadata
     id="metadata7">
    <rdf:RDF>
      <cc:Work
         rdf:about="">
        <dc:format>image/svg+xml</dc:format>
        <dc:type
           rdf:resource="http://purl.org/dc/dcmitype/StillImage" />
        <dc:title />
      </cc:Work>
    </rdf:RDF>
  </metadata>
  <g
     inkscape:label="Layer 1"
     inkscape:groupmode="layer"
     id="layer1"
     transform="translate(0,-552.36218)">
    <g
       id="g4193">
      <path
         sodipodi:nodetypes="ccccc"
         inkscape:connector-curvature="0"
         id="path4230"
         d="m 63.03896,701.21196 53.22205,52.09856 -1.66005,-73.04185 L 63,680.02357 Z"
         style="fill:#b9280c;fill-opacity:1;fill-rule:evenodd;stroke:none;stroke-width:1px;stroke-linecap:butt;stroke-linejoin:miter;stroke-opacity:1" />
      <path
         inkscape:connector-curvature="0"
         id="path3364"
         d="m 97.04098,1024.8357 336.88838,-1.1739 1.17377,-363.88674 -88.03697,-89.21086 -250.02518,0 z"
         style="fill:#f2f2f2;fill-rule:evenodd;stroke:#afafaf;stroke-width:5.03546047;stroke-linecap:butt;stroke-linejoin:miter;stroke-miterlimit:4;stroke-dasharray:none;stroke-opacity:1" />
      <path
         sodipodi:nodetypes="cccc"
         inkscape:connector-curvature="0"
         id="path4166"
         d="m 431.51909,657.9309 -82.16431,-0.58691 0.75853,-83.80351 z"
         style="fill:#afafaf;fill-opacity:1;fill-rule:evenodd;stroke:#afafaf;stroke-width:5.03546047;stroke-linecap:butt;stroke-linejoin:miter;stroke-miterlimit:4;stroke-dasharray:none;stroke-opacity:1" />
      <rect
         y="617.18701"
         x="63.139687"
         height="84.350876"
         width="224.93568"
         id="rect4228"
         style="fill:#f03916;fill-opacity:1;stroke:none;stroke-width:5;stroke-miterlimit:4;stroke-dasharray:none;stroke-opacity:1" />
      <g
         id="g4"
         style="fill:#f03916;fill-opacity:1"
         transform="matrix(1.1258046,0,0,1.1258046,217.41576,818.19299)">
        <path
           style="fill:#f03916;fill-opacity:1"
           id="path6"
           d="m 64.525,62.053 c -4.125,0.058 0.78,2.125 6.165,2.954 1.488,-1.161 2.838,-2.336 4.04,-3.479 -3.354,0.821 -6.765,0.838 -10.205,0.525"
           inkscape:connector-curvature="0" />
        <path
           style="fill:#f03916;fill-opacity:1"
           id="path8"
           d="m 86.665,56.533 c 2.457,-3.389 4.246,-7.102 4.878,-10.939 -0.551,2.736 -2.035,5.099 -3.435,7.592 -7.711,4.854 -0.726,-2.883 -0.004,-5.824 -8.29,10.436 -1.138,6.257 -1.439,9.171"
           inkscape:connector-curvature="0" />
        <path
           style="fill:#f03916;fill-opacity:1"
           id="path10"
           d="m 94.839,35.268 c 0.497,-7.428 -1.462,-5.08 -2.121,-2.245 0.766,0.4 1.377,5.237 2.121,2.245"
           inkscape:connector-curvature="0" />
        <path
           style="fill:#f03916;fill-opacity:1"
           id="path12"
           d="m 48.883,-66.264 c 2.201,0.395 4.757,0.698 4.398,1.224 2.407,-0.528 2.954,-1.015 -4.398,-1.224"
           inkscape:connector-curvature="0" />
        <path
           style="fill:#f03916;fill-opacity:1"
           id="path14"
           d="m 53.281,-65.04 -1.556,0.32 1.448,-0.127 0.108,-0.193"
           inkscape:connector-curvature="0" />
        <path
           style="fill:#f03916;fill-opacity:1"
           id="path16"
           d="m 121.93,38.085 c 0.247,6.671 -1.95,9.907 -3.932,15.637 l -3.564,1.781 c -2.919,5.666 0.282,3.598 -1.807,8.105 -4.556,4.049 -13.823,12.67 -16.789,13.457 -2.163,-0.047 1.469,-2.554 1.943,-3.537 -6.097,4.188 -4.894,6.285 -14.217,8.83 L 83.291,81.751 C 60.29,92.569 28.344,71.129 28.765,41.875 28.519,43.732 28.067,43.268 27.557,44.019 26.371,28.967 34.509,13.849 48.232,7.676 61.659,1.03 77.395,3.758 87.012,12.72 81.73,5.8 71.217,-1.534 58.757,-0.848 46.549,-0.655 35.132,7.102 31.321,15.521 c -6.253,3.938 -6.979,15.177 -9.704,17.233 -3.665,26.943 6.896,38.583 24.762,52.275 2.812,1.896 0.792,2.184 1.173,3.627 C 41.616,85.877 36.18,81.68 31.711,76.542 c 2.372,3.473 4.931,6.847 8.239,9.499 -5.596,-1.897 -13.074,-13.563 -15.256,-14.038 9.647,17.274 39.142,30.295 54.587,23.836 -7.146,0.263 -16.226,0.146 -24.256,-2.822 -3.371,-1.734 -7.958,-5.331 -7.14,-6.003 21.079,7.875 42.854,5.965 61.09,-8.655 4.641,-3.614 9.709,-9.761 11.173,-9.846 -2.206,3.317 0.377,1.596 -1.318,4.523 4.625,-7.456 -2.008,-3.035 4.779,-12.877 l 2.507,3.453 c -0.931,-6.188 7.687,-13.704 6.813,-23.492 1.975,-2.994 2.206,3.22 0.107,10.107 2.912,-7.64 0.767,-8.867 1.516,-15.171 0.81,2.118 1.867,4.37 2.412,6.606 -1.895,-7.382 1.948,-12.433 2.898,-16.724 -0.937,-0.415 -2.928,3.264 -3.383,-5.457 0.065,-3.788 1.054,-1.985 1.435,-2.917 -0.744,-0.427 -2.694,-3.33 -3.88,-8.9 0.86,-1.308 2.3,3.393 3.47,3.586 -0.753,-4.429 -2.049,-7.805 -2.103,-11.202 -3.421,-7.149 -1.211,0.953 -3.985,-3.069 -3.641,-11.357 3.021,-2.637 3.47,-7.796 5.52,7.995 8.667,20.387 10.11,25.519 -1.103,-6.258 -2.883,-12.32 -5.058,-18.185 1.677,0.705 -2.699,-12.875 2.18,-3.882 -5.21,-19.172 -22.302,-37.087 -38.025,-45.493 1.924,1.76 4.354,3.971 3.481,4.317 -7.819,-4.656 -6.444,-5.018 -7.565,-6.985 -6.369,-2.591 -6.788,0.208 -11.007,0.004 -12.005,-6.368 -14.318,-5.69 -25.368,-9.681 l 0.502,2.349 c -7.953,-2.649 -9.265,1.005 -17.862,0.009 -0.523,-0.409 2.753,-1.479 5.452,-1.871 -7.69,1.015 -7.329,-1.515 -14.854,0.279 1.855,-1.301 3.815,-2.162 5.793,-3.269 -6.271,0.381 -14.971,3.649 -12.286,0.677 -10.235,4.569 -28.403,10.976 -38.597,20.535 l -0.321,-2.142 c -4.672,5.608 -20.371,16.748 -21.622,24.011 l -1.249,0.291 c -2.431,4.116 -4.004,8.781 -5.932,13.016 -3.18,5.417 -4.661,2.085 -4.208,2.934 -6.253,12.679 -9.359,23.332 -12.043,32.069 1.912,2.858 0.046,17.206 0.769,28.688 -3.141,56.709 39.8,111.77 86.737,124.48 6.88,2.459 17.11,2.364 25.813,2.618 -10.268,-2.937 -11.595,-1.556 -21.595,-5.044 -7.215,-3.398 -8.797,-7.277 -13.907,-11.711 l 2.022,3.573 c -10.021,-3.547 -5.829,-4.39 -13.982,-6.972 l 2.16,-2.82 C 11.175,156.251 5.82,151.022 4.355,148.126 l -3.553,0.14 c -4.27,-5.269 -6.545,-9.063 -6.379,-12.005 l -1.148,2.047 c -1.301,-2.235 -15.709,-19.759 -8.234,-15.679 -1.389,-1.271 -3.235,-2.067 -5.237,-5.703 l 1.522,-1.739 c -3.597,-4.627 -6.621,-10.562 -6.391,-12.536 1.919,2.592 3.25,3.075 4.568,3.52 -9.083,-22.539 -9.593,-1.242 -16.474,-22.942 l 1.456,-0.116 c -1.116,-1.682 -1.793,-3.506 -2.69,-5.298 l 0.633,-6.313 C -44.113,63.94 -39.401,39.351 -38.459,25.865 -37.804,20.38 -33,14.543 -29.345,5.388 l -2.227,-0.384 c 4.256,-7.423 24.301,-29.814 33.583,-28.662 4.499,-5.649 -0.892,-0.02 -1.772,-1.443 9.878,-10.223 12.984,-7.222 19.65,-9.061 7.19,-4.268 -6.17,1.664 -2.761,-1.628 12.427,-3.174 8.808,-7.216 25.021,-8.828 1.71,0.973 -3.969,1.503 -5.395,2.766 10.354,-5.066 32.769,-3.914 47.326,2.811 16.895,7.896 35.873,31.232 36.622,53.189 l 0.852,0.229 c -0.431,8.729 1.336,18.822 -1.727,28.094 l 2.1,-4.385"
           inkscape:connector-curvature="0" />
        <path
           style="fill:#f03916;fill-opacity:1"
           id="path18-3"
           d="m 19.5,67.715 -0.578,2.893 c 2.71,3.683 4.861,7.673 8.323,10.552 -2.49,-4.863 -4.341,-6.872 -7.745,-13.445"
           inkscape:connector-curvature="0" />
        <path
           style="fill:#f03916;fill-opacity:1"
           id="path20"
           d="m 25.909,67.464 c -1.435,-1.587 -2.284,-3.497 -3.235,-5.4 0.909,3.345 2.771,6.219 4.504,9.143 l -1.269,-3.743"
           inkscape:connector-curvature="0" />
        <path
           style="fill:#f03916;fill-opacity:1"
           id="path22"
           d="m 139.32,42.814 -0.605,1.52 c -1.111,7.892 -3.511,15.701 -7.189,22.941 4.06,-7.639 6.69,-15.995 7.79,-24.461"
           inkscape:connector-curvature="0" />
        <path
           style="fill:#f03916;fill-opacity:1"
           id="path24"
           d="m 49.698,-68.243 c 2.789,-1.022 6.855,-0.56 9.814,-1.233 -3.855,0.324 -7.693,0.517 -11.484,1.005 l 1.67,0.228"
           inkscape:connector-curvature="0" />
        <path
           style="fill:#f03916;fill-opacity:1"
           id="path26"
           d="m -48.219,-16.176 c 0.642,5.951 -4.477,8.26 1.134,4.337 3.007,-6.773 -1.175,-1.87 -1.134,-4.337"
           inkscape:connector-curvature="0" />
        <path
           style="fill:#f03916;fill-opacity:1"
           id="path28"
           d="m -54.812,11.362 c 1.292,-3.967 1.526,-6.349 2.02,-8.645 -3.571,4.566 -1.643,5.539 -2.02,8.645"
           inkscape:connector-curvature="0" />
      </g>
      <g
         id="flowRoot4178"
         style="font-style:normal;font-weight:normal;font-size:40px;line-height:125%;font-family:sans-serif;letter-spacing:0px;word-spacing:0px;fill:#ffffff;fill-opacity:1;stroke:none;stroke-width:1px;stroke-linecap:butt;stroke-linejoin:miter;stroke-opacity:1"
         transform="translate(-11.538462,555.65888)">
        <path
           inkscape:connector-curvature="0"
           id="path4187"
           style="font-style:normal;font-variant:normal;font-weight:bold;font-stretch:normal;font-size:80px;font-family:sans-serif;-inkscape-font-specification:'sans-serif Bold';fill:#ffffff"
           d="m 131.17383,84.435245 0,35.585935 5.39062,0 q 9.21875,0 14.0625,-4.57031 4.88282,-4.57031 4.88282,-13.28125 0,-8.671875 -4.84375,-13.203125 -4.84375,-4.53125 -14.10157,-4.53125 l -5.39062,0 z m -15.03906,-11.367187 15.85937,0 q 13.28125,0 19.76563,1.914062 6.52343,1.875 11.17187,6.40625 4.10156,3.945313 6.09375,9.101563 1.99219,5.15625 1.99219,11.679687 0,6.60156 -1.99219,11.79688 -1.99219,5.15625 -6.09375,9.10156 -4.6875,4.53125 -11.25,6.44531 -6.5625,1.875 -19.6875,1.875 l -15.85937,0 0,-58.320312 z" />
        <path
           inkscape:connector-curvature="0"
           id="path4189"
           style="font-style:normal;font-variant:normal;font-weight:bold;font-stretch:normal;font-size:80px;font-family:sans-serif;-inkscape-font-specification:'sans-serif Bold';fill:#ffffff"
           d="m 182.54102,73.068058 40.58593,0 0,11.367187 -25.54687,0 0,10.859375 24.02344,0 0,11.36719 -24.02344,0 0,13.35937 26.40625,0 0,11.36719 -41.44531,0 0,-58.320312 z" />
        <path
           inkscape:connector-curvature="0"
           id="path4191"
           style="font-style:normal;font-variant:normal;font-weight:bold;font-stretch:normal;font-size:80px;font-family:sans-serif;-inkscape-font-specification:'sans-serif Bold';fill:#ffffff"
           d="m 260.58789,95.646183 q 3.55469,0 5.39063,-1.5625 1.83593,-1.5625 1.83593,-4.609375 0,-3.007813 -1.83593,-4.570313 -1.83594,-1.601562 -5.39063,-1.601562 l -8.32031,0 0,12.34375 8.32031,0 z M 261.0957,121.154 q 4.53125,0 6.79688,-1.91407 2.30469,-1.91406 2.30469,-5.78125 0,-3.78906 -2.26563,-5.66406 -2.26562,-1.91406 -6.83594,-1.91406 l -8.82812,0 0,15.27344 8.82812,0 z m 13.98438,-20.97657 q 4.84375,1.40625 7.5,5.19532 2.65625,3.78906 2.65625,9.29687 0,8.4375 -5.70313,12.57813 -5.70312,4.14062 -17.34375,4.14062 l -24.96093,0 0,-58.320312 22.57812,0 q 12.14844,0 17.57813,3.671875 5.46875,3.671875 5.46875,11.757812 0,4.257813 -1.99219,7.265625 -1.99219,2.96875 -5.78125,4.41406 z" />
      </g>
    </g>
  </g>
</svg>
