<?xml version="1.0" encoding="UTF-8" standalone="no"?>
<!-- Created with Inkscape (http://www.inkscape.org/) -->

<svg
   xmlns:dc="http://purl.org/dc/elements/1.1/"
   xmlns:cc="http://creativecommons.org/ns#"
   xmlns:rdf="http://www.w3.org/1999/02/22-rdf-syntax-ns#"
   xmlns:svg="http://www.w3.org/2000/svg"
   xmlns="http://www.w3.org/2000/svg"
   xmlns:sodipodi="http://sodipodi.sourceforge.net/DTD/sodipodi-0.dtd"
   xmlns:inkscape="http://www.inkscape.org/namespaces/inkscape"
   width="500"
   height="500"
   id="svg2"
   version="1.1"
   inkscape:version="0.91 r13725"
   sodipodi:docname="application-x-mplayer2.svg">
  <defs
     id="defs4" />
  <sodipodi:namedview
     id="base"
     pagecolor="#ffffff"
     bordercolor="#666666"
     borderopacity="1.0"
     inkscape:pageopacity="0.0"
     inkscape:pageshadow="2"
     inkscape:zoom="0.85795622"
     inkscape:cx="3.8416601"
     inkscape:cy="245.32171"
     inkscape:document-units="px"
     inkscape:current-layer="layer1"
     showgrid="false"
     inkscape:window-width="1366"
     inkscape:window-height="715"
     inkscape:window-x="0"
     inkscape:window-y="24"
     inkscape:window-maximized="1" />
  <metadata
     id="metadata7">
    <rdf:RDF>
      <cc:Work
         rdf:about="">
        <dc:format>image/svg+xml</dc:format>
        <dc:type
           rdf:resource="http://purl.org/dc/dcmitype/StillImage" />
        <dc:title />
      </cc:Work>
    </rdf:RDF>
  </metadata>
  <g
     inkscape:label="Layer 1"
     inkscape:groupmode="layer"
     id="layer1"
     transform="translate(0,-552.36218)">
    <g
       id="g4213">
      <path
         sodipodi:nodetypes="ccccc"
         inkscape:connector-curvature="0"
         id="path4230"
         d="M 63.03896,706.21214 116.261,758.3107 114.60095,685.26885 63,685.02375 Z"
         style="fill:#002029;fill-opacity:1;fill-rule:evenodd;stroke:none;stroke-width:1px;stroke-linecap:butt;stroke-linejoin:miter;stroke-opacity:1" />
      <path
         inkscape:connector-curvature="0"
         id="path3364"
         d="m 97.04097,1029.8357 336.88839,-1.1739 1.17376,-363.88656 -88.03696,-89.21086 -250.02519,0 z"
         style="fill:#f2f2f2;fill-rule:evenodd;stroke:#afafaf;stroke-width:5.03546047;stroke-linecap:butt;stroke-linejoin:miter;stroke-miterlimit:4;stroke-dasharray:none;stroke-opacity:1" />
      <path
         sodipodi:nodetypes="cccc"
         inkscape:connector-curvature="0"
         id="path4166"
         d="m 431.51909,662.93108 -82.16431,-0.58691 0.75853,-83.80351 z"
         style="fill:#afafaf;fill-opacity:1;fill-rule:evenodd;stroke:#afafaf;stroke-width:5.03546047;stroke-linecap:butt;stroke-linejoin:miter;stroke-miterlimit:4;stroke-dasharray:none;stroke-opacity:1" />
      <rect
         y="622.18719"
         x="63.139648"
         height="84.350876"
         width="268.90012"
         id="rect4228"
         style="fill:#004455;fill-opacity:1;stroke:none;stroke-width:5;stroke-miterlimit:4;stroke-dasharray:none;stroke-opacity:1" />
      <g
         id="g4171">
        <path
           inkscape:connector-curvature="0"
           style="fill:#004455;fill-opacity:1;stroke:none"
           d="m 146.46594,793.49695 0,233.76635 233.76623,0 0,-233.76635 -233.76623,0 z m 17.53247,17.53246 17.53247,0 0,17.53247 -17.53247,0 0,-17.53247 z m 181.16883,0 17.53247,0 0,17.53247 -17.53247,0 0,-17.53247 z m -181.16883,43.83117 17.53247,0 0,17.53247 -17.53247,0 0,-17.53247 z m 181.16883,0 17.53247,0 0,17.53247 -17.53247,0 0,-17.53247 z m -181.16883,46.75325 17.53247,0 0,17.53247 -17.53247,0 0,-17.53247 z m 181.16883,0 17.53247,0 0,17.53247 -17.53247,0 0,-17.53247 z m -181.16883,46.75325 17.53247,0 0,17.53251 -17.53247,0 0,-17.53251 z m 181.16883,0 17.53247,0 0,17.53251 -17.53247,0 0,-17.53251 z m -181.16883,43.83121 17.53247,0 0,17.53251 -17.53247,0 0,-17.53251 z m 181.16883,0 17.53247,0 0,17.53251 -17.53247,0 0,-17.53251 z"
           id="rect4197-3" />
        <rect
           style="fill:#00bbf2;fill-opacity:1;stroke:none"
           id="rect4323-6"
           width="128.57137"
           height="90.584404"
           x="199.68207"
           y="811.47137" />
        <rect
           style="fill:#00bbf2;fill-opacity:1;stroke:none"
           id="rect4325-7"
           width="128.57137"
           height="90.584419"
           x="199.06335"
           y="919.1463" />
        <path
           style="fill:#f03916;fill-opacity:0.94117647;fill-rule:evenodd;stroke:none;stroke-width:1px;stroke-linecap:butt;stroke-linejoin:miter;stroke-opacity:1"
           d="m 247.35651,1010.0512 c 0,0 2.86215,-30.71269 26.16295,-50.91177 23.3008,-20.19908 54.44722,-13.43503 54.44722,-13.43503 l -0.29289,64.5968 z"
           id="path4167"
           inkscape:connector-curvature="0"
           sodipodi:nodetypes="czccc" />
        <path
           style="fill:#f03916;fill-opacity:0.94117647;fill-rule:evenodd;stroke:none;stroke-width:1px;stroke-linecap:butt;stroke-linejoin:miter;stroke-opacity:1"
           d="m 229.09906,811.13007 c 0,0 -0.28499,9.08166 7.25,18.25 7.53499,9.16834 15.73483,10.7045 15.73483,10.7045 l -0.23483,20.2955 9,0 0.25,-20.25 c 0,0 7.08078,-0.72073 15.25,-9.25 8.16922,-8.52927 7.5,-20 7.5,-20 z"
           id="path4169"
           inkscape:connector-curvature="0"
           sodipodi:nodetypes="czcccczcc" />
        <rect
           style="fill:#d45500;fill-opacity:0.94117647;stroke:none;stroke-opacity:1"
           id="rect4171"
           width="9.1923885"
           height="7.0710678"
           x="251.59915"
           y="863.07642" />
      </g>
      <g
         id="flowRoot4174"
         style="font-style:normal;font-weight:normal;font-size:40px;line-height:125%;font-family:sans-serif;letter-spacing:0px;word-spacing:0px;fill:#ffffff;fill-opacity:1;stroke:none;stroke-width:1px;stroke-linecap:butt;stroke-linejoin:miter;stroke-opacity:1"
         transform="matrix(1.2224189,0,0,1.2224189,-19.091168,540.25817)">
        <path
           inkscape:connector-curvature="0"
           id="path4183"
           style="font-style:normal;font-variant:normal;font-weight:bold;font-stretch:normal;font-family:sans-serif;-inkscape-font-specification:'sans-serif Bold';fill:#ffffff"
           d="m 75.353516,85.862154 9.570312,0 6.640625,15.605466 6.679688,-15.605466 9.550779,0 0,29.160156 -7.10937,0 0,-21.328125 -6.718753,15.722655 -4.765625,0 -6.71875,-15.722655 0,21.328125 -7.128906,0 0,-29.160156 z" />
        <path
           inkscape:connector-curvature="0"
           id="path4185"
           style="font-style:normal;font-variant:normal;font-weight:bold;font-stretch:normal;font-family:sans-serif;-inkscape-font-specification:'sans-serif Bold';fill:#ffffff"
           d="m 115.19727,85.862154 12.48046,0 q 5.56641,0 8.53516,2.480469 2.98828,2.460937 2.98828,7.03125 0,4.589843 -2.98828,7.070317 -2.96875,2.46093 -8.53516,2.46093 l -4.96093,0 0,10.11719 -7.51953,0 0,-29.160156 z m 7.51953,5.449219 0,8.144531 4.16015,0 q 2.1875,0 3.37891,-1.054688 1.19141,-1.074218 1.19141,-3.027343 0,-1.953125 -1.19141,-3.007813 -1.19141,-1.054687 -3.37891,-1.054687 l -4.16015,0 z" />
        <path
           inkscape:connector-curvature="0"
           id="path4187"
           style="font-style:normal;font-variant:normal;font-weight:bold;font-stretch:normal;font-family:sans-serif;-inkscape-font-specification:'sans-serif Bold';fill:#ffffff"
           d="m 144.49414,85.862154 7.51953,0 0,23.476566 13.20313,0 0,5.68359 -20.72266,0 0,-29.160156 z" />
        <path
           inkscape:connector-curvature="0"
           id="path4189"
           style="font-style:normal;font-variant:normal;font-weight:bold;font-stretch:normal;font-family:sans-serif;-inkscape-font-specification:'sans-serif Bold';fill:#ffffff"
           d="m 187.6582,109.70981 -11.75781,0 -1.85547,5.3125 -7.55859,0 10.80078,-29.160156 8.96484,0 10.80078,29.160156 -7.55859,0 -1.83594,-5.3125 z m -9.88281,-5.41016 7.98828,0 -3.98437,-11.601559 -4.00391,11.601559 z" />
        <path
           inkscape:connector-curvature="0"
           id="path4191"
           style="font-style:normal;font-variant:normal;font-weight:bold;font-stretch:normal;font-family:sans-serif;-inkscape-font-specification:'sans-serif Bold';fill:#ffffff"
           d="m 193.00977,85.862154 8.22265,0 6.64063,10.390625 6.64062,-10.390625 8.24219,0 -11.11328,16.874996 0,12.28516 -7.51953,0 0,-12.28516 -11.11328,-16.874996 z" />
        <path
           inkscape:connector-curvature="0"
           id="path4193"
           style="font-style:normal;font-variant:normal;font-weight:bold;font-stretch:normal;font-family:sans-serif;-inkscape-font-specification:'sans-serif Bold';fill:#ffffff"
           d="m 226.05664,85.862154 20.29297,0 0,5.683594 -12.77344,0 0,5.429687 12.01172,0 0,5.683595 -12.01172,0 0,6.67969 13.20313,0 0,5.68359 -20.72266,0 0,-29.160156 z" />
        <path
           inkscape:connector-curvature="0"
           id="path4195"
           style="font-style:normal;font-variant:normal;font-weight:bold;font-stretch:normal;font-family:sans-serif;-inkscape-font-specification:'sans-serif Bold';fill:#ffffff"
           d="m 264.08398,98.791841 q 2.36329,0 3.37891,-0.878906 1.03516,-0.878906 1.03516,-2.890625 0,-1.992187 -1.03516,-2.851562 -1.01562,-0.859375 -3.37891,-0.859375 l -3.16406,0 0,7.480468 3.16406,0 z m -3.16406,5.195309 0,11.03516 -7.51953,0 0,-29.160156 11.48438,0 q 5.76171,0 8.4375,1.933594 2.69531,1.933593 2.69531,6.113281 0,2.890625 -1.40625,4.746094 -1.38672,1.855467 -4.19922,2.734377 1.54297,0.35156 2.75391,1.60156 1.23046,1.23047 2.48046,3.75 l 4.08204,8.28125 -8.00782,0 -3.55468,-7.24609 q -1.07422,-2.1875 -2.1875,-2.98828 -1.09375,-0.80079 -2.92969,-0.80079 l -2.12891,0 z" />
      </g>
    </g>
  </g>
</svg>
