<?xml version="1.0" encoding="UTF-8" standalone="no"?>
<!-- Created with Inkscape (http://www.inkscape.org/) -->

<svg
   xmlns:dc="http://purl.org/dc/elements/1.1/"
   xmlns:cc="http://creativecommons.org/ns#"
   xmlns:rdf="http://www.w3.org/1999/02/22-rdf-syntax-ns#"
   xmlns:svg="http://www.w3.org/2000/svg"
   xmlns="http://www.w3.org/2000/svg"
   xmlns:sodipodi="http://sodipodi.sourceforge.net/DTD/sodipodi-0.dtd"
   xmlns:inkscape="http://www.inkscape.org/namespaces/inkscape"
   width="500"
   height="500"
   id="svg2"
   version="1.1"
   inkscape:version="0.91 r13725"
   sodipodi:docname="application-x-addon.svg">
  <defs
     id="defs4" />
  <sodipodi:namedview
     id="base"
     pagecolor="#ffffff"
     bordercolor="#666666"
     borderopacity="1.0"
     inkscape:pageopacity="0.0"
     inkscape:pageshadow="2"
     inkscape:zoom="0.60666664"
     inkscape:cx="485.2924"
     inkscape:cy="331.66832"
     inkscape:document-units="px"
     inkscape:current-layer="layer1"
     showgrid="false"
     inkscape:window-width="1366"
     inkscape:window-height="715"
     inkscape:window-x="0"
     inkscape:window-y="24"
     inkscape:window-maximized="1" />
  <metadata
     id="metadata7">
    <rdf:RDF>
      <cc:Work
         rdf:about="">
        <dc:format>image/svg+xml</dc:format>
        <dc:type
           rdf:resource="http://purl.org/dc/dcmitype/StillImage" />
        <dc:title />
      </cc:Work>
    </rdf:RDF>
  </metadata>
  <g
     inkscape:label="Layer 1"
     inkscape:groupmode="layer"
     id="layer1"
     transform="translate(0,-552.36218)">
    <g
       id="g4200">
      <path
         sodipodi:nodetypes="ccccc"
         inkscape:connector-curvature="0"
         id="path4230"
         d="M 63.03896,706.21226 116.261,758.31082 114.60095,685.26897 63,685.02387 Z"
         style="fill:#2ea629;fill-opacity:1;fill-rule:evenodd;stroke:none;stroke-width:1px;stroke-linecap:butt;stroke-linejoin:miter;stroke-opacity:1" />
      <path
         inkscape:connector-curvature="0"
         id="path3364"
         d="m 97.04097,1029.8357 336.88839,-1.1739 1.17377,-363.88644 -88.03697,-89.21086 -250.02519,0 z"
         style="fill:#f2f2f2;fill-rule:evenodd;stroke:#afafaf;stroke-width:5.03546047;stroke-linecap:butt;stroke-linejoin:miter;stroke-miterlimit:4;stroke-dasharray:none;stroke-opacity:1" />
      <path
         sodipodi:nodetypes="cccc"
         inkscape:connector-curvature="0"
         id="path4166"
         d="m 431.51909,662.9312 -82.16431,-0.58691 0.75853,-83.80351 z"
         style="fill:#afafaf;fill-opacity:1;fill-rule:evenodd;stroke:#afafaf;stroke-width:5.03546047;stroke-linecap:butt;stroke-linejoin:miter;stroke-miterlimit:4;stroke-dasharray:none;stroke-opacity:1" />
      <rect
         y="622.18756"
         x="63.139694"
         height="84.350876"
         width="273.88922"
         id="rect4228"
         style="fill:#45d03f;fill-opacity:1;stroke:none;stroke-width:5;stroke-miterlimit:4;stroke-dasharray:none;stroke-opacity:1" />
      <path
         sodipodi:nodetypes="cczzzccczccczzzccczccczzzccccccczzzcccccc"
         inkscape:connector-curvature="0"
         id="path3057"
         d="m 136.3658,914.3077 19.24968,0 c 0,0 8.66617,-15.66834 27.99947,-15.16637 19.33329,0.50198 26.86589,15.99137 26.83283,29.16617 -0.033,13.1748 -10.53547,27.7519 -27.99946,28.2911 -17.464,0.5393 -25.66621,-15.1664 -25.66621,-15.1664 l -20.41631,0 -0.29168,73.4986 c 0,0 0.49846,5.7533 2.04167,7.8749 1.54319,2.1216 6.41651,4.0832 6.41651,4.0832 l 77.29027,0 0,-18.6663 c 0,0 -14.53791,-8.34868 -14.87468,-25.3744 -0.33685,-17.0258 14.93498,-28.1645 27.99946,-28.5829 13.06447,-0.4183 28.19757,10.2532 29.16617,27.9996 0.96859,17.7463 -15.45804,26.541 -15.45804,26.541 l 0,18.6664 79.04026,-0.875 c 0,0 4.16677,-2.149 5.54156,-4.3749 1.37477,-2.226 1.74998,-8.4582 1.74998,-8.4582 l 0,-72.332 13.41638,-0.2916 c 0,0 7.28795,15.8185 25.37452,15.1664 18.08664,-0.6521 27.32749,-14.0081 27.99954,-27.4162 0.67204,-13.4081 -10.61212,-29.96142 -27.99954,-29.74946 -17.38742,0.21196 -25.37452,15.45806 -25.37452,15.45806 l -13.70806,-0.2917 0,-76.70693 -3.49997,-6.41655 -5.83323,-2.91661 -76.41525,0.87498 0.29161,-13.70809 c 0,0 14.05659,-7.25139 14.87476,-24.49956 0.81817,-17.24816 -15.20659,-29.83445 -28.58282,-29.74946 -13.3763,0.085 -28.39009,10.1008 -28.58281,27.70783 -0.1928,17.60704 15.16636,26.83285 15.16636,26.83285 l 0,13.12477 -75.54029,0 -7.29154,2.91661 -3.49997,7.87486 z"
         style="fill:#45d03f;fill-opacity:1;stroke:none" />
      <g
         id="flowRoot4158"
         style="font-style:normal;font-weight:normal;font-size:40px;line-height:125%;font-family:sans-serif;letter-spacing:0px;word-spacing:0px;fill:#ffffff;fill-opacity:1;stroke:none;stroke-width:1px;stroke-linecap:butt;stroke-linejoin:miter;stroke-opacity:1"
         transform="matrix(1.0627668,0,0,1.0627668,364.80353,337.26782)">
        <path
           inkscape:connector-curvature="0"
           id="path4167"
           style="font-style:normal;font-variant:normal;font-weight:bold;font-stretch:normal;font-size:60px;font-family:sans-serif;-inkscape-font-specification:'sans-serif Bold';fill:#ffffff"
           d="m -246.51758,319.88893 -17.63672,0 -2.7832,7.96875 -11.33789,0 16.20117,-43.74023 13.44727,0 16.20117,43.74023 -11.33789,0 -2.75391,-7.96875 z m -14.82422,-8.11523 11.98243,0 -5.97657,-17.40234 -6.00586,17.40234 z" />
        <path
           inkscape:connector-curvature="0"
           id="path4169"
           style="font-style:normal;font-variant:normal;font-weight:bold;font-stretch:normal;font-size:60px;font-family:sans-serif;-inkscape-font-specification:'sans-serif Bold';fill:#ffffff"
           d="m -215.375,292.64284 0,26.68945 4.04297,0 q 6.91406,0 10.54687,-3.42773 3.66211,-3.42774 3.66211,-9.96094 0,-6.5039 -3.63281,-9.90234 -3.63281,-3.39844 -10.57617,-3.39844 l -4.04297,0 z m -11.2793,-8.52539 11.89453,0 q 9.96094,0 14.82422,1.43555 4.89258,1.40625 8.37891,4.80468 3.07617,2.95899 4.57031,6.82618 1.49414,3.86718 1.49414,8.75976 0,4.95117 -1.49414,8.84766 -1.49414,3.86719 -4.57031,6.82617 -3.51563,3.39844 -8.4375,4.83398 -4.92188,1.40625 -14.76563,1.40625 l -11.89453,0 0,-43.74023 z" />
        <path
           inkscape:connector-curvature="0"
           id="path4171"
           style="font-style:normal;font-variant:normal;font-weight:bold;font-stretch:normal;font-size:60px;font-family:sans-serif;-inkscape-font-specification:'sans-serif Bold';fill:#ffffff"
           d="m -165.57031,292.64284 0,26.68945 4.04297,0 q 6.91406,0 10.54687,-3.42773 3.66211,-3.42774 3.66211,-9.96094 0,-6.5039 -3.63281,-9.90234 -3.63281,-3.39844 -10.57617,-3.39844 l -4.04297,0 z m -11.2793,-8.52539 11.89453,0 q 9.96094,0 14.82422,1.43555 4.89258,1.40625 8.37891,4.80468 3.07617,2.95899 4.57031,6.82618 1.49414,3.86718 1.49414,8.75976 0,4.95117 -1.49414,8.84766 -1.49414,3.86719 -4.57031,6.82617 -3.51563,3.39844 -8.4375,4.83398 -4.92188,1.40625 -14.76563,1.40625 l -11.89453,0 0,-43.74023 z" />
        <path
           inkscape:connector-curvature="0"
           id="path4173"
           style="font-style:normal;font-variant:normal;font-weight:bold;font-stretch:normal;font-size:60px;font-family:sans-serif;-inkscape-font-specification:'sans-serif Bold';fill:#ffffff"
           d="m -107.06445,291.50026 q -5.15625,0 -7.99805,3.8086 -2.8418,3.80859 -2.8418,10.72265 0,6.88477 2.8418,10.69336 2.8418,3.8086 7.99805,3.8086 5.18554,0 8.027341,-3.8086 2.841797,-3.80859 2.841797,-10.69336 0,-6.91406 -2.841797,-10.72265 -2.841801,-3.8086 -8.027341,-3.8086 z m 0,-8.17383 q 10.546872,0 16.523434,6.03516 5.976563,6.03516 5.976563,16.66992 0,10.60547 -5.976563,16.64063 -5.976562,6.03515 -16.523434,6.03515 -10.51758,0 -16.52344,-6.03515 -5.97656,-6.03516 -5.97656,-16.64063 0,-10.63476 5.97656,-16.66992 6.00586,-6.03516 16.52344,-6.03516 z" />
        <path
           inkscape:connector-curvature="0"
           id="path4175"
           style="font-style:normal;font-variant:normal;font-weight:bold;font-stretch:normal;font-size:60px;font-family:sans-serif;-inkscape-font-specification:'sans-serif Bold';fill:#ffffff"
           d="m -76.068359,284.11745 12.597656,0 15.908203,30 0,-30 10.693359,0 0,43.74023 -12.597656,0 -15.908203,-30 0,30 -10.693359,0 0,-43.74023 z" />
      </g>
    </g>
  </g>
</svg>
