<?xml version="1.0" encoding="UTF-8" standalone="no"?>
<!-- Created with Inkscape (http://www.inkscape.org/) -->

<svg
   xmlns:dc="http://purl.org/dc/elements/1.1/"
   xmlns:cc="http://creativecommons.org/ns#"
   xmlns:rdf="http://www.w3.org/1999/02/22-rdf-syntax-ns#"
   xmlns:svg="http://www.w3.org/2000/svg"
   xmlns="http://www.w3.org/2000/svg"
   xmlns:sodipodi="http://sodipodi.sourceforge.net/DTD/sodipodi-0.dtd"
   xmlns:inkscape="http://www.inkscape.org/namespaces/inkscape"
   width="500"
   height="500"
   id="svg2"
   version="1.1"
   inkscape:version="0.91 r13725"
   sodipodi:docname="application-rtf.svg">
  <defs
     id="defs4" />
  <sodipodi:namedview
     id="base"
     pagecolor="#ffffff"
     bordercolor="#666666"
     borderopacity="1.0"
     inkscape:pageopacity="0.0"
     inkscape:pageshadow="2"
     inkscape:zoom="0.30333332"
     inkscape:cx="810.08637"
     inkscape:cy="548.74351"
     inkscape:document-units="px"
     inkscape:current-layer="layer1"
     showgrid="false"
     inkscape:window-width="1366"
     inkscape:window-height="715"
     inkscape:window-x="0"
     inkscape:window-y="24"
     inkscape:window-maximized="1" />
  <metadata
     id="metadata7">
    <rdf:RDF>
      <cc:Work
         rdf:about="">
        <dc:format>image/svg+xml</dc:format>
        <dc:type
           rdf:resource="http://purl.org/dc/dcmitype/StillImage" />
        <dc:title />
      </cc:Work>
    </rdf:RDF>
  </metadata>
  <g
     inkscape:label="Layer 1"
     inkscape:groupmode="layer"
     id="layer1"
     transform="translate(0,-552.36218)">
    <g
       id="g4164">
      <path
         sodipodi:nodetypes="ccccc"
         inkscape:connector-curvature="0"
         id="path4230"
         d="M 63.03896,706.21224 116.261,758.3108 114.60095,685.26895 63,685.02385 Z"
         style="fill:#1d2129;fill-rule:evenodd;stroke:none;stroke-width:1px;stroke-linecap:butt;stroke-linejoin:miter;stroke-opacity:1;fill-opacity:1" />
      <path
         inkscape:connector-curvature="0"
         id="path3364"
         d="m 97.04097,1029.8357 336.88839,-1.1739 1.17377,-363.88646 -88.03697,-89.21086 -250.02519,0 z"
         style="fill:#f2f2f2;fill-rule:evenodd;stroke:#afafaf;stroke-width:5.03546047;stroke-linecap:butt;stroke-linejoin:miter;stroke-miterlimit:4;stroke-dasharray:none;stroke-opacity:1" />
      <path
         sodipodi:nodetypes="cccc"
         inkscape:connector-curvature="0"
         id="path4166"
         d="m 431.51909,662.93118 -82.16431,-0.58691 0.75853,-83.80351 z"
         style="fill:#afafaf;fill-opacity:1;fill-rule:evenodd;stroke:#afafaf;stroke-width:5.03546047;stroke-linecap:butt;stroke-linejoin:miter;stroke-miterlimit:4;stroke-dasharray:none;stroke-opacity:1" />
      <rect
         y="622.18732"
         x="63.139656"
         height="84.350876"
         width="224.93568"
         id="rect4228"
         style="fill:#394050;fill-opacity:1;stroke:none;stroke-width:5;stroke-miterlimit:4;stroke-dasharray:none;stroke-opacity:1" />
      <rect
         y="881.03656"
         x="115.91528"
         height="12.142574"
         width="297.32489"
         id="rect2990-3"
         style="fill:#394050;fill-opacity:1;stroke:none" />
      <rect
         y="933.61615"
         x="117.08083"
         height="12.142574"
         width="297.77072"
         id="rect2990-3-7"
         style="fill:#394050;fill-opacity:1;stroke:none" />
      <rect
         y="987.84167"
         x="117.08083"
         height="12.142574"
         width="203.88005"
         id="rect2990-3-35"
         style="fill:#394050;fill-opacity:1;stroke:none" />
      <rect
         y="776.39893"
         x="113.94858"
         height="12.142574"
         width="297.32489"
         id="rect2990-3-2"
         style="fill:#394050;fill-opacity:1;stroke:none" />
      <rect
         y="828.97852"
         x="115.11412"
         height="12.142574"
         width="297.77072"
         id="rect2990-3-7-2"
         style="fill:#394050;fill-opacity:1;stroke:none" />
      <g
         id="flowRoot4149"
         style="font-style:normal;font-weight:normal;font-size:40px;line-height:125%;font-family:sans-serif;letter-spacing:0px;word-spacing:0px;fill:#ffffff;fill-opacity:1;stroke:none;stroke-width:1px;stroke-linecap:butt;stroke-linejoin:miter;stroke-opacity:1"
         transform="translate(376.14498,363.54135)">
        <path
           inkscape:connector-curvature="0"
           id="path4158"
           style="font-style:normal;font-variant:normal;font-weight:bold;font-stretch:normal;font-size:80px;font-family:sans-serif;-inkscape-font-specification:'sans-serif Bold';fill:#ffffff"
           d="m -247.52734,296.68329 q 4.72656,0 6.75781,-1.75781 2.07031,-1.75781 2.07031,-5.78125 0,-3.98438 -2.07031,-5.70313 -2.03125,-1.71875 -6.75781,-1.71875 l -6.32813,0 0,14.96094 6.32813,0 z m -6.32813,10.39063 0,22.07031 -15.03906,0 0,-58.32031 22.96875,0 q 11.52344,0 16.875,3.86718 5.39062,3.86719 5.39062,12.22657 0,5.78125 -2.8125,9.49218 -2.77343,3.71094 -8.39843,5.46875 3.08593,0.70313 5.50781,3.20313 2.46094,2.46094 4.96094,7.5 l 8.16406,16.5625 -16.01563,0 -7.10937,-14.49219 q -2.14844,-4.375 -4.375,-5.97656 -2.1875,-1.60156 -5.85938,-1.60156 l -4.25781,0 z" />
        <path
           inkscape:connector-curvature="0"
           id="path4160"
           style="font-style:normal;font-variant:normal;font-weight:bold;font-stretch:normal;font-size:80px;font-family:sans-serif;-inkscape-font-specification:'sans-serif Bold';fill:#ffffff"
           d="m -217.87891,270.82392 53.75,0 0,11.36718 -19.33593,0 0,46.95313 -15.03907,0 0,-46.95313 -19.375,0 0,-11.36718 z" />
        <path
           inkscape:connector-curvature="0"
           id="path4162"
           style="font-style:normal;font-variant:normal;font-weight:bold;font-stretch:normal;font-size:80px;font-family:sans-serif;-inkscape-font-specification:'sans-serif Bold';fill:#ffffff"
           d="m -163.34766,270.82392 15.11719,0 15.46875,43.04687 15.42969,-43.04687 15.11719,0 -21.60157,58.32031 -17.92968,0 -21.60157,-58.32031 z" />
      </g>
    </g>
  </g>
</svg>
