<?xml version="1.0" encoding="UTF-8" standalone="no"?>
<!-- Created with Inkscape (http://www.inkscape.org/) -->

<svg
   xmlns:dc="http://purl.org/dc/elements/1.1/"
   xmlns:cc="http://creativecommons.org/ns#"
   xmlns:rdf="http://www.w3.org/1999/02/22-rdf-syntax-ns#"
   xmlns:svg="http://www.w3.org/2000/svg"
   xmlns="http://www.w3.org/2000/svg"
   xmlns:sodipodi="http://sodipodi.sourceforge.net/DTD/sodipodi-0.dtd"
   xmlns:inkscape="http://www.inkscape.org/namespaces/inkscape"
   width="500"
   height="500"
   id="svg2"
   version="1.1"
   inkscape:version="0.91 r13725"
   sodipodi:docname="application-vnd.ms-excel.svg">
  <defs
     id="defs4" />
  <sodipodi:namedview
     id="base"
     pagecolor="#ffffff"
     bordercolor="#666666"
     borderopacity="1.0"
     inkscape:pageopacity="0.0"
     inkscape:pageshadow="2"
     inkscape:zoom="0.60666664"
     inkscape:cx="-67.115873"
     inkscape:cy="213.49605"
     inkscape:document-units="px"
     inkscape:current-layer="layer1"
     showgrid="false"
     inkscape:window-width="1366"
     inkscape:window-height="715"
     inkscape:window-x="0"
     inkscape:window-y="24"
     inkscape:window-maximized="1" />
  <metadata
     id="metadata7">
    <rdf:RDF>
      <cc:Work
         rdf:about="">
        <dc:format>image/svg+xml</dc:format>
        <dc:type
           rdf:resource="http://purl.org/dc/dcmitype/StillImage" />
        <dc:title />
      </cc:Work>
    </rdf:RDF>
  </metadata>
  <g
     inkscape:label="Layer 1"
     inkscape:groupmode="layer"
     id="layer1"
     transform="translate(0,-552.36218)">
    <g
       id="g4191">
      <path
         sodipodi:nodetypes="ccccc"
         inkscape:connector-curvature="0"
         id="path4230"
         d="M 63.03896,706.21204 116.26101,758.3106 114.60096,685.26875 63,685.02365 Z"
         style="fill:#299826;fill-opacity:1;fill-rule:evenodd;stroke:none;stroke-width:1px;stroke-linecap:butt;stroke-linejoin:miter;stroke-opacity:1" />
      <path
         inkscape:connector-curvature="0"
         id="path3364"
         d="m 97.04098,1029.8357 336.88838,-1.1739 1.17377,-363.88666 -88.03697,-89.21086 -250.02518,0 z"
         style="fill:#f2f2f2;fill-rule:evenodd;stroke:#afafaf;stroke-width:5.03546047;stroke-linecap:butt;stroke-linejoin:miter;stroke-miterlimit:4;stroke-dasharray:none;stroke-opacity:1" />
      <path
         sodipodi:nodetypes="cccc"
         inkscape:connector-curvature="0"
         id="path4166"
         d="m 431.51909,662.93098 -82.16431,-0.58691 0.75853,-83.80351 z"
         style="fill:#afafaf;fill-opacity:1;fill-rule:evenodd;stroke:#afafaf;stroke-width:5.03546047;stroke-linecap:butt;stroke-linejoin:miter;stroke-miterlimit:4;stroke-dasharray:none;stroke-opacity:1" />
      <rect
         y="622.18713"
         x="63.139687"
         height="84.350876"
         width="225.96988"
         id="rect4228"
         style="fill:#45d03f;fill-opacity:1;stroke:none;stroke-width:5;stroke-miterlimit:4;stroke-dasharray:none;stroke-opacity:1" />
      <g
         id="g4235">
        <rect
           style="fill:#e6e6e6;fill-opacity:1;stroke:#45d03f;stroke-width:10.27064514;stroke-linecap:butt;stroke-linejoin:round;stroke-miterlimit:4;stroke-dasharray:none;stroke-opacity:1"
           id="rect4192"
           width="172.76912"
           height="199.35089"
           x="223.33183"
           y="796.21863" />
        <rect
           style="fill:#45d03f;fill-opacity:1;stroke:none;stroke-width:8.59799957;stroke-linecap:butt;stroke-linejoin:round;stroke-miterlimit:4;stroke-dasharray:none;stroke-opacity:1"
           id="rect4194-51-9"
           width="106.16345"
           height="21.120604"
           x="266.69852"
           y="820.09857" />
        <rect
           style="fill:#45d03f;fill-opacity:1;stroke:none;stroke-width:8.59799957;stroke-linecap:butt;stroke-linejoin:round;stroke-miterlimit:4;stroke-dasharray:none;stroke-opacity:1"
           id="rect4194-51"
           width="106.16345"
           height="21.120604"
           x="265.7258"
           y="950.56372" />
        <rect
           style="fill:#45d03f;fill-opacity:1;stroke:none;stroke-width:8.59799957;stroke-linecap:butt;stroke-linejoin:round;stroke-miterlimit:4;stroke-dasharray:none;stroke-opacity:1"
           id="rect4194-51-7"
           width="106.16345"
           height="21.120604"
           x="265.87433"
           y="918.17554" />
        <g
           id="g4315"
           style="fill:#45d03f;fill-opacity:1">
          <rect
             y="885.74316"
             x="267.44843"
             height="21.120604"
             width="106.16345"
             id="rect4194-51-8"
             style="fill:#45d03f;fill-opacity:1;stroke:none;stroke-width:8.59799957;stroke-linecap:butt;stroke-linejoin:round;stroke-miterlimit:4;stroke-dasharray:none;stroke-opacity:1" />
          <rect
             y="853.35498"
             x="267.59695"
             height="21.120604"
             width="106.16345"
             id="rect4194-51-7-0"
             style="fill:#45d03f;fill-opacity:1;stroke:none;stroke-width:8.59799957;stroke-linecap:butt;stroke-linejoin:round;stroke-miterlimit:4;stroke-dasharray:none;stroke-opacity:1" />
        </g>
        <rect
           style="fill:#1a1a1a;fill-opacity:0.39207076;stroke:none;stroke-width:8.59799957;stroke-linecap:butt;stroke-linejoin:round;stroke-miterlimit:4;stroke-dasharray:none;stroke-opacity:1"
           id="rect4244"
           width="61.039627"
           height="209.29285"
           x="251.52184"
           y="791.56708" />
        <path
           style="fill:#45d03f;fill-opacity:1;fill-rule:evenodd;stroke:none;stroke-width:1px;stroke-linecap:butt;stroke-linejoin:miter;stroke-opacity:1"
           d="m 284.53851,760.30159 -158.30223,30.4763 0.28836,202.8526 157.52162,31.01211 z"
           id="path3390-3"
           inkscape:connector-curvature="0"
           sodipodi:nodetypes="ccccc" />
        <rect
           style="fill:#e6e6e6;fill-opacity:1;stroke:none;stroke-width:8.59799957;stroke-linecap:butt;stroke-linejoin:round;stroke-miterlimit:4;stroke-dasharray:none;stroke-opacity:1"
           id="rect4194-8"
           width="160.53528"
           height="12.87895"
           x="812.91486"
           y="-333.27847"
           transform="matrix(-0.00236116,0.99999721,-0.99998543,-0.00539902,0,0)" />
        <path
           style="fill:#ffffff;fill-opacity:1;fill-rule:evenodd;stroke:none;stroke-width:1px;stroke-linecap:butt;stroke-linejoin:miter;stroke-opacity:1"
           d="m 220.98004,948.40982 26.21887,2.01682 -29.61565,-55.72832 29.0849,-54.98529 -24.73278,1.59224 -17.19617,41.6105 -15.17934,-39.16907 -23.24668,1.48609 24.52048,49.89013 -26.40667,49.34924 22.51765,1.95153 16.9633,-39.93129 z"
           id="path4345"
           inkscape:connector-curvature="0" />
      </g>
      <g
         id="flowRoot4176"
         style="font-style:normal;font-weight:normal;font-size:40px;line-height:125%;font-family:sans-serif;letter-spacing:0px;word-spacing:0px;fill:#ffffff;fill-opacity:1;stroke:none;stroke-width:1px;stroke-linecap:butt;stroke-linejoin:miter;stroke-opacity:1"
         transform="translate(485.45057,490.07646)">
        <path
           inkscape:connector-curvature="0"
           id="path4185"
           style="font-style:normal;font-variant:normal;font-weight:bold;font-stretch:normal;font-size:80px;font-family:sans-serif;-inkscape-font-specification:'sans-serif Bold';fill:#ffffff"
           d="m -350.81641,172.50165 20.23438,29.76563 -15.66406,0 -13.63282,-19.92188 -13.51562,19.92188 -15.74219,0 20.23438,-29.76563 -19.45313,-28.55469 15.70313,0 12.77343,18.78907 12.73438,-18.78907 15.78125,0 -19.45313,28.55469 z" />
        <path
           inkscape:connector-curvature="0"
           id="path4187"
           style="font-style:normal;font-variant:normal;font-weight:bold;font-stretch:normal;font-size:80px;font-family:sans-serif;-inkscape-font-specification:'sans-serif Bold';fill:#ffffff"
           d="m -321.59766,143.94696 15.03907,0 0,46.95313 26.40625,0 0,11.36719 -41.44532,0 0,-58.32032 z" />
        <path
           inkscape:connector-curvature="0"
           id="path4189"
           style="font-style:normal;font-variant:normal;font-weight:bold;font-stretch:normal;font-size:80px;font-family:sans-serif;-inkscape-font-specification:'sans-serif Bold';fill:#ffffff"
           d="m -230.07422,145.7829 0,12.34375 q -4.80469,-2.14844 -9.375,-3.24219 -4.57031,-1.09375 -8.63281,-1.09375 -5.39063,0 -7.96875,1.48438 -2.57813,1.48437 -2.57813,4.60937 0,2.34375 1.71875,3.67188 1.75782,1.28906 6.32813,2.22656 l 6.40625,1.28906 q 9.72656,1.95313 13.82812,5.9375 4.10157,3.98438 4.10157,11.32813 0,9.64844 -5.74219,14.375 -5.70313,4.6875 -17.46094,4.6875 -5.54687,0 -11.13281,-1.05469 -5.58594,-1.05469 -11.17188,-3.125 l 0,-12.69531 q 5.58594,2.96875 10.78125,4.49219 5.23438,1.48437 10.07813,1.48437 4.92187,0 7.53906,-1.64062 2.61719,-1.64063 2.61719,-4.6875 0,-2.73438 -1.79688,-4.21875 -1.75781,-1.48438 -7.07031,-2.65625 l -5.82031,-1.28907 q -8.75,-1.875 -12.8125,-5.97656 -4.02344,-4.10156 -4.02344,-11.05469 0,-8.71093 5.625,-13.39843 5.625,-4.6875 16.17188,-4.6875 4.80468,0 9.88281,0.74218 5.07812,0.70313 10.50781,2.14844 z" />
      </g>
    </g>
  </g>
</svg>
