<?xml version="1.0" encoding="UTF-8" standalone="no"?>
<!-- Created with Inkscape (http://www.inkscape.org/) -->

<svg
   xmlns:dc="http://purl.org/dc/elements/1.1/"
   xmlns:cc="http://creativecommons.org/ns#"
   xmlns:rdf="http://www.w3.org/1999/02/22-rdf-syntax-ns#"
   xmlns:svg="http://www.w3.org/2000/svg"
   xmlns="http://www.w3.org/2000/svg"
   xmlns:sodipodi="http://sodipodi.sourceforge.net/DTD/sodipodi-0.dtd"
   xmlns:inkscape="http://www.inkscape.org/namespaces/inkscape"
   width="500"
   height="500"
   id="svg2"
   version="1.1"
   inkscape:version="0.91 r13725"
   sodipodi:docname="application-vnd.stardivision.calc.svg">
  <defs
     id="defs4" />
  <sodipodi:namedview
     id="base"
     pagecolor="#ffffff"
     bordercolor="#666666"
     borderopacity="1.0"
     inkscape:pageopacity="0.0"
     inkscape:pageshadow="2"
     inkscape:zoom="0.8579562"
     inkscape:cx="404.471"
     inkscape:cy="249.45629"
     inkscape:document-units="px"
     inkscape:current-layer="layer1"
     showgrid="false"
     inkscape:window-width="1366"
     inkscape:window-height="715"
     inkscape:window-x="0"
     inkscape:window-y="24"
     inkscape:window-maximized="1" />
  <metadata
     id="metadata7">
    <rdf:RDF>
      <cc:Work
         rdf:about="">
        <dc:format>image/svg+xml</dc:format>
        <dc:type
           rdf:resource="http://purl.org/dc/dcmitype/StillImage" />
        <dc:title />
      </cc:Work>
    </rdf:RDF>
  </metadata>
  <g
     inkscape:label="Layer 1"
     inkscape:groupmode="layer"
     id="layer1"
     transform="translate(0,-552.36218)">
    <g
       id="g3445">
      <path
         sodipodi:nodetypes="ccccc"
         inkscape:connector-curvature="0"
         id="path4230"
         d="M 63.03896,706.21226 116.261,758.31082 114.60095,685.26897 63,685.02387 Z"
         style="fill:#2a9a25;fill-opacity:1;fill-rule:evenodd;stroke:none;stroke-width:1px;stroke-linecap:butt;stroke-linejoin:miter;stroke-opacity:1" />
      <path
         inkscape:connector-curvature="0"
         id="path3364"
         d="m 97.04097,1029.8357 336.88839,-1.1739 1.17377,-363.88644 -88.03697,-89.21086 -250.02519,0 z"
         style="fill:#f2f2f2;fill-rule:evenodd;stroke:#afafaf;stroke-width:5.03546047;stroke-linecap:butt;stroke-linejoin:miter;stroke-miterlimit:4;stroke-dasharray:none;stroke-opacity:1" />
      <path
         sodipodi:nodetypes="cccc"
         inkscape:connector-curvature="0"
         id="path4166"
         d="m 431.51909,662.9312 -82.16431,-0.58691 0.75853,-83.80351 z"
         style="fill:#afafaf;fill-opacity:1;fill-rule:evenodd;stroke:#afafaf;stroke-width:5.03546047;stroke-linecap:butt;stroke-linejoin:miter;stroke-miterlimit:4;stroke-dasharray:none;stroke-opacity:1" />
      <rect
         y="622.18756"
         x="63.139694"
         height="84.350876"
         width="224.93568"
         id="rect4228"
         style="fill:#45d03f;fill-opacity:1;stroke:none;stroke-width:5;stroke-miterlimit:4;stroke-dasharray:none;stroke-opacity:1" />
      <g
         id="g4211">
        <rect
           style="fill:#45d03f;fill-opacity:1;stroke:none"
           id="rect3932"
           width="255.30547"
           height="205.64311"
           x="143.00667"
           y="800.62091" />
        <rect
           style="fill:#f2f2f2;fill-opacity:1;stroke:none"
           id="rect3771"
           width="53.937923"
           height="24.963709"
           x="150.12352"
           y="806.4671" />
        <rect
           style="fill:#f2f2f2;fill-opacity:1;stroke:none"
           id="rect3771-7"
           width="53.937923"
           height="24.963709"
           x="212.35959"
           y="806.4671" />
        <rect
           style="fill:#f2f2f2;fill-opacity:1;stroke:none"
           id="rect3771-7-5"
           width="53.937923"
           height="24.963709"
           x="274.59564"
           y="806.4671" />
        <rect
           style="fill:#f2f2f2;fill-opacity:1;stroke:none"
           id="rect3771-7-5-3"
           width="53.937923"
           height="24.963709"
           x="336.8317"
           y="806.4671" />
        <rect
           style="fill:#f2f2f2;fill-opacity:1;stroke:none"
           id="rect3771-5"
           width="53.937923"
           height="24.963709"
           x="150.12352"
           y="839.77661" />
        <rect
           style="fill:#f2f2f2;fill-opacity:1;stroke:none"
           id="rect3771-7-6"
           width="53.937923"
           height="24.963709"
           x="212.35959"
           y="839.77661" />
        <rect
           style="fill:#f2f2f2;fill-opacity:1;stroke:none"
           id="rect3771-7-5-2"
           width="53.937923"
           height="24.963709"
           x="274.59564"
           y="839.77661" />
        <rect
           style="fill:#f2f2f2;fill-opacity:1;stroke:none"
           id="rect3771-7-5-3-9"
           width="53.937923"
           height="24.963709"
           x="336.83176"
           y="839.77661" />
        <rect
           style="fill:#f2f2f2;fill-opacity:1;stroke:none"
           id="rect3771-1"
           width="53.937923"
           height="24.963709"
           x="150.12352"
           y="872.84387" />
        <rect
           style="fill:#f2f2f2;fill-opacity:1;stroke:none"
           id="rect3771-7-2"
           width="53.937923"
           height="24.963709"
           x="212.35959"
           y="872.84387" />
        <rect
           style="fill:#f2f2f2;fill-opacity:1;stroke:none"
           id="rect3771-7-5-7"
           width="53.937923"
           height="24.963709"
           x="274.59564"
           y="872.84387" />
        <rect
           style="fill:#f2f2f2;fill-opacity:1;stroke:none"
           id="rect3771-7-5-3-0"
           width="53.937923"
           height="24.963709"
           x="336.8317"
           y="872.84387" />
        <rect
           style="fill:#f2f2f2;fill-opacity:1;stroke:none"
           id="rect3771-5-9"
           width="53.937923"
           height="24.963709"
           x="150.12352"
           y="906.15332" />
        <rect
           style="fill:#f2f2f2;fill-opacity:1;stroke:none"
           id="rect3771-7-6-3"
           width="53.937923"
           height="24.963709"
           x="212.35959"
           y="906.15332" />
        <rect
           style="fill:#f2f2f2;fill-opacity:1;stroke:none"
           id="rect3771-7-5-2-6"
           width="53.937923"
           height="24.963709"
           x="274.5957"
           y="906.15332" />
        <rect
           style="fill:#f2f2f2;fill-opacity:1;stroke:none"
           id="rect3771-7-5-3-9-0"
           width="53.937923"
           height="24.963709"
           x="336.83176"
           y="906.15332" />
        <rect
           style="fill:#f2f2f2;fill-opacity:1;stroke:none"
           id="rect3771-6"
           width="53.937923"
           height="24.963709"
           x="150.65662"
           y="939.68353" />
        <rect
           style="fill:#f2f2f2;fill-opacity:1;stroke:none"
           id="rect3771-7-26"
           width="53.937923"
           height="24.963709"
           x="212.89267"
           y="939.68353" />
        <rect
           style="fill:#aade87;fill-opacity:1;stroke:none"
           id="rect3771-7-5-1"
           width="53.937923"
           height="24.963709"
           x="275.12872"
           y="939.68353" />
        <rect
           style="fill:#aade87;fill-opacity:1;stroke:none"
           id="rect3771-7-5-3-8"
           width="53.937923"
           height="24.963709"
           x="337.36484"
           y="939.68353" />
        <rect
           style="fill:#f2f2f2;fill-opacity:1;stroke:none"
           id="rect3771-5-7"
           width="53.937923"
           height="24.963709"
           x="150.65662"
           y="972.99304" />
        <rect
           style="fill:#f2f2f2;fill-opacity:1;stroke:none"
           id="rect3771-7-6-9"
           width="53.937923"
           height="24.963709"
           x="212.89267"
           y="972.99304" />
        <rect
           style="fill:#aade87;fill-opacity:1;stroke:none"
           id="rect3771-7-5-2-2"
           width="53.937923"
           height="24.963709"
           x="275.12878"
           y="972.99304" />
        <rect
           style="fill:#aade87;fill-opacity:1;stroke:none"
           id="rect3771-7-5-3-9-02"
           width="53.937923"
           height="24.963709"
           x="337.36484"
           y="972.99304" />
        <rect
           style="fill:#45d03f;fill-opacity:1;stroke:none"
           id="rect3003"
           width="103.457"
           height="152.84323"
           x="921.57404"
           y="-418.00665"
           ry="12.086035"
           rx="8.5464478"
           transform="matrix(0,1,-1,0,0,0)" />
        <path
           style="fill:#ffffff;stroke:none"
           d="m 412.49336,926.55943 c -1.12578,-0.73665 -2.6122,-0.61913 -2.6122,-0.61913 l -127.23388,0.0217 -9.32785,10e-4 c 0,0 -1.45891,-0.0483 -2.21965,0.49666 -0.76073,0.54505 -0.83209,1.84277 -0.83209,1.84277 l 0.006,89.88597 c 0,0 -0.10278,1.5056 0.63439,2.1828 0.73715,0.6773 2.37561,0.618 2.37561,0.618 l 132.56704,-0.034 c 0,0 3.62686,0.3558 5.73997,-1.3817 2.1131,-1.7375 1.59275,-4.8452 1.59275,-4.8452 l 0.25492,-86.21286 c 0,0 0.18028,-1.2196 -0.9454,-1.95623 z"
           id="path3773"
           inkscape:connector-curvature="0"
           sodipodi:nodetypes="cccczcczcczcczc" />
        <path
           style="fill:#ffcc00"
           d="m 347.04359,1004.6969 -11.36238,0 c -1.56872,0 -2.84075,-1.2721 -2.84075,-2.8408 l 0,-45.44985 c 0,-1.56872 1.27203,-2.84075 2.84075,-2.84075 l 11.36238,0 c 1.56872,0 2.84075,1.27203 2.84075,2.84075 l 0,45.44985 c 0,1.5687 -1.27203,2.8408 -2.84075,2.8408 z"
           id="path17"
           inkscape:connector-curvature="0" />
        <path
           style="fill:#f03916;fill-opacity:1"
           d="m 321.47808,1004.6969 -11.36238,0 c -1.56872,0 -2.84075,-1.2721 -2.84075,-2.8408 l 0,-31.24671 c 0,-1.56872 1.27203,-2.84076 2.84075,-2.84076 l 11.36238,0 c 1.56872,0 2.84075,1.27204 2.84075,2.84076 l 0,31.24671 c 0,1.5687 -1.27203,2.8408 -2.84075,2.8408 z"
           id="path21"
           inkscape:connector-curvature="0" />
        <path
           style="fill:#004455"
           d="m 295.91257,1004.6969 -11.36237,0 c -1.56872,0 -2.84076,-1.2721 -2.84076,-2.8408 l 0,-17.0439 c 0,-1.56872 1.27204,-2.84075 2.84076,-2.84075 l 11.36237,0 c 1.56872,0 2.84076,1.27203 2.84076,2.84075 l 0,17.0439 c -3.2e-4,1.5687 -1.27204,2.8408 -2.84076,2.8408 z"
           id="path25"
           inkscape:connector-curvature="0" />
        <path
           style="fill:#45d03f;fill-opacity:1"
           d="m 372.60909,1004.6969 -11.36237,0 c -1.56872,0 -2.84076,-1.2721 -2.84076,-2.8408 l 0,-31.24671 c 0,-1.56872 1.27204,-2.84076 2.84076,-2.84076 l 11.36237,0 c 1.56872,0 2.84076,1.27204 2.84076,2.84076 l 0,31.24671 c 0,1.5687 -1.27204,2.8408 -2.84076,2.8408 z"
           id="path29"
           inkscape:connector-curvature="0" />
        <path
           style="fill:#00bbf2;fill-opacity:1"
           d="m 398.17491,1004.6969 -11.36237,0 c -1.56872,0 -2.84075,-1.2721 -2.84075,-2.8408 l 0,-62.49374 c 0,-1.56872 1.27203,-2.84075 2.84075,-2.84075 l 11.36237,0 c 1.56873,0 2.84076,1.27203 2.84076,2.84075 l 0,62.49374 c -3.2e-4,1.5687 -1.27203,2.8408 -2.84076,2.8408 z"
           id="path33"
           inkscape:connector-curvature="0" />
        <path
           style="fill:#394050"
           d="m 406.69654,1007.537 -130.66828,0 c -1.56872,0 -2.84076,-1.2721 -2.84076,-2.8408 l 0,0 c 0,-1.5687 1.27204,-2.8407 2.84076,-2.8407 l 130.6686,0 c 1.56872,0 2.84075,1.272 2.84075,2.8407 l 0,0 c -3.2e-4,1.5694 -1.27203,2.8408 -2.84107,2.8408 z"
           id="path37"
           inkscape:connector-curvature="0" />
      </g>
      <g
         id="flowRoot3418"
         style="font-style:normal;font-weight:normal;font-size:40px;line-height:125%;font-family:sans-serif;letter-spacing:0px;word-spacing:0px;fill:#ffffff;fill-opacity:1;stroke:none;stroke-width:1px;stroke-linecap:butt;stroke-linejoin:miter;stroke-opacity:1"
         transform="translate(2.3311213,538.37545)">
        <path
           inkscape:connector-curvature="0"
           id="path3427"
           style="font-style:normal;font-variant:normal;font-weight:bold;font-stretch:normal;font-size:80px;font-family:sans-serif;-inkscape-font-specification:'sans-serif Bold';fill:#ffffff"
           d="m 143.50586,98.991886 0,12.343754 q -4.80469,-2.14844 -9.375,-3.24219 -4.57031,-1.09375 -8.63281,-1.09375 -5.39063,0 -7.96875,1.48437 -2.57813,1.48438 -2.57813,4.60938 0,2.34375 1.71875,3.67187 1.75781,1.28907 6.32813,2.22657 l 6.40625,1.28906 q 9.72656,1.95312 13.82812,5.9375 4.10156,3.98437 4.10156,11.32812 0,9.64844 -5.74218,14.375 -5.70313,4.6875 -17.46094,4.6875 -5.54688,0 -11.13281,-1.05468 -5.58594,-1.05469 -11.17188,-3.125 l 0,-12.69532 q 5.58594,2.96875 10.78125,4.49219 5.23438,1.48438 10.07813,1.48438 4.92187,0 7.53906,-1.64063 2.61719,-1.64062 2.61719,-4.6875 0,-2.73437 -1.79688,-4.21875 -1.75781,-1.48437 -7.07031,-2.65625 l -5.82031,-1.28906 q -8.75,-1.875 -12.8125,-5.97656 -4.02344,-4.10157 -4.02344,-11.05469 0,-8.71094 5.625,-13.39844 5.625,-4.687499 16.17187,-4.687499 4.80469,0 9.88282,0.742188 5.07812,0.703125 10.50781,2.148437 z" />
        <path
           inkscape:connector-curvature="0"
           id="path3429"
           style="font-style:normal;font-variant:normal;font-weight:bold;font-stretch:normal;font-size:80px;font-family:sans-serif;-inkscape-font-specification:'sans-serif Bold';fill:#ffffff"
           d="m 175.61523,108.52314 0,35.58593 5.39063,0 q 9.21875,0 14.0625,-4.57031 4.88281,-4.57031 4.88281,-13.28125 0,-8.67187 -4.84375,-13.20312 -4.84375,-4.53125 -14.10156,-4.53125 l -5.39063,0 z m -15.03906,-11.367191 15.85938,0 q 13.28125,0 19.76562,1.914062 6.52344,1.874999 11.17188,6.406249 4.10156,3.94531 6.09375,9.10156 1.99218,5.15625 1.99218,11.67969 0,6.60156 -1.99218,11.79688 -1.99219,5.15625 -6.09375,9.10156 -4.6875,4.53125 -11.25,6.44531 -6.5625,1.875 -19.6875,1.875 l -15.85938,0 0,-58.320311 z" />
        <path
           inkscape:connector-curvature="0"
           id="path3431"
           style="font-style:normal;font-variant:normal;font-weight:bold;font-stretch:normal;font-size:80px;font-family:sans-serif;-inkscape-font-specification:'sans-serif Bold';fill:#ffffff"
           d="m 273.23242,152.27314 q -4.14062,2.14843 -8.63281,3.24218 -4.49219,1.09375 -9.375,1.09375 -14.57031,0 -23.08594,-8.125 -8.51562,-8.16406 -8.51562,-22.10937 0,-13.98438 8.51562,-22.10938 8.51563,-8.164059 23.08594,-8.164059 4.88281,0 9.375,1.09375 4.49219,1.09375 8.63281,3.242189 l 0,12.07031 q -4.17969,-2.85156 -8.24219,-4.17969 -4.0625,-1.32812 -8.55468,-1.32812 -8.04688,0 -12.65625,5.15625 -4.60938,5.15625 -4.60938,14.21875 0,9.02344 4.60938,14.17969 4.60937,5.15625 12.65625,5.15625 4.49218,0 8.55468,-1.32813 4.0625,-1.32812 8.24219,-4.17969 l 0,12.07032 z" />
      </g>
    </g>
  </g>
</svg>
