<?xml version="1.0" encoding="UTF-8" standalone="no"?>
<!-- Created with Inkscape (http://www.inkscape.org/) -->

<svg
   xmlns:dc="http://purl.org/dc/elements/1.1/"
   xmlns:cc="http://creativecommons.org/ns#"
   xmlns:rdf="http://www.w3.org/1999/02/22-rdf-syntax-ns#"
   xmlns:svg="http://www.w3.org/2000/svg"
   xmlns="http://www.w3.org/2000/svg"
   xmlns:sodipodi="http://sodipodi.sourceforge.net/DTD/sodipodi-0.dtd"
   xmlns:inkscape="http://www.inkscape.org/namespaces/inkscape"
   width="500"
   height="500"
   id="svg2"
   version="1.1"
   inkscape:version="0.91 r13725"
   sodipodi:docname="application-x-7zip.svg">
  <defs
     id="defs4" />
  <sodipodi:namedview
     id="base"
     pagecolor="#ffffff"
     bordercolor="#666666"
     borderopacity="1.0"
     inkscape:pageopacity="0.0"
     inkscape:pageshadow="2"
     inkscape:zoom="0.4289781"
     inkscape:cx="769.76807"
     inkscape:cy="225.44056"
     inkscape:document-units="px"
     inkscape:current-layer="layer1"
     showgrid="false"
     inkscape:window-width="1366"
     inkscape:window-height="715"
     inkscape:window-x="0"
     inkscape:window-y="24"
     inkscape:window-maximized="1" />
  <metadata
     id="metadata7">
    <rdf:RDF>
      <cc:Work
         rdf:about="">
        <dc:format>image/svg+xml</dc:format>
        <dc:type
           rdf:resource="http://purl.org/dc/dcmitype/StillImage" />
        <dc:title />
      </cc:Work>
    </rdf:RDF>
  </metadata>
  <g
     inkscape:label="Layer 1"
     inkscape:groupmode="layer"
     id="layer1"
     transform="translate(0,-552.36218)">
    <g
       id="g4175">
      <path
         sodipodi:nodetypes="ccccc"
         inkscape:connector-curvature="0"
         id="path4230"
         d="M 63.03896,706.21223 116.261,758.31079 114.60095,685.26894 63,685.02384 Z"
         style="fill:#333333;fill-rule:evenodd;stroke:none;stroke-width:1px;stroke-linecap:butt;stroke-linejoin:miter;stroke-opacity:1" />
      <path
         inkscape:connector-curvature="0"
         id="path3364"
         d="m 97.04097,1029.8357 336.88839,-1.1739 1.17377,-363.88647 -88.03697,-89.21086 -250.02519,0 z"
         style="fill:#f2f2f2;fill-rule:evenodd;stroke:#afafaf;stroke-width:5.03546047;stroke-linecap:butt;stroke-linejoin:miter;stroke-miterlimit:4;stroke-dasharray:none;stroke-opacity:1" />
      <path
         sodipodi:nodetypes="cccc"
         inkscape:connector-curvature="0"
         id="path4166"
         d="m 431.51909,662.93117 -82.16431,-0.58691 0.75853,-83.80351 z"
         style="fill:#afafaf;fill-opacity:1;fill-rule:evenodd;stroke:#afafaf;stroke-width:5.03546047;stroke-linecap:butt;stroke-linejoin:miter;stroke-miterlimit:4;stroke-dasharray:none;stroke-opacity:1" />
      <rect
         y="622.18738"
         x="63.139683"
         height="84.350876"
         width="224.93568"
         id="rect4228"
         style="fill:#394050;fill-opacity:1;stroke:none;stroke-width:5;stroke-miterlimit:4;stroke-dasharray:none;stroke-opacity:1" />
      <rect
         ry="14.091859"
         y="835.24023"
         x="131.5209"
         height="191.02298"
         width="250"
         id="rect3955"
         style="fill:#394050;fill-opacity:1;stroke:none" />
      <rect
         ry="10.502701"
         y="857.68298"
         x="154.22449"
         height="142.36995"
         width="205.63672"
         id="rect3955-0"
         style="fill:#ffffff;fill-opacity:1;stroke:none" />
      <rect
         ry="8.4705143"
         y="872.29688"
         x="170.9259"
         height="114.82256"
         width="101.25262"
         id="rect3955-6"
         style="fill:#394050;fill-opacity:1;stroke:none" />
      <path
         sodipodi:nodetypes="ccczcczccc"
         inkscape:connector-curvature="0"
         id="path3993"
         d="m 194.31309,888.59 0,17.8991 37.2744,0.1844 c 0,0 -14.36536,18.83722 -19.19078,33.03027 -4.82541,14.19317 -5.35128,34.322 -5.35128,34.322 l 18.08363,0.18442 c 0,0 0.3057,-19.90617 5.16675,-34.322 4.86108,-14.41569 22.51227,-33.95292 22.51227,-33.95292 l 0,-17.53003 z"
         style="fill:#ffffff;stroke:none" />
      <path
         inkscape:connector-curvature="0"
         id="path3995"
         d="m 290.39056,931.28446 0.18465,-15.68478 53.32826,0.18466 0,13.8395 -30.26241,34.32201 30.07788,-0.18441 -0.18465,15.50016 -52.9592,-0.369 -0.18465,-13.655 31.73862,-34.32198 z"
         style="fill:#394050;stroke:none" />
      <g
         id="flowRoot4146"
         style="font-style:normal;font-weight:normal;font-size:40px;line-height:125%;font-family:sans-serif;letter-spacing:0px;word-spacing:0px;fill:#ffffff;fill-opacity:1;stroke:none;stroke-width:1px;stroke-linecap:butt;stroke-linejoin:miter;stroke-opacity:1"
         transform="translate(1.748341,534.87877)">
        <path
           id="path4167"
           style="font-style:normal;font-variant:normal;font-weight:bold;font-stretch:normal;font-size:80px;font-family:sans-serif;-inkscape-font-specification:'sans-serif Bold';fill:#ffffff"
           d="m 83.443359,100.07001 43.945311,0 0,8.47656 -22.73437,49.84375 -14.648441,0 21.523441,-47.26562 -28.085941,0 0,-11.05469 z" />
        <path
           id="path4169"
           style="font-style:normal;font-variant:normal;font-weight:bold;font-stretch:normal;font-size:80px;font-family:sans-serif;-inkscape-font-specification:'sans-serif Bold';fill:#ffffff"
           d="m 138.20898,100.07001 49.02344,0 0,9.10156 -31.28906,37.85157 32.1875,0 0,11.36718 -50.82031,0 0,-9.10156 31.28906,-37.85156 -30.39063,0 0,-11.36719 z" />
        <path
           id="path4171"
           style="font-style:normal;font-variant:normal;font-weight:bold;font-stretch:normal;font-size:80px;font-family:sans-serif;-inkscape-font-specification:'sans-serif Bold';fill:#ffffff"
           d="m 199.0293,100.07001 15.03906,0 0,58.32031 -15.03906,0 0,-58.32031 z" />
        <path
           id="path4173"
           style="font-style:normal;font-variant:normal;font-weight:bold;font-stretch:normal;font-size:80px;font-family:sans-serif;-inkscape-font-specification:'sans-serif Bold';fill:#ffffff"
           d="m 228.87305,100.07001 24.96093,0 q 11.13282,0 17.07032,4.96094 5.97656,4.92187 5.97656,14.0625 0,9.17969 -5.97656,14.14062 -5.9375,4.92188 -17.07032,4.92188 l -9.92187,0 0,20.23437 -15.03906,0 0,-58.32031 z m 15.03906,10.89844 0,16.28906 8.32031,0 q 4.375,0 6.75781,-2.10937 2.38282,-2.14844 2.38282,-6.05469 0,-3.90625 -2.38282,-6.01563 -2.38281,-2.10937 -6.75781,-2.10937 l -8.32031,0 z" />
      </g>
    </g>
  </g>
</svg>
