<?xml version="1.0" encoding="UTF-8" standalone="no"?>
<!-- Created with Inkscape (http://www.inkscape.org/) -->

<svg
   xmlns:dc="http://purl.org/dc/elements/1.1/"
   xmlns:cc="http://creativecommons.org/ns#"
   xmlns:rdf="http://www.w3.org/1999/02/22-rdf-syntax-ns#"
   xmlns:svg="http://www.w3.org/2000/svg"
   xmlns="http://www.w3.org/2000/svg"
   xmlns:sodipodi="http://sodipodi.sourceforge.net/DTD/sodipodi-0.dtd"
   xmlns:inkscape="http://www.inkscape.org/namespaces/inkscape"
   width="500"
   height="500"
   id="svg2"
   version="1.1"
   inkscape:version="0.91 r13725"
   sodipodi:docname="application-x-cd-image.svg">
  <defs
     id="defs4" />
  <sodipodi:namedview
     id="base"
     pagecolor="#ffffff"
     bordercolor="#666666"
     borderopacity="1.0"
     inkscape:pageopacity="0.0"
     inkscape:pageshadow="2"
     inkscape:zoom="0.30333332"
     inkscape:cx="274.84897"
     inkscape:cy="276.02871"
     inkscape:document-units="px"
     inkscape:current-layer="layer1"
     showgrid="false"
     inkscape:window-width="1366"
     inkscape:window-height="715"
     inkscape:window-x="0"
     inkscape:window-y="24"
     inkscape:window-maximized="1" />
  <metadata
     id="metadata7">
    <rdf:RDF>
      <cc:Work
         rdf:about="">
        <dc:format>image/svg+xml</dc:format>
        <dc:type
           rdf:resource="http://purl.org/dc/dcmitype/StillImage" />
        <dc:title />
      </cc:Work>
    </rdf:RDF>
  </metadata>
  <g
     inkscape:label="Layer 1"
     inkscape:groupmode="layer"
     id="layer1"
     transform="translate(0,-552.36218)">
    <g
       id="g4232">
      <path
         sodipodi:nodetypes="ccccc"
         inkscape:connector-curvature="0"
         id="path4230"
         d="M 63.03896,706.21212 116.261,758.31068 114.60095,685.26883 63,685.02373 Z"
         style="fill:#333333;fill-rule:evenodd;stroke:none;stroke-width:1px;stroke-linecap:butt;stroke-linejoin:miter;stroke-opacity:1" />
      <path
         inkscape:connector-curvature="0"
         id="path3364"
         d="m 97.04097,1029.8357 336.88839,-1.1739 1.17377,-363.88658 -88.03697,-89.21086 -250.02519,0 z"
         style="fill:#f2f2f2;fill-rule:evenodd;stroke:#afafaf;stroke-width:5.03546047;stroke-linecap:butt;stroke-linejoin:miter;stroke-miterlimit:4;stroke-dasharray:none;stroke-opacity:1" />
      <path
         sodipodi:nodetypes="cccc"
         inkscape:connector-curvature="0"
         id="path4166"
         d="m 431.51909,662.93106 -82.16431,-0.58691 0.75853,-83.80351 z"
         style="fill:#afafaf;fill-opacity:1;fill-rule:evenodd;stroke:#afafaf;stroke-width:5.03546047;stroke-linecap:butt;stroke-linejoin:miter;stroke-miterlimit:4;stroke-dasharray:none;stroke-opacity:1" />
      <rect
         y="622.18719"
         x="63.139664"
         height="84.350876"
         width="224.93568"
         id="rect4228"
         style="fill:#394050;fill-opacity:1;stroke:none;stroke-width:5;stroke-miterlimit:4;stroke-dasharray:none;stroke-opacity:1" />
      <g
         id="g4189">
        <g
           id="g892"
           transform="matrix(1.6097691,-0.42629163,-0.42629163,-1.6097691,297.93511,1023.2773)">
          <path
             d="m 0,0 c -41.446,0 -75.045,33.599 -75.045,75.045 0,41.446 33.599,75.045 75.045,75.045 L 0,80.131 c -2.809,0 -5.086,-2.277 -5.086,-5.086 0,-2.81 2.277,-5.086 5.086,-5.086 L 0,0 Z m 0,150.09 c 41.447,0 75.045,-33.599 75.045,-75.045 C 75.045,33.599 41.447,0 0,0 l 0,69.959 c 2.809,0 5.086,2.276 5.086,5.086 0,2.809 -2.277,5.086 -5.086,5.086 l 0,69.959 z"
             style="fill:#999999;fill-opacity:1;fill-rule:evenodd;stroke:none"
             id="path894"
             inkscape:connector-curvature="0" />
        </g>
        <g
           id="g1694"
           transform="matrix(1.6097691,-0.42629163,-0.42629163,-1.6097691,297.93511,1023.2773)"
           style="fill:#cfcfcf;fill-opacity:1">
          <path
             d="m 0,0 c -41.446,0 -75.045,33.599 -75.045,75.045 0,41.446 33.599,75.045 75.045,75.045 L 0,80.131 c -2.809,0 -5.086,-2.277 -5.086,-5.086 0,-2.81 2.277,-5.086 5.086,-5.086 L 0,0 Z m 0,150.09 c 41.447,0 75.045,-33.599 75.045,-75.045 C 75.045,33.599 41.447,0 0,0 l 0,69.959 c 2.809,0 5.086,2.276 5.086,5.086 0,2.809 -2.277,5.086 -5.086,5.086 l 0,69.959 z"
             style="fill:#cfcfcf;fill-opacity:1;fill-rule:evenodd;stroke:none"
             id="path1696"
             inkscape:connector-curvature="0" />
        </g>
        <g
           id="g2418"
           transform="matrix(1.6097691,-0.42629163,-0.42629163,-1.6097691,277.37403,945.63429)"
           style="fill:#394050;fill-opacity:1">
          <path
             d="m 0,0 c -14.808,0 -26.812,12.005 -26.812,26.813 0,14.808 12.004,26.812 26.812,26.812 L 0,31.898 c -2.809,0 -5.086,-2.277 -5.086,-5.085 0,-2.81 2.277,-5.086 5.086,-5.086 L 0,0 Z m 0,53.625 c 14.808,0 26.813,-12.004 26.813,-26.812 C 26.813,12.005 14.808,0 0,0 l 0,21.727 c 2.809,0 5.086,2.276 5.086,5.086 0,2.808 -2.277,5.085 -5.086,5.085 l 0,21.727 z"
             style="fill:#394050;fill-opacity:1;fill-rule:evenodd;stroke:none"
             id="path2420"
             inkscape:connector-curvature="0" />
        </g>
        <g
           id="g2422"
           transform="matrix(1.6097691,-0.42629163,-0.42629163,-1.6097691,275.53486,938.68904)"
           style="fill:#ababab;fill-opacity:1">
          <path
             d="m 0,0 c -12.425,0 -22.498,10.073 -22.498,22.498 0,12.426 10.073,22.498 22.498,22.498 L 0,27.584 c -2.809,0 -5.086,-2.277 -5.086,-5.086 0,-2.81 2.277,-5.086 5.086,-5.086 L 0,0 Z m 0,44.996 c 12.425,0 22.498,-10.072 22.498,-22.498 C 22.498,10.073 12.425,0 0,0 l 0,17.412 c 2.809,0 5.086,2.276 5.086,5.086 0,2.809 -2.277,5.086 -5.086,5.086 l 0,17.412 z"
             style="fill:#ababab;fill-opacity:1;fill-rule:evenodd;stroke:none"
             id="path2424"
             inkscape:connector-curvature="0" />
        </g>
        <g
           id="g2426"
           transform="matrix(1.6097691,-0.42629163,-0.42629163,-1.6097691,269.97844,917.70704)"
           style="fill:#394050;fill-opacity:1">
          <path
             d="m 0,0 c -5.227,0 -9.464,4.237 -9.464,9.464 0,5.226 4.237,9.464 9.464,9.464 L 0,14.55 c -2.809,0 -5.086,-2.278 -5.086,-5.086 0,-2.81 2.277,-5.086 5.086,-5.086 L 0,0 Z m 0,18.928 c 5.227,0 9.464,-4.238 9.464,-9.464 C 9.464,4.237 5.227,0 0,0 l 0,4.378 c 2.809,0 5.086,2.276 5.086,5.086 0,2.808 -2.277,5.086 -5.086,5.086 l 0,4.378 z"
             style="fill:#394050;fill-opacity:1;fill-rule:evenodd;stroke:none"
             id="path2428"
             inkscape:connector-curvature="0" />
        </g>
      </g>
      <g
         id="flowRoot3352"
         style="font-style:normal;font-weight:normal;font-size:40px;line-height:125%;font-family:sans-serif;letter-spacing:0px;word-spacing:0px;fill:#ffffff;fill-opacity:1;stroke:none;stroke-width:1px;stroke-linecap:butt;stroke-linejoin:miter;stroke-opacity:1"
         transform="translate(9.8901104,538.35119)">
        <path
           inkscape:connector-curvature="0"
           id="path3361"
           style="font-style:normal;font-variant:normal;font-weight:bold;font-stretch:normal;font-size:80px;font-family:sans-serif;-inkscape-font-specification:'sans-serif Bold';fill:#ffffff"
           d="m 109.54102,96.14423 15.03906,0 0,58.32031 -15.03906,0 0,-58.32031 z" />
        <path
           inkscape:connector-curvature="0"
           id="path3363"
           style="font-style:normal;font-variant:normal;font-weight:bold;font-stretch:normal;font-size:80px;font-family:sans-serif;-inkscape-font-specification:'sans-serif Bold';fill:#ffffff"
           d="m 179.9707,97.980167 0,12.343753 q -4.80468,-2.14844 -9.375,-3.24219 -4.57031,-1.09375 -8.63281,-1.09375 -5.39062,0 -7.96875,1.48437 -2.57812,1.48438 -2.57812,4.60938 0,2.34375 1.71875,3.67187 1.75781,1.28907 6.32812,2.22657 l 6.40625,1.28906 q 9.72656,1.95312 13.82813,5.9375 4.10156,3.98437 4.10156,11.32812 0,9.64844 -5.74219,14.375 -5.70312,4.6875 -17.46094,4.6875 -5.54687,0 -11.13281,-1.05468 -5.58594,-1.05469 -11.17187,-3.125 l 0,-12.69532 q 5.58593,2.96875 10.78125,4.49219 5.23437,1.48438 10.07812,1.48438 4.92188,0 7.53906,-1.64063 2.61719,-1.64062 2.61719,-4.6875 0,-2.73437 -1.79687,-4.21875 -1.75782,-1.48437 -7.07032,-2.65625 l -5.82031,-1.28906 q -8.75,-1.875 -12.8125,-5.97656 -4.02344,-4.10157 -4.02344,-11.05469 0,-8.71094 5.625,-13.398438 5.625,-4.6875 16.17188,-4.6875 4.80469,0 9.88281,0.742188 5.07813,0.703125 10.50781,2.148437 z" />
        <path
           inkscape:connector-curvature="0"
           id="path3365"
           style="font-style:normal;font-variant:normal;font-weight:bold;font-stretch:normal;font-size:80px;font-family:sans-serif;-inkscape-font-specification:'sans-serif Bold';fill:#ffffff"
           d="m 223.68164,105.98798 q -6.875,0 -10.66406,5.07812 -3.78906,5.07813 -3.78906,14.29688 0,9.17969 3.78906,14.25781 3.78906,5.07813 10.66406,5.07813 6.91406,0 10.70313,-5.07813 3.78906,-5.07812 3.78906,-14.25781 0,-9.21875 -3.78906,-14.29688 -3.78907,-5.07812 -10.70313,-5.07812 z m 0,-10.898438 q 14.0625,0 22.03125,8.046878 7.96875,8.04687 7.96875,22.22656 0,14.14062 -7.96875,22.1875 -7.96875,8.04687 -22.03125,8.04687 -14.02344,0 -22.03125,-8.04687 -7.96875,-8.04688 -7.96875,-22.1875 0,-14.17969 7.96875,-22.22656 8.00781,-8.046878 22.03125,-8.046878 z" />
      </g>
    </g>
  </g>
</svg>
