<?xml version="1.0" encoding="UTF-8" standalone="no"?>
<!-- Created with Inkscape (http://www.inkscape.org/) -->

<svg
   xmlns:dc="http://purl.org/dc/elements/1.1/"
   xmlns:cc="http://creativecommons.org/ns#"
   xmlns:rdf="http://www.w3.org/1999/02/22-rdf-syntax-ns#"
   xmlns:svg="http://www.w3.org/2000/svg"
   xmlns="http://www.w3.org/2000/svg"
   xmlns:sodipodi="http://sodipodi.sourceforge.net/DTD/sodipodi-0.dtd"
   xmlns:inkscape="http://www.inkscape.org/namespaces/inkscape"
   width="500"
   height="500"
   id="svg2"
   version="1.1"
   inkscape:version="0.91 r13725"
   sodipodi:docname="application-x-quattropro.svg">
  <defs
     id="defs4" />
  <sodipodi:namedview
     id="base"
     pagecolor="#ffffff"
     bordercolor="#666666"
     borderopacity="1.0"
     inkscape:pageopacity="0.0"
     inkscape:pageshadow="2"
     inkscape:zoom="0.60666665"
     inkscape:cx="262.31673"
     inkscape:cy="337.56122"
     inkscape:document-units="px"
     inkscape:current-layer="layer1"
     showgrid="false"
     inkscape:window-width="1366"
     inkscape:window-height="715"
     inkscape:window-x="0"
     inkscape:window-y="24"
     inkscape:window-maximized="1" />
  <metadata
     id="metadata7">
    <rdf:RDF>
      <cc:Work
         rdf:about="">
        <dc:format>image/svg+xml</dc:format>
        <dc:type
           rdf:resource="http://purl.org/dc/dcmitype/StillImage" />
        <dc:title />
      </cc:Work>
    </rdf:RDF>
  </metadata>
  <g
     inkscape:label="Layer 1"
     inkscape:groupmode="layer"
     id="layer1"
     transform="translate(0,-552.36218)">
    <g
       id="g3416">
      <path
         sodipodi:nodetypes="ccccc"
         inkscape:connector-curvature="0"
         id="path4230"
         d="M 63.03896,706.21226 116.261,758.31082 114.60095,685.26897 63,685.02387 Z"
         style="fill:#2a9a25;fill-opacity:1;fill-rule:evenodd;stroke:none;stroke-width:1px;stroke-linecap:butt;stroke-linejoin:miter;stroke-opacity:1" />
      <path
         inkscape:connector-curvature="0"
         id="path3364"
         d="m 97.04097,1029.8357 336.88839,-1.1739 1.17377,-363.88644 -88.03697,-89.21086 -250.02519,0 z"
         style="fill:#f2f2f2;fill-rule:evenodd;stroke:#afafaf;stroke-width:5.03546047;stroke-linecap:butt;stroke-linejoin:miter;stroke-miterlimit:4;stroke-dasharray:none;stroke-opacity:1" />
      <path
         sodipodi:nodetypes="cccc"
         inkscape:connector-curvature="0"
         id="path4166"
         d="m 431.51909,662.9312 -82.16431,-0.58691 0.75853,-83.80351 z"
         style="fill:#afafaf;fill-opacity:1;fill-rule:evenodd;stroke:#afafaf;stroke-width:5.03546047;stroke-linecap:butt;stroke-linejoin:miter;stroke-miterlimit:4;stroke-dasharray:none;stroke-opacity:1" />
      <rect
         y="622.18756"
         x="63.139694"
         height="84.350876"
         width="223.75591"
         id="rect4228"
         style="fill:#45d03f;fill-opacity:1;stroke:none;stroke-width:5;stroke-miterlimit:4;stroke-dasharray:none;stroke-opacity:1" />
      <g
         id="g4211">
        <rect
           style="fill:#45d03f;fill-opacity:1;stroke:none"
           id="rect3932"
           width="255.30547"
           height="205.64311"
           x="143.00667"
           y="800.62091" />
        <rect
           style="fill:#f2f2f2;fill-opacity:1;stroke:none"
           id="rect3771"
           width="53.937923"
           height="24.963709"
           x="150.12352"
           y="806.4671" />
        <rect
           style="fill:#f2f2f2;fill-opacity:1;stroke:none"
           id="rect3771-7"
           width="53.937923"
           height="24.963709"
           x="212.35959"
           y="806.4671" />
        <rect
           style="fill:#f2f2f2;fill-opacity:1;stroke:none"
           id="rect3771-7-5"
           width="53.937923"
           height="24.963709"
           x="274.59564"
           y="806.4671" />
        <rect
           style="fill:#f2f2f2;fill-opacity:1;stroke:none"
           id="rect3771-7-5-3"
           width="53.937923"
           height="24.963709"
           x="336.8317"
           y="806.4671" />
        <rect
           style="fill:#f2f2f2;fill-opacity:1;stroke:none"
           id="rect3771-5"
           width="53.937923"
           height="24.963709"
           x="150.12352"
           y="839.77661" />
        <rect
           style="fill:#f2f2f2;fill-opacity:1;stroke:none"
           id="rect3771-7-6"
           width="53.937923"
           height="24.963709"
           x="212.35959"
           y="839.77661" />
        <rect
           style="fill:#f2f2f2;fill-opacity:1;stroke:none"
           id="rect3771-7-5-2"
           width="53.937923"
           height="24.963709"
           x="274.59564"
           y="839.77661" />
        <rect
           style="fill:#f2f2f2;fill-opacity:1;stroke:none"
           id="rect3771-7-5-3-9"
           width="53.937923"
           height="24.963709"
           x="336.83176"
           y="839.77661" />
        <rect
           style="fill:#f2f2f2;fill-opacity:1;stroke:none"
           id="rect3771-1"
           width="53.937923"
           height="24.963709"
           x="150.12352"
           y="872.84387" />
        <rect
           style="fill:#f2f2f2;fill-opacity:1;stroke:none"
           id="rect3771-7-2"
           width="53.937923"
           height="24.963709"
           x="212.35959"
           y="872.84387" />
        <rect
           style="fill:#f2f2f2;fill-opacity:1;stroke:none"
           id="rect3771-7-5-7"
           width="53.937923"
           height="24.963709"
           x="274.59564"
           y="872.84387" />
        <rect
           style="fill:#f2f2f2;fill-opacity:1;stroke:none"
           id="rect3771-7-5-3-0"
           width="53.937923"
           height="24.963709"
           x="336.8317"
           y="872.84387" />
        <rect
           style="fill:#f2f2f2;fill-opacity:1;stroke:none"
           id="rect3771-5-9"
           width="53.937923"
           height="24.963709"
           x="150.12352"
           y="906.15332" />
        <rect
           style="fill:#f2f2f2;fill-opacity:1;stroke:none"
           id="rect3771-7-6-3"
           width="53.937923"
           height="24.963709"
           x="212.35959"
           y="906.15332" />
        <rect
           style="fill:#f2f2f2;fill-opacity:1;stroke:none"
           id="rect3771-7-5-2-6"
           width="53.937923"
           height="24.963709"
           x="274.5957"
           y="906.15332" />
        <rect
           style="fill:#f2f2f2;fill-opacity:1;stroke:none"
           id="rect3771-7-5-3-9-0"
           width="53.937923"
           height="24.963709"
           x="336.83176"
           y="906.15332" />
        <rect
           style="fill:#f2f2f2;fill-opacity:1;stroke:none"
           id="rect3771-6"
           width="53.937923"
           height="24.963709"
           x="150.65662"
           y="939.68353" />
        <rect
           style="fill:#f2f2f2;fill-opacity:1;stroke:none"
           id="rect3771-7-26"
           width="53.937923"
           height="24.963709"
           x="212.89267"
           y="939.68353" />
        <rect
           style="fill:#aade87;fill-opacity:1;stroke:none"
           id="rect3771-7-5-1"
           width="53.937923"
           height="24.963709"
           x="275.12872"
           y="939.68353" />
        <rect
           style="fill:#aade87;fill-opacity:1;stroke:none"
           id="rect3771-7-5-3-8"
           width="53.937923"
           height="24.963709"
           x="337.36484"
           y="939.68353" />
        <rect
           style="fill:#f2f2f2;fill-opacity:1;stroke:none"
           id="rect3771-5-7"
           width="53.937923"
           height="24.963709"
           x="150.65662"
           y="972.99304" />
        <rect
           style="fill:#f2f2f2;fill-opacity:1;stroke:none"
           id="rect3771-7-6-9"
           width="53.937923"
           height="24.963709"
           x="212.89267"
           y="972.99304" />
        <rect
           style="fill:#aade87;fill-opacity:1;stroke:none"
           id="rect3771-7-5-2-2"
           width="53.937923"
           height="24.963709"
           x="275.12878"
           y="972.99304" />
        <rect
           style="fill:#aade87;fill-opacity:1;stroke:none"
           id="rect3771-7-5-3-9-02"
           width="53.937923"
           height="24.963709"
           x="337.36484"
           y="972.99304" />
        <rect
           style="fill:#45d03f;fill-opacity:1;stroke:none"
           id="rect3003"
           width="103.457"
           height="152.84323"
           x="921.57404"
           y="-418.00665"
           ry="12.086035"
           rx="8.5464478"
           transform="matrix(0,1,-1,0,0,0)" />
        <path
           style="fill:#ffffff;stroke:none"
           d="m 412.49336,926.55943 c -1.12578,-0.73665 -2.6122,-0.61913 -2.6122,-0.61913 l -127.23388,0.0217 -9.32785,10e-4 c 0,0 -1.45891,-0.0483 -2.21965,0.49666 -0.76073,0.54505 -0.83209,1.84277 -0.83209,1.84277 l 0.006,89.88597 c 0,0 -0.10278,1.5056 0.63439,2.1828 0.73715,0.6773 2.37561,0.618 2.37561,0.618 l 132.56704,-0.034 c 0,0 3.62686,0.3558 5.73997,-1.3817 2.1131,-1.7375 1.59275,-4.8452 1.59275,-4.8452 l 0.25492,-86.21286 c 0,0 0.18028,-1.2196 -0.9454,-1.95623 z"
           id="path3773"
           inkscape:connector-curvature="0"
           sodipodi:nodetypes="cccczcczcczcczc" />
        <path
           style="fill:#ffcc00"
           d="m 347.04359,1004.6969 -11.36238,0 c -1.56872,0 -2.84075,-1.2721 -2.84075,-2.8408 l 0,-45.44985 c 0,-1.56872 1.27203,-2.84075 2.84075,-2.84075 l 11.36238,0 c 1.56872,0 2.84075,1.27203 2.84075,2.84075 l 0,45.44985 c 0,1.5687 -1.27203,2.8408 -2.84075,2.8408 z"
           id="path17"
           inkscape:connector-curvature="0" />
        <path
           style="fill:#f03916;fill-opacity:1"
           d="m 321.47808,1004.6969 -11.36238,0 c -1.56872,0 -2.84075,-1.2721 -2.84075,-2.8408 l 0,-31.24671 c 0,-1.56872 1.27203,-2.84076 2.84075,-2.84076 l 11.36238,0 c 1.56872,0 2.84075,1.27204 2.84075,2.84076 l 0,31.24671 c 0,1.5687 -1.27203,2.8408 -2.84075,2.8408 z"
           id="path21"
           inkscape:connector-curvature="0" />
        <path
           style="fill:#004455"
           d="m 295.91257,1004.6969 -11.36237,0 c -1.56872,0 -2.84076,-1.2721 -2.84076,-2.8408 l 0,-17.0439 c 0,-1.56872 1.27204,-2.84075 2.84076,-2.84075 l 11.36237,0 c 1.56872,0 2.84076,1.27203 2.84076,2.84075 l 0,17.0439 c -3.2e-4,1.5687 -1.27204,2.8408 -2.84076,2.8408 z"
           id="path25"
           inkscape:connector-curvature="0" />
        <path
           style="fill:#45d03f;fill-opacity:1"
           d="m 372.60909,1004.6969 -11.36237,0 c -1.56872,0 -2.84076,-1.2721 -2.84076,-2.8408 l 0,-31.24671 c 0,-1.56872 1.27204,-2.84076 2.84076,-2.84076 l 11.36237,0 c 1.56872,0 2.84076,1.27204 2.84076,2.84076 l 0,31.24671 c 0,1.5687 -1.27204,2.8408 -2.84076,2.8408 z"
           id="path29"
           inkscape:connector-curvature="0" />
        <path
           style="fill:#00bbf2;fill-opacity:1"
           d="m 398.17491,1004.6969 -11.36237,0 c -1.56872,0 -2.84075,-1.2721 -2.84075,-2.8408 l 0,-62.49374 c 0,-1.56872 1.27203,-2.84075 2.84075,-2.84075 l 11.36237,0 c 1.56873,0 2.84076,1.27203 2.84076,2.84075 l 0,62.49374 c -3.2e-4,1.5687 -1.27203,2.8408 -2.84076,2.8408 z"
           id="path33"
           inkscape:connector-curvature="0" />
        <path
           style="fill:#394050"
           d="m 406.69654,1007.537 -130.66828,0 c -1.56872,0 -2.84076,-1.2721 -2.84076,-2.8408 l 0,0 c 0,-1.5687 1.27204,-2.8407 2.84076,-2.8407 l 130.6686,0 c 1.56872,0 2.84075,1.272 2.84075,2.8407 l 0,0 c -3.2e-4,1.5694 -1.27203,2.8408 -2.84107,2.8408 z"
           id="path37"
           inkscape:connector-curvature="0" />
      </g>
      <g
         id="flowRoot3428"
         style="font-style:normal;font-weight:normal;font-size:40px;line-height:125%;font-family:sans-serif;letter-spacing:0px;word-spacing:0px;fill:#ffffff;fill-opacity:1;stroke:none;stroke-width:1px;stroke-linecap:butt;stroke-linejoin:miter;stroke-opacity:1"
         transform="translate(5.076924,540.82372)">
        <path
           inkscape:connector-curvature="0"
           id="path3437"
           style="font-style:normal;font-variant:normal;font-weight:bold;font-stretch:normal;font-size:80px;font-family:sans-serif;-inkscape-font-specification:'sans-serif Bold';fill:#ffffff"
           d="m 102.10742,93.671574 14.41406,0 10.07813,42.382816 10,-42.382816 14.49219,0 10,42.382816 10.07812,-42.382816 14.29688,0 -13.75,58.320316 -17.34375,0 -10.58594,-44.33594 -10.46875,44.33594 -17.34375,0 -13.86719,-58.320316 z" />
        <path
           inkscape:connector-curvature="0"
           id="path3439"
           style="font-style:normal;font-variant:normal;font-weight:bold;font-stretch:normal;font-size:80px;font-family:sans-serif;-inkscape-font-specification:'sans-serif Bold';fill:#ffffff"
           d="m 218.70898,116.2497 q 3.55469,0 5.39063,-1.5625 1.83594,-1.5625 1.83594,-4.60938 0,-3.00781 -1.83594,-4.57031 -1.83594,-1.60156 -5.39063,-1.60156 l -8.32031,0 0,12.34375 8.32031,0 z m 0.50782,25.50781 q 4.53125,0 6.79687,-1.91406 2.30469,-1.91406 2.30469,-5.78125 0,-3.78906 -2.26563,-5.66406 -2.26562,-1.91407 -6.83593,-1.91407 l -8.82813,0 0,15.27344 8.82813,0 z m 13.98437,-20.97656 q 4.84375,1.40625 7.5,5.19531 2.65625,3.78906 2.65625,9.29688 0,8.4375 -5.70312,12.57812 -5.70313,4.14063 -17.34375,4.14063 l -24.96094,0 0,-58.320316 22.57812,0 q 12.14844,0 17.57813,3.671875 5.46875,3.671871 5.46875,11.757811 0,4.25781 -1.99219,7.26563 -1.99219,2.96875 -5.78125,4.41406 z" />
      </g>
    </g>
  </g>
</svg>
