<?xml version="1.0" encoding="UTF-8" standalone="no"?>
<!-- Created with Inkscape (http://www.inkscape.org/) -->

<svg
   xmlns:dc="http://purl.org/dc/elements/1.1/"
   xmlns:cc="http://creativecommons.org/ns#"
   xmlns:rdf="http://www.w3.org/1999/02/22-rdf-syntax-ns#"
   xmlns:svg="http://www.w3.org/2000/svg"
   xmlns="http://www.w3.org/2000/svg"
   xmlns:sodipodi="http://sodipodi.sourceforge.net/DTD/sodipodi-0.dtd"
   xmlns:inkscape="http://www.inkscape.org/namespaces/inkscape"
   width="500"
   height="500"
   id="svg2"
   version="1.1"
   inkscape:version="0.91 r13725"
   sodipodi:docname="application-x-tgif.svg">
  <defs
     id="defs4" />
  <sodipodi:namedview
     id="base"
     pagecolor="#ffffff"
     bordercolor="#666666"
     borderopacity="1.0"
     inkscape:pageopacity="0.0"
     inkscape:pageshadow="2"
     inkscape:zoom="0.60666663"
     inkscape:cx="364.60645"
     inkscape:cy="260.76953"
     inkscape:document-units="px"
     inkscape:current-layer="layer1"
     showgrid="false"
     inkscape:window-width="1366"
     inkscape:window-height="715"
     inkscape:window-x="0"
     inkscape:window-y="24"
     inkscape:window-maximized="1" />
  <metadata
     id="metadata7">
    <rdf:RDF>
      <cc:Work
         rdf:about="">
        <dc:format>image/svg+xml</dc:format>
        <dc:type
           rdf:resource="http://purl.org/dc/dcmitype/StillImage" />
        <dc:title />
      </cc:Work>
    </rdf:RDF>
  </metadata>
  <g
     inkscape:label="Layer 1"
     inkscape:groupmode="layer"
     id="layer1"
     transform="translate(0,-552.36218)">
    <g
       id="g4177">
      <path
         sodipodi:nodetypes="ccccc"
         inkscape:connector-curvature="0"
         id="path4230"
         d="M 63.03896,706.2123 116.261,758.31086 114.60095,685.26901 63,685.02391 Z"
         style="fill:#deb200;fill-opacity:1;fill-rule:evenodd;stroke:none;stroke-width:1px;stroke-linecap:butt;stroke-linejoin:miter;stroke-opacity:1" />
      <path
         inkscape:connector-curvature="0"
         id="path3364"
         d="m 97.04097,1029.8357 336.88839,-1.1739 1.17377,-363.8864 -88.03697,-89.21086 -250.02519,0 z"
         style="fill:#f2f2f2;fill-rule:evenodd;stroke:#afafaf;stroke-width:5.03546047;stroke-linecap:butt;stroke-linejoin:miter;stroke-miterlimit:4;stroke-dasharray:none;stroke-opacity:1" />
      <path
         sodipodi:nodetypes="cccc"
         inkscape:connector-curvature="0"
         id="path4166"
         d="m 431.51909,662.93124 -82.16431,-0.58691 0.75853,-83.80351 z"
         style="fill:#afafaf;fill-opacity:1;fill-rule:evenodd;stroke:#afafaf;stroke-width:5.03546047;stroke-linecap:butt;stroke-linejoin:miter;stroke-miterlimit:4;stroke-dasharray:none;stroke-opacity:1" />
      <rect
         y="622.1875"
         x="63.139702"
         height="84.350876"
         width="224.93568"
         id="rect4228"
         style="fill:#ffcc00;fill-opacity:1;stroke:none;stroke-width:5;stroke-miterlimit:4;stroke-dasharray:none;stroke-opacity:1" />
      <circle
         r="80.804726"
         cy="856.54816"
         cx="224.26819"
         id="path3018"
         style="fill:#ff6600;fill-opacity:1;stroke:none" />
      <rect
         y="835.14905"
         x="263.12848"
         height="134.67456"
         width="148.142"
         id="rect3788"
         style="fill:#deb200;fill-opacity:1;stroke:none" />
      <path
         sodipodi:nodetypes="cccc"
         inkscape:connector-curvature="0"
         id="path3790"
         d="m 155.50777,1012.8798 161.60946,0 -80.4477,-139.53792 z"
         style="fill:#ffcc00;stroke:none" />
      <rect
         y="859.61676"
         x="224.5746"
         height="24.241419"
         width="24.241419"
         id="rect3792"
         style="fill:#45d03f;fill-opacity:1;stroke:none" />
      <rect
         y="997.44006"
         x="136.27048"
         height="24.241419"
         width="24.241419"
         id="rect3792-3"
         style="fill:#45d03f;fill-opacity:1;stroke:none" />
      <rect
         y="995.53558"
         x="313.397"
         height="24.241419"
         width="24.241419"
         id="rect3792-6"
         style="fill:#45d03f;fill-opacity:1;stroke:none" />
      <g
         id="flowRoot4162"
         style="font-style:normal;font-weight:normal;font-size:40px;line-height:125%;font-family:sans-serif;letter-spacing:0px;word-spacing:0px;fill:#ffffff;fill-opacity:1;stroke:none;stroke-width:1px;stroke-linecap:butt;stroke-linejoin:miter;stroke-opacity:1"
         transform="matrix(0.92269857,0,0,0.92269857,25.759765,543.53381)">
        <path
           inkscape:connector-curvature="0"
           id="path4171"
           style="font-style:normal;font-variant:normal;font-weight:bold;font-stretch:normal;font-size:80px;font-family:sans-serif;-inkscape-font-specification:'sans-serif Bold';fill:#ffffff"
           d="m 130.72656,103.50165 q -6.875,0 -10.66406,5.07813 -3.78906,5.07812 -3.78906,14.29687 0,9.17969 3.78906,14.25781 3.78906,5.07813 10.66406,5.07813 6.91406,0 10.70313,-5.07813 3.78906,-5.07812 3.78906,-14.25781 0,-9.21875 -3.78906,-14.29687 -3.78907,-5.07813 -10.70313,-5.07813 z m 0,-10.898436 q 14.0625,0 22.03125,8.046876 7.96875,8.04687 7.96875,22.22656 0,14.14063 -7.96875,22.1875 -7.96875,8.04688 -22.03125,8.04688 -14.02343,0 -22.03125,-8.04688 -7.96875,-8.04687 -7.96875,-22.1875 0,-14.17969 7.96875,-22.22656 8.00782,-8.046876 22.03125,-8.046876 z" />
        <path
           inkscape:connector-curvature="0"
           id="path4173"
           style="font-style:normal;font-variant:normal;font-weight:bold;font-stretch:normal;font-size:80px;font-family:sans-serif;-inkscape-font-specification:'sans-serif Bold';fill:#ffffff"
           d="m 195.41406,116.23603 q 3.55469,0 5.39063,-1.5625 1.83593,-1.5625 1.83593,-4.60938 0,-3.00781 -1.83593,-4.57031 -1.83594,-1.60156 -5.39063,-1.60156 l -8.32031,0 0,12.34375 8.32031,0 z m 0.50781,25.50781 q 4.53125,0 6.79688,-1.91406 2.30469,-1.91407 2.30469,-5.78125 0,-3.78907 -2.26563,-5.66407 -2.26562,-1.91406 -6.83594,-1.91406 l -8.82812,0 0,15.27344 8.82812,0 z m 13.98438,-20.97656 q 4.84375,1.40625 7.5,5.19531 2.65625,3.78906 2.65625,9.29687 0,8.4375 -5.70313,12.57813 -5.70312,4.14062 -17.34375,4.14062 l -24.96093,0 0,-58.320308 22.57812,0 q 12.14844,0 17.57813,3.671875 5.46875,3.671873 5.46875,11.757813 0,4.25781 -1.99219,7.26562 -1.99219,2.96875 -5.78125,4.41407 z" />
        <path
           inkscape:connector-curvature="0"
           id="path4175"
           style="font-style:normal;font-variant:normal;font-weight:bold;font-stretch:normal;font-size:80px;font-family:sans-serif;-inkscape-font-specification:'sans-serif Bold';fill:#ffffff"
           d="m 232.99219,93.657902 15.03906,0 0,52.656248 q 0,10.89844 -5.9375,16.28906 -5.89844,5.39063 -17.89063,5.39063 l -3.04687,0 0,-11.36719 2.34375,0 q 4.6875,0 7.07031,-2.61719 2.42188,-2.61718 2.42188,-7.69531 l 0,-52.656248 z" />
      </g>
    </g>
  </g>
</svg>
