<?xml version="1.0" encoding="UTF-8" standalone="no"?>
<!-- Created with Inkscape (http://www.inkscape.org/) -->

<svg
   xmlns:dc="http://purl.org/dc/elements/1.1/"
   xmlns:cc="http://creativecommons.org/ns#"
   xmlns:rdf="http://www.w3.org/1999/02/22-rdf-syntax-ns#"
   xmlns:svg="http://www.w3.org/2000/svg"
   xmlns="http://www.w3.org/2000/svg"
   xmlns:sodipodi="http://sodipodi.sourceforge.net/DTD/sodipodi-0.dtd"
   xmlns:inkscape="http://www.inkscape.org/namespaces/inkscape"
   width="500"
   height="500"
   id="svg2"
   version="1.1"
   inkscape:version="0.91 r13725"
   sodipodi:docname="image-bmp.svg">
  <defs
     id="defs4" />
  <sodipodi:namedview
     id="base"
     pagecolor="#ffffff"
     bordercolor="#666666"
     borderopacity="1.0"
     inkscape:pageopacity="0.0"
     inkscape:pageshadow="2"
     inkscape:zoom="0.4289781"
     inkscape:cx="-163.36649"
     inkscape:cy="352.94957"
     inkscape:document-units="px"
     inkscape:current-layer="layer1"
     showgrid="false"
     inkscape:window-width="1366"
     inkscape:window-height="715"
     inkscape:window-x="0"
     inkscape:window-y="24"
     inkscape:window-maximized="1" />
  <metadata
     id="metadata7">
    <rdf:RDF>
      <cc:Work
         rdf:about="">
        <dc:format>image/svg+xml</dc:format>
        <dc:type
           rdf:resource="http://purl.org/dc/dcmitype/StillImage" />
        <dc:title />
      </cc:Work>
    </rdf:RDF>
  </metadata>
  <g
     inkscape:label="Layer 1"
     inkscape:groupmode="layer"
     id="layer1"
     transform="translate(0,-552.36218)">
    <g
       id="g4164">
      <path
         sodipodi:nodetypes="ccccc"
         inkscape:connector-curvature="0"
         id="path4230"
         d="M 63.03896,701.21202 116.261,753.31058 114.60095,680.26873 63,680.02363 Z"
         style="fill:#009cca;fill-opacity:1;fill-rule:evenodd;stroke:none;stroke-width:1px;stroke-linecap:butt;stroke-linejoin:miter;stroke-opacity:1" />
      <path
         inkscape:connector-curvature="0"
         id="path3364"
         d="m 97.04097,1024.8357 336.88839,-1.1739 1.17377,-363.88668 -88.03697,-89.21086 -250.02519,0 z"
         style="fill:#f2f2f2;fill-rule:evenodd;stroke:#afafaf;stroke-width:5.03546047;stroke-linecap:butt;stroke-linejoin:miter;stroke-miterlimit:4;stroke-dasharray:none;stroke-opacity:1" />
      <path
         sodipodi:nodetypes="cccc"
         inkscape:connector-curvature="0"
         id="path4166"
         d="m 431.51909,657.93096 -82.16431,-0.58691 0.75853,-83.80351 z"
         style="fill:#afafaf;fill-opacity:1;fill-rule:evenodd;stroke:#afafaf;stroke-width:5.03546047;stroke-linecap:butt;stroke-linejoin:miter;stroke-miterlimit:4;stroke-dasharray:none;stroke-opacity:1" />
      <rect
         y="617.18707"
         x="63.139629"
         height="84.350876"
         width="223.52371"
         id="rect4228"
         style="fill:#00bbf2;fill-opacity:1;stroke:none;stroke-width:5;stroke-miterlimit:4;stroke-dasharray:none;stroke-opacity:1" />
      <rect
         transform="matrix(0.99991031,-0.01339323,0.01339323,0.99991031,0,0)"
         y="793.63092"
         x="134.99518"
         height="186.98323"
         width="225.0724"
         id="rect2997-3"
         style="fill:#ff6600;fill-opacity:1;stroke:#ffffff;stroke-width:7.27156973;stroke-linecap:round;stroke-linejoin:round;stroke-miterlimit:4;stroke-dasharray:none;stroke-opacity:1" />
      <rect
         transform="matrix(0.89137186,-0.45327278,0.45327278,0.89137186,0,0)"
         y="814.41022"
         x="-271.50455"
         height="186.98325"
         width="225.0724"
         id="rect2997"
         style="fill:#00bbf2;fill-opacity:1;stroke:#ffffff;stroke-width:7.27156973;stroke-linecap:round;stroke-linejoin:round;stroke-miterlimit:4;stroke-dasharray:none;stroke-opacity:1" />
      <path
         sodipodi:open="true"
         sodipodi:end="6.2784904"
         sodipodi:start="0"
         transform="matrix(0.89137185,-0.45327279,0.45327278,0.89137186,0,0)"
         d="m -200.52018,868.9469 a 22.940073,22.50724 0 0 1 -22.91315,22.50722 22.940073,22.50724 0 0 1 -22.96693,-22.45439 22.940073,22.50724 0 0 1 22.85923,-22.55993 22.940073,22.50724 0 0 1 23.0206,22.40143"
         sodipodi:ry="22.50724"
         sodipodi:rx="22.940073"
         sodipodi:cy="868.9469"
         sodipodi:cx="-223.46025"
         id="path3767"
         style="fill:#ffffff;fill-opacity:1;stroke:none"
         sodipodi:type="arc" />
      <path
         sodipodi:nodetypes="cccczzc"
         inkscape:connector-curvature="0"
         id="path3787"
         d="m 182.17764,949.248 31.07967,61.7941 194.64875,-99.32444 -26.48773,-50.7383 c 0,0 -22.49038,23.83228 -47.82038,32.9011 -25.32998,9.06883 -77.11604,-2.96297 -103.00847,8.77474 -25.89241,11.73773 -48.41184,46.5928 -48.41184,46.5928 z"
         style="fill:#004455;fill-opacity:1;stroke:none;stroke-width:0.46588865px;stroke-linecap:butt;stroke-linejoin:miter;stroke-opacity:1" />
      <g
         id="flowRoot3362"
         style="font-style:normal;font-weight:normal;font-size:40px;line-height:125%;font-family:sans-serif;letter-spacing:0px;word-spacing:0px;fill:#ffffff;fill-opacity:1;stroke:none;stroke-width:1px;stroke-linecap:butt;stroke-linejoin:miter;stroke-opacity:1"
         transform="translate(0,540.70657)">
        <path
           inkscape:connector-curvature="0"
           id="path3371"
           style="font-style:normal;font-variant:normal;font-weight:bold;font-stretch:normal;font-size:80px;font-family:sans-serif;-inkscape-font-specification:'sans-serif Bold';fill:#ffffff"
           d="m 108.79492,111.57392 q 3.55469,0 5.39063,-1.5625 1.83593,-1.5625 1.83593,-4.60938 0,-3.00781 -1.83593,-4.57031 -1.83594,-1.601563 -5.39063,-1.601563 l -8.32031,0 0,12.343753 8.32031,0 z m 0.50781,25.50781 q 4.53125,0 6.79688,-1.91406 2.30469,-1.91407 2.30469,-5.78125 0,-3.78907 -2.26563,-5.66407 -2.26562,-1.91406 -6.83594,-1.91406 l -8.82812,0 0,15.27344 8.82812,0 z m 13.98438,-20.97656 q 4.84375,1.40625 7.5,5.19531 2.65625,3.78906 2.65625,9.29687 0,8.4375 -5.70313,12.57813 -5.70312,4.14062 -17.34375,4.14062 l -24.960933,0 0,-58.320308 22.578123,0 q 12.14844,0 17.57813,3.671875 5.46875,3.671875 5.46875,11.757813 0,4.25781 -1.99219,7.26562 -1.99219,2.96875 -5.78125,4.41407 z" />
        <path
           inkscape:connector-curvature="0"
           id="path3373"
           style="font-style:normal;font-variant:normal;font-weight:bold;font-stretch:normal;font-size:80px;font-family:sans-serif;-inkscape-font-specification:'sans-serif Bold';fill:#ffffff"
           d="m 146.37305,88.995792 19.14062,0 13.28125,31.210938 13.35938,-31.210938 19.10156,0 0,58.320308 -14.21875,0 0,-42.65625 -13.4375,31.44532 -9.53125,0 -13.4375,-31.44532 0,42.65625 -14.25781,0 0,-58.320308 z" />
        <path
           inkscape:connector-curvature="0"
           id="path3375"
           style="font-style:normal;font-variant:normal;font-weight:bold;font-stretch:normal;font-size:80px;font-family:sans-serif;-inkscape-font-specification:'sans-serif Bold';fill:#ffffff"
           d="m 226.06055,88.995792 24.96093,0 q 11.13282,0 17.07032,4.960938 5.97656,4.921875 5.97656,14.0625 0,9.17969 -5.97656,14.14062 -5.9375,4.92188 -17.07032,4.92188 l -9.92187,0 0,20.23437 -15.03906,0 0,-58.320308 z m 15.03906,10.898438 0,16.28906 8.32031,0 q 4.375,0 6.75781,-2.10937 2.38282,-2.14844 2.38282,-6.05469 0,-3.90625 -2.38282,-6.01563 -2.38281,-2.10937 -6.75781,-2.10937 l -8.32031,0 z" />
      </g>
    </g>
  </g>
</svg>
