<?xml version="1.0" encoding="UTF-8" standalone="no"?>
<!-- Created with Inkscape (http://www.inkscape.org/) -->

<svg
   xmlns:dc="http://purl.org/dc/elements/1.1/"
   xmlns:cc="http://creativecommons.org/ns#"
   xmlns:rdf="http://www.w3.org/1999/02/22-rdf-syntax-ns#"
   xmlns:svg="http://www.w3.org/2000/svg"
   xmlns="http://www.w3.org/2000/svg"
   xmlns:sodipodi="http://sodipodi.sourceforge.net/DTD/sodipodi-0.dtd"
   xmlns:inkscape="http://www.inkscape.org/namespaces/inkscape"
   width="500"
   height="500"
   id="svg2"
   version="1.1"
   inkscape:version="0.91 r13725"
   sodipodi:docname="text-x-readme.svg">
  <defs
     id="defs4" />
  <sodipodi:namedview
     id="base"
     pagecolor="#ffffff"
     bordercolor="#666666"
     borderopacity="1.0"
     inkscape:pageopacity="0.0"
     inkscape:pageshadow="2"
     inkscape:zoom="0.4289781"
     inkscape:cx="613.60379"
     inkscape:cy="311.37818"
     inkscape:document-units="px"
     inkscape:current-layer="layer1"
     showgrid="false"
     inkscape:window-width="1366"
     inkscape:window-height="715"
     inkscape:window-x="0"
     inkscape:window-y="24"
     inkscape:window-maximized="1" />
  <metadata
     id="metadata7">
    <rdf:RDF>
      <cc:Work
         rdf:about="">
        <dc:format>image/svg+xml</dc:format>
        <dc:type
           rdf:resource="http://purl.org/dc/dcmitype/StillImage" />
        <dc:title />
      </cc:Work>
    </rdf:RDF>
  </metadata>
  <g
     inkscape:label="Layer 1"
     inkscape:groupmode="layer"
     id="layer1"
     transform="translate(0,-552.36218)">
    <g
       id="g4226">
      <path
         sodipodi:nodetypes="ccccc"
         inkscape:connector-curvature="0"
         id="path4230"
         d="m 63.190691,706.79484 53.222039,52.09856 -1.66005,-73.04185 -51.600949,-0.2451 z"
         style="fill:#1a1a1a;fill-rule:evenodd;stroke:none;stroke-width:1px;stroke-linecap:butt;stroke-linejoin:miter;stroke-opacity:1" />
      <path
         inkscape:connector-curvature="0"
         id="path3364"
         d="m 96.901311,1029.8357 336.888419,-1.1739 1.1737,-363.88664 -88.03698,-89.21086 -250.025139,0 z"
         style="fill:#f2f2f2;fill-rule:evenodd;stroke:#afafaf;stroke-width:5.03546047;stroke-linecap:butt;stroke-linejoin:miter;stroke-miterlimit:4;stroke-dasharray:none;stroke-opacity:1" />
      <path
         sodipodi:nodetypes="cccc"
         inkscape:connector-curvature="0"
         id="path4166"
         d="m 431.37943,662.931 -82.16428,-0.58691 0.7585,-83.80351 z"
         style="fill:#afafaf;fill-opacity:1;fill-rule:evenodd;stroke:#afafaf;stroke-width:5.03546047;stroke-linecap:butt;stroke-linejoin:miter;stroke-miterlimit:4;stroke-dasharray:none;stroke-opacity:1" />
      <rect
         y="622.18713"
         x="63"
         height="84.350876"
         width="272.65506"
         id="rect4228"
         style="fill:#394050;fill-opacity:1;stroke:none;stroke-width:5;stroke-miterlimit:4;stroke-dasharray:none;stroke-opacity:1" />
      <g
         transform="matrix(1.1384616,0,0,1.1384616,-35.426881,-142.25016)"
         id="g4145">
        <path
           sodipodi:type="arc"
           style="fill:#ffcc00;fill-opacity:1;stroke:#394050;stroke-width:13.15789509;stroke-miterlimit:4;stroke-dasharray:none;stroke-opacity:1"
           id="path3766"
           sodipodi:cx="261.81317"
           sodipodi:cy="902.36218"
           sodipodi:rx="118.42105"
           sodipodi:ry="118.42105"
           d="M 380.23422,902.36218 A 118.42105,118.42105 0 0 1 261.82472,1020.7832 118.42105,118.42105 0 0 1 143.39212,902.38528 118.42105,118.42105 0 0 1 261.77853,783.94114 118.42105,118.42105 0 0 1 380.23421,902.316"
           sodipodi:start="0"
           sodipodi:end="6.2827953"
           sodipodi:open="true" />
        <path
           style="fill:#394050;stroke:none"
           d="m 227.38227,885.07096 55.26909,-0.15928 0.40632,73.7761 c 0,0 -0.1526,1.91325 1.27092,3.46908 1.42353,1.55583 2.83993,1.59908 2.83993,1.59908 l 12.33252,0.0567 0.11264,8.95376 -70.22219,-0.1689 -0.11264,-9.06644 14.35979,0.0567 c 0,0 1.99389,-0.24283 3.13608,-1.87575 1.14217,-1.633 0.86215,-3.41765 0.86215,-3.41765 l -0.0563,-59.63536 c 0,0 0.194,-1.48914 -1.84665,-3.23121 -2.04066,-1.74208 -3.95358,-1.55538 -3.95358,-1.55538 l -14.30347,-0.16893 z"
           id="path3779"
           inkscape:connector-curvature="0"
           sodipodi:nodetypes="ccczcccccczcczccc" />
        <path
           sodipodi:type="arc"
           style="fill:#394050;fill-opacity:1;stroke:none"
           id="path2997-3"
           sodipodi:cx="263.09631"
           sodipodi:cy="854.34985"
           sodipodi:rx="20.079031"
           sodipodi:ry="20.472738"
           d="m 283.17534,854.34985 a 20.079031,20.472738 0 0 1 -20.05546,20.47273 20.079031,20.472738 0 0 1 -20.10254,-20.42467 20.079031,20.472738 0 0 1 20.00827,-20.52067 20.079031,20.472738 0 0 1 20.14951,20.3765"
           sodipodi:start="0"
           sodipodi:end="6.2784904"
           sodipodi:open="true" />
      </g>
      <g
         id="flowRoot4158"
         style="font-style:normal;font-weight:normal;font-size:40px;line-height:125%;font-family:sans-serif;letter-spacing:0px;word-spacing:0px;fill:#ffffff;fill-opacity:1;stroke:none;stroke-width:1px;stroke-linecap:butt;stroke-linejoin:miter;stroke-opacity:1"
         transform="matrix(1.4147204,0,0,1.4147204,108.71831,676.47838)">
        <path
           inkscape:connector-curvature="0"
           id="path4167"
           style="font-style:normal;font-variant:normal;font-weight:bold;font-stretch:normal;font-family:sans-serif;-inkscape-font-specification:'sans-serif Bold';fill:#ffffff"
           d="m -16.962891,-11.251127 q 2.363282,0 3.378907,-0.878907 1.035156,-0.878906 1.035156,-2.890625 0,-1.992187 -1.035156,-2.851562 -1.015625,-0.859375 -3.378907,-0.859375 l -3.164062,0 0,7.480469 3.164062,0 z m -3.164062,5.1953122 0,11.0351562 -7.519531,0 0,-29.1601564 11.484375,0 q 5.761718,0 8.4374996,1.933594 2.6953125,1.933594 2.6953125,6.113281 0,2.890625 -1.40625,4.746094 -1.3867187,1.8554687 -4.1992191,2.7343749 1.5429691,0.3515625 2.7539066,1.6015625 1.2304688,1.2304688 2.4804688,3.75 l 4.0820312,8.28125 -8.0078125,0 -3.5546871,-7.2460937 q -1.074219,-2.1875 -2.1875,-2.9882813 -1.09375,-0.8007812 -2.929688,-0.8007812 l -2.128906,0 z" />
        <path
           inkscape:connector-curvature="0"
           id="path4169"
           style="font-style:normal;font-variant:normal;font-weight:bold;font-stretch:normal;font-family:sans-serif;-inkscape-font-specification:'sans-serif Bold';fill:#ffffff"
           d="m 3.1347656,-24.180815 20.2929684,0 0,5.683594 -12.773437,0 0,5.429687 12.011719,0 0,5.6835942 -12.011719,0 0,6.67968749 13.203125,0 0,5.68359371 -20.7226564,0 0,-29.1601564 z" />
        <path
           inkscape:connector-curvature="0"
           id="path4171"
           style="font-style:normal;font-variant:normal;font-weight:bold;font-stretch:normal;font-family:sans-serif;-inkscape-font-specification:'sans-serif Bold';fill:#ffffff"
           d="m 48.173828,-0.33315856 -11.757812,0 -1.855469,5.31249996 -7.558594,0 10.800781,-29.1601564 8.964844,0 10.800781,29.1601564 -7.558593,0 -1.835938,-5.31249996 z m -9.882812,-5.41015624 7.988281,0 -3.984375,-11.6015622 -4.003906,11.6015622 z" />
        <path
           inkscape:connector-curvature="0"
           id="path4173"
           style="font-style:normal;font-variant:normal;font-weight:bold;font-stretch:normal;font-family:sans-serif;-inkscape-font-specification:'sans-serif Bold';fill:#ffffff"
           d="m 68.935547,-18.497221 0,17.79296869 2.695312,0 q 4.609375,0 7.03125,-2.28515629 2.441407,-2.2851562 2.441407,-6.640625 0,-4.3359374 -2.421875,-6.6015624 -2.421875,-2.265625 -7.050782,-2.265625 l -2.695312,0 z m -7.519531,-5.683594 7.929687,0 q 6.640625,0 9.882813,0.957031 3.261718,0.9375 5.585937,3.203125 2.050781,1.972657 3.046875,4.550782 0.996094,2.578125 0.996094,5.8398434 0,3.3007813 -0.996094,5.8984375 -0.996094,2.578125 -3.046875,4.55078129 -2.34375,2.26562501 -5.625,3.22265621 -3.28125,0.9375 -9.84375,0.9375 l -7.929687,0 0,-29.1601564 z" />
        <path
           inkscape:connector-curvature="0"
           id="path4175"
           style="font-style:normal;font-variant:normal;font-weight:bold;font-stretch:normal;font-family:sans-serif;-inkscape-font-specification:'sans-serif Bold';fill:#ffffff"
           d="m 94.619141,-24.180815 9.570309,0 6.64063,15.6054689 6.67969,-15.6054689 9.55078,0 0,29.1601564 -7.10938,0 0,-21.3281254 -6.71875,15.72265669 -4.76562,0 -6.71875,-15.72265669 0,21.3281254 -7.128909,0 0,-29.1601564 z" />
        <path
           inkscape:connector-curvature="0"
           id="path4177"
           style="font-style:normal;font-variant:normal;font-weight:bold;font-stretch:normal;font-family:sans-serif;-inkscape-font-specification:'sans-serif Bold';fill:#ffffff"
           d="m 134.46289,-24.180815 20.29297,0 0,5.683594 -12.77344,0 0,5.429687 12.01172,0 0,5.6835942 -12.01172,0 0,6.67968749 13.20313,0 0,5.68359371 -20.72266,0 0,-29.1601564 z" />
      </g>
    </g>
  </g>
</svg>
