<?xml version="1.0" encoding="UTF-8" standalone="no"?>
<!-- Created with Inkscape (http://www.inkscape.org/) -->

<svg
   xmlns:dc="http://purl.org/dc/elements/1.1/"
   xmlns:cc="http://creativecommons.org/ns#"
   xmlns:rdf="http://www.w3.org/1999/02/22-rdf-syntax-ns#"
   xmlns:svg="http://www.w3.org/2000/svg"
   xmlns="http://www.w3.org/2000/svg"
   xmlns:sodipodi="http://sodipodi.sourceforge.net/DTD/sodipodi-0.dtd"
   xmlns:inkscape="http://www.inkscape.org/namespaces/inkscape"
   width="500"
   height="500"
   id="svg2"
   version="1.1"
   inkscape:version="0.91 r13725"
   sodipodi:docname="video-3gpp.svg">
  <defs
     id="defs4" />
  <sodipodi:namedview
     id="base"
     pagecolor="#ffffff"
     bordercolor="#666666"
     borderopacity="1.0"
     inkscape:pageopacity="0.0"
     inkscape:pageshadow="2"
     inkscape:zoom="0.85795622"
     inkscape:cx="255.91833"
     inkscape:cy="341.52459"
     inkscape:document-units="px"
     inkscape:current-layer="layer1"
     showgrid="false"
     inkscape:window-width="1366"
     inkscape:window-height="715"
     inkscape:window-x="0"
     inkscape:window-y="24"
     inkscape:window-maximized="1" />
  <metadata
     id="metadata7">
    <rdf:RDF>
      <cc:Work
         rdf:about="">
        <dc:format>image/svg+xml</dc:format>
        <dc:type
           rdf:resource="http://purl.org/dc/dcmitype/StillImage" />
        <dc:title />
      </cc:Work>
    </rdf:RDF>
  </metadata>
  <g
     inkscape:label="Layer 1"
     inkscape:groupmode="layer"
     id="layer1"
     transform="translate(0,-552.36218)">
    <g
       id="g4191">
      <path
         sodipodi:nodetypes="ccccc"
         inkscape:connector-curvature="0"
         id="path4230"
         d="M 63.03896,706.21214 116.261,758.3107 114.60095,685.26885 63,685.02375 Z"
         style="fill:#002029;fill-opacity:1;fill-rule:evenodd;stroke:none;stroke-width:1px;stroke-linecap:butt;stroke-linejoin:miter;stroke-opacity:1" />
      <path
         inkscape:connector-curvature="0"
         id="path3364"
         d="m 97.04097,1029.8357 336.88839,-1.1739 1.17376,-363.88656 -88.03696,-89.21086 -250.02519,0 z"
         style="fill:#f2f2f2;fill-rule:evenodd;stroke:#afafaf;stroke-width:5.03546047;stroke-linecap:butt;stroke-linejoin:miter;stroke-miterlimit:4;stroke-dasharray:none;stroke-opacity:1" />
      <path
         sodipodi:nodetypes="cccc"
         inkscape:connector-curvature="0"
         id="path4166"
         d="m 431.51909,662.93108 -82.16431,-0.58691 0.75853,-83.80351 z"
         style="fill:#afafaf;fill-opacity:1;fill-rule:evenodd;stroke:#afafaf;stroke-width:5.03546047;stroke-linecap:butt;stroke-linejoin:miter;stroke-miterlimit:4;stroke-dasharray:none;stroke-opacity:1" />
      <rect
         y="622.18719"
         x="63.139648"
         height="84.350876"
         width="247.92003"
         id="rect4228"
         style="fill:#004455;fill-opacity:1;stroke:none;stroke-width:5;stroke-miterlimit:4;stroke-dasharray:none;stroke-opacity:1" />
      <g
         id="g4171">
        <path
           inkscape:connector-curvature="0"
           style="fill:#004455;fill-opacity:1;stroke:none"
           d="m 146.46594,793.49695 0,233.76635 233.76623,0 0,-233.76635 -233.76623,0 z m 17.53247,17.53246 17.53247,0 0,17.53247 -17.53247,0 0,-17.53247 z m 181.16883,0 17.53247,0 0,17.53247 -17.53247,0 0,-17.53247 z m -181.16883,43.83117 17.53247,0 0,17.53247 -17.53247,0 0,-17.53247 z m 181.16883,0 17.53247,0 0,17.53247 -17.53247,0 0,-17.53247 z m -181.16883,46.75325 17.53247,0 0,17.53247 -17.53247,0 0,-17.53247 z m 181.16883,0 17.53247,0 0,17.53247 -17.53247,0 0,-17.53247 z m -181.16883,46.75325 17.53247,0 0,17.53251 -17.53247,0 0,-17.53251 z m 181.16883,0 17.53247,0 0,17.53251 -17.53247,0 0,-17.53251 z m -181.16883,43.83121 17.53247,0 0,17.53251 -17.53247,0 0,-17.53251 z m 181.16883,0 17.53247,0 0,17.53251 -17.53247,0 0,-17.53251 z"
           id="rect4197-3" />
        <rect
           style="fill:#00bbf2;fill-opacity:1;stroke:none"
           id="rect4323-6"
           width="128.57137"
           height="90.584404"
           x="199.68207"
           y="811.47137" />
        <rect
           style="fill:#00bbf2;fill-opacity:1;stroke:none"
           id="rect4325-7"
           width="128.57137"
           height="90.584419"
           x="199.06335"
           y="919.1463" />
        <path
           style="fill:#f03916;fill-opacity:0.94117647;fill-rule:evenodd;stroke:none;stroke-width:1px;stroke-linecap:butt;stroke-linejoin:miter;stroke-opacity:1"
           d="m 247.35651,1010.0512 c 0,0 2.86215,-30.71269 26.16295,-50.91177 23.3008,-20.19908 54.44722,-13.43503 54.44722,-13.43503 l -0.29289,64.5968 z"
           id="path4167"
           inkscape:connector-curvature="0"
           sodipodi:nodetypes="czccc" />
        <path
           style="fill:#f03916;fill-opacity:0.94117647;fill-rule:evenodd;stroke:none;stroke-width:1px;stroke-linecap:butt;stroke-linejoin:miter;stroke-opacity:1"
           d="m 229.09906,811.13007 c 0,0 -0.28499,9.08166 7.25,18.25 7.53499,9.16834 15.73483,10.7045 15.73483,10.7045 l -0.23483,20.2955 9,0 0.25,-20.25 c 0,0 7.08078,-0.72073 15.25,-9.25 8.16922,-8.52927 7.5,-20 7.5,-20 z"
           id="path4169"
           inkscape:connector-curvature="0"
           sodipodi:nodetypes="czcccczcc" />
        <rect
           style="fill:#d45500;fill-opacity:0.94117647;stroke:none;stroke-opacity:1"
           id="rect4171"
           width="9.1923885"
           height="7.0710678"
           x="251.59915"
           y="863.07642" />
      </g>
      <g
         id="flowRoot4164"
         style="font-style:normal;font-weight:normal;font-size:40px;line-height:125%;font-family:sans-serif;letter-spacing:0px;word-spacing:0px;fill:#000000;fill-opacity:1;stroke:none;stroke-width:1px;stroke-linecap:butt;stroke-linejoin:miter;stroke-opacity:1"
         transform="translate(0.317849,543.03769)">
        <path
           inkscape:connector-curvature="0"
           id="path4173"
           style="font-style:normal;font-variant:normal;font-weight:bold;font-stretch:normal;font-size:80px;font-family:sans-serif;-inkscape-font-specification:'sans-serif Bold';fill:#ffffff"
           d="m 139.83594,119.36884 q 5.89843,1.52344 8.94531,5.3125 3.08594,3.75 3.08594,9.57031 0,8.67188 -6.64063,13.20313 -6.64062,4.49218 -19.375,4.49218 -4.49218,0 -9.02343,-0.74218 -4.49219,-0.70313 -8.90625,-2.14844 l 0,-11.60156 q 4.21875,2.10937 8.35937,3.20312 4.17969,1.05469 8.20313,1.05469 5.97656,0 9.14062,-2.07031 3.20312,-2.07032 3.20312,-5.9375 0,-3.98438 -3.28125,-6.01563 -3.24218,-2.07031 -9.60937,-2.07031 l -6.01562,0 0,-9.6875 6.32812,0 q 5.66406,0 8.4375,-1.75781 2.77344,-1.79688 2.77344,-5.42969 0,-3.35938 -2.69532,-5.19531 -2.69531,-1.83594 -7.61718,-1.83594 -3.63281,0 -7.34375,0.82031 -3.71094,0.82031 -7.38281,2.42188 l 0,-11.015628 q 4.45312,-1.25 8.82812,-1.875 4.375,-0.625 8.59375,-0.625 11.36719,0 16.99219,3.75 5.66406,3.710937 5.66406,11.210938 0,5.11719 -2.69531,8.39844 -2.69532,3.24218 -7.96875,4.57031 z" />
        <path
           inkscape:connector-curvature="0"
           id="path4175"
           style="font-style:normal;font-variant:normal;font-weight:bold;font-stretch:normal;font-size:80px;font-family:sans-serif;-inkscape-font-specification:'sans-serif Bold';fill:#ffffff"
           d="m 217.96094,146.47821 q -5.625,2.73438 -11.67969,4.10157 -6.05469,1.36718 -12.5,1.36718 -14.57031,0 -23.08594,-8.125 -8.51562,-8.16406 -8.51562,-22.10937 0,-14.10156 8.67187,-22.187501 8.67188,-8.085937 23.75,-8.085937 5.82031,0 11.13281,1.09375 5.35157,1.09375 10.07813,3.242187 l 0,12.070311 q -4.88281,-2.77344 -9.72656,-4.14062 -4.80469,-1.36719 -9.64844,-1.36719 -8.98438,0 -13.86719,5.03906 -4.84375,5 -4.84375,14.33594 0,9.25781 4.6875,14.29687 4.6875,5.03907 13.32031,5.03907 2.34375,0 4.33594,-0.27344 2.03125,-0.3125 3.63281,-0.9375 l 0,-11.32813 -9.17968,0 0,-10.07812 23.4375,0 0,28.04687 z" />
        <path
           inkscape:connector-curvature="0"
           id="path4177"
           style="font-style:normal;font-variant:normal;font-weight:bold;font-stretch:normal;font-size:80px;font-family:sans-serif;-inkscape-font-specification:'sans-serif Bold';fill:#ffffff"
           d="m 231.16406,92.493839 24.96094,0 q 11.13281,0 17.07031,4.960938 5.97656,4.921873 5.97656,14.062503 0,9.17968 -5.97656,14.14062 -5.9375,4.92188 -17.07031,4.92188 l -9.92188,0 0,20.23437 -15.03906,0 0,-58.320311 z m 15.03906,10.898441 0,16.28906 8.32032,0 q 4.375,0 6.75781,-2.10938 2.38281,-2.14843 2.38281,-6.05468 0,-3.90625 -2.38281,-6.01563 -2.38281,-2.10937 -6.75781,-2.10937 l -8.32032,0 z" />
      </g>
    </g>
  </g>
</svg>
