/* XPM */
static char * button_pressed_xpm[] = {
"46 39 7 1",
" 	c None",
".	c #FF5599",
"+	c #FF5E9E",
"@	c #FF81B3",
"#	c #FF9EC4",
"$	c #FF6DA7",
"%	c #FFA5C9",
"..............................................",
"..............................................",
"..............................................",
"..............................................",
"..............................................",
"..............................................",
"..+@##@+......................................",
".$%%%%%%$.....................................",
"+%%%%%%%%+....................................",
"@%%%%%%%%@....................................",
"#%%%%%%%%#....................................",
"#%%%%%%%%#....................................",
"@%%%%%%%%@....................................",
"+%%%%%%%%+....................................",
".$%%%%%%$.....................................",
"..+@##@+......................................",
"..............................................",
"..............................................",
"..............................................",
"..............................................",
"..............................................",
"..............................................",
"..............................................",
"..............................................",
"..............................................",
"..............................................",
"..............................................",
"..............................................",
"..............................................",
"..............................................",
"..............................................",
"..............................................",
"..............................................",
"..............................................",
"..............................................",
"..............................................",
"..............................................",
"..............................................",
".............................................."};
