/* XPM */
static char * stick_xpm[] = {
"46 39 42 1",
" 	c None",
".	c #C7D6C4",
"+	c #FFFFFF",
"@	c #FBFCFB",
"#	c #C9D7C6",
"$	c #E7EDE5",
"%	c #C8D7C4",
"&	c #D1DDCE",
"*	c #F3F6F2",
"=	c #C7D7C4",
"-	c #DEE7DC",
";	c #C8D7C5",
">	c #FDFEFD",
",	c #CAD8C7",
"'	c #EBF0EA",
")	c #D4DFD1",
"!	c #F7F9F6",
"~	c #E0E8DF",
"{	c #FEFEFE",
"]	c #CCDAC9",
"^	c #EEF2ED",
"/	c #D7E2D5",
"(	c #F9FBF9",
"_	c #E5ECE3",
":	c #CFDCCC",
"<	c #F1F5F0",
"[	c #DBE5D9",
"}	c #FCFDFB",
"|	c #E8EEE6",
"1	c #D1DECF",
"2	c #F5F8F4",
"3	c #DFE7DD",
"4	c #D6E1D3",
"5	c #F8FAF7",
"6	c #E2E9E0",
"7	c #CDDACA",
"8	c #EFF3EE",
"9	c #D9E3D7",
"0	c #FAFCFA",
"a	c #E6ECE4",
"b	c #D0DDCE",
"c	c #DCE6DA",
"..............................................",
"..............................................",
"..............................................",
"+@#...........................................",
"++$%..........................................",
"+++&..........................................",
"+++*=.........................................",
"++++-;........................................",
"++++>,........................................",
"+++++';.......................................",
"++++++).......................................",
"++++++!;......................................",
"+++++++~......................................",
"+++++++{].....................................",
"++++++++^;....................................",
"+++++++++/....................................",
"+++++++++(....................................",
"++++++++++_;..................................",
"+++++++++++:=.................................",
"+++++++++++<..................................",
"++++++++++++[;................................",
"++++++++++++};................................",
"+++++++++++++|................................",
"++++++++++++++1;..............................",
"++++++++++++++2...............................",
"+++++++++++++++3..............................",
"+++++++++++++++>,;............................",
"++++++++++++++++'.............................",
"+++++++++++++++++4;...........................",
"+++++++++++++++++5............................",
"++++++++++++++++++6;..........................",
"+++++++++++++++++++7..........................",
"+++++++++++++++++++8..........................",
"++++++++++++++++++++9;........................",
"++++++++++++++++++++0.;.......................",
"+++++++++++++++++++++a;.......................",
"++++++++++++++++++++++b.......................",
"++++++++++++++++++++++*.......................",
"+++++++++++++++++++++++c......................"};
