/* XPM */
static char * stick_focus_xpm[] = {
"46 39 24 1",
" 	c None",
".	c #FF5599",
"+	c #FFFFFF",
"@	c #FFE6F0",
"#	c #FFA9CB",
"$	c #FF6BA7",
"%	c #FFD5E6",
"&	c #FF93BE",
"*	c #FFF7FA",
"=	c #FF5C9D",
"-	c #FF559A",
";	c #FFC0D9",
">	c #FF7DB1",
",	c #FFE7F1",
"'	c #FF6BA6",
")	c #FFD4E5",
"!	c #FF92BD",
"~	c #FFF6F9",
"{	c #FFBFD8",
"]	c #FFE7F0",
"^	c #FF7DB2",
"/	c #FFA8CB",
"(	c #FF92BE",
"_	c #FFF6FA",
"..............................................",
"..............................................",
"..............................................",
"+@............................................",
"++#...........................................",
"+++$..........................................",
"+++%..........................................",
"++++&.........................................",
"++++*=-.......................................",
"+++++;........................................",
"++++++>.......................................",
"++++++,.......................................",
"+++++++#......................................",
"++++++++'.....................................",
"++++++++).....................................",
"+++++++++!....................................",
"+++++++++~=-..................................",
"++++++++++{-..................................",
"+++++++++++>..................................",
"+++++++++++]..................................",
"++++++++++++#.................................",
"+++++++++++++'................................",
"+++++++++++++)................................",
"++++++++++++++!...............................",
"++++++++++++++~=..............................",
"+++++++++++++++{-.............................",
"++++++++++++++++^.............................",
"++++++++++++++++].............................",
"+++++++++++++++++/............................",
"++++++++++++++++++'...........................",
"++++++++++++++++++)...........................",
"+++++++++++++++++++(..........................",
"+++++++++++++++++++_=.........................",
"++++++++++++++++++++{-........................",
"+++++++++++++++++++++>........................",
"+++++++++++++++++++++]........................",
"++++++++++++++++++++++/.......................",
"+++++++++++++++++++++++$......................",
"+++++++++++++++++++++++)......................"};
