<?xml version="1.0" encoding="UTF-8" standalone="no"?>
<!-- Generator: flash2svg, http://dissentgraphics.com/tools/flash2svg -->

<svg
   xmlns:dc="http://purl.org/dc/elements/1.1/"
   xmlns:cc="http://creativecommons.org/ns#"
   xmlns:rdf="http://www.w3.org/1999/02/22-rdf-syntax-ns#"
   xmlns:svg="http://www.w3.org/2000/svg"
   xmlns="http://www.w3.org/2000/svg"
   xmlns:sodipodi="http://sodipodi.sourceforge.net/DTD/sodipodi-0.dtd"
   xmlns:inkscape="http://www.inkscape.org/namespaces/inkscape"
   id="Caffeine"
   version="1.1"
   x="0px"
   y="0px"
   width="22"
   height="22"
   viewBox="0 0 22 22"
   enable-background="new 0 0 1024 1024"
   inkscape:version="0.91 r13725"
   sodipodi:docname="caffeine-cup-empty.svg"
   style="image-rendering:optimizeSpeed">
  <metadata
     id="metadata29">
    <rdf:RDF>
      <cc:Work
         rdf:about="">
        <dc:format>image/svg+xml</dc:format>
        <dc:type
           rdf:resource="http://purl.org/dc/dcmitype/StillImage" />
        <dc:title></dc:title>
      </cc:Work>
    </rdf:RDF>
  </metadata>
  <sodipodi:namedview
     pagecolor="#ffffff"
     bordercolor="#666666"
     borderopacity="1"
     objecttolerance="10"
     gridtolerance="10"
     guidetolerance="10"
     inkscape:pageopacity="0"
     inkscape:pageshadow="2"
     inkscape:window-width="1366"
     inkscape:window-height="718"
     id="namedview27"
     showgrid="false"
     inkscape:zoom="7.375"
     inkscape:cx="13.406401"
     inkscape:cy="13.093749"
     inkscape:window-x="0"
     inkscape:window-y="0"
     inkscape:window-maximized="1"
     inkscape:current-layer="Caffeine" />
  <defs
     transform="matrix(1 0 0 1 0 0) "
     id="defs3" />
  <mask
     id="circle1">
    <g
       id="g">
      <g
         id="shape14">
        <path
           id="path9"
           d="m 969.75,392.05 c -1.1,-4.35 -2.35,-9 -3.65,-13.6 -2.5,-8.75 -5.35,-17.6 -8.45,-26.35 -6.45,-18.25 -14.15,-36.05 -23.15,-53.65 -3.8,-7.4 -7.95,-14.95 -12.3,-22.4 l -0.025,0 Q 891.574,224.04 845.85,178.3 C 753.7,86.15 642.4,40.05 512.05,40.05 381.7,40.05 270.45,86.15 178.3,178.3 86.15,270.45 40.05,381.7 40.05,512.05 c 0,130.35 46.1,241.65 138.25,333.8 92.15,92.15 203.4,138.2 333.75,138.2 12.7,0 25.2,-0.45 37.05,-1.25 20.2,-1.45 39.9,-4.05 58.7,-7.7 7.95,-1.55 15.8,-3.3 23.4,-5.15 80.8,-20.3 152.15,-61.6 214.65,-124.1 48.6,-48.6 84.4,-102.5 107.35,-161.8 18.45,-47.65 28.65,-98.8 30.55,-153.5 0.2,-6.05 0.3,-12.25 0.3,-18.5 0,-41.75 -4.7,-81.6 -14.3,-120 z"
           inkscape:connector-curvature="0"
           style="fill:#ffffff;fill-opacity:1" />
      </g>
    </g>
  </mask>
  <g
     id="g3824"
     transform="matrix(0.09676319,0,0,0.09676319,-37.744119,-17.203624)">
    <path
       sodipodi:nodetypes="czcccc"
       inkscape:connector-curvature="0"
       id="path3802"
       d="m 423.87946,225.70995 c 0,0 2.754,-13.59981 79.10255,-13.70996 76.34855,-0.11015 79.39088,14.91526 79.39088,14.91526 l -6.79716,22.77966 -143.01235,0.54237 z"
       style="fill:#ebebeb;stroke:none" />
    <path
       sodipodi:open="true"
       transform="matrix(1.1322175,0,0,2.0956528,182.85569,-365.92345)"
       sodipodi:end="6.2301717"
       sodipodi:start="6.2321105"
       d="m 374.57567,331.68501 a 91.276703,17.833473 0 0 1 -86.45357,18.72022 91.276703,17.833473 0 0 1 -95.85722,-16.88206 91.276703,17.833473 0 0 1 86.36066,-18.73659 91.276703,17.833473 0 0 1 95.94093,16.86391"
       sodipodi:ry="17.833473"
       sodipodi:rx="91.276703"
       sodipodi:cy="332.59546"
       sodipodi:cx="283.418"
       id="path3012"
       style="fill:#ebebeb;fill-opacity:1;stroke:none"
       sodipodi:type="arc" />
    <path
       sodipodi:open="true"
       transform="matrix(0.63928944,0,0,1.1832786,322.89872,-63.858169)"
       sodipodi:end="6.2301717"
       sodipodi:start="6.2321105"
       d="m 374.57567,331.68501 a 91.276703,17.833473 0 0 1 -86.45357,18.72022 91.276703,17.833473 0 0 1 -95.85722,-16.88206 91.276703,17.833473 0 0 1 86.36066,-18.73659 91.276703,17.833473 0 0 1 95.94093,16.86391"
       sodipodi:ry="17.833473"
       sodipodi:rx="91.276703"
       sodipodi:cy="332.59546"
       sodipodi:cx="283.418"
       id="path3012-3"
       style="fill:#808080;fill-opacity:1;stroke:none"
       sodipodi:type="arc" />
    <path
       sodipodi:open="true"
       transform="matrix(0.79080872,0,0,0.9171694,280.69701,-66.933689)"
       sodipodi:end="6.2301717"
       sodipodi:start="6.2321105"
       d="m 374.57567,331.68501 a 91.276703,17.833473 0 0 1 -86.45357,18.72022 91.276703,17.833473 0 0 1 -95.85722,-16.88206 91.276703,17.833473 0 0 1 86.36066,-18.73659 91.276703,17.833473 0 0 1 95.94093,16.86391"
       sodipodi:ry="17.833473"
       sodipodi:rx="91.276703"
       sodipodi:cy="332.59546"
       sodipodi:cx="283.418"
       id="path3012-3-6"
       style="fill:#502d16;fill-opacity:1;stroke:none"
       sodipodi:type="arc" />
    <path
       sodipodi:nodetypes="czzzc"
       inkscape:connector-curvature="0"
       id="path3822"
       d="m 566.62228,287.47788 c 0,0 14.94627,2.2095 21.09335,-1.53407 6.14708,-3.74357 10.29585,-12.1316 10.14954,-18.65667 -0.14632,-6.52506 -3.42782,-11.69813 -8.23196,-14.32566 -4.80414,-2.62753 -15.72414,-0.38352 -15.72414,-0.38352"
       style="fill:none;stroke:#808080;stroke-width:10;stroke-linecap:butt;stroke-linejoin:miter;stroke-miterlimit:4;stroke-dasharray:none;stroke-opacity:1" />
    <path
       sodipodi:nodetypes="czczc"
       inkscape:connector-curvature="0"
       id="path3800"
       d="m 423.78467,225.40287 c 5.54457,63.45845 20.28234,111.70253 77.85366,114.28763 57.57131,2.5851 75.74209,-59.23012 80.92178,-112.75357 0,0 -13.04746,13.5489 -83.98991,12.65601 -70.94245,-0.89289 -74.78553,-14.19007 -74.78553,-14.19007 z"
       style="fill:#cccccc;stroke:none" />
  </g>
</svg>
