<?xml version="1.0" encoding="UTF-8" standalone="no"?>
<!-- Created with Inkscape (http://www.inkscape.org/) -->

<svg
   xmlns:dc="http://purl.org/dc/elements/1.1/"
   xmlns:cc="http://creativecommons.org/ns#"
   xmlns:rdf="http://www.w3.org/1999/02/22-rdf-syntax-ns#"
   xmlns:svg="http://www.w3.org/2000/svg"
   xmlns="http://www.w3.org/2000/svg"
   xmlns:sodipodi="http://sodipodi.sourceforge.net/DTD/sodipodi-0.dtd"
   xmlns:inkscape="http://www.inkscape.org/namespaces/inkscape"
   width="22"
   height="22"
   viewBox="0 0 22 22"
   id="svg2"
   version="1.1"
   inkscape:version="0.91 r13725"
   sodipodi:docname="system-shutdown-panel-restart.svg">
  <defs
     id="defs4" />
  <sodipodi:namedview
     id="base"
     pagecolor="#ffffff"
     bordercolor="#666666"
     borderopacity="1.0"
     inkscape:pageopacity="0.0"
     inkscape:pageshadow="2"
     inkscape:zoom="15.839192"
     inkscape:cx="6.8760763"
     inkscape:cy="11.09446"
     inkscape:document-units="px"
     inkscape:current-layer="layer1"
     showgrid="false"
     units="px"
     inkscape:window-width="1366"
     inkscape:window-height="718"
     inkscape:window-x="0"
     inkscape:window-y="0"
     inkscape:window-maximized="1" />
  <metadata
     id="metadata7">
    <rdf:RDF>
      <cc:Work
         rdf:about="">
        <dc:format>image/svg+xml</dc:format>
        <dc:type
           rdf:resource="http://purl.org/dc/dcmitype/StillImage" />
        <dc:title />
      </cc:Work>
    </rdf:RDF>
  </metadata>
  <g
     inkscape:label="Layer 1"
     inkscape:groupmode="layer"
     id="layer1"
     transform="translate(0,-1030.3622)">
    <g
       id="system-reboot"
       transform="translate(2e-6,1030.3622)">
      <g
         id="g3886">
        <path
           style="fill:#394050;fill-opacity:1;stroke:none"
           d="m 11,2.4999827 0,1 c 4.142136,0 7.5,3.3578644 7.5,7.5000003 0,4.142136 -3.357864,7.5 -7.5,7.5 -4.1421356,0 -7.5,-3.357864 -7.5,-7.5 0,-0.226579 0.010741,-0.437265 0.03125,-0.65625 l 1.15625,1.15625 1.3125,0 -3,-3.0000003 -3,3.0000003 1.28125,0 1.25,-1.21875 C 2.505051,10.521348 2.5,10.754961 2.5,10.999983 c 0,4.69442 3.8055796,8.5 8.5,8.5 4.69442,0 8.5,-3.80558 8.5,-8.5 0,-4.6944207 -3.80558,-8.5000003 -8.5,-8.5000003 z"
           id="path3834"
           inkscape:connector-curvature="0" />
        <path
           inkscape:connector-curvature="0"
           style="fill:#394050;fill-opacity:1;stroke:none"
           d="m 10.499981,6 0,5 1,0 0,-5 z M 9,7.5625 C 7.8062088,8.2545851 7,9.5207915 7,11 c 0,2.209139 1.790861,4 4,4 2.209139,0 4,-1.790861 4,-4 0,-1.4792085 -0.806209,-2.7454149 -2,-3.4375 l 0,1.21875 c 0.608906,0.5490738 1,1.334282 1,2.21875 0,1.656854 -1.343146,3 -3,3 C 9.3431458,14 8,12.656854 8,11 8,10.115532 8.3910945,9.3303238 9,8.78125 Z"
           id="path3852"
           sodipodi:nodetypes="ccccccsssccssscc" />
      </g>
      <rect
         y="-3.5037385e-05"
         x="-2e-06"
         height="22"
         width="22"
         id="rect3890"
         style="fill:#566060;fill-opacity:0;stroke:none" />
    </g>
  </g>
</svg>
