<?xml version="1.0" encoding="UTF-8" standalone="no"?>
<!-- Created with Inkscape (http://www.inkscape.org/) -->

<svg
   xmlns:dc="http://purl.org/dc/elements/1.1/"
   xmlns:cc="http://creativecommons.org/ns#"
   xmlns:rdf="http://www.w3.org/1999/02/22-rdf-syntax-ns#"
   xmlns:svg="http://www.w3.org/2000/svg"
   xmlns="http://www.w3.org/2000/svg"
   xmlns:sodipodi="http://sodipodi.sourceforge.net/DTD/sodipodi-0.dtd"
   xmlns:inkscape="http://www.inkscape.org/namespaces/inkscape"
   id="svg2"
   version="1.1"
   inkscape:version="0.91 r13725"
   width="512"
   height="512"
   sodipodi:docname="configuration_section.svg">
  <metadata
     id="metadata8">
    <rdf:RDF>
      <cc:Work
         rdf:about="">
        <dc:format>image/svg+xml</dc:format>
        <dc:type
           rdf:resource="http://purl.org/dc/dcmitype/StillImage" />
        <dc:title />
      </cc:Work>
    </rdf:RDF>
  </metadata>
  <defs
     id="defs6" />
  <sodipodi:namedview
     pagecolor="#ffffff"
     bordercolor="#666666"
     borderopacity="1"
     objecttolerance="10"
     gridtolerance="10"
     guidetolerance="10"
     inkscape:pageopacity="0"
     inkscape:pageshadow="2"
     inkscape:window-width="1366"
     inkscape:window-height="715"
     id="namedview4"
     showgrid="false"
     inkscape:zoom="0.4609375"
     inkscape:cx="243.40127"
     inkscape:cy="466.01336"
     inkscape:window-x="0"
     inkscape:window-y="24"
     inkscape:window-maximized="1"
     inkscape:current-layer="svg2" />
  <g
     id="g4134">
    <path
       inkscape:connector-curvature="0"
       id="path4148"
       d="m 349.44837,49.269736 c -9.21024,-4.043068 -19.19305,-8.157273 -29.29274,-12.343704 -5.63742,-2.336763 -14.57293,1.175022 -17.00885,6.770305 -6.45944,14.836998 -19.84069,47.255557 -19.84069,47.255557 0,0 -18.57351,-2.79701 -27.93812,-3.04336 -8.37535,-0.22032 -25.09507,1.40392 -25.09507,1.40391 0,0 -10.42654,-26.09697 -19.4307,-48.678151 -1.94004,-4.865363 -11.73358,-8.097195 -16.62876,-6.233685 -40.06244,15.251057 -29.77105,10.60733 -47.00255,18.24538 -5.61418,2.488548 -8.7973,11.571026 -6.46236,17.250806 6.63278,16.1344 18.70097,47.226436 18.70097,47.226436 0,0 -14.67252,10.27707 -21.13237,16.43296 -6.34466,6.04612 -17.12071,19.95416 -17.12071,19.95416 0,0 -30.527585,-14.11567 -46.043689,-20.62745 -5.873159,-2.46485 -15.361339,-0.84761 -17.842125,4.74947 -3.939378,8.88777 -13.420385,30.1731 -18.981296,42.54199 -5.56091,12.36888 -0.4772,19.88814 5.986535,22.68461 18.920015,8.18551 46.041118,20.44573 46.041118,20.44573 0,0 -2.562311,17.64248 -2.780095,26.53264 -0.213817,8.72776 1.449782,26.15256 1.449782,26.15256 0,0 -30.323791,11.14998 -45.511418,18.13489 -6.063288,2.78854 -11.081437,11.54972 -8.993313,17.88844 5.571899,16.91409 11.908871,32.25652 18.27026,45.79751 3.048147,6.48838 13.849694,8.53076 20.610052,6.14587 11.852601,-4.1813 43.819779,-17.74111 43.819779,-17.74111 0,0 10.71171,13.56239 16.66809,19.80485 3.12393,3.27396 8.10654,7.88349 12.30822,11.67454 4.20169,3.79105 7.62178,6.76388 7.62178,6.76388 0,0 -3.24712,7.38621 -7.31888,16.68253 -4.07176,9.29632 -8.97056,20.50174 -12.27192,28.13636 -1.32108,3.05496 -1.49969,7.18368 -0.5903,10.88925 0.9094,3.70558 2.908,6.98812 5.94498,8.34999 14.46037,6.48072 30.76328,13.58652 46.88617,20.5548 2.72659,1.18383 6.46771,0.39148 9.82246,-1.37847 3.35474,-1.76993 6.32266,-4.51734 7.50363,-7.24517 3.25158,-7.51065 8.51931,-19.3907 12.97481,-29.39117 4.45539,-10.00049 8.09865,-18.1223 8.09865,-18.1223 0,0 4.28273,0.84247 9.65109,1.68858 5.36836,0.84609 11.82144,1.69544 16.16067,1.71037 4.10574,0.0141 10.21814,-0.74739 15.30303,-1.51298 5.08487,-0.76561 9.14235,-1.53428 9.14235,-1.53428 0,0 3.50928,9.12187 7.74907,19.97435 4.23981,10.85246 9.21137,23.43491 12.1334,30.35466 1.29022,3.05538 4.05861,5.57808 7.58829,6.93178 3.52968,1.35371 7.81945,1.53767 12.15278,-0.0855 9.09177,-3.40565 16.78889,-6.26248 23.69459,-8.87036 6.9057,-2.60785 13.01976,-4.96534 18.94351,-7.37049 2.91049,-1.18171 5.49669,-3.96568 7.07704,-7.18748 1.58034,-3.22181 2.15622,-6.88165 1.04648,-9.82035 -3.1149,-8.24852 -8.12544,-21.0587 -12.35714,-31.80718 -4.2317,-10.74849 -7.68412,-19.4362 -7.68412,-19.4362 0,0 3.59123,-2.32644 7.94145,-5.3978 4.35022,-3.07135 9.45783,-6.88809 12.49291,-9.86453 3.06019,-3.00108 7.00795,-8.07467 10.18968,-12.39964 3.18176,-4.32458 5.59792,-7.90022 5.59792,-7.90022 0,0 33.46847,15.60761 49.12452,21.82416 5.82009,2.31099 15.28704,0.26347 17.99873,-5.38107 7.98015,-16.61108 13.94106,-30.12674 20.17488,-45.5379 3.77092,-9.32244 -0.82543,-15.8393 -10.47832,-19.97347 -12.53652,-5.36919 -45.85242,-19.44399 -45.85242,-19.44399 0,0 3.07015,-16.69926 3.34249,-25.15232 0.27936,-8.67056 -1.76044,-25.96576 -1.76044,-25.96576 0,0 32.26944,-12.56614 48.23116,-19.2716 10.88161,-4.5713 10.45005,-16.12201 8.92482,-19.52567 -6.339,-14.14593 -11.88879,-30.84194 -17.10971,-43.24189 -2.55304,-6.06361 -11.58986,-10.56901 -17.82599,-8.47232 -12.75521,4.28851 -31.69818,12.65953 -48.69481,19.23077 0,0 -10.50403,-14.36681 -16.72168,-20.68915 -5.86923,-5.96804 -19.26389,-16.10967 -19.26389,-16.10967 0,0 14.84901,-32.322446 21.48025,-48.966356 2.26261,-5.67936 -2.74062,-14.530943 -8.21135,-17.259632 -4.82881,-2.376533 -10.07598,-4.776162 -15.60213,-7.202013 z M 284.84936,183.19153 c 34.33077,14.92853 50.49006,57.75524 40.38984,92.79168 -10.42148,37.37166 -53.52662,59.12088 -90.38859,50.73994 -41.68783,-8.97056 -67.70005,-58.56625 -54.14927,-98.38493 14.02123,-39.64905 63.88307,-61.17075 102.49884,-45.83789 0.55404,0.22279 1.10427,0.45417 1.64918,0.6912 z"
       style="fill:#45d03f;fill-opacity:1;fill-rule:evenodd;stroke:none;stroke-width:0;stroke-linecap:butt;stroke-linejoin:miter;stroke-miterlimit:4;stroke-dasharray:none;stroke-opacity:1" />
    <path
       inkscape:connector-curvature="0"
       id="path3333"
       d="m 301.49878,147.6408 c -0.67861,-0.30636 -1.36191,-0.60277 -2.04951,-0.89015 -56.21305,-23.48748 -128.53521,4.71362 -152.87697,60.84108 -23.42889,54.25928 2.36214,124.71869 56.16083,149.83709 49.59239,23.43496 115.70785,7.08615 146.1166,-39.26453 31.02399,-46.36897 23.36671,-115.5871 -19.6113,-152.00804 -8.29662,-7.44458 -17.55644,-13.92974 -27.73991,-18.51486 z m -16.61574,35.5334 c 34.33078,14.92853 50.49101,57.75766 40.39078,92.79411 -10.42147,37.37166 -53.52829,59.12014 -90.39026,50.7392 -41.68782,-8.97056 -67.69837,-58.56553 -54.14759,-98.38421 14.02124,-39.64904 63.88307,-61.17074 102.49885,-45.83789 0.55404,0.2228 1.10327,0.45189 1.64821,0.68881 z"
       style="fill:#31b42c;fill-opacity:1;fill-rule:evenodd;stroke:#000000;stroke-width:0;stroke-linecap:butt;stroke-linejoin:miter;stroke-miterlimit:4;stroke-dasharray:none;stroke-opacity:1" />
  </g>
</svg>
