/* XPM */
static char * focus_task_xpm[] = {
"134 40 30 1",
" 	c None",
".	c #0F1013",
"+	c #3C1526",
"@	c #681D3E",
"#	c #80234C",
"$	c #8F2655",
"%	c #98295B",
"&	c #9C2A5E",
"*	c #9D2A5E",
"=	c #5B1A37",
"-	c #84244F",
";	c #942859",
">	c #7D224B",
",	c #641C3C",
"'	c #4A172D",
")	c #301320",
"!	c #4F1830",
"~	c #83234E",
"{	c #862450",
"]	c #5E1B39",
"^	c #6A1E40",
"/	c #96285A",
"(	c #8C2654",
"_	c #5F1B3A",
":	c #1C1117",
"<	c #742045",
"[	c #7B224A",
"}	c #371424",
"|	c #9C2A5D",
"1	c #721F44",
"......................................................................................................................................",
"......................................................................................................................................",
"......................................................................................................................................",
"...........+@#$%&****************************************************************************************************&%$#@+...........",
".........=-*;>,')....................................................................................................)',>;*-=.........",
".......!~*{]..............................................................................................................]{*~!.......",
"......^/(_.................................................................................................................._(/^......",
"....:<*[}....................................................................................................................}[*<:....",
"....<|1........................................................................................................................1|<....",
"...^*1..........................................................................................................................1*^...",
"..!/[............................................................................................................................[/!..",
"..~(}............................................................................................................................}(~..",
".=*_.............................................................................................................................._*=.",
".-{................................................................................................................................{-.",
"+*]................................................................................................................................]*+",
"@;..................................................................................................................................;@",
"#>..................................................................................................................................>#",
"$,..................................................................................................................................,$",
"%'..................................................................................................................................'%",
"&)..................................................................................................................................)&",
"&)..................................................................................................................................)&",
"%'..................................................................................................................................'%",
"$,..................................................................................................................................,$",
"#>..................................................................................................................................>#",
"@;..................................................................................................................................;@",
"+*]................................................................................................................................]*+",
".-{................................................................................................................................{-.",
".=*_.............................................................................................................................._*=.",
"..~(}............................................................................................................................}(~..",
"..!/[............................................................................................................................[/!..",
"...^*1..........................................................................................................................1*^...",
"....<|1........................................................................................................................1|<....",
"....:<*[}....................................................................................................................}[*<:....",
"......^/(_.................................................................................................................._(/^......",
".......!~*{]..............................................................................................................]{*~!.......",
".........=-*;>,')....................................................................................................)',>;*-=.........",
"...........+@#$%&****************************************************************************************************&%$#@+...........",
"......................................................................................................................................",
"......................................................................................................................................",
"......................................................................................................................................"};
