/* XPM */
static char * unselected_hilite_xpm[] = {
"30 30 10 1",
" 	c None",
".	c #0F1013",
"+	c #43162A",
"@	c #762047",
"#	c #8F2756",
"$	c #9B295D",
"%	c #6A1E3F",
"&	c #96285A",
"*	c #9D2A5E",
"=	c #99295C",
"..............................",
"..............................",
"..............................",
"..............................",
"..............................",
"..............................",
"..............................",
"..............................",
"...........+@#$$#@+...........",
"..........%&******&%..........",
".........%=********=%.........",
"........+&**********&+........",
"........@************@........",
"........#************#........",
"........$************$........",
"........$************$........",
"........#************#........",
"........@************@........",
"........+&**********&+........",
".........%=********=%.........",
"..........%&******&%..........",
"...........+@#$$#@+...........",
"..............................",
"..............................",
"..............................",
"..............................",
"..............................",
"..............................",
"..............................",
".............................."};
