/* XPM */
static char * unselected_xpm[] = {
"30 30 15 1",
" 	c None",
".	c #0F1013",
"+	c #43162A",
"@	c #762047",
"#	c #8F2756",
"$	c #9B295D",
"%	c #6A1E3F",
"&	c #96285A",
"*	c #912757",
"=	c #6F1F43",
"-	c #49172D",
";	c #99295C",
">	c #7B224A",
",	c #371424",
"'	c #29121C",
"..............................",
"..............................",
"..............................",
"..............................",
"..............................",
"..............................",
"..............................",
"..............................",
"...........+@#$$#@+...........",
"..........%&*=--=*&%..........",
".........%;>,....,>;%.........",
"........+&>'......'>&+........",
"........@*,........,*@........",
"........#=..........=#........",
"........$-..........-$........",
"........$-..........-$........",
"........#=..........=#........",
"........@*,........,*@........",
"........+&>'......'>&+........",
".........%;>,....,>;%.........",
"..........%&*=--=*&%..........",
"...........+@#$$#@+...........",
"..............................",
"..............................",
"..............................",
"..............................",
"..............................",
"..............................",
"..............................",
".............................."};
