/* XPM */
static char * Stuck_xpm[] = {
"30 30 24 1",
" 	c None",
".	c #0F1013",
"+	c #361423",
"@	c #6F1F42",
"#	c #8A2552",
"$	c #99295B",
"%	c #9E2A5E",
"&	c #6A1E3F",
"*	c #952858",
"=	c #97285A",
"-	c #782147",
";	c #551933",
">	c #2F131F",
",	c #752045",
"'	c #7C224A",
")	c #3D1526",
"!	c #731F44",
"~	c #341322",
"{	c #762046",
"]	c #932758",
"^	c #85244F",
"/	c #892552",
"(	c #571A35",
"_	c #121014",
"..............................",
"..............................",
"..............................",
"..............................",
"..............................",
"..............................",
"...........+@#$%$#@+..........",
"..........&*=-;>;-=*&.........",
".........,%').....)'%,........",
"........&%!.........!%&.......",
".......+*'..~{]%]{~..'*+......",
".......@=).~^%%%%%^~.)=@......",
".......#-..{%/(_(/%{..-#......",
".......$;..]%(...(%]..;$......",
"%%%%%%%%>..%%_..._%%..>%%%%%%%",
".......$;..]%(...(%]..;$......",
".......#-..{%/(_(/%{..-#......",
".......@=).~^%%%%%^~.)=@......",
".......+*'..~{]%]{~..'*+......",
"........&%!.........!%&.......",
".........,%').....)'%,........",
"..........&*=-;>;-=*&.........",
"...........+@#$%$#@+..........",
"..............................",
"..............................",
"..............................",
"..............................",
"..............................",
"..............................",
".............................."};
