<svg xmlns="http://www.w3.org/2000/svg" xmlns:xlink="http://www.w3.org/1999/xlink" width="48" height="48">
  <defs id="acyl-settings">
    <linearGradient x1="0%" y1="0%" x2="0%" y2="100%" id="acyl-gradient">
      <stop offset="0%" style="stop-color:#636EAE;stop-opacity:1.000000"/>
      <stop offset="50%" style="stop-color:#829C7F;stop-opacity:1.000000"/>
      <stop offset="100%" style="stop-color:#D73E7F;stop-opacity:1.000000"/>
    </linearGradient>
    <g id="acyl-filter">
  </g>
    <g id="acyl-drawing">
      <path d="M 13.107548,4.6 C 12.706816,4.6 12.4,4.9076122 12.4,5.2938199 L 12.4,41.906175 C 12.4,42.292387 12.706816,42.6 13.107548,42.6 L 23.862266,42.6 L 36.4,30.778368 L 36.4,16.768546 L 23.494823,4.6 L 13.107548,4.6 z M 25.532071,4.6 L 36.4,14.847192 L 36.4,5.2938199 C 36.4,4.9076122 36.06488,4.6 35.664153,4.6 L 25.532071,4.6 z M 36.4,32.69972 L 25.9,42.6 L 35.664153,42.6 C 36.06489,42.6 36.4,42.292387 36.4,41.906175 L 36.4,32.69972 z" id="path-main"/>
    </g>
  </defs>
  <g id="acyl-visual">
    <use id="visible1" transform="translate(24,24) scale(1.00) translate(-24,-24)" style="fill:rgb(0,0,0);fill-opacity:0.00;stroke:url(#acyl-gradient);stroke-width:1.00" xlink:href="#acyl-drawing"/>
  </g>
</svg>
