<svg xmlns="http://www.w3.org/2000/svg" xmlns:xlink="http://www.w3.org/1999/xlink" width="48" height="48">
  <defs id="acyl-settings">
    <linearGradient x1="0%" y1="0%" x2="0%" y2="100%" id="acyl-gradient">
      <stop offset="0%" style="stop-color:#636EAE;stop-opacity:1.000000"/>
      <stop offset="50%" style="stop-color:#829C7F;stop-opacity:1.000000"/>
      <stop offset="100%" style="stop-color:#D73E7F;stop-opacity:1.000000"/>
    </linearGradient>
    <g id="acyl-filter">
  </g>
    <g id="acyl-drawing">
      <path d="M 12.71875,5 C 12.318018,5 12,5.3012923 12,5.6875 L 12,42.3125 C 12,42.698712 12.318018,43 12.71875,43 L 23.46875,43 L 36,31.1875 L 36,17.15625 L 23.09375,5 L 12.71875,5 z M 25.125,5 L 36,15.25 L 36,5.6875 C 36,5.3012922 35.650727,5 35.25,5 L 25.125,5 z M 21.375,14 L 26.625,14 C 26.833019,14 27.000001,14.151384 27,14.34375 L 27,21 L 33.65625,21 C 33.848618,21 33.999999,21.166979 34,21.375 L 34,26.625 C 34,26.833024 33.848617,27 33.65625,27 L 27,27 L 27,33.65625 C 27,33.848619 26.833023,34 26.625,34 L 21.375,34 C 21.166978,34 21.000001,33.848619 21,33.65625 L 21,27 L 14.34375,27 C 14.151381,27 14,26.833024 14,26.625 L 14,21.375 C 14,21.16698 14.151381,21 14.34375,21 L 21,21 L 21,14.34375 C 21,14.151383 21.166978,14 21.375,14 z M 36,33.09375 L 25.5,43 L 35.25,43 C 35.650737,43 36,42.698712 36,42.3125 L 36,33.09375 z" id="path-main"/>
    </g>
  </defs>
  <g id="acyl-visual">
    <use id="visible1" transform="translate(24,24) scale(1.00) translate(-24,-24)" style="fill:rgb(0,0,0);fill-opacity:0.00;stroke:url(#acyl-gradient);stroke-width:1.00" xlink:href="#acyl-drawing"/>
  </g>
</svg>
