<?xml version="1.0" encoding="UTF-8" standalone="no"?>
<!-- Created with Inkscape (http://www.inkscape.org/) -->

<svg
   xmlns:dc="http://purl.org/dc/elements/1.1/"
   xmlns:cc="http://creativecommons.org/ns#"
   xmlns:rdf="http://www.w3.org/1999/02/22-rdf-syntax-ns#"
   xmlns:svg="http://www.w3.org/2000/svg"
   xmlns="http://www.w3.org/2000/svg"
   xmlns:sodipodi="http://sodipodi.sourceforge.net/DTD/sodipodi-0.dtd"
   xmlns:inkscape="http://www.inkscape.org/namespaces/inkscape"
   id="svg2"
   version="1.1"
   inkscape:version="0.91 r13725"
   width="512"
   height="512"
   sodipodi:docname="system.svg"
   viewBox="0 0 512 512">
  <metadata
     id="metadata8">
    <rdf:RDF>
      <cc:Work
         rdf:about="">
        <dc:format>image/svg+xml</dc:format>
        <dc:type
           rdf:resource="http://purl.org/dc/dcmitype/StillImage" />
        <dc:title />
      </cc:Work>
    </rdf:RDF>
  </metadata>
  <defs
     id="defs6">
    <inkscape:perspective
       sodipodi:type="inkscape:persp3d"
       inkscape:vp_x="0 : 256 : 1"
       inkscape:vp_y="0 : 1000 : 0"
       inkscape:vp_z="512 : 256 : 1"
       inkscape:persp3d-origin="256 : 170.66667 : 1"
       id="perspective4141" />
  </defs>
  <sodipodi:namedview
     pagecolor="#ffffff"
     bordercolor="#666666"
     borderopacity="1"
     objecttolerance="10"
     gridtolerance="10"
     guidetolerance="10"
     inkscape:pageopacity="0"
     inkscape:pageshadow="2"
     inkscape:window-width="1366"
     inkscape:window-height="715"
     id="namedview4"
     showgrid="false"
     inkscape:zoom="0.37695312"
     inkscape:cx="-746.16281"
     inkscape:cy="-59.643572"
     inkscape:window-x="0"
     inkscape:window-y="24"
     inkscape:window-maximized="1"
     inkscape:current-layer="svg2"
     showguides="false"
     inkscape:guide-bbox="true"
     inkscape:document-units="px" />
  <g
     id="g4147">
    <path
       inkscape:connector-curvature="0"
       id="path4148"
       d="m 352.4484,63.223564 c -9.21024,-4.043068 -19.19305,-8.157273 -29.29274,-12.343704 -5.63742,-2.336763 -14.57293,1.175022 -17.00885,6.770305 -6.45944,14.836998 -19.84069,47.255555 -19.84069,47.255555 0,0 -18.57351,-2.79701 -27.93812,-3.04336 -8.37535,-0.22032 -25.09507,1.40392 -25.09507,1.40391 0,0 -10.42654,-26.096965 -19.4307,-48.678149 -1.94004,-4.865363 -11.73358,-8.097195 -16.62876,-6.233685 -40.06244,15.251057 -29.77105,10.60733 -47.00255,18.24538 -5.61418,2.488548 -8.7973,11.571028 -6.46236,17.250801 6.63278,16.134403 18.70097,47.226443 18.70097,47.226443 0,0 -14.67252,10.27707 -21.13237,16.43296 -6.34466,6.04612 -17.12071,19.95416 -17.12071,19.95416 0,0 -30.527584,-14.11567 -46.043688,-20.62745 -5.873159,-2.46485 -15.361339,-0.84761 -17.842125,4.74947 -3.939378,8.88777 -13.420386,30.1731 -18.981296,42.54199 -5.56091,12.36888 -0.4772,19.88814 5.986535,22.68461 18.920015,8.18551 46.041118,20.44573 46.041118,20.44573 0,0 -2.562311,17.64248 -2.780095,26.53264 -0.213817,8.72776 1.449782,26.15256 1.449782,26.15256 0,0 -30.323791,11.14998 -45.511419,18.13489 -6.063287,2.78854 -11.081436,11.54972 -8.993312,17.88844 5.571899,16.91409 11.908871,32.25652 18.27026,45.79751 3.048147,6.48838 13.849694,8.53076 20.610052,6.14587 11.852601,-4.1813 43.819778,-17.74111 43.819778,-17.74111 0,0 10.71171,13.56239 16.66809,19.80485 3.12393,3.27396 8.10654,7.88349 12.30822,11.67454 4.20169,3.79105 7.62178,6.76388 7.62178,6.76388 0,0 -3.24712,7.38621 -7.31888,16.68253 -4.07176,9.29632 -8.97056,20.50174 -12.27192,28.13636 -1.32108,3.05496 -1.49969,7.18368 -0.5903,10.88925 0.9094,3.70558 2.908,6.98812 5.94498,8.34999 14.46037,6.48072 30.76328,13.58652 46.88617,20.5548 2.72659,1.18383 6.46771,0.39148 9.82246,-1.37847 3.35474,-1.76993 6.32266,-4.51734 7.50363,-7.24517 3.25158,-7.51065 8.51931,-19.3907 12.97481,-29.39117 4.45539,-10.00049 8.09865,-18.1223 8.09865,-18.1223 0,0 4.28273,0.84247 9.65109,1.68858 5.36836,0.84609 11.82144,1.69544 16.16067,1.71037 4.10574,0.0141 10.21814,-0.74739 15.30303,-1.51298 5.08487,-0.76561 9.14235,-1.53428 9.14235,-1.53428 0,0 3.50928,9.12187 7.74907,19.97435 4.23981,10.85246 9.21137,23.43491 12.1334,30.35466 1.29022,3.05538 4.05861,5.57808 7.58829,6.93178 3.52968,1.35371 7.81945,1.53767 12.15278,-0.0855 9.09177,-3.40565 16.78889,-6.26248 23.69459,-8.87036 6.9057,-2.60785 13.01976,-4.96534 18.94351,-7.37049 2.91049,-1.18171 5.49669,-3.96568 7.07704,-7.18748 1.58034,-3.22181 2.15622,-6.88165 1.04648,-9.82035 -3.1149,-8.24852 -8.12544,-21.0587 -12.35714,-31.80718 -4.2317,-10.74849 -7.68412,-19.4362 -7.68412,-19.4362 0,0 3.59123,-2.32644 7.94145,-5.3978 4.35022,-3.07135 9.45783,-6.88809 12.49291,-9.86453 3.06019,-3.00108 7.00795,-8.07467 10.18968,-12.39964 3.18176,-4.32458 5.59792,-7.90022 5.59792,-7.90022 0,0 33.46847,15.60761 49.12452,21.82416 5.82009,2.31099 15.28704,0.26347 17.99873,-5.38107 7.98015,-16.61108 13.94106,-30.12674 20.17488,-45.5379 3.77092,-9.32244 -0.82543,-15.8393 -10.47832,-19.97347 -12.53652,-5.36919 -45.85242,-19.44399 -45.85242,-19.44399 0,0 3.07015,-16.69926 3.34249,-25.15232 0.27936,-8.67056 -1.76044,-25.96576 -1.76044,-25.96576 0,0 32.26944,-12.56614 48.23116,-19.2716 10.88161,-4.5713 10.45005,-16.12201 8.92482,-19.52567 -6.339,-14.14593 -11.88879,-30.84194 -17.10971,-43.24189 -2.55304,-6.06361 -11.58986,-10.56901 -17.82599,-8.47232 -12.75521,4.28851 -31.69818,12.65953 -48.69481,19.23077 0,0 -10.50403,-14.36681 -16.72168,-20.68915 -5.86923,-5.96804 -19.26389,-16.10967 -19.26389,-16.10967 0,0 14.84901,-32.32245 21.48025,-48.966355 2.26261,-5.679364 -2.74062,-14.530946 -8.21135,-17.259635 -4.82881,-2.376533 -10.07598,-4.776162 -15.60213,-7.202013 z M 287.84939,197.14536 c 34.33077,14.92853 50.49006,57.75524 40.38984,92.79168 -10.42148,37.37166 -53.52662,59.12088 -90.38859,50.73994 -41.68783,-8.97056 -67.70005,-58.56625 -54.14927,-98.38493 14.02123,-39.64905 63.88307,-61.17075 102.49884,-45.83789 0.55404,0.22279 1.10427,0.45417 1.64918,0.6912 z"
       style="fill:#45d03f;fill-opacity:1;fill-rule:evenodd;stroke:#000000;stroke-width:0;stroke-linecap:butt;stroke-linejoin:miter;stroke-miterlimit:4;stroke-opacity:1;stroke-dasharray:none" />
    <path
       sodipodi:nodetypes="ccczccc"
       inkscape:connector-curvature="0"
       id="path3773"
       d="m 383.86148,105.37713 26.66466,16.99871 49.66296,-28.664512 c 0,0 2.31785,32.128392 -14.99891,54.662562 -17.31672,22.53417 -35.33068,34.33079 -35.33068,34.33079 l -32.6642,-70.99469 z"
       style="fill:#999999;stroke:none" />
    <path
       sodipodi:nodetypes="czzzcccczzcc"
       inkscape:connector-curvature="0"
       id="path3771"
       d="m 282.16494,185.876 c 0,0 10.67421,-8.85316 16.9987,-24.66482 6.3245,-15.81167 2.62928,-47.6052 7.56153,-62.843335 4.93224,-15.238162 1.3464,-25.544442 38.10169,-49.148281 36.7553,-23.603837 93.82133,-0.919059 93.82133,-0.919059 l -50.49128,26.583798 -3.99969,32.330927 44.32998,82.99378 c 0,0 -31.12422,0.40077 -44.32998,3.33308 -13.20576,2.93232 -24.77458,7.78797 -34.33074,12.99904 -9.55617,5.21106 -22.99826,16.99872 -22.99826,16.99872 z"
       style="fill:#ebebeb;stroke:none" />
    <path
       id="path3769"
       d="M 290.74609 176.26758 C 290.74609 176.26758 247.79333 219.1809 225.81641 240.96289 C 203.8395 262.74488 187.1265 277.01033 158.88086 306.95312 C 130.63524 336.89593 60.652313 416.01471 58.007812 421.96875 C 55.363323 427.92279 40.218441 449.98969 65.550781 473.81836 C 90.883111 497.64719 120.12268 479.90386 125.88477 475.70312 C 131.64684 471.50225 169.53007 426.50836 191.87695 399.3418 C 214.22382 372.1752 235.68005 343.17417 259.75391 312.60938 C 283.82775 282.04456 336.35156 215.98047 336.35156 215.98047 C 336.35156 215.98047 324.75303 198.65886 317.02539 191.93945 C 309.29775 185.22005 290.74609 176.26758 290.74609 176.26758 z M 98.099609 425.14258 A 16.456922 17.204977 0 0 1 114.61523 442.26758 L 114.61523 442.34766 A 16.456922 17.204977 0 0 1 98.177734 459.55273 A 16.456922 17.204977 0 0 1 81.701172 442.38867 A 16.456922 17.204977 0 0 1 98.099609 425.14258 z "
       style="fill:#00bbf2;fill-opacity:1;stroke:none" />
    <path
       inkscape:connector-curvature="0"
       id="path3775"
       d="m 327.82816,158.87802 18.99856,35.3307 38.99706,-18.9986 -18.33196,-37.33053 z"
       style="fill:#ffffff;stroke:none" />
    <path
       sodipodi:nodetypes="ccccccccccccccccccc"
       inkscape:connector-curvature="0"
       id="path3777"
       d="m 335.22212,154.309 0.70706,4.7137 4.00663,1.64979 -1.41411,6.36348 5.65644,2.59253 -0.47137,6.83487 6.83483,3.29957 -0.94274,7.7776 4.47802,3.29958 27.57507,-12.96266 1.41411,-5.42074 -4.00663,-2.59253 0,-7.77759 -5.18505,-1.41411 -0.23571,-7.30621 -4.71368,-2.59254 -0.47137,-8.24896 -5.55062,-2.28631 z"
       style="fill:#808080;stroke:none" />
    <path
       sodipodi:nodetypes="zczczczcz"
       inkscape:connector-curvature="0"
       id="path2994"
       d="m 130.16875,402.37747 c -17.73641,-14.30273 -4.13324,-32.96014 -4.13324,-32.96014 0,0 68.97242,-76.39339 93.47984,-100.71241 24.5074,-24.319 51.48294,-47.05134 51.48294,-47.05134 0,0 7.00557,-7.92812 16.02987,0.32962 9.02431,8.25775 4.47933,16.12879 4.47933,16.12879 0,0 -26.42164,39.07343 -47.87102,66.3696 -21.44937,27.29617 -82.16003,96.13416 -82.16003,96.13416 0,0 -13.57127,16.06448 -31.30769,1.76172 z"
       style="fill:#394050;fill-opacity:0.39215686;stroke:none" />
    <path
       inkscape:connector-curvature="0"
       id="path3767"
       d="M 226.98474,257.3879 76.9961,109.39899 53.66457,95.400045 25,58.069514 43.66529,38.070998 85.66212,66.068908 94.99476,88.733877 244.9834,239.38925"
       style="fill:#ebebeb;stroke:none" />
    <path
       sodipodi:nodetypes="ccczzzczczzzcccccc"
       inkscape:connector-curvature="0"
       id="path2997"
       d="m 199.7931,275.69045 26.66468,26.33135 13.33226,1.66656 c 0,0 10.98033,5.61164 21.99828,17.33203 11.0181,11.72038 27.04926,40.56154 38.99715,56.3291 11.94774,15.76756 13.59558,20.34038 31.99755,38.66379 18.40182,18.32339 81.66045,66.995 81.66045,66.995 0,0 21.41625,7.77448 42.66346,-14.66569 21.2472,-22.43997 17.66534,-44.99653 17.66534,-44.99653 0,0 -40.12121,-54.24513 -58.32891,-72.99453 -18.2077,-18.74941 -32.67148,-29.45146 -48.32964,-40.99693 -15.65832,-11.54548 -33.07733,-18.57205 -44.99666,-28.66452 -11.91932,-10.09247 -26.99799,-29.99775 -26.99799,-29.99775 l -1.99973,-11.33249 -26.66468,-28.33121 -14.66551,-0.66661 -51.32947,50.99617 z"
       style="fill:#f03916;stroke:none" />
    <path
       sodipodi:nodetypes="ccccc"
       inkscape:connector-curvature="0"
       id="path3764"
       d="m 220.76096,250.89413 19.64063,-20.44243 32.8683,30.46321 -20.84326,20.84325 z"
       style="fill:#394050;fill-opacity:0.39215686;stroke:none" />
    <path
       sodipodi:nodetypes="czzzzzzzcc"
       inkscape:connector-curvature="0"
       id="path3770"
       d="m 301.15307,317.48026 c 3.55996,12.33503 23.64231,40.79464 38.50734,59.22382 14.86503,18.42921 36.86728,39.89818 50.2781,50.7241 13.41099,10.82593 18.64021,14.56749 26.9599,17.22243 8.31953,2.65496 15.69086,5.25604 20.38202,1.00625 4.69116,-4.24979 3.65551,-10.9255 1.43325,-19.25192 -2.22209,-8.32644 -7.51132,-15.5944 -18.44641,-28.72075 -10.9351,-13.12633 -31.51583,-31.99463 -49.90749,-46.73292 -18.39165,-14.7383 -48.06854,-35.14337 -60.9067,-39.45419 -7.51037,-2.60022 -10.38529,-1.22399 -8.30001,5.98318 z"
       style="fill:#394050;fill-opacity:0.39215686;stroke:none" />
  </g>
</svg>
