<svg xmlns="http://www.w3.org/2000/svg" xmlns:xlink="http://www.w3.org/1999/xlink" width="48" height="48">
  <defs id="acyl-settings">
    <linearGradient x1="0%" y1="0%" x2="0%" y2="100%" id="acyl-gradient">
      <stop offset="0%" style="stop-color:#636EAE;stop-opacity:1.000000"/>
      <stop offset="50%" style="stop-color:#829C7F;stop-opacity:1.000000"/>
      <stop offset="100%" style="stop-color:#D73E7F;stop-opacity:1.000000"/>
    </linearGradient>
    <g id="acyl-filter">
  </g>
    <g id="acyl-drawing">
      <path d="M 8.8629394,2 C 5.918489,2 3.469,4.3894041 3.469,7.2424242 l 0,33.5151518 C 3.469,43.610596 5.9184891,46 8.8629394,46 l 29.9999996,0 c 2.94445,0 5.39394,-2.389403 5.39394,-5.242424 l 0,-33.5151518 C 44.256879,4.3894041 41.80739,2 38.862939,2 L 8.8629394,2 z m 0,3.8484848 2.1818186,0 0,27.0606062 L 18.620515,24 l 7.363637,8.909091 0,-27.0606062 12.878787,0 c 0.830338,0 1.424243,0.5908108 1.424243,1.3939394 l 0,33.5151518 c 0,0.803132 -0.593909,1.393939 -1.424243,1.393939 l -29.9999996,0 c -0.8303341,0 -1.4242424,-0.59081 -1.4242424,-1.393939 l 0,-33.5151518 c 0,-0.8031286 0.5939083,-1.3939394 1.4242424,-1.3939394 z" id="path-main"/>
    </g>
  </defs>
  <g id="acyl-visual">
    <use id="visible1" transform="translate(24,24) scale(1.00) translate(-24,-24)" style="fill:rgb(0,0,0);fill-opacity:0.00;stroke:url(#acyl-gradient);stroke-width:1.00" xlink:href="#acyl-drawing"/>
  </g>
</svg>
