<svg xmlns="http://www.w3.org/2000/svg" xmlns:xlink="http://www.w3.org/1999/xlink" width="48" height="48">
  <defs id="acyl-settings">
    <linearGradient x1="0%" y1="0%" x2="0%" y2="100%" id="acyl-gradient">
      <stop offset="0%" style="stop-color:#636EAE;stop-opacity:1.000000"/>
      <stop offset="50%" style="stop-color:#829C7F;stop-opacity:1.000000"/>
      <stop offset="100%" style="stop-color:#D73E7F;stop-opacity:1.000000"/>
    </linearGradient>
    <g id="acyl-filter">
  </g>
    <g id="acyl-drawing">
      <path id="path-main" d="m 37.124036,2 -2.053155,7.709818 -18.23269,0 -1.968761,7.347515 30.537994,0 -1.503886,5.612578 -15.392892,15.392892 c 0,0 7.599099,1.935967 14.530095,-1.614056 0,2.113109 0,6.930997 0,6.930997 0,0 -6.254801,2.535731 -9.635775,2.451207 C 30.02399,45.746426 23.262043,43.886891 19.204873,46 18.106056,43.971416 16.144006,40.698427 16.144006,40.698427 l 16.96786,-16.967859 -19.06298,0 -3.634547,17.705116 -8.114339,0 L 10.498863,2 37.124036,2 z"/>
    </g>
  </defs>
  <g id="acyl-visual">
    <use id="visible1" transform="translate(24,24) scale(1.00) translate(-24,-24)" style="fill:rgb(0,0,0);fill-opacity:0.00;stroke:url(#acyl-gradient);stroke-width:1.00" xlink:href="#acyl-drawing"/>
  </g>
</svg>
