<svg xmlns="http://www.w3.org/2000/svg" xmlns:xlink="http://www.w3.org/1999/xlink" width="48" height="48">
  <defs id="acyl-settings">
    <linearGradient x1="0%" y1="0%" x2="0%" y2="100%" id="acyl-gradient">
      <stop offset="0%" style="stop-color:#636EAE;stop-opacity:1.000000"/>
      <stop offset="50%" style="stop-color:#829C7F;stop-opacity:1.000000"/>
      <stop offset="100%" style="stop-color:#D73E7F;stop-opacity:1.000000"/>
    </linearGradient>
    <g id="acyl-filter">
  </g>
    <g id="acyl-drawing">
      <path d="m 2,2 0,12.575521 44,0 L 46,2 2,2 z m 3.6666667,3.2942708 1.0598958,0 13.6067705,0 L 13,12.627604 5.6666667,5.2942708 z M 2,15.606771 2,46 l 29.333333,0 0,-30.393229 -29.333333,0 z m 3.1510417,2.119791 23.0312503,0 0,25.723959 -23.0312503,0 0,-25.723959 z m 3.1223958,3.122396 0,4.325521 13.6354165,0 0,-4.325521 -13.6354165,0 z m 0,7.21875 0,4.325521 11.5442705,0 0,-4.325521 -11.5442705,0 z m 0,8.364584 0,4.32552 15.7265625,0 0,-4.32552 -15.7265625,0 z" id="path-main"/>
    </g>
  </defs>
  <g id="acyl-visual">
    <use id="visible1" transform="translate(24,24) scale(1.00) translate(-24,-24)" style="fill:rgb(0,0,0);fill-opacity:0.00;stroke:url(#acyl-gradient);stroke-width:1.00" xlink:href="#acyl-drawing"/>
  </g>
</svg>
