<svg xmlns="http://www.w3.org/2000/svg" xmlns:xlink="http://www.w3.org/1999/xlink" width="48" height="48">
  <defs id="acyl-settings">
    <linearGradient x1="0%" y1="0%" x2="0%" y2="100%" id="acyl-gradient">
      <stop offset="0%" style="stop-color:#636EAE;stop-opacity:1.000000"/>
      <stop offset="50%" style="stop-color:#829C7F;stop-opacity:1.000000"/>
      <stop offset="100%" style="stop-color:#D73E7F;stop-opacity:1.000000"/>
    </linearGradient>
    <g id="acyl-filter">
  </g>
    <g id="acyl-drawing">
      <path id="path-main" d="m 24.625,9.03125 c -9.023126,10e-8 -10.75,12.59375 -10.75,12.59375 l -10.71875,0 0,4.75 10.5625,0 c 0,0 1.695623,12.59375 10.71875,12.59375 9.023126,0 9.03125,0 9.03125,0 l 0,-4.59375 8.53125,0 c 1.105122,0 2,-0.894878 2,-2 0,-1.105122 -0.894878,-2 -2,-2 l -8.53125,0 0,-12.75 8.53125,0 c 1.105122,0 2,-0.894878 2,-2 0,-1.105122 -0.894878,-2 -2,-2 l -8.53125,0 0,-4.59375 c -0.0027,10e-8 0.02273,0 -8.84375,0 z"/>
    </g>
  </defs>
  <g id="acyl-visual">
    <use id="visible1" transform="translate(24,24) scale(1.00) translate(-24,-24)" style="fill:rgb(0,0,0);fill-opacity:0.00;stroke:url(#acyl-gradient);stroke-width:1.00" xlink:href="#acyl-drawing"/>
  </g>
</svg>
