<svg xmlns="http://www.w3.org/2000/svg" xmlns:xlink="http://www.w3.org/1999/xlink" width="48" height="48">
  <defs id="acyl-settings">
    <linearGradient x1="0%" y1="0%" x2="0%" y2="100%" id="acyl-gradient">
      <stop offset="0%" style="stop-color:#636EAE;stop-opacity:1.000000"/>
      <stop offset="50%" style="stop-color:#829C7F;stop-opacity:1.000000"/>
      <stop offset="100%" style="stop-color:#D73E7F;stop-opacity:1.000000"/>
    </linearGradient>
    <g id="acyl-filter">
  </g>
    <g id="acyl-drawing">
      <path d="m 13.129,2 0,44 22.107141,0 0,-44 L 13.129,2 z m 1.904762,1.904762 18.297617,0 0,13.011905 -18.297617,0 0,-13.011905 z m 9.142858,18.642857 c 5.053035,0 9.154759,4.101725 9.154759,9.154763 0,5.053038 -4.101724,9.142858 -9.154759,9.142858 -5.053041,0 -9.142858,-4.08982 -9.142858,-9.142858 0,-5.053038 4.089817,-9.154763 9.142858,-9.154763 z m 0,5.345239 c -2.100391,0 -3.797623,1.709137 -3.797623,3.809524 0,2.100386 1.697232,3.797618 3.797623,3.797618 2.100385,0 3.809524,-1.697232 3.809524,-3.797618 0,-2.100387 -1.709139,-3.809524 -3.809524,-3.809524 z" id="path-main"/>
    </g>
  </defs>
  <g id="acyl-visual">
    <use id="visible1" transform="translate(24,24) scale(1.00) translate(-24,-24)" style="fill:rgb(0,0,0);fill-opacity:0.00;stroke:url(#acyl-gradient);stroke-width:1.00" xlink:href="#acyl-drawing"/>
  </g>
</svg>
