<svg xmlns="http://www.w3.org/2000/svg" xmlns:xlink="http://www.w3.org/1999/xlink" width="48" height="48">
  <defs id="acyl-settings">
    <linearGradient x1="0%" y1="0%" x2="0%" y2="100%" id="acyl-gradient">
      <stop offset="0%" style="stop-color:#636EAE;stop-opacity:1.000000"/>
      <stop offset="50%" style="stop-color:#829C7F;stop-opacity:1.000000"/>
      <stop offset="100%" style="stop-color:#D73E7F;stop-opacity:1.000000"/>
    </linearGradient>
    <g id="acyl-filter">
  </g>
    <g id="acyl-drawing">
      <path d="M 19.6875,10 C 16.539156,10 14,12.539156 14,15.6875 L 14,20 L 23.40625,20 L 23.40625,10 L 19.6875,10 z M 24.40625,10 L 24.40625,20 L 34,20 L 34,15.6875 C 34,12.539156 31.460844,10 28.3125,10 L 24.40625,10 z M 14,21 L 14,34.3125 C 14,37.460844 16.539156,40 19.6875,40 L 28.3125,40 C 31.460844,40 34,37.460842 34,34.3125 L 34,21 L 14,21 z" id="path-main"/>
    </g>
  </defs>
  <g id="acyl-visual">
    <use id="visible1" transform="translate(24,24) scale(1.00) translate(-24,-24)" style="fill:rgb(0,0,0);fill-opacity:0.00;stroke:url(#acyl-gradient);stroke-width:1.00" xlink:href="#acyl-drawing"/>
  </g>
</svg>
