<svg xmlns="http://www.w3.org/2000/svg" xmlns:xlink="http://www.w3.org/1999/xlink" width="48" height="48">
  <defs id="acyl-settings">
    <linearGradient x1="0%" y1="0%" x2="0%" y2="100%" id="acyl-gradient">
      <stop offset="0%" style="stop-color:#636EAE;stop-opacity:1.000000"/>
      <stop offset="50%" style="stop-color:#829C7F;stop-opacity:1.000000"/>
      <stop offset="100%" style="stop-color:#D73E7F;stop-opacity:1.000000"/>
    </linearGradient>
    <g id="acyl-filter">
  </g>
    <g id="acyl-drawing">
      <path d="m 28.6582,3.862864 -6.6645,3.248974 0,33.308922 C 14.3886,39.46732 8.6646,35.32217 8.6646,30.340614 c 0,-4.722259 5.1492,-8.699545 12.1628,-9.913536 l 0,-4.234774 C 10.0995,17.488977 2,23.33116 2,30.340614 2,37.6027 10.69,43.60053 21.9937,44.6 l 6.6645,-3.1379 0,-37.599236 z m 1.1663,12.32944 0,4.234774 c 2.6088,0.451509 4.9637,1.275533 6.8868,2.388134 l -3.61,2.041022 L 46,27.660904 45.0697,18.108365 41.6403,20.038311 C 38.4544,18.111083 34.3741,16.74219 29.8245,16.192304 z" id="path-main"/>
    </g>
  </defs>
  <g id="acyl-visual">
    <use id="visible1" transform="translate(24,24) scale(1.00) translate(-24,-24)" style="fill:rgb(0,0,0);fill-opacity:0.00;stroke:url(#acyl-gradient);stroke-width:1.00" xlink:href="#acyl-drawing"/>
  </g>
</svg>
