<svg xmlns="http://www.w3.org/2000/svg" xmlns:xlink="http://www.w3.org/1999/xlink" width="48" height="48">
  <defs id="acyl-settings">
    <linearGradient x1="0%" y1="0%" x2="0%" y2="100%" id="acyl-gradient">
      <stop offset="0%" style="stop-color:#636EAE;stop-opacity:1.000000"/>
      <stop offset="50%" style="stop-color:#829C7F;stop-opacity:1.000000"/>
      <stop offset="100%" style="stop-color:#D73E7F;stop-opacity:1.000000"/>
    </linearGradient>
    <g id="acyl-filter">
  </g>
    <g id="acyl-drawing">
      <path d="M 11.226723,2.0030443 A 6.4258434,6.4258434 0 0 0 6.3007364,12.564469 l 9.3700846,11.47166 -9.3700846,11.471664 a 6.4265429,6.4265429 0 1 0 9.9590616,8.125198 l 7.696855,-9.437015 7.710241,9.437015 a 6.4265429,6.4265429 0 1 0 9.959062,-8.125198 L 32.255871,24.036129 41.625956,12.564469 A 6.4258434,6.4258434 0 0 0 36.512567,2.0030443 6.4258434,6.4258434 0 0 0 31.666894,4.4258802 L 23.956653,13.862894 16.259798,4.4258802 A 6.4258434,6.4258434 0 0 0 11.226723,2.0030443 z" id="path-main"/>
    </g>
  </defs>
  <g id="acyl-visual">
    <use id="visible1" transform="translate(24,24) scale(1.00) translate(-24,-24)" style="fill:rgb(0,0,0);fill-opacity:0.00;stroke:url(#acyl-gradient);stroke-width:1.00" xlink:href="#acyl-drawing"/>
  </g>
</svg>
