<?xml version="1.0" encoding="UTF-8" standalone="no"?>
<!-- Created with Inkscape (http://www.inkscape.org/) -->

<svg
   xmlns:dc="http://purl.org/dc/elements/1.1/"
   xmlns:cc="http://creativecommons.org/ns#"
   xmlns:rdf="http://www.w3.org/1999/02/22-rdf-syntax-ns#"
   xmlns:svg="http://www.w3.org/2000/svg"
   xmlns="http://www.w3.org/2000/svg"
   xmlns:sodipodi="http://sodipodi.sourceforge.net/DTD/sodipodi-0.dtd"
   xmlns:inkscape="http://www.inkscape.org/namespaces/inkscape"
   width="500"
   height="500"
   id="svg2"
   version="1.1"
   inkscape:version="0.91 r13725"
   sodipodi:docname="application-x-srtrip.svg">
  <defs
     id="defs4" />
  <sodipodi:namedview
     id="base"
     pagecolor="#ffffff"
     bordercolor="#666666"
     borderopacity="1.0"
     inkscape:pageopacity="0.0"
     inkscape:pageshadow="2"
     inkscape:zoom="0.42897811"
     inkscape:cx="192.75528"
     inkscape:cy="187.20249"
     inkscape:document-units="px"
     inkscape:current-layer="layer1"
     showgrid="false"
     inkscape:window-width="1366"
     inkscape:window-height="715"
     inkscape:window-x="0"
     inkscape:window-y="24"
     inkscape:window-maximized="1" />
  <metadata
     id="metadata7">
    <rdf:RDF>
      <cc:Work
         rdf:about="">
        <dc:format>image/svg+xml</dc:format>
        <dc:type
           rdf:resource="http://purl.org/dc/dcmitype/StillImage" />
        <dc:title />
      </cc:Work>
    </rdf:RDF>
  </metadata>
  <g
     inkscape:label="Layer 1"
     inkscape:groupmode="layer"
     id="layer1"
     transform="translate(0,-552.36218)">
    <g
       id="g3445">
      <path
         sodipodi:nodetypes="ccccc"
         inkscape:connector-curvature="0"
         id="path4230"
         d="M 63.03896,706.21204 116.261,758.3106 114.60095,685.26875 63,685.02365 Z"
         style="fill:#002f3b;fill-opacity:1;fill-rule:evenodd;stroke:none;stroke-width:1px;stroke-linecap:butt;stroke-linejoin:miter;stroke-opacity:1" />
      <path
         inkscape:connector-curvature="0"
         id="path3364"
         d="m 97.04097,1029.8357 336.88839,-1.1739 1.17376,-363.88666 -88.03696,-89.21086 -250.02519,0 z"
         style="fill:#f2f2f2;fill-rule:evenodd;stroke:#afafaf;stroke-width:5.03546047;stroke-linecap:butt;stroke-linejoin:miter;stroke-miterlimit:4;stroke-dasharray:none;stroke-opacity:1" />
      <path
         sodipodi:nodetypes="cccc"
         inkscape:connector-curvature="0"
         id="path4166"
         d="m 431.51909,662.93098 -82.16431,-0.58691 0.75853,-83.80351 z"
         style="fill:#afafaf;fill-opacity:1;fill-rule:evenodd;stroke:#afafaf;stroke-width:5.03546047;stroke-linecap:butt;stroke-linejoin:miter;stroke-miterlimit:4;stroke-dasharray:none;stroke-opacity:1" />
      <rect
         y="622.18701"
         x="63.139656"
         height="84.350876"
         width="258.95145"
         id="rect4228"
         style="fill:#004455;fill-opacity:1;stroke:none;stroke-width:5;stroke-miterlimit:4;stroke-dasharray:none;stroke-opacity:1" />
      <g
         id="g3400">
        <rect
           style="fill:#00bbf2;fill-opacity:1;stroke:none"
           id="rect2997"
           width="249.04848"
           height="147.99477"
           x="143.11246"
           y="877.60632"
           ry="12.387236" />
        <path
           style="fill:#004455;fill-opacity:1;stroke:none"
           d="m 143.26924,891.30035 254.01373,0.922 0,-27.66029 -254.01373,0 z"
           id="path2999"
           inkscape:connector-curvature="0"
           sodipodi:nodetypes="ccccc" />
        <path
           style="fill:#ffffff;stroke:none"
           d="m 206.36137,891.52149 -25.52022,-0.0907 26.2924,-26.86589 25.5051,0.10159 z"
           id="path3769"
           inkscape:connector-curvature="0"
           sodipodi:nodetypes="ccccc" />
        <path
           style="fill:#ffffff;stroke:none"
           d="m 258.90839,891.55013 -25.52022,-0.0907 26.29251,-26.86589 25.50506,0.1016 z"
           id="path3769-3"
           inkscape:connector-curvature="0"
           sodipodi:nodetypes="ccccc" />
        <path
           style="fill:#ffffff;stroke:none"
           d="m 312.45882,891.46821 -25.52029,-0.0907 26.29246,-26.86588 25.50506,0.10159 z"
           id="path3769-6"
           inkscape:connector-curvature="0"
           sodipodi:nodetypes="ccccc" />
        <path
           style="fill:#ffffff;stroke:none"
           d="m 365.00578,891.49685 -25.52016,-0.0907 26.29246,-26.86588 25.50505,0.10159 z"
           id="path3769-3-7"
           inkscape:connector-curvature="0"
           sodipodi:nodetypes="ccccc" />
        <path
           style="fill:#004455;fill-opacity:1;stroke:none"
           d="m 135.27816,839.04378 242.07862,-76.95301 8.28385,26.39071 -242.35475,76.07333 z"
           id="path2999-3"
           inkscape:connector-curvature="0"
           sodipodi:nodetypes="ccccc" />
        <path
           style="fill:#ffffff;stroke:none"
           d="m 195.4082,819.93764 -24.3217,7.7295 33.13155,17.75859 24.30401,-7.73532 z"
           id="path3769-5"
           inkscape:connector-curvature="0"
           sodipodi:nodetypes="ccccc" />
        <path
           style="fill:#ffffff;stroke:none"
           d="m 245.53478,804.17326 -24.32168,7.7295 33.13163,17.75856 24.30398,-7.73531 z"
           id="path3769-3-6"
           inkscape:connector-curvature="0"
           sodipodi:nodetypes="ccccc" />
        <path
           style="fill:#ffffff;stroke:none"
           d="m 296.65184,788.21387 -24.32176,7.72952 33.13159,17.75857 24.30398,-7.73531 z"
           id="path3769-6-2"
           inkscape:connector-curvature="0"
           sodipodi:nodetypes="ccccc" />
        <path
           style="fill:#ffffff;stroke:none"
           d="m 346.77837,772.44951 -24.32164,7.72949 33.13159,17.75856 24.30398,-7.73531 z"
           id="path3769-3-7-9"
           inkscape:connector-curvature="0"
           sodipodi:nodetypes="ccccc" />
        <path
           style="fill:#00bbf2;fill-opacity:1;stroke:none"
           d="m 143.13733,891.7633 39.93253,0 c 0,0 5.30392,-16.66171 5.24826,-16.88575 l -20.53671,-36.67918 -25.10044,0.0554 z"
           id="path3861"
           inkscape:connector-curvature="0"
           sodipodi:nodetypes="cccccc" />
        <path
           sodipodi:type="arc"
           style="fill:#ffffff;fill-opacity:1;stroke:none"
           id="path3863"
           sodipodi:cx="150.74345"
           sodipodi:cy="845.01349"
           sodipodi:rx="3.6509724"
           sodipodi:ry="3.6509724"
           d="m 154.39443,845.01349 a 3.6509724,3.6509724 0 0 1 -3.64669,3.65097 3.6509724,3.6509724 0 0 1 -3.65525,-3.6424 3.6509724,3.6509724 0 0 1 3.63811,-3.65952 3.6509724,3.6509724 0 0 1 3.66379,3.63381"
           sodipodi:start="0"
           sodipodi:end="6.2784904"
           sodipodi:open="true" />
        <path
           sodipodi:type="arc"
           style="fill:#ffffff;fill-opacity:1;stroke:none"
           id="path3863-1"
           sodipodi:cx="150.97165"
           sodipodi:cy="883.34869"
           sodipodi:rx="3.6509724"
           sodipodi:ry="3.6509724"
           d="m 154.62262,883.34869 a 3.6509724,3.6509724 0 0 1 -3.64669,3.65097 3.6509724,3.6509724 0 0 1 -3.65524,-3.6424 3.6509724,3.6509724 0 0 1 3.6381,-3.65952 3.6509724,3.6509724 0 0 1 3.66379,3.63381"
           sodipodi:start="0"
           sodipodi:end="6.2784904"
           sodipodi:open="true" />
        <path
           sodipodi:type="arc"
           style="fill:#ffffff;fill-opacity:1;stroke:none"
           id="path3863-2"
           sodipodi:cx="177.8976"
           sodipodi:cy="884.48962"
           sodipodi:rx="3.6509724"
           sodipodi:ry="3.6509724"
           d="m 181.54857,884.48962 a 3.6509724,3.6509724 0 0 1 -3.64669,3.65097 3.6509724,3.6509724 0 0 1 -3.65524,-3.6424 3.6509724,3.6509724 0 0 1 3.6381,-3.65952 3.6509724,3.6509724 0 0 1 3.66379,3.63381"
           sodipodi:start="0"
           sodipodi:end="6.2784904"
           sodipodi:open="true" />
        <path
           inkscape:connector-curvature="0"
           style="opacity:1;fill:#004455;fill-opacity:1;stroke:none;stroke-width:0.5;stroke-linecap:round;stroke-miterlimit:4;stroke-dasharray:none;stroke-opacity:1"
           d="m 143.11328,960.2821 0,51.2852 249.04688,0 0,-51.2852 -249.04688,0 z"
           id="rect4362" />
        <g
           transform="translate(8,554.36218)"
           style="font-style:normal;font-weight:normal;font-size:40px;line-height:125%;font-family:sans-serif;letter-spacing:0px;word-spacing:0px;fill:#ffffff;fill-opacity:1;stroke:none;stroke-width:1px;stroke-linecap:butt;stroke-linejoin:miter;stroke-opacity:1"
           id="flowRoot4392">
          <path
             d="m 179.73437,418.49497 0,6.17187 q -2.40234,-1.07422 -4.6875,-1.62109 -2.28515,-0.54688 -4.3164,-0.54688 -2.69531,0 -3.98438,0.74219 -1.28906,0.74219 -1.28906,2.30469 0,1.17187 0.85938,1.83594 0.8789,0.64453 3.16406,1.11328 l 3.20312,0.64453 q 4.86328,0.97656 6.91407,2.96875 2.05078,1.99219 2.05078,5.66406 0,4.82422 -2.8711,7.1875 -2.85156,2.34375 -8.73047,2.34375 -2.77343,0 -5.5664,-0.52734 -2.79297,-0.52735 -5.58594,-1.5625 l 0,-6.34766 q 2.79297,1.48438 5.39063,2.24609 2.61718,0.74219 5.03906,0.74219 2.46094,0 3.76953,-0.82031 1.30859,-0.82031 1.30859,-2.34375 0,-1.36719 -0.89843,-2.10938 -0.87891,-0.74218 -3.53516,-1.32812 l -2.91016,-0.64453 q -4.375,-0.9375 -6.40625,-2.98828 -2.01172,-2.05078 -2.01172,-5.52735 0,-4.35547 2.8125,-6.69922 2.8125,-2.34375 8.08594,-2.34375 2.40235,0 4.94141,0.3711 2.53906,0.35156 5.2539,1.07422 z"
             style="font-style:normal;font-variant:normal;font-weight:bold;font-stretch:normal;font-family:sans-serif;-inkscape-font-specification:'sans-serif Bold';fill:#ffffff"
             id="path4401"
             inkscape:connector-curvature="0" />
          <path
             d="m 188.26953,417.577 7.51953,0 0,17.48047 q 0,3.61328 1.17188,5.17578 1.1914,1.54297 3.86718,1.54297 2.69532,0 3.86719,-1.54297 1.19141,-1.5625 1.19141,-5.17578 l 0,-17.48047 7.51953,0 0,17.48047 q 0,6.1914 -3.10547,9.21875 -3.10547,3.02734 -9.47266,3.02734 -6.34765,0 -9.45312,-3.02734 -3.10547,-3.02735 -3.10547,-9.21875 l 0,-17.48047 z"
             style="font-style:normal;font-variant:normal;font-weight:bold;font-stretch:normal;font-family:sans-serif;-inkscape-font-specification:'sans-serif Bold';fill:#ffffff"
             id="path4403"
             inkscape:connector-curvature="0" />
          <path
             d="m 232.44922,428.86606 q 1.77734,0 2.69531,-0.78125 0.91797,-0.78125 0.91797,-2.30469 0,-1.5039 -0.91797,-2.28515 -0.91797,-0.80078 -2.69531,-0.80078 l -4.16016,0 0,6.17187 4.16016,0 z m 0.2539,12.75391 q 2.26563,0 3.39844,-0.95703 1.15235,-0.95704 1.15235,-2.89063 0,-1.89453 -1.13282,-2.83203 -1.13281,-0.95703 -3.41797,-0.95703 l -4.41406,0 0,7.63672 4.41406,0 z m 6.99219,-10.48828 q 2.42188,0.70312 3.75,2.59765 1.32813,1.89453 1.32813,4.64844 0,4.21875 -2.85157,6.28906 -2.85156,2.07031 -8.67187,2.07031 l -12.48047,0 0,-29.16015 11.28906,0 q 6.07422,0 8.78907,1.83594 2.73437,1.83593 2.73437,5.8789 0,2.12891 -0.99609,3.63281 -0.9961,1.48438 -2.89063,2.20704 z"
             style="font-style:normal;font-variant:normal;font-weight:bold;font-stretch:normal;font-family:sans-serif;-inkscape-font-specification:'sans-serif Bold';fill:#ffffff"
             id="path4405"
             inkscape:connector-curvature="0" />
          <path
             d="m 247.76172,417.577 26.875,0 0,5.68359 -9.66797,0 0,23.47656 -7.51953,0 0,-23.47656 -9.6875,0 0,-5.68359 z"
             style="font-style:normal;font-variant:normal;font-weight:bold;font-stretch:normal;font-family:sans-serif;-inkscape-font-specification:'sans-serif Bold';fill:#ffffff"
             id="path4407"
             inkscape:connector-curvature="0" />
          <path
             d="m 278.50391,417.577 7.51953,0 0,29.16015 -7.51953,0 0,-29.16015 z"
             style="font-style:normal;font-variant:normal;font-weight:bold;font-stretch:normal;font-family:sans-serif;-inkscape-font-specification:'sans-serif Bold';fill:#ffffff"
             id="path4409"
             inkscape:connector-curvature="0" />
          <path
             d="m 289.94922,417.577 26.875,0 0,5.68359 -9.66797,0 0,23.47656 -7.51953,0 0,-23.47656 -9.6875,0 0,-5.68359 z"
             style="font-style:normal;font-variant:normal;font-weight:bold;font-stretch:normal;font-family:sans-serif;-inkscape-font-specification:'sans-serif Bold';fill:#ffffff"
             id="path4411"
             inkscape:connector-curvature="0" />
          <path
             d="m 320.69141,417.577 7.51953,0 0,23.47656 13.20312,0 0,5.68359 -20.72265,0 0,-29.16015 z"
             style="font-style:normal;font-variant:normal;font-weight:bold;font-stretch:normal;font-family:sans-serif;-inkscape-font-specification:'sans-serif Bold';fill:#ffffff"
             id="path4413"
             inkscape:connector-curvature="0" />
          <path
             d="m 346.16016,417.577 20.29296,0 0,5.68359 -12.77343,0 0,5.42969 12.01172,0 0,5.68359 -12.01172,0 0,6.67969 13.20312,0 0,5.68359 -20.72265,0 0,-29.16015 z"
             style="font-style:normal;font-variant:normal;font-weight:bold;font-stretch:normal;font-family:sans-serif;-inkscape-font-specification:'sans-serif Bold';fill:#ffffff"
             id="path4415"
             inkscape:connector-curvature="0" />
        </g>
      </g>
      <g
         id="flowRoot3424"
         style="font-style:normal;font-weight:normal;font-size:40px;line-height:125%;font-family:sans-serif;letter-spacing:0px;word-spacing:0px;fill:#ffffff;fill-opacity:1;stroke:none;stroke-width:1px;stroke-linecap:butt;stroke-linejoin:miter;stroke-opacity:1"
         transform="matrix(1.7749103,0,0,1.7749103,-69.685725,495.30304)">
        <path
           inkscape:connector-curvature="0"
           id="path3433"
           style="font-style:normal;font-variant:normal;font-weight:bold;font-stretch:normal;font-size:35px;font-family:sans-serif;-inkscape-font-specification:'sans-serif Bold';fill:#ffffff"
           d="m 99.266113,83.250478 0,5.400391 q -2.102051,-0.939941 -4.101562,-1.418457 -1.999512,-0.478516 -3.776856,-0.478516 -2.358398,0 -3.486328,0.649414 -1.12793,0.649415 -1.12793,2.016602 0,1.025391 0.751954,1.606445 0.769043,0.563965 2.768554,0.974121 l 2.802735,0.563965 q 4.255371,0.854492 6.049804,2.597657 1.794436,1.743164 1.794436,4.95605 0,4.2212 -2.512209,6.28907 -2.495117,2.05078 -7.63916,2.05078 -2.426758,0 -4.870606,-0.46143 -2.443847,-0.46142 -4.887695,-1.36719 l 0,-5.55419 q 2.443848,1.29882 4.716797,1.96533 2.290039,0.64941 4.40918,0.64941 2.15332,0 3.298339,-0.71777 1.14502,-0.71778 1.14502,-2.05078 0,-1.196292 -0.786133,-1.845706 -0.769043,-0.649414 -3.093262,-1.16211 L 88.174805,97.3496 q -3.828125,-0.820313 -5.605469,-2.614747 -1.760254,-1.794433 -1.760254,-4.836425 0,-3.811035 2.460938,-5.861817 2.460937,-2.050781 7.075195,-2.050781 2.102051,0 4.32373,0.324707 2.22168,0.307617 4.597168,0.939941 z" />
        <path
           inkscape:connector-curvature="0"
           id="path3435"
           style="font-style:normal;font-variant:normal;font-weight:bold;font-stretch:normal;font-size:35px;font-family:sans-serif;-inkscape-font-specification:'sans-serif Bold';fill:#ffffff"
           d="m 116.08252,93.760732 q 2.06787,0 2.95654,-0.769043 0.90576,-0.769043 0.90576,-2.529296 0,-1.743165 -0.90576,-2.495118 -0.88867,-0.751953 -2.95654,-0.751953 l -2.76856,0 0,6.54541 2.76856,0 z m -2.76856,4.545899 0,9.655759 -6.57958,0 0,-25.515134 10.04882,0 q 5.04151,0 7.38282,1.691894 2.35839,1.691895 2.35839,5.349121 0,2.529297 -1.23046,4.152832 -1.21338,1.623536 -3.67432,2.392579 1.3501,0.307617 2.40967,1.401367 1.07666,1.07666 2.17041,3.281251 l 3.57177,7.24609 -7.00683,0 -3.11035,-6.34033 q -0.93994,-1.914062 -1.91407,-2.614746 -0.95703,-0.700683 -2.56347,-0.700683 l -1.8628,0 z" />
        <path
           inkscape:connector-curvature="0"
           id="path3437"
           style="font-style:normal;font-variant:normal;font-weight:bold;font-stretch:normal;font-size:35px;font-family:sans-serif;-inkscape-font-specification:'sans-serif Bold';fill:#ffffff"
           d="m 129.05371,82.447256 23.51563,0 0,4.973144 -8.45948,0 0,20.54199 -6.57959,0 0,-20.54199 -8.47656,0 0,-4.973144 z" />
        <path
           inkscape:connector-curvature="0"
           id="path3439"
           style="font-style:normal;font-variant:normal;font-weight:bold;font-stretch:normal;font-size:35px;font-family:sans-serif;-inkscape-font-specification:'sans-serif Bold';fill:#ffffff"
           d="m 165.30127,93.760732 q 2.06787,0 2.95654,-0.769043 0.90576,-0.769043 0.90576,-2.529296 0,-1.743165 -0.90576,-2.495118 -0.88867,-0.751953 -2.95654,-0.751953 l -2.76856,0 0,6.54541 2.76856,0 z m -2.76856,4.545899 0,9.655759 -6.57959,0 0,-25.515134 10.04883,0 q 5.04151,0 7.38282,1.691894 2.35839,1.691895 2.35839,5.349121 0,2.529297 -1.23046,4.152832 -1.21338,1.623536 -3.67432,2.392579 1.3501,0.307617 2.40967,1.401367 1.07666,1.07666 2.17041,3.281251 l 3.57177,7.24609 -7.00683,0 -3.11035,-6.34033 q -0.93994,-1.914062 -1.91407,-2.614746 -0.95703,-0.700683 -2.56347,-0.700683 l -1.8628,0 z" />
        <path
           inkscape:connector-curvature="0"
           id="path3441"
           style="font-style:normal;font-variant:normal;font-weight:bold;font-stretch:normal;font-size:35px;font-family:sans-serif;-inkscape-font-specification:'sans-serif Bold';fill:#ffffff"
           d="m 182.88672,82.447256 6.57959,0 0,25.515134 -6.57959,0 0,-25.515134 z" />
        <path
           inkscape:connector-curvature="0"
           id="path3443"
           style="font-style:normal;font-variant:normal;font-weight:bold;font-stretch:normal;font-size:35px;font-family:sans-serif;-inkscape-font-specification:'sans-serif Bold';fill:#ffffff"
           d="m 195.94336,82.447256 10.92041,0 q 4.8706,0 7.46826,2.17041 2.61475,2.15332 2.61475,6.152344 0,4.016113 -2.61475,6.186523 -2.59766,2.15332 -7.46826,2.15332 l -4.34082,0 0,8.852537 -6.57959,0 0,-25.515134 z m 6.57959,4.768066 0,7.126465 3.64014,0 q 1.91406,0 2.95654,-0.922852 1.04248,-0.939941 1.04248,-2.648925 0,-1.708985 -1.04248,-2.631836 -1.04248,-0.922852 -2.95654,-0.922852 l -3.64014,0 z" />
      </g>
    </g>
  </g>
</svg>
