<?xml version="1.0" encoding="UTF-8" standalone="no"?>
<!-- Created with Inkscape (http://www.inkscape.org/) -->

<svg
   xmlns:dc="http://purl.org/dc/elements/1.1/"
   xmlns:cc="http://creativecommons.org/ns#"
   xmlns:rdf="http://www.w3.org/1999/02/22-rdf-syntax-ns#"
   xmlns:svg="http://www.w3.org/2000/svg"
   xmlns="http://www.w3.org/2000/svg"
   xmlns:sodipodi="http://sodipodi.sourceforge.net/DTD/sodipodi-0.dtd"
   xmlns:inkscape="http://www.inkscape.org/namespaces/inkscape"
   width="500"
   height="500"
   id="svg2"
   version="1.1"
   inkscape:version="0.91 r13725"
   sodipodi:docname="application-x-theme.svg">
  <defs
     id="defs4" />
  <sodipodi:namedview
     id="base"
     pagecolor="#ffffff"
     bordercolor="#666666"
     borderopacity="1.0"
     inkscape:pageopacity="0.0"
     inkscape:pageshadow="2"
     inkscape:zoom="0.4289781"
     inkscape:cx="902.96519"
     inkscape:cy="23.38893"
     inkscape:document-units="px"
     inkscape:current-layer="layer1"
     showgrid="false"
     inkscape:window-width="1366"
     inkscape:window-height="715"
     inkscape:window-x="0"
     inkscape:window-y="24"
     inkscape:window-maximized="1" />
  <metadata
     id="metadata7">
    <rdf:RDF>
      <cc:Work
         rdf:about="">
        <dc:format>image/svg+xml</dc:format>
        <dc:type
           rdf:resource="http://purl.org/dc/dcmitype/StillImage" />
        <dc:title />
      </cc:Work>
    </rdf:RDF>
  </metadata>
  <g
     inkscape:label="Layer 1"
     inkscape:groupmode="layer"
     id="layer1"
     transform="translate(0,-552.36218)">
    <g
       id="g4277">
      <path
         sodipodi:nodetypes="ccccc"
         inkscape:connector-curvature="0"
         id="path4230"
         d="M 63.03896,706.21228 116.261,758.31084 114.60095,685.26899 63,685.02389 Z"
         style="fill:#d51e06;fill-opacity:1;fill-rule:evenodd;stroke:none;stroke-width:1px;stroke-linecap:butt;stroke-linejoin:miter;stroke-opacity:1" />
      <path
         inkscape:connector-curvature="0"
         id="path3364"
         d="m 97.04097,1029.8357 336.88838,-1.1739 1.1738,-363.88642 -88.03699,-89.21086 -250.02519,0 z"
         style="fill:#f2f2f2;fill-rule:evenodd;stroke:#afafaf;stroke-width:5.03546047;stroke-linecap:butt;stroke-linejoin:miter;stroke-miterlimit:4;stroke-dasharray:none;stroke-opacity:1" />
      <path
         sodipodi:nodetypes="cccc"
         inkscape:connector-curvature="0"
         id="path4166"
         d="m 431.51905,662.93122 -82.16427,-0.58691 0.75853,-83.80351 z"
         style="fill:#afafaf;fill-opacity:1;fill-rule:evenodd;stroke:#afafaf;stroke-width:5.03546047;stroke-linecap:butt;stroke-linejoin:miter;stroke-miterlimit:4;stroke-dasharray:none;stroke-opacity:1" />
      <rect
         y="622.1875"
         x="63.139751"
         height="84.350876"
         width="264.49612"
         id="rect4228"
         style="fill:#f03916;fill-opacity:1;stroke:none;stroke-width:5;stroke-miterlimit:4;stroke-dasharray:none;stroke-opacity:1" />
      <g
         transform="matrix(0.5953605,0,0,0.5953605,101.66112,380.58967)"
         id="g3371">
        <path
           style="fill:#ffcc00;fill-opacity:1"
           d="m 226.47124,1068.8365 c -5.99679,-6.9216 -13.135,-16.0686 -15.86271,-20.3267 -4.95489,-7.7349 -4.94096,-7.7569 15.00636,-23.6554 10.98125,-8.7522 20.19427,-15.4885 20.47341,-14.9693 0.2792,0.5191 7.13017,9.5755 15.22458,20.1253 l 14.71705,19.1816 -16.19612,16.3998 c -8.90784,9.0199 -17.60531,16.2714 -19.32772,16.1146 -1.72241,-0.1569 -8.03809,-5.9483 -14.03485,-12.8699 z m 44.336,-47.7451 -19.7823,-18.5054 8.66983,-11.01953 c 4.76842,-6.06077 11.65398,-16.90854 15.30134,-24.10615 l 6.63147,-13.08661 8.50207,11.57251 c 4.67612,6.36486 12.09344,14.87606 16.48298,18.91378 4.38949,4.03773 7.98091,9.17773 7.98091,11.42224 0,6.86376 -17.58533,43.31456 -20.8967,43.31456 -1.70903,0 -12.00936,-8.3275 -22.8896,-18.5054 z m -146.40625,2.6073 c -1.73973,-7.0784 -4.09089,-19.2802 -5.2248,-27.115 -2.30661,-15.93761 -3.01517,-15.42678 25.97507,-18.72658 7.57012,-0.86166 15.80402,-2.34958 18.29764,-3.30645 3.64032,-1.3969 5.25005,3.17443 8.16829,23.19654 1.99899,13.71499 2.62255,25.91079 1.3857,27.10189 -2.25498,2.1715 -36.83952,11.7195 -42.45008,11.7195 -1.64379,0 -4.41206,-5.7914 -6.15182,-12.8699 z m 67.99232,-4.4744 c -4.74146,-9.2014 -14.06874,-39.06762 -14.06874,-45.04858 0,-2.06681 4.56057,-5.26295 10.13465,-7.10259 5.57406,-1.8396 16.42543,-7.3342 24.11416,-12.21025 l 13.97946,-8.86552 1.82027,11.21835 c 1.00113,6.17011 3.70516,17.35049 6.00895,24.8453 4.6983,15.28465 4.58313,15.45326 -24.90563,36.46769 l -12.75698,9.0909 z m 46.81877,-40.94855 c -1.74587,-5.41291 -4.06759,-15.61961 -5.15938,-22.68158 -1.72756,-11.17448 -0.85532,-14.2891 6.72476,-24.01269 4.79038,-6.145 12.39291,-18.08202 16.89446,-26.52667 l 8.18469,-15.35391 0.143,10.80614 c 0.0784,5.94336 2.2332,17.84503 4.78807,26.44817 4.23944,14.27579 4.20782,16.50591 -0.362,25.53227 -6.09546,12.03979 -23.19392,35.40712 -26.00282,35.53628 -1.11994,0.0515 -3.46473,-4.33511 -5.21064,-9.74801 z m 59.89155,-10.73281 -13.19162,-14.77947 -0.0433,-32.16005 -0.0433,-32.1601 7.43863,9.71342 c 4.09124,5.34235 12.10247,14.21635 17.80271,19.72002 7.78184,7.51344 10.67923,13.17213 11.62889,22.71149 1.5638,15.70814 -2.481,39.09429 -7.02349,40.60843 -1.85743,0.61915 -9.31334,-5.52506 -16.56875,-13.65374 z M 118.76236,949.18065 c 0.98789,-9.39672 3.68287,-22.51957 5.98885,-29.16186 4.07527,-11.73875 4.5236,-12.03628 16.01316,-10.62623 6.50129,0.79791 18.97462,1.2466 27.71855,0.99714 8.74392,-0.24954 15.84507,-0.23712 15.78036,0.0271 -0.0648,0.26465 -3.85738,11.331 -8.42815,24.59202 -9.20595,26.70911 -8.16136,26.00481 -44.0878,29.72552 l -14.78112,1.53081 1.79615,-17.08492 z m -41.125449,-1.75584 c -17.28078,-4.50605 -23.46855,-7.43286 -23.46855,-11.10064 0,-5.24181 5.21714,-20.7562 13.40282,-39.85648 l 4.88666,-11.40241 9.78151,5.07043 c 5.37984,2.78872 15.91361,7.23845 23.408409,9.8883 l 13.6269,4.8179 -9.08461,24.35124 -9.0846,24.35123 z m 101.586929,-3.04249 c 0.93046,-5.73368 4.37757,-16.49662 7.66023,-23.91766 4.71902,-10.66814 7.95104,-13.92825 15.43863,-15.57278 5.20857,-1.144 16.38492,-6.73333 24.83638,-12.42074 8.45143,-5.68738 15.83404,-10.34073 16.40579,-10.34073 0.57174,0 -1.50156,5.79143 -4.6073,12.86984 -3.10576,7.07843 -6.59079,17.99749 -7.74453,24.26458 -2.33046,12.65881 -10.12907,19.59438 -33.10837,29.44449 -19.3197,8.28136 -20.86926,7.92627 -18.88083,-4.327 z"
           id="path3371-7"
           inkscape:connector-curvature="0"
           sodipodi:nodetypes="ssscscscsscsscssssssssssssssssscssscscsssccsssccccccsssscccssscsscccssscsscccssssssssss" />
        <path
           style="fill:#45d03f;fill-opacity:1"
           d="m 273.61951,915.86293 c -1.76356,-8.04584 -4.09139,-20.05709 -5.17295,-26.6917 l -1.96649,-12.06286 -7.26594,15.28768 c -3.99626,8.40822 -10.84719,18.60592 -15.22431,22.66157 l -7.95838,7.3739 2.11787,-10.5987 c 1.16486,-5.82927 6.1007,-19.28453 10.96859,-29.90055 l 8.85068,-19.30187 -9.18848,8.98342 c -10.63002,10.39282 -38.20456,24.16778 -41.5584,20.76067 13.23976,-17.48687 21.84049,-21.06441 33.84942,-31.68287 0.9159,-1.48197 -8.65858,-2.69346 -21.28679,-2.69346 -39.76185,0 -33.87686,-6.84948 12.3613,-14.38718 l 12.06286,-1.96649 -15.28768,-7.26596 c -8.40823,-3.99624 -18.60592,-10.84719 -22.6616,-15.22429 l -7.37387,-7.95838 10.5987,2.11785 c 5.82928,1.16486 19.3302,6.12208 30.00203,11.01607 l 19.40334,8.8982 -8.35201,-8.35206 c -8.05883,-8.05882 -16.97198,-23.16309 -22.9551,-38.89994 -2.62613,-6.90724 -2.36084,-7.27782 3.11273,-4.34843 3.29096,1.76123 11.61135,10.65626 18.48979,19.76669 6.87844,9.11043 13.10093,16.56439 13.82773,16.56439 3.46082,0 -11.21736,-20.35379 -24.76062,-34.33483 l -15.141,-15.63046 0.33555,-23.65268 c 0.4642,-32.72152 3.87926,-35.0098 22.38585,-14.99967 15.37318,16.62208 25.17833,37.8415 30.23966,65.44189 l 2.86172,15.60526 -1.43695,-19.58386 c -1.83705,-25.03712 -14.21509,-51.94901 -32.82883,-71.37538 -7.69257,-8.02842 -13.9865,-16.42731 -13.9865,-18.66419 0,-6.33759 17.46747,-43.30066 20.46242,-43.30066 3.17226,0 26.54745,19.52502 36.25334,30.28201 27.93445,30.95956 31.57167,78.12328 9.74995,126.42732 -4.70254,10.40944 -7.88704,18.92627 -7.07664,18.92627 4.02123,0 22.51652,-46.26547 25.11926,-62.83515 5.25913,-33.48062 -4.56873,-69.62219 -26.4543,-97.28457 -4.44881,-5.62307 -10.6637,-13.56372 -13.81089,-17.64582 l -5.72217,-7.42206 16.21744,-16.42138 c 8.91955,-9.03178 17.52739,-16.42141 19.12849,-16.42141 9.6912,0 48.57614,58.52591 56.73777,85.39636 15.10226,49.72092 0.34182,90.00655 -47.32917,129.17526 -11.54692,9.48749 -11.63923,9.69467 -1.97573,4.43444 13.94849,-7.5927 38.14155,-31.84346 47.21708,-47.3297 11.96759,-20.4211 17.87804,-48.39426 15.84065,-74.97097 -0.96589,-12.59967 -3.13259,-26.52883 -4.81491,-30.95364 -2.95867,-7.78186 -2.55902,-8.19354 12.21258,-12.58023 8.39923,-2.4943 19.76887,-5.37884 25.26587,-6.4101 9.93808,-1.8644 10.01802,-1.78367 14.14619,14.29135 2.47524,9.63843 4.05974,30.83959 3.92404,52.50473 -0.29344,46.82823 -6.59263,64.84053 -31.32623,89.57413 -17.93513,17.93512 -37.56061,27.47896 -67.91249,33.02563 l -15.60525,2.85182 18.92166,-1.1172 c 23.45493,-1.38481 52.35155,-14.25607 71.37676,-31.79289 13.8868,-12.80041 31.96735,-43.64509 38.44853,-65.59161 l 3.66686,-12.41671 24.07042,6.36031 24.07043,6.3603 -1.98096,10.59444 c -5.48967,29.35987 -28.37162,69.34757 -52.54249,91.82149 -35.43537,32.9475 -77.89057,37.47387 -130.12838,13.87364 l -19.23818,-8.69151 8.91971,9.1233 c 10.30307,10.53822 24.09354,38.13291 20.73526,41.49118 -2.28614,2.28613 -11.54313,-7.03357 -26.41097,-26.58997 l -7.97859,-10.49458 -0.0118,23.73773 c -0.0151,28.65324 -4.60972,36.18086 -9.22677,15.11667 z m 2.48491,-67.62228 c 0,-1.66552 -1.36269,-3.02821 -3.0282,-3.02821 -1.66551,0 -3.0282,1.36269 -3.0282,3.02821 0,1.6655 1.36269,3.02819 3.0282,3.02819 1.66551,0 3.0282,-1.36269 3.0282,-3.02819 z"
           id="path3371-3"
           inkscape:connector-curvature="0"
           sodipodi:nodetypes="cscsscsscsccsscsscsscsscssscssscsssssssssscsssssssssssssscssscccssscsssccccsssss" />
        <path
           style="fill:#00bbf2;fill-opacity:1"
           d="m 340.29968,1060.6199 c -7.49479,-3.0351 -17.31445,-7.0029 -21.82143,-8.8175 l -8.19456,-3.2991 8.95161,-19.7424 c 4.92335,-10.8582 8.95159,-21.8163 8.95159,-24.3511 0,-5.72596 -0.52128,-5.76836 13.81515,1.1242 6.55852,3.1532 17.51206,7.3959 24.34125,9.4282 l 12.41671,3.6951 -6.33603,23.8821 c -7.15302,26.9617 -8.42506,27.6777 -32.12429,18.0805 z m 19.68331,-60.71496 c -6.66204,-1.4454 -15.67327,-3.9994 -20.02491,-5.6754 -7.67286,-2.9551 -7.83199,-3.5351 -5.2618,-19.1782 1.45768,-8.8721 1.8048,-21.4037 0.77143,-27.8481 -1.47229,-9.1815 -0.98888,-11.3499 2.23361,-10.0199 26.86271,11.087 47.16556,14.9128 70.42837,13.2711 13.53433,-0.9551 28.29934,-3.1401 32.81112,-4.8555 7.98103,-3.0343 8.32609,-2.7051 12.73833,12.1525 2.4943,8.3992 5.37396,19.7428 6.39922,25.208 1.83085,9.7592 1.60277,10.0051 -12.77725,13.7759 -18.20347,4.77336 -71.08028,6.69276 -87.31812,3.1696 z m -10.19771,-64.5461 c -14.61062,-6.0409 -16.8076,-8.1925 -21.72794,-21.2787 -3.01058,-8.0069 -8.98246,-19.1582 -13.27085,-24.7805 -4.28835,-5.6224 -7.79701,-10.9181 -7.79701,-11.7683 0,-0.8503 5.79966,1.0196 12.88809,4.1551 61.49576,16.7885 103.96143,1.5447 146.70824,-31.447 l 7.42206,-5.7222 16.42138,16.2174 c 9.03178,8.9196 16.42141,17.2896 16.42141,18.5999 0,4.1251 -24.1046,24.5575 -44.83944,38.0085 -37.8567,24.5583 -80.02837,31.3282 -112.22594,18.0158 z"
           id="path3371-6"
           inkscape:connector-curvature="0"
           sodipodi:nodetypes="sccsssscsscssssscssscsscscccssss" />
        <path
           style="fill:#f03916;fill-opacity:1"
           d="m 221.39161,867.61177 c 0,0 -4.99415,8.00712 -13.11131,15.96991 l -14.75848,14.47786 -23.6527,-0.33555 c -32.5444,-0.46168 -34.97772,-3.90819 -15.48794,-21.93689 l 15.36696,-14.21495 51.58557,5.82761 z m -119.47284,13.84046 c -10.409447,-4.81738 -18.926247,-9.96033 -18.926247,-11.42876 0,-3.2777 19.956507,-27.02053 30.231787,-35.96763 l 7.52031,-6.54824 10.64892,8.37626 c 5.85688,4.60695 16.53785,11.3604 23.73546,15.00774 l 13.08661,6.63149 -11.57251,8.50204 c -6.36486,4.67614 -14.87606,12.09347 -18.91377,16.483 -9.12828,9.92356 -12.2873,9.8304 -35.81056,-1.0559 z M 56.038733,834.77111 c -8.88153,-8.99321 -15.64844,-17.6608 -15.03756,-19.26128 1.38222,-3.62153 28.27436,-26.90796 35.60531,-30.83135 4.48666,-2.40122 8.09831,0.48348 21.22417,16.9521 8.699567,10.91515 15.392717,20.07409 14.873597,20.35323 -0.5191,0.27919 -9.34557,6.9495 -19.614337,14.82305 -10.26879,7.87358 -19.17281,14.31559 -19.78675,14.31559 -0.61391,0 -8.38293,-7.35811 -17.26443,-16.35134 z m 107.201077,7.32539 c -8.32754,-4.93302 -18.47494,-11.82836 -22.54974,-15.32299 -8.90579,-7.63775 -6.21404,-10.16585 15.88536,-14.91967 20.66557,-4.44536 23.02079,-4.0947 34.93354,5.20136 5.86939,4.58016 17.58089,12.01066 26.02554,16.51222 l 15.35391,8.18468 -10.87448,0.143 c -5.98098,0.0787 -17.56383,2.17215 -25.7397,4.65241 -18.5501,5.62736 -15.27651,6.06842 -33.03443,-4.45088 z m 68.12994,-25.90957 c -4.16127,-2.28691 -14.79335,-5.81536 -23.62687,-7.84104 -17.37947,-3.98548 -23.05061,-9.58596 -33.88744,-33.46551 -8.6458,-19.05153 -8.04653,-21.77298 4.35156,-19.76104 5.73369,0.93045 16.49663,4.37758 23.91767,7.66023 10.66813,4.71903 13.92822,7.95105 15.57278,15.43864 1.14399,5.20856 6.7696,16.43881 12.50135,24.95618 5.73174,8.51732 10.04232,15.86505 9.57909,16.32827 -0.4632,0.46321 -4.24689,-1.02887 -8.40814,-3.31573 z M 117.67336,803.39097 c -5.07547,-6.22513 -12.27918,-15.6865 -16.00829,-21.0253 l -6.780227,-9.70688 8.437797,-4.34807 c 9.23513,-4.75893 39.09722,-14.09066 45.09096,-14.09066 2.06681,0 5.26295,4.56059 7.10259,10.13467 1.8396,5.57405 7.3342,16.42543 12.21025,24.11414 l 8.86553,13.97948 -11.21835,1.90244 c -12.36514,2.09688 -26.90932,5.76333 -33.92989,8.55341 -2.91976,1.16037 -7.83861,-2.2378 -13.77037,-9.51323 z m 68.40309,-51.89844 c -24.96117,-8.80964 -24.52237,-8.12783 -28.22191,-43.8497 l -1.53079,-14.78115 17.08492,1.79617 c 9.39672,0.9879 22.51957,3.68286 29.16187,5.98883 11.74012,4.07579 12.03629,4.52228 10.62144,16.0132 -0.80048,6.50126 -1.35561,18.97461 -1.23357,27.71853 0.12202,8.74393 -0.56956,15.71527 -1.53688,15.49186 -0.96729,-0.22348 -11.9226,-3.99339 -24.34508,-8.37774 z m -90.481437,-6.74841 c -4.58817,-12.35213 -10.32883,-39.23011 -8.72203,-40.83694 0.84413,-0.84411 12.69412,-3.73329 26.333337,-6.42037 28.12013,-5.53992 30.16444,-4.57495 30.37607,14.33845 0.0651,5.82929 1.26779,15.54245 2.67229,21.5848 l 2.5537,10.9861 -15.65562,1.84002 c -8.61056,1.01199 -19.98359,2.70561 -25.27335,3.76354 -8.232397,1.64648 -10.001797,0.88947 -12.284397,-5.2556 z M 212.01385,694.17843 c -0.85177,-1.37823 -10.92777,-5.69895 -22.39106,-9.6016 l -20.84236,-7.09577 6.28999,-23.7086 c 4.86581,-18.34041 7.50863,-23.70859 11.67214,-23.70859 7.54763,0 47.65995,15.91883 47.65995,18.91416 0,1.35616 -3.40673,10.55977 -7.57049,20.45243 -4.16379,9.89269 -7.57051,20.0718 -7.57051,22.62027 0,4.9352 -4.66597,6.30497 -7.24766,2.1277 z"
           id="path3371-7-5"
           inkscape:connector-curvature="0"
           sodipodi:nodetypes="cscsscccssscsscsssscsscssscsssscssccssssssscssscsssscssssscsssscsscscscssssscssssss" />
      </g>
      <path
         id="rect3396"
         d="m 133.05078,622.18835 -36.900389,84.34961 85.238279,0 36.90039,-84.34961 -85.23828,0 z"
         style="opacity:1;fill:#45d03f;fill-opacity:1;stroke:none;stroke-width:0.5;stroke-linecap:round;stroke-miterlimit:4;stroke-dasharray:none;stroke-opacity:1"
         inkscape:connector-curvature="0" />
      <path
         id="path4199"
         d="m 217.05078,622.18835 -36.90039,84.34961 85.23828,0 36.90039,-84.34961 -85.23828,0 z"
         style="opacity:1;fill:#00bbf2;fill-opacity:1;stroke:none;stroke-width:0.5;stroke-linecap:round;stroke-miterlimit:4;stroke-dasharray:none;stroke-opacity:1"
         inkscape:connector-curvature="0" />
      <path
         id="path4201"
         d="m 301.05078,622.18835 -36.90039,84.34961 63.48633,0 0,-84.34961 -26.58594,0 z"
         style="opacity:1;fill:#ffcc00;fill-opacity:1;stroke:none;stroke-width:0.5;stroke-linecap:round;stroke-miterlimit:4;stroke-dasharray:none;stroke-opacity:1"
         inkscape:connector-curvature="0" />
      <g
         id="flowRoot3377"
         style="font-style:normal;font-weight:normal;font-size:40px;line-height:125%;font-family:sans-serif;letter-spacing:0px;word-spacing:0px;fill:#ffffff;fill-opacity:1;stroke:none;stroke-width:1px;stroke-linecap:butt;stroke-linejoin:miter;stroke-opacity:1"
         transform="matrix(1.6357549,0,0,1.6357549,-52.211,497.40362)">
        <path
           inkscape:connector-curvature="0"
           id="path3386"
           style="font-style:normal;font-variant:normal;font-weight:bold;font-stretch:normal;font-family:sans-serif;-inkscape-font-specification:'sans-serif Bold';fill:#ffffff"
           d="m 74.791016,86.446138 26.875004,0 0,5.683594 -9.667973,0 0,23.476558 -7.519531,0 0,-23.476558 -9.6875,0 0,-5.683594 z" />
        <path
           inkscape:connector-curvature="0"
           id="path3388"
           style="font-style:normal;font-variant:normal;font-weight:bold;font-stretch:normal;font-family:sans-serif;-inkscape-font-specification:'sans-serif Bold';fill:#ffffff"
           d="m 105.5332,86.446138 7.51953,0 0,11.113282 11.09375,0 0,-11.113282 7.51954,0 0,29.160152 -7.51954,0 0,-12.36328 -11.09375,0 0,12.36328 -7.51953,0 0,-29.160152 z" />
        <path
           inkscape:connector-curvature="0"
           id="path3390"
           style="font-style:normal;font-variant:normal;font-weight:bold;font-stretch:normal;font-family:sans-serif;-inkscape-font-specification:'sans-serif Bold';fill:#ffffff"
           d="m 139.04883,86.446138 20.29297,0 0,5.683594 -12.77344,0 0,5.429688 12.01172,0 0,5.68359 -12.01172,0 0,6.67969 13.20312,0 0,5.68359 -20.72265,0 0,-29.160152 z" />
        <path
           inkscape:connector-curvature="0"
           id="path3392"
           style="font-style:normal;font-variant:normal;font-weight:bold;font-stretch:normal;font-family:sans-serif;-inkscape-font-specification:'sans-serif Bold';fill:#ffffff"
           d="m 166.39258,86.446138 9.57031,0 6.64063,15.605472 6.67968,-15.605472 9.55078,0 0,29.160152 -7.10937,0 0,-21.32812 -6.71875,15.72266 -4.76563,0 -6.71875,-15.72266 0,21.32812 -7.1289,0 0,-29.160152 z" />
        <path
           inkscape:connector-curvature="0"
           id="path3394"
           style="font-style:normal;font-variant:normal;font-weight:bold;font-stretch:normal;font-family:sans-serif;-inkscape-font-specification:'sans-serif Bold';fill:#ffffff"
           d="m 206.23633,86.446138 20.29297,0 0,5.683594 -12.77344,0 0,5.429688 12.01172,0 0,5.68359 -12.01172,0 0,6.67969 13.20312,0 0,5.68359 -20.72265,0 0,-29.160152 z" />
      </g>
    </g>
  </g>
</svg>
