<?xml version="1.0" encoding="UTF-8" standalone="no"?>
<!-- Created with Inkscape (http://www.inkscape.org/) -->

<svg
   xmlns:dc="http://purl.org/dc/elements/1.1/"
   xmlns:cc="http://creativecommons.org/ns#"
   xmlns:rdf="http://www.w3.org/1999/02/22-rdf-syntax-ns#"
   xmlns:svg="http://www.w3.org/2000/svg"
   xmlns="http://www.w3.org/2000/svg"
   xmlns:sodipodi="http://sodipodi.sourceforge.net/DTD/sodipodi-0.dtd"
   xmlns:inkscape="http://www.inkscape.org/namespaces/inkscape"
   width="500"
   height="500"
   id="svg2"
   version="1.1"
   inkscape:version="0.91 r13725"
   sodipodi:docname="application-x-trash.svg">
  <defs
     id="defs4" />
  <sodipodi:namedview
     id="base"
     pagecolor="#ffffff"
     bordercolor="#666666"
     borderopacity="1.0"
     inkscape:pageopacity="0.0"
     inkscape:pageshadow="2"
     inkscape:zoom="0.21249323"
     inkscape:cx="1431.3076"
     inkscape:cy="383.19299"
     inkscape:document-units="px"
     inkscape:current-layer="layer1"
     showgrid="false"
     inkscape:window-width="1366"
     inkscape:window-height="715"
     inkscape:window-x="0"
     inkscape:window-y="24"
     inkscape:window-maximized="1" />
  <metadata
     id="metadata7">
    <rdf:RDF>
      <cc:Work
         rdf:about="">
        <dc:format>image/svg+xml</dc:format>
        <dc:type
           rdf:resource="http://purl.org/dc/dcmitype/StillImage" />
        <dc:title />
      </cc:Work>
    </rdf:RDF>
  </metadata>
  <g
     inkscape:label="Layer 1"
     inkscape:groupmode="layer"
     id="layer1"
     transform="translate(0,-552.36218)">
    <g
       id="g4198">
      <path
         sodipodi:nodetypes="ccccc"
         inkscape:connector-curvature="0"
         id="path4230"
         d="M 63.03896,706.21223 116.261,758.31079 114.60095,685.26894 63,685.02384 Z"
         style="fill:#002934;fill-opacity:1;fill-rule:evenodd;stroke:none;stroke-width:1px;stroke-linecap:butt;stroke-linejoin:miter;stroke-opacity:1" />
      <path
         inkscape:connector-curvature="0"
         id="path3364"
         d="m 97.04097,1029.8357 336.88832,-1.1739 1.1738,-363.88647 -88.03693,-89.21086 -250.02519,0 z"
         style="fill:#f2f2f2;fill-rule:evenodd;stroke:#afafaf;stroke-width:5.03546047;stroke-linecap:butt;stroke-linejoin:miter;stroke-miterlimit:4;stroke-dasharray:none;stroke-opacity:1" />
      <path
         sodipodi:nodetypes="cccc"
         inkscape:connector-curvature="0"
         id="path4166"
         d="m 431.51899,662.93117 -82.16421,-0.58691 0.75853,-83.80351 z"
         style="fill:#afafaf;fill-opacity:1;fill-rule:evenodd;stroke:#afafaf;stroke-width:5.03546047;stroke-linecap:butt;stroke-linejoin:miter;stroke-miterlimit:4;stroke-dasharray:none;stroke-opacity:1" />
      <rect
         y="622.18744"
         x="63.139713"
         height="84.350876"
         width="215.04558"
         id="rect4228"
         style="fill:#004455;fill-opacity:1;stroke:none;stroke-width:5;stroke-miterlimit:4;stroke-dasharray:none;stroke-opacity:1" />
      <g
         style="fill:#004455;fill-opacity:1;stroke:#004455;stroke-opacity:1"
         id="g20"
         transform="matrix(6.8934831,0,0,6.8934831,-165.85388,312.67027)">
        <linearGradient
           y2="89.454102"
           x2="81.225601"
           y1="89.454102"
           x1="64.779297"
           gradientUnits="userSpaceOnUse"
           id="SVGID_2_">
          <stop
             id="stop23"
             style="stop-color:#80C11B"
             offset="0" />
          <stop
             id="stop25"
             style="stop-color:#80E21B"
             offset="1" />
        </linearGradient>
        <path
           style="fill:#004455;fill-opacity:1;stroke:#004455;stroke-opacity:1"
           id="path27"
           d="m 68.818,87.321 -4.039,7.105 4.105,7.037 -0.016,-3.096 3.416,-0.063 c 2.135,-0.059 3.303,-1.699 3.303,-1.699 l 5.166,-8.844 c 1.104,-2.484 -0.076,-4.172 -0.076,-4.172 l -3.594,-6.146 -7.104,4.107 4.563,7.889 c 0.168,0.416 -0.1,0.754 -0.596,0.746 l -5.107,0.035 -0.021,-2.899 0,0 z"
           inkscape:connector-curvature="0" />
        <linearGradient
           y2="88.808601"
           x2="62.918499"
           y1="88.808601"
           x1="46.181198"
           gradientUnits="userSpaceOnUse"
           id="SVGID_3_">
          <stop
             id="stop30"
             style="stop-color:#80C11B"
             offset="0" />
          <stop
             id="stop32"
             style="stop-color:#80E21B"
             offset="1" />
        </linearGradient>
        <path
           style="fill:#004455;fill-opacity:1;stroke:#004455;stroke-opacity:1"
           id="path34"
           d="m 58.476,86.259 -4.15,-7.043 -8.145,0.055 2.689,1.529 -1.651,2.99 c -1.013,1.881 -0.17,3.711 -0.17,3.711 l 5.096,8.885 c 1.604,2.197 3.656,2.011 3.656,2.011 l 7.118,-0.05 -0.024,-8.207 -9.112,0.027 C 53.34,90.104 53.179,89.706 53.432,89.278 l 2.515,-4.447 2.529,1.428 0,0 z"
           inkscape:connector-curvature="0" />
        <linearGradient
           y2="73.499001"
           x2="76.783203"
           y1="73.499001"
           x1="51.8843"
           gradientUnits="userSpaceOnUse"
           id="SVGID_4_">
          <stop
             id="stop37"
             style="stop-color:#80C11B"
             offset="0" />
          <stop
             id="stop39"
             style="stop-color:#80E21B"
             offset="1" />
        </linearGradient>
        <path
           style="fill:#004455;fill-opacity:1;stroke:#004455;stroke-opacity:1"
           id="path41"
           d="m 64.572,77.841 8.174,-0.063 4.037,-7.074 -2.672,1.561 -1.762,-2.928 C 71.232,67.519 69.224,67.329 69.224,67.329 L 58.981,67.282 c -2.707,0.287 -3.573,2.154 -3.573,2.154 l -3.524,6.188 7.111,4.092 4.546,-7.896 c 0.276,-0.354 0.701,-0.291 0.944,0.145 l 2.588,4.402 -2.501,1.474 0,0 z"
           inkscape:connector-curvature="0" />
      </g>
      <g
         id="flowRoot4156"
         style="font-style:normal;font-weight:normal;font-size:40px;line-height:125%;font-family:sans-serif;letter-spacing:0px;word-spacing:0px;fill:#000000;fill-opacity:1;stroke:none;stroke-width:1px;stroke-linecap:butt;stroke-linejoin:miter;stroke-opacity:1"
         transform="translate(-2.3530162,544.12662)">
        <path
           inkscape:connector-curvature="0"
           id="path4165"
           style="font-style:normal;font-variant:normal;font-weight:bold;font-stretch:normal;font-size:80px;font-family:sans-serif;-inkscape-font-specification:'sans-serif Bold';fill:#ffffff"
           d="m 190.23242,123.89814 q -2.77344,0 -4.29687,2.42187 -1.52344,2.38281 -1.52344,6.83594 0,4.49219 1.48437,6.91406 1.52344,2.38281 4.33594,2.38281 2.8125,0 4.29688,-2.38281 1.48437,-2.42187 1.48437,-6.91406 0,-4.45313 -1.52344,-6.83594 -1.48437,-2.42187 -4.25781,-2.42187 z m 0,-6.5625 q 7.26563,0 11.44531,4.21875 4.17969,4.21875 4.17969,11.60156 0,7.38281 -4.17969,11.67969 -4.17968,4.25781 -11.44531,4.25781 -7.26562,0 -11.48437,-4.25781 -4.17969,-4.29688 -4.17969,-11.67969 0,-7.34375 4.17969,-11.5625 4.21875,-4.25781 11.48437,-4.25781 z m -35.82031,31.75781 -8.63281,0 36.44531,-60.507814 8.67187,0 -36.48437,60.507814 z M 146.4043,88.585636 q 7.26562,0 11.40625,4.257813 4.17968,4.21875 4.17968,11.601561 0,7.38281 -4.17968,11.64063 -4.14063,4.25781 -11.40625,4.25781 -7.26563,0 -11.44532,-4.25781 -4.14062,-4.25782 -4.14062,-11.64063 0,-7.382811 4.14062,-11.601561 4.17969,-4.257813 11.44532,-4.257813 z m 0,6.5625 q -2.8125,0 -4.33594,2.421875 -1.52344,2.421875 -1.52344,6.874999 0,4.49219 1.52344,6.95313 1.52344,2.42187 4.33594,2.42187 2.8125,0 4.29687,-2.42187 1.52344,-2.46094 1.52344,-6.95313 0,-4.453124 -1.52344,-6.874999 -1.52344,-2.421875 -4.29687,-2.421875 z" />
      </g>
    </g>
  </g>
</svg>
