<?xml version="1.0" encoding="UTF-8" standalone="no"?>
<!-- Created with Inkscape (http://www.inkscape.org/) -->

<svg
   xmlns:dc="http://purl.org/dc/elements/1.1/"
   xmlns:cc="http://creativecommons.org/ns#"
   xmlns:rdf="http://www.w3.org/1999/02/22-rdf-syntax-ns#"
   xmlns:svg="http://www.w3.org/2000/svg"
   xmlns="http://www.w3.org/2000/svg"
   xmlns:sodipodi="http://sodipodi.sourceforge.net/DTD/sodipodi-0.dtd"
   xmlns:inkscape="http://www.inkscape.org/namespaces/inkscape"
   width="500"
   height="500"
   id="svg2"
   version="1.1"
   inkscape:version="0.91 r13725"
   sodipodi:docname="application-x-perl.svg">
  <defs
     id="defs4" />
  <sodipodi:namedview
     id="base"
     pagecolor="#ffffff"
     bordercolor="#666666"
     borderopacity="1.0"
     inkscape:pageopacity="0.0"
     inkscape:pageshadow="2"
     inkscape:zoom="0.60666665"
     inkscape:cx="507.68733"
     inkscape:cy="217.12977"
     inkscape:document-units="px"
     inkscape:current-layer="layer1"
     showgrid="false"
     inkscape:window-width="1366"
     inkscape:window-height="715"
     inkscape:window-x="0"
     inkscape:window-y="24"
     inkscape:window-maximized="1" />
  <metadata
     id="metadata7">
    <rdf:RDF>
      <cc:Work
         rdf:about="">
        <dc:format>image/svg+xml</dc:format>
        <dc:type
           rdf:resource="http://purl.org/dc/dcmitype/StillImage" />
        <dc:title />
      </cc:Work>
    </rdf:RDF>
  </metadata>
  <g
     inkscape:label="Layer 1"
     inkscape:groupmode="layer"
     id="layer1"
     transform="translate(0,-552.36218)">
    <g
       id="g4173">
      <path
         sodipodi:nodetypes="ccccc"
         inkscape:connector-curvature="0"
         id="path4230"
         d="m 63.190753,706.79485 53.222037,52.09856 -1.66005,-73.04185 -51.600947,-0.2451 z"
         style="fill:#955429;fill-opacity:1;fill-rule:evenodd;stroke:none;stroke-width:1px;stroke-linecap:butt;stroke-linejoin:miter;stroke-opacity:1" />
      <path
         inkscape:connector-curvature="0"
         id="path3364"
         d="m 96.901373,1029.8357 336.888377,-1.1739 1.1737,-363.88663 -88.0369,-89.21086 -250.025177,0 z"
         style="fill:#f2f2f2;fill-rule:evenodd;stroke:#afafaf;stroke-width:5.03546047;stroke-linecap:butt;stroke-linejoin:miter;stroke-miterlimit:4;stroke-dasharray:none;stroke-opacity:1" />
      <path
         sodipodi:nodetypes="cccc"
         inkscape:connector-curvature="0"
         id="path4166"
         d="m 431.37945,662.93101 -82.1642,-0.58691 0.7585,-83.80351 z"
         style="fill:#afafaf;fill-opacity:1;fill-rule:evenodd;stroke:#afafaf;stroke-width:5.03546047;stroke-linecap:butt;stroke-linejoin:miter;stroke-miterlimit:4;stroke-dasharray:none;stroke-opacity:1" />
      <rect
         y="622.18726"
         x="63"
         height="84.350876"
         width="224.93568"
         id="rect4228"
         style="fill:#c87137;fill-opacity:1;stroke:none;stroke-width:5;stroke-miterlimit:4;stroke-dasharray:none;stroke-opacity:1" />
      <path
         inkscape:connector-curvature="0"
         id="path2997"
         d="m 233.88179,776.10065 c -3.70618,0.62084 -6.88558,2.56775 -10.3807,3.72829 -7.38527,4.74618 -13.31985,12.03418 -14.84002,20.81014 -4.62299,14.84807 -18.21546,24.6089 -22.96193,39.33222 -3.90831,9.44184 -10.90541,16.88084 -17.43997,24.4628 -4.50348,5.62271 -4.01028,13.16375 -5.99449,19.73795 -1.98316,1.78893 -3.39108,5.89152 0.31679,6.33564 -0.10049,3.34271 -2.39092,7.06315 0.0243,10.25887 1.87627,6.9818 5.19433,13.6669 8.48002,20.12784 0.65322,2.35337 4.67632,5.08431 5.28782,1.29149 0.48892,-5.4123 2.83071,-11.8459 -0.97472,-16.61886 -2.43851,-6.12017 -0.43261,-12.58126 0.70668,-18.69015 -0.55122,-3.7688 0.79373,-8.06975 2.82666,-11.063 2.0989,1.13011 1.38485,4.92412 2.21669,6.95976 2.00496,14.64361 2.61179,29.86922 -1.09577,44.3102 -1.38024,5.65739 0.8883,11.64533 -0.43862,17.20369 -4.76251,5.17457 -1.07337,12.60418 -0.65793,18.61706 2.31447,11.15606 1.04757,22.74362 -2.29058,33.40828 -0.0741,3.82993 -1.41314,7.32613 -2.21747,10.99003 1.33416,4.6084 7.66901,6.2281 11.89151,5.1416 2.62909,-1.7739 7.64091,1.607 8.89426,-2.6074 0.38016,-4.5752 -4.09021,-7.9971 -3.72828,-12.647 -2.78616,-12.75486 -4.88008,-26.04196 -2.17358,-39.05 1.39545,-7.55598 0.8497,-15.63625 2.97772,-22.91741 4.69688,-5.8964 7.91422,-12.87136 9.91772,-20.17657 2.79227,-6.07158 4.52085,-13.44667 6.2138,-19.22624 7.28976,11.71789 11.6708,25.75887 9.76468,39.74199 0.2462,5.45404 -3.16505,11.84305 1.41798,16.14965 5.55657,8.69171 12.56889,16.88843 15.37829,26.91027 0.22259,4.19015 -5.42448,4.2569 -6.92047,7.65157 -3.31796,4.82355 -2.96638,10.96874 -3.3384,16.54584 3.13197,1.216 7.7303,4.4531 10.38071,0.5604 2.58791,-2.7295 3.69151,-7.50389 6.38438,-9.601 1.65981,3.14267 0.11151,8.2341 4.38621,9.7717 6.13241,2.1991 13.20619,2.8104 19.56738,1.2914 3.26763,-2.8338 -1.20079,-6.83012 -3.97196,-7.9196 -4.59708,-1.36155 -7.2957,-4.94513 -8.8699,-9.28419 -1.44537,-2.39678 -2.47805,-5.19837 0.34115,-7.04225 6.63344,-8.0468 15.75921,-13.37393 22.78394,-20.90765 4.2392,-5.88906 3.12177,-14.09127 1.5108,-20.73703 -1.98629,-3.87685 -3.42276,-7.94547 -2.33931,-12.3545 0.7382,-3.79516 -1.86399,-7.71566 -1.70575,-11.08738 3.7183,-0.24107 8.06383,-0.10586 11.37979,1.14529 0.89913,5.99963 -0.43478,12.39723 1.29149,18.20278 2.81468,2.68788 4.14792,6.93376 4.33748,10.79496 2.62839,3.23446 0.96882,7.99187 1.68139,11.94025 -1.68226,6.43268 0.70975,12.77903 2.68046,18.88505 3.60544,11.61872 2.08107,24.14207 5.16598,35.79647 2.34335,3.3096 -1.58776,8.8338 2.99725,11.0144 7.0916,2.6496 16.59105,3.4082 22.63772,-1.9251 1.84277,-3.6828 -3.59654,-5.7992 -6.2138,-6.9693 -3.6782,-0.8001 -6.46917,-3.37 -7.25039,-7.1749 -5.59631,-11.54645 -8.32812,-24.49697 -6.37275,-37.36491 0.28428,-6.20077 1.13521,-12.33132 2.73072,-18.23183 0.7489,-6.03139 0.84361,-12.23257 2.60735,-17.95911 1.03639,-8.0699 -0.72261,-16.57208 1.53518,-24.41658 3.64992,2.31879 7.5657,4.66412 11.89151,4.99541 2.81151,2.13257 5.83313,0.006 7.35909,-2.55863 2.25568,-3.09865 4.96725,5.1776 7.02971,0.98111 2.55895,-2.9014 5.86005,-4.97194 8.76065,-7.24364 1.64409,-2.67918 5.01867,-2.59728 7.38346,-3.82576 1.64178,-2.14531 -1.05858,-5.53839 1.97379,-7.18851 1.03455,-2.74768 3.67104,0.87492 4.87358,-1.73012 1.2781,-2.8337 1.07375,-6.73678 4.48368,-7.96828 6.19053,-4.91704 4.33759,-13.8842 5.44586,-20.83219 -0.0709,-6.92923 1.30135,-14.27195 -0.39301,-20.94985 -1.9848,-5.28567 -5.24741,-10.65907 -6.56365,-15.92102 6.03397,-4.81573 16.70534,-0.8245 20.81013,-8.74806 1.77896,-5.79657 -3.81631,-10.74549 -7.50529,-14.42576 -3.5878,-3.3806 -9.24621,-1.77063 -13.63277,-3.43268 -3.40508,-1.15512 -8.69922,0.12364 -9.58979,-4.51124 -1.42779,-3.66465 -5.89506,-3.63514 -8.28507,-6.40874 -3.82634,-1.97001 -7.29758,2.53208 -11.063,2.89977 -4.19109,2.92595 -8.99572,5.77992 -11.6722,10.23449 -1.14511,2.9051 -0.15528,6.69918 -3.28966,8.50438 -5.22976,6.01309 -3.03355,14.93319 -3.53333,22.24785 0.0662,3.34189 -0.0213,6.72584 1.87632,9.45473 0.28698,4.10098 4.01651,6.79261 3.35231,11.01413 -0.5209,2.77204 1.91764,8.69135 -2.67001,7.40795 -1.397,-2.33103 -1.1887,-6.29637 -2.49028,-9.03195 -3.83664,-11.79747 -9.65096,-24.5835 -21.26837,-30.49269 -8.19531,-6.00224 -14.04531,-14.72574 -17.44738,-24.19727 -3.21818,-4.80528 -9.14197,-7.76568 -11.6722,-12.96369 -3.32555,-1.41653 -7.33987,-0.92632 -10.64875,-2.77795 -4.10928,-1.82298 -7.82468,-5.12371 -12.74369,-4.54096 -3.24398,0.2387 -6.23482,-0.89194 -9.30921,-1.13675 z m 5.99449,132.34178 c 2.84198,0.94385 1.96562,5.37235 2.99724,7.67587 1.33089,3.23252 0.20656,8.96738 3.97196,10.60002 2.12484,3.51754 0.80674,8.27709 2.94851,11.52599 -0.49493,2.30582 -1.24832,6.61432 2.33932,6.67679 3.21709,-0.2782 4.09814,3.31707 6.36,4.9223 2.09257,2.92606 4.42971,7.07242 1.19403,10.16142 -3.13695,3.80608 -5.28444,9.78135 -11.06301,9.94201 -2.38085,0.25575 -5.66968,3.96391 -6.74988,0.14625 -4.11762,-6.94808 -7.62042,-14.34311 -6.82301,-22.61336 0.0622,-12.98637 3.02075,-25.74654 4.50806,-38.54993 -0.0717,-0.35849 0.0519,-0.51016 0.31678,-0.48736 z"
         style="fill:#c87137;fill-opacity:1;stroke:#c87137;stroke-width:0.75931764;stroke-opacity:1" />
      <g
         id="flowRoot4140"
         style="font-style:normal;font-weight:normal;font-size:40px;line-height:125%;font-family:sans-serif;letter-spacing:0px;word-spacing:0px;fill:#ffffff;fill-opacity:1;stroke:none;stroke-width:1px;stroke-linecap:butt;stroke-linejoin:miter;stroke-opacity:1"
         transform="translate(-3.496682,537.20989)">
        <path
           inkscape:connector-curvature="0"
           id="path4149"
           style="font-style:normal;font-variant:normal;font-weight:bold;font-stretch:normal;font-size:80px;font-family:sans-serif;-inkscape-font-specification:'sans-serif Bold';fill:#ffffff"
           d="m 130.89258,98.321964 24.96094,0 q 11.13281,0 17.07031,4.960936 5.97656,4.92188 5.97656,14.0625 0,9.17969 -5.97656,14.14063 -5.9375,4.92187 -17.07031,4.92187 l -9.92188,0 0,20.23438 -15.03906,0 0,-58.320316 z m 15.03906,10.898436 0,16.28906 8.32031,0 q 4.375,0 6.75782,-2.10937 2.38281,-2.14844 2.38281,-6.05469 0,-3.90625 -2.38281,-6.01562 -2.38282,-2.10938 -6.75782,-2.10938 l -8.32031,0 z" />
        <path
           inkscape:connector-curvature="0"
           id="path4151"
           style="font-style:normal;font-variant:normal;font-weight:bold;font-stretch:normal;font-size:80px;font-family:sans-serif;-inkscape-font-specification:'sans-serif Bold';fill:#ffffff"
           d="m 189.48633,98.321964 15.03906,0 0,46.953126 26.40625,0 0,11.36719 -41.44531,0 0,-58.320316 z" />
      </g>
    </g>
  </g>
</svg>
