<?xml version="1.0" encoding="UTF-8" standalone="no"?>
<!-- Created with Inkscape (http://www.inkscape.org/) -->

<svg
   xmlns:dc="http://purl.org/dc/elements/1.1/"
   xmlns:cc="http://creativecommons.org/ns#"
   xmlns:rdf="http://www.w3.org/1999/02/22-rdf-syntax-ns#"
   xmlns:svg="http://www.w3.org/2000/svg"
   xmlns="http://www.w3.org/2000/svg"
   xmlns:sodipodi="http://sodipodi.sourceforge.net/DTD/sodipodi-0.dtd"
   xmlns:inkscape="http://www.inkscape.org/namespaces/inkscape"
   width="500"
   height="500"
   id="svg2"
   version="1.1"
   inkscape:version="0.91 r13725"
   sodipodi:docname="application-vnd.sun.xml.draw.svg">
  <defs
     id="defs4" />
  <sodipodi:namedview
     id="base"
     pagecolor="#ffffff"
     bordercolor="#666666"
     borderopacity="1.0"
     inkscape:pageopacity="0.0"
     inkscape:pageshadow="2"
     inkscape:zoom="0.85795619"
     inkscape:cx="184.80034"
     inkscape:cy="240.21911"
     inkscape:document-units="px"
     inkscape:current-layer="layer1"
     showgrid="false"
     inkscape:window-width="1366"
     inkscape:window-height="715"
     inkscape:window-x="0"
     inkscape:window-y="24"
     inkscape:window-maximized="1" />
  <metadata
     id="metadata7">
    <rdf:RDF>
      <cc:Work
         rdf:about="">
        <dc:format>image/svg+xml</dc:format>
        <dc:type
           rdf:resource="http://purl.org/dc/dcmitype/StillImage" />
        <dc:title />
      </cc:Work>
    </rdf:RDF>
  </metadata>
  <g
     inkscape:label="Layer 1"
     inkscape:groupmode="layer"
     id="layer1"
     transform="translate(0,-552.36218)">
    <g
       id="g4177">
      <path
         sodipodi:nodetypes="ccccc"
         inkscape:connector-curvature="0"
         id="path4230"
         d="M 63.03896,706.2123 116.261,758.31086 114.60095,685.26901 63,685.02391 Z"
         style="fill:#deb200;fill-opacity:1;fill-rule:evenodd;stroke:none;stroke-width:1px;stroke-linecap:butt;stroke-linejoin:miter;stroke-opacity:1" />
      <path
         inkscape:connector-curvature="0"
         id="path3364"
         d="m 97.04097,1029.8357 336.88839,-1.1739 1.17377,-363.8864 -88.03697,-89.21086 -250.02519,0 z"
         style="fill:#f2f2f2;fill-rule:evenodd;stroke:#afafaf;stroke-width:5.03546047;stroke-linecap:butt;stroke-linejoin:miter;stroke-miterlimit:4;stroke-dasharray:none;stroke-opacity:1" />
      <path
         sodipodi:nodetypes="cccc"
         inkscape:connector-curvature="0"
         id="path4166"
         d="m 431.51909,662.93124 -82.16431,-0.58691 0.75853,-83.80351 z"
         style="fill:#afafaf;fill-opacity:1;fill-rule:evenodd;stroke:#afafaf;stroke-width:5.03546047;stroke-linecap:butt;stroke-linejoin:miter;stroke-miterlimit:4;stroke-dasharray:none;stroke-opacity:1" />
      <rect
         y="622.1875"
         x="63.139702"
         height="84.350876"
         width="224.93568"
         id="rect4228"
         style="fill:#ffcc00;fill-opacity:1;stroke:none;stroke-width:5;stroke-miterlimit:4;stroke-dasharray:none;stroke-opacity:1" />
      <circle
         r="80.804726"
         cy="856.54816"
         cx="224.26819"
         id="path3018"
         style="fill:#ff6600;fill-opacity:1;stroke:none" />
      <rect
         y="835.14905"
         x="263.12848"
         height="134.67456"
         width="148.142"
         id="rect3788"
         style="fill:#deb200;fill-opacity:1;stroke:none" />
      <path
         sodipodi:nodetypes="cccc"
         inkscape:connector-curvature="0"
         id="path3790"
         d="m 155.50777,1012.8798 161.60946,0 -80.4477,-139.53792 z"
         style="fill:#ffcc00;stroke:none" />
      <rect
         y="859.61676"
         x="224.5746"
         height="24.241419"
         width="24.241419"
         id="rect3792"
         style="fill:#45d03f;fill-opacity:1;stroke:none" />
      <rect
         y="997.44006"
         x="136.27048"
         height="24.241419"
         width="24.241419"
         id="rect3792-3"
         style="fill:#45d03f;fill-opacity:1;stroke:none" />
      <rect
         y="995.53558"
         x="313.397"
         height="24.241419"
         width="24.241419"
         id="rect3792-6"
         style="fill:#45d03f;fill-opacity:1;stroke:none" />
      <g
         id="flowRoot4162"
         style="font-style:normal;font-weight:normal;font-size:40px;line-height:125%;font-family:sans-serif;letter-spacing:0px;word-spacing:0px;fill:#ffffff;fill-opacity:1;stroke:none;stroke-width:1px;stroke-linecap:butt;stroke-linejoin:miter;stroke-opacity:1"
         transform="translate(1.1655607,547.36882)">
        <path
           inkscape:connector-curvature="0"
           id="path4171"
           style="font-style:normal;font-variant:normal;font-weight:bold;font-stretch:normal;font-size:80px;font-family:sans-serif;-inkscape-font-specification:'sans-serif Bold';fill:#ffffff"
           d="m 142.33984,89.667667 0,12.343753 q -4.80468,-2.14844 -9.375,-3.24219 -4.57031,-1.09375 -8.63281,-1.09375 -5.39062,0 -7.96875,1.484375 -2.57812,1.484375 -2.57812,4.609375 0,2.34375 1.71875,3.67187 1.75781,1.28907 6.32812,2.22657 l 6.40625,1.28906 q 9.72656,1.95312 13.82813,5.9375 4.10156,3.98437 4.10156,11.32812 0,9.64844 -5.74219,14.375 -5.70312,4.6875 -17.46094,4.6875 -5.54687,0 -11.13281,-1.05468 -5.58594,-1.05469 -11.17187,-3.125 l 0,-12.69532 q 5.58593,2.96875 10.78125,4.49219 5.23437,1.48438 10.07812,1.48438 4.92188,0 7.53906,-1.64063 2.61719,-1.64062 2.61719,-4.6875 0,-2.73437 -1.79687,-4.21875 -1.75782,-1.48437 -7.07032,-2.65625 l -5.82031,-1.28906 q -8.75,-1.875 -12.8125,-5.97656 -4.02344,-4.10157 -4.02344,-11.05469 0,-8.710938 5.625,-13.398438 5.625,-4.6875 16.17188,-4.6875 4.80469,0 9.88281,0.742188 5.07813,0.703125 10.50781,2.148437 z" />
        <path
           inkscape:connector-curvature="0"
           id="path4173"
           style="font-style:normal;font-variant:normal;font-weight:bold;font-stretch:normal;font-size:80px;font-family:sans-serif;-inkscape-font-specification:'sans-serif Bold';fill:#ffffff"
           d="m 191.91016,116.38642 20.23437,29.76562 -15.66406,0 -13.63281,-19.92187 -13.51563,19.92187 -15.74219,0 20.23438,-29.76562 -19.45313,-28.55469 15.70313,0 12.77344,18.78906 12.73437,-18.78906 15.78125,0 -19.45312,28.55469 z" />
        <path
           inkscape:connector-curvature="0"
           id="path4175"
           style="font-style:normal;font-variant:normal;font-weight:bold;font-stretch:normal;font-size:80px;font-family:sans-serif;-inkscape-font-specification:'sans-serif Bold';fill:#ffffff"
           d="m 236.16797,99.198917 0,35.585933 5.39062,0 q 9.21875,0 14.0625,-4.57031 4.88282,-4.57031 4.88282,-13.28125 0,-8.67187 -4.84375,-13.20312 -4.84375,-4.531253 -14.10157,-4.531253 l -5.39062,0 z m -15.03906,-11.367187 15.85937,0 q 13.28125,0 19.76563,1.914062 6.52343,1.875 11.17187,6.40625 4.10156,3.945308 6.09375,9.101558 1.99219,5.15625 1.99219,11.67969 0,6.60156 -1.99219,11.79688 -1.99219,5.15625 -6.09375,9.10156 -4.6875,4.53125 -11.25,6.44531 -6.5625,1.875 -19.6875,1.875 l -15.85937,0 0,-58.32031 z" />
      </g>
    </g>
  </g>
</svg>
