<?xml version="1.0" encoding="UTF-8" standalone="no"?>
<!-- Created with Inkscape (http://www.inkscape.org/) -->

<svg
   xmlns:dc="http://purl.org/dc/elements/1.1/"
   xmlns:cc="http://creativecommons.org/ns#"
   xmlns:rdf="http://www.w3.org/1999/02/22-rdf-syntax-ns#"
   xmlns:svg="http://www.w3.org/2000/svg"
   xmlns="http://www.w3.org/2000/svg"
   xmlns:sodipodi="http://sodipodi.sourceforge.net/DTD/sodipodi-0.dtd"
   xmlns:inkscape="http://www.inkscape.org/namespaces/inkscape"
   width="500"
   height="500"
   id="svg2"
   version="1.1"
   inkscape:version="0.91 r13725"
   sodipodi:docname="application-x-bittorrent.svg">
  <defs
     id="defs4" />
  <sodipodi:namedview
     id="base"
     pagecolor="#ffffff"
     bordercolor="#666666"
     borderopacity="1.0"
     inkscape:pageopacity="0.0"
     inkscape:pageshadow="2"
     inkscape:zoom="0.60666664"
     inkscape:cx="816.92106"
     inkscape:cy="208.36174"
     inkscape:document-units="px"
     inkscape:current-layer="layer1"
     showgrid="false"
     inkscape:window-width="1366"
     inkscape:window-height="715"
     inkscape:window-x="0"
     inkscape:window-y="24"
     inkscape:window-maximized="1" />
  <metadata
     id="metadata7">
    <rdf:RDF>
      <cc:Work
         rdf:about="">
        <dc:format>image/svg+xml</dc:format>
        <dc:type
           rdf:resource="http://purl.org/dc/dcmitype/StillImage" />
        <dc:title />
      </cc:Work>
    </rdf:RDF>
  </metadata>
  <g
     inkscape:label="Layer 1"
     inkscape:groupmode="layer"
     id="layer1"
     transform="translate(0,-552.36218)">
    <g
       id="g4257">
      <path
         sodipodi:nodetypes="ccccc"
         inkscape:connector-curvature="0"
         id="path4230"
         d="M 63.03896,706.21215 116.261,758.31071 114.60095,685.26886 63,685.02376 Z"
         style="fill:#632175;fill-opacity:1;fill-rule:evenodd;stroke:none;stroke-width:1px;stroke-linecap:butt;stroke-linejoin:miter;stroke-opacity:1" />
      <path
         inkscape:connector-curvature="0"
         id="path3364"
         d="m 97.04097,1029.8357 336.88839,-1.1739 1.17377,-363.88655 -88.03697,-89.21086 -250.02519,0 z"
         style="fill:#f2f2f2;fill-rule:evenodd;stroke:#afafaf;stroke-width:5.03546047;stroke-linecap:butt;stroke-linejoin:miter;stroke-miterlimit:4;stroke-dasharray:none;stroke-opacity:1" />
      <path
         sodipodi:nodetypes="cccc"
         inkscape:connector-curvature="0"
         id="path4166"
         d="m 431.51909,662.93109 -82.16431,-0.58691 0.75853,-83.80351 z"
         style="fill:#afafaf;fill-opacity:1;fill-rule:evenodd;stroke:#afafaf;stroke-width:5.03546047;stroke-linecap:butt;stroke-linejoin:miter;stroke-miterlimit:4;stroke-dasharray:none;stroke-opacity:1" />
      <rect
         y="622.18726"
         x="63.139694"
         height="84.350876"
         width="280.8826"
         id="rect4228"
         style="fill:#892ca0;fill-opacity:1;stroke:none;stroke-width:5;stroke-miterlimit:4;stroke-dasharray:none;stroke-opacity:1" />
      <g
         transform="matrix(0.27744183,0,0,0.27744183,-242.61124,770.78425)"
         id="g4184">
        <ellipse
           style="fill:#892ca0;fill-opacity:1;stroke:none;stroke-width:0.99082142;stroke-linecap:round;stroke-miterlimit:4;stroke-dasharray:none;stroke-opacity:1"
           id="path3333"
           cx="1836.9408"
           cy="447.53394"
           rx="474.50461"
           ry="474.50458" />
        <path
           style="color:#000000;font-style:normal;font-variant:normal;font-weight:normal;font-stretch:normal;font-size:medium;line-height:normal;font-family:sans-serif;text-indent:0;text-align:start;text-decoration:none;text-decoration-line:none;text-decoration-style:solid;text-decoration-color:#000000;letter-spacing:normal;word-spacing:normal;text-transform:none;direction:ltr;block-progression:tb;writing-mode:lr-tb;baseline-shift:baseline;text-anchor:start;white-space:normal;clip-rule:nonzero;display:inline;overflow:visible;visibility:visible;opacity:1;isolation:auto;mix-blend-mode:normal;color-interpolation:sRGB;color-interpolation-filters:linearRGB;solid-color:#000000;solid-opacity:1;fill:#ffffff;fill-opacity:1;fill-rule:evenodd;stroke:none;stroke-width:70;stroke-linecap:round;stroke-linejoin:miter;stroke-miterlimit:4;stroke-dasharray:none;stroke-dashoffset:0;stroke-opacity:1;color-rendering:auto;image-rendering:auto;shape-rendering:auto;text-rendering:auto;enable-background:accumulate"
           d="m 1813.834,84.752287 a 35.0035,35.0035 0 0 0 -9.3671,0.97656 c 0,0 -73.1019,16.613713 -146.1192,71.492193 -73.0173,54.87848 -148.2594,151.9198 -151.8379,303.41797 l -0.01,0.45117 0,0.45117 c 0.1459,68.44447 16.4455,161.54547 74.0019,242.15039 57.5565,80.60492 158.0942,145.40562 312.1699,152.64648 l 0.752,0.0352 181.9726,0.72266 a 474.50461,474.50458 0 0 0 92.5625,-69.63282 l -272.5058,-1.08203 c -136.3216,-6.5298 -211.938,-58.88422 -257.9824,-123.36718 -45.9917,-64.40899 -60.7634,-144.18256 -60.9551,-201.19141 3.2019,-129.41947 63.2575,-203.07328 123.8887,-248.64258 60.7066,-45.62601 119.6679,-59.21289 119.6679,-59.21289 a 35.0035,35.0035 0 0 0 -6.2383,-69.214843 z"
           id="path4135"
           inkscape:connector-curvature="0" />
        <path
           style="color:#000000;font-style:normal;font-variant:normal;font-weight:normal;font-stretch:normal;font-size:medium;line-height:normal;font-family:sans-serif;text-indent:0;text-align:start;text-decoration:none;text-decoration-line:none;text-decoration-style:solid;text-decoration-color:#000000;letter-spacing:normal;word-spacing:normal;text-transform:none;direction:ltr;block-progression:tb;writing-mode:lr-tb;baseline-shift:baseline;text-anchor:start;white-space:normal;clip-rule:nonzero;display:inline;overflow:visible;visibility:visible;opacity:1;isolation:auto;mix-blend-mode:normal;color-interpolation:sRGB;color-interpolation-filters:linearRGB;solid-color:#000000;solid-opacity:1;fill:#cccccc;fill-opacity:1;fill-rule:evenodd;stroke:none;stroke-width:70;stroke-linecap:round;stroke-linejoin:miter;stroke-miterlimit:4;stroke-dasharray:none;stroke-dashoffset:0;stroke-opacity:1;color-rendering:auto;image-rendering:auto;shape-rendering:auto;text-rendering:auto;enable-background:accumulate"
           d="m 1865.3438,177.72299 a 35.0035,35.0035 0 0 0 -5.9355,0.22266 c 0,0 -61.7766,6.50248 -123.9766,45.90234 -62.2,39.39986 -126.6343,116.20028 -130.2676,242.72656 l -0.016,0.54688 0,0.54492 c 0.1501,60.6896 17.3384,137.03619 73.4765,198.04297 55.9452,60.79707 149.45,102.02597 288.2403,96.98437 l 223.3417,0.88672 a 474.50461,474.50458 0 0 0 51.6465,-69.79687 l -275.5293,-1.0918 -0.7441,0.0273 c -125.1072,4.8219 -194.4327,-29.84065 -235.4453,-74.41015 -40.8778,-44.423 -54.7597,-102.98266 -54.9668,-150.33594 3.1797,-104.36553 50.1569,-154.8615 97.7207,-184.99023 47.6595,-30.18938 94.082,-35.44532 94.082,-35.44532 a 35.0035,35.0035 0 0 0 -1.6289,-69.81445 z"
           id="path4135-3"
           inkscape:connector-curvature="0" />
        <path
           style="color:#000000;font-style:normal;font-variant:normal;font-weight:normal;font-stretch:normal;font-size:medium;line-height:normal;font-family:sans-serif;text-indent:0;text-align:start;text-decoration:none;text-decoration-line:none;text-decoration-style:solid;text-decoration-color:#000000;letter-spacing:normal;word-spacing:normal;text-transform:none;direction:ltr;block-progression:tb;writing-mode:lr-tb;baseline-shift:baseline;text-anchor:start;white-space:normal;clip-rule:nonzero;display:inline;overflow:visible;visibility:visible;opacity:1;isolation:auto;mix-blend-mode:normal;color-interpolation:sRGB;color-interpolation-filters:linearRGB;solid-color:#000000;solid-opacity:1;fill:#999999;fill-opacity:1;fill-rule:evenodd;stroke:none;stroke-width:70;stroke-linecap:round;stroke-linejoin:miter;stroke-miterlimit:4;stroke-dasharray:none;stroke-dashoffset:0;stroke-opacity:1;color-rendering:auto;image-rendering:auto;shape-rendering:auto;text-rendering:auto;enable-background:accumulate"
           d="m 1912.0704,273.15463 a 35.0035,35.0035 0 0 0 -2.4453,0.0391 c 0,0 -47.2946,1.36876 -96.7832,22.96094 -49.4887,21.59218 -106.0069,70.18047 -110.0235,152.33203 l -0.084,1.7207 0.086,1.72071 c 2.4536,49.50228 12.4881,110.74659 62.8476,154.82812 50.1898,43.9329 131.8968,65.59502 264.8262,58.28516 l 227.25,0.90039 a 474.50461,474.50458 0 0 0 29.4785,-69.88086 l -258.2929,-1.02734 -1.0528,0.0605 c -124.4541,7.00922 -186.1259,-14.76729 -216.1035,-41.00781 -29.5265,-25.84563 -36.6446,-61.14543 -38.9102,-103.70508 3.1308,-52.5784 32.8983,-74.76325 67.9727,-90.0664 35.4217,-15.45469 71.377,-17.16797 71.377,-17.16797 a 35.0035,35.0035 0 0 0 -0.1426,-69.99219 z"
           id="path4135-3-6"
           inkscape:connector-curvature="0" />
      </g>
      <g
         id="flowRoot4169"
         style="font-style:normal;font-weight:normal;font-size:40px;line-height:125%;font-family:sans-serif;letter-spacing:0px;word-spacing:0px;fill:#ffffff;fill-opacity:1;stroke:none;stroke-width:1px;stroke-linecap:butt;stroke-linejoin:miter;stroke-opacity:1"
         transform="matrix(1.2546501,0,0,1.2546501,-18.155262,527.83325)">
        <path
           inkscape:connector-curvature="0"
           id="path4178"
           style="font-style:normal;font-variant:normal;font-weight:bold;font-stretch:normal;font-family:sans-serif;-inkscape-font-specification:'sans-serif Bold';fill:#ffffff"
           d="m 71.294922,92.274263 26.875,0 0,5.683594 -9.667969,0 0,23.476563 -7.519531,0 0,-23.476563 -9.6875,0 0,-5.683594 z" />
        <path
           inkscape:connector-curvature="0"
           id="path4180"
           style="font-style:normal;font-variant:normal;font-weight:bold;font-stretch:normal;font-family:sans-serif;-inkscape-font-specification:'sans-serif Bold';fill:#ffffff"
           d="m 115.35742,97.196138 q -3.4375,0 -5.33203,2.539063 -1.89453,2.539059 -1.89453,7.148439 0,4.58984 1.89453,7.1289 1.89453,2.53907 5.33203,2.53907 3.45703,0 5.35156,-2.53907 1.89454,-2.53906 1.89454,-7.1289 0,-4.60938 -1.89454,-7.148439 -1.89453,-2.539063 -5.35156,-2.539063 z m 0,-5.449218 q 7.03125,0 11.01563,4.023437 3.98437,4.023438 3.98437,11.113283 0,7.07031 -3.98437,11.09375 -3.98438,4.02344 -11.01563,4.02344 -7.01172,0 -11.01562,-4.02344 -3.98438,-4.02344 -3.98438,-11.09375 0,-7.089845 3.98438,-11.113283 4.0039,-4.023437 11.01562,-4.023437 z" />
        <path
           inkscape:connector-curvature="0"
           id="path4182"
           style="font-style:normal;font-variant:normal;font-weight:bold;font-stretch:normal;font-family:sans-serif;-inkscape-font-specification:'sans-serif Bold';fill:#ffffff"
           d="m 146.70508,105.20395 q 2.36328,0 3.3789,-0.87891 1.03516,-0.8789 1.03516,-2.89062 0,-1.992188 -1.03516,-2.851563 -1.01562,-0.859375 -3.3789,-0.859375 l -3.16406,0 0,7.480468 3.16406,0 z m -3.16406,5.19531 0,11.03516 -7.51954,0 0,-29.160157 11.48438,0 q 5.76172,0 8.4375,1.933594 2.69531,1.933594 2.69531,6.113283 0,2.89062 -1.40625,4.74609 -1.38672,1.85547 -4.19922,2.73438 1.54297,0.35156 2.75391,1.60156 1.23047,1.23047 2.48047,3.75 l 4.08203,8.28125 -8.00781,0 -3.55469,-7.24609 q -1.07422,-2.1875 -2.1875,-2.98829 -1.09375,-0.80078 -2.92969,-0.80078 l -2.1289,0 z" />
        <path
           inkscape:connector-curvature="0"
           id="path4184"
           style="font-style:normal;font-variant:normal;font-weight:bold;font-stretch:normal;font-family:sans-serif;-inkscape-font-specification:'sans-serif Bold';fill:#ffffff"
           d="m 177.48633,105.20395 q 2.36328,0 3.3789,-0.87891 1.03516,-0.8789 1.03516,-2.89062 0,-1.992188 -1.03516,-2.851563 -1.01562,-0.859375 -3.3789,-0.859375 l -3.16406,0 0,7.480468 3.16406,0 z m -3.16406,5.19531 0,11.03516 -7.51954,0 0,-29.160157 11.48438,0 q 5.76172,0 8.4375,1.933594 2.69531,1.933594 2.69531,6.113283 0,2.89062 -1.40625,4.74609 -1.38672,1.85547 -4.19922,2.73438 1.54297,0.35156 2.75391,1.60156 1.23047,1.23047 2.48047,3.75 l 4.08203,8.28125 -8.00781,0 -3.55469,-7.24609 q -1.07422,-2.1875 -2.1875,-2.98829 -1.09375,-0.80078 -2.92969,-0.80078 l -2.1289,0 z" />
        <path
           inkscape:connector-curvature="0"
           id="path4186"
           style="font-style:normal;font-variant:normal;font-weight:bold;font-stretch:normal;font-family:sans-serif;-inkscape-font-specification:'sans-serif Bold';fill:#ffffff"
           d="m 197.58398,92.274263 20.29297,0 0,5.683594 -12.77343,0 0,5.429683 12.01171,0 0,5.6836 -12.01171,0 0,6.67969 13.20312,0 0,5.68359 -20.72266,0 0,-29.160157 z" />
        <path
           inkscape:connector-curvature="0"
           id="path4188"
           style="font-style:normal;font-variant:normal;font-weight:bold;font-stretch:normal;font-family:sans-serif;-inkscape-font-specification:'sans-serif Bold';fill:#ffffff"
           d="m 224.92773,92.274263 8.39844,0 10.60547,19.999997 0,-19.999997 7.12891,0 0,29.160157 -8.39844,0 -10.60547,-20 0,20 -7.12891,0 0,-29.160157 z" />
        <path
           inkscape:connector-curvature="0"
           id="path4190"
           style="font-style:normal;font-variant:normal;font-weight:bold;font-stretch:normal;font-family:sans-serif;-inkscape-font-specification:'sans-serif Bold';fill:#ffffff"
           d="m 254.9668,92.274263 26.875,0 0,5.683594 -9.66797,0 0,23.476563 -7.51953,0 0,-23.476563 -9.6875,0 0,-5.683594 z" />
      </g>
    </g>
  </g>
</svg>
