<?xml version="1.0" encoding="UTF-8" standalone="no"?>
<!-- Created with Inkscape (http://www.inkscape.org/) -->

<svg
   xmlns:dc="http://purl.org/dc/elements/1.1/"
   xmlns:cc="http://creativecommons.org/ns#"
   xmlns:rdf="http://www.w3.org/1999/02/22-rdf-syntax-ns#"
   xmlns:svg="http://www.w3.org/2000/svg"
   xmlns="http://www.w3.org/2000/svg"
   xmlns:sodipodi="http://sodipodi.sourceforge.net/DTD/sodipodi-0.dtd"
   xmlns:inkscape="http://www.inkscape.org/namespaces/inkscape"
   width="500"
   height="500"
   id="svg2"
   version="1.1"
   inkscape:version="0.91 r13725"
   sodipodi:docname="application-msword-template.svg">
  <defs
     id="defs4" />
  <sodipodi:namedview
     id="base"
     pagecolor="#ffffff"
     bordercolor="#666666"
     borderopacity="1.0"
     inkscape:pageopacity="0.0"
     inkscape:pageshadow="2"
     inkscape:zoom="0.73963369"
     inkscape:cx="242.82606"
     inkscape:cy="240.42542"
     inkscape:document-units="px"
     inkscape:current-layer="layer1"
     showgrid="false"
     inkscape:window-width="1366"
     inkscape:window-height="715"
     inkscape:window-x="0"
     inkscape:window-y="24"
     inkscape:window-maximized="1" />
  <metadata
     id="metadata7">
    <rdf:RDF>
      <cc:Work
         rdf:about="">
        <dc:format>image/svg+xml</dc:format>
        <dc:type
           rdf:resource="http://purl.org/dc/dcmitype/StillImage" />
        <dc:title />
      </cc:Work>
    </rdf:RDF>
  </metadata>
  <g
     inkscape:label="Layer 1"
     inkscape:groupmode="layer"
     id="layer1"
     transform="translate(0,-552.36218)">
    <g
       id="g4197">
      <path
         sodipodi:nodetypes="ccccc"
         inkscape:connector-curvature="0"
         id="path4230"
         d="M 63.03896,706.21223 116.261,758.31079 114.60095,685.26894 63,685.02384 Z"
         style="fill:#0083aa;fill-rule:evenodd;stroke:none;stroke-width:1px;stroke-linecap:butt;stroke-linejoin:miter;stroke-opacity:1;fill-opacity:1" />
      <path
         inkscape:connector-curvature="0"
         id="path3364"
         d="m 97.04097,1029.8357 336.8884,-1.1739 1.17376,-363.88647 -88.03697,-89.21086 -250.02519,0 z"
         style="fill:#f2f2f2;fill-rule:evenodd;stroke:#afafaf;stroke-width:5.03546047;stroke-linecap:butt;stroke-linejoin:miter;stroke-miterlimit:4;stroke-dasharray:none;stroke-opacity:1" />
      <path
         sodipodi:nodetypes="cccc"
         inkscape:connector-curvature="0"
         id="path4166"
         d="m 431.5191,662.93117 -82.16432,-0.58691 0.75853,-83.80351 z"
         style="fill:#afafaf;fill-opacity:1;fill-rule:evenodd;stroke:#afafaf;stroke-width:5.03546047;stroke-linecap:butt;stroke-linejoin:miter;stroke-miterlimit:4;stroke-dasharray:none;stroke-opacity:1" />
      <rect
         y="622.18732"
         x="63.139648"
         height="84.350876"
         width="224.93568"
         id="rect4228"
         style="fill:#00bbf2;fill-opacity:1;stroke:none;stroke-width:5;stroke-miterlimit:4;stroke-dasharray:none;stroke-opacity:1" />
      <g
         id="g4170">
        <rect
           style="fill:none;fill-opacity:1;stroke:#00bbf2;stroke-width:10.27064514;stroke-linecap:butt;stroke-linejoin:round;stroke-miterlimit:4;stroke-dasharray:none;stroke-opacity:1"
           id="rect4192"
           width="172.76912"
           height="199.35089"
           x="224.91071"
           y="798.66516" />
        <rect
           style="fill:#00bbf2;fill-opacity:1;stroke:none;stroke-width:8.59799957;stroke-linecap:butt;stroke-linejoin:round;stroke-miterlimit:4;stroke-dasharray:none;stroke-opacity:1"
           id="rect4194"
           width="106.16345"
           height="12.878844"
           x="267.13062"
           y="819.93274" />
        <rect
           style="fill:#00bbf2;fill-opacity:1;stroke:none;stroke-width:8.59799957;stroke-linecap:butt;stroke-linejoin:round;stroke-miterlimit:4;stroke-dasharray:none;stroke-opacity:1"
           id="rect4194-2"
           width="106.16345"
           height="12.878844"
           x="267.72156"
           y="848.32025" />
        <rect
           style="fill:#00bbf2;fill-opacity:1;stroke:none;stroke-width:8.59799957;stroke-linecap:butt;stroke-linejoin:round;stroke-miterlimit:4;stroke-dasharray:none;stroke-opacity:1"
           id="rect4194-0"
           width="106.16345"
           height="12.878844"
           x="267.47876"
           y="876.84338" />
        <rect
           style="fill:#00bbf2;fill-opacity:1;stroke:none;stroke-width:8.59799957;stroke-linecap:butt;stroke-linejoin:round;stroke-miterlimit:4;stroke-dasharray:none;stroke-opacity:1"
           id="rect4194-23"
           width="106.16345"
           height="12.878844"
           x="267.4787"
           y="904.86359" />
        <rect
           style="fill:#00bbf2;fill-opacity:1;stroke:none;stroke-width:8.59799957;stroke-linecap:butt;stroke-linejoin:round;stroke-miterlimit:4;stroke-dasharray:none;stroke-opacity:1"
           id="rect4194-5"
           width="106.16345"
           height="12.878844"
           x="266.95657"
           y="933.0578" />
        <rect
           style="fill:#00bbf2;fill-opacity:1;stroke:none;stroke-width:8.59799957;stroke-linecap:butt;stroke-linejoin:round;stroke-miterlimit:4;stroke-dasharray:none;stroke-opacity:1"
           id="rect4194-51"
           width="106.16345"
           height="12.878844"
           x="267.30466"
           y="961.25201" />
        <rect
           style="fill:#1a1a1a;fill-opacity:0.39207076;stroke:none;stroke-width:8.59799957;stroke-linecap:butt;stroke-linejoin:round;stroke-miterlimit:4;stroke-dasharray:none;stroke-opacity:1"
           id="rect4244"
           width="61.039627"
           height="209.29285"
           x="253.10071"
           y="794.01361" />
        <path
           style="fill:#00bbf2;fill-opacity:1;fill-rule:evenodd;stroke:none;stroke-width:1px;stroke-linecap:butt;stroke-linejoin:miter;stroke-opacity:1"
           d="m 286.11738,762.74812 -158.30223,30.4763 0.28836,202.8526 157.52162,31.01208 z"
           id="path3390"
           inkscape:connector-curvature="0"
           sodipodi:nodetypes="ccccc" />
        <path
           style="fill:#ffffff;fill-opacity:1;fill-rule:evenodd;stroke:none;stroke-width:1px;stroke-linecap:butt;stroke-linejoin:miter;stroke-opacity:1"
           d="m 153.11511,855.88122 15.8375,-0.69616 10.09423,58.12885 12.87884,-60.39135 17.05577,-0.69616 13.92308,62.47981 10.96442,-65.09038 19.66634,-0.69615 -20.88461,88.06345 -19.66634,-0.8702 -13.575,-58.4769 -12.1827,56.73652 -17.40384,-1.04423 z"
           id="path4248"
           inkscape:connector-curvature="0" />
      </g>
      <g
         id="flowRoot4182"
         style="font-style:normal;font-weight:normal;font-size:40px;line-height:125%;font-family:sans-serif;letter-spacing:0px;word-spacing:0px;fill:#000000;fill-opacity:1;stroke:none;stroke-width:1px;stroke-linecap:butt;stroke-linejoin:miter;stroke-opacity:1"
         transform="translate(-6,550.36218)">
        <path
           inkscape:connector-curvature="0"
           id="path4191"
           style="font-style:normal;font-variant:normal;font-weight:bold;font-stretch:normal;font-size:80px;font-family:sans-serif;-inkscape-font-specification:'sans-serif Bold';fill:#ffffff"
           d="m 110.26367,94.73212 0,35.58594 5.39063,0 q 9.21875,0 14.0625,-4.57031 4.88281,-4.57032 4.88281,-13.28125 0,-8.67188 -4.84375,-13.20313 -4.84375,-4.53125 -14.10156,-4.53125 l -5.39063,0 z m -15.039061,-11.367187 15.859371,0 q 13.28125,0 19.76563,1.914062 6.52344,1.875 11.17187,6.40625 4.10157,3.945313 6.09375,9.101565 1.99219,5.15625 1.99219,11.67969 0,6.60156 -1.99219,11.79687 -1.99218,5.15625 -6.09375,9.10156 -4.6875,4.53125 -11.25,6.44532 -6.5625,1.875 -19.6875,1.875 l -15.859371,0 0,-58.320317 z" />
        <path
           inkscape:connector-curvature="0"
           id="path4193"
           style="font-style:normal;font-variant:normal;font-weight:bold;font-stretch:normal;font-size:80px;font-family:sans-serif;-inkscape-font-specification:'sans-serif Bold';fill:#ffffff"
           d="m 188.27148,93.208683 q -6.875,0 -10.66406,5.078125 -3.78906,5.078122 -3.78906,14.296872 0,9.17969 3.78906,14.25782 3.78906,5.07812 10.66406,5.07812 6.91407,0 10.70313,-5.07812 3.78906,-5.07813 3.78906,-14.25782 0,-9.21875 -3.78906,-14.296872 -3.78906,-5.078125 -10.70313,-5.078125 z m 0,-10.898438 q 14.0625,0 22.03125,8.046875 7.96875,8.046875 7.96875,22.22656 0,14.14063 -7.96875,22.1875 -7.96875,8.04688 -22.03125,8.04688 -14.02343,0 -22.03125,-8.04688 -7.96875,-8.04687 -7.96875,-22.1875 0,-14.179685 7.96875,-22.22656 8.00782,-8.046875 22.03125,-8.046875 z" />
        <path
           inkscape:connector-curvature="0"
           id="path4195"
           style="font-style:normal;font-variant:normal;font-weight:bold;font-stretch:normal;font-size:80px;font-family:sans-serif;-inkscape-font-specification:'sans-serif Bold';fill:#ffffff"
           d="m 275.84961,138.48212 q -4.14063,2.14844 -8.63281,3.24219 -4.49219,1.09375 -9.375,1.09375 -14.57032,0 -23.08594,-8.125 -8.51563,-8.16406 -8.51563,-22.10938 0,-13.984372 8.51563,-22.109372 8.51562,-8.164063 23.08594,-8.164063 4.88281,0 9.375,1.09375 4.49218,1.09375 8.63281,3.242188 l 0,12.070312 q -4.17969,-2.851562 -8.24219,-4.179687 -4.0625,-1.328125 -8.55469,-1.328125 -8.04687,0 -12.65625,5.15625 -4.60937,5.156247 -4.60937,14.218747 0,9.02344 4.60937,14.17969 4.60938,5.15625 12.65625,5.15625 4.49219,0 8.55469,-1.32812 4.0625,-1.32813 8.24219,-4.17969 l 0,12.07031 z" />
      </g>
    </g>
  </g>
</svg>
