<?xml version="1.0" encoding="UTF-8" standalone="no"?>
<!-- Created with Inkscape (http://www.inkscape.org/) -->

<svg
   xmlns:dc="http://purl.org/dc/elements/1.1/"
   xmlns:cc="http://creativecommons.org/ns#"
   xmlns:rdf="http://www.w3.org/1999/02/22-rdf-syntax-ns#"
   xmlns:svg="http://www.w3.org/2000/svg"
   xmlns="http://www.w3.org/2000/svg"
   xmlns:sodipodi="http://sodipodi.sourceforge.net/DTD/sodipodi-0.dtd"
   xmlns:inkscape="http://www.inkscape.org/namespaces/inkscape"
   width="500"
   height="500"
   id="svg2"
   version="1.1"
   inkscape:version="0.91 r13725"
   sodipodi:docname="image-x-compressed-xcf.svg">
  <defs
     id="defs4" />
  <sodipodi:namedview
     id="base"
     pagecolor="#ffffff"
     bordercolor="#666666"
     borderopacity="1.0"
     inkscape:pageopacity="0.0"
     inkscape:pageshadow="2"
     inkscape:zoom="0.60666666"
     inkscape:cx="288.89289"
     inkscape:cy="264.75339"
     inkscape:document-units="px"
     inkscape:current-layer="layer1"
     showgrid="false"
     inkscape:window-width="1366"
     inkscape:window-height="715"
     inkscape:window-x="0"
     inkscape:window-y="24"
     inkscape:window-maximized="1" />
  <metadata
     id="metadata7">
    <rdf:RDF>
      <cc:Work
         rdf:about="">
        <dc:format>image/svg+xml</dc:format>
        <dc:type
           rdf:resource="http://purl.org/dc/dcmitype/StillImage" />
        <dc:title />
      </cc:Work>
    </rdf:RDF>
  </metadata>
  <g
     inkscape:label="Layer 1"
     inkscape:groupmode="layer"
     id="layer1"
     transform="translate(0,-552.36218)">
    <g
       id="g4194">
      <path
         sodipodi:nodetypes="ccccc"
         inkscape:connector-curvature="0"
         id="path4230"
         d="M 63.03896,701.21206 116.261,753.31062 114.60095,680.26877 63,680.02367 Z"
         style="fill:#009cca;fill-opacity:1;fill-rule:evenodd;stroke:none;stroke-width:1px;stroke-linecap:butt;stroke-linejoin:miter;stroke-opacity:1" />
      <path
         inkscape:connector-curvature="0"
         id="path3364"
         d="m 97.04097,1024.8357 336.88839,-1.1739 1.17377,-363.88664 -88.03697,-89.21086 -250.02519,0 z"
         style="fill:#f2f2f2;fill-rule:evenodd;stroke:#afafaf;stroke-width:5.03546047;stroke-linecap:butt;stroke-linejoin:miter;stroke-miterlimit:4;stroke-dasharray:none;stroke-opacity:1" />
      <path
         sodipodi:nodetypes="cccc"
         inkscape:connector-curvature="0"
         id="path4166"
         d="m 431.51909,657.931 -82.16431,-0.58691 0.75853,-83.80351 z"
         style="fill:#afafaf;fill-opacity:1;fill-rule:evenodd;stroke:#afafaf;stroke-width:5.03546047;stroke-linecap:butt;stroke-linejoin:miter;stroke-miterlimit:4;stroke-dasharray:none;stroke-opacity:1" />
      <rect
         y="617.18713"
         x="63.139633"
         height="84.350876"
         width="269.87546"
         id="rect4228"
         style="fill:#00bbf2;fill-opacity:1;stroke:none;stroke-width:5;stroke-miterlimit:4;stroke-dasharray:none;stroke-opacity:1" />
      <path
         d="m 95.778857,656.23209 13.860553,20.38947 -10.729888,0 -9.338481,-13.64649 -9.258207,13.64649 -10.783404,0 13.860554,-20.38947 -13.325397,-19.55997 10.756646,0 8.749808,12.87052 8.72305,-12.87052 10.810159,0 -13.325393,19.55997 z"
         style="font-style:normal;font-variant:normal;font-weight:bold;font-stretch:normal;font-size:medium;line-height:125%;font-family:sans-serif;-inkscape-font-specification:'sans-serif Bold';letter-spacing:0px;word-spacing:0px;fill:#ffffff;fill-opacity:1;stroke:none;stroke-width:1px;stroke-linecap:butt;stroke-linejoin:miter;stroke-opacity:1"
         id="path4229"
         inkscape:connector-curvature="0" />
      <path
         d="m 115.79371,636.67212 27.80138,0 0,7.78653 -17.49962,0 0,7.43868 16.45606,0 0,7.78652 -16.45606,0 0,16.93771 -10.30176,0 0,-39.94944 z"
         style="font-style:normal;font-variant:normal;font-weight:bold;font-stretch:normal;font-size:medium;line-height:125%;font-family:sans-serif;-inkscape-font-specification:'sans-serif Bold';letter-spacing:0px;word-spacing:0px;fill:#ffffff;fill-opacity:1;stroke:none;stroke-width:1px;stroke-linecap:butt;stroke-linejoin:miter;stroke-opacity:1"
         id="path4231"
         inkscape:connector-curvature="0" />
      <path
         d="m 184.93593,674.42742 q -2.83633,1.47168 -5.91349,2.22089 -3.07714,0.74923 -6.42187,0.74923 -9.98066,0 -15.81388,-5.56563 -5.8332,-5.59239 -5.8332,-15.14493 0,-9.57931 5.8332,-15.14493 5.83322,-5.59239 15.81388,-5.59239 3.34473,0 6.42187,0.74922 3.07716,0.74922 5.91349,2.2209 l 0,8.26817 q -2.8631,-1.95332 -5.64591,-2.86309 -2.78281,-0.90976 -5.85996,-0.90976 -5.51211,0 -8.66953,3.53203 -3.15742,3.53203 -3.15742,9.73985 0,6.18105 3.15742,9.71309 3.15742,3.53203 8.66953,3.53203 3.07715,0 5.85996,-0.90977 2.78281,-0.90976 5.64591,-2.86308 l 0,8.26817 z"
         style="font-style:normal;font-variant:normal;font-weight:bold;font-stretch:normal;font-size:medium;line-height:125%;font-family:sans-serif;-inkscape-font-specification:'sans-serif Bold';letter-spacing:0px;word-spacing:0px;fill:#ffffff;fill-opacity:1;stroke:none;stroke-width:1px;stroke-linecap:butt;stroke-linejoin:miter;stroke-opacity:1"
         id="path4233"
         inkscape:connector-curvature="0" />
      <path
         d="m 194.06034,666.26628 9.63281,0 0,10.35528 -9.63281,0 0,-10.35528 z"
         style="font-style:normal;font-variant:normal;font-weight:bold;font-stretch:normal;font-size:medium;line-height:125%;font-family:sans-serif;-inkscape-font-specification:'sans-serif Bold';letter-spacing:0px;word-spacing:0px;fill:#ffffff;fill-opacity:1;stroke:none;stroke-width:1px;stroke-linecap:butt;stroke-linejoin:miter;stroke-opacity:1"
         id="path4235"
         inkscape:connector-curvature="0" />
      <path
         d="m 230.37071,652.13815 q 2.43496,0 3.69258,-1.07032 1.25762,-1.07031 1.25762,-3.15742 0,-2.06035 -1.25762,-3.13066 -1.25762,-1.09708 -3.69258,-1.09708 l -5.69942,0 0,8.45548 5.69942,0 z m 0.34786,17.47286 q 3.1039,0 4.65585,-1.31114 1.57872,-1.31113 1.57872,-3.96016 0,-2.5955 -1.55195,-3.87988 -1.55197,-1.31113 -4.68262,-1.31113 l -6.04728,0 0,10.46231 6.04728,0 z m 9.57929,-14.36896 q 3.31798,0.96329 5.1375,3.5588 1.81954,2.5955 1.81954,6.36836 0,5.77969 -3.90664,8.61602 -3.90665,2.83633 -11.88048,2.83633 l -17.09825,0 0,-39.94944 15.46603,0 q 8.32167,0 12.04102,2.51524 3.74609,2.51524 3.74609,8.0541 0,2.91661 -1.36465,4.97696 -1.36464,2.03359 -3.96016,3.02363 z"
         style="font-style:normal;font-variant:normal;font-weight:bold;font-stretch:normal;font-size:medium;line-height:125%;font-family:sans-serif;-inkscape-font-specification:'sans-serif Bold';letter-spacing:0px;word-spacing:0px;fill:#ffffff;fill-opacity:1;stroke:none;stroke-width:1px;stroke-linecap:butt;stroke-linejoin:miter;stroke-opacity:1"
         id="path4237"
         inkscape:connector-curvature="0" />
      <path
         d="m 254.15841,636.67212 33.58108,0 0,6.23458 -21.43302,25.92833 22.04845,0 0,7.78653 -34.81194,0 0,-6.23458 21.43302,-25.92833 -20.81759,0 0,-7.78653 z"
         style="font-style:normal;font-variant:normal;font-weight:bold;font-stretch:normal;font-size:medium;line-height:125%;font-family:sans-serif;-inkscape-font-specification:'sans-serif Bold';letter-spacing:0px;word-spacing:0px;fill:#ffffff;fill-opacity:1;stroke:none;stroke-width:1px;stroke-linecap:butt;stroke-linejoin:miter;stroke-opacity:1"
         id="path4239"
         inkscape:connector-curvature="0" />
      <path
         d="m 306.57699,669.04909 17.57989,0 0,7.57247 -29.03223,0 0,-7.57247 14.58301,-12.87051 q 1.95332,-1.76602 2.88984,-3.45176 0.93653,-1.68574 0.93653,-3.50528 0,-2.80957 -1.8998,-4.52207 -1.87305,-1.7125 -5.00372,-1.7125 -2.4082,0 -5.27129,1.04356 -2.86309,1.01679 -6.12754,3.05039 l 0,-8.77657 q 3.47851,-1.15059 6.87676,-1.73926 3.39824,-0.61543 6.66269,-0.61543 7.17111,0 11.13126,3.15743 3.98692,3.15742 3.98692,8.80332 0,3.26445 -1.68575,6.10078 -1.68574,2.80958 -7.09082,7.54571 l -8.53575,7.49219 z"
         style="font-style:normal;font-variant:normal;font-weight:bold;font-stretch:normal;font-size:medium;line-height:125%;font-family:sans-serif;-inkscape-font-specification:'sans-serif Bold';letter-spacing:0px;word-spacing:0px;fill:#ffffff;fill-opacity:1;stroke:none;stroke-width:1px;stroke-linecap:butt;stroke-linejoin:miter;stroke-opacity:1"
         id="path4241"
         inkscape:connector-curvature="0" />
      <path
         inkscape:connector-curvature="0"
         id="path3941-3"
         d="m 331.27751,819.08707 9.99233,3.44181 0,4.44104 -8.549,2.44256 0,13.76723 18.54134,-5.10719 -10.54747,5.44027 0.22205,10.32542 -7.99387,2.55359 0,13.10106 17.20903,-4.21897 -8.88208,5.21822 0,9.8813 -8.77105,2.99771 0.55514,12.43491 18.65236,-5.10719 -10.43645,5.99539 -0.22205,9.65927 -8.21591,2.44257 0.22205,12.32389 18.09723,-4.6631 -11.43568,7.21669 -0.33308,3.99694 28.86676,0 -0.33308,-13.54517 8.32695,-1.77642 -0.22205,-13.43414 -19.54058,4.33001 11.32466,-4.77411 0.11105,-9.54824 8.66003,-2.5536 0,-13.6562 -15.09954,4.33001 6.10642,-3.99692 0.11105,-9.99235 8.1049,-2.33155 0,-13.76722 -17.76417,4.33002 8.99312,-4.66309 0.4441,-11.21363 8.21592,-1.22128 0.4441,-13.54518 -16.32082,3.66386 8.43798,-6.55053 0,-4.219 -36.19447,0.99925 z"
         style="fill:#4f576d;fill-opacity:1;stroke:none" />
      <path
         inkscape:connector-curvature="0"
         id="path3943-6"
         d="m 333.44403,957.29801 0.15702,28.2626 -8.16475,0 0,10.20594 -14.60236,0.31403 -0.157,-8.94983 -19.31278,0.15702 -0.31404,31.55993 19.78382,0 0,-8.1648 14.75937,-0.157 0,10.206 58.25237,-0.1571 0.15701,-9.8919 15.38742,0 0,8.6358 18.84174,0 -0.15702,-32.65898 -18.68472,0.157 0,9.57789 -15.54443,0 -0.62807,-11.14803 -6.75162,0.15702 0,-28.41962 z"
         style="fill:#4f576d;fill-opacity:1;stroke:none" />
      <path
         inkscape:connector-curvature="0"
         id="path3921-7"
         d="m 202.81447,947.44234 -0.4441,7.77182 17.54211,16.43186 91.92951,0.88821 11.99082,-13.32313 62.84071,-0.66615 0,-36.86063 -61.5084,0 -24.42572,25.98008 z"
         style="fill:#394050;stroke:none" />
      <path
         inkscape:connector-curvature="0"
         id="path3921-3-5"
         d="m 202.87179,796.71414 -0.4441,-7.77181 17.5421,-16.43186 91.92952,-0.88821 11.99081,13.32312 62.84072,0.66615 0,36.86064 -61.5084,0 -24.42572,-25.98009 z"
         style="fill:#394050;stroke:none" />
      <rect
         transform="matrix(1,-4.2813838e-5,4.2813838e-5,1,0,0)"
         y="798.29639"
         x="122.55407"
         height="148.99527"
         width="179.34613"
         id="rect2997"
         style="fill:#00bbf2;fill-opacity:1;stroke:#ffffff;stroke-width:5.79425955;stroke-linecap:round;stroke-linejoin:round;stroke-miterlimit:4;stroke-dasharray:none;stroke-opacity:1" />
      <path
         sodipodi:open="true"
         sodipodi:end="6.2784904"
         sodipodi:start="0"
         transform="matrix(1,-4.2827284e-5,4.2813838e-5,1,0,0)"
         d="m 179.11708,841.7533 a 18.27951,17.934614 0 0 1 -18.25805,17.9346 18.27951,17.934614 0 0 1 -18.30092,-17.8925 18.27951,17.934614 0 0 1 18.21509,-17.97661 18.27951,17.934614 0 0 1 18.34368,17.8503"
         sodipodi:ry="17.934614"
         sodipodi:rx="18.27951"
         sodipodi:cy="841.7533"
         sodipodi:cx="160.83757"
         id="path3767"
         style="fill:#ffffff;fill-opacity:1;stroke:none"
         sodipodi:type="arc" />
      <path
         sodipodi:nodetypes="cccczzc"
         inkscape:connector-curvature="0"
         id="path3787"
         d="m 125.48012,889.36866 -0.24151,55.11654 174.12929,-0.25131 -0.48972,-45.60527 c 0,0 -24.58191,8.80543 -45.8489,6.09892 -21.26698,-2.7065 -53.70497,-29.95538 -76.33533,-30.96931 -22.63036,-1.01392 -51.21383,15.61043 -51.21383,15.61043 z"
         style="fill:#004455;fill-opacity:1;stroke:none;stroke-width:0.46588865px;stroke-linecap:butt;stroke-linejoin:miter;stroke-opacity:1" />
    </g>
  </g>
</svg>
