<?xml version="1.0" encoding="UTF-8" standalone="no"?>
<!-- Created with Inkscape (http://www.inkscape.org/) -->

<svg
   xmlns:dc="http://purl.org/dc/elements/1.1/"
   xmlns:cc="http://creativecommons.org/ns#"
   xmlns:rdf="http://www.w3.org/1999/02/22-rdf-syntax-ns#"
   xmlns:svg="http://www.w3.org/2000/svg"
   xmlns="http://www.w3.org/2000/svg"
   xmlns:sodipodi="http://sodipodi.sourceforge.net/DTD/sodipodi-0.dtd"
   xmlns:inkscape="http://www.inkscape.org/namespaces/inkscape"
   width="500"
   height="500"
   id="svg2"
   version="1.1"
   inkscape:version="0.91 r13725"
   sodipodi:docname="text-x-qml.svg">
  <defs
     id="defs4" />
  <sodipodi:namedview
     id="base"
     pagecolor="#ffffff"
     bordercolor="#666666"
     borderopacity="1.0"
     inkscape:pageopacity="0.0"
     inkscape:pageshadow="2"
     inkscape:zoom="0.60666665"
     inkscape:cx="241.33977"
     inkscape:cy="211.16423"
     inkscape:document-units="px"
     inkscape:current-layer="layer1"
     showgrid="false"
     inkscape:window-width="1366"
     inkscape:window-height="715"
     inkscape:window-x="0"
     inkscape:window-y="24"
     inkscape:window-maximized="1" />
  <metadata
     id="metadata7">
    <rdf:RDF>
      <cc:Work
         rdf:about="">
        <dc:format>image/svg+xml</dc:format>
        <dc:type
           rdf:resource="http://purl.org/dc/dcmitype/StillImage" />
        <dc:title />
      </cc:Work>
    </rdf:RDF>
  </metadata>
  <g
     inkscape:label="Layer 1"
     inkscape:groupmode="layer"
     id="layer1"
     transform="translate(0,-552.36218)">
    <g
       id="g4180">
      <path
         sodipodi:nodetypes="ccccc"
         inkscape:connector-curvature="0"
         id="path4230"
         d="m 63.190743,706.7948 53.222037,52.09856 -1.66005,-73.04185 -51.600947,-0.2451 z"
         style="fill:#27b221;fill-opacity:1;fill-rule:evenodd;stroke:none;stroke-width:1px;stroke-linecap:butt;stroke-linejoin:miter;stroke-opacity:1" />
      <path
         inkscape:connector-curvature="0"
         id="path3364"
         d="m 96.901363,1029.8357 336.888347,-1.1739 1.1737,-363.88668 -88.03687,-89.21086 -250.025177,0 z"
         style="fill:#f2f2f2;fill-rule:evenodd;stroke:#afafaf;stroke-width:5.03546047;stroke-linecap:butt;stroke-linejoin:miter;stroke-miterlimit:4;stroke-dasharray:none;stroke-opacity:1" />
      <path
         sodipodi:nodetypes="cccc"
         inkscape:connector-curvature="0"
         id="path4166"
         d="m 431.37941,662.93096 -82.16417,-0.58691 0.7585,-83.80351 z"
         style="fill:#afafaf;fill-opacity:1;fill-rule:evenodd;stroke:#afafaf;stroke-width:5.03546047;stroke-linecap:butt;stroke-linejoin:miter;stroke-miterlimit:4;stroke-dasharray:none;stroke-opacity:1" />
      <rect
         y="622.18719"
         x="63"
         height="84.350876"
         width="221.14197"
         id="rect4228"
         style="fill:#45d03f;fill-opacity:1;stroke:none;stroke-width:5;stroke-miterlimit:4;stroke-dasharray:none;stroke-opacity:1" />
      <path
         d="m 204.2216,749.13052 c -9.27756,-0.44182 -18.82153,1.25878 -26.73423,4.70048 -15.75592,6.83819 -27.87366,25.21692 -33.78682,51.4078 -4.20059,18.63166 -3.94049,69.63522 0.29391,89.30868 6.21859,28.86058 20.86714,50.23716 38.48535,56.11078 6.52426,2.17938 7.24583,3.25753 9.98847,12.04548 4.26518,13.66873 8.32166,20.05972 14.39464,24.38325 6.07459,4.32626 17.86639,7.26485 25.26486,6.16947 2.80176,-0.41363 7.09095,-0.5827 9.40089,-0.5827 3.99044,0 4.11293,-0.52636 4.11293,-11.45766 0,-10.22261 -0.45369,-11.75117 -3.52535,-11.75117 -6.54999,0 -11.88558,-3.70873 -14.98315,-10.57598 -1.70897,-3.78856 -2.74357,-7.33568 -2.35023,-7.63819 0.39616,-0.30915 4.21743,-2.66815 8.81332,-5.28817 22.81786,-13.06452 33.13157,-42.38845 33.19646,-94.89263 0.0846,-63.1504 -15.76718,-93.08191 -53.46756,-100.76808 -2.96363,-0.60165 -6.0146,-1.02749 -9.10712,-1.17511 z m 90.48357,12.92626 -3.23152,12.33863 c -1.66944,6.80718 -3.50064,14.36554 -4.11292,17.03913 -0.95352,4.15991 -1.78448,4.99468 -7.05067,4.99468 l -6.16933,0 0,11.45689 0,11.45778 5.288,0 5.28801,0 0,51.41088 c 0,19.21129 -0.0678,32.32393 0.58757,42.0104 8.32803,-7.59202 18.42667,-13.24101 29.67108,-16.15807 -0.14372,-6.8911 -0.2939,-15.51079 -0.2939,-29.67104 l 0,-45.82949 10.57598,0 10.57602,0 0,-10.28265 0,-10.2818 -10.57599,-1.46934 -10.57601,-1.17514 0,-16.45155 c 0,-9.13577 -0.73893,-16.88869 -1.46889,-17.33244 -0.72998,-0.42304 -5.19955,-1.10176 -9.98846,-1.46932 l -8.51957,-0.58287 z m -87.84002,12.92619 c 7.43158,0 16.79844,8.93463 20.27019,19.38936 6.14047,18.48779 7.16103,80.55725 1.76266,106.64361 -4.2917,20.74028 -15.60923,31.39804 -27.32083,25.55845 -5.39191,-2.68891 -11.84702,-12.14994 -14.10138,-20.56454 -7.37019,-27.52298 -6.91558,-95.67293 0.88133,-115.161 3.5389,-8.84432 11.79251,-15.864 18.50851,-15.864 z m 125.85913,207.00759 c -9.45165,0 -17.10963,-7.6503 -17.10963,-17.10941 0,-9.45948 7.65777,-17.10978 17.10963,-17.10978 9.4545,0 17.1096,7.6503 17.1096,17.10978 0,9.45911 -7.65531,17.10941 -17.1096,17.10941 z m 61.10581,-4.88824 0,-24.44233 -13.6144,0 c -1.09749,-4.57086 -2.82312,-8.89714 -5.10847,-12.88136 l 9.46671,-9.4591 -17.28069,-17.28081 -9.27099,9.26381 c -4.02074,-2.44432 -8.40571,-4.302 -13.07663,-5.49951 l 0,-13.02772 -24.4423,0 0,13.02772 c -4.6685,1.19751 -9.0559,3.05519 -13.07384,5.49951 l -9.27097,-9.26381 -17.28075,17.28081 9.46673,9.4591 c -2.28535,3.98422 -4.01101,8.3105 -5.10844,12.88136 l -13.6172,0 0,24.44233 14.0327,0 c 1.20747,4.37519 3.00154,8.48112 5.30156,12.26971 l -10.07495,10.07035 17.28074,17.28082 10.27327,-10.2657 c 3.74212,2.1509 7.79221,3.7887 12.07169,4.9129 l 0,14.6162 24.44228,0 0,-14.6162 c 4.27986,-1.1242 8.3324,-2.762 12.07456,-4.9129 l 10.27328,10.2657 17.28075,-17.28082 -10.07497,-10.07035 c 2.30003,-3.78859 4.09409,-7.89452 5.30154,-12.26971 l 14.02995,0"
         id="path37"
         inkscape:connector-curvature="0"
         style="fill:#45d03f;fill-opacity:1" />
      <g
         id="flowRoot4144"
         style="font-style:normal;font-weight:normal;font-size:40px;line-height:125%;font-family:sans-serif;letter-spacing:0px;word-spacing:0px;fill:#ffffff;fill-opacity:1;stroke:none;stroke-width:1px;stroke-linecap:butt;stroke-linejoin:miter;stroke-opacity:1"
         transform="translate(-23.642334,532.54765)">
        <path
           inkscape:connector-curvature="0"
           id="path4153"
           style="font-style:normal;font-variant:normal;font-weight:bold;font-stretch:normal;font-size:80px;font-family:sans-serif;-inkscape-font-specification:'sans-serif Bold';fill:#ffffff"
           d="m 136.99023,157.69696 -1.17187,0 q -14.41406,0 -22.42188,-7.96875 -8.00781,-7.96875 -8.00781,-22.1875 0,-14.17968 7.96875,-22.22656 8.00781,-8.046873 22.03125,-8.046873 14.17969,0 22.07031,7.968753 7.92969,7.96875 7.92969,22.30468 0,9.84375 -4.21875,16.95313 -4.17969,7.10937 -12.07031,10.70312 l 11.75781,13.125 -14.33594,0 -9.53125,-10.625 z m -1.60156,-49.53125 q -6.875,0 -10.66406,5.07813 -3.78906,5.07812 -3.78906,14.29687 0,9.375 3.71093,14.375 3.71094,4.96094 10.74219,4.96094 6.91406,0 10.70313,-5.07812 3.78906,-5.07813 3.78906,-14.25782 0,-9.21875 -3.78906,-14.29687 -3.78907,-5.07813 -10.70313,-5.07813 z" />
        <path
           inkscape:connector-curvature="0"
           id="path4155"
           style="font-style:normal;font-variant:normal;font-weight:bold;font-stretch:normal;font-size:80px;font-family:sans-serif;-inkscape-font-specification:'sans-serif Bold';fill:#ffffff"
           d="m 176.7168,98.321964 19.14062,0 13.28125,31.210936 13.35938,-31.210936 19.10156,0 0,58.320316 -14.21875,0 0,-42.65625 -13.4375,31.44531 -9.53125,0 -13.4375,-31.44531 0,42.65625 -14.25781,0 0,-58.320316 z" />
        <path
           inkscape:connector-curvature="0"
           id="path4157"
           style="font-style:normal;font-variant:normal;font-weight:bold;font-stretch:normal;font-size:80px;font-family:sans-serif;-inkscape-font-specification:'sans-serif Bold';fill:#ffffff"
           d="m 256.4043,98.321964 15.03906,0 0,46.953126 26.40625,0 0,11.36719 -41.44531,0 0,-58.320316 z" />
      </g>
    </g>
  </g>
</svg>
