<?xml version="1.0" encoding="UTF-8" standalone="no"?>
<!-- Created with Inkscape (http://www.inkscape.org/) -->

<svg
   xmlns:dc="http://purl.org/dc/elements/1.1/"
   xmlns:cc="http://creativecommons.org/ns#"
   xmlns:rdf="http://www.w3.org/1999/02/22-rdf-syntax-ns#"
   xmlns:svg="http://www.w3.org/2000/svg"
   xmlns="http://www.w3.org/2000/svg"
   xmlns:sodipodi="http://sodipodi.sourceforge.net/DTD/sodipodi-0.dtd"
   xmlns:inkscape="http://www.inkscape.org/namespaces/inkscape"
   width="500"
   height="500"
   id="svg2"
   version="1.1"
   inkscape:version="0.91 r13725"
   sodipodi:docname="text-x-adasrc.svg">
  <defs
     id="defs4" />
  <sodipodi:namedview
     id="base"
     pagecolor="#ffffff"
     bordercolor="#666666"
     borderopacity="1.0"
     inkscape:pageopacity="0.0"
     inkscape:pageshadow="2"
     inkscape:zoom="0.21448905"
     inkscape:cx="1904.8031"
     inkscape:cy="73.835099"
     inkscape:document-units="px"
     inkscape:current-layer="layer1"
     showgrid="false"
     inkscape:window-width="1366"
     inkscape:window-height="715"
     inkscape:window-x="0"
     inkscape:window-y="24"
     inkscape:window-maximized="1" />
  <metadata
     id="metadata7">
    <rdf:RDF>
      <cc:Work
         rdf:about="">
        <dc:format>image/svg+xml</dc:format>
        <dc:type
           rdf:resource="http://purl.org/dc/dcmitype/StillImage" />
        <dc:title />
      </cc:Work>
    </rdf:RDF>
  </metadata>
  <g
     inkscape:label="Layer 1"
     inkscape:groupmode="layer"
     id="layer1"
     transform="translate(0,-552.36218)">
    <g
       id="g3393">
      <g
         id="g3360">
        <path
           style="fill:#1d2129;fill-opacity:1;fill-rule:evenodd;stroke:none;stroke-width:1px;stroke-linecap:butt;stroke-linejoin:miter;stroke-opacity:1"
           d="M 63.03896,706.21224 116.261,758.3108 114.60095,685.26895 63,685.02385 Z"
           id="path4230"
           inkscape:connector-curvature="0"
           sodipodi:nodetypes="ccccc" />
        <path
           style="fill:#f2f2f2;fill-rule:evenodd;stroke:#afafaf;stroke-width:5.03546047;stroke-linecap:butt;stroke-linejoin:miter;stroke-miterlimit:4;stroke-dasharray:none;stroke-opacity:1"
           d="m 97.04097,1029.8357 336.88839,-1.1739 1.17377,-363.88646 -88.03697,-89.21086 -250.02519,0 z"
           id="path3364"
           inkscape:connector-curvature="0" />
        <path
           style="fill:#afafaf;fill-opacity:1;fill-rule:evenodd;stroke:#afafaf;stroke-width:5.03546047;stroke-linecap:butt;stroke-linejoin:miter;stroke-miterlimit:4;stroke-dasharray:none;stroke-opacity:1"
           d="m 431.51909,662.93118 -82.16431,-0.58691 0.75853,-83.80351 z"
           id="path4166"
           inkscape:connector-curvature="0"
           sodipodi:nodetypes="cccc" />
        <rect
           style="fill:#394050;fill-opacity:1;stroke:none;stroke-width:5;stroke-miterlimit:4;stroke-dasharray:none;stroke-opacity:1"
           id="rect4228"
           width="224.93568"
           height="84.350876"
           x="63.139656"
           y="622.18732" />
        <rect
           style="fill:#394050;fill-opacity:1;stroke:none"
           id="rect2990-3"
           width="297.32489"
           height="12.142574"
           x="115.91528"
           y="881.03656" />
        <rect
           style="fill:#394050;fill-opacity:1;stroke:none"
           id="rect2990-3-7"
           width="297.77072"
           height="12.142574"
           x="117.08083"
           y="933.61615" />
        <rect
           style="fill:#394050;fill-opacity:1;stroke:none"
           id="rect2990-3-35"
           width="203.88005"
           height="12.142574"
           x="117.08083"
           y="987.84167" />
        <rect
           style="fill:#394050;fill-opacity:1;stroke:none"
           id="rect2990-3-2"
           width="297.32489"
           height="12.142574"
           x="113.94858"
           y="776.39893" />
        <rect
           style="fill:#394050;fill-opacity:1;stroke:none"
           id="rect2990-3-7-2"
           width="297.77072"
           height="12.142574"
           x="115.11412"
           y="828.97852" />
      </g>
      <g
         id="flowRoot3378"
         style="font-style:normal;font-weight:normal;font-size:40px;line-height:125%;font-family:sans-serif;letter-spacing:0px;word-spacing:0px;fill:#000000;fill-opacity:1;stroke:none;stroke-width:1px;stroke-linecap:butt;stroke-linejoin:miter;stroke-opacity:1"
         transform="translate(-9.0659344,532.58196)">
        <path
           inkscape:connector-curvature="0"
           id="path3387"
           style="font-style:normal;font-variant:normal;font-weight:bold;font-stretch:normal;font-size:80px;font-family:sans-serif;-inkscape-font-specification:'sans-serif Bold';fill:#ffffff"
           d="m 139.98633,149.60907 -23.51563,0 -3.71093,10.625 -15.117192,0 21.601562,-58.32031 17.92969,0 21.60156,58.32031 -15.11719,0 -3.67187,-10.625 z m -19.76563,-10.82031 15.97657,0 -7.96875,-23.20312 -8.00782,23.20312 z" />
        <path
           inkscape:connector-curvature="0"
           id="path3389"
           style="font-style:normal;font-variant:normal;font-weight:bold;font-stretch:normal;font-size:80px;font-family:sans-serif;-inkscape-font-specification:'sans-serif Bold';fill:#ffffff"
           d="m 181.50977,113.28095 0,35.58594 5.39062,0 q 9.21875,0 14.0625,-4.57032 4.88281,-4.57031 4.88281,-13.28125 0,-8.67187 -4.84375,-13.20312 -4.84375,-4.53125 -14.10156,-4.53125 l -5.39062,0 z m -15.03907,-11.36719 15.85938,0 q 13.28125,0 19.76562,1.91406 6.52344,1.875 11.17188,6.40625 4.10156,3.94532 6.09375,9.10157 1.99219,5.15625 1.99219,11.67968 0,6.60157 -1.99219,11.79688 -1.99219,5.15625 -6.09375,9.10156 -4.6875,4.53125 -11.25,6.44531 -6.5625,1.875 -19.6875,1.875 l -15.85938,0 0,-58.32031 z" />
        <path
           inkscape:connector-curvature="0"
           id="path3391"
           style="font-style:normal;font-variant:normal;font-weight:bold;font-stretch:normal;font-size:80px;font-family:sans-serif;-inkscape-font-specification:'sans-serif Bold';fill:#ffffff"
           d="m 256.23633,124.49189 q 3.55469,0 5.39062,-1.5625 1.83594,-1.5625 1.83594,-4.60938 0,-3.00781 -1.83594,-4.57031 -1.83593,-1.60156 -5.39062,-1.60156 l -8.32031,0 0,12.34375 8.32031,0 z m 0.50781,25.50781 q 4.53125,0 6.79688,-1.91406 2.30468,-1.91407 2.30468,-5.78125 0,-3.78907 -2.26562,-5.66407 -2.26563,-1.91406 -6.83594,-1.91406 l -8.82812,0 0,15.27344 8.82812,0 z m 13.98438,-20.97656 q 4.84375,1.40625 7.5,5.19531 2.65625,3.78906 2.65625,9.29687 0,8.4375 -5.70313,12.57813 -5.70312,4.14062 -17.34375,4.14062 l -24.96094,0 0,-58.32031 22.57813,0 q 12.14844,0 17.57812,3.67188 5.46875,3.67187 5.46875,11.75781 0,4.25781 -1.99218,7.26562 -1.99219,2.96875 -5.78125,4.41407 z" />
      </g>
    </g>
  </g>
</svg>
