<?xml version="1.0" encoding="UTF-8" standalone="no"?>
<svg
   xmlns:dc="http://purl.org/dc/elements/1.1/"
   xmlns:cc="http://creativecommons.org/ns#"
   xmlns:rdf="http://www.w3.org/1999/02/22-rdf-syntax-ns#"
   xmlns:svg="http://www.w3.org/2000/svg"
   xmlns="http://www.w3.org/2000/svg"
   xmlns:sodipodi="http://sodipodi.sourceforge.net/DTD/sodipodi-0.dtd"
   xmlns:inkscape="http://www.inkscape.org/namespaces/inkscape"
   viewBox="0 0 500 500"
   id="svg2"
   version="1.1"
   inkscape:version="0.91 r13725"
   width="100%"
   height="100%"
   sodipodi:docname="credentials-preferences.svg">
  <metadata
     id="metadata76">
    <rdf:RDF>
      <cc:Work
         rdf:about="">
        <dc:format>image/svg+xml</dc:format>
        <dc:type
           rdf:resource="http://purl.org/dc/dcmitype/StillImage" />
        <dc:title />
      </cc:Work>
    </rdf:RDF>
  </metadata>
  <sodipodi:namedview
     pagecolor="#ffffff"
     bordercolor="#666666"
     borderopacity="1"
     objecttolerance="10"
     gridtolerance="10"
     guidetolerance="10"
     inkscape:pageopacity="0"
     inkscape:pageshadow="2"
     inkscape:window-width="1366"
     inkscape:window-height="715"
     id="namedview74"
     showgrid="false"
     inkscape:zoom="0.30729167"
     inkscape:cx="-436.59328"
     inkscape:cy="578.22464"
     inkscape:window-x="0"
     inkscape:window-y="24"
     inkscape:window-maximized="1"
     inkscape:current-layer="svg2" />
  <defs
     id="defs4">
    <linearGradient
       id="linearGradient3764"
       x1="1"
       x2="47"
       gradientUnits="userSpaceOnUse"
       gradientTransform="matrix(0,-1,1,0,-1.5e-6,47.999998)">
      <stop
         stop-color="#8358b4"
         stop-opacity="1"
         id="stop7" />
      <stop
         offset="1"
         stop-color="#8d65ba"
         stop-opacity="1"
         id="stop9" />
    </linearGradient>
    <clipPath
       id="clipPath-057129763">
      <g
         transform="translate(0,-1004.3622)"
         id="g12">
        <path
           d="m -24,13 c 0,1.105 -0.672,2 -1.5,2 -0.828,0 -1.5,-0.895 -1.5,-2 0,-1.105 0.672,-2 1.5,-2 0.828,0 1.5,0.895 1.5,2 z"
           transform="matrix(15.333333,0,0,11.5,414.99999,878.8622)"
           id="path14"
           inkscape:connector-curvature="0"
           style="fill:#1890d0" />
      </g>
    </clipPath>
    <clipPath
       id="clipPath-064426159">
      <g
         transform="translate(0,-1004.3622)"
         id="g17">
        <path
           d="m -24,13 c 0,1.105 -0.672,2 -1.5,2 -0.828,0 -1.5,-0.895 -1.5,-2 0,-1.105 0.672,-2 1.5,-2 0.828,0 1.5,0.895 1.5,2 z"
           transform="matrix(15.333333,0,0,11.5,414.99999,878.8622)"
           id="path19"
           inkscape:connector-curvature="0"
           style="fill:#1890d0" />
      </g>
    </clipPath>
  </defs>
  <g
     id="g33"
     transform="translate(0,452)" />
  <g
     id="g4153">
    <rect
       transform="matrix(0.68145507,0.73185996,-0.73185996,0.68145507,0,0)"
       ry="19.279545"
       rx="21.380377"
       y="-168.0723"
       x="197.85548"
       height="310.8826"
       width="310.8826"
       id="rect2988"
       style="fill:#ffcc00;fill-opacity:1;stroke:#394050;stroke-width:27.38301277;stroke-miterlimit:4;stroke-opacity:1;stroke-dasharray:none" />
    <path
       sodipodi:nodetypes="zccczcccccczcccccczcccccczcccz"
       inkscape:connector-curvature="0"
       id="path3758"
       d="m 244.34825,176.20747 c -14.99833,2.09585 -23.37848,18.3399 -23.37848,18.3399 l -17.19393,23.98887 -26.33813,14.30325 c 0,0 -6.56262,2.92436 -4.43385,8.86762 2.12877,5.94326 7.25537,4.43385 7.25537,4.43385 l 30.63363,-12.49533 16.1231,-15.71992 14.51075,45.95054 -28.21524,32.64907 0,67.31352 c 0,0 1.24938,7.72557 8.46458,7.6584 7.21496,-0.0672 9.67377,-6.04612 9.67377,-6.04612 l 3.22465,-58.84894 21.93791,-17.87434 6.27034,0 7.83797,23.79891 27.23651,51.71515 c 0,0 5.72363,6.24756 12.49529,2.41846 6.77166,-3.82911 5.64306,-10.88304 5.64306,-10.88304 l -25.79687,-49.17514 -2.01524,-50.78743 -10.48004,-48.36898 13.30156,4.03076 9.27062,29.82752 c 0,0 2.96441,7.80562 9.22594,5.87495 6.26175,-1.93065 4.8817,-9.50261 4.8817,-9.50261 l -9.67379,-37.48596 -35.06746,-20.15378 c 0,0 -10.39541,-5.92503 -25.39372,-3.82918 z"
       style="fill:#394050;stroke:none" />
    <path
       sodipodi:open="true"
       sodipodi:end="6.2784904"
       sodipodi:start="0"
       transform="matrix(2.2572194,0,0,2.1536772,-1675.7742,-356.34954)"
       d="m 860.17858,234.76785 a 9.4642859,9.7321424 0 1 1 -10e-5,-0.0457"
       sodipodi:ry="9.7321424"
       sodipodi:rx="9.4642859"
       sodipodi:cy="234.76785"
       sodipodi:cx="850.71429"
       id="path3760"
       style="fill:#394050;fill-opacity:1;stroke:none"
       sodipodi:type="arc" />
    <path
       inkscape:connector-curvature="0"
       id="path3002"
       d="m 320.35414,113.49343 c -1.3727,0.029 -2.16992,0.16602 -2.16992,0.16602 l -9.3125,34.57812 6.88477,13.6836 14.90625,5.31054 -6.41016,19.97266 5.55469,10.77344 20.86523,4.77929 -7.4375,23.89258 18.41211,4.36914 9.04102,16.11328 -15.83789,8.88086 c 0,0 -2.55186,1.27899 -3.20703,3.34961 -0.65516,2.07062 1.42382,4.33203 1.42382,4.33203 l 18.23047,10.375 c 0,0 -25.47525,38.9434 -6.15039,72.19922 19.32479,33.25585 61.23311,39.98289 94.21289,19.84961 32.9797,-20.13323 44.30702,-57.45286 25.69922,-89.88476 -18.6078,-32.4319 -63.77344,-30.25196 -63.77344,-30.25196 l 3.10743,-18.04492 c 0,0 0.22751,-4.33991 -3.54688,-5.6289 -3.77439,-1.28899 -5.78711,0.38476 -5.78711,0.38476 l -10.72461,6.26367 -62.16406,-106.43554 c 0,0 -4.01435,-4.4096 -11.16797,-7.125 -4.47102,-1.69713 -8.3606,-1.95074 -10.64844,-1.90235 z m 122.13867,203.6836 a 17.836081,17.836082 0 0 1 14.61915,8.875 17.836081,17.836082 0 0 1 -6.47461,24.36523 17.836081,17.836082 0 0 1 -24.3711,-6.44531 17.836081,17.836082 0 0 1 6.41602,-24.37891 l 0.0723,-0.043 a 17.836081,17.836082 0 0 1 9.73828,-2.37304 z"
       style="fill:#b3b3b3;stroke:none;fill-opacity:1" />
    <path
       sodipodi:nodetypes="ccccc"
       inkscape:connector-curvature="0"
       id="path3772"
       d="m 386.33748,251.82362 12.83355,11.86898 -83.02282,-142.94126 -1.93318,7.58383 z"
       style="fill:#ebebeb;stroke:none;fill-opacity:1" />
  </g>
</svg>
