<?xml version="1.0" encoding="UTF-8" standalone="no"?>
<svg
   xmlns:dc="http://purl.org/dc/elements/1.1/"
   xmlns:cc="http://creativecommons.org/ns#"
   xmlns:rdf="http://www.w3.org/1999/02/22-rdf-syntax-ns#"
   xmlns:svg="http://www.w3.org/2000/svg"
   xmlns="http://www.w3.org/2000/svg"
   xmlns:xlink="http://www.w3.org/1999/xlink"
   xmlns:sodipodi="http://sodipodi.sourceforge.net/DTD/sodipodi-0.dtd"
   xmlns:inkscape="http://www.inkscape.org/namespaces/inkscape"
   viewBox="0 0 511.99999 511.99999"
   height="512"
   width="512"
   version="1.1"
   id="svg2"
   inkscape:version="0.91 r13725"
   sodipodi:docname="applications-office.svg">
  <sodipodi:namedview
     pagecolor="#ffffff"
     bordercolor="#666666"
     borderopacity="1"
     objecttolerance="10"
     gridtolerance="10"
     guidetolerance="10"
     inkscape:pageopacity="0"
     inkscape:pageshadow="2"
     inkscape:window-width="1366"
     inkscape:window-height="715"
     id="namedview18"
     showgrid="false"
     inkscape:zoom="0.40625"
     inkscape:cx="-253.29834"
     inkscape:cy="399.60689"
     inkscape:window-x="0"
     inkscape:window-y="24"
     inkscape:window-maximized="1"
     inkscape:current-layer="svg2" />
  <metadata
     id="metadata8">
    <rdf:RDF>
      <cc:Work
         rdf:about="">
        <dc:format>image/svg+xml</dc:format>
        <dc:type
           rdf:resource="http://purl.org/dc/dcmitype/StillImage" />
        <dc:title />
      </cc:Work>
    </rdf:RDF>
  </metadata>
  <defs
     id="defs6">
    <filter
       height="1.096"
       y="-0.048"
       width="1.096"
       x="-0.048"
       id="filter4329"
       style="color-interpolation-filters:sRGB">
      <feGaussianBlur
         id="feGaussianBlur4331"
         stdDeviation="2.1324205" />
    </filter>
    <filter
       height="1.0327445"
       y="-0.016372267"
       width="1.0399742"
       x="-0.019987123"
       id="filter4376"
       style="color-interpolation-filters:sRGB">
      <feGaussianBlur
         id="feGaussianBlur4378"
         stdDeviation="1.1736058" />
    </filter>
    <filter
       height="1.0570984"
       y="-0.0285492"
       width="1.0632123"
       x="-0.031606145"
       id="filter4436"
       style="color-interpolation-filters:sRGB">
      <feGaussianBlur
         id="feGaussianBlur4438"
         stdDeviation="0.63519096" />
    </filter>
    <linearGradient
       x1="16.541649"
       y1="144.70755"
       x2="-24.629177"
       y2="-0.77768874"
       id="linearGradient3504"
       xlink:href="#linearGradient3526"
       gradientUnits="userSpaceOnUse"
       gradientTransform="matrix(0.6969214,-0.3124156,0.3124156,0.6969214,29.229254,21.999738)" />
    <linearGradient
       id="linearGradient3526">
      <stop
         id="stop3528"
         style="stop-color:#006e29;stop-opacity:1"
         offset="0" />
      <stop
         id="stop3530"
         style="stop-color:#77b753;stop-opacity:1"
         offset="1" />
    </linearGradient>
  </defs>
  <g
     id="g4205">
    <rect
       rx="31.491711"
       ry="35.583622"
       y="36.999992"
       x="60"
       height="450"
       width="381.21548"
       id="rect3003"
       style="fill:#c87137;fill-opacity:1;stroke:none" />
    <path
       sodipodi:nodetypes="cccczcczcczcczc"
       inkscape:connector-curvature="0"
       id="path3773"
       d="m 80.407525,52.216648 c -2.691647,3.309991 -2.262269,7.680306 -2.262269,7.680306 l 0.07919,374.090416 0.0054,27.42556 c 0,0 -0.176685,4.28946 1.814739,6.52615 1.991585,2.23668 6.733317,2.44649 6.733317,2.44649 l 328.436238,-0.0162 c 0,0 5.50157,0.3022 7.97608,-1.86521 2.47451,-2.16736 2.25797,-6.98472 2.25797,-6.98472 L 425.32287,71.748593 c 0,0 1.30008,-10.663618 -5.0487,-16.876529 -6.34877,-6.212909 -17.70398,-4.682984 -17.70398,-4.682984 l -315.015,-0.749513 c 0,0 -4.456342,-0.530054 -7.147934,2.779667 z"
       style="fill:#ffffff;stroke:none" />
    <rect
       ry="0"
       y="136.83124"
       x="121.46871"
       height="5.8461537"
       width="104.30769"
       id="rect3001-3-7"
       style="fill:#b3b3b3;fill-opacity:1;stroke:none" />
    <rect
       ry="0"
       y="94.898399"
       x="120.23795"
       height="5.8461537"
       width="251.38461"
       id="rect3001-6-5"
       style="fill:#b3b3b3;fill-opacity:1;stroke:none" />
    <rect
       ry="0"
       y="361.58691"
       x="122.33899"
       height="5.8461537"
       width="251.38461"
       id="rect3001-6-5-7-3"
       style="fill:#b3b3b3;fill-opacity:1;stroke:none" />
    <rect
       ry="0"
       y="404.18417"
       x="122.33899"
       height="5.8461537"
       width="158.26408"
       id="rect3001-3-7-3-5-5"
       style="fill:#b3b3b3;fill-opacity:1;stroke:none" />
    <rect
       transform="matrix(0,1,-1,0,0,0)"
       rx="7.8132057"
       ry="11.049119"
       y="-375.80072"
       x="116.56231"
       height="139.73012"
       width="94.580925"
       id="rect3003-3"
       style="fill:#45d03f;fill-opacity:1;stroke:none" />
    <path
       sodipodi:nodetypes="cccczcczcczcczc"
       inkscape:connector-curvature="0"
       id="path3773-6"
       d="m 370.76042,121.11996 c -1.0292,-0.67344 -2.38809,-0.56601 -2.38809,-0.56601 l -116.31791,0.0198 -8.52758,0.001 c 0,0 -1.33374,-0.0442 -2.02921,0.45405 -0.69546,0.49829 -0.7607,1.68466 -0.7607,1.68466 l 0.005,82.17421 c 0,0 -0.094,1.37648 0.57996,1.9956 0.67391,0.61912 2.17179,0.56494 2.17179,0.56494 l 121.19352,-0.0314 c 0,0 3.3157,0.32528 5.24751,-1.26318 1.93181,-1.58845 1.45611,-4.42951 1.45611,-4.42951 l 0.23305,-78.81623 c 0,0 0.16481,-1.11497 -0.8643,-1.7884 z"
       style="fill:#ffffff;stroke:none" />
    <path
       inkscape:connector-curvature="0"
       id="path17"
       d="m 310.92588,192.55359 -10.38755,0 c -1.43413,0 -2.59703,-1.1629 -2.59703,-2.59703 l 0,-41.55048 c 0,-1.43414 1.1629,-2.59703 2.59703,-2.59703 l 10.38755,0 c 1.43413,0 2.59703,1.16289 2.59703,2.59703 l 0,41.55048 c 0,1.43413 -1.1629,2.59703 -2.59703,2.59703 z"
       style="fill:#ffcc00" />
    <path
       inkscape:connector-curvature="0"
       id="path21"
       d="m 287.55375,192.55359 -10.38755,0 c -1.43413,0 -2.59703,-1.1629 -2.59703,-2.59703 l 0,-28.5659 c 0,-1.43414 1.1629,-2.59704 2.59703,-2.59704 l 10.38755,0 c 1.43413,0 2.59703,1.1629 2.59703,2.59704 l 0,28.5659 c 0,1.43413 -1.1629,2.59703 -2.59703,2.59703 z"
       style="fill:#f03916;fill-opacity:1" />
    <path
       inkscape:connector-curvature="0"
       id="path25"
       d="m 264.18162,192.55359 -10.38754,0 c -1.43414,0 -2.59704,-1.1629 -2.59704,-2.59703 l 0,-15.58162 c 0,-1.43413 1.1629,-2.59703 2.59704,-2.59703 l 10.38754,0 c 1.43413,0 2.59704,1.1629 2.59704,2.59703 l 0,15.58162 c -3e-4,1.43413 -1.16291,2.59703 -2.59704,2.59703 z"
       style="fill:#004455" />
    <path
       inkscape:connector-curvature="0"
       id="path29"
       d="m 334.298,192.55359 -10.38754,0 c -1.43414,0 -2.59704,-1.1629 -2.59704,-2.59703 l 0,-28.5659 c 0,-1.43414 1.1629,-2.59704 2.59704,-2.59704 l 10.38754,0 c 1.43413,0 2.59703,1.1629 2.59703,2.59704 l 0,28.5659 c 0,1.43413 -1.1629,2.59703 -2.59703,2.59703 z"
       style="fill:#45d03f;fill-opacity:1" />
    <path
       inkscape:connector-curvature="0"
       id="path33"
       d="m 357.67042,192.55359 -10.38755,0 c -1.43413,0 -2.59703,-1.1629 -2.59703,-2.59703 l 0,-57.13209 c 0,-1.43414 1.1629,-2.59704 2.59703,-2.59704 l 10.38755,0 c 1.43413,0 2.59703,1.1629 2.59703,2.59704 l 0,57.13209 c -2.9e-4,1.43413 -1.1629,2.59703 -2.59703,2.59703 z"
       style="fill:#00bbf2;fill-opacity:1" />
    <path
       inkscape:connector-curvature="0"
       id="path37"
       d="m 365.46093,195.15004 -119.45766,0 c -1.43413,0 -2.59703,-1.1629 -2.59703,-2.59704 l 0,0 c 0,-1.43413 1.1629,-2.59703 2.59703,-2.59703 l 119.45795,0 c 1.43414,0 2.59704,1.1629 2.59704,2.59703 l 0,0 c -2.9e-4,1.43473 -1.1629,2.59704 -2.59733,2.59704 z"
       style="fill:#394050" />
    <rect
       y="252.07922"
       x="132.73396"
       height="96.456932"
       width="233.35408"
       id="rect3771-5-9-7"
       style="fill:#45d03f;fill-opacity:1;stroke:none" />
    <rect
       y="258.34412"
       x="139.60246"
       height="22.821951"
       width="49.310349"
       id="rect3771-5-9"
       style="fill:#ffffff;fill-opacity:1;stroke:none" />
    <rect
       y="258.34412"
       x="196.49902"
       height="22.821951"
       width="49.310349"
       id="rect3771-7-6-3"
       style="fill:#ffffff;fill-opacity:1;stroke:none" />
    <rect
       y="258.34412"
       x="253.3956"
       height="22.821951"
       width="49.310349"
       id="rect3771-7-5-2-6"
       style="fill:#ffffff;fill-opacity:1;stroke:none" />
    <rect
       y="258.34412"
       x="310.29214"
       height="22.821951"
       width="49.310349"
       id="rect3771-7-5-3-9-0"
       style="fill:#ffffff;fill-opacity:1;stroke:none" />
    <rect
       y="288.99762"
       x="140.08981"
       height="22.821951"
       width="49.310349"
       id="rect3771-6"
       style="fill:#ffffff;fill-opacity:1;stroke:none" />
    <rect
       y="288.99762"
       x="196.98636"
       height="22.821951"
       width="49.310349"
       id="rect3771-7-26"
       style="fill:#ffffff;fill-opacity:1;stroke:none" />
    <rect
       y="288.99762"
       x="253.8829"
       height="22.821951"
       width="49.310349"
       id="rect3771-7-5-1"
       style="fill:#ffffff;fill-opacity:1;stroke:none" />
    <rect
       y="288.99762"
       x="310.77948"
       height="22.821951"
       width="49.310349"
       id="rect3771-7-5-3-8"
       style="fill:#ffffff;fill-opacity:1;stroke:none" />
    <rect
       y="319.44928"
       x="140.08981"
       height="22.821951"
       width="49.310349"
       id="rect3771-5-7"
       style="fill:#ffffff;fill-opacity:1;stroke:none" />
    <rect
       y="319.44928"
       x="196.98636"
       height="22.821951"
       width="49.310349"
       id="rect3771-7-6-9"
       style="fill:#ffffff;fill-opacity:1;stroke:none" />
    <rect
       y="319.44928"
       x="253.88293"
       height="22.821951"
       width="49.310349"
       id="rect3771-7-5-2-2"
       style="fill:#ffffff;fill-opacity:1;stroke:none" />
    <rect
       y="319.44928"
       x="310.77951"
       height="22.821951"
       width="49.310349"
       id="rect3771-7-5-3-9-02"
       style="fill:#ffffff;fill-opacity:1;stroke:none" />
    <rect
       ry="0"
       y="218.61539"
       x="121.69231"
       height="5.8461537"
       width="251.38461"
       id="rect3001-6-5-3"
       style="fill:#b3b3b3;fill-opacity:1;stroke:none" />
    <path
       sodipodi:nodetypes="cccc"
       inkscape:connector-curvature="0"
       id="path3868"
       d="M 283.3363,410.17303 315.75041,382.11838 289.1789,368.41087 Z"
       style="fill:#b3b3b3;stroke:none;fill-opacity:1" />
    <path
       sodipodi:nodetypes="cccc"
       inkscape:connector-curvature="0"
       id="path3868-3"
       d="m 283.30521,410.16958 8.9691,-7.76283 -7.31049,-3.99188 z"
       style="fill:#ebebeb;stroke:none" />
    <path
       sodipodi:nodetypes="ccccc"
       inkscape:connector-curvature="0"
       id="path3888"
       d="m 289.19875,368.47329 136.59226,-236.2032 25.35008,15.80652 -135.99577,234.33925 z"
       style="fill:#394050;fill-opacity:1;stroke:none" />
    <path
       sodipodi:nodetypes="ccccc"
       inkscape:connector-curvature="0"
       id="path3888-6"
       d="m 418.0797,145.52352 17.96872,-31.24029 25.72286,15.80652 -17.8196,30.56928 z"
       style="fill:#b3b3b3;fill-opacity:1;stroke:none" />
    <path
       inkscape:connector-curvature="0"
       id="path3803"
       d="m 411.15317,162.1592 -17.36476,6.94591 -34.72952,60.42937"
       style="fill:none;stroke:#394050;stroke-width:6.38494539;stroke-linecap:butt;stroke-linejoin:miter;stroke-miterlimit:4;stroke-dasharray:none;stroke-opacity:1" />
    <rect
       ry="0"
       y="179.23076"
       x="121.38461"
       height="5.8461537"
       width="104.30769"
       id="rect3001-3-7-6"
       style="fill:#b3b3b3;fill-opacity:1;stroke:none" />
  </g>
</svg>
