<?xml version="1.0" encoding="UTF-8" standalone="no"?>
<!-- Created with Inkscape (http://www.inkscape.org/) -->

<svg
   xmlns:dc="http://purl.org/dc/elements/1.1/"
   xmlns:cc="http://creativecommons.org/ns#"
   xmlns:rdf="http://www.w3.org/1999/02/22-rdf-syntax-ns#"
   xmlns:svg="http://www.w3.org/2000/svg"
   xmlns="http://www.w3.org/2000/svg"
   xmlns:sodipodi="http://sodipodi.sourceforge.net/DTD/sodipodi-0.dtd"
   xmlns:inkscape="http://www.inkscape.org/namespaces/inkscape"
   id="svg2"
   version="1.1"
   inkscape:version="0.91 r13725"
   width="500"
   height="500"
   sodipodi:docname="redhat-programming.svg">
  <metadata
     id="metadata8">
    <rdf:RDF>
      <cc:Work
         rdf:about="">
        <dc:format>image/svg+xml</dc:format>
        <dc:type
           rdf:resource="http://purl.org/dc/dcmitype/StillImage" />
        <dc:title />
      </cc:Work>
    </rdf:RDF>
  </metadata>
  <defs
     id="defs6" />
  <sodipodi:namedview
     pagecolor="#ffffff"
     bordercolor="#666666"
     borderopacity="1"
     objecttolerance="10"
     gridtolerance="10"
     guidetolerance="10"
     inkscape:pageopacity="0"
     inkscape:pageshadow="2"
     inkscape:window-width="1366"
     inkscape:window-height="715"
     id="namedview4"
     showgrid="false"
     inkscape:zoom="0.105"
     inkscape:cx="1353.2646"
     inkscape:cy="1325.2736"
     inkscape:window-x="0"
     inkscape:window-y="24"
     inkscape:window-maximized="1"
     inkscape:current-layer="svg2" />
  <g
     id="g4461">
    <rect
       ry="50.927658"
       y="22.966106"
       x="22.033897"
       height="455"
       width="455"
       id="rect820"
       style="opacity:1;fill:#45d03f;fill-opacity:1;stroke:none;stroke-width:29.6767807;stroke-linecap:round;stroke-linejoin:round;stroke-miterlimit:4;stroke-dasharray:none;stroke-opacity:1;paint-order:fill markers stroke" />
    <g
       transform="translate(-7.2469212,-1.3771186)"
       id="flowRoot822"
       style="font-style:normal;font-weight:normal;font-size:40px;line-height:1.25;font-family:sans-serif;letter-spacing:0px;word-spacing:0px;fill:#000000;fill-opacity:1;stroke:none"
       aria-label="0">
      <path
         inkscape:connector-curvature="0"
         id="path854"
         style="fill:#ffffff"
         d="m 77.439453,54.378906 q -3.046875,0 -4.589844,3.007813 -1.523437,2.988281 -1.523437,9.003906 0,5.996094 1.523437,9.003906 1.542969,2.988281 4.589844,2.988281 3.066406,0 4.589844,-2.988281 1.542969,-3.007812 1.542969,-9.003906 0,-6.015625 -1.542969,-9.003906 -1.523438,-3.007813 -4.589844,-3.007813 z m 0,-3.125 q 4.902344,0 7.480469,3.886719 2.597656,3.867187 2.597656,11.25 0,7.363281 -2.597656,11.25 -2.578125,3.867187 -7.480469,3.867187 -4.902344,0 -7.5,-3.867187 -2.578125,-3.886719 -2.578125,-11.25 0,-7.382813 2.578125,-11.25 2.597656,-3.886719 7.5,-3.886719 z" />
    </g>
    <g
       id="flowRoot822-3"
       style="font-style:normal;font-weight:normal;font-size:40px;line-height:1.25;font-family:sans-serif;letter-spacing:0px;word-spacing:0px;fill:#000000;fill-opacity:1;stroke:none"
       transform="translate(-9.0047342,39.812741)"
       aria-label="1">
      <path
         inkscape:connector-curvature="0"
         id="path857"
         style="fill:#ffffff"
         d="m 69.685547,77.621094 6.445312,0 0,-22.246094 -7.011718,1.40625 0,-3.59375 6.972656,-1.40625 3.945312,0 0,25.839844 6.445313,0 0,3.320312 -16.796875,0 z" />
    </g>
    <g
       transform="translate(-7.2469212,82.658618)"
       id="flowRoot822-35"
       style="font-style:normal;font-weight:normal;font-size:40px;line-height:1.25;font-family:sans-serif;letter-spacing:0px;word-spacing:0px;fill:#000000;fill-opacity:1;stroke:none"
       aria-label="0">
      <path
         inkscape:connector-curvature="0"
         id="path854-6"
         style="fill:#ffffff"
         d="m 77.439453,54.378906 q -3.046875,0 -4.589844,3.007813 -1.523437,2.988281 -1.523437,9.003906 0,5.996094 1.523437,9.003906 1.542969,2.988281 4.589844,2.988281 3.066406,0 4.589844,-2.988281 1.542969,-3.007812 1.542969,-9.003906 0,-6.015625 -1.542969,-9.003906 -1.523438,-3.007813 -4.589844,-3.007813 z m 0,-3.125 q 4.902344,0 7.480469,3.886719 2.597656,3.867187 2.597656,11.25 0,7.363281 -2.597656,11.25 -2.578125,3.867187 -7.480469,3.867187 -4.902344,0 -7.5,-3.867187 -2.578125,-3.886719 -2.578125,-11.25 0,-7.382813 2.578125,-11.25 2.597656,-3.886719 7.5,-3.886719 z" />
    </g>
    <g
       transform="translate(-7.2469212,124.04384)"
       id="flowRoot822-2"
       style="font-style:normal;font-weight:normal;font-size:40px;line-height:1.25;font-family:sans-serif;letter-spacing:0px;word-spacing:0px;fill:#000000;fill-opacity:1;stroke:none"
       aria-label="0">
      <path
         inkscape:connector-curvature="0"
         id="path854-9"
         style="fill:#ffffff"
         d="m 77.439453,54.378906 q -3.046875,0 -4.589844,3.007813 -1.523437,2.988281 -1.523437,9.003906 0,5.996094 1.523437,9.003906 1.542969,2.988281 4.589844,2.988281 3.066406,0 4.589844,-2.988281 1.542969,-3.007812 1.542969,-9.003906 0,-6.015625 -1.542969,-9.003906 -1.523438,-3.007813 -4.589844,-3.007813 z m 0,-3.125 q 4.902344,0 7.480469,3.886719 2.597656,3.867187 2.597656,11.25 0,7.363281 -2.597656,11.25 -2.578125,3.867187 -7.480469,3.867187 -4.902344,0 -7.5,-3.867187 -2.578125,-3.886719 -2.578125,-11.25 0,-7.382813 2.578125,-11.25 2.597656,-3.886719 7.5,-3.886719 z" />
    </g>
    <g
       transform="translate(-7.2469212,165.42906)"
       id="flowRoot822-1"
       style="font-style:normal;font-weight:normal;font-size:40px;line-height:1.25;font-family:sans-serif;letter-spacing:0px;word-spacing:0px;fill:#000000;fill-opacity:1;stroke:none"
       aria-label="0">
      <path
         inkscape:connector-curvature="0"
         id="path854-2"
         style="fill:#ffffff"
         d="m 77.439453,54.378906 q -3.046875,0 -4.589844,3.007813 -1.523437,2.988281 -1.523437,9.003906 0,5.996094 1.523437,9.003906 1.542969,2.988281 4.589844,2.988281 3.066406,0 4.589844,-2.988281 1.542969,-3.007812 1.542969,-9.003906 0,-6.015625 -1.542969,-9.003906 -1.523438,-3.007813 -4.589844,-3.007813 z m 0,-3.125 q 4.902344,0 7.480469,3.886719 2.597656,3.867187 2.597656,11.25 0,7.363281 -2.597656,11.25 -2.578125,3.867187 -7.480469,3.867187 -4.902344,0 -7.5,-3.867187 -2.578125,-3.886719 -2.578125,-11.25 0,-7.382813 2.578125,-11.25 2.597656,-3.886719 7.5,-3.886719 z" />
    </g>
    <g
       transform="translate(-7.2469212,208.4445)"
       id="flowRoot822-7"
       style="font-style:normal;font-weight:normal;font-size:40px;line-height:1.25;font-family:sans-serif;letter-spacing:0px;word-spacing:0px;fill:#000000;fill-opacity:1;stroke:none"
       aria-label="0">
      <path
         inkscape:connector-curvature="0"
         id="path854-0"
         style="fill:#ffffff"
         d="m 77.439453,54.378906 q -3.046875,0 -4.589844,3.007813 -1.523437,2.988281 -1.523437,9.003906 0,5.996094 1.523437,9.003906 1.542969,2.988281 4.589844,2.988281 3.066406,0 4.589844,-2.988281 1.542969,-3.007812 1.542969,-9.003906 0,-6.015625 -1.542969,-9.003906 -1.523438,-3.007813 -4.589844,-3.007813 z m 0,-3.125 q 4.902344,0 7.480469,3.886719 2.597656,3.867187 2.597656,11.25 0,7.363281 -2.597656,11.25 -2.578125,3.867187 -7.480469,3.867187 -4.902344,0 -7.5,-3.867187 -2.578125,-3.886719 -2.578125,-11.25 0,-7.382813 2.578125,-11.25 2.597656,-3.886719 7.5,-3.886719 z" />
    </g>
    <g
       id="flowRoot822-3-9"
       style="font-style:normal;font-weight:normal;font-size:40px;line-height:1.25;font-family:sans-serif;letter-spacing:0px;word-spacing:0px;fill:#000000;fill-opacity:1;stroke:none"
       transform="translate(-9.0047341,249.63436)"
       aria-label="1">
      <path
         inkscape:connector-curvature="0"
         id="path857-3"
         style="fill:#ffffff"
         d="m 69.685547,77.621094 6.445312,0 0,-22.246094 -7.011718,1.40625 0,-3.59375 6.972656,-1.40625 3.945312,0 0,25.839844 6.445313,0 0,3.320312 -16.796875,0 z" />
    </g>
    <g
       transform="translate(-7.2469212,292.48023)"
       id="flowRoot822-35-6"
       style="font-style:normal;font-weight:normal;font-size:40px;line-height:1.25;font-family:sans-serif;letter-spacing:0px;word-spacing:0px;fill:#000000;fill-opacity:1;stroke:none"
       aria-label="0">
      <path
         inkscape:connector-curvature="0"
         id="path854-6-0"
         style="fill:#ffffff"
         d="m 77.439453,54.378906 q -3.046875,0 -4.589844,3.007813 -1.523437,2.988281 -1.523437,9.003906 0,5.996094 1.523437,9.003906 1.542969,2.988281 4.589844,2.988281 3.066406,0 4.589844,-2.988281 1.542969,-3.007812 1.542969,-9.003906 0,-6.015625 -1.542969,-9.003906 -1.523438,-3.007813 -4.589844,-3.007813 z m 0,-3.125 q 4.902344,0 7.480469,3.886719 2.597656,3.867187 2.597656,11.25 0,7.363281 -2.597656,11.25 -2.578125,3.867187 -7.480469,3.867187 -4.902344,0 -7.5,-3.867187 -2.578125,-3.886719 -2.578125,-11.25 0,-7.382813 2.578125,-11.25 2.597656,-3.886719 7.5,-3.886719 z" />
    </g>
    <g
       id="flowRoot822-3-9-6"
       style="font-style:normal;font-weight:normal;font-size:40px;line-height:1.25;font-family:sans-serif;letter-spacing:0px;word-spacing:0px;fill:#000000;fill-opacity:1;stroke:none"
       transform="translate(-9.0047342,332.16693)"
       aria-label="1">
      <path
         inkscape:connector-curvature="0"
         id="path857-3-2"
         style="fill:#ffffff"
         d="m 69.685547,77.621094 6.445312,0 0,-22.246094 -7.011718,1.40625 0,-3.59375 6.972656,-1.40625 3.945312,0 0,25.839844 6.445313,0 0,3.320312 -16.796875,0 z" />
    </g>
    <g
       transform="translate(-7.2469211,375.0128)"
       id="flowRoot822-35-6-6"
       style="font-style:normal;font-weight:normal;font-size:40px;line-height:1.25;font-family:sans-serif;letter-spacing:0px;word-spacing:0px;fill:#000000;fill-opacity:1;stroke:none"
       aria-label="0">
      <path
         inkscape:connector-curvature="0"
         id="path854-6-0-1"
         style="fill:#ffffff"
         d="m 77.439453,54.378906 q -3.046875,0 -4.589844,3.007813 -1.523437,2.988281 -1.523437,9.003906 0,5.996094 1.523437,9.003906 1.542969,2.988281 4.589844,2.988281 3.066406,0 4.589844,-2.988281 1.542969,-3.007812 1.542969,-9.003906 0,-6.015625 -1.542969,-9.003906 -1.523438,-3.007813 -4.589844,-3.007813 z m 0,-3.125 q 4.902344,0 7.480469,3.886719 2.597656,3.867187 2.597656,11.25 0,7.363281 -2.597656,11.25 -2.578125,3.867187 -7.480469,3.867187 -4.902344,0 -7.5,-3.867187 -2.578125,-3.886719 -2.578125,-11.25 0,-7.382813 2.578125,-11.25 2.597656,-3.886719 7.5,-3.886719 z" />
    </g>
    <g
       id="flowRoot822-3-9-8"
       style="font-style:normal;font-weight:normal;font-size:40px;line-height:1.25;font-family:sans-serif;letter-spacing:0px;word-spacing:0px;fill:#000000;fill-opacity:1;stroke:none"
       transform="translate(43.995266,-0.89864088)"
       aria-label="1">
      <path
         inkscape:connector-curvature="0"
         id="path857-3-7"
         style="fill:#ffffff"
         d="m 69.685547,77.621094 6.445312,0 0,-22.246094 -7.011718,1.40625 0,-3.59375 6.972656,-1.40625 3.945312,0 0,25.839844 6.445313,0 0,3.320312 -16.796875,0 z" />
    </g>
    <g
       transform="translate(45.753079,41.947229)"
       id="flowRoot822-35-6-9"
       style="font-style:normal;font-weight:normal;font-size:40px;line-height:1.25;font-family:sans-serif;letter-spacing:0px;word-spacing:0px;fill:#000000;fill-opacity:1;stroke:none"
       aria-label="0">
      <path
         inkscape:connector-curvature="0"
         id="path854-6-0-2"
         style="fill:#ffffff"
         d="m 77.439453,54.378906 q -3.046875,0 -4.589844,3.007813 -1.523437,2.988281 -1.523437,9.003906 0,5.996094 1.523437,9.003906 1.542969,2.988281 4.589844,2.988281 3.066406,0 4.589844,-2.988281 1.542969,-3.007812 1.542969,-9.003906 0,-6.015625 -1.542969,-9.003906 -1.523438,-3.007813 -4.589844,-3.007813 z m 0,-3.125 q 4.902344,0 7.480469,3.886719 2.597656,3.867187 2.597656,11.25 0,7.363281 -2.597656,11.25 -2.578125,3.867187 -7.480469,3.867187 -4.902344,0 -7.5,-3.867187 -2.578125,-3.886719 -2.578125,-11.25 0,-7.382813 2.578125,-11.25 2.597656,-3.886719 7.5,-3.886719 z" />
    </g>
    <g
       id="flowRoot822-3-9-6-0"
       style="font-style:normal;font-weight:normal;font-size:40px;line-height:1.25;font-family:sans-serif;letter-spacing:0px;word-spacing:0px;fill:#000000;fill-opacity:1;stroke:none"
       transform="translate(43.995266,81.633929)"
       aria-label="1">
      <path
         inkscape:connector-curvature="0"
         id="path857-3-2-2"
         style="fill:#ffffff"
         d="m 69.685547,77.621094 6.445312,0 0,-22.246094 -7.011718,1.40625 0,-3.59375 6.972656,-1.40625 3.945312,0 0,25.839844 6.445313,0 0,3.320312 -16.796875,0 z" />
    </g>
    <g
       transform="translate(45.753079,124.4798)"
       id="flowRoot822-35-6-6-3"
       style="font-style:normal;font-weight:normal;font-size:40px;line-height:1.25;font-family:sans-serif;letter-spacing:0px;word-spacing:0px;fill:#000000;fill-opacity:1;stroke:none"
       aria-label="0">
      <path
         inkscape:connector-curvature="0"
         id="path854-6-0-1-7"
         style="fill:#ffffff"
         d="m 77.439453,54.378906 q -3.046875,0 -4.589844,3.007813 -1.523437,2.988281 -1.523437,9.003906 0,5.996094 1.523437,9.003906 1.542969,2.988281 4.589844,2.988281 3.066406,0 4.589844,-2.988281 1.542969,-3.007812 1.542969,-9.003906 0,-6.015625 -1.542969,-9.003906 -1.523438,-3.007813 -4.589844,-3.007813 z m 0,-3.125 q 4.902344,0 7.480469,3.886719 2.597656,3.867187 2.597656,11.25 0,7.363281 -2.597656,11.25 -2.578125,3.867187 -7.480469,3.867187 -4.902344,0 -7.5,-3.867187 -2.578125,-3.886719 -2.578125,-11.25 0,-7.382813 2.578125,-11.25 2.597656,-3.886719 7.5,-3.886719 z" />
    </g>
    <g
       id="flowRoot822-3-9-6-0-5"
       style="font-style:normal;font-weight:normal;font-size:40px;line-height:1.25;font-family:sans-serif;letter-spacing:0px;word-spacing:0px;fill:#000000;fill-opacity:1;stroke:none"
       transform="translate(43.995266,164.41198)"
       aria-label="1">
      <path
         inkscape:connector-curvature="0"
         id="path857-3-2-2-9"
         style="fill:#ffffff"
         d="m 69.685547,77.621094 6.445312,0 0,-22.246094 -7.011718,1.40625 0,-3.59375 6.972656,-1.40625 3.945312,0 0,25.839844 6.445313,0 0,3.320312 -16.796875,0 z" />
    </g>
    <g
       id="flowRoot822-3-9-6-0-5-2"
       style="font-style:normal;font-weight:normal;font-size:40px;line-height:1.25;font-family:sans-serif;letter-spacing:0px;word-spacing:0px;fill:#000000;fill-opacity:1;stroke:none"
       transform="translate(43.995266,207.46424)"
       aria-label="1">
      <path
         inkscape:connector-curvature="0"
         id="path857-3-2-2-9-2"
         style="fill:#ffffff"
         d="m 69.685547,77.621094 6.445312,0 0,-22.246094 -7.011718,1.40625 0,-3.59375 6.972656,-1.40625 3.945312,0 0,25.839844 6.445313,0 0,3.320312 -16.796875,0 z" />
    </g>
    <g
       id="flowRoot822-3-9-6-0-5-8"
       style="font-style:normal;font-weight:normal;font-size:40px;line-height:1.25;font-family:sans-serif;letter-spacing:0px;word-spacing:0px;fill:#000000;fill-opacity:1;stroke:none"
       transform="translate(43.995266,249.81994)"
       aria-label="1">
      <path
         inkscape:connector-curvature="0"
         id="path857-3-2-2-9-9"
         style="fill:#ffffff"
         d="m 69.685547,77.621094 6.445312,0 0,-22.246094 -7.011718,1.40625 0,-3.59375 6.972656,-1.40625 3.945312,0 0,25.839844 6.445313,0 0,3.320312 -16.796875,0 z" />
    </g>
    <g
       id="flowRoot822-3-9-6-0-5-2-7"
       style="font-style:normal;font-weight:normal;font-size:40px;line-height:1.25;font-family:sans-serif;letter-spacing:0px;word-spacing:0px;fill:#000000;fill-opacity:1;stroke:none"
       transform="translate(43.995266,292.8722)"
       aria-label="1">
      <path
         inkscape:connector-curvature="0"
         id="path857-3-2-2-9-2-3"
         style="fill:#ffffff"
         d="m 69.685547,77.621094 6.445312,0 0,-22.246094 -7.011718,1.40625 0,-3.59375 6.972656,-1.40625 3.945312,0 0,25.839844 6.445313,0 0,3.320312 -16.796875,0 z" />
    </g>
    <g
       transform="translate(45.753079,330.67953)"
       id="flowRoot822-1-6"
       style="font-style:normal;font-weight:normal;font-size:40px;line-height:1.25;font-family:sans-serif;letter-spacing:0px;word-spacing:0px;fill:#000000;fill-opacity:1;stroke:none"
       aria-label="0">
      <path
         inkscape:connector-curvature="0"
         id="path854-2-1"
         style="fill:#ffffff"
         d="m 77.439453,54.378906 q -3.046875,0 -4.589844,3.007813 -1.523437,2.988281 -1.523437,9.003906 0,5.996094 1.523437,9.003906 1.542969,2.988281 4.589844,2.988281 3.066406,0 4.589844,-2.988281 1.542969,-3.007812 1.542969,-9.003906 0,-6.015625 -1.542969,-9.003906 -1.523438,-3.007813 -4.589844,-3.007813 z m 0,-3.125 q 4.902344,0 7.480469,3.886719 2.597656,3.867187 2.597656,11.25 0,7.363281 -2.597656,11.25 -2.578125,3.867187 -7.480469,3.867187 -4.902344,0 -7.5,-3.867187 -2.578125,-3.886719 -2.578125,-11.25 0,-7.382813 2.578125,-11.25 2.597656,-3.886719 7.5,-3.886719 z" />
    </g>
    <g
       transform="translate(45.753079,375.43587)"
       id="flowRoot822-1-2"
       style="font-style:normal;font-weight:normal;font-size:40px;line-height:1.25;font-family:sans-serif;letter-spacing:0px;word-spacing:0px;fill:#000000;fill-opacity:1;stroke:none"
       aria-label="0">
      <path
         inkscape:connector-curvature="0"
         id="path854-2-9"
         style="fill:#ffffff"
         d="m 77.439453,54.378906 q -3.046875,0 -4.589844,3.007813 -1.523437,2.988281 -1.523437,9.003906 0,5.996094 1.523437,9.003906 1.542969,2.988281 4.589844,2.988281 3.066406,0 4.589844,-2.988281 1.542969,-3.007812 1.542969,-9.003906 0,-6.015625 -1.542969,-9.003906 -1.523438,-3.007813 -4.589844,-3.007813 z m 0,-3.125 q 4.902344,0 7.480469,3.886719 2.597656,3.867187 2.597656,11.25 0,7.363281 -2.597656,11.25 -2.578125,3.867187 -7.480469,3.867187 -4.902344,0 -7.5,-3.867187 -2.578125,-3.886719 -2.578125,-11.25 0,-7.382813 2.578125,-11.25 2.597656,-3.886719 7.5,-3.886719 z" />
    </g>
    <g
       transform="translate(95.753077,-0.85607585)"
       id="flowRoot822-31"
       style="font-style:normal;font-weight:normal;font-size:40px;line-height:1.25;font-family:sans-serif;letter-spacing:0px;word-spacing:0px;fill:#000000;fill-opacity:1;stroke:none"
       aria-label="0">
      <path
         inkscape:connector-curvature="0"
         id="path854-94"
         style="fill:#ffffff"
         d="m 77.439453,54.378906 q -3.046875,0 -4.589844,3.007813 -1.523437,2.988281 -1.523437,9.003906 0,5.996094 1.523437,9.003906 1.542969,2.988281 4.589844,2.988281 3.066406,0 4.589844,-2.988281 1.542969,-3.007812 1.542969,-9.003906 0,-6.015625 -1.542969,-9.003906 -1.523438,-3.007813 -4.589844,-3.007813 z m 0,-3.125 q 4.902344,0 7.480469,3.886719 2.597656,3.867187 2.597656,11.25 0,7.363281 -2.597656,11.25 -2.578125,3.867187 -7.480469,3.867187 -4.902344,0 -7.5,-3.867187 -2.578125,-3.886719 -2.578125,-11.25 0,-7.382813 2.578125,-11.25 2.597656,-3.886719 7.5,-3.886719 z" />
    </g>
    <g
       id="flowRoot822-3-7"
       style="font-style:normal;font-weight:normal;font-size:40px;line-height:1.25;font-family:sans-serif;letter-spacing:0px;word-spacing:0px;fill:#000000;fill-opacity:1;stroke:none"
       transform="translate(93.995267,40.333784)"
       aria-label="1">
      <path
         inkscape:connector-curvature="0"
         id="path857-8"
         style="fill:#ffffff"
         d="m 69.685547,77.621094 6.445312,0 0,-22.246094 -7.011718,1.40625 0,-3.59375 6.972656,-1.40625 3.945312,0 0,25.839844 6.445313,0 0,3.320312 -16.796875,0 z" />
    </g>
    <g
       transform="translate(95.753077,83.179665)"
       id="flowRoot822-35-4"
       style="font-style:normal;font-weight:normal;font-size:40px;line-height:1.25;font-family:sans-serif;letter-spacing:0px;word-spacing:0px;fill:#000000;fill-opacity:1;stroke:none"
       aria-label="0">
      <path
         inkscape:connector-curvature="0"
         id="path854-6-5"
         style="fill:#ffffff"
         d="m 77.439453,54.378906 q -3.046875,0 -4.589844,3.007813 -1.523437,2.988281 -1.523437,9.003906 0,5.996094 1.523437,9.003906 1.542969,2.988281 4.589844,2.988281 3.066406,0 4.589844,-2.988281 1.542969,-3.007812 1.542969,-9.003906 0,-6.015625 -1.542969,-9.003906 -1.523438,-3.007813 -4.589844,-3.007813 z m 0,-3.125 q 4.902344,0 7.480469,3.886719 2.597656,3.867187 2.597656,11.25 0,7.363281 -2.597656,11.25 -2.578125,3.867187 -7.480469,3.867187 -4.902344,0 -7.5,-3.867187 -2.578125,-3.886719 -2.578125,-11.25 0,-7.382813 2.578125,-11.25 2.597656,-3.886719 7.5,-3.886719 z" />
    </g>
    <g
       transform="translate(95.753077,124.56489)"
       id="flowRoot822-2-0"
       style="font-style:normal;font-weight:normal;font-size:40px;line-height:1.25;font-family:sans-serif;letter-spacing:0px;word-spacing:0px;fill:#000000;fill-opacity:1;stroke:none"
       aria-label="0">
      <path
         inkscape:connector-curvature="0"
         id="path854-9-3"
         style="fill:#ffffff"
         d="m 77.439453,54.378906 q -3.046875,0 -4.589844,3.007813 -1.523437,2.988281 -1.523437,9.003906 0,5.996094 1.523437,9.003906 1.542969,2.988281 4.589844,2.988281 3.066406,0 4.589844,-2.988281 1.542969,-3.007812 1.542969,-9.003906 0,-6.015625 -1.542969,-9.003906 -1.523438,-3.007813 -4.589844,-3.007813 z m 0,-3.125 q 4.902344,0 7.480469,3.886719 2.597656,3.867187 2.597656,11.25 0,7.363281 -2.597656,11.25 -2.578125,3.867187 -7.480469,3.867187 -4.902344,0 -7.5,-3.867187 -2.578125,-3.886719 -2.578125,-11.25 0,-7.382813 2.578125,-11.25 2.597656,-3.886719 7.5,-3.886719 z" />
    </g>
    <g
       transform="translate(95.753077,165.95011)"
       id="flowRoot822-1-61"
       style="font-style:normal;font-weight:normal;font-size:40px;line-height:1.25;font-family:sans-serif;letter-spacing:0px;word-spacing:0px;fill:#000000;fill-opacity:1;stroke:none"
       aria-label="0">
      <path
         inkscape:connector-curvature="0"
         id="path854-2-0"
         style="fill:#ffffff"
         d="m 77.439453,54.378906 q -3.046875,0 -4.589844,3.007813 -1.523437,2.988281 -1.523437,9.003906 0,5.996094 1.523437,9.003906 1.542969,2.988281 4.589844,2.988281 3.066406,0 4.589844,-2.988281 1.542969,-3.007812 1.542969,-9.003906 0,-6.015625 -1.542969,-9.003906 -1.523438,-3.007813 -4.589844,-3.007813 z m 0,-3.125 q 4.902344,0 7.480469,3.886719 2.597656,3.867187 2.597656,11.25 0,7.363281 -2.597656,11.25 -2.578125,3.867187 -7.480469,3.867187 -4.902344,0 -7.5,-3.867187 -2.578125,-3.886719 -2.578125,-11.25 0,-7.382813 2.578125,-11.25 2.597656,-3.886719 7.5,-3.886719 z" />
    </g>
    <g
       transform="translate(95.753077,208.96555)"
       id="flowRoot822-7-6"
       style="font-style:normal;font-weight:normal;font-size:40px;line-height:1.25;font-family:sans-serif;letter-spacing:0px;word-spacing:0px;fill:#000000;fill-opacity:1;stroke:none"
       aria-label="0">
      <path
         inkscape:connector-curvature="0"
         id="path854-0-3"
         style="fill:#ffffff"
         d="m 77.439453,54.378906 q -3.046875,0 -4.589844,3.007813 -1.523437,2.988281 -1.523437,9.003906 0,5.996094 1.523437,9.003906 1.542969,2.988281 4.589844,2.988281 3.066406,0 4.589844,-2.988281 1.542969,-3.007812 1.542969,-9.003906 0,-6.015625 -1.542969,-9.003906 -1.523438,-3.007813 -4.589844,-3.007813 z m 0,-3.125 q 4.902344,0 7.480469,3.886719 2.597656,3.867187 2.597656,11.25 0,7.363281 -2.597656,11.25 -2.578125,3.867187 -7.480469,3.867187 -4.902344,0 -7.5,-3.867187 -2.578125,-3.886719 -2.578125,-11.25 0,-7.382813 2.578125,-11.25 2.597656,-3.886719 7.5,-3.886719 z" />
    </g>
    <g
       id="flowRoot822-3-9-2"
       style="font-style:normal;font-weight:normal;font-size:40px;line-height:1.25;font-family:sans-serif;letter-spacing:0px;word-spacing:0px;fill:#000000;fill-opacity:1;stroke:none"
       transform="translate(93.995267,250.15541)"
       aria-label="1">
      <path
         inkscape:connector-curvature="0"
         id="path857-3-0"
         style="fill:#ffffff"
         d="m 69.685547,77.621094 6.445312,0 0,-22.246094 -7.011718,1.40625 0,-3.59375 6.972656,-1.40625 3.945312,0 0,25.839844 6.445313,0 0,3.320312 -16.796875,0 z" />
    </g>
    <g
       transform="translate(95.753077,293.00128)"
       id="flowRoot822-35-6-61"
       style="font-style:normal;font-weight:normal;font-size:40px;line-height:1.25;font-family:sans-serif;letter-spacing:0px;word-spacing:0px;fill:#000000;fill-opacity:1;stroke:none"
       aria-label="0">
      <path
         inkscape:connector-curvature="0"
         id="path854-6-0-5"
         style="fill:#ffffff"
         d="m 77.439453,54.378906 q -3.046875,0 -4.589844,3.007813 -1.523437,2.988281 -1.523437,9.003906 0,5.996094 1.523437,9.003906 1.542969,2.988281 4.589844,2.988281 3.066406,0 4.589844,-2.988281 1.542969,-3.007812 1.542969,-9.003906 0,-6.015625 -1.542969,-9.003906 -1.523438,-3.007813 -4.589844,-3.007813 z m 0,-3.125 q 4.902344,0 7.480469,3.886719 2.597656,3.867187 2.597656,11.25 0,7.363281 -2.597656,11.25 -2.578125,3.867187 -7.480469,3.867187 -4.902344,0 -7.5,-3.867187 -2.578125,-3.886719 -2.578125,-11.25 0,-7.382813 2.578125,-11.25 2.597656,-3.886719 7.5,-3.886719 z" />
    </g>
    <g
       id="flowRoot822-3-9-6-5"
       style="font-style:normal;font-weight:normal;font-size:40px;line-height:1.25;font-family:sans-serif;letter-spacing:0px;word-spacing:0px;fill:#000000;fill-opacity:1;stroke:none"
       transform="translate(93.995267,332.68798)"
       aria-label="1">
      <path
         inkscape:connector-curvature="0"
         id="path857-3-2-4"
         style="fill:#ffffff"
         d="m 69.685547,77.621094 6.445312,0 0,-22.246094 -7.011718,1.40625 0,-3.59375 6.972656,-1.40625 3.945312,0 0,25.839844 6.445313,0 0,3.320312 -16.796875,0 z" />
    </g>
    <g
       transform="translate(95.753077,375.53385)"
       id="flowRoot822-35-6-6-7"
       style="font-style:normal;font-weight:normal;font-size:40px;line-height:1.25;font-family:sans-serif;letter-spacing:0px;word-spacing:0px;fill:#000000;fill-opacity:1;stroke:none"
       aria-label="0">
      <path
         inkscape:connector-curvature="0"
         id="path854-6-0-1-6"
         style="fill:#ffffff"
         d="m 77.439453,54.378906 q -3.046875,0 -4.589844,3.007813 -1.523437,2.988281 -1.523437,9.003906 0,5.996094 1.523437,9.003906 1.542969,2.988281 4.589844,2.988281 3.066406,0 4.589844,-2.988281 1.542969,-3.007812 1.542969,-9.003906 0,-6.015625 -1.542969,-9.003906 -1.523438,-3.007813 -4.589844,-3.007813 z m 0,-3.125 q 4.902344,0 7.480469,3.886719 2.597656,3.867187 2.597656,11.25 0,7.363281 -2.597656,11.25 -2.578125,3.867187 -7.480469,3.867187 -4.902344,0 -7.5,-3.867187 -2.578125,-3.886719 -2.578125,-11.25 0,-7.382813 2.578125,-11.25 2.597656,-3.886719 7.5,-3.886719 z" />
    </g>
    <g
       id="flowRoot822-3-9-8-5"
       style="font-style:normal;font-weight:normal;font-size:40px;line-height:1.25;font-family:sans-serif;letter-spacing:0px;word-spacing:0px;fill:#000000;fill-opacity:1;stroke:none"
       transform="translate(143.99527,-1.1226209)"
       aria-label="1">
      <path
         inkscape:connector-curvature="0"
         id="path857-3-7-6"
         style="fill:#ffffff"
         d="m 69.685547,77.621094 6.445312,0 0,-22.246094 -7.011718,1.40625 0,-3.59375 6.972656,-1.40625 3.945312,0 0,25.839844 6.445313,0 0,3.320312 -16.796875,0 z" />
    </g>
    <g
       transform="translate(145.75308,41.723249)"
       id="flowRoot822-35-6-9-9"
       style="font-style:normal;font-weight:normal;font-size:40px;line-height:1.25;font-family:sans-serif;letter-spacing:0px;word-spacing:0px;fill:#000000;fill-opacity:1;stroke:none"
       aria-label="0">
      <path
         inkscape:connector-curvature="0"
         id="path854-6-0-2-3"
         style="fill:#ffffff"
         d="m 77.439453,54.378906 q -3.046875,0 -4.589844,3.007813 -1.523437,2.988281 -1.523437,9.003906 0,5.996094 1.523437,9.003906 1.542969,2.988281 4.589844,2.988281 3.066406,0 4.589844,-2.988281 1.542969,-3.007812 1.542969,-9.003906 0,-6.015625 -1.542969,-9.003906 -1.523438,-3.007813 -4.589844,-3.007813 z m 0,-3.125 q 4.902344,0 7.480469,3.886719 2.597656,3.867187 2.597656,11.25 0,7.363281 -2.597656,11.25 -2.578125,3.867187 -7.480469,3.867187 -4.902344,0 -7.5,-3.867187 -2.578125,-3.886719 -2.578125,-11.25 0,-7.382813 2.578125,-11.25 2.597656,-3.886719 7.5,-3.886719 z" />
    </g>
    <g
       id="flowRoot822-3-9-6-0-7"
       style="font-style:normal;font-weight:normal;font-size:40px;line-height:1.25;font-family:sans-serif;letter-spacing:0px;word-spacing:0px;fill:#000000;fill-opacity:1;stroke:none"
       transform="translate(143.99527,81.409947)"
       aria-label="1">
      <path
         inkscape:connector-curvature="0"
         id="path857-3-2-2-4"
         style="fill:#ffffff"
         d="m 69.685547,77.621094 6.445312,0 0,-22.246094 -7.011718,1.40625 0,-3.59375 6.972656,-1.40625 3.945312,0 0,25.839844 6.445313,0 0,3.320312 -16.796875,0 z" />
    </g>
    <g
       transform="translate(145.75308,124.25582)"
       id="flowRoot822-35-6-6-3-5"
       style="font-style:normal;font-weight:normal;font-size:40px;line-height:1.25;font-family:sans-serif;letter-spacing:0px;word-spacing:0px;fill:#000000;fill-opacity:1;stroke:none"
       aria-label="0">
      <path
         inkscape:connector-curvature="0"
         id="path854-6-0-1-7-2"
         style="fill:#ffffff"
         d="m 77.439453,54.378906 q -3.046875,0 -4.589844,3.007813 -1.523437,2.988281 -1.523437,9.003906 0,5.996094 1.523437,9.003906 1.542969,2.988281 4.589844,2.988281 3.066406,0 4.589844,-2.988281 1.542969,-3.007812 1.542969,-9.003906 0,-6.015625 -1.542969,-9.003906 -1.523438,-3.007813 -4.589844,-3.007813 z m 0,-3.125 q 4.902344,0 7.480469,3.886719 2.597656,3.867187 2.597656,11.25 0,7.363281 -2.597656,11.25 -2.578125,3.867187 -7.480469,3.867187 -4.902344,0 -7.5,-3.867187 -2.578125,-3.886719 -2.578125,-11.25 0,-7.382813 2.578125,-11.25 2.597656,-3.886719 7.5,-3.886719 z" />
    </g>
    <g
       id="flowRoot822-3-9-6-0-5-5"
       style="font-style:normal;font-weight:normal;font-size:40px;line-height:1.25;font-family:sans-serif;letter-spacing:0px;word-spacing:0px;fill:#000000;fill-opacity:1;stroke:none"
       transform="translate(143.99527,164.188)"
       aria-label="1">
      <path
         inkscape:connector-curvature="0"
         id="path857-3-2-2-9-4"
         style="fill:#ffffff"
         d="m 69.685547,77.621094 6.445312,0 0,-22.246094 -7.011718,1.40625 0,-3.59375 6.972656,-1.40625 3.945312,0 0,25.839844 6.445313,0 0,3.320312 -16.796875,0 z" />
    </g>
    <g
       id="flowRoot822-3-9-6-0-5-2-74"
       style="font-style:normal;font-weight:normal;font-size:40px;line-height:1.25;font-family:sans-serif;letter-spacing:0px;word-spacing:0px;fill:#000000;fill-opacity:1;stroke:none"
       transform="translate(143.99527,207.24026)"
       aria-label="1">
      <path
         inkscape:connector-curvature="0"
         id="path857-3-2-2-9-2-4"
         style="fill:#ffffff"
         d="m 69.685547,77.621094 6.445312,0 0,-22.246094 -7.011718,1.40625 0,-3.59375 6.972656,-1.40625 3.945312,0 0,25.839844 6.445313,0 0,3.320312 -16.796875,0 z" />
    </g>
    <g
       id="flowRoot822-3-9-6-0-5-8-3"
       style="font-style:normal;font-weight:normal;font-size:40px;line-height:1.25;font-family:sans-serif;letter-spacing:0px;word-spacing:0px;fill:#000000;fill-opacity:1;stroke:none"
       transform="translate(143.99527,249.59596)"
       aria-label="1">
      <path
         inkscape:connector-curvature="0"
         id="path857-3-2-2-9-9-0"
         style="fill:#ffffff"
         d="m 69.685547,77.621094 6.445312,0 0,-22.246094 -7.011718,1.40625 0,-3.59375 6.972656,-1.40625 3.945312,0 0,25.839844 6.445313,0 0,3.320312 -16.796875,0 z" />
    </g>
    <g
       id="flowRoot822-3-9-6-0-5-2-7-7"
       style="font-style:normal;font-weight:normal;font-size:40px;line-height:1.25;font-family:sans-serif;letter-spacing:0px;word-spacing:0px;fill:#000000;fill-opacity:1;stroke:none"
       transform="translate(143.99527,292.64822)"
       aria-label="1">
      <path
         inkscape:connector-curvature="0"
         id="path857-3-2-2-9-2-3-8"
         style="fill:#ffffff"
         d="m 69.685547,77.621094 6.445312,0 0,-22.246094 -7.011718,1.40625 0,-3.59375 6.972656,-1.40625 3.945312,0 0,25.839844 6.445313,0 0,3.320312 -16.796875,0 z" />
    </g>
    <g
       transform="translate(145.75308,330.45555)"
       id="flowRoot822-1-6-6"
       style="font-style:normal;font-weight:normal;font-size:40px;line-height:1.25;font-family:sans-serif;letter-spacing:0px;word-spacing:0px;fill:#000000;fill-opacity:1;stroke:none"
       aria-label="0">
      <path
         inkscape:connector-curvature="0"
         id="path854-2-1-8"
         style="fill:#ffffff"
         d="m 77.439453,54.378906 q -3.046875,0 -4.589844,3.007813 -1.523437,2.988281 -1.523437,9.003906 0,5.996094 1.523437,9.003906 1.542969,2.988281 4.589844,2.988281 3.066406,0 4.589844,-2.988281 1.542969,-3.007812 1.542969,-9.003906 0,-6.015625 -1.542969,-9.003906 -1.523438,-3.007813 -4.589844,-3.007813 z m 0,-3.125 q 4.902344,0 7.480469,3.886719 2.597656,3.867187 2.597656,11.25 0,7.363281 -2.597656,11.25 -2.578125,3.867187 -7.480469,3.867187 -4.902344,0 -7.5,-3.867187 -2.578125,-3.886719 -2.578125,-11.25 0,-7.382813 2.578125,-11.25 2.597656,-3.886719 7.5,-3.886719 z" />
    </g>
    <g
       transform="translate(145.75308,375.21189)"
       id="flowRoot822-1-2-8"
       style="font-style:normal;font-weight:normal;font-size:40px;line-height:1.25;font-family:sans-serif;letter-spacing:0px;word-spacing:0px;fill:#000000;fill-opacity:1;stroke:none"
       aria-label="0">
      <path
         inkscape:connector-curvature="0"
         id="path854-2-9-4"
         style="fill:#ffffff"
         d="m 77.439453,54.378906 q -3.046875,0 -4.589844,3.007813 -1.523437,2.988281 -1.523437,9.003906 0,5.996094 1.523437,9.003906 1.542969,2.988281 4.589844,2.988281 3.066406,0 4.589844,-2.988281 1.542969,-3.007812 1.542969,-9.003906 0,-6.015625 -1.542969,-9.003906 -1.523438,-3.007813 -4.589844,-3.007813 z m 0,-3.125 q 4.902344,0 7.480469,3.886719 2.597656,3.867187 2.597656,11.25 0,7.363281 -2.597656,11.25 -2.578125,3.867187 -7.480469,3.867187 -4.902344,0 -7.5,-3.867187 -2.578125,-3.886719 -2.578125,-11.25 0,-7.382813 2.578125,-11.25 2.597656,-3.886719 7.5,-3.886719 z" />
    </g>
    <g
       transform="translate(195.75308,-1.0800609)"
       id="flowRoot822-31-3"
       style="font-style:normal;font-weight:normal;font-size:40px;line-height:1.25;font-family:sans-serif;letter-spacing:0px;word-spacing:0px;fill:#000000;fill-opacity:1;stroke:none"
       aria-label="0">
      <path
         inkscape:connector-curvature="0"
         id="path854-94-1"
         style="fill:#ffffff"
         d="m 77.439453,54.378906 q -3.046875,0 -4.589844,3.007813 -1.523437,2.988281 -1.523437,9.003906 0,5.996094 1.523437,9.003906 1.542969,2.988281 4.589844,2.988281 3.066406,0 4.589844,-2.988281 1.542969,-3.007812 1.542969,-9.003906 0,-6.015625 -1.542969,-9.003906 -1.523438,-3.007813 -4.589844,-3.007813 z m 0,-3.125 q 4.902344,0 7.480469,3.886719 2.597656,3.867187 2.597656,11.25 0,7.363281 -2.597656,11.25 -2.578125,3.867187 -7.480469,3.867187 -4.902344,0 -7.5,-3.867187 -2.578125,-3.886719 -2.578125,-11.25 0,-7.382813 2.578125,-11.25 2.597656,-3.886719 7.5,-3.886719 z" />
    </g>
    <g
       id="flowRoot822-3-7-4"
       style="font-style:normal;font-weight:normal;font-size:40px;line-height:1.25;font-family:sans-serif;letter-spacing:0px;word-spacing:0px;fill:#000000;fill-opacity:1;stroke:none"
       transform="translate(193.99527,40.109799)"
       aria-label="1">
      <path
         inkscape:connector-curvature="0"
         id="path857-8-9"
         style="fill:#ffffff"
         d="m 69.685547,77.621094 6.445312,0 0,-22.246094 -7.011718,1.40625 0,-3.59375 6.972656,-1.40625 3.945312,0 0,25.839844 6.445313,0 0,3.320312 -16.796875,0 z" />
    </g>
    <g
       transform="translate(195.75308,82.955683)"
       id="flowRoot822-35-4-2"
       style="font-style:normal;font-weight:normal;font-size:40px;line-height:1.25;font-family:sans-serif;letter-spacing:0px;word-spacing:0px;fill:#000000;fill-opacity:1;stroke:none"
       aria-label="0">
      <path
         inkscape:connector-curvature="0"
         id="path854-6-5-0"
         style="fill:#ffffff"
         d="m 77.439453,54.378906 q -3.046875,0 -4.589844,3.007813 -1.523437,2.988281 -1.523437,9.003906 0,5.996094 1.523437,9.003906 1.542969,2.988281 4.589844,2.988281 3.066406,0 4.589844,-2.988281 1.542969,-3.007812 1.542969,-9.003906 0,-6.015625 -1.542969,-9.003906 -1.523438,-3.007813 -4.589844,-3.007813 z m 0,-3.125 q 4.902344,0 7.480469,3.886719 2.597656,3.867187 2.597656,11.25 0,7.363281 -2.597656,11.25 -2.578125,3.867187 -7.480469,3.867187 -4.902344,0 -7.5,-3.867187 -2.578125,-3.886719 -2.578125,-11.25 0,-7.382813 2.578125,-11.25 2.597656,-3.886719 7.5,-3.886719 z" />
    </g>
    <g
       transform="translate(195.75308,124.34091)"
       id="flowRoot822-2-0-6"
       style="font-style:normal;font-weight:normal;font-size:40px;line-height:1.25;font-family:sans-serif;letter-spacing:0px;word-spacing:0px;fill:#000000;fill-opacity:1;stroke:none"
       aria-label="0">
      <path
         inkscape:connector-curvature="0"
         id="path854-9-3-8"
         style="fill:#ffffff"
         d="m 77.439453,54.378906 q -3.046875,0 -4.589844,3.007813 -1.523437,2.988281 -1.523437,9.003906 0,5.996094 1.523437,9.003906 1.542969,2.988281 4.589844,2.988281 3.066406,0 4.589844,-2.988281 1.542969,-3.007812 1.542969,-9.003906 0,-6.015625 -1.542969,-9.003906 -1.523438,-3.007813 -4.589844,-3.007813 z m 0,-3.125 q 4.902344,0 7.480469,3.886719 2.597656,3.867187 2.597656,11.25 0,7.363281 -2.597656,11.25 -2.578125,3.867187 -7.480469,3.867187 -4.902344,0 -7.5,-3.867187 -2.578125,-3.886719 -2.578125,-11.25 0,-7.382813 2.578125,-11.25 2.597656,-3.886719 7.5,-3.886719 z" />
    </g>
    <g
       transform="translate(195.75308,165.72613)"
       id="flowRoot822-1-61-9"
       style="font-style:normal;font-weight:normal;font-size:40px;line-height:1.25;font-family:sans-serif;letter-spacing:0px;word-spacing:0px;fill:#000000;fill-opacity:1;stroke:none"
       aria-label="0">
      <path
         inkscape:connector-curvature="0"
         id="path854-2-0-2"
         style="fill:#ffffff"
         d="m 77.439453,54.378906 q -3.046875,0 -4.589844,3.007813 -1.523437,2.988281 -1.523437,9.003906 0,5.996094 1.523437,9.003906 1.542969,2.988281 4.589844,2.988281 3.066406,0 4.589844,-2.988281 1.542969,-3.007812 1.542969,-9.003906 0,-6.015625 -1.542969,-9.003906 -1.523438,-3.007813 -4.589844,-3.007813 z m 0,-3.125 q 4.902344,0 7.480469,3.886719 2.597656,3.867187 2.597656,11.25 0,7.363281 -2.597656,11.25 -2.578125,3.867187 -7.480469,3.867187 -4.902344,0 -7.5,-3.867187 -2.578125,-3.886719 -2.578125,-11.25 0,-7.382813 2.578125,-11.25 2.597656,-3.886719 7.5,-3.886719 z" />
    </g>
    <g
       transform="translate(195.75308,208.74157)"
       id="flowRoot822-7-6-6"
       style="font-style:normal;font-weight:normal;font-size:40px;line-height:1.25;font-family:sans-serif;letter-spacing:0px;word-spacing:0px;fill:#000000;fill-opacity:1;stroke:none"
       aria-label="0">
      <path
         inkscape:connector-curvature="0"
         id="path854-0-3-6"
         style="fill:#ffffff"
         d="m 77.439453,54.378906 q -3.046875,0 -4.589844,3.007813 -1.523437,2.988281 -1.523437,9.003906 0,5.996094 1.523437,9.003906 1.542969,2.988281 4.589844,2.988281 3.066406,0 4.589844,-2.988281 1.542969,-3.007812 1.542969,-9.003906 0,-6.015625 -1.542969,-9.003906 -1.523438,-3.007813 -4.589844,-3.007813 z m 0,-3.125 q 4.902344,0 7.480469,3.886719 2.597656,3.867187 2.597656,11.25 0,7.363281 -2.597656,11.25 -2.578125,3.867187 -7.480469,3.867187 -4.902344,0 -7.5,-3.867187 -2.578125,-3.886719 -2.578125,-11.25 0,-7.382813 2.578125,-11.25 2.597656,-3.886719 7.5,-3.886719 z" />
    </g>
    <g
       id="flowRoot822-3-9-2-4"
       style="font-style:normal;font-weight:normal;font-size:40px;line-height:1.25;font-family:sans-serif;letter-spacing:0px;word-spacing:0px;fill:#000000;fill-opacity:1;stroke:none"
       transform="translate(193.99527,249.93143)"
       aria-label="1">
      <path
         inkscape:connector-curvature="0"
         id="path857-3-0-9"
         style="fill:#ffffff"
         d="m 69.685547,77.621094 6.445312,0 0,-22.246094 -7.011718,1.40625 0,-3.59375 6.972656,-1.40625 3.945312,0 0,25.839844 6.445313,0 0,3.320312 -16.796875,0 z" />
    </g>
    <g
       transform="translate(195.75308,292.7773)"
       id="flowRoot822-35-6-61-5"
       style="font-style:normal;font-weight:normal;font-size:40px;line-height:1.25;font-family:sans-serif;letter-spacing:0px;word-spacing:0px;fill:#000000;fill-opacity:1;stroke:none"
       aria-label="0">
      <path
         inkscape:connector-curvature="0"
         id="path854-6-0-5-0"
         style="fill:#ffffff"
         d="m 77.439453,54.378906 q -3.046875,0 -4.589844,3.007813 -1.523437,2.988281 -1.523437,9.003906 0,5.996094 1.523437,9.003906 1.542969,2.988281 4.589844,2.988281 3.066406,0 4.589844,-2.988281 1.542969,-3.007812 1.542969,-9.003906 0,-6.015625 -1.542969,-9.003906 -1.523438,-3.007813 -4.589844,-3.007813 z m 0,-3.125 q 4.902344,0 7.480469,3.886719 2.597656,3.867187 2.597656,11.25 0,7.363281 -2.597656,11.25 -2.578125,3.867187 -7.480469,3.867187 -4.902344,0 -7.5,-3.867187 -2.578125,-3.886719 -2.578125,-11.25 0,-7.382813 2.578125,-11.25 2.597656,-3.886719 7.5,-3.886719 z" />
    </g>
    <g
       id="flowRoot822-3-9-6-5-4"
       style="font-style:normal;font-weight:normal;font-size:40px;line-height:1.25;font-family:sans-serif;letter-spacing:0px;word-spacing:0px;fill:#000000;fill-opacity:1;stroke:none"
       transform="translate(193.99527,332.464)"
       aria-label="1">
      <path
         inkscape:connector-curvature="0"
         id="path857-3-2-4-8"
         style="fill:#ffffff"
         d="m 69.685547,77.621094 6.445312,0 0,-22.246094 -7.011718,1.40625 0,-3.59375 6.972656,-1.40625 3.945312,0 0,25.839844 6.445313,0 0,3.320312 -16.796875,0 z" />
    </g>
    <g
       transform="translate(195.75308,375.30987)"
       id="flowRoot822-35-6-6-7-7"
       style="font-style:normal;font-weight:normal;font-size:40px;line-height:1.25;font-family:sans-serif;letter-spacing:0px;word-spacing:0px;fill:#000000;fill-opacity:1;stroke:none"
       aria-label="0">
      <path
         inkscape:connector-curvature="0"
         id="path854-6-0-1-6-1"
         style="fill:#ffffff"
         d="m 77.439453,54.378906 q -3.046875,0 -4.589844,3.007813 -1.523437,2.988281 -1.523437,9.003906 0,5.996094 1.523437,9.003906 1.542969,2.988281 4.589844,2.988281 3.066406,0 4.589844,-2.988281 1.542969,-3.007812 1.542969,-9.003906 0,-6.015625 -1.542969,-9.003906 -1.523438,-3.007813 -4.589844,-3.007813 z m 0,-3.125 q 4.902344,0 7.480469,3.886719 2.597656,3.867187 2.597656,11.25 0,7.363281 -2.597656,11.25 -2.578125,3.867187 -7.480469,3.867187 -4.902344,0 -7.5,-3.867187 -2.578125,-3.886719 -2.578125,-11.25 0,-7.382813 2.578125,-11.25 2.597656,-3.886719 7.5,-3.886719 z" />
    </g>
    <g
       transform="translate(245.75308,-1.3405736)"
       id="flowRoot822-72"
       style="font-style:normal;font-weight:normal;font-size:40px;line-height:1.25;font-family:sans-serif;letter-spacing:0px;word-spacing:0px;fill:#000000;fill-opacity:1;stroke:none"
       aria-label="0">
      <path
         inkscape:connector-curvature="0"
         id="path854-7"
         style="fill:#ffffff"
         d="m 77.439453,54.378906 q -3.046875,0 -4.589844,3.007813 -1.523437,2.988281 -1.523437,9.003906 0,5.996094 1.523437,9.003906 1.542969,2.988281 4.589844,2.988281 3.066406,0 4.589844,-2.988281 1.542969,-3.007812 1.542969,-9.003906 0,-6.015625 -1.542969,-9.003906 -1.523438,-3.007813 -4.589844,-3.007813 z m 0,-3.125 q 4.902344,0 7.480469,3.886719 2.597656,3.867187 2.597656,11.25 0,7.363281 -2.597656,11.25 -2.578125,3.867187 -7.480469,3.867187 -4.902344,0 -7.5,-3.867187 -2.578125,-3.886719 -2.578125,-11.25 0,-7.382813 2.578125,-11.25 2.597656,-3.886719 7.5,-3.886719 z" />
    </g>
    <g
       id="flowRoot822-3-2"
       style="font-style:normal;font-weight:normal;font-size:40px;line-height:1.25;font-family:sans-serif;letter-spacing:0px;word-spacing:0px;fill:#000000;fill-opacity:1;stroke:none"
       transform="translate(243.99527,39.849286)"
       aria-label="1">
      <path
         inkscape:connector-curvature="0"
         id="path857-2"
         style="fill:#ffffff"
         d="m 69.685547,77.621094 6.445312,0 0,-22.246094 -7.011718,1.40625 0,-3.59375 6.972656,-1.40625 3.945312,0 0,25.839844 6.445313,0 0,3.320312 -16.796875,0 z" />
    </g>
    <g
       transform="translate(245.75308,82.695159)"
       id="flowRoot822-35-61"
       style="font-style:normal;font-weight:normal;font-size:40px;line-height:1.25;font-family:sans-serif;letter-spacing:0px;word-spacing:0px;fill:#000000;fill-opacity:1;stroke:none"
       aria-label="0">
      <path
         inkscape:connector-curvature="0"
         id="path854-6-06"
         style="fill:#ffffff"
         d="m 77.439453,54.378906 q -3.046875,0 -4.589844,3.007813 -1.523437,2.988281 -1.523437,9.003906 0,5.996094 1.523437,9.003906 1.542969,2.988281 4.589844,2.988281 3.066406,0 4.589844,-2.988281 1.542969,-3.007812 1.542969,-9.003906 0,-6.015625 -1.542969,-9.003906 -1.523438,-3.007813 -4.589844,-3.007813 z m 0,-3.125 q 4.902344,0 7.480469,3.886719 2.597656,3.867187 2.597656,11.25 0,7.363281 -2.597656,11.25 -2.578125,3.867187 -7.480469,3.867187 -4.902344,0 -7.5,-3.867187 -2.578125,-3.886719 -2.578125,-11.25 0,-7.382813 2.578125,-11.25 2.597656,-3.886719 7.5,-3.886719 z" />
    </g>
    <g
       transform="translate(245.75308,124.08038)"
       id="flowRoot822-2-1"
       style="font-style:normal;font-weight:normal;font-size:40px;line-height:1.25;font-family:sans-serif;letter-spacing:0px;word-spacing:0px;fill:#000000;fill-opacity:1;stroke:none"
       aria-label="0">
      <path
         inkscape:connector-curvature="0"
         id="path854-9-5"
         style="fill:#ffffff"
         d="m 77.439453,54.378906 q -3.046875,0 -4.589844,3.007813 -1.523437,2.988281 -1.523437,9.003906 0,5.996094 1.523437,9.003906 1.542969,2.988281 4.589844,2.988281 3.066406,0 4.589844,-2.988281 1.542969,-3.007812 1.542969,-9.003906 0,-6.015625 -1.542969,-9.003906 -1.523438,-3.007813 -4.589844,-3.007813 z m 0,-3.125 q 4.902344,0 7.480469,3.886719 2.597656,3.867187 2.597656,11.25 0,7.363281 -2.597656,11.25 -2.578125,3.867187 -7.480469,3.867187 -4.902344,0 -7.5,-3.867187 -2.578125,-3.886719 -2.578125,-11.25 0,-7.382813 2.578125,-11.25 2.597656,-3.886719 7.5,-3.886719 z" />
    </g>
    <g
       transform="translate(245.75308,165.4656)"
       id="flowRoot822-1-9"
       style="font-style:normal;font-weight:normal;font-size:40px;line-height:1.25;font-family:sans-serif;letter-spacing:0px;word-spacing:0px;fill:#000000;fill-opacity:1;stroke:none"
       aria-label="0">
      <path
         inkscape:connector-curvature="0"
         id="path854-2-4"
         style="fill:#ffffff"
         d="m 77.439453,54.378906 q -3.046875,0 -4.589844,3.007813 -1.523437,2.988281 -1.523437,9.003906 0,5.996094 1.523437,9.003906 1.542969,2.988281 4.589844,2.988281 3.066406,0 4.589844,-2.988281 1.542969,-3.007812 1.542969,-9.003906 0,-6.015625 -1.542969,-9.003906 -1.523438,-3.007813 -4.589844,-3.007813 z m 0,-3.125 q 4.902344,0 7.480469,3.886719 2.597656,3.867187 2.597656,11.25 0,7.363281 -2.597656,11.25 -2.578125,3.867187 -7.480469,3.867187 -4.902344,0 -7.5,-3.867187 -2.578125,-3.886719 -2.578125,-11.25 0,-7.382813 2.578125,-11.25 2.597656,-3.886719 7.5,-3.886719 z" />
    </g>
    <g
       transform="translate(245.75308,208.48104)"
       id="flowRoot822-7-9"
       style="font-style:normal;font-weight:normal;font-size:40px;line-height:1.25;font-family:sans-serif;letter-spacing:0px;word-spacing:0px;fill:#000000;fill-opacity:1;stroke:none"
       aria-label="0">
      <path
         inkscape:connector-curvature="0"
         id="path854-0-0"
         style="fill:#ffffff"
         d="m 77.439453,54.378906 q -3.046875,0 -4.589844,3.007813 -1.523437,2.988281 -1.523437,9.003906 0,5.996094 1.523437,9.003906 1.542969,2.988281 4.589844,2.988281 3.066406,0 4.589844,-2.988281 1.542969,-3.007812 1.542969,-9.003906 0,-6.015625 -1.542969,-9.003906 -1.523438,-3.007813 -4.589844,-3.007813 z m 0,-3.125 q 4.902344,0 7.480469,3.886719 2.597656,3.867187 2.597656,11.25 0,7.363281 -2.597656,11.25 -2.578125,3.867187 -7.480469,3.867187 -4.902344,0 -7.5,-3.867187 -2.578125,-3.886719 -2.578125,-11.25 0,-7.382813 2.578125,-11.25 2.597656,-3.886719 7.5,-3.886719 z" />
    </g>
    <g
       id="flowRoot822-3-9-9"
       style="font-style:normal;font-weight:normal;font-size:40px;line-height:1.25;font-family:sans-serif;letter-spacing:0px;word-spacing:0px;fill:#000000;fill-opacity:1;stroke:none"
       transform="translate(243.99527,249.6709)"
       aria-label="1">
      <path
         inkscape:connector-curvature="0"
         id="path857-3-1"
         style="fill:#ffffff"
         d="m 69.685547,77.621094 6.445312,0 0,-22.246094 -7.011718,1.40625 0,-3.59375 6.972656,-1.40625 3.945312,0 0,25.839844 6.445313,0 0,3.320312 -16.796875,0 z" />
    </g>
    <g
       transform="translate(245.75308,292.51677)"
       id="flowRoot822-35-6-7"
       style="font-style:normal;font-weight:normal;font-size:40px;line-height:1.25;font-family:sans-serif;letter-spacing:0px;word-spacing:0px;fill:#000000;fill-opacity:1;stroke:none"
       aria-label="0">
      <path
         inkscape:connector-curvature="0"
         id="path854-6-0-7"
         style="fill:#ffffff"
         d="m 77.439453,54.378906 q -3.046875,0 -4.589844,3.007813 -1.523437,2.988281 -1.523437,9.003906 0,5.996094 1.523437,9.003906 1.542969,2.988281 4.589844,2.988281 3.066406,0 4.589844,-2.988281 1.542969,-3.007812 1.542969,-9.003906 0,-6.015625 -1.542969,-9.003906 -1.523438,-3.007813 -4.589844,-3.007813 z m 0,-3.125 q 4.902344,0 7.480469,3.886719 2.597656,3.867187 2.597656,11.25 0,7.363281 -2.597656,11.25 -2.578125,3.867187 -7.480469,3.867187 -4.902344,0 -7.5,-3.867187 -2.578125,-3.886719 -2.578125,-11.25 0,-7.382813 2.578125,-11.25 2.597656,-3.886719 7.5,-3.886719 z" />
    </g>
    <g
       id="flowRoot822-3-9-6-1"
       style="font-style:normal;font-weight:normal;font-size:40px;line-height:1.25;font-family:sans-serif;letter-spacing:0px;word-spacing:0px;fill:#000000;fill-opacity:1;stroke:none"
       transform="translate(243.99527,332.20347)"
       aria-label="1">
      <path
         inkscape:connector-curvature="0"
         id="path857-3-2-1"
         style="fill:#ffffff"
         d="m 69.685547,77.621094 6.445312,0 0,-22.246094 -7.011718,1.40625 0,-3.59375 6.972656,-1.40625 3.945312,0 0,25.839844 6.445313,0 0,3.320312 -16.796875,0 z" />
    </g>
    <g
       transform="translate(245.75308,375.04934)"
       id="flowRoot822-35-6-6-5"
       style="font-style:normal;font-weight:normal;font-size:40px;line-height:1.25;font-family:sans-serif;letter-spacing:0px;word-spacing:0px;fill:#000000;fill-opacity:1;stroke:none"
       aria-label="0">
      <path
         inkscape:connector-curvature="0"
         id="path854-6-0-1-9"
         style="fill:#ffffff"
         d="m 77.439453,54.378906 q -3.046875,0 -4.589844,3.007813 -1.523437,2.988281 -1.523437,9.003906 0,5.996094 1.523437,9.003906 1.542969,2.988281 4.589844,2.988281 3.066406,0 4.589844,-2.988281 1.542969,-3.007812 1.542969,-9.003906 0,-6.015625 -1.542969,-9.003906 -1.523438,-3.007813 -4.589844,-3.007813 z m 0,-3.125 q 4.902344,0 7.480469,3.886719 2.597656,3.867187 2.597656,11.25 0,7.363281 -2.597656,11.25 -2.578125,3.867187 -7.480469,3.867187 -4.902344,0 -7.5,-3.867187 -2.578125,-3.886719 -2.578125,-11.25 0,-7.382813 2.578125,-11.25 2.597656,-3.886719 7.5,-3.886719 z" />
    </g>
    <g
       id="flowRoot822-3-9-8-7"
       style="font-style:normal;font-weight:normal;font-size:40px;line-height:1.25;font-family:sans-serif;letter-spacing:0px;word-spacing:0px;fill:#000000;fill-opacity:1;stroke:none"
       transform="translate(296.99527,-0.86210359)"
       aria-label="1">
      <path
         inkscape:connector-curvature="0"
         id="path857-3-7-7"
         style="fill:#ffffff"
         d="m 69.685547,77.621094 6.445312,0 0,-22.246094 -7.011718,1.40625 0,-3.59375 6.972656,-1.40625 3.945312,0 0,25.839844 6.445313,0 0,3.320312 -16.796875,0 z" />
    </g>
    <g
       transform="translate(298.75308,41.983766)"
       id="flowRoot822-35-6-9-6"
       style="font-style:normal;font-weight:normal;font-size:40px;line-height:1.25;font-family:sans-serif;letter-spacing:0px;word-spacing:0px;fill:#000000;fill-opacity:1;stroke:none"
       aria-label="0">
      <path
         inkscape:connector-curvature="0"
         id="path854-6-0-2-7"
         style="fill:#ffffff"
         d="m 77.439453,54.378906 q -3.046875,0 -4.589844,3.007813 -1.523437,2.988281 -1.523437,9.003906 0,5.996094 1.523437,9.003906 1.542969,2.988281 4.589844,2.988281 3.066406,0 4.589844,-2.988281 1.542969,-3.007812 1.542969,-9.003906 0,-6.015625 -1.542969,-9.003906 -1.523438,-3.007813 -4.589844,-3.007813 z m 0,-3.125 q 4.902344,0 7.480469,3.886719 2.597656,3.867187 2.597656,11.25 0,7.363281 -2.597656,11.25 -2.578125,3.867187 -7.480469,3.867187 -4.902344,0 -7.5,-3.867187 -2.578125,-3.886719 -2.578125,-11.25 0,-7.382813 2.578125,-11.25 2.597656,-3.886719 7.5,-3.886719 z" />
    </g>
    <g
       id="flowRoot822-3-9-6-0-3"
       style="font-style:normal;font-weight:normal;font-size:40px;line-height:1.25;font-family:sans-serif;letter-spacing:0px;word-spacing:0px;fill:#000000;fill-opacity:1;stroke:none"
       transform="translate(296.99527,81.67047)"
       aria-label="1">
      <path
         inkscape:connector-curvature="0"
         id="path857-3-2-2-6"
         style="fill:#ffffff"
         d="m 69.685547,77.621094 6.445312,0 0,-22.246094 -7.011718,1.40625 0,-3.59375 6.972656,-1.40625 3.945312,0 0,25.839844 6.445313,0 0,3.320312 -16.796875,0 z" />
    </g>
    <g
       transform="translate(298.75308,124.51634)"
       id="flowRoot822-35-6-6-3-56"
       style="font-style:normal;font-weight:normal;font-size:40px;line-height:1.25;font-family:sans-serif;letter-spacing:0px;word-spacing:0px;fill:#000000;fill-opacity:1;stroke:none"
       aria-label="0">
      <path
         inkscape:connector-curvature="0"
         id="path854-6-0-1-7-3"
         style="fill:#ffffff"
         d="m 77.439453,54.378906 q -3.046875,0 -4.589844,3.007813 -1.523437,2.988281 -1.523437,9.003906 0,5.996094 1.523437,9.003906 1.542969,2.988281 4.589844,2.988281 3.066406,0 4.589844,-2.988281 1.542969,-3.007812 1.542969,-9.003906 0,-6.015625 -1.542969,-9.003906 -1.523438,-3.007813 -4.589844,-3.007813 z m 0,-3.125 q 4.902344,0 7.480469,3.886719 2.597656,3.867187 2.597656,11.25 0,7.363281 -2.597656,11.25 -2.578125,3.867187 -7.480469,3.867187 -4.902344,0 -7.5,-3.867187 -2.578125,-3.886719 -2.578125,-11.25 0,-7.382813 2.578125,-11.25 2.597656,-3.886719 7.5,-3.886719 z" />
    </g>
    <g
       id="flowRoot822-3-9-6-0-5-9"
       style="font-style:normal;font-weight:normal;font-size:40px;line-height:1.25;font-family:sans-serif;letter-spacing:0px;word-spacing:0px;fill:#000000;fill-opacity:1;stroke:none"
       transform="translate(296.99527,164.44852)"
       aria-label="1">
      <path
         inkscape:connector-curvature="0"
         id="path857-3-2-2-9-48"
         style="fill:#ffffff"
         d="m 69.685547,77.621094 6.445312,0 0,-22.246094 -7.011718,1.40625 0,-3.59375 6.972656,-1.40625 3.945312,0 0,25.839844 6.445313,0 0,3.320312 -16.796875,0 z" />
    </g>
    <g
       id="flowRoot822-3-9-6-0-5-2-1"
       style="font-style:normal;font-weight:normal;font-size:40px;line-height:1.25;font-family:sans-serif;letter-spacing:0px;word-spacing:0px;fill:#000000;fill-opacity:1;stroke:none"
       transform="translate(296.99527,207.50078)"
       aria-label="1">
      <path
         inkscape:connector-curvature="0"
         id="path857-3-2-2-9-2-2"
         style="fill:#ffffff"
         d="m 69.685547,77.621094 6.445312,0 0,-22.246094 -7.011718,1.40625 0,-3.59375 6.972656,-1.40625 3.945312,0 0,25.839844 6.445313,0 0,3.320312 -16.796875,0 z" />
    </g>
    <g
       id="flowRoot822-3-9-6-0-5-8-9"
       style="font-style:normal;font-weight:normal;font-size:40px;line-height:1.25;font-family:sans-serif;letter-spacing:0px;word-spacing:0px;fill:#000000;fill-opacity:1;stroke:none"
       transform="translate(296.99527,249.85648)"
       aria-label="1">
      <path
         inkscape:connector-curvature="0"
         id="path857-3-2-2-9-9-3"
         style="fill:#ffffff"
         d="m 69.685547,77.621094 6.445312,0 0,-22.246094 -7.011718,1.40625 0,-3.59375 6.972656,-1.40625 3.945312,0 0,25.839844 6.445313,0 0,3.320312 -16.796875,0 z" />
    </g>
    <g
       id="flowRoot822-3-9-6-0-5-2-7-9"
       style="font-style:normal;font-weight:normal;font-size:40px;line-height:1.25;font-family:sans-serif;letter-spacing:0px;word-spacing:0px;fill:#000000;fill-opacity:1;stroke:none"
       transform="translate(296.99527,292.90874)"
       aria-label="1">
      <path
         inkscape:connector-curvature="0"
         id="path857-3-2-2-9-2-3-0"
         style="fill:#ffffff"
         d="m 69.685547,77.621094 6.445312,0 0,-22.246094 -7.011718,1.40625 0,-3.59375 6.972656,-1.40625 3.945312,0 0,25.839844 6.445313,0 0,3.320312 -16.796875,0 z" />
    </g>
    <g
       transform="translate(298.75308,330.71607)"
       id="flowRoot822-1-6-8"
       style="font-style:normal;font-weight:normal;font-size:40px;line-height:1.25;font-family:sans-serif;letter-spacing:0px;word-spacing:0px;fill:#000000;fill-opacity:1;stroke:none"
       aria-label="0">
      <path
         inkscape:connector-curvature="0"
         id="path854-2-1-85"
         style="fill:#ffffff"
         d="m 77.439453,54.378906 q -3.046875,0 -4.589844,3.007813 -1.523437,2.988281 -1.523437,9.003906 0,5.996094 1.523437,9.003906 1.542969,2.988281 4.589844,2.988281 3.066406,0 4.589844,-2.988281 1.542969,-3.007812 1.542969,-9.003906 0,-6.015625 -1.542969,-9.003906 -1.523438,-3.007813 -4.589844,-3.007813 z m 0,-3.125 q 4.902344,0 7.480469,3.886719 2.597656,3.867187 2.597656,11.25 0,7.363281 -2.597656,11.25 -2.578125,3.867187 -7.480469,3.867187 -4.902344,0 -7.5,-3.867187 -2.578125,-3.886719 -2.578125,-11.25 0,-7.382813 2.578125,-11.25 2.597656,-3.886719 7.5,-3.886719 z" />
    </g>
    <g
       transform="translate(298.75308,375.47241)"
       id="flowRoot822-1-2-0"
       style="font-style:normal;font-weight:normal;font-size:40px;line-height:1.25;font-family:sans-serif;letter-spacing:0px;word-spacing:0px;fill:#000000;fill-opacity:1;stroke:none"
       aria-label="0">
      <path
         inkscape:connector-curvature="0"
         id="path854-2-9-9"
         style="fill:#ffffff"
         d="m 77.439453,54.378906 q -3.046875,0 -4.589844,3.007813 -1.523437,2.988281 -1.523437,9.003906 0,5.996094 1.523437,9.003906 1.542969,2.988281 4.589844,2.988281 3.066406,0 4.589844,-2.988281 1.542969,-3.007812 1.542969,-9.003906 0,-6.015625 -1.542969,-9.003906 -1.523438,-3.007813 -4.589844,-3.007813 z m 0,-3.125 q 4.902344,0 7.480469,3.886719 2.597656,3.867187 2.597656,11.25 0,7.363281 -2.597656,11.25 -2.578125,3.867187 -7.480469,3.867187 -4.902344,0 -7.5,-3.867187 -2.578125,-3.886719 -2.578125,-11.25 0,-7.382813 2.578125,-11.25 2.597656,-3.886719 7.5,-3.886719 z" />
    </g>
    <g
       transform="translate(348.75308,-0.81953359)"
       id="flowRoot822-31-6"
       style="font-style:normal;font-weight:normal;font-size:40px;line-height:1.25;font-family:sans-serif;letter-spacing:0px;word-spacing:0px;fill:#000000;fill-opacity:1;stroke:none"
       aria-label="0">
      <path
         inkscape:connector-curvature="0"
         id="path854-94-3"
         style="fill:#ffffff"
         d="m 77.439453,54.378906 q -3.046875,0 -4.589844,3.007813 -1.523437,2.988281 -1.523437,9.003906 0,5.996094 1.523437,9.003906 1.542969,2.988281 4.589844,2.988281 3.066406,0 4.589844,-2.988281 1.542969,-3.007812 1.542969,-9.003906 0,-6.015625 -1.542969,-9.003906 -1.523438,-3.007813 -4.589844,-3.007813 z m 0,-3.125 q 4.902344,0 7.480469,3.886719 2.597656,3.867187 2.597656,11.25 0,7.363281 -2.597656,11.25 -2.578125,3.867187 -7.480469,3.867187 -4.902344,0 -7.5,-3.867187 -2.578125,-3.886719 -2.578125,-11.25 0,-7.382813 2.578125,-11.25 2.597656,-3.886719 7.5,-3.886719 z" />
    </g>
    <g
       id="flowRoot822-3-7-8"
       style="font-style:normal;font-weight:normal;font-size:40px;line-height:1.25;font-family:sans-serif;letter-spacing:0px;word-spacing:0px;fill:#000000;fill-opacity:1;stroke:none"
       transform="translate(346.99527,40.370326)"
       aria-label="1">
      <path
         inkscape:connector-curvature="0"
         id="path857-8-5"
         style="fill:#ffffff"
         d="m 69.685547,77.621094 6.445312,0 0,-22.246094 -7.011718,1.40625 0,-3.59375 6.972656,-1.40625 3.945312,0 0,25.839844 6.445313,0 0,3.320312 -16.796875,0 z" />
    </g>
    <g
       transform="translate(348.75308,83.216206)"
       id="flowRoot822-35-4-6"
       style="font-style:normal;font-weight:normal;font-size:40px;line-height:1.25;font-family:sans-serif;letter-spacing:0px;word-spacing:0px;fill:#000000;fill-opacity:1;stroke:none"
       aria-label="0">
      <path
         inkscape:connector-curvature="0"
         id="path854-6-5-1"
         style="fill:#ffffff"
         d="m 77.439453,54.378906 q -3.046875,0 -4.589844,3.007813 -1.523437,2.988281 -1.523437,9.003906 0,5.996094 1.523437,9.003906 1.542969,2.988281 4.589844,2.988281 3.066406,0 4.589844,-2.988281 1.542969,-3.007812 1.542969,-9.003906 0,-6.015625 -1.542969,-9.003906 -1.523438,-3.007813 -4.589844,-3.007813 z m 0,-3.125 q 4.902344,0 7.480469,3.886719 2.597656,3.867187 2.597656,11.25 0,7.363281 -2.597656,11.25 -2.578125,3.867187 -7.480469,3.867187 -4.902344,0 -7.5,-3.867187 -2.578125,-3.886719 -2.578125,-11.25 0,-7.382813 2.578125,-11.25 2.597656,-3.886719 7.5,-3.886719 z" />
    </g>
    <g
       transform="translate(348.75308,124.60143)"
       id="flowRoot822-2-0-1"
       style="font-style:normal;font-weight:normal;font-size:40px;line-height:1.25;font-family:sans-serif;letter-spacing:0px;word-spacing:0px;fill:#000000;fill-opacity:1;stroke:none"
       aria-label="0">
      <path
         inkscape:connector-curvature="0"
         id="path854-9-3-5"
         style="fill:#ffffff"
         d="m 77.439453,54.378906 q -3.046875,0 -4.589844,3.007813 -1.523437,2.988281 -1.523437,9.003906 0,5.996094 1.523437,9.003906 1.542969,2.988281 4.589844,2.988281 3.066406,0 4.589844,-2.988281 1.542969,-3.007812 1.542969,-9.003906 0,-6.015625 -1.542969,-9.003906 -1.523438,-3.007813 -4.589844,-3.007813 z m 0,-3.125 q 4.902344,0 7.480469,3.886719 2.597656,3.867187 2.597656,11.25 0,7.363281 -2.597656,11.25 -2.578125,3.867187 -7.480469,3.867187 -4.902344,0 -7.5,-3.867187 -2.578125,-3.886719 -2.578125,-11.25 0,-7.382813 2.578125,-11.25 2.597656,-3.886719 7.5,-3.886719 z" />
    </g>
    <g
       transform="translate(348.75308,165.98665)"
       id="flowRoot822-1-61-98"
       style="font-style:normal;font-weight:normal;font-size:40px;line-height:1.25;font-family:sans-serif;letter-spacing:0px;word-spacing:0px;fill:#000000;fill-opacity:1;stroke:none"
       aria-label="0">
      <path
         inkscape:connector-curvature="0"
         id="path854-2-0-4"
         style="fill:#ffffff"
         d="m 77.439453,54.378906 q -3.046875,0 -4.589844,3.007813 -1.523437,2.988281 -1.523437,9.003906 0,5.996094 1.523437,9.003906 1.542969,2.988281 4.589844,2.988281 3.066406,0 4.589844,-2.988281 1.542969,-3.007812 1.542969,-9.003906 0,-6.015625 -1.542969,-9.003906 -1.523438,-3.007813 -4.589844,-3.007813 z m 0,-3.125 q 4.902344,0 7.480469,3.886719 2.597656,3.867187 2.597656,11.25 0,7.363281 -2.597656,11.25 -2.578125,3.867187 -7.480469,3.867187 -4.902344,0 -7.5,-3.867187 -2.578125,-3.886719 -2.578125,-11.25 0,-7.382813 2.578125,-11.25 2.597656,-3.886719 7.5,-3.886719 z" />
    </g>
    <g
       transform="translate(348.75308,209.00209)"
       id="flowRoot822-7-6-8"
       style="font-style:normal;font-weight:normal;font-size:40px;line-height:1.25;font-family:sans-serif;letter-spacing:0px;word-spacing:0px;fill:#000000;fill-opacity:1;stroke:none"
       aria-label="0">
      <path
         inkscape:connector-curvature="0"
         id="path854-0-3-1"
         style="fill:#ffffff"
         d="m 77.439453,54.378906 q -3.046875,0 -4.589844,3.007813 -1.523437,2.988281 -1.523437,9.003906 0,5.996094 1.523437,9.003906 1.542969,2.988281 4.589844,2.988281 3.066406,0 4.589844,-2.988281 1.542969,-3.007812 1.542969,-9.003906 0,-6.015625 -1.542969,-9.003906 -1.523438,-3.007813 -4.589844,-3.007813 z m 0,-3.125 q 4.902344,0 7.480469,3.886719 2.597656,3.867187 2.597656,11.25 0,7.363281 -2.597656,11.25 -2.578125,3.867187 -7.480469,3.867187 -4.902344,0 -7.5,-3.867187 -2.578125,-3.886719 -2.578125,-11.25 0,-7.382813 2.578125,-11.25 2.597656,-3.886719 7.5,-3.886719 z" />
    </g>
    <g
       id="flowRoot822-3-9-2-0"
       style="font-style:normal;font-weight:normal;font-size:40px;line-height:1.25;font-family:sans-serif;letter-spacing:0px;word-spacing:0px;fill:#000000;fill-opacity:1;stroke:none"
       transform="translate(346.99527,250.19195)"
       aria-label="1">
      <path
         inkscape:connector-curvature="0"
         id="path857-3-0-3"
         style="fill:#ffffff"
         d="m 69.685547,77.621094 6.445312,0 0,-22.246094 -7.011718,1.40625 0,-3.59375 6.972656,-1.40625 3.945312,0 0,25.839844 6.445313,0 0,3.320312 -16.796875,0 z" />
    </g>
    <g
       transform="translate(348.75308,293.03782)"
       id="flowRoot822-35-6-61-0"
       style="font-style:normal;font-weight:normal;font-size:40px;line-height:1.25;font-family:sans-serif;letter-spacing:0px;word-spacing:0px;fill:#000000;fill-opacity:1;stroke:none"
       aria-label="0">
      <path
         inkscape:connector-curvature="0"
         id="path854-6-0-5-4"
         style="fill:#ffffff"
         d="m 77.439453,54.378906 q -3.046875,0 -4.589844,3.007813 -1.523437,2.988281 -1.523437,9.003906 0,5.996094 1.523437,9.003906 1.542969,2.988281 4.589844,2.988281 3.066406,0 4.589844,-2.988281 1.542969,-3.007812 1.542969,-9.003906 0,-6.015625 -1.542969,-9.003906 -1.523438,-3.007813 -4.589844,-3.007813 z m 0,-3.125 q 4.902344,0 7.480469,3.886719 2.597656,3.867187 2.597656,11.25 0,7.363281 -2.597656,11.25 -2.578125,3.867187 -7.480469,3.867187 -4.902344,0 -7.5,-3.867187 -2.578125,-3.886719 -2.578125,-11.25 0,-7.382813 2.578125,-11.25 2.597656,-3.886719 7.5,-3.886719 z" />
    </g>
    <g
       id="flowRoot822-3-9-6-5-44"
       style="font-style:normal;font-weight:normal;font-size:40px;line-height:1.25;font-family:sans-serif;letter-spacing:0px;word-spacing:0px;fill:#000000;fill-opacity:1;stroke:none"
       transform="translate(346.99527,332.72452)"
       aria-label="1">
      <path
         inkscape:connector-curvature="0"
         id="path857-3-2-4-4"
         style="fill:#ffffff"
         d="m 69.685547,77.621094 6.445312,0 0,-22.246094 -7.011718,1.40625 0,-3.59375 6.972656,-1.40625 3.945312,0 0,25.839844 6.445313,0 0,3.320312 -16.796875,0 z" />
    </g>
    <g
       transform="translate(348.75308,375.57039)"
       id="flowRoot822-35-6-6-7-76"
       style="font-style:normal;font-weight:normal;font-size:40px;line-height:1.25;font-family:sans-serif;letter-spacing:0px;word-spacing:0px;fill:#000000;fill-opacity:1;stroke:none"
       aria-label="0">
      <path
         inkscape:connector-curvature="0"
         id="path854-6-0-1-6-3"
         style="fill:#ffffff"
         d="m 77.439453,54.378906 q -3.046875,0 -4.589844,3.007813 -1.523437,2.988281 -1.523437,9.003906 0,5.996094 1.523437,9.003906 1.542969,2.988281 4.589844,2.988281 3.066406,0 4.589844,-2.988281 1.542969,-3.007812 1.542969,-9.003906 0,-6.015625 -1.542969,-9.003906 -1.523438,-3.007813 -4.589844,-3.007813 z m 0,-3.125 q 4.902344,0 7.480469,3.886719 2.597656,3.867187 2.597656,11.25 0,7.363281 -2.597656,11.25 -2.578125,3.867187 -7.480469,3.867187 -4.902344,0 -7.5,-3.867187 -2.578125,-3.886719 -2.578125,-11.25 0,-7.382813 2.578125,-11.25 2.597656,-3.886719 7.5,-3.886719 z" />
    </g>
    <path
       inkscape:connector-curvature="0"
       id="path1466"
       d="M 131.67383,134.9707 31.871094,256.3457 131.81836,398.30273 154.02344,382.66992 65.980469,257.62109 152.64844,152.2168 131.67383,134.9707 Z"
       style="color:#000000;font-style:normal;font-variant:normal;font-weight:normal;font-stretch:normal;font-size:medium;line-height:normal;font-family:sans-serif;text-indent:0;text-align:start;text-decoration:none;text-decoration-line:none;text-decoration-style:solid;text-decoration-color:#000000;letter-spacing:normal;word-spacing:normal;text-transform:none;direction:ltr;block-progression:tb;writing-mode:lr-tb;baseline-shift:baseline;text-anchor:start;white-space:normal;clip-rule:nonzero;display:inline;overflow:visible;visibility:visible;opacity:1;isolation:auto;mix-blend-mode:normal;color-interpolation:sRGB;color-interpolation-filters:linearRGB;solid-color:#000000;solid-opacity:1;fill:#ffffff;fill-opacity:1;fill-rule:nonzero;stroke:none;stroke-width:27.15584564;stroke-linecap:butt;stroke-linejoin:miter;stroke-miterlimit:4;stroke-dasharray:none;stroke-dashoffset:0;stroke-opacity:1;color-rendering:auto;image-rendering:auto;shape-rendering:auto;text-rendering:auto;enable-background:accumulate" />
    <path
       inkscape:connector-curvature="0"
       id="path1466-1"
       d="m 354.80469,137.53711 -20.97657,17.24805 86.66797,105.40234 -88.04297,125.04883 22.20508,15.63281 99.94727,-141.95703 -99.80078,-121.375 z"
       style="color:#000000;font-style:normal;font-variant:normal;font-weight:normal;font-stretch:normal;font-size:medium;line-height:normal;font-family:sans-serif;text-indent:0;text-align:start;text-decoration:none;text-decoration-line:none;text-decoration-style:solid;text-decoration-color:#000000;letter-spacing:normal;word-spacing:normal;text-transform:none;direction:ltr;block-progression:tb;writing-mode:lr-tb;baseline-shift:baseline;text-anchor:start;white-space:normal;clip-rule:nonzero;display:inline;overflow:visible;visibility:visible;opacity:1;isolation:auto;mix-blend-mode:normal;color-interpolation:sRGB;color-interpolation-filters:linearRGB;solid-color:#000000;solid-opacity:1;fill:#ffffff;fill-opacity:1;fill-rule:nonzero;stroke:none;stroke-width:27.15584564;stroke-linecap:butt;stroke-linejoin:miter;stroke-miterlimit:4;stroke-dasharray:none;stroke-dashoffset:0;stroke-opacity:1;color-rendering:auto;image-rendering:auto;shape-rendering:auto;text-rendering:auto;enable-background:accumulate" />
    <path
       inkscape:connector-curvature="0"
       id="path1483"
       d="m 274.69531,104.77148 -85.5,297.92969 26.10157,7.49024 85.5,-297.92969 -26.10157,-7.49024 z"
       style="color:#000000;font-style:normal;font-variant:normal;font-weight:normal;font-stretch:normal;font-size:medium;line-height:normal;font-family:sans-serif;text-indent:0;text-align:start;text-decoration:none;text-decoration-line:none;text-decoration-style:solid;text-decoration-color:#000000;letter-spacing:normal;word-spacing:normal;text-transform:none;direction:ltr;block-progression:tb;writing-mode:lr-tb;baseline-shift:baseline;text-anchor:start;white-space:normal;clip-rule:nonzero;display:inline;overflow:visible;visibility:visible;opacity:1;isolation:auto;mix-blend-mode:normal;color-interpolation:sRGB;color-interpolation-filters:linearRGB;solid-color:#000000;solid-opacity:1;fill:#ffffff;fill-opacity:1;fill-rule:nonzero;stroke:none;stroke-width:27.15584564;stroke-linecap:butt;stroke-linejoin:miter;stroke-miterlimit:4;stroke-dasharray:none;stroke-dashoffset:0;stroke-opacity:1;color-rendering:auto;image-rendering:auto;shape-rendering:auto;text-rendering:auto;enable-background:accumulate" />
  </g>
</svg>
