<?xml version="1.0" encoding="UTF-8" standalone="no"?>
<!-- Created with Inkscape (http://www.inkscape.org/) -->

<svg
   xmlns:dc="http://purl.org/dc/elements/1.1/"
   xmlns:cc="http://creativecommons.org/ns#"
   xmlns:rdf="http://www.w3.org/1999/02/22-rdf-syntax-ns#"
   xmlns:svg="http://www.w3.org/2000/svg"
   xmlns="http://www.w3.org/2000/svg"
   xmlns:xlink="http://www.w3.org/1999/xlink"
   xmlns:sodipodi="http://sodipodi.sourceforge.net/DTD/sodipodi-0.dtd"
   xmlns:inkscape="http://www.inkscape.org/namespaces/inkscape"
   width="512"
   height="512"
   id="svg2"
   version="1.1"
   inkscape:version="0.48.5 r10040"
   sodipodi:docname="folder.svg">
  <defs
     id="defs4">
    <linearGradient
       id="linearGradient7468"
       inkscape:collect="always">
      <stop
         id="stop7470"
         style="stop-color:#ffffff"
         offset="0" />
      <stop
         id="stop7472"
         style="stop-color:#333333"
         offset="1" />
    </linearGradient>
    <linearGradient
       id="linearGradient7460"
       inkscape:collect="always">
      <stop
         id="stop7462"
         style="stop-color:#880000"
         offset="0" />
      <stop
         id="stop7464"
         style="stop-color:#ff0000"
         offset="1" />
    </linearGradient>
    <linearGradient
       id="linearGradient7466"
       y2="563.59998"
       xlink:href="#linearGradient7460"
       gradientUnits="userSpaceOnUse"
       x2="358.75"
       y1="591.23999"
       x1="371.28"
       inkscape:collect="always" />
    <radialGradient
       id="radialGradient3359"
       xlink:href="#linearGradient7468"
       gradientUnits="userSpaceOnUse"
       cy="576.95001"
       cx="360.41"
       gradientTransform="matrix(1.0468,0.50953,-0.43766,0.89914,235.64,-125.45)"
       r="15.5"
       inkscape:collect="always" />
    <radialGradient
       id="radialGradient3367"
       xlink:href="#linearGradient7468"
       gradientUnits="userSpaceOnUse"
       cy="576.95001"
       cx="360.41"
       gradientTransform="matrix(1.0468,0.50953,-0.43766,0.89914,235.64,-125.45)"
       r="15.5"
       inkscape:collect="always" />
    <linearGradient
       id="linearGradient3375"
       y2="563.59998"
       xlink:href="#linearGradient7460"
       gradientUnits="userSpaceOnUse"
       x2="358.75"
       y1="591.23999"
       x1="371.28"
       inkscape:collect="always" />
    <linearGradient
       id="linearGradient6874">
      <stop
         id="stop6876"
         style="stop-color:#000000"
         offset="0" />
      <stop
         id="stop6878"
         style="stop-color:#ffffff"
         offset=".12566" />
      <stop
         id="stop6880"
         style="stop-color:#666666"
         offset=".41176" />
      <stop
         id="stop6882"
         style="stop-color:#cccccc"
         offset=".64706" />
      <stop
         id="stop6884"
         style="stop-color:#333333"
         offset=".82353" />
      <stop
         id="stop6886"
         style="stop-color:#000000"
         offset="1" />
    </linearGradient>
    <linearGradient
       id="linearGradient3407">
      <stop
         id="stop3409"
         style="stop-color:#000000"
         offset="0" />
      <stop
         id="stop3411"
         style="stop-color:#ffffff"
         offset=".12566" />
      <stop
         id="stop3413"
         style="stop-color:#666666"
         offset=".41176" />
      <stop
         id="stop3415"
         style="stop-color:#cccccc"
         offset=".64706" />
      <stop
         id="stop3417"
         style="stop-color:#333333"
         offset=".82353" />
      <stop
         id="stop3419"
         style="stop-color:#000000"
         offset="1" />
    </linearGradient>
    <linearGradient
       id="linearGradient3422">
      <stop
         id="stop3424"
         style="stop-color:#000000"
         offset="0" />
      <stop
         id="stop3426"
         style="stop-color:#ffffff"
         offset=".12566" />
      <stop
         id="stop3428"
         style="stop-color:#666666"
         offset=".41176" />
      <stop
         id="stop3430"
         style="stop-color:#cccccc"
         offset=".64706" />
      <stop
         id="stop3432"
         style="stop-color:#333333"
         offset=".82353" />
      <stop
         id="stop3434"
         style="stop-color:#000000"
         offset="1" />
    </linearGradient>
    <linearGradient
       id="linearGradient3440">
      <stop
         id="stop3442"
         style="stop-color:#000000"
         offset="0" />
      <stop
         id="stop3444"
         style="stop-color:#ffffff"
         offset=".12566" />
      <stop
         id="stop3446"
         style="stop-color:#666666"
         offset=".41176" />
      <stop
         id="stop3448"
         style="stop-color:#cccccc"
         offset=".64706" />
      <stop
         id="stop3450"
         style="stop-color:#333333"
         offset=".82353" />
      <stop
         id="stop3452"
         style="stop-color:#000000"
         offset="1" />
    </linearGradient>
    <linearGradient
       id="linearGradient6850">
      <stop
         id="stop6852"
         style="stop-color:#000000"
         offset="0" />
      <stop
         id="stop6858"
         style="stop-color:#ffffff"
         offset=".11765" />
      <stop
         id="stop6860"
         style="stop-color:#666666"
         offset=".41176" />
      <stop
         id="stop6862"
         style="stop-color:#cccccc"
         offset=".64706" />
      <stop
         id="stop6864"
         style="stop-color:#333333"
         offset=".82353" />
      <stop
         id="stop6854"
         style="stop-color:#000000"
         offset="1" />
    </linearGradient>
    <linearGradient
       id="linearGradient3463">
      <stop
         id="stop3465"
         style="stop-color:#000000"
         offset="0" />
      <stop
         id="stop3467"
         style="stop-color:#ffffff"
         offset=".11765" />
      <stop
         id="stop3469"
         style="stop-color:#666666"
         offset=".41176" />
      <stop
         id="stop3471"
         style="stop-color:#cccccc"
         offset=".64706" />
      <stop
         id="stop3473"
         style="stop-color:#333333"
         offset=".82353" />
      <stop
         id="stop3475"
         style="stop-color:#000000"
         offset="1" />
    </linearGradient>
    <linearGradient
       gradientTransform="translate(323.92404,487.04243)"
       id="linearGradient7542"
       y2="54.868999"
       xlink:href="#linearGradient7260"
       gradientUnits="userSpaceOnUse"
       x2="463.01001"
       y1="54.868999"
       x1="266.98999"
       inkscape:collect="always" />
    <linearGradient
       id="linearGradient7260">
      <stop
         id="stop7262"
         style="stop-color:#ffffff;stop-opacity:.8"
         offset="0" />
      <stop
         id="stop7268"
         style="stop-color:#ffffff"
         offset=".5" />
      <stop
         id="stop7264"
         style="stop-color:#ffffff;stop-opacity:.8"
         offset="1" />
    </linearGradient>
    <filter
       id="filter7270"
       inkscape:collect="always"
       color-interpolation-filters="sRGB">
      <feGaussianBlur
         id="feGaussianBlur7272"
         stdDeviation="0.7401008"
         inkscape:collect="always" />
    </filter>
    <linearGradient
       gradientTransform="translate(323.92404,487.04243)"
       id="linearGradient7540"
       y2="154.88"
       xlink:href="#linearGradient7286"
       gradientUnits="userSpaceOnUse"
       x2="463.01001"
       y1="154.88"
       x1="266.98999"
       inkscape:collect="always" />
    <linearGradient
       id="linearGradient7286">
      <stop
         id="stop7288"
         style="stop-color:#000000;stop-opacity:.6"
         offset="0" />
      <stop
         id="stop7294"
         style="stop-color:#000000"
         offset=".5" />
      <stop
         id="stop7290"
         style="stop-color:#000000;stop-opacity:.6"
         offset="1" />
    </linearGradient>
    <filter
       id="filter7324"
       inkscape:collect="always"
       color-interpolation-filters="sRGB">
      <feGaussianBlur
         id="feGaussianBlur7326"
         stdDeviation="1.4802016"
         inkscape:collect="always" />
    </filter>
    <linearGradient
       gradientTransform="translate(323.92404,487.04243)"
       id="linearGradient7538"
       y2="153.86"
       xlink:href="#linearGradient7260"
       gradientUnits="userSpaceOnUse"
       x2="454.03"
       y1="153.86"
       x1="275.97"
       inkscape:collect="always" />
    <linearGradient
       id="linearGradient3492">
      <stop
         id="stop3494"
         style="stop-color:#ffffff;stop-opacity:.8"
         offset="0" />
      <stop
         id="stop3496"
         style="stop-color:#ffffff"
         offset=".5" />
      <stop
         id="stop3498"
         style="stop-color:#ffffff;stop-opacity:.8"
         offset="1" />
    </linearGradient>
    <filter
       id="filter7282"
       inkscape:collect="always"
       color-interpolation-filters="sRGB">
      <feGaussianBlur
         id="feGaussianBlur7284"
         stdDeviation="0.67268131"
         inkscape:collect="always" />
    </filter>
    <linearGradient
       gradientTransform="translate(323.92404,487.04243)"
       id="linearGradient7536"
       y2="55.868999"
       xlink:href="#linearGradient7286"
       gradientUnits="userSpaceOnUse"
       x2="454.03"
       y1="55.868999"
       x1="275.97"
       inkscape:collect="always" />
    <linearGradient
       id="linearGradient3503">
      <stop
         id="stop3505"
         style="stop-color:#000000;stop-opacity:.6"
         offset="0" />
      <stop
         id="stop3507"
         style="stop-color:#000000"
         offset=".5" />
      <stop
         id="stop3509"
         style="stop-color:#000000;stop-opacity:.6"
         offset="1" />
    </linearGradient>
    <filter
       id="filter7308"
       inkscape:collect="always"
       color-interpolation-filters="sRGB">
      <feGaussianBlur
         id="feGaussianBlur7310"
         stdDeviation="1.3453626"
         inkscape:collect="always" />
    </filter>
    <radialGradient
       r="15.5"
       cy="576.95001"
       cx="360.41"
       gradientTransform="matrix(1.0468,0.50953,-0.43766,0.89914,235.64,-125.45)"
       gradientUnits="userSpaceOnUse"
       id="radialGradient3757"
       xlink:href="#linearGradient7468"
       inkscape:collect="always" />
  </defs>
  <sodipodi:namedview
     id="base"
     pagecolor="#ffffff"
     bordercolor="#666666"
     borderopacity="1.0"
     inkscape:pageopacity="0.0"
     inkscape:pageshadow="2"
     inkscape:zoom="0.49497475"
     inkscape:cx="928.06453"
     inkscape:cy="446.98474"
     inkscape:document-units="px"
     inkscape:current-layer="layer1"
     showgrid="false"
     inkscape:window-width="1366"
     inkscape:window-height="716"
     inkscape:window-x="0"
     inkscape:window-y="0"
     inkscape:window-maximized="1" />
  <metadata
     id="metadata7">
    <rdf:RDF>
      <cc:Work
         rdf:about="">
        <dc:format>image/svg+xml</dc:format>
        <dc:type
           rdf:resource="http://purl.org/dc/dcmitype/StillImage" />
        <dc:title></dc:title>
      </cc:Work>
    </rdf:RDF>
  </metadata>
  <g
     inkscape:label="Layer 1"
     inkscape:groupmode="layer"
     id="layer1"
     transform="translate(0,-540.36218)">
    <path
       style="fill:#f9d696;stroke:none"
       d="m 101.80608,553.25212 290.12324,0.21824 4.8742,2.18248 2.40071,4.65595 0,244.07306 27.42639,28.08115 0.21825,126.43787 -6.91116,4.72868 -318.27714,2.32798 z"
       id="path2996"
       inkscape:connector-curvature="0" />
    <path
       style="fill:#efc589;stroke:none"
       d="m 101.80633,553.26299 110.70179,90.74256 0.41153,253.09145 -8.64215,13.16899 0.2058,127.78031 -6.99604,3.9095 -95.85137,-76.10605 z"
       id="path3766"
       inkscape:connector-curvature="0"
       sodipodi:nodetypes="cccccccc" />
    <path
       style="fill:none;stroke:#f9d696;stroke-width:2.30457258px;stroke-linecap:round;stroke-linejoin:miter;stroke-opacity:1"
       d="m 112.42744,959.9921 0.582,-380.62306"
       id="path3768"
       inkscape:connector-curvature="0" />
    <path
       style="fill:none;stroke:#f9d696;stroke-width:2.30457258px;stroke-linecap:round;stroke-linejoin:miter;stroke-opacity:1"
       d="m 120.13709,965.53087 0.582,-380.62308"
       id="path3768-3"
       inkscape:connector-curvature="0" />
    <path
       id="path6049"
       style="fill:#394050"
       inkscape:connector-curvature="0"
       d="m 349.51278,693.46824 c -19.32557,0 -34.99216,15.66659 -34.99216,34.99217 0,19.32557 15.66659,34.99216 34.99216,34.99216 19.32558,0 34.99217,-15.66659 34.99217,-34.99216 0,-19.32558 -15.66659,-34.99217 -34.99217,-34.99217 z m -0.72544,6.82774 c 0.24157,-0.006 0.48241,0 0.72544,0 15.55462,0 28.16443,12.60981 28.16443,28.16443 0,15.55461 -12.60981,28.16442 -28.16443,28.16442 -15.55461,0 -28.16442,-12.60981 -28.16442,-28.16442 0,-15.31189 12.22029,-27.77901 27.43898,-28.16443 z" />
    <path
       id="path6078"
       style="fill:#394050"
       inkscape:connector-curvature="0"
       d="m 237.07664,785.9073 c 4.69441,-4.96206 9.4653,-8.07141 10.65605,-6.9445 l 11.67988,11.05002 c -1.19089,-1.12665 -5.96198,1.98257 -10.65605,6.94449 -4.69442,4.96206 -7.53442,9.89784 -6.34366,11.02441 l -11.68124,-11.05411 c -1.19089,-1.12665 1.64924,-6.06235 6.34366,-11.02441 z" />
    <path
       id="path6074"
       style="fill:#333333"
       inkscape:connector-curvature="0"
       d="m 242.41081,807.97796 c 1.1909,1.12665 5.96199,-1.98257 10.65605,-6.94448 4.69442,-4.96207 7.53442,-9.89785 6.34366,-11.02441 -1.1909,-1.12665 -5.96198,1.98257 -10.65606,6.94448 -4.69441,4.96207 -7.5344,9.89784 -6.34365,11.02441 z" />
    <path
       id="path6076"
       sodipodi:nodetypes="sssssss"
       style="fill:#333333"
       inkscape:connector-curvature="0"
       d="m 249.56526,797.7227 c 3.7556,-3.96964 7.40332,-6.61676 8.14754,-5.91282 l 10.77929,10.19757 c 0.7443,0.70414 -1.69672,4.49299 -5.45229,8.46264 -3.75556,3.96965 -7.40332,6.61677 -8.14753,5.91283 l -10.77862,-10.20065 c -0.74429,-0.70415 1.69673,-4.49299 5.45229,-8.46264 z" />
    <path
       id="path6034"
       style="fill:#394050"
       inkscape:connector-curvature="0"
       d="m 349.51278,720.09642 c -9.42706,0 -17.06935,1.83414 -17.06935,4.09664 v 22.19016 c 0,-2.26251 7.64229,-4.09664 17.06935,-4.09664 9.42707,0 17.06935,1.83413 17.06935,4.09664 v -22.19016 c 0,-2.2625 -7.64228,-4.09664 -17.06935,-4.09664 z" />
    <path
       id="path6032"
       style="fill:#333333"
       inkscape:connector-curvature="0"
       d="m 366.58213,746.3781 c 0,2.26251 -7.64228,4.09665 -17.06935,4.09665 -9.42706,0 -17.06935,-1.83414 -17.06935,-4.09665 0,-2.26251 7.64229,-4.09665 17.06935,-4.09665 9.42707,0 17.06935,1.83414 17.06935,4.09665 z" />
    <path
       id="path6005"
       sodipodi:nodetypes="sssssss"
       style="fill:#333333"
       inkscape:connector-curvature="0"
       d="m 349.51278,743.82452 c -7.54158,0 -13.65547,1.14635 -13.65547,2.56041 v 20.47878 c 0,1.41406 6.11389,2.5604 13.65547,2.5604 7.54159,0 13.65548,-1.14634 13.65548,-2.5604 v -20.47878 c 0,-1.41406 -6.11389,-2.56041 -13.65548,-2.56041 z" />
    <path
       id="path6062"
       d="m 461.89736,785.9073 c -4.69441,-4.96206 -9.46528,-8.07141 -10.65604,-6.9445 l -11.67987,11.05002 c 1.1909,-1.12665 5.96198,1.98257 10.65605,6.94449 4.69442,4.96206 7.53439,9.89784 6.34364,11.02441 l 11.67987,-11.05001 c 1.19089,-1.12665 -1.64924,-6.06235 -6.34365,-11.02441 z"
       style="fill:#394050"
       inkscape:connector-curvature="0" />
    <path
       id="path6058"
       d="m 456.56149,807.97796 c -1.19089,1.12665 -5.96198,-1.98257 -10.65605,-6.94448 -4.69441,-4.96207 -7.53441,-9.89785 -6.34365,-11.02441 1.19089,-1.12665 5.96198,1.98257 10.65605,6.94448 4.69441,4.96207 7.5344,9.89784 6.34365,11.02441 z"
       style="fill:#333333"
       inkscape:connector-curvature="0" />
    <path
       id="path6060"
       d="m 449.40602,797.7227 c -3.75559,-3.96964 -7.40331,-6.61676 -8.14754,-5.91282 l -10.77929,10.19757 c -0.74429,0.70414 1.69673,4.49299 5.45229,8.46264 3.75556,3.96965 7.40332,6.61677 8.14754,5.91283 l 10.7793,-10.19758 c 0.74429,-0.70415 -1.69673,-4.49299 -5.4523,-8.46264 z"
       sodipodi:nodetypes="sssssss"
       style="fill:#333333"
       inkscape:connector-curvature="0" />
    <path
       transform="matrix(0.34138697,0,0,0.34138697,224.90653,692.65745)"
       id="path5983"
       sodipodi:rx="365.03424"
       sodipodi:ry="365.03424"
       style="fill:#394050"
       sodipodi:type="arc"
       d="m 730.03424,577.36218 a 365.03424,365.03424 0 1 1 -730.06848072,0 365.03424,365.03424 0 1 1 730.06848072,0 z"
       sodipodi:cy="577.36218"
       sodipodi:cx="365" />
    <path
       transform="matrix(0.34138697,0,0,0.34138697,224.90653,692.65745)"
       id="path5995"
       sodipodi:rx="335"
       sodipodi:ry="335"
       style="fill:#5d6a7b"
       sodipodi:type="arc"
       d="m 700,577.36218 a 335,335 0 1 1 -670,0 335,335 0 1 1 670,0 z"
       sodipodi:cy="577.36218"
       sodipodi:cx="365" />
    <path
       id="path5997"
       sodipodi:rx="335"
       sodipodi:ry="335"
       style="fill:#ffffff"
       sodipodi:type="arc"
       d="m 700,577.36218 a 335,335 0 1 1 -670,0 335,335 0 1 1 670,0 z"
       transform="matrix(0.32100617,0,0,0.32100617,232.3457,704.42471)"
       sodipodi:cy="577.36218"
       sodipodi:cx="365" />
    <rect
       id="rect6952"
       style="fill:#000000"
       inkscape:transform-center-y="-98.660875"
       height="16.386574"
       width="0.85346746"
       y="782.90643"
       x="349.08603" />
    <rect
       id="rect6954"
       style="fill:#000000"
       inkscape:transform-center-x="49.330428"
       inkscape:transform-center-y="-85.442814"
       transform="matrix(0.8660254,-0.5,0.5,0.8660254,0,0)"
       height="16.386574"
       width="0.85346746"
       y="838.45807"
       x="-142.62053" />
    <rect
       id="rect6956"
       style="fill:#000000"
       inkscape:transform-center-x="85.442779"
       inkscape:transform-center-y="-49.330388"
       transform="matrix(0.49998488,-0.86603413,0.86603413,0.49998488,0,0)"
       height="16.386574"
       width="0.85346746"
       y="640.7049"
       x="-596.23566" />
    <rect
       id="rect6958"
       style="fill:#000000"
       inkscape:transform-center-x="98.660819"
       transform="matrix(0,-1,1,0,0,0)"
       height="16.386574"
       width="0.85346746"
       y="242.65868"
       x="-890.18738"
       inkscape:transform-center-y="3.0176801e-05" />
    <rect
       id="rect6960"
       style="fill:#000000"
       inkscape:transform-center-x="85.442802"
       inkscape:transform-center-y="49.330399"
       transform="matrix(-0.5,-0.8660254,0.8660254,-0.5,0,0)"
       height="16.386574"
       width="0.85346746"
       y="-249.04723"
       x="-945.73895" />
    <rect
       id="rect6962"
       style="fill:#000000"
       inkscape:transform-center-x="49.330403"
       inkscape:transform-center-y="85.442812"
       transform="matrix(-0.8660254,-0.5,0.5,-0.8660254,0,0)"
       height="16.386574"
       width="0.85346746"
       y="-702.65356"
       x="-747.99432" />
    <rect
       id="rect6964"
       style="fill:#000000"
       inkscape:transform-center-y="98.660788"
       transform="scale(-1,-1)"
       height="16.386574"
       width="0.85346746"
       y="-996.61469"
       x="-349.93951"
       inkscape:transform-center-x="-1.1578273e-05" />
    <rect
       id="rect6966"
       style="fill:#000000"
       inkscape:transform-center-x="-49.330407"
       inkscape:transform-center-y="85.44281"
       transform="matrix(-0.8660254,0.5,-0.5,-0.8660254,0,0)"
       height="16.386574"
       width="0.85346746"
       y="-1052.1664"
       x="141.76709" />
    <rect
       id="rect6968"
       style="fill:#000000"
       inkscape:transform-center-x="-85.44278"
       inkscape:transform-center-y="49.330406"
       transform="matrix(-0.5,0.8660254,-0.8660254,-0.5,0,0)"
       height="16.386574"
       width="0.85346746"
       y="-854.42163"
       x="595.37268" />
    <rect
       id="rect6970"
       style="fill:#000000"
       inkscape:transform-center-x="-98.660782"
       transform="matrix(0,1,-1,0,0,0)"
       height="16.386574"
       width="0.85346746"
       y="-456.36685"
       x="889.33392"
       inkscape:transform-center-y="4.3051405e-05" />
    <rect
       id="rect6972"
       style="fill:#000000"
       inkscape:transform-center-x="-85.442797"
       inkscape:transform-center-y="-49.330373"
       transform="matrix(0.49998488,0.86603413,-0.86603413,0.49998488,0,0)"
       height="16.386574"
       width="0.85346746"
       y="35.326546"
       x="944.88818" />
    <rect
       id="rect6974"
       style="fill:#000000"
       inkscape:transform-center-x="-49.330394"
       inkscape:transform-center-y="-85.442788"
       transform="matrix(0.8660254,0.5,-0.5,0.8660254,0,0)"
       height="16.386574"
       width="0.85346746"
       y="488.94547"
       x="747.14081" />
    <rect
       id="rect6978"
       style="fill:#000000"
       inkscape:transform-center-x="10.741059"
       inkscape:transform-center-y="-102.1946"
       transform="matrix(0.99452171,-0.1045302,0.1045302,0.99452171,0,0)"
       height="8.1932869"
       width="0.68277395"
       y="814.56659"
       x="254.25023" />
    <rect
       id="rect6980"
       style="fill:#000000"
       inkscape:transform-center-x="21.364467"
       inkscape:transform-center-y="-100.512"
       transform="matrix(0.9781476,-0.20791169,0.20791169,0.9781476,0,0)"
       height="8.1932869"
       width="0.68277395"
       y="836.13049"
       x="156.54073" />
    <rect
       id="rect6982"
       style="fill:#000000"
       inkscape:transform-center-x="31.753806"
       inkscape:transform-center-y="-97.728175"
       transform="matrix(0.95105651,-0.309017,0.309017,0.95105651,0,0)"
       height="8.1932869"
       width="0.68277395"
       y="847.36621"
       x="57.113319" />
    <rect
       id="rect6984"
       style="fill:#000000"
       inkscape:transform-center-x="41.795238"
       inkscape:transform-center-y="-93.873663"
       transform="matrix(0.91354546,-0.40673664,0.40673664,0.91354546,0,0)"
       height="8.1932869"
       width="0.68277395"
       y="848.14453"
       x="-42.944031" />
    <rect
       id="rect6986"
       style="fill:#000000"
       inkscape:transform-center-x="60.399344"
       inkscape:transform-center-y="-83.132567"
       transform="matrix(0.80901699,-0.58778525,0.58778525,0.80901699,0,0)"
       height="8.1932869"
       width="0.68277395"
       y="818.4173"
       x="-240.5683" />
    <rect
       id="rect6988"
       style="fill:#000000"
       inkscape:transform-center-x="68.758147"
       inkscape:transform-center-y="-76.36367"
       transform="matrix(0.74314297,-0.66913267,0.66913267,0.74314297,0,0)"
       height="8.1932554"
       width="0.68277121"
       y="788.23706"
       x="-335.97006" />
    <rect
       id="rect6990"
       style="fill:#000000"
       inkscape:transform-center-x="76.363696"
       inkscape:transform-center-y="-68.758189"
       transform="matrix(0.66913267,-0.74314297,0.74314297,0.66913267,0,0)"
       height="8.1932554"
       width="0.68277121"
       y="748.25208"
       x="-427.69089" />
    <rect
       id="rect6992"
       style="fill:#000000"
       inkscape:transform-center-x="83.13256"
       inkscape:transform-center-y="-60.399354"
       transform="matrix(0.58778525,-0.80901699,0.80901699,0.58778525,0,0)"
       height="8.1932869"
       width="0.68277395"
       y="698.89758"
       x="-514.73358" />
    <rect
       id="rect6994"
       style="fill:#000000"
       inkscape:transform-center-x="93.873637"
       inkscape:transform-center-y="-41.79524"
       transform="matrix(0.40672069,-0.91355256,0.91355256,0.40672069,0,0)"
       height="8.1932869"
       width="0.68277395"
       y="574.3313"
       x="-671.0285" />
    <rect
       id="rect6996"
       style="fill:#000000"
       inkscape:transform-center-x="97.728163"
       inkscape:transform-center-y="-31.753791"
       transform="matrix(0.3090004,-0.95106191,0.95106191,0.3090004,0,0)"
       height="8.1932869"
       width="0.68277395"
       y="500.49329"
       x="-738.55591" />
    <rect
       id="rect6998"
       style="fill:#000000"
       inkscape:transform-center-x="100.51199"
       inkscape:transform-center-y="-21.364483"
       transform="matrix(0.20789462,-0.97815123,0.97815123,0.20789462,0,0)"
       height="8.1932869"
       width="0.68277395"
       y="420.00031"
       x="-797.99872" />
    <rect
       id="rect7000"
       style="fill:#000000"
       inkscape:transform-center-x="102.19457"
       inkscape:transform-center-y="-10.741057"
       transform="matrix(0.10454582,-0.99452007,0.99452007,0.10454582,0,0)"
       height="8.1932869"
       width="0.68277395"
       y="333.76056"
       x="-848.69055" />
    <rect
       id="rect7002"
       style="fill:#000000"
       inkscape:transform-center-x="102.19456"
       inkscape:transform-center-y="10.741112"
       transform="matrix(-0.10452846,-0.9945219,0.9945219,-0.10452846,0,0)"
       height="8.1932869"
       width="0.68277395"
       y="147.73871"
       x="-921.76184" />
    <rect
       id="rect7004"
       style="fill:#000000"
       inkscape:transform-center-x="100.51199"
       inkscape:transform-center-y="21.364493"
       transform="matrix(-0.20791169,-0.9781476,0.9781476,-0.20791169,0,0)"
       height="8.1932869"
       width="0.68277395"
       y="50.028996"
       x="-943.32605" />
    <rect
       id="rect7006"
       style="fill:#000000"
       inkscape:transform-center-x="97.728178"
       inkscape:transform-center-y="31.753813"
       transform="matrix(-0.309017,-0.95105651,0.95105651,-0.309017,0,0)"
       height="8.1932869"
       width="0.68277395"
       y="-49.399414"
       x="-954.56171" />
    <rect
       id="rect7008"
       style="fill:#000000"
       inkscape:transform-center-x="93.873616"
       inkscape:transform-center-y="41.795267"
       transform="matrix(-0.40673664,-0.91354546,0.91354546,-0.40673664,0,0)"
       height="8.1932869"
       width="0.68277395"
       y="-149.45676"
       x="-955.34009" />
    <rect
       id="rect7014"
       style="fill:#000000"
       inkscape:transform-center-x="83.132545"
       inkscape:transform-center-y="60.399353"
       transform="matrix(-0.58778525,-0.80901699,0.80901699,-0.58778525,0,0)"
       height="8.1932869"
       width="0.68277395"
       y="-347.07968"
       x="-925.61279" />
    <rect
       id="rect7016"
       style="fill:#000000"
       inkscape:transform-center-x="76.363673"
       inkscape:transform-center-y="68.758177"
       transform="matrix(-0.66913267,-0.74314297,0.74314297,-0.66913267,0,0)"
       height="8.1932554"
       width="0.68277121"
       y="-442.48236"
       x="-895.43207" />
    <rect
       id="rect7018"
       style="fill:#000000"
       inkscape:transform-center-x="68.758162"
       inkscape:transform-center-y="76.363688"
       transform="matrix(-0.74314297,-0.66913267,0.66913267,-0.74314297,0,0)"
       height="8.1932554"
       width="0.68277121"
       y="-534.20319"
       x="-855.44714" />
    <rect
       id="rect7020"
       style="fill:#000000"
       inkscape:transform-center-x="60.39931"
       inkscape:transform-center-y="83.132583"
       transform="matrix(-0.80901699,-0.58778525,0.58778525,-0.80901699,0,0)"
       height="8.1932869"
       width="0.68277395"
       y="-621.24628"
       x="-806.09314" />
    <rect
       id="rect7022"
       style="fill:#000000"
       inkscape:transform-center-x="41.795196"
       inkscape:transform-center-y="93.873614"
       transform="matrix(-0.91354546,-0.40673664,0.40673664,-0.91354546,0,0)"
       height="8.1932869"
       width="0.68277395"
       y="-777.53271"
       x="-681.53632" />
    <rect
       id="rect7024"
       style="fill:#000000"
       inkscape:transform-center-x="31.753718"
       inkscape:transform-center-y="97.728161"
       transform="matrix(-0.95105651,-0.309017,0.309017,-0.95105651,0,0)"
       height="8.1932869"
       width="0.68277395"
       y="-845.06104"
       x="-607.6991" />
    <rect
       id="rect7026"
       style="fill:#000000"
       inkscape:transform-center-x="21.364452"
       inkscape:transform-center-y="100.512"
       transform="matrix(-0.9781476,-0.20791169,0.20791169,-0.9781476,0,0)"
       height="8.1932869"
       width="0.68277395"
       y="-904.50507"
       x="-527.20679" />
    <rect
       id="rect7028"
       style="fill:#000000"
       inkscape:transform-center-x="10.741067"
       inkscape:transform-center-y="102.19455"
       transform="matrix(-0.9945219,-0.10452846,0.10452846,-0.9945219,0,0)"
       height="8.1932869"
       width="0.68277395"
       y="-955.20844"
       x="-440.94446" />
    <rect
       id="rect7030"
       style="fill:#000000"
       inkscape:transform-center-x="-10.741115"
       inkscape:transform-center-y="102.1946"
       transform="matrix(-0.9945219,0.10452846,-0.10452846,-0.9945219,0,0)"
       height="8.1932869"
       width="0.68277395"
       y="-1028.2745"
       x="-254.93422" />
    <rect
       id="rect7032"
       style="fill:#000000"
       inkscape:transform-center-x="-21.364549"
       inkscape:transform-center-y="100.51207"
       transform="matrix(-0.9781476,0.20791169,-0.20791169,-0.9781476,0,0)"
       height="8.1932869"
       width="0.68277395"
       y="-1049.839"
       x="-157.2235" />
    <rect
       id="rect7034"
       style="fill:#000000"
       inkscape:transform-center-x="-31.753835"
       inkscape:transform-center-y="97.728123"
       transform="matrix(-0.95105651,0.309017,-0.309017,-0.95105651,0,0)"
       height="8.1932869"
       width="0.68277395"
       y="-1061.0745"
       x="-57.796097" />
    <rect
       id="rect7036"
       style="fill:#000000"
       inkscape:transform-center-x="-41.795261"
       inkscape:transform-center-y="93.873619"
       transform="matrix(-0.91354546,0.40673664,-0.40673664,-0.91354546,0,0)"
       height="8.1932869"
       width="0.68277395"
       y="-1061.8528"
       x="42.261265" />
    <rect
       id="rect7038"
       style="fill:#000000"
       inkscape:transform-center-x="-60.399419"
       inkscape:transform-center-y="83.132609"
       transform="matrix(-0.80901699,0.58778525,-0.58778525,-0.80901699,0,0)"
       height="8.1932869"
       width="0.68277395"
       y="-1032.1256"
       x="239.88553" />
    <rect
       id="rect7040"
       style="fill:#000000"
       inkscape:transform-center-x="-68.758217"
       inkscape:transform-center-y="76.363693"
       transform="matrix(-0.74314297,0.66913267,-0.66913267,-0.74314297,0,0)"
       height="8.1932554"
       width="0.68277121"
       y="-1001.9445"
       x="335.28729" />
    <rect
       id="rect7042"
       style="fill:#000000"
       inkscape:transform-center-x="-76.363734"
       inkscape:transform-center-y="68.758178"
       transform="matrix(-0.66913267,0.74314297,-0.74314297,-0.66913267,0,0)"
       height="8.1932554"
       width="0.68277121"
       y="-961.95953"
       x="427.00812" />
    <rect
       id="rect7044"
       style="fill:#000000"
       inkscape:transform-center-x="-83.132598"
       inkscape:transform-center-y="60.399327"
       transform="matrix(-0.58778525,0.80901699,-0.80901699,-0.58778525,0,0)"
       height="8.1932869"
       width="0.68277395"
       y="-912.60583"
       x="514.05078" />
    <rect
       id="rect7046"
       style="fill:#000000"
       inkscape:transform-center-x="-93.873654"
       inkscape:transform-center-y="41.795195"
       transform="matrix(-0.40673664,0.91354546,-0.91354546,-0.40673664,0,0)"
       height="8.1932869"
       width="0.68277395"
       y="-788.04907"
       x="670.33722" />
    <rect
       id="rect7048"
       style="fill:#000000"
       inkscape:transform-center-x="-97.728211"
       inkscape:transform-center-y="31.753815"
       transform="matrix(-0.309017,0.95105651,-0.95105651,-0.309017,0,0)"
       height="8.1932869"
       width="0.68277395"
       y="-714.21179"
       x="737.8656" />
    <rect
       id="rect7050"
       style="fill:#000000"
       inkscape:transform-center-x="-100.51204"
       inkscape:transform-center-y="21.36449"
       transform="matrix(-0.20791169,0.9781476,-0.9781476,-0.20791169,0,0)"
       height="8.1932869"
       width="0.68277395"
       y="-633.71954"
       x="797.30957" />
    <rect
       id="rect7052"
       style="fill:#000000"
       inkscape:transform-center-x="-102.19461"
       inkscape:transform-center-y="10.741046"
       transform="matrix(-0.10454582,0.99452007,-0.99452007,-0.10454582,0,0)"
       height="8.1932869"
       width="0.68277395"
       y="-547.46875"
       x="848.00775" />
    <rect
       id="rect7054"
       style="fill:#000000"
       inkscape:transform-center-x="-102.19462"
       inkscape:transform-center-y="-10.741162"
       transform="matrix(0.10454582,0.99452007,-0.99452007,0.10454582,0,0)"
       height="8.1932869"
       width="0.68277395"
       y="-361.43454"
       x="921.08167" />
    <rect
       id="rect7056"
       style="fill:#000000"
       inkscape:transform-center-x="-100.51202"
       inkscape:transform-center-y="-21.364503"
       transform="matrix(0.20789462,0.97815123,-0.97815123,0.20789462,0,0)"
       height="8.1932869"
       width="0.68277395"
       y="-263.74887"
       x="942.64203" />
    <rect
       id="rect7058"
       style="fill:#000000"
       inkscape:transform-center-x="-97.728202"
       inkscape:transform-center-y="-31.753844"
       transform="matrix(0.3090004,0.95106191,-0.95106191,0.3090004,0,0)"
       height="8.1932869"
       width="0.68277395"
       y="-164.32155"
       x="953.87903" />
    <rect
       id="rect7060"
       style="fill:#000000"
       inkscape:transform-center-x="-93.87364"
       inkscape:transform-center-y="-41.795276"
       transform="matrix(0.40672069,0.91355256,-0.91355256,0.40672069,0,0)"
       height="8.1932869"
       width="0.68277395"
       y="-64.264114"
       x="954.65863" />
    <rect
       id="rect7062"
       style="fill:#000000"
       inkscape:transform-center-x="-83.132588"
       inkscape:transform-center-y="-60.399343"
       transform="matrix(0.58778525,0.80901699,-0.80901699,0.58778525,0,0)"
       height="8.1932869"
       width="0.68277395"
       y="133.37143"
       x="924.93005" />
    <rect
       id="rect7064"
       style="fill:#000000"
       inkscape:transform-center-x="-76.363729"
       inkscape:transform-center-y="-68.758199"
       transform="matrix(0.66913267,0.74314297,-0.74314297,0.66913267,0,0)"
       height="8.1932554"
       width="0.68277121"
       y="228.77498"
       x="894.74933" />
    <rect
       id="rect7066"
       style="fill:#000000"
       inkscape:transform-center-x="-68.758206"
       inkscape:transform-center-y="-76.363719"
       transform="matrix(0.74314297,0.66913267,-0.66913267,0.74314297,0,0)"
       height="8.1932554"
       width="0.68277121"
       y="320.49579"
       x="854.7644" />
    <rect
       id="rect7068"
       style="fill:#000000"
       inkscape:transform-center-x="-60.399332"
       inkscape:transform-center-y="-83.132593"
       transform="matrix(0.80901699,0.58778525,-0.58778525,0.80901699,0,0)"
       height="8.1932869"
       width="0.68277395"
       y="407.53943"
       x="805.41034" />
    <rect
       id="rect7070"
       style="fill:#000000"
       inkscape:transform-center-x="-41.795211"
       inkscape:transform-center-y="-93.873666"
       transform="matrix(0.91354546,0.40673664,-0.40673664,0.91354546,0,0)"
       height="8.1932869"
       width="0.68277395"
       y="563.82385"
       x="680.85352" />
    <rect
       id="rect7072"
       style="fill:#000000"
       inkscape:transform-center-x="-31.753787"
       inkscape:transform-center-y="-97.728232"
       transform="matrix(0.95105651,0.309017,-0.309017,0.95105651,0,0)"
       height="8.1932869"
       width="0.68277395"
       y="631.35284"
       x="607.01624" />
    <rect
       id="rect7074"
       style="fill:#000000"
       inkscape:transform-center-x="-21.364519"
       inkscape:transform-center-y="-100.51201"
       transform="matrix(0.9781476,0.20791169,-0.20791169,0.9781476,0,0)"
       height="8.1932869"
       width="0.68277395"
       y="690.79681"
       x="526.52405" />
    <rect
       id="rect7076"
       style="fill:#000000"
       inkscape:transform-center-x="-10.741097"
       inkscape:transform-center-y="-102.19458"
       transform="matrix(0.99452171,0.1045302,-0.1045302,0.99452171,0,0)"
       height="8.1932869"
       width="0.68277395"
       y="741.49976"
       x="440.26285" />
    <path
       id="rect7078"
       style="fill:#000000"
       d="m 347.44397,782.92358 -0.34138,0.0107 0.12802,6.14496 0.34139,-0.0107 -0.12803,-6.14496 z m -2.22966,0.0747 -0.34139,0.0107 0.25604,6.14497 0.3414,-0.0213 -0.25605,-6.13438 z m -2.24035,0.10668 -0.34139,0.0213 0.38406,6.13438 0.34139,-0.0213 -0.38406,-6.13439 z m -2.22966,0.16003 -0.3414,0.032 0.51209,6.1238 0.34138,-0.032 -0.51207,-6.12379 z"
       inkscape:transform-center-x="5.5262037"
       inkscape:transform-center-y="-103.59055"
       inkscape:connector-curvature="0" />
    <path
       id="path7234"
       style="fill:#000000"
       d="m 336.28745,783.72242 -0.3384,0.0463 0.76966,6.09786 0.3384,-0.0463 -0.76966,-6.09785 z m -2.20966,0.30734 -0.3384,0.0463 0.89696,6.08455 0.33729,-0.0569 -0.89584,-6.07396 z m -2.21693,0.34028 -0.33729,0.0569 1.02318,6.06065 0.33728,-0.0569 -1.02317,-6.06064 z m -2.20075,0.39222 -0.33617,0.0675 1.14938,6.0364 0.33617,-0.0675 -1.14938,-6.0364 z"
       inkscape:transform-center-x="16.322973"
       inkscape:transform-center-y="-102.46552"
       inkscape:connector-curvature="0" />
    <path
       id="path7236"
       style="fill:#000000"
       d="m 325.27431,785.68881 -0.33171,0.0814 1.40283,5.98417 0.33171,-0.0814 -1.40283,-5.98416 z m -2.16542,0.53663 -0.3317,0.0814 1.52805,5.95754 0.32948,-0.0918 -1.52582,-5.94696 z m -2.16921,0.57014 -0.32949,0.0919 1.65105,5.92034 0.32949,-0.0919 -1.65105,-5.92034 z m -2.1477,0.6201 -0.32726,0.10226 1.77404,5.88347 0.32728,-0.10226 -1.77405,-5.88347 z"
       inkscape:transform-center-x="26.940907"
       inkscape:transform-center-y="-100.21783"
       inkscape:connector-curvature="0" />
    <path
       id="path7238"
       style="fill:#000000"
       d="m 314.53086,788.79201 -0.32138,0.11566 2.02067,5.80461 0.32138,-0.11566 -2.02064,-5.80461 z m -2.09748,0.76004 -0.32137,0.11566 2.14241,5.765 0.31808,-0.12579 -2.1391,-5.7551 z m -2.09773,0.79375 -0.31808,0.12579 2.26087,5.7155 0.31809,-0.12578 -2.26088,-5.71551 z m -2.07112,0.84122 -0.31478,0.13591 2.37933,5.66566 0.31479,-0.13592 -2.37933,-5.66566 z"
       inkscape:transform-center-x="37.263678"
       inkscape:transform-center-y="-96.872147"
       inkscape:connector-curvature="0" />
    <path
       id="path7240"
       style="fill:#000000"
       d="m 304.16635,793.00132 -0.30753,0.14862 2.61633,5.56153 0.30752,-0.14862 -2.61632,-5.56153 z m -2.00653,0.97511 -0.30753,0.14861 2.73329,5.50964 0.30318,-0.15834 -2.72893,-5.49975 z m -2.00326,1.00869 -0.3032,0.15835 2.8459,5.44785 0.3032,-0.15835 -2.8459,-5.44786 z m -1.97186,1.05307 -0.29885,0.16808 2.95853,5.38606 0.29886,-0.16808 -2.95853,-5.38606 z"
       inkscape:transform-center-x="47.178182"
       inkscape:transform-center-y="-92.465096"
       inkscape:connector-curvature="0" />
    <path
       id="path7242"
       style="fill:#000000"
       d="m 294.30027,798.27233 -0.29031,0.17996 3.18336,5.25769 0.29031,-0.17994 -3.18334,-5.25771 z m -1.89364,1.17953 -0.2903,0.17995 3.29421,5.19352 0.28498,-0.18917 -3.28889,-5.18431 z m -1.88685,1.21257 -0.28498,0.18917 3.39977,5.12047 0.28498,-0.18917 -3.39977,-5.12047 z m -1.85097,1.25344 -0.27964,0.19839 3.50536,5.04707 0.27966,-0.1984 -3.50537,-5.04706 z"
       inkscape:transform-center-x="56.575785"
       inkscape:transform-center-y="-87.044986"
       inkscape:connector-curvature="0" />
    <path
       id="path7244"
       style="fill:#000000"
       d="m 285.03844,804.54361 -0.26991,0.20931 3.71565,4.89617 0.26991,-0.2093 -3.71565,-4.89618 z m -1.75995,1.37098 -0.26991,0.20931 3.8191,4.82072 0.26365,-0.21793 -3.81295,-4.81218 z m -1.74978,1.40317 -0.26365,0.21792 3.91639,4.73708 0.26365,-0.21792 -3.91639,-4.73708 z m -1.70981,1.44003 -0.25737,0.22654 4.01368,4.65311 0.25739,-0.22654 -4.01368,-4.65311 z"
       inkscape:transform-center-x="65.353533"
       inkscape:transform-center-y="-80.671189"
       inkscape:connector-curvature="0" />
    <path
       id="path7246"
       style="fill:#000000"
       d="m 276.4867,811.75029 -0.24656,0.23638 4.20691,4.48105 0.24656,-0.23638 -4.20691,-4.48104 z m -1.60701,1.54744 -0.24655,0.23637 4.30215,4.39536 0.23943,-0.24429 -4.29499,-4.3875 z m -1.59353,1.57837 -0.23943,0.24429 4.38989,4.30181 0.23943,-0.24429 -4.38989,-4.30181 z m -1.5499,1.61087 -0.23229,0.2522 4.47798,4.20793 0.2323,-0.2522 -4.47797,-4.20794 z"
       inkscape:transform-center-x="73.415254"
       inkscape:transform-center-y="-73.413547"
       inkscape:connector-curvature="0" />
    <path
       id="path7248"
       style="fill:#000000"
       d="m 268.73039,819.81044 -0.2205,0.26085 4.65242,4.01676 0.22049,-0.26085 -4.65242,-4.01675 z m -1.43646,1.70694 -0.22049,0.26084 4.73777,3.92151 0.21258,-0.26797 -4.72992,-3.91435 z m -1.4198,1.73629 -0.21258,0.26797 4.81561,3.8191 0.21259,-0.26798 -4.81561,-3.81909 z m -1.37302,1.76408 -0.20465,0.27509 4.89344,3.71703 0.20467,-0.27511 -4.89345,-3.71702 z"
       inkscape:transform-center-x="80.672626"
       inkscape:transform-center-y="-65.351563"
       inkscape:connector-curvature="0" />
    <path
       id="path7250"
       style="fill:#000000"
       d="m 261.86168,828.63871 -0.19202,0.28247 5.04673,3.50843 0.19201,-0.28246 -5.04672,-3.50844 z m -1.25016,1.84775 -0.19201,0.28247 5.12183,3.40478 0.1834,-0.28872 -5.1133,-3.39851 z m -1.23053,1.87517 -0.18341,0.28873 5.18841,3.29493 0.1834,-0.28873 -5.18839,-3.29493 z m -1.18113,1.89791 -0.17478,0.29498 5.25497,3.18511 0.17479,-0.29499 -5.25497,-3.18511 z"
       inkscape:transform-center-x="87.046129"
       inkscape:transform-center-y="-56.573573"
       inkscape:connector-curvature="0" />
    <path
       id="path7252"
       style="fill:#000000"
       d="m 255.95261,838.13268 -0.16144,0.30099 5.38572,2.9616 0.16144,-0.30099 -5.38572,-2.96163 z m -1.05017,1.9683 -0.16144,0.30098 5.44956,2.85076 0.15222,-0.30632 -5.44034,-2.84543 z m -1.02778,1.99353 -0.15222,0.30632 5.50452,2.73454 0.15222,-0.30632 -5.50452,-2.73454 z m -0.97627,2.01097 -0.14298,0.31163 5.55914,2.61835 0.14299,-0.31166 -5.55914,-2.61833 z"
       inkscape:transform-center-x="92.465931"
       inkscape:transform-center-y="-47.175753"
       inkscape:connector-curvature="0" />
    <path
       id="path7254"
       style="fill:#000000"
       d="m 251.06873,848.19677 -0.12909,0.31622 5.66565,2.38244 0.1291,-0.31623 -5.66566,-2.38243 z m -0.83868,2.0673 -0.1291,0.3162 5.71789,2.26547 0.11937,-0.32052 -5.70799,-2.26115 z m -0.81377,2.09005 -0.11937,0.32056 5.76022,2.14418 0.11937,-0.32057 -5.76022,-2.14417 z m -0.76071,2.10201 -0.10963,0.32487 5.80255,2.02289 0.10964,-0.32487 -5.80256,-2.02289 z"
       inkscape:transform-center-x="96.872659"
       inkscape:transform-center-y="-37.26107"
       inkscape:connector-curvature="0" />
    <path
       id="path7256"
       style="fill:#000000"
       d="m 247.26328,858.71491 -0.0953,0.32796 5.8838,1.77716 0.0953,-0.32797 -5.88381,-1.77715 z m -0.61797,2.14363 -0.0953,0.32797 5.92341,1.65538 0.0851,-0.33127 -5.91317,-1.65211 z m -0.59084,2.16368 -0.0852,0.33128 5.95277,1.53033 0.0852,-0.33128 -5.95277,-1.53033 z m -0.53683,2.17002 -0.0751,0.33456 5.98213,1.40529 0.0751,-0.33456 -5.98212,-1.40529 z"
       inkscape:transform-center-x="100.21806"
       inkscape:transform-center-y="-26.938146"
       inkscape:connector-curvature="0" />
    <path
       id="path7258"
       style="fill:#000000"
       d="m 244.57794,869.57102 -0.0606,0.33617 6.03743,1.15238 0.0606,-0.33616 -6.03742,-1.15239 z m -0.39055,2.19649 -0.0605,0.33613 6.06405,1.02716 0.0501,-0.33834 -6.05348,-1.02495 z m -0.36146,2.21355 -0.0501,0.33836 6.08011,0.89972 0.0501,-0.33835 -6.08011,-0.89973 z m -0.30704,2.21424 -0.0397,0.34057 6.09615,0.77228 0.0397,-0.34056 -6.09615,-0.77229 z"
       inkscape:transform-center-x="102.46541"
       inkscape:transform-center-y="-16.320089"
       inkscape:connector-curvature="0" />
    <path
       id="path7260"
       style="fill:#000000"
       d="m 243.04272,880.65245 -0.025,0.34064 6.12483,0.51501 0.025,-0.34064 -6.12483,-0.51501 z m -0.15879,2.2253 -0.025,0.34063 6.13814,0.38765 0.0144,-0.34173 -6.12755,-0.38659 z m -0.1281,2.23922 -0.0144,0.34176 6.14088,0.25925 0.0144,-0.34176 -6.14088,-0.25925 z m -0.0739,2.23421 -0.004,0.34285 6.1436,0.13083 0.004,-0.34287 -6.1436,-0.13081 z"
       inkscape:transform-center-x="103.59019"
       inkscape:transform-center-y="-5.5232077"
       inkscape:connector-curvature="0" />
    <path
       id="path7262"
       style="fill:#000000"
       d="m 242.67368,891.82945 0.0107,0.3414 6.14496,-0.12803 -0.0107,-0.34138 -6.14497,0.12801 z m 0.0747,2.22971 0.0107,0.34138 6.14496,-0.25604 -0.0213,-0.34138 -6.13439,0.25604 z m 0.10667,2.24035 0.0213,0.34139 6.13438,-0.38406 -0.0213,-0.34139 -6.13439,0.38406 z m 0.16003,2.2297 0.032,0.34139 6.12347,-0.51208 -0.032,-0.34139 -6.1238,0.51208 z"
       inkscape:transform-center-x="103.59056"
       inkscape:transform-center-y="5.5262073"
       inkscape:connector-curvature="0" />
    <path
       id="path7264"
       style="fill:#000000"
       d="m 243.47526,902.98599 0.0463,0.33841 6.09785,-0.76965 -0.0463,-0.33842 -6.09785,0.76962 z m 0.30734,2.20965 0.0463,0.33839 6.08454,-0.89696 -0.0569,-0.3373 -6.07396,0.89584 z m 0.34027,2.21694 0.0569,0.33729 6.06064,-1.02318 -0.0569,-0.33728 -6.06064,1.02317 z m 0.39221,2.20075 0.0675,0.33616 6.03641,-1.14934 -0.0675,-0.33617 -6.03641,1.14938 z"
       inkscape:transform-center-x="102.46552"
       inkscape:transform-center-y="16.322979"
       inkscape:connector-curvature="0" />
    <path
       id="path7266"
       style="fill:#000000"
       d="m 245.43857,913.99913 0.0814,0.33169 5.98417,-1.40283 -0.0814,-0.33169 -5.98417,1.40283 z m 0.53663,2.16545 0.0814,0.33169 5.95755,-1.52805 -0.0919,-0.3295 -5.94695,1.52582 z m 0.57015,2.16921 0.0918,0.3295 5.92033,-1.65105 -0.0919,-0.3295 -5.92033,1.65105 z m 0.62013,2.14769 0.10227,0.32726 5.88346,-1.77405 -0.10226,-0.32726 -5.88346,1.77405 z"
       inkscape:transform-center-x="100.21784"
       inkscape:transform-center-y="26.940919"
       inkscape:connector-curvature="0" />
    <path
       id="path7268"
       style="fill:#000000"
       d="m 248.54247,924.74599 0.11565,0.32138 5.80461,-2.02067 -0.11565,-0.32138 -5.80461,2.02064 z m 0.76003,2.09748 0.11565,0.32135 5.76499,-2.14241 -0.12579,-0.31807 -5.75509,2.13909 z m 0.79375,2.09772 0.12579,0.31811 5.7155,-2.26088 -0.12579,-0.3181 -5.7155,2.26087 z m 0.84122,2.07113 0.13591,0.31479 5.66566,-2.37933 -0.13592,-0.31483 -5.66565,2.37937 z"
       inkscape:transform-center-x="96.872144"
       inkscape:transform-center-y="37.263685"
       inkscape:connector-curvature="0" />
    <path
       id="path7270"
       style="fill:#000000"
       d="m 252.75211,935.10708 0.14862,0.30753 5.56153,-2.61633 -0.14861,-0.30752 -5.56153,2.61632 z m 0.9751,2.00654 0.14861,0.30752 5.50965,-2.73328 -0.15836,-0.30322 -5.49974,2.72895 z m 1.0087,2.00326 0.15834,0.30319 5.44785,-2.84591 -0.15834,-0.30319 -5.44785,2.84591 z m 1.05311,1.97185 0.16807,0.29885 5.38606,-2.9585 -0.16807,-0.29884 -5.38607,2.95852 z"
       inkscape:transform-center-x="92.465101"
       inkscape:transform-center-y="47.178183"
       inkscape:connector-curvature="0" />
    <path
       id="path7272"
       style="fill:#000000"
       d="m 258.0221,944.97317 0.17995,0.29031 5.2577,-3.18336 -0.17994,-0.29032 -5.2577,3.18334 z m 1.17952,1.89363 0.17994,0.29029 5.19352,-3.29422 -0.18917,-0.28495 -5.1843,3.28888 z m 1.21254,1.88686 0.18917,0.28498 5.12047,-3.39973 -0.18917,-0.28499 -5.12047,3.39974 z m 1.25344,1.85095 0.19839,0.27964 5.04707,-3.50536 -0.1984,-0.27963 -5.04707,3.50535 z"
       inkscape:transform-center-x="87.044983"
       inkscape:transform-center-y="56.575789"
       inkscape:connector-curvature="0" />
    <path
       id="path7274"
       style="fill:#000000"
       d="m 264.29577,954.235 0.2093,0.26989 4.89618,-3.71565 -0.2093,-0.2699 -4.89617,3.71531 z m 1.37101,1.75995 0.20929,0.2699 4.82073,-3.81909 -0.21792,-0.26366 -4.8122,3.81295 z m 1.40313,1.74978 0.21793,0.26365 4.73708,-3.91639 -0.21793,-0.26366 -4.73708,3.9164 z m 1.44004,1.7098 0.22654,0.25737 4.6531,-4.01368 -0.22654,-0.25741 -4.6531,4.01368 z"
       inkscape:transform-center-x="80.671191"
       inkscape:transform-center-y="65.353537"
       inkscape:connector-curvature="0" />
    <path
       id="path7276"
       style="fill:#000000"
       d="m 271.50244,962.79015 0.23639,0.24655 4.48104,-4.20691 -0.23636,-0.24655 -4.48105,4.20691 z m 1.54745,1.60702 0.23636,0.24654 4.39535,-4.30216 -0.24429,-0.23944 -4.3875,4.29499 z m 1.57836,1.59352 0.24429,0.23941 4.30182,-4.38989 -0.24429,-0.23941 -4.30182,4.38989 z m 1.61091,1.5499 0.25219,0.23227 4.20794,-4.47796 -0.2522,-0.23232 -4.20794,4.47797 z"
       inkscape:transform-center-x="73.413547"
       inkscape:transform-center-y="73.415257"
       inkscape:connector-curvature="0" />
    <path
       id="path7278"
       style="fill:#000000"
       d="m 279.56259,970.54305 0.26086,0.2205 4.01676,-4.65242 -0.26084,-0.2205 -4.01677,4.65208 z m 1.70697,1.43646 0.26084,0.22046 3.92151,-4.73777 -0.26798,-0.21254 -3.91435,4.72991 z m 1.73626,1.41979 0.26799,0.21259 3.81909,-4.81561 -0.26798,-0.21259 -3.8191,4.81561 z m 1.76409,1.37302 0.27509,0.20467 3.71702,-4.89344 -0.2751,-0.2047 -3.71702,4.89344 z"
       inkscape:transform-center-x="65.351562"
       inkscape:transform-center-y="80.672632"
       inkscape:connector-curvature="0" />
    <path
       id="path7280"
       style="fill:#000000"
       d="m 288.38745,977.41176 0.28247,0.19203 3.50844,-5.04673 -0.28246,-0.19202 -3.50844,5.04672 z m 1.84775,1.25016 0.28246,0.192 3.40478,-5.12183 -0.28873,-0.1834 -3.39851,5.1133 z m 1.87517,1.23052 0.28874,0.1834 3.29497,-5.1884 -0.28874,-0.18339 -3.29497,5.18839 z m 1.89794,1.18113 0.29499,0.17476 3.1851,-5.25496 -0.29499,-0.17479 -3.18511,5.25496 z"
       inkscape:transform-center-x="56.573574"
       inkscape:transform-center-y="87.046132"
       inkscape:connector-curvature="0" />
    <path
       id="path7282"
       style="fill:#000000"
       d="m 297.88483,983.32117 0.30101,0.16144 2.96159,-5.38572 -0.30098,-0.16144 -2.96163,5.38572 z m 1.9683,1.05017 0.30098,0.16144 2.85075,-5.44956 -0.30632,-0.15222 -2.84543,5.44034 z m 1.99353,1.02778 0.30632,0.15223 2.73454,-5.50453 -0.30632,-0.15223 -2.73454,5.50453 z m 2.01101,0.97626 0.31163,0.14298 2.61834,-5.55914 -0.31164,-0.14298 -2.61835,5.55914 z"
       inkscape:transform-center-x="47.175753"
       inkscape:transform-center-y="92.465936"
       inkscape:connector-curvature="0" />
    <path
       id="path7284"
       style="fill:#000000"
       d="m 307.94892,988.20641 0.31623,0.12908 2.38244,-5.66565 -0.31622,-0.12908 -2.38243,5.66565 z m 2.0673,0.83869 0.3162,0.12908 2.26548,-5.71789 -0.32055,-0.11935 -2.26115,5.70799 z m 2.09004,0.81377 0.32056,0.11937 2.14421,-5.76022 -0.32056,-0.11937 -2.14418,5.76022 z m 2.10202,0.76071 0.32487,0.10962 2.02289,-5.80256 -0.32488,-0.10965 -2.02289,5.80255 z"
       inkscape:transform-center-x="37.261075"
       inkscape:transform-center-y="96.87267"
       inkscape:connector-curvature="0" />
    <path
       id="path7286"
       style="fill:#000000"
       d="m 318.46705,992.00946 0.32799,0.0954 1.77713,-5.88381 -0.32797,-0.0953 -1.77716,5.8838 z m 2.14364,0.61798 0.32797,0.0953 1.65538,-5.92341 -0.33127,-0.0851 -1.65211,5.91316 z m 2.16364,0.59084 0.33128,0.0852 1.53037,-5.95277 -0.33128,-0.0852 -1.53035,5.95277 z m 2.17002,0.53683 0.33455,0.0751 1.40529,-5.98213 -0.33456,-0.0751 -1.40528,5.98216 z"
       inkscape:transform-center-x="26.938149"
       inkscape:transform-center-y="100.2181"
       inkscape:connector-curvature="0" />
    <path
       id="path7288"
       style="fill:#000000"
       d="m 329.32316,994.69618 0.33616,0.0606 1.15238,-6.03743 -0.33613,-0.0605 -1.15243,6.03743 z m 2.19651,0.39055 0.33614,0.0605 1.02717,-6.06405 -0.33837,-0.0501 -1.02495,6.05348 z m 2.21356,0.36146 0.33837,0.0501 0.89975,-6.08011 -0.33837,-0.0501 -0.89973,6.0801 z m 2.21424,0.30704 0.34056,0.0397 0.77228,-6.09615 -0.34057,-0.0397 -0.77229,6.09615 z"
       inkscape:transform-center-x="16.320089"
       inkscape:transform-center-y="102.46547"
       inkscape:connector-curvature="0" />
    <path
       id="path7290"
       style="fill:#000000"
       d="m 340.40458,996.23242 0.34065,0.0249 0.51501,-6.12483 -0.34062,-0.0249 -0.51502,6.12482 z m 2.22529,0.15878 0.34063,0.0249 0.38768,-6.13813 -0.34173,-0.0143 -0.38659,6.12755 z m 2.23923,0.12809 0.34176,0.0143 0.25927,-6.14088 -0.34176,-0.0143 -0.25926,6.14087 z m 2.23421,0.0739 0.34285,0.004 0.13083,-6.14356 -0.34285,-0.004 -0.13081,6.1436 z"
       inkscape:transform-center-x="5.5232135"
       inkscape:transform-center-y="103.59023"
       inkscape:connector-curvature="0" />
    <path
       id="path7292"
       style="fill:#000000"
       d="m 351.58159,996.60112 0.34139,-0.0105 -0.12803,-6.14496 -0.34137,0.0105 0.12799,6.14497 z m 2.2297,-0.0747 0.34137,-0.0105 -0.25604,-6.14497 -0.34138,0.0215 0.25604,6.13438 z m 2.24032,-0.10665 0.34138,-0.0212 -0.38406,-6.13438 -0.34142,0.0212 0.38406,6.13439 z m 2.2297,-0.16005 0.34137,-0.032 -0.51208,-6.12346 -0.34139,0.0321 0.51208,6.1238 z"
       inkscape:transform-center-x="-5.5262088"
       inkscape:transform-center-y="103.59061"
       inkscape:connector-curvature="0" />
    <path
       id="path7294"
       style="fill:#000000"
       d="m 362.73812,995.79886 0.33841,-0.0463 -0.76966,-6.09785 -0.33839,0.0463 0.76963,6.09786 z m 2.20969,-0.30735 0.33838,-0.0463 -0.89696,-6.08454 -0.33727,0.0569 0.89582,6.07395 z m 2.2169,-0.34026 0.3373,-0.0569 -1.02314,-6.06064 -0.33731,0.0569 1.02317,6.06064 z m 2.20075,-0.39222 0.33616,-0.0675 -1.14935,-6.03641 -0.33617,0.0675 1.14938,6.03641 z"
       inkscape:transform-center-x="-16.322982"
       inkscape:transform-center-y="102.46552"
       inkscape:connector-curvature="0" />
    <path
       id="path7296"
       style="fill:#000000"
       d="m 373.75126,993.83588 0.33171,-0.0814 -1.40282,-5.98418 -0.3317,0.0814 1.4028,5.98417 z m 2.16545,-0.53662 0.33169,-0.0814 -1.52805,-5.95755 -0.32948,0.0919 1.52583,5.94696 z m 2.16921,-0.57015 0.3295,-0.0919 -1.65105,-5.92033 -0.32951,0.0919 1.65105,5.92034 z m 2.1477,-0.6201 0.32726,-0.10227 -1.77406,-5.88347 -0.32728,0.10225 1.77405,5.88346 z"
       inkscape:transform-center-x="-26.940917"
       inkscape:transform-center-y="100.21783"
       inkscape:connector-curvature="0" />
    <path
       id="path7298"
       style="fill:#000000"
       d="m 384.49471,990.73268 0.32139,-0.11566 -2.02067,-5.80461 -0.32137,0.11566 2.02064,5.80461 z m 2.09752,-0.76003 0.32135,-0.11567 -2.14241,-5.765 -0.31807,0.12584 2.1391,5.7551 z m 2.09771,-0.79376 0.3181,-0.12581 -2.26083,-5.71549 -0.31812,0.1258 2.26088,5.7155 z m 2.07113,-0.84121 0.31478,-0.13591 -2.3793,-5.66566 -0.3148,0.13588 2.37933,5.66565 z"
       inkscape:transform-center-x="-37.263684"
       inkscape:transform-center-y="96.872138"
       inkscape:connector-curvature="0" />
    <path
       id="path7300"
       style="fill:#000000"
       d="m 394.85921,986.52338 0.30754,-0.14864 -2.61631,-5.56154 -0.30753,0.14864 2.61633,5.56154 z m 2.00658,-0.97514 0.3075,-0.14861 -2.73328,-5.50964 -0.30317,0.15837 2.72894,5.49975 z m 2.00325,-1.00866 0.30321,-0.15834 -2.84587,-5.44789 -0.30322,0.15837 2.84591,5.44786 z m 1.97185,-1.05312 0.29885,-0.16806 -2.95849,-5.38606 -0.29888,0.16803 2.95853,5.38606 z"
       inkscape:transform-center-x="-47.17818"
       inkscape:transform-center-y="92.465103"
       inkscape:connector-curvature="0" />
    <path
       id="path7302"
       style="fill:#000000"
       d="m 404.7253,981.25236 0.29032,-0.17995 -3.18336,-5.25769 -0.2903,0.17994 3.18333,5.2577 z m 1.89364,-1.17952 0.29028,-0.17995 -3.29421,-5.19352 -0.28495,0.1892 3.28888,5.1843 z m 1.88685,-1.21254 0.28498,-0.18917 -3.39973,-5.12046 -0.285,0.18916 3.39974,5.12047 z m 1.85096,-1.25344 0.27964,-0.19838 -3.50535,-5.04706 -0.27968,0.19834 3.50537,5.04707 z"
       inkscape:transform-center-x="-56.575789"
       inkscape:transform-center-y="87.044988"
       inkscape:connector-curvature="0" />
    <path
       id="path7304"
       style="fill:#000000"
       d="m 413.98713,974.98109 0.26992,-0.20931 -3.71565,-4.89617 -0.26991,0.20926 3.71532,4.89618 z m 1.75998,-1.37102 0.26989,-0.2093 -3.81909,-4.82073 -0.26363,0.21797 3.81296,4.8122 z m 1.74975,-1.40313 0.26365,-0.21794 -3.91639,-4.73709 -0.26366,0.21794 3.91639,4.73709 z m 1.7098,-1.44004 0.25738,-0.22655 -4.01369,-4.6531 -0.25741,0.22651 4.01369,4.6531 z"
       inkscape:transform-center-x="-65.353539"
       inkscape:transform-center-y="80.671196"
       inkscape:connector-curvature="0" />
    <path
       id="path7306"
       style="fill:#000000"
       d="m 422.53887,967.7744 0.24656,-0.23637 -4.20691,-4.48105 -0.24654,0.23634 4.20691,4.48105 z m 1.60704,-1.54747 0.24654,-0.23638 -4.30216,-4.39535 -0.2394,0.24433 4.295,4.3875 z m 1.5935,-1.57833 0.23944,-0.2443 -4.3899,-4.30182 -0.23944,0.2443 4.3899,4.30182 z m 1.54989,-1.61087 0.23229,-0.25218 -4.47797,-4.20794 -0.23232,0.25215 4.47797,4.20793 z"
       inkscape:transform-center-x="-73.415262"
       inkscape:transform-center-y="73.413547"
       inkscape:connector-curvature="0" />
    <path
       id="path7308"
       style="fill:#000000"
       d="m 430.29518,959.71426 0.2205,-0.26086 -4.65242,-4.01676 -0.22048,0.26082 4.65208,4.01677 z m 1.43649,-1.70697 0.22048,-0.26082 -4.73777,-3.92151 -0.21255,0.26798 4.72991,3.91435 z m 1.41979,-1.73627 0.2126,-0.26798 -4.81561,-3.8191 -0.21259,0.268 4.8156,3.81908 z m 1.37303,-1.76407 0.20465,-0.27509 -4.89344,-3.71703 -0.20468,0.27509 4.89344,3.71699 z"
       inkscape:transform-center-x="-80.672629"
       inkscape:transform-center-y="65.351564"
       inkscape:connector-curvature="0" />
    <path
       id="path7310"
       style="fill:#000000"
       d="m 437.16389,950.88599 0.19202,-0.2825 -5.04672,-3.50843 -0.19202,0.28247 5.04673,3.50843 z m 1.25016,-1.84776 0.192,-0.28246 -5.12183,-3.40479 -0.18336,0.28878 5.11328,3.3985 z m 1.23053,-1.87517 0.18341,-0.28874 -5.18839,-3.29497 -0.18342,0.28874 5.1884,3.29494 z m 1.18112,-1.89793 0.17478,-0.295 -5.25497,-3.18511 -0.1748,0.29499 5.25497,3.18512 z"
       inkscape:transform-center-x="-87.046125"
       inkscape:transform-center-y="56.573579"
       inkscape:connector-curvature="0" />
    <path
       id="path7312"
       style="fill:#000000"
       d="m 443.0733,941.3886 0.16145,-0.301 -5.38572,-2.9616 -0.16144,0.30097 5.38572,2.96163 z m 1.05018,-1.96833 0.16142,-0.30097 -5.44956,-2.85075 -0.15218,0.30633 5.44034,2.84539 z m 1.02777,-1.99353 0.15223,-0.30633 -5.50452,-2.73458 -0.15223,0.30634 5.50453,2.73454 z m 0.97627,-2.01097 0.14298,-0.31162 -5.55914,-2.61834 -0.14303,0.31162 5.55915,2.61834 z"
       inkscape:transform-center-x="-92.465938"
       inkscape:transform-center-y="47.175757"
       inkscape:connector-curvature="0" />
    <path
       id="path7314"
       style="fill:#000000"
       d="m 447.95854,931.32452 0.12911,-0.31623 -5.66566,-2.3824 -0.1291,0.31619 5.66566,2.38244 z m 0.83869,-2.0673 0.12909,-0.3162 -5.7179,-2.26548 -0.11932,0.32056 5.70799,2.26115 z m 0.81377,-2.09004 0.11937,-0.32057 -5.76022,-2.14421 -0.11937,0.32055 5.76022,2.14419 z m 0.76071,-2.10203 0.10963,-0.32486 -5.80256,-2.02289 -0.10966,0.32486 5.80255,2.02289 z"
       inkscape:transform-center-x="-96.872667"
       inkscape:transform-center-y="37.261079"
       inkscape:connector-curvature="0" />
    <path
       id="path7316"
       style="fill:#000000"
       d="m 451.76159,920.8098 0.0953,-0.32801 -5.88381,-1.77712 -0.0953,0.32797 5.8838,1.77716 z m 0.61802,-2.14364 0.0953,-0.32797 -5.92341,-1.65538 -0.0852,0.33128 5.91317,1.65207 z m 0.59084,-2.16364 0.0852,-0.33129 -5.95276,-1.53036 -0.0852,0.33128 5.95277,1.53033 z m 0.53682,-2.17003 0.0751,-0.33456 -5.98212,-1.40529 -0.0751,0.33456 5.98212,1.40529 z"
       inkscape:transform-center-x="-100.21804"
       inkscape:transform-center-y="26.938149"
       inkscape:connector-curvature="0" />
    <path
       id="path7318"
       style="fill:#000000"
       d="m 454.44831,909.95028 0.0605,-0.33616 -6.03743,-1.15239 -0.0605,0.33613 6.03743,1.15238 z m 0.39054,-2.19652 0.0606,-0.33613 -6.06405,-1.02717 -0.0501,0.33838 6.05347,1.02495 z m 0.36144,-2.21355 0.0501,-0.33839 -6.0801,-0.89975 -0.0501,0.33838 6.08011,0.89972 z m 0.30705,-2.21424 0.0396,-0.34057 -6.09614,-0.77228 -0.0398,0.34057 6.09615,0.77228 z"
       inkscape:transform-center-x="-102.46536"
       inkscape:transform-center-y="16.320088"
       inkscape:connector-curvature="0" />
    <path
       id="path7320"
       style="fill:#000000"
       d="m 455.98453,898.87227 0.025,-0.34067 -6.12481,-0.51501 -0.025,0.34063 6.12481,0.51501 z m 0.15883,-2.2253 0.0249,-0.34059 -6.13813,-0.38768 -0.0144,0.34175 6.12755,0.38656 z m 0.12808,-2.23918 0.0143,-0.34177 -6.14086,-0.25928 -0.0144,0.34175 6.14086,0.25926 z m 0.0739,-2.23422 0.004,-0.34285 -6.14359,-0.13085 -0.004,0.34285 6.14359,0.13082 z"
       inkscape:transform-center-x="-103.59033"
       inkscape:transform-center-y="5.5232156"
       inkscape:connector-curvature="0" />
    <path
       id="path7322"
       style="fill:#000000"
       d="m 456.35324,887.69185 -0.0105,-0.34139 -6.14495,0.12802 0.0107,0.34139 6.14495,-0.12802 z m -0.0746,-2.2297 -0.0106,-0.34136 -6.14495,0.25601 0.0213,0.34139 6.13438,-0.25604 z m -0.10668,-2.24032 -0.0212,-0.34138 -6.13437,0.38402 0.0213,0.34142 6.13438,-0.38406 z m -0.16001,-2.2297 -0.0321,-0.34139 -6.12346,0.51208 0.0319,0.34139 6.12381,-0.51208 z"
       inkscape:transform-center-x="-103.59068"
       inkscape:transform-center-y="-5.5262026"
       inkscape:connector-curvature="0" />
    <path
       id="path7324"
       style="fill:#000000"
       d="m 455.55099,876.53532 -0.0463,-0.33842 -6.09786,0.76966 0.0463,0.33838 6.09785,-0.76962 z m -0.30733,-2.20969 -0.0463,-0.33838 -6.08454,0.89696 0.0569,0.33728 6.07397,-0.89586 z m -0.34027,-2.21691 -0.0569,-0.33728 -6.06064,1.02313 0.0569,0.3373 6.06064,-1.02317 z m -0.39222,-2.20075 -0.0675,-0.33616 -6.03641,1.14935 0.0675,0.33617 6.0364,-1.14938 z"
       inkscape:transform-center-x="-102.46552"
       inkscape:transform-center-y="-16.322984"
       inkscape:connector-curvature="0" />
    <path
       id="path7326"
       style="fill:#000000"
       d="m 453.58801,865.52216 -0.0814,-0.33172 -5.98418,1.40283 0.0814,0.33169 5.98416,-1.4028 z m -0.53662,-2.16545 -0.0814,-0.3317 -5.95754,1.52805 0.0919,0.32952 5.94696,-1.52587 z m -0.57015,-2.16917 -0.0919,-0.32951 -5.92034,1.65105 0.0919,0.3295 5.92033,-1.65104 z m -0.6201,-2.1477 -0.10223,-0.32726 -5.88346,1.77405 0.1022,0.32729 5.88346,-1.77408 z"
       inkscape:transform-center-x="-100.21785"
       inkscape:transform-center-y="-26.94092"
       inkscape:connector-curvature="0" />
    <path
       id="path7328"
       style="fill:#000000"
       d="m 450.48481,854.77872 -0.11567,-0.32139 -5.8046,2.0206 0.11565,0.32138 5.80461,-2.02063 z m -0.76003,-2.09752 -0.11565,-0.32135 -5.765,2.14241 0.12582,0.31807 5.7551,-2.13913 z m -0.79376,-2.09769 -0.12579,-0.31811 -5.7155,2.26084 0.12579,0.31811 5.71551,-2.26088 z m -0.84121,-2.07114 -0.13588,-0.31478 -5.66566,2.3793 0.13585,0.31482 5.66565,-2.37934 z"
       inkscape:transform-center-x="-96.872163"
       inkscape:transform-center-y="-37.263696"
       inkscape:connector-curvature="0" />
    <path
       id="path7330"
       style="fill:#000000"
       d="m 446.27209,844.4142 -0.14862,-0.30754 -5.56154,2.61631 0.14861,0.30753 5.56153,-2.61633 z m -0.97513,-2.00657 -0.14861,-0.3075 -5.50964,2.73328 0.15838,0.30318 5.49975,-2.72895 z m -1.00867,-2.00326 -0.15834,-0.30321 -5.44786,2.84587 0.15835,0.30323 5.44786,-2.84591 z m -1.05311,-1.97185 -0.16804,-0.29886 -5.38606,2.9585 0.16801,0.29888 5.38606,-2.95852 z"
       inkscape:transform-center-x="-92.465111"
       inkscape:transform-center-y="-47.178192"
       inkscape:connector-curvature="0" />
    <path
       id="path7332"
       style="fill:#000000"
       d="m 441.00449,834.54811 -0.17996,-0.29032 -5.2577,3.18333 0.17994,0.2903 5.25771,-3.18333 z m -1.17952,-1.89364 -0.17994,-0.29028 -5.19352,3.29421 0.18921,0.28497 5.18431,-3.28889 z m -1.21254,-1.88684 -0.18918,-0.28499 -5.12046,3.39973 0.18918,0.28501 5.12047,-3.39974 z m -1.25344,-1.85097 -0.19836,-0.27965 -5.04707,3.50536 0.19834,0.27968 5.04707,-3.50536 z"
       inkscape:transform-center-x="-87.044992"
       inkscape:transform-center-y="-56.575801"
       inkscape:connector-curvature="0" />
    <path
       id="path7334"
       style="fill:#000000"
       d="m 434.7298,825.2897 -0.20932,-0.26992 -4.89617,3.71531 0.20929,0.2699 4.89618,-3.71531 z m -1.37101,-1.75999 -0.20928,-0.26988 -4.82074,3.8191 0.21797,0.26362 4.81218,-3.81295 z m -1.40314,-1.74974 -0.21792,-0.26366 -4.73709,3.91639 0.21794,0.26368 4.73708,-3.9164 z m -1.44003,-1.70981 -0.2265,-0.25738 -4.65311,4.01369 0.22648,0.25742 4.6531,-4.01369 z"
       inkscape:transform-center-x="-80.671204"
       inkscape:transform-center-y="-65.353549"
       inkscape:connector-curvature="0" />
    <path
       id="path7336"
       style="fill:#000000"
       d="m 427.52312,816.73454 -0.23639,-0.24656 -4.48104,4.20691 0.23636,0.24654 4.48105,-4.20691 z m -1.54747,-1.60704 -0.23635,-0.24653 -4.39536,4.30216 0.24431,0.2394 4.38751,-4.295 z m -1.57834,-1.59349 -0.24429,-0.23945 -4.30182,4.3899 0.24431,0.23945 4.30182,-4.38989 z m -1.6109,-1.54993 -0.25217,-0.23231 -4.20793,4.47797 0.25215,0.23235 4.20793,-4.47798 z"
       inkscape:transform-center-x="-73.413555"
       inkscape:transform-center-y="-73.415275"
       inkscape:connector-curvature="0" />
    <path
       id="path7338"
       style="fill:#000000"
       d="m 419.46297,808.97823 -0.26086,-0.2205 -4.01677,4.65208 0.26085,0.22049 4.01677,-4.65209 z m -1.70696,-1.43649 -0.26083,-0.22047 -3.92152,4.73776 0.26801,0.21256 3.91434,-4.72992 z m -1.73626,-1.41979 -0.26799,-0.21259 -3.8191,4.8156 0.268,0.2126 3.81909,-4.8156 z m -1.76409,-1.37306 -0.27506,-0.20467 -3.71702,4.89344 0.27505,0.20471 3.71702,-4.89344 z"
       inkscape:transform-center-x="-65.351572"
       inkscape:transform-center-y="-80.672636"
       inkscape:connector-curvature="0" />
    <path
       id="path7340"
       style="fill:#000000"
       d="m 410.63812,802.10953 -0.28248,-0.19203 -3.50844,5.04672 0.28246,0.19202 3.50843,-5.04672 z m -1.84775,-1.2502 -0.28245,-0.192 -3.40478,5.12183 0.28875,0.18337 3.3985,-5.1133 z m -1.87518,-1.23053 -0.28873,-0.18342 -3.29497,5.18841 0.28875,0.18342 3.29493,-5.1884 z m -1.89794,-1.18113 -0.29495,-0.1748 -3.18511,5.25497 0.29495,0.17484 3.18511,-5.25497 z"
       inkscape:transform-center-x="-56.573582"
       inkscape:transform-center-y="-87.046141"
       inkscape:connector-curvature="0" />
    <path
       id="path7342"
       style="fill:#000000"
       d="m 401.14073,796.20011 -0.30101,-0.16145 -2.9616,5.38573 0.30098,0.16144 2.96161,-5.38573 z m -1.96833,-1.05017 -0.30097,-0.16143 -2.85075,5.44957 0.30634,0.15218 2.84539,-5.44034 z m -1.99349,-1.02778 -0.30633,-0.15223 -2.73458,5.50452 0.30634,0.15225 2.73455,-5.50453 z m -2.01101,-0.97627 -0.31161,-0.14301 -2.61837,5.55915 0.31161,0.14305 2.61833,-5.55914 z"
       inkscape:transform-center-x="-47.175761"
       inkscape:transform-center-y="-92.46595"
       inkscape:connector-curvature="0" />
    <path
       id="path7344"
       style="fill:#000000"
       d="m 391.07664,791.31828 -0.31623,-0.1291 -2.3824,5.66566 0.31621,0.12909 2.38243,-5.66566 z m -2.0673,-0.83868 -0.31619,-0.12908 -2.26547,5.71788 0.32056,0.11934 2.26115,-5.708 z m -2.09004,-0.81377 -0.32055,-0.11937 -2.14422,5.76022 0.32058,0.11938 2.14418,-5.76022 z m -2.10202,-0.76071 -0.32485,-0.10965 -2.02292,5.80255 0.32485,0.10969 2.02289,-5.80255 z"
       inkscape:transform-center-x="-37.261075"
       inkscape:transform-center-y="-96.872672"
       inkscape:connector-curvature="0" />
    <path
       id="path7346"
       style="fill:#000000"
       d="m 380.55851,787.51182 -0.328,-0.0954 -1.77712,5.88381 0.32797,0.0953 1.77716,-5.8838 z m -2.14364,-0.61802 -0.32794,-0.0953 -1.65539,5.9234 0.33129,0.0852 1.65207,-5.91317 z m -2.16363,-0.59084 -0.33128,-0.0852 -1.53038,5.95277 0.3313,0.0852 1.53033,-5.95276 z m -2.17003,-0.53682 -0.33453,-0.0751 -1.40529,5.98213 0.33454,0.0752 1.40528,-5.98212 z"
       inkscape:transform-center-x="-26.93815"
       inkscape:transform-center-y="-100.2181"
       inkscape:connector-curvature="0" />
    <path
       id="path7348"
       style="fill:#000000"
       d="m 369.70241,784.82511 -0.33617,-0.0605 -1.15238,6.03743 0.33614,0.0605 1.15238,-6.03742 z m -2.19651,-0.39055 -0.33612,-0.0606 -1.02717,6.06406 0.33837,0.0501 1.02495,-6.05348 z m -2.21357,-0.36144 -0.33837,-0.0501 -0.89975,6.08011 0.33838,0.0501 0.89973,-6.0801 z m -2.21426,-0.30705 -0.34056,-0.0398 -0.77228,6.09615 0.34056,0.0397 0.77229,-6.09614 z"
       inkscape:transform-center-x="-16.320085"
       inkscape:transform-center-y="-102.46545"
       inkscape:connector-curvature="0" />
    <path
       id="path7350"
       style="fill:#000000"
       d="m 358.62099,783.29228 -0.34066,-0.025 -0.51499,6.12482 0.34064,0.025 0.51501,-6.12481 z m -2.2253,-0.15882 -0.3406,-0.0251 -0.38768,6.13814 0.34176,0.0144 0.38656,-6.12756 z m -2.23919,-0.12807 -0.34177,-0.0144 -0.25927,6.14086 0.34176,0.0144 0.25926,-6.14086 z m -2.23424,-0.0739 -0.34282,-0.004 -0.13084,6.1436 0.34285,0.004 0.13082,-6.1436 z"
       inkscape:transform-center-x="-5.5232085"
       inkscape:transform-center-y="-103.59017"
       inkscape:connector-curvature="0" />
    <path
       id="path7476"
       style="opacity:0.2;fill:#ff0000"
       d="m 430.25421,863.35094 -77.42997,23.91553 c -1.37641,-1.13603 -3.29896,-1.55576 -5.10886,-0.92897 -1.69042,0.58544 -2.88581,1.94348 -3.34607,3.5412 l -10.39455,3.20484 2.23445,6.45187 10.15011,-3.91058 c 1.34974,0.97069 3.12902,1.29853 4.81937,0.71309 1.80975,-0.62679 3.06087,-2.14569 3.43981,-3.88977 l 75.6377,-29.09711 z"
       inkscape:transform-center-x="-32.502522"
       inkscape:transform-center-y="-9.8372419"
       inkscape:connector-curvature="0" />
    <path
       id="path7453"
       style="fill:#f03916;fill-opacity:1"
       d="m 430.15521,861.83176 -77.42997,23.91555 c -1.37641,-1.13604 -3.29896,-1.55577 -5.10886,-0.92899 -1.69042,0.58545 -2.88582,1.94349 -3.34607,3.54121 l -10.39455,3.20484 2.23444,6.45187 10.15012,-3.91059 c 1.34974,0.97071 3.12902,1.29854 4.81936,0.7131 1.80976,-0.62679 3.06088,-2.14569 3.43982,-3.88977 l 75.6377,-29.09711 z"
       inkscape:transform-center-x="-32.502524"
       inkscape:transform-center-y="-9.8372444"
       inkscape:connector-curvature="0" />
    <path
       id="path7455"
       sodipodi:rx="15.5"
       sodipodi:ry="15.5"
       style="fill:#394050"
       sodipodi:type="arc"
       d="m 380.5,577.86218 a 15.5,15.5 0 1 1 -31,0 15.5,15.5 0 1 1 31,0 z"
       transform="matrix(0.18721321,0,0,0.18721321,281.18076,781.74921)"
       sodipodi:cy="577.86218"
       sodipodi:cx="365" />
    <path
       id="path7532"
       style="opacity:0.2;fill:#ff0000"
       d="m 362.80297,821.0326 -13.02185,20.53067 c -0.53533,0.009 -1.05595,0.28695 -1.34708,0.78229 -0.27196,0.46269 -0.28052,1.00539 -0.0746,1.45967 l -1.74917,2.75482 1.76586,1.03795 1.55605,-2.86836 c 0.49705,-0.0412 0.96705,-0.3126 1.23899,-0.77525 0.29115,-0.49536 0.28113,-1.08561 0.0281,-1.55752 l 11.60341,-21.36433 z"
       inkscape:transform-center-x="-32.502537"
       inkscape:transform-center-y="-9.8372402"
       inkscape:connector-curvature="0" />
    <path
       id="path7487"
       style="fill:#000000"
       inkscape:connector-curvature="0"
       d="m 349.1714,812.94856 h 0.68277 v 6.82774 h -0.68277 z"
       inkscape:transform-center-y="-26.457498" />
    <path
       id="path7489"
       style="fill:#000000"
       d="m 323.47178,828.18125 0.34139,-0.59128 5.91316,3.41386 -0.34138,0.59128 z"
       inkscape:transform-center-x="22.912869"
       inkscape:transform-center-y="-13.228748"
       inkscape:connector-curvature="0" />
    <path
       id="path7491"
       style="fill:#000000"
       d="m 323.81317,858.05261 -0.34139,-0.59128 5.91317,-3.41386 0.34138,0.59127 z"
       inkscape:transform-center-x="22.912869"
       inkscape:transform-center-y="13.228752"
       inkscape:connector-curvature="0" />
    <path
       id="path7493"
       d="m 349.85417,872.69131 h -0.68277 v -6.82776 h 0.68277 z"
       style="fill:#000000"
       inkscape:transform-center-y="26.4575"
       inkscape:connector-curvature="0" />
    <path
       id="path7495"
       style="fill:#000000"
       d="m 375.55378,857.46201 -0.34139,0.59129 -5.91316,-3.41387 0.34139,-0.59128 z"
       inkscape:transform-center-x="-22.912864"
       inkscape:transform-center-y="13.228754"
       inkscape:connector-curvature="0" />
    <path
       id="path7497"
       style="fill:#000000"
       d="m 375.21239,827.59065 0.34139,0.59128 -5.91316,3.41387 -0.34139,-0.59129 z"
       inkscape:transform-center-x="-22.912864"
       inkscape:transform-center-y="-13.228746"
       inkscape:connector-curvature="0" />
    <path
       id="path7499"
       style="fill:#000000"
       d="m 343.34733,814.63843 0.33393,-0.071 0.99371,4.67495 -0.33392,0.071 z"
       inkscape:transform-center-x="5.5008275"
       inkscape:transform-center-y="-25.879347"
       inkscape:connector-curvature="0" />
    <path
       id="path7501"
       style="fill:#000000"
       d="m 337.62228,816.53654 0.31187,-0.13886 1.94396,4.36634 -0.31187,0.13885 z"
       inkscape:transform-center-x="10.761231"
       inkscape:transform-center-y="-24.170131"
       inkscape:connector-curvature="0" />
    <path
       id="path7503"
       style="fill:#000000"
       d="m 332.41953,819.58171 0.27619,-0.20067 2.80928,3.86655 -0.27619,0.20066 z"
       inkscape:transform-center-x="15.551332"
       inkscape:transform-center-y="-21.404573"
       inkscape:connector-curvature="0" />
    <path
       id="path7505"
       style="fill:#000000"
       d="m 327.96102,823.64421 0.22844,-0.2537 3.55179,3.19805 -0.22843,0.25369 z"
       inkscape:transform-center-x="19.661754"
       inkscape:transform-center-y="-17.703529"
       inkscape:connector-curvature="0" />
    <path
       id="path7513"
       style="fill:#000000"
       d="m 322.0243,834.07017 0.1055,-0.32468 4.54557,1.47691 -0.1055,0.32468 z"
       inkscape:transform-center-x="25.16258"
       inkscape:transform-center-y="-8.1758207"
       inkscape:connector-curvature="0" />
    <path
       id="path7515"
       style="fill:#000000"
       d="m 320.80555,839.97617 0.0357,-0.33952 4.75313,0.49959 -0.0357,0.3395 z"
       inkscape:transform-center-x="26.31256"
       inkscape:transform-center-y="-2.7655676"
       inkscape:connector-curvature="0" />
    <path
       id="path7517"
       style="fill:#000000"
       d="m 320.84311,846.00506 -0.0357,-0.33952 4.75312,-0.49959 0.0357,0.33952 z"
       inkscape:transform-center-x="26.312573"
       inkscape:transform-center-y="2.7655585"
       inkscape:connector-curvature="0" />
    <path
       id="path7519"
       style="fill:#000000"
       d="m 322.13014,851.89741 -0.1055,-0.3247 4.54557,-1.4769 0.1055,0.32469 z"
       inkscape:transform-center-x="25.162574"
       inkscape:transform-center-y="8.1758169"
       inkscape:connector-curvature="0" />
    <path
       id="path7521"
       style="fill:#000000"
       d="m 328.18975,862.25167 -0.22843,-0.25372 3.55178,-3.19804 0.22845,0.25372 z"
       inkscape:transform-center-x="19.661751"
       inkscape:transform-center-y="17.703522"
       inkscape:connector-curvature="0" />
    <path
       id="path7523"
       style="fill:#000000"
       d="m 332.69606,866.25956 -0.27619,-0.20067 2.80927,-3.86655 0.2762,0.20066 z"
       inkscape:transform-center-x="15.551327"
       inkscape:transform-center-y="21.40457"
       inkscape:connector-curvature="0" />
    <path
       id="path7525"
       style="fill:#000000"
       d="m 337.93635,869.2433 -0.31188,-0.13884 1.94397,-4.36637 0.31187,0.13885 z"
       inkscape:transform-center-x="10.761242"
       inkscape:transform-center-y="24.170129"
       inkscape:connector-curvature="0" />
    <path
       id="path7527"
       style="fill:#000000"
       d="m 343.68189,871.07313 -0.33392,-0.071 0.9937,-4.67496 0.33393,0.071 z"
       inkscape:transform-center-x="5.5008257"
       inkscape:transform-center-y="25.879334"
       inkscape:connector-curvature="0" />
    <path
       id="path7529"
       style="fill:#000000"
       d="m 355.67823,871.00143 -0.33393,0.071 -0.99371,-4.67497 0.33393,-0.071 z"
       inkscape:transform-center-x="-5.5008211"
       inkscape:transform-center-y="25.879345"
       inkscape:connector-curvature="0" />
    <path
       id="path7531"
       style="fill:#000000"
       d="m 361.40329,869.10333 -0.31187,0.13883 -1.94396,-4.36635 0.31187,-0.13884 z"
       inkscape:transform-center-x="-10.761235"
       inkscape:transform-center-y="24.170124"
       inkscape:connector-curvature="0" />
    <path
       id="path7533"
       style="fill:#000000"
       d="m 366.60602,866.05814 -0.27618,0.20066 -2.80927,-3.86654 0.27619,-0.20067 z"
       inkscape:transform-center-x="-15.551326"
       inkscape:transform-center-y="21.404566"
       inkscape:connector-curvature="0" />
    <path
       id="path7535"
       style="fill:#000000"
       d="m 371.06454,861.99563 -0.22843,0.25369 -3.55179,-3.19805 0.22843,-0.25369 z"
       inkscape:transform-center-x="-19.661756"
       inkscape:transform-center-y="17.703522"
       inkscape:connector-curvature="0" />
    <path
       id="path7537"
       style="fill:#000000"
       d="m 377.00126,851.57309 -0.10549,0.32469 -4.54557,-1.47691 0.10549,-0.32469 z"
       inkscape:transform-center-x="-25.162582"
       inkscape:transform-center-y="8.1758199"
       inkscape:connector-curvature="0" />
    <path
       id="path7539"
       style="fill:#000000"
       d="m 378.22002,845.66709 -0.0357,0.33952 -4.75312,-0.49958 0.0357,-0.33952 z"
       inkscape:transform-center-x="-26.31257"
       inkscape:transform-center-y="2.7655654"
       inkscape:connector-curvature="0" />
    <path
       id="path7541"
       style="fill:#000000"
       d="m 378.18246,839.63478 0.0357,0.33952 -4.75314,0.49958 -0.0357,-0.3395 z"
       inkscape:transform-center-x="-26.312568"
       inkscape:transform-center-y="-2.7655669"
       inkscape:connector-curvature="0" />
    <path
       id="path7543"
       style="fill:#000000"
       d="m 376.89543,833.74244 0.1055,0.32468 -4.54557,1.47692 -0.1055,-0.32468 z"
       inkscape:transform-center-x="-25.162579"
       inkscape:transform-center-y="-8.1758137"
       inkscape:connector-curvature="0" />
    <path
       id="path7545"
       style="fill:#000000"
       d="m 370.83582,823.39159 0.22842,0.2537 -3.55179,3.19804 -0.22843,-0.2537 z"
       inkscape:transform-center-x="-19.661752"
       inkscape:transform-center-y="-17.703524"
       inkscape:connector-curvature="0" />
    <path
       id="path7547"
       style="fill:#000000"
       d="m 366.32951,819.3837 0.27619,0.20067 -2.80928,3.86654 -0.27619,-0.20065 z"
       inkscape:transform-center-x="-15.551332"
       inkscape:transform-center-y="-21.404574"
       inkscape:connector-curvature="0" />
    <path
       id="path7549"
       style="fill:#000000"
       d="m 361.08921,816.39656 0.31188,0.13887 -1.94396,4.36633 -0.31187,-0.13884 z"
       inkscape:transform-center-x="-10.761238"
       inkscape:transform-center-y="-24.170136"
       inkscape:connector-curvature="0" />
    <path
       id="path7551"
       style="fill:#000000"
       d="m 355.34368,814.56674 0.33392,0.071 -0.99371,4.67496 -0.33392,-0.071 z"
       inkscape:transform-center-x="-5.5008277"
       inkscape:transform-center-y="-25.879322"
       inkscape:connector-curvature="0" />
    <g
       id="g7589"
       transform="matrix(0.07793524,-0.06644756,0.06644756,0.07793524,282.66922,822.03969)">
      <path
         id="path7585"
         style="fill:url(#linearGradient7466)"
         d="m 601.22,495.55 -226.81,70.054 c -4.0318,-3.3277 -9.6634,-4.5572 -14.965,-2.7212 -4.9516,1.7149 -8.4532,5.6929 -9.8014,10.373 l -30.448,9.3877 6.5452,18.899 29.732,-11.455 c 3.9537,2.8434 9.1656,3.8037 14.117,2.0888 5.3012,-1.836 8.966,-6.2852 10.076,-11.394 l 221.56,-85.232 z"
         inkscape:transform-center-x="-95.207265"
         inkscape:transform-center-y="-28.81551"
         inkscape:connector-curvature="0" />
      <path
         id="path7587"
         sodipodi:rx="15.5"
         sodipodi:ry="15.5"
         style="fill:url(#radialGradient3757)"
         sodipodi:type="arc"
         d="m 380.5,577.86218 c 0,8.56042 -6.93959,15.5 -15.5,15.5 -8.56041,0 -15.5,-6.93958 -15.5,-15.5 0,-8.56041 6.93959,-15.5 15.5,-15.5 8.56041,0 15.5,6.93959 15.5,15.5 z"
         transform="matrix(0.54839,0,0,0.54839,164.84,260.97)"
         sodipodi:cy="577.86218"
         sodipodi:cx="365" />
    </g>
    <path
       id="path7520"
       style="fill:#f03916;fill-opacity:1"
       d="m 362.45477,820.70828 -13.02187,20.53068 c -0.53533,0.009 -1.05595,0.28694 -1.34708,0.78229 -0.27195,0.46268 -0.28052,1.00538 -0.0746,1.45966 l -1.74917,2.75483 1.76586,1.03795 1.55604,-2.86837 c 0.49706,-0.0411 0.96705,-0.31259 1.239,-0.77526 0.29115,-0.49534 0.28113,-1.0856 0.0282,-1.55751 l 11.60339,-21.36433 z"
       inkscape:transform-center-x="-32.502541"
       inkscape:transform-center-y="-9.8372379"
       inkscape:connector-curvature="0" />
    <path
       id="path7522"
       sodipodi:rx="15.5"
       sodipodi:ry="15.5"
       style="fill:#394050"
       sodipodi:type="arc"
       d="m 380.5,577.86218 a 15.5,15.5 0 1 1 -31,0 15.5,15.5 0 1 1 31,0 z"
       transform="matrix(0.04273823,-0.03643965,0.03643965,0.04273823,312.85807,831.42442)"
       sodipodi:cy="577.86218"
       sodipodi:cx="365" />
  </g>
</svg>
