/* XPM */
static char * Stick_pressed_xpm[] = {
"30 30 10 1",
" 	c None",
".	c #0F1013",
"+	c #361423",
"@	c #6F1F42",
"#	c #8A2552",
"$	c #99295B",
"%	c #9E2A5E",
"&	c #6A1E3F",
"*	c #952858",
"=	c #752045",
"..............................",
"..............................",
"..............................",
"..............................",
"..............................",
"..............................",
"...........+@#$%$#@+..........",
"..........&*%%%%%%%*&.........",
".........=%%%%%%%%%%%=........",
"........&%%%%%%%%%%%%%&.......",
".......+*%%%%%%%%%%%%%*+......",
".......@%%%%%%%%%%%%%%%@......",
".......#%%%%%%%%%%%%%%%#......",
".......$%%%%%%%%%%%%%%%$......",
"%%%%%%%%%%%%%%%%%%%%%%%%%%%%%%",
".......$%%%%%%%%%%%%%%%$......",
".......#%%%%%%%%%%%%%%%#......",
".......@%%%%%%%%%%%%%%%@......",
".......+*%%%%%%%%%%%%%*+......",
"........&%%%%%%%%%%%%%&.......",
".........=%%%%%%%%%%%=........",
"..........&*%%%%%%%*&.........",
"...........+@#$%$#@+..........",
"..............................",
"..............................",
"..............................",
"..............................",
"..............................",
"..............................",
".............................."};
