/* XPM */
static char * grip_xpm[] = {
"20 10 9 1",
" 	c None",
".	c #0F1013",
"+	c #541933",
"@	c #84244F",
"#	c #99295C",
"$	c #902756",
"%	c #8A2553",
"&	c #5E1B39",
"*	c #47162C",
".......+@##@+.......",
"......+$%&&%$+......",
"......@%*..*%@......",
"......#&....&#......",
"......#&....&#......",
"......@%*..*%@......",
"......+$%&&%$+......",
".......+@##@+.......",
"....................",
"...................."};
