/* XPM */
static char * Minimize_pressed_xpm[] = {
"30 30 35 1",
" 	c None",
".	c #0F1013",
"+	c #1A1116",
"@	c #5F1B39",
"#	c #7C224A",
"$	c #8D2654",
"%	c #98285A",
"&	c #9D2A5D",
"*	c #3A1425",
"=	c #752046",
"-	c #962859",
";	c #84244F",
">	c #6B1E40",
",	c #4F1830",
"'	c #331321",
")	c #691D3F",
"!	c #942758",
"~	c #721F44",
"{	c #3B1425",
"]	c #301320",
"^	c #7A2149",
"/	c #9E2A5E",
"(	c #7D224A",
"_	c #411528",
":	c #7E224B",
"<	c #99295B",
"[	c #6D1E41",
"}	c #671D3E",
"|	c #361423",
"1	c #6F1F42",
"2	c #8A2552",
"3	c #6A1E3F",
"4	c #952858",
"5	c #752045",
"6	c #97285A",
".........+@#$%&...............",
".......*=-&;>,'...............",
"......)!-~{...................",
"....]^/(_.....................",
"...]:<[.......................",
"...^<}........................",
"..)/[......|12</<21|..........",
".*!(......34///////43.........",
".=-_.....5///////////5........",
"+-~.....3/////////////3.......",
"@&{....|4/////////////4|......",
"#;.....16/////////////61......",
"$>.....2///////////////2......",
"%,.....<///////////////<......",
"//////////////////////////////",
"&'.....<///////////////<......",
"%,.....2///////////////2......",
"$>.....16/////////////61......",
"#;.....|4/////////////4|......",
"@&{.....3/////////////3.......",
"+-~......5///////////5........",
".=-_......34///////43.........",
".*!(.......|12</<21|..........",
"..)/[.........................",
"...^<}........................",
"...]:<[.......................",
"....]^/(_.....................",
"......)!-~{...................",
".......*=-&;>,'...............",
"///////////////..............."};
