/* XPM */
static char * Minimize_xpm[] = {
"30 30 44 1",
" 	c None",
".	c #0F1013",
"+	c #1A1116",
"@	c #5F1B39",
"#	c #7C224A",
"$	c #8D2654",
"%	c #98285A",
"&	c #9D2A5D",
"*	c #3A1425",
"=	c #752046",
"-	c #962859",
";	c #84244F",
">	c #6B1E40",
",	c #4F1830",
"'	c #331321",
")	c #691D3F",
"!	c #942758",
"~	c #721F44",
"{	c #3B1425",
"]	c #301320",
"^	c #7A2149",
"/	c #9E2A5E",
"(	c #7D224A",
"_	c #411528",
":	c #7E224B",
"<	c #99295B",
"[	c #6D1E41",
"}	c #671D3E",
"|	c #361423",
"1	c #6F1F42",
"2	c #8A2552",
"3	c #6A1E3F",
"4	c #952858",
"5	c #97285A",
"6	c #782147",
"7	c #551933",
"8	c #2F131F",
"9	c #752045",
"0	c #3D1526",
"a	c #731F44",
"b	c #341322",
"c	c #762046",
"d	c #932758",
"e	c #85244F",
".........+@#$%&...............",
".......*=-&;>,'...............",
"......)!-~{...................",
"....]^/(_.....................",
"...]:<[.......................",
"...^<}........................",
"..)/[......|12</<21|..........",
".*!(......34567876543.........",
".=-_.....9/#0.....0#/9........",
"+-~.....3/a.........a/3.......",
"@&{....|4#..bcd/dcb..#4|......",
"#;.....150.be/////eb.051......",
"$>.....26..c///////c..62......",
"%,.....<7..d///////d..7<......",
"////////8../////////..8///////",
"&'.....<7..d///////d..7<......",
"%,.....26..c///////c..62......",
"$>.....150.be/////eb.051......",
"#;.....|4#..bcd/dcb..#4|......",
"@&{.....3/a.........a/3.......",
"+-~......9/#0.....0#/9........",
".=-_......34567876543.........",
".*!(.......|12</<21|..........",
"..)/[.........................",
"...^<}........................",
"...]:<[.......................",
"....]^/(_.....................",
"......)!-~{...................",
".......*=-&;>,'...............",
"///////////////..............."};
