/* XPM */
static char * button_xpm[] = {
"34 34 11 1",
" 	c #000000",
".	c #070707",
"+	c #131313",
"@	c #1B1B1B",
"#	c #1F1F1F",
"$	c #0B0B0B",
"%	c #1D1D1D",
"&	c #202020",
"*	c #020202",
"=	c #141414",
"-	c #161616",
"                                  ",
"                                  ",
"                                  ",
"                                  ",
"                                  ",
"                                  ",
"             .+@##@+.             ",
"           $%&&&&&&&&%$           ",
"         *=&&&&&&&&&&&&=*         ",
"        *-&&&&&&&&&&&&&&-*        ",
"        =&&&&&&&&&&&&&&&&=        ",
"       $&&&&&&&&&&&&&&&&&&$       ",
"       %&&&&&&&&&&&&&&&&&&%       ",
"      .&&&&&&&&&&&&&&&&&&&&.      ",
"      +&&&&&&&&&&&&&&&&&&&&+      ",
"      @&&&&&&&&&&&&&&&&&&&&@      ",
"      #&&&&&&&&&&&&&&&&&&&&#      ",
"      #&&&&&&&&&&&&&&&&&&&&#      ",
"      @&&&&&&&&&&&&&&&&&&&&@      ",
"      +&&&&&&&&&&&&&&&&&&&&+      ",
"      .&&&&&&&&&&&&&&&&&&&&.      ",
"       %&&&&&&&&&&&&&&&&&&%       ",
"       $&&&&&&&&&&&&&&&&&&$       ",
"        =&&&&&&&&&&&&&&&&=        ",
"        *-&&&&&&&&&&&&&&-*        ",
"         *=&&&&&&&&&&&&=*         ",
"           $%&&&&&&&&%$           ",
"             .+@##@+.             ",
"                                  ",
"                                  ",
"                                  ",
"                                  ",
"                                  ",
"                                  "};
