/* XPM */
static char * Close_pressed_xpm[] = {
"21 21 15 1",
" 	c None",
".	c #F22C42",
"+	c #090102",
"@	c #4D0E15",
"#	c #CC2537",
"$	c #000000",
"%	c #F34C5E",
"&	c #FABBC2",
"*	c #FEF6F7",
"=	c #FFFFFF",
"-	c #DA273B",
";	c #A01928",
">	c #4B060E",
",	c #8B1522",
"'	c #170102",
".....................",
".....................",
"+@#...............#@+",
"$$$#.............#$$$",
"$$$@.............@$$$",
"$$$+.............$$$$",
"$$$$.............$$$$",
"$$$$.............$$$$",
"$$$$....%&*&%....$$$$",
"$$$$...%=====%...$$$$",
"$$$$...&=====&...$$$$",
"$$$$...*=====*...$$$$",
"$$$$...&=====&...$$$$",
"$$$$...%=====%...$$$$",
"$$$$....%&*&%....$$$$",
"$$$$-...........-$$$$",
"$$$$;...........;$$$$",
"$$$$>...........>$$$$",
"$$$$$,.........,$$$$$",
"$$$$$',.......,'$$$$$",
"$$$$$$$>;-.-;>$$$$$$$"};
