/* XPM */
static char * Close_xpm[] = {
"21 21 12 1",
" 	c None",
".	c #F22C42",
"+	c #090102",
"@	c #4D0E15",
"#	c #CC2537",
"$	c #000000",
"%	c #FFFFFF",
"&	c #DA273B",
"*	c #A01928",
"=	c #4B060E",
"-	c #8B1522",
";	c #170102",
".....................",
".....................",
"+@#...............#@+",
"$$$#.............#$$$",
"$$$@.............@$$$",
"$$$+.............$$$$",
"$$$$.............$$$$",
"$$$$.............$$$$",
"$$$$.............$$$$",
"$$$$....%...%....$$$$",
"$$$$.....%.%.....$$$$",
"$$$$......%......$$$$",
"$$$$.....%.%.....$$$$",
"$$$$....%...%....$$$$",
"$$$$.............$$$$",
"$$$$&...........&$$$$",
"$$$$*...........*$$$$",
"$$$$=...........=$$$$",
"$$$$$-.........-$$$$$",
"$$$$$;-.......-;$$$$$",
"$$$$$$$=*&.&*=$$$$$$$"};
