/* XPM */
static char * grip_xpm[] = {
"20 10 7 1",
" 	c None",
".	c #000000",
"+	c #080102",
"@	c #71141F",
"#	c #D8273B",
"$	c #D42639",
"%	c #F22C42",
".......+@##@+.......",
"......+$%%%%$+......",
"......@%%%%%%@......",
"......#%%%%%%#......",
"......#%%%%%%#......",
"......@%%%%%%@......",
"......+$%%%%$+......",
".......+@##@+.......",
"....................",
"...................."};
