/* XPM */
static char * Minimize_pressed_xpm[] = {
"21 21 7 1",
" 	c None",
".	c #F22C42",
"+	c #000000",
"@	c #272727",
"#	c #ADADAD",
"$	c #F5F5F5",
"%	c #FFFFFF",
".....................",
".....................",
"+++++++++++++++++++++",
"+++++++++++++++++++++",
"+++++++++++++++++++++",
"+++++++++++++++++++++",
"+++++++++++++++++++++",
"+++++++++++++++++++++",
"++++++++@#$#@++++++++",
"+++++++@%%%%%@+++++++",
"+++++++#%%%%%#+++++++",
"+++++++$%%%%%$+++++++",
"+++++++#%%%%%#+++++++",
"+++++++@%%%%%@+++++++",
"++++++++@#$#@++++++++",
"+++++++++++++++++++++",
"+++++++++++++++++++++",
"+++++++++++++++++++++",
"+++++++++++++++++++++",
"+++++++++++++++++++++",
"+++++++++++++++++++++"};
