/* XPM */
static char * title_xpm[] = {
"21 21 2 1",
" 	c #F22C42",
".	c #000000",
"                     ",
"                     ",
".....................",
".....................",
".....................",
".....................",
".....................",
".....................",
".....................",
".....................",
".....................",
".....................",
".....................",
".....................",
".....................",
".....................",
".....................",
".....................",
".....................",
".....................",
"....................."};
