<svg xmlns="http://www.w3.org/2000/svg" xmlns:xlink="http://www.w3.org/1999/xlink" width="48" height="48">
  <defs id="acyl-settings">
    <linearGradient x1="0%" y1="0%" x2="0%" y2="100%" id="acyl-gradient">
      <stop offset="0%" style="stop-color:#636EAE;stop-opacity:1.000000"/>
      <stop offset="50%" style="stop-color:#829C7F;stop-opacity:1.000000"/>
      <stop offset="100%" style="stop-color:#D73E7F;stop-opacity:1.000000"/>
    </linearGradient>
    <g id="acyl-filter">
  </g>
    <g id="acyl-drawing">
      <path d="M 16.75 6.875 L 9.875 22.875 L 2 22.875 L 2 29.09375 L 7.21875 29.09375 L 2 41.21875 L 13.21875 41.21875 L 16.625 32.375 L 30.46875 32.375 L 34.1875 41.21875 L 45.875 41.21875 L 40.59375 29.09375 L 45.875 29.09375 L 45.875 22.875 L 37.875 22.875 L 30.90625 6.875 L 16.75 6.875 z M 23.3125 12.5625 L 23.53125 12.5625 C 24.013036 14.007857 26.067783 19.269177 27.46875 22.875 L 19.5625 22.875 C 20.897392 19.268439 22.830895 14.007316 23.3125 12.5625 z " id="path-main"/>
    </g>
  </defs>
  <g id="acyl-visual">
    <use id="visible1" transform="translate(24,24) scale(1.00) translate(-24,-24)" style="fill:rgb(0,0,0);fill-opacity:0.00;stroke:url(#acyl-gradient);stroke-width:1.00" xlink:href="#acyl-drawing"/>
  </g>
</svg>
