<svg xmlns="http://www.w3.org/2000/svg" xmlns:xlink="http://www.w3.org/1999/xlink" width="48" height="48">
  <defs id="acyl-settings">
    <linearGradient x1="0%" y1="0%" x2="0%" y2="100%" id="acyl-gradient">
      <stop offset="0%" style="stop-color:#636EAE;stop-opacity:1.000000"/>
      <stop offset="50%" style="stop-color:#829C7F;stop-opacity:1.000000"/>
      <stop offset="100%" style="stop-color:#D73E7F;stop-opacity:1.000000"/>
    </linearGradient>
    <g id="acyl-filter">
  </g>
    <g id="acyl-drawing">
      <path d="M 8.875,10.59434 2,17.469339 l 0,20.625 22.458333,0 0,-0.916667 0,-6.273437 c -7.426558,-0.18208 -12.287678,-6.333679 -11.6875,-12.432292 0.28419,-2.887784 1.798913,-5.713726 4.783855,-7.877603 l -8.679688,0 z m 12.575521,0 c -2.138793,1.37488 -3.252641,3.033069 -3.580729,4.66927 -0.698519,3.483582 2.09661,6.872762 6.588541,6.932291 0,-0.88415 1e-6,-6.38802 0,-6.38802 l 0,-1.059896 0.773438,0.716146 11.916666,10.942708 0.372396,0.34375 -0.401041,0.315104 -11.888021,10.455729 -0.658854,0.572917 14.552083,0 6.875,-6.875 0,-20.624999 -24.549479,0 z" id="path-main"/>
    </g>
  </defs>
  <g id="acyl-visual">
    <use id="visible1" transform="translate(24,24) scale(1.00) translate(-24,-24)" style="fill:rgb(0,0,0);fill-opacity:0.00;stroke:url(#acyl-gradient);stroke-width:1.00" xlink:href="#acyl-drawing"/>
  </g>
</svg>
