<?xml version="1.0" encoding="UTF-8" standalone="no"?>
<!-- Created with Inkscape (http://www.inkscape.org/) -->

<svg
   xmlns:dc="http://purl.org/dc/elements/1.1/"
   xmlns:cc="http://creativecommons.org/ns#"
   xmlns:rdf="http://www.w3.org/1999/02/22-rdf-syntax-ns#"
   xmlns:svg="http://www.w3.org/2000/svg"
   xmlns="http://www.w3.org/2000/svg"
   xmlns:sodipodi="http://sodipodi.sourceforge.net/DTD/sodipodi-0.dtd"
   xmlns:inkscape="http://www.inkscape.org/namespaces/inkscape"
   width="22"
   height="22"
   viewBox="0 0 22 22"
   id="svg2"
   version="1.1"
   inkscape:version="0.91 r13725"
   sodipodi:docname="aptdaemon-working.svg">
  <defs
     id="defs4" />
  <sodipodi:namedview
     id="base"
     pagecolor="#ffffff"
     bordercolor="#666666"
     borderopacity="1.0"
     inkscape:pageopacity="0.0"
     inkscape:pageshadow="2"
     inkscape:zoom="3.959798"
     inkscape:cx="5.72402"
     inkscape:cy="-13.068258"
     inkscape:document-units="px"
     inkscape:current-layer="layer1"
     showgrid="false"
     units="px"
     inkscape:window-width="1366"
     inkscape:window-height="711"
     inkscape:window-x="0"
     inkscape:window-y="0"
     inkscape:window-maximized="1" />
  <metadata
     id="metadata7">
    <rdf:RDF>
      <cc:Work
         rdf:about="">
        <dc:format>image/svg+xml</dc:format>
        <dc:type
           rdf:resource="http://purl.org/dc/dcmitype/StillImage" />
        <dc:title />
      </cc:Work>
    </rdf:RDF>
  </metadata>
  <g
     inkscape:label="Layer 1"
     inkscape:groupmode="layer"
     id="layer1"
     transform="translate(0,-1030.3622)">
    <path
       style="fill:#808080;stroke:none"
       d="m 1.8139636,1031.1996 18.3372124,0 -0.04462,13.8756 c 0,0 0.09263,0.5399 -0.413388,0.9949 -0.506012,0.455 -1.277707,0.3707 -1.277707,0.3707 l -14.6542028,-0.01 c 0,0 -0.8287254,0.074 -1.4433367,-0.4338 -0.6146113,-0.508 -0.4811112,-1.5459 -0.4811112,-1.5459 z"
       id="path3091-3"
       inkscape:connector-curvature="0"
       sodipodi:nodetypes="ccczcczcc" />
    <path
       style="fill:#999999;stroke:none"
       d="m 2.8788046,1032.6368 -1.1063831,-1.4468 -0.024316,3.8176 1.0577511,1.2523 z"
       id="path3879-6-7"
       inkscape:connector-curvature="0"
       sodipodi:nodetypes="ccccc" />
    <path
       style="fill:#b3b3b3;stroke:none"
       d="m 0.98214944,1034.7158 1.89665676,-2.1155 0.024316,3.8177 -1.8480248,1.9209 z"
       id="path3879"
       inkscape:connector-curvature="0" />
    <path
       style="fill:#999999;stroke:none"
       d="m 19.018625,1032.6307 1.106383,-1.4468 0.02432,3.8177 -1.057751,1.2522 z"
       id="path3879-6-7-5"
       inkscape:connector-curvature="0"
       sodipodi:nodetypes="ccccc" />
    <path
       style="fill:#b3b3b3;stroke:none"
       d="m 20.982151,1034.8131 -1.896657,-2.1155 -0.02432,3.8176 1.848025,1.921 z"
       id="path3879-6"
       inkscape:connector-curvature="0" />
    <path
       style="fill:#e6e6e6;fill-opacity:1;stroke:none"
       d="m 0.98509378,1034.7603 19.98784222,0 -0.04863,15.1246 c 0,0 0.100962,0.5885 -0.450599,1.0845 -0.551562,0.4959 -1.392722,0.404 -1.392722,0.404 l -15.9733053,-0.01 c 0,0 -0.903324,0.081 -1.5732594,-0.4728 -0.66993708,-0.5537 -0.5244193,-1.685 -0.5244193,-1.685 z"
       id="path3091"
       inkscape:connector-curvature="0"
       sodipodi:nodetypes="ccczcczcc" />
    <path
       sodipodi:type="arc"
       style="fill:#b3b3b3;fill-opacity:1;stroke:none"
       id="path3954"
       sodipodi:cx="6.0386348"
       sodipodi:cy="1037.6135"
       sodipodi:rx="1.2241055"
       sodipodi:ry="1.1770246"
       d="m 7.2627278,1037.6082 a 1.2241055,1.1770246 0 0 1 -1.2149934,1.1823 1.2241055,1.1770246 0 0 1 -1.2331394,-1.1648 1.2241055,1.1770246 0 0 1 1.2077837,-1.1891 1.2241055,1.1770246 0 0 1 1.2402009,1.1579 l -1.2239448,0.019 z"
       sodipodi:start="6.2786748"
       sodipodi:end="6.2669817" />
    <path
       sodipodi:type="arc"
       style="fill:#b3b3b3;fill-opacity:1;stroke:none"
       id="path3954-3"
       sodipodi:cx="-16.584776"
       sodipodi:cy="1037.6135"
       sodipodi:rx="1.2241055"
       sodipodi:ry="1.1770246"
       d="m -15.360683,1037.6082 a 1.2241055,1.1770246 0 0 1 -1.214993,1.1823 1.2241055,1.1770246 0 0 1 -1.23314,-1.1648 1.2241055,1.1770246 0 0 1 1.207784,-1.1891 1.2241055,1.1770246 0 0 1 1.240201,1.1579 l -1.223945,0.019 z"
       transform="scale(-1,1)"
       sodipodi:start="6.2786748"
       sodipodi:end="6.2669817" />
    <path
       style="fill:none;stroke:#ffffff;stroke-width:0.8888889;stroke-linecap:butt;stroke-linejoin:miter;stroke-miterlimit:4;stroke-dasharray:none;stroke-opacity:1"
       d="m 5.7561504,1038.061 c 0,0 -0.449604,-4.8749 5.3201506,-4.8493 5.769755,0.026 5.414314,4.8964 5.414314,4.8964"
       id="path3974"
       inkscape:connector-curvature="0"
       sodipodi:nodetypes="czc" />
    <ellipse
       ry="3.5029185"
       rx="3.5876665"
       cy="1045.3529"
       cx="14.752381"
       style="fill:#ffffff;fill-opacity:1;fill-rule:nonzero;stroke:#4169e1;stroke-width:0;stroke-linecap:round;stroke-linejoin:miter;stroke-miterlimit:4;stroke-dasharray:none;stroke-opacity:1"
       id="path3012" />
    <path
       inkscape:connector-curvature="0"
       id="path2986"
       d="m 13.983232,1050.8465 c -0.09647,-0.043 -0.199033,-0.1532 -0.244815,-0.2629 -0.02354,-0.056 -0.04708,-0.2738 -0.06732,-0.621 -0.01705,-0.2939 -0.03949,-0.5575 -0.04994,-0.5862 -0.01375,-0.037 -0.08118,-0.074 -0.249183,-0.1325 -0.126643,-0.044 -0.317383,-0.1242 -0.42384,-0.1777 -0.10648,-0.054 -0.216755,-0.098 -0.245102,-0.098 -0.03179,0 -0.205711,0.1414 -0.453926,0.3691 -0.221309,0.2031 -0.438162,0.3876 -0.481887,0.4099 -0.08998,0.046 -0.292512,0.054 -0.397089,0.014 -0.08316,-0.031 -0.962774,-0.8977 -1.019171,-1.0043 -0.05599,-0.1056 -0.04994,-0.3034 0.01276,-0.4232 0.0286,-0.055 0.214621,-0.2754 0.413446,-0.4909 0.214037,-0.232 0.361503,-0.4122 0.361503,-0.4416 0,-0.027 -0.04378,-0.1367 -0.09735,-0.2432 -0.05357,-0.1067 -0.13333,-0.2966 -0.177352,-0.4227 -0.044,-0.1261 -0.09801,-0.2385 -0.120043,-0.2499 -0.022,-0.011 -0.280368,-0.034 -0.574134,-0.051 -0.3416367,-0.019 -0.5715807,-0.043 -0.6381087,-0.067 -0.126775,-0.045 -0.272833,-0.2009 -0.293469,-0.3124 -0.0088,-0.045 -0.01177,-0.3803 -0.0077,-0.7445 l 0.0077,-0.6623 0.07612,-0.096 c 0.13453,-0.1686 0.197769,-0.1856 0.8402997,-0.2251 0.363671,-0.022 0.584749,-0.046 0.603108,-0.065 0.01595,-0.016 0.0704,-0.141 0.12111,-0.2776 0.05071,-0.1367 0.129843,-0.3236 0.175955,-0.4156 0.04609,-0.091 0.08382,-0.1872 0.08382,-0.2118 0,-0.024 -0.152108,-0.2118 -0.338029,-0.4157 -0.185911,-0.204 -0.363748,-0.4048 -0.395186,-0.4464 -0.08844,-0.1169 -0.118316,-0.2618 -0.08338,-0.4036 0.0264,-0.1067 0.0748,-0.1652 0.478863,-0.5748 0.247213,-0.2505 0.490962,-0.4769 0.54165,-0.503 0.117645,-0.061 0.304689,-0.062 0.421498,0 0.04917,0.025 0.264956,0.2067 0.479489,0.4037 0.214544,0.1969 0.404613,0.3663 0.422378,0.3764 0.0187,0.011 0.134299,-0.03 0.274912,-0.097 0.13344,-0.064 0.33309,-0.1454 0.443673,-0.1827 0.149941,-0.051 0.20812,-0.082 0.228822,-0.127 0.01529,-0.033 0.04147,-0.2996 0.05819,-0.5934 0.03223,-0.5649 0.05148,-0.6542 0.168014,-0.7758 0.129591,-0.1353 0.204115,-0.1464 0.928421,-0.1383 l 0.659713,0.011 0.10318,0.068 c 0.177562,0.1176 0.199056,0.1908 0.240878,0.8194 0.02024,0.3043 0.04235,0.5769 0.04906,0.6059 0.0099,0.041 0.06391,0.07 0.240668,0.1323 0.125598,0.044 0.326755,0.1293 0.446996,0.1897 0.120252,0.061 0.228261,0.11 0.240042,0.11 0.01177,0 0.204831,-0.1684 0.429021,-0.3742 0.224191,-0.2057 0.449097,-0.3958 0.499785,-0.4223 0.119834,-0.063 0.298199,-0.062 0.429252,0 0.06226,0.03 0.273614,0.2224 0.539099,0.4906 0.455718,0.4602 0.491633,0.5129 0.491996,0.7213 2.42e-4,0.1474 -0.06534,0.2441 -0.457181,0.6737 -0.213026,0.2335 -0.387321,0.4345 -0.387321,0.4466 0,0.012 0.05555,0.1379 0.123563,0.2796 0.06798,0.1417 0.149006,0.34 0.180103,0.4409 0.03861,0.1252 0.07227,0.19 0.10626,0.2044 0.02728,0.012 0.301994,0.037 0.610378,0.056 0.611974,0.039 0.710556,0.064 0.813163,0.2076 0.09702,0.1366 0.10824,0.2387 0.09988,0.9053 l -0.0077,0.6376 -0.07491,0.1067 c -0.133693,0.1901 -0.167452,0.1999 -0.846394,0.2442 -0.331737,0.022 -0.608981,0.045 -0.616087,0.052 -0.0066,0.011 -0.04829,0.1132 -0.09152,0.2356 -0.04323,0.1226 -0.128227,0.3216 -0.188892,0.4423 -0.06061,0.1208 -0.10681,0.2346 -0.10274,0.2528 0.0044,0.018 0.169697,0.2098 0.367818,0.4258 0.19811,0.2161 0.385362,0.4423 0.416107,0.5029 0.06534,0.1289 0.07139,0.2653 0.01749,0.3941 -0.04752,0.1137 -0.854237,0.9338 -0.985368,1.0016 -0.109669,0.057 -0.309341,0.063 -0.424104,0.013 -0.044,-0.019 -0.264396,-0.2035 -0.489841,-0.4097 -0.225444,-0.2063 -0.427822,-0.3751 -0.449745,-0.3751 -0.02189,0 -0.148907,0.051 -0.282205,0.1131 -0.133298,0.063 -0.330814,0.1424 -0.438933,0.1779 -0.149423,0.05 -0.199462,0.077 -0.208625,0.1166 -0.0066,0.029 -0.0286,0.3008 -0.04884,0.605 -0.04455,0.6693 -0.07007,0.7418 -0.303149,0.8598 -0.06754,0.034 -0.179399,0.041 -0.745271,0.04 -0.500819,-7e-4 -0.684233,-0.011 -0.740289,-0.034 z m 0.981277,-2.9714 c 0.600566,-0.063 1.102352,-0.3025 1.529548,-0.7302 0.325589,-0.3259 0.535677,-0.6917 0.662177,-1.1528 0.07931,-0.289 0.07887,-0.9273 -8.91e-4,-1.2199 -0.241966,-0.8879 -0.877579,-1.5416 -1.756104,-1.8062 -0.204699,-0.062 -0.260282,-0.067 -0.658316,-0.069 -0.381249,0 -0.460724,0 -0.645898,0.056 -0.924604,0.2523 -1.631738,0.9953 -1.824975,1.9173 -0.173602,0.8283 0.08019,1.6739 0.685003,2.2816 0.316645,0.3183 0.727495,0.5517 1.172609,0.6664 0.126918,0.033 0.307043,0.058 0.563574,0.079 0.02046,0 0.143462,-0.011 0.273262,-0.022 z m -0.616055,-1.0416 c -0.633445,-0.1717 -1.076767,-0.7108 -1.116015,-1.3571 -0.02739,-0.4519 0.117964,-0.8341 0.438834,-1.1538 0.584352,-0.582 1.517437,-0.5875 2.094387,-0.012 0.47521,0.4738 0.589236,1.1477 0.294282,1.7392 -0.251217,0.5038 -0.714031,0.8012 -1.281674,0.8234 -0.193248,0.011 -0.288827,0 -0.429814,-0.04 z m 0.708685,-0.6263 c 0.174966,-0.066 0.383647,-0.2595 0.471427,-0.4383 0.06193,-0.1262 0.06941,-0.1681 0.06941,-0.3897 1.1e-5,-0.2359 -0.0044,-0.2564 -0.08514,-0.4055 -0.16313,-0.3008 -0.405174,-0.4533 -0.747086,-0.4706 -0.274659,-0.014 -0.439054,0.044 -0.637329,0.2255 -0.251393,0.2298 -0.351416,0.5493 -0.270676,0.8644 0.06985,0.2728 0.217953,0.4581 0.466993,0.5842 0.232342,0.1177 0.471504,0.1275 0.73239,0.03 z"
       style="fill:#869094" />
  </g>
</svg>
