<?xml version="1.0" encoding="UTF-8" standalone="no"?>
<!-- Created using Karbon, part of Calligra: http://www.calligra.org/karbon -->

<svg
   xmlns:dc="http://purl.org/dc/elements/1.1/"
   xmlns:cc="http://creativecommons.org/ns#"
   xmlns:rdf="http://www.w3.org/1999/02/22-rdf-syntax-ns#"
   xmlns:svg="http://www.w3.org/2000/svg"
   xmlns="http://www.w3.org/2000/svg"
   xmlns:sodipodi="http://sodipodi.sourceforge.net/DTD/sodipodi-0.dtd"
   xmlns:inkscape="http://www.inkscape.org/namespaces/inkscape"
   width="22"
   height="22"
   id="svg2"
   version="1.1"
   inkscape:version="0.91 r13725"
   sodipodi:docname="bluetooth-paired.svg"
   viewBox="0 0 22 22">
  <metadata
     id="metadata11">
    <rdf:RDF>
      <cc:Work
         rdf:about="">
        <dc:format>image/svg+xml</dc:format>
        <dc:type
           rdf:resource="http://purl.org/dc/dcmitype/StillImage" />
        <dc:title />
      </cc:Work>
    </rdf:RDF>
  </metadata>
  <sodipodi:namedview
     pagecolor="#ffffff"
     bordercolor="#666666"
     borderopacity="1"
     objecttolerance="10"
     gridtolerance="10"
     guidetolerance="10"
     inkscape:pageopacity="0"
     inkscape:pageshadow="2"
     inkscape:window-width="1366"
     inkscape:window-height="718"
     id="namedview9"
     showgrid="false"
     inkscape:showpageshadow="false"
     borderlayer="true"
     inkscape:zoom="4.9166665"
     inkscape:cx="1.1531371"
     inkscape:cy="20.181032"
     inkscape:window-x="0"
     inkscape:window-y="0"
     inkscape:window-maximized="1"
     inkscape:current-layer="svg2"
     inkscape:snap-global="false"
     inkscape:document-units="px" />
  <defs
     id="defs4" />
  <path
     style="fill:#808080;fill-opacity:1;stroke-width:3.85841036"
     inkscape:connector-curvature="0"
     d="m 5.2399001,6.6956978 4.1240856,4.1704032 0,0 -4.1240856,4.170434 1.3116,1.322109 3.4286713,-3.3911 0,7.960548 L 16.2399,15.025818 12.444914,10.866101 16.229886,6.7121678 10.014157,0.92809183 9.9845857,8.8511221 6.5559144,5.3780178 Z M 11.868385,4.827876 13.769729,6.6380135 11.868385,8.9826492 Z m 0,8.321178 1.905758,1.945142 -1.901358,1.810142 z"
     id="shape0" />
  <path
     inkscape:connector-curvature="0"
     style="fill:#3daee9;fill-opacity:1;stroke:none"
     d="m 16.898659,12.678721 c -1.5,0 -2.5,1 -2.5,2 l 0,2 -1,0 0,0.75 0,3.25 0.75,0 5.49999,0 0.75,0 0,-4 c -0.5,0 -0.49999,0 -0.99999,0 l 0,-2 c 0,-1 -1,-2 -2.5,-2 z m 0,1 c 0.5,0 1.5,0 1.5,1.375 l 0,1.625 -3,0 0,-1.625 c 0,-1.375 1.01912,-1.375 1.5,-1.375 z"
     id="object-locked"
     sodipodi:nodetypes="sscccccccccssssccss" />
</svg>
