<?xml version="1.0" encoding="UTF-8" standalone="no"?>
<svg
   xmlns:dc="http://purl.org/dc/elements/1.1/"
   xmlns:cc="http://creativecommons.org/ns#"
   xmlns:rdf="http://www.w3.org/1999/02/22-rdf-syntax-ns#"
   xmlns:svg="http://www.w3.org/2000/svg"
   xmlns="http://www.w3.org/2000/svg"
   xmlns:sodipodi="http://sodipodi.sourceforge.net/DTD/sodipodi-0.dtd"
   xmlns:inkscape="http://www.inkscape.org/namespaces/inkscape"
   viewBox="0 0 22 22"
   id="svg"
   version="1.1"
   inkscape:version="0.92.1 r15371"
   width="100%"
   height="100%"
   sodipodi:docname="nm-signal-50-secure.svg">
  <defs
     id="defs81">
    <style
       id="current-color-scheme"
       type="text/css">
      .ColorScheme-Text {
        color:#7B7C7E;
      }
      .ColorScheme-Background{
        color:#EFF0F1;
      }
      .ColorScheme-Highlight{
        color:#3DAEE6;
      }
      .ColorScheme-ViewText {
        color:#7B7C7E;
      }
      .ColorScheme-ViewBackground{
        color:#FCFCFC;
      }
      .ColorScheme-ViewHover {
        color:#3DAEE6;
      }
      .ColorScheme-ViewFocus{
        color:#1E92FF;
      }
      .ColorScheme-ButtonText {
        color:#7B7C7E;
      }
      .ColorScheme-ButtonBackground{
        color:#EFF0F1;
      }
      .ColorScheme-ButtonHover {
        color:#3DAEE6;
      }
      .ColorScheme-ButtonFocus{
        color:#1E92FF;
      }
</style>
  </defs>
  <metadata
     id="metadata34">
    <rdf:RDF>
      <cc:Work
         rdf:about="">
        <dc:format>image/svg+xml</dc:format>
        <dc:type
           rdf:resource="http://purl.org/dc/dcmitype/StillImage" />
        <dc:title />
      </cc:Work>
    </rdf:RDF>
  </metadata>
  <sodipodi:namedview
     pagecolor="#3daee9"
     bordercolor="#666666"
     borderopacity="1"
     objecttolerance="10"
     gridtolerance="10"
     guidetolerance="10"
     inkscape:pageopacity="0.06666667"
     inkscape:pageshadow="2"
     inkscape:window-width="1366"
     inkscape:window-height="714"
     id="namedview32"
     showgrid="true"
     inkscape:zoom="5.6568539"
     inkscape:cx="1.2123438"
     inkscape:cy="-11.831119"
     inkscape:window-x="0"
     inkscape:window-y="0"
     inkscape:window-maximized="1"
     inkscape:current-layer="svg"
     borderlayer="true"
     showguides="true"
     inkscape:guide-bbox="true"
     inkscape:snap-bbox="true">
    <inkscape:grid
       type="xygrid"
       id="grid3046"
       empspacing="4"
       visible="true"
       enabled="true"
       snapvisiblegridlinesonly="true" />
  </sodipodi:namedview>
  <g
     id="g4509">
    <rect
       y="0"
       x="0"
       height="22"
       width="22"
       id="rect6452-6-2-6-2-4-2"
       style="fill:#394050;fill-opacity:0;stroke:none;stroke-opacity:1" />
    <ellipse
       ry="1.6026757"
       rx="1.593021"
       cy="17.397064"
       cx="16.406982"
       id="path3347-5-0-6-2-5-5"
       style="fill:#394050;fill-opacity:1;stroke:none;stroke-width:9;stroke-linecap:butt;stroke-linejoin:bevel;stroke-miterlimit:4;stroke-dasharray:none;stroke-opacity:1" />
    <path
       sodipodi:nodetypes="cczcczc"
       inkscape:connector-curvature="0"
       id="path3349-3-9-1-3-8-9"
       d="m 12.90233,18.98045 -2.02748,-0.019 c 0,0 -0.31746,-2.41844 1.96955,-4.88525 2.28701,-2.4668 5.11698,-2.18193 5.11698,-2.18193 l 0.0193,1.98885 c 0,0 -2.04871,-0.0666 -3.68809,1.58341 -1.63938,1.65035 -1.39027,3.51395 -1.39027,3.51395 z"
       style="fill:#394050;fill-opacity:1;fill-rule:evenodd;stroke:none;stroke-width:1px;stroke-linecap:butt;stroke-linejoin:miter;stroke-opacity:1" />
    <path
       sodipodi:nodetypes="cczcczc"
       inkscape:connector-curvature="0"
       id="path4151-56-3-8-7-6-9"
       d="M 8.98253,18.96107 7.03229,19 c 0,0 -0.70044,-3.70972 3.0449,-7.76797 3.74533,-4.05816 7.89188,-3.27693 7.89188,-3.27693 l 0.0273,1.99353 c 0,0 -3.51591,-0.37881 -6.44458,2.7034 -2.92867,3.0822 -2.56927,6.30904 -2.56927,6.30904 z"
       style="fill:#808080;fill-opacity:1;fill-rule:evenodd;stroke:none;stroke-width:1px;stroke-linecap:butt;stroke-linejoin:miter;stroke-opacity:1" />
    <path
       sodipodi:nodetypes="cczcczc"
       inkscape:connector-curvature="0"
       id="path4153-29-6-7-5-2-1"
       d="m 5.02529,18.98711 -2.02075,-0.0277 c 0,0 -0.30323,-5.13828 4.04706,-10.15553 4.35028,-5.01717 10.89047,-4.78871 10.89047,-4.78871 l 0.0193,1.96957 c 0,0 -5.62674,-0.14308 -9.55813,4.26742 -3.93139,4.4105 -3.37796,8.73493 -3.37796,8.73493 z"
       style="fill:#808080;fill-rule:evenodd;stroke:none;stroke-width:1px;stroke-linecap:butt;stroke-linejoin:miter;stroke-opacity:1" />
    <path
       sodipodi:nodetypes="sscccccccccssssccss"
       id="object-locked-9-1"
       d="m 14.49638,3.89473 c -1.5,0 -2.5,1 -2.5,2 v 2 h -1 v 0.75 3.25 h 0.75 5.49999 0.75 v -4 c -0.5,0 -0.49999,0 -0.99999,0 v -2 c 0,-1 -1,-2 -2.5,-2 z m 0,1 c 0.5,0 1.5,0 1.5,1.375 v 1.625 h -3 v -1.625 c 0,-1.375 1.01912,-1.375 1.5,-1.375 z"
       style="fill:#3daee9;fill-opacity:1;stroke:none"
       inkscape:connector-curvature="0" />
  </g>
</svg>
