<?xml version="1.0" encoding="UTF-8" standalone="no"?>
<!-- Created with Inkscape (http://www.inkscape.org/) -->

<svg
   xmlns:dc="http://purl.org/dc/elements/1.1/"
   xmlns:cc="http://creativecommons.org/ns#"
   xmlns:rdf="http://www.w3.org/1999/02/22-rdf-syntax-ns#"
   xmlns:svg="http://www.w3.org/2000/svg"
   xmlns="http://www.w3.org/2000/svg"
   xmlns:sodipodi="http://sodipodi.sourceforge.net/DTD/sodipodi-0.dtd"
   xmlns:inkscape="http://www.inkscape.org/namespaces/inkscape"
   id="svg2"
   version="1.1"
   inkscape:version="0.92.1 r15371"
   width="22"
   height="22"
   sodipodi:docname="shutter.svg">
  <metadata
     id="metadata8">
    <rdf:RDF>
      <cc:Work
         rdf:about="">
        <dc:format>image/svg+xml</dc:format>
        <dc:type
           rdf:resource="http://purl.org/dc/dcmitype/StillImage" />
        <dc:title />
      </cc:Work>
    </rdf:RDF>
  </metadata>
  <defs
     id="defs6" />
  <sodipodi:namedview
     pagecolor="#ffffff"
     bordercolor="#666666"
     borderopacity="1"
     objecttolerance="10"
     gridtolerance="10"
     guidetolerance="10"
     inkscape:pageopacity="0"
     inkscape:pageshadow="2"
     inkscape:window-width="1366"
     inkscape:window-height="714"
     id="namedview4"
     showgrid="false"
     inkscape:zoom="10.429825"
     inkscape:cx="-9.1314228"
     inkscape:cy="10.190048"
     inkscape:window-x="0"
     inkscape:window-y="0"
     inkscape:window-maximized="1"
     inkscape:current-layer="svg2" />
  <g
     id="g825">
    <path
       inkscape:connector-curvature="0"
       id="path3020"
       d="m 10.006958,21.231156 c -0.07872,-0.03574 -0.1424737,-0.09772 -0.1424737,-0.138509 0,-0.0406 0.1641937,-0.33253 0.3648747,-0.648729 0.553603,-0.872272 0.91097,-1.509645 1.293239,-2.306516 0.749881,-1.56319 1.185259,-2.796218 1.961979,-5.556488 0.08814,-0.313225 0.181578,-0.307934 0.406316,0.02301 0.187623,0.276287 0.631123,1.135572 0.819632,1.588044 0.56842,1.364362 0.834116,2.457867 0.801693,3.299475 -0.01687,0.437894 -0.02277,0.459761 -0.245413,0.908989 -0.675612,1.363208 -1.902238,2.349089 -3.418668,2.747698 -0.540138,0.141981 -1.605519,0.190024 -1.841179,0.08303 z"
       style="fill:#394050;fill-opacity:1" />
    <path
       inkscape:connector-curvature="0"
       id="path3018"
       d="m 6.9930843,20.045624 c -0.873561,-0.122401 -1.657348,-0.431956 -2.372979,-0.937205 -0.663208,-0.468236 -1.245983,-1.126071 -1.259241,-1.42143 l -0.0063,-0.141402 0.372625,-0.05538 c 3.154491,-0.468841 4.974366,-1.021482 8.1012637,-2.460107 0.32066,-0.14753 0.62418,-0.268236 0.67449,-0.268236 0.08366,0 0.08908,0.01745 0.06348,0.20427 -0.05981,0.436323 -0.608741,1.649102 -1.17983,2.60663 -0.791531,1.327136 -1.5090877,2.06888 -2.2156227,2.290304 -0.64002,0.200578 -1.521735,0.274488 -2.177833,0.182557 z"
       style="fill:#394050;fill-opacity:1" />
    <path
       inkscape:connector-curvature="0"
       id="path3014"
       d="m 4.7405473,16.487205 c -0.389186,-0.07655 -0.585172,-0.170425 -0.996121,-0.477138 -1.050633,-0.784145 -1.76287,-1.934233 -1.994682,-3.220922 -0.167072,-0.927346 0.00964,-2.367261 0.290526,-2.367261 0.03555,0 0.257026,0.173649 0.492169,0.385886 1.856498,1.675651 3.815169,2.928578 6.590247,4.215667 0.515557,0.239117 0.9441367,0.455037 0.9523987,0.479823 0.02568,0.07704 -0.2550077,0.215673 -0.8024157,0.396318 -1.649636,0.544379 -3.519422,0.786813 -4.532122,0.587627 z"
       style="fill:#394050;fill-opacity:1" />
    <path
       inkscape:connector-curvature="0"
       id="path3012"
       d="m 7.6846083,14.034796 c -1.24596,-0.651098 -2.834238,-1.926663 -3.488813,-2.801906 -0.329477,-0.440548 -0.449834,-0.709243 -0.509343,-1.137092 -0.223314,-1.6055724 0.379399,-3.2629063 1.601737,-4.4044354 0.581755,-0.543295 1.342817,-0.9754145 1.478681,-0.8395738 0.0356,0.035591 0.05281,0.3889712 0.05734,1.1775021 0.0143,2.4855249 0.332427,4.4217451 1.22434,7.4518121 0.108476,0.368521 0.185456,0.689088 0.171067,0.71237 -0.04631,0.07493 -0.142677,0.04635 -0.535014,-0.158677 z"
       style="fill:#394050;fill-opacity:1" />
    <path
       inkscape:connector-curvature="0"
       id="path3001"
       d="m 7.6383213,11.046578 c -0.01733,-0.04219 -0.02935,-0.648805 -0.02671,-1.3480236 0.0077,-2.0365398 0.2663,-4.0030484 0.682751,-5.1913762 0.246558,-0.7035431 0.475324,-0.9927061 1.12285,-1.4192983 C 10.861039,2.136682 13.724065,1.438722 16.725161,1.306319 c 1.721918,-0.07597 2.957559,0.107631 3.09127,0.459319 0.104484,0.274804 -0.119814,0.4663209 -1.162391,0.9925134 -3.938589,1.9878209 -8.370056,5.3158528 -10.5111587,7.8938826 -0.215265,0.259194 -0.409765,0.47126 -0.432222,0.47126 -0.02246,0 -0.05501,-0.03452 -0.07233,-0.07672 z"
       style="fill:#394050;fill-opacity:1" />
    <path
       id="path3020-0"
       d="m 17.171149,18.456384 c -0.07795,0.0374 -0.166395,0.04648 -0.197666,0.02029 -0.03113,-0.02607 -0.149494,-0.339393 -0.26304,-0.696271 -0.313228,-0.984491 -0.572381,-1.667714 -0.937822,-2.472442 -0.716866,-1.578603 -1.38257,-2.704104 -2.999906,-5.071931 -0.183529,-0.2686918 -0.119476,-0.3369263 0.278536,-0.296715 0.332281,0.03357 1.275796,0.245326 1.743711,0.391345 1.41093,0.440301 2.419834,0.938758 3.044206,1.504014 0.324865,0.294107 0.337838,0.312673 0.539267,0.771804 0.611246,1.393257 0.579418,2.966648 -0.08871,4.385118 -0.23798,0.505246 -0.885236,1.352835 -1.118579,1.464793 z"
       style="fill:#394050;fill-opacity:1"
       inkscape:connector-curvature="0" />
    <path
       id="path3020-8"
       d="m 19.38122,10.624651 c -0.013,0.08548 -0.05531,0.163673 -0.09456,0.174762 -0.03907,0.01104 -0.364643,-0.06761 -0.72349,-0.174773 -0.98992,-0.295621 -1.70044,-0.466257 -2.571221,-0.617496 -1.708176,-0.296679 -3.013126,-0.3804558 -5.880595,-0.3775313 -0.3253887,3.318e-4 -0.3456987,-0.091024 -0.08832,-0.3972688 0.214875,-0.2556664 0.92123,-0.9160636 1.305414,-1.2204799 1.15845,-0.9179208 2.138542,-1.4708845 2.957268,-1.6684773 0.425989,-0.1028086 0.448637,-0.103072 0.941472,-0.010943 1.495535,0.2795727 2.77775,1.1919864 3.573596,2.5429411 0.283472,0.4811971 0.619334,1.4933942 0.580432,1.7492662 z"
       style="fill:#394050;fill-opacity:1"
       inkscape:connector-curvature="0" />
  </g>
</svg>
