/* XPM */
static char * close_pressed_xpm[] = {
"44 20 3 1",
" 	c None",
".	c #28474C",
"+	c #558356",
"...+++++++++++++............................",
"...+++++++++++++............................",
"...+++++++++++++............................",
"...+++++++++++++............................",
"............................................",
"............................................",
"............................................",
"............................................",
"............................................",
"............................................",
"............................................",
"............................................",
"............................................",
"............................................",
"............................................",
"............................................",
"............................................",
"............................................",
"............................................",
"............................................"};
