/* XPM */
static char * close_xpm[] = {
"44 20 3 1",
" 	c None",
".	c #28474C",
"+	c #9B3948",
"...+++++++++++++............................",
"...+++++++++++++............................",
"...+++++++++++++............................",
"...+++++++++++++............................",
"............................................",
"............................................",
"............................................",
"............................................",
"............................................",
"............................................",
"............................................",
"............................................",
"............................................",
"............................................",
"............................................",
"............................................",
"............................................",
"............................................",
"............................................",
"............................................"};
