/* XPM */
static char *close_pressed[] = {
/* columns rows colors chars-per-pixel */
"20 20 49 1 ",
"  c #FC62A0",
". c #FC63A0",
"X c #FC63A1",
"o c #FC64A1",
"O c #FC65A1",
"+ c #FC65A2",
"@ c #FC67A3",
"# c #FC6FA8",
"$ c #FC70A8",
"% c #FC71A9",
"& c #FC75AB",
"* c #FC7FB1",
"= c #FC80B2",
"- c #FC81B2",
"; c #FC82B3",
": c #FC83B4",
"> c #FC85B5",
", c #FD88B7",
"< c #FD95BF",
"1 c #FD98C0",
"2 c #FD99C1",
"3 c #FDA4C7",
"4 c #FDAFCF",
"5 c #FDB2D0",
"6 c #FDB3D1",
"7 c #FDB5D2",
"8 c #FDB7D3",
"9 c #FDBAD5",
"0 c #FDBBD6",
"q c #FEDEEB",
"w c #FEDFEC",
"e c #FEE0EC",
"r c #FEE1ED",
"t c #FEE3EE",
"y c #FEECF3",
"u c #FFEEF5",
"i c #FFEFF5",
"p c #FEF0F6",
"a c #FFF0F6",
"s c #FFF1F6",
"d c #FFF1F7",
"f c #FFF2F7",
"g c #FFF4F8",
"h c #FFF5F9",
"j c #FFF6F9",
"k c #FFFDFE",
"l c #FFFEFE",
"z c #FFFEFF",
"x c white",
/* pixels */
"xxxxxxxxxxxxxxxxxxxx",
"xxxxxxxxxxxxxxxxxxxx",
"xxxxxxxxxxxxxxxxxxxx",
"xxxxxxxxxxxxxxxxxxxx",
"xxxxxxxkgyyhlxxxxxxx",
"xxxxxxh9>&&,8axxxxxx",
"xxxxxj3@ .. O<uxxxxx",
"xxxxx0@Xoooooo4kxxxx",
"xxxxd: oooooo *pxxxx",
"xxxxw$.oooooo.$rxxxx",
"xxxxq#.oooooo.%txxxx",
"xxxxi* oooooo ;fxxxx",
"xxxxl5OXooooX+7zxxxx",
"xxxxxa1O .. O2sxxxxx",
"xxxxxxs6=$$-6sxxxxxx",
"xxxxxxxkaeeskxxxxxxx",
"xxxxxxxxxxxxxxxxxxxx",
"xxxxxxxxxxxxxxxxxxxx",
"xxxxxxxxxxxxxxxxxxxx",
"xxxxxxxxxxxxxxxxxxxx"
};
