/* XPM */
static char *close_focus[] = {
/* columns rows colors chars-per-pixel */
"20 20 62 1 ",
"  c #FC609F",
". c #FC619F",
"X c #FC63A0",
"o c #FC63A1",
"O c #FC64A1",
"+ c #FC65A1",
"@ c #FC65A2",
"# c #FC67A3",
"$ c #FC6FA8",
"% c #FC70A8",
"& c #FC71A9",
"* c #FC75AB",
"= c #FC7FB1",
"- c #FC80B2",
"; c #FC81B2",
": c #FC82B3",
"> c #FC83B4",
", c #FC84B5",
"< c #FC85B5",
"1 c #FD88B7",
"2 c #FC8AB8",
"3 c #FD8CB9",
"4 c #FD8FBB",
"5 c #FD95BF",
"6 c #FD98C0",
"7 c #FD99C1",
"8 c #FDA4C7",
"9 c #FDAFCF",
"0 c #FDB0CF",
"q c #FDB2D0",
"w c #FDB3D1",
"e c #FDB5D2",
"r c #FDB7D3",
"t c #FDB9D4",
"y c #FDBAD5",
"u c #FDBBD6",
"i c #FDBCD6",
"p c #FDBDD7",
"a c #FEDEEB",
"s c #FEDFEC",
"d c #FEE0EC",
"f c #FEE1ED",
"g c #FEE3EE",
"h c #FEE5EF",
"j c #FEECF3",
"k c #FEECF4",
"l c #FEEDF4",
"z c #FEEEF4",
"x c #FFEEF5",
"c c #FFEFF5",
"v c #FEF0F6",
"b c #FFF0F6",
"n c #FFF1F6",
"m c #FFF1F7",
"M c #FFF2F7",
"N c #FFF4F8",
"B c #FFF5F9",
"V c #FFF6F9",
"C c #FFFDFE",
"Z c #FFFEFE",
"A c #FFFEFF",
"S c white",
/* pixels */
"SSSSSSSSSSSSSSSSSSSS",
"SSSSSSSSSSSSSSSSSSSS",
"SSSSSSSSSSSSSSSSSSSS",
"SSSSSSSSSSSSSSSSSSSS",
"SSSSSSSCNjjBZSSSSSSS",
"SSSSSSBy<**1rbSSSSSS",
"SSSSSV8#... +5xSSSSS",
"SSSSSu#X,002@O9CSSSS",
"SSSSm>.<hSSz4.=vSSSS",
"SSSSs$OySSSSiO%fSSSS",
"SSSSa$+pSSSSto&gSSSS",
"SSSSc=.3lSSk2.:MSSSS",
"SSSSZq++3iu3+@eASSSS",
"SSSSSb6+.OO.+7nSSSSS",
"SSSSSSnw-%%;wnSSSSSS",
"SSSSSSSCbddnCSSSSSSS",
"SSSSSSSSSSSSSSSSSSSS",
"SSSSSSSSSSSSSSSSSSSS",
"SSSSSSSSSSSSSSSSSSSS",
"SSSSSSSSSSSSSSSSSSSS"
};
