/* XPM */
static char *close[] = {
/* columns rows colors chars-per-pixel */
"20 20 32 1 ",
"  c #C3C3C3",
". c #C4C4C4",
"X c #C5C5C5",
"o c #C8C8C8",
"O c #C9C9C9",
"+ c #CACACA",
"@ c #CBCBCB",
"# c #CDCDCD",
"$ c #CECECE",
"% c #D0D0D0",
"& c #D6D6D6",
"* c #D7D7D7",
"= c #D9D9D9",
"- c #DCDCDC",
"; c #E1E1E1",
": c #E5E5E5",
"> c #E8E8E8",
", c #E9E9E9",
"< c #EAEAEA",
"1 c #EBEBEB",
"2 c #EEEEEE",
"3 c #EFEFEF",
"4 c #F1F1F1",
"5 c #F2F2F2",
"6 c #F3F3F3",
"7 c #F5F5F5",
"8 c #F6F6F6",
"9 c #F7F7F7",
"0 c #FCFCFC",
"q c #FDFDFD",
"w c #FEFEFE",
"e c #FFFFFF",
/* pixels */
"eeeeeeeeeeeeeeeeeeee",
"eeeeeeeeeeeeeeeeeeee",
"eeeeeeeeeeeeeeeeeeee",
"eeeeeeeeeeeeeeeeeeee",
"eeeeeeeeeeeeeeeeeeee",
"eeeeeee9>;;,9eeeeeee",
"eeeeee3%X  X$<weeeee",
"eeeee5# .... O2eeeee",
"eeeeq= ...... &0eeee",
"eeee8@........+8eeee",
"eeee4o........o6eeee",
"eeee7+........@9eeee",
"eeee0& ...... *qeeee",
"eeeee3+ .... +3eeeee",
"eeeeew1$.  .$1weeeee",
"eeeeeee8:--:8eeeeeee",
"eeeeeeeeewweeeeeeeee",
"eeeeeeeeeeeeeeeeeeee",
"eeeeeeeeeeeeeeeeeeee",
"eeeeeeeeeeeeeeeeeeee"
};
