/* XPM */
static char *maximize_focus[] = {
/* columns rows colors chars-per-pixel */
"20 20 62 1 ",
"  c #70CC9E",
". c #72CD9F",
"X c #72CDA0",
"o c #73CDA0",
"O c #74CDA0",
"+ c #74CDA1",
"@ c #76CEA2",
"# c #7DD0A7",
"$ c #7DD1A7",
"% c #7ED1A7",
"& c #7ED1A8",
"* c #82D2AA",
"= c #8BD5B0",
"- c #8CD6B1",
"; c #8DD6B1",
": c #8ED7B3",
"> c #8FD7B3",
", c #90D7B4",
"< c #91D7B4",
"1 c #94D9B6",
"2 c #95D9B7",
"3 c #96D9B7",
"4 c #97DAB8",
"5 c #98DAB9",
"6 c #9ADBBA",
"7 c #9FDDBE",
"8 c #A2DEC0",
"9 c #ADE1C7",
"0 c #B7E5CE",
"q c #B8E5CF",
"w c #B8E6CF",
"e c #BAE6D0",
"r c #BBE6D0",
"t c #BBE6D1",
"y c #BCE7D2",
"u c #BDE7D3",
"i c #C0E8D4",
"p c #C1E9D5",
"a c #C2E9D5",
"s c #C2E9D6",
"d c #C4EAD7",
"f c #E1F4EB",
"g c #E2F5EC",
"h c #E3F5EC",
"j c #E4F5ED",
"k c #E5F6ED",
"l c #E8F7EF",
"z c #EEF9F3",
"x c #EEF9F4",
"c c #EFF9F4",
"v c #F0F9F5",
"b c #F1FAF5",
"n c #F1FAF6",
"m c #F2FAF6",
"M c #F3FBF7",
"N c #F5FBF8",
"B c #F6FCF9",
"V c #FDFEFE",
"C c #FEFEFE",
"Z c #FEFFFE",
"A c #FEFFFF",
"S c white",
/* pixels */
"SSSSSSSSSSSSSSSSSSSS",
"SSSSSSSSSSSSSSSSSSSS",
"SSSSSSSSSSSSSSSSSSSS",
"SSSSSSSSSSSSSSSSSSSS",
"SSSSSSSCNzzBZSSSSSSS",
"SSSSSSBp<**1umSSSSSS",
"SSSSSB9@    o7vSSSSS",
"SSSSSa@.,wq2+o0CSSSS",
"SSSSM> <lSSc6 =nSSSS",
"SSSSg$opSSSSso%jSSSS",
"SSSSf#odSSSSiX&kSSSS",
"SSSSb= 5xSSz3 :MSSSS",
"SSSSZeoO4sa4OOyASSSS",
"SSSSSn8o oo o8mSSSSS",
"SSSSSSmr-$%;tmSSSSSS",
"SSSSSSSVnhhmVSSSSSSS",
"SSSSSSSSSSSSSSSSSSSS",
"SSSSSSSSSSSSSSSSSSSS",
"SSSSSSSSSSSSSSSSSSSS",
"SSSSSSSSSSSSSSSSSSSS"
};
