/* XPM */
static char *maximize[] = {
/* columns rows colors chars-per-pixel */
"20 20 28 1 ",
"  c #DBDBDB",
". c #DCDCDC",
"X c #DDDDDD",
"o c #DEDEDE",
"O c #DFDFDF",
"+ c #E0E0E0",
"@ c #E1E1E1",
"# c #E2E2E2",
"$ c #E3E3E3",
"% c #E6E6E6",
"& c #E7E7E7",
"* c #E8E8E8",
"= c #EAEAEA",
"- c #EDEDED",
"; c #F0F0F0",
": c #F1F1F1",
"> c #F2F2F2",
", c #F3F3F3",
"< c #F4F4F4",
"1 c #F5F5F5",
"2 c #F6F6F6",
"3 c #F7F7F7",
"4 c #F8F8F8",
"5 c #F9F9F9",
"6 c #FAFAFA",
"7 c #FDFDFD",
"8 c #FEFEFE",
"9 c #FFFFFF",
/* pixels */
"99999999999999999999",
"99999999999999999999",
"99999999999999999999",
"99999999999999999999",
"99999999999999999999",
"99999996:-->69999999",
"9999991$X  X#>999999",
"999993@......O<99999",
"99998*....... %79999",
"99996+........O59999",
"99993o........o49999",
"99995O........+69999",
"99997&....... &79999",
"999991O......O299999",
"999999,#.  .#,999999",
"99999995;==;59999999",
"99999999999999999999",
"99999999999999999999",
"99999999999999999999",
"99999999999999999999"
};
