/* XPM */
static char *maximize_pressed[] = {
/* columns rows colors chars-per-pixel */
"20 20 48 1 ",
"  c #71CC9F",
". c #72CC9F",
"X c #72CD9F",
"o c #72CDA0",
"O c #73CDA0",
"+ c #74CDA0",
"@ c #74CDA1",
"# c #76CEA2",
"$ c #7DD1A7",
"% c #7ED1A7",
"& c #7FD1A8",
"* c #82D2AA",
"= c #8BD5B0",
"- c #8CD6B1",
"; c #8DD6B1",
": c #8ED7B3",
"> c #8FD7B3",
", c #91D7B4",
"< c #94D9B6",
"1 c #9FDDBE",
"2 c #A2DEC0",
"3 c #ADE1C7",
"4 c #B7E5CE",
"5 c #BAE6D0",
"6 c #BBE6D0",
"7 c #BBE6D1",
"8 c #BCE7D2",
"9 c #BDE7D3",
"0 c #C1E9D5",
"q c #C2E9D5",
"w c #E1F4EB",
"e c #E2F5EC",
"r c #E3F5EC",
"t c #E4F5ED",
"y c #E5F6ED",
"u c #EEF9F3",
"i c #F0F9F5",
"p c #F1FAF5",
"a c #F1FAF6",
"s c #F2FAF6",
"d c #F3FBF7",
"f c #F5FBF8",
"g c #F6FCF9",
"h c #FDFEFE",
"j c #FEFEFE",
"k c #FEFFFE",
"l c #FEFFFF",
"z c white",
/* pixels */
"zzzzzzzzzzzzzzzzzzzz",
"zzzzzzzzzzzzzzzzzzzz",
"zzzzzzzzzzzzzzzzzzzz",
"zzzzzzzzzzzzzzzzzzzz",
"zzzzzzzjfuugkzzzzzzz",
"zzzzzzg0,**<9szzzzzz",
"zzzzzg3# XX +1izzzzz",
"zzzzzq#oOOOOoO4jzzzz",
"zzzzd> OOOOOO.=azzzz",
"zzzze%XOOOOOOX%tzzzz",
"zzzzw$XOOOOOOX&yzzzz",
"zzzzp=.OOOOOO :dzzzz",
"zzzzk5+oOOOOo@8lzzzz",
"zzzzza2+.XX +2szzzzz",
"zzzzzzs6-%%;7szzzzzz",
"zzzzzzzharrshzzzzzzz",
"zzzzzzzzzzzzzzzzzzzz",
"zzzzzzzzzzzzzzzzzzzz",
"zzzzzzzzzzzzzzzzzzzz",
"zzzzzzzzzzzzzzzzzzzz"
};
