/* XPM */
static char *minimize[] = {
/* columns rows colors chars-per-pixel */
"20 20 20 1 ",
"  c #E8E8E8",
". c #E9E9E9",
"X c #EAEAEA",
"o c #EBEBEB",
"O c #ECECEC",
"+ c #EDEDED",
"@ c #EFEFEF",
"# c #F0F0F0",
"$ c #F1F1F1",
"% c #F3F3F3",
"& c #F5F5F5",
"* c #F6F6F6",
"= c #F7F7F7",
"- c #F8F8F8",
"; c #F9F9F9",
": c #FAFAFA",
"> c #FBFBFB",
", c #FCFCFC",
"< c #FEFEFE",
"1 c #FFFFFF",
/* pixels */
"11111111111111111111",
"11111111111111111111",
"11111111111111111111",
"11111111111111111111",
"11111111111111111111",
"1111111,*%%*,1111111",
"111111;+    O=111111",
"11111:o      X-11111",
"1111<#        @<1111",
"1111>X        X>1111",
"1111:.        .:1111",
"1111>X        o,1111",
"1111<@        #<1111",
"11111;X      X;11111",
"111111=O    O=111111",
"1111111>&$$&,1111111",
"11111111111111111111",
"11111111111111111111",
"11111111111111111111",
"11111111111111111111"
};
