/* XPM */
static char *minimize_focus[] = {
/* columns rows colors chars-per-pixel */
"20 20 69 1 ",
"  c #6C9CAF",
". c #6E9DB1",
"X c #6F9EB1",
"o c #709EB1",
"O c #709FB1",
"+ c #709FB2",
"@ c #72A0B2",
"# c #72A0B3",
"$ c #79A5B6",
"% c #7AA5B7",
"& c #7AA6B7",
"* c #7BA6B7",
"= c #7FA9B9",
"- c #7FA9BA",
"; c #88AFBE",
": c #89AFBF",
"> c #8AB0BF",
", c #8BB1C0",
"< c #8CB1C0",
"1 c #8DB2C1",
"2 c #8EB2C1",
"3 c #8EB3C2",
"4 c #91B5C3",
"5 c #92B6C4",
"6 c #93B6C4",
"7 c #94B7C5",
"8 c #95B7C5",
"9 c #97B9C7",
"0 c #9DBDCA",
"q c #9FBECB",
"w c #A0BFCB",
"e c #AAC6D1",
"r c #B5CDD7",
"t c #B6CED7",
"y c #B8CFD8",
"u c #B9CFD9",
"i c #B9D0D9",
"p c #BAD1DA",
"a c #BCD1DB",
"s c #BED3DC",
"d c #BFD4DC",
"f c #C0D4DD",
"g c #C0D5DD",
"h c #C1D5DD",
"j c #C2D6DE",
"k c #E0EAEE",
"l c #E1EBEF",
"z c #E2EBEF",
"x c #E2ECEF",
"c c #E3ECF0",
"v c #E5EDF1",
"b c #E7EFF2",
"n c #EDF3F5",
"m c #EEF3F6",
"M c #EFF4F6",
"N c #EFF4F7",
"B c #F0F5F7",
"V c #F1F5F7",
"C c #F1F6F7",
"Z c #F1F6F8",
"A c #F2F6F8",
"S c #F3F7F8",
"D c #F4F8F9",
"F c #F5F9FA",
"G c #F6F9FA",
"H c #FDFEFE",
"J c #FEFEFE",
"K c #FEFFFF",
"L c white",
/* pixels */
"LLLLLLLLLLLLLLLLLLLL",
"LLLLLLLLLLLLLLLLLLLL",
"LLLLLLLLLLLLLLLLLLLL",
"LLLLLLLLLLLLLLLLLLLL",
"LLLLLLLJDnnFJLLLLLLL",
"LLLLLLGd2=-4aZLLLLLL",
"LLLLLGe#    X0NLLLLL",
"LLLLLg@.1tt5+XrJLLLL",
"LLLLS< 3bLLM9 ;VLLLL",
"LLLLl%XdLLLLgX&cLLLL",
"LLLLk$XjLLLLs.*vLLLL",
"LLLLB; 8mLLn6 ,SLLLL",
"LLLLJyXo7hf7oOpKLLLL",
"LLLLLCqo XX XwALLLLL",
"LLLLLLAu:%&>iALLLLLL",
"LLLLLLLHVzxZHLLLLLLL",
"LLLLLLLLLLLLLLLLLLLL",
"LLLLLLLLLLLLLLLLLLLL",
"LLLLLLLLLLLLLLLLLLLL",
"LLLLLLLLLLLLLLLLLLLL"
};
