/* XPM */
static char *minimize_pressed[] = {
/* columns rows colors chars-per-pixel */
"20 20 55 1 ",
"  c #6D9DB0",
". c #6E9DB0",
"X c #6E9DB1",
"o c #6E9EB1",
"O c #6F9EB1",
"+ c #709EB1",
"@ c #709FB1",
"# c #72A0B2",
"$ c #72A0B3",
"% c #79A5B7",
"& c #7AA5B7",
"* c #7AA6B7",
"= c #7BA6B7",
"- c #7FA9B9",
"; c #7FA9BA",
": c #88AFBE",
"> c #89AFBF",
", c #8AB0BF",
"< c #8BB1C0",
"1 c #8CB1C0",
"2 c #8EB2C1",
"3 c #91B5C3",
"4 c #9DBDCA",
"5 c #9FBECB",
"6 c #A0BFCB",
"7 c #AAC6D1",
"8 c #B5CDD7",
"9 c #B8CFD8",
"0 c #B9CFD9",
"q c #B9D0D9",
"w c #BAD1DA",
"e c #BCD1DB",
"r c #BFD4DC",
"t c #C0D5DD",
"y c #E0EAEE",
"u c #E1EBEF",
"i c #E2EBEF",
"p c #E2ECEF",
"a c #E3ECF0",
"s c #E5EDF1",
"d c #EDF3F5",
"f c #EFF4F7",
"g c #F0F5F7",
"h c #F1F5F7",
"j c #F1F6F7",
"k c #F1F6F8",
"l c #F2F6F8",
"z c #F3F7F8",
"x c #F4F8F9",
"c c #F5F9FA",
"v c #F6F9FA",
"b c #FDFEFE",
"n c #FEFEFE",
"m c #FEFFFF",
"M c white",
/* pixels */
"MMMMMMMMMMMMMMMMMMMM",
"MMMMMMMMMMMMMMMMMMMM",
"MMMMMMMMMMMMMMMMMMMM",
"MMMMMMMMMMMMMMMMMMMM",
"MMMMMMMnxddcnMMMMMMM",
"MMMMMMvr2-;3ekMMMMMM",
"MMMMMv7$ .. +4fMMMMM",
"MMMMMt#oOOOOoO8nMMMM",
"MMMMz1 OOOOOO :hMMMM",
"MMMMu&XOOOOOOX*aMMMM",
"MMMMy%XOOOOOOX=sMMMM",
"MMMMg: OOOOOO <zMMMM",
"MMMMn9+oOOOOo@wmMMMM",
"MMMMMj5+ XX +6lMMMMM",
"MMMMMMl0>&*,qlMMMMMM",
"MMMMMMMbhipkbMMMMMMM",
"MMMMMMMMMMMMMMMMMMMM",
"MMMMMMMMMMMMMMMMMMMM",
"MMMMMMMMMMMMMMMMMMMM",
"MMMMMMMMMMMMMMMMMMMM"
};
