/* XPM */
static char *Close_pressed[] = {
/* columns rows colors chars-per-pixel */
"30 30 99 2 ",
"   c #18100E3312EE",
".  c #18760EB51358",
"X  c #18A40EEF1388",
"o  c #18D30F2A13B8",
"O  c #19E3108414D2",
"+  c #1A3910F2152C",
"@  c #1AB6119015AD",
"#  c #1B19120E1614",
"$  c #1B8A129E1689",
"%  c #1BED131D16F0",
"&  c #21A01A5B1CD8",
"*  c #21F01AC11D2C",
"=  c #233E1C6A1E86",
"-  c #239F1CE51EEB",
";  c #23E51D3F1F34",
":  c #24471DBC1F9A",
">  c #24891E0F1FDE",
",  c #251C1ECB2076",
"<  c #257A1F4220D7",
"1  c #2687209921EF",
"2  c #26F0211E225B",
"3  c #276A21B822DA",
"4  c #27F422682369",
"5  c #28EF23A7246D",
"6  c #2976245324F9",
"7  c #385E3747346E",
"8  c #38FA380D3510",
"9  c #3B163ABC3740",
"0  c #3BA83B7637D8",
"q  c #3D233D573960",
"w  c #3DB93E1639FC",
"e  c #3F5740263BAA",
"r  c #3FDD40D03C35",
"t  c #43D445DA4051",
"y  c #4453467B40D5",
"u  c #45DB486E426C",
"i  c #463448DE42C7",
"p  c #589E604955E0",
"a  c #59536131569C",
"s  c #5C56650459BB",
"d  c #5C96655659FF",
"f  c #5CE665BC5A50",
"g  c #5D3E662C5AAC",
"h  c #5EA267F15C1D",
"j  c #5F2F68A35CAE",
"k  c #60F96AE95E8A",
"l  c #61886BA15F1E",
"z  c #666371CC6428",
"x  c #67807336654F",
"c  c #6B5078126944",
"v  c #6C0478F569FE",
"b  c #6D2C7A6E6B31",
"n  c #6EC97C7B6CDD",
"m  c #70957EC36EB9",
"M  c #725D81077093",
"N  c #741B833F7262",
"B  c #76D786B97538",
"V  c #7761876875C6",
"C  c #77A987C37611",
"Z  c #783C887E76AA",
"A  c #81EC94D080B6",
"S  c #8332966E8208",
"D  c #850098BA83E7",
"F  c #86439A558536",
"G  c #8A6F9FA28989",
"H  c #8CDCA2B88C0D",
"J  c #8D26A3168C5A",
"K  c #93FFABCC9374",
"L  c #94D3ACD99450",
"P  c #996BB2B09913",
"I  c #9A87B41A9A3A",
"U  c #9AADB44B9A61",
"Y  c #9BCAB5B49B88",
"T  c #9CE4B71B9CAD",
"R  c #9D3BB78A9D08",
"E  c #9E31B8C39E07",
"W  c #9E57B8F39E2E",
"Q  c #9F61BA459F41",
"!  c #A608C2BAA628",
"~  c #A722C420A74C",
"^  c #AAC0C8BAAB0C",
"/  c #ABC5CA07AC1C",
"(  c #ADE1CCB5AE4C",
")  c #AEDFCDF8AF53",
"_  c #B183D154B210",
"`  c #B23FD243B2D4",
"'  c #B273D285B309",
"]  c #B453D4E6B4FA",
"[  c #B496D53DB540",
"{  c #B910DAEEB9E5",
"}  c #B9E5DBFDBAC1",
"|  c #BC3CDEF7BD2F",
" . c #BCD0DFB3BDC9",
".. c #BDD0E0F8BED2",
"X. c #BE2CE16BBF31",
"o. c #BE3BE180BF40",
"O. c #BE8AE1E4BF92",
"+. c #BF80E31DC091",
"@. c #BFD6E38AC0EA",
/* pixels */
"# # # # # # # # # # # # # # # # # # # # # # # # # # # # # # ",
"# # # # # # # # # # # # # # # # # # # # # # # # # # # # # # ",
"# # # # # # # # # # + o   . O O .   X + # # # # # # # # # # ",
"# # # # # # # # # + & 7 t q 3 5 e u 9 = + # # # # # # # # # ",
"# # # # # # # # + , z ! { ( A D _ | ^ v 2 + # # # # # # # # ",
"# # # # # # # # $ p ` @.o.O.....O...+.] d % # # # # # # # # ",
"# # # # # # # @ - G @.......X.X.......@.H > @ # # # # # # # ",
"# # # # # # @ O 1 K +.................+.L 2 O @ # # # # # # ",
"# # # # + $ - 1 : Z ..X.............X...V : 1 ; $ + # # # # ",
"# # # + , p G K Z k T o.X.........X.X.I h C K G a < + # # # ",
"# # + & z ` @.+...T N W X...........Y m Y ..+.@.' x * + # # ",
"# # o 7 ! @.....X.o.W M Q X.X.X...T n R o.X.....@.~ 8 o # # ",
"# #   t { o.......X.X.Q M W O.o.Y n W X.X.......X.} y   # # ",
"# # . q ( O...........X.W N E Y m R X...........O.) w . # # ",
"# # O 3 A ..X.........X.O.E l j T O.X.........X...S 4 O # # ",
"# # O 5 D ..X.........X.o.Y j f U o.X.........X...F 6 O # # ",
"# # . e _ O.............Y m T U b U ............O.' r . # # ",
"# #   u | ........X...T n R O.o.U c Y ..X......... .i   # # ",
"# # X 9 ^ +.....X.X.Y n W X.X.X...Y c U X.X.....+./ 0 X # # ",
"# # + = v ] @.+...I m R X...........U b P ..+.@.[ b - + # # ",
"# # # + 2 d H L V h Y o.X.........X.X.P s B L J g 3 + # # # ",
"# # # # + % > 2 : C ..X.............X...B ; 2 > % + # # # # ",
"# # # # # # @ O 1 K +.................+.L 2 O @ # # # # # # ",
"# # # # # # # @ ; G @.......X.X.......@.J > @ # # # # # # # ",
"# # # # # # # # $ a ' @.X.O.....O...+.[ g % # # # # # # # # ",
"# # # # # # # # + < x ~ } ) S F '  ./ b 3 + # # # # # # # # ",
"# # # # # # # # # + * 8 y w 4 6 r i 0 - + # # # # # # # # # ",
"# # # # # # # # # # + o   . O O .   X + # # # # # # # # # # ",
"# # # # # # # # # # # # # # # # # # # # # # # # # # # # # # ",
"# # # # # # # # # # # # # # # # # # # # # # # # # # # # # # "
};
