/* XPM */
static char *Close[] = {
/* columns rows colors chars-per-pixel */
"30 30 89 1 ",
"  c #19A90ED21478",
". c #19E60F5914BC",
"X c #1A0C0FB014E6",
"o c #1A9010D9157A",
"O c #1AC0114415B0",
"+ c #1B19120E1614",
"@ c #1B7612DF167C",
"# c #1E1E18DC1976",
"$ c #1E45193419A2",
"% c #1EDF1A8E1A4D",
"& c #1F101AFD1A85",
"* c #1F431B6E1ABD",
"= c #1F761BE21AF7",
"- c #1FBE1C851B48",
"; c #1FEC1CEB1B7B",
": c #20721E191C11",
"> c #20A41E8B1C49",
", c #20CC1EE51C76",
"< c #210C1F761CBE",
"1 c #2182207E1D41",
"2 c #21BD21061D85",
"3 c #28A8309A2543",
"4 c #28F0313D2594",
"5 c #29E9336E26AB",
"6 c #2A2D340726F7",
"7 c #2ADC359227BB",
"8 c #2B20362B2807",
"9 c #2C0138252903",
"0 c #2DF43C8C2B33",
"q c #2E313D132B76",
"w c #2EE63EAB2C41",
"e c #2F103F0A2C70",
"r c #3798524235FE",
"t c #37EB52FD365A",
"y c #396F5669380E",
"u c #39BC57153863",
"i c #3A6758963923",
"p c #3A9F59153962",
"a c #3B955B3F3A75",
"s c #3DF360963D1D",
"d c #3E7B61C83DB5",
"f c #403A65B73FAA",
"g c #4098668A4012",
"h c #411567A3409E",
"j c #41D96961417C",
"k c #42AA6B374265",
"l c #43836D1D4357",
"z c #443F6EC7442A",
"x c #445C6F06444A",
"c c #458871AB459A",
"v c #45E372774600",
"b c #46367333465D",
"n c #4AB47D544B65",
"m c #4B4A7EA44C0D",
"M c #4C22808A4CFF",
"N c #4CB381D34DA2",
"B c #4E93860D4FBB",
"V c #4EB8865F4FE4",
"C c #4FDC88F0512B",
"Z c #5310902954C2",
"A c #537291065530",
"S c #538291285541",
"D c #558E95C7578D",
"F c #561096EB581E",
"G c #562D972D583F",
"H c #56AF985158D0",
"J c #56B7986558DA",
"K c #573C9990596E",
"L c #57CB9AD15A0E",
"P c #57DB9AF55A1F",
"I c #58539C035AA6",
"U c #5B5BA2D85E0B",
"Y c #5BD8A3F35E98",
"T c #5DA0A7F46096",
"R c #5E10A8F26113",
"E c #5F0CAB2A622E",
"W c #5F0CAB2B622E",
"Q c #5F7FAC2E62AF",
"! c #60B1AEDE6406",
"~ c #611EAFD56480",
"^ c #6215B2006595",
"/ c #6445B6EE6807",
"( c #648BB78D6856",
") c #65ADBA1A699B",
"_ c #65F5BABB69EB",
"` c #6671BBD46A77",
"' c #66B5BC6D6AC3",
"] c #66EEBCEE6B03",
"[ c #674BBDBE6B6A",
/* pixels */
"++++++++++++++++++++++++++++++",
"++++++++++++++++++++++++++++++",
"++++++++++OX .oo. .O++++++++++",
"+++++++++O#307,19w5%O+++++++++",
"++++++++O-sU/WnM!)Tg>O++++++++",
"++++++++@r~[']``'`[^y@++++++++",
"++++++++&B[````````[C=++++++++",
"+++++++O:Z[````````[S>O+++++++",
"++++O@&:=b``````````v*:&@O++++",
"+++O-rBZbaK'```````FivZVt;O+++",
"++O#s~[[`KzP``````JkH`[[~d$O++",
"++X3U[```'PlI````KjK'```[Y4X++",
"++ 0/'`````IlP''JjL``````(q ++",
"++.7E]``````PxLJkK``````]Q8.++",
"++o,n```````'LapK'```````m<o++",
"++o1M```````'JpyG'```````N2o++",
"++.9!'``````JkKGhG``````'~9.++",
"++ w)``````KjK''GfH``````_e ++",
"++.5T[````JjL````HfG````[R6.++",
"++O%g^[[`FkK``````GhD`[[^h&O++",
"+++O>yCSviH'```````DycACu,O+++",
"++++O@=>*v``````````c*>=@O++++",
"+++++++O:Z[````````[A>O+++++++",
"++++++++&V[````````[C=++++++++",
"++++++++@t~[`]``'`[^u@++++++++",
"++++++++O;dY(QmN~_Rh,O++++++++",
"+++++++++O$4q8<29e6&O+++++++++",
"++++++++++OX .oo. .O++++++++++",
"++++++++++++++++++++++++++++++",
"++++++++++++++++++++++++++++++"
};
