/* XPM */
static char * Maximize_xpm[] = {
"30 30 134 2",
"  	c None",
". 	c #1B1216",
"+ 	c #1A1115",
"@ 	c #180F15",
"# 	c #180E15",
"$ 	c #201A17",
"% 	c #34341C",
"& 	c #3D421F",
"* 	c #383A1D",
"= 	c #252118",
"- 	c #272219",
"; 	c #393C1E",
"> 	c #3F441F",
", 	c #36381D",
"' 	c #221C17",
") 	c #231E18",
"! 	c #5B6B27",
"~ 	c #90B535",
"{ 	c #A0CB39",
"] 	c #97BE36",
"^ 	c #728B2D",
"/ 	c #758F2D",
"( 	c #9AC237",
"_ 	c #A2CE3A",
": 	c #94BA36",
"< 	c #607128",
"[ 	c #252018",
"} 	c #4F5A23",
"| 	c #A5D23A",
"1 	c #A3CF3A",
"2 	c #A4D03A",
"3 	c #A5D13A",
"4 	c #9CC538",
"5 	c #525F24",
"6 	c #78942E",
"7 	c #7A972F",
"8 	c #231D18",
"9 	c #241F18",
"0 	c #809F30",
"a 	c #81A031",
"b 	c #1F1B1A",
"c 	c #201E1C",
"d 	c #201B19",
"e 	c #697E2A",
"f 	c #687D2A",
"g 	c #395638",
"h 	c #4F8851",
"i 	c #539155",
"j 	c #457246",
"k 	c #475C2E",
"l 	c #86A832",
"m 	c #84A532",
"n 	c #455A2E",
"o 	c #457145",
"p 	c #395738",
"q 	c #1E1A1A",
"r 	c #406640",
"s 	c #62B165",
"t 	c #67BD6B",
"u 	c #66BB6A",
"v 	c #569657",
"w 	c #537035",
"x 	c #88A933",
"y 	c #86A632",
"z 	c #506C34",
"A 	c #559557",
"B 	c #416740",
"C 	c #1F1A1A",
"D 	c #190F14",
"E 	c #293326",
"F 	c #5DA760",
"G 	c #579858",
"H 	c #516E34",
"I 	c #89AB33",
"J 	c #87A832",
"K 	c #4F6A33",
"L 	c #569758",
"M 	c #5EA861",
"N 	c #2A3426",
"O 	c #190E14",
"P 	c #2E3E2C",
"Q 	c #65BA69",
"R 	c #579959",
"S 	c #569858",
"T 	c #2F3F2C",
"U 	c #2B3828",
"V 	c #60AE64",
"W 	c #66BC6A",
"X 	c #87A933",
"Y 	c #61AF64",
"Z 	c #1A1015",
"` 	c #21201D",
" .	c #4C804C",
"..	c #475D2E",
"+.	c #465A2E",
"@.	c #4C814D",
"#.	c #21211D",
"$.	c #4A7D4B",
"%.	c #579A5A",
"&.	c #3B5B3A",
"*.	c #3A5839",
"=.	c #4B7E4C",
"-.	c #211F1C",
";.	c #2A3527",
">.	c #5FAB62",
",.	c #66BC6B",
"'.	c #446F44",
").	c #426B42",
"!.	c #5FAC62",
"~.	c #2B3628",
"{.	c #2D3C2B",
"].	c #64B668",
"^.	c #589C5A",
"/.	c #436D43",
"(.	c #416941",
"_.	c #64B768",
":.	c #2E3D2B",
"<.	c #1A0F14",
"[.	c #283025",
"}.	c #5BA25E",
"|.	c #5BA35E",
"1.	c #283125",
"2.	c #1E1819",
"3.	c #3D603D",
"4.	c #446E44",
"5.	c #3E613D",
"6.	c #1E1919",
"7.	c #1F1C1B",
"8.	c #375235",
"9.	c #4E864F",
"0.	c #539054",
"a.	c #467346",
"b.	c #3B5A3A",
"c.	c #375336",
". . . . . . . . . . . . . . . . . . . . . . . . . . . . . . ",
". . . . . . . . . . . . . . . . . . . . . . . . . . . . . . ",
". . . . . . . . . . + @ # @ + + @ # @ + . . . . . . . . . . ",
". . . . . . . . . + $ % & * = - ; > , ' + . . . . . . . . . ",
". . . . . . . . + ) ! ~ { ] ^ / ( _ : < [ + . . . . . . . . ",
". . . . . . . . . } ( | 1 2 1 1 2 1 3 4 5 . . . . . . . . . ",
". . . . . . . . ' 6 | 1 1 1 1 1 1 1 1 | 7 8 . . . . . . . . ",
". . . . . . . + 9 0 3 1 1 1 1 1 1 1 1 3 a [ + . . . . . . . ",
". . . . + . b c d e 1 1 1 1 1 1 1 1 1 1 f d c b . + . . . . ",
". . . + c g h i j k l 2 1 1 1 1 1 1 1 m n o i h p c + . . . ",
". . + q r s t t u v w x 1 1 1 1 1 1 y z A u t t s B C + . . ",
". . D E F t u u u u G H I 1 1 1 1 J K L u u u u t M N D . . ",
". . O P Q u u u u u u R H x 2 2 y K S u u u u u u Q T O . . ",
". . D U V W u u u u u u G w X y z L u u u u u u W Y U D . . ",
". . Z `  .u u u u u u u W G ..+.L W u u u u u u u @.#.Z . . ",
". . Z c $.u u u u u u u W %.&.*.R W u u u u u u u =.-.Z . . ",
". . D ;.>.,.u u u u u u %.'.%.S ).R u u u u u u ,.!.~.D . . ",
". . O {.].W u u u u u ^./.%.W W S (.%.u u u u u u _.:.O . . ",
". . <.[.}.t u u u W %./.^.u u u u R (.R W u u u t |.1.<.. . ",
". . + 2.3.Y t t u R 4.%.u u u u u u S ).S u t t Y 5.6.+ . . ",
". . . + 7.8.9.0.a.b.R W u u u u u u u v *.j 0.9.c.7.+ . . . ",
". . . . + . C c b a.u u u u u u u u u u j b c C . + . . . . ",
". . . . . . . + c 0.t u u u u u u u u t i c + . . . . . . . ",
". . . . . . . . C 9.t u u u u u u u u t h b . . . . . . . . ",
". . . . . . . . . 8.Y t W ,.u u W u t s g . . . . . . . . . ",
". . . . . . . . + 7.3.}.].>.$. .V Q F r c + . . . . . . . . ",
". . . . . . . . . + 2.[.{.;.c ` U P E q + . . . . . . . . . ",
". . . . . . . . . . + <.O D Z Z D O D + . . . . . . . . . . ",
". . . . . . . . . . . . . . . . . . . . . . . . . . . . . . ",
". . . . . . . . . . . . . . . . . . . . . . . . . . . . . . "};
