/* XPM */
static char * Maximize_pressed_xpm[] = {
"30 30 138 2",
"  	c None",
". 	c #1B1216",
"+ 	c #1A1015",
"@ 	c #180F13",
"# 	c #180E12",
"$ 	c #180E13",
"% 	c #1A0F14",
"& 	c #211A1D",
"* 	c #383835",
"= 	c #444640",
"- 	c #3D3E39",
"; 	c #272223",
"> 	c #292424",
", 	c #3F403C",
"' 	c #464842",
") 	c #3B3B37",
"! 	c #231C1E",
"~ 	c #251F20",
"{ 	c #677365",
"] 	c #A7C4A7",
"^ 	c #B9DCBA",
"/ 	c #AECDAF",
"( 	c #839682",
"_ 	c #869A85",
": 	c #B2D2B3",
"< 	c #BCDFBD",
"[ 	c #ABCAAC",
"} 	c #6D7A6B",
"| 	c #272122",
"1 	c #596156",
"2 	c #BFE3C0",
"3 	c #BEE1BF",
"4 	c #BDE0BE",
"5 	c #B4D5B5",
"6 	c #5D665A",
"7 	c #1B1316",
"8 	c #1A1115",
"9 	c #231D1F",
"0 	c #8A9F89",
"a 	c #8DA38C",
"b 	c #241E1F",
"c 	c #262022",
"d 	c #93AB93",
"e 	c #94AC94",
"f 	c #1F1B1A",
"g 	c #201E1C",
"h 	c #211C1D",
"i 	c #788876",
"j 	c #778675",
"k 	c #211C1C",
"l 	c #395638",
"m 	c #4F8851",
"n 	c #539155",
"o 	c #457245",
"p 	c #4C604A",
"q 	c #9BB59B",
"r 	c #99B298",
"s 	c #4A5D48",
"t 	c #447145",
"u 	c #395738",
"v 	c #1E1A1A",
"w 	c #406640",
"x 	c #62B165",
"y 	c #67BD6B",
"z 	c #66BB6A",
"A 	c #569758",
"B 	c #5A7559",
"C 	c #9DB79C",
"D 	c #9AB49A",
"E 	c #577055",
"F 	c #559557",
"G 	c #416740",
"H 	c #1F1A1A",
"I 	c #190F14",
"J 	c #293326",
"K 	c #5DA760",
"L 	c #579859",
"M 	c #587357",
"N 	c #9EB89E",
"O 	c #556E54",
"P 	c #5EA861",
"Q 	c #2A3426",
"R 	c #190E14",
"S 	c #2E3E2C",
"T 	c #65BA69",
"U 	c #579959",
"V 	c #569858",
"W 	c #2F3F2C",
"X 	c #2B3828",
"Y 	c #60AE64",
"Z 	c #66BC6A",
"` 	c #9CB79C",
" .	c #577155",
"..	c #61AF64",
"+.	c #21201D",
"@.	c #4C804C",
"#.	c #4D614B",
"$.	c #4B5E49",
"%.	c #4C814D",
"&.	c #21211D",
"*.	c #4A7D4B",
"=.	c #579A59",
"-.	c #3B5B3A",
";.	c #3A5838",
">.	c #4B7E4C",
",.	c #211F1C",
"'.	c #2A3527",
").	c #5FAB62",
"!.	c #66BC6B",
"~.	c #579A5A",
"{.	c #446F44",
"].	c #426B42",
"^.	c #5FAC62",
"/.	c #2B3628",
"(.	c #2D3C2B",
"_.	c #64B668",
":.	c #589C5A",
"<.	c #436D43",
"[.	c #416941",
"}.	c #64B768",
"|.	c #2E3D2B",
"1.	c #283025",
"2.	c #5BA25E",
"3.	c #5BA35E",
"4.	c #283125",
"5.	c #1E1819",
"6.	c #3D603D",
"7.	c #446E44",
"8.	c #3E613D",
"9.	c #1E1919",
"0.	c #1F1C1B",
"a.	c #375235",
"b.	c #4E864F",
"c.	c #539054",
"d.	c #467346",
"e.	c #569658",
"f.	c #3A5839",
"g.	c #375336",
". . . . . . . . . . . . . . . . . . . . . . . . . . . . . . ",
". . . . . . . . . . . . . . . . . . . . . . . . . . . . . . ",
". . . . . . . . . . + @ # $ + % $ # $ + . . . . . . . . . . ",
". . . . . . . . . + & * = - ; > , ' ) ! + . . . . . . . . . ",
". . . . . . . . + ~ { ] ^ / ( _ : < [ } | + . . . . . . . . ",
". . . . . . . . . 1 : 2 3 3 4 4 3 4 2 5 6 7 . . . . . . . . ",
". . . . . . . 8 9 0 2 4 4 4 3 3 4 4 4 2 a b 8 . . . . . . . ",
". . . . . . . + c d 2 4 4 4 4 4 4 4 4 2 e | + . . . . . . . ",
". . . . 8 . f g h i 4 3 4 4 4 4 4 4 3 4 j k g f . 8 . . . . ",
". . . 8 g l m n o p q 3 3 4 4 4 4 3 3 r s t n m u g 8 . . . ",
". . 8 v w x y y z A B C 3 4 4 4 4 3 D E F z y y x G H 8 . . ",
". . I J K y z z z z L M N 3 4 3 3 q O A z z z z y P Q I . . ",
". . R S T z z z z z z U M C 3 3 D O V z z z z z z T W R . . ",
". . I X Y Z z z z z z z L B ` D  .A z z z z z z Z ..X I . . ",
". . + +.@.z z z z z z z Z L #.$.A Z z z z z z z z %.&.+ . . ",
". . + g *.z z z z z z z Z =.-.;.U Z z z z z z z z >.,.+ . . ",
". . I '.).!.z z z z z z ~.{.=.V ].U z z z z z z !.^./.I . . ",
". . R (._.Z z z z z z :.<.~.Z Z V [.=.z z z z z z }.|.R . . ",
". . % 1.2.y z z z Z ~.<.:.z z z z U [.U Z z z z y 3.4.% . . ",
". . 8 5.6...y y z U 7.~.z z z z z z V ].V z y y ..8.9.8 . . ",
". . . 8 0.a.b.c.d.-.U Z z z z z z z z e.f.o c.b.g.0.8 . . . ",
". . . . 8 . H g f d.z z z z z z z z z z o f g H . 8 . . . . ",
". . . . . . . 8 g c.y z z z z z z z z y n g 8 . . . . . . . ",
". . . . . . . . H b.y z z z z z z z z y m f . . . . . . . . ",
". . . . . . . . . a...y Z !.z z Z z y x l . . . . . . . . . ",
". . . . . . . . 8 0.6.2._.).*.@.Y T K w g 8 . . . . . . . . ",
". . . . . . . . . 8 5.1.(.'.g +.X S J v 8 . . . . . . . . . ",
". . . . . . . . . . 8 % R I + + I R I 8 . . . . . . . . . . ",
". . . . . . . . . . . . . . . . . . . . . . . . . . . . . . ",
". . . . . . . . . . . . . . . . . . . . . . . . . . . . . . "};
