/* XPM */
static char *Minimize_pressed[] = {
/* columns rows colors chars-per-pixel */
"30 30 151 2 ",
"   c #18190E3E12F8",
".  c #187C0EBC135E",
"X  c #189F0EE81383",
"o  c #18CE0F2313B3",
"O  c #19AA0ED31479",
"+  c #19E70F5B14BD",
"@  c #1A010FE514E1",
"#  c #1A6410E41552",
"$  c #1ABE114915AE",
"%  c #1B19120E1614",
"&  c #1B7C12D51681",
"*  c #1BF9131D16FA",
"=  c #1E1E18DC1976",
"-  c #1E45193419A1",
";  c #1EDF1A8E1A4E",
":  c #1F101AFB1A84",
">  c #1F431B711ABE",
",  c #1F751BD21AF4",
"<  c #1FBE1C8A1B48",
"1  c #1FEC1CF11B7B",
"2  c #21EE1AC01D2A",
"3  c #21861C371CE8",
"4  c #21B01C771D15",
"5  c #20771E3D1C19",
"6  c #20A41E8E1C49",
"7  c #20CD1EE81C77",
"8  c #210C1F761CBE",
"9  c #239E1CE51EEB",
"0  c #23B21D2A1F02",
"q  c #2182207E1D41",
"w  c #21BF21091D86",
"e  c #24931E171FE8",
"r  c #25741F3620D1",
"t  c #26A8208D220B",
"y  c #270E210D2275",
"u  c #276421AC22D2",
"i  c #27F522692369",
"p  c #2979244E24FC",
"a  c #28A8309A2543",
"s  c #28F0313E2594",
"d  c #29E9336E26AB",
"f  c #2A2C340626F6",
"g  c #2ADC359227BB",
"h  c #2B20362A2807",
"j  c #2BF7380E28F7",
"k  c #2DF53C8C2B33",
"l  c #2E303D122B75",
"z  c #2EE63EAB2C41",
"x  c #2F103F0B2C70",
"c  c #38F9380C350F",
"v  c #3BA93B7737D9",
"b  c #3DBA3E1739FC",
"n  c #3797524135FD",
"m  c #37EC5300365C",
"M  c #3970566A380F",
"N  c #39BB57113862",
"B  c #3A5D58813918",
"V  c #3A1458DB38DD",
"C  c #3B4F5B1F3A32",
"Z  c #3DF360963D1D",
"A  c #3E7B61C93DB5",
"S  c #3FE140C73C38",
"D  c #4455467E40D7",
"F  c #463348DF42C7",
"G  c #4AD25D9048D1",
"H  c #4BBF5E8E49C3",
"J  c #409666844010",
"K  c #4113679F409C",
"L  c #41D9695F417B",
"P  c #42AA6B364265",
"I  c #43856D23435A",
"U  c #443F6EC7442A",
"Y  c #445A6F014448",
"T  c #4CC760564ADF",
"R  c #4D9461264BB0",
"E  c #44F37169450A",
"W  c #453972024558",
"Q  c #45E2727645FF",
"!  c #46367332465D",
"~  c #4AB57D544B66",
"^  c #4B497EA44C0C",
"/  c #594E61295697",
"(  c #55C96EE75479",
")  c #5D4466315AB2",
"_  c #570F70EB55D4",
"`  c #5730712155F7",
"'  c #58CE732357A6",
"]  c #5A16752C5902",
"[  c #677C7332654B",
"{  c #6D347A776B39",
"}  c #4C22808B4CFF",
"|  c #4CB581D84DA4",
" . c #4E94860D4FBC",
".. c #4EB986614FE6",
"X. c #4FD588DF5124",
"o. c #5313902E54C4",
"O. c #536B91025529",
"+. c #537F9127553E",
"@. c #55CE95E057CA",
"#. c #561096EB581E",
"$. c #566A9744587A",
"%. c #5692984458B5",
"&. c #56B8986658DB",
"*. c #571998895938",
"=. c #572C9980595F",
"-. c #57B89AC559FC",
";. c #57DB9AF65A21",
":. c #58549C065AA8",
">. c #5B5BA2D95E0C",
",. c #5BD9A3F65E99",
"<. c #776E86FB75CA",
"1. c #783C8803769F",
"2. c #5D9EA7F26094",
"3. c #5E0EA8ED6111",
"4. c #5F0CAB2B622E",
"5. c #5F7EAC2C62AE",
"6. c #60B1AEDF6406",
"7. c #6119AFC9647A",
"8. c #620EB1F0658B",
"9. c #6445B6ED6807",
"0. c #648AB78B6856",
"q. c #65ADBA1B699B",
"w. c #65F5BABD69EC",
"e. c #666EBBD36A74",
"r. c #66AEBC6A6ABC",
"t. c #66EFBCF16B04",
"y. c #674BBDBF6B6B",
"u. c #833296708208",
"i. c #86479A4C8539",
"p. c #8A959FDC89B2",
"a. c #8D24A3158C59",
"s. c #93FBABC3936F",
"d. c #94CEACCF944A",
"f. c #992BB29698D6",
"g. c #9A88B4429A3E",
"h. c #9BBCB5A49B7A",
"j. c #9CBFB71D9C8C",
"k. c #9D0BB7779CD9",
"l. c #9E8AB8FF9E5F",
"z. c #A71DC41CA748",
"x. c #ABC7CA08AC1D",
"c. c #AEE0CDF9AF54",
"v. c #B275D27CB30A",
"b. c #B4A4D54EB54F",
"n. c #B9E9DC02BAC6",
"m. c #BCD0DFB5BDC9",
"M. c #BDD3E0F9BED5",
"N. c #BE30E173BF36",
"B. c #BE88E1C3BF8E",
"V. c #BF80E31DC091",
"C. c #BFCDE380C0E2",
/* pixels */
"% % % % % % % % % % % % % % % % % % % % % % % % % % % % % % ",
"% % % % % % % % % % % % % % % % % % % % % % % % % % % % % % ",
"% % % % % % % % % % $ @ O + # # + O + $ % % % % % % % % % % ",
"% % % % % % % % % $ = a k g 7 q j z d ; $ % % % % % % % % % ",
"% % % % % % % % $ < Z >.9.4.~ } 6.q.2.J 6 $ % % % % % % % % ",
"% % % % % % % % & n 7.y.r.t.e.e.r.e.y.8.M & % % % % % % % % ",
"% % % % % % % % :  .y.e.e.e.e.e.e.e.e.y.X., % % % % % % % % ",
"% % % % % % % $ 5 o.y.e.e.e.e.e.e.e.e.y.+.6 $ % % % % % % % ",
"% % % % $ & : 5 , ! e.e.e.e.e.e.e.e.e.e.Q > 5 : & $ % % % % ",
"% % % $ < n  .o.! C =.r.e.e.e.e.e.e.e.#.B Q o...m 1 $ % % % ",
"% % $ = Z 7.y.y.e.=.U ;.e.e.e.e.e.e.&.P %.e.y.y.7.A - $ % % ",
"% % @ a >.y.e.e.e.r.;.I :.e.e.e.e.=.L =.r.e.e.e.y.,.s @ % % ",
"% % O k 9.r.e.e.e.e.e.:.I ;.r.r.&.L -.e.e.e.e.e.e.0.l O % % ",
"% % + g 4.t.e.e.e.e.e.e.;.Y -.&.P =.e.e.e.e.e.e.t.5.h + % % ",
"% % # 7 ~ e.e.e.e.e.e.e.r.-.C V =.r.e.e.e.e.e.e.e.^ 8 # % % ",
"% % # q } e.e.e.e.e.e.e.r.*.R H $.r.e.e.e.e.e.e.e.| w # % % ",
"% % + j 6.r.e.e.e.e.e.e.*.] j.g.` $.e.e.e.e.e.e.r.7.j + % % ",
"% % O z q.e.e.e.e.e.e.=.' k.B.B.g.( %.e.e.e.e.e.e.w.x O % % ",
"% % + d 2.y.e.e.e.e.*.' l.N.M.N.N.h.( $.e.e.e.e.y.3.f + % % ",
"% % $ ; J 8.y.y.e.$.] k.N.M.M.M.M.N.g._ @.e.y.y.8.K : $ % % ",
"% % % $ 6 M X.+.W T h.B.N.M.M.M.M.N.N.f.G E O.X.N 7 $ % % % ",
"% % % % $ & , 5 4 1.M.N.M.M.M.M.M.M.N.M.<.3 5 , & $ % % % % ",
"% % % % % % % # t s.V.M.M.M.M.M.M.M.M.V.d.y # % % % % % % % ",
"% % % % % % % $ 0 p.C.M.M.M.N.N.M.M.M.C.a.e $ % % % % % % % ",
"% % % % % % % % & / v.C.N.B.M.M.B.M.V.b.) * % % % % % % % % ",
"% % % % % % % % # r [ z.n.c.u.i.v.m.x.{ u # % % % % % % % % ",
"% % % % % % % % % # 2 c D b i p S F v 9 # % % % % % % % % % ",
"% % % % % % % % % % # o   . # @ .   X # % % % % % % % % % % ",
"% % % % % % % % % % % % % % % % % % % % % % % % % % % % % % ",
"% % % % % % % % % % % % % % % % % % % % % % % % % % % % % % "
};
