/* XPM */
static char *Minimize[] = {
/* columns rows colors chars-per-pixel */
"30 30 149 2 ",
"   c #187A0E6A1564",
".  c #18F80F181584",
"X  c #19AA0ED21479",
"o  c #19E70F5A14BD",
"O  c #1A0C0FB014E7",
"+  c #1A9110D9157B",
"@  c #1A63110315D7",
"#  c #1AC0114415B0",
"$  c #1B19120D1614",
"%  c #1B7C12DA1670",
"&  c #1BD012FC1636",
"*  c #1E1E18DB1976",
"=  c #1E45193219A1",
"-  c #1EDF1A8D1A4E",
";  c #1F0F1AFB1A85",
":  c #1F491B821ACA",
">  c #1F741BDE1AF5",
",  c #20D91A0D179B",
"<  c #20E71BE0195A",
"1  c #224D1C1117FE",
"2  c #23151D281834",
"3  c #1FBF1C861B48",
"4  c #1FED1CED1B7B",
"5  c #23CF1E2A1864",
"6  c #24CE1F671881",
"7  c #20771E391C2B",
"8  c #20A51E8B1C49",
"9  c #20CD1EE71C77",
"0  c #210C1F751CBE",
"q  c #2549202218B3",
"w  c #25E3210C18F0",
"e  c #272822D01946",
"r  c #2182207E1D41",
"t  c #21BF21081D86",
"y  c #343034EC1CB9",
"u  c #366F380B1D51",
"i  c #38283A701DC6",
"p  c #39F73CF31E41",
"a  c #28A830992543",
"s  c #28F0313D2594",
"d  c #29E9336D26AB",
"f  c #2A2C340526F6",
"g  c #2ADC359127BB",
"h  c #2B2036292807",
"j  c #2BF7380E28F7",
"k  c #2DF53C8B2B33",
"l  c #2E303D112B75",
"z  c #2EE63EAA2C41",
"x  c #2F103F0A2C70",
"c  c #3DC042361F41",
"v  c #3F4A44591FA9",
"b  c #3798524135FD",
"n  c #37EC5300365C",
"m  c #3970566A380E",
"M  c #39BB57133862",
"N  c #3A5A5881391B",
"B  c #3A3D58F739B0",
"V  c #3B715AF03A4D",
"C  c #3B585B6A3AE3",
"Z  c #3DF360963D1D",
"A  c #3E7B61C83DB5",
"S  c #4F495A9723E7",
"D  c #45955A222E3D",
"F  c #46545AF62E39",
"G  c #474D5CC32EEE",
"H  c #47F95D642ECE",
"J  c #529F5F3624C5",
"K  c #5B406B372711",
"L  c #4F596AB233CA",
"P  c #508A6CB83478",
"I  c #51EF6EA334CF",
"U  c #5317709A3579",
"Y  c #600771DA2855",
"T  c #68757D232A23",
"R  c #693B7E392A59",
"E  c #40966684400F",
"W  c #4113679F409C",
"Q  c #41D9695F417B",
"!  c #42A96B364264",
"~  c #43846D1E4358",
"^  c #44406EC8442B",
"/  c #445D6F07444B",
"(  c #451E718745EB",
")  c #4596722D460B",
"_  c #45FA72AD461A",
"`  c #46367332465C",
"'  c #4AB57D544B66",
"]  c #4B497EA44C0C",
"[  c #727E8B832D37",
"{  c #75148F1A2DE7",
"}  c #78AA94172EDA",
"|  c #7AD297152F6C",
" . c #4C22808A4CFF",
".. c #4CB581D94DA4",
"X. c #4E9086104FC3",
"o. c #4EB586644FED",
"O. c #4FD588E15124",
"+. c #5304902254C8",
"@. c #532E907F54F4",
"#. c #537F91275543",
"$. c #55BD95D65769",
"%. c #563996FA57FF",
"&. c #56559748582E",
"*. c #56A1983358C1",
"=. c #5703986D588E",
"-. c #56A7985D58E4",
";. c #572F9982596E",
":. c #57BF9AC95A13",
">. c #57DC9AF65A20",
",. c #58549C045AA7",
"<. c #5B5BA2D95E0C",
"1. c #5BD9A3F55E99",
"2. c #5D9EA7F26094",
"3. c #5E0EA8ED6111",
"4. c #5F0CAB2A622E",
"5. c #5F0CAB2B622E",
"6. c #5F7EAC2C62AE",
"7. c #60B1AEDF6406",
"8. c #6119AFC9647A",
"9. c #620EB1F0658B",
"0. c #6445B6ED6807",
"q. c #648AB78B6856",
"w. c #65ADBA1A699B",
"e. c #65F5BABC69EC",
"r. c #666FBBD36A78",
"t. c #66B0BC6B6AC7",
"y. c #66EFBCF16B04",
"u. c #674BBDBF6B6A",
"i. c #80969F1630EF",
"p. c #8144A007311D",
"a. c #84EDA5513249",
"s. c #8626A6ED3285",
"d. c #86D5A80532D7",
"f. c #8760A84D3286",
"g. c #87F1A977330B",
"h. c #882BA9C7331A",
"j. c #895DAB1D3317",
"k. c #9088B541352B",
"l. c #9496BAE3363E",
"z. c #972FBE8036EE",
"x. c #9A0CC27B37B0",
"c. c #9A2AC2A437B8",
"v. c #9C05C5393836",
"b. c #A05CCB41395C",
"n. c #A2D2CEAC3A02",
"m. c #A3BECFEF3A3C",
"M. c #A45FD0BE3A56",
"N. c #A51DD1DD3A9E",
"B. c #A549D2193AAA",
/* pixels */
"$ $ $ $ $ $ $ $ $ $ $ $ $ $ $ $ $ $ $ $ $ $ $ $ $ $ $ $ $ $ ",
"$ $ $ $ $ $ $ $ $ $ $ $ $ $ $ $ $ $ $ $ $ $ $ $ $ $ $ $ $ $ ",
"$ $ $ $ $ $ $ $ $ $ # O X o + + o X o # $ $ $ $ $ $ $ $ $ $ ",
"$ $ $ $ $ $ $ $ $ # * a k g 9 r j z d - # $ $ $ $ $ $ $ $ $ ",
"$ $ $ $ $ $ $ $ # 3 Z <.0.5.'  .7.w.2.E 8 # $ $ $ $ $ $ $ $ ",
"$ $ $ $ $ $ $ $ % b 8.u.t.y.r.r.t.r.u.9.m % $ $ $ $ $ $ $ $ ",
"$ $ $ $ $ $ $ $ ; X.u.r.r.r.r.r.r.r.r.u.O.> $ $ $ $ $ $ $ $ ",
"$ $ $ $ $ $ $ # 7 +.u.r.r.r.r.r.r.r.r.u.#.8 # $ $ $ $ $ $ $ ",
"$ $ $ $ # % ; 7 > ` r.r.r.r.r.r.r.r.r.r.) : 7 ; % # $ $ $ $ ",
"$ $ $ # 3 b X.+.` V ;.t.r.r.r.r.r.r.r.%.N _ +.o.n 4 # $ $ $ ",
"$ $ # * Z 8.u.u.r.;.^ >.r.r.r.r.r.r.-.! *.r.u.u.8.A = # $ $ ",
"$ $ O a <.u.r.r.r.t.>.~ ,.r.r.r.r.;.Q ;.t.r.r.r.u.1.s O $ $ ",
"$ $ X k 0.t.r.r.r.r.r.,.~ >.t.t.-.Q :.r.r.r.r.r.r.q.l X $ $ ",
"$ $ o g 4.y.r.r.r.r.r.r.>./ :.-.! ;.r.r.r.r.r.r.y.6.h o $ $ ",
"$ $ + 9 ' r.r.r.r.r.r.r.t.:.C B ;.t.r.r.r.r.r.r.r.] 0 + $ $ ",
"$ $ + r  .r.r.r.r.r.r.r.t.=.H F &.t.r.r.r.r.r.r.r...t + $ $ ",
"$ $ o j 7.t.r.r.r.r.r.r.=.U g.s.P &.r.r.r.r.r.r.t.8.j o $ $ ",
"$ $ X z w.r.r.r.r.r.r.;.I h.M.M.s.L -.r.r.r.r.r.r.e.x X $ $ ",
"$ $ o d 2.u.r.r.r.r.=.I j.m.m.m.m.f.L &.r.r.r.r.u.3.f o $ $ ",
"$ $ # - E 9.u.u.r.%.U h.m.m.m.m.m.m.s.P $.r.u.u.9.W ; # $ $ ",
"$ $ $ # 8 m O.#.) G d.M.m.m.m.m.m.m.m.a.D ( #.O.M 9 # $ $ $ ",
"$ $ $ $ # % > 8 < R m.m.m.m.m.m.m.m.m.m.T < 7 > % # $ $ $ $ ",
"$ $ $ $ $ $ $ @ 6 i.N.m.m.m.m.m.m.m.m.N.p.q @ $ $ $ $ $ $ $ ",
"$ $ $ $ $ $ $ $ 1 } B.m.m.m.m.m.m.m.m.B.| 2 $ $ $ $ $ $ $ $ ",
"$ $ $ $ $ $ $ $ % S c.B.m.M.m.m.M.m.N.v.J & $ $ $ $ $ $ $ $ ",
"$ $ $ $ $ $ $ $ @ 5 K k.b.z.[ { x.n.l.Y q @ $ $ $ $ $ $ $ $ ",
"$ $ $ $ $ $ $ $ $ @ , y c i w e p v u 1 @ $ $ $ $ $ $ $ $ $ ",
"$ $ $ $ $ $ $ $ $ $ @ .   . @ @ .   . @ $ $ $ $ $ $ $ $ $ $ ",
"$ $ $ $ $ $ $ $ $ $ $ $ $ $ $ $ $ $ $ $ $ $ $ $ $ $ $ $ $ $ ",
"$ $ $ $ $ $ $ $ $ $ $ $ $ $ $ $ $ $ $ $ $ $ $ $ $ $ $ $ $ $ "
};
