/* XPM */
static char * Shade_pressed_xpm[] = {
"30 30 138 2",
"  	c None",
". 	c #1B1216",
"+ 	c #1A1115",
"@ 	c #190F14",
"# 	c #190E14",
"$ 	c #1A1015",
"% 	c #1A0F14",
"& 	c #1E1A1A",
"* 	c #293326",
"= 	c #2E3E2C",
"- 	c #2B3828",
"; 	c #21201D",
"> 	c #201E1C",
", 	c #2A3527",
"' 	c #2D3C2B",
") 	c #283025",
"! 	c #1E1819",
"~ 	c #406640",
"{ 	c #5DA760",
"] 	c #65BA69",
"^ 	c #60AE64",
"/ 	c #4C804C",
"( 	c #4A7D4B",
"_ 	c #5FAB62",
": 	c #64B668",
"< 	c #5BA25E",
"[ 	c #3D603D",
"} 	c #1F1C1B",
"| 	c #395638",
"1 	c #62B165",
"2 	c #67BD6B",
"3 	c #66BB6A",
"4 	c #66BC6A",
"5 	c #66BC6B",
"6 	c #61AF64",
"7 	c #375235",
"8 	c #1F1B1A",
"9 	c #4F8851",
"0 	c #4E864F",
"a 	c #1F1A1A",
"b 	c #539155",
"c 	c #539054",
"d 	c #231D1F",
"e 	c #262022",
"f 	c #211C1D",
"g 	c #457245",
"h 	c #467346",
"i 	c #251F20",
"j 	c #596156",
"k 	c #8A9F89",
"l 	c #93AB93",
"m 	c #788876",
"n 	c #4C604A",
"o 	c #569758",
"p 	c #579959",
"q 	c #3B5B3A",
"r 	c #211A1D",
"s 	c #677365",
"t 	c #B2D2B3",
"u 	c #BFE3C0",
"v 	c #BDE0BE",
"w 	c #9BB59B",
"x 	c #5A7559",
"y 	c #579859",
"z 	c #579A5A",
"A 	c #446E44",
"B 	c #180F13",
"C 	c #383835",
"D 	c #A7C4A7",
"E 	c #BEE1BF",
"F 	c #9DB79C",
"G 	c #587357",
"H 	c #589C5A",
"I 	c #436D43",
"J 	c #180E12",
"K 	c #444640",
"L 	c #B9DCBA",
"M 	c #9EB89E",
"N 	c #180E13",
"O 	c #3D3E39",
"P 	c #AECDAF",
"Q 	c #579A59",
"R 	c #446F44",
"S 	c #272223",
"T 	c #839682",
"U 	c #9CB79C",
"V 	c #4D614B",
"W 	c #292424",
"X 	c #869A85",
"Y 	c #9AB49A",
"Z 	c #4B5E49",
"` 	c #3A5838",
" .	c #569858",
"..	c #3F403C",
"+.	c #577155",
"@.	c #426B42",
"#.	c #464842",
"$.	c #BCDFBD",
"%.	c #556E54",
"&.	c #416941",
"*.	c #3B3B37",
"=.	c #ABCAAC",
"-.	c #231C1E",
";.	c #6D7A6B",
">.	c #B4D5B5",
",.	c #99B298",
"'.	c #577055",
").	c #569658",
"!.	c #272122",
"~.	c #5D665A",
"{.	c #8DA38C",
"].	c #94AC94",
"^.	c #778675",
"/.	c #4A5D48",
"(.	c #559557",
"_.	c #3A5839",
":.	c #1B1316",
"<.	c #241E1F",
"[.	c #211C1C",
"}.	c #447145",
"|.	c #395738",
"1.	c #375336",
"2.	c #416740",
"3.	c #5EA861",
"4.	c #4C814D",
"5.	c #4B7E4C",
"6.	c #5FAC62",
"7.	c #64B768",
"8.	c #5BA35E",
"9.	c #3E613D",
"0.	c #2A3426",
"a.	c #2F3F2C",
"b.	c #21211D",
"c.	c #211F1C",
"d.	c #2B3628",
"e.	c #2E3D2B",
"f.	c #283125",
"g.	c #1E1919",
". . . . . . . . . . . . . . . . . . . . . . . . . . . . . . ",
". . . . . . . . . . . . . . . . . . . . . . . . . . . . . . ",
". . . . . . . . . . + @ # @ $ $ @ # % + . . . . . . . . . . ",
". . . . . . . . . + & * = - ; > , ' ) ! + . . . . . . . . . ",
". . . . . . . . + > ~ { ] ^ / ( _ : < [ } + . . . . . . . . ",
". . . . . . . . . | 1 2 3 4 3 3 5 4 2 6 7 . . . . . . . . . ",
". . . . . . . . 8 9 2 3 3 3 3 3 3 3 3 2 0 a . . . . . . . . ",
". . . . . . + $ > b 2 3 3 3 3 3 3 3 3 2 c > + . . . . . . . ",
". . . . $ . d e f g 3 3 3 3 3 3 3 3 3 3 h 8 > a . + . . . . ",
". . . $ i j k l m n o 3 3 3 3 3 3 3 4 p q h c 0 7 } + . . . ",
". . $ r s t u u v w x y 3 3 3 3 3 3 z A p 3 2 2 6 [ ! + . . ",
". . B C D u v v E E F G p 3 3 3 3 H I z 4 3 3 3 2 < ) % . . ",
". . J K L E v v v E E M G y 4 4 z I H 3 3 3 3 3 4 : ' # . . ",
". . N O P E v v v v v E F x y Q R z 3 3 3 3 3 3 5 _ , @ . . ",
". . $ S T v E v v v v v E U V q Q 4 3 3 3 3 3 3 3 ( > $ . . ",
". . % W X v E v v v v E E Y Z `  .4 3 3 3 3 3 3 3 / ; $ . . ",
". . N ..t E v v v v v E Y +.o p @. .3 3 3 3 3 3 4 ^ - @ . . ",
". . J #.$.v v v v E E w %.o 4 4 p &.p 3 3 3 3 3 3 ] = # . . ",
". . N *.=.u v v E E Y %. .3 3 3 3 Q &. .3 3 3 3 2 { * @ . . ",
". . $ -.;.>.u u v ,.'.o 3 3 3 3 3 3 p @.).3 2 2 1 ~ & + . . ",
". . . $ !.~.{.].^./.(.3 3 3 3 3 3 3 4  ._.g b 9 | > + . . . ",
". . . . $ :.<.!.[.}.3 3 3 3 3 3 3 3 3 3 g 8 > 8 . + . . . . ",
". . . . . . + $ > b 2 3 3 3 3 3 3 3 3 2 c > + . . . . . . . ",
". . . . . . . . 8 9 2 3 3 3 3 3 3 3 3 2 0 a . . . . . . . . ",
". . . . . . . . . |.1 2 3 4 3 3 5 3 2 6 1.. . . . . . . . . ",
". . . . . . . . + > 2.3.] 6 4.5.6.7.8.9.} + . . . . . . . . ",
". . . . . . . . . + a 0.a.- b.c.d.e.f.g.+ . . . . . . . . . ",
". . . . . . . . . . + @ # @ $ $ @ # % + . . . . . . . . . . ",
". . . . . . . . . . . . . . . . . . . . . . . . . . . . . . ",
". . . . . . . . . . . . . . . . . . . . . . . . . . . . . . "};
