/* XPM */
static char * Stick_xpm[] = {
"30 30 134 2",
"  	c None",
". 	c #1B1216",
"+ 	c #1A1115",
"@ 	c #1A0F14",
"# 	c #190E14",
"$ 	c #190F14",
"% 	c #1A1015",
"& 	c #1E1919",
"* 	c #283125",
"= 	c #2E3D2B",
"- 	c #2B3628",
"; 	c #211F1C",
"> 	c #21211D",
", 	c #2B3828",
"' 	c #2F3F2C",
") 	c #2A3426",
"! 	c #1F1A1A",
"~ 	c #1F1C1B",
"{ 	c #3E613D",
"] 	c #5BA35E",
"^ 	c #64B768",
"/ 	c #5FAC62",
"( 	c #4B7E4C",
"_ 	c #4C814D",
": 	c #61AF64",
"< 	c #65BA69",
"[ 	c #5EA861",
"} 	c #416740",
"| 	c #201E1C",
"1 	c #375336",
"2 	c #67BD6B",
"3 	c #66BB6A",
"4 	c #66BC6B",
"5 	c #66BC6A",
"6 	c #62B165",
"7 	c #395738",
"8 	c #4E864F",
"9 	c #4F8851",
"0 	c #1F1B1A",
"a 	c #539054",
"b 	c #539155",
"c 	c #457246",
"d 	c #457145",
"e 	c #201B19",
"f 	c #252018",
"g 	c #231D18",
"h 	c #395638",
"i 	c #3A5839",
"j 	c #569858",
"k 	c #559557",
"l 	c #455A2E",
"m 	c #687D2A",
"n 	c #81A031",
"o 	c #7A972F",
"p 	c #525F24",
"q 	c #1E1A1A",
"r 	c #406640",
"s 	c #569657",
"t 	c #426B42",
"u 	c #579959",
"v 	c #569758",
"w 	c #506C34",
"x 	c #84A532",
"y 	c #A3CF3A",
"z 	c #A5D13A",
"A 	c #A5D23A",
"B 	c #9CC538",
"C 	c #607128",
"D 	c #221C17",
"E 	c #293326",
"F 	c #5DA760",
"G 	c #416941",
"H 	c #579A5A",
"I 	c #4F6A33",
"J 	c #86A632",
"K 	c #94BA36",
"L 	c #36381D",
"M 	c #180F15",
"N 	c #2E3E2C",
"O 	c #87A832",
"P 	c #A2CE3A",
"Q 	c #3F441F",
"R 	c #180E15",
"S 	c #60AE64",
"T 	c #A4D03A",
"U 	c #9AC237",
"V 	c #393C1E",
"W 	c #21201D",
"X 	c #4C804C",
"Y 	c #465A2E",
"Z 	c #758F2D",
"` 	c #272219",
" .	c #4A7D4B",
"..	c #3B5B3A",
"+.	c #475D2E",
"@.	c #87A933",
"#.	c #728B2D",
"$.	c #252118",
"%.	c #2A3527",
"&.	c #5FAB62",
"*.	c #446F44",
"=.	c #579858",
"-.	c #537035",
";.	c #88A933",
">.	c #97BE36",
",.	c #383A1D",
"'.	c #2D3C2B",
").	c #64B668",
"!.	c #589C5A",
"~.	c #436D43",
"{.	c #516E34",
"].	c #89AB33",
"^.	c #A0CB39",
"/.	c #3D421F",
"(.	c #283025",
"_.	c #5BA25E",
":.	c #90B535",
"<.	c #34341C",
"[.	c #1E1819",
"}.	c #3D603D",
"|.	c #446E44",
"1.	c #86A832",
"2.	c #5B6B27",
"3.	c #201A17",
"4.	c #375235",
"5.	c #467346",
"6.	c #3B5A3A",
"7.	c #475C2E",
"8.	c #697E2A",
"9.	c #809F30",
"0.	c #78942E",
"a.	c #4F5A23",
"b.	c #231E18",
"c.	c #241F18",
". . . . . . . . . . . . . . . . . . . . . . . . . . . . . . ",
". . . . . . . . . . . . . . . . . . . . . . . . . . . . . . ",
". . . . . . . . . . + @ # $ % % $ # $ + . . . . . . . . . . ",
". . . . . . . . . + & * = - ; > , ' ) ! + . . . . . . . . . ",
". . . . . . . . + ~ { ] ^ / ( _ : < [ } | + . . . . . . . . ",
". . . . . . . . . 1 : 2 3 4 3 3 5 3 2 6 7 . . . . . . . . . ",
". . . . . . . . ! 8 2 3 3 3 3 3 3 3 3 2 9 0 . . . . . . . . ",
". . . . . . . + | a 2 3 3 3 3 3 3 3 3 2 b | + . . . . . . . ",
". . . . + . 0 | 0 c 3 3 3 3 3 3 3 3 3 3 d e f g . + . . . . ",
". . . + | h 9 b c i j 5 3 3 3 3 3 3 3 k l m n o p f + . . . ",
". . + q r 6 2 2 3 s t u 3 3 3 3 3 3 v w x y z A B C D + . . ",
". . $ E F 2 3 3 3 3 j G H 3 3 3 3 j I J y y y y z K L M . . ",
". . # N < 3 3 3 3 3 3 u G u 5 5 v I O y y y y y y P Q R . . ",
". . $ , S 5 3 3 3 3 3 3 j t u v w J y y y y y y T U V M . . ",
". . % W X 3 3 3 3 3 3 3 5 j i Y J T y y y y y y y Z ` + . . ",
". . % |  .3 3 3 3 3 3 3 5 H ..+.@.T y y y y y y y #.$.+ . . ",
". . $ %.&.4 3 3 3 3 3 3 H *.H =.-.;.y y y y y y T >.,.M . . ",
". . # '.).5 3 3 3 3 3 !.~.H 5 5 =.{.].y y y y y y ^./.R . . ",
". . @ (._.2 3 3 3 5 H ~.!.3 3 3 3 u {.;.T y y y A :.<.M . . ",
". . + [.}.: 2 2 3 u |.H 3 3 3 3 3 3 =.-.1.y z A U 2.3.+ . . ",
". . . + ~ 4.8 a 5.6.u 5 3 3 3 3 3 3 3 s 7.8.9.0.a.b.+ . . . ",
". . . . + . ! | 0 5.3 3 3 3 3 3 3 3 3 3 c e c.D . + . . . . ",
". . . . . . . + | a 2 3 3 3 3 3 3 3 3 2 b | + . . . . . . . ",
". . . . . . . . ! 8 2 3 3 3 3 3 3 3 3 2 9 0 . . . . . . . . ",
". . . . . . . . . 4.: 2 5 4 3 3 5 3 2 6 h . . . . . . . . . ",
". . . . . . . . + ~ }._.).&. .X S < F r | + . . . . . . . . ",
". . . . . . . . . + [.(.'.%.| W , N E q + . . . . . . . . . ",
". . . . . . . . . . + @ # $ % % $ # $ + . . . . . . . . . . ",
". . . . . . . . . . . . . . . . . . . . . . . . . . . . . . ",
". . . . . . . . . . . . . . . . . . . . . . . . . . . . . . "};
