/* XPM */
static char * Stick_pressed_xpm[] = {
"30 30 138 2",
"  	c None",
". 	c #1B1216",
"+ 	c #1A1115",
"@ 	c #1A0F14",
"# 	c #190E14",
"$ 	c #190F14",
"% 	c #1A1015",
"& 	c #1E1819",
"* 	c #283025",
"= 	c #2D3C2B",
"- 	c #2A3527",
"; 	c #201E1C",
"> 	c #21201D",
", 	c #2B3828",
"' 	c #2E3E2C",
") 	c #293326",
"! 	c #1E1A1A",
"~ 	c #1F1C1B",
"{ 	c #3D603D",
"] 	c #5BA25E",
"^ 	c #64B668",
"/ 	c #5FAB62",
"( 	c #4A7D4B",
"_ 	c #4C804C",
": 	c #60AE64",
"< 	c #65BA69",
"[ 	c #5DA760",
"} 	c #406640",
"| 	c #375235",
"1 	c #61AF64",
"2 	c #67BD6B",
"3 	c #66BC6A",
"4 	c #66BC6B",
"5 	c #66BB6A",
"6 	c #62B165",
"7 	c #395638",
"8 	c #1F1A1A",
"9 	c #4E864F",
"0 	c #4F8851",
"a 	c #1F1B1A",
"b 	c #539054",
"c 	c #539155",
"d 	c #467346",
"e 	c #457245",
"f 	c #211C1D",
"g 	c #262022",
"h 	c #231D1F",
"i 	c #3B5B3A",
"j 	c #579959",
"k 	c #569758",
"l 	c #4C604A",
"m 	c #788876",
"n 	c #93AB93",
"o 	c #8A9F89",
"p 	c #596156",
"q 	c #251F20",
"r 	c #446E44",
"s 	c #579A5A",
"t 	c #579859",
"u 	c #5A7559",
"v 	c #9BB59B",
"w 	c #BDE0BE",
"x 	c #BFE3C0",
"y 	c #B2D2B3",
"z 	c #677365",
"A 	c #211A1D",
"B 	c #436D43",
"C 	c #589C5A",
"D 	c #587357",
"E 	c #9DB79C",
"F 	c #BEE1BF",
"G 	c #A7C4A7",
"H 	c #383835",
"I 	c #180F13",
"J 	c #9EB89E",
"K 	c #B9DCBA",
"L 	c #444640",
"M 	c #180E12",
"N 	c #446F44",
"O 	c #579A59",
"P 	c #AECDAF",
"Q 	c #3D3E39",
"R 	c #180E13",
"S 	c #4D614B",
"T 	c #9CB79C",
"U 	c #839682",
"V 	c #272223",
"W 	c #569858",
"X 	c #3A5838",
"Y 	c #4B5E49",
"Z 	c #9AB49A",
"` 	c #869A85",
" .	c #292424",
"..	c #426B42",
"+.	c #577155",
"@.	c #3F403C",
"#.	c #416941",
"$.	c #556E54",
"%.	c #BCDFBD",
"&.	c #464842",
"*.	c #ABCAAC",
"=.	c #3B3B37",
"-.	c #569658",
";.	c #577055",
">.	c #99B298",
",.	c #B4D5B5",
"'.	c #6D7A6B",
").	c #231C1E",
"!.	c #3A5839",
"~.	c #559557",
"{.	c #4A5D48",
"].	c #778675",
"^.	c #94AC94",
"/.	c #8DA38C",
"(.	c #5D665A",
"_.	c #272122",
":.	c #447145",
"<.	c #211C1C",
"[.	c #241E1F",
"}.	c #1B1316",
"|.	c #375336",
"1.	c #395738",
"2.	c #3E613D",
"3.	c #5BA35E",
"4.	c #64B768",
"5.	c #5FAC62",
"6.	c #4B7E4C",
"7.	c #4C814D",
"8.	c #5EA861",
"9.	c #416740",
"0.	c #1E1919",
"a.	c #283125",
"b.	c #2E3D2B",
"c.	c #2B3628",
"d.	c #211F1C",
"e.	c #21211D",
"f.	c #2F3F2C",
"g.	c #2A3426",
". . . . . . . . . . . . . . . . . . . . . . . . . . . . . . ",
". . . . . . . . . . . . . . . . . . . . . . . . . . . . . . ",
". . . . . . . . . . + @ # $ % % $ # $ + . . . . . . . . . . ",
". . . . . . . . . + & * = - ; > , ' ) ! + . . . . . . . . . ",
". . . . . . . . + ~ { ] ^ / ( _ : < [ } ; + . . . . . . . . ",
". . . . . . . . . | 1 2 3 4 5 5 3 5 2 6 7 . . . . . . . . . ",
". . . . . . . . 8 9 2 5 5 5 5 5 5 5 5 2 0 a . . . . . . . . ",
". . . . . . . + ; b 2 5 5 5 5 5 5 5 5 2 c ; % + . . . . . . ",
". . . . + . 8 ; a d 5 5 5 5 5 5 5 5 5 5 e f g h . % . . . . ",
". . . + ~ | 9 b d i j 3 5 5 5 5 5 5 5 k l m n o p q % . . . ",
". . + & { 1 2 2 5 j r s 5 5 5 5 5 5 t u v w x x y z A % . . ",
". . @ * ] 2 5 5 5 3 s B C 5 5 5 5 j D E F F w w x G H I . . ",
". . # = ^ 3 5 5 5 5 5 C B s 3 3 t D J F F w w w F K L M . . ",
". . $ - / 4 5 5 5 5 5 5 s N O t u E F w w w w w F P Q R . . ",
". . % ; ( 5 5 5 5 5 5 5 3 O i S T F w w w w w F w U V % . . ",
". . % > _ 5 5 5 5 5 5 5 3 W X Y Z F F w w w w F w `  .@ . . ",
". . $ , : 3 5 5 5 5 5 5 W ..j k +.Z F w w w w w F y @.R . . ",
". . # ' < 5 5 5 5 5 5 j #.j 3 3 k $.v F F w w w w %.&.M . . ",
". . $ ) [ 2 5 5 5 5 W #.O 5 5 5 5 W $.Z F F w w x *.=.R . . ",
". . + ! } 6 2 2 5 -...j 5 5 5 5 5 5 k ;.>.w x x ,.'.).% . . ",
". . . + ; 7 0 c e !.W 3 5 5 5 5 5 5 5 ~.{.].^./.(._.% . . . ",
". . . . + . a ; a e 5 5 5 5 5 5 5 5 5 5 :.<._.[.}.% . . . . ",
". . . . . . . + ; b 2 5 5 5 5 5 5 5 5 2 c ; % + . . . . . . ",
". . . . . . . . 8 9 2 5 5 5 5 5 5 5 5 2 0 a . . . . . . . . ",
". . . . . . . . . |.1 2 5 4 5 5 3 5 2 6 1.. . . . . . . . . ",
". . . . . . . . + ~ 2.3.4.5.6.7.1 < 8.9.; + . . . . . . . . ",
". . . . . . . . . + 0.a.b.c.d.e., f.g.8 + . . . . . . . . . ",
". . . . . . . . . . + @ # $ % % $ # $ + . . . . . . . . . . ",
". . . . . . . . . . . . . . . . . . . . . . . . . . . . . . ",
". . . . . . . . . . . . . . . . . . . . . . . . . . . . . . "};
