/* XPM */
static char * Stuck_xpm[] = {
"30 30 135 2",
"  	c None",
". 	c #1B1216",
"+ 	c #1A1115",
"@ 	c #190F14",
"# 	c #190E14",
"$ 	c #1A1015",
"% 	c #1A0F14",
"& 	c #1F1A1A",
"* 	c #2A3426",
"= 	c #2F3F2C",
"- 	c #2C3829",
"; 	c #21211D",
"> 	c #211F1C",
", 	c #2B3628",
"' 	c #2E3D2B",
") 	c #283125",
"! 	c #1E1919",
"~ 	c #201E1C",
"{ 	c #416740",
"] 	c #5EA861",
"^ 	c #65BA69",
"/ 	c #61AF64",
"( 	c #4C814D",
"_ 	c #4B7E4C",
": 	c #5FAC62",
"< 	c #64B768",
"[ 	c #5BA35E",
"} 	c #3E613D",
"| 	c #1F1C1B",
"1 	c #395738",
"2 	c #62B265",
"3 	c #67BD6B",
"4 	c #66BB6A",
"5 	c #66BC6A",
"6 	c #66BC6B",
"7 	c #375236",
"8 	c #1F1B1A",
"9 	c #4F8851",
"0 	c #4E864F",
"a 	c #539155",
"b 	c #539054",
"c 	c #457145",
"d 	c #457346",
"e 	c #221919",
"f 	c #291818",
"g 	c #261617",
"h 	c #395637",
"i 	c #559557",
"j 	c #579758",
"k 	c #51462E",
"l 	c #874027",
"m 	c #A9502E",
"n 	c #9F4C2C",
"o 	c #673323",
"p 	c #569758",
"q 	c #579959",
"r 	c #605534",
"s 	c #AF532F",
"t 	c #D86536",
"u 	c #DB6636",
"v 	c #CD6034",
"w 	c #793B26",
"x 	c #241617",
"y 	c #40653F",
"z 	c #569858",
"A 	c #579B5A",
"B 	c #5E5334",
"C 	c #B0542F",
"D 	c #D96536",
"E 	c #C25B32",
"F 	c #40221C",
"G 	c #181015",
"H 	c #B2542F",
"I 	c #D76435",
"J 	c #4C271E",
"K 	c #171015",
"L 	c #579859",
"M 	c #DA6536",
"N 	c #CA5F33",
"O 	c #45241D",
"P 	c #385738",
"Q 	c #53462E",
"R 	c #96482A",
"S 	c #2B1918",
"T 	c #395939",
"U 	c #55482E",
"V 	c #B35530",
"W 	c #93462A",
"X 	c #426B42",
"Y 	c #589A59",
"Z 	c #635735",
"` 	c #C65D33",
" .	c #42231C",
"..	c #579A5A",
"+.	c #416941",
"@.	c #625535",
"#.	c #B55530",
"$.	c #D36335",
"%.	c #4A261E",
"&.	c #589C5A",
"*.	c #BD5931",
"=.	c #3D211B",
"-.	c #B15530",
";.	c #CB5F33",
">.	c #723824",
",.	c #221517",
"'.	c #457245",
").	c #3A5839",
"!.	c #569658",
"~.	c #54482F",
"{.	c #884128",
"].	c #A84F2D",
"^.	c #9C4B2C",
"/.	c #623122",
"(.	c #261718",
"_.	c #251617",
":.	c #62B165",
"<.	c #375235",
"[.	c #406640",
"}.	c #5DA760",
"|.	c #60AE64",
"1.	c #4C804C",
"2.	c #4A7D4B",
"3.	c #5FAB62",
"4.	c #64B668",
"5.	c #5BA25E",
"6.	c #3D603D",
"7.	c #1E1A1A",
"8.	c #293326",
"9.	c #2E3E2C",
"0.	c #21201D",
"a.	c #2A3527",
"b.	c #2D3C2B",
"c.	c #283025",
"d.	c #1E1819",
". . . . . . . . . . . . . . . . . . . . . . . . . . . . . . ",
". . . . . . . . . . . . . . . . . . . . . . . . . . . . . . ",
". . . . . . . . . . + @ # @ $ $ @ # % + . . . . . . . . . . ",
". . . . . . . . . + & * = - ; > , ' ) ! + . . . . . . . . . ",
". . . . . . . . + ~ { ] ^ / ( _ : < [ } | + . . . . . . . . ",
". . . . . . . . . 1 2 3 4 5 4 4 6 4 3 / 7 . . . . . . . . . ",
". . . . . . . . 8 9 3 4 4 4 4 4 4 4 4 3 0 & . . . . . . . . ",
". . . . . . . + ~ a 3 4 4 4 4 4 4 4 4 3 b ~ + . . . . . . . ",
". . . . + . 8 ~ 8 c 4 4 4 4 4 4 4 4 4 4 d e f g . + . . . . ",
". . . + ~ 1 9 a c h i 4 4 4 4 4 4 4 5 j k l m n o f + . . . ",
". . + & { 2 3 3 4 i { p 4 4 4 4 4 5 q r s t u u v w x + . . ",
". . @ * ] 3 4 4 4 4 p y z 4 4 4 5 A B C D t t t u E F G . . ",
". . # = ^ 4 4 4 4 4 4 z y p 5 5 q B H D t t t t t I J K . . ",
". . @ - / 5 4 4 4 4 4 4 p { p L r C D t t t t t M N O G . . ",
". . $ ; ( 4 4 4 4 4 4 4 5 p P Q C D t t t t t t t R S + . . ",
". . $ > _ 4 4 4 4 4 4 4 5 q T U V D t t t t t t t W f + . . ",
". . @ , : 6 4 4 4 4 4 4 q X z Y Z V D t t t t t M `  .G . . ",
". . # ' < 4 4 4 4 4 4 ..+.z 5 5 Y @.#.D t t t t D $.%.K . . ",
". . % ) [ 3 4 4 4 5 q +.q 4 4 4 5 &.@.V D t t t u *.=.G . . ",
". . + ! } / 3 3 4 z X z 4 4 4 4 4 5 Y Z -.D u u ;.>.,.+ . . ",
". . . + | 7 0 b '.).!.4 4 4 4 4 4 4 5 L ~.{.].^./.(.+ . . . ",
". . . . + . & ~ 8 '.4 4 4 4 4 4 4 4 4 4 d e f _.. + . . . . ",
". . . . . . . + ~ a 3 4 4 4 4 4 4 4 4 3 b ~ + . . . . . . . ",
". . . . . . . . 8 9 3 4 4 4 4 4 4 4 4 3 0 & . . . . . . . . ",
". . . . . . . . . h :.3 4 6 4 4 6 5 3 / <.. . . . . . . . . ",
". . . . . . . . + ~ [.}.^ |.1.2.3.4.5.6.| + . . . . . . . . ",
". . . . . . . . . + 7.8.9.- 0.~ a.b.c.d.+ . . . . . . . . . ",
". . . . . . . . . . + @ # @ $ $ @ # % + . . . . . . . . . . ",
". . . . . . . . . . . . . . . . . . . . . . . . . . . . . . ",
". . . . . . . . . . . . . . . . . . . . . . . . . . . . . . "};
