/* XPM */
static char * Shade_xpm[] = {
"30 30 134 2",
"  	c None",
". 	c #1B1216",
"+ 	c #1A1115",
"@ 	c #190F14",
"# 	c #190E14",
"$ 	c #1A1015",
"% 	c #1A0F14",
"& 	c #1E1A1A",
"* 	c #293326",
"= 	c #2E3E2C",
"- 	c #2B3828",
"; 	c #21201D",
"> 	c #201E1C",
", 	c #2A3527",
"' 	c #2D3C2B",
") 	c #283025",
"! 	c #1E1819",
"~ 	c #406640",
"{ 	c #5DA760",
"] 	c #65BA69",
"^ 	c #60AE64",
"/ 	c #4C804C",
"( 	c #4A7D4B",
"_ 	c #5FAB62",
": 	c #64B668",
"< 	c #5BA25E",
"[ 	c #3D603D",
"} 	c #1F1C1B",
"| 	c #395638",
"1 	c #62B165",
"2 	c #67BD6B",
"3 	c #66BB6A",
"4 	c #66BC6A",
"5 	c #66BC6B",
"6 	c #61AF64",
"7 	c #375235",
"8 	c #1F1B1A",
"9 	c #4F8851",
"0 	c #4E864F",
"a 	c #1F1A1A",
"b 	c #539155",
"c 	c #539054",
"d 	c #221C17",
"e 	c #241F18",
"f 	c #201B19",
"g 	c #457246",
"h 	c #467346",
"i 	c #231E18",
"j 	c #4F5A23",
"k 	c #78942E",
"l 	c #809F30",
"m 	c #697E2A",
"n 	c #475C2E",
"o 	c #569657",
"p 	c #579959",
"q 	c #3B5A3A",
"r 	c #201A17",
"s 	c #5B6B27",
"t 	c #9AC237",
"u 	c #A5D23A",
"v 	c #A5D13A",
"w 	c #A3CF3A",
"x 	c #86A832",
"y 	c #537035",
"z 	c #579858",
"A 	c #579A5A",
"B 	c #446E44",
"C 	c #180F15",
"D 	c #34341C",
"E 	c #90B535",
"F 	c #A4D03A",
"G 	c #88A933",
"H 	c #516E34",
"I 	c #589C5A",
"J 	c #436D43",
"K 	c #180E15",
"L 	c #3D421F",
"M 	c #A0CB39",
"N 	c #89AB33",
"O 	c #383A1D",
"P 	c #97BE36",
"Q 	c #446F44",
"R 	c #252118",
"S 	c #728B2D",
"T 	c #87A933",
"U 	c #475D2E",
"V 	c #3B5B3A",
"W 	c #272219",
"X 	c #758F2D",
"Y 	c #86A632",
"Z 	c #465A2E",
"` 	c #3A5839",
" .	c #569858",
"..	c #393C1E",
"+.	c #506C34",
"@.	c #569758",
"#.	c #426B42",
"$.	c #3F441F",
"%.	c #A2CE3A",
"&.	c #87A832",
"*.	c #4F6A33",
"=.	c #416941",
"-.	c #36381D",
";.	c #94BA36",
">.	c #607128",
",.	c #9CC538",
"'.	c #84A532",
").	c #252018",
"!.	c #525F24",
"~.	c #7A972F",
"{.	c #81A031",
"].	c #687D2A",
"^.	c #455A2E",
"/.	c #559557",
"(.	c #231D18",
"_.	c #457145",
":.	c #395738",
"<.	c #375336",
"[.	c #416740",
"}.	c #5EA861",
"|.	c #4C814D",
"1.	c #4B7E4C",
"2.	c #5FAC62",
"3.	c #64B768",
"4.	c #5BA35E",
"5.	c #3E613D",
"6.	c #2A3426",
"7.	c #2F3F2C",
"8.	c #21211D",
"9.	c #211F1C",
"0.	c #2B3628",
"a.	c #2E3D2B",
"b.	c #283125",
"c.	c #1E1919",
". . . . . . . . . . . . . . . . . . . . . . . . . . . . . . ",
". . . . . . . . . . . . . . . . . . . . . . . . . . . . . . ",
". . . . . . . . . . + @ # @ $ $ @ # % + . . . . . . . . . . ",
". . . . . . . . . + & * = - ; > , ' ) ! + . . . . . . . . . ",
". . . . . . . . + > ~ { ] ^ / ( _ : < [ } + . . . . . . . . ",
". . . . . . . . . | 1 2 3 4 3 3 5 4 2 6 7 . . . . . . . . . ",
". . . . . . . . 8 9 2 3 3 3 3 3 3 3 3 2 0 a . . . . . . . . ",
". . . . . . . + > b 2 3 3 3 3 3 3 3 3 2 c > + . . . . . . . ",
". . . . + . d e f g 3 3 3 3 3 3 3 3 3 3 h 8 > a . + . . . . ",
". . . + i j k l m n o 3 3 3 3 3 3 3 4 p q h c 0 7 } + . . . ",
". . + r s t u v w x y z 3 3 3 3 3 3 A B p 3 2 2 6 [ ! + . . ",
". . C D E u w w w F G H p 3 3 3 3 I J A 4 3 3 3 2 < ) % . . ",
". . K L M w w w w w w N H z 4 4 A J I 3 3 3 3 3 4 : ' # . . ",
". . C O P F w w w w w w G y z A Q A 3 3 3 3 3 3 5 _ , @ . . ",
". . + R S w w w w w w w F T U V A 4 3 3 3 3 3 3 3 ( > $ . . ",
". . + W X w w w w w w w F Y Z `  .4 3 3 3 3 3 3 3 / ; $ . . ",
". . C ..t F w w w w w w Y +.@.p #. .3 3 3 3 3 3 4 ^ - @ . . ",
". . K $.%.w w w w w w &.*.@.4 4 p =.p 3 3 3 3 3 3 ] = # . . ",
". . C -.;.v w w w w Y *. .3 3 3 3 A =. .3 3 3 3 2 { * @ . . ",
". . + d >.,.u v w '.+.@.3 3 3 3 3 3 p #.o 3 2 2 1 ~ & + . . ",
". . . + ).!.~.{.].^./.3 3 3 3 3 3 3 4  .` g b 9 | > + . . . ",
". . . . + . (.).f _.3 3 3 3 3 3 3 3 3 3 g 8 > 8 . + . . . . ",
". . . . . . . + > b 2 3 3 3 3 3 3 3 3 2 c > + . . . . . . . ",
". . . . . . . . 8 9 2 3 3 3 3 3 3 3 3 2 0 a . . . . . . . . ",
". . . . . . . . . :.1 2 3 4 3 3 5 3 2 6 <.. . . . . . . . . ",
". . . . . . . . + > [.}.] 6 |.1.2.3.4.5.} + . . . . . . . . ",
". . . . . . . . . + a 6.7.- 8.9.0.a.b.c.+ . . . . . . . . . ",
". . . . . . . . . . + @ # @ $ $ @ # % + . . . . . . . . . . ",
". . . . . . . . . . . . . . . . . . . . . . . . . . . . . . ",
". . . . . . . . . . . . . . . . . . . . . . . . . . . . . . "};
